<svg width="118" height="118" viewBox="0 0 118 118" fill="none" xmlns="http://www.w3.org/2000/svg">
<mask id="path-1-inside-1_232_5652" fill="white">
<path fill-rule="evenodd" clip-rule="evenodd" d="M68 0C77.6056 0 85.4538 7.52403 85.9727 17C86.0029 17.5515 86.4477 18 87 18L114 18C116.209 18 118 19.7909 118 22L118 49C118 49.5523 117.552 49.9971 117 50.0273C107.524 50.5462 100 58.3944 100 68C100 77.6056 107.524 85.4538 117 85.9727C117.552 86.0029 118 86.4477 118 87L118 114C118 116.209 116.209 118 114 118L87 118C86.4477 118 86.0029 117.552 85.9727 117C85.4538 107.524 77.6056 100 68 100C58.3944 100 50.5462 107.524 50.0273 117C49.9971 117.552 49.5523 118 49 118L22 118C19.7909 118 18 116.209 18 114L18 87C18 86.4477 17.5515 86.0029 17 85.9727C7.52403 85.4538 0 77.6056 0 68C0 58.3944 7.52403 50.5462 17 50.0273C17.5515 49.9971 18 49.5523 18 49L18 22C18 19.7909 19.7909 18 22 18L49 18C49.5523 18 49.9971 17.5515 50.0273 17C50.5462 7.52403 58.3944 0 68 0Z"/>
</mask>
<path fill-rule="evenodd" clip-rule="evenodd" d="M68 0C77.6056 0 85.4538 7.52403 85.9727 17C86.0029 17.5515 86.4477 18 87 18L114 18C116.209 18 118 19.7909 118 22L118 49C118 49.5523 117.552 49.9971 117 50.0273C107.524 50.5462 100 58.3944 100 68C100 77.6056 107.524 85.4538 117 85.9727C117.552 86.0029 118 86.4477 118 87L118 114C118 116.209 116.209 118 114 118L87 118C86.4477 118 86.0029 117.552 85.9727 117C85.4538 107.524 77.6056 100 68 100C58.3944 100 50.5462 107.524 50.0273 117C49.9971 117.552 49.5523 118 49 118L22 118C19.7909 118 18 116.209 18 114L18 87C18 86.4477 17.5515 86.0029 17 85.9727C7.52403 85.4538 0 77.6056 0 68C0 58.3944 7.52403 50.5462 17 50.0273C17.5515 49.9971 18 49.5523 18 49L18 22C18 19.7909 19.7909 18 22 18L49 18C49.5523 18 49.9971 17.5515 50.0273 17C50.5462 7.52403 58.3944 0 68 0Z" fill="white"/>
<path d="M114 18L114 17L114 17L114 18ZM18 114L17 114V114H18ZM18 22L17 22L17 22L18 22ZM22 18L22 17H22V18ZM49 18L49 19L49 18ZM50.0273 17L49.0288 16.9454L50.0273 17ZM17 50.0273L16.9454 49.0288L17 50.0273ZM18 49L17 49L18 49ZM18 87L17 87L18 87ZM17 85.9727L16.9454 86.9712L17 85.9727ZM85.9727 17L86.9712 16.9454L85.9727 17ZM87 18L87 17L87 18ZM50.0273 117L49.0288 116.945L50.0273 117ZM117 85.9727L117.055 84.9742L117 85.9727ZM85.9727 117L86.9712 116.945L85.9727 117ZM117 50.0273L116.945 49.0288L117 50.0273ZM86.9712 16.9454C86.4235 6.94204 78.1396 -1 68 -1V1C77.0716 1 84.4842 8.10603 84.9742 17.0547L86.9712 16.9454ZM114 17L87 17L87 19L114 19L114 17ZM119 22C119 19.2386 116.761 17 114 17V19C115.657 19 117 20.3431 117 22H119ZM119 49L119 22H117L117 49H119ZM101 68C101 58.9284 108.106 51.5158 117.055 51.0258L116.945 49.0288C106.942 49.5765 99 57.8604 99 68H101ZM117.055 84.9742C108.106 84.4842 101 77.0716 101 68H99C99 78.1396 106.942 86.4235 116.945 86.9712L117.055 84.9742ZM119 114L119 87H117L117 114H119ZM114 119C116.761 119 119 116.761 119 114H117C117 115.657 115.657 117 114 117V119ZM87 119L114 119V117L87 117V119ZM68 101C77.0716 101 84.4842 108.106 84.9742 117.055L86.9712 116.945C86.4235 106.942 78.1396 99 68 99V101ZM51.0258 117.055C51.5158 108.106 58.9284 101 68 101V99C57.8604 99 49.5765 106.942 49.0288 116.945L51.0258 117.055ZM22 119L49 119V117L22 117L22 119ZM17 114C17 116.761 19.2386 119 22 119L22 117C20.3431 117 19 115.657 19 114H17ZM17 87L17 114L19 114L19 87L17 87ZM17.0547 84.9742C8.10603 84.4842 1 77.0716 1 68H-1C-1 78.1396 6.94204 86.4235 16.9454 86.9712L17.0547 84.9742ZM1 68C1 58.9284 8.10603 51.5158 17.0547 51.0258L16.9454 49.0288C6.94204 49.5765 -1 57.8604 -1 68H1ZM17 22L17 49L19 49L19 22L17 22ZM22 17C19.2386 17 17 19.2386 17 22H19C19 20.3431 20.3431 19 22 19V17ZM49 17L22 17L22 19L49 19L49 17ZM68 -1C57.8604 -1 49.5765 6.94204 49.0288 16.9454L51.0258 17.0547C51.5158 8.10603 58.9284 1 68 1V-1ZM49 19C50.1183 19 50.9685 18.1008 51.0258 17.0547L49.0288 16.9454C49.0276 16.9666 49.0187 16.9836 49.0081 16.994C49.0033 16.9987 49.0001 17.0002 48.9999 17.0002C48.9998 17.0003 49.0001 17.0001 49.0006 17C49.0012 16.9999 49.0012 17 49 17L49 19ZM17.0547 51.0258C18.1008 50.9685 19 50.1183 19 49L17 49C17 49.0012 16.9999 49.0012 17 49.0006C17.0001 49.0001 17.0003 48.9998 17.0002 48.9999C17.0002 49.0001 16.9987 49.0033 16.994 49.0081C16.9836 49.0187 16.9666 49.0276 16.9454 49.0288L17.0547 51.0258ZM19 87C19 85.8817 18.1008 85.0315 17.0547 84.9742L16.9454 86.9712C16.9667 86.9724 16.9836 86.9813 16.994 86.9919C16.9987 86.9967 17.0002 86.9999 17.0002 87.0001C17.0003 87.0002 17.0001 86.9999 17 86.9994C16.9999 86.9988 17 86.9988 17 87L19 87ZM84.9742 17.0547C85.0315 18.1008 85.8817 19 87 19L87 17C86.9988 17 86.9988 16.9999 86.9993 17C86.9999 17.0001 87.0002 17.0003 87.0001 17.0002C86.9999 17.0002 86.9967 16.9987 86.9919 16.994C86.9813 16.9836 86.9724 16.9667 86.9712 16.9454L84.9742 17.0547ZM49.0288 116.945C49.0276 116.967 49.0187 116.984 49.0081 116.994C49.0033 116.999 49.0001 117 48.9999 117C48.9998 117 49.0001 117 49.0007 117C49.0012 117 49.0012 117 49 117V119C50.1183 119 50.9685 118.101 51.0258 117.055L49.0288 116.945ZM116.945 86.9712C116.967 86.9724 116.984 86.9813 116.994 86.9919C116.999 86.9967 117 86.9999 117 87.0001C117 87.0002 117 86.9999 117 86.9993C117 86.9988 117 86.9988 117 87H119C119 85.8817 118.101 85.0315 117.055 84.9742L116.945 86.9712ZM87 117C86.9988 117 86.9988 117 86.9994 117C86.9999 117 87.0002 117 87.0001 117C86.9999 117 86.9967 116.999 86.9919 116.994C86.9813 116.984 86.9724 116.967 86.9712 116.945L84.9742 117.055C85.0315 118.101 85.8817 119 87 119V117ZM117 49C117 49.0012 117 49.0012 117 49.0006C117 49.0001 117 48.9998 117 48.9999C117 49.0001 116.999 49.0033 116.994 49.0081C116.984 49.0187 116.967 49.0276 116.945 49.0288L117.055 51.0258C118.101 50.9685 119 50.1183 119 49H117Z" fill="#D1D5DB" fill-opacity="0.1" mask="url(#path-1-inside-1_232_5652)"/>
<path d="M59.2151 90.144C58.4365 90.144 57.7645 89.9733 57.1991 89.632C56.6338 89.2907 56.1965 88.816 55.8871 88.208C55.5885 87.5893 55.4391 86.8747 55.4391 86.064C55.4391 85.4453 55.5245 84.8907 55.6951 84.4C55.8658 83.9093 56.1165 83.4933 56.4471 83.152C56.7778 82.8 57.1725 82.5333 57.6311 82.352C58.1005 82.1707 58.6285 82.08 59.2151 82.08C59.5991 82.08 59.9991 82.1387 60.4151 82.256C60.8311 82.3733 61.2098 82.576 61.5511 82.864C61.6578 82.9387 61.7271 83.0293 61.7591 83.136C61.7911 83.2427 61.7911 83.3493 61.7591 83.456C61.7271 83.552 61.6738 83.6373 61.5991 83.712C61.5245 83.776 61.4285 83.8133 61.3111 83.824C61.2045 83.8347 61.0925 83.7973 60.9751 83.712C60.6978 83.4987 60.4151 83.3493 60.1271 83.264C59.8391 83.1787 59.5618 83.136 59.2951 83.136C58.8791 83.136 58.5165 83.2053 58.2071 83.344C57.8978 83.472 57.6365 83.6587 57.4231 83.904C57.2098 84.1493 57.0445 84.4533 56.9271 84.816C56.8205 85.1787 56.7671 85.6 56.7671 86.08C56.7671 87.008 56.9858 87.744 57.4231 88.288C57.8605 88.8213 58.4845 89.088 59.2951 89.088C59.5618 89.088 59.8338 89.0453 60.1111 88.96C60.3991 88.8747 60.6871 88.7253 60.9751 88.512C61.0925 88.4267 61.2045 88.3893 61.3111 88.4C61.4178 88.4107 61.5085 88.4533 61.5831 88.528C61.6578 88.592 61.7058 88.6773 61.7271 88.784C61.7591 88.8907 61.7591 88.9973 61.7271 89.104C61.6951 89.2 61.6258 89.2853 61.5191 89.36C61.1778 89.6373 60.8045 89.84 60.3991 89.968C59.9938 90.0853 59.5991 90.144 59.2151 90.144ZM64.5894 90C64.3974 90 64.248 89.952 64.1414 89.856C64.0347 89.7493 63.9814 89.6053 63.9814 89.424C63.9814 89.2427 64.0347 89.1093 64.1414 89.024C64.248 88.928 64.3974 88.88 64.5894 88.88H66.6694V79.808H67.3574L65.0374 81.344C64.8987 81.4187 64.7654 81.4507 64.6374 81.44C64.52 81.4293 64.4187 81.3867 64.3334 81.312C64.2587 81.2267 64.2054 81.1307 64.1734 81.024C64.1414 80.9067 64.1467 80.7893 64.1894 80.672C64.232 80.544 64.3227 80.4373 64.4614 80.352L66.6694 78.896C66.808 78.8107 66.9414 78.7413 67.0694 78.688C67.1974 78.6347 67.3254 78.608 67.4534 78.608C67.6027 78.608 67.7254 78.656 67.8214 78.752C67.928 78.8373 67.9814 78.976 67.9814 79.168V88.88H69.9014C70.0934 88.88 70.2427 88.928 70.3494 89.024C70.456 89.1093 70.5094 89.2427 70.5094 89.424C70.5094 89.616 70.456 89.76 70.3494 89.856C70.2427 89.952 70.0934 90 69.9014 90H64.5894ZM73.7671 90C73.5325 90 73.3565 89.9467 73.2391 89.84C73.1325 89.7227 73.0791 89.568 73.0791 89.376C73.0791 89.2587 73.1058 89.1467 73.1591 89.04C73.2231 88.9227 73.3085 88.8053 73.4151 88.688L76.9991 84.848C77.5431 84.2613 77.9325 83.7227 78.1671 83.232C78.4125 82.7307 78.5351 82.224 78.5351 81.712C78.5351 81.072 78.3378 80.5867 77.9431 80.256C77.5591 79.9147 76.9938 79.744 76.2471 79.744C75.7671 79.744 75.3138 79.8187 74.8871 79.968C74.4605 80.1173 74.0498 80.3467 73.6551 80.656C73.5165 80.7627 73.3885 80.8107 73.2711 80.8C73.1645 80.7893 73.0685 80.7467 72.9831 80.672C72.8978 80.5973 72.8391 80.5013 72.8071 80.384C72.7751 80.2667 72.7751 80.1493 72.8071 80.032C72.8498 79.9147 72.9351 79.808 73.0631 79.712C73.4791 79.3707 73.9805 79.0987 74.5671 78.896C75.1538 78.6827 75.7511 78.576 76.3591 78.576C77.1165 78.576 77.7565 78.6933 78.2791 78.928C78.8018 79.1627 79.1965 79.5093 79.4631 79.968C79.7298 80.416 79.8631 80.9653 79.8631 81.616C79.8631 82.064 79.7885 82.5067 79.6391 82.944C79.5005 83.3707 79.2818 83.808 78.9831 84.256C78.6951 84.704 78.3165 85.168 77.8471 85.648L74.4391 89.248V88.88H79.8311C80.0338 88.88 80.1831 88.928 80.2791 89.024C80.3858 89.1093 80.4391 89.2427 80.4391 89.424C80.4391 89.616 80.3858 89.76 80.2791 89.856C80.1831 89.952 80.0338 90 79.8311 90H73.7671Z" fill="#111827"/>
<g clip-path="url(#clip0_232_5652)">
<path d="M81.125 59.7172V56.2828C81.125 56.1538 81.0266 56.0444 80.8997 56.0312L76.9994 55.6178C76.8966 55.6069 76.8134 55.5347 76.785 55.4362C76.5969 54.7909 76.3409 54.1762 76.0238 53.6009C75.9734 53.5112 75.9822 53.3997 76.0478 53.3209L78.5153 50.2716C78.5962 50.1709 78.5897 50.0244 78.4978 49.9347L76.0697 47.5066C76.0257 47.4624 75.9669 47.4362 75.9046 47.433C75.8424 47.4297 75.7812 47.4497 75.7328 47.4891L72.6791 49.9544C72.5981 50.02 72.4888 50.0266 72.3991 49.9784C71.8168 49.6588 71.2014 49.4035 70.5638 49.2172C70.4653 49.1888 70.3931 49.1056 70.3822 49.0028L69.9688 45.1003C69.9556 44.9734 69.8462 44.875 69.7172 44.875H66.2828C66.1538 44.875 66.0444 44.9734 66.0312 45.1003L65.6178 49.0006C65.6069 49.1034 65.5347 49.1866 65.4362 49.215C64.7909 49.4031 64.1762 49.6591 63.6009 49.9762C63.5112 50.0266 63.3997 50.0178 63.3209 49.9522L60.2716 47.4869C60.2232 47.4475 60.162 47.4276 60.0998 47.4308C60.0375 47.434 59.9787 47.4602 59.9347 47.5044L57.5066 49.9325C57.4624 49.9765 57.4362 50.0353 57.433 50.0976C57.4297 50.1598 57.4497 50.221 57.4891 50.2694L59.9566 53.3187C60.0222 53.3997 60.0288 53.5091 59.9806 53.5988C59.661 54.1811 59.4057 54.7965 59.2194 55.4341C59.1909 55.5325 59.1078 55.6047 59.005 55.6156L55.1003 56.0312C54.9734 56.0444 54.875 56.1538 54.875 56.2828V59.7172C54.875 59.8462 54.9734 59.9556 55.1003 59.9688L59.0006 60.3822C59.1034 60.3931 59.1866 60.4653 59.215 60.5638C59.4031 61.2091 59.6591 61.8238 59.9762 62.3991C60.0266 62.4888 60.0178 62.6003 59.9522 62.6791L57.4869 65.7284C57.4059 65.8291 57.4125 65.9756 57.5044 66.0653L59.9325 68.4934C60.0244 68.5853 60.1687 68.5919 60.2694 68.5109L63.3187 66.0434C63.3997 65.9778 63.5091 65.9713 63.5988 66.0194C64.1763 66.3366 64.7909 66.5925 65.4341 66.7806C65.5325 66.8091 65.6047 66.8922 65.6156 66.995L66.0312 70.8997C66.0444 71.0288 66.1538 71.125 66.2828 71.125H69.7172C69.8462 71.125 69.9556 71.0266 69.9688 70.8997L70.3822 66.9994C70.3931 66.8966 70.4653 66.8134 70.5638 66.785C71.2091 66.5969 71.8238 66.3409 72.3991 66.0238C72.4888 65.9734 72.6003 65.9822 72.6791 66.0478L75.7284 68.5153C75.8291 68.5962 75.9756 68.5897 76.0653 68.4978L78.4934 66.0697C78.5853 65.9778 78.5919 65.8334 78.5109 65.7328L76.0434 62.6834C75.9778 62.6025 75.9713 62.4931 76.0194 62.4034C76.3366 61.8259 76.5925 61.2112 76.7806 60.5681C76.8091 60.4697 76.8922 60.3975 76.995 60.3866L80.8997 59.9688C81.0266 59.9556 81.125 59.8462 81.125 59.7172ZM68 60.4675C66.6372 60.4675 65.5325 59.3628 65.5325 58C65.5325 56.6372 66.6372 55.5325 68 55.5325C69.3628 55.5325 70.4675 56.6372 70.4675 58C70.4675 59.3628 69.3628 60.4675 68 60.4675Z" fill="#82AEC0"/>
<path d="M71.6225 54.8237C72.4253 55.7381 72.8869 56.9609 72.8103 58.2909C72.6681 60.7321 70.66 62.7075 68.2166 62.8146C67.1775 62.8606 66.2085 62.5762 65.4035 62.06C65.3422 62.0206 65.2766 62.1037 65.3291 62.1562C65.8327 62.6714 66.4438 63.0692 67.1186 63.3214C67.7935 63.5736 68.5157 63.6739 69.2338 63.6153C71.5919 63.4293 73.5125 61.5371 73.7291 59.1812C73.8975 57.3525 73.0597 55.7096 71.71 54.734C71.6466 54.6903 71.5744 54.7668 71.6225 54.8237Z" fill="#2F7889"/>
<path d="M63.5966 58.2888C63.45 55.4122 65.3094 53.3035 67.9738 53.3035C68.116 53.3035 68.3413 53.3035 68.5163 53.5047C68.7372 53.7628 68.7569 54.0735 68.5163 54.3294C68.3391 54.5175 68.0897 54.5307 67.9628 54.5482C65.2722 54.896 64.6422 56.5935 64.5 58.2166C64.4935 58.2888 64.5132 58.7307 64.126 58.7766C63.6557 58.8313 63.5988 58.3588 63.5966 58.2888Z" fill="#B9E4EA"/>
<path d="M59.5212 58.409C59.5191 53.5899 62.9994 49.6174 67.8622 49.4293C68.0109 49.4228 68.3981 49.4293 68.6387 49.6459C68.8597 49.8449 68.9406 50.1949 68.8116 50.4815C68.6037 50.9431 68.1881 50.9343 68.0766 50.9387C64.0275 51.0831 60.5997 54.3796 60.5975 58.3653C60.5975 58.4287 60.5866 58.4921 60.5647 58.549L60.5428 58.6037C60.3766 59.0368 59.7728 59.0609 59.5737 58.6431C59.5409 58.5687 59.5212 58.4899 59.5212 58.409Z" fill="#94D1E0"/>
</g>
<defs>
<clipPath id="clip0_232_5652">
<rect width="28" height="28" fill="white" transform="translate(54 44)"/>
</clipPath>
</defs>
</svg>
