<svg width="118" height="118" viewBox="0 0 118 118" fill="none" xmlns="http://www.w3.org/2000/svg">
<mask id="path-1-inside-1_232_5657" fill="white">
<path fill-rule="evenodd" clip-rule="evenodd" d="M69 18C68.4477 18 68.0029 17.5515 67.9727 17C67.4538 7.52403 59.6056 0 50 0C40.3944 0 32.5462 7.52403 32.0273 17C31.9971 17.5515 31.5523 18 31 18L4 18C1.79086 18 0 19.7909 0 22L1.83923e-06 49C1.87685e-06 49.5523 0.448499 49.9971 0.999957 50.0273C10.476 50.5462 18 58.3944 18 68C18 77.6056 10.476 85.4538 0.999959 85.9727C0.4485 86.0029 1.87685e-06 86.4477 1.83923e-06 87L0 114C0 116.209 1.79086 118 4 118H31C31.5523 118 31.9971 117.552 32.0273 117C32.5462 107.524 40.3944 100 50 100C59.6056 100 67.4538 107.524 67.9727 117C68.0029 117.552 68.4477 118 69 118H96C98.2091 118 100 116.209 100 114L100 87C100 86.4477 100.448 86.0029 101 85.9727C110.476 85.4538 118 77.6056 118 68C118 58.3944 110.476 50.5462 101 50.0273C100.448 49.9971 100 49.5523 100 49L100 22C100 19.7909 98.2091 18 96 18L69 18Z"/>
</mask>
<path fill-rule="evenodd" clip-rule="evenodd" d="M69 18C68.4477 18 68.0029 17.5515 67.9727 17C67.4538 7.52403 59.6056 0 50 0C40.3944 0 32.5462 7.52403 32.0273 17C31.9971 17.5515 31.5523 18 31 18L4 18C1.79086 18 0 19.7909 0 22L1.83923e-06 49C1.87685e-06 49.5523 0.448499 49.9971 0.999957 50.0273C10.476 50.5462 18 58.3944 18 68C18 77.6056 10.476 85.4538 0.999959 85.9727C0.4485 86.0029 1.87685e-06 86.4477 1.83923e-06 87L0 114C0 116.209 1.79086 118 4 118H31C31.5523 118 31.9971 117.552 32.0273 117C32.5462 107.524 40.3944 100 50 100C59.6056 100 67.4538 107.524 67.9727 117C68.0029 117.552 68.4477 118 69 118H96C98.2091 118 100 116.209 100 114L100 87C100 86.4477 100.448 86.0029 101 85.9727C110.476 85.4538 118 77.6056 118 68C118 58.3944 110.476 50.5462 101 50.0273C100.448 49.9971 100 49.5523 100 49L100 22C100 19.7909 98.2091 18 96 18L69 18Z" fill="white"/>
<path d="M4 18L4 17H4V18ZM0 22L-1 22L-1 22L0 22ZM0 114L-1 114V114H0ZM96 18L96 17L96 17L96 18ZM101 50.0273L101.055 49.0288L101 50.0273ZM101 85.9727L100.945 84.9742L101 85.9727ZM32.0273 117L31.0288 116.945L32.0273 117ZM0.999959 85.9727L0.945286 84.9742L0.999959 85.9727ZM32.0273 17L31.0288 16.9454L32.0273 17ZM67.9727 117L68.9712 116.945L67.9727 117ZM67.9727 17L68.9712 16.9454L67.9727 17ZM69 18L69 17L69 18ZM50 1C59.0716 1 66.4842 8.10603 66.9742 17.0547L68.9712 16.9454C68.4235 6.94204 60.1396 -1 50 -1V1ZM33.0258 17.0547C33.5158 8.10603 40.9284 1 50 1V-1C39.8604 -1 31.5765 6.94204 31.0288 16.9454L33.0258 17.0547ZM31 17L4 17L4 19L31 19L31 17ZM4 17C1.23858 17 -1 19.2386 -1 22H1C1 20.3431 2.34315 19 4 19V17ZM-1 22L-0.999998 49L1 49L1 22L-1 22ZM0.945284 51.0258C9.89398 51.5158 17 58.9284 17 68H19C19 57.8604 11.058 49.5765 1.05463 49.0288L0.945284 51.0258ZM17 68C17 77.0716 9.89398 84.4842 0.945286 84.9742L1.05463 86.9712C11.058 86.4235 19 78.1396 19 68H17ZM-0.999998 87L-1 114L1 114L1 87L-0.999998 87ZM-1 114C-1 116.761 1.23858 119 4 119L4 117C2.34315 117 1 115.657 1 114H-1ZM4 119H31V117H4L4 119ZM33.0258 117.055C33.5158 108.106 40.9284 101 50 101V99C39.8604 99 31.5765 106.942 31.0288 116.945L33.0258 117.055ZM50 101C59.0716 101 66.4842 108.106 66.9742 117.055L68.9712 116.945C68.4235 106.942 60.1396 99 50 99V101ZM69 119H96V117H69V119ZM96 119C98.7614 119 101 116.761 101 114H99C99 115.657 97.6569 117 96 117V119ZM101 114L101 87H99L99 114H101ZM101.055 86.9712C111.058 86.4235 119 78.1396 119 68H117C117 77.0716 109.894 84.4842 100.945 84.9742L101.055 86.9712ZM119 68C119 57.8604 111.058 49.5765 101.055 49.0288L100.945 51.0258C109.894 51.5158 117 58.9284 117 68H119ZM101 49L101 22H99L99 49H101ZM101 22C101 19.2386 98.7614 17 96 17V19C97.6569 19 99 20.3431 99 22H101ZM96 17L69 17L69 19L96 19L96 17ZM101.055 49.0288C101.033 49.0276 101.016 49.0187 101.006 49.0081C101.001 49.0033 101 49.0001 101 48.9999C101 48.9998 101 49.0001 101 49.0006C101 49.0012 101 49.0012 101 49H99C99 50.1183 99.8992 50.9685 100.945 51.0258L101.055 49.0288ZM101 87C101 86.9988 101 86.9988 101 86.9993C101 86.9999 101 87.0002 101 87.0001C101 86.9999 101.001 86.9967 101.006 86.9919C101.016 86.9813 101.033 86.9724 101.055 86.9712L100.945 84.9742C99.8992 85.0315 99 85.8817 99 87H101ZM31 119C32.1183 119 32.9685 118.101 33.0258 117.055L31.0288 116.945C31.0276 116.967 31.0187 116.984 31.0081 116.994C31.0033 116.999 31.0001 117 30.9999 117C30.9998 117 31.0001 117 31.0007 117C31.0012 117 31.0012 117 31 117V119ZM-0.999998 49C-0.999998 50.1183 -0.100787 50.9685 0.945284 51.0258L1.05463 49.0288C1.03335 49.0276 1.0164 49.0187 1.006 49.0081C1.00127 49.0033 0.999848 49.0001 0.999768 48.9999C0.99974 48.9998 0.99987 49.0001 0.999978 49.0007C1.0001 49.0012 1 49.0012 1 49L-0.999998 49ZM0.945286 84.9742C-0.100784 85.0315 -0.999998 85.8817 -0.999998 87L1 87C1 86.9988 1.0001 86.9988 0.999978 86.9994C0.99987 86.9999 0.99974 87.0002 0.999768 87.0001C0.999848 86.9999 1.00127 86.9967 1.006 86.9919C1.0164 86.9813 1.03335 86.9724 1.05463 86.9712L0.945286 84.9742ZM31.0288 16.9454C31.0276 16.9667 31.0187 16.9836 31.0081 16.994C31.0033 16.9987 31.0001 17.0002 30.9999 17.0002C30.9998 17.0003 31.0001 17.0001 31.0006 17C31.0012 16.9999 31.0012 17 31 17L31 19C32.1183 19 32.9685 18.1008 33.0258 17.0547L31.0288 16.9454ZM66.9742 117.055C67.0315 118.101 67.8817 119 69 119V117C68.9988 117 68.9988 117 68.9994 117C68.9999 117 69.0002 117 69.0001 117C68.9999 117 68.9967 116.999 68.9919 116.994C68.9813 116.984 68.9724 116.967 68.9712 116.945L66.9742 117.055ZM66.9742 17.0547C67.0315 18.1008 67.8817 19 69 19L69 17C68.9988 17 68.9988 16.9999 68.9994 17C68.9999 17.0001 69.0002 17.0003 69.0001 17.0002C68.9999 17.0002 68.9967 16.9987 68.9919 16.994C68.9813 16.9836 68.9724 16.9666 68.9712 16.9454L66.9742 17.0547Z" fill="#D1D5DB" fill-opacity="0.1" mask="url(#path-1-inside-1_232_5657)"/>
<path d="M36.3669 93.024C35.8016 93.024 35.2469 92.9547 34.7029 92.816C34.1696 92.688 33.6843 92.48 33.2469 92.192C33.1189 92.1173 33.0336 92.0267 32.9909 91.92C32.9589 91.8133 32.9536 91.7067 32.9749 91.6C32.9963 91.504 33.0443 91.4133 33.1189 91.328C33.1936 91.2533 33.2789 91.2053 33.3749 91.184C33.4816 91.1627 33.5883 91.1787 33.6949 91.232C34.1643 91.52 34.6123 91.7173 35.0389 91.824C35.4656 91.9307 35.8869 91.984 36.3029 91.984C37.0603 91.984 37.6309 91.7813 38.0149 91.376C38.4096 90.9707 38.6069 90.384 38.6069 89.616V87.808H38.7669C38.6069 88.4267 38.2656 88.9173 37.7429 89.28C37.2309 89.6427 36.6283 89.824 35.9349 89.824C35.2203 89.824 34.6016 89.664 34.0789 89.344C33.5563 89.0133 33.1509 88.5547 32.8629 87.968C32.5856 87.3813 32.4469 86.704 32.4469 85.936C32.4469 85.36 32.5269 84.8373 32.6869 84.368C32.8469 83.888 33.0763 83.4827 33.3749 83.152C33.6843 82.8107 34.0523 82.5493 34.4789 82.368C34.9163 82.176 35.4016 82.08 35.9349 82.08C36.6389 82.08 37.2469 82.2613 37.7589 82.624C38.2709 82.976 38.6016 83.456 38.7509 84.064L38.5909 84.256V82.768C38.5909 82.5547 38.6443 82.3947 38.7509 82.288C38.8683 82.1707 39.0283 82.112 39.2309 82.112C39.4443 82.112 39.6043 82.1707 39.7109 82.288C39.8176 82.3947 39.8709 82.5547 39.8709 82.768V89.44C39.8709 90.624 39.5723 91.5147 38.9749 92.112C38.3883 92.72 37.5189 93.024 36.3669 93.024ZM36.1749 88.768C36.6763 88.768 37.1083 88.656 37.4709 88.432C37.8336 88.1973 38.1109 87.8667 38.3029 87.44C38.5056 87.0133 38.6069 86.512 38.6069 85.936C38.6069 85.072 38.3883 84.3893 37.9509 83.888C37.5136 83.376 36.9216 83.12 36.1749 83.12C35.6843 83.12 35.2576 83.2373 34.8949 83.472C34.5323 83.696 34.2496 84.0213 34.0469 84.448C33.8549 84.864 33.7589 85.36 33.7589 85.936C33.7589 86.8 33.9776 87.488 34.4149 88C34.8523 88.512 35.4389 88.768 36.1749 88.768ZM42.9419 90.08C42.7286 90.08 42.5686 90.0213 42.4619 89.904C42.3553 89.776 42.3019 89.6 42.3019 89.376V82.832C42.3019 82.608 42.3553 82.4373 42.4619 82.32C42.5686 82.2027 42.7286 82.144 42.9419 82.144C43.1446 82.144 43.3046 82.2027 43.4219 82.32C43.5393 82.4373 43.5979 82.608 43.5979 82.832V89.376C43.5979 89.6 43.5393 89.776 43.4219 89.904C43.3153 90.0213 43.1553 90.08 42.9419 90.08ZM42.9419 80.352C42.6753 80.352 42.4673 80.2827 42.3179 80.144C42.1686 79.9947 42.0939 79.7973 42.0939 79.552C42.0939 79.296 42.1686 79.104 42.3179 78.976C42.4673 78.8373 42.6753 78.768 42.9419 78.768C43.2193 78.768 43.4273 78.8373 43.5659 78.976C43.7153 79.104 43.7899 79.296 43.7899 79.552C43.7899 79.7973 43.7153 79.9947 43.5659 80.144C43.4273 80.2827 43.2193 80.352 42.9419 80.352ZM49.4607 93.024C48.8954 93.024 48.3407 92.9547 47.7967 92.816C47.2634 92.688 46.778 92.48 46.3407 92.192C46.2127 92.1173 46.1274 92.0267 46.0847 91.92C46.0527 91.8133 46.0474 91.7067 46.0687 91.6C46.09 91.504 46.138 91.4133 46.2127 91.328C46.2874 91.2533 46.3727 91.2053 46.4687 91.184C46.5754 91.1627 46.682 91.1787 46.7887 91.232C47.258 91.52 47.706 91.7173 48.1327 91.824C48.5594 91.9307 48.9807 91.984 49.3967 91.984C50.154 91.984 50.7247 91.7813 51.1087 91.376C51.5034 90.9707 51.7007 90.384 51.7007 89.616V87.808H51.8607C51.7007 88.4267 51.3594 88.9173 50.8367 89.28C50.3247 89.6427 49.722 89.824 49.0287 89.824C48.314 89.824 47.6954 89.664 47.1727 89.344C46.65 89.0133 46.2447 88.5547 45.9567 87.968C45.6794 87.3813 45.5407 86.704 45.5407 85.936C45.5407 85.36 45.6207 84.8373 45.7807 84.368C45.9407 83.888 46.17 83.4827 46.4687 83.152C46.778 82.8107 47.146 82.5493 47.5727 82.368C48.01 82.176 48.4954 82.08 49.0287 82.08C49.7327 82.08 50.3407 82.2613 50.8527 82.624C51.3647 82.976 51.6954 83.456 51.8447 84.064L51.6847 84.256V82.768C51.6847 82.5547 51.738 82.3947 51.8447 82.288C51.962 82.1707 52.122 82.112 52.3247 82.112C52.538 82.112 52.698 82.1707 52.8047 82.288C52.9114 82.3947 52.9647 82.5547 52.9647 82.768V89.44C52.9647 90.624 52.666 91.5147 52.0687 92.112C51.482 92.72 50.6127 93.024 49.4607 93.024ZM49.2687 88.768C49.77 88.768 50.202 88.656 50.5647 88.432C50.9274 88.1973 51.2047 87.8667 51.3967 87.44C51.5994 87.0133 51.7007 86.512 51.7007 85.936C51.7007 85.072 51.482 84.3893 51.0447 83.888C50.6074 83.376 50.0154 83.12 49.2687 83.12C48.778 83.12 48.3514 83.2373 47.9887 83.472C47.626 83.696 47.3434 84.0213 47.1407 84.448C46.9487 84.864 46.8527 85.36 46.8527 85.936C46.8527 86.8 47.0714 87.488 47.5087 88C47.946 88.512 48.5327 88.768 49.2687 88.768ZM58.8997 90.144C58.0784 90.144 57.369 89.984 56.7717 89.664C56.185 89.3333 55.7264 88.8693 55.3957 88.272C55.0757 87.6747 54.9157 86.96 54.9157 86.128C54.9157 85.3173 55.0757 84.6133 55.3957 84.016C55.7157 83.408 56.153 82.9333 56.7077 82.592C57.273 82.2507 57.9237 82.08 58.6597 82.08C59.1824 82.08 59.6517 82.1707 60.0677 82.352C60.4837 82.5227 60.8357 82.7733 61.1237 83.104C61.4224 83.4347 61.6464 83.8347 61.7957 84.304C61.9557 84.7733 62.0357 85.3013 62.0357 85.888C62.0357 86.0587 61.9877 86.1867 61.8917 86.272C61.7957 86.3467 61.657 86.384 61.4757 86.384H55.9077V85.536H61.1717L60.9157 85.744C60.9157 85.168 60.8304 84.6827 60.6597 84.288C60.489 83.8827 60.2384 83.5733 59.9077 83.36C59.5877 83.1467 59.1824 83.04 58.6917 83.04C58.1477 83.04 57.6837 83.168 57.2997 83.424C56.9264 83.6693 56.6437 84.016 56.4517 84.464C56.2597 84.9013 56.1637 85.4133 56.1637 86V86.096C56.1637 87.0773 56.3984 87.824 56.8677 88.336C57.3477 88.848 58.025 89.104 58.8997 89.104C59.2624 89.104 59.6197 89.056 59.9717 88.96C60.3344 88.864 60.6864 88.704 61.0277 88.48C61.177 88.384 61.3104 88.3413 61.4277 88.352C61.5557 88.352 61.657 88.3893 61.7317 88.464C61.8064 88.528 61.8544 88.6133 61.8757 88.72C61.9077 88.816 61.897 88.9227 61.8437 89.04C61.801 89.1573 61.7104 89.2587 61.5717 89.344C61.2197 89.6 60.8037 89.7973 60.3237 89.936C59.8437 90.0747 59.369 90.144 58.8997 90.144ZM67.0313 90.144C66.4233 90.144 65.9113 90.0373 65.4953 89.824C65.09 89.6 64.786 89.28 64.5833 88.864C64.3806 88.4373 64.2793 87.92 64.2793 87.312V83.232H63.2073C63.026 83.232 62.8873 83.1893 62.7913 83.104C62.6953 83.008 62.6473 82.88 62.6473 82.72C62.6473 82.56 62.6953 82.4373 62.7913 82.352C62.8873 82.2667 63.026 82.224 63.2073 82.224H64.2793V80.384C64.2793 80.1707 64.338 80.0107 64.4553 79.904C64.5726 79.7867 64.7326 79.728 64.9353 79.728C65.138 79.728 65.2926 79.7867 65.3993 79.904C65.5166 80.0107 65.5753 80.1707 65.5753 80.384V82.224H67.5913C67.7726 82.224 67.9113 82.2667 68.0073 82.352C68.1033 82.4373 68.1513 82.56 68.1513 82.72C68.1513 82.88 68.1033 83.008 68.0073 83.104C67.9113 83.1893 67.7726 83.232 67.5913 83.232H65.5753V87.184C65.5753 87.792 65.7033 88.256 65.9593 88.576C66.2153 88.8853 66.6313 89.04 67.2073 89.04C67.41 89.04 67.5806 89.0187 67.7193 88.976C67.8686 88.9333 67.9913 88.912 68.0873 88.912C68.1833 88.9013 68.2633 88.9333 68.3273 89.008C68.3913 89.0827 68.4233 89.2107 68.4233 89.392C68.4233 89.52 68.3966 89.6373 68.3433 89.744C68.3006 89.8507 68.2206 89.9253 68.1033 89.968C67.9753 90.0107 67.8046 90.048 67.5913 90.08C67.3886 90.1227 67.202 90.144 67.0313 90.144Z" fill="#111827"/>
<path d="M62.5978 57.3066L59.5506 56.3244C57.6016 55.6813 56.4597 54.1041 55.9237 52.1222L54.5828 45.5903C54.5478 45.4613 54.4625 45.2885 54.2 45.2885C53.9791 45.2885 53.8522 45.4613 53.8172 45.5903L52.4762 52.1244C51.9381 54.1063 50.7984 55.6835 48.8494 56.3266L45.8022 57.3088C45.3712 57.4488 45.3647 58.0569 45.7934 58.2035L48.8625 59.26C50.805 59.9053 51.9381 61.4803 52.4762 63.4535L53.8194 69.9131C53.8544 70.0422 53.9266 70.2741 54.2022 70.2741C54.4931 70.2741 54.55 70.0422 54.585 69.9131L55.9281 63.4535C56.4662 61.4781 57.5994 59.9031 59.5419 59.26L62.6109 58.2035C63.0353 58.0547 63.0287 57.4466 62.5978 57.3066Z" fill="#FDD835"/>
<path d="M62.8866 57.58C62.8385 57.4597 62.7444 57.3547 62.5978 57.3066L59.5506 56.3244C57.6016 55.6813 56.4597 54.1041 55.9238 52.1222L54.5828 45.5903C54.5631 45.5159 54.4931 45.3803 54.4122 45.3409L54.8453 51.8969C55.1669 54.8894 55.4425 56.2981 57.8313 56.7094C59.8831 57.0638 62.2566 57.4706 62.8866 57.58Z" fill="#FFEE58"/>
<path d="M62.8931 57.9213L57.6081 59.1331C55.7466 59.6056 54.7206 60.6841 54.7206 63.506L54.2022 70.2741C54.3794 70.2566 54.5237 70.1603 54.585 69.9131L55.9281 63.4535C56.4662 61.4781 57.5994 59.9031 59.5419 59.26L62.6109 58.2035C62.7553 58.151 62.8472 58.0438 62.8931 57.9213Z" fill="#F4B400"/>
<path d="M45.1459 62.9896C43.3238 62.3881 43.1575 61.71 42.8513 60.5659L42.0878 57.8884C42.0419 57.7156 41.5913 57.7156 41.5431 57.8884L41.0247 60.3625C40.7162 61.5021 40.06 62.4078 38.94 62.7775L37.155 63.5518C36.9078 63.6328 36.9034 63.9828 37.1506 64.0659L38.9487 64.7025C40.0644 65.0721 40.7162 65.9778 41.0269 67.1131L41.5453 69.48C41.5934 69.6528 42.0419 69.6528 42.0878 69.48L42.6959 67.124C43.0044 65.9821 43.4769 65.0743 44.9928 64.7025L46.6816 64.0659C46.9288 63.9806 46.9266 63.6306 46.6772 63.5496L45.1459 62.9896Z" fill="#FDD835"/>
<path d="M42.2322 60.5265C42.4181 62.2459 42.5122 62.7228 43.9056 63.0793L46.8084 63.6459C46.7778 63.6043 46.7341 63.5693 46.675 63.5518L45.1437 62.9897C43.5447 62.4428 43.1028 61.7472 42.8031 60.3559C42.5034 58.9647 42.1841 58.0568 42.1841 58.0568C42.0725 57.7572 41.9128 57.7725 41.9128 57.7725L42.2322 60.5265Z" fill="#FFEE58"/>
<path d="M42.2847 66.5291C42.2847 64.9081 43.1706 64.1053 44.5794 64.1053L46.7712 64.0156C46.7712 64.0156 46.6444 64.1841 46.4234 64.2366L44.9928 64.7025C43.7787 65.1903 43.2253 65.4353 42.8491 67.0956C42.8491 67.0956 42.3634 69.0272 42.2716 69.2306C42.1447 69.515 41.9937 69.5741 41.9937 69.5741L42.2847 66.5291Z" fill="#F4B400"/>
<path d="M49.0681 50.1556C49.1906 50.1141 49.1862 49.9391 49.0616 49.9041L47.3728 49.4491C47.1991 49.402 47.0405 49.3107 46.9125 49.1843C46.7845 49.0578 46.6914 48.9003 46.6422 48.7272L45.9772 45.9819C45.9444 45.8484 45.7541 45.8484 45.7212 45.9841L45.0956 48.7184C45.0483 48.8963 44.9545 49.0584 44.8238 49.188C44.6931 49.3176 44.5302 49.4099 44.3519 49.4556L42.6741 49.8909C42.5494 49.9238 42.5406 50.0988 42.6631 50.1425L44.4328 50.755C44.75 50.8644 44.995 51.1225 45.0912 51.4441L45.7234 53.9794C45.7562 54.1106 45.9444 54.1128 45.9772 53.9794L46.6312 51.4353C46.6797 51.2766 46.7653 51.1316 46.8809 51.0125C46.9966 50.8935 47.139 50.8037 47.2962 50.7506L49.0681 50.1556Z" fill="#F4B400" stroke="#F4B400" stroke-width="0.25" stroke-miterlimit="10"/>
</svg>
