<svg width="118" height="118" viewBox="0 0 118 118" fill="none" xmlns="http://www.w3.org/2000/svg">
<mask id="path-1-inside-1_232_5280" fill="white">
<path fill-rule="evenodd" clip-rule="evenodd" d="M68 0C77.6056 0 85.4538 7.52403 85.9727 17C86.0029 17.5515 86.4477 18 87 18L114 18C116.209 18 118 19.7909 118 22L118 49C118 49.5523 117.552 49.9971 117 50.0273C107.524 50.5462 100 58.3944 100 68C100 77.6056 107.524 85.4538 117 85.9727C117.552 86.0029 118 86.4477 118 87L118 114C118 116.209 116.209 118 114 118L87 118C86.4477 118 86.0029 117.552 85.9727 117C85.4538 107.524 77.6056 100 68 100C58.3944 100 50.5462 107.524 50.0273 117C49.9971 117.552 49.5523 118 49 118L22 118C19.7909 118 18 116.209 18 114L18 87C18 86.4477 17.5515 86.0029 17 85.9727C7.52403 85.4538 0 77.6056 0 68C0 58.3944 7.52403 50.5462 17 50.0273C17.5515 49.9971 18 49.5523 18 49L18 22C18 19.7909 19.7909 18 22 18L49 18C49.5523 18 49.9971 17.5515 50.0273 17C50.5462 7.52403 58.3944 0 68 0Z"/>
</mask>
<path fill-rule="evenodd" clip-rule="evenodd" d="M68 0C77.6056 0 85.4538 7.52403 85.9727 17C86.0029 17.5515 86.4477 18 87 18L114 18C116.209 18 118 19.7909 118 22L118 49C118 49.5523 117.552 49.9971 117 50.0273C107.524 50.5462 100 58.3944 100 68C100 77.6056 107.524 85.4538 117 85.9727C117.552 86.0029 118 86.4477 118 87L118 114C118 116.209 116.209 118 114 118L87 118C86.4477 118 86.0029 117.552 85.9727 117C85.4538 107.524 77.6056 100 68 100C58.3944 100 50.5462 107.524 50.0273 117C49.9971 117.552 49.5523 118 49 118L22 118C19.7909 118 18 116.209 18 114L18 87C18 86.4477 17.5515 86.0029 17 85.9727C7.52403 85.4538 0 77.6056 0 68C0 58.3944 7.52403 50.5462 17 50.0273C17.5515 49.9971 18 49.5523 18 49L18 22C18 19.7909 19.7909 18 22 18L49 18C49.5523 18 49.9971 17.5515 50.0273 17C50.5462 7.52403 58.3944 0 68 0Z" fill="white"/>
<path d="M114 18L114 17L114 17L114 18ZM114 118V119V118ZM18 114L17 114V114H18ZM18 22L17 22L17 22L18 22ZM22 18L22 17H22V18ZM49 18L49 19L49 18ZM50.0273 17L49.0288 16.9454L50.0273 17ZM17 50.0273L16.9454 49.0288L17 50.0273ZM18 49L17 49L18 49ZM18 87L17 87L18 87ZM17 85.9727L16.9454 86.9712L17 85.9727ZM85.9727 17L86.9712 16.9454L85.9727 17ZM87 18L87 17L87 18ZM50.0273 117L49.0288 116.945L50.0273 117ZM117 85.9727L117.055 84.9742L117 85.9727ZM87 118V117V118ZM85.9727 117L86.9712 116.945L85.9727 117ZM117 50.0273L116.945 49.0288L117 50.0273ZM86.9712 16.9454C86.4235 6.94204 78.1396 -1 68 -1V1C77.0716 1 84.4842 8.10603 84.9742 17.0547L86.9712 16.9454ZM114 17L87 17L87 19L114 19L114 17ZM119 22C119 19.2386 116.761 17 114 17V19C115.657 19 117 20.3431 117 22H119ZM119 49L119 22H117L117 49H119ZM101 68C101 58.9284 108.106 51.5158 117.055 51.0258L116.945 49.0288C106.942 49.5765 99 57.8604 99 68H101ZM117.055 84.9742C108.106 84.4842 101 77.0716 101 68H99C99 78.1396 106.942 86.4235 116.945 86.9712L117.055 84.9742ZM119 114L119 87H117L117 114H119ZM114 119C116.761 119 119 116.761 119 114H117C117 115.657 115.657 117 114 117V119ZM87 119L114 119L114 117L87 117L87 119ZM68 101C77.0716 101 84.4842 108.106 84.9742 117.055L86.9712 116.945C86.4235 106.942 78.1396 99 68 99V101ZM51.0258 117.055C51.5158 108.106 58.9284 101 68 101V99C57.8604 99 49.5765 106.942 49.0288 116.945L51.0258 117.055ZM22 119L49 119V117L22 117L22 119ZM17 114C17 116.761 19.2386 119 22 119L22 117C20.3431 117 19 115.657 19 114H17ZM17 87L17 114L19 114L19 87L17 87ZM17.0547 84.9742C8.10603 84.4842 1 77.0716 1 68H-1C-1 78.1396 6.94204 86.4235 16.9454 86.9712L17.0547 84.9742ZM1 68C1 58.9284 8.10603 51.5158 17.0547 51.0258L16.9454 49.0288C6.94204 49.5765 -1 57.8604 -1 68H1ZM17 22L17 49L19 49L19 22L17 22ZM22 17C19.2386 17 17 19.2386 17 22H19C19 20.3431 20.3431 19 22 19V17ZM49 17L22 17L22 19L49 19L49 17ZM68 -1C57.8604 -1 49.5765 6.94204 49.0288 16.9454L51.0258 17.0547C51.5158 8.10603 58.9284 1 68 1V-1ZM49 19C50.1183 19 50.9685 18.1008 51.0258 17.0547L49.0288 16.9454C49.0276 16.9666 49.0187 16.9836 49.0081 16.994C49.0033 16.9987 49.0001 17.0002 48.9999 17.0002C48.9998 17.0003 49.0001 17.0001 49.0006 17C49.0012 16.9999 49.0012 17 49 17L49 19ZM17.0547 51.0258C18.1008 50.9685 19 50.1183 19 49L17 49C17 49.0012 16.9999 49.0012 17 49.0006C17.0001 49.0001 17.0003 48.9998 17.0002 48.9999C17.0002 49.0001 16.9987 49.0033 16.994 49.0081C16.9836 49.0187 16.9666 49.0276 16.9454 49.0288L17.0547 51.0258ZM19 87C19 85.8817 18.1008 85.0315 17.0547 84.9742L16.9454 86.9712C16.9667 86.9724 16.9836 86.9813 16.994 86.9919C16.9987 86.9967 17.0002 86.9999 17.0002 87.0001C17.0003 87.0002 17.0001 86.9999 17 86.9994C16.9999 86.9988 17 86.9988 17 87L19 87ZM84.9742 17.0547C85.0315 18.1008 85.8817 19 87 19L87 17C86.9988 17 86.9988 16.9999 86.9993 17C86.9999 17.0001 87.0002 17.0003 87.0001 17.0002C86.9999 17.0002 86.9967 16.9987 86.9919 16.994C86.9813 16.9836 86.9724 16.9667 86.9712 16.9454L84.9742 17.0547ZM49.0288 116.945C49.0276 116.967 49.0187 116.984 49.0081 116.994C49.0033 116.999 49.0001 117 48.9999 117C48.9998 117 49.0001 117 49.0007 117C49.0012 117 49.0012 117 49 117V119C50.1183 119 50.9685 118.101 51.0258 117.055L49.0288 116.945ZM116.945 86.9712C116.967 86.9724 116.984 86.9813 116.994 86.9919C116.999 86.9967 117 86.9999 117 87.0001C117 87.0002 117 86.9999 117 86.9993C117 86.9988 117 86.9988 117 87H119C119 85.8817 118.101 85.0315 117.055 84.9742L116.945 86.9712ZM87 117C86.9988 117 86.9988 117 86.9994 117C86.9999 117 87.0002 117 87.0001 117C86.9999 117 86.9967 116.999 86.9919 116.994C86.9813 116.984 86.9724 116.967 86.9712 116.945L84.9742 117.055C85.0315 118.101 85.8817 119 87 119V117ZM117 49C117 49.0012 117 49.0012 117 49.0006C117 49.0001 117 48.9998 117 48.9999C117 49.0001 116.999 49.0033 116.994 49.0081C116.984 49.0187 116.967 49.0276 116.945 49.0288L117.055 51.0258C118.101 50.9685 119 50.1183 119 49H117Z" fill="#D1D5DB" fill-opacity="0.1" mask="url(#path-1-inside-1_232_5280)"/>
<path d="M60.5123 90.112C60.2989 90.112 60.1389 90.0533 60.0323 89.936C59.9256 89.8187 59.8723 89.6533 59.8723 89.44V79.264C59.8723 79.0507 59.9256 78.8907 60.0323 78.784C60.1389 78.6667 60.2989 78.608 60.5123 78.608C60.7149 78.608 60.8749 78.6667 60.9923 78.784C61.1096 78.8907 61.1683 79.0507 61.1683 79.264V83.952H60.9603C61.1843 83.3333 61.5469 82.8693 62.0483 82.56C62.5603 82.24 63.1469 82.08 63.8083 82.08C64.4269 82.08 64.9389 82.192 65.3443 82.416C65.7603 82.64 66.0696 82.9813 66.2723 83.44C66.4749 83.888 66.5763 84.4587 66.5763 85.152V89.44C66.5763 89.6533 66.5176 89.8187 66.4003 89.936C66.2936 90.0533 66.1389 90.112 65.9363 90.112C65.7229 90.112 65.5576 90.0533 65.4403 89.936C65.3336 89.8187 65.2803 89.6533 65.2803 89.44V85.232C65.2803 84.5067 65.1363 83.9787 64.8483 83.648C64.5709 83.3067 64.1229 83.136 63.5043 83.136C62.7896 83.136 62.2189 83.36 61.7923 83.808C61.3763 84.2453 61.1683 84.832 61.1683 85.568V89.44C61.1683 89.888 60.9496 90.112 60.5123 90.112ZM72.422 90.144C71.8033 90.144 71.1793 90.0533 70.55 89.872C69.9313 89.6907 69.3927 89.424 68.934 89.072C68.7953 88.976 68.7047 88.8693 68.662 88.752C68.6193 88.624 68.6087 88.5067 68.63 88.4C68.662 88.2827 68.7207 88.1867 68.806 88.112C68.8913 88.0267 68.9927 87.9787 69.11 87.968C69.238 87.9573 69.3767 88 69.526 88.096C69.9953 88.4053 70.4647 88.6293 70.934 88.768C71.4033 88.9067 71.8887 88.976 72.39 88.976C72.934 88.976 73.3927 88.896 73.766 88.736C74.1393 88.576 74.422 88.3413 74.614 88.032C74.806 87.712 74.902 87.3227 74.902 86.864C74.902 86.2027 74.6833 85.7013 74.246 85.36C73.8087 85.0187 73.174 84.848 72.342 84.848H71.206C71.0033 84.848 70.8487 84.8 70.742 84.704C70.6353 84.5973 70.582 84.4533 70.582 84.272C70.582 84.1013 70.6353 83.968 70.742 83.872C70.8487 83.7653 71.0033 83.712 71.206 83.712H72.23C72.7207 83.712 73.1367 83.6267 73.478 83.456C73.83 83.2853 74.102 83.0453 74.294 82.736C74.486 82.416 74.582 82.032 74.582 81.584C74.582 80.9867 74.39 80.5333 74.006 80.224C73.622 79.904 73.0673 79.744 72.342 79.744C71.862 79.744 71.4087 79.8133 70.982 79.952C70.5553 80.0907 70.134 80.3253 69.718 80.656C69.59 80.752 69.462 80.8 69.334 80.8C69.2167 80.7893 69.1153 80.752 69.03 80.688C68.9553 80.6133 68.8967 80.5173 68.854 80.4C68.822 80.2827 68.8273 80.1653 68.87 80.048C68.9127 79.92 69.0033 79.8027 69.142 79.696C69.5687 79.3333 70.07 79.056 70.646 78.864C71.222 78.672 71.814 78.576 72.422 78.576C73.1473 78.576 73.766 78.6933 74.278 78.928C74.8007 79.152 75.2007 79.4827 75.478 79.92C75.7553 80.3467 75.894 80.864 75.894 81.472C75.894 81.9307 75.8033 82.352 75.622 82.736C75.4513 83.1093 75.206 83.4293 74.886 83.696C74.5767 83.9627 74.198 84.1547 73.75 84.272V84.096C74.5287 84.224 75.1313 84.544 75.558 85.056C75.9953 85.5573 76.214 86.192 76.214 86.96C76.214 87.6107 76.0593 88.176 75.75 88.656C75.4513 89.1253 75.0193 89.4933 74.454 89.76C73.8887 90.016 73.2113 90.144 72.422 90.144Z" fill="#111827"/>
<path d="M69.2425 55.8213C69.2425 55.8213 75.5797 45.6691 75.7241 45.4154C75.8684 45.1616 75.8991 44.6957 75.5009 44.6957C75.1028 44.6957 65.2306 54.7735 65.2306 54.7735L58.2197 58.9297C58.2197 58.9297 57.7494 59.2185 57.8216 59.5794C57.8937 59.9404 58.2087 59.9557 58.3531 59.9557C58.4975 59.9557 65.9766 59.9163 66.4119 59.9032C66.9522 59.8879 66.8187 60.6557 66.8187 60.6557L62.085 68.0976C62.085 68.0976 60.0178 70.9588 60.0178 71.1535C60.0178 71.4401 60.3634 71.5822 60.685 71.3897C60.9344 71.241 77.0562 57.5801 77.7672 56.6416C77.9597 56.3857 78.0581 55.7119 77.2641 55.7119C76.47 55.7119 70.1459 57.5538 70.1459 57.5538L69.2425 55.8213Z" fill="#FEB804"/>
<path d="M68.1334 55.0141C67.9388 55.281 67.8863 55.7272 68.3063 55.7535C68.7241 55.7776 77.2641 55.7141 77.2641 55.7141C77.2641 55.7141 71.1631 61.3207 69.3169 62.9941C67.4706 64.6676 61.3566 70.0882 60.9453 70.471C60.5428 70.8472 60.1775 71.1929 60.0288 71.1447C60.0047 71.1382 59.9741 71.0091 60.5494 70.0619C61.0744 69.1979 66.1144 60.7519 66.3113 60.4326C66.5081 60.1132 66.6809 59.8419 66.7794 59.6932C66.8778 59.5444 67.1972 58.7329 66.5322 58.7329C65.8672 58.7329 58.2197 58.9297 58.2197 58.9297C58.2197 58.9297 63.5025 54.4476 65.0294 53.2422C66.5563 52.0369 75.21 44.6957 75.5009 44.6957C75.7919 44.6957 68.3303 54.7451 68.1334 55.0141Z" fill="#FFC927"/>
<path d="M67.8797 59.4766C68.2734 58.9101 68.6606 58.8685 68.8947 59.0085C69.1966 59.1901 69.2272 59.6079 68.8466 60.1132C68.2472 60.9138 63.8416 66.8091 63.6731 67.0169C63.3537 67.4107 62.8834 67.2379 63.1897 66.6669C63.4456 66.1944 67.4728 60.0629 67.8797 59.4766ZM61.6191 58.326C60.8644 58.8313 60.1622 58.0766 60.6675 57.5232C61.1728 56.9697 64.4891 54.2091 65.1606 53.6382C65.8322 53.0672 69.7522 49.6569 70.0562 49.4119C70.4587 49.0882 70.7081 49.4163 70.4544 49.7532C70.2028 50.0901 67.4312 52.8594 66.2084 53.9838C65.2634 54.8544 62.3366 57.8447 61.6191 58.326Z" fill="#FFE567"/>
</svg>
