<svg width="118" height="100" viewBox="0 0 118 100" fill="none" xmlns="http://www.w3.org/2000/svg">
<mask id="path-1-inside-1_232_5439" fill="white">
<path fill-rule="evenodd" clip-rule="evenodd" d="M50 18C59.6056 18 67.4538 10.476 67.9727 0.999956C68.0029 0.448497 68.4477 0 69 0L96 0C98.2091 0 100 1.79086 100 4V31C100 31.5523 100.448 31.9971 101 32.0273C110.476 32.5462 118 40.3944 118 50C118 59.6056 110.476 67.4538 101 67.9727C100.448 68.0029 100 68.4477 100 69V96C100 98.2091 98.2091 100 96 100H69C68.4477 100 68.0029 99.5515 67.9727 99C67.4538 89.524 59.6056 82 50 82C40.3944 82 32.5462 89.524 32.0273 99C31.9971 99.5515 31.5523 100 31 100H4C1.79086 100 0 98.2091 0 96L0 69C0 68.4477 0.448498 68.0029 0.999957 67.9727C10.476 67.4538 18 59.6056 18 50C18 40.3944 10.476 32.5462 0.999956 32.0273C0.448497 31.9971 0 31.5523 0 31L0 4C0 1.79086 1.79086 0 4 0L31 0C31.5523 0 31.9971 0.448498 32.0273 0.999957C32.5462 10.476 40.3944 18 50 18Z"/>
</mask>
<path fill-rule="evenodd" clip-rule="evenodd" d="M50 18C59.6056 18 67.4538 10.476 67.9727 0.999956C68.0029 0.448497 68.4477 0 69 0L96 0C98.2091 0 100 1.79086 100 4V31C100 31.5523 100.448 31.9971 101 32.0273C110.476 32.5462 118 40.3944 118 50C118 59.6056 110.476 67.4538 101 67.9727C100.448 68.0029 100 68.4477 100 69V96C100 98.2091 98.2091 100 96 100H69C68.4477 100 68.0029 99.5515 67.9727 99C67.4538 89.524 59.6056 82 50 82C40.3944 82 32.5462 89.524 32.0273 99C31.9971 99.5515 31.5523 100 31 100H4C1.79086 100 0 98.2091 0 96L0 69C0 68.4477 0.448498 68.0029 0.999957 67.9727C10.476 67.4538 18 59.6056 18 50C18 40.3944 10.476 32.5462 0.999956 32.0273C0.448497 31.9971 0 31.5523 0 31L0 4C0 1.79086 1.79086 0 4 0L31 0C31.5523 0 31.9971 0.448498 32.0273 0.999957C32.5462 10.476 40.3944 18 50 18Z" fill="white"/>
<path d="M32.0273 0.999957L33.0258 0.945284L32.0273 0.999957ZM0.999957 67.9727L0.945284 66.9742L0.999957 67.9727ZM32.0273 99L31.0288 98.9454L32.0273 99ZM101 67.9727L101.055 68.9712L101 67.9727ZM67.9727 99L68.9712 98.9454L67.9727 99ZM101 32.0273L100.945 33.0258L101 32.0273ZM66.9742 0.945282C66.4842 9.89397 59.0716 17 50 17L50 19C60.1396 19 68.4235 11.058 68.9712 1.05463L66.9742 0.945282ZM96 -1L69 -1V1L96 1V-1ZM101 4C101 1.23858 98.7614 -1 96 -1V1C97.6569 1 99 2.34315 99 4L101 4ZM101 31V4L99 4V31H101ZM100.945 33.0258C109.894 33.5158 117 40.9284 117 50H119C119 39.8604 111.058 31.5765 101.055 31.0288L100.945 33.0258ZM117 50C117 59.0716 109.894 66.4842 100.945 66.9742L101.055 68.9712C111.058 68.4235 119 60.1396 119 50H117ZM101 96V69H99V96H101ZM96 101C98.7614 101 101 98.7614 101 96H99C99 97.6569 97.6569 99 96 99V101ZM69 101H96V99H69V101ZM50 83C59.0716 83 66.4842 90.106 66.9742 99.0547L68.9712 98.9454C68.4235 88.942 60.1396 81 50 81V83ZM33.0258 99.0547C33.5158 90.106 40.9284 83 50 83V81C39.8604 81 31.5765 88.942 31.0288 98.9454L33.0258 99.0547ZM4 101H31L31 99H4V101ZM-1 96C-1 98.7614 1.23858 101 4 101V99C2.34315 99 1 97.6569 1 96H-1ZM-1 69L-1 96H1L1 69H-1ZM17 50C17 59.0716 9.89397 66.4842 0.945284 66.9742L1.05463 68.9712C11.058 68.4235 19 60.1396 19 50L17 50ZM0.945282 33.0258C9.89397 33.5158 17 40.9284 17 50L19 50C19 39.8604 11.058 31.5765 1.05463 31.0288L0.945282 33.0258ZM-1 4L-1 31H1L1 4H-1ZM4 -1C1.23858 -1 -1 1.23858 -1 4H1C1 2.34315 2.34315 1 4 1V-1ZM31 -1L4 -1V1L31 1V-1ZM50 17C40.9284 17 33.5158 9.89397 33.0258 0.945284L31.0288 1.05463C31.5765 11.058 39.8604 19 50 19L50 17ZM31 1C31.0012 1 31.0012 1.0001 31.0006 0.999977C31.0001 0.999868 30.9998 0.999738 30.9999 0.999766C31.0001 0.999846 31.0033 1.00127 31.0081 1.006C31.0187 1.0164 31.0276 1.03335 31.0288 1.05463L33.0258 0.945284C32.9685 -0.100786 32.1183 -1 31 -1V1ZM1.05463 31.0288C1.03335 31.0276 1.0164 31.0187 1.006 31.0081C1.00127 31.0033 0.999846 31.0001 0.999766 30.9999C0.999738 30.9998 0.999868 31.0001 0.999977 31.0007C1.0001 31.0012 1 31.0012 1 31H-1C-1 32.1183 -0.100789 32.9685 0.945282 33.0258L1.05463 31.0288ZM1 69C1 68.9988 1.0001 68.9988 0.999977 68.9994C0.999868 68.9999 0.999738 69.0002 0.999766 69.0001C0.999846 68.9999 1.00127 68.9967 1.006 68.9919C1.0164 68.9813 1.03335 68.9724 1.05463 68.9712L0.945284 66.9742C-0.100786 67.0315 -1 67.8817 -1 69H1ZM68.9712 1.05463C68.9724 1.03335 68.9813 1.0164 68.9919 1.006C68.9967 1.00127 68.9999 0.999846 69.0001 0.999766C69.0002 0.999738 68.9999 0.999868 68.9993 0.999977C68.9988 1.0001 68.9988 1 69 1V-1C67.8817 -1 67.0315 -0.100789 66.9742 0.945282L68.9712 1.05463ZM31.0288 98.9454C31.0276 98.9667 31.0187 98.9836 31.0081 98.994C31.0033 98.9987 31.0001 99.0002 30.9999 99.0002C30.9998 99.0003 31.0001 99.0001 31.0007 99C31.0012 98.9999 31.0012 99 31 99L31 101C32.1183 101 32.9685 100.101 33.0258 99.0547L31.0288 98.9454ZM100.945 66.9742C99.8992 67.0315 99 67.8817 99 69H101C101 68.9988 101 68.9988 101 68.9994C101 68.9999 101 69.0002 101 69.0001C101 68.9999 101.001 68.9967 101.006 68.9919C101.016 68.9813 101.033 68.9724 101.055 68.9712L100.945 66.9742ZM69 99C68.9988 99 68.9988 98.9999 68.9994 99C68.9999 99.0001 69.0002 99.0003 69.0001 99.0002C68.9999 99.0002 68.9967 98.9987 68.9919 98.994C68.9813 98.9836 68.9724 98.9666 68.9712 98.9454L66.9742 99.0547C67.0315 100.101 67.8817 101 69 101V99ZM99 31C99 32.1183 99.8992 32.9685 100.945 33.0258L101.055 31.0288C101.033 31.0276 101.016 31.0187 101.006 31.0081C101.001 31.0033 101 31.0001 101 30.9999C101 30.9998 101 31.0001 101 31.0006C101 31.0012 101 31.0012 101 31H99Z" fill="#D1D5DB" fill-opacity="0.1" mask="url(#path-1-inside-1_232_5439)"/>
<path d="M41.2154 72.08C41.002 72.08 40.842 72.0213 40.7354 71.904C40.6287 71.776 40.5754 71.6 40.5754 71.376V64.832C40.5754 64.608 40.6287 64.4373 40.7354 64.32C40.842 64.2027 41.002 64.144 41.2154 64.144C41.418 64.144 41.578 64.2027 41.6954 64.32C41.8127 64.4373 41.8714 64.608 41.8714 64.832V71.376C41.8714 71.6 41.8127 71.776 41.6954 71.904C41.5887 72.0213 41.4287 72.08 41.2154 72.08ZM41.2154 62.352C40.9487 62.352 40.7407 62.2827 40.5914 62.144C40.442 61.9947 40.3674 61.7973 40.3674 61.552C40.3674 61.296 40.442 61.104 40.5914 60.976C40.7407 60.8373 40.9487 60.768 41.2154 60.768C41.4927 60.768 41.7007 60.8373 41.8394 60.976C41.9887 61.104 42.0634 61.296 42.0634 61.552C42.0634 61.7973 41.9887 61.9947 41.8394 62.144C41.7007 62.2827 41.4927 62.352 41.2154 62.352ZM44.9341 74.992C44.7208 74.992 44.5608 74.9333 44.4541 74.816C44.3475 74.7093 44.2941 74.5493 44.2941 74.336V64.768C44.2941 64.5547 44.3475 64.3947 44.4541 64.288C44.5608 64.1707 44.7155 64.112 44.9181 64.112C45.1315 64.112 45.2915 64.1707 45.3981 64.288C45.5155 64.3947 45.5741 64.5547 45.5741 64.768V66.288L45.3981 66.064C45.5688 65.456 45.9048 64.976 46.4061 64.624C46.9181 64.2613 47.5261 64.08 48.2301 64.08C48.9235 64.08 49.5261 64.2453 50.0381 64.576C50.5608 64.896 50.9608 65.36 51.2381 65.968C51.5261 66.5653 51.6701 67.28 51.6701 68.112C51.6701 68.9333 51.5261 69.648 51.2381 70.256C50.9608 70.8533 50.5661 71.3173 50.0541 71.648C49.5421 71.9787 48.9341 72.144 48.2301 72.144C47.5261 72.144 46.9235 71.968 46.4221 71.616C45.9208 71.2533 45.5795 70.7733 45.3981 70.176H45.5901V74.336C45.5901 74.5493 45.5315 74.7093 45.4141 74.816C45.2968 74.9333 45.1368 74.992 44.9341 74.992ZM47.9581 71.104C48.4488 71.104 48.8701 70.9867 49.2221 70.752C49.5848 70.5173 49.8621 70.176 50.0541 69.728C50.2568 69.28 50.3581 68.7413 50.3581 68.112C50.3581 67.1413 50.1395 66.4 49.7021 65.888C49.2755 65.376 48.6941 65.12 47.9581 65.12C47.4781 65.12 47.0568 65.2373 46.6941 65.472C46.3315 65.696 46.0488 66.032 45.8461 66.48C45.6541 66.9173 45.5581 67.4613 45.5581 68.112C45.5581 69.072 45.7768 69.8133 46.2141 70.336C46.6515 70.848 47.2328 71.104 47.9581 71.104ZM53.4824 72.096C53.3437 72.096 53.221 72.0533 53.1144 71.968C53.0077 71.8827 52.949 71.7707 52.9384 71.632C52.9384 71.4827 53.0077 71.328 53.1464 71.168L55.9464 67.648V68.32L53.3224 65.04C53.1837 64.8693 53.1144 64.7147 53.1144 64.576C53.125 64.4373 53.1837 64.3253 53.2904 64.24C53.397 64.1547 53.5197 64.112 53.6584 64.112C53.8184 64.112 53.9517 64.144 54.0584 64.208C54.1757 64.2613 54.2824 64.352 54.3784 64.48L56.6664 67.376H56.2184L58.5224 64.48C58.6184 64.352 58.7197 64.2613 58.8264 64.208C58.933 64.144 59.0664 64.112 59.2264 64.112C59.3757 64.112 59.4984 64.1547 59.5944 64.24C59.701 64.3253 59.7544 64.4427 59.7544 64.592C59.765 64.7307 59.701 64.8853 59.5624 65.056L56.9544 68.288V67.696L59.7544 71.168C59.8824 71.328 59.941 71.4827 59.9304 71.632C59.9304 71.7707 59.877 71.8827 59.7704 71.968C59.6637 72.0533 59.5357 72.096 59.3864 72.096C59.237 72.096 59.1037 72.064 58.9864 72C58.8797 71.9467 58.773 71.856 58.6664 71.728L56.2024 68.624H56.6664L54.2024 71.728C54.1064 71.8453 53.9997 71.936 53.8824 72C53.7757 72.064 53.6424 72.096 53.4824 72.096Z" fill="#111827"/>
<g clip-path="url(#clip0_232_5439)">
<mask id="mask0_232_5439" style="mask-type:luminance" maskUnits="userSpaceOnUse" x="36" y="26" width="28" height="28">
<path d="M64 26H36V54H64V26Z" fill="white"/>
</mask>
<g mask="url(#mask0_232_5439)">
<path d="M63.9249 54.0194C54.617 54.0194 45.3193 54.0194 36.0216 54.0194C36.0208 54.0169 36.0194 54.0144 36.0194 54.0119C36.0193 44.6819 36.0193 35.3519 36.0193 26.0206C45.3518 26.0206 54.6842 26.0206 64.018 26.0206C64.018 35.3517 64.018 44.684 64.018 54.0194C63.9913 54.0194 63.9632 54.0194 63.9249 54.0194ZM59.1106 44.3176C59.0659 44.2666 59.0236 44.2133 58.9762 44.165C58.4504 43.6304 57.7884 43.519 57.0836 43.5826C56.4722 43.6379 55.9486 43.907 55.496 44.3176C55.4715 44.3397 55.4448 44.3594 55.4096 44.3881C55.4096 44.3309 55.4119 44.2891 55.4092 44.2477C55.396 44.0446 55.3006 43.8906 55.1199 43.798C54.9428 43.7074 54.7618 43.716 54.5948 43.8227C54.409 43.9414 54.3456 44.1238 54.3458 44.3381C54.3472 45.944 54.3466 47.5499 54.3466 49.1558C54.3466 49.256 54.3446 49.3562 54.347 49.4564C54.3532 49.7142 54.4899 49.9184 54.6974 49.9837C55.0616 50.0984 55.409 49.8459 55.4095 49.4618C55.4109 48.36 55.4106 47.2581 55.4096 46.1563C55.4093 45.846 55.4878 45.5614 55.6857 45.3192C56.1469 44.7547 56.7441 44.5163 57.4665 44.5986C57.8184 44.6387 58.1027 44.802 58.2977 45.1035C58.4807 45.3865 58.5434 45.706 58.5459 46.0349C58.5528 46.9428 58.5502 47.8507 58.5511 48.7586C58.5514 49.0074 58.5473 49.2563 58.5521 49.505C58.5597 49.8941 58.9779 50.1349 59.3203 49.95C59.5381 49.8325 59.6154 49.6403 59.6152 49.403C59.6138 48.3722 59.6168 47.3414 59.6129 46.3107C59.612 46.0659 59.6038 45.8196 59.5753 45.5768C59.5226 45.1264 59.3976 44.6984 59.1106 44.3176ZM52.4079 43.7421C52.3439 43.7466 52.2773 43.7413 52.2164 43.7575C51.9628 43.825 51.823 44.0266 51.8229 44.3194C51.8222 45.3696 51.8244 46.4198 51.8209 47.47C51.8203 47.6436 51.8112 47.8199 51.7806 47.9904C51.6997 48.4402 51.4584 48.7772 51.0256 48.9479C50.6039 49.1142 50.1697 49.12 49.7331 49.0015C49.4019 48.9116 49.148 48.7216 48.9821 48.4196C48.8632 48.2032 48.8054 47.9672 48.801 47.7232C48.7924 47.2289 48.7953 46.7344 48.7948 46.24C48.794 45.6002 48.7956 44.9604 48.7941 44.3206C48.7934 44.0055 48.5841 43.758 48.3103 43.742C47.9712 43.7222 47.732 43.9532 47.7316 44.3068C47.7305 45.386 47.7291 46.4653 47.7324 47.5446C47.7336 47.9304 47.775 48.311 47.922 48.6742C48.2006 49.3633 48.7206 49.7792 49.4184 49.9817C49.8575 50.1091 50.3099 50.1168 50.7631 50.0635C51.1133 50.0223 51.448 49.9267 51.753 49.7495C52.4732 49.331 52.8396 48.6802 52.8628 47.8675C52.8969 46.6761 52.883 45.4832 52.8843 44.291C52.8846 43.9918 52.7087 43.7933 52.4079 43.7421Z" fill="#ECDC5A"/>
<path d="M59.1144 44.3233C59.3976 44.6984 59.5226 45.1264 59.5753 45.5767C59.6038 45.8196 59.612 46.0659 59.613 46.3107C59.6169 47.3414 59.6139 48.3722 59.6152 49.4029C59.6155 49.6403 59.5381 49.8325 59.3203 49.95C58.9779 50.1348 58.5597 49.894 58.5522 49.505C58.5473 49.2563 58.5514 49.0074 58.5512 48.7586C58.5502 47.8507 58.5528 46.9427 58.5459 46.0348C58.5434 45.7059 58.4808 45.3865 58.2977 45.1035C58.1027 44.8019 57.8184 44.6386 57.4665 44.5986C56.7441 44.5162 56.1469 44.7546 55.6857 45.3191C55.4878 45.5614 55.4093 45.8459 55.4096 46.1562C55.4106 47.2581 55.4109 48.3599 55.4095 49.4618C55.409 49.8458 55.0616 50.0983 54.6975 49.9837C54.4899 49.9183 54.3532 49.7141 54.347 49.4563C54.3446 49.3562 54.3466 49.256 54.3466 49.1558C54.3466 47.5499 54.3472 45.944 54.3458 44.3381C54.3457 44.1237 54.4091 43.9413 54.5948 43.8227C54.7618 43.716 54.9429 43.7073 55.1199 43.798C55.3006 43.8906 55.396 44.0445 55.4092 44.2476C55.4119 44.2891 55.4096 44.3308 55.4096 44.388C55.4448 44.3594 55.4715 44.3397 55.496 44.3175C55.9486 43.9069 56.4723 43.6378 57.0836 43.5826C57.7884 43.519 58.4505 43.6304 58.9762 44.165C59.0236 44.2132 59.0659 44.2666 59.1144 44.3233Z" fill="#111827"/>
<path d="M52.4165 43.7425C52.7087 43.7933 52.8847 43.9918 52.8843 44.291C52.883 45.4833 52.8969 46.6761 52.8629 47.8675C52.8396 48.6802 52.4732 49.3309 51.753 49.7495C51.4481 49.9267 51.1133 50.0223 50.7631 50.0635C50.3099 50.1168 49.8575 50.1091 49.4184 49.9817C48.7207 49.7792 48.2006 49.3633 47.922 48.6742C47.7751 48.311 47.7336 47.9305 47.7324 47.5446C47.7291 46.4653 47.7305 45.386 47.7317 44.3068C47.7321 43.9532 47.9712 43.7222 48.3103 43.742C48.5841 43.7581 48.7934 44.0055 48.7941 44.3206C48.7956 44.9604 48.7941 45.6002 48.7948 46.24C48.7953 46.7344 48.7924 47.2289 48.8011 47.7232C48.8054 47.9672 48.8633 48.2032 48.9821 48.4196C49.148 48.7216 49.4019 48.9116 49.7331 49.0015C50.1697 49.12 50.6039 49.1143 51.0256 48.9479C51.4585 48.7772 51.6997 48.4402 51.7806 47.9904C51.8112 47.8199 51.8203 47.6437 51.8209 47.47C51.8244 46.4198 51.8223 45.3696 51.8229 44.3194C51.8231 44.0266 51.9629 43.8249 52.2165 43.7575C52.2773 43.7413 52.3439 43.7467 52.4165 43.7425Z" fill="#111827"/>
</g>
</g>
<defs>
<clipPath id="clip0_232_5439">
<rect width="28" height="28" fill="white" transform="translate(36 26)"/>
</clipPath>
</defs>
</svg>
