<svg width="136" height="100" viewBox="0 0 136 100" fill="none" xmlns="http://www.w3.org/2000/svg">
<mask id="path-1-inside-1_232_5334" fill="white">
<path fill-rule="evenodd" clip-rule="evenodd" d="M87 0C86.4477 0 86.0029 0.448498 85.9727 0.999957C85.4538 10.476 77.6056 18 68 18C58.3944 18 50.5462 10.476 50.0273 0.999956C49.9971 0.448497 49.5523 0 49 0L22 0C19.7909 0 18 1.79086 18 4L18 31C18 31.5523 17.5515 31.9971 17 32.0273C7.52403 32.5462 0 40.3944 0 50C0 59.6056 7.52403 67.4538 17 67.9727C17.5515 68.0029 18 68.4477 18 69L18 96C18 98.2091 19.7909 100 22 100L49 100C49.5523 100 49.9971 99.5515 50.0273 99C50.5462 89.524 58.3944 82 68 82C77.6056 82 85.4538 89.524 85.9727 99C86.0029 99.5515 86.4477 100 87 100H114C116.209 100 118 98.2091 118 96L118 69C118 68.4477 118.448 68.0029 119 67.9727C128.476 67.4538 136 59.6056 136 50C136 40.3944 128.476 32.5462 119 32.0273C118.448 31.9971 118 31.5523 118 31L118 4C118 1.79086 116.209 0 114 0L87 0Z"/>
</mask>
<path fill-rule="evenodd" clip-rule="evenodd" d="M87 0C86.4477 0 86.0029 0.448498 85.9727 0.999957C85.4538 10.476 77.6056 18 68 18C58.3944 18 50.5462 10.476 50.0273 0.999956C49.9971 0.448497 49.5523 0 49 0L22 0C19.7909 0 18 1.79086 18 4L18 31C18 31.5523 17.5515 31.9971 17 32.0273C7.52403 32.5462 0 40.3944 0 50C0 59.6056 7.52403 67.4538 17 67.9727C17.5515 68.0029 18 68.4477 18 69L18 96C18 98.2091 19.7909 100 22 100L49 100C49.5523 100 49.9971 99.5515 50.0273 99C50.5462 89.524 58.3944 82 68 82C77.6056 82 85.4538 89.524 85.9727 99C86.0029 99.5515 86.4477 100 87 100H114C116.209 100 118 98.2091 118 96L118 69C118 68.4477 118.448 68.0029 119 67.9727C128.476 67.4538 136 59.6056 136 50C136 40.3944 128.476 32.5462 119 32.0273C118.448 31.9971 118 31.5523 118 31L118 4C118 1.79086 116.209 0 114 0L87 0Z" fill="white"/>
<path d="M18 4L17 4L17 4L18 4ZM18 96L17 96V96H18ZM119 32.0273L119.055 31.0288L119 32.0273ZM119 67.9727L119.055 68.9712L119 67.9727ZM50.0273 99L49.0288 98.9454L50.0273 99ZM18 31L17 31L18 31ZM17 32.0273L16.9454 31.0288L17 32.0273ZM17 67.9727L16.9454 68.9712L17 67.9727ZM18 69L17 69L18 69ZM85.9727 99L84.9742 99.0547L85.9727 99ZM85.9727 0.999957L84.9742 0.945284L85.9727 0.999957ZM68 19C78.1396 19 86.4235 11.058 86.9712 1.05463L84.9742 0.945284C84.4842 9.89397 77.0716 17 68 17V19ZM49.0288 1.05463C49.5765 11.058 57.8604 19 68 19V17C58.9284 17 51.5158 9.89397 51.0258 0.945282L49.0288 1.05463ZM22 1L49 1V-1L22 -1V1ZM19 4C19 2.34315 20.3431 1 22 1V-1C19.2386 -1 17 1.23858 17 4L19 4ZM19 31L19 4L17 4L17 31L19 31ZM1 50C1 40.9284 8.10603 33.5158 17.0547 33.0258L16.9454 31.0288C6.94204 31.5765 -1 39.8604 -1 50H1ZM17.0547 66.9742C8.10603 66.4842 1 59.0716 1 50H-1C-1 60.1396 6.94204 68.4235 16.9454 68.9712L17.0547 66.9742ZM19 96L19 69L17 69L17 96L19 96ZM22 99C20.3431 99 19 97.6569 19 96H17C17 98.7614 19.2386 101 22 101L22 99ZM49 99L22 99L22 101L49 101V99ZM68 81C57.8604 81 49.5765 88.942 49.0288 98.9454L51.0258 99.0547C51.5158 90.106 58.9284 83 68 83V81ZM86.9712 98.9454C86.4235 88.942 78.1396 81 68 81V83C77.0716 83 84.4842 90.106 84.9742 99.0547L86.9712 98.9454ZM114 99H87V101H114V99ZM117 96C117 97.6569 115.657 99 114 99V101C116.761 101 119 98.7614 119 96H117ZM117 69L117 96H119L119 69H117ZM135 50C135 59.0716 127.894 66.4842 118.945 66.9742L119.055 68.9712C129.058 68.4235 137 60.1396 137 50H135ZM118.945 33.0258C127.894 33.5158 135 40.9284 135 50H137C137 39.8604 129.058 31.5765 119.055 31.0288L118.945 33.0258ZM117 4L117 31H119L119 4H117ZM114 1C115.657 1 117 2.34315 117 4H119C119 1.23858 116.761 -1 114 -1V1ZM87 1L114 1V-1L87 -1V1ZM119.055 31.0288C119.033 31.0276 119.016 31.0187 119.006 31.0081C119.001 31.0033 119 31.0001 119 30.9999C119 30.9998 119 31.0001 119 31.0007C119 31.0012 119 31.0012 119 31H117C117 32.1183 117.899 32.9685 118.945 33.0258L119.055 31.0288ZM119 69C119 68.9988 119 68.9988 119 68.9994C119 68.9999 119 69.0002 119 69.0001C119 68.9999 119.001 68.9967 119.006 68.9919C119.016 68.9813 119.033 68.9724 119.055 68.9712L118.945 66.9742C117.899 67.0315 117 67.8817 117 69H119ZM49 101C50.1183 101 50.9685 100.101 51.0258 99.0547L49.0288 98.9454C49.0276 98.9666 49.0187 98.9836 49.0081 98.994C49.0033 98.9987 49.0001 99.0002 48.9999 99.0002C48.9998 99.0003 49.0001 99.0001 49.0006 99C49.0012 98.9999 49.0012 99 49 99V101ZM17 31C17 31.0012 16.9999 31.0012 17 31.0006C17.0001 31.0001 17.0003 30.9998 17.0002 30.9999C17.0002 31.0001 16.9987 31.0033 16.994 31.0081C16.9836 31.0187 16.9666 31.0276 16.9454 31.0288L17.0547 33.0258C18.1008 32.9685 19 32.1183 19 31L17 31ZM16.9454 68.9712C16.9667 68.9724 16.9836 68.9813 16.994 68.9919C16.9987 68.9967 17.0002 68.9999 17.0002 69.0001C17.0003 69.0002 17.0001 68.9999 17 68.9993C16.9999 68.9988 17 68.9988 17 69L19 69C19 67.8817 18.1008 67.0315 17.0547 66.9742L16.9454 68.9712ZM51.0258 0.945282C50.9685 -0.100789 50.1183 -1 49 -1V1C49.0012 1 49.0012 1.0001 49.0007 0.999977C49.0001 0.999868 48.9998 0.999738 48.9999 0.999766C49.0001 0.999846 49.0033 1.00127 49.0081 1.006C49.0187 1.0164 49.0276 1.03335 49.0288 1.05463L51.0258 0.945282ZM84.9742 99.0547C85.0315 100.101 85.8817 101 87 101V99C86.9988 99 86.9988 98.9999 86.9993 99C86.9999 99.0001 87.0002 99.0003 87.0001 99.0002C86.9999 99.0002 86.9967 98.9987 86.9919 98.994C86.9813 98.9836 86.9724 98.9667 86.9712 98.9454L84.9742 99.0547ZM86.9712 1.05463C86.9724 1.03335 86.9813 1.0164 86.9919 1.006C86.9967 1.00127 86.9999 0.999846 87.0001 0.999766C87.0002 0.999738 86.9999 0.999868 86.9994 0.999977C86.9988 1.0001 86.9988 1 87 1V-1C85.8817 -1 85.0315 -0.100786 84.9742 0.945284L86.9712 1.05463Z" fill="#D1D5DB" fill-opacity="0.1" mask="url(#path-1-inside-1_232_5334)"/>
<path d="M59.2749 75.056C59.1149 75.0667 58.9869 75.04 58.8909 74.976C58.7842 74.912 58.7149 74.8267 58.6829 74.72C58.6402 74.624 58.6295 74.5227 58.6509 74.416C58.6615 74.32 58.7042 74.2347 58.7789 74.16C58.8535 74.0853 58.9549 74.048 59.0829 74.048C59.6695 74.016 60.1015 73.856 60.3789 73.568C60.6669 73.2907 60.8109 72.848 60.8109 72.24V64.768C60.8109 64.5547 60.8642 64.3947 60.9709 64.288C61.0882 64.1707 61.2535 64.112 61.4669 64.112C61.6695 64.112 61.8242 64.1707 61.9309 64.288C62.0482 64.3947 62.1069 64.5547 62.1069 64.768V72.144C62.1069 72.7947 61.9949 73.328 61.7709 73.744C61.5575 74.1707 61.2429 74.4853 60.8269 74.688C60.4109 74.9013 59.8935 75.024 59.2749 75.056ZM61.4509 62.352C61.1842 62.352 60.9762 62.2827 60.8269 62.144C60.6775 61.9947 60.6029 61.7973 60.6029 61.552C60.6029 61.296 60.6775 61.104 60.8269 60.976C60.9762 60.8373 61.1842 60.768 61.4509 60.768C61.7282 60.768 61.9415 60.8373 62.0909 60.976C62.2402 61.104 62.3149 61.296 62.3149 61.552C62.3149 61.7973 62.2402 61.9947 62.0909 62.144C61.9415 62.2827 61.7282 62.352 61.4509 62.352ZM65.1841 72.08C64.9708 72.08 64.8108 72.0213 64.7041 71.904C64.5975 71.776 64.5441 71.6 64.5441 71.376V64.832C64.5441 64.608 64.5975 64.4373 64.7041 64.32C64.8108 64.2027 64.9708 64.144 65.1841 64.144C65.3868 64.144 65.5468 64.2027 65.6641 64.32C65.7815 64.4373 65.8401 64.608 65.8401 64.832V71.376C65.8401 71.6 65.7815 71.776 65.6641 71.904C65.5575 72.0213 65.3975 72.08 65.1841 72.08ZM65.1841 62.352C64.9175 62.352 64.7095 62.2827 64.5601 62.144C64.4108 61.9947 64.3361 61.7973 64.3361 61.552C64.3361 61.296 64.4108 61.104 64.5601 60.976C64.7095 60.8373 64.9175 60.768 65.1841 60.768C65.4615 60.768 65.6695 60.8373 65.8081 60.976C65.9575 61.104 66.0321 61.296 66.0321 61.552C66.0321 61.7973 65.9575 61.9947 65.8081 62.144C65.6695 62.2827 65.4615 62.352 65.1841 62.352ZM71.3829 72.144C70.7749 72.144 70.2629 72.0373 69.8469 71.824C69.4415 71.6 69.1375 71.28 68.9349 70.864C68.7322 70.4373 68.6309 69.92 68.6309 69.312V65.232H67.5589C67.3775 65.232 67.2389 65.1893 67.1429 65.104C67.0469 65.008 66.9989 64.88 66.9989 64.72C66.9989 64.56 67.0469 64.4373 67.1429 64.352C67.2389 64.2667 67.3775 64.224 67.5589 64.224H68.6309V62.384C68.6309 62.1707 68.6895 62.0107 68.8069 61.904C68.9242 61.7867 69.0842 61.728 69.2869 61.728C69.4895 61.728 69.6442 61.7867 69.7509 61.904C69.8682 62.0107 69.9269 62.1707 69.9269 62.384V64.224H71.9429C72.1242 64.224 72.2629 64.2667 72.3589 64.352C72.4549 64.4373 72.5029 64.56 72.5029 64.72C72.5029 64.88 72.4549 65.008 72.3589 65.104C72.2629 65.1893 72.1242 65.232 71.9429 65.232H69.9269V69.184C69.9269 69.792 70.0549 70.256 70.3109 70.576C70.5669 70.8853 70.9829 71.04 71.5589 71.04C71.7615 71.04 71.9322 71.0187 72.0709 70.976C72.2202 70.9333 72.3429 70.912 72.4389 70.912C72.5349 70.9013 72.6149 70.9333 72.6789 71.008C72.7429 71.0827 72.7749 71.2107 72.7749 71.392C72.7749 71.52 72.7482 71.6373 72.6949 71.744C72.6522 71.8507 72.5722 71.9253 72.4549 71.968C72.3269 72.0107 72.1562 72.048 71.9429 72.08C71.7402 72.1227 71.5535 72.144 71.3829 72.144ZM74.5904 72.08C74.377 72.08 74.217 72.0213 74.1104 71.904C74.0037 71.776 73.9504 71.6 73.9504 71.376V64.832C73.9504 64.608 74.0037 64.4373 74.1104 64.32C74.217 64.2027 74.377 64.144 74.5904 64.144C74.793 64.144 74.953 64.2027 75.0704 64.32C75.1877 64.4373 75.2464 64.608 75.2464 64.832V71.376C75.2464 71.6 75.1877 71.776 75.0704 71.904C74.9637 72.0213 74.8037 72.08 74.5904 72.08ZM74.5904 62.352C74.3237 62.352 74.1157 62.2827 73.9664 62.144C73.817 61.9947 73.7424 61.7973 73.7424 61.552C73.7424 61.296 73.817 61.104 73.9664 60.976C74.1157 60.8373 74.3237 60.768 74.5904 60.768C74.8677 60.768 75.0757 60.8373 75.2144 60.976C75.3637 61.104 75.4384 61.296 75.4384 61.552C75.4384 61.7973 75.3637 61.9947 75.2144 62.144C75.0757 62.2827 74.8677 62.352 74.5904 62.352Z" fill="#111827"/>
<g clip-path="url(#clip0_232_5334)">
<mask id="mask0_232_5334" style="mask-type:luminance" maskUnits="userSpaceOnUse" x="54" y="26" width="28" height="28">
<path d="M82 26H54V54H82V26Z" fill="white"/>
</mask>
<g mask="url(#mask0_232_5334)">
<path d="M81.9249 54.0194C72.617 54.0194 63.3193 54.0194 54.0216 54.0194C54.0209 54.0169 54.0195 54.0144 54.0195 54.0119C54.0194 44.6819 54.0194 35.3519 54.0194 26.0206C63.3518 26.0206 72.6842 26.0206 82.018 26.0206C82.018 35.3517 82.018 44.684 82.018 54.0194C81.9913 54.0194 81.9632 54.0194 81.9249 54.0194ZM77.1106 44.3176C77.0659 44.2666 77.0237 44.2133 76.9762 44.165C76.4505 43.6304 75.7884 43.519 75.0836 43.5826C74.4723 43.6379 73.9486 43.907 73.496 44.3176C73.4716 44.3397 73.4448 44.3594 73.4096 44.3881C73.4096 44.3309 73.4119 44.2891 73.4092 44.2477C73.3961 44.0446 73.3006 43.8906 73.12 43.798C72.9429 43.7074 72.7618 43.716 72.5948 43.8227C72.4091 43.9414 72.3457 44.1238 72.3459 44.3381C72.3472 45.944 72.3466 47.5499 72.3466 49.1558C72.3466 49.256 72.3446 49.3562 72.347 49.4564C72.3532 49.7142 72.4899 49.9184 72.6975 49.9837C73.0616 50.0984 73.409 49.8459 73.4095 49.4618C73.411 48.36 73.4107 47.2581 73.4096 46.1563C73.4093 45.846 73.4878 45.5614 73.6857 45.3192C74.1469 44.7547 74.7441 44.5163 75.4666 44.5986C75.8184 44.6387 76.1027 44.802 76.2978 45.1035C76.4808 45.3865 76.5434 45.706 76.546 46.0349C76.5528 46.9428 76.5502 47.8507 76.5512 48.7586C76.5514 49.0074 76.5473 49.2563 76.5522 49.505C76.5598 49.8941 76.9779 50.1349 77.3204 49.95C77.5381 49.8325 77.6155 49.6403 77.6152 49.403C77.6139 48.3722 77.6169 47.3414 77.613 46.3107C77.612 46.0659 77.6038 45.8196 77.5754 45.5768C77.5226 45.1264 77.3976 44.6984 77.1106 44.3176ZM70.4079 43.7421C70.344 43.7466 70.2774 43.7413 70.2165 43.7575C69.9629 43.825 69.8231 44.0266 69.8229 44.3194C69.8223 45.3696 69.8244 46.4198 69.8209 47.47C69.8203 47.6436 69.8112 47.8199 69.7806 47.9904C69.6997 48.4402 69.4585 48.7772 69.0256 48.9479C68.6039 49.1142 68.1698 49.12 67.7331 49.0015C67.4019 48.9116 67.148 48.7216 66.9822 48.4196C66.8633 48.2032 66.8054 47.9672 66.8011 47.7232C66.7924 47.2289 66.7954 46.7344 66.7948 46.24C66.7941 45.6002 66.7956 44.9604 66.7942 44.3206C66.7934 44.0055 66.5842 43.758 66.3104 43.742C65.9712 43.7222 65.7321 43.9532 65.7317 44.3068C65.7305 45.386 65.7291 46.4653 65.7324 47.5446C65.7336 47.9304 65.7751 48.311 65.922 48.6742C66.2006 49.3633 66.7207 49.7792 67.4184 49.9817C67.8576 50.1091 68.3099 50.1168 68.7632 50.0635C69.1133 50.0223 69.4481 49.9267 69.753 49.7495C70.4732 49.331 70.8396 48.6802 70.8629 47.8675C70.897 46.6761 70.883 45.4832 70.8843 44.291C70.8847 43.9918 70.7087 43.7933 70.4079 43.7421Z" fill="#ECDC5A"/>
<path d="M77.1144 44.3233C77.3976 44.6984 77.5227 45.1264 77.5754 45.5767C77.6038 45.8196 77.612 46.0659 77.613 46.3107C77.6169 47.3414 77.6139 48.3722 77.6152 49.4029C77.6155 49.6403 77.5382 49.8325 77.3204 49.95C76.978 50.1348 76.5598 49.894 76.5522 49.505C76.5473 49.2563 76.5514 49.0074 76.5512 48.7586C76.5502 47.8507 76.5528 46.9427 76.546 46.0348C76.5435 45.7059 76.4808 45.3865 76.2978 45.1035C76.1028 44.8019 75.8184 44.6386 75.4666 44.5986C74.7442 44.5162 74.1469 44.7546 73.6857 45.3191C73.4878 45.5614 73.4093 45.8459 73.4096 46.1562C73.4107 47.2581 73.411 48.3599 73.4095 49.4618C73.409 49.8458 73.0617 50.0983 72.6975 49.9837C72.4899 49.9183 72.3533 49.7141 72.347 49.4563C72.3446 49.3562 72.3466 49.256 72.3466 49.1558C72.3466 47.5499 72.3472 45.944 72.3459 44.3381C72.3457 44.1237 72.4091 43.9413 72.5948 43.8227C72.7619 43.716 72.9429 43.7073 73.12 43.798C73.3006 43.8906 73.3961 44.0445 73.4092 44.2476C73.4119 44.2891 73.4096 44.3308 73.4096 44.388C73.4449 44.3594 73.4716 44.3397 73.496 44.3175C73.9486 43.9069 74.4723 43.6378 75.0836 43.5826C75.7884 43.519 76.4505 43.6304 76.9762 44.165C77.0237 44.2132 77.0659 44.2666 77.1144 44.3233Z" fill="#111827"/>
<path d="M70.4166 43.7425C70.7087 43.7933 70.8847 43.9918 70.8843 44.291C70.883 45.4833 70.897 46.6761 70.8629 47.8675C70.8396 48.6802 70.4732 49.3309 69.753 49.7495C69.4481 49.9267 69.1133 50.0223 68.7632 50.0635C68.3099 50.1168 67.8576 50.1091 67.4184 49.9817C66.7207 49.7792 66.2006 49.3633 65.922 48.6742C65.7751 48.311 65.7336 47.9305 65.7324 47.5446C65.7291 46.4653 65.7305 45.386 65.7317 44.3068C65.7321 43.9532 65.9712 43.7222 66.3104 43.742C66.5842 43.7581 66.7934 44.0055 66.7942 44.3206C66.7956 44.9604 66.7941 45.6002 66.7948 46.24C66.7954 46.7344 66.7924 47.2289 66.8011 47.7232C66.8054 47.9672 66.8633 48.2032 66.9822 48.4196C67.148 48.7216 67.4019 48.9116 67.7331 49.0015C68.1697 49.12 68.6039 49.1143 69.0256 48.9479C69.4585 48.7772 69.6997 48.4402 69.7806 47.9904C69.8112 47.8199 69.8203 47.6437 69.8209 47.47C69.8244 46.4198 69.8223 45.3696 69.8229 44.3194C69.8231 44.0266 69.9629 43.8249 70.2165 43.7575C70.2774 43.7413 70.344 43.7467 70.4166 43.7425Z" fill="#111827"/>
</g>
</g>
<defs>
<clipPath id="clip0_232_5334">
<rect width="28" height="28" fill="white" transform="translate(54 26)"/>
</clipPath>
</defs>
</svg>
