<svg width="118" height="118" viewBox="0 0 118 118" fill="none" xmlns="http://www.w3.org/2000/svg">
<mask id="path-1-inside-1_232_5656" fill="white">
<path fill-rule="evenodd" clip-rule="evenodd" d="M69 18C68.4477 18 68.0029 17.5515 67.9727 17C67.4538 7.52403 59.6056 0 50 0C40.3944 0 32.5462 7.52403 32.0273 17C31.9971 17.5515 31.5523 18 31 18L4 18C1.79086 18 0 19.7909 0 22L1.83923e-06 49C1.87685e-06 49.5523 0.448499 49.9971 0.999957 50.0273C10.476 50.5462 18 58.3944 18 68C18 77.6056 10.476 85.4538 0.999959 85.9727C0.4485 86.0029 1.87685e-06 86.4477 1.83923e-06 87L0 114C0 116.209 1.79086 118 4 118H31C31.5523 118 31.9971 117.552 32.0273 117C32.5462 107.524 40.3944 100 50 100C59.6056 100 67.4538 107.524 67.9727 117C68.0029 117.552 68.4477 118 69 118H96C98.2091 118 100 116.209 100 114L100 87C100 86.4477 100.448 86.0029 101 85.9727C110.476 85.4538 118 77.6056 118 68C118 58.3944 110.476 50.5462 101 50.0273C100.448 49.9971 100 49.5523 100 49L100 22C100 19.7909 98.2091 18 96 18L69 18Z"/>
</mask>
<path fill-rule="evenodd" clip-rule="evenodd" d="M69 18C68.4477 18 68.0029 17.5515 67.9727 17C67.4538 7.52403 59.6056 0 50 0C40.3944 0 32.5462 7.52403 32.0273 17C31.9971 17.5515 31.5523 18 31 18L4 18C1.79086 18 0 19.7909 0 22L1.83923e-06 49C1.87685e-06 49.5523 0.448499 49.9971 0.999957 50.0273C10.476 50.5462 18 58.3944 18 68C18 77.6056 10.476 85.4538 0.999959 85.9727C0.4485 86.0029 1.87685e-06 86.4477 1.83923e-06 87L0 114C0 116.209 1.79086 118 4 118H31C31.5523 118 31.9971 117.552 32.0273 117C32.5462 107.524 40.3944 100 50 100C59.6056 100 67.4538 107.524 67.9727 117C68.0029 117.552 68.4477 118 69 118H96C98.2091 118 100 116.209 100 114L100 87C100 86.4477 100.448 86.0029 101 85.9727C110.476 85.4538 118 77.6056 118 68C118 58.3944 110.476 50.5462 101 50.0273C100.448 49.9971 100 49.5523 100 49L100 22C100 19.7909 98.2091 18 96 18L69 18Z" fill="white"/>
<path d="M4 18L4 17H4V18ZM0 22L-1 22L-1 22L0 22ZM0 114L-1 114V114H0ZM96 18L96 17L96 17L96 18ZM101 50.0273L101.055 49.0288L101 50.0273ZM101 85.9727L100.945 84.9742L101 85.9727ZM32.0273 117L31.0288 116.945L32.0273 117ZM0.999959 85.9727L0.945286 84.9742L0.999959 85.9727ZM32.0273 17L31.0288 16.9454L32.0273 17ZM67.9727 117L68.9712 116.945L67.9727 117ZM67.9727 17L68.9712 16.9454L67.9727 17ZM69 18L69 17L69 18ZM50 1C59.0716 1 66.4842 8.10603 66.9742 17.0547L68.9712 16.9454C68.4235 6.94204 60.1396 -1 50 -1V1ZM33.0258 17.0547C33.5158 8.10603 40.9284 1 50 1V-1C39.8604 -1 31.5765 6.94204 31.0288 16.9454L33.0258 17.0547ZM31 17L4 17L4 19L31 19L31 17ZM4 17C1.23858 17 -1 19.2386 -1 22H1C1 20.3431 2.34315 19 4 19V17ZM-1 22L-0.999998 49L1 49L1 22L-1 22ZM0.945284 51.0258C9.89398 51.5158 17 58.9284 17 68H19C19 57.8604 11.058 49.5765 1.05463 49.0288L0.945284 51.0258ZM17 68C17 77.0716 9.89398 84.4842 0.945286 84.9742L1.05463 86.9712C11.058 86.4235 19 78.1396 19 68H17ZM-0.999998 87L-1 114L1 114L1 87L-0.999998 87ZM-1 114C-1 116.761 1.23858 119 4 119L4 117C2.34315 117 1 115.657 1 114H-1ZM4 119H31V117H4L4 119ZM33.0258 117.055C33.5158 108.106 40.9284 101 50 101V99C39.8604 99 31.5765 106.942 31.0288 116.945L33.0258 117.055ZM50 101C59.0716 101 66.4842 108.106 66.9742 117.055L68.9712 116.945C68.4235 106.942 60.1396 99 50 99V101ZM69 119H96V117H69V119ZM96 119C98.7614 119 101 116.761 101 114H99C99 115.657 97.6569 117 96 117V119ZM101 114L101 87H99L99 114H101ZM101.055 86.9712C111.058 86.4235 119 78.1396 119 68H117C117 77.0716 109.894 84.4842 100.945 84.9742L101.055 86.9712ZM119 68C119 57.8604 111.058 49.5765 101.055 49.0288L100.945 51.0258C109.894 51.5158 117 58.9284 117 68H119ZM101 49L101 22H99L99 49H101ZM101 22C101 19.2386 98.7614 17 96 17V19C97.6569 19 99 20.3431 99 22H101ZM96 17L69 17L69 19L96 19L96 17ZM101.055 49.0288C101.033 49.0276 101.016 49.0187 101.006 49.0081C101.001 49.0033 101 49.0001 101 48.9999C101 48.9998 101 49.0001 101 49.0006C101 49.0012 101 49.0012 101 49H99C99 50.1183 99.8992 50.9685 100.945 51.0258L101.055 49.0288ZM101 87C101 86.9988 101 86.9988 101 86.9993C101 86.9999 101 87.0002 101 87.0001C101 86.9999 101.001 86.9967 101.006 86.9919C101.016 86.9813 101.033 86.9724 101.055 86.9712L100.945 84.9742C99.8992 85.0315 99 85.8817 99 87H101ZM31 119C32.1183 119 32.9685 118.101 33.0258 117.055L31.0288 116.945C31.0276 116.967 31.0187 116.984 31.0081 116.994C31.0033 116.999 31.0001 117 30.9999 117C30.9998 117 31.0001 117 31.0007 117C31.0012 117 31.0012 117 31 117V119ZM-0.999998 49C-0.999998 50.1183 -0.100787 50.9685 0.945284 51.0258L1.05463 49.0288C1.03335 49.0276 1.0164 49.0187 1.006 49.0081C1.00127 49.0033 0.999848 49.0001 0.999768 48.9999C0.99974 48.9998 0.99987 49.0001 0.999978 49.0007C1.0001 49.0012 1 49.0012 1 49L-0.999998 49ZM0.945286 84.9742C-0.100784 85.0315 -0.999998 85.8817 -0.999998 87L1 87C1 86.9988 1.0001 86.9988 0.999978 86.9994C0.99987 86.9999 0.99974 87.0002 0.999768 87.0001C0.999848 86.9999 1.00127 86.9967 1.006 86.9919C1.0164 86.9813 1.03335 86.9724 1.05463 86.9712L0.945286 84.9742ZM31.0288 16.9454C31.0276 16.9667 31.0187 16.9836 31.0081 16.994C31.0033 16.9987 31.0001 17.0002 30.9999 17.0002C30.9998 17.0003 31.0001 17.0001 31.0006 17C31.0012 16.9999 31.0012 17 31 17L31 19C32.1183 19 32.9685 18.1008 33.0258 17.0547L31.0288 16.9454ZM66.9742 117.055C67.0315 118.101 67.8817 119 69 119V117C68.9988 117 68.9988 117 68.9994 117C68.9999 117 69.0002 117 69.0001 117C68.9999 117 68.9967 116.999 68.9919 116.994C68.9813 116.984 68.9724 116.967 68.9712 116.945L66.9742 117.055ZM66.9742 17.0547C67.0315 18.1008 67.8817 19 69 19L69 17C68.9988 17 68.9988 16.9999 68.9994 17C68.9999 17.0001 69.0002 17.0003 69.0001 17.0002C68.9999 17.0002 68.9967 16.9987 68.9919 16.994C68.9813 16.9836 68.9724 16.9666 68.9712 16.9454L66.9742 17.0547Z" fill="#D1D5DB" fill-opacity="0.1" mask="url(#path-1-inside-1_232_5656)"/>
<path d="M29.3496 90.144C28.5816 90.144 27.995 89.9093 27.5896 89.44C27.1843 88.9707 26.9816 88.2987 26.9816 87.424V79.264C26.9816 79.0507 27.035 78.8907 27.1416 78.784C27.2483 78.6667 27.4083 78.608 27.6216 78.608C27.8243 78.608 27.9843 78.6667 28.1016 78.784C28.219 78.8907 28.2776 79.0507 28.2776 79.264V87.328C28.2776 87.904 28.3896 88.336 28.6136 88.624C28.8483 88.9013 29.1896 89.04 29.6376 89.04C29.7336 89.04 29.819 89.0347 29.8936 89.024C29.9683 89.0133 30.043 89.008 30.1176 89.008C30.235 88.9973 30.315 89.024 30.3576 89.088C30.411 89.152 30.4376 89.28 30.4376 89.472C30.4376 89.664 30.395 89.808 30.3096 89.904C30.2243 90 30.0856 90.064 29.8936 90.096C29.8083 90.1067 29.7176 90.1173 29.6216 90.128C29.5256 90.1387 29.435 90.144 29.3496 90.144ZM32.356 90.08C32.1427 90.08 31.9827 90.0213 31.876 89.904C31.7693 89.776 31.716 89.6 31.716 89.376V82.832C31.716 82.608 31.7693 82.4373 31.876 82.32C31.9827 82.2027 32.1427 82.144 32.356 82.144C32.5587 82.144 32.7187 82.2027 32.836 82.32C32.9533 82.4373 33.012 82.608 33.012 82.832V89.376C33.012 89.6 32.9533 89.776 32.836 89.904C32.7293 90.0213 32.5693 90.08 32.356 90.08ZM32.356 80.352C32.0893 80.352 31.8813 80.2827 31.732 80.144C31.5827 79.9947 31.508 79.7973 31.508 79.552C31.508 79.296 31.5827 79.104 31.732 78.976C31.8813 78.8373 32.0893 78.768 32.356 78.768C32.6333 78.768 32.8413 78.8373 32.98 78.976C33.1293 79.104 33.204 79.296 33.204 79.552C33.204 79.7973 33.1293 79.9947 32.98 80.144C32.8413 80.2827 32.6333 80.352 32.356 80.352ZM38.0588 90.144C37.5788 90.144 37.0934 90.0853 36.6028 89.968C36.1228 89.8507 35.6748 89.648 35.2588 89.36C35.1521 89.2853 35.0774 89.2 35.0348 89.104C34.9921 88.9973 34.9761 88.896 34.9868 88.8C35.0081 88.6933 35.0508 88.6027 35.1148 88.528C35.1894 88.4533 35.2748 88.4107 35.3708 88.4C35.4774 88.3787 35.5948 88.4 35.7228 88.464C36.1388 88.72 36.5388 88.9013 36.9228 89.008C37.3174 89.104 37.7068 89.152 38.0908 89.152C38.6988 89.152 39.1574 89.04 39.4668 88.816C39.7761 88.592 39.9308 88.288 39.9308 87.904C39.9308 87.6053 39.8294 87.3707 39.6268 87.2C39.4241 87.0187 39.1041 86.88 38.6668 86.784L37.2108 86.464C36.5388 86.3253 36.0374 86.0853 35.7068 85.744C35.3868 85.4027 35.2268 84.96 35.2268 84.416C35.2268 83.936 35.3494 83.5253 35.5948 83.184C35.8508 82.832 36.2081 82.56 36.6668 82.368C37.1254 82.176 37.6588 82.08 38.2668 82.08C38.7361 82.08 39.1788 82.144 39.5948 82.272C40.0214 82.3893 40.4054 82.5813 40.7468 82.848C40.8534 82.9227 40.9228 83.0133 40.9548 83.12C40.9974 83.216 41.0028 83.3173 40.9708 83.424C40.9494 83.52 40.9014 83.6053 40.8268 83.68C40.7521 83.744 40.6614 83.7813 40.5548 83.792C40.4481 83.8027 40.3361 83.7707 40.2188 83.696C39.8988 83.4827 39.5734 83.328 39.2428 83.232C38.9121 83.1253 38.5868 83.072 38.2668 83.072C37.6694 83.072 37.2161 83.1893 36.9068 83.424C36.5974 83.6587 36.4428 83.968 36.4428 84.352C36.4428 84.6507 36.5388 84.896 36.7308 85.088C36.9228 85.28 37.2214 85.4187 37.6268 85.504L39.0828 85.808C39.7761 85.9573 40.2934 86.1973 40.6348 86.528C40.9868 86.848 41.1628 87.2853 41.1628 87.84C41.1628 88.544 40.8801 89.104 40.3148 89.52C39.7494 89.936 38.9974 90.144 38.0588 90.144ZM46.1798 90.144C45.5718 90.144 45.0598 90.0373 44.6438 89.824C44.2384 89.6 43.9344 89.28 43.7318 88.864C43.5291 88.4373 43.4278 87.92 43.4278 87.312V83.232H42.3558C42.1744 83.232 42.0358 83.1893 41.9398 83.104C41.8438 83.008 41.7957 82.88 41.7957 82.72C41.7957 82.56 41.8438 82.4373 41.9398 82.352C42.0358 82.2667 42.1744 82.224 42.3558 82.224H43.4278V80.384C43.4278 80.1707 43.4864 80.0107 43.6038 79.904C43.7211 79.7867 43.8811 79.728 44.0838 79.728C44.2864 79.728 44.4411 79.7867 44.5478 79.904C44.6651 80.0107 44.7238 80.1707 44.7238 80.384V82.224H46.7398C46.9211 82.224 47.0598 82.2667 47.1558 82.352C47.2518 82.4373 47.2998 82.56 47.2998 82.72C47.2998 82.88 47.2518 83.008 47.1558 83.104C47.0598 83.1893 46.9211 83.232 46.7398 83.232H44.7238V87.184C44.7238 87.792 44.8518 88.256 45.1078 88.576C45.3638 88.8853 45.7798 89.04 46.3558 89.04C46.5584 89.04 46.7291 89.0187 46.8678 88.976C47.0171 88.9333 47.1398 88.912 47.2358 88.912C47.3318 88.9013 47.4118 88.9333 47.4758 89.008C47.5398 89.0827 47.5718 89.2107 47.5718 89.392C47.5718 89.52 47.5451 89.6373 47.4918 89.744C47.4491 89.8507 47.3691 89.9253 47.2518 89.968C47.1238 90.0107 46.9531 90.048 46.7398 90.08C46.5371 90.1227 46.3504 90.144 46.1798 90.144ZM49.3873 90.112C49.1739 90.112 49.0139 90.0533 48.9073 89.936C48.8006 89.8187 48.7473 89.6533 48.7473 89.44V79.264C48.7473 79.0507 48.8006 78.8907 48.9073 78.784C49.0139 78.6667 49.1739 78.608 49.3873 78.608C49.5899 78.608 49.7499 78.6667 49.8673 78.784C49.9846 78.8907 50.0433 79.0507 50.0433 79.264V83.952H49.8353C50.0593 83.3333 50.4219 82.8693 50.9233 82.56C51.4353 82.24 52.0219 82.08 52.6833 82.08C53.3019 82.08 53.8139 82.192 54.2193 82.416C54.6353 82.64 54.9446 82.9813 55.1473 83.44C55.3499 83.888 55.4513 84.4587 55.4513 85.152V89.44C55.4513 89.6533 55.3926 89.8187 55.2753 89.936C55.1686 90.0533 55.0139 90.112 54.8113 90.112C54.5979 90.112 54.4326 90.0533 54.3153 89.936C54.2086 89.8187 54.1553 89.6533 54.1553 89.44V85.232C54.1553 84.5067 54.0113 83.9787 53.7233 83.648C53.4459 83.3067 52.9979 83.136 52.3793 83.136C51.6646 83.136 51.0939 83.36 50.6673 83.808C50.2513 84.2453 50.0433 84.832 50.0433 85.568V89.44C50.0433 89.888 49.8246 90.112 49.3873 90.112ZM61.345 90.144C60.5237 90.144 59.8143 89.984 59.217 89.664C58.6303 89.3333 58.1717 88.8693 57.841 88.272C57.521 87.6747 57.361 86.96 57.361 86.128C57.361 85.3173 57.521 84.6133 57.841 84.016C58.161 83.408 58.5983 82.9333 59.153 82.592C59.7183 82.2507 60.369 82.08 61.105 82.08C61.6277 82.08 62.097 82.1707 62.513 82.352C62.929 82.5227 63.281 82.7733 63.569 83.104C63.8677 83.4347 64.0917 83.8347 64.241 84.304C64.401 84.7733 64.481 85.3013 64.481 85.888C64.481 86.0587 64.433 86.1867 64.337 86.272C64.241 86.3467 64.1023 86.384 63.921 86.384H58.353V85.536H63.617L63.361 85.744C63.361 85.168 63.2757 84.6827 63.105 84.288C62.9343 83.8827 62.6837 83.5733 62.353 83.36C62.033 83.1467 61.6277 83.04 61.137 83.04C60.593 83.04 60.129 83.168 59.745 83.424C59.3717 83.6693 59.089 84.016 58.897 84.464C58.705 84.9013 58.609 85.4133 58.609 86V86.096C58.609 87.0773 58.8437 87.824 59.313 88.336C59.793 88.848 60.4703 89.104 61.345 89.104C61.7077 89.104 62.065 89.056 62.417 88.96C62.7797 88.864 63.1317 88.704 63.473 88.48C63.6223 88.384 63.7557 88.3413 63.873 88.352C64.001 88.352 64.1023 88.3893 64.177 88.464C64.2517 88.528 64.2997 88.6133 64.321 88.72C64.353 88.816 64.3423 88.9227 64.289 89.04C64.2463 89.1573 64.1557 89.2587 64.017 89.344C63.665 89.6 63.249 89.7973 62.769 89.936C62.289 90.0747 61.8143 90.144 61.345 90.144ZM66.9966 90.112C66.7833 90.112 66.6233 90.0533 66.5166 89.936C66.41 89.8187 66.3566 89.6533 66.3566 89.44V82.768C66.3566 82.5547 66.41 82.3947 66.5166 82.288C66.6233 82.1707 66.778 82.112 66.9806 82.112C67.1833 82.112 67.338 82.1707 67.4446 82.288C67.562 82.3947 67.6206 82.5547 67.6206 82.768V84.144L67.4446 83.952C67.6686 83.3333 68.0313 82.8693 68.5326 82.56C69.0446 82.24 69.6313 82.08 70.2926 82.08C70.9113 82.08 71.4233 82.192 71.8286 82.416C72.2446 82.64 72.554 82.9813 72.7566 83.44C72.9593 83.888 73.0606 84.4587 73.0606 85.152V89.44C73.0606 89.6533 73.002 89.8187 72.8846 89.936C72.778 90.0533 72.6233 90.112 72.4206 90.112C72.2073 90.112 72.042 90.0533 71.9246 89.936C71.818 89.8187 71.7646 89.6533 71.7646 89.44V85.232C71.7646 84.5067 71.6206 83.9787 71.3326 83.648C71.0553 83.3067 70.6073 83.136 69.9886 83.136C69.274 83.136 68.7033 83.36 68.2766 83.808C67.8606 84.2453 67.6526 84.832 67.6526 85.568V89.44C67.6526 89.888 67.434 90.112 66.9966 90.112Z" fill="#111827"/>
<path d="M48.3813 46.6665C53.4191 45.354 59.4609 49.6328 58.2053 56.7531C57.1991 62.4515 54.6047 64.2212 51.8769 66.4656C50.6147 67.5046 49.1731 70.7378 46.3797 70.4228C43.0241 70.0465 42.4116 67.3274 42.5122 65.3959C42.6719 62.3421 43.1181 60.579 42.9147 58.4024C42.3525 52.3737 43.1903 48.0184 48.3813 46.6665Z" fill="#FFCA28"/>
<path d="M52.3909 61.0996C51.9294 62.9678 50.6409 63.0881 49.4006 63.694C48.4425 64.1621 48.1034 64.534 47.3859 65.3281C46.7625 66.0171 45.3384 65.9209 44.5531 64.7615C44.2841 64.3656 44.1944 63.3506 44.6625 62.6024C45.695 60.9487 44.6778 60.0628 44.8397 59.2315C45.0147 58.3434 45.8897 58.2559 46.4278 58.6146C47.2591 59.1659 47.7206 59.8396 48.0028 60.2837C48.2434 60.6599 48.6634 60.7956 48.6678 59.9556C48.6766 57.9059 44.9119 55.2503 46.4081 51.759C47.5259 49.1493 49.9344 48.3968 52.45 49.5453C54.9284 50.6762 56.7025 53.0496 56.5035 55.8868C56.4072 57.2365 55.81 58.5468 54.8519 59.5028C55.0575 59.2971 54.9284 54.8434 52.8744 53.8503C51.9513 53.4062 50.6344 53.7562 50.3281 54.7274C50.1378 55.3334 50.3653 55.9984 50.7066 56.5343C51.0478 57.0703 51.5006 57.5296 51.8288 58.0765C52.4325 59.0806 52.6206 60.1634 52.3909 61.0996Z" fill="#FFB300"/>
<path d="M44.9884 58.84C44.9206 58.9472 44.8681 59.0762 44.8375 59.2315C44.6756 60.0606 45.6906 60.9465 44.6603 62.6025C44.3278 63.1362 44.2797 63.8012 44.3738 64.2847C44.8856 64.4837 45.5922 64.499 46.4234 63.74C46.9528 63.2587 47.1213 62.469 47.0097 61.78C46.7209 60.0125 45.8438 59.8943 44.9884 58.84Z" fill="#F09300"/>
<path d="M53.2025 63.5716C56.1403 59.6297 57.3916 56.7816 56.1666 52.7128C55.6262 50.9147 53.7166 49.2566 52.0344 48.7316C50.525 48.2591 48.8144 48.5391 47.5697 49.46C46.7909 50.0353 45.2684 51.9603 45.5309 54.2375C45.7409 56.0728 46.5109 56.9281 47.1453 57.556C48.2128 58.6147 48.5803 59.3782 48.5803 59.3782C48.5387 58.8991 48.5541 58.5644 47.7666 57.4072C47.3006 56.7225 46.5109 55.725 46.3294 54.1456C46.2944 53.8372 46.3031 53.5485 46.3403 53.2706C46.7581 54.0275 47.9022 55.1781 50.0591 56.7772C53.4453 59.2863 51.8769 62.2525 50.6847 62.7469C49.8184 63.1056 48.9216 63.355 48.2237 64.0178C47.9241 64.3022 47.6922 64.6741 47.6397 65.0831C48.6306 63.8078 49.9409 63.8997 51.2316 63.2544C52.3384 62.701 52.7628 62.1738 52.9444 60.5769C53.0909 59.2885 52.6337 58.0481 51.7587 57.0988C51.1703 56.4622 48.4141 54.3447 47.9853 53.6381C47.4734 52.7938 47.1934 51.4988 48.1122 50.4466C49.1556 49.6744 50.5906 49.4425 51.8594 49.8385C53.2856 50.2847 55.0553 51.8597 55.5212 53.3997C56.37 56.2194 55.3769 58.3938 54.0141 61.0691C53.2091 62.6594 53.2025 63.5716 53.2025 63.5716Z" fill="#F09300"/>
</svg>
