<svg width="118" height="118" viewBox="0 0 118 118" fill="none" xmlns="http://www.w3.org/2000/svg">
<mask id="path-1-inside-1_232_5279" fill="white">
<path fill-rule="evenodd" clip-rule="evenodd" d="M68 18C77.6056 18 85.4538 10.476 85.9727 0.999956C86.0029 0.448497 86.4477 0 87 0L114 0C116.209 0 118 1.79086 118 4L118 30C118 30.5523 117.552 30.9971 117 31.0273C107.524 31.5462 100 39.3944 100 49C100 58.6056 107.524 66.4538 117 66.9727C117.552 67.0029 118 67.4477 118 68L118 96C118 98.2091 116.209 100 114 100H87C86.4477 100 86.0029 100.448 85.9727 101C85.4538 110.476 77.6056 118 68 118C58.3944 118 50.5462 110.476 50.0273 101C49.9971 100.448 49.5523 100 49 100L22 100C19.7909 100 18 98.2091 18 96L18 69C18 68.4477 17.5515 68.0029 17 67.9727C7.52403 67.4538 0 59.6056 0 50C0 40.3944 7.52403 32.5462 17 32.0273C17.5515 31.9971 18 31.5523 18 31L18 4C18 1.79086 19.7909 0 22 0L49 0C49.5523 0 49.9971 0.448498 50.0273 0.999957C50.5462 10.476 58.3944 18 68 18Z"/>
</mask>
<path fill-rule="evenodd" clip-rule="evenodd" d="M68 18C77.6056 18 85.4538 10.476 85.9727 0.999956C86.0029 0.448497 86.4477 0 87 0L114 0C116.209 0 118 1.79086 118 4L118 30C118 30.5523 117.552 30.9971 117 31.0273C107.524 31.5462 100 39.3944 100 49C100 58.6056 107.524 66.4538 117 66.9727C117.552 67.0029 118 67.4477 118 68L118 96C118 98.2091 116.209 100 114 100H87C86.4477 100 86.0029 100.448 85.9727 101C85.4538 110.476 77.6056 118 68 118C58.3944 118 50.5462 110.476 50.0273 101C49.9971 100.448 49.5523 100 49 100L22 100C19.7909 100 18 98.2091 18 96L18 69C18 68.4477 17.5515 68.0029 17 67.9727C7.52403 67.4538 0 59.6056 0 50C0 40.3944 7.52403 32.5462 17 32.0273C17.5515 31.9971 18 31.5523 18 31L18 4C18 1.79086 19.7909 0 22 0L49 0C49.5523 0 49.9971 0.448498 50.0273 0.999957C50.5462 10.476 58.3944 18 68 18Z" fill="white"/>
<path d="M118 4H119H118ZM18 96L17 96V96H18ZM18 4L17 4L17 4L18 4ZM50.0273 0.999957L51.0258 0.945284L50.0273 0.999957ZM17 32.0273L16.9454 31.0288L17 32.0273ZM18 31L19 31L18 31ZM18 69L17 69L18 69ZM17 67.9727L16.9454 68.9712L17 67.9727ZM50.0273 101L49.0288 101.055L50.0273 101ZM117 66.9727L117.055 65.9742L117 66.9727ZM85.9727 101L86.9712 101.055L85.9727 101ZM118 30H117H118ZM117 31.0273L117.055 32.0258L117 31.0273ZM84.9742 0.945282C84.4842 9.89397 77.0716 17 68 17V19C78.1396 19 86.4235 11.058 86.9712 1.05463L84.9742 0.945282ZM114 -1L87 -1V1L114 1V-1ZM119 4C119 1.23858 116.761 -1 114 -1V1C115.657 1 117 2.34315 117 4H119ZM119 30L119 4L117 4L117 30L119 30ZM101 49C101 39.9284 108.106 32.5158 117.055 32.0258L116.945 30.0288C106.942 30.5765 99 38.8604 99 49H101ZM117.055 65.9742C108.106 65.4842 101 58.0716 101 49H99C99 59.1396 106.942 67.4235 116.945 67.9712L117.055 65.9742ZM119 96L119 68H117L117 96H119ZM114 101C116.761 101 119 98.7614 119 96H117C117 97.6569 115.657 99 114 99V101ZM87 101H114V99H87V101ZM68 119C78.1396 119 86.4235 111.058 86.9712 101.055L84.9742 100.945C84.4842 109.894 77.0716 117 68 117V119ZM49.0288 101.055C49.5765 111.058 57.8604 119 68 119V117C58.9284 117 51.5158 109.894 51.0258 100.945L49.0288 101.055ZM22 101L49 101V99L22 99L22 101ZM17 96C17 98.7614 19.2386 101 22 101L22 99C20.3431 99 19 97.6569 19 96H17ZM17 69L17 96L19 96L19 69L17 69ZM17.0547 66.9742C8.10603 66.4842 1 59.0716 1 50H-1C-1 60.1396 6.94204 68.4235 16.9454 68.9712L17.0547 66.9742ZM1 50C1 40.9284 8.10603 33.5158 17.0547 33.0258L16.9454 31.0288C6.94204 31.5765 -1 39.8604 -1 50H1ZM17 4L17 31L19 31L19 4L17 4ZM22 -1C19.2386 -1 17 1.23858 17 4L19 4C19 2.34315 20.3431 1 22 1V-1ZM49 -1L22 -1V1L49 1V-1ZM68 17C58.9284 17 51.5158 9.89397 51.0258 0.945284L49.0288 1.05463C49.5765 11.058 57.8604 19 68 19V17ZM49 1C49.0012 1 49.0012 1.0001 49.0006 0.999977C49.0001 0.999868 48.9998 0.999738 48.9999 0.999766C49.0001 0.999846 49.0033 1.00127 49.0081 1.006C49.0187 1.0164 49.0276 1.03335 49.0288 1.05463L51.0258 0.945284C50.9685 -0.100786 50.1183 -1 49 -1V1ZM17.0547 33.0258C18.1008 32.9685 19 32.1183 19 31L17 31C17 31.0012 16.9999 31.0012 17 31.0006C17.0001 31.0001 17.0003 30.9998 17.0002 30.9999C17.0002 31.0001 16.9987 31.0033 16.994 31.0081C16.9836 31.0187 16.9666 31.0276 16.9454 31.0288L17.0547 33.0258ZM19 69C19 67.8817 18.1008 67.0315 17.0547 66.9742L16.9454 68.9712C16.9667 68.9724 16.9836 68.9813 16.994 68.9919C16.9987 68.9967 17.0002 68.9999 17.0002 69.0001C17.0003 69.0002 17.0001 68.9999 17 68.9994C16.9999 68.9988 17 68.9988 17 69L19 69ZM86.9712 1.05463C86.9724 1.03335 86.9813 1.0164 86.9919 1.006C86.9967 1.00127 86.9999 0.999846 87.0001 0.999766C87.0002 0.999738 86.9999 0.999868 86.9993 0.999977C86.9988 1.0001 86.9988 1 87 1V-1C85.8817 -1 85.0315 -0.100789 84.9742 0.945282L86.9712 1.05463ZM51.0258 100.945C50.9685 99.8992 50.1183 99 49 99V101C49.0012 101 49.0012 101 49.0006 101C49.0001 101 48.9998 101 48.9999 101C49.0001 101 49.0033 101.001 49.0081 101.006C49.0187 101.016 49.0276 101.033 49.0288 101.055L51.0258 100.945ZM116.945 67.9712C116.967 67.9724 116.984 67.9813 116.994 67.9919C116.999 67.9967 117 67.9999 117 68.0001C117 68.0002 117 67.9999 117 67.9994C117 67.9988 117 67.9988 117 68H119C119 66.8817 118.101 66.0315 117.055 65.9742L116.945 67.9712ZM87 99C85.8817 99 85.0315 99.8992 84.9742 100.945L86.9712 101.055C86.9724 101.033 86.9813 101.016 86.9919 101.006C86.9967 101.001 86.9999 101 87.0001 101C87.0002 101 86.9999 101 86.9994 101C86.9988 101 86.9988 101 87 101V99ZM117 30C117 30.0012 117 30.0012 117 30.0006C117 30.0001 117 29.9998 117 29.9999C117 30.0001 116.999 30.0033 116.994 30.0081C116.984 30.0187 116.967 30.0276 116.945 30.0288L117.055 32.0258C118.101 31.9685 119 31.1183 119 30H117Z" fill="#D1D5DB" fill-opacity="0.1" mask="url(#path-1-inside-1_232_5279)"/>
<path d="M37.7239 72.112C37.5106 72.112 37.3506 72.0533 37.2439 71.936C37.1373 71.8187 37.0839 71.6533 37.0839 71.44V64.768C37.0839 64.5547 37.1373 64.3947 37.2439 64.288C37.3506 64.1707 37.5053 64.112 37.7079 64.112C37.9106 64.112 38.0653 64.1707 38.1719 64.288C38.2893 64.3947 38.3479 64.5547 38.3479 64.768V66.176L38.1719 65.952C38.3746 65.3547 38.6999 64.896 39.1479 64.576C39.6066 64.2453 40.1506 64.08 40.7799 64.08C41.4413 64.08 41.9746 64.24 42.3799 64.56C42.7959 64.8693 43.0733 65.3547 43.2119 66.016H42.9719C43.1639 65.4187 43.5053 64.9493 43.9959 64.608C44.4973 64.256 45.0786 64.08 45.7399 64.08C46.3266 64.08 46.8066 64.192 47.1799 64.416C47.5639 64.64 47.8519 64.9813 48.0439 65.44C48.2359 65.888 48.3319 66.4587 48.3319 67.152V71.44C48.3319 71.6533 48.2733 71.8187 48.1559 71.936C48.0493 72.0533 47.8893 72.112 47.6759 72.112C47.4733 72.112 47.3133 72.0533 47.1959 71.936C47.0893 71.8187 47.0359 71.6533 47.0359 71.44V67.216C47.0359 66.5013 46.9133 65.9787 46.6679 65.648C46.4226 65.3067 46.0066 65.136 45.4199 65.136C44.7799 65.136 44.2733 65.36 43.8999 65.808C43.5373 66.2453 43.3559 66.8427 43.3559 67.6V71.44C43.3559 71.6533 43.2973 71.8187 43.1799 71.936C43.0733 72.0533 42.9133 72.112 42.6999 72.112C42.4973 72.112 42.3373 72.0533 42.2199 71.936C42.1133 71.8187 42.0599 71.6533 42.0599 71.44V67.216C42.0599 66.5013 41.9319 65.9787 41.6759 65.648C41.4306 65.3067 41.0199 65.136 40.4439 65.136C39.8039 65.136 39.2973 65.36 38.9239 65.808C38.5613 66.2453 38.3799 66.8427 38.3799 67.6V71.44C38.3799 71.888 38.1613 72.112 37.7239 72.112ZM53.2031 72.144C52.6697 72.144 52.1897 72.0427 51.7631 71.84C51.3471 71.6267 51.0164 71.3387 50.7711 70.976C50.5257 70.6133 50.4031 70.208 50.4031 69.76C50.4031 69.184 50.5471 68.7307 50.8351 68.4C51.1337 68.0693 51.6191 67.8347 52.2911 67.696C52.9737 67.5573 53.9017 67.488 55.0751 67.488H55.7951V68.336H55.0911C54.2271 68.336 53.5444 68.3787 53.0431 68.464C52.5524 68.5387 52.2057 68.672 52.0031 68.864C51.8111 69.056 51.7151 69.328 51.7151 69.68C51.7151 70.1173 51.8644 70.4747 52.1631 70.752C52.4724 71.0293 52.8884 71.168 53.4111 71.168C53.8377 71.168 54.2111 71.0667 54.5311 70.864C54.8617 70.6613 55.1177 70.384 55.2991 70.032C55.4911 69.68 55.5871 69.2747 55.5871 68.816V66.992C55.5871 66.3307 55.4537 65.856 55.1871 65.568C54.9204 65.2693 54.4831 65.12 53.8751 65.12C53.5017 65.12 53.1284 65.168 52.7551 65.264C52.3817 65.36 51.9871 65.5147 51.5711 65.728C51.4217 65.8027 51.2937 65.8293 51.1871 65.808C51.0804 65.776 50.9951 65.7173 50.9311 65.632C50.8671 65.5467 50.8297 65.4507 50.8191 65.344C50.8084 65.2267 50.8297 65.1147 50.8831 65.008C50.9471 64.9013 51.0431 64.816 51.1711 64.752C51.6404 64.5173 52.1044 64.3467 52.5631 64.24C53.0217 64.1333 53.4591 64.08 53.8751 64.08C54.5471 64.08 55.1017 64.192 55.5391 64.416C55.9764 64.6293 56.3017 64.96 56.5151 65.408C56.7284 65.8453 56.8351 66.4107 56.8351 67.104V71.44C56.8351 71.6533 56.7817 71.8187 56.6751 71.936C56.5791 72.0533 56.4351 72.112 56.2431 72.112C56.0404 72.112 55.8857 72.0533 55.7791 71.936C55.6724 71.8187 55.6191 71.6533 55.6191 71.44V70.192H55.7631C55.6777 70.5973 55.5124 70.944 55.2671 71.232C55.0324 71.52 54.7391 71.744 54.3871 71.904C54.0351 72.064 53.6404 72.144 53.2031 72.144ZM62.6794 75.024C62.1141 75.024 61.5594 74.9547 61.0154 74.816C60.4821 74.688 59.9968 74.48 59.5594 74.192C59.4314 74.1173 59.3461 74.0267 59.3034 73.92C59.2714 73.8133 59.2661 73.7067 59.2874 73.6C59.3088 73.504 59.3568 73.4133 59.4314 73.328C59.5061 73.2533 59.5914 73.2053 59.6874 73.184C59.7941 73.1627 59.9008 73.1787 60.0074 73.232C60.4768 73.52 60.9248 73.7173 61.3514 73.824C61.7781 73.9307 62.1994 73.984 62.6154 73.984C63.3728 73.984 63.9434 73.7813 64.3274 73.376C64.7221 72.9707 64.9194 72.384 64.9194 71.616V69.808H65.0794C64.9194 70.4267 64.5781 70.9173 64.0554 71.28C63.5434 71.6427 62.9408 71.824 62.2474 71.824C61.5328 71.824 60.9141 71.664 60.3914 71.344C59.8688 71.0133 59.4634 70.5547 59.1754 69.968C58.8981 69.3813 58.7594 68.704 58.7594 67.936C58.7594 67.36 58.8394 66.8373 58.9994 66.368C59.1594 65.888 59.3888 65.4827 59.6874 65.152C59.9968 64.8107 60.3648 64.5493 60.7914 64.368C61.2288 64.176 61.7141 64.08 62.2474 64.08C62.9514 64.08 63.5594 64.2613 64.0714 64.624C64.5834 64.976 64.9141 65.456 65.0634 66.064L64.9034 66.256V64.768C64.9034 64.5547 64.9568 64.3947 65.0634 64.288C65.1808 64.1707 65.3408 64.112 65.5434 64.112C65.7568 64.112 65.9168 64.1707 66.0234 64.288C66.1301 64.3947 66.1834 64.5547 66.1834 64.768V71.44C66.1834 72.624 65.8848 73.5147 65.2874 74.112C64.7008 74.72 63.8314 75.024 62.6794 75.024ZM62.4874 70.768C62.9888 70.768 63.4208 70.656 63.7834 70.432C64.1461 70.1973 64.4234 69.8667 64.6154 69.44C64.8181 69.0133 64.9194 68.512 64.9194 67.936C64.9194 67.072 64.7008 66.3893 64.2634 65.888C63.8261 65.376 63.2341 65.12 62.4874 65.12C61.9968 65.12 61.5701 65.2373 61.2074 65.472C60.8448 65.696 60.5621 66.0213 60.3594 66.448C60.1674 66.864 60.0714 67.36 60.0714 67.936C60.0714 68.8 60.2901 69.488 60.7274 70C61.1648 70.512 61.7514 70.768 62.4874 70.768ZM69.2544 72.08C69.0411 72.08 68.8811 72.0213 68.7744 71.904C68.6678 71.776 68.6144 71.6 68.6144 71.376V64.832C68.6144 64.608 68.6678 64.4373 68.7744 64.32C68.8811 64.2027 69.0411 64.144 69.2544 64.144C69.4571 64.144 69.6171 64.2027 69.7344 64.32C69.8518 64.4373 69.9104 64.608 69.9104 64.832V71.376C69.9104 71.6 69.8518 71.776 69.7344 71.904C69.6278 72.0213 69.4678 72.08 69.2544 72.08ZM69.2544 62.352C68.9878 62.352 68.7798 62.2827 68.6304 62.144C68.4811 61.9947 68.4064 61.7973 68.4064 61.552C68.4064 61.296 68.4811 61.104 68.6304 60.976C68.7798 60.8373 68.9878 60.768 69.2544 60.768C69.5318 60.768 69.7398 60.8373 69.8784 60.976C70.0278 61.104 70.1024 61.296 70.1024 61.552C70.1024 61.7973 70.0278 61.9947 69.8784 62.144C69.7398 62.2827 69.5318 62.352 69.2544 62.352ZM75.6292 72.144C74.8505 72.144 74.1785 71.9733 73.6132 71.632C73.0479 71.2907 72.6105 70.816 72.3012 70.208C72.0025 69.5893 71.8532 68.8747 71.8532 68.064C71.8532 67.4453 71.9385 66.8907 72.1092 66.4C72.2799 65.9093 72.5305 65.4933 72.8612 65.152C73.1919 64.8 73.5865 64.5333 74.0452 64.352C74.5145 64.1707 75.0425 64.08 75.6292 64.08C76.0132 64.08 76.4132 64.1387 76.8292 64.256C77.2452 64.3733 77.6239 64.576 77.9652 64.864C78.0719 64.9387 78.1412 65.0293 78.1732 65.136C78.2052 65.2427 78.2052 65.3493 78.1732 65.456C78.1412 65.552 78.0879 65.6373 78.0132 65.712C77.9385 65.776 77.8425 65.8133 77.7252 65.824C77.6185 65.8347 77.5065 65.7973 77.3892 65.712C77.1119 65.4987 76.8292 65.3493 76.5412 65.264C76.2532 65.1787 75.9759 65.136 75.7092 65.136C75.2932 65.136 74.9305 65.2053 74.6212 65.344C74.3119 65.472 74.0505 65.6587 73.8372 65.904C73.6239 66.1493 73.4585 66.4533 73.3412 66.816C73.2345 67.1787 73.1812 67.6 73.1812 68.08C73.1812 69.008 73.3999 69.744 73.8372 70.288C74.2745 70.8213 74.8985 71.088 75.7092 71.088C75.9759 71.088 76.2479 71.0453 76.5252 70.96C76.8132 70.8747 77.1012 70.7253 77.3892 70.512C77.5065 70.4267 77.6185 70.3893 77.7252 70.4C77.8319 70.4107 77.9225 70.4533 77.9972 70.528C78.0719 70.592 78.1199 70.6773 78.1412 70.784C78.1732 70.8907 78.1732 70.9973 78.1412 71.104C78.1092 71.2 78.0399 71.2853 77.9332 71.36C77.5919 71.6373 77.2185 71.84 76.8132 71.968C76.4079 72.0853 76.0132 72.144 75.6292 72.144ZM82.1249 72.144C81.5916 72.144 81.1116 72.0427 80.6849 71.84C80.2689 71.6267 79.9383 71.3387 79.6929 70.976C79.4476 70.6133 79.3249 70.208 79.3249 69.76C79.3249 69.184 79.4689 68.7307 79.7569 68.4C80.0556 68.0693 80.5409 67.8347 81.2129 67.696C81.8956 67.5573 82.8236 67.488 83.9969 67.488H84.7169V68.336H84.0129C83.1489 68.336 82.4663 68.3787 81.9649 68.464C81.4743 68.5387 81.1276 68.672 80.9249 68.864C80.7329 69.056 80.6369 69.328 80.6369 69.68C80.6369 70.1173 80.7863 70.4747 81.0849 70.752C81.3943 71.0293 81.8103 71.168 82.3329 71.168C82.7596 71.168 83.1329 71.0667 83.4529 70.864C83.7836 70.6613 84.0396 70.384 84.2209 70.032C84.4129 69.68 84.5089 69.2747 84.5089 68.816V66.992C84.5089 66.3307 84.3756 65.856 84.1089 65.568C83.8423 65.2693 83.4049 65.12 82.7969 65.12C82.4236 65.12 82.0503 65.168 81.6769 65.264C81.3036 65.36 80.9089 65.5147 80.4929 65.728C80.3436 65.8027 80.2156 65.8293 80.1089 65.808C80.0023 65.776 79.9169 65.7173 79.8529 65.632C79.7889 65.5467 79.7516 65.4507 79.7409 65.344C79.7303 65.2267 79.7516 65.1147 79.8049 65.008C79.8689 64.9013 79.9649 64.816 80.0929 64.752C80.5623 64.5173 81.0263 64.3467 81.4849 64.24C81.9436 64.1333 82.3809 64.08 82.7969 64.08C83.4689 64.08 84.0236 64.192 84.4609 64.416C84.8983 64.6293 85.2236 64.96 85.4369 65.408C85.6503 65.8453 85.7569 66.4107 85.7569 67.104V71.44C85.7569 71.6533 85.7036 71.8187 85.5969 71.936C85.5009 72.0533 85.3569 72.112 85.1649 72.112C84.9623 72.112 84.8076 72.0533 84.7009 71.936C84.5943 71.8187 84.5409 71.6533 84.5409 71.44V70.192H84.6849C84.5996 70.5973 84.4343 70.944 84.1889 71.232C83.9543 71.52 83.6609 71.744 83.3089 71.904C82.9569 72.064 82.5623 72.144 82.1249 72.144ZM90.7853 72.144C90.3053 72.144 89.82 72.0853 89.3293 71.968C88.8493 71.8507 88.4013 71.648 87.9853 71.36C87.8786 71.2853 87.804 71.2 87.7613 71.104C87.7186 70.9973 87.7026 70.896 87.7133 70.8C87.7346 70.6933 87.7773 70.6027 87.8413 70.528C87.916 70.4533 88.0013 70.4107 88.0973 70.4C88.204 70.3787 88.3213 70.4 88.4493 70.464C88.8653 70.72 89.2653 70.9013 89.6493 71.008C90.044 71.104 90.4333 71.152 90.8173 71.152C91.4253 71.152 91.884 71.04 92.1933 70.816C92.5026 70.592 92.6573 70.288 92.6573 69.904C92.6573 69.6053 92.556 69.3707 92.3533 69.2C92.1506 69.0187 91.8306 68.88 91.3933 68.784L89.9373 68.464C89.2653 68.3253 88.764 68.0853 88.4333 67.744C88.1133 67.4027 87.9533 66.96 87.9533 66.416C87.9533 65.936 88.076 65.5253 88.3213 65.184C88.5773 64.832 88.9346 64.56 89.3933 64.368C89.852 64.176 90.3853 64.08 90.9933 64.08C91.4626 64.08 91.9053 64.144 92.3213 64.272C92.748 64.3893 93.132 64.5813 93.4733 64.848C93.58 64.9227 93.6493 65.0133 93.6813 65.12C93.724 65.216 93.7293 65.3173 93.6973 65.424C93.676 65.52 93.628 65.6053 93.5533 65.68C93.4786 65.744 93.388 65.7813 93.2813 65.792C93.1746 65.8027 93.0626 65.7707 92.9453 65.696C92.6253 65.4827 92.3 65.328 91.9693 65.232C91.6386 65.1253 91.3133 65.072 90.9933 65.072C90.396 65.072 89.9426 65.1893 89.6333 65.424C89.324 65.6587 89.1693 65.968 89.1693 66.352C89.1693 66.6507 89.2653 66.896 89.4573 67.088C89.6493 67.28 89.948 67.4187 90.3533 67.504L91.8093 67.808C92.5026 67.9573 93.02 68.1973 93.3613 68.528C93.7133 68.848 93.8893 69.2853 93.8893 69.84C93.8893 70.544 93.6066 71.104 93.0413 71.52C92.476 71.936 91.724 72.144 90.7853 72.144ZM98.9063 72.144C98.2983 72.144 97.7863 72.0373 97.3703 71.824C96.965 71.6 96.661 71.28 96.4583 70.864C96.2556 70.4373 96.1543 69.92 96.1543 69.312V65.232H95.0823C94.901 65.232 94.7623 65.1893 94.6663 65.104C94.5703 65.008 94.5223 64.88 94.5223 64.72C94.5223 64.56 94.5703 64.4373 94.6663 64.352C94.7623 64.2667 94.901 64.224 95.0823 64.224H96.1543V62.384C96.1543 62.1707 96.213 62.0107 96.3303 61.904C96.4476 61.7867 96.6076 61.728 96.8103 61.728C97.013 61.728 97.1676 61.7867 97.2743 61.904C97.3916 62.0107 97.4503 62.1707 97.4503 62.384V64.224H99.4663C99.6476 64.224 99.7863 64.2667 99.8823 64.352C99.9783 64.4373 100.026 64.56 100.026 64.72C100.026 64.88 99.9783 65.008 99.8823 65.104C99.7863 65.1893 99.6476 65.232 99.4663 65.232H97.4503V69.184C97.4503 69.792 97.5783 70.256 97.8343 70.576C98.0903 70.8853 98.5063 71.04 99.0823 71.04C99.285 71.04 99.4556 71.0187 99.5943 70.976C99.7436 70.9333 99.8663 70.912 99.9623 70.912C100.058 70.9013 100.138 70.9333 100.202 71.008C100.266 71.0827 100.298 71.2107 100.298 71.392C100.298 71.52 100.272 71.6373 100.218 71.744C100.176 71.8507 100.096 71.9253 99.9783 71.968C99.8503 72.0107 99.6796 72.048 99.4663 72.08C99.2636 72.1227 99.077 72.144 98.9063 72.144Z" fill="#111827"/>
<path d="M64.5394 40.9734L55.4656 41.3016C55.4656 41.3016 54.8903 40.7262 54.9734 40.5206C55.0565 40.315 62.5706 34.4437 62.8572 34.4853C63.1437 34.5269 63.8022 35.2247 64.3359 34.9775C64.8697 34.7303 64.3359 33.2931 64.5 33.0897C64.664 32.8841 70.5353 29.7231 70.905 29.5591C71.2747 29.395 71.6028 29.0253 72.3422 29.1894C73.0815 29.3534 74.93 29.6816 76.9403 31.0378C78.9506 32.3941 81.0462 33.9537 80.8822 34.8156C80.7181 35.6775 64.5394 40.9734 64.5394 40.9734Z" fill="#FFE265"/>
<path d="M58.2569 51.281C60.2694 51.0338 79.0338 47.011 79.8147 46.8885C80.5956 46.766 81.0878 46.0266 81.0878 45.2041C81.0878 44.3816 80.8822 34.8157 80.8822 34.8157C80.8822 34.8157 79.9788 35.1022 78.9113 35.3494C77.8438 35.5944 69.0959 37.7294 65.6484 38.5104C62.2009 39.2913 56.6972 40.7285 56.0803 40.7285C55.4634 40.7285 54.9713 40.5229 54.9713 40.5229C54.9713 40.5229 55.1353 49.0629 55.1769 49.6797C55.2184 50.2966 55.505 51.0338 56.2028 51.2394C56.9006 51.445 57.3556 51.3904 58.2569 51.281Z" fill="#FEB502"/>
<path d="M70.3997 31.5913C70.3997 32.1163 70.9334 32.4641 71.8172 32.4379C72.7818 32.4094 73.0487 31.8363 73.0181 31.4688C72.9875 31.0991 72.5434 30.7754 71.664 30.7907C70.8481 30.806 70.3997 31.1297 70.3997 31.5913Z" fill="#FF8B0D"/>
<path d="M60.545 38.1362C59.1231 38.6153 59.2828 39.86 59.6984 40.1378C60.114 40.4156 60.6675 40.4003 61.315 40.1684C61.9625 39.9366 62.3737 39.6719 62.4394 39.2387C62.5006 38.8275 61.9625 37.6572 60.545 38.1362ZM73.4644 34.5794C72.5106 34.6231 71.4562 35.3078 71.0625 35.9662C70.6469 36.6597 70.6162 37.4756 71.57 37.9831C72.5237 38.4906 75.8969 37.1978 75.7284 36.0122C75.56 34.8244 74.4662 34.5334 73.4644 34.5794ZM70.1547 44.1716C70.1547 44.1716 71.5087 43.1697 71.5087 42.4631C71.5087 41.7544 70.9247 40.0809 68.444 39.9541C66.1187 39.8337 64.6859 43.0034 66.2106 44.6353C67.7353 46.2672 68.6584 45.5278 69.2294 45.3747C69.8003 45.2194 70.1547 44.1716 70.1547 44.1716ZM63.4565 47.0197C63.4565 47.0197 64.8019 46.1775 63.7694 45.2544C63.0431 44.6047 62.0719 44.8978 61.5775 45.4031C60.9453 46.0506 61.1159 47.0809 61.7 47.5425C62.2862 48.0062 63.4565 47.0197 63.4565 47.0197ZM58.8978 43.2331C58.8978 43.2331 58.7447 42.7497 58.1956 42.555C57.5787 42.3362 56.6578 43.1041 57.0515 43.9244C57.4059 44.6637 58.1912 44.4472 58.1912 44.4472L58.8978 43.2331ZM78.5919 43.9397C78.7253 43.7953 79.5981 43.1653 79.5981 42.6862C79.5981 42.2094 78.2834 40.735 76.6056 41.8441C74.9278 42.9531 75.805 44.6309 76.2665 44.9087C76.7281 45.1866 78.0078 44.5719 78.5919 43.9397Z" fill="#ED6B31"/>
<path d="M60.7506 38.8909C59.8166 39.2146 59.4644 39.8753 59.6984 40.1378C59.9456 40.4156 60.4838 40.5993 61.4222 40.2603C62.1484 39.9978 62.5159 39.5581 62.4547 39.1665C62.4109 38.8821 61.5972 38.5978 60.7506 38.8909ZM57.6356 43.2003C57.2266 43.7121 57.5591 44.294 57.9441 44.4318C58.3291 44.5696 59.0072 44.154 58.9613 43.4628C58.9131 42.7693 58.0053 42.7387 57.6356 43.2003ZM62.3934 45.9893C61.5141 46.7025 61.49 47.4003 61.8291 47.6365C62.0653 47.8028 62.9359 48.1484 63.7322 47.56C64.3228 47.1246 64.3338 46.2103 64.1478 45.7728C63.9925 45.4009 63.1328 45.3878 62.3934 45.9893ZM67.7309 42.1021C66.5541 43.2462 66.2741 45.1034 67.4291 45.5409C68.4463 45.9259 69.9075 45.694 70.7694 44.6331C71.675 43.5175 71.7713 42.2859 71.1894 41.5596C70.4938 40.6868 68.6409 41.2206 67.7309 42.1021ZM73.0794 35.719C71.5394 36.2418 70.6316 37.3509 71.4169 37.9065C72.2022 38.46 73.0181 38.379 73.9106 38.075C74.9234 37.7315 75.6978 36.9353 75.7284 36.1806C75.7525 35.5615 74.4356 35.2575 73.0794 35.719ZM77.1919 42.8C76.1441 43.6531 75.8378 44.5084 76.2688 44.9087C76.6997 45.309 77.7322 45.4928 78.6859 44.8321C79.6769 44.1453 79.7491 43.3665 79.6397 42.7387C79.5172 42.0321 78.2681 41.9228 77.1919 42.8Z" fill="#FF8B0D"/>
</svg>
