<svg width="118" height="118" viewBox="0 0 118 118" fill="none" xmlns="http://www.w3.org/2000/svg">
<mask id="path-1-inside-1_232_5649" fill="white">
<path fill-rule="evenodd" clip-rule="evenodd" d="M68 18C77.6056 18 85.4538 10.476 85.9727 0.999956C86.0029 0.448497 86.4477 0 87 0L114 0C116.209 0 118 1.79086 118 4V30C118 30.5523 117.552 30.9971 117 31.0273C107.524 31.5462 100 39.3944 100 49C100 58.6056 107.524 66.4538 117 66.9727C117.552 67.0029 118 67.4477 118 68L118 96C118 98.2091 116.209 100 114 100H87C86.4477 100 86.0029 100.448 85.9727 101C85.4538 110.476 77.6056 118 68 118C58.3944 118 50.5462 110.476 50.0273 101C49.9971 100.448 49.5523 100 49 100L22 100C19.7909 100 18 98.2091 18 96L18 69C18 68.4477 17.5515 68.0029 17 67.9727C7.52403 67.4538 0 59.6056 0 50C0 40.3944 7.52403 32.5462 17 32.0273C17.5515 31.9971 18 31.5523 18 31L18 4C18 1.79086 19.7909 0 22 0L49 0C49.5523 0 49.9971 0.448498 50.0273 0.999957C50.5462 10.476 58.3944 18 68 18Z"/>
</mask>
<path fill-rule="evenodd" clip-rule="evenodd" d="M68 18C77.6056 18 85.4538 10.476 85.9727 0.999956C86.0029 0.448497 86.4477 0 87 0L114 0C116.209 0 118 1.79086 118 4V30C118 30.5523 117.552 30.9971 117 31.0273C107.524 31.5462 100 39.3944 100 49C100 58.6056 107.524 66.4538 117 66.9727C117.552 67.0029 118 67.4477 118 68L118 96C118 98.2091 116.209 100 114 100H87C86.4477 100 86.0029 100.448 85.9727 101C85.4538 110.476 77.6056 118 68 118C58.3944 118 50.5462 110.476 50.0273 101C49.9971 100.448 49.5523 100 49 100L22 100C19.7909 100 18 98.2091 18 96L18 69C18 68.4477 17.5515 68.0029 17 67.9727C7.52403 67.4538 0 59.6056 0 50C0 40.3944 7.52403 32.5462 17 32.0273C17.5515 31.9971 18 31.5523 18 31L18 4C18 1.79086 19.7909 0 22 0L49 0C49.5523 0 49.9971 0.448498 50.0273 0.999957C50.5462 10.476 58.3944 18 68 18Z" fill="white"/>
<path d="M18 96L17 96V96H18ZM18 4L17 4L17 4L18 4ZM50.0273 0.999957L51.0258 0.945284L50.0273 0.999957ZM17 32.0273L16.9454 31.0288L17 32.0273ZM18 31L17 31L18 31ZM18 69L17 69L18 69ZM17 67.9727L16.9454 68.9712L17 67.9727ZM50.0273 101L49.0288 101.055L50.0273 101ZM117 66.9727L117.055 65.9742L117 66.9727ZM85.9727 101L86.9712 101.055L85.9727 101ZM117 31.0273L117.055 32.0258L117 31.0273ZM84.9742 0.945282C84.4842 9.89397 77.0716 17 68 17V19C78.1396 19 86.4235 11.058 86.9712 1.05463L84.9742 0.945282ZM114 -1L87 -1V1L114 1V-1ZM119 4C119 1.23858 116.761 -1 114 -1V1C115.657 1 117 2.34315 117 4H119ZM119 30V4H117V30H119ZM101 49C101 39.9284 108.106 32.5158 117.055 32.0258L116.945 30.0288C106.942 30.5765 99 38.8604 99 49H101ZM117.055 65.9742C108.106 65.4842 101 58.0716 101 49H99C99 59.1396 106.942 67.4235 116.945 67.9712L117.055 65.9742ZM119 96L119 68H117L117 96H119ZM114 101C116.761 101 119 98.7614 119 96H117C117 97.6569 115.657 99 114 99V101ZM87 101H114V99H87V101ZM68 119C78.1396 119 86.4235 111.058 86.9712 101.055L84.9742 100.945C84.4842 109.894 77.0716 117 68 117V119ZM49.0288 101.055C49.5765 111.058 57.8604 119 68 119V117C58.9284 117 51.5158 109.894 51.0258 100.945L49.0288 101.055ZM22 101L49 101V99L22 99L22 101ZM17 96C17 98.7614 19.2386 101 22 101L22 99C20.3431 99 19 97.6569 19 96H17ZM17 69L17 96L19 96L19 69L17 69ZM17.0547 66.9742C8.10603 66.4842 1 59.0716 1 50H-1C-1 60.1396 6.94204 68.4235 16.9454 68.9712L17.0547 66.9742ZM1 50C1 40.9284 8.10603 33.5158 17.0547 33.0258L16.9454 31.0288C6.94204 31.5765 -1 39.8604 -1 50H1ZM17 4L17 31L19 31L19 4L17 4ZM22 -1C19.2386 -1 17 1.23858 17 4L19 4C19 2.34315 20.3431 1 22 1V-1ZM49 -1L22 -1V1L49 1V-1ZM68 17C58.9284 17 51.5158 9.89397 51.0258 0.945284L49.0288 1.05463C49.5765 11.058 57.8604 19 68 19V17ZM49 1C49.0012 1 49.0012 1.0001 49.0006 0.999977C49.0001 0.999868 48.9998 0.999738 48.9999 0.999766C49.0001 0.999846 49.0033 1.00127 49.0081 1.006C49.0187 1.0164 49.0276 1.03335 49.0288 1.05463L51.0258 0.945284C50.9685 -0.100786 50.1183 -1 49 -1V1ZM17.0547 33.0258C18.1008 32.9685 19 32.1183 19 31L17 31C17 31.0012 16.9999 31.0012 17 31.0006C17.0001 31.0001 17.0003 30.9998 17.0002 30.9999C17.0002 31.0001 16.9987 31.0033 16.994 31.0081C16.9836 31.0187 16.9666 31.0276 16.9454 31.0288L17.0547 33.0258ZM19 69C19 67.8817 18.1008 67.0315 17.0547 66.9742L16.9454 68.9712C16.9667 68.9724 16.9836 68.9813 16.994 68.9919C16.9987 68.9967 17.0002 68.9999 17.0002 69.0001C17.0003 69.0002 17.0001 68.9999 17 68.9994C16.9999 68.9988 17 68.9988 17 69L19 69ZM86.9712 1.05463C86.9724 1.03335 86.9813 1.0164 86.9919 1.006C86.9967 1.00127 86.9999 0.999846 87.0001 0.999766C87.0002 0.999738 86.9999 0.999868 86.9993 0.999977C86.9988 1.0001 86.9988 1 87 1V-1C85.8817 -1 85.0315 -0.100789 84.9742 0.945282L86.9712 1.05463ZM51.0258 100.945C50.9685 99.8992 50.1183 99 49 99V101C49.0012 101 49.0012 101 49.0006 101C49.0001 101 48.9998 101 48.9999 101C49.0001 101 49.0033 101.001 49.0081 101.006C49.0187 101.016 49.0276 101.033 49.0288 101.055L51.0258 100.945ZM116.945 67.9712C116.967 67.9724 116.984 67.9813 116.994 67.9919C116.999 67.9967 117 67.9999 117 68.0001C117 68.0002 117 67.9999 117 67.9994C117 67.9988 117 67.9988 117 68H119C119 66.8817 118.101 66.0315 117.055 65.9742L116.945 67.9712ZM87 99C85.8817 99 85.0315 99.8992 84.9742 100.945L86.9712 101.055C86.9724 101.033 86.9813 101.016 86.9919 101.006C86.9967 101.001 86.9999 101 87.0001 101C87.0002 101 86.9999 101 86.9994 101C86.9988 101 86.9988 101 87 101V99ZM117 30C117 30.0012 117 30.0012 117 30.0006C117 30.0001 117 29.9998 117 29.9999C117 30.0001 116.999 30.0033 116.994 30.0081C116.984 30.0187 116.967 30.0276 116.945 30.0288L117.055 32.0258C118.101 31.9685 119 31.1183 119 30H117Z" fill="#D1D5DB" fill-opacity="0.1" mask="url(#path-1-inside-1_232_5649)"/>
<path d="M46.0052 72.112C45.7919 72.112 45.6319 72.0533 45.5252 71.936C45.4185 71.8187 45.3652 71.6533 45.3652 71.44V64.768C45.3652 64.5547 45.4185 64.3947 45.5252 64.288C45.6319 64.1707 45.7865 64.112 45.9892 64.112C46.1919 64.112 46.3465 64.1707 46.4532 64.288C46.5705 64.3947 46.6292 64.5547 46.6292 64.768V66.176L46.4532 65.952C46.6559 65.3547 46.9812 64.896 47.4292 64.576C47.8879 64.2453 48.4319 64.08 49.0612 64.08C49.7225 64.08 50.2559 64.24 50.6612 64.56C51.0772 64.8693 51.3545 65.3547 51.4932 66.016H51.2532C51.4452 65.4187 51.7865 64.9493 52.2772 64.608C52.7785 64.256 53.3599 64.08 54.0212 64.08C54.6079 64.08 55.0879 64.192 55.4612 64.416C55.8452 64.64 56.1332 64.9813 56.3252 65.44C56.5172 65.888 56.6132 66.4587 56.6132 67.152V71.44C56.6132 71.6533 56.5545 71.8187 56.4372 71.936C56.3305 72.0533 56.1705 72.112 55.9572 72.112C55.7545 72.112 55.5945 72.0533 55.4772 71.936C55.3705 71.8187 55.3172 71.6533 55.3172 71.44V67.216C55.3172 66.5013 55.1945 65.9787 54.9492 65.648C54.7039 65.3067 54.2879 65.136 53.7012 65.136C53.0612 65.136 52.5545 65.36 52.1812 65.808C51.8185 66.2453 51.6372 66.8427 51.6372 67.6V71.44C51.6372 71.6533 51.5785 71.8187 51.4612 71.936C51.3545 72.0533 51.1945 72.112 50.9812 72.112C50.7785 72.112 50.6185 72.0533 50.5012 71.936C50.3945 71.8187 50.3412 71.6533 50.3412 71.44V67.216C50.3412 66.5013 50.2132 65.9787 49.9572 65.648C49.7119 65.3067 49.3012 65.136 48.7252 65.136C48.0852 65.136 47.5785 65.36 47.2052 65.808C46.8425 66.2453 46.6612 66.8427 46.6612 67.6V71.44C46.6612 71.888 46.4425 72.112 46.0052 72.112ZM59.6763 72.112C59.463 72.112 59.303 72.0533 59.1963 71.936C59.0896 71.8187 59.0363 71.6533 59.0363 71.44V61.264C59.0363 61.0507 59.0896 60.8907 59.1963 60.784C59.303 60.6667 59.463 60.608 59.6763 60.608C59.879 60.608 60.039 60.6667 60.1563 60.784C60.2736 60.8907 60.3323 61.0507 60.3323 61.264V67.68H60.3643L63.6443 64.544C63.7936 64.4053 63.9216 64.2987 64.0283 64.224C64.1456 64.1493 64.3003 64.112 64.4923 64.112C64.663 64.112 64.7963 64.16 64.8923 64.256C64.9883 64.3413 65.031 64.4533 65.0203 64.592C65.0203 64.72 64.9563 64.8587 64.8283 65.008L61.3403 68.32V67.616L65.1323 71.184C65.2816 71.3333 65.3563 71.4773 65.3563 71.616C65.3563 71.7547 65.303 71.872 65.1963 71.968C65.1003 72.064 64.9723 72.112 64.8123 72.112C64.6203 72.112 64.4656 72.0747 64.3483 72C64.231 71.9147 64.087 71.792 63.9163 71.632L60.3643 68.352H60.3323V71.44C60.3323 71.888 60.1136 72.112 59.6763 72.112ZM69.7932 72.144C69.0999 72.144 68.4919 71.9787 67.9692 71.648C67.4572 71.3173 67.0572 70.8533 66.7692 70.256C66.4919 69.648 66.3532 68.9333 66.3532 68.112C66.3532 67.28 66.4919 66.5653 66.7692 65.968C67.0572 65.36 67.4572 64.896 67.9692 64.576C68.4919 64.2453 69.0999 64.08 69.7932 64.08C70.4972 64.08 71.0999 64.256 71.6012 64.608C72.1025 64.96 72.4385 65.4347 72.6092 66.032H72.4332V61.264C72.4332 61.0507 72.4865 60.8907 72.5932 60.784C72.7105 60.6667 72.8759 60.608 73.0892 60.608C73.2919 60.608 73.4465 60.6667 73.5532 60.784C73.6705 60.8907 73.7292 61.0507 73.7292 61.264V71.44C73.7292 71.6533 73.6759 71.8187 73.5692 71.936C73.4625 72.0533 73.3025 72.112 73.0892 72.112C72.8865 72.112 72.7265 72.0533 72.6092 71.936C72.5025 71.8187 72.4492 71.6533 72.4492 71.44V69.92L72.6252 70.144C72.4545 70.752 72.1132 71.2373 71.6012 71.6C71.0999 71.9627 70.4972 72.144 69.7932 72.144ZM70.0652 71.104C70.5452 71.104 70.9665 70.9867 71.3292 70.752C71.6919 70.5173 71.9692 70.176 72.1612 69.728C72.3639 69.28 72.4652 68.7413 72.4652 68.112C72.4652 67.1413 72.2465 66.4 71.8092 65.888C71.3825 65.376 70.8012 65.12 70.0652 65.12C69.5745 65.12 69.1479 65.2373 68.7852 65.472C68.4332 65.696 68.1559 66.032 67.9532 66.48C67.7612 66.9173 67.6652 67.4613 67.6652 68.112C67.6652 69.072 67.8839 69.8133 68.3212 70.336C68.7585 70.848 69.3399 71.104 70.0652 71.104ZM76.8013 72.08C76.588 72.08 76.428 72.0213 76.3213 71.904C76.2146 71.776 76.1613 71.6 76.1613 71.376V64.832C76.1613 64.608 76.2146 64.4373 76.3213 64.32C76.428 64.2027 76.588 64.144 76.8013 64.144C77.004 64.144 77.164 64.2027 77.2813 64.32C77.3986 64.4373 77.4573 64.608 77.4573 64.832V71.376C77.4573 71.6 77.3986 71.776 77.2813 71.904C77.1746 72.0213 77.0146 72.08 76.8013 72.08ZM76.8013 62.352C76.5346 62.352 76.3266 62.2827 76.1773 62.144C76.028 61.9947 75.9533 61.7973 75.9533 61.552C75.9533 61.296 76.028 61.104 76.1773 60.976C76.3266 60.8373 76.5346 60.768 76.8013 60.768C77.0786 60.768 77.2866 60.8373 77.4253 60.976C77.5746 61.104 77.6493 61.296 77.6493 61.552C77.6493 61.7973 77.5746 61.9947 77.4253 62.144C77.2866 62.2827 77.0786 62.352 76.8013 62.352ZM82.5041 72.144C82.0241 72.144 81.5387 72.0853 81.0481 71.968C80.5681 71.8507 80.1201 71.648 79.7041 71.36C79.5974 71.2853 79.5227 71.2 79.4801 71.104C79.4374 70.9973 79.4214 70.896 79.4321 70.8C79.4534 70.6933 79.4961 70.6027 79.5601 70.528C79.6347 70.4533 79.7201 70.4107 79.8161 70.4C79.9227 70.3787 80.0401 70.4 80.1681 70.464C80.5841 70.72 80.9841 70.9013 81.3681 71.008C81.7627 71.104 82.1521 71.152 82.5361 71.152C83.1441 71.152 83.6027 71.04 83.9121 70.816C84.2214 70.592 84.3761 70.288 84.3761 69.904C84.3761 69.6053 84.2747 69.3707 84.0721 69.2C83.8694 69.0187 83.5494 68.88 83.1121 68.784L81.6561 68.464C80.9841 68.3253 80.4827 68.0853 80.1521 67.744C79.8321 67.4027 79.6721 66.96 79.6721 66.416C79.6721 65.936 79.7947 65.5253 80.0401 65.184C80.2961 64.832 80.6534 64.56 81.1121 64.368C81.5707 64.176 82.1041 64.08 82.7121 64.08C83.1814 64.08 83.6241 64.144 84.0401 64.272C84.4667 64.3893 84.8507 64.5813 85.1921 64.848C85.2987 64.9227 85.3681 65.0133 85.4001 65.12C85.4427 65.216 85.4481 65.3173 85.4161 65.424C85.3947 65.52 85.3467 65.6053 85.2721 65.68C85.1974 65.744 85.1067 65.7813 85.0001 65.792C84.8934 65.8027 84.7814 65.7707 84.6641 65.696C84.3441 65.4827 84.0187 65.328 83.6881 65.232C83.3574 65.1253 83.0321 65.072 82.7121 65.072C82.1147 65.072 81.6614 65.1893 81.3521 65.424C81.0427 65.6587 80.8881 65.968 80.8881 66.352C80.8881 66.6507 80.9841 66.896 81.1761 67.088C81.3681 67.28 81.6667 67.4187 82.0721 67.504L83.5281 67.808C84.2214 67.9573 84.7387 68.1973 85.0801 68.528C85.4321 68.848 85.6081 69.2853 85.6081 69.84C85.6081 70.544 85.3254 71.104 84.7601 71.52C84.1947 71.936 83.4427 72.144 82.5041 72.144ZM90.6251 72.144C90.0171 72.144 89.5051 72.0373 89.0891 71.824C88.6837 71.6 88.3797 71.28 88.1771 70.864C87.9744 70.4373 87.8731 69.92 87.8731 69.312V65.232H86.8011C86.6197 65.232 86.4811 65.1893 86.3851 65.104C86.2891 65.008 86.2411 64.88 86.2411 64.72C86.2411 64.56 86.2891 64.4373 86.3851 64.352C86.4811 64.2667 86.6197 64.224 86.8011 64.224H87.8731V62.384C87.8731 62.1707 87.9317 62.0107 88.0491 61.904C88.1664 61.7867 88.3264 61.728 88.5291 61.728C88.7317 61.728 88.8864 61.7867 88.9931 61.904C89.1104 62.0107 89.1691 62.1707 89.1691 62.384V64.224H91.1851C91.3664 64.224 91.5051 64.2667 91.6011 64.352C91.6971 64.4373 91.7451 64.56 91.7451 64.72C91.7451 64.88 91.6971 65.008 91.6011 65.104C91.5051 65.1893 91.3664 65.232 91.1851 65.232H89.1691V69.184C89.1691 69.792 89.2971 70.256 89.5531 70.576C89.8091 70.8853 90.2251 71.04 90.8011 71.04C91.0037 71.04 91.1744 71.0187 91.3131 70.976C91.4624 70.9333 91.5851 70.912 91.6811 70.912C91.7771 70.9013 91.8571 70.9333 91.9211 71.008C91.9851 71.0827 92.0171 71.2107 92.0171 71.392C92.0171 71.52 91.9904 71.6373 91.9371 71.744C91.8944 71.8507 91.8144 71.9253 91.6971 71.968C91.5691 72.0107 91.3984 72.048 91.1851 72.08C90.9824 72.1227 90.7957 72.144 90.6251 72.144Z" fill="#111827"/>
<g clip-path="url(#clip0_232_5649)">
<mask id="mask0_232_5649" style="mask-type:luminance" maskUnits="userSpaceOnUse" x="54" y="26" width="28" height="28">
<path d="M82 26H54V54H82V26Z" fill="white"/>
</mask>
<g mask="url(#mask0_232_5649)">
<path d="M81.9249 54.0194C72.617 54.0194 63.3193 54.0194 54.0216 54.0194C54.0208 54.0169 54.0194 54.0144 54.0194 54.0119C54.0193 44.6819 54.0193 35.3519 54.0193 26.0206C63.3518 26.0206 72.6842 26.0206 82.018 26.0206C82.018 35.3517 82.018 44.684 82.018 54.0194C81.9913 54.0194 81.9632 54.0194 81.9249 54.0194ZM77.1106 44.3176C77.0659 44.2666 77.0236 44.2133 76.9762 44.165C76.4504 43.6304 75.7884 43.519 75.0836 43.5826C74.4722 43.6379 73.9486 43.907 73.496 44.3176C73.4715 44.3397 73.4448 44.3594 73.4096 44.3881C73.4096 44.3309 73.4119 44.2891 73.4092 44.2477C73.396 44.0446 73.3006 43.8906 73.1199 43.798C72.9428 43.7074 72.7618 43.716 72.5948 43.8227C72.409 43.9414 72.3456 44.1238 72.3458 44.3381C72.3472 45.944 72.3466 47.5499 72.3466 49.1558C72.3466 49.256 72.3446 49.3562 72.347 49.4564C72.3532 49.7142 72.4899 49.9184 72.6974 49.9837C73.0616 50.0984 73.409 49.8459 73.4095 49.4618C73.4109 48.36 73.4106 47.2581 73.4096 46.1563C73.4093 45.846 73.4878 45.5614 73.6857 45.3192C74.1469 44.7547 74.7441 44.5163 75.4665 44.5986C75.8184 44.6387 76.1027 44.802 76.2977 45.1035C76.4807 45.3865 76.5434 45.706 76.5459 46.0349C76.5528 46.9428 76.5502 47.8507 76.5511 48.7586C76.5514 49.0074 76.5473 49.2563 76.5521 49.505C76.5597 49.8941 76.9779 50.1349 77.3203 49.95C77.5381 49.8325 77.6154 49.6403 77.6152 49.403C77.6138 48.3722 77.6168 47.3414 77.6129 46.3107C77.612 46.0659 77.6038 45.8196 77.5753 45.5768C77.5226 45.1264 77.3976 44.6984 77.1106 44.3176ZM70.4079 43.7421C70.3439 43.7466 70.2773 43.7413 70.2164 43.7575C69.9628 43.825 69.823 44.0266 69.8229 44.3194C69.8222 45.3696 69.8244 46.4198 69.8209 47.47C69.8203 47.6436 69.8112 47.8199 69.7806 47.9904C69.6997 48.4402 69.4584 48.7772 69.0256 48.9479C68.6039 49.1142 68.1697 49.12 67.7331 49.0015C67.4019 48.9116 67.148 48.7216 66.9821 48.4196C66.8632 48.2032 66.8054 47.9672 66.801 47.7232C66.7924 47.2289 66.7953 46.7344 66.7948 46.24C66.794 45.6002 66.7956 44.9604 66.7941 44.3206C66.7934 44.0055 66.5841 43.758 66.3103 43.742C65.9712 43.7222 65.732 43.9532 65.7316 44.3068C65.7305 45.386 65.7291 46.4653 65.7324 47.5446C65.7336 47.9304 65.775 48.311 65.922 48.6742C66.2006 49.3633 66.7206 49.7792 67.4184 49.9817C67.8575 50.1091 68.3099 50.1168 68.7631 50.0635C69.1133 50.0223 69.448 49.9267 69.753 49.7495C70.4732 49.331 70.8396 48.6802 70.8628 47.8675C70.8969 46.6761 70.883 45.4832 70.8843 44.291C70.8846 43.9918 70.7087 43.7933 70.4079 43.7421Z" fill="#ECDC5A"/>
<path d="M77.1144 44.3233C77.3976 44.6984 77.5226 45.1264 77.5753 45.5767C77.6038 45.8196 77.612 46.0659 77.613 46.3107C77.6169 47.3414 77.6139 48.3722 77.6152 49.4029C77.6155 49.6403 77.5381 49.8325 77.3203 49.95C76.9779 50.1348 76.5597 49.894 76.5522 49.505C76.5473 49.2563 76.5514 49.0074 76.5512 48.7586C76.5502 47.8507 76.5528 46.9427 76.5459 46.0348C76.5434 45.7059 76.4808 45.3865 76.2977 45.1035C76.1027 44.8019 75.8184 44.6386 75.4665 44.5986C74.7441 44.5162 74.1469 44.7546 73.6857 45.3191C73.4878 45.5614 73.4093 45.8459 73.4096 46.1562C73.4106 47.2581 73.4109 48.3599 73.4095 49.4618C73.409 49.8458 73.0616 50.0983 72.6975 49.9837C72.4899 49.9183 72.3532 49.7141 72.347 49.4563C72.3446 49.3562 72.3466 49.256 72.3466 49.1558C72.3466 47.5499 72.3472 45.944 72.3458 44.3381C72.3457 44.1237 72.4091 43.9413 72.5948 43.8227C72.7618 43.716 72.9429 43.7073 73.1199 43.798C73.3006 43.8906 73.396 44.0445 73.4092 44.2476C73.4119 44.2891 73.4096 44.3308 73.4096 44.388C73.4448 44.3594 73.4715 44.3397 73.496 44.3175C73.9486 43.9069 74.4723 43.6378 75.0836 43.5826C75.7884 43.519 76.4505 43.6304 76.9762 44.165C77.0236 44.2132 77.0659 44.2666 77.1144 44.3233Z" fill="#111827"/>
<path d="M70.4165 43.7425C70.7087 43.7933 70.8847 43.9918 70.8843 44.291C70.883 45.4833 70.8969 46.6761 70.8629 47.8675C70.8396 48.6802 70.4732 49.3309 69.753 49.7495C69.4481 49.9267 69.1133 50.0223 68.7631 50.0635C68.3099 50.1168 67.8575 50.1091 67.4184 49.9817C66.7207 49.7792 66.2006 49.3633 65.922 48.6742C65.7751 48.311 65.7336 47.9305 65.7324 47.5446C65.7291 46.4653 65.7305 45.386 65.7317 44.3068C65.7321 43.9532 65.9712 43.7222 66.3103 43.742C66.5841 43.7581 66.7934 44.0055 66.7941 44.3206C66.7956 44.9604 66.7941 45.6002 66.7948 46.24C66.7953 46.7344 66.7924 47.2289 66.8011 47.7232C66.8054 47.9672 66.8633 48.2032 66.9821 48.4196C67.148 48.7216 67.4019 48.9116 67.7331 49.0015C68.1697 49.12 68.6039 49.1143 69.0256 48.9479C69.4585 48.7772 69.6997 48.4402 69.7806 47.9904C69.8112 47.8199 69.8203 47.6437 69.8209 47.47C69.8244 46.4198 69.8223 45.3696 69.8229 44.3194C69.8231 44.0266 69.9629 43.8249 70.2165 43.7575C70.2773 43.7413 70.3439 43.7467 70.4165 43.7425Z" fill="#111827"/>
</g>
</g>
<defs>
<clipPath id="clip0_232_5649">
<rect width="28" height="28" fill="white" transform="translate(54 26)"/>
</clipPath>
</defs>
</svg>
