<svg width="118" height="118" viewBox="0 0 118 118" fill="none" xmlns="http://www.w3.org/2000/svg">
<mask id="path-1-inside-1_232_5643" fill="white">
<path fill-rule="evenodd" clip-rule="evenodd" d="M68 0C77.6056 0 85.4538 7.52403 85.9727 17C86.0029 17.5515 86.4477 18 87 18L114 18C116.209 18 118 19.7909 118 22L118 49C118 49.5523 117.552 49.9971 117 50.0273C107.524 50.5462 100 58.3944 100 68C100 77.6056 107.524 85.4538 117 85.9727C117.552 86.0029 118 86.4477 118 87L118 114C118 116.209 116.209 118 114 118L87 118C86.4477 118 86.0029 117.552 85.9727 117C85.4538 107.524 77.6056 100 68 100C58.3944 100 50.5462 107.524 50.0273 117C49.9971 117.552 49.5523 118 49 118L22 118C19.7909 118 18 116.209 18 114L18 87C18 86.4477 17.5515 86.0029 17 85.9727C7.52403 85.4538 0 77.6056 0 68C0 58.3944 7.52403 50.5462 17 50.0273C17.5515 49.9971 18 49.5523 18 49L18 22C18 19.7909 19.7909 18 22 18L49 18C49.5523 18 49.9971 17.5515 50.0273 17C50.5462 7.52403 58.3944 0 68 0Z"/>
</mask>
<path fill-rule="evenodd" clip-rule="evenodd" d="M68 0C77.6056 0 85.4538 7.52403 85.9727 17C86.0029 17.5515 86.4477 18 87 18L114 18C116.209 18 118 19.7909 118 22L118 49C118 49.5523 117.552 49.9971 117 50.0273C107.524 50.5462 100 58.3944 100 68C100 77.6056 107.524 85.4538 117 85.9727C117.552 86.0029 118 86.4477 118 87L118 114C118 116.209 116.209 118 114 118L87 118C86.4477 118 86.0029 117.552 85.9727 117C85.4538 107.524 77.6056 100 68 100C58.3944 100 50.5462 107.524 50.0273 117C49.9971 117.552 49.5523 118 49 118L22 118C19.7909 118 18 116.209 18 114L18 87C18 86.4477 17.5515 86.0029 17 85.9727C7.52403 85.4538 0 77.6056 0 68C0 58.3944 7.52403 50.5462 17 50.0273C17.5515 49.9971 18 49.5523 18 49L18 22C18 19.7909 19.7909 18 22 18L49 18C49.5523 18 49.9971 17.5515 50.0273 17C50.5462 7.52403 58.3944 0 68 0Z" fill="white"/>
<path d="M114 18L114 17L114 17L114 18ZM18 114L17 114V114H18ZM18 22L17 22L17 22L18 22ZM22 18L22 17H22V18ZM49 18L49 19L49 18ZM50.0273 17L49.0288 16.9454L50.0273 17ZM17 50.0273L16.9454 49.0288L17 50.0273ZM18 49L17 49L18 49ZM18 87L17 87L18 87ZM17 85.9727L16.9454 86.9712L17 85.9727ZM85.9727 17L86.9712 16.9454L85.9727 17ZM87 18L87 17L87 18ZM50.0273 117L49.0288 116.945L50.0273 117ZM117 85.9727L117.055 84.9742L117 85.9727ZM85.9727 117L86.9712 116.945L85.9727 117ZM117 50.0273L116.945 49.0288L117 50.0273ZM86.9712 16.9454C86.4235 6.94204 78.1396 -1 68 -1V1C77.0716 1 84.4842 8.10603 84.9742 17.0547L86.9712 16.9454ZM114 17L87 17L87 19L114 19L114 17ZM119 22C119 19.2386 116.761 17 114 17V19C115.657 19 117 20.3431 117 22H119ZM119 49L119 22H117L117 49H119ZM101 68C101 58.9284 108.106 51.5158 117.055 51.0258L116.945 49.0288C106.942 49.5765 99 57.8604 99 68H101ZM117.055 84.9742C108.106 84.4842 101 77.0716 101 68H99C99 78.1396 106.942 86.4235 116.945 86.9712L117.055 84.9742ZM119 114L119 87H117L117 114H119ZM114 119C116.761 119 119 116.761 119 114H117C117 115.657 115.657 117 114 117V119ZM87 119L114 119V117L87 117V119ZM68 101C77.0716 101 84.4842 108.106 84.9742 117.055L86.9712 116.945C86.4235 106.942 78.1396 99 68 99V101ZM51.0258 117.055C51.5158 108.106 58.9284 101 68 101V99C57.8604 99 49.5765 106.942 49.0288 116.945L51.0258 117.055ZM22 119L49 119V117L22 117L22 119ZM17 114C17 116.761 19.2386 119 22 119L22 117C20.3431 117 19 115.657 19 114H17ZM17 87L17 114L19 114L19 87L17 87ZM17.0547 84.9742C8.10603 84.4842 1 77.0716 1 68H-1C-1 78.1396 6.94204 86.4235 16.9454 86.9712L17.0547 84.9742ZM1 68C1 58.9284 8.10603 51.5158 17.0547 51.0258L16.9454 49.0288C6.94204 49.5765 -1 57.8604 -1 68H1ZM17 22L17 49L19 49L19 22L17 22ZM22 17C19.2386 17 17 19.2386 17 22H19C19 20.3431 20.3431 19 22 19V17ZM49 17L22 17L22 19L49 19L49 17ZM68 -1C57.8604 -1 49.5765 6.94204 49.0288 16.9454L51.0258 17.0547C51.5158 8.10603 58.9284 1 68 1V-1ZM49 19C50.1183 19 50.9685 18.1008 51.0258 17.0547L49.0288 16.9454C49.0276 16.9666 49.0187 16.9836 49.0081 16.994C49.0033 16.9987 49.0001 17.0002 48.9999 17.0002C48.9998 17.0003 49.0001 17.0001 49.0006 17C49.0012 16.9999 49.0012 17 49 17L49 19ZM17.0547 51.0258C18.1008 50.9685 19 50.1183 19 49L17 49C17 49.0012 16.9999 49.0012 17 49.0006C17.0001 49.0001 17.0003 48.9998 17.0002 48.9999C17.0002 49.0001 16.9987 49.0033 16.994 49.0081C16.9836 49.0187 16.9666 49.0276 16.9454 49.0288L17.0547 51.0258ZM19 87C19 85.8817 18.1008 85.0315 17.0547 84.9742L16.9454 86.9712C16.9667 86.9724 16.9836 86.9813 16.994 86.9919C16.9987 86.9967 17.0002 86.9999 17.0002 87.0001C17.0003 87.0002 17.0001 86.9999 17 86.9994C16.9999 86.9988 17 86.9988 17 87L19 87ZM84.9742 17.0547C85.0315 18.1008 85.8817 19 87 19L87 17C86.9988 17 86.9988 16.9999 86.9993 17C86.9999 17.0001 87.0002 17.0003 87.0001 17.0002C86.9999 17.0002 86.9967 16.9987 86.9919 16.994C86.9813 16.9836 86.9724 16.9667 86.9712 16.9454L84.9742 17.0547ZM49.0288 116.945C49.0276 116.967 49.0187 116.984 49.0081 116.994C49.0033 116.999 49.0001 117 48.9999 117C48.9998 117 49.0001 117 49.0007 117C49.0012 117 49.0012 117 49 117V119C50.1183 119 50.9685 118.101 51.0258 117.055L49.0288 116.945ZM116.945 86.9712C116.967 86.9724 116.984 86.9813 116.994 86.9919C116.999 86.9967 117 86.9999 117 87.0001C117 87.0002 117 86.9999 117 86.9993C117 86.9988 117 86.9988 117 87H119C119 85.8817 118.101 85.0315 117.055 84.9742L116.945 86.9712ZM87 117C86.9988 117 86.9988 117 86.9994 117C86.9999 117 87.0002 117 87.0001 117C86.9999 117 86.9967 116.999 86.9919 116.994C86.9813 116.984 86.9724 116.967 86.9712 116.945L84.9742 117.055C85.0315 118.101 85.8817 119 87 119V117ZM117 49C117 49.0012 117 49.0012 117 49.0006C117 49.0001 117 48.9998 117 48.9999C117 49.0001 116.999 49.0033 116.994 49.0081C116.984 49.0187 116.967 49.0276 116.945 49.0288L117.055 51.0258C118.101 50.9685 119 50.1183 119 49H117Z" fill="#D1D5DB" fill-opacity="0.1" mask="url(#path-1-inside-1_232_5643)"/>
<path d="M54.2786 90.112C54.0653 90.112 53.9053 90.0533 53.7986 89.936C53.692 89.8187 53.6386 89.6533 53.6386 89.44V82.768C53.6386 82.5547 53.692 82.3947 53.7986 82.288C53.9053 82.1707 54.06 82.112 54.2626 82.112C54.4653 82.112 54.62 82.1707 54.7266 82.288C54.844 82.3947 54.9026 82.5547 54.9026 82.768V84.176L54.7266 83.952C54.9293 83.3547 55.2546 82.896 55.7026 82.576C56.1613 82.2453 56.7053 82.08 57.3346 82.08C57.996 82.08 58.5293 82.24 58.9346 82.56C59.3506 82.8693 59.628 83.3547 59.7666 84.016H59.5266C59.7186 83.4187 60.06 82.9493 60.5506 82.608C61.052 82.256 61.6333 82.08 62.2946 82.08C62.8813 82.08 63.3613 82.192 63.7346 82.416C64.1186 82.64 64.4066 82.9813 64.5986 83.44C64.7906 83.888 64.8866 84.4587 64.8866 85.152V89.44C64.8866 89.6533 64.828 89.8187 64.7106 89.936C64.604 90.0533 64.444 90.112 64.2306 90.112C64.028 90.112 63.868 90.0533 63.7506 89.936C63.644 89.8187 63.5906 89.6533 63.5906 89.44V85.216C63.5906 84.5013 63.468 83.9787 63.2226 83.648C62.9773 83.3067 62.5613 83.136 61.9746 83.136C61.3346 83.136 60.828 83.36 60.4546 83.808C60.092 84.2453 59.9106 84.8427 59.9106 85.6V89.44C59.9106 89.6533 59.852 89.8187 59.7346 89.936C59.628 90.0533 59.468 90.112 59.2546 90.112C59.052 90.112 58.892 90.0533 58.7746 89.936C58.668 89.8187 58.6146 89.6533 58.6146 89.44V85.216C58.6146 84.5013 58.4866 83.9787 58.2306 83.648C57.9853 83.3067 57.5746 83.136 56.9986 83.136C56.3586 83.136 55.852 83.36 55.4786 83.808C55.116 84.2453 54.9346 84.8427 54.9346 85.6V89.44C54.9346 89.888 54.716 90.112 54.2786 90.112ZM69.6778 90.144C68.9098 90.144 68.3231 89.9093 67.9178 89.44C67.5124 88.9707 67.3098 88.2987 67.3098 87.424V79.264C67.3098 79.0507 67.3631 78.8907 67.4698 78.784C67.5764 78.6667 67.7364 78.608 67.9498 78.608C68.1524 78.608 68.3124 78.6667 68.4298 78.784C68.5471 78.8907 68.6058 79.0507 68.6058 79.264V87.328C68.6058 87.904 68.7178 88.336 68.9418 88.624C69.1764 88.9013 69.5178 89.04 69.9658 89.04C70.0618 89.04 70.1471 89.0347 70.2218 89.024C70.2964 89.0133 70.3711 89.008 70.4458 89.008C70.5631 88.9973 70.6431 89.024 70.6858 89.088C70.7391 89.152 70.7658 89.28 70.7658 89.472C70.7658 89.664 70.7231 89.808 70.6378 89.904C70.5524 90 70.4138 90.064 70.2218 90.096C70.1364 90.1067 70.0458 90.1173 69.9498 90.128C69.8538 90.1387 69.7631 90.144 69.6778 90.144ZM74.4121 90.144C73.6441 90.144 73.0575 89.9093 72.6521 89.44C72.2468 88.9707 72.0441 88.2987 72.0441 87.424V79.264C72.0441 79.0507 72.0975 78.8907 72.2041 78.784C72.3108 78.6667 72.4708 78.608 72.6841 78.608C72.8868 78.608 73.0468 78.6667 73.1641 78.784C73.2815 78.8907 73.3401 79.0507 73.3401 79.264V87.328C73.3401 87.904 73.4521 88.336 73.6761 88.624C73.9108 88.9013 74.2521 89.04 74.7001 89.04C74.7961 89.04 74.8815 89.0347 74.9561 89.024C75.0308 89.0133 75.1055 89.008 75.1801 89.008C75.2975 88.9973 75.3775 89.024 75.4201 89.088C75.4735 89.152 75.5001 89.28 75.5001 89.472C75.5001 89.664 75.4575 89.808 75.3721 89.904C75.2868 90 75.1481 90.064 74.9561 90.096C74.8708 90.1067 74.7801 90.1173 74.6841 90.128C74.5881 90.1387 74.4975 90.144 74.4121 90.144ZM78.3346 92.992C78.1746 92.992 78.0466 92.9493 77.9506 92.864C77.8546 92.7787 77.796 92.6613 77.7746 92.512C77.764 92.3733 77.7906 92.2293 77.8546 92.08L78.9586 89.6V90.16L75.8866 83.024C75.8226 82.864 75.8013 82.7147 75.8226 82.576C75.844 82.4373 75.908 82.3253 76.0146 82.24C76.1213 82.1547 76.2706 82.112 76.4626 82.112C76.6333 82.112 76.7666 82.1493 76.8626 82.224C76.9586 82.2987 77.044 82.432 77.1186 82.624L79.7426 89.056H79.3106L81.9666 82.624C82.052 82.432 82.1426 82.2987 82.2386 82.224C82.3346 82.1493 82.4733 82.112 82.6546 82.112C82.8253 82.112 82.9533 82.1547 83.0386 82.24C83.1346 82.3253 83.188 82.4373 83.1986 82.576C83.22 82.704 83.1986 82.848 83.1346 83.008L79.0386 92.48C78.9533 92.672 78.8573 92.8053 78.7506 92.88C78.6546 92.9547 78.516 92.992 78.3346 92.992Z" fill="#111827"/>
<path d="M77.0147 62.5544C76.435 61.6531 73.5803 58.5709 72.9678 57.7747C72.3553 56.9784 70.7803 52.4372 69.2644 51.9844C67.7484 51.5294 66.2522 51.6475 64.6684 52.1156C63.0847 52.5837 61.6038 52.54 59.845 52.0412C58.0863 51.5425 56.2094 50.3656 56.2094 50.3656C55.3934 50.989 54.9734 52.7303 54.8859 55.1934C54.7984 57.6565 55.2622 58.9953 55.4241 59.4022C55.5859 59.809 56.8022 60.4106 58.1716 61.4694C58.2897 61.559 68.0109 68.2003 68.2166 68.2944C69.7019 68.9703 70.6469 67.6031 70.6469 67.6031C70.6469 67.6031 71.4344 68.0537 72.1956 67.6031C73.1253 67.0519 73.0159 66.3672 73.0159 66.3672C73.0159 66.3672 73.9172 66.5137 74.4619 66.1572C75.5009 65.4769 75.1663 64.6915 75.1663 64.6915C75.1663 64.6915 76.0938 64.989 76.6406 64.499C77.1875 64.009 77.5922 63.4556 77.0147 62.5544Z" fill="#FFCA28"/>
<path d="M66.775 66.3081C66.7619 66.2731 66.7487 66.2381 66.729 66.2031C66.3047 65.3828 65.4975 65.4156 65.4625 65.3872C65.4165 65.3522 65.4253 64.7397 65.375 64.5012C65.1081 63.2522 63.6644 63.285 63.6272 63.2587C63.5769 63.2259 63.8415 62.3728 63.0059 61.6531C62.8069 61.4803 62.505 61.4978 62.2425 61.5284C61.5053 61.6181 61.1684 61.9637 61.1159 61.9528C60.9912 61.9287 61.1312 61.0143 60.2256 60.9837C59.5672 60.9618 59.1362 61.2834 58.7731 61.7822C58.4012 62.294 58.1694 62.8125 58.5915 63.4184C59.1231 64.1818 59.705 63.9762 59.705 63.9762C59.705 63.9762 59.53 64.9103 60.0659 65.409C60.6019 65.9078 61.6825 65.8772 61.6825 65.8772C61.6825 65.8772 61.5928 66.9797 62.3715 67.5047C63.1503 68.0297 64.0844 67.5528 64.0844 67.5528C64.0844 67.5528 64.4475 68.4934 65.5084 68.3556C66.4381 68.2375 67.1272 67.2334 66.775 66.3081Z" fill="#FFCA28"/>
<path d="M77.1612 62.8388C77.1219 62.7775 77.0891 62.7272 77.0847 62.6528C77.0803 62.5697 74.8622 59.6275 73.9281 58.4441C74.1162 58.9844 74.3875 59.4985 74.7331 59.9557C75.2909 60.695 76.0741 61.3885 76.0894 62.3138C76.0959 62.7688 75.8947 63.2238 75.5512 63.5235C75.2078 63.8232 74.7309 63.9632 74.2803 63.8932C74.1359 63.8713 73.9281 63.8713 73.9106 64.0157C73.9041 64.0572 73.9216 64.0988 73.9347 64.1403C74.0791 64.5866 73.9019 65.1072 73.5366 65.4003C73.1712 65.6957 72.6506 65.7635 72.2066 65.6103C72.0906 65.571 71.9375 65.525 71.8653 65.6235C71.8084 65.7 71.8456 65.805 71.8719 65.8947C72.0097 66.3847 71.6837 66.9272 71.2156 67.1285C70.7497 67.3297 70.1919 67.2335 69.7544 66.9753C69.6581 66.9185 69.505 66.8682 69.4569 66.971C69.4416 67.0016 69.4459 67.0388 69.4481 67.0716C69.4656 67.4107 69.3059 67.7563 69.0347 67.9619C68.7634 68.1675 68.3894 68.2288 68.0656 68.1194L67.9847 68.1697C68.0809 68.2266 68.1619 68.2682 68.2144 68.2922C69.6997 68.9682 70.6447 67.601 70.6447 67.601C70.6447 67.601 71.4322 68.0516 72.1934 67.601C73.1231 67.0497 73.0137 66.365 73.0137 66.365C73.0137 66.365 73.915 66.5116 74.4597 66.155C75.4987 65.4747 75.1641 64.6894 75.1641 64.6894C75.1641 64.6894 76.0916 64.9869 76.6384 64.4969C76.7741 64.3766 76.9031 64.2497 77.0147 64.1075C77.2334 63.8275 77.345 63.495 77.2706 63.1407C77.2487 63.0357 77.2181 62.9285 77.1612 62.8388Z" fill="#FFB300"/>
<path d="M70.1044 67.1569C70.765 67.5681 71.0319 67.7475 71.0319 67.7475C70.7934 67.7759 70.2728 67.8744 69.0281 66.9119C68.6847 66.6472 67.3153 65.5884 67.9497 65.3281C68.4178 65.1356 69.1747 66.5794 70.1044 67.1569ZM72.9963 66.4525C72.585 66.4175 70.9706 65.479 69.7194 64.1884C69.5881 64.0528 69.4656 63.9369 69.3628 63.8384C69.2381 63.7181 69.2338 63.519 69.3541 63.3922C69.3828 63.3622 69.4171 63.3382 69.455 63.3216C69.493 63.3049 69.5339 63.2959 69.5754 63.2951C69.6168 63.2943 69.6581 63.3017 69.6967 63.3168C69.7353 63.332 69.7705 63.3546 69.8003 63.3834C69.9053 63.484 70.0278 63.6044 70.1634 63.74C70.4478 64.0222 71.1741 64.8381 72.6069 65.8225C72.9284 66.0434 73.3331 66.2665 73.705 66.3869C73.7466 66.4 73.4053 66.4875 72.9963 66.4525ZM74.6697 64.5319C73.7991 64.149 72.9503 63.3615 71.4891 61.4869C71.3819 61.349 71.3994 61.1522 71.535 61.0428C71.6706 60.9334 71.8697 60.9531 71.9791 61.0887C72.4472 61.6619 72.9284 62.2262 73.4447 62.7578C73.6481 62.9678 74.5953 63.7815 74.7156 63.8669C75.8509 64.6544 76.3169 64.7069 76.3169 64.7069C76.1834 64.7615 75.6672 64.9694 74.6697 64.5319ZM55.8834 59.9053C55.785 59.8331 55.8747 59.68 55.9841 59.7303C56.625 60.019 57.5263 60.4412 58.2088 60.789C58.8366 61.1084 59.2216 61.2987 59.2216 61.2987L58.5894 61.9134L55.8834 59.9053Z" fill="#D69513"/>
<path d="M80.9741 54.2266C80.6503 52.0719 80.2238 50.6062 79.9066 50.2519C79.5434 49.8494 78.92 50.65 77.6009 51.1181C76.2819 51.5862 73.9063 51.7634 73.9063 51.7634C73.9063 51.7634 69.7522 51.7547 68.2975 52.1616C67.1491 52.4831 65.7272 53.3931 64.5328 54.115C63.5791 54.6925 62.7194 55.0709 62.6472 55.4887C62.5794 55.8869 63.0213 56.7772 64.1194 56.8669C65.9022 57.0134 67.7878 55.8869 67.7878 55.8869C68.3981 55.5412 68.6256 55.4997 69.8441 55.4997C71.0625 55.4997 72.3181 56.4294 72.4078 56.5781C73.3178 58.0766 74.1359 58.8378 74.9716 59.8528C75.5819 60.5944 77.0169 62.5566 77.0169 62.5566C77.0169 62.5566 78.6291 60.6512 79.0403 60.2116C79.4516 59.7719 80.9763 58.6584 80.9763 58.6584C80.9763 58.6584 81.3131 56.4819 80.9741 54.2266Z" fill="#FFCA28"/>
<path d="M77.0803 60.8262C76.9469 60.0256 76.5597 59.2403 76.7434 58.4549C76.7719 58.339 76.7981 58.2231 76.8113 58.1049C76.8725 57.4793 76.2819 57.7528 76.1944 57.7615C75.9691 57.7856 73.3791 57.6893 73.6678 57.9824L77.0147 62.5106C77.0147 62.5106 77.1459 62.469 77.1766 62.1453C77.2094 61.8171 77.0913 60.894 77.0803 60.8262Z" fill="#FFB300"/>
<path d="M74.9716 58.0328L72.2831 57.101C72.6375 57.451 72.9328 57.8294 73.2697 58.1772C74.2934 59.3694 75.84 61.395 76.9906 62.55C77.0387 62.5981 77.1153 62.5369 77.0803 62.48C76.4416 61.4716 74.8009 58.8663 74.7156 58.6103C74.5537 58.1138 74.9716 58.0328 74.9716 58.0328Z" fill="#D69513"/>
<path d="M70.0628 55.9525C71.0581 56.1297 71.3556 56.3681 72.1716 56.9915C74.1753 58.5184 76.0019 57.9387 76.2359 57.8665C77.5222 57.4881 75.1838 57.4881 74.8163 57.3459C71.8609 56.6547 71.6728 54.4934 68.0919 55.4712C66.8822 55.9131 64.9091 57.5034 63.3625 56.4031C63.1416 56.2456 62.7872 55.9284 62.8266 55.5762C62.9009 54.8937 64.7078 54.4847 65.4888 53.7825C66.5541 52.9578 67.8884 52.3234 69.1944 51.9865C68.5534 51.9143 67.825 52.0522 67.2934 52.225C65.8694 52.6909 64.8828 53.765 63.3669 54.3643C62.1134 54.8587 62.2206 55.2787 62.2228 55.5697C62.225 55.8606 62.4547 56.6218 63.1481 56.9959C65.7644 58.4025 67.6303 55.5172 70.0628 55.9525ZM66.9216 67.3734C66.8428 67.5703 66.5103 67.9093 66.3375 67.9662C66.3375 67.9662 66.8603 66.8243 66.5781 66.3103C66.4053 65.8772 65.8891 65.7175 65.4625 65.8137C64.7756 66.0347 64.3469 67.0847 64.2331 67.7322C64.2025 67.9006 64.0188 67.5965 64.045 67.2575C64.1347 66.1112 65.0141 65.6672 65.1103 64.6587C65.1716 64.0353 64.5744 63.5847 63.9619 63.7137C63.1634 63.8034 62.7938 64.569 62.4109 65.1903C62.2425 65.4878 61.9013 66.0565 61.8663 66.3956C61.8356 66.6909 61.7634 66.7522 61.6934 66.3847C61.3894 64.825 63.3494 63.4797 63.2291 62.6331C63.1022 61.7362 62.4438 61.5743 61.875 61.8347C61.0263 62.2262 60.195 63.6065 59.8734 64.2584C59.7816 64.3897 59.7094 64.7462 59.7094 64.7462C59.4031 63.9937 60.0616 62.994 60.3897 62.5193C60.5319 62.2787 60.8403 61.99 60.7113 61.6968C60.5122 61.2418 60.1731 61.2528 59.8975 61.3075C59.1866 61.4497 58.3859 62.4668 58.3859 62.4668C58.3597 62.2087 58.6813 61.6968 58.9306 61.4037C59.5519 60.6556 60.8906 60.52 61.3588 61.6597C62.6319 60.789 63.9838 61.3097 63.9334 62.9393C63.9838 63.0881 64.5416 62.9109 65.2175 63.4293C65.8956 63.9478 65.6856 65.1247 65.6856 65.1247C65.6856 65.1247 66.3638 65.1968 66.7378 65.6672C67.0834 66.1025 67.1381 66.9162 66.9216 67.3734ZM76.6909 61.8565C76.6909 61.8565 78.2922 60.2531 78.8675 59.8834C79.4428 59.5137 80.2828 59.0084 80.3113 59.1506C80.3397 59.2928 78.9725 60.2553 78.4584 60.859C77.9466 61.465 77.0847 62.4778 77.0847 62.4778L76.6909 61.8565Z" fill="#D69513"/>
</svg>
