<svg width="101" height="118" viewBox="0 0 101 118" fill="none" xmlns="http://www.w3.org/2000/svg">
<mask id="path-1-inside-1_685_11103" fill="white">
<path fill-rule="evenodd" clip-rule="evenodd" d="M69.5 0C68.9477 0 68.5029 0.448498 68.4727 0.999957C67.9538 10.476 60.1056 18 50.5 18C40.8944 18 33.0462 10.476 32.5273 0.999956C32.4971 0.448497 32.0523 0 31.5 0L4.5 0C2.29086 0 0.5 1.79086 0.5 4L0.5 31C0.5 31.5523 0.948498 31.9971 1.49996 32.0273C10.976 32.5462 18.5 40.3944 18.5 50C18.5 59.6056 10.976 67.4538 1.49996 67.9727C0.948497 68.0029 0.5 68.4477 0.5 69L0.5 96C0.5 98.2091 2.29086 100 4.5 100H31.5C32.0523 100 32.4971 100.448 32.5273 101C33.0462 110.476 40.8944 118 50.5 118C60.1056 118 67.9538 110.476 68.4727 101C68.5029 100.448 68.9477 100 69.5 100H96.5C98.7091 100 100.5 98.2091 100.5 96V69C100.5 68.4477 100.052 68.0029 99.5 67.9727C90.024 67.4538 82.5 59.6056 82.5 50C82.5 40.3944 90.024 32.5462 99.5 32.0273C100.052 31.9971 100.5 31.5523 100.5 31V4C100.5 1.79086 98.7091 0 96.5 0L69.5 0Z"/>
</mask>
<path fill-rule="evenodd" clip-rule="evenodd" d="M69.5 0C68.9477 0 68.5029 0.448498 68.4727 0.999957C67.9538 10.476 60.1056 18 50.5 18C40.8944 18 33.0462 10.476 32.5273 0.999956C32.4971 0.448497 32.0523 0 31.5 0L4.5 0C2.29086 0 0.5 1.79086 0.5 4L0.5 31C0.5 31.5523 0.948498 31.9971 1.49996 32.0273C10.976 32.5462 18.5 40.3944 18.5 50C18.5 59.6056 10.976 67.4538 1.49996 67.9727C0.948497 68.0029 0.5 68.4477 0.5 69L0.5 96C0.5 98.2091 2.29086 100 4.5 100H31.5C32.0523 100 32.4971 100.448 32.5273 101C33.0462 110.476 40.8944 118 50.5 118C60.1056 118 67.9538 110.476 68.4727 101C68.5029 100.448 68.9477 100 69.5 100H96.5C98.7091 100 100.5 98.2091 100.5 96V69C100.5 68.4477 100.052 68.0029 99.5 67.9727C90.024 67.4538 82.5 59.6056 82.5 50C82.5 40.3944 90.024 32.5462 99.5 32.0273C100.052 31.9971 100.5 31.5523 100.5 31V4C100.5 1.79086 98.7091 0 96.5 0L69.5 0Z" fill="#374151" fill-opacity="0.4"/>
<path d="M99.5 32.0273L99.4454 31.0288L99.5 32.0273ZM99.5 67.9727L99.4454 68.9712L99.5 67.9727ZM32.5273 101L33.5258 100.945L32.5273 101ZM1.49996 32.0273L1.44528 33.0258L1.49996 32.0273ZM32.5273 0.999956L31.5288 1.05463L32.5273 0.999956ZM68.4727 101L67.4742 100.945L68.4727 101ZM68.4727 0.999957L67.4742 0.945284L68.4727 0.999957ZM50.5 19C60.6396 19 68.9235 11.058 69.4712 1.05463L67.4742 0.945284C66.9842 9.89397 59.5716 17 50.5 17L50.5 19ZM31.5288 1.05463C32.0765 11.058 40.3604 19 50.5 19L50.5 17C41.4284 17 34.0158 9.89397 33.5258 0.945282L31.5288 1.05463ZM4.5 1L31.5 1V-1L4.5 -1V1ZM1.5 4C1.5 2.34315 2.84315 1 4.5 1V-1C1.73858 -1 -0.5 1.23858 -0.5 4H1.5ZM1.5 31L1.5 4H-0.5L-0.5 31H1.5ZM19.5 50C19.5 39.8604 11.558 31.5765 1.55463 31.0288L1.44528 33.0258C10.394 33.5158 17.5 40.9284 17.5 50L19.5 50ZM1.55463 68.9712C11.558 68.4235 19.5 60.1396 19.5 50L17.5 50C17.5 59.0716 10.394 66.4842 1.44528 66.9742L1.55463 68.9712ZM1.5 96L1.5 69H-0.5L-0.5 96H1.5ZM4.5 99C2.84315 99 1.5 97.6569 1.5 96H-0.5C-0.5 98.7614 1.73858 101 4.5 101V99ZM31.5 99H4.5V101H31.5L31.5 99ZM50.5 117C41.4284 117 34.0158 109.894 33.5258 100.945L31.5288 101.055C32.0765 111.058 40.3604 119 50.5 119V117ZM67.4742 100.945C66.9842 109.894 59.5716 117 50.5 117V119C60.6396 119 68.9235 111.058 69.4712 101.055L67.4742 100.945ZM96.5 99H69.5V101H96.5V99ZM99.5 96C99.5 97.6569 98.1569 99 96.5 99V101C99.2614 101 101.5 98.7614 101.5 96H99.5ZM99.5 69V96H101.5V69H99.5ZM81.5 50C81.5 60.1396 89.442 68.4235 99.4454 68.9712L99.5547 66.9742C90.606 66.4842 83.5 59.0716 83.5 50H81.5ZM99.4454 31.0288C89.442 31.5765 81.5 39.8604 81.5 50H83.5C83.5 40.9284 90.606 33.5158 99.5547 33.0258L99.4454 31.0288ZM99.5 4V31H101.5V4L99.5 4ZM96.5 1C98.1569 1 99.5 2.34315 99.5 4L101.5 4C101.5 1.23858 99.2614 -1 96.5 -1V1ZM69.5 1L96.5 1V-1L69.5 -1V1ZM99.5547 33.0258C100.601 32.9685 101.5 32.1183 101.5 31H99.5C99.5 31.0012 99.4999 31.0012 99.5 31.0007C99.5001 31.0001 99.5003 30.9998 99.5002 30.9999C99.5002 31.0001 99.4987 31.0033 99.494 31.0081C99.4836 31.0187 99.4667 31.0276 99.4454 31.0288L99.5547 33.0258ZM101.5 69C101.5 67.8817 100.601 67.0315 99.5547 66.9742L99.4454 68.9712C99.4666 68.9724 99.4836 68.9813 99.494 68.9919C99.4987 68.9967 99.5002 68.9999 99.5002 69.0001C99.5003 69.0002 99.5001 68.9999 99.5 68.9994C99.4999 68.9988 99.5 68.9988 99.5 69H101.5ZM31.5 101C31.5012 101 31.5012 101 31.5006 101C31.5001 101 31.4998 101 31.4999 101C31.5001 101 31.5033 101.001 31.5081 101.006C31.5187 101.016 31.5276 101.033 31.5288 101.055L33.5258 100.945C33.4685 99.8992 32.6183 99 31.5 99L31.5 101ZM-0.5 31C-0.5 32.1183 0.399214 32.9685 1.44528 33.0258L1.55463 31.0288C1.53335 31.0276 1.5164 31.0187 1.506 31.0081C1.50127 31.0033 1.49985 31.0001 1.49977 30.9999C1.49974 30.9998 1.49987 31.0001 1.49998 31.0006C1.5001 31.0012 1.5 31.0012 1.5 31H-0.5ZM1.44528 66.9742C0.399211 67.0315 -0.5 67.8817 -0.5 69H1.5C1.5 68.9988 1.5001 68.9988 1.49998 68.9993C1.49987 68.9999 1.49974 69.0002 1.49977 69.0001C1.49985 68.9999 1.50127 68.9967 1.506 68.9919C1.5164 68.9813 1.53335 68.9724 1.55463 68.9712L1.44528 66.9742ZM33.5258 0.945282C33.4685 -0.100789 32.6183 -1 31.5 -1V1C31.5012 1 31.5012 1.0001 31.5007 0.999977C31.5001 0.999868 31.4998 0.999738 31.4999 0.999766C31.5001 0.999846 31.5033 1.00127 31.5081 1.006C31.5187 1.0164 31.5276 1.03335 31.5288 1.05463L33.5258 0.945282ZM69.4712 101.055C69.4724 101.033 69.4813 101.016 69.4919 101.006C69.4967 101.001 69.4999 101 69.5001 101C69.5002 101 69.4999 101 69.4993 101C69.4988 101 69.4988 101 69.5 101V99C68.3817 99 67.5315 99.8992 67.4742 100.945L69.4712 101.055ZM69.4712 1.05463C69.4724 1.03335 69.4813 1.0164 69.4919 1.006C69.4967 1.00127 69.4999 0.999846 69.5001 0.999766C69.5002 0.999738 69.4999 0.999868 69.4994 0.999977C69.4988 1.0001 69.4988 1 69.5 1V-1C68.3817 -1 67.5315 -0.100786 67.4742 0.945284L69.4712 1.05463Z" fill="#374151" mask="url(#path-1-inside-1_685_11103)"/>
<path d="M31.1557 71.084C30.9957 71.084 30.8757 71.04 30.7957 70.952C30.7157 70.864 30.6757 70.74 30.6757 70.58V65.576C30.6757 65.416 30.7157 65.296 30.7957 65.216C30.8757 65.128 30.9917 65.084 31.1437 65.084C31.2957 65.084 31.4117 65.128 31.4917 65.216C31.5797 65.296 31.6237 65.416 31.6237 65.576V66.608L31.4917 66.464C31.6597 66 31.9317 65.652 32.3077 65.42C32.6917 65.18 33.1317 65.06 33.6277 65.06C34.0917 65.06 34.4757 65.144 34.7797 65.312C35.0917 65.48 35.3237 65.736 35.4757 66.08C35.6277 66.416 35.7037 66.844 35.7037 67.364V70.58C35.7037 70.74 35.6597 70.864 35.5717 70.952C35.4917 71.04 35.3757 71.084 35.2237 71.084C35.0637 71.084 34.9397 71.04 34.8517 70.952C34.7717 70.864 34.7317 70.74 34.7317 70.58V67.424C34.7317 66.88 34.6237 66.484 34.4077 66.236C34.1997 65.98 33.8637 65.852 33.3997 65.852C32.8637 65.852 32.4357 66.02 32.1157 66.356C31.8037 66.684 31.6477 67.124 31.6477 67.676V70.58C31.6477 70.916 31.4837 71.084 31.1557 71.084ZM39.332 71.108C38.932 71.108 38.572 71.032 38.252 70.88C37.94 70.72 37.692 70.504 37.508 70.232C37.324 69.96 37.232 69.656 37.232 69.32C37.232 68.888 37.34 68.548 37.556 68.3C37.78 68.052 38.144 67.876 38.648 67.772C39.16 67.668 39.856 67.616 40.736 67.616H41.276V68.252H40.748C40.1 68.252 39.588 68.284 39.212 68.348C38.844 68.404 38.584 68.504 38.432 68.648C38.288 68.792 38.216 68.996 38.216 69.26C38.216 69.588 38.328 69.856 38.552 70.064C38.784 70.272 39.096 70.376 39.488 70.376C39.808 70.376 40.088 70.3 40.328 70.148C40.576 69.996 40.768 69.788 40.904 69.524C41.048 69.26 41.12 68.956 41.12 68.612V67.244C41.12 66.748 41.02 66.392 40.82 66.176C40.62 65.952 40.292 65.84 39.836 65.84C39.556 65.84 39.276 65.876 38.996 65.948C38.716 66.02 38.42 66.136 38.108 66.296C37.996 66.352 37.9 66.372 37.82 66.356C37.74 66.332 37.676 66.288 37.628 66.224C37.58 66.16 37.552 66.088 37.544 66.008C37.536 65.92 37.552 65.836 37.592 65.756C37.64 65.676 37.712 65.612 37.808 65.564C38.16 65.388 38.508 65.26 38.852 65.18C39.196 65.1 39.524 65.06 39.836 65.06C40.34 65.06 40.756 65.144 41.084 65.312C41.412 65.472 41.656 65.72 41.816 66.056C41.976 66.384 42.056 66.808 42.056 67.328V70.58C42.056 70.74 42.016 70.864 41.936 70.952C41.864 71.04 41.756 71.084 41.612 71.084C41.46 71.084 41.344 71.04 41.264 70.952C41.184 70.864 41.144 70.74 41.144 70.58V69.644H41.252C41.188 69.948 41.064 70.208 40.88 70.424C40.704 70.64 40.484 70.808 40.22 70.928C39.956 71.048 39.66 71.108 39.332 71.108ZM44.3393 71.084C44.1793 71.084 44.0593 71.04 43.9793 70.952C43.8993 70.864 43.8593 70.74 43.8593 70.58V65.576C43.8593 65.416 43.8993 65.296 43.9793 65.216C44.0593 65.128 44.1753 65.084 44.3273 65.084C44.4793 65.084 44.5953 65.128 44.6753 65.216C44.7633 65.296 44.8073 65.416 44.8073 65.576V66.608L44.6753 66.464C44.8433 66 45.1153 65.652 45.4913 65.42C45.8753 65.18 46.3153 65.06 46.8113 65.06C47.2753 65.06 47.6593 65.144 47.9633 65.312C48.2753 65.48 48.5073 65.736 48.6593 66.08C48.8113 66.416 48.8873 66.844 48.8873 67.364V70.58C48.8873 70.74 48.8433 70.864 48.7553 70.952C48.6753 71.04 48.5593 71.084 48.4073 71.084C48.2473 71.084 48.1233 71.04 48.0353 70.952C47.9553 70.864 47.9153 70.74 47.9153 70.58V67.424C47.9153 66.88 47.8073 66.484 47.5913 66.236C47.3833 65.98 47.0473 65.852 46.5833 65.852C46.0473 65.852 45.6193 66.02 45.2993 66.356C44.9873 66.684 44.8313 67.124 44.8313 67.676V70.58C44.8313 70.916 44.6673 71.084 44.3393 71.084ZM53.1036 71.108C52.5356 71.108 52.0436 70.984 51.6276 70.736C51.2116 70.488 50.8876 70.14 50.6556 69.692C50.4316 69.236 50.3196 68.7 50.3196 68.084C50.3196 67.62 50.3836 67.204 50.5116 66.836C50.6396 66.46 50.8276 66.14 51.0756 65.876C51.3236 65.612 51.6156 65.412 51.9516 65.276C52.2956 65.132 52.6796 65.06 53.1036 65.06C53.6716 65.06 54.1636 65.184 54.5796 65.432C54.9956 65.68 55.3156 66.032 55.5396 66.488C55.7716 66.936 55.8876 67.468 55.8876 68.084C55.8876 68.548 55.8236 68.964 55.6956 69.332C55.5676 69.7 55.3796 70.02 55.1316 70.292C54.8836 70.556 54.5876 70.76 54.2436 70.904C53.9076 71.04 53.5276 71.108 53.1036 71.108ZM53.1036 70.328C53.4636 70.328 53.7796 70.24 54.0516 70.064C54.3236 69.888 54.5316 69.632 54.6756 69.296C54.8276 68.96 54.9036 68.556 54.9036 68.084C54.9036 67.356 54.7396 66.8 54.4116 66.416C54.0916 66.032 53.6556 65.84 53.1036 65.84C52.7356 65.84 52.4156 65.928 52.1436 66.104C51.8796 66.272 51.6716 66.524 51.5196 66.86C51.3756 67.188 51.3036 67.596 51.3036 68.084C51.3036 68.804 51.4676 69.36 51.7956 69.752C52.1236 70.136 52.5596 70.328 53.1036 70.328ZM59.629 71.108C59.173 71.108 58.789 71.028 58.477 70.868C58.173 70.7 57.945 70.46 57.793 70.148C57.641 69.828 57.565 69.44 57.565 68.984V65.924H56.761C56.625 65.924 56.521 65.892 56.449 65.828C56.377 65.756 56.341 65.66 56.341 65.54C56.341 65.42 56.377 65.328 56.449 65.264C56.521 65.2 56.625 65.168 56.761 65.168H57.565V63.788C57.565 63.628 57.609 63.508 57.697 63.428C57.785 63.34 57.905 63.296 58.057 63.296C58.209 63.296 58.325 63.34 58.405 63.428C58.493 63.508 58.537 63.628 58.537 63.788V65.168H60.049C60.185 65.168 60.289 65.2 60.361 65.264C60.433 65.328 60.469 65.42 60.469 65.54C60.469 65.66 60.433 65.756 60.361 65.828C60.289 65.892 60.185 65.924 60.049 65.924H58.537V68.888C58.537 69.344 58.633 69.692 58.825 69.932C59.017 70.164 59.329 70.28 59.761 70.28C59.913 70.28 60.041 70.264 60.145 70.232C60.257 70.2 60.349 70.184 60.421 70.184C60.493 70.176 60.553 70.2 60.601 70.256C60.649 70.312 60.673 70.408 60.673 70.544C60.673 70.64 60.653 70.728 60.613 70.808C60.581 70.888 60.521 70.944 60.433 70.976C60.337 71.008 60.209 71.036 60.049 71.06C59.897 71.092 59.757 71.108 59.629 71.108ZM63.3203 71.108C62.9203 71.108 62.5603 71.032 62.2403 70.88C61.9283 70.72 61.6803 70.504 61.4963 70.232C61.3123 69.96 61.2203 69.656 61.2203 69.32C61.2203 68.888 61.3283 68.548 61.5443 68.3C61.7683 68.052 62.1323 67.876 62.6363 67.772C63.1483 67.668 63.8443 67.616 64.7243 67.616H65.2643V68.252H64.7363C64.0883 68.252 63.5763 68.284 63.2003 68.348C62.8323 68.404 62.5723 68.504 62.4203 68.648C62.2763 68.792 62.2043 68.996 62.2043 69.26C62.2043 69.588 62.3163 69.856 62.5403 70.064C62.7723 70.272 63.0843 70.376 63.4763 70.376C63.7963 70.376 64.0763 70.3 64.3163 70.148C64.5643 69.996 64.7563 69.788 64.8923 69.524C65.0363 69.26 65.1083 68.956 65.1083 68.612V67.244C65.1083 66.748 65.0083 66.392 64.8083 66.176C64.6083 65.952 64.2803 65.84 63.8243 65.84C63.5443 65.84 63.2643 65.876 62.9843 65.948C62.7043 66.02 62.4083 66.136 62.0963 66.296C61.9843 66.352 61.8883 66.372 61.8083 66.356C61.7283 66.332 61.6643 66.288 61.6163 66.224C61.5683 66.16 61.5403 66.088 61.5323 66.008C61.5243 65.92 61.5403 65.836 61.5803 65.756C61.6283 65.676 61.7003 65.612 61.7963 65.564C62.1483 65.388 62.4963 65.26 62.8403 65.18C63.1843 65.1 63.5123 65.06 63.8243 65.06C64.3283 65.06 64.7443 65.144 65.0723 65.312C65.4003 65.472 65.6443 65.72 65.8043 66.056C65.9643 66.384 66.0443 66.808 66.0443 67.328V70.58C66.0443 70.74 66.0043 70.864 65.9243 70.952C65.8523 71.04 65.7443 71.084 65.6003 71.084C65.4483 71.084 65.3323 71.04 65.2523 70.952C65.1723 70.864 65.1323 70.74 65.1323 70.58V69.644H65.2403C65.1763 69.948 65.0523 70.208 64.8683 70.424C64.6923 70.64 64.4723 70.808 64.2083 70.928C63.9443 71.048 63.6483 71.108 63.3203 71.108ZM68.3395 71.084C68.1795 71.084 68.0555 71.04 67.9675 70.952C67.8875 70.864 67.8475 70.74 67.8475 70.58V65.576C67.8475 65.416 67.8875 65.296 67.9675 65.216C68.0475 65.128 68.1635 65.084 68.3155 65.084C68.4675 65.084 68.5835 65.128 68.6635 65.216C68.7515 65.296 68.7955 65.416 68.7955 65.576V66.548H68.6755C68.8035 66.076 69.0475 65.712 69.4075 65.456C69.7675 65.2 70.2115 65.064 70.7395 65.048C70.8595 65.04 70.9555 65.068 71.0275 65.132C71.0995 65.188 71.1395 65.288 71.1475 65.432C71.1555 65.568 71.1235 65.676 71.0515 65.756C70.9795 65.836 70.8675 65.884 70.7155 65.9L70.5235 65.924C69.9795 65.972 69.5595 66.148 69.2635 66.452C68.9755 66.748 68.8315 67.156 68.8315 67.676V70.58C68.8315 70.74 68.7875 70.864 68.6995 70.952C68.6195 71.04 68.4995 71.084 68.3395 71.084Z" fill="#F9FAFB"/>
<path d="M59.4381 40.439L60.0972 34.288L60.5321 34.3346L59.8732 40.4858L59.4381 40.439Z" fill="#504F4F"/>
<path d="M45.6525 44.7775C48.291 44.7775 50.43 42.6386 50.43 40C50.43 37.3615 48.291 35.2225 45.6525 35.2225C43.014 35.2225 40.875 37.3615 40.875 40C40.875 42.6386 43.014 44.7775 45.6525 44.7775Z" fill="#504F4F"/>
<path d="M45.6525 42.1875C46.8606 42.1875 47.84 41.2081 47.84 40C47.84 38.7919 46.8606 37.8125 45.6525 37.8125C44.4444 37.8125 43.465 38.7919 43.465 40C43.465 41.2081 44.4444 42.1875 45.6525 42.1875Z" fill="url(#paint0_radial_685_11103)"/>
<path opacity="0.2" d="M45.6525 43.9375C47.8271 43.9375 49.59 42.1746 49.59 40C49.59 37.8254 47.8271 36.0625 45.6525 36.0625C43.4779 36.0625 41.715 37.8254 41.715 40C41.715 42.1746 43.4779 43.9375 45.6525 43.9375Z" stroke="#EEEEEE" stroke-width="0.23525" stroke-miterlimit="10"/>
<path opacity="0.2" d="M45.6525 43.1981C47.4188 43.1981 48.8506 41.7663 48.8506 40C48.8506 38.2337 47.4188 36.8019 45.6525 36.8019C43.8862 36.8019 42.4544 38.2337 42.4544 40C42.4544 41.7663 43.8862 43.1981 45.6525 43.1981Z" stroke="#EEEEEE" stroke-width="0.25" stroke-miterlimit="10"/>
<path d="M56.1525 43.7515C58.2244 43.7515 59.9041 42.0719 59.9041 40C59.9041 37.928 58.2244 36.2484 56.1525 36.2484C54.0806 36.2484 52.4009 37.928 52.4009 40C52.4009 42.0719 54.0806 43.7515 56.1525 43.7515Z" fill="#504F4F"/>
<path d="M56.1525 42.1875C57.3606 42.1875 58.34 41.2081 58.34 40C58.34 38.7919 57.3606 37.8125 56.1525 37.8125C54.9444 37.8125 53.965 38.7919 53.965 40C53.965 41.2081 54.9444 42.1875 56.1525 42.1875Z" fill="url(#paint1_radial_685_11103)"/>
<path opacity="0.2" d="M56.1525 42.9597C57.7871 42.9597 59.1122 41.6346 59.1122 40C59.1122 38.3654 57.7871 37.0403 56.1525 37.0403C54.5179 37.0403 53.1928 38.3654 53.1928 40C53.1928 41.6346 54.5179 42.9597 56.1525 42.9597Z" stroke="#EEEEEE" stroke-width="0.25" stroke-miterlimit="10"/>
<path d="M37.375 33V47C37.375 47.4834 37.7666 47.875 38.25 47.875H62.75C63.2334 47.875 63.625 47.4834 63.625 47V33C63.625 32.5166 63.2334 32.125 62.75 32.125H38.25C37.7666 32.125 37.375 32.5166 37.375 33ZM45.25 43.0625C45.25 43.3031 45.0531 43.5 44.8125 43.5H40.875C40.3916 43.5 39.125 41.9338 39.125 40C39.125 38.0662 40.3916 36.5 40.875 36.5H44.8125C45.0531 36.5 45.25 36.6969 45.25 36.9375V43.0625ZM60.125 43.5H56.1875C55.9469 43.5 55.75 43.3031 55.75 43.0625V36.9375C55.75 36.6969 55.9469 36.5 56.1875 36.5H60.125C60.6084 36.5 61.875 38.0662 61.875 40C61.875 41.9338 60.6084 43.5 60.125 43.5Z" fill="#595858"/>
<path d="M39.0922 34.3453H61.8422V34.7828H39.0922V34.3453ZM39.0922 35.2203H61.8422V35.6578H39.0922V35.2203ZM39.125 45.25H61.875V45.6875H39.125V45.25ZM39.125 46.125H61.875V46.5625H39.125V46.125ZM39.125 44.375H61.875V44.8125H39.125V44.375Z" fill="#787676"/>
<path opacity="0.2" d="M54.4375 36.5C54.6781 36.5 54.875 36.6969 54.875 36.9375V43.0625C54.875 43.3031 54.6781 43.5 54.4375 43.5H46.5625C46.3219 43.5 46.125 43.3031 46.125 43.0625V36.9375C46.125 36.6969 46.3219 36.5 46.5625 36.5H54.4375ZM54.4375 36.0625H46.5625C46.0791 36.0625 45.6875 36.4541 45.6875 36.9375V43.0625C45.6875 43.5459 46.0791 43.9375 46.5625 43.9375H54.4375C54.9209 43.9375 55.3125 43.5459 55.3125 43.0625V36.9375C55.3125 36.4541 54.9209 36.0625 54.4375 36.0625Z" fill="#424242"/>
<path d="M54.875 36.9375C54.875 36.6969 54.6781 36.5 54.4375 36.5H46.5625C46.3219 36.5 46.125 36.6969 46.125 36.9375V38.25H54.875V36.9375Z" fill="url(#paint2_radial_685_11103)"/>
<path d="M46.125 38.25V43.0625C46.125 43.3031 46.3219 43.5 46.5625 43.5H54.4375C54.6781 43.5 54.875 43.3031 54.875 43.0625V38.25H46.125Z" fill="url(#paint3_radial_685_11103)"/>
<path d="M53.3438 40.4375H47.6562C47.5359 40.4375 47.4375 40.3391 47.4375 40.2188V39.7812C47.4375 39.6609 47.5359 39.5625 47.6562 39.5625H53.3438C53.4641 39.5625 53.5625 39.6609 53.5625 39.7812V40.2188C53.5625 40.3391 53.4641 40.4375 53.3438 40.4375ZM53.3438 42.1875H47.6562C47.5359 42.1875 47.4375 42.0891 47.4375 41.9688V41.5312C47.4375 41.4109 47.5359 41.3125 47.6562 41.3125H53.3438C53.4641 41.3125 53.5625 41.4109 53.5625 41.5312V41.9688C53.5625 42.0891 53.4641 42.1875 53.3438 42.1875Z" fill="#BDBDBD"/>
<path d="M50.5 32.125H38.2259C37.7556 32.125 37.375 32.5056 37.375 32.9759V35.6578H38.4097L38.4228 33.9078H62.6034L62.5903 35.6578H63.625V32.9737C63.625 32.5056 63.2444 32.125 62.7763 32.125H50.5Z" fill="#424242"/>
<defs>
<radialGradient id="paint0_radial_685_11103" cx="0" cy="0" r="1" gradientUnits="userSpaceOnUse" gradientTransform="translate(45.6516 37.5572) rotate(180) scale(4.68387)">
<stop stop-color="#EEEEEE"/>
<stop offset="1" stop-color="#BDBDBD"/>
</radialGradient>
<radialGradient id="paint1_radial_685_11103" cx="0" cy="0" r="1" gradientUnits="userSpaceOnUse" gradientTransform="translate(56.2245 37.6666) rotate(180) scale(4.59506)">
<stop stop-color="#EEEEEE"/>
<stop offset="1" stop-color="#BDBDBD"/>
</radialGradient>
<radialGradient id="paint2_radial_685_11103" cx="0" cy="0" r="1" gradientUnits="userSpaceOnUse" gradientTransform="translate(50.3906 36.6094) scale(4.77837)">
<stop stop-color="#EF5350"/>
<stop offset="1" stop-color="#E53935"/>
</radialGradient>
<radialGradient id="paint3_radial_685_11103" cx="0" cy="0" r="1" gradientUnits="userSpaceOnUse" gradientTransform="translate(50.3541 38.0678) scale(6.21338)">
<stop stop-color="#FAFAFA"/>
<stop offset="1" stop-color="#EEEEEE"/>
</radialGradient>
</defs>
</svg>
