<svg width="118" height="118" viewBox="0 0 118 118" fill="none" xmlns="http://www.w3.org/2000/svg">
<mask id="path-1-inside-1_232_5253" fill="white">
<path fill-rule="evenodd" clip-rule="evenodd" d="M69 18C68.4477 18 68.0029 17.5515 67.9727 17C67.4538 7.52403 59.6056 0 50 0C40.3944 0 32.5462 7.52403 32.0273 17C31.9971 17.5515 31.5523 18 31 18L4 18C1.79086 18 0 19.7909 0 22L1.83923e-06 49C1.87685e-06 49.5523 0.448499 49.9971 0.999957 50.0273C10.476 50.5462 18 58.3944 18 68C18 77.6056 10.476 85.4538 0.999959 85.9727C0.4485 86.0029 1.87685e-06 86.4477 1.83923e-06 87L0 114C0 116.209 1.79086 118 4 118H31C31.5523 118 31.9971 117.552 32.0273 117C32.5462 107.524 40.3944 100 50 100C59.6056 100 67.4538 107.524 67.9727 117C68.0029 117.552 68.4477 118 69 118H96C98.2091 118 100 116.209 100 114L100 87C100 86.4477 100.448 86.0029 101 85.9727C110.476 85.4538 118 77.6056 118 68C118 58.3944 110.476 50.5462 101 50.0273C100.448 49.9971 100 49.5523 100 49L100 22C100 19.7909 98.2091 18 96 18L69 18Z"/>
</mask>
<path fill-rule="evenodd" clip-rule="evenodd" d="M69 18C68.4477 18 68.0029 17.5515 67.9727 17C67.4538 7.52403 59.6056 0 50 0C40.3944 0 32.5462 7.52403 32.0273 17C31.9971 17.5515 31.5523 18 31 18L4 18C1.79086 18 0 19.7909 0 22L1.83923e-06 49C1.87685e-06 49.5523 0.448499 49.9971 0.999957 50.0273C10.476 50.5462 18 58.3944 18 68C18 77.6056 10.476 85.4538 0.999959 85.9727C0.4485 86.0029 1.87685e-06 86.4477 1.83923e-06 87L0 114C0 116.209 1.79086 118 4 118H31C31.5523 118 31.9971 117.552 32.0273 117C32.5462 107.524 40.3944 100 50 100C59.6056 100 67.4538 107.524 67.9727 117C68.0029 117.552 68.4477 118 69 118H96C98.2091 118 100 116.209 100 114L100 87C100 86.4477 100.448 86.0029 101 85.9727C110.476 85.4538 118 77.6056 118 68C118 58.3944 110.476 50.5462 101 50.0273C100.448 49.9971 100 49.5523 100 49L100 22C100 19.7909 98.2091 18 96 18L69 18Z" fill="white"/>
<path d="M4 18L4 17H4V18ZM0 22L-1 22L-1 22L0 22ZM0 114L-1 114V114H0ZM96 18L96 17L96 17L96 18ZM101 50.0273L101.055 49.0288L101 50.0273ZM101 85.9727L101.055 86.9712L101 85.9727ZM32.0273 117L31.0288 116.945L32.0273 117ZM0.999959 85.9727L0.945286 84.9742L0.999959 85.9727ZM32.0273 17L31.0288 16.9454L32.0273 17ZM67.9727 117L68.9712 116.945L67.9727 117ZM67.9727 17L68.9712 16.9454L67.9727 17ZM69 18L69 17L69 18ZM50 1C59.0716 1 66.4842 8.10603 66.9742 17.0547L68.9712 16.9454C68.4235 6.94204 60.1396 -1 50 -1V1ZM33.0258 17.0547C33.5158 8.10603 40.9284 1 50 1V-1C39.8604 -1 31.5765 6.94204 31.0288 16.9454L33.0258 17.0547ZM31 17L4 17L4 19L31 19L31 17ZM4 17C1.23858 17 -1 19.2386 -1 22H1C1 20.3431 2.34315 19 4 19V17ZM-1 22L-0.999998 49L1 49L1 22L-1 22ZM0.945284 51.0258C9.89398 51.5158 17 58.9284 17 68H19C19 57.8604 11.058 49.5765 1.05463 49.0288L0.945284 51.0258ZM17 68C17 77.0716 9.89398 84.4842 0.945286 84.9742L1.05463 86.9712C11.058 86.4235 19 78.1396 19 68H17ZM-0.999998 87L-1 114L1 114L1 87L-0.999998 87ZM-1 114C-1 116.761 1.23858 119 4 119L4 117C2.34315 117 1 115.657 1 114H-1ZM4 119H31V117H4L4 119ZM33.0258 117.055C33.5158 108.106 40.9284 101 50 101V99C39.8604 99 31.5765 106.942 31.0288 116.945L33.0258 117.055ZM50 101C59.0716 101 66.4842 108.106 66.9742 117.055L68.9712 116.945C68.4235 106.942 60.1396 99 50 99V101ZM69 119H96V117H69V119ZM96 119C98.7614 119 101 116.761 101 114H99C99 115.657 97.6569 117 96 117V119ZM101 114L101 87H99L99 114H101ZM101.055 86.9712C111.058 86.4235 119 78.1396 119 68H117C117 77.0716 109.894 84.4842 100.945 84.9742L101.055 86.9712ZM119 68C119 57.8604 111.058 49.5765 101.055 49.0288L100.945 51.0258C109.894 51.5158 117 58.9284 117 68H119ZM101 49L101 22H99L99 49H101ZM101 22C101 19.2386 98.7614 17 96 17V19C97.6569 19 99 20.3431 99 22H101ZM96 17L69 17L69 19L96 19L96 17ZM101.055 49.0288C101.033 49.0276 101.016 49.0187 101.006 49.0081C101.001 49.0033 101 49.0001 101 48.9999C101 48.9998 101 49.0001 101 49.0006C101 49.0012 101 49.0012 101 49H99C99 50.1183 99.8992 50.9685 100.945 51.0258L101.055 49.0288ZM101 87C101 86.9988 101 86.9988 101 86.9993C101 86.9999 101 87.0002 101 87.0001C101 86.9999 101.001 86.9967 101.006 86.9919C101.016 86.9813 101.033 86.9724 101.055 86.9712L100.945 84.9742C99.8992 85.0315 99 85.8817 99 87H101ZM31 119C32.1183 119 32.9685 118.101 33.0258 117.055L31.0288 116.945C31.0276 116.967 31.0187 116.984 31.0081 116.994C31.0033 116.999 31.0001 117 30.9999 117C30.9998 117 31.0001 117 31.0007 117C31.0012 117 31.0012 117 31 117V119ZM-0.999998 49C-0.999998 50.1183 -0.100787 50.9685 0.945284 51.0258L1.05463 49.0288C1.03335 49.0276 1.0164 49.0187 1.006 49.0081C1.00127 49.0033 0.999848 49.0001 0.999768 48.9999C0.99974 48.9998 0.99987 49.0001 0.999978 49.0007C1.0001 49.0012 1 49.0012 1 49L-0.999998 49ZM0.945286 84.9742C-0.100784 85.0315 -0.999998 85.8817 -0.999998 87L1 87C1 86.9988 1.0001 86.9988 0.999978 86.9994C0.99987 86.9999 0.99974 87.0002 0.999768 87.0001C0.999848 86.9999 1.00127 86.9967 1.006 86.9919C1.0164 86.9813 1.03335 86.9724 1.05463 86.9712L0.945286 84.9742ZM31.0288 16.9454C31.0276 16.9667 31.0187 16.9836 31.0081 16.994C31.0033 16.9987 31.0001 17.0002 30.9999 17.0002C30.9998 17.0003 31.0001 17.0001 31.0006 17C31.0012 16.9999 31.0012 17 31 17L31 19C32.1183 19 32.9685 18.1008 33.0258 17.0547L31.0288 16.9454ZM66.9742 117.055C67.0315 118.101 67.8817 119 69 119V117C68.9988 117 68.9988 117 68.9994 117C68.9999 117 69.0002 117 69.0001 117C68.9999 117 68.9967 116.999 68.9919 116.994C68.9813 116.984 68.9724 116.967 68.9712 116.945L66.9742 117.055ZM66.9742 17.0547C67.0315 18.1008 67.8817 19 69 19L69 17C68.9988 17 68.9988 16.9999 68.9994 17C68.9999 17.0001 69.0002 17.0003 69.0001 17.0002C68.9999 17.0002 68.9967 16.9987 68.9919 16.994C68.9813 16.9836 68.9724 16.9666 68.9712 16.9454L66.9742 17.0547Z" fill="#D1D5DB" fill-opacity="0.1" mask="url(#path-1-inside-1_232_5253)"/>
<path d="M35.3873 90.112C35.1739 90.112 35.0139 90.0533 34.9073 89.936C34.8006 89.8187 34.7473 89.6533 34.7473 89.44V82.768C34.7473 82.5547 34.8006 82.3947 34.9073 82.288C35.0139 82.1707 35.1686 82.112 35.3713 82.112C35.5739 82.112 35.7286 82.1707 35.8353 82.288C35.9526 82.3947 36.0113 82.5547 36.0113 82.768V84.144L35.8353 83.952C36.0593 83.3333 36.4219 82.8693 36.9233 82.56C37.4353 82.24 38.0219 82.08 38.6833 82.08C39.3019 82.08 39.8139 82.192 40.2193 82.416C40.6353 82.64 40.9446 82.9813 41.1473 83.44C41.3499 83.888 41.4513 84.4587 41.4513 85.152V89.44C41.4513 89.6533 41.3926 89.8187 41.2753 89.936C41.1686 90.0533 41.0139 90.112 40.8113 90.112C40.5979 90.112 40.4326 90.0533 40.3153 89.936C40.2086 89.8187 40.1553 89.6533 40.1553 89.44V85.232C40.1553 84.5067 40.0113 83.9787 39.7233 83.648C39.4459 83.3067 38.9979 83.136 38.3793 83.136C37.6646 83.136 37.0939 83.36 36.6673 83.808C36.2513 84.2453 36.0433 84.832 36.0433 85.568V89.44C36.0433 89.888 35.8246 90.112 35.3873 90.112ZM44.481 90.08C44.2677 90.08 44.1077 90.0213 44.001 89.904C43.8943 89.776 43.841 89.6 43.841 89.376V82.832C43.841 82.608 43.8943 82.4373 44.001 82.32C44.1077 82.2027 44.2677 82.144 44.481 82.144C44.6837 82.144 44.8437 82.2027 44.961 82.32C45.0783 82.4373 45.137 82.608 45.137 82.832V89.376C45.137 89.6 45.0783 89.776 44.961 89.904C44.8543 90.0213 44.6943 90.08 44.481 90.08ZM44.481 80.352C44.2143 80.352 44.0063 80.2827 43.857 80.144C43.7077 79.9947 43.633 79.7973 43.633 79.552C43.633 79.296 43.7077 79.104 43.857 78.976C44.0063 78.8373 44.2143 78.768 44.481 78.768C44.7583 78.768 44.9663 78.8373 45.105 78.976C45.2543 79.104 45.329 79.296 45.329 79.552C45.329 79.7973 45.2543 79.9947 45.105 80.144C44.9663 80.2827 44.7583 80.352 44.481 80.352ZM50.6798 90.144C50.0718 90.144 49.5598 90.0373 49.1438 89.824C48.7384 89.6 48.4344 89.28 48.2318 88.864C48.0291 88.4373 47.9278 87.92 47.9278 87.312V83.232H46.8558C46.6744 83.232 46.5358 83.1893 46.4398 83.104C46.3438 83.008 46.2957 82.88 46.2957 82.72C46.2957 82.56 46.3438 82.4373 46.4398 82.352C46.5358 82.2667 46.6744 82.224 46.8558 82.224H47.9278V80.384C47.9278 80.1707 47.9864 80.0107 48.1038 79.904C48.2211 79.7867 48.3811 79.728 48.5838 79.728C48.7864 79.728 48.9411 79.7867 49.0478 79.904C49.1651 80.0107 49.2238 80.1707 49.2238 80.384V82.224H51.2398C51.4211 82.224 51.5598 82.2667 51.6558 82.352C51.7518 82.4373 51.7998 82.56 51.7998 82.72C51.7998 82.88 51.7518 83.008 51.6558 83.104C51.5598 83.1893 51.4211 83.232 51.2398 83.232H49.2238V87.184C49.2238 87.792 49.3518 88.256 49.6078 88.576C49.8638 88.8853 50.2798 89.04 50.8558 89.04C51.0584 89.04 51.2291 89.0187 51.3678 88.976C51.5171 88.9333 51.6398 88.912 51.7358 88.912C51.8318 88.9013 51.9118 88.9333 51.9758 89.008C52.0398 89.0827 52.0718 89.2107 52.0718 89.392C52.0718 89.52 52.0451 89.6373 51.9918 89.744C51.9491 89.8507 51.8691 89.9253 51.7518 89.968C51.6238 90.0107 51.4531 90.048 51.2398 90.08C51.0371 90.1227 50.8504 90.144 50.6798 90.144ZM53.8095 90.112C53.5962 90.112 53.4308 90.0533 53.3135 89.936C53.2068 89.8187 53.1535 89.6533 53.1535 89.44V82.768C53.1535 82.5547 53.2068 82.3947 53.3135 82.288C53.4202 82.1707 53.5748 82.112 53.7775 82.112C53.9802 82.112 54.1348 82.1707 54.2415 82.288C54.3588 82.3947 54.4175 82.5547 54.4175 82.768V84.064H54.2575C54.4282 83.4347 54.7535 82.9493 55.2335 82.608C55.7135 82.2667 56.3055 82.0853 57.0095 82.064C57.1695 82.0533 57.2975 82.0907 57.3935 82.176C57.4895 82.2507 57.5428 82.384 57.5535 82.576C57.5642 82.7573 57.5215 82.9013 57.4255 83.008C57.3295 83.1147 57.1802 83.1787 56.9775 83.2L56.7215 83.232C55.9962 83.296 55.4362 83.5307 55.0415 83.936C54.6575 84.3307 54.4655 84.8747 54.4655 85.568V89.44C54.4655 89.6533 54.4068 89.8187 54.2895 89.936C54.1828 90.0533 54.0228 90.112 53.8095 90.112ZM62.0261 90.144C61.2688 90.144 60.6128 89.9787 60.0581 89.648C59.5035 89.3173 59.0715 88.8533 58.7621 88.256C58.4635 87.648 58.3141 86.9333 58.3141 86.112C58.3141 85.4933 58.3995 84.9387 58.5701 84.448C58.7408 83.9467 58.9915 83.52 59.3221 83.168C59.6528 82.816 60.0421 82.5493 60.4901 82.368C60.9488 82.176 61.4608 82.08 62.0261 82.08C62.7835 82.08 63.4395 82.2453 63.9941 82.576C64.5488 82.9067 64.9755 83.376 65.2741 83.984C65.5835 84.5813 65.7381 85.2907 65.7381 86.112C65.7381 86.7307 65.6528 87.2853 65.4821 87.776C65.3115 88.2667 65.0608 88.6933 64.7301 89.056C64.3995 89.408 64.0048 89.68 63.5461 89.872C63.0981 90.0533 62.5915 90.144 62.0261 90.144ZM62.0261 89.104C62.5061 89.104 62.9275 88.9867 63.2901 88.752C63.6528 88.5173 63.9301 88.176 64.1221 87.728C64.3248 87.28 64.4261 86.7413 64.4261 86.112C64.4261 85.1413 64.2075 84.4 63.7701 83.888C63.3435 83.376 62.7621 83.12 62.0261 83.12C61.5355 83.12 61.1088 83.2373 60.7461 83.472C60.3941 83.696 60.1168 84.032 59.9141 84.48C59.7221 84.9173 59.6261 85.4613 59.6261 86.112C59.6261 87.072 59.8448 87.8133 60.2821 88.336C60.7195 88.848 61.3008 89.104 62.0261 89.104Z" fill="#111827"/>
<g clip-path="url(#clip0_232_5253)">
<path fill-rule="evenodd" clip-rule="evenodd" d="M60.6518 48.9141C55.6336 43.0318 46.7971 42.3312 40.9147 47.3494C35.0324 52.3675 34.3318 61.2041 39.35 67.0864C44.3681 72.9687 53.2047 73.6693 59.087 68.6512C64.9694 63.633 65.67 54.7964 60.6518 48.9141ZM53.6769 56.2622C54.2165 56.2622 54.561 56.8469 54.2903 57.3136L54.2124 57.4478L48.9289 66.1406C48.8307 66.3021 48.6553 66.4007 48.4663 66.4007H47.962C47.6164 66.4007 47.3637 66.0744 47.4503 65.7398L48.884 60.1969C48.9986 59.7537 48.664 59.3216 48.2063 59.3216H46.0042C45.5464 59.3216 45.2119 58.8896 45.3264 58.4464L47.4898 50.078C47.5685 49.7964 47.8235 49.5981 48.1159 49.6015C48.1513 49.6019 48.1834 49.6024 48.2101 49.6033L50.4278 49.6033C50.8521 49.6031 51.179 49.9773 51.1218 50.3976L51.1081 50.4977L50.2624 55.4443C50.1893 55.8719 50.5186 56.2622 50.9524 56.2622H53.6769Z" fill="url(#paint0_radial_232_5253)"/>
<path fill-rule="evenodd" clip-rule="evenodd" d="M60.6518 48.9141C55.6336 43.0318 46.7971 42.3312 40.9147 47.3494C35.0324 52.3675 34.3318 61.2041 39.35 67.0864C44.3681 72.9687 53.2047 73.6693 59.087 68.6512C64.9694 63.633 65.67 54.7964 60.6518 48.9141ZM53.6769 56.2622C54.2165 56.2622 54.561 56.8469 54.2903 57.3136L54.2124 57.4478L48.9289 66.1406C48.8307 66.3021 48.6553 66.4007 48.4663 66.4007H47.962C47.6164 66.4007 47.3637 66.0744 47.4503 65.7398L48.884 60.1969C48.9986 59.7537 48.664 59.3216 48.2063 59.3216H46.0042C45.5464 59.3216 45.2119 58.8896 45.3264 58.4464L47.4898 50.078C47.5685 49.7964 47.8235 49.5981 48.1159 49.6015C48.1513 49.6019 48.1834 49.6024 48.2101 49.6033L50.4278 49.6033C50.8521 49.6031 51.179 49.9773 51.1218 50.3976L51.1081 50.4977L50.2624 55.4443C50.1893 55.8719 50.5186 56.2622 50.9524 56.2622H53.6769Z" fill="url(#paint1_radial_232_5253)"/>
<mask id="mask0_232_5253" style="mask-type:alpha" maskUnits="userSpaceOnUse" x="36" y="44" width="28" height="29">
<path d="M50 72.0007C57.732 72.0007 64 65.7327 64 58.0007C64 50.2687 57.732 44.0007 50 44.0007C42.268 44.0007 36 50.2687 36 58.0007C36 65.7327 42.268 72.0007 50 72.0007Z" fill="url(#paint2_radial_232_5253)"/>
</mask>
<g mask="url(#mask0_232_5253)">
<g filter="url(#filter0_f_232_5253)">
<path d="M36.778 53.3987C36.0492 55.4925 35.8281 57.7295 36.1329 59.9255C36.4378 62.1215 37.2598 64.2138 38.5313 66.03C39.8028 67.8461 41.4875 69.3344 43.4467 70.3722C45.4058 71.41 47.5835 71.9677 49.8003 71.9993C52.0171 72.0309 54.2097 71.5356 56.1977 70.5541C58.1857 69.5727 59.9121 68.1331 61.235 66.3539C62.5578 64.5747 63.4392 62.5068 63.8065 60.3204C64.1738 58.134 64.0167 55.8915 63.3479 53.7777L59.2772 55.0656C59.742 56.5348 59.8512 58.0933 59.596 59.6129C59.3407 61.1326 58.7281 62.5698 57.8086 63.8064C56.8893 65.043 55.6893 66.0436 54.3076 66.7257C52.9259 67.4079 51.402 67.7521 49.8612 67.7301C48.3204 67.7082 46.8069 67.3206 45.4452 66.5993C44.0835 65.878 42.9126 64.8436 42.0289 63.5813C41.1451 62.3189 40.5738 60.8648 40.362 59.3385C40.1501 57.8122 40.3038 56.2574 40.8103 54.8021L36.778 53.3987Z" fill="white"/>
</g>
</g>
</g>
<defs>
<filter id="filter0_f_232_5253" x="26" y="43.3987" width="48" height="38.6021" filterUnits="userSpaceOnUse" color-interpolation-filters="sRGB">
<feFlood flood-opacity="0" result="BackgroundImageFix"/>
<feBlend mode="normal" in="SourceGraphic" in2="BackgroundImageFix" result="shape"/>
<feGaussianBlur stdDeviation="5" result="effect1_foregroundBlur_232_5253"/>
</filter>
<radialGradient id="paint0_radial_232_5253" cx="0" cy="0" r="1" gradientUnits="userSpaceOnUse" gradientTransform="translate(38.8007 58.0003) scale(27.3005 278.397)">
<stop stop-color="#31B2F3"/>
<stop offset="0.473958" stop-color="#F27CEC"/>
<stop offset="1" stop-color="#FD6641"/>
</radialGradient>
<radialGradient id="paint1_radial_232_5253" cx="0" cy="0" r="1" gradientUnits="userSpaceOnUse" gradientTransform="translate(38.8007 58.0003) scale(27.3005 278.397)">
<stop stop-color="#31B2F3"/>
<stop offset="0.473958" stop-color="#F27CEC"/>
<stop offset="1" stop-color="#FD6641"/>
</radialGradient>
<radialGradient id="paint2_radial_232_5253" cx="0" cy="0" r="1" gradientUnits="userSpaceOnUse" gradientTransform="translate(38.8 58.0008) scale(27.3 278.392)">
<stop stop-color="#F27CEC"/>
<stop offset="0.484375" stop-color="#31B2F3"/>
<stop offset="1" stop-color="#7D7573"/>
</radialGradient>
<clipPath id="clip0_232_5253">
<rect width="28" height="28" fill="white" transform="translate(36 44)"/>
</clipPath>
</defs>
</svg>
