<svg width="136" height="100" viewBox="0 0 136 100" fill="none" xmlns="http://www.w3.org/2000/svg">
<mask id="path-1-inside-1_232_5651" fill="white">
<path fill-rule="evenodd" clip-rule="evenodd" d="M87 0C86.4477 0 86.0029 0.448498 85.9727 0.999957C85.4538 10.476 77.6056 18 68 18C58.3944 18 50.5462 10.476 50.0273 0.999956C49.9971 0.448497 49.5523 0 49 0L22 0C19.7909 0 18 1.79086 18 4L18 31C18 31.5523 17.5515 31.9971 17 32.0273C7.52403 32.5462 0 40.3944 0 50C0 59.6056 7.52403 67.4538 17 67.9727C17.5515 68.0029 18 68.4477 18 69L18 96C18 98.2091 19.7909 100 22 100L49 100C49.5523 100 49.9971 99.5515 50.0273 99C50.5462 89.524 58.3944 82 68 82C77.6056 82 85.4538 89.524 85.9727 99C86.0029 99.5515 86.4477 100 87 100H114C116.209 100 118 98.2091 118 96L118 69C118 68.4477 118.448 68.0029 119 67.9727C128.476 67.4538 136 59.6056 136 50C136 40.3944 128.476 32.5462 119 32.0273C118.448 31.9971 118 31.5523 118 31L118 4C118 1.79086 116.209 0 114 0L87 0Z"/>
</mask>
<path fill-rule="evenodd" clip-rule="evenodd" d="M87 0C86.4477 0 86.0029 0.448498 85.9727 0.999957C85.4538 10.476 77.6056 18 68 18C58.3944 18 50.5462 10.476 50.0273 0.999956C49.9971 0.448497 49.5523 0 49 0L22 0C19.7909 0 18 1.79086 18 4L18 31C18 31.5523 17.5515 31.9971 17 32.0273C7.52403 32.5462 0 40.3944 0 50C0 59.6056 7.52403 67.4538 17 67.9727C17.5515 68.0029 18 68.4477 18 69L18 96C18 98.2091 19.7909 100 22 100L49 100C49.5523 100 49.9971 99.5515 50.0273 99C50.5462 89.524 58.3944 82 68 82C77.6056 82 85.4538 89.524 85.9727 99C86.0029 99.5515 86.4477 100 87 100H114C116.209 100 118 98.2091 118 96L118 69C118 68.4477 118.448 68.0029 119 67.9727C128.476 67.4538 136 59.6056 136 50C136 40.3944 128.476 32.5462 119 32.0273C118.448 31.9971 118 31.5523 118 31L118 4C118 1.79086 116.209 0 114 0L87 0Z" fill="white"/>
<path d="M18 4L17 4L17 4L18 4ZM18 96L17 96V96H18ZM119 32.0273L119.055 31.0288L119 32.0273ZM119 67.9727L119.055 68.9712L119 67.9727ZM50.0273 99L49.0288 98.9454L50.0273 99ZM18 31L17 31L18 31ZM17 32.0273L16.9454 31.0288L17 32.0273ZM17 67.9727L16.9454 68.9712L17 67.9727ZM18 69L17 69L18 69ZM50.0273 0.999956L49.0288 1.05463L50.0273 0.999956ZM85.9727 99L84.9742 99.0547L85.9727 99ZM85.9727 0.999957L84.9742 0.945284L85.9727 0.999957ZM68 19C78.1396 19 86.4235 11.058 86.9712 1.05463L84.9742 0.945284C84.4842 9.89397 77.0716 17 68 17V19ZM49.0288 1.05463C49.5765 11.058 57.8604 19 68 19V17C58.9284 17 51.5158 9.89397 51.0258 0.945282L49.0288 1.05463ZM22 1L49 1V-1L22 -1V1ZM19 4C19 2.34315 20.3431 1 22 1V-1C19.2386 -1 17 1.23858 17 4L19 4ZM19 31L19 4L17 4L17 31L19 31ZM1 50C1 40.9284 8.10603 33.5158 17.0547 33.0258L16.9454 31.0288C6.94204 31.5765 -1 39.8604 -1 50H1ZM17.0547 66.9742C8.10603 66.4842 1 59.0716 1 50H-1C-1 60.1396 6.94204 68.4235 16.9454 68.9712L17.0547 66.9742ZM19 96L19 69L17 69L17 96L19 96ZM22 99C20.3431 99 19 97.6569 19 96H17C17 98.7614 19.2386 101 22 101L22 99ZM49 99L22 99L22 101L49 101V99ZM68 81C57.8604 81 49.5765 88.942 49.0288 98.9454L51.0258 99.0547C51.5158 90.106 58.9284 83 68 83V81ZM86.9712 98.9454C86.4235 88.942 78.1396 81 68 81V83C77.0716 83 84.4842 90.106 84.9742 99.0547L86.9712 98.9454ZM114 99H87V101H114V99ZM117 96C117 97.6569 115.657 99 114 99V101C116.761 101 119 98.7614 119 96H117ZM117 69L117 96H119L119 69H117ZM135 50C135 59.0716 127.894 66.4842 118.945 66.9742L119.055 68.9712C129.058 68.4235 137 60.1396 137 50H135ZM118.945 33.0258C127.894 33.5158 135 40.9284 135 50H137C137 39.8604 129.058 31.5765 119.055 31.0288L118.945 33.0258ZM117 4L117 31H119L119 4H117ZM114 1C115.657 1 117 2.34315 117 4H119C119 1.23858 116.761 -1 114 -1V1ZM87 1L114 1V-1L87 -1V1ZM119.055 31.0288C119.033 31.0276 119.016 31.0187 119.006 31.0081C119.001 31.0033 119 31.0001 119 30.9999C119 30.9998 119 31.0001 119 31.0007C119 31.0012 119 31.0012 119 31H117C117 32.1183 117.899 32.9685 118.945 33.0258L119.055 31.0288ZM119 69C119 68.9988 119 68.9988 119 68.9994C119 68.9999 119 69.0002 119 69.0001C119 68.9999 119.001 68.9967 119.006 68.9919C119.016 68.9813 119.033 68.9724 119.055 68.9712L118.945 66.9742C117.899 67.0315 117 67.8817 117 69H119ZM49 101C50.1183 101 50.9685 100.101 51.0258 99.0547L49.0288 98.9454C49.0276 98.9666 49.0187 98.9836 49.0081 98.994C49.0033 98.9987 49.0001 99.0002 48.9999 99.0002C48.9998 99.0003 49.0001 99.0001 49.0006 99C49.0012 98.9999 49.0012 99 49 99V101ZM17 31C17 31.0012 16.9999 31.0012 17 31.0006C17.0001 31.0001 17.0003 30.9998 17.0002 30.9999C17.0002 31.0001 16.9987 31.0033 16.994 31.0081C16.9836 31.0187 16.9666 31.0276 16.9454 31.0288L17.0547 33.0258C18.1008 32.9685 19 32.1183 19 31L17 31ZM16.9454 68.9712C16.9667 68.9724 16.9836 68.9813 16.994 68.9919C16.9987 68.9967 17.0002 68.9999 17.0002 69.0001C17.0003 69.0002 17.0001 68.9999 17 68.9993C16.9999 68.9988 17 68.9988 17 69L19 69C19 67.8817 18.1008 67.0315 17.0547 66.9742L16.9454 68.9712ZM51.0258 0.945282C50.9685 -0.100789 50.1183 -1 49 -1V1C49.0012 1 49.0012 1.0001 49.0007 0.999977C49.0001 0.999868 48.9998 0.999738 48.9999 0.999766C49.0001 0.999846 49.0033 1.00127 49.0081 1.006C49.0187 1.0164 49.0276 1.03335 49.0288 1.05463L51.0258 0.945282ZM84.9742 99.0547C85.0315 100.101 85.8817 101 87 101V99C86.9988 99 86.9988 98.9999 86.9993 99C86.9999 99.0001 87.0002 99.0003 87.0001 99.0002C86.9999 99.0002 86.9967 98.9987 86.9919 98.994C86.9813 98.9836 86.9724 98.9667 86.9712 98.9454L84.9742 99.0547ZM86.9712 1.05463C86.9724 1.03335 86.9813 1.0164 86.9919 1.006C86.9967 1.00127 86.9999 0.999846 87.0001 0.999766C87.0002 0.999738 86.9999 0.999868 86.9994 0.999977C86.9988 1.0001 86.9988 1 87 1V-1C85.8817 -1 85.0315 -0.100786 84.9742 0.945284L86.9712 1.05463Z" fill="#D1D5DB" fill-opacity="0.1" mask="url(#path-1-inside-1_232_5651)"/>
<path d="M50.8152 72.144C50.0579 72.144 49.4019 71.9787 48.8472 71.648C48.2925 71.3173 47.8605 70.8533 47.5512 70.256C47.2525 69.648 47.1032 68.9333 47.1032 68.112C47.1032 67.4933 47.1885 66.9387 47.3592 66.448C47.5299 65.9467 47.7805 65.52 48.1112 65.168C48.4419 64.816 48.8312 64.5493 49.2792 64.368C49.7379 64.176 50.2499 64.08 50.8152 64.08C51.5725 64.08 52.2285 64.2453 52.7832 64.576C53.3379 64.9067 53.7645 65.376 54.0632 65.984C54.3725 66.5813 54.5272 67.2907 54.5272 68.112C54.5272 68.7307 54.4419 69.2853 54.2712 69.776C54.1005 70.2667 53.8499 70.6933 53.5192 71.056C53.1885 71.408 52.7939 71.68 52.3352 71.872C51.8872 72.0533 51.3805 72.144 50.8152 72.144ZM50.8152 71.104C51.2952 71.104 51.7165 70.9867 52.0792 70.752C52.4419 70.5173 52.7192 70.176 52.9112 69.728C53.1139 69.28 53.2152 68.7413 53.2152 68.112C53.2152 67.1413 52.9965 66.4 52.5592 65.888C52.1325 65.376 51.5512 65.12 50.8152 65.12C50.3245 65.12 49.8979 65.2373 49.5352 65.472C49.1832 65.696 48.9059 66.032 48.7032 66.48C48.5112 66.9173 48.4152 67.4613 48.4152 68.112C48.4152 69.072 48.6339 69.8133 49.0712 70.336C49.5085 70.848 50.0899 71.104 50.8152 71.104ZM57.1138 72.112C56.9005 72.112 56.7405 72.0533 56.6338 71.936C56.5271 71.8187 56.4738 71.6533 56.4738 71.44V61.264C56.4738 61.0507 56.5271 60.8907 56.6338 60.784C56.7405 60.6667 56.9005 60.608 57.1138 60.608C57.3165 60.608 57.4765 60.6667 57.5938 60.784C57.7111 60.8907 57.7698 61.0507 57.7698 61.264V65.952H57.5618C57.7858 65.3333 58.1485 64.8693 58.6498 64.56C59.1618 64.24 59.7485 64.08 60.4098 64.08C61.0285 64.08 61.5405 64.192 61.9458 64.416C62.3618 64.64 62.6711 64.9813 62.8738 65.44C63.0765 65.888 63.1778 66.4587 63.1778 67.152V71.44C63.1778 71.6533 63.1191 71.8187 63.0018 71.936C62.8951 72.0533 62.7405 72.112 62.5378 72.112C62.3245 72.112 62.1591 72.0533 62.0418 71.936C61.9351 71.8187 61.8818 71.6533 61.8818 71.44V67.232C61.8818 66.5067 61.7378 65.9787 61.4498 65.648C61.1725 65.3067 60.7245 65.136 60.1058 65.136C59.3911 65.136 58.8205 65.36 58.3938 65.808C57.9778 66.2453 57.7698 66.832 57.7698 67.568V71.44C57.7698 71.888 57.5511 72.112 57.1138 72.112ZM68.0156 72.144C67.4822 72.144 67.0022 72.0427 66.5756 71.84C66.1596 71.6267 65.8289 71.3387 65.5836 70.976C65.3382 70.6133 65.2156 70.208 65.2156 69.76C65.2156 69.184 65.3596 68.7307 65.6476 68.4C65.9462 68.0693 66.4316 67.8347 67.1036 67.696C67.7862 67.5573 68.7142 67.488 69.8876 67.488H70.6076V68.336H69.9036C69.0396 68.336 68.3569 68.3787 67.8556 68.464C67.3649 68.5387 67.0182 68.672 66.8156 68.864C66.6236 69.056 66.5276 69.328 66.5276 69.68C66.5276 70.1173 66.6769 70.4747 66.9756 70.752C67.2849 71.0293 67.7009 71.168 68.2236 71.168C68.6502 71.168 69.0236 71.0667 69.3436 70.864C69.6742 70.6613 69.9302 70.384 70.1116 70.032C70.3036 69.68 70.3996 69.2747 70.3996 68.816V66.992C70.3996 66.3307 70.2662 65.856 69.9996 65.568C69.7329 65.2693 69.2956 65.12 68.6876 65.12C68.3142 65.12 67.9409 65.168 67.5676 65.264C67.1942 65.36 66.7996 65.5147 66.3836 65.728C66.2342 65.8027 66.1062 65.8293 65.9996 65.808C65.8929 65.776 65.8076 65.7173 65.7436 65.632C65.6796 65.5467 65.6422 65.4507 65.6316 65.344C65.6209 65.2267 65.6422 65.1147 65.6956 65.008C65.7596 64.9013 65.8556 64.816 65.9836 64.752C66.4529 64.5173 66.9169 64.3467 67.3756 64.24C67.8342 64.1333 68.2716 64.08 68.6876 64.08C69.3596 64.08 69.9142 64.192 70.3516 64.416C70.7889 64.6293 71.1142 64.96 71.3276 65.408C71.5409 65.8453 71.6476 66.4107 71.6476 67.104V71.44C71.6476 71.6533 71.5942 71.8187 71.4876 71.936C71.3916 72.0533 71.2476 72.112 71.0556 72.112C70.8529 72.112 70.6982 72.0533 70.5916 71.936C70.4849 71.8187 70.4316 71.6533 70.4316 71.44V70.192H70.5756C70.4902 70.5973 70.3249 70.944 70.0796 71.232C69.8449 71.52 69.5516 71.744 69.1996 71.904C68.8476 72.064 68.4529 72.144 68.0156 72.144ZM76.6759 72.144C76.1959 72.144 75.7106 72.0853 75.2199 71.968C74.7399 71.8507 74.2919 71.648 73.8759 71.36C73.7693 71.2853 73.6946 71.2 73.6519 71.104C73.6093 70.9973 73.5933 70.896 73.6039 70.8C73.6253 70.6933 73.6679 70.6027 73.7319 70.528C73.8066 70.4533 73.8919 70.4107 73.9879 70.4C74.0946 70.3787 74.2119 70.4 74.3399 70.464C74.7559 70.72 75.1559 70.9013 75.5399 71.008C75.9346 71.104 76.3239 71.152 76.7079 71.152C77.3159 71.152 77.7746 71.04 78.0839 70.816C78.3933 70.592 78.5479 70.288 78.5479 69.904C78.5479 69.6053 78.4466 69.3707 78.2439 69.2C78.0413 69.0187 77.7213 68.88 77.2839 68.784L75.8279 68.464C75.1559 68.3253 74.6546 68.0853 74.3239 67.744C74.0039 67.4027 73.8439 66.96 73.8439 66.416C73.8439 65.936 73.9666 65.5253 74.2119 65.184C74.4679 64.832 74.8253 64.56 75.2839 64.368C75.7426 64.176 76.2759 64.08 76.8839 64.08C77.3533 64.08 77.7959 64.144 78.2119 64.272C78.6386 64.3893 79.0226 64.5813 79.3639 64.848C79.4706 64.9227 79.5399 65.0133 79.5719 65.12C79.6146 65.216 79.6199 65.3173 79.5879 65.424C79.5666 65.52 79.5186 65.6053 79.4439 65.68C79.3693 65.744 79.2786 65.7813 79.1719 65.792C79.0653 65.8027 78.9533 65.7707 78.8359 65.696C78.5159 65.4827 78.1906 65.328 77.8599 65.232C77.5293 65.1253 77.2039 65.072 76.8839 65.072C76.2866 65.072 75.8333 65.1893 75.5239 65.424C75.2146 65.6587 75.0599 65.968 75.0599 66.352C75.0599 66.6507 75.1559 66.896 75.3479 67.088C75.5399 67.28 75.8386 67.4187 76.2439 67.504L77.6999 67.808C78.3933 67.9573 78.9106 68.1973 79.2519 68.528C79.6039 68.848 79.7799 69.2853 79.7799 69.84C79.7799 70.544 79.4973 71.104 78.9319 71.52C78.3666 71.936 77.6146 72.144 76.6759 72.144ZM82.3951 72.112C82.1817 72.112 82.0217 72.0533 81.9151 71.936C81.8084 71.8187 81.7551 71.6533 81.7551 71.44V61.264C81.7551 61.0507 81.8084 60.8907 81.9151 60.784C82.0217 60.6667 82.1817 60.608 82.3951 60.608C82.5977 60.608 82.7577 60.6667 82.8751 60.784C82.9924 60.8907 83.0511 61.0507 83.0511 61.264V65.952H82.8431C83.0671 65.3333 83.4297 64.8693 83.9311 64.56C84.4431 64.24 85.0297 64.08 85.6911 64.08C86.3097 64.08 86.8217 64.192 87.2271 64.416C87.6431 64.64 87.9524 64.9813 88.1551 65.44C88.3577 65.888 88.4591 66.4587 88.4591 67.152V71.44C88.4591 71.6533 88.4004 71.8187 88.2831 71.936C88.1764 72.0533 88.0217 72.112 87.8191 72.112C87.6057 72.112 87.4404 72.0533 87.3231 71.936C87.2164 71.8187 87.1631 71.6533 87.1631 71.44V67.232C87.1631 66.5067 87.0191 65.9787 86.7311 65.648C86.4537 65.3067 86.0057 65.136 85.3871 65.136C84.6724 65.136 84.1017 65.36 83.6751 65.808C83.2591 66.2453 83.0511 66.832 83.0511 67.568V71.44C83.0511 71.888 82.8324 72.112 82.3951 72.112Z" fill="#111827"/>
<g clip-path="url(#clip0_232_5651)">
<mask id="mask0_232_5651" style="mask-type:luminance" maskUnits="userSpaceOnUse" x="54" y="26" width="28" height="28">
<path d="M82 26H54V54H82V26Z" fill="white"/>
</mask>
<g mask="url(#mask0_232_5651)">
<path d="M81.9249 54.0193C72.617 54.0193 63.3193 54.0193 54.0216 54.0193C54.0208 54.0168 54.0194 54.0143 54.0194 54.0118C54.0193 44.6818 54.0193 35.3518 54.0193 26.0205C63.3518 26.0205 72.6842 26.0205 82.018 26.0205C82.018 35.3516 82.018 44.6839 82.018 54.0193C81.9913 54.0193 81.9632 54.0193 81.9249 54.0193ZM77.1106 44.3175C77.0659 44.2665 77.0236 44.2132 76.9762 44.1649C76.4504 43.6303 75.7884 43.5189 75.0836 43.5825C74.4722 43.6378 73.9486 43.9068 73.496 44.3174C73.4715 44.3396 73.4448 44.3593 73.4096 44.388C73.4096 44.3308 73.4119 44.289 73.4092 44.2476C73.396 44.0444 73.3006 43.8905 73.1199 43.7979C72.9428 43.7072 72.7618 43.7159 72.5948 43.8226C72.409 43.9412 72.3456 44.1236 72.3458 44.338C72.3472 45.9439 72.3466 47.5498 72.3466 49.1557C72.3466 49.2559 72.3446 49.3561 72.347 49.4562C72.3532 49.714 72.4899 49.9182 72.6974 49.9836C73.0616 50.0982 73.409 49.8458 73.4095 49.4617C73.4109 48.3598 73.4106 47.258 73.4096 46.1562C73.4093 45.8458 73.4878 45.5613 73.6857 45.319C74.1469 44.7546 74.7441 44.5162 75.4665 44.5984C75.8184 44.6386 76.1027 44.8018 76.2977 45.1034C76.4807 45.3864 76.5434 45.7058 76.5459 46.0348C76.5528 46.9426 76.5502 47.8506 76.5511 48.7585C76.5514 49.0073 76.5473 49.2562 76.5521 49.5049C76.5597 49.894 76.9779 50.1348 77.3203 49.9499C77.5381 49.8324 77.6154 49.6402 77.6152 49.4028C77.6138 48.3721 77.6168 47.3413 77.6129 46.3106C77.612 46.0658 77.6038 45.8195 77.5753 45.5766C77.5226 45.1263 77.3976 44.6983 77.1106 44.3175ZM70.4079 43.742C70.3439 43.7465 70.2773 43.7412 70.2164 43.7574C69.9628 43.8248 69.823 44.0264 69.8229 44.3192C69.8222 45.3694 69.8244 46.4197 69.8209 47.4699C69.8203 47.6435 69.8112 47.8198 69.7806 47.9902C69.6997 48.4401 69.4584 48.7771 69.0256 48.9478C68.6039 49.1141 68.1697 49.1199 67.7331 49.0014C67.4019 48.9115 67.148 48.7214 66.9821 48.4195C66.8632 48.2031 66.8054 47.9671 66.801 47.723C66.7924 47.2288 66.7953 46.7343 66.7948 46.2399C66.794 45.6001 66.7956 44.9603 66.7941 44.3205C66.7934 44.0054 66.5841 43.7579 66.3103 43.7419C65.9712 43.7221 65.732 43.953 65.7316 44.3066C65.7305 45.3859 65.7291 46.4652 65.7324 47.5445C65.7336 47.9303 65.775 48.3109 65.922 48.6741C66.2006 49.3632 66.7206 49.7791 67.4184 49.9816C67.8575 50.109 68.3099 50.1167 68.7631 50.0634C69.1133 50.0222 69.448 49.9266 69.753 49.7494C70.4732 49.3308 70.8396 48.68 70.8628 47.8674C70.8969 46.676 70.883 45.4831 70.8843 44.2909C70.8846 43.9917 70.7087 43.7932 70.4079 43.742Z" fill="#ECDC5A"/>
<path d="M77.1144 44.3232C77.3976 44.6982 77.5226 45.1263 77.5753 45.5766C77.6038 45.8195 77.612 46.0658 77.613 46.3106C77.6169 47.3413 77.6139 48.372 77.6152 49.4028C77.6155 49.6402 77.5381 49.8324 77.3203 49.9499C76.9779 50.1347 76.5597 49.8939 76.5522 49.5049C76.5473 49.2562 76.5514 49.0073 76.5512 48.7585C76.5502 47.8506 76.5528 46.9426 76.5459 46.0347C76.5434 45.7058 76.4808 45.3864 76.2977 45.1034C76.1027 44.8018 75.8184 44.6385 75.4665 44.5984C74.7441 44.5161 74.1469 44.7545 73.6857 45.319C73.4878 45.5613 73.4093 45.8458 73.4096 46.1561C73.4106 47.258 73.4109 48.3598 73.4095 49.4616C73.409 49.8457 73.0616 50.0982 72.6975 49.9836C72.4899 49.9182 72.3532 49.714 72.347 49.4562C72.3446 49.3561 72.3466 49.2559 72.3466 49.1557C72.3466 47.5498 72.3472 45.9439 72.3458 44.338C72.3457 44.1236 72.4091 43.9412 72.5948 43.8226C72.7618 43.7158 72.9429 43.7072 73.1199 43.7979C73.3006 43.8904 73.396 44.0444 73.4092 44.2475C73.4119 44.289 73.4096 44.3307 73.4096 44.3879C73.4448 44.3593 73.4715 44.3396 73.496 44.3174C73.9486 43.9068 74.4723 43.6377 75.0836 43.5825C75.7884 43.5188 76.4505 43.6303 76.9762 44.1649C77.0236 44.2131 77.0659 44.2665 77.1144 44.3232Z" fill="#111827"/>
<path d="M70.4165 43.7424C70.7087 43.7932 70.8847 43.9917 70.8843 44.2909C70.883 45.4831 70.8969 46.676 70.8629 47.8674C70.8396 48.6801 70.4732 49.3308 69.753 49.7493C69.4481 49.9266 69.1133 50.0221 68.7631 50.0633C68.3099 50.1167 67.8575 50.1089 67.4184 49.9815C66.7207 49.7791 66.2006 49.3631 65.922 48.6741C65.7751 48.3109 65.7336 47.9303 65.7324 47.5445C65.7291 46.4652 65.7305 45.3859 65.7317 44.3066C65.7321 43.953 65.9712 43.7221 66.3103 43.7419C66.5841 43.7579 66.7934 44.0054 66.7941 44.3205C66.7956 44.9603 66.7941 45.6001 66.7948 46.2399C66.7953 46.7343 66.7924 47.2288 66.8011 47.723C66.8054 47.9671 66.8633 48.2031 66.9821 48.4195C67.148 48.7215 67.4019 48.9115 67.7331 49.0014C68.1697 49.1199 68.6039 49.1141 69.0256 48.9478C69.4585 48.7771 69.6997 48.4401 69.7806 47.9903C69.8112 47.8198 69.8203 47.6435 69.8209 47.4699C69.8244 46.4197 69.8223 45.3695 69.8229 44.3193C69.8231 44.0265 69.9629 43.8248 70.2165 43.7574C70.2773 43.7412 70.3439 43.7465 70.4165 43.7424Z" fill="#111827"/>
</g>
</g>
<defs>
<clipPath id="clip0_232_5651">
<rect width="28" height="28" fill="white" transform="translate(54 26)"/>
</clipPath>
</defs>
</svg>
