<svg width="100" height="118" viewBox="0 0 100 118" fill="none" xmlns="http://www.w3.org/2000/svg">
<mask id="path-1-inside-1_232_5650" fill="white">
<path fill-rule="evenodd" clip-rule="evenodd" d="M50 0C59.6056 0 67.4538 7.52403 67.9727 17C68.0029 17.5515 68.4477 18 69 18L96 18C98.2091 18 100 19.7909 100 22L100 49C100 49.5523 99.5515 49.9971 99 50.0273C89.524 50.5462 82 58.3944 82 68C82 77.6056 89.524 85.4538 99 85.9727C99.5515 86.0029 100 86.4477 100 87V114C100 116.209 98.2091 118 96 118L69 118C68.4477 118 68.0029 117.552 67.9727 117C67.4538 107.524 59.6056 100 50 100C40.3944 100 32.5462 107.524 32.0273 117C31.9971 117.552 31.5523 118 31 118H4C1.79086 118 0 116.209 0 114L0 87C0 86.4477 0.448498 86.0029 0.999957 85.9727C10.476 85.4538 18 77.6056 18 68C18 58.3944 10.476 50.5462 0.999956 50.0273C0.448497 49.9971 0 49.5523 0 49L0 22C0 19.7909 1.79086 18 4 18L31 18C31.5523 18 31.9971 17.5515 32.0273 17C32.5462 7.52403 40.3944 0 50 0Z"/>
</mask>
<path fill-rule="evenodd" clip-rule="evenodd" d="M50 0C59.6056 0 67.4538 7.52403 67.9727 17C68.0029 17.5515 68.4477 18 69 18L96 18C98.2091 18 100 19.7909 100 22L100 49C100 49.5523 99.5515 49.9971 99 50.0273C89.524 50.5462 82 58.3944 82 68C82 77.6056 89.524 85.4538 99 85.9727C99.5515 86.0029 100 86.4477 100 87V114C100 116.209 98.2091 118 96 118L69 118C68.4477 118 68.0029 117.552 67.9727 117C67.4538 107.524 59.6056 100 50 100C40.3944 100 32.5462 107.524 32.0273 117C31.9971 117.552 31.5523 118 31 118H4C1.79086 118 0 116.209 0 114L0 87C0 86.4477 0.448498 86.0029 0.999957 85.9727C10.476 85.4538 18 77.6056 18 68C18 58.3944 10.476 50.5462 0.999956 50.0273C0.448497 49.9971 0 49.5523 0 49L0 22C0 19.7909 1.79086 18 4 18L31 18C31.5523 18 31.9971 17.5515 32.0273 17C32.5462 7.52403 40.3944 0 50 0Z" fill="white"/>
<path d="M32.0273 17L33.0258 17.0547L32.0273 17ZM0.999957 85.9727L0.945284 84.9742L0.999957 85.9727ZM32.0273 117L31.0288 116.945L32.0273 117ZM99 85.9727L99.0547 84.9742L99 85.9727ZM67.9727 117L68.9712 116.945L67.9727 117ZM99 50.0273L98.9454 49.0288L99 50.0273ZM68.9712 16.9454C68.4235 6.94204 60.1396 -1 50 -1V1C59.0716 1 66.4842 8.10603 66.9742 17.0547L68.9712 16.9454ZM96 17L69 17V19L96 19V17ZM101 22C101 19.2386 98.7614 17 96 17V19C97.6569 19 99 20.3431 99 22L101 22ZM101 49L101 22L99 22L99 49H101ZM83 68C83 58.9284 90.106 51.5158 99.0547 51.0258L98.9454 49.0288C88.942 49.5765 81 57.8604 81 68H83ZM99.0547 84.9742C90.106 84.4842 83 77.0716 83 68H81C81 78.1396 88.942 86.4235 98.9454 86.9712L99.0547 84.9742ZM101 114V87H99V114H101ZM96 119C98.7614 119 101 116.761 101 114H99C99 115.657 97.6569 117 96 117V119ZM69 119L96 119V117L69 117V119ZM50 101C59.0716 101 66.4842 108.106 66.9742 117.055L68.9712 116.945C68.4235 106.942 60.1396 99 50 99V101ZM33.0258 117.055C33.5158 108.106 40.9284 101 50 101V99C39.8604 99 31.5765 106.942 31.0288 116.945L33.0258 117.055ZM4 119H31V117H4V119ZM-1 114C-1 116.761 1.23858 119 4 119V117C2.34315 117 1 115.657 1 114H-1ZM-1 87L-1 114H1L1 87H-1ZM17 68C17 77.0716 9.89397 84.4842 0.945284 84.9742L1.05463 86.9712C11.058 86.4235 19 78.1396 19 68H17ZM0.945282 51.0258C9.89397 51.5158 17 58.9284 17 68H19C19 57.8604 11.058 49.5765 1.05463 49.0288L0.945282 51.0258ZM-1 22L-1 49H1L1 22H-1ZM4 17C1.23858 17 -1 19.2386 -1 22H1C1 20.3431 2.34315 19 4 19L4 17ZM31 17L4 17L4 19L31 19V17ZM50 -1C39.8604 -1 31.5765 6.94204 31.0288 16.9454L33.0258 17.0547C33.5158 8.10603 40.9284 1 50 1V-1ZM31 19C32.1183 19 32.9685 18.1008 33.0258 17.0547L31.0288 16.9454C31.0276 16.9666 31.0187 16.9836 31.0081 16.994C31.0033 16.9987 31.0001 17.0002 30.9999 17.0002C30.9998 17.0003 31.0001 17.0001 31.0006 17C31.0012 16.9999 31.0012 17 31 17V19ZM1.05463 49.0288C1.03335 49.0276 1.0164 49.0187 1.006 49.0081C1.00127 49.0033 0.999846 49.0001 0.999766 48.9999C0.999738 48.9998 0.999868 49.0001 0.999977 49.0007C1.0001 49.0012 1 49.0012 1 49H-1C-1 50.1183 -0.100789 50.9685 0.945282 51.0258L1.05463 49.0288ZM1 87C1 86.9988 1.0001 86.9988 0.999977 86.9994C0.999868 86.9999 0.999738 87.0002 0.999766 87.0001C0.999846 86.9999 1.00127 86.9967 1.006 86.9919C1.0164 86.9813 1.03335 86.9724 1.05463 86.9712L0.945284 84.9742C-0.100786 85.0315 -1 85.8817 -1 87H1ZM66.9742 17.0547C67.0315 18.1008 67.8817 19 69 19V17C68.9988 17 68.9988 16.9999 68.9993 17C68.9999 17.0001 69.0002 17.0003 69.0001 17.0002C68.9999 17.0002 68.9967 16.9987 68.9919 16.994C68.9813 16.9836 68.9724 16.9667 68.9712 16.9454L66.9742 17.0547ZM31.0288 116.945C31.0276 116.967 31.0187 116.984 31.0081 116.994C31.0033 116.999 31.0001 117 30.9999 117C30.9998 117 31.0001 117 31.0007 117C31.0012 117 31.0012 117 31 117V119C32.1183 119 32.9685 118.101 33.0258 117.055L31.0288 116.945ZM98.9454 86.9712C98.9667 86.9724 98.9836 86.9813 98.994 86.9919C98.9987 86.9967 99.0002 86.9999 99.0002 87.0001C99.0003 87.0002 99.0001 86.9999 99 86.9993C98.9999 86.9988 99 86.9988 99 87H101C101 85.8817 100.101 85.0315 99.0547 84.9742L98.9454 86.9712ZM69 117C68.9988 117 68.9988 117 68.9994 117C68.9999 117 69.0002 117 69.0001 117C68.9999 117 68.9967 116.999 68.9919 116.994C68.9813 116.984 68.9724 116.967 68.9712 116.945L66.9742 117.055C67.0315 118.101 67.8817 119 69 119V117ZM99 49C99 49.0012 98.9999 49.0012 99 49.0006C99.0001 49.0001 99.0003 48.9998 99.0002 48.9999C99.0002 49.0001 98.9987 49.0033 98.994 49.0081C98.9836 49.0187 98.9666 49.0276 98.9454 49.0288L99.0547 51.0258C100.101 50.9685 101 50.1183 101 49H99Z" fill="#D1D5DB" fill-opacity="0.1" mask="url(#path-1-inside-1_232_5650)"/>
<path d="M40.5517 90.112C40.3384 90.112 40.173 90.0533 40.0557 89.936C39.949 89.8187 39.8957 89.6533 39.8957 89.44V82.768C39.8957 82.5547 39.949 82.3947 40.0557 82.288C40.1624 82.1707 40.317 82.112 40.5197 82.112C40.7224 82.112 40.877 82.1707 40.9837 82.288C41.101 82.3947 41.1597 82.5547 41.1597 82.768V84.064H40.9997C41.1704 83.4347 41.4957 82.9493 41.9757 82.608C42.4557 82.2667 43.0477 82.0853 43.7517 82.064C43.9117 82.0533 44.0397 82.0907 44.1357 82.176C44.2317 82.2507 44.285 82.384 44.2957 82.576C44.3064 82.7573 44.2637 82.9013 44.1677 83.008C44.0717 83.1147 43.9224 83.1787 43.7197 83.2L43.4637 83.232C42.7384 83.296 42.1784 83.5307 41.7837 83.936C41.3997 84.3307 41.2077 84.8747 41.2077 85.568V89.44C41.2077 89.6533 41.149 89.8187 41.0317 89.936C40.925 90.0533 40.765 90.112 40.5517 90.112ZM48.8323 90.144C48.0536 90.144 47.3816 89.9733 46.8163 89.632C46.251 89.2907 45.8136 88.816 45.5043 88.208C45.2056 87.5893 45.0563 86.8747 45.0563 86.064C45.0563 85.4453 45.1416 84.8907 45.3123 84.4C45.483 83.9093 45.7336 83.4933 46.0643 83.152C46.395 82.8 46.7896 82.5333 47.2483 82.352C47.7176 82.1707 48.2456 82.08 48.8323 82.08C49.2163 82.08 49.6163 82.1387 50.0323 82.256C50.4483 82.3733 50.827 82.576 51.1683 82.864C51.275 82.9387 51.3443 83.0293 51.3763 83.136C51.4083 83.2427 51.4083 83.3493 51.3763 83.456C51.3443 83.552 51.291 83.6373 51.2163 83.712C51.1416 83.776 51.0456 83.8133 50.9283 83.824C50.8216 83.8347 50.7096 83.7973 50.5923 83.712C50.315 83.4987 50.0323 83.3493 49.7443 83.264C49.4563 83.1787 49.179 83.136 48.9123 83.136C48.4963 83.136 48.1336 83.2053 47.8243 83.344C47.515 83.472 47.2536 83.6587 47.0403 83.904C46.827 84.1493 46.6616 84.4533 46.5443 84.816C46.4376 85.1787 46.3843 85.6 46.3843 86.08C46.3843 87.008 46.603 87.744 47.0403 88.288C47.4776 88.8213 48.1016 89.088 48.9123 89.088C49.179 89.088 49.451 89.0453 49.7283 88.96C50.0163 88.8747 50.3043 88.7253 50.5923 88.512C50.7096 88.4267 50.8216 88.3893 50.9283 88.4C51.035 88.4107 51.1256 88.4533 51.2003 88.528C51.275 88.592 51.323 88.6773 51.3443 88.784C51.3763 88.8907 51.3763 88.9973 51.3443 89.104C51.3123 89.2 51.243 89.2853 51.1363 89.36C50.795 89.6373 50.4216 89.84 50.0163 89.968C49.611 90.0853 49.2163 90.144 48.8323 90.144ZM55.7426 90.144C55.2626 90.144 54.7612 90.048 54.2386 89.856C53.7159 89.664 53.2572 89.3867 52.8626 89.024C52.7452 88.9387 52.6706 88.8373 52.6386 88.72C52.6172 88.6027 52.6226 88.4907 52.6546 88.384C52.6866 88.2667 52.7399 88.1707 52.8146 88.096C52.8999 88.0107 53.0012 87.968 53.1186 87.968C53.2359 87.9573 53.3586 88 53.4866 88.096C53.8492 88.4053 54.2226 88.6293 54.6066 88.768C54.9906 88.9067 55.3799 88.976 55.7746 88.976C56.4679 88.976 57.0546 88.8053 57.5346 88.464C58.0252 88.1227 58.3932 87.6053 58.6386 86.912C58.8946 86.2187 59.0226 85.36 59.0226 84.336V82.848H59.1666C59.1026 83.4453 58.9212 83.968 58.6226 84.416C58.3346 84.864 57.9612 85.2053 57.5026 85.44C57.0439 85.6747 56.5266 85.792 55.9506 85.792C55.2892 85.792 54.7026 85.6427 54.1906 85.344C53.6786 85.0453 53.2786 84.624 52.9906 84.08C52.7026 83.536 52.5586 82.9227 52.5586 82.24C52.5586 81.5253 52.7079 80.896 53.0066 80.352C53.3159 79.7973 53.7372 79.3653 54.2706 79.056C54.8146 78.736 55.4386 78.576 56.1426 78.576C57.0279 78.576 57.7799 78.7947 58.3986 79.232C59.0279 79.6587 59.5026 80.2827 59.8226 81.104C60.1426 81.9253 60.3026 82.9173 60.3026 84.08C60.3026 85.0613 60.2012 85.9253 59.9986 86.672C59.7959 87.4187 59.4972 88.0533 59.1026 88.576C58.7079 89.088 58.2279 89.4773 57.6626 89.744C57.0972 90.0107 56.4572 90.144 55.7426 90.144ZM56.2226 84.688C56.7026 84.688 57.1239 84.5813 57.4866 84.368C57.8492 84.1547 58.1319 83.8613 58.3346 83.488C58.5372 83.104 58.6386 82.6667 58.6386 82.176C58.6386 81.6853 58.5372 81.2533 58.3346 80.88C58.1319 80.5067 57.8492 80.2133 57.4866 80C57.1239 79.7867 56.7026 79.68 56.2226 79.68C55.7532 79.68 55.3372 79.7867 54.9746 80C54.6226 80.2133 54.3399 80.5067 54.1266 80.88C53.9239 81.2533 53.8226 81.6853 53.8226 82.176C53.8226 82.6667 53.9239 83.104 54.1266 83.488C54.3399 83.8613 54.6226 84.1547 54.9746 84.368C55.3372 84.5813 55.7532 84.688 56.2226 84.688Z" fill="#111827"/>
<g clip-path="url(#clip0_232_5650)">
<mask id="mask0_232_5650" style="mask-type:luminance" maskUnits="userSpaceOnUse" x="36" y="30" width="28" height="28">
<path d="M64 30H36V58H64V30Z" fill="white"/>
</mask>
<g mask="url(#mask0_232_5650)">
<path d="M63.9249 58.0193C54.617 58.0193 45.3193 58.0193 36.0216 58.0193C36.0208 58.0168 36.0194 58.0143 36.0194 58.0118C36.0193 48.6818 36.0193 39.3518 36.0193 30.0205C45.3518 30.0205 54.6842 30.0205 64.018 30.0205C64.018 39.3516 64.018 48.6839 64.018 58.0193C63.9913 58.0193 63.9632 58.0193 63.9249 58.0193ZM59.1106 48.3175C59.0659 48.2665 59.0236 48.2132 58.9762 48.1649C58.4504 47.6303 57.7884 47.5189 57.0836 47.5825C56.4722 47.6378 55.9486 47.9068 55.496 48.3174C55.4715 48.3396 55.4448 48.3593 55.4096 48.388C55.4096 48.3308 55.4119 48.289 55.4092 48.2476C55.396 48.0444 55.3006 47.8905 55.1199 47.7979C54.9428 47.7072 54.7618 47.7159 54.5948 47.8226C54.409 47.9412 54.3456 48.1236 54.3458 48.338C54.3472 49.9439 54.3466 51.5498 54.3466 53.1557C54.3466 53.2559 54.3446 53.3561 54.347 53.4562C54.3532 53.714 54.4899 53.9182 54.6974 53.9836C55.0616 54.0982 55.409 53.8458 55.4095 53.4617C55.4109 52.3598 55.4106 51.258 55.4096 50.1562C55.4093 49.8458 55.4878 49.5613 55.6857 49.319C56.1469 48.7546 56.7441 48.5162 57.4665 48.5984C57.8184 48.6386 58.1027 48.8018 58.2977 49.1034C58.4807 49.3864 58.5434 49.7058 58.5459 50.0348C58.5528 50.9426 58.5502 51.8506 58.5511 52.7585C58.5514 53.0073 58.5473 53.2562 58.5521 53.5049C58.5597 53.894 58.9779 54.1348 59.3203 53.9499C59.5381 53.8324 59.6154 53.6402 59.6152 53.4028C59.6138 52.3721 59.6168 51.3413 59.6129 50.3106C59.612 50.0658 59.6038 49.8195 59.5753 49.5766C59.5226 49.1263 59.3976 48.6983 59.1106 48.3175ZM52.4079 47.742C52.3439 47.7465 52.2773 47.7412 52.2164 47.7574C51.9628 47.8248 51.823 48.0264 51.8229 48.3192C51.8222 49.3694 51.8244 50.4197 51.8209 51.4699C51.8203 51.6435 51.8112 51.8198 51.7806 51.9902C51.6997 52.4401 51.4584 52.7771 51.0256 52.9478C50.6039 53.1141 50.1697 53.1199 49.7331 53.0014C49.4019 52.9115 49.148 52.7214 48.9821 52.4195C48.8632 52.2031 48.8054 51.9671 48.801 51.723C48.7924 51.2288 48.7953 50.7343 48.7948 50.2399C48.794 49.6001 48.7956 48.9603 48.7941 48.3205C48.7934 48.0054 48.5841 47.7579 48.3103 47.7419C47.9712 47.7221 47.732 47.953 47.7316 48.3066C47.7305 49.3859 47.7291 50.4652 47.7324 51.5445C47.7336 51.9303 47.775 52.3109 47.922 52.6741C48.2006 53.3632 48.7206 53.7791 49.4184 53.9816C49.8575 54.109 50.3099 54.1167 50.7631 54.0634C51.1133 54.0222 51.448 53.9266 51.753 53.7494C52.4732 53.3308 52.8396 52.68 52.8628 51.8674C52.8969 50.676 52.883 49.4831 52.8843 48.2909C52.8846 47.9917 52.7087 47.7932 52.4079 47.742Z" fill="#ECDC5A"/>
<path d="M59.1144 48.3232C59.3976 48.6982 59.5226 49.1263 59.5753 49.5766C59.6038 49.8195 59.612 50.0658 59.613 50.3106C59.6169 51.3413 59.6139 52.372 59.6152 53.4028C59.6155 53.6402 59.5381 53.8324 59.3203 53.9499C58.9779 54.1347 58.5597 53.8939 58.5522 53.5049C58.5473 53.2562 58.5514 53.0073 58.5512 52.7585C58.5502 51.8506 58.5528 50.9426 58.5459 50.0347C58.5434 49.7058 58.4808 49.3864 58.2977 49.1034C58.1027 48.8018 57.8184 48.6385 57.4665 48.5984C56.7441 48.5161 56.1469 48.7545 55.6857 49.319C55.4878 49.5613 55.4093 49.8458 55.4096 50.1561C55.4106 51.258 55.4109 52.3598 55.4095 53.4616C55.409 53.8457 55.0616 54.0982 54.6975 53.9836C54.4899 53.9182 54.3532 53.714 54.347 53.4562C54.3446 53.3561 54.3466 53.2559 54.3466 53.1557C54.3466 51.5498 54.3472 49.9439 54.3458 48.338C54.3457 48.1236 54.4091 47.9412 54.5948 47.8226C54.7618 47.7158 54.9429 47.7072 55.1199 47.7979C55.3006 47.8904 55.396 48.0444 55.4092 48.2475C55.4119 48.289 55.4096 48.3307 55.4096 48.3879C55.4448 48.3593 55.4715 48.3396 55.496 48.3174C55.9486 47.9068 56.4723 47.6377 57.0836 47.5825C57.7884 47.5188 58.4505 47.6303 58.9762 48.1649C59.0236 48.2131 59.0659 48.2665 59.1144 48.3232Z" fill="#111827"/>
<path d="M52.4165 47.7424C52.7087 47.7932 52.8847 47.9917 52.8843 48.2909C52.883 49.4831 52.8969 50.676 52.8629 51.8674C52.8396 52.6801 52.4732 53.3308 51.753 53.7493C51.4481 53.9266 51.1133 54.0221 50.7631 54.0633C50.3099 54.1167 49.8575 54.1089 49.4184 53.9815C48.7207 53.7791 48.2006 53.3631 47.922 52.6741C47.7751 52.3109 47.7336 51.9303 47.7324 51.5445C47.7291 50.4652 47.7305 49.3859 47.7317 48.3066C47.7321 47.953 47.9712 47.7221 48.3103 47.7419C48.5841 47.7579 48.7934 48.0054 48.7941 48.3205C48.7956 48.9603 48.7941 49.6001 48.7948 50.2399C48.7953 50.7343 48.7924 51.2288 48.8011 51.723C48.8054 51.9671 48.8633 52.2031 48.9821 52.4195C49.148 52.7215 49.4019 52.9115 49.7331 53.0014C50.1697 53.1199 50.6039 53.1141 51.0256 52.9478C51.4585 52.7771 51.6997 52.4401 51.7806 51.9903C51.8112 51.8198 51.8203 51.6435 51.8209 51.4699C51.8244 50.4197 51.8223 49.3695 51.8229 48.3193C51.8231 48.0265 51.9629 47.8248 52.2165 47.7574C52.2773 47.7412 52.3439 47.7465 52.4165 47.7424Z" fill="#111827"/>
</g>
</g>
<defs>
<clipPath id="clip0_232_5650">
<rect width="28" height="28" fill="white" transform="translate(36 30)"/>
</clipPath>
</defs>
</svg>
