<svg width="118" height="118" viewBox="0 0 118 118" fill="none" xmlns="http://www.w3.org/2000/svg">
<mask id="path-1-inside-1_232_5645" fill="white">
<path fill-rule="evenodd" clip-rule="evenodd" d="M69 0C68.4477 0 68.0029 0.448498 67.9727 0.999957C67.4538 10.476 59.6056 18 50 18C40.3944 18 32.5462 10.476 32.0273 0.999956C31.9971 0.448497 31.5523 0 31 0L4 0C1.79086 0 0 1.79086 0 4L0 31C0 31.5523 0.448498 31.9971 0.999957 32.0273C10.476 32.5462 18 40.3944 18 50C18 59.6056 10.476 67.4538 0.999956 67.9727C0.448497 68.0029 0 68.4477 0 69L0 96C0 98.2091 1.79086 100 4 100H31C31.5523 100 31.9971 100.448 32.0273 101C32.5462 110.476 40.3944 118 50 118C59.6056 118 67.4538 110.476 67.9727 101C68.0029 100.448 68.4477 100 69 100H96C98.2091 100 100 98.2091 100 96L100 69C100 68.4477 100.448 68.0029 101 67.9727C110.476 67.4538 118 59.6056 118 50C118 40.3944 110.476 32.5462 101 32.0273C100.448 31.9971 100 31.5523 100 31V4C100 1.79086 98.2091 0 96 0L69 0Z"/>
</mask>
<path fill-rule="evenodd" clip-rule="evenodd" d="M69 0C68.4477 0 68.0029 0.448498 67.9727 0.999957C67.4538 10.476 59.6056 18 50 18C40.3944 18 32.5462 10.476 32.0273 0.999956C31.9971 0.448497 31.5523 0 31 0L4 0C1.79086 0 0 1.79086 0 4L0 31C0 31.5523 0.448498 31.9971 0.999957 32.0273C10.476 32.5462 18 40.3944 18 50C18 59.6056 10.476 67.4538 0.999956 67.9727C0.448497 68.0029 0 68.4477 0 69L0 96C0 98.2091 1.79086 100 4 100H31C31.5523 100 31.9971 100.448 32.0273 101C32.5462 110.476 40.3944 118 50 118C59.6056 118 67.4538 110.476 67.9727 101C68.0029 100.448 68.4477 100 69 100H96C98.2091 100 100 98.2091 100 96L100 69C100 68.4477 100.448 68.0029 101 67.9727C110.476 67.4538 118 59.6056 118 50C118 40.3944 110.476 32.5462 101 32.0273C100.448 31.9971 100 31.5523 100 31V4C100 1.79086 98.2091 0 96 0L69 0Z" fill="white"/>
<path d="M100 96H99H100ZM101 32.0273L101.055 31.0288L101 32.0273ZM100 69H101H100ZM101 67.9727L101.055 68.9712L101 67.9727ZM32.0273 101L33.0258 100.945L32.0273 101ZM0.999957 32.0273L0.945284 33.0258L0.999957 32.0273ZM32.0273 0.999956L31.0288 1.05463L32.0273 0.999956ZM67.9727 101L66.9742 100.945L67.9727 101ZM67.9727 0.999957L66.9742 0.945284L67.9727 0.999957ZM50 19C60.1396 19 68.4235 11.058 68.9712 1.05463L66.9742 0.945284C66.4842 9.89397 59.0716 17 50 17L50 19ZM31.0288 1.05463C31.5765 11.058 39.8604 19 50 19L50 17C40.9284 17 33.5158 9.89397 33.0258 0.945282L31.0288 1.05463ZM4 1L31 1V-1L4 -1V1ZM1 4C1 2.34315 2.34315 1 4 1V-1C1.23858 -1 -1 1.23858 -1 4H1ZM1 31L1 4H-1L-1 31H1ZM19 50C19 39.8604 11.058 31.5765 1.05463 31.0288L0.945284 33.0258C9.89397 33.5158 17 40.9284 17 50L19 50ZM1.05463 68.9712C11.058 68.4235 19 60.1396 19 50L17 50C17 59.0716 9.89397 66.4842 0.945282 66.9742L1.05463 68.9712ZM1 96L1 69H-1L-1 96H1ZM4 99C2.34315 99 1 97.6569 1 96H-1C-1 98.7614 1.23858 101 4 101V99ZM31 99H4V101H31L31 99ZM50 117C40.9284 117 33.5158 109.894 33.0258 100.945L31.0288 101.055C31.5765 111.058 39.8605 119 50 119V117ZM66.9742 100.945C66.4842 109.894 59.0716 117 50 117V119C60.1396 119 68.4235 111.058 68.9712 101.055L66.9742 100.945ZM96 99H69V101H96V99ZM99 96C99 97.6569 97.6569 99 96 99V101C98.7614 101 101 98.7614 101 96H99ZM99 69L99 96H101L101 69H99ZM117 50C117 59.0716 109.894 66.4842 100.945 66.9742L101.055 68.9712C111.058 68.4235 119 60.1396 119 50H117ZM100.945 33.0258C109.894 33.5158 117 40.9284 117 50H119C119 39.8604 111.058 31.5765 101.055 31.0288L100.945 33.0258ZM99 4V31H101V4L99 4ZM96 1C97.6569 1 99 2.34315 99 4L101 4C101 1.23858 98.7614 -1 96 -1V1ZM69 1L96 1V-1L69 -1V1ZM101.055 31.0288C101.033 31.0276 101.016 31.0187 101.006 31.0081C101.001 31.0033 101 31.0001 101 30.9999C101 30.9998 101 31.0001 101 31.0007C101 31.0012 101 31.0012 101 31H99C99 32.1183 99.8992 32.9685 100.945 33.0258L101.055 31.0288ZM101 69C101 68.9988 101 68.9988 101 68.9994C101 68.9999 101 69.0002 101 69.0001C101 68.9999 101.001 68.9967 101.006 68.9919C101.016 68.9813 101.033 68.9724 101.055 68.9712L100.945 66.9742C99.8992 67.0315 99 67.8817 99 69H101ZM31 101C31.0012 101 31.0012 101 31.0007 101C31.0001 101 30.9998 101 30.9999 101C31.0001 101 31.0033 101.001 31.0081 101.006C31.0187 101.016 31.0276 101.033 31.0288 101.055L33.0258 100.945C32.9685 99.8992 32.1183 99 31 99L31 101ZM-1 31C-1 32.1183 -0.100786 32.9685 0.945284 33.0258L1.05463 31.0288C1.03335 31.0276 1.0164 31.0187 1.006 31.0081C1.00127 31.0033 0.999846 31.0001 0.999766 30.9999C0.999738 30.9998 0.999868 31.0001 0.999977 31.0006C1.0001 31.0012 1 31.0012 1 31H-1ZM0.945282 66.9742C-0.100789 67.0315 -1 67.8817 -1 69H1C1 68.9988 1.0001 68.9988 0.999977 68.9993C0.999868 68.9999 0.999738 69.0002 0.999766 69.0001C0.999846 68.9999 1.00127 68.9967 1.006 68.9919C1.0164 68.9813 1.03335 68.9724 1.05463 68.9712L0.945282 66.9742ZM33.0258 0.945282C32.9685 -0.100789 32.1183 -1 31 -1V1C31.0012 1 31.0012 1.0001 31.0007 0.999977C31.0001 0.999868 30.9998 0.999738 30.9999 0.999766C31.0001 0.999846 31.0033 1.00127 31.0081 1.006C31.0187 1.0164 31.0276 1.03335 31.0288 1.05463L33.0258 0.945282ZM68.9712 101.055C68.9724 101.033 68.9813 101.016 68.9919 101.006C68.9967 101.001 68.9999 101 69.0001 101C69.0002 101 68.9999 101 68.9993 101C68.9988 101 68.9988 101 69 101V99C67.8817 99 67.0315 99.8992 66.9742 100.945L68.9712 101.055ZM68.9712 1.05463C68.9724 1.03335 68.9813 1.0164 68.9919 1.006C68.9967 1.00127 68.9999 0.999846 69.0001 0.999766C69.0002 0.999738 68.9999 0.999868 68.9994 0.999977C68.9988 1.0001 68.9988 1 69 1V-1C67.8817 -1 67.0315 -0.100786 66.9742 0.945284L68.9712 1.05463Z" fill="#D1D5DB" fill-opacity="0.1" mask="url(#path-1-inside-1_232_5645)"/>
<path d="M27.2258 72.144C26.5965 72.144 26.0738 72.032 25.6578 71.808C25.2525 71.5733 24.9431 71.2267 24.7298 70.768C24.5271 70.3093 24.4258 69.7387 24.4258 69.056V64.768C24.4258 64.544 24.4791 64.3787 24.5858 64.272C24.7031 64.1653 24.8631 64.112 25.0658 64.112C25.2791 64.112 25.4391 64.1653 25.5458 64.272C25.6631 64.3787 25.7218 64.544 25.7218 64.768V69.04C25.7218 69.7227 25.8605 70.2347 26.1378 70.576C26.4258 70.9067 26.8738 71.072 27.4818 71.072C28.1431 71.072 28.6818 70.848 29.0978 70.4C29.5138 69.952 29.7218 69.3653 29.7218 68.64V64.768C29.7218 64.544 29.7751 64.3787 29.8818 64.272C29.9991 64.1653 30.1645 64.112 30.3778 64.112C30.5805 64.112 30.7351 64.1653 30.8418 64.272C30.9591 64.3787 31.0178 64.544 31.0178 64.768V71.44C31.0178 71.888 30.8098 72.112 30.3938 72.112C30.1911 72.112 30.0311 72.0533 29.9138 71.936C29.8071 71.8187 29.7538 71.6533 29.7538 71.44V69.984L29.9618 70.208C29.7485 70.8373 29.3965 71.3173 28.9058 71.648C28.4258 71.9787 27.8658 72.144 27.2258 72.144ZM34.0826 72.112C33.8692 72.112 33.7092 72.0533 33.6026 71.936C33.4959 71.8187 33.4426 71.6533 33.4426 71.44V64.768C33.4426 64.5547 33.4959 64.3947 33.6026 64.288C33.7092 64.1707 33.8639 64.112 34.0666 64.112C34.2692 64.112 34.4239 64.1707 34.5306 64.288C34.6479 64.3947 34.7066 64.5547 34.7066 64.768V66.144L34.5306 65.952C34.7546 65.3333 35.1172 64.8693 35.6186 64.56C36.1306 64.24 36.7172 64.08 37.3786 64.08C37.9972 64.08 38.5092 64.192 38.9146 64.416C39.3306 64.64 39.6399 64.9813 39.8426 65.44C40.0452 65.888 40.1466 66.4587 40.1466 67.152V71.44C40.1466 71.6533 40.0879 71.8187 39.9706 71.936C39.8639 72.0533 39.7092 72.112 39.5066 72.112C39.2932 72.112 39.1279 72.0533 39.0106 71.936C38.9039 71.8187 38.8506 71.6533 38.8506 71.44V67.232C38.8506 66.5067 38.7066 65.9787 38.4186 65.648C38.1412 65.3067 37.6932 65.136 37.0746 65.136C36.3599 65.136 35.7892 65.36 35.3626 65.808C34.9466 66.2453 34.7386 66.832 34.7386 67.568V71.44C34.7386 71.888 34.5199 72.112 34.0826 72.112ZM43.1763 72.112C42.963 72.112 42.803 72.0533 42.6963 71.936C42.5896 71.8187 42.5363 71.6533 42.5363 71.44V61.264C42.5363 61.0507 42.5896 60.8907 42.6963 60.784C42.803 60.6667 42.963 60.608 43.1763 60.608C43.379 60.608 43.539 60.6667 43.6563 60.784C43.7736 60.8907 43.8323 61.0507 43.8323 61.264V65.952H43.6243C43.8483 65.3333 44.211 64.8693 44.7123 64.56C45.2243 64.24 45.811 64.08 46.4723 64.08C47.091 64.08 47.603 64.192 48.0083 64.416C48.4243 64.64 48.7336 64.9813 48.9363 65.44C49.139 65.888 49.2403 66.4587 49.2403 67.152V71.44C49.2403 71.6533 49.1816 71.8187 49.0643 71.936C48.9576 72.0533 48.803 72.112 48.6003 72.112C48.387 72.112 48.2216 72.0533 48.1043 71.936C47.9976 71.8187 47.9443 71.6533 47.9443 71.44V67.232C47.9443 66.5067 47.8003 65.9787 47.5123 65.648C47.235 65.3067 46.787 65.136 46.1683 65.136C45.4536 65.136 44.883 65.36 44.4563 65.808C44.0403 66.2453 43.8323 66.832 43.8323 67.568V71.44C43.8323 71.888 43.6136 72.112 43.1763 72.112ZM55.1341 72.144C54.3127 72.144 53.6034 71.984 53.0061 71.664C52.4194 71.3333 51.9607 70.8693 51.6301 70.272C51.3101 69.6747 51.1501 68.96 51.1501 68.128C51.1501 67.3173 51.3101 66.6133 51.6301 66.016C51.9501 65.408 52.3874 64.9333 52.9421 64.592C53.5074 64.2507 54.1581 64.08 54.8941 64.08C55.4167 64.08 55.8861 64.1707 56.3021 64.352C56.7181 64.5227 57.0701 64.7733 57.3581 65.104C57.6567 65.4347 57.8807 65.8347 58.0301 66.304C58.1901 66.7733 58.2701 67.3013 58.2701 67.888C58.2701 68.0587 58.2221 68.1867 58.1261 68.272C58.0301 68.3467 57.8914 68.384 57.7101 68.384H52.1421V67.536H57.4061L57.1501 67.744C57.1501 67.168 57.0647 66.6827 56.8941 66.288C56.7234 65.8827 56.4727 65.5733 56.1421 65.36C55.8221 65.1467 55.4167 65.04 54.9261 65.04C54.3821 65.04 53.9181 65.168 53.5341 65.424C53.1607 65.6693 52.8781 66.016 52.6861 66.464C52.4941 66.9013 52.3981 67.4133 52.3981 68V68.096C52.3981 69.0773 52.6327 69.824 53.1021 70.336C53.5821 70.848 54.2594 71.104 55.1341 71.104C55.4967 71.104 55.8541 71.056 56.2061 70.96C56.5687 70.864 56.9207 70.704 57.2621 70.48C57.4114 70.384 57.5447 70.3413 57.6621 70.352C57.7901 70.352 57.8914 70.3893 57.9661 70.464C58.0407 70.528 58.0887 70.6133 58.1101 70.72C58.1421 70.816 58.1314 70.9227 58.0781 71.04C58.0354 71.1573 57.9447 71.2587 57.8061 71.344C57.4541 71.6 57.0381 71.7973 56.5581 71.936C56.0781 72.0747 55.6034 72.144 55.1341 72.144ZM62.5937 72.144C62.0604 72.144 61.5804 72.0427 61.1537 71.84C60.7377 71.6267 60.407 71.3387 60.1617 70.976C59.9164 70.6133 59.7937 70.208 59.7937 69.76C59.7937 69.184 59.9377 68.7307 60.2257 68.4C60.5244 68.0693 61.0097 67.8347 61.6817 67.696C62.3644 67.5573 63.2924 67.488 64.4657 67.488H65.1857V68.336H64.4817C63.6177 68.336 62.935 68.3787 62.4337 68.464C61.943 68.5387 61.5964 68.672 61.3937 68.864C61.2017 69.056 61.1057 69.328 61.1057 69.68C61.1057 70.1173 61.255 70.4747 61.5537 70.752C61.863 71.0293 62.279 71.168 62.8017 71.168C63.2284 71.168 63.6017 71.0667 63.9217 70.864C64.2524 70.6613 64.5084 70.384 64.6897 70.032C64.8817 69.68 64.9777 69.2747 64.9777 68.816V66.992C64.9777 66.3307 64.8444 65.856 64.5777 65.568C64.311 65.2693 63.8737 65.12 63.2657 65.12C62.8924 65.12 62.519 65.168 62.1457 65.264C61.7724 65.36 61.3777 65.5147 60.9617 65.728C60.8124 65.8027 60.6844 65.8293 60.5777 65.808C60.471 65.776 60.3857 65.7173 60.3217 65.632C60.2577 65.5467 60.2204 65.4507 60.2097 65.344C60.199 65.2267 60.2204 65.1147 60.2737 65.008C60.3377 64.9013 60.4337 64.816 60.5617 64.752C61.031 64.5173 61.495 64.3467 61.9537 64.24C62.4124 64.1333 62.8497 64.08 63.2657 64.08C63.9377 64.08 64.4924 64.192 64.9297 64.416C65.367 64.6293 65.6924 64.96 65.9057 65.408C66.119 65.8453 66.2257 66.4107 66.2257 67.104V71.44C66.2257 71.6533 66.1724 71.8187 66.0657 71.936C65.9697 72.0533 65.8257 72.112 65.6337 72.112C65.431 72.112 65.2764 72.0533 65.1697 71.936C65.063 71.8187 65.0097 71.6533 65.0097 71.44V70.192H65.1537C65.0684 70.5973 64.903 70.944 64.6577 71.232C64.423 71.52 64.1297 71.744 63.7777 71.904C63.4257 72.064 63.031 72.144 62.5937 72.144ZM71.5901 72.144C70.8967 72.144 70.2887 71.9787 69.7661 71.648C69.2541 71.3173 68.8541 70.8533 68.5661 70.256C68.2887 69.648 68.1501 68.9333 68.1501 68.112C68.1501 67.28 68.2887 66.5653 68.5661 65.968C68.8541 65.36 69.2541 64.896 69.7661 64.576C70.2887 64.2453 70.8967 64.08 71.5901 64.08C72.2941 64.08 72.8967 64.256 73.3981 64.608C73.8994 64.96 74.2354 65.4347 74.4061 66.032H74.2301V61.264C74.2301 61.0507 74.2834 60.8907 74.3901 60.784C74.5074 60.6667 74.6727 60.608 74.8861 60.608C75.0887 60.608 75.2434 60.6667 75.3501 60.784C75.4674 60.8907 75.5261 61.0507 75.5261 61.264V71.44C75.5261 71.6533 75.4727 71.8187 75.3661 71.936C75.2594 72.0533 75.0994 72.112 74.8861 72.112C74.6834 72.112 74.5234 72.0533 74.4061 71.936C74.2994 71.8187 74.2461 71.6533 74.2461 71.44V69.92L74.4221 70.144C74.2514 70.752 73.9101 71.2373 73.3981 71.6C72.8967 71.9627 72.2941 72.144 71.5901 72.144ZM71.8621 71.104C72.3421 71.104 72.7634 70.9867 73.1261 70.752C73.4887 70.5173 73.7661 70.176 73.9581 69.728C74.1607 69.28 74.2621 68.7413 74.2621 68.112C74.2621 67.1413 74.0434 66.4 73.6061 65.888C73.1794 65.376 72.5981 65.12 71.8621 65.12C71.3714 65.12 70.9447 65.2373 70.5821 65.472C70.2301 65.696 69.9527 66.032 69.7501 66.48C69.5581 66.9173 69.4621 67.4613 69.4621 68.112C69.4621 69.072 69.6807 69.8133 70.1181 70.336C70.5554 70.848 71.1367 71.104 71.8621 71.104Z" fill="#111827"/>
<g clip-path="url(#clip0_232_5645)">
<path d="M37.1164 51L50.0124 28.696L62.8764 51H37.1164ZM39.3244 49.72H60.6684L50.0124 31.224L39.3244 49.72Z" fill="black"/>
</g>
<defs>
<clipPath id="clip0_232_5645">
<rect width="28" height="28" fill="white" transform="translate(36 26)"/>
</clipPath>
</defs>
</svg>
