<svg width="118" height="100" viewBox="0 0 118 100" fill="none" xmlns="http://www.w3.org/2000/svg">
<mask id="path-1-inside-1_232_5442" fill="white">
<path fill-rule="evenodd" clip-rule="evenodd" d="M68 18C77.6056 18 85.4538 10.476 85.9727 0.999956C86.0029 0.448497 86.4477 0 87 0L114 0C116.209 0 118 1.79086 118 4L118 31C118 31.5523 117.552 31.9971 117 32.0273C107.524 32.5462 100 40.3944 100 50C100 59.6056 107.524 67.4538 117 67.9727C117.552 68.0029 118 68.4477 118 69L118 96C118 98.2091 116.209 100 114 100H87C86.4477 100 86.0029 99.5515 85.9727 99C85.4538 89.524 77.6056 82 68 82C58.3944 82 50.5462 89.524 50.0273 99C49.9971 99.5515 49.5523 100 49 100L22 100C19.7909 100 18 98.2091 18 96L18 69C18 68.4477 17.5515 68.0029 17 67.9727C7.52403 67.4538 0 59.6056 0 50C0 40.3944 7.52403 32.5462 17 32.0273C17.5515 31.9971 18 31.5523 18 31L18 4C18 1.79086 19.7909 0 22 0L49 0C49.5523 0 49.9971 0.448498 50.0273 0.999957C50.5462 10.476 58.3944 18 68 18Z"/>
</mask>
<path fill-rule="evenodd" clip-rule="evenodd" d="M68 18C77.6056 18 85.4538 10.476 85.9727 0.999956C86.0029 0.448497 86.4477 0 87 0L114 0C116.209 0 118 1.79086 118 4L118 31C118 31.5523 117.552 31.9971 117 32.0273C107.524 32.5462 100 40.3944 100 50C100 59.6056 107.524 67.4538 117 67.9727C117.552 68.0029 118 68.4477 118 69L118 96C118 98.2091 116.209 100 114 100H87C86.4477 100 86.0029 99.5515 85.9727 99C85.4538 89.524 77.6056 82 68 82C58.3944 82 50.5462 89.524 50.0273 99C49.9971 99.5515 49.5523 100 49 100L22 100C19.7909 100 18 98.2091 18 96L18 69C18 68.4477 17.5515 68.0029 17 67.9727C7.52403 67.4538 0 59.6056 0 50C0 40.3944 7.52403 32.5462 17 32.0273C17.5515 31.9971 18 31.5523 18 31L18 4C18 1.79086 19.7909 0 22 0L49 0C49.5523 0 49.9971 0.448498 50.0273 0.999957C50.5462 10.476 58.3944 18 68 18Z" fill="white"/>
<path d="M18 96L17 96V96H18ZM18 4L17 4L17 4L18 4ZM50.0273 0.999957L51.0258 0.945284L50.0273 0.999957ZM17 32.0273L16.9454 31.0288L17 32.0273ZM18 31L17 31L18 31ZM18 69L17 69L18 69ZM17 67.9727L16.9454 68.9712L17 67.9727ZM50.0273 99L49.0288 98.9454L50.0273 99ZM117 67.9727L117.055 66.9742L117 67.9727ZM85.9727 99L86.9712 98.9454L85.9727 99ZM117 32.0273L117.055 33.0258L117 32.0273ZM84.9742 0.945282C84.4842 9.89397 77.0716 17 68 17V19C78.1396 19 86.4235 11.058 86.9712 1.05463L84.9742 0.945282ZM114 -1L87 -1V1L114 1V-1ZM119 4C119 1.23858 116.761 -1 114 -1V1C115.657 1 117 2.34315 117 4H119ZM119 31L119 4H117L117 31H119ZM101 50C101 40.9284 108.106 33.5158 117.055 33.0258L116.945 31.0288C106.942 31.5765 99 39.8604 99 50H101ZM117.055 66.9742C108.106 66.4842 101 59.0716 101 50H99C99 60.1396 106.942 68.4235 116.945 68.9712L117.055 66.9742ZM119 96L119 69H117L117 96H119ZM114 101C116.761 101 119 98.7614 119 96H117C117 97.6569 115.657 99 114 99V101ZM87 101H114V99H87V101ZM68 83C77.0716 83 84.4842 90.106 84.9742 99.0547L86.9712 98.9454C86.4235 88.942 78.1396 81 68 81V83ZM51.0258 99.0547C51.5158 90.106 58.9284 83 68 83V81C57.8604 81 49.5765 88.942 49.0288 98.9454L51.0258 99.0547ZM22 101L49 101V99L22 99L22 101ZM17 96C17 98.7614 19.2386 101 22 101L22 99C20.3431 99 19 97.6569 19 96H17ZM17 69L17 96L19 96L19 69L17 69ZM17.0547 66.9742C8.10603 66.4842 1 59.0716 1 50H-1C-1 60.1396 6.94204 68.4235 16.9454 68.9712L17.0547 66.9742ZM1 50C1 40.9284 8.10603 33.5158 17.0547 33.0258L16.9454 31.0288C6.94204 31.5765 -1 39.8604 -1 50H1ZM17 4L17 31L19 31L19 4L17 4ZM22 -1C19.2386 -1 17 1.23858 17 4L19 4C19 2.34315 20.3431 1 22 1V-1ZM49 -1L22 -1V1L49 1V-1ZM68 17C58.9284 17 51.5158 9.89397 51.0258 0.945284L49.0288 1.05463C49.5765 11.058 57.8604 19 68 19V17ZM49 1C49.0012 1 49.0012 1.0001 49.0006 0.999977C49.0001 0.999868 48.9998 0.999738 48.9999 0.999766C49.0001 0.999846 49.0033 1.00127 49.0081 1.006C49.0187 1.0164 49.0276 1.03335 49.0288 1.05463L51.0258 0.945284C50.9685 -0.100786 50.1183 -1 49 -1V1ZM17.0547 33.0258C18.1008 32.9685 19 32.1183 19 31L17 31C17 31.0012 16.9999 31.0012 17 31.0006C17.0001 31.0001 17.0003 30.9998 17.0002 30.9999C17.0002 31.0001 16.9987 31.0033 16.994 31.0081C16.9836 31.0187 16.9666 31.0276 16.9454 31.0288L17.0547 33.0258ZM19 69C19 67.8817 18.1008 67.0315 17.0547 66.9742L16.9454 68.9712C16.9667 68.9724 16.9836 68.9813 16.994 68.9919C16.9987 68.9967 17.0002 68.9999 17.0002 69.0001C17.0003 69.0002 17.0001 68.9999 17 68.9994C16.9999 68.9988 17 68.9988 17 69L19 69ZM86.9712 1.05463C86.9724 1.03335 86.9813 1.0164 86.9919 1.006C86.9967 1.00127 86.9999 0.999846 87.0001 0.999766C87.0002 0.999738 86.9999 0.999868 86.9993 0.999977C86.9988 1.0001 86.9988 1 87 1V-1C85.8817 -1 85.0315 -0.100789 84.9742 0.945282L86.9712 1.05463ZM49.0288 98.9454C49.0276 98.9667 49.0187 98.9836 49.0081 98.994C49.0033 98.9987 49.0001 99.0002 48.9999 99.0002C48.9998 99.0003 49.0001 99.0001 49.0007 99C49.0012 98.9999 49.0012 99 49 99V101C50.1183 101 50.9685 100.101 51.0258 99.0547L49.0288 98.9454ZM116.945 68.9712C116.967 68.9724 116.984 68.9813 116.994 68.9919C116.999 68.9967 117 68.9999 117 69.0001C117 69.0002 117 68.9999 117 68.9993C117 68.9988 117 68.9988 117 69H119C119 67.8817 118.101 67.0315 117.055 66.9742L116.945 68.9712ZM87 99C86.9988 99 86.9988 98.9999 86.9994 99C86.9999 99.0001 87.0002 99.0003 87.0001 99.0002C86.9999 99.0002 86.9967 98.9987 86.9919 98.994C86.9813 98.9836 86.9724 98.9666 86.9712 98.9454L84.9742 99.0547C85.0315 100.101 85.8817 101 87 101V99ZM117 31C117 31.0012 117 31.0012 117 31.0006C117 31.0001 117 30.9998 117 30.9999C117 31.0001 116.999 31.0033 116.994 31.0081C116.984 31.0187 116.967 31.0276 116.945 31.0288L117.055 33.0258C118.101 32.9685 119 32.1183 119 31H117Z" fill="#D1D5DB" fill-opacity="0.1" mask="url(#path-1-inside-1_232_5442)"/>
<path d="M39.2414 72.144C38.6121 72.144 38.0894 72.032 37.6734 71.808C37.2681 71.5733 36.9588 71.2267 36.7454 70.768C36.5428 70.3093 36.4414 69.7387 36.4414 69.056V64.768C36.4414 64.544 36.4948 64.3787 36.6014 64.272C36.7188 64.1653 36.8788 64.112 37.0814 64.112C37.2948 64.112 37.4548 64.1653 37.5614 64.272C37.6788 64.3787 37.7374 64.544 37.7374 64.768V69.04C37.7374 69.7227 37.8761 70.2347 38.1534 70.576C38.4414 70.9067 38.8894 71.072 39.4974 71.072C40.1588 71.072 40.6974 70.848 41.1134 70.4C41.5294 69.952 41.7374 69.3653 41.7374 68.64V64.768C41.7374 64.544 41.7908 64.3787 41.8974 64.272C42.0148 64.1653 42.1801 64.112 42.3934 64.112C42.5961 64.112 42.7508 64.1653 42.8574 64.272C42.9748 64.3787 43.0334 64.544 43.0334 64.768V71.44C43.0334 71.888 42.8254 72.112 42.4094 72.112C42.2068 72.112 42.0468 72.0533 41.9294 71.936C41.8228 71.8187 41.7694 71.6533 41.7694 71.44V69.984L41.9774 70.208C41.7641 70.8373 41.4121 71.3173 40.9214 71.648C40.4414 71.9787 39.8814 72.144 39.2414 72.144ZM46.0982 72.112C45.8849 72.112 45.7249 72.0533 45.6182 71.936C45.5115 71.8187 45.4582 71.6533 45.4582 71.44V64.768C45.4582 64.5547 45.5115 64.3947 45.6182 64.288C45.7249 64.1707 45.8795 64.112 46.0822 64.112C46.2849 64.112 46.4395 64.1707 46.5462 64.288C46.6635 64.3947 46.7222 64.5547 46.7222 64.768V66.144L46.5462 65.952C46.7702 65.3333 47.1329 64.8693 47.6342 64.56C48.1462 64.24 48.7329 64.08 49.3942 64.08C50.0129 64.08 50.5249 64.192 50.9302 64.416C51.3462 64.64 51.6555 64.9813 51.8582 65.44C52.0609 65.888 52.1622 66.4587 52.1622 67.152V71.44C52.1622 71.6533 52.1035 71.8187 51.9862 71.936C51.8795 72.0533 51.7249 72.112 51.5222 72.112C51.3089 72.112 51.1435 72.0533 51.0262 71.936C50.9195 71.8187 50.8662 71.6533 50.8662 71.44V67.232C50.8662 66.5067 50.7222 65.9787 50.4342 65.648C50.1569 65.3067 49.7089 65.136 49.0902 65.136C48.3755 65.136 47.8049 65.36 47.3782 65.808C46.9622 66.2453 46.7542 66.832 46.7542 67.568V71.44C46.7542 71.888 46.5355 72.112 46.0982 72.112ZM55.1919 72.08C54.9786 72.08 54.8186 72.0213 54.7119 71.904C54.6053 71.776 54.5519 71.6 54.5519 71.376V64.832C54.5519 64.608 54.6053 64.4373 54.7119 64.32C54.8186 64.2027 54.9786 64.144 55.1919 64.144C55.3946 64.144 55.5546 64.2027 55.6719 64.32C55.7893 64.4373 55.8479 64.608 55.8479 64.832V71.376C55.8479 71.6 55.7893 71.776 55.6719 71.904C55.5653 72.0213 55.4053 72.08 55.1919 72.08ZM55.1919 62.352C54.9253 62.352 54.7173 62.2827 54.5679 62.144C54.4186 61.9947 54.3439 61.7973 54.3439 61.552C54.3439 61.296 54.4186 61.104 54.5679 60.976C54.7173 60.8373 54.9253 60.768 55.1919 60.768C55.4693 60.768 55.6773 60.8373 55.8159 60.976C55.9653 61.104 56.0399 61.296 56.0399 61.552C56.0399 61.7973 55.9653 61.9947 55.8159 62.144C55.6773 62.2827 55.4693 62.352 55.1919 62.352ZM58.9427 72.112C58.7294 72.112 58.5694 72.0533 58.4627 71.936C58.356 71.8187 58.3027 71.6533 58.3027 71.44V64.768C58.3027 64.5547 58.356 64.3947 58.4627 64.288C58.5694 64.1707 58.724 64.112 58.9267 64.112C59.1294 64.112 59.284 64.1707 59.3907 64.288C59.508 64.3947 59.5667 64.5547 59.5667 64.768V66.176L59.3907 65.952C59.5934 65.3547 59.9187 64.896 60.3667 64.576C60.8254 64.2453 61.3694 64.08 61.9987 64.08C62.66 64.08 63.1934 64.24 63.5987 64.56C64.0147 64.8693 64.292 65.3547 64.4307 66.016H64.1907C64.3827 65.4187 64.724 64.9493 65.2147 64.608C65.716 64.256 66.2974 64.08 66.9587 64.08C67.5454 64.08 68.0254 64.192 68.3987 64.416C68.7827 64.64 69.0707 64.9813 69.2627 65.44C69.4547 65.888 69.5507 66.4587 69.5507 67.152V71.44C69.5507 71.6533 69.492 71.8187 69.3747 71.936C69.268 72.0533 69.108 72.112 68.8947 72.112C68.692 72.112 68.532 72.0533 68.4147 71.936C68.308 71.8187 68.2547 71.6533 68.2547 71.44V67.216C68.2547 66.5013 68.132 65.9787 67.8867 65.648C67.6414 65.3067 67.2254 65.136 66.6387 65.136C65.9987 65.136 65.492 65.36 65.1187 65.808C64.756 66.2453 64.5747 66.8427 64.5747 67.6V71.44C64.5747 71.6533 64.516 71.8187 64.3987 71.936C64.292 72.0533 64.132 72.112 63.9187 72.112C63.716 72.112 63.556 72.0533 63.4387 71.936C63.332 71.8187 63.2787 71.6533 63.2787 71.44V67.216C63.2787 66.5013 63.1507 65.9787 62.8947 65.648C62.6494 65.3067 62.2387 65.136 61.6627 65.136C61.0227 65.136 60.516 65.36 60.1427 65.808C59.78 66.2453 59.5987 66.8427 59.5987 67.6V71.44C59.5987 71.888 59.38 72.112 58.9427 72.112ZM72.6138 74.992C72.4005 74.992 72.2405 74.9333 72.1338 74.816C72.0271 74.7093 71.9738 74.5493 71.9738 74.336V64.768C71.9738 64.5547 72.0271 64.3947 72.1338 64.288C72.2405 64.1707 72.3951 64.112 72.5978 64.112C72.8111 64.112 72.9711 64.1707 73.0778 64.288C73.1951 64.3947 73.2538 64.5547 73.2538 64.768V66.288L73.0778 66.064C73.2485 65.456 73.5845 64.976 74.0858 64.624C74.5978 64.2613 75.2058 64.08 75.9098 64.08C76.6031 64.08 77.2058 64.2453 77.7178 64.576C78.2405 64.896 78.6405 65.36 78.9178 65.968C79.2058 66.5653 79.3498 67.28 79.3498 68.112C79.3498 68.9333 79.2058 69.648 78.9178 70.256C78.6405 70.8533 78.2458 71.3173 77.7338 71.648C77.2218 71.9787 76.6138 72.144 75.9098 72.144C75.2058 72.144 74.6031 71.968 74.1018 71.616C73.6005 71.2533 73.2591 70.7733 73.0778 70.176H73.2698V74.336C73.2698 74.5493 73.2111 74.7093 73.0938 74.816C72.9765 74.9333 72.8165 74.992 72.6138 74.992ZM75.6378 71.104C76.1285 71.104 76.5498 70.9867 76.9018 70.752C77.2645 70.5173 77.5418 70.176 77.7338 69.728C77.9365 69.28 78.0378 68.7413 78.0378 68.112C78.0378 67.1413 77.8191 66.4 77.3818 65.888C76.9551 65.376 76.3738 65.12 75.6378 65.12C75.1578 65.12 74.7365 65.2373 74.3738 65.472C74.0111 65.696 73.7285 66.032 73.5258 66.48C73.3338 66.9173 73.2378 67.4613 73.2378 68.112C73.2378 69.072 73.4565 69.8133 73.8938 70.336C74.3311 70.848 74.9125 71.104 75.6378 71.104ZM84.5339 72.144C83.7766 72.144 83.1206 71.9787 82.5659 71.648C82.0113 71.3173 81.5793 70.8533 81.2699 70.256C80.9713 69.648 80.8219 68.9333 80.8219 68.112C80.8219 67.4933 80.9073 66.9387 81.0779 66.448C81.2486 65.9467 81.4993 65.52 81.8299 65.168C82.1606 64.816 82.5499 64.5493 82.9979 64.368C83.4566 64.176 83.9686 64.08 84.5339 64.08C85.2913 64.08 85.9473 64.2453 86.5019 64.576C87.0566 64.9067 87.4833 65.376 87.7819 65.984C88.0913 66.5813 88.2459 67.2907 88.2459 68.112C88.2459 68.7307 88.1606 69.2853 87.9899 69.776C87.8193 70.2667 87.5686 70.6933 87.2379 71.056C86.9073 71.408 86.5126 71.68 86.0539 71.872C85.6059 72.0533 85.0993 72.144 84.5339 72.144ZM84.5339 71.104C85.0139 71.104 85.4353 70.9867 85.7979 70.752C86.1606 70.5173 86.4379 70.176 86.6299 69.728C86.8326 69.28 86.9339 68.7413 86.9339 68.112C86.9339 67.1413 86.7153 66.4 86.2779 65.888C85.8513 65.376 85.2699 65.12 84.5339 65.12C84.0433 65.12 83.6166 65.2373 83.2539 65.472C82.9019 65.696 82.6246 66.032 82.4219 66.48C82.2299 66.9173 82.1339 67.4613 82.1339 68.112C82.1339 69.072 82.3526 69.8133 82.7899 70.336C83.2273 70.848 83.8086 71.104 84.5339 71.104ZM90.8486 72.112C90.6352 72.112 90.4699 72.0533 90.3526 71.936C90.2459 71.8187 90.1926 71.6533 90.1926 71.44V64.768C90.1926 64.5547 90.2459 64.3947 90.3526 64.288C90.4592 64.1707 90.6139 64.112 90.8166 64.112C91.0192 64.112 91.1739 64.1707 91.2806 64.288C91.3979 64.3947 91.4566 64.5547 91.4566 64.768V66.064H91.2966C91.4672 65.4347 91.7926 64.9493 92.2726 64.608C92.7526 64.2667 93.3446 64.0853 94.0486 64.064C94.2086 64.0533 94.3366 64.0907 94.4326 64.176C94.5286 64.2507 94.5819 64.384 94.5926 64.576C94.6032 64.7573 94.5606 64.9013 94.4646 65.008C94.3686 65.1147 94.2192 65.1787 94.0166 65.2L93.7606 65.232C93.0352 65.296 92.4752 65.5307 92.0806 65.936C91.6966 66.3307 91.5046 66.8747 91.5046 67.568V71.44C91.5046 71.6533 91.4459 71.8187 91.3286 71.936C91.2219 72.0533 91.0619 72.112 90.8486 72.112ZM99.4688 72.144C98.8608 72.144 98.3488 72.0373 97.9328 71.824C97.5275 71.6 97.2235 71.28 97.0208 70.864C96.8181 70.4373 96.7168 69.92 96.7168 69.312V65.232H95.6448C95.4635 65.232 95.3248 65.1893 95.2288 65.104C95.1328 65.008 95.0848 64.88 95.0848 64.72C95.0848 64.56 95.1328 64.4373 95.2288 64.352C95.3248 64.2667 95.4635 64.224 95.6448 64.224H96.7168V62.384C96.7168 62.1707 96.7755 62.0107 96.8928 61.904C97.0101 61.7867 97.1701 61.728 97.3728 61.728C97.5755 61.728 97.7301 61.7867 97.8368 61.904C97.9541 62.0107 98.0128 62.1707 98.0128 62.384V64.224H100.029C100.21 64.224 100.349 64.2667 100.445 64.352C100.541 64.4373 100.589 64.56 100.589 64.72C100.589 64.88 100.541 65.008 100.445 65.104C100.349 65.1893 100.21 65.232 100.029 65.232H98.0128V69.184C98.0128 69.792 98.1408 70.256 98.3968 70.576C98.6528 70.8853 99.0688 71.04 99.6448 71.04C99.8475 71.04 100.018 71.0187 100.157 70.976C100.306 70.9333 100.429 70.912 100.525 70.912C100.621 70.9013 100.701 70.9333 100.765 71.008C100.829 71.0827 100.861 71.2107 100.861 71.392C100.861 71.52 100.834 71.6373 100.781 71.744C100.738 71.8507 100.658 71.9253 100.541 71.968C100.413 72.0107 100.242 72.048 100.029 72.08C99.8261 72.1227 99.6395 72.144 99.4688 72.144Z" fill="#111827"/>
<g clip-path="url(#clip0_232_5442)">
<mask id="mask0_232_5442" style="mask-type:luminance" maskUnits="userSpaceOnUse" x="54" y="26" width="28" height="28">
<path d="M82 26H54V54H82V26Z" fill="white"/>
</mask>
<g mask="url(#mask0_232_5442)">
<path d="M81.9249 54.0193C72.617 54.0193 63.3193 54.0193 54.0216 54.0193C54.0208 54.0168 54.0194 54.0143 54.0194 54.0118C54.0193 44.6818 54.0193 35.3518 54.0193 26.0205C63.3518 26.0205 72.6842 26.0205 82.018 26.0205C82.018 35.3516 82.018 44.6839 82.018 54.0193C81.9913 54.0193 81.9632 54.0193 81.9249 54.0193ZM77.1106 44.3175C77.0659 44.2665 77.0236 44.2132 76.9762 44.1649C76.4504 43.6303 75.7884 43.5189 75.0836 43.5825C74.4722 43.6378 73.9486 43.9068 73.496 44.3174C73.4715 44.3396 73.4448 44.3593 73.4096 44.388C73.4096 44.3308 73.4119 44.289 73.4092 44.2476C73.396 44.0444 73.3006 43.8905 73.1199 43.7979C72.9428 43.7072 72.7618 43.7159 72.5948 43.8226C72.409 43.9412 72.3456 44.1236 72.3458 44.338C72.3472 45.9439 72.3466 47.5498 72.3466 49.1557C72.3466 49.2559 72.3446 49.3561 72.347 49.4562C72.3532 49.714 72.4899 49.9182 72.6974 49.9836C73.0616 50.0982 73.409 49.8458 73.4095 49.4617C73.4109 48.3598 73.4106 47.258 73.4096 46.1562C73.4093 45.8458 73.4878 45.5613 73.6857 45.319C74.1469 44.7546 74.7441 44.5162 75.4665 44.5984C75.8184 44.6386 76.1027 44.8018 76.2977 45.1034C76.4807 45.3864 76.5434 45.7058 76.5459 46.0348C76.5528 46.9426 76.5502 47.8506 76.5511 48.7585C76.5514 49.0073 76.5473 49.2562 76.5521 49.5049C76.5597 49.894 76.9779 50.1348 77.3203 49.9499C77.5381 49.8324 77.6154 49.6402 77.6152 49.4028C77.6138 48.3721 77.6168 47.3413 77.6129 46.3106C77.612 46.0658 77.6038 45.8195 77.5753 45.5766C77.5226 45.1263 77.3976 44.6983 77.1106 44.3175ZM70.4079 43.742C70.3439 43.7465 70.2773 43.7412 70.2164 43.7574C69.9628 43.8248 69.823 44.0264 69.8229 44.3192C69.8222 45.3694 69.8244 46.4197 69.8209 47.4699C69.8203 47.6435 69.8112 47.8198 69.7806 47.9902C69.6997 48.4401 69.4584 48.7771 69.0256 48.9478C68.6039 49.1141 68.1697 49.1199 67.7331 49.0014C67.4019 48.9115 67.148 48.7214 66.9821 48.4195C66.8632 48.2031 66.8054 47.9671 66.801 47.723C66.7924 47.2288 66.7953 46.7343 66.7948 46.2399C66.794 45.6001 66.7956 44.9603 66.7941 44.3205C66.7934 44.0054 66.5841 43.7579 66.3103 43.7419C65.9712 43.7221 65.732 43.953 65.7316 44.3066C65.7305 45.3859 65.7291 46.4652 65.7324 47.5445C65.7336 47.9303 65.775 48.3109 65.922 48.6741C66.2006 49.3632 66.7206 49.7791 67.4184 49.9816C67.8575 50.109 68.3099 50.1167 68.7631 50.0634C69.1133 50.0222 69.448 49.9266 69.753 49.7494C70.4732 49.3308 70.8396 48.68 70.8628 47.8674C70.8969 46.676 70.883 45.4831 70.8843 44.2909C70.8846 43.9917 70.7087 43.7932 70.4079 43.742Z" fill="#ECDC5A"/>
<path d="M77.1144 44.3232C77.3976 44.6982 77.5226 45.1263 77.5753 45.5766C77.6038 45.8195 77.612 46.0658 77.613 46.3106C77.6169 47.3413 77.6139 48.372 77.6152 49.4028C77.6155 49.6402 77.5381 49.8324 77.3203 49.9499C76.9779 50.1347 76.5597 49.8939 76.5522 49.5049C76.5473 49.2562 76.5514 49.0073 76.5512 48.7585C76.5502 47.8506 76.5528 46.9426 76.5459 46.0347C76.5434 45.7058 76.4808 45.3864 76.2977 45.1034C76.1027 44.8018 75.8184 44.6385 75.4665 44.5984C74.7441 44.5161 74.1469 44.7545 73.6857 45.319C73.4878 45.5613 73.4093 45.8458 73.4096 46.1561C73.4106 47.258 73.4109 48.3598 73.4095 49.4616C73.409 49.8457 73.0616 50.0982 72.6975 49.9836C72.4899 49.9182 72.3532 49.714 72.347 49.4562C72.3446 49.3561 72.3466 49.2559 72.3466 49.1557C72.3466 47.5498 72.3472 45.9439 72.3458 44.338C72.3457 44.1236 72.4091 43.9412 72.5948 43.8226C72.7618 43.7158 72.9429 43.7072 73.1199 43.7979C73.3006 43.8904 73.396 44.0444 73.4092 44.2475C73.4119 44.289 73.4096 44.3307 73.4096 44.3879C73.4448 44.3593 73.4715 44.3396 73.496 44.3174C73.9486 43.9068 74.4723 43.6377 75.0836 43.5825C75.7884 43.5188 76.4505 43.6303 76.9762 44.1649C77.0236 44.2131 77.0659 44.2665 77.1144 44.3232Z" fill="#111827"/>
<path d="M70.4165 43.7424C70.7087 43.7932 70.8847 43.9917 70.8843 44.2909C70.883 45.4831 70.8969 46.676 70.8629 47.8674C70.8396 48.6801 70.4732 49.3308 69.753 49.7493C69.4481 49.9266 69.1133 50.0221 68.7631 50.0633C68.3099 50.1167 67.8575 50.1089 67.4184 49.9815C66.7207 49.7791 66.2006 49.3631 65.922 48.6741C65.7751 48.3109 65.7336 47.9303 65.7324 47.5445C65.7291 46.4652 65.7305 45.3859 65.7317 44.3066C65.7321 43.953 65.9712 43.7221 66.3103 43.7419C66.5841 43.7579 66.7934 44.0054 66.7941 44.3205C66.7956 44.9603 66.7941 45.6001 66.7948 46.2399C66.7953 46.7343 66.7924 47.2288 66.8011 47.723C66.8054 47.9671 66.8633 48.2031 66.9821 48.4195C67.148 48.7215 67.4019 48.9115 67.7331 49.0014C68.1697 49.1199 68.6039 49.1141 69.0256 48.9478C69.4585 48.7771 69.6997 48.4401 69.7806 47.9903C69.8112 47.8198 69.8203 47.6435 69.8209 47.4699C69.8244 46.4197 69.8223 45.3695 69.8229 44.3193C69.8231 44.0265 69.9629 43.8248 70.2165 43.7574C70.2773 43.7412 70.3439 43.7465 70.4165 43.7424Z" fill="#111827"/>
</g>
</g>
<defs>
<clipPath id="clip0_232_5442">
<rect width="28" height="28" fill="white" transform="translate(54 26)"/>
</clipPath>
</defs>
</svg>
