<svg width="100" height="118" viewBox="0 0 100 118" fill="none" xmlns="http://www.w3.org/2000/svg">
<mask id="path-1-inside-1_232_5435" fill="white">
<path fill-rule="evenodd" clip-rule="evenodd" d="M69 0C68.4477 0 68.0029 0.448498 67.9727 0.999957C67.4538 10.476 59.6056 18 50 18C40.3944 18 32.5462 10.476 32.0273 0.999956C31.9971 0.448497 31.5523 0 31 0L4 0C1.79086 0 0 1.79086 0 4L0 31C0 31.5523 0.448498 31.9971 0.999957 32.0273C10.476 32.5462 18 40.3944 18 50C18 59.6056 10.476 67.4538 0.999956 67.9727C0.448497 68.0029 0 68.4477 0 69L0 96C0 98.2091 1.79086 100 4 100H31C31.5523 100 31.9971 100.448 32.0273 101C32.5462 110.476 40.3944 118 50 118C59.6056 118 67.4538 110.476 67.9727 101C68.0029 100.448 68.4477 100 69 100H96C98.2091 100 100 98.2091 100 96V69C100 68.4477 99.5515 68.0029 99 67.9727C89.524 67.4538 82 59.6056 82 50C82 40.3944 89.524 32.5462 99 32.0273C99.5515 31.9971 100 31.5523 100 31V4C100 1.79086 98.2091 0 96 0L69 0Z"/>
</mask>
<path fill-rule="evenodd" clip-rule="evenodd" d="M69 0C68.4477 0 68.0029 0.448498 67.9727 0.999957C67.4538 10.476 59.6056 18 50 18C40.3944 18 32.5462 10.476 32.0273 0.999956C31.9971 0.448497 31.5523 0 31 0L4 0C1.79086 0 0 1.79086 0 4L0 31C0 31.5523 0.448498 31.9971 0.999957 32.0273C10.476 32.5462 18 40.3944 18 50C18 59.6056 10.476 67.4538 0.999956 67.9727C0.448497 68.0029 0 68.4477 0 69L0 96C0 98.2091 1.79086 100 4 100H31C31.5523 100 31.9971 100.448 32.0273 101C32.5462 110.476 40.3944 118 50 118C59.6056 118 67.4538 110.476 67.9727 101C68.0029 100.448 68.4477 100 69 100H96C98.2091 100 100 98.2091 100 96V69C100 68.4477 99.5515 68.0029 99 67.9727C89.524 67.4538 82 59.6056 82 50C82 40.3944 89.524 32.5462 99 32.0273C99.5515 31.9971 100 31.5523 100 31V4C100 1.79086 98.2091 0 96 0L69 0Z" fill="white"/>
<path d="M99 32.0273L98.9454 31.0288L99 32.0273ZM99 67.9727L98.9454 68.9712L99 67.9727ZM32.0273 101L33.0258 100.945L32.0273 101ZM0.999957 32.0273L0.945284 33.0258L0.999957 32.0273ZM32.0273 0.999956L31.0288 1.05463L32.0273 0.999956ZM67.9727 101L66.9742 100.945L67.9727 101ZM67.9727 0.999957L66.9742 0.945284L67.9727 0.999957ZM50 19C60.1396 19 68.4235 11.058 68.9712 1.05463L66.9742 0.945284C66.4842 9.89397 59.0716 17 50 17L50 19ZM31.0288 1.05463C31.5765 11.058 39.8604 19 50 19L50 17C40.9284 17 33.5158 9.89397 33.0258 0.945282L31.0288 1.05463ZM4 1L31 1V-1L4 -1V1ZM1 4C1 2.34315 2.34315 1 4 1V-1C1.23858 -1 -1 1.23858 -1 4H1ZM1 31L1 4H-1L-1 31H1ZM19 50C19 39.8604 11.058 31.5765 1.05463 31.0288L0.945284 33.0258C9.89397 33.5158 17 40.9284 17 50L19 50ZM1.05463 68.9712C11.058 68.4235 19 60.1396 19 50L17 50C17 59.0716 9.89397 66.4842 0.945282 66.9742L1.05463 68.9712ZM1 96L1 69H-1L-1 96H1ZM4 99C2.34315 99 1 97.6569 1 96H-1C-1 98.7614 1.23858 101 4 101V99ZM31 99H4V101H31L31 99ZM50 117C40.9284 117 33.5158 109.894 33.0258 100.945L31.0288 101.055C31.5765 111.058 39.8604 119 50 119V117ZM66.9742 100.945C66.4842 109.894 59.0716 117 50 117V119C60.1396 119 68.4235 111.058 68.9712 101.055L66.9742 100.945ZM96 99H69V101H96V99ZM99 96C99 97.6569 97.6569 99 96 99V101C98.7614 101 101 98.7614 101 96H99ZM99 69V96H101V69H99ZM81 50C81 60.1396 88.942 68.4235 98.9454 68.9712L99.0547 66.9742C90.106 66.4842 83 59.0716 83 50H81ZM98.9454 31.0288C88.942 31.5765 81 39.8604 81 50H83C83 40.9284 90.106 33.5158 99.0547 33.0258L98.9454 31.0288ZM99 4V31H101V4L99 4ZM96 1C97.6569 1 99 2.34315 99 4L101 4C101 1.23858 98.7614 -1 96 -1V1ZM69 1L96 1V-1L69 -1V1ZM99.0547 33.0258C100.101 32.9685 101 32.1183 101 31H99C99 31.0012 98.9999 31.0012 99 31.0007C99.0001 31.0001 99.0003 30.9998 99.0002 30.9999C99.0002 31.0001 98.9987 31.0033 98.994 31.0081C98.9836 31.0187 98.9667 31.0276 98.9454 31.0288L99.0547 33.0258ZM101 69C101 67.8817 100.101 67.0315 99.0547 66.9742L98.9454 68.9712C98.9666 68.9724 98.9836 68.9813 98.994 68.9919C98.9987 68.9967 99.0002 68.9999 99.0002 69.0001C99.0003 69.0002 99.0001 68.9999 99 68.9994C98.9999 68.9988 99 68.9988 99 69H101ZM31 101C31.0012 101 31.0012 101 31.0006 101C31.0001 101 30.9998 101 30.9999 101C31.0001 101 31.0033 101.001 31.0081 101.006C31.0187 101.016 31.0276 101.033 31.0288 101.055L33.0258 100.945C32.9685 99.8992 32.1183 99 31 99L31 101ZM-1 31C-1 32.1183 -0.100786 32.9685 0.945284 33.0258L1.05463 31.0288C1.03335 31.0276 1.0164 31.0187 1.006 31.0081C1.00127 31.0033 0.999846 31.0001 0.999766 30.9999C0.999738 30.9998 0.999868 31.0001 0.999977 31.0006C1.0001 31.0012 1 31.0012 1 31H-1ZM0.945282 66.9742C-0.100789 67.0315 -1 67.8817 -1 69H1C1 68.9988 1.0001 68.9988 0.999977 68.9993C0.999868 68.9999 0.999738 69.0002 0.999766 69.0001C0.999846 68.9999 1.00127 68.9967 1.006 68.9919C1.0164 68.9813 1.03335 68.9724 1.05463 68.9712L0.945282 66.9742ZM33.0258 0.945282C32.9685 -0.100789 32.1183 -1 31 -1V1C31.0012 1 31.0012 1.0001 31.0007 0.999977C31.0001 0.999868 30.9998 0.999738 30.9999 0.999766C31.0001 0.999846 31.0033 1.00127 31.0081 1.006C31.0187 1.0164 31.0276 1.03335 31.0288 1.05463L33.0258 0.945282ZM68.9712 101.055C68.9724 101.033 68.9813 101.016 68.9919 101.006C68.9967 101.001 68.9999 101 69.0001 101C69.0002 101 68.9999 101 68.9993 101C68.9988 101 68.9988 101 69 101V99C67.8817 99 67.0315 99.8992 66.9742 100.945L68.9712 101.055ZM68.9712 1.05463C68.9724 1.03335 68.9813 1.0164 68.9919 1.006C68.9967 1.00127 68.9999 0.999846 69.0001 0.999766C69.0002 0.999738 68.9999 0.999868 68.9994 0.999977C68.9988 1.0001 68.9988 1 69 1V-1C67.8817 -1 67.0315 -0.100786 66.9742 0.945284L68.9712 1.05463Z" fill="#D1D5DB" fill-opacity="0.1" mask="url(#path-1-inside-1_232_5435)"/>
<path d="M17.9055 72.144C17.2762 72.144 16.7535 72.032 16.3375 71.808C15.9322 71.5733 15.6228 71.2267 15.4095 70.768C15.2068 70.3093 15.1055 69.7387 15.1055 69.056V64.768C15.1055 64.544 15.1588 64.3787 15.2655 64.272C15.3828 64.1653 15.5428 64.112 15.7455 64.112C15.9588 64.112 16.1188 64.1653 16.2255 64.272C16.3428 64.3787 16.4015 64.544 16.4015 64.768V69.04C16.4015 69.7227 16.5402 70.2347 16.8175 70.576C17.1055 70.9067 17.5535 71.072 18.1615 71.072C18.8228 71.072 19.3615 70.848 19.7775 70.4C20.1935 69.952 20.4015 69.3653 20.4015 68.64V64.768C20.4015 64.544 20.4548 64.3787 20.5615 64.272C20.6788 64.1653 20.8442 64.112 21.0575 64.112C21.2602 64.112 21.4148 64.1653 21.5215 64.272C21.6388 64.3787 21.6975 64.544 21.6975 64.768V71.44C21.6975 71.888 21.4895 72.112 21.0735 72.112C20.8708 72.112 20.7108 72.0533 20.5935 71.936C20.4868 71.8187 20.4335 71.6533 20.4335 71.44V69.984L20.6415 70.208C20.4282 70.8373 20.0762 71.3173 19.5855 71.648C19.1055 71.9787 18.5455 72.144 17.9055 72.144ZM24.7623 72.112C24.5489 72.112 24.3889 72.0533 24.2823 71.936C24.1756 71.8187 24.1223 71.6533 24.1223 71.44V64.768C24.1223 64.5547 24.1756 64.3947 24.2823 64.288C24.3889 64.1707 24.5436 64.112 24.7463 64.112C24.9489 64.112 25.1036 64.1707 25.2103 64.288C25.3276 64.3947 25.3863 64.5547 25.3863 64.768V66.144L25.2103 65.952C25.4343 65.3333 25.7969 64.8693 26.2983 64.56C26.8103 64.24 27.3969 64.08 28.0583 64.08C28.6769 64.08 29.1889 64.192 29.5943 64.416C30.0103 64.64 30.3196 64.9813 30.5223 65.44C30.7249 65.888 30.8263 66.4587 30.8263 67.152V71.44C30.8263 71.6533 30.7676 71.8187 30.6503 71.936C30.5436 72.0533 30.3889 72.112 30.1863 72.112C29.9729 72.112 29.8076 72.0533 29.6903 71.936C29.5836 71.8187 29.5303 71.6533 29.5303 71.44V67.232C29.5303 66.5067 29.3863 65.9787 29.0983 65.648C28.8209 65.3067 28.3729 65.136 27.7543 65.136C27.0396 65.136 26.4689 65.36 26.0423 65.808C25.6263 66.2453 25.4183 66.832 25.4183 67.568V71.44C25.4183 71.888 25.1996 72.112 24.7623 72.112ZM35.84 72.144C35.36 72.144 34.8747 72.0853 34.384 71.968C33.904 71.8507 33.456 71.648 33.04 71.36C32.9333 71.2853 32.8587 71.2 32.816 71.104C32.7733 70.9973 32.7573 70.896 32.768 70.8C32.7893 70.6933 32.832 70.6027 32.896 70.528C32.9707 70.4533 33.056 70.4107 33.152 70.4C33.2587 70.3787 33.376 70.4 33.504 70.464C33.92 70.72 34.32 70.9013 34.704 71.008C35.0987 71.104 35.488 71.152 35.872 71.152C36.48 71.152 36.9387 71.04 37.248 70.816C37.5573 70.592 37.712 70.288 37.712 69.904C37.712 69.6053 37.6107 69.3707 37.408 69.2C37.2053 69.0187 36.8853 68.88 36.448 68.784L34.992 68.464C34.32 68.3253 33.8187 68.0853 33.488 67.744C33.168 67.4027 33.008 66.96 33.008 66.416C33.008 65.936 33.1307 65.5253 33.376 65.184C33.632 64.832 33.9893 64.56 34.448 64.368C34.9067 64.176 35.44 64.08 36.048 64.08C36.5173 64.08 36.96 64.144 37.376 64.272C37.8027 64.3893 38.1867 64.5813 38.528 64.848C38.6347 64.9227 38.704 65.0133 38.736 65.12C38.7787 65.216 38.784 65.3173 38.752 65.424C38.7307 65.52 38.6827 65.6053 38.608 65.68C38.5333 65.744 38.4427 65.7813 38.336 65.792C38.2293 65.8027 38.1173 65.7707 38 65.696C37.68 65.4827 37.3547 65.328 37.024 65.232C36.6933 65.1253 36.368 65.072 36.048 65.072C35.4507 65.072 34.9973 65.1893 34.688 65.424C34.3787 65.6587 34.224 65.968 34.224 66.352C34.224 66.6507 34.32 66.896 34.512 67.088C34.704 67.28 35.0027 67.4187 35.408 67.504L36.864 67.808C37.5573 67.9573 38.0747 68.1973 38.416 68.528C38.768 68.848 38.944 69.2853 38.944 69.84C38.944 70.544 38.6613 71.104 38.096 71.52C37.5307 71.936 36.7787 72.144 35.84 72.144ZM43.961 72.144C43.353 72.144 42.841 72.0373 42.425 71.824C42.0197 71.6 41.7157 71.28 41.513 70.864C41.3103 70.4373 41.209 69.92 41.209 69.312V65.232H40.137C39.9557 65.232 39.817 65.1893 39.721 65.104C39.625 65.008 39.577 64.88 39.577 64.72C39.577 64.56 39.625 64.4373 39.721 64.352C39.817 64.2667 39.9557 64.224 40.137 64.224H41.209V62.384C41.209 62.1707 41.2677 62.0107 41.385 61.904C41.5023 61.7867 41.6623 61.728 41.865 61.728C42.0677 61.728 42.2223 61.7867 42.329 61.904C42.4463 62.0107 42.505 62.1707 42.505 62.384V64.224H44.521C44.7023 64.224 44.841 64.2667 44.937 64.352C45.033 64.4373 45.081 64.56 45.081 64.72C45.081 64.88 45.033 65.008 44.937 65.104C44.841 65.1893 44.7023 65.232 44.521 65.232H42.505V69.184C42.505 69.792 42.633 70.256 42.889 70.576C43.145 70.8853 43.561 71.04 44.137 71.04C44.3397 71.04 44.5103 71.0187 44.649 70.976C44.7983 70.9333 44.921 70.912 45.017 70.912C45.113 70.9013 45.193 70.9333 45.257 71.008C45.321 71.0827 45.353 71.2107 45.353 71.392C45.353 71.52 45.3263 71.6373 45.273 71.744C45.2303 71.8507 45.1503 71.9253 45.033 71.968C44.905 72.0107 44.7343 72.048 44.521 72.08C44.3183 72.1227 44.1317 72.144 43.961 72.144ZM49.5886 72.144C48.8313 72.144 48.1753 71.9787 47.6206 71.648C47.066 71.3173 46.634 70.8533 46.3246 70.256C46.026 69.648 45.8766 68.9333 45.8766 68.112C45.8766 67.4933 45.962 66.9387 46.1326 66.448C46.3033 65.9467 46.554 65.52 46.8846 65.168C47.2153 64.816 47.6046 64.5493 48.0526 64.368C48.5113 64.176 49.0233 64.08 49.5886 64.08C50.346 64.08 51.002 64.2453 51.5566 64.576C52.1113 64.9067 52.538 65.376 52.8366 65.984C53.146 66.5813 53.3006 67.2907 53.3006 68.112C53.3006 68.7307 53.2153 69.2853 53.0446 69.776C52.874 70.2667 52.6233 70.6933 52.2926 71.056C51.962 71.408 51.5673 71.68 51.1086 71.872C50.6606 72.0533 50.154 72.144 49.5886 72.144ZM49.5886 71.104C50.0686 71.104 50.49 70.9867 50.8526 70.752C51.2153 70.5173 51.4926 70.176 51.6846 69.728C51.8873 69.28 51.9886 68.7413 51.9886 68.112C51.9886 67.1413 51.77 66.4 51.3326 65.888C50.906 65.376 50.3246 65.12 49.5886 65.12C49.098 65.12 48.6713 65.2373 48.3086 65.472C47.9566 65.696 47.6793 66.032 47.4766 66.48C47.2846 66.9173 47.1886 67.4613 47.1886 68.112C47.1886 69.072 47.4073 69.8133 47.8446 70.336C48.282 70.848 48.8633 71.104 49.5886 71.104ZM55.9033 72.112C55.6899 72.112 55.5246 72.0533 55.4073 71.936C55.3006 71.8187 55.2473 71.6533 55.2473 71.44V64.768C55.2473 64.5547 55.3006 64.3947 55.4073 64.288C55.5139 64.1707 55.6686 64.112 55.8713 64.112C56.0739 64.112 56.2286 64.1707 56.3353 64.288C56.4526 64.3947 56.5113 64.5547 56.5113 64.768V66.064H56.3513C56.5219 65.4347 56.8473 64.9493 57.3273 64.608C57.8073 64.2667 58.3993 64.0853 59.1033 64.064C59.2633 64.0533 59.3913 64.0907 59.4873 64.176C59.5833 64.2507 59.6366 64.384 59.6473 64.576C59.6579 64.7573 59.6153 64.9013 59.5193 65.008C59.4233 65.1147 59.2739 65.1787 59.0713 65.2L58.8153 65.232C58.0899 65.296 57.5299 65.5307 57.1353 65.936C56.7513 66.3307 56.5593 66.8747 56.5593 67.568V71.44C56.5593 71.6533 56.5006 71.8187 56.3832 71.936C56.2766 72.0533 56.1166 72.112 55.9033 72.112ZM63.3515 72.144C62.8182 72.144 62.3382 72.0427 61.9115 71.84C61.4955 71.6267 61.1648 71.3387 60.9195 70.976C60.6742 70.6133 60.5515 70.208 60.5515 69.76C60.5515 69.184 60.6955 68.7307 60.9835 68.4C61.2822 68.0693 61.7675 67.8347 62.4395 67.696C63.1222 67.5573 64.0502 67.488 65.2235 67.488H65.9435V68.336H65.2395C64.3755 68.336 63.6928 68.3787 63.1915 68.464C62.7008 68.5387 62.3542 68.672 62.1515 68.864C61.9595 69.056 61.8635 69.328 61.8635 69.68C61.8635 70.1173 62.0128 70.4747 62.3115 70.752C62.6208 71.0293 63.0368 71.168 63.5595 71.168C63.9862 71.168 64.3595 71.0667 64.6795 70.864C65.0102 70.6613 65.2662 70.384 65.4475 70.032C65.6395 69.68 65.7355 69.2747 65.7355 68.816V66.992C65.7355 66.3307 65.6022 65.856 65.3355 65.568C65.0688 65.2693 64.6315 65.12 64.0235 65.12C63.6502 65.12 63.2768 65.168 62.9035 65.264C62.5302 65.36 62.1355 65.5147 61.7195 65.728C61.5702 65.8027 61.4422 65.8293 61.3355 65.808C61.2288 65.776 61.1435 65.7173 61.0795 65.632C61.0155 65.5467 60.9782 65.4507 60.9675 65.344C60.9568 65.2267 60.9782 65.1147 61.0315 65.008C61.0955 64.9013 61.1915 64.816 61.3195 64.752C61.7888 64.5173 62.2528 64.3467 62.7115 64.24C63.1702 64.1333 63.6075 64.08 64.0235 64.08C64.6955 64.08 65.2502 64.192 65.6875 64.416C66.1248 64.6293 66.4502 64.96 66.6635 65.408C66.8768 65.8453 66.9835 66.4107 66.9835 67.104V71.44C66.9835 71.6533 66.9302 71.8187 66.8235 71.936C66.7275 72.0533 66.5835 72.112 66.3915 72.112C66.1888 72.112 66.0342 72.0533 65.9275 71.936C65.8208 71.8187 65.7675 71.6533 65.7675 71.44V70.192H65.9115C65.8262 70.5973 65.6608 70.944 65.4155 71.232C65.1808 71.52 64.8875 71.744 64.5355 71.904C64.1835 72.064 63.7888 72.144 63.3515 72.144ZM72.8279 75.024C72.2625 75.024 71.7079 74.9547 71.1639 74.816C70.6305 74.688 70.1452 74.48 69.7079 74.192C69.5799 74.1173 69.4945 74.0267 69.4519 73.92C69.4199 73.8133 69.4145 73.7067 69.4359 73.6C69.4572 73.504 69.5052 73.4133 69.5799 73.328C69.6545 73.2533 69.7399 73.2053 69.8359 73.184C69.9425 73.1627 70.0492 73.1787 70.1559 73.232C70.6252 73.52 71.0732 73.7173 71.4999 73.824C71.9265 73.9307 72.3479 73.984 72.7639 73.984C73.5212 73.984 74.0919 73.7813 74.4759 73.376C74.8705 72.9707 75.0679 72.384 75.0679 71.616V69.808H75.2279C75.0679 70.4267 74.7265 70.9173 74.2039 71.28C73.6919 71.6427 73.0892 71.824 72.3959 71.824C71.6812 71.824 71.0625 71.664 70.5399 71.344C70.0172 71.0133 69.6119 70.5547 69.3239 69.968C69.0465 69.3813 68.9079 68.704 68.9079 67.936C68.9079 67.36 68.9879 66.8373 69.1479 66.368C69.3079 65.888 69.5372 65.4827 69.8359 65.152C70.1452 64.8107 70.5132 64.5493 70.9399 64.368C71.3772 64.176 71.8625 64.08 72.3959 64.08C73.0999 64.08 73.7079 64.2613 74.2199 64.624C74.7319 64.976 75.0625 65.456 75.2119 66.064L75.0519 66.256V64.768C75.0519 64.5547 75.1052 64.3947 75.2119 64.288C75.3292 64.1707 75.4892 64.112 75.6919 64.112C75.9052 64.112 76.0652 64.1707 76.1719 64.288C76.2785 64.3947 76.3319 64.5547 76.3319 64.768V71.44C76.3319 72.624 76.0332 73.5147 75.4359 74.112C74.8492 74.72 73.9799 75.024 72.8279 75.024ZM72.6359 70.768C73.1372 70.768 73.5692 70.656 73.9319 70.432C74.2945 70.1973 74.5719 69.8667 74.7639 69.44C74.9665 69.0133 75.0679 68.512 75.0679 67.936C75.0679 67.072 74.8492 66.3893 74.4119 65.888C73.9745 65.376 73.3825 65.12 72.6359 65.12C72.1452 65.12 71.7185 65.2373 71.3559 65.472C70.9932 65.696 70.7105 66.0213 70.5079 66.448C70.3159 66.864 70.2199 67.36 70.2199 67.936C70.2199 68.8 70.4385 69.488 70.8759 70C71.3132 70.512 71.8999 70.768 72.6359 70.768ZM82.2669 72.144C81.4455 72.144 80.7362 71.984 80.1389 71.664C79.5522 71.3333 79.0935 70.8693 78.7629 70.272C78.4429 69.6747 78.2829 68.96 78.2829 68.128C78.2829 67.3173 78.4429 66.6133 78.7629 66.016C79.0829 65.408 79.5202 64.9333 80.0749 64.592C80.6402 64.2507 81.2909 64.08 82.0269 64.08C82.5495 64.08 83.0189 64.1707 83.4349 64.352C83.8509 64.5227 84.2029 64.7733 84.4909 65.104C84.7895 65.4347 85.0135 65.8347 85.1629 66.304C85.3229 66.7733 85.4029 67.3013 85.4029 67.888C85.4029 68.0587 85.3549 68.1867 85.2589 68.272C85.1629 68.3467 85.0242 68.384 84.8429 68.384H79.2749V67.536H84.5389L84.2829 67.744C84.2829 67.168 84.1975 66.6827 84.0269 66.288C83.8562 65.8827 83.6055 65.5733 83.2749 65.36C82.9549 65.1467 82.5495 65.04 82.0589 65.04C81.5149 65.04 81.0509 65.168 80.6669 65.424C80.2935 65.6693 80.0109 66.016 79.8189 66.464C79.6269 66.9013 79.5309 67.4133 79.5309 68V68.096C79.5309 69.0773 79.7655 69.824 80.2349 70.336C80.7149 70.848 81.3922 71.104 82.2669 71.104C82.6295 71.104 82.9869 71.056 83.3389 70.96C83.7015 70.864 84.0535 70.704 84.3949 70.48C84.5442 70.384 84.6775 70.3413 84.7949 70.352C84.9229 70.352 85.0242 70.3893 85.0989 70.464C85.1735 70.528 85.2215 70.6133 85.2429 70.72C85.2749 70.816 85.2642 70.9227 85.2109 71.04C85.1682 71.1573 85.0775 71.2587 84.9389 71.344C84.5869 71.6 84.1709 71.7973 83.6909 71.936C83.2109 72.0747 82.7362 72.144 82.2669 72.144Z" fill="#111827"/>
<g clip-path="url(#clip0_232_5435)">
<path d="M63.1622 32.1141V51.2526C63.1622 52.307 62.3069 53.1623 61.2525 53.1623H38.7475C37.6931 53.1623 36.8378 52.307 36.8378 51.2526V28.7476C36.8378 27.6932 37.6931 26.8379 38.7475 26.8379H58.3562C59.135 26.8379 59.8744 27.1857 60.3709 27.7873L62.5672 30.4538C62.9522 30.922 63.1622 31.5082 63.1622 32.1141Z" fill="#616161"/>
<path d="M58.7369 53.1622H41.25V41.5859C41.25 41.19 41.5716 40.8684 41.9675 40.8684H58.0216C58.4175 40.8684 58.7391 41.19 58.7391 41.5859V53.1622H58.7369Z" fill="white"/>
<path d="M41.25 50.4824H58.7369V53.1621H41.25V50.4824Z" fill="#039BE5"/>
<path d="M39.6641 26.8379V37.2832C39.6641 37.6726 40.0075 37.9766 40.4625 37.9766H57.2297C57.6847 37.9766 58.0369 37.6748 58.0369 37.2832V26.8379H39.6641Z" fill="#424242"/>
<path d="M43.6562 26.8379V36.686C43.6562 37.0535 43.9144 37.3379 44.2556 37.3379H56.825C57.1663 37.3379 57.4309 37.0535 57.4309 36.686V26.8379H43.6562ZM54.8059 36.1763C54.8059 36.3338 54.6769 36.4629 54.5194 36.4629H50.7175C50.56 36.4629 50.4309 36.3338 50.4309 36.1763V27.9995C50.4309 27.842 50.56 27.7129 50.7175 27.7129H54.5194C54.6769 27.7129 54.8059 27.842 54.8059 27.9995V36.1763Z" fill="#E0E0E0"/>
</g>
<defs>
<clipPath id="clip0_232_5435">
<rect width="28" height="28" fill="white" transform="translate(36 26)"/>
</clipPath>
</defs>
</svg>
