<svg width="118" height="136" viewBox="0 0 118 136" fill="none" xmlns="http://www.w3.org/2000/svg">
<mask id="path-1-inside-1_232_5655" fill="white">
<path fill-rule="evenodd" clip-rule="evenodd" d="M87 18C86.4477 18 86.0029 17.5515 85.9727 17C85.4538 7.52403 77.6056 0 68 0C58.3944 0 50.5462 7.52403 50.0273 17C49.9971 17.5515 49.5523 18 49 18L22 18C19.7909 18 18 19.7909 18 22L18 49C18 49.5523 17.5515 49.9971 17 50.0273C7.52403 50.5462 0 58.3944 0 68C0 77.6056 7.52403 85.4538 17 85.9727C17.5515 86.0029 18 86.4477 18 87L18 114C18 116.209 19.7909 118 22 118L49 118C49.5523 118 49.9971 118.448 50.0273 119C50.5462 128.476 58.3944 136 68 136C77.6056 136 85.4538 128.476 85.9727 119C86.0029 118.448 86.4477 118 87 118L114 118C116.209 118 118 116.209 118 114L118 87C118 86.4477 117.552 86.0029 117 85.9727C107.524 85.4538 100 77.6056 100 68C100 58.3944 107.524 50.5462 117 50.0273C117.552 49.9971 118 49.5523 118 49L118 22C118 19.7909 116.209 18 114 18L87 18Z"/>
</mask>
<path fill-rule="evenodd" clip-rule="evenodd" d="M87 18C86.4477 18 86.0029 17.5515 85.9727 17C85.4538 7.52403 77.6056 0 68 0C58.3944 0 50.5462 7.52403 50.0273 17C49.9971 17.5515 49.5523 18 49 18L22 18C19.7909 18 18 19.7909 18 22L18 49C18 49.5523 17.5515 49.9971 17 50.0273C7.52403 50.5462 0 58.3944 0 68C0 77.6056 7.52403 85.4538 17 85.9727C17.5515 86.0029 18 86.4477 18 87L18 114C18 116.209 19.7909 118 22 118L49 118C49.5523 118 49.9971 118.448 50.0273 119C50.5462 128.476 58.3944 136 68 136C77.6056 136 85.4538 128.476 85.9727 119C86.0029 118.448 86.4477 118 87 118L114 118C116.209 118 118 116.209 118 114L118 87C118 86.4477 117.552 86.0029 117 85.9727C107.524 85.4538 100 77.6056 100 68C100 58.3944 107.524 50.5462 117 50.0273C117.552 49.9971 118 49.5523 118 49L118 22C118 19.7909 116.209 18 114 18L87 18Z" fill="white"/>
<path d="M18 22L17 22L17 22L18 22ZM18 114L17 114V114H18ZM118 114H117H118ZM117 50.0273L116.945 49.0288L117 50.0273ZM118 87H119H118ZM117 85.9727L117.055 84.9742L117 85.9727ZM50.0273 119L49.0288 119.055L50.0273 119ZM18 49L17 49L18 49ZM17 50.0273L17.0547 51.0258L17 50.0273ZM17 85.9727L16.9454 86.9712L17 85.9727ZM18 87L19 87L18 87ZM50.0273 17L49.0288 16.9454L50.0273 17ZM85.9727 119L86.9712 119.055L85.9727 119ZM85.9727 17L84.9742 17.0547L85.9727 17ZM68 1C77.0716 1 84.4842 8.10603 84.9742 17.0547L86.9712 16.9454C86.4235 6.94204 78.1396 -1 68 -1V1ZM51.0258 17.0547C51.5158 8.10603 58.9284 1 68 1V-1C57.8604 -1 49.5765 6.94204 49.0288 16.9454L51.0258 17.0547ZM49 17L22 17V19L49 19V17ZM22 17C19.2386 17 17 19.2386 17 22H19C19 20.3431 20.3431 19 22 19V17ZM17 22L17 49L19 49L19 22L17 22ZM16.9454 49.0288C6.94204 49.5765 -1 57.8604 -1 68H1C1 58.9284 8.10603 51.5158 17.0547 51.0258L16.9454 49.0288ZM-1 68C-1 78.1396 6.94204 86.4235 16.9454 86.9712L17.0547 84.9742C8.10603 84.4842 1 77.0716 1 68H-1ZM17 87L17 114L19 114L19 87L17 87ZM17 114C17 116.761 19.2386 119 22 119V117C20.3431 117 19 115.657 19 114H17ZM22 119L49 119V117L22 117V119ZM49.0288 119.055C49.5765 129.058 57.8604 137 68 137V135C58.9284 135 51.5158 127.894 51.0258 118.945L49.0288 119.055ZM68 137C78.1396 137 86.4235 129.058 86.9712 119.055L84.9742 118.945C84.4842 127.894 77.0716 135 68 135V137ZM87 119L114 119V117L87 117V119ZM114 119C116.761 119 119 116.761 119 114H117C117 115.657 115.657 117 114 117V119ZM119 114L119 87H117L117 114H119ZM117.055 84.9742C108.106 84.4842 101 77.0716 101 68H99C99 78.1396 106.942 86.4235 116.945 86.9712L117.055 84.9742ZM101 68C101 58.9284 108.106 51.5158 117.055 51.0258L116.945 49.0288C106.942 49.5765 99 57.8604 99 68H101ZM119 49L119 22H117L117 49H119ZM119 22C119 19.2386 116.761 17 114 17V19C115.657 19 117 20.3431 117 22H119ZM114 17L87 17V19L114 19V17ZM117.055 51.0258C118.101 50.9685 119 50.1183 119 49H117C117 49.0012 117 49.0012 117 49.0006C117 49.0001 117 48.9998 117 48.9999C117 49.0001 116.999 49.0033 116.994 49.0081C116.984 49.0187 116.967 49.0276 116.945 49.0288L117.055 51.0258ZM119 87C119 85.8817 118.101 85.0315 117.055 84.9742L116.945 86.9712C116.967 86.9724 116.984 86.9813 116.994 86.9919C116.999 86.9967 117 86.9999 117 87.0001C117 87.0002 117 86.9999 117 86.9993C117 86.9988 117 86.9988 117 87H119ZM49 119C49.0012 119 49.0012 119 49.0007 119C49.0001 119 48.9998 119 48.9999 119C49.0001 119 49.0033 119.001 49.0081 119.006C49.0187 119.016 49.0276 119.033 49.0288 119.055L51.0258 118.945C50.9685 117.899 50.1183 117 49 117V119ZM17 49C17 49.0012 16.9999 49.0012 17 49.0007C17.0001 49.0001 17.0003 48.9998 17.0002 48.9999C17.0002 49.0001 16.9987 49.0033 16.994 49.0081C16.9836 49.0187 16.9667 49.0276 16.9454 49.0288L17.0547 51.0258C18.1008 50.9685 19 50.1183 19 49L17 49ZM16.9454 86.9712C16.9666 86.9724 16.9836 86.9813 16.994 86.9919C16.9987 86.9967 17.0002 86.9999 17.0002 87.0001C17.0003 87.0002 17.0001 86.9999 17 86.9994C16.9999 86.9988 17 86.9988 17 87L19 87C19 85.8817 18.1008 85.0315 17.0547 84.9742L16.9454 86.9712ZM49.0288 16.9454C49.0276 16.9667 49.0187 16.9836 49.0081 16.994C49.0033 16.9987 49.0001 17.0002 48.9999 17.0002C48.9998 17.0003 49.0001 17.0001 49.0006 17C49.0012 16.9999 49.0012 17 49 17V19C50.1183 19 50.9685 18.1008 51.0258 17.0547L49.0288 16.9454ZM86.9712 119.055C86.9724 119.033 86.9813 119.016 86.9919 119.006C86.9967 119.001 86.9999 119 87.0001 119C87.0002 119 86.9999 119 86.9994 119C86.9988 119 86.9988 119 87 119V117C85.8817 117 85.0315 117.899 84.9742 118.945L86.9712 119.055ZM84.9742 17.0547C85.0315 18.1008 85.8817 19 87 19V17C86.9988 17 86.9988 16.9999 86.9994 17C86.9999 17.0001 87.0002 17.0003 87.0001 17.0002C86.9999 17.0002 86.9967 16.9987 86.9919 16.994C86.9813 16.9836 86.9724 16.9666 86.9712 16.9454L84.9742 17.0547Z" fill="#D1D5DB" fill-opacity="0.1" mask="url(#path-1-inside-1_232_5655)"/>
<path d="M42.3977 90.144C41.7684 90.144 41.2457 90.032 40.8297 89.808C40.4244 89.5733 40.115 89.2267 39.9017 88.768C39.699 88.3093 39.5977 87.7387 39.5977 87.056V82.768C39.5977 82.544 39.651 82.3787 39.7577 82.272C39.875 82.1653 40.035 82.112 40.2377 82.112C40.451 82.112 40.611 82.1653 40.7177 82.272C40.835 82.3787 40.8937 82.544 40.8937 82.768V87.04C40.8937 87.7227 41.0324 88.2347 41.3097 88.576C41.5977 88.9067 42.0457 89.072 42.6537 89.072C43.315 89.072 43.8537 88.848 44.2697 88.4C44.6857 87.952 44.8937 87.3653 44.8937 86.64V82.768C44.8937 82.544 44.947 82.3787 45.0537 82.272C45.171 82.1653 45.3364 82.112 45.5497 82.112C45.7524 82.112 45.907 82.1653 46.0137 82.272C46.131 82.3787 46.1897 82.544 46.1897 82.768V89.44C46.1897 89.888 45.9817 90.112 45.5657 90.112C45.363 90.112 45.203 90.0533 45.0857 89.936C44.979 89.8187 44.9257 89.6533 44.9257 89.44V87.984L45.1337 88.208C44.9204 88.8373 44.5684 89.3173 44.0777 89.648C43.5977 89.9787 43.0377 90.144 42.3977 90.144ZM49.2544 90.112C49.0411 90.112 48.8811 90.0533 48.7744 89.936C48.6678 89.8187 48.6144 89.6533 48.6144 89.44V82.768C48.6144 82.5547 48.6678 82.3947 48.7744 82.288C48.8811 82.1707 49.0358 82.112 49.2384 82.112C49.4411 82.112 49.5958 82.1707 49.7024 82.288C49.8198 82.3947 49.8784 82.5547 49.8784 82.768V84.144L49.7024 83.952C49.9264 83.3333 50.2891 82.8693 50.7904 82.56C51.3024 82.24 51.8891 82.08 52.5504 82.08C53.1691 82.08 53.6811 82.192 54.0864 82.416C54.5024 82.64 54.8118 82.9813 55.0144 83.44C55.2171 83.888 55.3184 84.4587 55.3184 85.152V89.44C55.3184 89.6533 55.2598 89.8187 55.1424 89.936C55.0358 90.0533 54.8811 90.112 54.6784 90.112C54.4651 90.112 54.2998 90.0533 54.1824 89.936C54.0758 89.8187 54.0224 89.6533 54.0224 89.44V85.232C54.0224 84.5067 53.8784 83.9787 53.5904 83.648C53.3131 83.3067 52.8651 83.136 52.2464 83.136C51.5318 83.136 50.9611 83.36 50.5344 83.808C50.1184 84.2453 49.9104 84.832 49.9104 85.568V89.44C49.9104 89.888 49.6918 90.112 49.2544 90.112ZM60.8282 90.144C60.2202 90.144 59.7082 90.0373 59.2922 89.824C58.8869 89.6 58.5829 89.28 58.3802 88.864C58.1775 88.4373 58.0762 87.92 58.0762 87.312V83.232H57.0042C56.8229 83.232 56.6842 83.1893 56.5882 83.104C56.4922 83.008 56.4442 82.88 56.4442 82.72C56.4442 82.56 56.4922 82.4373 56.5882 82.352C56.6842 82.2667 56.8229 82.224 57.0042 82.224H58.0762V80.384C58.0762 80.1707 58.1349 80.0107 58.2522 79.904C58.3695 79.7867 58.5295 79.728 58.7322 79.728C58.9349 79.728 59.0895 79.7867 59.1962 79.904C59.3135 80.0107 59.3722 80.1707 59.3722 80.384V82.224H61.3882C61.5695 82.224 61.7082 82.2667 61.8042 82.352C61.9002 82.4373 61.9482 82.56 61.9482 82.72C61.9482 82.88 61.9002 83.008 61.8042 83.104C61.7082 83.1893 61.5695 83.232 61.3882 83.232H59.3722V87.184C59.3722 87.792 59.5002 88.256 59.7562 88.576C60.0122 88.8853 60.4282 89.04 61.0042 89.04C61.2069 89.04 61.3775 89.0187 61.5162 88.976C61.6655 88.9333 61.7882 88.912 61.8842 88.912C61.9802 88.9013 62.0602 88.9333 62.1242 89.008C62.1882 89.0827 62.2202 89.2107 62.2202 89.392C62.2202 89.52 62.1935 89.6373 62.1402 89.744C62.0975 89.8507 62.0175 89.9253 61.9002 89.968C61.7722 90.0107 61.6015 90.048 61.3882 90.08C61.1855 90.1227 60.9989 90.144 60.8282 90.144ZM65.1237 92.992C64.9637 92.992 64.8357 92.9493 64.7397 92.864C64.6437 92.7787 64.585 92.6613 64.5637 92.512C64.553 92.3733 64.5797 92.2293 64.6437 92.08L65.7477 89.6V90.16L62.6757 83.024C62.6117 82.864 62.5904 82.7147 62.6117 82.576C62.633 82.4373 62.697 82.3253 62.8037 82.24C62.9104 82.1547 63.0597 82.112 63.2517 82.112C63.4224 82.112 63.5557 82.1493 63.6517 82.224C63.7477 82.2987 63.833 82.432 63.9077 82.624L66.5317 89.056H66.0997L68.7557 82.624C68.841 82.432 68.9317 82.2987 69.0277 82.224C69.1237 82.1493 69.2624 82.112 69.4437 82.112C69.6144 82.112 69.7424 82.1547 69.8277 82.24C69.9237 82.3253 69.977 82.4373 69.9877 82.576C70.009 82.704 69.9877 82.848 69.9237 83.008L65.8277 92.48C65.7424 92.672 65.6464 92.8053 65.5397 92.88C65.4437 92.9547 65.305 92.992 65.1237 92.992ZM72.2544 92.992C72.0411 92.992 71.8811 92.9333 71.7744 92.816C71.6678 92.7093 71.6144 92.5493 71.6144 92.336V82.768C71.6144 82.5547 71.6678 82.3947 71.7744 82.288C71.8811 82.1707 72.0358 82.112 72.2384 82.112C72.4518 82.112 72.6118 82.1707 72.7184 82.288C72.8358 82.3947 72.8944 82.5547 72.8944 82.768V84.288L72.7184 84.064C72.8891 83.456 73.2251 82.976 73.7264 82.624C74.2384 82.2613 74.8464 82.08 75.5504 82.08C76.2438 82.08 76.8464 82.2453 77.3584 82.576C77.8811 82.896 78.2811 83.36 78.5584 83.968C78.8464 84.5653 78.9904 85.28 78.9904 86.112C78.9904 86.9333 78.8464 87.648 78.5584 88.256C78.2811 88.8533 77.8864 89.3173 77.3744 89.648C76.8624 89.9787 76.2544 90.144 75.5504 90.144C74.8464 90.144 74.2438 89.968 73.7424 89.616C73.2411 89.2533 72.8998 88.7733 72.7184 88.176H72.9104V92.336C72.9104 92.5493 72.8518 92.7093 72.7344 92.816C72.6171 92.9333 72.4571 92.992 72.2544 92.992ZM75.2784 89.104C75.7691 89.104 76.1904 88.9867 76.5424 88.752C76.9051 88.5173 77.1824 88.176 77.3744 87.728C77.5771 87.28 77.6784 86.7413 77.6784 86.112C77.6784 85.1413 77.4598 84.4 77.0224 83.888C76.5958 83.376 76.0144 83.12 75.2784 83.12C74.7984 83.12 74.3771 83.2373 74.0144 83.472C73.6518 83.696 73.3691 84.032 73.1664 84.48C72.9744 84.9173 72.8784 85.4613 72.8784 86.112C72.8784 87.072 73.0971 87.8133 73.5344 88.336C73.9718 88.848 74.5531 89.104 75.2784 89.104ZM84.4466 90.144C83.6252 90.144 82.9159 89.984 82.3186 89.664C81.7319 89.3333 81.2732 88.8693 80.9426 88.272C80.6226 87.6747 80.4626 86.96 80.4626 86.128C80.4626 85.3173 80.6226 84.6133 80.9426 84.016C81.2626 83.408 81.6999 82.9333 82.2546 82.592C82.8199 82.2507 83.4706 82.08 84.2066 82.08C84.7292 82.08 85.1986 82.1707 85.6146 82.352C86.0306 82.5227 86.3826 82.7733 86.6706 83.104C86.9692 83.4347 87.1932 83.8347 87.3426 84.304C87.5026 84.7733 87.5826 85.3013 87.5826 85.888C87.5826 86.0587 87.5346 86.1867 87.4386 86.272C87.3426 86.3467 87.2039 86.384 87.0226 86.384H81.4546V85.536H86.7186L86.4626 85.744C86.4626 85.168 86.3772 84.6827 86.2066 84.288C86.0359 83.8827 85.7852 83.5733 85.4546 83.36C85.1346 83.1467 84.7292 83.04 84.2386 83.04C83.6946 83.04 83.2306 83.168 82.8466 83.424C82.4732 83.6693 82.1906 84.016 81.9986 84.464C81.8066 84.9013 81.7106 85.4133 81.7106 86V86.096C81.7106 87.0773 81.9452 87.824 82.4146 88.336C82.8946 88.848 83.5719 89.104 84.4466 89.104C84.8092 89.104 85.1666 89.056 85.5186 88.96C85.8812 88.864 86.2332 88.704 86.5746 88.48C86.7239 88.384 86.8572 88.3413 86.9746 88.352C87.1026 88.352 87.2039 88.3893 87.2786 88.464C87.3532 88.528 87.4012 88.6133 87.4226 88.72C87.4546 88.816 87.4439 88.9227 87.3906 89.04C87.3479 89.1573 87.2572 89.2587 87.1186 89.344C86.7666 89.6 86.3506 89.7973 85.8706 89.936C85.3906 90.0747 84.9159 90.144 84.4466 90.144ZM92.4182 90.144C91.7249 90.144 91.1169 89.9787 90.5942 89.648C90.0822 89.3173 89.6822 88.8533 89.3942 88.256C89.1169 87.648 88.9782 86.9333 88.9782 86.112C88.9782 85.28 89.1169 84.5653 89.3942 83.968C89.6822 83.36 90.0822 82.896 90.5942 82.576C91.1169 82.2453 91.7249 82.08 92.4182 82.08C93.1222 82.08 93.7249 82.256 94.2262 82.608C94.7275 82.96 95.0635 83.4347 95.2342 84.032H95.0582V79.264C95.0582 79.0507 95.1115 78.8907 95.2182 78.784C95.3355 78.6667 95.5009 78.608 95.7142 78.608C95.9169 78.608 96.0715 78.6667 96.1782 78.784C96.2955 78.8907 96.3542 79.0507 96.3542 79.264V89.44C96.3542 89.6533 96.3009 89.8187 96.1942 89.936C96.0875 90.0533 95.9275 90.112 95.7142 90.112C95.5115 90.112 95.3515 90.0533 95.2342 89.936C95.1275 89.8187 95.0742 89.6533 95.0742 89.44V87.92L95.2502 88.144C95.0795 88.752 94.7382 89.2373 94.2262 89.6C93.7249 89.9627 93.1222 90.144 92.4182 90.144ZM92.6902 89.104C93.1702 89.104 93.5915 88.9867 93.9542 88.752C94.3169 88.5173 94.5942 88.176 94.7862 87.728C94.9889 87.28 95.0902 86.7413 95.0902 86.112C95.0902 85.1413 94.8715 84.4 94.4342 83.888C94.0075 83.376 93.4262 83.12 92.6902 83.12C92.1995 83.12 91.7729 83.2373 91.4102 83.472C91.0582 83.696 90.7809 84.032 90.5782 84.48C90.3862 84.9173 90.2902 85.4613 90.2902 86.112C90.2902 87.072 90.5089 87.8133 90.9462 88.336C91.3835 88.848 91.9649 89.104 92.6902 89.104Z" fill="#111827"/>
<g clip-path="url(#clip0_232_5655)">
<mask id="mask0_232_5655" style="mask-type:luminance" maskUnits="userSpaceOnUse" x="54" y="44" width="28" height="28">
<path d="M82 44H54V72H82V44Z" fill="white"/>
</mask>
<g mask="url(#mask0_232_5655)">
<path d="M81.9249 72.0193C72.617 72.0193 63.3193 72.0193 54.0216 72.0193C54.0209 72.0168 54.0195 72.0143 54.0195 72.0118C54.0194 62.6818 54.0194 53.3518 54.0194 44.0205C63.3518 44.0205 72.6842 44.0205 82.018 44.0205C82.018 53.3516 82.018 62.6839 82.018 72.0193C81.9913 72.0193 81.9632 72.0193 81.9249 72.0193ZM77.1106 62.3175C77.0659 62.2665 77.0237 62.2132 76.9762 62.1649C76.4505 61.6303 75.7884 61.5189 75.0836 61.5825C74.4723 61.6378 73.9486 61.9068 73.496 62.3174C73.4716 62.3396 73.4448 62.3593 73.4096 62.388C73.4096 62.3308 73.4119 62.289 73.4092 62.2476C73.3961 62.0444 73.3006 61.8905 73.12 61.7979C72.9429 61.7072 72.7618 61.7159 72.5948 61.8226C72.4091 61.9412 72.3457 62.1236 72.3459 62.338C72.3472 63.9439 72.3466 65.5498 72.3466 67.1557C72.3466 67.2559 72.3446 67.3561 72.347 67.4562C72.3532 67.714 72.4899 67.9182 72.6975 67.9836C73.0616 68.0982 73.409 67.8458 73.4095 67.4617C73.411 66.3598 73.4107 65.258 73.4096 64.1562C73.4093 63.8458 73.4878 63.5613 73.6857 63.319C74.1469 62.7546 74.7441 62.5162 75.4666 62.5984C75.8184 62.6386 76.1027 62.8018 76.2978 63.1034C76.4808 63.3864 76.5434 63.7058 76.546 64.0348C76.5528 64.9426 76.5502 65.8506 76.5512 66.7585C76.5514 67.0073 76.5473 67.2562 76.5522 67.5049C76.5598 67.894 76.9779 68.1348 77.3204 67.9499C77.5381 67.8324 77.6155 67.6402 77.6152 67.4028C77.6139 66.3721 77.6169 65.3413 77.613 64.3106C77.612 64.0658 77.6038 63.8195 77.5754 63.5766C77.5226 63.1263 77.3976 62.6983 77.1106 62.3175ZM70.4079 61.742C70.344 61.7465 70.2774 61.7412 70.2165 61.7574C69.9629 61.8248 69.8231 62.0264 69.8229 62.3192C69.8223 63.3694 69.8244 64.4197 69.8209 65.4699C69.8203 65.6435 69.8112 65.8198 69.7806 65.9902C69.6997 66.4401 69.4585 66.7771 69.0256 66.9478C68.6039 67.1141 68.1698 67.1199 67.7331 67.0014C67.4019 66.9115 67.148 66.7214 66.9822 66.4195C66.8633 66.2031 66.8054 65.9671 66.8011 65.723C66.7924 65.2288 66.7954 64.7343 66.7948 64.2399C66.7941 63.6001 66.7956 62.9603 66.7942 62.3205C66.7934 62.0054 66.5842 61.7579 66.3104 61.7419C65.9712 61.7221 65.7321 61.953 65.7317 62.3066C65.7305 63.3859 65.7291 64.4652 65.7324 65.5445C65.7336 65.9303 65.7751 66.3109 65.922 66.6741C66.2006 67.3632 66.7207 67.7791 67.4184 67.9816C67.8576 68.109 68.3099 68.1167 68.7632 68.0634C69.1133 68.0222 69.4481 67.9266 69.753 67.7494C70.4732 67.3308 70.8396 66.68 70.8629 65.8674C70.897 64.676 70.883 63.4831 70.8843 62.2909C70.8847 61.9917 70.7087 61.7932 70.4079 61.742Z" fill="#ECDC5A"/>
<path d="M77.1144 62.3232C77.3976 62.6982 77.5227 63.1263 77.5754 63.5766C77.6038 63.8195 77.612 64.0658 77.613 64.3106C77.6169 65.3413 77.6139 66.372 77.6152 67.4028C77.6155 67.6402 77.5382 67.8324 77.3204 67.9499C76.978 68.1347 76.5598 67.8939 76.5522 67.5049C76.5473 67.2562 76.5514 67.0073 76.5512 66.7585C76.5502 65.8506 76.5528 64.9426 76.546 64.0347C76.5435 63.7058 76.4808 63.3864 76.2978 63.1034C76.1028 62.8018 75.8184 62.6385 75.4666 62.5984C74.7442 62.5161 74.1469 62.7545 73.6857 63.319C73.4878 63.5613 73.4093 63.8458 73.4096 64.1561C73.4107 65.258 73.411 66.3598 73.4095 67.4616C73.409 67.8457 73.0617 68.0982 72.6975 67.9836C72.4899 67.9182 72.3533 67.714 72.347 67.4562C72.3446 67.3561 72.3466 67.2559 72.3466 67.1557C72.3466 65.5498 72.3472 63.9439 72.3459 62.338C72.3457 62.1236 72.4091 61.9412 72.5948 61.8226C72.7619 61.7158 72.9429 61.7072 73.12 61.7979C73.3006 61.8904 73.3961 62.0444 73.4092 62.2475C73.4119 62.289 73.4096 62.3307 73.4096 62.3879C73.4449 62.3593 73.4716 62.3396 73.496 62.3174C73.9486 61.9068 74.4723 61.6377 75.0836 61.5825C75.7884 61.5188 76.4505 61.6303 76.9762 62.1649C77.0237 62.2131 77.0659 62.2665 77.1144 62.3232Z" fill="#111827"/>
<path d="M70.4166 61.7424C70.7087 61.7932 70.8847 61.9917 70.8843 62.2909C70.883 63.4831 70.897 64.676 70.8629 65.8674C70.8396 66.6801 70.4732 67.3308 69.753 67.7493C69.4481 67.9266 69.1133 68.0221 68.7632 68.0633C68.3099 68.1167 67.8576 68.1089 67.4184 67.9815C66.7207 67.7791 66.2006 67.3631 65.922 66.6741C65.7751 66.3109 65.7336 65.9303 65.7324 65.5445C65.7291 64.4652 65.7305 63.3859 65.7317 62.3066C65.7321 61.953 65.9712 61.7221 66.3104 61.7419C66.5842 61.7579 66.7934 62.0054 66.7942 62.3205C66.7956 62.9603 66.7941 63.6001 66.7948 64.2399C66.7954 64.7343 66.7924 65.2288 66.8011 65.723C66.8054 65.9671 66.8633 66.2031 66.9822 66.4195C67.148 66.7215 67.4019 66.9115 67.7331 67.0014C68.1697 67.1199 68.6039 67.1141 69.0256 66.9478C69.4585 66.7771 69.6997 66.4401 69.7806 65.9903C69.8112 65.8198 69.8203 65.6435 69.8209 65.4699C69.8244 64.4197 69.8223 63.3695 69.8229 62.3193C69.8231 62.0265 69.9629 61.8248 70.2165 61.7574C70.2774 61.7412 70.344 61.7465 70.4166 61.7424Z" fill="#111827"/>
</g>
</g>
<defs>
<clipPath id="clip0_232_5655">
<rect width="28" height="28" fill="white" transform="translate(54 44)"/>
</clipPath>
</defs>
</svg>
