<svg width="137" height="100" viewBox="0 0 137 100" fill="none" xmlns="http://www.w3.org/2000/svg">
<mask id="path-1-inside-1_673_10120" fill="white">
<path fill-rule="evenodd" clip-rule="evenodd" d="M87.5 0C86.9477 0 86.5029 0.448498 86.4727 0.999957C85.9538 10.476 78.1056 18 68.5 18C58.8944 18 51.0462 10.476 50.5273 0.999956C50.4971 0.448497 50.0523 0 49.5 0L22.5 0C20.2909 0 18.5 1.79086 18.5 4L18.5 31C18.5 31.5523 18.0515 31.9971 17.5 32.0273C8.02403 32.5462 0.5 40.3944 0.5 50C0.5 59.6056 8.02403 67.4538 17.5 67.9727C18.0515 68.0029 18.5 68.4477 18.5 69L18.5 96C18.5 98.2091 20.2909 100 22.5 100L49.5 100C50.0523 100 50.4971 99.5515 50.5273 99C51.0462 89.524 58.8944 82 68.5 82C78.1056 82 85.9538 89.524 86.4727 99C86.5029 99.5515 86.9477 100 87.5 100H114.5C116.709 100 118.5 98.2091 118.5 96L118.5 69C118.5 68.4477 118.948 68.0029 119.5 67.9727C128.976 67.4538 136.5 59.6056 136.5 50C136.5 40.3944 128.976 32.5462 119.5 32.0273C118.948 31.9971 118.5 31.5523 118.5 31L118.5 4C118.5 1.79086 116.709 0 114.5 0L87.5 0Z"/>
</mask>
<path fill-rule="evenodd" clip-rule="evenodd" d="M87.5 0C86.9477 0 86.5029 0.448498 86.4727 0.999957C85.9538 10.476 78.1056 18 68.5 18C58.8944 18 51.0462 10.476 50.5273 0.999956C50.4971 0.448497 50.0523 0 49.5 0L22.5 0C20.2909 0 18.5 1.79086 18.5 4L18.5 31C18.5 31.5523 18.0515 31.9971 17.5 32.0273C8.02403 32.5462 0.5 40.3944 0.5 50C0.5 59.6056 8.02403 67.4538 17.5 67.9727C18.0515 68.0029 18.5 68.4477 18.5 69L18.5 96C18.5 98.2091 20.2909 100 22.5 100L49.5 100C50.0523 100 50.4971 99.5515 50.5273 99C51.0462 89.524 58.8944 82 68.5 82C78.1056 82 85.9538 89.524 86.4727 99C86.5029 99.5515 86.9477 100 87.5 100H114.5C116.709 100 118.5 98.2091 118.5 96L118.5 69C118.5 68.4477 118.948 68.0029 119.5 67.9727C128.976 67.4538 136.5 59.6056 136.5 50C136.5 40.3944 128.976 32.5462 119.5 32.0273C118.948 31.9971 118.5 31.5523 118.5 31L118.5 4C118.5 1.79086 116.709 0 114.5 0L87.5 0Z" fill="#FFFFFF" fill-opacity="1"/>
<path d="M18.5 4L17.5 4L17.5 4L18.5 4ZM18.5 96L17.5 96V96H18.5ZM119.5 32.0273L119.555 31.0288L119.5 32.0273ZM119.5 67.9727L119.555 68.9712L119.5 67.9727ZM50.5273 99L49.5288 98.9454L50.5273 99ZM18.5 31L17.5 31L18.5 31ZM17.5 32.0273L17.4454 31.0288L17.5 32.0273ZM17.5 67.9727L17.4454 68.9712L17.5 67.9727ZM18.5 69L17.5 69L18.5 69ZM50.5273 0.999956L49.5288 1.05463L50.5273 0.999956ZM86.4727 99L85.4742 99.0547L86.4727 99ZM86.4727 0.999957L85.4742 0.945284L86.4727 0.999957ZM68.5 19C78.6396 19 86.9235 11.058 87.4712 1.05463L85.4742 0.945284C84.9842 9.89397 77.5716 17 68.5 17V19ZM49.5288 1.05463C50.0765 11.058 58.3604 19 68.5 19V17C59.4284 17 52.0158 9.89397 51.5258 0.945282L49.5288 1.05463ZM22.5 1L49.5 1V-1L22.5 -1V1ZM19.5 4C19.5 2.34315 20.8431 1 22.5 1V-1C19.7386 -1 17.5 1.23858 17.5 4L19.5 4ZM19.5 31L19.5 4L17.5 4L17.5 31L19.5 31ZM1.5 50C1.5 40.9284 8.60603 33.5158 17.5547 33.0258L17.4454 31.0288C7.44204 31.5765 -0.5 39.8604 -0.5 50H1.5ZM17.5547 66.9742C8.60603 66.4842 1.5 59.0716 1.5 50H-0.5C-0.5 60.1396 7.44204 68.4235 17.4454 68.9712L17.5547 66.9742ZM19.5 96L19.5 69L17.5 69L17.5 96L19.5 96ZM22.5 99C20.8431 99 19.5 97.6569 19.5 96H17.5C17.5 98.7614 19.7386 101 22.5 101L22.5 99ZM49.5 99L22.5 99L22.5 101L49.5 101V99ZM68.5 81C58.3604 81 50.0765 88.942 49.5288 98.9454L51.5258 99.0547C52.0158 90.106 59.4284 83 68.5 83V81ZM87.4712 98.9454C86.9235 88.942 78.6396 81 68.5 81V83C77.5716 83 84.9842 90.106 85.4742 99.0547L87.4712 98.9454ZM114.5 99H87.5V101H114.5V99ZM117.5 96C117.5 97.6569 116.157 99 114.5 99V101C117.261 101 119.5 98.7614 119.5 96H117.5ZM117.5 69L117.5 96H119.5L119.5 69H117.5ZM135.5 50C135.5 59.0716 128.394 66.4842 119.445 66.9742L119.555 68.9712C129.558 68.4235 137.5 60.1396 137.5 50H135.5ZM119.445 33.0258C128.394 33.5158 135.5 40.9284 135.5 50H137.5C137.5 39.8604 129.558 31.5765 119.555 31.0288L119.445 33.0258ZM117.5 4L117.5 31H119.5L119.5 4H117.5ZM114.5 1C116.157 1 117.5 2.34315 117.5 4H119.5C119.5 1.23858 117.261 -1 114.5 -1V1ZM87.5 1L114.5 1V-1L87.5 -1V1ZM119.555 31.0288C119.533 31.0276 119.516 31.0187 119.506 31.0081C119.501 31.0033 119.5 31.0001 119.5 30.9999C119.5 30.9998 119.5 31.0001 119.5 31.0007C119.5 31.0012 119.5 31.0012 119.5 31H117.5C117.5 32.1183 118.399 32.9685 119.445 33.0258L119.555 31.0288ZM119.5 69C119.5 68.9988 119.5 68.9988 119.5 68.9994C119.5 68.9999 119.5 69.0002 119.5 69.0001C119.5 68.9999 119.501 68.9967 119.506 68.9919C119.516 68.9813 119.533 68.9724 119.555 68.9712L119.445 66.9742C118.399 67.0315 117.5 67.8817 117.5 69H119.5ZM49.5 101C50.6183 101 51.4685 100.101 51.5258 99.0547L49.5288 98.9454C49.5276 98.9666 49.5187 98.9836 49.5081 98.994C49.5033 98.9987 49.5001 99.0002 49.4999 99.0002C49.4998 99.0003 49.5001 99.0001 49.5006 99C49.5012 98.9999 49.5012 99 49.5 99V101ZM17.5 31C17.5 31.0012 17.4999 31.0012 17.5 31.0006C17.5001 31.0001 17.5003 30.9998 17.5002 30.9999C17.5002 31.0001 17.4987 31.0033 17.494 31.0081C17.4836 31.0187 17.4666 31.0276 17.4454 31.0288L17.5547 33.0258C18.6008 32.9685 19.5 32.1183 19.5 31L17.5 31ZM17.4454 68.9712C17.4667 68.9724 17.4836 68.9813 17.494 68.9919C17.4987 68.9967 17.5002 68.9999 17.5002 69.0001C17.5003 69.0002 17.5001 68.9999 17.5 68.9993C17.4999 68.9988 17.5 68.9988 17.5 69L19.5 69C19.5 67.8817 18.6008 67.0315 17.5547 66.9742L17.4454 68.9712ZM51.5258 0.945282C51.4685 -0.100789 50.6183 -1 49.5 -1V1C49.5012 1 49.5012 1.0001 49.5007 0.999977C49.5001 0.999868 49.4998 0.999738 49.4999 0.999766C49.5001 0.999846 49.5033 1.00127 49.5081 1.006C49.5187 1.0164 49.5276 1.03335 49.5288 1.05463L51.5258 0.945282ZM85.4742 99.0547C85.5315 100.101 86.3817 101 87.5 101V99C87.4988 99 87.4988 98.9999 87.4993 99C87.4999 99.0001 87.5002 99.0003 87.5001 99.0002C87.4999 99.0002 87.4967 98.9987 87.4919 98.994C87.4813 98.9836 87.4724 98.9667 87.4712 98.9454L85.4742 99.0547ZM87.4712 1.05463C87.4724 1.03335 87.4813 1.0164 87.4919 1.006C87.4967 1.00127 87.4999 0.999846 87.5001 0.999766C87.5002 0.999738 87.4999 0.999868 87.4994 0.999977C87.4988 1.0001 87.4988 1 87.5 1V-1C86.3817 -1 85.5315 -0.100786 85.4742 0.945284L87.4712 1.05463Z" fill="#D1D5DB" mask="url(#path-1-inside-1_673_10120)"/>
<path d="M33.3699 71.108C32.8419 71.108 32.3859 70.972 32.0019 70.7C31.6259 70.428 31.3739 70.064 31.2459 69.608L31.3779 69.476V70.58C31.3779 70.74 31.3339 70.864 31.2459 70.952C31.1659 71.04 31.0499 71.084 30.8979 71.084C30.7379 71.084 30.6179 71.04 30.5379 70.952C30.4579 70.864 30.4179 70.74 30.4179 70.58V62.948C30.4179 62.788 30.4579 62.668 30.5379 62.588C30.6179 62.5 30.7379 62.456 30.8979 62.456C31.0499 62.456 31.1699 62.5 31.2579 62.588C31.3459 62.668 31.3899 62.788 31.3899 62.948V66.524H31.2459C31.3819 66.076 31.6379 65.72 32.0139 65.456C32.3899 65.192 32.8419 65.06 33.3699 65.06C33.8979 65.06 34.3539 65.184 34.7379 65.432C35.1219 65.672 35.4179 66.02 35.6259 66.476C35.8419 66.924 35.9499 67.46 35.9499 68.084C35.9499 68.7 35.8419 69.236 35.6259 69.692C35.4179 70.14 35.1179 70.488 34.7259 70.736C34.3419 70.984 33.8899 71.108 33.3699 71.108ZM33.1659 70.328C33.5339 70.328 33.8499 70.24 34.1139 70.064C34.3859 69.888 34.5939 69.632 34.7379 69.296C34.8899 68.96 34.9659 68.556 34.9659 68.084C34.9659 67.356 34.8019 66.8 34.4739 66.416C34.1539 66.032 33.7179 65.84 33.1659 65.84C32.8059 65.84 32.4899 65.928 32.2179 66.104C31.9459 66.272 31.7339 66.524 31.5819 66.86C31.4379 67.188 31.3659 67.596 31.3659 68.084C31.3659 68.804 31.5299 69.36 31.8579 69.752C32.1859 70.136 32.6219 70.328 33.1659 70.328ZM39.478 71.108C39.006 71.108 38.614 71.024 38.302 70.856C37.998 70.68 37.766 70.42 37.606 70.076C37.454 69.732 37.378 69.304 37.378 68.792V65.576C37.378 65.408 37.418 65.284 37.498 65.204C37.586 65.124 37.706 65.084 37.858 65.084C38.018 65.084 38.138 65.124 38.218 65.204C38.306 65.284 38.35 65.408 38.35 65.576V68.78C38.35 69.292 38.454 69.676 38.662 69.932C38.878 70.18 39.214 70.304 39.67 70.304C40.166 70.304 40.57 70.136 40.882 69.8C41.194 69.464 41.35 69.024 41.35 68.48V65.576C41.35 65.408 41.39 65.284 41.47 65.204C41.558 65.124 41.682 65.084 41.842 65.084C41.994 65.084 42.11 65.124 42.19 65.204C42.278 65.284 42.322 65.408 42.322 65.576V70.58C42.322 70.916 42.166 71.084 41.854 71.084C41.702 71.084 41.582 71.04 41.494 70.952C41.414 70.864 41.374 70.74 41.374 70.58V69.488L41.53 69.656C41.37 70.128 41.106 70.488 40.738 70.736C40.378 70.984 39.958 71.108 39.478 71.108ZM44.6205 71.084C44.4605 71.084 44.3405 71.04 44.2605 70.952C44.1805 70.864 44.1405 70.74 44.1405 70.58V65.576C44.1405 65.416 44.1805 65.296 44.2605 65.216C44.3405 65.128 44.4565 65.084 44.6085 65.084C44.7605 65.084 44.8765 65.128 44.9565 65.216C45.0445 65.296 45.0885 65.416 45.0885 65.576V66.608L44.9565 66.464C45.1245 66 45.3965 65.652 45.7725 65.42C46.1565 65.18 46.5965 65.06 47.0925 65.06C47.5565 65.06 47.9405 65.144 48.2445 65.312C48.5565 65.48 48.7885 65.736 48.9405 66.08C49.0925 66.416 49.1685 66.844 49.1685 67.364V70.58C49.1685 70.74 49.1245 70.864 49.0365 70.952C48.9565 71.04 48.8405 71.084 48.6885 71.084C48.5285 71.084 48.4045 71.04 48.3165 70.952C48.2365 70.864 48.1965 70.74 48.1965 70.58V67.424C48.1965 66.88 48.0885 66.484 47.8725 66.236C47.6645 65.98 47.3285 65.852 46.8645 65.852C46.3285 65.852 45.9005 66.02 45.5805 66.356C45.2685 66.684 45.1125 67.124 45.1125 67.676V70.58C45.1125 70.916 44.9485 71.084 44.6205 71.084ZM53.1808 71.108C52.6608 71.108 52.2048 70.984 51.8128 70.736C51.4288 70.488 51.1288 70.14 50.9128 69.692C50.7048 69.236 50.6008 68.7 50.6008 68.084C50.6008 67.46 50.7048 66.924 50.9128 66.476C51.1288 66.02 51.4288 65.672 51.8128 65.432C52.2048 65.184 52.6608 65.06 53.1808 65.06C53.7088 65.06 54.1608 65.192 54.5368 65.456C54.9128 65.72 55.1648 66.076 55.2928 66.524H55.1608V62.948C55.1608 62.788 55.2008 62.668 55.2808 62.588C55.3688 62.5 55.4928 62.456 55.6528 62.456C55.8048 62.456 55.9208 62.5 56.0008 62.588C56.0888 62.668 56.1328 62.788 56.1328 62.948V70.58C56.1328 70.74 56.0928 70.864 56.0128 70.952C55.9328 71.04 55.8128 71.084 55.6528 71.084C55.5008 71.084 55.3808 71.04 55.2928 70.952C55.2128 70.864 55.1728 70.74 55.1728 70.58V69.44L55.3048 69.608C55.1768 70.064 54.9208 70.428 54.5368 70.7C54.1608 70.972 53.7088 71.108 53.1808 71.108ZM53.3848 70.328C53.7448 70.328 54.0608 70.24 54.3328 70.064C54.6048 69.888 54.8128 69.632 54.9568 69.296C55.1088 68.96 55.1848 68.556 55.1848 68.084C55.1848 67.356 55.0208 66.8 54.6928 66.416C54.3728 66.032 53.9368 65.84 53.3848 65.84C53.0168 65.84 52.6968 65.928 52.4248 66.104C52.1608 66.272 51.9528 66.524 51.8008 66.86C51.6568 67.188 51.5848 67.596 51.5848 68.084C51.5848 68.804 51.7488 69.36 52.0768 69.752C52.4048 70.136 52.8408 70.328 53.3848 70.328ZM59.7329 71.108C59.1569 71.108 58.7169 70.932 58.4129 70.58C58.1089 70.228 57.9569 69.724 57.9569 69.068V62.948C57.9569 62.788 57.9969 62.668 58.0769 62.588C58.1569 62.5 58.2769 62.456 58.4369 62.456C58.5889 62.456 58.7089 62.5 58.7969 62.588C58.8849 62.668 58.9289 62.788 58.9289 62.948V68.996C58.9289 69.428 59.0129 69.752 59.1809 69.968C59.3569 70.176 59.6129 70.28 59.9489 70.28C60.0209 70.28 60.0849 70.276 60.1409 70.268C60.1969 70.26 60.2529 70.256 60.3089 70.256C60.3969 70.248 60.4569 70.268 60.4889 70.316C60.5289 70.364 60.5489 70.46 60.5489 70.604C60.5489 70.748 60.5169 70.856 60.4529 70.928C60.3889 71 60.2849 71.048 60.1409 71.072C60.0769 71.08 60.0089 71.088 59.9369 71.096C59.8649 71.104 59.7969 71.108 59.7329 71.108ZM64.0771 71.108C63.4611 71.108 62.9291 70.988 62.4811 70.748C62.0411 70.5 61.6971 70.152 61.4491 69.704C61.2091 69.256 61.0891 68.72 61.0891 68.096C61.0891 67.488 61.2091 66.96 61.4491 66.512C61.6891 66.056 62.0171 65.7 62.4331 65.444C62.8571 65.188 63.3451 65.06 63.8971 65.06C64.2891 65.06 64.6411 65.128 64.9531 65.264C65.2651 65.392 65.5291 65.58 65.7451 65.828C65.9691 66.076 66.1371 66.376 66.2491 66.728C66.3691 67.08 66.4291 67.476 66.4291 67.916C66.4291 68.044 66.3931 68.14 66.3211 68.204C66.2491 68.26 66.1451 68.288 66.0091 68.288H61.8331V67.652H65.7811L65.5891 67.808C65.5891 67.376 65.5251 67.012 65.3971 66.716C65.2691 66.412 65.0811 66.18 64.8331 66.02C64.5931 65.86 64.2891 65.78 63.9211 65.78C63.5131 65.78 63.1651 65.876 62.8771 66.068C62.5971 66.252 62.3851 66.512 62.2411 66.848C62.0971 67.176 62.0251 67.56 62.0251 68V68.072C62.0251 68.808 62.2011 69.368 62.5531 69.752C62.9131 70.136 63.4211 70.328 64.0771 70.328C64.3491 70.328 64.6171 70.292 64.8811 70.22C65.1531 70.148 65.4171 70.028 65.6731 69.86C65.7851 69.788 65.8851 69.756 65.9731 69.764C66.0691 69.764 66.1451 69.792 66.2011 69.848C66.2571 69.896 66.2931 69.96 66.3091 70.04C66.3331 70.112 66.3251 70.192 66.2851 70.28C66.2531 70.368 66.1851 70.444 66.0811 70.508C65.8171 70.7 65.5051 70.848 65.1451 70.952C64.7851 71.056 64.4291 71.108 64.0771 71.108ZM68.2527 68.204C68.1327 68.204 68.0327 68.168 67.9527 68.096C67.8727 68.016 67.8327 67.92 67.8327 67.808C67.8327 67.688 67.8727 67.592 67.9527 67.52C68.0327 67.44 68.1327 67.4 68.2527 67.4H70.9527C71.0647 67.4 71.1607 67.44 71.2407 67.52C71.3207 67.592 71.3607 67.688 71.3607 67.808C71.3607 67.92 71.3207 68.016 71.2407 68.096C71.1607 68.168 71.0647 68.204 70.9527 68.204H68.2527ZM73.5427 71.084C73.3827 71.084 73.2587 71.04 73.1707 70.952C73.0907 70.864 73.0507 70.74 73.0507 70.58V65.576C73.0507 65.416 73.0907 65.296 73.1707 65.216C73.2507 65.128 73.3667 65.084 73.5187 65.084C73.6707 65.084 73.7867 65.128 73.8667 65.216C73.9547 65.296 73.9987 65.416 73.9987 65.576V66.548H73.8787C74.0067 66.076 74.2507 65.712 74.6107 65.456C74.9707 65.2 75.4147 65.064 75.9427 65.048C76.0627 65.04 76.1587 65.068 76.2307 65.132C76.3027 65.188 76.3427 65.288 76.3507 65.432C76.3587 65.568 76.3267 65.676 76.2547 65.756C76.1827 65.836 76.0707 65.884 75.9187 65.9L75.7267 65.924C75.1827 65.972 74.7627 66.148 74.4667 66.452C74.1787 66.748 74.0347 67.156 74.0347 67.676V70.58C74.0347 70.74 73.9907 70.864 73.9027 70.952C73.8227 71.04 73.7027 71.084 73.5427 71.084ZM79.4155 71.108C78.9435 71.108 78.5515 71.024 78.2395 70.856C77.9355 70.68 77.7035 70.42 77.5435 70.076C77.3915 69.732 77.3155 69.304 77.3155 68.792V65.576C77.3155 65.408 77.3555 65.284 77.4355 65.204C77.5235 65.124 77.6435 65.084 77.7955 65.084C77.9555 65.084 78.0755 65.124 78.1555 65.204C78.2435 65.284 78.2875 65.408 78.2875 65.576V68.78C78.2875 69.292 78.3915 69.676 78.5995 69.932C78.8155 70.18 79.1515 70.304 79.6075 70.304C80.1035 70.304 80.5075 70.136 80.8195 69.8C81.1315 69.464 81.2875 69.024 81.2875 68.48V65.576C81.2875 65.408 81.3275 65.284 81.4075 65.204C81.4955 65.124 81.6195 65.084 81.7795 65.084C81.9315 65.084 82.0475 65.124 82.1275 65.204C82.2155 65.284 82.2595 65.408 82.2595 65.576V70.58C82.2595 70.916 82.1035 71.084 81.7915 71.084C81.6395 71.084 81.5195 71.04 81.4315 70.952C81.3515 70.864 81.3115 70.74 81.3115 70.58V69.488L81.4675 69.656C81.3075 70.128 81.0435 70.488 80.6755 70.736C80.3155 70.984 79.8955 71.108 79.4155 71.108ZM84.558 71.084C84.398 71.084 84.278 71.04 84.198 70.952C84.118 70.864 84.078 70.74 84.078 70.58V65.576C84.078 65.416 84.118 65.296 84.198 65.216C84.278 65.128 84.394 65.084 84.546 65.084C84.698 65.084 84.814 65.128 84.894 65.216C84.982 65.296 85.026 65.416 85.026 65.576V66.608L84.894 66.464C85.062 66 85.334 65.652 85.71 65.42C86.094 65.18 86.534 65.06 87.03 65.06C87.494 65.06 87.878 65.144 88.182 65.312C88.494 65.48 88.726 65.736 88.878 66.08C89.03 66.416 89.106 66.844 89.106 67.364V70.58C89.106 70.74 89.062 70.864 88.974 70.952C88.894 71.04 88.778 71.084 88.626 71.084C88.466 71.084 88.342 71.04 88.254 70.952C88.174 70.864 88.134 70.74 88.134 70.58V67.424C88.134 66.88 88.026 66.484 87.81 66.236C87.602 65.98 87.266 65.852 86.802 65.852C86.266 65.852 85.838 66.02 85.518 66.356C85.206 66.684 85.05 67.124 85.05 67.676V70.58C85.05 70.916 84.886 71.084 84.558 71.084ZM91.3783 71.084C91.2183 71.084 91.0983 71.04 91.0183 70.952C90.9383 70.864 90.8983 70.74 90.8983 70.58V65.576C90.8983 65.416 90.9383 65.296 91.0183 65.216C91.0983 65.128 91.2143 65.084 91.3663 65.084C91.5183 65.084 91.6343 65.128 91.7143 65.216C91.8023 65.296 91.8463 65.416 91.8463 65.576V66.608L91.7143 66.464C91.8823 66 92.1543 65.652 92.5303 65.42C92.9143 65.18 93.3543 65.06 93.8503 65.06C94.3143 65.06 94.6983 65.144 95.0023 65.312C95.3143 65.48 95.5463 65.736 95.6983 66.08C95.8503 66.416 95.9263 66.844 95.9263 67.364V70.58C95.9263 70.74 95.8823 70.864 95.7943 70.952C95.7143 71.04 95.5983 71.084 95.4463 71.084C95.2863 71.084 95.1623 71.04 95.0743 70.952C94.9943 70.864 94.9543 70.74 94.9543 70.58V67.424C94.9543 66.88 94.8463 66.484 94.6303 66.236C94.4223 65.98 94.0863 65.852 93.6223 65.852C93.0863 65.852 92.6583 66.02 92.3383 66.356C92.0263 66.684 91.8703 67.124 91.8703 67.676V70.58C91.8703 70.916 91.7063 71.084 91.3783 71.084ZM100.347 71.108C99.7306 71.108 99.1986 70.988 98.7506 70.748C98.3106 70.5 97.9666 70.152 97.7186 69.704C97.4786 69.256 97.3586 68.72 97.3586 68.096C97.3586 67.488 97.4786 66.96 97.7186 66.512C97.9586 66.056 98.2866 65.7 98.7026 65.444C99.1266 65.188 99.6146 65.06 100.167 65.06C100.559 65.06 100.911 65.128 101.223 65.264C101.535 65.392 101.799 65.58 102.015 65.828C102.239 66.076 102.407 66.376 102.519 66.728C102.639 67.08 102.699 67.476 102.699 67.916C102.699 68.044 102.663 68.14 102.591 68.204C102.519 68.26 102.415 68.288 102.279 68.288H98.1026V67.652H102.051L101.859 67.808C101.859 67.376 101.795 67.012 101.667 66.716C101.539 66.412 101.351 66.18 101.103 66.02C100.863 65.86 100.559 65.78 100.191 65.78C99.7826 65.78 99.4346 65.876 99.1466 66.068C98.8666 66.252 98.6546 66.512 98.5106 66.848C98.3666 67.176 98.2946 67.56 98.2946 68V68.072C98.2946 68.808 98.4706 69.368 98.8226 69.752C99.1826 70.136 99.6906 70.328 100.347 70.328C100.619 70.328 100.887 70.292 101.151 70.22C101.423 70.148 101.687 70.028 101.943 69.86C102.055 69.788 102.155 69.756 102.243 69.764C102.339 69.764 102.415 69.792 102.471 69.848C102.527 69.896 102.563 69.96 102.579 70.04C102.603 70.112 102.595 70.192 102.555 70.28C102.523 70.368 102.455 70.444 102.351 70.508C102.087 70.7 101.775 70.848 101.415 70.952C101.055 71.056 100.699 71.108 100.347 71.108ZM104.597 71.084C104.437 71.084 104.313 71.04 104.225 70.952C104.145 70.864 104.105 70.74 104.105 70.58V65.576C104.105 65.416 104.145 65.296 104.225 65.216C104.305 65.128 104.421 65.084 104.573 65.084C104.725 65.084 104.841 65.128 104.921 65.216C105.009 65.296 105.053 65.416 105.053 65.576V66.548H104.933C105.061 66.076 105.305 65.712 105.665 65.456C106.025 65.2 106.469 65.064 106.997 65.048C107.117 65.04 107.213 65.068 107.285 65.132C107.357 65.188 107.397 65.288 107.405 65.432C107.413 65.568 107.381 65.676 107.309 65.756C107.237 65.836 107.125 65.884 106.973 65.9L106.781 65.924C106.237 65.972 105.817 66.148 105.521 66.452C105.233 66.748 105.089 67.156 105.089 67.676V70.58C105.089 70.74 105.045 70.864 104.957 70.952C104.877 71.04 104.757 71.084 104.597 71.084Z" fill="#030712"/>
<path d="M60.0103 41.3213C59.8594 41.3213 59.7062 41.3191 59.5466 41.3103C58.6978 41.2753 58.0328 40.9888 57.5691 40.4638C56.7356 39.5188 56.7859 38.0684 56.7969 37.8672L56.8034 37.8475C56.8537 37.6747 57.0025 37.1453 57.4378 36.9156C57.7222 36.7647 57.9781 36.6925 58.2187 36.6925C58.5316 36.6925 58.8203 36.815 59.1025 37.0688C59.8222 37.7163 60.6294 38.1188 61.2069 38.1188C61.6203 38.1188 62.725 38.0553 63.1756 38.0269L63.8581 40.2778C63.5125 40.5469 62.3225 41.3213 60.0103 41.3213Z" fill="#37474F"/>
<path d="M58.2166 36.9353C58.4659 36.9353 58.7022 37.0381 58.9362 37.2481C59.7106 37.9459 60.5594 38.3616 61.2047 38.3616C61.5722 38.3616 62.4734 38.3113 62.9962 38.2806L63.5716 40.1838C63.1341 40.4813 62.0141 41.0741 60.0103 41.0741C59.8616 41.0741 59.7084 41.0719 59.5575 41.0653C58.7787 41.0325 58.1728 40.7766 57.755 40.3041C57.0112 39.4619 57.0287 38.1581 57.0397 37.9066C57.0834 37.7513 57.2125 37.3072 57.5516 37.13C57.7966 36.9988 58.0153 36.9353 58.2166 36.9353ZM58.2166 36.4475C57.9016 36.4475 57.5997 36.5525 57.3197 36.6991C56.74 37.0053 56.5869 37.7206 56.5541 37.8234C56.5541 37.8234 56.2456 41.4153 59.5356 41.5531C59.6997 41.5597 59.8572 41.5641 60.0103 41.5641C62.9503 41.5641 64.1359 40.3609 64.1359 40.3609L63.3528 37.7709C63.3528 37.7709 61.7166 37.8738 61.2069 37.8738C60.6972 37.8738 59.9469 37.4997 59.2644 36.885C58.9078 36.5678 58.5556 36.4475 58.2166 36.4475Z" fill="#90A4AE"/>
<path d="M55.9481 45.0007C55.6178 46.0988 55.6506 48.0369 55.6506 48.0369C55.6506 48.3453 55.8453 48.8835 56.2959 49.0541C58.6628 49.9444 61.36 49.7103 62.7688 50.3557C64.405 51.106 69.7075 53.4138 74.1438 52.926C79.4244 52.3463 81.1 49.9619 81.3866 49.2969C81.59 48.82 81.7278 47.0132 81.5222 46.9453C79.2778 46.1972 70.9063 49.5178 69.375 48.3607C68.0603 47.3675 56.2784 43.9025 55.9481 45.0007Z" fill="#E0E0E0"/>
<path d="M57.2191 36.7165C57.2191 36.7165 55.9744 37.6856 55.6528 39.7156C55.3094 41.8615 55.0053 45.0006 56.5541 46.23C57.6981 47.1378 61.2309 46.6981 62.8672 47.4484C64.5034 48.1987 69.4647 51.9372 73.9009 51.4515C79.1816 50.8718 81.0431 48.575 81.3275 47.9078C81.5309 47.4309 82.0953 46.5843 79.1138 45.3834C76.9175 44.4997 75.2419 43.1893 73.7084 42.03C72.3938 41.0368 67.6447 38.145 67.6447 38.145C67.6447 38.145 66.8506 36.2593 65.5316 35.964C64.6653 35.7693 62.7381 36.7909 62.3969 37.7228C62.0184 38.7575 62.4888 39.7112 62.4888 39.7112C60.4456 40.7787 59.7413 40.9384 58.3544 40.0525C56.9675 39.1665 57.2191 36.7165 57.2191 36.7165V36.7165Z" fill="#0277BD"/>
<path d="M57.2191 36.7165C57.2191 36.7165 55.9744 37.6856 55.6528 39.7156C55.3094 41.8615 55.0053 45.0006 56.5541 46.23C57.6981 47.1378 61.2309 46.6981 62.8672 47.4484C64.5034 48.1987 69.4647 51.9372 73.9009 51.4515C79.1816 50.8718 81.0431 48.575 81.3275 47.9078C81.5309 47.4309 82.0953 46.5843 79.1138 45.3834C76.9175 44.4997 75.2419 43.1893 73.7084 42.03C72.3938 41.0368 67.6447 38.145 67.6447 38.145C67.6447 38.145 66.8506 36.2593 65.5316 35.964C64.6653 35.7693 62.7381 36.7909 62.3969 37.7228C62.0184 38.7575 62.4888 39.7112 62.4888 39.7112C60.4456 40.7787 59.7413 40.9384 58.3544 40.0525C56.9675 39.1665 57.2191 36.7165 57.2191 36.7165V36.7165Z" fill="#0277BD"/>
<path d="M62.6572 39.6981C63.1822 39.6106 63.6109 39.5996 64.1316 39.6653C64.1534 39.1381 63.8997 38.5387 63.6284 38.0968C63.5628 37.9896 63.4884 37.8846 63.4469 37.7665C63.2281 37.1496 64.3962 36.5153 64.8622 36.3796C65.3741 36.2287 65.9319 36.2528 66.4306 36.4431C66.1681 36.2199 65.8684 36.0449 65.5359 35.9684C64.7309 35.7868 63.7072 36.3403 63.0837 36.7953C62.1169 37.4974 61.9331 38.5496 62.4603 39.6303C62.4734 39.6587 62.4909 39.6893 62.5172 39.7024C62.5456 39.7178 62.5806 39.7134 62.6134 39.7068C62.6244 39.7024 62.6397 39.7003 62.6572 39.6981Z" fill="#BDBDBD"/>
<path d="M74.6359 42.7301C74.3997 42.5551 74.0956 42.4872 73.8156 42.5747C73.7544 42.5944 73.6931 42.6163 73.6341 42.6404C73.1047 42.8591 72.6847 43.2726 72.2844 43.6838C71.8841 44.0929 71.4794 44.5194 70.9675 44.7732C70.2741 45.1166 69.6856 44.9482 68.9944 44.9132C68.3622 44.8826 67.9684 45.2107 67.8263 45.8735C67.7278 46.3351 67.9509 46.9585 68.3534 47.2057C69.7338 48.0544 71.0856 48.4329 72.5863 48.6363C74.5069 48.8966 76.515 48.4569 78.1513 47.4201C78.615 47.1269 79.0788 46.7419 79.1925 46.2038C79.1925 46.2016 79.1947 46.1972 79.1947 46.1951C79.28 45.7794 79.0416 45.3594 78.6522 45.1866C77.0991 44.4997 75.8084 43.6051 74.6359 42.7301Z" fill="#03A9F4"/>
<path d="M70.3353 45.3637C69.8016 45.3637 69.2722 45.1253 68.7581 44.8321C67.9334 44.3618 64.615 42.1787 63.6131 41.5181C63.3812 41.7959 62.9897 42.2006 62.5303 42.3887C62.0972 42.5659 61.7384 42.5265 61.4212 42.4937C61.1041 42.4609 60.8525 42.4324 60.5112 42.6031C60.0541 42.8328 59.6472 43.1521 59.1856 43.3731C58.6934 43.6093 57.7856 43.5809 57.3219 43.4059C56.2412 42.999 56.075 42.4237 56.0203 42.1962C56.5519 42.5724 57.2431 42.9815 58.0153 42.9487C59.1594 42.9006 59.575 42.2662 60.1897 41.9578C60.7191 41.6931 61.15 41.739 61.4978 41.7762C61.7734 41.8046 61.9922 41.8287 62.2591 41.7193C62.6791 41.5487 63.1034 41.0193 63.2325 40.829L63.4316 40.5337L63.7291 40.7306C63.7728 40.7612 68.1828 43.6728 69.1147 44.2043C69.6266 44.4974 70.2762 44.8278 70.845 44.4974C71.4947 44.1212 72.0241 43.5131 72.6147 43.0515C72.9122 42.8174 73.2316 42.5965 73.5969 42.4937C73.9622 42.3931 74.3866 42.4346 74.6709 42.684C73.4941 42.7518 72.5272 43.7974 71.7944 44.6221C71.3153 45.1624 70.8253 45.3637 70.3353 45.3637Z" fill="#004A7C"/>
<path d="M68.2112 42.5615C68.5525 41.3584 69.3903 40.3806 69.9372 39.5625M66.5269 41.4153C66.5312 40.2078 67.7344 38.5103 67.9378 38.3265" stroke="#9E9E9E" stroke-width="0.83725" stroke-miterlimit="10" stroke-linecap="round"/>
<path d="M64.5406 40.4746C65.6781 39.3721 67.1875 38.3746 67.9378 38.239M66.5269 41.4153C67.4566 40.4265 68.6641 39.7025 69.9744 39.3481" stroke="#E0E0E0" stroke-width="0.83725" stroke-miterlimit="10" stroke-linecap="round"/>
<path d="M70.0991 43.3556C70.4206 42.4237 71.0331 41.4262 71.5909 40.619" stroke="#9E9E9E" stroke-width="0.83725" stroke-miterlimit="10" stroke-linecap="round"/>
<path d="M68.1062 42.5616C69.0665 41.5658 70.2928 40.8672 71.6391 40.5491" stroke="#E0E0E0" stroke-width="0.83725" stroke-miterlimit="10" stroke-linecap="round"/>
<path d="M58.6256 36.8675C58.6016 36.8916 58.5687 36.9047 58.5337 36.9156C58.315 36.9834 58.1684 36.9025 57.9453 36.955C57.6522 37.025 57.3437 37.3116 57.2716 37.6047C57.1994 37.8978 57.2497 38.2062 57.335 38.4928C57.4991 39.0375 57.7987 39.5406 58.1991 39.9453C58.3259 40.0722 58.4659 40.1969 58.5294 40.3653C58.5928 40.5337 58.5425 40.7612 58.3762 40.8247C58.3084 40.8509 58.2319 40.8466 58.1597 40.8313C58.0306 40.805 57.9081 40.7459 57.7922 40.6825C57.405 40.4703 57.0506 40.1947 56.7531 39.8687C56.5519 39.65 56.3747 39.4028 56.2653 39.1272C56.0159 38.4884 56.2216 37.7491 56.6416 37.2066C56.9478 36.8106 57.2541 36.6334 57.7856 36.5262C57.9541 36.4912 58.2691 36.4475 58.5644 36.5066C58.6978 36.5328 58.7503 36.7472 58.6256 36.8675Z" fill="#03A9F4"/>
<path d="M62.4231 39.5625C62.4297 39.58 62.3313 39.5232 62.3247 39.5407C62.3094 39.5779 62.2547 39.5625 62.2219 39.5407C62.06 39.4291 61.955 39.2563 61.8609 39.0857C61.7625 38.9041 61.675 38.7094 61.6641 38.5038C61.6313 37.9132 62.2744 37.8213 62.2744 37.8213C62.165 38.0707 62.1672 38.3944 62.165 38.5607C62.1606 38.8954 62.3006 39.2519 62.4231 39.5625Z" fill="#37474F"/>
<path d="M56.3047 49.0322C56.5738 49.111 56.8428 49.1744 57.1163 49.2291C57.3875 49.286 57.6609 49.3363 57.9344 49.3757C58.4834 49.4544 59.0369 49.5004 59.5925 49.5375C60.1481 49.5835 60.7059 49.6229 61.2703 49.6863C61.8303 49.7541 62.4209 49.8394 62.9831 50.0844C64.0091 50.5022 65.0372 50.9135 66.0872 51.2525C67.1328 51.6025 68.1937 51.9088 69.2656 52.1363C70.3353 52.3769 71.4203 52.5344 72.5053 52.5804C73.0478 52.6044 73.5881 52.5979 74.1262 52.5475C74.6709 52.4929 75.2134 52.425 75.7537 52.3332C76.83 52.145 77.8887 51.8366 78.8666 51.3554C79.3587 51.1213 79.8334 50.8435 80.2622 50.5022C80.4766 50.3338 80.68 50.1479 80.8681 49.9466C81.0584 49.7475 81.2356 49.5332 81.3669 49.2904L81.4106 49.31C81.17 49.8241 80.7828 50.2463 80.3672 50.6204C79.9472 50.9944 79.4769 51.3072 78.9869 51.5763C78.0003 52.1122 76.9241 52.4644 75.8303 52.6963C74.7366 52.9238 73.6166 53.0682 72.4944 53.031C71.3744 53.0004 70.2609 52.8407 69.165 52.6044C66.9775 52.121 64.8622 51.351 62.83 50.4235C62.3291 50.185 61.7756 50.0822 61.2266 49.9969C60.6753 49.9138 60.1197 49.8569 59.5641 49.7891C58.4572 49.6535 57.3416 49.4741 56.2894 49.0782L56.3047 49.0322Z" fill="#82AEC0"/>
</svg>
