<svg width="137" height="118" viewBox="0 0 137 118" fill="none" xmlns="http://www.w3.org/2000/svg">
<mask id="path-1-inside-1_673_10122" fill="white">
<path fill-rule="evenodd" clip-rule="evenodd" d="M87.5 0C86.9477 0 86.5029 0.448498 86.4727 0.999957C85.9538 10.476 78.1056 18 68.5 18C58.8944 18 51.0462 10.476 50.5273 0.999956C50.4971 0.448497 50.0523 0 49.5 0L22.5 0C20.2909 0 18.5 1.79086 18.5 4L18.5 31C18.5 31.5523 18.0515 31.9971 17.5 32.0273C8.02403 32.5462 0.5 40.3944 0.5 50C0.5 59.6056 8.02403 67.4538 17.5 67.9727C18.0515 68.0029 18.5 68.4477 18.5 69L18.5 96C18.5 98.2091 20.2909 100 22.5 100L49.5 100C50.0523 100 50.4971 100.448 50.5273 101C51.0462 110.476 58.8944 118 68.5 118C78.1056 118 85.9538 110.476 86.4727 101C86.5029 100.448 86.9477 100 87.5 100L114.5 100C116.709 100 118.5 98.2091 118.5 96V69C118.5 68.4477 118.948 68.0029 119.5 67.9727C128.976 67.4538 136.5 59.6056 136.5 50C136.5 40.3944 128.976 32.5462 119.5 32.0273C118.948 31.9971 118.5 31.5523 118.5 31V4C118.5 1.79086 116.709 0 114.5 0L87.5 0Z"/>
</mask>
<path fill-rule="evenodd" clip-rule="evenodd" d="M87.5 0C86.9477 0 86.5029 0.448498 86.4727 0.999957C85.9538 10.476 78.1056 18 68.5 18C58.8944 18 51.0462 10.476 50.5273 0.999956C50.4971 0.448497 50.0523 0 49.5 0L22.5 0C20.2909 0 18.5 1.79086 18.5 4L18.5 31C18.5 31.5523 18.0515 31.9971 17.5 32.0273C8.02403 32.5462 0.5 40.3944 0.5 50C0.5 59.6056 8.02403 67.4538 17.5 67.9727C18.0515 68.0029 18.5 68.4477 18.5 69L18.5 96C18.5 98.2091 20.2909 100 22.5 100L49.5 100C50.0523 100 50.4971 100.448 50.5273 101C51.0462 110.476 58.8944 118 68.5 118C78.1056 118 85.9538 110.476 86.4727 101C86.5029 100.448 86.9477 100 87.5 100L114.5 100C116.709 100 118.5 98.2091 118.5 96V69C118.5 68.4477 118.948 68.0029 119.5 67.9727C128.976 67.4538 136.5 59.6056 136.5 50C136.5 40.3944 128.976 32.5462 119.5 32.0273C118.948 31.9971 118.5 31.5523 118.5 31V4C118.5 1.79086 116.709 0 114.5 0L87.5 0Z" fill="#D1D5DB" fill-opacity="0.2"/>
<path d="M18.5 4L17.5 4L17.5 4L18.5 4ZM18.5 96L17.5 96V96H18.5ZM119.5 32.0273L119.555 31.0288L119.5 32.0273ZM119.5 67.9727L119.555 68.9712L119.5 67.9727ZM50.5273 101L49.5288 101.055L50.5273 101ZM18.5 31L19.5 31L18.5 31ZM17.5 32.0273L17.4454 31.0288L17.5 32.0273ZM17.5 67.9727L17.4454 68.9712L17.5 67.9727ZM18.5 69L17.5 69L18.5 69ZM50.5273 0.999956L49.5288 1.05463L50.5273 0.999956ZM86.4727 101L85.4742 100.945L86.4727 101ZM86.4727 0.999957L85.4742 0.945284L86.4727 0.999957ZM68.5 19C78.6396 19 86.9235 11.058 87.4712 1.05463L85.4742 0.945284C84.9842 9.89397 77.5716 17 68.5 17V19ZM49.5288 1.05463C50.0765 11.058 58.3604 19 68.5 19V17C59.4284 17 52.0158 9.89397 51.5258 0.945282L49.5288 1.05463ZM22.5 1L49.5 1V-1L22.5 -1V1ZM19.5 4C19.5 2.34315 20.8431 1 22.5 1V-1C19.7386 -1 17.5 1.23858 17.5 4H19.5ZM19.5 31L19.5 4L17.5 4L17.5 31L19.5 31ZM1.5 50C1.5 40.9284 8.60603 33.5158 17.5547 33.0258L17.4454 31.0288C7.44204 31.5765 -0.5 39.8604 -0.5 50H1.5ZM17.5547 66.9742C8.60603 66.4842 1.5 59.0716 1.5 50H-0.5C-0.5 60.1396 7.44204 68.4235 17.4454 68.9712L17.5547 66.9742ZM19.5 96L19.5 69L17.5 69L17.5 96L19.5 96ZM22.5 99C20.8431 99 19.5 97.6569 19.5 96H17.5C17.5 98.7614 19.7386 101 22.5 101L22.5 99ZM49.5 99L22.5 99L22.5 101L49.5 101V99ZM68.5 117C59.4284 117 52.0158 109.894 51.5258 100.945L49.5288 101.055C50.0765 111.058 58.3604 119 68.5 119V117ZM85.4742 100.945C84.9842 109.894 77.5716 117 68.5 117V119C78.6396 119 86.9235 111.058 87.4712 101.055L85.4742 100.945ZM114.5 99L87.5 99V101L114.5 101V99ZM117.5 96C117.5 97.6569 116.157 99 114.5 99V101C117.261 101 119.5 98.7614 119.5 96H117.5ZM117.5 69V96H119.5V69H117.5ZM135.5 50C135.5 59.0716 128.394 66.4842 119.445 66.9742L119.555 68.9712C129.558 68.4235 137.5 60.1396 137.5 50H135.5ZM119.445 33.0258C128.394 33.5158 135.5 40.9284 135.5 50H137.5C137.5 39.8604 129.558 31.5765 119.555 31.0288L119.445 33.0258ZM117.5 4V31H119.5V4H117.5ZM114.5 1C116.157 1 117.5 2.34315 117.5 4H119.5C119.5 1.23858 117.261 -1 114.5 -1V1ZM87.5 1L114.5 1V-1L87.5 -1V1ZM119.555 31.0288C119.533 31.0276 119.516 31.0187 119.506 31.0081C119.501 31.0033 119.5 31.0001 119.5 30.9999C119.5 30.9998 119.5 31.0001 119.5 31.0007C119.5 31.0012 119.5 31.0012 119.5 31H117.5C117.5 32.1183 118.399 32.9685 119.445 33.0258L119.555 31.0288ZM119.5 69C119.5 68.9988 119.5 68.9988 119.5 68.9994C119.5 68.9999 119.5 69.0002 119.5 69.0001C119.5 68.9999 119.501 68.9967 119.506 68.9919C119.516 68.9813 119.533 68.9724 119.555 68.9712L119.445 66.9742C118.399 67.0315 117.5 67.8817 117.5 69H119.5ZM49.5 101C49.5012 101 49.5012 101 49.5006 101C49.5001 101 49.4998 101 49.4999 101C49.5001 101 49.5033 101.001 49.5081 101.006C49.5187 101.016 49.5276 101.033 49.5288 101.055L51.5258 100.945C51.4685 99.8992 50.6183 99 49.5 99V101ZM17.5 31C17.5 31.0012 17.4999 31.0012 17.5 31.0006C17.5001 31.0001 17.5003 30.9998 17.5002 30.9999C17.5002 31.0001 17.4987 31.0033 17.494 31.0081C17.4836 31.0187 17.4666 31.0276 17.4454 31.0288L17.5547 33.0258C18.6008 32.9685 19.5 32.1183 19.5 31L17.5 31ZM17.4454 68.9712C17.4667 68.9724 17.4836 68.9813 17.494 68.9919C17.4987 68.9967 17.5002 68.9999 17.5002 69.0001C17.5003 69.0002 17.5001 68.9999 17.5 68.9993C17.4999 68.9988 17.5 68.9988 17.5 69L19.5 69C19.5 67.8817 18.6008 67.0315 17.5547 66.9742L17.4454 68.9712ZM51.5258 0.945282C51.4685 -0.100789 50.6183 -1 49.5 -1V1C49.5012 1 49.5012 1.0001 49.5007 0.999977C49.5001 0.999868 49.4998 0.999738 49.4999 0.999766C49.5001 0.999846 49.5033 1.00127 49.5081 1.006C49.5187 1.0164 49.5276 1.03335 49.5288 1.05463L51.5258 0.945282ZM87.4712 101.055C87.4724 101.033 87.4813 101.016 87.4919 101.006C87.4967 101.001 87.4999 101 87.5001 101C87.5002 101 87.4999 101 87.4993 101C87.4988 101 87.4988 101 87.5 101V99C86.3817 99 85.5315 99.8992 85.4742 100.945L87.4712 101.055ZM87.4712 1.05463C87.4724 1.03335 87.4813 1.0164 87.4919 1.006C87.4967 1.00127 87.4999 0.999846 87.5001 0.999766C87.5002 0.999738 87.4999 0.999868 87.4994 0.999977C87.4988 1.0001 87.4988 1 87.5 1V-1C86.3817 -1 85.5315 -0.100786 85.4742 0.945284L87.4712 1.05463Z" fill="#D1D5DB" mask="url(#path-1-inside-1_673_10122)"/>
<path d="M37.1965 71.108C36.6125 71.108 36.1085 70.98 35.6845 70.724C35.2605 70.468 34.9325 70.112 34.7005 69.656C34.4765 69.192 34.3645 68.656 34.3645 68.048C34.3645 67.584 34.4285 67.168 34.5565 66.8C34.6845 66.432 34.8725 66.12 35.1205 65.864C35.3685 65.6 35.6645 65.4 36.0085 65.264C36.3605 65.128 36.7565 65.06 37.1965 65.06C37.4845 65.06 37.7845 65.104 38.0965 65.192C38.4085 65.28 38.6925 65.432 38.9485 65.648C39.0285 65.704 39.0805 65.772 39.1045 65.852C39.1285 65.932 39.1285 66.012 39.1045 66.092C39.0805 66.164 39.0405 66.228 38.9845 66.284C38.9285 66.332 38.8565 66.36 38.7685 66.368C38.6885 66.376 38.6045 66.348 38.5165 66.284C38.3085 66.124 38.0965 66.012 37.8805 65.948C37.6645 65.884 37.4565 65.852 37.2565 65.852C36.9445 65.852 36.6725 65.904 36.4405 66.008C36.2085 66.104 36.0125 66.244 35.8525 66.428C35.6925 66.612 35.5685 66.84 35.4805 67.112C35.4005 67.384 35.3605 67.7 35.3605 68.06C35.3605 68.756 35.5245 69.308 35.8525 69.716C36.1805 70.116 36.6485 70.316 37.2565 70.316C37.4565 70.316 37.6605 70.284 37.8685 70.22C38.0845 70.156 38.3005 70.044 38.5165 69.884C38.6045 69.82 38.6885 69.792 38.7685 69.8C38.8485 69.808 38.9165 69.84 38.9725 69.896C39.0285 69.944 39.0645 70.008 39.0805 70.088C39.1045 70.168 39.1045 70.248 39.0805 70.328C39.0565 70.4 39.0045 70.464 38.9245 70.52C38.6685 70.728 38.3885 70.88 38.0845 70.976C37.7805 71.064 37.4845 71.108 37.1965 71.108ZM40.7592 71.084C40.5992 71.084 40.4792 71.04 40.3992 70.952C40.3192 70.864 40.2792 70.74 40.2792 70.58V62.948C40.2792 62.788 40.3192 62.668 40.3992 62.588C40.4792 62.5 40.5992 62.456 40.7592 62.456C40.9112 62.456 41.0312 62.5 41.1192 62.588C41.2072 62.668 41.2512 62.788 41.2512 62.948V66.464H41.0952C41.2632 66 41.5352 65.652 41.9112 65.42C42.2952 65.18 42.7352 65.06 43.2312 65.06C43.6952 65.06 44.0792 65.144 44.3832 65.312C44.6952 65.48 44.9272 65.736 45.0792 66.08C45.2312 66.416 45.3072 66.844 45.3072 67.364V70.58C45.3072 70.74 45.2632 70.864 45.1752 70.952C45.0952 71.04 44.9792 71.084 44.8272 71.084C44.6672 71.084 44.5432 71.04 44.4552 70.952C44.3752 70.864 44.3352 70.74 44.3352 70.58V67.424C44.3352 66.88 44.2272 66.484 44.0112 66.236C43.8032 65.98 43.4672 65.852 43.0032 65.852C42.4672 65.852 42.0392 66.02 41.7192 66.356C41.4072 66.684 41.2512 67.124 41.2512 67.676V70.58C41.2512 70.916 41.0872 71.084 40.7592 71.084ZM48.9355 71.108C48.5355 71.108 48.1755 71.032 47.8555 70.88C47.5435 70.72 47.2955 70.504 47.1115 70.232C46.9275 69.96 46.8355 69.656 46.8355 69.32C46.8355 68.888 46.9435 68.548 47.1595 68.3C47.3835 68.052 47.7475 67.876 48.2515 67.772C48.7635 67.668 49.4595 67.616 50.3395 67.616H50.8795V68.252H50.3515C49.7035 68.252 49.1915 68.284 48.8155 68.348C48.4475 68.404 48.1875 68.504 48.0355 68.648C47.8915 68.792 47.8195 68.996 47.8195 69.26C47.8195 69.588 47.9315 69.856 48.1555 70.064C48.3875 70.272 48.6995 70.376 49.0915 70.376C49.4115 70.376 49.6915 70.3 49.9315 70.148C50.1795 69.996 50.3715 69.788 50.5075 69.524C50.6515 69.26 50.7235 68.956 50.7235 68.612V67.244C50.7235 66.748 50.6235 66.392 50.4235 66.176C50.2235 65.952 49.8955 65.84 49.4395 65.84C49.1595 65.84 48.8795 65.876 48.5995 65.948C48.3195 66.02 48.0235 66.136 47.7115 66.296C47.5995 66.352 47.5035 66.372 47.4235 66.356C47.3435 66.332 47.2795 66.288 47.2315 66.224C47.1835 66.16 47.1555 66.088 47.1475 66.008C47.1395 65.92 47.1555 65.836 47.1955 65.756C47.2435 65.676 47.3155 65.612 47.4115 65.564C47.7635 65.388 48.1115 65.26 48.4555 65.18C48.7995 65.1 49.1275 65.06 49.4395 65.06C49.9435 65.06 50.3595 65.144 50.6875 65.312C51.0155 65.472 51.2595 65.72 51.4195 66.056C51.5795 66.384 51.6595 66.808 51.6595 67.328V70.58C51.6595 70.74 51.6195 70.864 51.5395 70.952C51.4675 71.04 51.3595 71.084 51.2155 71.084C51.0635 71.084 50.9475 71.04 50.8675 70.952C50.7875 70.864 50.7475 70.74 50.7475 70.58V69.644H50.8555C50.7915 69.948 50.6675 70.208 50.4835 70.424C50.3075 70.64 50.0875 70.808 49.8235 70.928C49.5595 71.048 49.2635 71.108 48.9355 71.108ZM53.9428 71.084C53.7828 71.084 53.6628 71.04 53.5828 70.952C53.5028 70.864 53.4628 70.74 53.4628 70.58V65.576C53.4628 65.416 53.5028 65.296 53.5828 65.216C53.6628 65.128 53.7788 65.084 53.9308 65.084C54.0828 65.084 54.1988 65.128 54.2788 65.216C54.3668 65.296 54.4108 65.416 54.4108 65.576V66.608L54.2788 66.464C54.4468 66 54.7188 65.652 55.0948 65.42C55.4788 65.18 55.9188 65.06 56.4148 65.06C56.8788 65.06 57.2628 65.144 57.5668 65.312C57.8788 65.48 58.1108 65.736 58.2628 66.08C58.4148 66.416 58.4908 66.844 58.4908 67.364V70.58C58.4908 70.74 58.4468 70.864 58.3588 70.952C58.2788 71.04 58.1628 71.084 58.0108 71.084C57.8508 71.084 57.7268 71.04 57.6388 70.952C57.5588 70.864 57.5188 70.74 57.5188 70.58V67.424C57.5188 66.88 57.4108 66.484 57.1948 66.236C56.9868 65.98 56.6508 65.852 56.1868 65.852C55.6508 65.852 55.2228 66.02 54.9028 66.356C54.5908 66.684 54.4348 67.124 54.4348 67.676V70.58C54.4348 70.916 54.2708 71.084 53.9428 71.084ZM62.8631 73.268C62.4391 73.268 62.0231 73.216 61.6151 73.112C61.2151 73.016 60.8511 72.86 60.5231 72.644C60.4271 72.588 60.3631 72.52 60.3311 72.44C60.3071 72.36 60.3031 72.28 60.3191 72.2C60.3351 72.128 60.3711 72.06 60.4271 71.996C60.4831 71.94 60.5471 71.904 60.6191 71.888C60.6991 71.872 60.7791 71.884 60.8591 71.924C61.2111 72.14 61.5471 72.288 61.8671 72.368C62.1871 72.448 62.5031 72.488 62.8151 72.488C63.3831 72.488 63.8111 72.336 64.0991 72.032C64.3951 71.728 64.5431 71.288 64.5431 70.712V69.356H64.6631C64.5431 69.82 64.2871 70.188 63.8951 70.46C63.5111 70.732 63.0591 70.868 62.5391 70.868C62.0031 70.868 61.5391 70.748 61.1471 70.508C60.7551 70.26 60.4511 69.916 60.2351 69.476C60.0271 69.036 59.9231 68.528 59.9231 67.952C59.9231 67.52 59.9831 67.128 60.1031 66.776C60.2231 66.416 60.3951 66.112 60.6191 65.864C60.8511 65.608 61.1271 65.412 61.4471 65.276C61.7751 65.132 62.1391 65.06 62.5391 65.06C63.0671 65.06 63.5231 65.196 63.9071 65.468C64.2911 65.732 64.5391 66.092 64.6511 66.548L64.5311 66.692V65.576C64.5311 65.416 64.5711 65.296 64.6511 65.216C64.7391 65.128 64.8591 65.084 65.0111 65.084C65.1711 65.084 65.2911 65.128 65.3711 65.216C65.4511 65.296 65.4911 65.416 65.4911 65.576V70.58C65.4911 71.468 65.2671 72.136 64.8191 72.584C64.3791 73.04 63.7271 73.268 62.8631 73.268ZM62.7191 70.076C63.0951 70.076 63.4191 69.992 63.6911 69.824C63.9631 69.648 64.1711 69.4 64.3151 69.08C64.4671 68.76 64.5431 68.384 64.5431 67.952C64.5431 67.304 64.3791 66.792 64.0511 66.416C63.7231 66.032 63.2791 65.84 62.7191 65.84C62.3511 65.84 62.0311 65.928 61.7591 66.104C61.4871 66.272 61.2751 66.516 61.1231 66.836C60.9791 67.148 60.9071 67.52 60.9071 67.952C60.9071 68.6 61.0711 69.116 61.3991 69.5C61.7271 69.884 62.1671 70.076 62.7191 70.076ZM69.9423 71.108C69.3263 71.108 68.7943 70.988 68.3463 70.748C67.9063 70.5 67.5623 70.152 67.3143 69.704C67.0743 69.256 66.9543 68.72 66.9543 68.096C66.9543 67.488 67.0743 66.96 67.3143 66.512C67.5543 66.056 67.8823 65.7 68.2983 65.444C68.7223 65.188 69.2103 65.06 69.7623 65.06C70.1543 65.06 70.5063 65.128 70.8183 65.264C71.1303 65.392 71.3943 65.58 71.6103 65.828C71.8343 66.076 72.0023 66.376 72.1143 66.728C72.2343 67.08 72.2943 67.476 72.2943 67.916C72.2943 68.044 72.2583 68.14 72.1863 68.204C72.1143 68.26 72.0103 68.288 71.8743 68.288H67.6983V67.652H71.6463L71.4543 67.808C71.4543 67.376 71.3903 67.012 71.2623 66.716C71.1343 66.412 70.9463 66.18 70.6983 66.02C70.4583 65.86 70.1543 65.78 69.7863 65.78C69.3783 65.78 69.0303 65.876 68.7423 66.068C68.4623 66.252 68.2503 66.512 68.1063 66.848C67.9623 67.176 67.8903 67.56 67.8903 68V68.072C67.8903 68.808 68.0663 69.368 68.4183 69.752C68.7783 70.136 69.2863 70.328 69.9423 70.328C70.2143 70.328 70.4823 70.292 70.7463 70.22C71.0183 70.148 71.2823 70.028 71.5383 69.86C71.6503 69.788 71.7503 69.756 71.8383 69.764C71.9343 69.764 72.0103 69.792 72.0663 69.848C72.1223 69.896 72.1583 69.96 72.1743 70.04C72.1983 70.112 72.1903 70.192 72.1503 70.28C72.1183 70.368 72.0503 70.444 71.9463 70.508C71.6823 70.7 71.3703 70.848 71.0103 70.952C70.6503 71.056 70.2943 71.108 69.9423 71.108ZM75.4771 71.108C74.9011 71.108 74.4611 70.932 74.1571 70.58C73.8531 70.228 73.7011 69.724 73.7011 69.068V62.948C73.7011 62.788 73.7411 62.668 73.8211 62.588C73.9011 62.5 74.0211 62.456 74.1811 62.456C74.3331 62.456 74.4531 62.5 74.5411 62.588C74.6291 62.668 74.6731 62.788 74.6731 62.948V68.996C74.6731 69.428 74.7571 69.752 74.9251 69.968C75.1011 70.176 75.3571 70.28 75.6931 70.28C75.7651 70.28 75.8291 70.276 75.8851 70.268C75.9411 70.26 75.9971 70.256 76.0531 70.256C76.1411 70.248 76.2011 70.268 76.2331 70.316C76.2731 70.364 76.2931 70.46 76.2931 70.604C76.2931 70.748 76.2611 70.856 76.1971 70.928C76.1331 71 76.0291 71.048 75.8851 71.072C75.8211 71.08 75.7531 71.088 75.6811 71.096C75.6091 71.104 75.5411 71.108 75.4771 71.108ZM79.6173 71.108C79.0493 71.108 78.5573 70.984 78.1413 70.736C77.7253 70.488 77.4013 70.14 77.1693 69.692C76.9453 69.236 76.8333 68.7 76.8333 68.084C76.8333 67.62 76.8973 67.204 77.0253 66.836C77.1533 66.46 77.3413 66.14 77.5893 65.876C77.8373 65.612 78.1293 65.412 78.4653 65.276C78.8093 65.132 79.1933 65.06 79.6173 65.06C80.1853 65.06 80.6773 65.184 81.0933 65.432C81.5093 65.68 81.8293 66.032 82.0533 66.488C82.2853 66.936 82.4013 67.468 82.4013 68.084C82.4013 68.548 82.3373 68.964 82.2093 69.332C82.0813 69.7 81.8933 70.02 81.6453 70.292C81.3973 70.556 81.1013 70.76 80.7573 70.904C80.4213 71.04 80.0413 71.108 79.6173 71.108ZM79.6173 70.328C79.9773 70.328 80.2933 70.24 80.5653 70.064C80.8373 69.888 81.0453 69.632 81.1893 69.296C81.3413 68.96 81.4173 68.556 81.4173 68.084C81.4173 67.356 81.2533 66.8 80.9253 66.416C80.6053 66.032 80.1693 65.84 79.6173 65.84C79.2493 65.84 78.9293 65.928 78.6573 66.104C78.3933 66.272 78.1853 66.524 78.0333 66.86C77.8893 67.188 77.8173 67.596 77.8173 68.084C77.8173 68.804 77.9813 69.36 78.3093 69.752C78.6373 70.136 79.0733 70.328 79.6173 70.328ZM86.4412 73.268C86.0172 73.268 85.6012 73.216 85.1932 73.112C84.7932 73.016 84.4292 72.86 84.1012 72.644C84.0052 72.588 83.9412 72.52 83.9092 72.44C83.8852 72.36 83.8812 72.28 83.8972 72.2C83.9132 72.128 83.9492 72.06 84.0052 71.996C84.0612 71.94 84.1252 71.904 84.1972 71.888C84.2772 71.872 84.3572 71.884 84.4372 71.924C84.7892 72.14 85.1252 72.288 85.4452 72.368C85.7652 72.448 86.0812 72.488 86.3932 72.488C86.9612 72.488 87.3892 72.336 87.6772 72.032C87.9732 71.728 88.1212 71.288 88.1212 70.712V69.356H88.2412C88.1212 69.82 87.8652 70.188 87.4732 70.46C87.0892 70.732 86.6372 70.868 86.1172 70.868C85.5812 70.868 85.1172 70.748 84.7252 70.508C84.3332 70.26 84.0292 69.916 83.8132 69.476C83.6052 69.036 83.5012 68.528 83.5012 67.952C83.5012 67.52 83.5612 67.128 83.6812 66.776C83.8012 66.416 83.9732 66.112 84.1972 65.864C84.4292 65.608 84.7052 65.412 85.0252 65.276C85.3532 65.132 85.7172 65.06 86.1172 65.06C86.6452 65.06 87.1012 65.196 87.4852 65.468C87.8692 65.732 88.1172 66.092 88.2292 66.548L88.1092 66.692V65.576C88.1092 65.416 88.1492 65.296 88.2292 65.216C88.3172 65.128 88.4372 65.084 88.5892 65.084C88.7492 65.084 88.8692 65.128 88.9492 65.216C89.0292 65.296 89.0692 65.416 89.0692 65.576V70.58C89.0692 71.468 88.8452 72.136 88.3972 72.584C87.9572 73.04 87.3052 73.268 86.4412 73.268ZM86.2972 70.076C86.6732 70.076 86.9972 69.992 87.2692 69.824C87.5412 69.648 87.7492 69.4 87.8932 69.08C88.0452 68.76 88.1212 68.384 88.1212 67.952C88.1212 67.304 87.9572 66.792 87.6292 66.416C87.3012 66.032 86.8572 65.84 86.2972 65.84C85.9292 65.84 85.6092 65.928 85.3372 66.104C85.0652 66.272 84.8532 66.516 84.7012 66.836C84.5572 67.148 84.4852 67.52 84.4852 67.952C84.4852 68.6 84.6492 69.116 84.9772 69.5C85.3052 69.884 85.7452 70.076 86.2972 70.076ZM93.5205 71.108C92.9045 71.108 92.3725 70.988 91.9245 70.748C91.4845 70.5 91.1405 70.152 90.8925 69.704C90.6525 69.256 90.5325 68.72 90.5325 68.096C90.5325 67.488 90.6525 66.96 90.8925 66.512C91.1325 66.056 91.4605 65.7 91.8765 65.444C92.3005 65.188 92.7885 65.06 93.3405 65.06C93.7325 65.06 94.0845 65.128 94.3965 65.264C94.7085 65.392 94.9725 65.58 95.1885 65.828C95.4125 66.076 95.5805 66.376 95.6925 66.728C95.8125 67.08 95.8725 67.476 95.8725 67.916C95.8725 68.044 95.8365 68.14 95.7645 68.204C95.6925 68.26 95.5885 68.288 95.4525 68.288H91.2765V67.652H95.2245L95.0325 67.808C95.0325 67.376 94.9685 67.012 94.8405 66.716C94.7125 66.412 94.5245 66.18 94.2765 66.02C94.0365 65.86 93.7325 65.78 93.3645 65.78C92.9565 65.78 92.6085 65.876 92.3205 66.068C92.0405 66.252 91.8285 66.512 91.6845 66.848C91.5405 67.176 91.4685 67.56 91.4685 68V68.072C91.4685 68.808 91.6445 69.368 91.9965 69.752C92.3565 70.136 92.8645 70.328 93.5205 70.328C93.7925 70.328 94.0605 70.292 94.3245 70.22C94.5965 70.148 94.8605 70.028 95.1165 69.86C95.2285 69.788 95.3285 69.756 95.4165 69.764C95.5125 69.764 95.5885 69.792 95.6445 69.848C95.7005 69.896 95.7365 69.96 95.7525 70.04C95.7765 70.112 95.7685 70.192 95.7285 70.28C95.6965 70.368 95.6285 70.444 95.5245 70.508C95.2605 70.7 94.9485 70.848 94.5885 70.952C94.2285 71.056 93.8725 71.108 93.5205 71.108ZM97.7592 71.084C97.5992 71.084 97.4792 71.04 97.3992 70.952C97.3192 70.864 97.2792 70.74 97.2792 70.58V65.576C97.2792 65.416 97.3192 65.296 97.3992 65.216C97.4792 65.128 97.5952 65.084 97.7472 65.084C97.8992 65.084 98.0152 65.128 98.0952 65.216C98.1832 65.296 98.2272 65.416 98.2272 65.576V66.608L98.0952 66.464C98.2632 66 98.5352 65.652 98.9112 65.42C99.2952 65.18 99.7352 65.06 100.231 65.06C100.695 65.06 101.079 65.144 101.383 65.312C101.695 65.48 101.927 65.736 102.079 66.08C102.231 66.416 102.307 66.844 102.307 67.364V70.58C102.307 70.74 102.263 70.864 102.175 70.952C102.095 71.04 101.979 71.084 101.827 71.084C101.667 71.084 101.543 71.04 101.455 70.952C101.375 70.864 101.335 70.74 101.335 70.58V67.424C101.335 66.88 101.227 66.484 101.011 66.236C100.803 65.98 100.467 65.852 100.003 65.852C99.4672 65.852 99.0392 66.02 98.7192 66.356C98.4072 66.684 98.2512 67.124 98.2512 67.676V70.58C98.2512 70.916 98.0872 71.084 97.7592 71.084Z" fill="#030712"/>
<path d="M71.1491 47.6649C72.9538 45.1121 71.7287 43.9112 71.3328 43.4824C70.9369 43.0537 63.8537 46.2212 63.8537 46.2212C63.8537 46.2212 67.2728 43.6749 68.85 42.0606C70.6 40.269 69.9 39.1993 69.8081 38.8231C68.745 34.5028 58.8334 41.5531 58.8334 41.5531C58.8334 41.5531 59.6734 40.9296 60.7191 40.2078C62.0447 39.2934 63.5891 37.8693 62.7534 36.0559C62.5194 35.5462 59.085 35.7146 55.375 37.4099V53.1249H66.4984C68.3797 51.0271 70.5344 48.5356 71.1491 47.6649Z" fill="#BA8F63"/>
<path d="M67.4172 50.01C67.4172 50.01 69.0469 48.5246 68.3491 48.4984C67.1941 48.4546 65.9669 47.3368 66.0478 46.5318C66.1638 45.39 69.3466 46.569 69.6856 46.1381C70.1953 45.4928 70.6722 44.819 71.1097 44.1234C71.16 44.0446 71.2103 43.9615 71.2234 43.8675C71.2519 43.6706 71.0484 43.4759 70.9216 43.3534C69.8103 42.264 68.8347 42.124 66.5006 43.9112C64.8206 45.1996 58.6803 50.3075 55.375 53.0659V53.125H64.2694L67.4172 50.01ZM62.4559 35.4303C62.4341 35.3581 62.3378 35.2772 62.2897 35.2181C62.1825 35.089 62.0644 34.9687 61.9353 34.8593C61.6706 34.6362 61.5788 33.7065 60.1766 33.9034C59.5291 33.9931 57.4334 35.0453 55.375 36.1434V41.8637C57.5603 40.5118 58.2713 40.0831 58.7831 39.639C59.3934 39.1096 57.09 39.3525 57.2716 36.9484C57.3328 36.1478 61.5131 36.2572 62.2984 35.66C62.3553 35.6162 62.4538 35.5484 62.4625 35.4697C62.4625 35.4565 62.4603 35.4434 62.4559 35.4303ZM68.6575 38.0793C68.5897 37.9743 68.5175 37.8715 68.4431 37.7709C68.2856 37.5631 68.1041 37.3728 67.9006 37.2109C67.5638 36.9418 67.3625 37.0228 66.9994 36.7931C66.5159 36.4847 65.1794 37.3903 62.1059 39.2168C60.3078 40.2843 57.6916 41.9993 55.375 43.5525V50.6859C59.7238 47.3281 65.4463 42.929 65.9056 42.4872C66.3453 42.0628 63.4819 42.0759 63.8756 39.8578C63.9325 39.5362 66.6581 40.9537 66.8003 40.6584C67.0716 40.0962 67.4041 39.5625 67.7934 39.0768C67.9444 38.8887 68.1106 38.7028 68.3272 38.6C68.4475 38.5431 68.5853 38.5081 68.6706 38.4097C68.7581 38.3068 68.7209 38.18 68.6575 38.0793Z" fill="#E0BB95"/>
<path d="M63.7313 33.7175C64.3613 34.6122 64.171 35.6031 62.6113 36.9944C61.4716 38.0116 60.7081 38.4163 59.5947 38.6481C58.606 38.8538 57.9322 38.3134 57.335 37.2284C56.8581 36.36 57.1775 35.8831 57.3963 35.5944C58.0569 34.7216 59.7216 33.9691 60.6163 33.6366C62.0425 33.1072 63.2828 33.0788 63.7313 33.7175ZM69.7775 39.6325C69.0206 40.3325 67.835 41.2994 66.7981 41.5881C66.3125 41.7238 65.3172 41.8178 64.3263 40.6213C63.3463 39.44 63.9741 38.6766 64.2038 38.3834C64.9213 37.4669 66.131 36.7931 67.1941 36.3031C68.511 35.6972 69.7863 35.4719 70.4644 36.0428C71.3613 36.7953 71.2191 38.3025 69.7775 39.6325ZM71.8316 42.2028C72.9297 42.9356 72.2713 44.6288 71.6478 45.4578C70.9763 46.3525 70.0685 47.3938 69.2875 47.7416C68.7385 47.9866 67.8525 48.2141 66.6472 47.2078C65.6519 46.3744 65.98 45.2281 66.3169 44.6638C66.8485 43.7734 67.8197 43.1216 68.9222 42.4653C70.1428 41.7413 71.1841 41.7697 71.8316 42.2028Z" fill="#F44336"/>
<path d="M71.6478 45.4578C72.1159 44.8322 72.6059 43.7188 72.35 42.8919C71.8972 43.4344 69.2088 46.6259 67.975 47.1159C67.4434 47.3281 66.8813 47.385 66.8813 47.385L66.8791 47.3872C67.9663 48.1834 68.7734 47.9691 69.2875 47.7416C70.0684 47.3959 70.9763 46.3525 71.6478 45.4578ZM71.02 37.41C70.0859 38.1275 66.7106 40.6475 65.6256 40.8947C65.1531 41.0019 64.8841 41.0391 64.7069 41.0128C65.5228 41.7478 66.3628 41.7084 66.7981 41.5881C67.835 41.2972 69.0206 40.3303 69.7775 39.6325C70.5803 38.8909 70.9784 38.0969 71.02 37.41ZM58.6891 38.0816C58.3872 38.1275 58.1663 38.1538 58.0022 38.1538C58.4441 38.5956 58.9538 38.7794 59.5969 38.6459C60.7103 38.4141 61.4738 38.0094 62.6134 36.9922C63.4097 36.2813 63.8472 35.6775 64.0025 35.135C62.5719 36.0691 59.6363 37.935 58.6891 38.0816Z" fill="#C62828"/>
<path d="M58.4419 35.7431C58.9537 35.1547 60.1087 34.2359 61.5634 33.8138C62.2197 33.6234 62.4144 34.2753 61.9747 34.4547C61.0406 34.8375 59.1987 35.8613 58.9494 36.0034C58.4331 36.2922 58.0853 36.1522 58.4419 35.7431ZM65.1094 38.6766C65.9122 37.7513 66.6034 37.2613 67.9881 36.5613C68.2922 36.4081 68.7166 36.3819 68.8937 36.4891C69.2503 36.7034 69.2744 36.9988 68.8325 37.2241C66.8834 38.2216 66.3803 38.6481 65.5556 39.0856C65.0787 39.3394 64.8469 38.9806 65.1094 38.6766ZM68.6137 43.5809C69.5522 42.7628 70.1537 42.5244 70.3462 42.6709C70.6897 42.9313 70.4272 43.255 70.0947 43.5109C69.7622 43.7669 67.9969 45.1822 67.73 45.3878C67.4631 45.5934 67.0737 45.6853 67.2334 45.2588C67.3669 44.9022 67.8875 44.2131 68.6137 43.5809Z" fill="#FF7555"/>
<path d="M72.2516 32.3416C71.9147 33.3325 73.3803 34.7281 75.5284 35.4609C77.6766 36.1938 79.6913 35.9838 80.0281 34.9928C80.1966 34.4963 81.5331 26.875 81.5331 26.875H75.0888C74.111 28.7563 72.4725 31.6897 72.2516 32.3416Z" fill="#546E7A"/>
<path d="M79.2917 34.9328C79.4999 34.3221 78.2281 33.336 76.4512 32.7302C74.6742 32.1243 73.0649 32.1282 72.8567 32.7388C72.6485 33.3495 73.9203 34.3356 75.6973 34.9414C77.4742 35.5473 79.0835 35.5434 79.2917 34.9328Z" fill="#202020"/>
<path d="M74.2903 40.6628C74.3406 40.571 74.5134 40.1597 74.5572 40.1007C74.7475 39.8513 74.9028 39.8272 75.0494 39.451C75.1741 39.1338 76.9044 34.2207 76.9044 34.2207C76.9044 34.2207 77.0203 33.6869 76.2744 33.4332C75.5306 33.1794 75.2944 33.6738 75.2944 33.6738C75.2944 33.6738 73.6625 38.285 73.4831 38.81C73.3322 39.2563 73.4919 39.3788 73.3869 39.661C73.3694 39.7113 73.1834 40.0438 73.1441 40.105L74.2903 40.6628Z" fill="#546E7A"/>
<path d="M73.7084 39.4181C73.5815 39.4224 73.4612 39.4028 73.2775 39.6149C72.9319 40.0065 72.4266 40.4374 71.6347 40.7393C71.3875 40.8334 71.0528 40.9974 71.0659 41.2621C71.0944 41.8462 72.1816 42.6118 72.9931 42.3953C73.715 42.2028 74.369 40.9624 74.4194 40.7131C74.4697 40.4637 74.5594 40.1465 74.4937 39.9518C74.3931 39.6543 74.0212 39.4093 73.7084 39.4181Z" fill="#F44336"/>
<path d="M71.7287 41.5312C71.8381 41.5706 71.9431 41.4743 72.0503 41.4262C72.2078 41.354 72.3937 41.3956 72.5534 41.4634C72.7131 41.5312 72.8641 41.6231 73.0347 41.6581C73.2884 41.7106 73.5575 41.6209 73.7675 41.4656C73.9753 41.3103 74.38 40.2406 74.5091 40.0153C74.5222 40.0787 74.5397 40.1771 74.5244 40.2931C74.4062 41.214 73.6428 42.2881 73.0303 42.4412C72.7919 42.5003 72.4309 42.509 72.1903 42.4609C71.9475 42.4128 71.6631 42.2793 71.4597 42.1371C71.2562 41.9949 71.1141 41.8134 71.0025 41.5903C70.9478 41.4809 70.9675 41.3146 71.0309 41.2009C71.0747 41.1199 71.1622 41.0718 71.2519 41.0653C71.3569 41.0565 71.4684 41.1068 71.5297 41.1943C71.5931 41.284 71.5931 41.4087 71.6697 41.4896C71.6828 41.5071 71.7047 41.5224 71.7287 41.5312Z" fill="#C62828"/>
<path d="M72.7744 41.2709C72.1313 41.7543 71.8338 41.6384 71.7113 41.5837C71.5866 41.529 71.4947 41.3868 71.5319 41.2556C71.5713 41.1156 71.7222 41.0478 71.8556 40.9909C72.1619 40.8618 72.5666 40.7284 72.8466 40.5468C73.8375 39.9103 73.6297 39.5778 73.8244 39.6368C74.0191 39.6959 73.7719 40.2362 73.5006 40.595C73.2928 40.8662 72.9778 41.1178 72.7744 41.2709Z" fill="#FF7555"/>
<path d="M73.6997 31.6963C74.0431 31.6526 74.6469 31.681 75.1019 31.7444C75.2616 31.7663 75.4169 31.6832 75.4825 31.5366C75.9156 30.5938 76.7994 28.5376 76.9656 28.0541C77.1275 27.5794 75.5634 27.3563 75.2069 27.9469C74.7803 28.6557 73.5509 31.1822 73.5509 31.1822C73.3606 31.4885 73.4087 31.7357 73.6997 31.6963ZM73.6516 39.0704C73.5291 39.0266 73.4591 38.8822 73.5006 38.751C73.7894 37.8585 74.9487 34.5751 75.1347 34.1616C75.3534 33.6804 75.9462 33.7919 75.8281 34.1616C75.7275 34.4766 74.3362 37.9854 73.9862 38.9216C73.9381 39.0572 73.7741 39.1141 73.6516 39.0704Z" fill="#78909C"/>
</svg>
