<svg width="101" height="118" viewBox="0 0 101 118" fill="none" xmlns="http://www.w3.org/2000/svg">
<mask id="path-1-inside-1_673_10123" fill="white">
<path fill-rule="evenodd" clip-rule="evenodd" d="M69.5 0C68.9477 0 68.5029 0.448498 68.4727 0.999957C67.9538 10.476 60.1056 18 50.5 18C40.8944 18 33.0462 10.476 32.5273 0.999956C32.4971 0.448497 32.0523 0 31.5 0L4.5 0C2.29086 0 0.5 1.79086 0.5 4L0.5 31C0.5 31.5523 0.948498 31.9971 1.49996 32.0273C10.976 32.5462 18.5 40.3944 18.5 50C18.5 59.6056 10.976 67.4538 1.49996 67.9727C0.948497 68.0029 0.5 68.4477 0.5 69L0.5 96C0.5 98.2091 2.29086 100 4.5 100H31.5C32.0523 100 32.4971 100.448 32.5273 101C33.0462 110.476 40.8944 118 50.5 118C60.1056 118 67.9538 110.476 68.4727 101C68.5029 100.448 68.9477 100 69.5 100H96.5C98.7091 100 100.5 98.2091 100.5 96V69C100.5 68.4477 100.052 68.0029 99.5 67.9727C90.024 67.4538 82.5 59.6056 82.5 50C82.5 40.3944 90.024 32.5462 99.5 32.0273C100.052 31.9971 100.5 31.5523 100.5 31V4C100.5 1.79086 98.7091 0 96.5 0L69.5 0Z"/>
</mask>
<path fill-rule="evenodd" clip-rule="evenodd" d="M69.5 0C68.9477 0 68.5029 0.448498 68.4727 0.999957C67.9538 10.476 60.1056 18 50.5 18C40.8944 18 33.0462 10.476 32.5273 0.999956C32.4971 0.448497 32.0523 0 31.5 0L4.5 0C2.29086 0 0.5 1.79086 0.5 4L0.5 31C0.5 31.5523 0.948498 31.9971 1.49996 32.0273C10.976 32.5462 18.5 40.3944 18.5 50C18.5 59.6056 10.976 67.4538 1.49996 67.9727C0.948497 68.0029 0.5 68.4477 0.5 69L0.5 96C0.5 98.2091 2.29086 100 4.5 100H31.5C32.0523 100 32.4971 100.448 32.5273 101C33.0462 110.476 40.8944 118 50.5 118C60.1056 118 67.9538 110.476 68.4727 101C68.5029 100.448 68.9477 100 69.5 100H96.5C98.7091 100 100.5 98.2091 100.5 96V69C100.5 68.4477 100.052 68.0029 99.5 67.9727C90.024 67.4538 82.5 59.6056 82.5 50C82.5 40.3944 90.024 32.5462 99.5 32.0273C100.052 31.9971 100.5 31.5523 100.5 31V4C100.5 1.79086 98.7091 0 96.5 0L69.5 0Z" fill="#D1D5DB" fill-opacity="0.2"/>
<path d="M99.5 32.0273L99.4454 31.0288L99.5 32.0273ZM99.5 67.9727L99.4454 68.9712L99.5 67.9727ZM32.5273 101L33.5258 100.945L32.5273 101ZM1.49996 32.0273L1.44528 33.0258L1.49996 32.0273ZM32.5273 0.999956L31.5288 1.05463L32.5273 0.999956ZM68.4727 101L67.4742 100.945L68.4727 101ZM68.4727 0.999957L67.4742 0.945284L68.4727 0.999957ZM50.5 19C60.6396 19 68.9235 11.058 69.4712 1.05463L67.4742 0.945284C66.9842 9.89397 59.5716 17 50.5 17L50.5 19ZM31.5288 1.05463C32.0765 11.058 40.3604 19 50.5 19L50.5 17C41.4284 17 34.0158 9.89397 33.5258 0.945282L31.5288 1.05463ZM4.5 1L31.5 1V-1L4.5 -1V1ZM1.5 4C1.5 2.34315 2.84315 1 4.5 1V-1C1.73858 -1 -0.5 1.23858 -0.5 4H1.5ZM1.5 31L1.5 4H-0.5L-0.5 31H1.5ZM19.5 50C19.5 39.8604 11.558 31.5765 1.55463 31.0288L1.44528 33.0258C10.394 33.5158 17.5 40.9284 17.5 50L19.5 50ZM1.55463 68.9712C11.558 68.4235 19.5 60.1396 19.5 50L17.5 50C17.5 59.0716 10.394 66.4842 1.44528 66.9742L1.55463 68.9712ZM1.5 96L1.5 69H-0.5L-0.5 96H1.5ZM4.5 99C2.84315 99 1.5 97.6569 1.5 96H-0.5C-0.5 98.7614 1.73858 101 4.5 101V99ZM31.5 99H4.5V101H31.5L31.5 99ZM50.5 117C41.4284 117 34.0158 109.894 33.5258 100.945L31.5288 101.055C32.0765 111.058 40.3604 119 50.5 119V117ZM67.4742 100.945C66.9842 109.894 59.5716 117 50.5 117V119C60.6396 119 68.9235 111.058 69.4712 101.055L67.4742 100.945ZM96.5 99H69.5V101H96.5V99ZM99.5 96C99.5 97.6569 98.1569 99 96.5 99V101C99.2614 101 101.5 98.7614 101.5 96H99.5ZM99.5 69V96H101.5V69H99.5ZM81.5 50C81.5 60.1396 89.442 68.4235 99.4454 68.9712L99.5547 66.9742C90.606 66.4842 83.5 59.0716 83.5 50H81.5ZM99.4454 31.0288C89.442 31.5765 81.5 39.8604 81.5 50H83.5C83.5 40.9284 90.606 33.5158 99.5547 33.0258L99.4454 31.0288ZM99.5 4V31H101.5V4L99.5 4ZM96.5 1C98.1569 1 99.5 2.34315 99.5 4L101.5 4C101.5 1.23858 99.2614 -1 96.5 -1V1ZM69.5 1L96.5 1V-1L69.5 -1V1ZM99.5547 33.0258C100.601 32.9685 101.5 32.1183 101.5 31H99.5C99.5 31.0012 99.4999 31.0012 99.5 31.0007C99.5001 31.0001 99.5003 30.9998 99.5002 30.9999C99.5002 31.0001 99.4987 31.0033 99.494 31.0081C99.4836 31.0187 99.4667 31.0276 99.4454 31.0288L99.5547 33.0258ZM101.5 69C101.5 67.8817 100.601 67.0315 99.5547 66.9742L99.4454 68.9712C99.4666 68.9724 99.4836 68.9813 99.494 68.9919C99.4987 68.9967 99.5002 68.9999 99.5002 69.0001C99.5003 69.0002 99.5001 68.9999 99.5 68.9994C99.4999 68.9988 99.5 68.9988 99.5 69H101.5ZM31.5 101C31.5012 101 31.5012 101 31.5006 101C31.5001 101 31.4998 101 31.4999 101C31.5001 101 31.5033 101.001 31.5081 101.006C31.5187 101.016 31.5276 101.033 31.5288 101.055L33.5258 100.945C33.4685 99.8992 32.6183 99 31.5 99L31.5 101ZM-0.5 31C-0.5 32.1183 0.399214 32.9685 1.44528 33.0258L1.55463 31.0288C1.53335 31.0276 1.5164 31.0187 1.506 31.0081C1.50127 31.0033 1.49985 31.0001 1.49977 30.9999C1.49974 30.9998 1.49987 31.0001 1.49998 31.0006C1.5001 31.0012 1.5 31.0012 1.5 31H-0.5ZM1.44528 66.9742C0.399211 67.0315 -0.5 67.8817 -0.5 69H1.5C1.5 68.9988 1.5001 68.9988 1.49998 68.9993C1.49987 68.9999 1.49974 69.0002 1.49977 69.0001C1.49985 68.9999 1.50127 68.9967 1.506 68.9919C1.5164 68.9813 1.53335 68.9724 1.55463 68.9712L1.44528 66.9742ZM33.5258 0.945282C33.4685 -0.100789 32.6183 -1 31.5 -1V1C31.5012 1 31.5012 1.0001 31.5007 0.999977C31.5001 0.999868 31.4998 0.999738 31.4999 0.999766C31.5001 0.999846 31.5033 1.00127 31.5081 1.006C31.5187 1.0164 31.5276 1.03335 31.5288 1.05463L33.5258 0.945282ZM69.4712 101.055C69.4724 101.033 69.4813 101.016 69.4919 101.006C69.4967 101.001 69.4999 101 69.5001 101C69.5002 101 69.4999 101 69.4993 101C69.4988 101 69.4988 101 69.5 101V99C68.3817 99 67.5315 99.8992 67.4742 100.945L69.4712 101.055ZM69.4712 1.05463C69.4724 1.03335 69.4813 1.0164 69.4919 1.006C69.4967 1.00127 69.4999 0.999846 69.5001 0.999766C69.5002 0.999738 69.4999 0.999868 69.4994 0.999977C69.4988 1.0001 69.4988 1 69.5 1V-1C68.3817 -1 67.5315 -0.100786 67.4742 0.945284L69.4712 1.05463Z" fill="#D1D5DB" mask="url(#path-1-inside-1_673_10123)"/>
<path d="M42.4758 71.108C41.8918 71.108 41.3878 70.98 40.9638 70.724C40.5398 70.468 40.2118 70.112 39.9798 69.656C39.7558 69.192 39.6438 68.656 39.6438 68.048C39.6438 67.584 39.7078 67.168 39.8358 66.8C39.9638 66.432 40.1518 66.12 40.3998 65.864C40.6478 65.6 40.9438 65.4 41.2878 65.264C41.6398 65.128 42.0358 65.06 42.4758 65.06C42.7638 65.06 43.0638 65.104 43.3758 65.192C43.6878 65.28 43.9718 65.432 44.2278 65.648C44.3078 65.704 44.3598 65.772 44.3838 65.852C44.4078 65.932 44.4078 66.012 44.3838 66.092C44.3598 66.164 44.3198 66.228 44.2638 66.284C44.2078 66.332 44.1358 66.36 44.0478 66.368C43.9678 66.376 43.8838 66.348 43.7958 66.284C43.5878 66.124 43.3758 66.012 43.1598 65.948C42.9438 65.884 42.7358 65.852 42.5358 65.852C42.2238 65.852 41.9518 65.904 41.7198 66.008C41.4878 66.104 41.2918 66.244 41.1318 66.428C40.9718 66.612 40.8478 66.84 40.7598 67.112C40.6798 67.384 40.6398 67.7 40.6398 68.06C40.6398 68.756 40.8038 69.308 41.1318 69.716C41.4598 70.116 41.9278 70.316 42.5358 70.316C42.7358 70.316 42.9398 70.284 43.1478 70.22C43.3638 70.156 43.5798 70.044 43.7958 69.884C43.8838 69.82 43.9678 69.792 44.0478 69.8C44.1278 69.808 44.1958 69.84 44.2518 69.896C44.3078 69.944 44.3438 70.008 44.3598 70.088C44.3838 70.168 44.3838 70.248 44.3598 70.328C44.3358 70.4 44.2838 70.464 44.2038 70.52C43.9478 70.728 43.6678 70.88 43.3638 70.976C43.0598 71.064 42.7638 71.108 42.4758 71.108ZM46.0385 71.06C45.8785 71.06 45.7585 71.016 45.6785 70.928C45.5985 70.832 45.5585 70.7 45.5585 70.532V65.624C45.5585 65.456 45.5985 65.328 45.6785 65.24C45.7585 65.152 45.8785 65.108 46.0385 65.108C46.1905 65.108 46.3105 65.152 46.3985 65.24C46.4865 65.328 46.5305 65.456 46.5305 65.624V70.532C46.5305 70.7 46.4865 70.832 46.3985 70.928C46.3185 71.016 46.1985 71.06 46.0385 71.06ZM46.0385 63.764C45.8385 63.764 45.6825 63.712 45.5705 63.608C45.4585 63.496 45.4025 63.348 45.4025 63.164C45.4025 62.972 45.4585 62.828 45.5705 62.732C45.6825 62.628 45.8385 62.576 46.0385 62.576C46.2465 62.576 46.4025 62.628 46.5065 62.732C46.6185 62.828 46.6745 62.972 46.6745 63.164C46.6745 63.348 46.6185 63.496 46.5065 63.608C46.4025 63.712 46.2465 63.764 46.0385 63.764ZM50.6875 71.108C50.2315 71.108 49.8475 71.028 49.5355 70.868C49.2315 70.7 49.0035 70.46 48.8515 70.148C48.6995 69.828 48.6235 69.44 48.6235 68.984V65.924H47.8195C47.6835 65.924 47.5795 65.892 47.5075 65.828C47.4355 65.756 47.3995 65.66 47.3995 65.54C47.3995 65.42 47.4355 65.328 47.5075 65.264C47.5795 65.2 47.6835 65.168 47.8195 65.168H48.6235V63.788C48.6235 63.628 48.6675 63.508 48.7555 63.428C48.8435 63.34 48.9635 63.296 49.1155 63.296C49.2675 63.296 49.3835 63.34 49.4635 63.428C49.5515 63.508 49.5955 63.628 49.5955 63.788V65.168H51.1075C51.2435 65.168 51.3475 65.2 51.4195 65.264C51.4915 65.328 51.5275 65.42 51.5275 65.54C51.5275 65.66 51.4915 65.756 51.4195 65.828C51.3475 65.892 51.2435 65.924 51.1075 65.924H49.5955V68.888C49.5955 69.344 49.6915 69.692 49.8835 69.932C50.0755 70.164 50.3875 70.28 50.8195 70.28C50.9715 70.28 51.0995 70.264 51.2035 70.232C51.3155 70.2 51.4075 70.184 51.4795 70.184C51.5515 70.176 51.6115 70.2 51.6595 70.256C51.7075 70.312 51.7315 70.408 51.7315 70.544C51.7315 70.64 51.7115 70.728 51.6715 70.808C51.6395 70.888 51.5795 70.944 51.4915 70.976C51.3955 71.008 51.2675 71.036 51.1075 71.06C50.9555 71.092 50.8155 71.108 50.6875 71.108ZM54.7305 71.108C54.2745 71.108 53.8905 71.028 53.5785 70.868C53.2745 70.7 53.0465 70.46 52.8945 70.148C52.7425 69.828 52.6665 69.44 52.6665 68.984V65.924H51.8625C51.7265 65.924 51.6225 65.892 51.5505 65.828C51.4785 65.756 51.4425 65.66 51.4425 65.54C51.4425 65.42 51.4785 65.328 51.5505 65.264C51.6225 65.2 51.7265 65.168 51.8625 65.168H52.6665V63.788C52.6665 63.628 52.7105 63.508 52.7985 63.428C52.8865 63.34 53.0065 63.296 53.1585 63.296C53.3105 63.296 53.4265 63.34 53.5065 63.428C53.5945 63.508 53.6385 63.628 53.6385 63.788V65.168H55.1505C55.2865 65.168 55.3905 65.2 55.4625 65.264C55.5345 65.328 55.5705 65.42 55.5705 65.54C55.5705 65.66 55.5345 65.756 55.4625 65.828C55.3905 65.892 55.2865 65.924 55.1505 65.924H53.6385V68.888C53.6385 69.344 53.7345 69.692 53.9265 69.932C54.1185 70.164 54.4305 70.28 54.8625 70.28C55.0145 70.28 55.1425 70.264 55.2465 70.232C55.3585 70.2 55.4505 70.184 55.5225 70.184C55.5945 70.176 55.6545 70.2 55.7025 70.256C55.7505 70.312 55.7745 70.408 55.7745 70.544C55.7745 70.64 55.7545 70.728 55.7145 70.808C55.6825 70.888 55.6225 70.944 55.5345 70.976C55.4385 71.008 55.3105 71.036 55.1505 71.06C54.9985 71.092 54.8585 71.108 54.7305 71.108ZM57.9521 73.244C57.8321 73.244 57.7361 73.212 57.6641 73.148C57.5921 73.084 57.5481 72.996 57.5321 72.884C57.5241 72.78 57.5441 72.672 57.5921 72.56L58.4201 70.7V71.12L56.1161 65.768C56.0681 65.648 56.0521 65.536 56.0681 65.432C56.0841 65.328 56.1321 65.244 56.2121 65.18C56.2921 65.116 56.4041 65.084 56.5481 65.084C56.6761 65.084 56.7761 65.112 56.8481 65.168C56.9201 65.224 56.9841 65.324 57.0401 65.468L59.0081 70.292H58.6841L60.6761 65.468C60.7401 65.324 60.8081 65.224 60.8801 65.168C60.9521 65.112 61.0561 65.084 61.1921 65.084C61.3201 65.084 61.4161 65.116 61.4801 65.18C61.5521 65.244 61.5921 65.328 61.6001 65.432C61.6161 65.528 61.6001 65.636 61.5521 65.756L58.4801 72.86C58.4161 73.004 58.3441 73.104 58.2641 73.16C58.1921 73.216 58.0881 73.244 57.9521 73.244Z" fill="#030712"/>
<path d="M62.0106 53.1819H38.9763C38.0684 53.1819 37.3313 52.4447 37.3313 51.5369V28.5025C37.3313 27.5947 38.0684 26.8575 38.9763 26.8575H62.0106C62.9184 26.8575 63.6556 27.5947 63.6556 28.5025V51.5369C63.6578 52.4447 62.9206 53.1819 62.0106 53.1819Z" fill="url(#paint0_radial_673_10123)"/>
<path d="M63.0344 39.6478H58.8781V44.4297H49.6666V30.1212H42.7672V44.4297H41.7872V36.7472H39.1994V46.0768H41.2775V51.6418H62.5247V49.2115H63.0344V39.6478Z" fill="#A47FCD"/>
<path d="M43.5897 31.4972H44.1081V33.1575H43.5897V31.4972ZM44.6944 31.4972H45.2347V33.1575H44.6944V31.4972ZM46.4028 31.4972H45.8734V33.1575L46.3897 33.1531L46.4028 31.4972Z" fill="#3F737B"/>
<path d="M47.5337 31.4972L46.965 31.4994L46.9803 33.1575H47.5294L47.5337 31.4972Z" fill="#A363B0"/>
<path d="M43.5897 31.4972H44.1081V33.1575H43.5897V31.4972ZM44.6944 31.4972H45.2347V33.1575H44.6944V31.4972ZM46.4116 31.4972H45.8734V33.1575L46.405 33.1531L46.4116 31.4972Z" fill="#FDE064"/>
<path d="M47.5337 34.1222L46.965 34.1244L46.9803 35.7825H47.5294L47.5337 34.1222Z" fill="#A463B0"/>
<path d="M43.5897 34.1222H44.1081V35.7825H43.5897V34.1222Z" fill="#FDE064"/>
<path d="M44.6944 34.1222H45.2347V35.7825H44.6944V34.1222ZM46.4116 34.1222H45.8734V35.7825L46.405 35.7781L46.4116 34.1222ZM43.5897 36.7472H44.1081V38.4075H43.5897V36.7472ZM44.6944 36.7472H45.2347V38.4075H44.6944V36.7472ZM46.4116 36.7472H45.8734V38.4075L46.405 38.4031L46.4116 36.7472Z" fill="#A463B0"/>
<path d="M48.1725 31.4972L48.1703 33.1575H48.7303V31.4972H48.1725Z" fill="#A363B0"/>
<path d="M59.5891 43.7625H60.2191V44.6243H59.5891V43.7625ZM60.8469 43.7625H61.4769V44.6243H60.8469V43.7625Z" fill="#A463B0"/>
<path d="M59.5891 42.1503H60.2191V43.0121H59.5891V42.1503Z" fill="#FDE064"/>
<path d="M60.8469 42.1503H61.4769V43.0121H60.8469V42.1503Z" fill="#A463B0"/>
<path d="M59.5891 40.619H60.2191V41.4809H59.5891V40.619ZM60.8469 40.619H61.4769V41.4809H60.8469V40.619Z" fill="#FDE064"/>
<path d="M61.6563 36.8062C61.5775 36.9659 61.6563 46.1468 61.6563 46.1468H58.1847V40.8968H57.0669V39.219H56.0759V37.795H54.2909V39.2912H53.1556V40.8597H51.9831V48.505H50.8806V39.9737H51.3947V38.3462H50.8806V34.9753H50.3009L49.5113 32.534H47.9559L47.175 34.9753H46.5647V38.3462H46.0222V39.9737H46.5647V48.505H44.9941V40.8378H40.2603V32.2278C40.2603 32.2278 37.34 32.2081 37.3313 32.2168V51.5368C37.3313 52.4447 38.0684 53.1818 38.9763 53.1818H62.0106C62.9184 53.1818 63.6556 52.4447 63.6556 51.5368V36.8062H61.6563Z" fill="url(#paint1_radial_673_10123)"/>
<path d="M37.7491 51.4209H44.305V51.935H37.7491V51.4209ZM37.7491 49.5944H44.305V50.1084H37.7491V49.5944Z" fill="#A463B0"/>
<path d="M37.7491 47.7022H44.305V48.2162H37.7491V47.7022ZM37.7491 45.8756H44.305V46.3897H37.7491V45.8756ZM37.7491 43.7647H44.305V44.2787H37.7491V43.7647ZM37.7491 41.9381H44.305V42.4522H37.7491V41.9381Z" fill="#FDE064"/>
<path d="M37.7491 39.8512H38.1341V40.6606H37.7491V39.8512Z" fill="#A463B0"/>
<path d="M39.0616 39.8512H39.4466V40.6606H39.0616V39.8512ZM37.7491 38.2259H38.1341V39.0353H37.7491V38.2259ZM39.0616 38.2259H39.4466V39.0353H39.0616V38.2259ZM37.7491 36.6006H38.1341V37.41H37.7491V36.6006ZM39.0616 36.6006H39.4466V37.41H39.0616V36.6006ZM37.7491 34.9753H38.1341V35.7847H37.7491V34.9753ZM39.0616 34.9753H39.4466V35.7847H39.0616V34.9753ZM37.7491 33.3478H38.1341V34.1572H37.7491V33.3478Z" fill="#FDE064"/>
<path d="M39.0616 33.3478H39.4466V34.1572H39.0616V33.3478Z" fill="#A463B0"/>
<path d="M47.3938 40.1116H47.8903V41.1528H47.3938V40.1116ZM48.5706 40.1116H49.0672V41.1528H48.5706V40.1116ZM49.7038 40.1116H50.2003V41.1528H49.7038V40.1116ZM47.3938 42.0803H47.8903V43.1216H47.3938V42.0803ZM47.3938 47.3719H47.8903V48.4131H47.3938V47.3719Z" fill="#FDE064"/>
<path d="M48.5706 47.3719H49.0672V48.4131H48.5706V47.3719ZM49.7038 47.3719H50.2003V48.4131H49.7038V47.3719ZM48.5706 42.0803H49.0672V43.1216H48.5706V42.0803Z" fill="#A463B0"/>
<path d="M49.7038 42.0803H50.2003V43.1216H49.7038V42.0803Z" fill="#FDE064"/>
<path d="M47.3938 44.0491H47.8903V45.0903H47.3938V44.0491Z" fill="#A463B0"/>
<path d="M48.5706 44.0491H49.0672V45.0903H48.5706V44.0491ZM49.7038 44.0491H50.2003V45.0903H49.7038V44.0491Z" fill="#FDE064"/>
<path d="M48.3147 37.8037H49.3341V36.29C49.3341 36.29 49.3712 35.7212 48.82 35.7081C48.3016 35.695 48.295 36.2769 48.295 36.2769C48.295 36.2769 48.3278 37.8037 48.3147 37.8037Z" fill="#A463B0"/>
<path d="M53.9672 40.035H54.4638V42.1547H53.9672V40.035ZM55.8288 40.035H56.3253V42.1547H55.8288V40.035ZM54.9078 40.035H55.4044V42.1547H54.9078V40.035ZM53.2059 42.9707H53.7025V43.6466H53.2059V42.9707ZM54.9166 42.9707H55.4131V43.6466H54.9166V42.9707ZM56.6272 42.9707H57.1238V43.6466H56.6272V42.9707Z" fill="#FDE064"/>
<path d="M53.2059 45.1581H53.7025V45.834H53.2059V45.1581Z" fill="#A463B0"/>
<path d="M54.9166 45.1581H55.4131V45.834H54.9166V45.1581ZM56.6272 45.1581H57.1238V45.834H56.6272V45.1581ZM53.2059 47.2253H53.7025V47.9012H53.2059V47.2253ZM54.9166 47.2253H55.4131V47.9012H54.9166V47.2253ZM56.6272 47.2253H57.1238V47.9012H56.6272V47.2253Z" fill="#FDE064"/>
<path d="M53.2059 49.4128H53.7025V50.0888H53.2059V49.4128Z" fill="#A463B0"/>
<path d="M54.9166 49.4128H55.4131V50.0888H54.9166V49.4128Z" fill="#FDE064"/>
<path d="M56.6272 49.4128H57.1238V50.0888H56.6272V49.4128ZM53.2059 51.4844H53.7025V52.1603H53.2059V51.4844ZM54.9166 51.4844H55.4131V52.1603H54.9166V51.4844ZM56.6272 51.4844H57.1238V52.1603H56.6272V51.4844Z" fill="#A463B0"/>
<defs>
<radialGradient id="paint0_radial_673_10123" cx="0" cy="0" r="1" gradientUnits="userSpaceOnUse" gradientTransform="translate(50.9876 56.0167) scale(29.5052)">
<stop offset="0.408" stop-color="#F4704F"/>
<stop offset="0.463" stop-color="#EF6F55"/>
<stop offset="0.536" stop-color="#E16D66"/>
<stop offset="0.621" stop-color="#CA6982"/>
<stop offset="0.713" stop-color="#A964A9"/>
<stop offset="0.727" stop-color="#A463B0"/>
<stop offset="0.772" stop-color="#9361B0"/>
<stop offset="0.861" stop-color="#655CAF"/>
<stop offset="0.944" stop-color="#3657AE"/>
</radialGradient>
<radialGradient id="paint1_radial_673_10123" cx="0" cy="0" r="1" gradientUnits="userSpaceOnUse" gradientTransform="translate(48.9663 31.0922) scale(21.9612)">
<stop offset="0.46" stop-color="#513076"/>
<stop offset="0.951" stop-color="#412769"/>
</radialGradient>
</defs>
</svg>
