<svg width="137" height="100" viewBox="0 0 137 100" fill="none" xmlns="http://www.w3.org/2000/svg">
<mask id="path-1-inside-1_673_10124" fill="white">
<path fill-rule="evenodd" clip-rule="evenodd" d="M87.5 0C86.9477 0 86.5029 0.448498 86.4727 0.999957C85.9538 10.476 78.1056 18 68.5 18C58.8944 18 51.0462 10.476 50.5273 0.999956C50.4971 0.448497 50.0523 0 49.5 0L22.5 0C20.2909 0 18.5 1.79086 18.5 4L18.5 31C18.5 31.5523 18.0515 31.9971 17.5 32.0273C8.02403 32.5462 0.5 40.3944 0.5 50C0.5 59.6056 8.02403 67.4538 17.5 67.9727C18.0515 68.0029 18.5 68.4477 18.5 69L18.5 96C18.5 98.2091 20.2909 100 22.5 100L49.5 100C50.0523 100 50.4971 99.5515 50.5273 99C51.0462 89.524 58.8944 82 68.5 82C78.1056 82 85.9538 89.524 86.4727 99C86.5029 99.5515 86.9477 100 87.5 100H114.5C116.709 100 118.5 98.2091 118.5 96L118.5 69C118.5 68.4477 118.948 68.0029 119.5 67.9727C128.976 67.4538 136.5 59.6056 136.5 50C136.5 40.3944 128.976 32.5462 119.5 32.0273C118.948 31.9971 118.5 31.5523 118.5 31L118.5 4C118.5 1.79086 116.709 0 114.5 0L87.5 0Z"/>
</mask>
<path fill-rule="evenodd" clip-rule="evenodd" d="M87.5 0C86.9477 0 86.5029 0.448498 86.4727 0.999957C85.9538 10.476 78.1056 18 68.5 18C58.8944 18 51.0462 10.476 50.5273 0.999956C50.4971 0.448497 50.0523 0 49.5 0L22.5 0C20.2909 0 18.5 1.79086 18.5 4L18.5 31C18.5 31.5523 18.0515 31.9971 17.5 32.0273C8.02403 32.5462 0.5 40.3944 0.5 50C0.5 59.6056 8.02403 67.4538 17.5 67.9727C18.0515 68.0029 18.5 68.4477 18.5 69L18.5 96C18.5 98.2091 20.2909 100 22.5 100L49.5 100C50.0523 100 50.4971 99.5515 50.5273 99C51.0462 89.524 58.8944 82 68.5 82C78.1056 82 85.9538 89.524 86.4727 99C86.5029 99.5515 86.9477 100 87.5 100H114.5C116.709 100 118.5 98.2091 118.5 96L118.5 69C118.5 68.4477 118.948 68.0029 119.5 67.9727C128.976 67.4538 136.5 59.6056 136.5 50C136.5 40.3944 128.976 32.5462 119.5 32.0273C118.948 31.9971 118.5 31.5523 118.5 31L118.5 4C118.5 1.79086 116.709 0 114.5 0L87.5 0Z" fill="#FFFFFF" fill-opacity="1"/>
<path d="M18.5 4L17.5 4L17.5 4L18.5 4ZM18.5 96L17.5 96V96H18.5ZM118.5 4H119.5H118.5ZM119.5 32.0273L119.555 31.0288L119.5 32.0273ZM118.5 31H117.5H118.5ZM119.5 67.9727L119.555 68.9712L119.5 67.9727ZM50.5273 99L49.5288 98.9454L50.5273 99ZM18.5 31L17.5 31L18.5 31ZM17.5 32.0273L17.4454 31.0288L17.5 32.0273ZM17.5 67.9727L17.4454 68.9712L17.5 67.9727ZM18.5 69L17.5 69L18.5 69ZM50.5273 0.999956L49.5288 1.05463L50.5273 0.999956ZM86.4727 99L85.4742 99.0547L86.4727 99ZM86.4727 0.999957L85.4742 0.945284L86.4727 0.999957ZM68.5 19C78.6396 19 86.9235 11.058 87.4712 1.05463L85.4742 0.945284C84.9842 9.89397 77.5716 17 68.5 17V19ZM49.5288 1.05463C50.0765 11.058 58.3604 19 68.5 19V17C59.4284 17 52.0158 9.89397 51.5258 0.945282L49.5288 1.05463ZM22.5 1L49.5 1V-1L22.5 -1V1ZM19.5 4C19.5 2.34315 20.8431 1 22.5 1V-1C19.7386 -1 17.5 1.23858 17.5 4L19.5 4ZM19.5 31L19.5 4L17.5 4L17.5 31L19.5 31ZM1.5 50C1.5 40.9284 8.60603 33.5158 17.5547 33.0258L17.4454 31.0288C7.44204 31.5765 -0.5 39.8604 -0.5 50H1.5ZM17.5547 66.9742C8.60603 66.4842 1.5 59.0716 1.5 50H-0.5C-0.5 60.1396 7.44204 68.4235 17.4454 68.9712L17.5547 66.9742ZM19.5 96L19.5 69L17.5 69L17.5 96L19.5 96ZM22.5 99C20.8431 99 19.5 97.6569 19.5 96H17.5C17.5 98.7614 19.7386 101 22.5 101L22.5 99ZM49.5 99L22.5 99L22.5 101L49.5 101V99ZM68.5 81C58.3604 81 50.0765 88.942 49.5288 98.9454L51.5258 99.0547C52.0158 90.106 59.4284 83 68.5 83V81ZM87.4712 98.9454C86.9235 88.942 78.6396 81 68.5 81V83C77.5716 83 84.9842 90.106 85.4742 99.0547L87.4712 98.9454ZM114.5 99H87.5V101H114.5V99ZM117.5 96C117.5 97.6569 116.157 99 114.5 99V101C117.261 101 119.5 98.7614 119.5 96H117.5ZM117.5 69L117.5 96H119.5L119.5 69H117.5ZM135.5 50C135.5 59.0716 128.394 66.4842 119.445 66.9742L119.555 68.9712C129.558 68.4235 137.5 60.1396 137.5 50H135.5ZM119.445 33.0258C128.394 33.5158 135.5 40.9284 135.5 50H137.5C137.5 39.8604 129.558 31.5765 119.555 31.0288L119.445 33.0258ZM117.5 4L117.5 31L119.5 31L119.5 4L117.5 4ZM114.5 1C116.157 1 117.5 2.34315 117.5 4H119.5C119.5 1.23858 117.261 -1 114.5 -1V1ZM87.5 1L114.5 1V-1L87.5 -1V1ZM119.555 31.0288C119.533 31.0276 119.516 31.0187 119.506 31.0081C119.501 31.0033 119.5 31.0001 119.5 30.9999C119.5 30.9998 119.5 31.0001 119.5 31.0007C119.5 31.0012 119.5 31.0012 119.5 31H117.5C117.5 32.1183 118.399 32.9685 119.445 33.0258L119.555 31.0288ZM119.5 69C119.5 68.9988 119.5 68.9988 119.5 68.9994C119.5 68.9999 119.5 69.0002 119.5 69.0001C119.5 68.9999 119.501 68.9967 119.506 68.9919C119.516 68.9813 119.533 68.9724 119.555 68.9712L119.445 66.9742C118.399 67.0315 117.5 67.8817 117.5 69H119.5ZM49.5 101C50.6183 101 51.4685 100.101 51.5258 99.0547L49.5288 98.9454C49.5276 98.9666 49.5187 98.9836 49.5081 98.994C49.5033 98.9987 49.5001 99.0002 49.4999 99.0002C49.4998 99.0003 49.5001 99.0001 49.5006 99C49.5012 98.9999 49.5012 99 49.5 99V101ZM17.5 31C17.5 31.0012 17.4999 31.0012 17.5 31.0006C17.5001 31.0001 17.5003 30.9998 17.5002 30.9999C17.5002 31.0001 17.4987 31.0033 17.494 31.0081C17.4836 31.0187 17.4666 31.0276 17.4454 31.0288L17.5547 33.0258C18.6008 32.9685 19.5 32.1183 19.5 31L17.5 31ZM17.4454 68.9712C17.4667 68.9724 17.4836 68.9813 17.494 68.9919C17.4987 68.9967 17.5002 68.9999 17.5002 69.0001C17.5003 69.0002 17.5001 68.9999 17.5 68.9993C17.4999 68.9988 17.5 68.9988 17.5 69L19.5 69C19.5 67.8817 18.6008 67.0315 17.5547 66.9742L17.4454 68.9712ZM51.5258 0.945282C51.4685 -0.100789 50.6183 -1 49.5 -1V1C49.5012 1 49.5012 1.0001 49.5007 0.999977C49.5001 0.999868 49.4998 0.999738 49.4999 0.999766C49.5001 0.999846 49.5033 1.00127 49.5081 1.006C49.5187 1.0164 49.5276 1.03335 49.5288 1.05463L51.5258 0.945282ZM85.4742 99.0547C85.5315 100.101 86.3817 101 87.5 101V99C87.4988 99 87.4988 98.9999 87.4993 99C87.4999 99.0001 87.5002 99.0003 87.5001 99.0002C87.4999 99.0002 87.4967 98.9987 87.4919 98.994C87.4813 98.9836 87.4724 98.9667 87.4712 98.9454L85.4742 99.0547ZM87.4712 1.05463C87.4724 1.03335 87.4813 1.0164 87.4919 1.006C87.4967 1.00127 87.4999 0.999846 87.5001 0.999766C87.5002 0.999738 87.4999 0.999868 87.4994 0.999977C87.4988 1.0001 87.4988 1 87.5 1V-1C86.3817 -1 85.5315 -0.100786 85.4742 0.945284L87.4712 1.05463Z" fill="#D1D5DB" mask="url(#path-1-inside-1_673_10124)"/>
<path d="M51.2414 71.108C50.6574 71.108 50.1534 70.98 49.7294 70.724C49.3054 70.468 48.9774 70.112 48.7454 69.656C48.5214 69.192 48.4094 68.656 48.4094 68.048C48.4094 67.584 48.4734 67.168 48.6014 66.8C48.7294 66.432 48.9174 66.12 49.1654 65.864C49.4134 65.6 49.7094 65.4 50.0534 65.264C50.4054 65.128 50.8014 65.06 51.2414 65.06C51.5294 65.06 51.8294 65.104 52.1414 65.192C52.4534 65.28 52.7374 65.432 52.9934 65.648C53.0734 65.704 53.1254 65.772 53.1494 65.852C53.1734 65.932 53.1734 66.012 53.1494 66.092C53.1254 66.164 53.0854 66.228 53.0294 66.284C52.9734 66.332 52.9014 66.36 52.8134 66.368C52.7334 66.376 52.6494 66.348 52.5614 66.284C52.3534 66.124 52.1414 66.012 51.9254 65.948C51.7094 65.884 51.5014 65.852 51.3014 65.852C50.9894 65.852 50.7174 65.904 50.4854 66.008C50.2534 66.104 50.0574 66.244 49.8974 66.428C49.7374 66.612 49.6134 66.84 49.5254 67.112C49.4454 67.384 49.4054 67.7 49.4054 68.06C49.4054 68.756 49.5694 69.308 49.8974 69.716C50.2254 70.116 50.6934 70.316 51.3014 70.316C51.5014 70.316 51.7054 70.284 51.9134 70.22C52.1294 70.156 52.3454 70.044 52.5614 69.884C52.6494 69.82 52.7334 69.792 52.8134 69.8C52.8934 69.808 52.9614 69.84 53.0174 69.896C53.0734 69.944 53.1094 70.008 53.1254 70.088C53.1494 70.168 53.1494 70.248 53.1254 70.328C53.1014 70.4 53.0494 70.464 52.9694 70.52C52.7134 70.728 52.4334 70.88 52.1294 70.976C51.8254 71.064 51.5294 71.108 51.2414 71.108ZM56.6309 71.108C56.0629 71.108 55.5709 70.984 55.1549 70.736C54.7389 70.488 54.4149 70.14 54.1829 69.692C53.9589 69.236 53.8469 68.7 53.8469 68.084C53.8469 67.62 53.9109 67.204 54.0389 66.836C54.1669 66.46 54.3549 66.14 54.6029 65.876C54.8509 65.612 55.1429 65.412 55.4789 65.276C55.8229 65.132 56.2069 65.06 56.6309 65.06C57.1989 65.06 57.6909 65.184 58.1069 65.432C58.5229 65.68 58.8429 66.032 59.0669 66.488C59.2989 66.936 59.4149 67.468 59.4149 68.084C59.4149 68.548 59.3509 68.964 59.2229 69.332C59.0949 69.7 58.9069 70.02 58.6589 70.292C58.4109 70.556 58.1149 70.76 57.7709 70.904C57.4349 71.04 57.0549 71.108 56.6309 71.108ZM56.6309 70.328C56.9909 70.328 57.3069 70.24 57.5789 70.064C57.8509 69.888 58.0589 69.632 58.2029 69.296C58.3549 68.96 58.4309 68.556 58.4309 68.084C58.4309 67.356 58.2669 66.8 57.9389 66.416C57.6189 66.032 57.1829 65.84 56.6309 65.84C56.2629 65.84 55.9429 65.928 55.6709 66.104C55.4069 66.272 55.1989 66.524 55.0469 66.86C54.9029 67.188 54.8309 67.596 54.8309 68.084C54.8309 68.804 54.9949 69.36 55.3229 69.752C55.6509 70.136 56.0869 70.328 56.6309 70.328ZM61.3549 71.084C61.1949 71.084 61.0749 71.04 60.9949 70.952C60.9149 70.864 60.8749 70.74 60.8749 70.58V65.576C60.8749 65.416 60.9149 65.296 60.9949 65.216C61.0749 65.128 61.1909 65.084 61.3429 65.084C61.4949 65.084 61.6109 65.128 61.6909 65.216C61.7789 65.296 61.8229 65.416 61.8229 65.576V66.608L61.6909 66.464C61.8589 66 62.1309 65.652 62.5069 65.42C62.8909 65.18 63.3309 65.06 63.8269 65.06C64.2909 65.06 64.6749 65.144 64.9789 65.312C65.2909 65.48 65.5229 65.736 65.6749 66.08C65.8269 66.416 65.9029 66.844 65.9029 67.364V70.58C65.9029 70.74 65.8589 70.864 65.7709 70.952C65.6909 71.04 65.5749 71.084 65.4229 71.084C65.2629 71.084 65.1389 71.04 65.0509 70.952C64.9709 70.864 64.9309 70.74 64.9309 70.58V67.424C64.9309 66.88 64.8229 66.484 64.6069 66.236C64.3989 65.98 64.0629 65.852 63.5989 65.852C63.0629 65.852 62.6349 66.02 62.3149 66.356C62.0029 66.684 61.8469 67.124 61.8469 67.676V70.58C61.8469 70.916 61.6829 71.084 61.3549 71.084ZM69.6632 71.108C69.3032 71.108 68.9392 71.064 68.5712 70.976C68.2112 70.888 67.8752 70.736 67.5632 70.52C67.4832 70.464 67.4272 70.4 67.3952 70.328C67.3632 70.248 67.3512 70.172 67.3592 70.1C67.3752 70.02 67.4072 69.952 67.4552 69.896C67.5112 69.84 67.5752 69.808 67.6472 69.8C67.7272 69.784 67.8152 69.8 67.9112 69.848C68.2232 70.04 68.5232 70.176 68.8112 70.256C69.1072 70.328 69.3992 70.364 69.6872 70.364C70.1432 70.364 70.4872 70.28 70.7192 70.112C70.9512 69.944 71.0672 69.716 71.0672 69.428C71.0672 69.204 70.9912 69.028 70.8392 68.9C70.6872 68.764 70.4472 68.66 70.1192 68.588L69.0272 68.348C68.5232 68.244 68.1472 68.064 67.8992 67.808C67.6592 67.552 67.5392 67.22 67.5392 66.812C67.5392 66.452 67.6312 66.144 67.8152 65.888C68.0072 65.624 68.2752 65.42 68.6192 65.276C68.9632 65.132 69.3632 65.06 69.8192 65.06C70.1712 65.06 70.5032 65.108 70.8152 65.204C71.1352 65.292 71.4232 65.436 71.6792 65.636C71.7592 65.692 71.8112 65.76 71.8352 65.84C71.8672 65.912 71.8712 65.988 71.8472 66.068C71.8312 66.14 71.7952 66.204 71.7392 66.26C71.6832 66.308 71.6152 66.336 71.5352 66.344C71.4552 66.352 71.3712 66.328 71.2832 66.272C71.0432 66.112 70.7992 65.996 70.5512 65.924C70.3032 65.844 70.0592 65.804 69.8192 65.804C69.3712 65.804 69.0312 65.892 68.7992 66.068C68.5672 66.244 68.4512 66.476 68.4512 66.764C68.4512 66.988 68.5232 67.172 68.6672 67.316C68.8112 67.46 69.0352 67.564 69.3392 67.628L70.4312 67.856C70.9512 67.968 71.3392 68.148 71.5952 68.396C71.8592 68.636 71.9912 68.964 71.9912 69.38C71.9912 69.908 71.7792 70.328 71.3552 70.64C70.9312 70.952 70.3672 71.108 69.6632 71.108ZM75.8965 71.108C75.3285 71.108 74.8365 70.984 74.4205 70.736C74.0045 70.488 73.6805 70.14 73.4485 69.692C73.2245 69.236 73.1125 68.7 73.1125 68.084C73.1125 67.62 73.1765 67.204 73.3045 66.836C73.4325 66.46 73.6205 66.14 73.8685 65.876C74.1165 65.612 74.4085 65.412 74.7445 65.276C75.0885 65.132 75.4725 65.06 75.8965 65.06C76.4645 65.06 76.9565 65.184 77.3725 65.432C77.7885 65.68 78.1085 66.032 78.3325 66.488C78.5645 66.936 78.6805 67.468 78.6805 68.084C78.6805 68.548 78.6165 68.964 78.4885 69.332C78.3605 69.7 78.1725 70.02 77.9245 70.292C77.6765 70.556 77.3805 70.76 77.0365 70.904C76.7005 71.04 76.3205 71.108 75.8965 71.108ZM75.8965 70.328C76.2565 70.328 76.5725 70.24 76.8445 70.064C77.1165 69.888 77.3245 69.632 77.4685 69.296C77.6205 68.96 77.6965 68.556 77.6965 68.084C77.6965 67.356 77.5325 66.8 77.2045 66.416C76.8845 66.032 76.4485 65.84 75.8965 65.84C75.5285 65.84 75.2085 65.928 74.9365 66.104C74.6725 66.272 74.4645 66.524 74.3125 66.86C74.1685 67.188 74.0965 67.596 74.0965 68.084C74.0965 68.804 74.2605 69.36 74.5885 69.752C74.9165 70.136 75.3525 70.328 75.8965 70.328ZM81.9165 71.108C81.3405 71.108 80.9005 70.932 80.5965 70.58C80.2925 70.228 80.1405 69.724 80.1405 69.068V62.948C80.1405 62.788 80.1805 62.668 80.2605 62.588C80.3405 62.5 80.4605 62.456 80.6205 62.456C80.7725 62.456 80.8925 62.5 80.9805 62.588C81.0685 62.668 81.1125 62.788 81.1125 62.948V68.996C81.1125 69.428 81.1965 69.752 81.3645 69.968C81.5405 70.176 81.7965 70.28 82.1325 70.28C82.2045 70.28 82.2685 70.276 82.3245 70.268C82.3805 70.26 82.4365 70.256 82.4925 70.256C82.5805 70.248 82.6405 70.268 82.6725 70.316C82.7125 70.364 82.7325 70.46 82.7325 70.604C82.7325 70.748 82.7005 70.856 82.6365 70.928C82.5725 71 82.4685 71.048 82.3245 71.072C82.2605 71.08 82.1925 71.088 82.1205 71.096C82.0485 71.104 81.9805 71.108 81.9165 71.108ZM85.5273 71.108C85.1273 71.108 84.7673 71.032 84.4473 70.88C84.1353 70.72 83.8873 70.504 83.7033 70.232C83.5193 69.96 83.4273 69.656 83.4273 69.32C83.4273 68.888 83.5353 68.548 83.7513 68.3C83.9753 68.052 84.3393 67.876 84.8433 67.772C85.3553 67.668 86.0513 67.616 86.9313 67.616H87.4713V68.252H86.9433C86.2953 68.252 85.7833 68.284 85.4073 68.348C85.0393 68.404 84.7793 68.504 84.6273 68.648C84.4833 68.792 84.4113 68.996 84.4113 69.26C84.4113 69.588 84.5233 69.856 84.7473 70.064C84.9793 70.272 85.2913 70.376 85.6833 70.376C86.0033 70.376 86.2833 70.3 86.5233 70.148C86.7713 69.996 86.9633 69.788 87.0993 69.524C87.2433 69.26 87.3153 68.956 87.3153 68.612V67.244C87.3153 66.748 87.2153 66.392 87.0153 66.176C86.8153 65.952 86.4873 65.84 86.0313 65.84C85.7513 65.84 85.4713 65.876 85.1913 65.948C84.9113 66.02 84.6153 66.136 84.3033 66.296C84.1913 66.352 84.0953 66.372 84.0153 66.356C83.9353 66.332 83.8713 66.288 83.8233 66.224C83.7753 66.16 83.7473 66.088 83.7393 66.008C83.7313 65.92 83.7473 65.836 83.7873 65.756C83.8353 65.676 83.9073 65.612 84.0033 65.564C84.3553 65.388 84.7033 65.26 85.0473 65.18C85.3913 65.1 85.7193 65.06 86.0313 65.06C86.5353 65.06 86.9513 65.144 87.2793 65.312C87.6073 65.472 87.8513 65.72 88.0113 66.056C88.1713 66.384 88.2513 66.808 88.2513 67.328V70.58C88.2513 70.74 88.2113 70.864 88.1313 70.952C88.0593 71.04 87.9513 71.084 87.8073 71.084C87.6553 71.084 87.5393 71.04 87.4593 70.952C87.3793 70.864 87.3393 70.74 87.3393 70.58V69.644H87.4473C87.3833 69.948 87.2593 70.208 87.0753 70.424C86.8993 70.64 86.6793 70.808 86.4153 70.928C86.1513 71.048 85.8553 71.108 85.5273 71.108Z" fill="#030712"/>
<path d="M68.1019 31.005C69.3159 30.9875 70.5191 31.2282 71.6216 31.6613C73.5247 32.4094 77.8341 32.8054 78.6894 34.3563C79.7022 36.1938 78.1031 40.7241 78.1928 41.4679C78.2781 42.1875 78.2978 43.1019 78.2081 43.8041C78.0506 45.0291 77.5672 46.2191 76.7316 47.291C75.8872 48.3716 74.5703 49.2991 72.7416 49.8372C68.885 50.9682 63.7553 50.2463 61.7428 48.5794C60.9881 47.956 60.4281 47.2975 60.0278 46.5932C59.3584 45.4207 59.1266 44.1235 59.1659 42.6513C59.2294 40.2954 56.6722 36.7954 58.4331 34.8157C60.1941 32.836 64.6019 31.7882 64.6019 31.7882C64.6019 31.7882 65.9953 31.0379 68.1019 31.005Z" fill="#B0B0B0"/>
<path d="M74.835 33.6038C74.8875 33.8247 75.4431 34.5466 76.1344 35.8875C76.7972 37.1716 77.3288 38.506 77.4338 38.5278C77.6831 38.5782 80.2622 37.7732 80.2819 37.69C80.3038 37.6069 79.4025 33.291 79.4025 33.291L75.3184 32.16L74.835 33.6038ZM60.6644 36.0341C61.3556 34.4088 61.9113 33.9494 61.9747 33.6782C62.0381 33.4069 59.5663 32.9125 59.5663 32.9125L56.8625 34.5247L57.5319 37.7513C57.5319 37.7513 59.3956 39.2913 59.5225 39.2694C59.6494 39.2497 59.9731 37.6572 60.6644 36.0341Z" fill="#FEBDBE"/>
<path d="M64.7178 31.7816C64.8009 31.0051 61.7013 30.211 60.7584 30.7557C60.0694 31.1538 60.8 31.5104 60.5069 31.7619C60.3122 31.9282 58.5381 31.0926 57.2191 32.0966C56.215 32.8601 56.7794 32.9344 56.7159 33.186C56.6525 33.4376 56.0247 33.8357 55.6266 34.4438C55.2284 35.0519 55.0184 35.9204 55.1453 36.056C55.3006 36.2244 55.7556 35.8876 55.8147 36.2244C55.8781 36.581 55.1081 37.7513 55.4581 38.821C55.7928 39.8469 56.0859 39.0726 56.3178 39.3876C56.5475 39.7026 56.3397 40.1619 56.8844 41.1463C57.2475 41.8026 57.6719 42.0082 57.8272 42.0476C58.0788 42.111 58.0372 41.796 58.35 41.7763C58.665 41.7544 59.1659 42.6557 59.1659 42.6557C59.1659 42.6557 59.1441 41.901 59.2819 40.7285C59.4197 39.5472 59.6691 39.1776 59.6494 38.9894C59.6275 38.8013 57.5975 37.5654 58.3084 35.4501C59.0194 33.3347 60.9684 33.711 61.22 33.7744C61.4716 33.8379 61.8697 33.9844 62.4559 33.8379C63.0422 33.6869 64.6347 32.556 64.7178 31.7816Z" fill="url(#paint0_linear_673_10124)"/>
<path d="M71.5253 31.6765C71.4925 31.9412 72.3041 32.5668 72.8444 32.9125C73.5991 33.3937 74.415 33.6868 74.73 33.6868C75.045 33.6868 77.3266 32.3875 78.5013 34.3562C79.6738 36.325 77.495 38.2325 77.4338 38.5256C77.4228 38.9346 77.5934 39.1665 77.8209 40.0546C78.0309 40.8706 78.125 41.1746 78.1775 41.5006C78.2563 41.6362 79.1553 40.9209 79.6541 40.1596C80.0106 39.615 80.0303 39.0484 80.2403 38.9871C80.4503 38.9237 80.575 39.5734 80.8484 39.5318C81.1197 39.4903 81.6119 38.0662 81.5091 37.0818C81.3625 35.6993 80.5356 35.2378 80.7872 34.7981C81.0388 34.3584 81.6031 34.8812 81.7934 34.5268C81.9816 34.1703 81.5222 33.1662 80.8288 32.6828C80.1353 32.1993 79.4463 32.2628 79.3413 32.0134C79.2363 31.7618 79.6978 31.6371 79.6978 31.3637C79.6978 31.0925 78.9431 30.6725 77.6241 30.609C76.4909 30.5543 75.4672 31.1537 75.4038 30.819C75.3403 30.4843 75.6334 30.504 75.6138 30.3575C75.5919 30.2109 74.8088 29.8653 73.645 30.189C72.7416 30.4406 71.5669 31.3462 71.5253 31.6765Z" fill="url(#paint1_linear_673_10124)"/>
<path d="M73.0544 38.95C72.2669 38.9893 72.1269 39.8775 72.175 40.4746C72.2253 41.12 72.3959 41.8878 73.2119 41.8725C74.0453 41.8571 74.2487 40.9778 74.2641 40.3018C74.2816 39.6259 74.0147 38.904 73.0544 38.95ZM64.0681 38.904C63.2806 38.9434 63.0728 39.5778 63.0947 40.1771C63.1253 41.1046 63.6612 41.8112 64.2256 41.8265C65.0591 41.8506 65.2319 41.0718 65.2472 40.3959C65.2625 39.72 65.0262 38.8559 64.0681 38.904Z" fill="#2F2F2F"/>
<path d="M73.2447 39.9409C73.1091 40.2581 72.7941 40.4966 72.6016 40.4156C72.4091 40.3347 72.3653 40.0109 72.5009 39.6938C72.6366 39.3766 72.9012 39.1863 73.0916 39.2694C73.2841 39.3503 73.3803 39.6238 73.2447 39.9409ZM64.2737 40.0809C64.1097 40.3653 63.7072 40.5666 63.5191 40.4572C63.3309 40.35 63.3681 39.9759 63.5322 39.6916C63.6962 39.4072 63.9806 39.2628 64.1687 39.3722C64.3547 39.4794 64.4378 39.7966 64.2737 40.0809Z" fill="#DFDFDF"/>
<path d="M69.3159 46.6653L67.6819 46.6347L66.33 46.1797C66.33 46.1797 66.3038 47.0328 66.3453 47.5469C66.3934 48.1134 66.9425 49.3078 68.7341 49.275C70.4775 49.2444 71.0594 48.1791 71.0747 47.5316C71.09 46.8884 71.0594 46.3853 71.0594 46.3853L69.3159 46.6653Z" fill="url(#paint2_radial_673_10124)"/>
<path d="M68.7034 46.3196C68.2003 46.3349 67.5091 46.1949 67.2422 46.0987C66.9753 46.0046 66.5816 45.7224 66.33 46.0199C66.0784 46.3174 66.4394 46.7112 67.0213 46.8993C67.6031 47.0874 68.0428 47.1968 68.6706 47.1815C69.4559 47.1618 70.1778 47.024 70.4294 46.9453C70.6809 46.8665 71.2716 46.6106 71.1053 46.2059C70.9172 45.7509 70.5869 46.0484 70.1625 46.1578C69.7403 46.2715 69.2372 46.3021 68.7034 46.3196Z" fill="#2F2F2F"/>
<path d="M68.6881 39.1228C67.1175 39.09 66.6297 40.3631 66.505 41.1966C66.3803 42.03 66.2556 42.8897 66.4787 43.9091C66.6997 44.9153 67.4937 45.4884 68.6728 45.4687C69.7097 45.4534 70.3091 45.0881 70.6219 44.48C70.9675 43.8041 70.9522 43.1281 70.8887 41.6669C70.8253 40.2078 70.1494 39.1534 68.6881 39.1228Z" fill="#303030"/>
<path d="M68.9944 44.7557C68.9944 44.9066 69.2197 44.9941 69.4734 44.9197C69.7403 44.841 70.1559 44.5982 70.2828 44.3138C70.3506 44.1628 70.2981 43.9375 70.1341 44.0075C69.97 44.0775 69.8366 44.235 69.6069 44.3772C69.3794 44.5194 68.9944 44.6375 68.9944 44.7557ZM67.7759 44.3619C67.4259 44.1497 67.3122 43.9769 67.1547 44.0316C66.9972 44.0863 67.0847 44.4013 67.2487 44.5413C67.4128 44.6813 67.7037 44.9022 68.0034 44.9657C68.2375 45.0138 68.3972 44.8322 68.3184 44.7294C68.2397 44.6288 68.0362 44.5194 67.7759 44.3619Z" fill="#AFAFAF"/>
<defs>
<linearGradient id="paint0_linear_673_10124" x1="57.0898" y1="41.9375" x2="61.1728" y2="30.0795" gradientUnits="userSpaceOnUse">
<stop offset="0.182" stop-color="#C9C7C8"/>
<stop offset="0.256" stop-color="#BDBCBD"/>
<stop offset="0.411" stop-color="#A8A8AA"/>
<stop offset="0.498" stop-color="#9E9EA1"/>
<stop offset="0.648" stop-color="#828487"/>
<stop offset="0.799" stop-color="#606468"/>
</linearGradient>
<linearGradient id="paint1_linear_673_10124" x1="80.1375" y1="40.6744" x2="75.1544" y2="29.4818" gradientUnits="userSpaceOnUse">
<stop offset="0.164" stop-color="#C9C7C8"/>
<stop offset="0.244" stop-color="#BDBCBD"/>
<stop offset="0.411" stop-color="#A8A8AA"/>
<stop offset="0.486" stop-color="#96979A"/>
<stop offset="0.674" stop-color="#6F7276"/>
<stop offset="0.772" stop-color="#606468"/>
</linearGradient>
<radialGradient id="paint2_radial_673_10124" cx="0" cy="0" r="1" gradientUnits="userSpaceOnUse" gradientTransform="translate(68.6404 43.2557) scale(5.29178 5.29178)">
<stop offset="0.784" stop-color="#FEBDBB"/>
<stop offset="0.821" stop-color="#F5BEBC"/>
<stop offset="0.88" stop-color="#DCC1C0"/>
<stop offset="0.922" stop-color="#C7C3C3"/>
</radialGradient>
</defs>
</svg>
