<svg width="101" height="100" viewBox="0 0 101 100" fill="none" xmlns="http://www.w3.org/2000/svg">
<mask id="path-1-inside-1_673_10125" fill="white">
<path fill-rule="evenodd" clip-rule="evenodd" d="M69.5 0C68.9477 0 68.5029 0.448498 68.4727 0.999957C67.9538 10.476 60.1056 18 50.5 18C40.8944 18 33.0462 10.476 32.5273 0.999956C32.4971 0.448497 32.0523 0 31.5 0L4.5 0C2.29086 0 0.5 1.79086 0.5 4L0.5 31C0.5 31.5523 0.948497 31.9971 1.49996 32.0273C10.976 32.5462 18.5 40.3944 18.5 50C18.5 59.6056 10.976 67.4538 1.49996 67.9727C0.948498 68.0029 0.5 68.4477 0.5 69L0.5 96C0.5 98.2091 2.29086 100 4.5 100H31.5C32.0523 100 32.4971 99.5515 32.5273 99C33.0462 89.524 40.8944 82 50.5 82C60.1056 82 67.9538 89.524 68.4727 99C68.5029 99.5515 68.9477 100 69.5 100H96.5C98.7091 100 100.5 98.2091 100.5 96V69C100.5 68.4477 100.052 68.0029 99.5 67.9727C90.024 67.4538 82.5 59.6056 82.5 50C82.5 40.3944 90.024 32.5462 99.5 32.0273C100.052 31.9971 100.5 31.5523 100.5 31V4C100.5 1.79086 98.7091 0 96.5 0L69.5 0Z"/>
</mask>
<path fill-rule="evenodd" clip-rule="evenodd" d="M69.5 0C68.9477 0 68.5029 0.448498 68.4727 0.999957C67.9538 10.476 60.1056 18 50.5 18C40.8944 18 33.0462 10.476 32.5273 0.999956C32.4971 0.448497 32.0523 0 31.5 0L4.5 0C2.29086 0 0.5 1.79086 0.5 4L0.5 31C0.5 31.5523 0.948497 31.9971 1.49996 32.0273C10.976 32.5462 18.5 40.3944 18.5 50C18.5 59.6056 10.976 67.4538 1.49996 67.9727C0.948498 68.0029 0.5 68.4477 0.5 69L0.5 96C0.5 98.2091 2.29086 100 4.5 100H31.5C32.0523 100 32.4971 99.5515 32.5273 99C33.0462 89.524 40.8944 82 50.5 82C60.1056 82 67.9538 89.524 68.4727 99C68.5029 99.5515 68.9477 100 69.5 100H96.5C98.7091 100 100.5 98.2091 100.5 96V69C100.5 68.4477 100.052 68.0029 99.5 67.9727C90.024 67.4538 82.5 59.6056 82.5 50C82.5 40.3944 90.024 32.5462 99.5 32.0273C100.052 31.9971 100.5 31.5523 100.5 31V4C100.5 1.79086 98.7091 0 96.5 0L69.5 0Z" fill="#FFFFFF" fill-opacity="1"/>
<path d="M99.5 32.0273L99.4454 31.0288L99.5 32.0273ZM99.5 67.9727L99.4454 68.9712L99.5 67.9727ZM32.5273 99L33.5258 99.0547L32.5273 99ZM1.49996 67.9727L1.44528 66.9742L1.49996 67.9727ZM32.5273 0.999956L31.5288 1.05463L32.5273 0.999956ZM68.4727 99L67.4742 99.0547L68.4727 99ZM68.4727 0.999957L67.4742 0.945284L68.4727 0.999957ZM50.5 19C60.6396 19 68.9235 11.058 69.4712 1.05463L67.4742 0.945284C66.9842 9.89397 59.5716 17 50.5 17L50.5 19ZM31.5288 1.05463C32.0765 11.058 40.3604 19 50.5 19L50.5 17C41.4284 17 34.0158 9.89397 33.5258 0.945282L31.5288 1.05463ZM4.5 1L31.5 1V-1L4.5 -1V1ZM1.5 4C1.5 2.34315 2.84315 1 4.5 1V-1C1.73858 -1 -0.5 1.23858 -0.5 4H1.5ZM1.5 31L1.5 4H-0.5L-0.5 31H1.5ZM1.44528 33.0258C10.394 33.5158 17.5 40.9284 17.5 50L19.5 50C19.5 39.8604 11.558 31.5765 1.55463 31.0288L1.44528 33.0258ZM17.5 50C17.5 59.0716 10.394 66.4842 1.44528 66.9742L1.55463 68.9712C11.558 68.4235 19.5 60.1396 19.5 50L17.5 50ZM1.5 96L1.5 69H-0.5L-0.5 96H1.5ZM4.5 99C2.84315 99 1.5 97.6569 1.5 96H-0.5C-0.5 98.7614 1.73858 101 4.5 101L4.5 99ZM31.5 99H4.5L4.5 101H31.5V99ZM50.5 81C40.3604 81 32.0765 88.942 31.5288 98.9454L33.5258 99.0547C34.0158 90.106 41.4284 83 50.5 83V81ZM69.4712 98.9454C68.9235 88.942 60.6396 81 50.5 81V83C59.5716 83 66.9842 90.106 67.4742 99.0547L69.4712 98.9454ZM96.5 99H69.5V101H96.5V99ZM99.5 96C99.5 97.6569 98.1569 99 96.5 99V101C99.2614 101 101.5 98.7614 101.5 96H99.5ZM99.5 69V96H101.5V69H99.5ZM81.5 50C81.5 60.1396 89.442 68.4235 99.4454 68.9712L99.5547 66.9742C90.606 66.4842 83.5 59.0716 83.5 50H81.5ZM99.4454 31.0288C89.442 31.5765 81.5 39.8604 81.5 50H83.5C83.5 40.9284 90.606 33.5158 99.5547 33.0258L99.4454 31.0288ZM99.5 4V31H101.5V4L99.5 4ZM96.5 1C98.1569 1 99.5 2.34315 99.5 4L101.5 4C101.5 1.23858 99.2614 -1 96.5 -1V1ZM69.5 1L96.5 1V-1L69.5 -1V1ZM99.5547 33.0258C100.601 32.9685 101.5 32.1183 101.5 31H99.5C99.5 31.0012 99.4999 31.0012 99.5 31.0007C99.5001 31.0001 99.5003 30.9998 99.5002 30.9999C99.5002 31.0001 99.4987 31.0033 99.494 31.0081C99.4836 31.0187 99.4667 31.0276 99.4454 31.0288L99.5547 33.0258ZM101.5 69C101.5 67.8817 100.601 67.0315 99.5547 66.9742L99.4454 68.9712C99.4666 68.9724 99.4836 68.9813 99.494 68.9919C99.4987 68.9967 99.5002 68.9999 99.5002 69.0001C99.5003 69.0002 99.5001 68.9999 99.5 68.9994C99.4999 68.9988 99.5 68.9988 99.5 69H101.5ZM31.5 101C32.6183 101 33.4685 100.101 33.5258 99.0547L31.5288 98.9454C31.5276 98.9666 31.5187 98.9836 31.5081 98.994C31.5033 98.9987 31.5001 99.0002 31.4999 99.0002C31.4998 99.0003 31.5001 99.0001 31.5006 99C31.5012 98.9999 31.5012 99 31.5 99V101ZM-0.5 31C-0.5 32.1183 0.399211 32.9685 1.44528 33.0258L1.55463 31.0288C1.53335 31.0276 1.5164 31.0187 1.506 31.0081C1.50127 31.0033 1.49985 31.0001 1.49977 30.9999C1.49974 30.9998 1.49987 31.0001 1.49998 31.0006C1.5001 31.0012 1.5 31.0012 1.5 31H-0.5ZM1.44528 66.9742C0.399215 67.0315 -0.5 67.8817 -0.5 69H1.5C1.5 68.9988 1.5001 68.9988 1.49998 68.9994C1.49987 68.9999 1.49974 69.0002 1.49977 69.0001C1.49985 68.9999 1.50127 68.9967 1.506 68.9919C1.5164 68.9813 1.53335 68.9724 1.55463 68.9712L1.44528 66.9742ZM33.5258 0.945282C33.4685 -0.100789 32.6183 -1 31.5 -1V1C31.5012 1 31.5012 1.0001 31.5007 0.999977C31.5001 0.999868 31.4998 0.999738 31.4999 0.999766C31.5001 0.999846 31.5033 1.00127 31.5081 1.006C31.5187 1.0164 31.5276 1.03335 31.5288 1.05463L33.5258 0.945282ZM67.4742 99.0547C67.5315 100.101 68.3817 101 69.5 101V99C69.4988 99 69.4988 98.9999 69.4993 99C69.4999 99.0001 69.5002 99.0003 69.5001 99.0002C69.4999 99.0002 69.4967 98.9987 69.4919 98.994C69.4813 98.9836 69.4724 98.9667 69.4712 98.9454L67.4742 99.0547ZM69.4712 1.05463C69.4724 1.03335 69.4813 1.0164 69.4919 1.006C69.4967 1.00127 69.4999 0.999846 69.5001 0.999766C69.5002 0.999738 69.4999 0.999868 69.4994 0.999977C69.4988 1.0001 69.4988 1 69.5 1V-1C68.3817 -1 67.5315 -0.100786 67.4742 0.945284L69.4712 1.05463Z" fill="#D1D5DB" mask="url(#path-1-inside-1_673_10125)"/>
<path d="M28.132 71.108C27.548 71.108 27.044 70.98 26.62 70.724C26.196 70.468 25.868 70.112 25.636 69.656C25.412 69.192 25.3 68.656 25.3 68.048C25.3 67.584 25.364 67.168 25.492 66.8C25.62 66.432 25.808 66.12 26.056 65.864C26.304 65.6 26.6 65.4 26.944 65.264C27.296 65.128 27.692 65.06 28.132 65.06C28.42 65.06 28.72 65.104 29.032 65.192C29.344 65.28 29.628 65.432 29.884 65.648C29.964 65.704 30.016 65.772 30.04 65.852C30.064 65.932 30.064 66.012 30.04 66.092C30.016 66.164 29.976 66.228 29.92 66.284C29.864 66.332 29.792 66.36 29.704 66.368C29.624 66.376 29.54 66.348 29.452 66.284C29.244 66.124 29.032 66.012 28.816 65.948C28.6 65.884 28.392 65.852 28.192 65.852C27.88 65.852 27.608 65.904 27.376 66.008C27.144 66.104 26.948 66.244 26.788 66.428C26.628 66.612 26.504 66.84 26.416 67.112C26.336 67.384 26.296 67.7 26.296 68.06C26.296 68.756 26.46 69.308 26.788 69.716C27.116 70.116 27.584 70.316 28.192 70.316C28.392 70.316 28.596 70.284 28.804 70.22C29.02 70.156 29.236 70.044 29.452 69.884C29.54 69.82 29.624 69.792 29.704 69.8C29.784 69.808 29.852 69.84 29.908 69.896C29.964 69.944 30 70.008 30.016 70.088C30.04 70.168 30.04 70.248 30.016 70.328C29.992 70.4 29.94 70.464 29.86 70.52C29.604 70.728 29.324 70.88 29.02 70.976C28.716 71.064 28.42 71.108 28.132 71.108ZM33.5215 71.108C32.9535 71.108 32.4615 70.984 32.0455 70.736C31.6295 70.488 31.3055 70.14 31.0735 69.692C30.8495 69.236 30.7375 68.7 30.7375 68.084C30.7375 67.62 30.8015 67.204 30.9295 66.836C31.0575 66.46 31.2455 66.14 31.4935 65.876C31.7415 65.612 32.0335 65.412 32.3695 65.276C32.7135 65.132 33.0975 65.06 33.5215 65.06C34.0895 65.06 34.5815 65.184 34.9975 65.432C35.4135 65.68 35.7335 66.032 35.9575 66.488C36.1895 66.936 36.3055 67.468 36.3055 68.084C36.3055 68.548 36.2415 68.964 36.1135 69.332C35.9855 69.7 35.7975 70.02 35.5495 70.292C35.3015 70.556 35.0055 70.76 34.6615 70.904C34.3255 71.04 33.9455 71.108 33.5215 71.108ZM33.5215 70.328C33.8815 70.328 34.1975 70.24 34.4695 70.064C34.7415 69.888 34.9495 69.632 35.0935 69.296C35.2455 68.96 35.3215 68.556 35.3215 68.084C35.3215 67.356 35.1575 66.8 34.8295 66.416C34.5095 66.032 34.0735 65.84 33.5215 65.84C33.1535 65.84 32.8335 65.928 32.5615 66.104C32.2975 66.272 32.0895 66.524 31.9375 66.86C31.7935 67.188 31.7215 67.596 31.7215 68.084C31.7215 68.804 31.8855 69.36 32.2135 69.752C32.5415 70.136 32.9775 70.328 33.5215 70.328ZM40.1895 71.108C39.6215 71.108 39.1295 70.984 38.7135 70.736C38.2975 70.488 37.9735 70.14 37.7415 69.692C37.5175 69.236 37.4055 68.7 37.4055 68.084C37.4055 67.62 37.4695 67.204 37.5975 66.836C37.7255 66.46 37.9135 66.14 38.1615 65.876C38.4095 65.612 38.7015 65.412 39.0375 65.276C39.3815 65.132 39.7655 65.06 40.1895 65.06C40.7575 65.06 41.2495 65.184 41.6655 65.432C42.0815 65.68 42.4015 66.032 42.6255 66.488C42.8575 66.936 42.9735 67.468 42.9735 68.084C42.9735 68.548 42.9095 68.964 42.7815 69.332C42.6535 69.7 42.4655 70.02 42.2175 70.292C41.9695 70.556 41.6735 70.76 41.3295 70.904C40.9935 71.04 40.6135 71.108 40.1895 71.108ZM40.1895 70.328C40.5495 70.328 40.8655 70.24 41.1375 70.064C41.4095 69.888 41.6175 69.632 41.7615 69.296C41.9135 68.96 41.9895 68.556 41.9895 68.084C41.9895 67.356 41.8255 66.8 41.4975 66.416C41.1775 66.032 40.7415 65.84 40.1895 65.84C39.8215 65.84 39.5015 65.928 39.2295 66.104C38.9655 66.272 38.7575 66.524 38.6055 66.86C38.4615 67.188 38.3895 67.596 38.3895 68.084C38.3895 68.804 38.5535 69.36 38.8815 69.752C39.2095 70.136 39.6455 70.328 40.1895 70.328ZM44.9135 71.084C44.7535 71.084 44.6335 71.04 44.5535 70.952C44.4735 70.864 44.4335 70.74 44.4335 70.58V62.948C44.4335 62.788 44.4735 62.668 44.5535 62.588C44.6335 62.5 44.7535 62.456 44.9135 62.456C45.0655 62.456 45.1855 62.5 45.2735 62.588C45.3615 62.668 45.4055 62.788 45.4055 62.948V67.76H45.4295L47.8895 65.408C48.0015 65.304 48.0975 65.224 48.1775 65.168C48.2655 65.112 48.3815 65.084 48.5255 65.084C48.6535 65.084 48.7535 65.12 48.8255 65.192C48.8975 65.256 48.9295 65.34 48.9215 65.444C48.9215 65.54 48.8735 65.644 48.7775 65.756L46.1615 68.24V67.712L49.0055 70.388C49.1175 70.5 49.1735 70.608 49.1735 70.712C49.1735 70.816 49.1335 70.904 49.0535 70.976C48.9815 71.048 48.8855 71.084 48.7655 71.084C48.6215 71.084 48.5055 71.056 48.4175 71C48.3295 70.936 48.2215 70.844 48.0935 70.724L45.4295 68.264H45.4055V70.58C45.4055 70.916 45.2415 71.084 44.9135 71.084ZM50.9135 71.06C50.7535 71.06 50.6335 71.016 50.5535 70.928C50.4735 70.832 50.4335 70.7 50.4335 70.532V65.624C50.4335 65.456 50.4735 65.328 50.5535 65.24C50.6335 65.152 50.7535 65.108 50.9135 65.108C51.0655 65.108 51.1855 65.152 51.2735 65.24C51.3615 65.328 51.4055 65.456 51.4055 65.624V70.532C51.4055 70.7 51.3615 70.832 51.2735 70.928C51.1935 71.016 51.0735 71.06 50.9135 71.06ZM50.9135 63.764C50.7135 63.764 50.5575 63.712 50.4455 63.608C50.3335 63.496 50.2775 63.348 50.2775 63.164C50.2775 62.972 50.3335 62.828 50.4455 62.732C50.5575 62.628 50.7135 62.576 50.9135 62.576C51.1215 62.576 51.2775 62.628 51.3815 62.732C51.4935 62.828 51.5495 62.972 51.5495 63.164C51.5495 63.348 51.4935 63.496 51.3815 63.608C51.2775 63.712 51.1215 63.764 50.9135 63.764ZM55.8505 71.108C55.2345 71.108 54.7025 70.988 54.2545 70.748C53.8145 70.5 53.4705 70.152 53.2225 69.704C52.9825 69.256 52.8625 68.72 52.8625 68.096C52.8625 67.488 52.9825 66.96 53.2225 66.512C53.4625 66.056 53.7905 65.7 54.2065 65.444C54.6305 65.188 55.1185 65.06 55.6705 65.06C56.0625 65.06 56.4145 65.128 56.7265 65.264C57.0385 65.392 57.3025 65.58 57.5185 65.828C57.7425 66.076 57.9105 66.376 58.0225 66.728C58.1425 67.08 58.2025 67.476 58.2025 67.916C58.2025 68.044 58.1665 68.14 58.0945 68.204C58.0225 68.26 57.9185 68.288 57.7825 68.288H53.6065V67.652H57.5545L57.3625 67.808C57.3625 67.376 57.2985 67.012 57.1705 66.716C57.0425 66.412 56.8545 66.18 56.6065 66.02C56.3665 65.86 56.0625 65.78 55.6945 65.78C55.2865 65.78 54.9385 65.876 54.6505 66.068C54.3705 66.252 54.1585 66.512 54.0145 66.848C53.8705 67.176 53.7985 67.56 53.7985 68V68.072C53.7985 68.808 53.9745 69.368 54.3265 69.752C54.6865 70.136 55.1945 70.328 55.8505 70.328C56.1225 70.328 56.3905 70.292 56.6545 70.22C56.9265 70.148 57.1905 70.028 57.4465 69.86C57.5585 69.788 57.6585 69.756 57.7465 69.764C57.8425 69.764 57.9185 69.792 57.9745 69.848C58.0305 69.896 58.0665 69.96 58.0825 70.04C58.1065 70.112 58.0985 70.192 58.0585 70.28C58.0265 70.368 57.9585 70.444 57.8545 70.508C57.5905 70.7 57.2785 70.848 56.9185 70.952C56.5585 71.056 56.2025 71.108 55.8505 71.108ZM60.0262 68.204C59.9062 68.204 59.8062 68.168 59.7262 68.096C59.6462 68.016 59.6062 67.92 59.6062 67.808C59.6062 67.688 59.6462 67.592 59.7262 67.52C59.8062 67.44 59.9062 67.4 60.0262 67.4H62.7262C62.8382 67.4 62.9342 67.44 63.0142 67.52C63.0942 67.592 63.1342 67.688 63.1342 67.808C63.1342 67.92 63.0942 68.016 63.0142 68.096C62.9342 68.168 62.8382 68.204 62.7262 68.204H60.0262ZM67.6279 71.108C67.0119 71.108 66.4799 70.988 66.0319 70.748C65.5919 70.5 65.2479 70.152 64.9999 69.704C64.7599 69.256 64.6399 68.72 64.6399 68.096C64.6399 67.488 64.7599 66.96 64.9999 66.512C65.2399 66.056 65.5679 65.7 65.9839 65.444C66.4079 65.188 66.8959 65.06 67.4479 65.06C67.8399 65.06 68.1919 65.128 68.5039 65.264C68.8159 65.392 69.0799 65.58 69.2959 65.828C69.5199 66.076 69.6879 66.376 69.7999 66.728C69.9199 67.08 69.9799 67.476 69.9799 67.916C69.9799 68.044 69.9439 68.14 69.8719 68.204C69.7999 68.26 69.6959 68.288 69.5599 68.288H65.3839V67.652H69.3319L69.1399 67.808C69.1399 67.376 69.0759 67.012 68.9479 66.716C68.8199 66.412 68.6319 66.18 68.3839 66.02C68.1439 65.86 67.8399 65.78 67.4719 65.78C67.0639 65.78 66.7159 65.876 66.4279 66.068C66.1479 66.252 65.9359 66.512 65.7919 66.848C65.6479 67.176 65.5759 67.56 65.5759 68V68.072C65.5759 68.808 65.7519 69.368 66.1039 69.752C66.4639 70.136 66.9719 70.328 67.6279 70.328C67.8999 70.328 68.1679 70.292 68.4319 70.22C68.7039 70.148 68.9679 70.028 69.2239 69.86C69.3359 69.788 69.4359 69.756 69.5239 69.764C69.6199 69.764 69.6959 69.792 69.7519 69.848C69.8079 69.896 69.8439 69.96 69.8599 70.04C69.8839 70.112 69.8759 70.192 69.8359 70.28C69.8039 70.368 69.7359 70.444 69.6319 70.508C69.3679 70.7 69.0559 70.848 68.6959 70.952C68.3359 71.056 67.9799 71.108 67.6279 71.108ZM73.3546 71.108C72.9946 71.108 72.6306 71.064 72.2626 70.976C71.9026 70.888 71.5666 70.736 71.2546 70.52C71.1746 70.464 71.1186 70.4 71.0866 70.328C71.0546 70.248 71.0426 70.172 71.0506 70.1C71.0666 70.02 71.0986 69.952 71.1466 69.896C71.2026 69.84 71.2666 69.808 71.3386 69.8C71.4186 69.784 71.5066 69.8 71.6026 69.848C71.9146 70.04 72.2146 70.176 72.5026 70.256C72.7986 70.328 73.0906 70.364 73.3786 70.364C73.8346 70.364 74.1786 70.28 74.4106 70.112C74.6426 69.944 74.7586 69.716 74.7586 69.428C74.7586 69.204 74.6826 69.028 74.5306 68.9C74.3786 68.764 74.1386 68.66 73.8106 68.588L72.7186 68.348C72.2146 68.244 71.8386 68.064 71.5906 67.808C71.3506 67.552 71.2306 67.22 71.2306 66.812C71.2306 66.452 71.3226 66.144 71.5066 65.888C71.6986 65.624 71.9666 65.42 72.3106 65.276C72.6546 65.132 73.0546 65.06 73.5106 65.06C73.8626 65.06 74.1946 65.108 74.5066 65.204C74.8266 65.292 75.1146 65.436 75.3706 65.636C75.4506 65.692 75.5026 65.76 75.5266 65.84C75.5586 65.912 75.5626 65.988 75.5386 66.068C75.5226 66.14 75.4866 66.204 75.4306 66.26C75.3746 66.308 75.3066 66.336 75.2266 66.344C75.1466 66.352 75.0626 66.328 74.9746 66.272C74.7346 66.112 74.4906 65.996 74.2426 65.924C73.9946 65.844 73.7506 65.804 73.5106 65.804C73.0626 65.804 72.7226 65.892 72.4906 66.068C72.2586 66.244 72.1426 66.476 72.1426 66.764C72.1426 66.988 72.2146 67.172 72.3586 67.316C72.5026 67.46 72.7266 67.564 73.0306 67.628L74.1226 67.856C74.6426 67.968 75.0306 68.148 75.2866 68.396C75.5506 68.636 75.6826 68.964 75.6826 69.38C75.6826 69.908 75.4706 70.328 75.0466 70.64C74.6226 70.952 74.0586 71.108 73.3546 71.108Z" fill="#030712"/>
<path d="M39.9978 33.8224L39.066 34.0368C39.066 34.0368 37.7731 36.0318 37.491 38.1537C37.3138 39.4859 37.3072 41.2249 37.4297 42.0912C37.5544 42.9574 38.0006 44.8015 38.7028 46.1009C39.3788 47.3521 40.0372 47.8443 40.7569 48.2796C41.0653 48.4656 41.341 49.1021 41.8222 49.4106C42.2728 49.6993 42.8678 49.7562 42.8678 49.7562C42.8678 49.7562 44.5128 52.3396 48.0719 52.7881C52.2478 53.3131 54.291 51.4274 54.291 51.4274C54.291 51.4274 55.9622 51.4231 57.5394 50.7471C59.3091 49.9881 60.2541 48.4087 60.2541 48.4087C60.2541 48.4087 62.47 46.5012 63.1722 44.2174C63.7366 42.3843 63.7519 38.8996 63.3188 37.259C62.8856 35.6184 62.0478 34.2293 61.3828 33.339C60.8535 32.6303 54.9428 29.489 54.2297 29.209C53.5188 28.9312 46.8972 28.4981 46.65 28.684C46.4028 28.8721 39.9978 33.8224 39.9978 33.8224Z" fill="#AC5811"/>
<path d="M42.3034 30.3204C40.7613 31.576 39.9628 32.2322 39.1622 33.8029C38.3616 35.3735 38.6197 37.4582 38.7641 38.2282C38.9063 38.9982 39.1644 40.4835 39.3066 41.225C39.4488 41.9688 39.8272 43.7319 40.875 44.8235C42.3428 46.3526 43.6728 46.8797 43.6728 46.8797C43.6728 46.8797 44.7513 48.551 47.3566 49.5069C50.7822 50.7625 52.3244 48.936 53.6369 48.4504C54.9494 47.9647 56.52 47.9363 57.8631 46.9935C59.2041 46.0507 60.6894 44.9088 61.6606 42.5113C62.6319 40.1138 62.4306 39.0572 62.4591 38.4579C62.4875 37.8585 62.4022 34.9754 61.2888 33.2057C60.1753 31.436 58.8366 30.3729 58.3203 30.036C57.1784 29.2944 53.1009 27.5204 52.075 27.3213C51.0469 27.1222 47.3806 27.4329 45.9259 28.0322C44.4713 28.6316 42.3034 30.3204 42.3034 30.3204Z" fill="url(#paint0_radial_673_10125)"/>
<path d="M48.8112 41.6318C48.5684 41.5553 48.3125 41.1943 48.2512 40.4222C48.1659 39.3218 48.9775 39.0178 48.9775 39.0178C48.9775 39.0178 49.9444 38.7618 50.6247 38.519C51.2569 38.2937 51.7119 38.005 51.7119 38.005C51.7119 38.005 51.7731 36.8259 52.1647 36.4781C52.5584 36.1303 53.2519 36.1609 54.0241 36.2506C54.7941 36.3403 56.0344 36.8543 55.8528 37.3225C55.6712 37.7906 55.4591 38.2587 54.7197 38.6831C53.9803 39.1053 53.4509 39.499 53.0725 39.8315C52.6941 40.1662 52.0006 40.5862 50.8522 41.0106C49.7037 41.435 49.1612 41.7412 48.8112 41.6318ZM42.3078 31.7903C41.5816 31.6415 40.5556 33.2143 40.3653 33.735C40.1728 34.2556 39.9759 35.5243 39.9541 36.104C39.9256 36.8237 39.9125 37.4997 40.2144 38.0487C40.4462 38.4731 41.0084 38.7115 41.5137 38.274C42.0191 37.8365 42.8962 36.6378 43.1281 36.4693C43.36 36.3009 44.0381 36.0778 43.7712 34.9753C43.6619 34.5247 42.5528 33.5928 42.4981 33.4659C42.4456 33.3412 42.7191 31.8756 42.3078 31.7903ZM47.4419 29.815C47.4703 30.2372 47.8159 30.9131 48.19 31.2784C48.75 31.8231 51.3181 33.665 51.9831 33.56C52.6481 33.455 53.3722 32.2606 53.5844 31.9281C53.7966 31.5956 54.2187 31.1275 54.385 30.9153C54.5512 30.7031 54.9887 30.2197 54.6278 29.7362C54.2647 29.2528 53.3591 28.9356 52.7553 28.8897C52.1516 28.8437 51.2131 28.4522 50.4125 28.4828C49.6119 28.5134 47.3675 28.7256 47.4419 29.815ZM58.0119 35.4478C58.0622 35.9072 58.7075 36.0078 59.2216 36.3403C59.7356 36.6728 60.0834 37.0206 60.3853 36.9287C60.6872 36.839 61.0984 36.3556 61.0044 35.509C60.8841 34.4218 60.2037 33.0306 59.2522 33.0765C58.6769 33.105 58.7556 34.1047 58.7556 34.1047C58.7556 34.1047 57.9812 35.1765 58.0119 35.4478Z" fill="#FFC86E"/>
<path d="M45.5716 32.6128C45.5716 32.6128 43.5088 32.5997 43.5459 32.8053C43.5853 33.0109 43.7647 33.6891 44.3028 33.7153C44.8409 33.7416 45.5344 33.7919 45.8669 33.6891C46.1994 33.5863 47.1225 32.8425 47.1225 32.51C47.1225 32.1775 46.7506 31.6897 46.7506 31.6897L45.5716 32.6128ZM48.5181 36.395C48.5181 36.395 48.4941 36.4103 48.4591 36.4388C48.3562 36.5241 48.1594 36.7231 48.2359 36.9463C48.3388 37.2416 48.9403 37.7928 49.5309 37.7928C50.1216 37.7928 50.4409 37.2416 50.5437 36.8828C50.6466 36.5241 50.5941 36.3053 50.5941 36.3053L48.5181 36.395ZM43.9178 38.075C43.9178 38.075 43.5591 38.2041 43.5722 38.4338C43.5853 38.6634 43.675 39.0878 44.1366 39.5363C44.6025 39.9891 45.2784 40.1138 45.8931 39.9475C46.5078 39.7813 46.9563 39.3197 46.9059 38.705C46.8556 38.0903 46.265 37.6156 46.265 37.6156L43.9178 38.075ZM41.2644 41.4722C41.2644 41.4722 40.8794 41.5619 40.9188 41.8178C40.9581 42.0738 41.3934 42.8809 42.0847 42.7913C42.7759 42.7016 43.8675 41.9075 43.8675 41.5991C43.8675 41.2906 43.3163 40.8816 43.3163 40.8816L41.2644 41.4722ZM45.9806 44.6769C45.9806 44.6769 45.8384 45.5038 46.9541 45.8056C48.8134 46.3066 49.0059 45.1778 49.0059 45.1778L45.9806 44.6769ZM53.2847 45.0597C53.2847 45.0597 52.7859 45.5584 53.3525 45.95C53.9191 46.3416 54.5644 46.475 55.1725 46.4072C55.7806 46.3394 56.1962 45.8538 56.1962 45.8538L53.2847 45.0597ZM57.9397 39.5209C57.9397 39.5209 56.9991 39.9956 57.7275 40.8159C58.2809 41.4416 59.5475 41.3147 60.0659 40.9625C60.405 40.7328 60.5056 40.3259 60.3787 40.1203C60.2497 39.9147 57.9397 39.5209 57.9397 39.5209ZM54.2997 34.0872C54.2997 34.0872 54.2494 35.1613 55.6975 35.1263C57.7231 35.0759 57.4672 33.8181 57.4672 33.8181L54.2997 34.0872Z" fill="#CF701E"/>
<path d="M55.2359 32.7419C55.2359 32.7419 54.2866 33.3326 54.1838 33.5754C54.0809 33.8182 53.8622 34.5882 54.9647 34.5379C56.0672 34.4876 57.1697 34.4482 57.5416 33.9997C57.9134 33.5513 57.8238 33.1401 57.6706 32.8076C57.5175 32.4751 56.6556 31.2172 55.9709 31.2326C55.5225 31.2413 55.2359 32.7419 55.2359 32.7419Z" fill="#593329"/>
<path d="M55.9666 31.2281C55.9666 31.2281 55.365 31.1515 54.8378 32.0878C54.3128 33.024 54.1772 33.5818 54.1772 33.5818C54.1772 33.5818 55.2469 33.5862 55.8878 33.5096C56.5287 33.4331 56.9641 33.0349 56.9641 33.0349C56.9641 33.0349 56.4412 31.344 55.9666 31.2281Z" fill="#925849"/>
<path d="M48.6866 35.6009C48.6866 35.6009 48.1616 35.5659 48.1222 35.7694C48.0828 35.975 48.1987 36.4978 48.3781 36.7275C48.5575 36.9572 49.0956 37.4712 49.6338 37.3684C50.1719 37.2656 50.4913 36.7384 50.5809 36.5569C50.6619 36.3862 50.7494 36.2025 50.5963 35.9728C50.4409 35.7409 48.6866 35.6009 48.6866 35.6009Z" fill="#593329"/>
<path d="M49.4675 34.7806C49.0212 34.7325 47.945 35.5878 48.1375 35.8809C48.3519 36.2025 48.3891 35.9991 48.9797 36.2944C49.4675 36.5372 49.6797 36.7625 49.9859 36.7231C50.2922 36.6838 50.6575 36.1785 50.5941 35.9728C50.5306 35.7672 50.0712 34.8441 49.4675 34.7806Z" fill="#925849"/>
<path d="M44.4166 31.3178L43.3666 32.044C43.3666 32.044 43.3272 32.5362 43.5459 32.8053C43.7647 33.0743 43.8281 33.2406 44.8541 33.2406C45.88 33.2406 46.8403 33.1006 47.0197 32.3699C47.1991 31.6393 46.8841 31.1712 46.6916 30.9021C46.4991 30.6331 44.4166 31.3178 44.4166 31.3178Z" fill="#593329"/>
<path d="M44.4297 30.1782C44.1934 30.2788 43.6356 31.0379 43.5066 31.3704C43.3775 31.7029 43.3491 32.0572 43.3666 32.0616C43.5787 32.1141 44.8278 32.23 45.3791 32.1404C45.9303 32.0507 46.3787 31.8079 46.5581 31.4863C46.7003 31.2304 46.6894 30.8913 46.6894 30.8913C46.6894 30.8913 46.3153 30.2175 45.8012 30.0119C45.2894 29.8063 44.5194 30.1388 44.4297 30.1782Z" fill="#925949"/>
<path d="M43.5503 38.1231C43.5503 38.1231 43.4628 38.2565 43.6291 38.5125C43.7953 38.7684 44.1213 39.0746 44.6091 39.2168C45.0969 39.3568 45.4425 39.5493 45.7619 39.5121C46.0834 39.4728 46.7113 39.2168 46.7353 38.3331C46.7616 37.4493 46.5822 37.0381 46.1972 36.6531C45.8122 36.2681 45.5344 36.3337 45.5344 36.3337L43.5503 38.1231Z" fill="#593329"/>
<path d="M43.6619 37.305C43.5262 37.5325 43.4256 38.2719 43.5919 38.4381C43.7581 38.6044 44.7578 38.6153 45.0203 38.5869C45.285 38.5584 46.1491 38.1516 46.1622 37.8431C46.1753 37.5347 46.0091 37.1256 46.0091 36.9725C46.0091 36.8194 46.2016 36.4606 45.6766 36.3316C45.1516 36.2025 43.9419 36.8303 43.6619 37.305Z" fill="#925849"/>
<path d="M41.9294 40.6257C41.9294 40.6257 41.1047 40.8291 41.0522 41.1113C41.0019 41.3935 41.12 41.6779 41.4022 41.9469C41.6844 42.216 41.89 42.4982 42.1066 42.4719C42.3253 42.4457 42.9006 41.9338 43.08 41.7676C43.2594 41.6013 43.5153 41.306 43.4912 41.0632C43.4672 40.8204 43.3622 40.5754 43.1325 40.3829C42.905 40.1904 41.9294 40.6257 41.9294 40.6257Z" fill="#593329"/>
<path d="M42.135 39.895C41.75 39.9038 41.4547 40.3697 41.3278 40.536C41.1987 40.7022 40.9822 41.1003 41.0719 41.1638C41.1616 41.2272 41.5334 41.2666 41.7128 41.3825C41.8922 41.4985 42.1612 41.6778 42.3669 41.5116C42.5725 41.3453 42.7519 40.8838 42.8547 40.7307C42.9575 40.5775 43.1369 40.385 43.1369 40.385C43.1369 40.385 42.7497 39.8819 42.135 39.895Z" fill="#925849"/>
<path d="M46.8403 42.9837C46.7638 43.0734 45.6744 43.9572 45.6744 43.9572C45.6744 43.9572 45.7138 44.7272 45.9566 44.9066C46.1994 45.0859 46.9563 45.3419 47.4441 45.4447C47.9319 45.5475 48.8025 45.6634 49.0213 45.5737C49.24 45.4841 49.4697 45.0094 49.4828 44.3947C49.4959 43.78 49.2772 43.3206 49.0344 43.0384C48.7916 42.7562 48.5969 42.6512 48.5969 42.6512L46.8403 42.9837Z" fill="#593329"/>
<path d="M48.2884 44.1366C48.4306 43.9769 48.5969 42.6491 48.5969 42.6491C48.5969 42.6491 47.6103 41.8922 47.1991 41.8419C46.7878 41.7916 46.3022 41.8287 46.16 41.9819C46.02 42.135 45.4688 42.6862 45.5191 43.045C45.5694 43.4037 45.6722 43.955 45.6722 43.955C45.6722 43.955 47.9931 44.4712 48.2884 44.1366Z" fill="#925849"/>
<path d="M53.0703 44.7688C53.0703 44.7688 52.9456 45.6 53.86 45.7575C54.7744 45.9128 55.5334 46.1207 55.9294 46.0375C56.3253 45.9544 56.7191 45.425 56.7606 45.04C56.8022 44.655 56.8241 44.0994 56.7606 43.9485C56.5944 43.5482 55.8244 42.4522 55.4503 42.3363C55.2403 42.2728 55.0412 42.3078 55.0412 42.3078L53.0703 44.7688Z" fill="#593329"/>
<path d="M53.6631 43.3119C53.2541 43.7647 53.0441 44.4187 53.0659 44.7644C53.0878 45.0903 54.6388 44.9481 54.8225 44.8365C55.0063 44.725 55.4066 44.2262 55.4197 44.06C55.4328 43.8937 55.3059 43.3731 55.2841 43.0515C55.2622 42.73 55.2534 42.2925 55.0763 42.3034C54.8991 42.3144 54.245 42.6687 53.6631 43.3119Z" fill="#925849"/>
<path d="M58.9088 37.6681C58.9088 37.6681 59.2697 37.7206 59.7138 37.9875C60.2322 38.2981 60.7747 39.09 60.7331 39.7353C60.6916 40.3806 60.1294 40.6715 59.4447 40.6825C58.76 40.6934 58.0906 40.6562 57.9659 40.3018C57.8413 39.9475 58.9088 37.6681 58.9088 37.6681Z" fill="#593329"/>
<path d="M58.3619 37.8847C58.2547 38.0335 57.9769 38.4885 57.8828 39.0704C57.7888 39.6522 57.8522 40.3172 58.06 40.4332C58.2678 40.5469 59.4119 39.5604 59.4731 39.4554C59.5366 39.3504 59.1078 37.76 58.9722 37.6879C58.8366 37.6157 58.4975 37.6988 58.3619 37.8847Z" fill="#925849"/>
<defs>
<radialGradient id="paint0_radial_673_10125" cx="0" cy="0" r="1" gradientUnits="userSpaceOnUse" gradientTransform="translate(50.5359 38.5992) scale(11.6379 11.6379)">
<stop offset="0.507" stop-color="#F29F58"/>
<stop offset="0.715" stop-color="#F09D56"/>
<stop offset="0.826" stop-color="#EB9550"/>
<stop offset="0.914" stop-color="#E18745"/>
<stop offset="0.99" stop-color="#D47436"/>
<stop offset="1" stop-color="#D27133"/>
</radialGradient>
</defs>
</svg>
