<svg width="101" height="136" viewBox="0 0 101 136" fill="none" xmlns="http://www.w3.org/2000/svg">
<mask id="path-1-inside-1_673_10127" fill="white">
<path fill-rule="evenodd" clip-rule="evenodd" d="M69.5 18C68.9477 18 68.5029 17.5515 68.4727 17C67.9538 7.52403 60.1056 0 50.5 0C40.8944 0 33.0462 7.52403 32.5273 17C32.4971 17.5515 32.0523 18 31.5 18L4.5 18C2.29086 18 0.5 19.7909 0.5 22L0.5 49C0.5 49.5523 0.948497 49.9971 1.49996 50.0273C10.976 50.5462 18.5 58.3944 18.5 68C18.5 77.6056 10.976 85.4538 1.49996 85.9727C0.948498 86.0029 0.5 86.4477 0.5 87L0.5 114C0.5 116.209 2.29086 118 4.5 118L31.5 118C32.0523 118 32.4971 118.448 32.5273 119C33.0462 128.476 40.8944 136 50.5 136C60.1056 136 67.9538 128.476 68.4727 119C68.5029 118.448 68.9477 118 69.5 118L96.5 118C98.7091 118 100.5 116.209 100.5 114V87C100.5 86.4477 100.052 86.0029 99.5 85.9727C90.024 85.4538 82.5 77.6056 82.5 68C82.5 58.3944 90.024 50.5462 99.5 50.0273C100.052 49.9971 100.5 49.5523 100.5 49V22C100.5 19.7909 98.7091 18 96.5 18L69.5 18Z"/>
</mask>
<path fill-rule="evenodd" clip-rule="evenodd" d="M69.5 18C68.9477 18 68.5029 17.5515 68.4727 17C67.9538 7.52403 60.1056 0 50.5 0C40.8944 0 33.0462 7.52403 32.5273 17C32.4971 17.5515 32.0523 18 31.5 18L4.5 18C2.29086 18 0.5 19.7909 0.5 22L0.5 49C0.5 49.5523 0.948497 49.9971 1.49996 50.0273C10.976 50.5462 18.5 58.3944 18.5 68C18.5 77.6056 10.976 85.4538 1.49996 85.9727C0.948498 86.0029 0.5 86.4477 0.5 87L0.5 114C0.5 116.209 2.29086 118 4.5 118L31.5 118C32.0523 118 32.4971 118.448 32.5273 119C33.0462 128.476 40.8944 136 50.5 136C60.1056 136 67.9538 128.476 68.4727 119C68.5029 118.448 68.9477 118 69.5 118L96.5 118C98.7091 118 100.5 116.209 100.5 114V87C100.5 86.4477 100.052 86.0029 99.5 85.9727C90.024 85.4538 82.5 77.6056 82.5 68C82.5 58.3944 90.024 50.5462 99.5 50.0273C100.052 49.9971 100.5 49.5523 100.5 49V22C100.5 19.7909 98.7091 18 96.5 18L69.5 18Z" fill="#FFFFFF" fill-opacity="1"/>
<path d="M4.5 18V17V18ZM4.5 118V117V118ZM99.5 50.0273L99.4454 49.0288L99.5 50.0273ZM99.5 85.9727L99.5547 84.9742L99.5 85.9727ZM31.5 118V119V118ZM32.5273 119L31.5288 119.055L32.5273 119ZM1.49996 50.0273L1.55463 49.0288L1.49996 50.0273ZM1.49996 85.9727L1.44528 84.9742L1.49996 85.9727ZM32.5273 17L31.5288 16.9454L32.5273 17ZM31.5 18L31.5 17L31.5 18ZM68.4727 119L69.4712 119.055L68.4727 119ZM68.4727 17L67.4742 17.0547L68.4727 17ZM50.5 1C59.5716 1 66.9842 8.10603 67.4742 17.0547L69.4712 16.9454C68.9235 6.94204 60.6396 -1 50.5 -1V1ZM33.5258 17.0547C34.0158 8.10603 41.4284 1 50.5 1V-1C40.3604 -1 32.0765 6.94204 31.5288 16.9454L33.5258 17.0547ZM31.5 17L4.5 17L4.5 19L31.5 19L31.5 17ZM4.5 17C1.73858 17 -0.5 19.2386 -0.5 22H1.5C1.5 20.3431 2.84315 19 4.5 19V17ZM-0.5 22L-0.5 49H1.5L1.5 22H-0.5ZM1.44528 51.0258C10.394 51.5158 17.5 58.9284 17.5 68H19.5C19.5 57.8604 11.558 49.5765 1.55463 49.0288L1.44528 51.0258ZM17.5 68C17.5 77.0716 10.394 84.4842 1.44528 84.9742L1.55463 86.9712C11.558 86.4235 19.5 78.1396 19.5 68H17.5ZM-0.5 87L-0.5 114H1.5L1.5 87H-0.5ZM-0.5 114C-0.5 116.761 1.73858 119 4.5 119V117C2.84315 117 1.5 115.657 1.5 114H-0.5ZM4.5 119L31.5 119L31.5 117L4.5 117L4.5 119ZM31.5288 119.055C32.0765 129.058 40.3604 137 50.5 137V135C41.4284 135 34.0158 127.894 33.5258 118.945L31.5288 119.055ZM50.5 137C60.6396 137 68.9235 129.058 69.4712 119.055L67.4742 118.945C66.9842 127.894 59.5716 135 50.5 135V137ZM69.5 119L96.5 119V117L69.5 117V119ZM96.5 119C99.2614 119 101.5 116.761 101.5 114H99.5C99.5 115.657 98.1569 117 96.5 117V119ZM101.5 114V87H99.5V114H101.5ZM99.5547 84.9742C90.606 84.4842 83.5 77.0716 83.5 68H81.5C81.5 78.1396 89.442 86.4235 99.4454 86.9712L99.5547 84.9742ZM83.5 68C83.5 58.9284 90.606 51.5158 99.5547 51.0258L99.4454 49.0288C89.442 49.5765 81.5 57.8604 81.5 68H83.5ZM101.5 49V22H99.5V49H101.5ZM101.5 22C101.5 19.2386 99.2614 17 96.5 17V19C98.1569 19 99.5 20.3431 99.5 22H101.5ZM96.5 17L69.5 17V19L96.5 19V17ZM99.5547 51.0258C100.601 50.9685 101.5 50.1183 101.5 49H99.5C99.5 49.0012 99.4999 49.0012 99.5 49.0006C99.5001 49.0001 99.5003 48.9998 99.5002 48.9999C99.5002 49.0001 99.4987 49.0033 99.494 49.0081C99.4836 49.0187 99.4666 49.0276 99.4454 49.0288L99.5547 51.0258ZM101.5 87C101.5 85.8817 100.601 85.0315 99.5547 84.9742L99.4454 86.9712C99.4667 86.9724 99.4836 86.9813 99.494 86.9919C99.4987 86.9967 99.5002 86.9999 99.5002 87.0001C99.5003 87.0002 99.5001 86.9999 99.5 86.9993C99.4999 86.9988 99.5 86.9988 99.5 87H101.5ZM31.5 119C31.5012 119 31.5012 119 31.5007 119C31.5001 119 31.4998 119 31.4999 119C31.5001 119 31.5033 119.001 31.5081 119.006C31.5187 119.016 31.5276 119.033 31.5288 119.055L33.5258 118.945C33.4685 117.899 32.6183 117 31.5 117V119ZM-0.5 49C-0.5 50.1183 0.399211 50.9685 1.44528 51.0258L1.55463 49.0288C1.53335 49.0276 1.5164 49.0187 1.506 49.0081C1.50127 49.0033 1.49985 49.0001 1.49977 48.9999C1.49974 48.9998 1.49987 49.0001 1.49998 49.0007C1.5001 49.0012 1.5 49.0012 1.5 49H-0.5ZM1.44528 84.9742C0.399214 85.0315 -0.5 85.8817 -0.5 87H1.5C1.5 86.9988 1.5001 86.9988 1.49998 86.9994C1.49987 86.9999 1.49974 87.0002 1.49977 87.0001C1.49985 86.9999 1.50127 86.9967 1.506 86.9919C1.5164 86.9813 1.53335 86.9724 1.55463 86.9712L1.44528 84.9742ZM31.5288 16.9454C31.5276 16.9667 31.5187 16.9836 31.5081 16.994C31.5033 16.9987 31.5001 17.0002 31.4999 17.0002C31.4998 17.0003 31.5001 17.0001 31.5006 17C31.5012 16.9999 31.5012 17 31.5 17L31.5 19C32.6183 19 33.4685 18.1008 33.5258 17.0547L31.5288 16.9454ZM69.4712 119.055C69.4724 119.033 69.4813 119.016 69.4919 119.006C69.4967 119.001 69.4999 119 69.5001 119C69.5002 119 69.4999 119 69.4994 119C69.4988 119 69.4988 119 69.5 119V117C68.3817 117 67.5315 117.899 67.4742 118.945L69.4712 119.055ZM67.4742 17.0547C67.5315 18.1008 68.3817 19 69.5 19V17C69.4988 17 69.4988 16.9999 69.4994 17C69.4999 17.0001 69.5002 17.0003 69.5001 17.0002C69.4999 17.0002 69.4967 16.9987 69.4919 16.994C69.4813 16.9836 69.4724 16.9666 69.4712 16.9454L67.4742 17.0547Z" fill="#D1D5DB" mask="url(#path-1-inside-1_673_10127)"/>
<path d="M39.8332 89.108C39.3132 89.108 38.8572 88.984 38.4652 88.736C38.0812 88.488 37.7812 88.14 37.5652 87.692C37.3572 87.236 37.2532 86.7 37.2532 86.084C37.2532 85.46 37.3572 84.924 37.5652 84.476C37.7812 84.02 38.0812 83.672 38.4652 83.432C38.8572 83.184 39.3132 83.06 39.8332 83.06C40.3612 83.06 40.8132 83.192 41.1892 83.456C41.5652 83.72 41.8172 84.076 41.9452 84.524H41.8132V80.948C41.8132 80.788 41.8532 80.668 41.9332 80.588C42.0212 80.5 42.1452 80.456 42.3052 80.456C42.4572 80.456 42.5732 80.5 42.6532 80.588C42.7412 80.668 42.7852 80.788 42.7852 80.948V88.58C42.7852 88.74 42.7452 88.864 42.6652 88.952C42.5852 89.04 42.4652 89.084 42.3052 89.084C42.1532 89.084 42.0332 89.04 41.9452 88.952C41.8652 88.864 41.8252 88.74 41.8252 88.58V87.44L41.9572 87.608C41.8292 88.064 41.5732 88.428 41.1892 88.7C40.8132 88.972 40.3612 89.108 39.8332 89.108ZM40.0372 88.328C40.3972 88.328 40.7132 88.24 40.9852 88.064C41.2572 87.888 41.4652 87.632 41.6092 87.296C41.7612 86.96 41.8372 86.556 41.8372 86.084C41.8372 85.356 41.6732 84.8 41.3452 84.416C41.0252 84.032 40.5892 83.84 40.0372 83.84C39.6692 83.84 39.3492 83.928 39.0772 84.104C38.8132 84.272 38.6052 84.524 38.4532 84.86C38.3092 85.188 38.2372 85.596 38.2372 86.084C38.2372 86.804 38.4012 87.36 38.7292 87.752C39.0572 88.136 39.4932 88.328 40.0372 88.328ZM47.2373 89.108C46.6213 89.108 46.0893 88.988 45.6413 88.748C45.2013 88.5 44.8573 88.152 44.6093 87.704C44.3693 87.256 44.2493 86.72 44.2493 86.096C44.2493 85.488 44.3693 84.96 44.6093 84.512C44.8493 84.056 45.1773 83.7 45.5933 83.444C46.0173 83.188 46.5053 83.06 47.0573 83.06C47.4493 83.06 47.8013 83.128 48.1133 83.264C48.4253 83.392 48.6893 83.58 48.9053 83.828C49.1293 84.076 49.2973 84.376 49.4093 84.728C49.5293 85.08 49.5893 85.476 49.5893 85.916C49.5893 86.044 49.5533 86.14 49.4813 86.204C49.4093 86.26 49.3053 86.288 49.1693 86.288H44.9933V85.652H48.9413L48.7493 85.808C48.7493 85.376 48.6853 85.012 48.5573 84.716C48.4293 84.412 48.2413 84.18 47.9933 84.02C47.7533 83.86 47.4493 83.78 47.0813 83.78C46.6733 83.78 46.3253 83.876 46.0373 84.068C45.7573 84.252 45.5453 84.512 45.4013 84.848C45.2573 85.176 45.1853 85.56 45.1853 86V86.072C45.1853 86.808 45.3613 87.368 45.7133 87.752C46.0733 88.136 46.5813 88.328 47.2373 88.328C47.5093 88.328 47.7773 88.292 48.0413 88.22C48.3133 88.148 48.5773 88.028 48.8333 87.86C48.9453 87.788 49.0453 87.756 49.1333 87.764C49.2293 87.764 49.3053 87.792 49.3613 87.848C49.4173 87.896 49.4533 87.96 49.4693 88.04C49.4933 88.112 49.4853 88.192 49.4453 88.28C49.4133 88.368 49.3453 88.444 49.2413 88.508C48.9773 88.7 48.6653 88.848 48.3053 88.952C47.9453 89.056 47.5893 89.108 47.2373 89.108ZM52.964 89.108C52.604 89.108 52.24 89.064 51.872 88.976C51.512 88.888 51.176 88.736 50.864 88.52C50.784 88.464 50.728 88.4 50.696 88.328C50.664 88.248 50.652 88.172 50.66 88.1C50.676 88.02 50.708 87.952 50.756 87.896C50.812 87.84 50.876 87.808 50.948 87.8C51.028 87.784 51.116 87.8 51.212 87.848C51.524 88.04 51.824 88.176 52.112 88.256C52.408 88.328 52.7 88.364 52.988 88.364C53.444 88.364 53.788 88.28 54.02 88.112C54.252 87.944 54.368 87.716 54.368 87.428C54.368 87.204 54.292 87.028 54.14 86.9C53.988 86.764 53.748 86.66 53.42 86.588L52.328 86.348C51.824 86.244 51.448 86.064 51.2 85.808C50.96 85.552 50.84 85.22 50.84 84.812C50.84 84.452 50.932 84.144 51.116 83.888C51.308 83.624 51.576 83.42 51.92 83.276C52.264 83.132 52.664 83.06 53.12 83.06C53.472 83.06 53.804 83.108 54.116 83.204C54.436 83.292 54.724 83.436 54.98 83.636C55.06 83.692 55.112 83.76 55.136 83.84C55.168 83.912 55.172 83.988 55.148 84.068C55.132 84.14 55.096 84.204 55.04 84.26C54.984 84.308 54.916 84.336 54.836 84.344C54.756 84.352 54.672 84.328 54.584 84.272C54.344 84.112 54.1 83.996 53.852 83.924C53.604 83.844 53.36 83.804 53.12 83.804C52.672 83.804 52.332 83.892 52.1 84.068C51.868 84.244 51.752 84.476 51.752 84.764C51.752 84.988 51.824 85.172 51.968 85.316C52.112 85.46 52.336 85.564 52.64 85.628L53.732 85.856C54.252 85.968 54.64 86.148 54.896 86.396C55.16 86.636 55.292 86.964 55.292 87.38C55.292 87.908 55.08 88.328 54.656 88.64C54.232 88.952 53.668 89.108 52.964 89.108ZM59.0547 89.108C58.5987 89.108 58.2147 89.028 57.9027 88.868C57.5987 88.7 57.3707 88.46 57.2187 88.148C57.0667 87.828 56.9907 87.44 56.9907 86.984V83.924H56.1867C56.0507 83.924 55.9467 83.892 55.8747 83.828C55.8027 83.756 55.7667 83.66 55.7667 83.54C55.7667 83.42 55.8027 83.328 55.8747 83.264C55.9467 83.2 56.0507 83.168 56.1867 83.168H56.9907V81.788C56.9907 81.628 57.0347 81.508 57.1227 81.428C57.2107 81.34 57.3307 81.296 57.4827 81.296C57.6347 81.296 57.7507 81.34 57.8307 81.428C57.9187 81.508 57.9627 81.628 57.9627 81.788V83.168H59.4747C59.6107 83.168 59.7147 83.2 59.7867 83.264C59.8587 83.328 59.8947 83.42 59.8947 83.54C59.8947 83.66 59.8587 83.756 59.7867 83.828C59.7147 83.892 59.6107 83.924 59.4747 83.924H57.9627V86.888C57.9627 87.344 58.0587 87.692 58.2507 87.932C58.4427 88.164 58.7547 88.28 59.1867 88.28C59.3387 88.28 59.4667 88.264 59.5707 88.232C59.6827 88.2 59.7747 88.184 59.8467 88.184C59.9187 88.176 59.9787 88.2 60.0267 88.256C60.0747 88.312 60.0987 88.408 60.0987 88.544C60.0987 88.64 60.0787 88.728 60.0387 88.808C60.0067 88.888 59.9467 88.944 59.8587 88.976C59.7627 89.008 59.6347 89.036 59.4747 89.06C59.3227 89.092 59.1827 89.108 59.0547 89.108ZM61.402 89.084C61.242 89.084 61.118 89.04 61.03 88.952C60.95 88.864 60.91 88.74 60.91 88.58V83.576C60.91 83.416 60.95 83.296 61.03 83.216C61.11 83.128 61.226 83.084 61.378 83.084C61.53 83.084 61.646 83.128 61.726 83.216C61.814 83.296 61.858 83.416 61.858 83.576V84.548H61.738C61.866 84.076 62.11 83.712 62.47 83.456C62.83 83.2 63.274 83.064 63.802 83.048C63.922 83.04 64.018 83.068 64.09 83.132C64.162 83.188 64.202 83.288 64.21 83.432C64.218 83.568 64.186 83.676 64.114 83.756C64.042 83.836 63.93 83.884 63.778 83.9L63.586 83.924C63.042 83.972 62.622 84.148 62.326 84.452C62.038 84.748 61.894 85.156 61.894 85.676V88.58C61.894 88.74 61.85 88.864 61.762 88.952C61.682 89.04 61.562 89.084 61.402 89.084Z" fill="#030712"/>
<path d="M37.3247 59.691L40.8991 56.1691L46.9847 55.0906L46.3831 58.2756L38.1559 60.8044L37.6244 60.5747L37.3247 59.691Z" fill="#CA2C31"/>
<path d="M41.5181 57.0725L37.6375 60.5988L40.4922 61.99L44.8256 59.7784V58.735L45.7116 56.3463L41.5181 57.0725ZM50.7012 63.2828L48.8266 64.0966L47.0569 67.8481C47.0569 67.8481 48.6144 71.2978 48.6844 71.2978C48.7544 71.2978 49.6403 71.3678 49.6403 71.3678L52.7903 67.8459L53.5866 61.8303L50.7012 63.2828Z" fill="#A02422"/>
<path d="M48.8594 66.0588C48.8594 66.0588 49.9028 65.8466 50.6466 65.4922C51.3903 65.1378 52.3091 64.6085 52.3091 64.6085L51.9722 67.5463L48.68 71.2935C48.68 71.2935 48.5509 71.1338 48.0041 69.9438C47.5688 68.9944 47.4178 68.6553 47.4178 68.6553L48.8594 66.0588Z" fill="#CA2C31"/>
<path d="M43.4081 61.6444C43.4081 61.6444 42.1525 61.5394 40.7766 63.2785C39.5209 64.8666 38.9325 67.4522 38.705 68.1172C38.4775 68.7822 37.9328 68.9178 38.1144 69.2219C38.2959 69.526 39.0813 69.5085 40.0503 69.3882C41.0194 69.2678 41.8506 68.9638 41.8506 68.9638C41.8506 68.9638 41.8091 69.0688 41.6691 69.2963C41.6188 69.3772 41.4438 69.4932 41.4569 69.6135C41.4875 69.9 43.9419 69.9066 45.9019 67.8897C48.0194 65.7132 46.9912 63.9282 46.9912 63.9282L43.4081 61.6444Z" fill="#F7D74D"/>
<path d="M43.7866 62.6572C43.7866 62.6572 42.4325 62.7294 41.3125 64.4684C40.1925 66.2075 39.6719 68.2222 39.7791 68.3578C39.8841 68.4934 41.9709 67.7387 42.4719 67.8897C42.8153 67.9947 42.6381 68.3425 42.73 68.4344C42.8066 68.5109 43.7122 68.64 45.1778 67.0519C46.6456 65.4637 46.2978 63.2325 46.2978 63.2325L43.7866 62.6572Z" fill="#FBF0B4"/>
<path d="M44.4516 60.2838C44.4516 60.2838 43.7713 60.8897 43.5284 61.2375C43.2856 61.5853 43.2856 61.6159 43.3009 61.7209C43.3163 61.8259 43.5678 62.9788 44.6156 63.9894C45.9019 65.2297 47.0503 65.3959 47.2166 65.3959C47.3828 65.3959 48.4875 64.1556 48.4875 64.1556L44.4516 60.2838Z" fill="#858585"/>
<path d="M47.4594 63.9587C47.4594 63.9587 48.5619 64.6828 50.4103 64.0616C52.9369 63.2128 54.7897 61.3141 57.0844 58.9166C59.2981 56.6022 61.1553 53.73 61.1553 53.73L59.8538 49.3703L47.4594 63.9587Z" fill="#437687"/>
<path d="M51.3728 61.5722L51.6769 60.6272L52.4381 60.7344C52.4381 60.7344 53.0178 61.0078 53.4444 61.2069C53.8709 61.4059 54.42 61.5569 54.42 61.5569L53.3372 62.4713C53.3372 62.4713 52.7466 62.2481 52.3156 62.06C51.83 61.8478 51.3728 61.5722 51.3728 61.5722Z" fill="#3F545F"/>
<path d="M54.945 47.5306C54.945 47.5306 52.8406 48.7513 49.8241 51.606C47.105 54.1785 45.0903 56.506 44.6025 58.4856C44.1956 60.1438 44.4122 61.15 45.3375 62.2372C46.3153 63.3878 47.4616 63.9588 47.4616 63.9588C47.4616 63.9588 48.3234 63.9719 51.9197 61.2047C56.4063 57.7506 60.0003 51.9669 60.0003 51.9669L54.945 47.5306Z" fill="#8DAFBF"/>
<path d="M59.2894 53.1525C59.2894 53.1525 57.4584 52.3716 56.1525 50.5494C54.8553 48.7403 54.9581 47.5175 54.9581 47.5175C54.9581 47.5175 56.0431 46.6666 58.4822 45.6931C60.1228 45.0391 62.3563 44.7044 63.0913 45.2491C63.8263 45.7938 62.5881 48.526 62.5881 48.526L60.3328 52.8922L59.2894 53.1525Z" fill="#D83F22"/>
<path d="M51.4122 61.5875C51.4122 61.5875 49.8306 60.7803 48.8244 59.6319C46.9212 57.464 46.5275 55.084 46.5275 55.084L47.4834 53.9619C47.4834 53.9619 47.7219 56.4906 49.7628 58.6759C51.0928 60.1 52.4819 60.7519 52.4819 60.7519C52.4819 60.7519 52.2041 60.9859 51.9066 61.2134C51.7162 61.36 51.4122 61.5875 51.4122 61.5875Z" fill="#6896A5"/>
<path d="M61.1553 53.73C61.1553 53.73 62.1047 52.5859 63.0037 50.0069C64.2594 46.4106 63.1656 45.3212 63.1656 45.3212C63.1656 45.3212 62.7959 47.0319 61.5119 49.4097C60.4816 51.315 59.2347 53.1284 59.2347 53.1284C59.2347 53.1284 59.9216 53.4369 60.2934 53.544C60.7616 53.6797 61.1553 53.73 61.1553 53.73Z" fill="#A02422"/>
<path d="M45.2084 59.2381C45.4928 59.5094 45.9237 59.225 46.2059 58.56C46.4903 57.895 46.4859 57.5231 46.2672 57.3656C45.9959 57.1688 45.5409 57.5997 45.3419 57.9825C45.1231 58.4069 44.9941 59.0325 45.2084 59.2381ZM55.0828 48.4034C55.0828 48.4034 53.4181 49.6 51.6419 51.2275C50.0122 52.7216 48.9316 53.8897 48.7828 54.1609C48.6253 54.4519 48.6231 54.8631 48.7456 55.0731C48.8681 55.2831 49.1394 55.3925 49.3866 55.2088C49.6337 55.0228 51.3947 53.0759 52.985 51.6847C54.4397 50.4116 55.5619 49.6044 55.5619 49.6044C55.5619 49.6044 56.0169 48.7994 55.9425 48.6156C55.8681 48.4297 55.0828 48.4034 55.0828 48.4034Z" fill="#B3E1EE"/>
<path d="M55.0828 48.4034C55.0828 48.4034 56.3122 47.4606 57.6509 46.7978C58.8956 46.1809 60.1337 45.6669 60.3569 46.1131C60.5691 46.5375 59.1822 47.115 57.9616 47.8937C56.7409 48.6725 55.5662 49.6022 55.5662 49.6022C55.5662 49.6022 55.3869 49.2741 55.2709 48.97C55.1974 48.7849 55.1346 48.5957 55.0828 48.4034Z" fill="#ED6A65"/>
<path d="M56.0978 52.5859C54.8794 51.4638 53.1841 51.7656 52.3484 52.7631C51.4909 53.7913 51.5544 55.3619 52.5672 56.3069C53.4881 57.1644 55.2009 57.3591 56.2334 56.1559C57.1522 55.0884 57.0953 53.5025 56.0978 52.5859Z" fill="#E1E1E1"/>
<path d="M52.9784 53.1591C52.2544 53.87 52.2937 55.2788 53.1556 55.9219C53.9081 56.4841 54.9756 56.4556 55.645 55.7709C56.3144 55.0863 56.3144 53.8416 55.6866 53.1984C54.9647 52.4613 53.8075 52.3453 52.9784 53.1591Z" fill="#3F545F"/>
<path d="M47.4375 60.8197C47.4375 60.8197 48.7916 59.4459 48.9403 59.5947C49.0891 59.7434 49.0694 60.5769 48.4219 61.5044C47.7722 62.4319 46.3438 64.0834 45.2128 65.1969C44.0972 66.2928 42.5244 67.5463 42.3756 67.5244C42.2597 67.5069 41.7894 67.2728 41.6013 67.0453C41.4175 66.82 41.9666 65.7547 42.1875 65.4025C42.4106 65.0503 47.4375 60.8197 47.4375 60.8197Z" fill="#A02524"/>
<path d="M41.1441 66.2797C41.1266 66.5947 41.6078 67.054 41.6078 67.054L48.9403 59.5968C48.9403 59.5968 48.5969 59.2097 47.5863 59.8375C46.5669 60.4718 45.6744 61.2331 44.3575 62.5084C42.5222 64.289 41.1616 65.9647 41.1441 66.2797Z" fill="#CA2C31"/>
<path d="M40.6694 52.0828C40.4266 52.3256 40.4156 52.715 40.6869 52.9381C40.9275 53.1372 41.3191 53.0081 41.4656 52.8287C41.6122 52.6494 41.5947 52.26 41.4 52.0675C41.2053 51.8728 40.8181 51.9362 40.6694 52.0828Z" fill="white"/>
<path opacity="0.5" d="M45.4731 51.7984C45.2894 52.0019 45.3484 52.3037 45.5191 52.4153C45.6897 52.5269 45.9456 52.5159 46.0703 52.3628C46.1819 52.225 46.195 51.9494 46.0244 51.7787C45.8756 51.6322 45.5912 51.6672 45.4731 51.7984Z" fill="white"/>
<path d="M48.6516 46.6009C48.6516 46.6009 48.9184 45.8397 49.0759 45.8309C49.2356 45.8222 49.4653 46.5922 49.4653 46.5922C49.4653 46.5922 50.255 46.6009 50.3075 46.7169C50.3753 46.8656 49.8022 47.3644 49.8022 47.3644C49.8022 47.3644 49.9881 48.1081 49.9006 48.1978C49.8022 48.2963 49.1219 47.9047 49.1219 47.9047C49.1219 47.9047 48.4219 48.3925 48.2709 48.2591C48.1397 48.1431 48.4131 47.3556 48.4131 47.3556C48.4131 47.3556 47.7569 46.8766 47.7919 46.7431C47.8422 46.555 48.6516 46.6009 48.6516 46.6009ZM57.7209 64.8534C57.9856 65 58.3181 64.9169 58.4406 64.6347C58.5522 64.3831 58.3466 64.0834 58.1606 64.0025C57.9747 63.9216 57.6488 64.0288 57.5306 64.2409C57.4147 64.4509 57.5613 64.7659 57.7209 64.8534ZM61.4791 58.4025C61.3281 58.1684 61.0022 58.0919 60.79 58.28C60.5844 58.4638 60.6347 58.7525 60.7506 58.8991C60.8666 59.0456 61.1772 59.1003 61.3653 58.98C61.5534 58.8597 61.5709 58.5425 61.4791 58.4025Z" fill="white"/>
</svg>
