<svg width="119" height="118" viewBox="0 0 119 118" fill="none" xmlns="http://www.w3.org/2000/svg">
<mask id="path-1-inside-1_673_10128" fill="white">
<path fill-rule="evenodd" clip-rule="evenodd" d="M68.5 18C78.1056 18 85.9538 10.476 86.4727 0.999956C86.5029 0.448497 86.9477 0 87.5 0L114.5 0C116.709 0 118.5 1.79086 118.5 4V30C118.5 30.5523 118.052 30.9971 117.5 31.0273C108.024 31.5462 100.5 39.3944 100.5 49C100.5 58.6056 108.024 66.4538 117.5 66.9727C118.052 67.0029 118.5 67.4477 118.5 68L118.5 96C118.5 98.2091 116.709 100 114.5 100H87.5C86.9477 100 86.5029 100.448 86.4727 101C85.9538 110.476 78.1056 118 68.5 118C58.8944 118 51.0462 110.476 50.5273 101C50.4971 100.448 50.0523 100 49.5 100L22.5 100C20.2909 100 18.5 98.2091 18.5 96L18.5 69C18.5 68.4477 18.0515 68.0029 17.5 67.9727C8.02403 67.4538 0.5 59.6056 0.5 50C0.5 40.3944 8.02403 32.5462 17.5 32.0273C18.0515 31.9971 18.5 31.5523 18.5 31L18.5 4C18.5 1.79086 20.2909 0 22.5 0L49.5 0C50.0523 0 50.4971 0.448498 50.5273 0.999957C51.0462 10.476 58.8944 18 68.5 18Z"/>
</mask>
<path fill-rule="evenodd" clip-rule="evenodd" d="M68.5 18C78.1056 18 85.9538 10.476 86.4727 0.999956C86.5029 0.448497 86.9477 0 87.5 0L114.5 0C116.709 0 118.5 1.79086 118.5 4V30C118.5 30.5523 118.052 30.9971 117.5 31.0273C108.024 31.5462 100.5 39.3944 100.5 49C100.5 58.6056 108.024 66.4538 117.5 66.9727C118.052 67.0029 118.5 67.4477 118.5 68L118.5 96C118.5 98.2091 116.709 100 114.5 100H87.5C86.9477 100 86.5029 100.448 86.4727 101C85.9538 110.476 78.1056 118 68.5 118C58.8944 118 51.0462 110.476 50.5273 101C50.4971 100.448 50.0523 100 49.5 100L22.5 100C20.2909 100 18.5 98.2091 18.5 96L18.5 69C18.5 68.4477 18.0515 68.0029 17.5 67.9727C8.02403 67.4538 0.5 59.6056 0.5 50C0.5 40.3944 8.02403 32.5462 17.5 32.0273C18.0515 31.9971 18.5 31.5523 18.5 31L18.5 4C18.5 1.79086 20.2909 0 22.5 0L49.5 0C50.0523 0 50.4971 0.448498 50.5273 0.999957C51.0462 10.476 58.8944 18 68.5 18Z" fill="#FFFFFF" fill-opacity="1"/>
<path d="M18.5 96L17.5 96V96H18.5ZM18.5 4L17.5 4L17.5 4L18.5 4ZM50.5273 0.999957L51.5258 0.945284L50.5273 0.999957ZM17.5 32.0273L17.4454 31.0288L17.5 32.0273ZM18.5 31L17.5 31L18.5 31ZM18.5 69L17.5 69L18.5 69ZM17.5 67.9727L17.4454 68.9712L17.5 67.9727ZM50.5273 101L49.5288 101.055L50.5273 101ZM117.5 66.9727L117.555 65.9742L117.5 66.9727ZM86.4727 101L87.4712 101.055L86.4727 101ZM117.5 31.0273L117.555 32.0258L117.5 31.0273ZM85.4742 0.945282C84.9842 9.89397 77.5716 17 68.5 17V19C78.6396 19 86.9235 11.058 87.4712 1.05463L85.4742 0.945282ZM114.5 -1L87.5 -1V1L114.5 1V-1ZM119.5 4C119.5 1.23858 117.261 -1 114.5 -1V1C116.157 1 117.5 2.34315 117.5 4H119.5ZM119.5 30V4H117.5V30H119.5ZM101.5 49C101.5 39.9284 108.606 32.5158 117.555 32.0258L117.445 30.0288C107.442 30.5765 99.5 38.8604 99.5 49H101.5ZM117.555 65.9742C108.606 65.4842 101.5 58.0716 101.5 49H99.5C99.5 59.1396 107.442 67.4235 117.445 67.9712L117.555 65.9742ZM119.5 96L119.5 68H117.5L117.5 96H119.5ZM114.5 101C117.261 101 119.5 98.7614 119.5 96H117.5C117.5 97.6569 116.157 99 114.5 99V101ZM87.5 101H114.5V99H87.5V101ZM68.5 119C78.6396 119 86.9235 111.058 87.4712 101.055L85.4742 100.945C84.9842 109.894 77.5716 117 68.5 117V119ZM49.5288 101.055C50.0765 111.058 58.3604 119 68.5 119V117C59.4284 117 52.0158 109.894 51.5258 100.945L49.5288 101.055ZM22.5 101L49.5 101V99L22.5 99L22.5 101ZM17.5 96C17.5 98.7614 19.7386 101 22.5 101L22.5 99C20.8431 99 19.5 97.6569 19.5 96H17.5ZM17.5 69L17.5 96L19.5 96L19.5 69L17.5 69ZM17.5547 66.9742C8.60603 66.4842 1.5 59.0716 1.5 50H-0.5C-0.5 60.1396 7.44204 68.4235 17.4454 68.9712L17.5547 66.9742ZM1.5 50C1.5 40.9284 8.60603 33.5158 17.5547 33.0258L17.4454 31.0288C7.44204 31.5765 -0.5 39.8604 -0.5 50H1.5ZM17.5 4L17.5 31L19.5 31L19.5 4L17.5 4ZM22.5 -1C19.7386 -1 17.5 1.23858 17.5 4L19.5 4C19.5 2.34315 20.8431 1 22.5 1V-1ZM49.5 -1L22.5 -1V1L49.5 1V-1ZM68.5 17C59.4284 17 52.0158 9.89397 51.5258 0.945284L49.5288 1.05463C50.0765 11.058 58.3604 19 68.5 19V17ZM49.5 1C49.5012 1 49.5012 1.0001 49.5006 0.999977C49.5001 0.999868 49.4998 0.999738 49.4999 0.999766C49.5001 0.999846 49.5033 1.00127 49.5081 1.006C49.5187 1.0164 49.5276 1.03335 49.5288 1.05463L51.5258 0.945284C51.4685 -0.100786 50.6183 -1 49.5 -1V1ZM17.5547 33.0258C18.6008 32.9685 19.5 32.1183 19.5 31L17.5 31C17.5 31.0012 17.4999 31.0012 17.5 31.0006C17.5001 31.0001 17.5003 30.9998 17.5002 30.9999C17.5002 31.0001 17.4987 31.0033 17.494 31.0081C17.4836 31.0187 17.4666 31.0276 17.4454 31.0288L17.5547 33.0258ZM19.5 69C19.5 67.8817 18.6008 67.0315 17.5547 66.9742L17.4454 68.9712C17.4667 68.9724 17.4836 68.9813 17.494 68.9919C17.4987 68.9967 17.5002 68.9999 17.5002 69.0001C17.5003 69.0002 17.5001 68.9999 17.5 68.9994C17.4999 68.9988 17.5 68.9988 17.5 69L19.5 69ZM87.4712 1.05463C87.4724 1.03335 87.4813 1.0164 87.4919 1.006C87.4967 1.00127 87.4999 0.999846 87.5001 0.999766C87.5002 0.999738 87.4999 0.999868 87.4993 0.999977C87.4988 1.0001 87.4988 1 87.5 1V-1C86.3817 -1 85.5315 -0.100789 85.4742 0.945282L87.4712 1.05463ZM51.5258 100.945C51.4685 99.8992 50.6183 99 49.5 99V101C49.5012 101 49.5012 101 49.5006 101C49.5001 101 49.4998 101 49.4999 101C49.5001 101 49.5033 101.001 49.5081 101.006C49.5187 101.016 49.5276 101.033 49.5288 101.055L51.5258 100.945ZM117.445 67.9712C117.467 67.9724 117.484 67.9813 117.494 67.9919C117.499 67.9967 117.5 67.9999 117.5 68.0001C117.5 68.0002 117.5 67.9999 117.5 67.9994C117.5 67.9988 117.5 67.9988 117.5 68H119.5C119.5 66.8817 118.601 66.0315 117.555 65.9742L117.445 67.9712ZM87.5 99C86.3817 99 85.5315 99.8992 85.4742 100.945L87.4712 101.055C87.4724 101.033 87.4813 101.016 87.4919 101.006C87.4967 101.001 87.4999 101 87.5001 101C87.5002 101 87.4999 101 87.4994 101C87.4988 101 87.4988 101 87.5 101V99ZM117.5 30C117.5 30.0012 117.5 30.0012 117.5 30.0006C117.5 30.0001 117.5 29.9998 117.5 29.9999C117.5 30.0001 117.499 30.0033 117.494 30.0081C117.484 30.0187 117.467 30.0276 117.445 30.0288L117.555 32.0258C118.601 31.9685 119.5 31.1183 119.5 30H117.5Z" fill="#D1D5DB" mask="url(#path-1-inside-1_673_10128)"/>
<path d="M45.9989 71.084C45.8469 71.084 45.7269 71.04 45.6389 70.952C45.5589 70.864 45.5189 70.74 45.5189 70.58V65.924H44.7509C44.6229 65.924 44.5189 65.892 44.4389 65.828C44.3669 65.756 44.3309 65.66 44.3309 65.54C44.3309 65.42 44.3669 65.328 44.4389 65.264C44.5189 65.2 44.6229 65.168 44.7509 65.168H45.7829L45.5189 65.42V64.964C45.5189 64.204 45.7029 63.624 46.0709 63.224C46.4469 62.824 46.9949 62.592 47.7149 62.528L48.0629 62.492C48.1749 62.484 48.2629 62.504 48.3269 62.552C48.3989 62.6 48.4429 62.66 48.4589 62.732C48.4829 62.804 48.4869 62.88 48.4709 62.96C48.4549 63.032 48.4189 63.096 48.3629 63.152C48.3069 63.208 48.2389 63.24 48.1589 63.248L47.8829 63.272C47.3949 63.312 47.0389 63.46 46.8149 63.716C46.5989 63.972 46.4909 64.348 46.4909 64.844V65.348L46.3469 65.168H47.7869C47.9229 65.168 48.0269 65.2 48.0989 65.264C48.1709 65.328 48.2069 65.42 48.2069 65.54C48.2069 65.66 48.1709 65.756 48.0989 65.828C48.0269 65.892 47.9229 65.924 47.7869 65.924H46.4909V70.58C46.4909 70.916 46.3269 71.084 45.9989 71.084ZM51.1124 71.108C50.7524 71.108 50.3884 71.064 50.0204 70.976C49.6604 70.888 49.3244 70.736 49.0124 70.52C48.9324 70.464 48.8764 70.4 48.8444 70.328C48.8124 70.248 48.8004 70.172 48.8084 70.1C48.8244 70.02 48.8564 69.952 48.9044 69.896C48.9604 69.84 49.0244 69.808 49.0964 69.8C49.1764 69.784 49.2644 69.8 49.3604 69.848C49.6724 70.04 49.9724 70.176 50.2604 70.256C50.5564 70.328 50.8484 70.364 51.1364 70.364C51.5924 70.364 51.9364 70.28 52.1684 70.112C52.4004 69.944 52.5164 69.716 52.5164 69.428C52.5164 69.204 52.4404 69.028 52.2884 68.9C52.1364 68.764 51.8964 68.66 51.5684 68.588L50.4764 68.348C49.9724 68.244 49.5964 68.064 49.3484 67.808C49.1084 67.552 48.9884 67.22 48.9884 66.812C48.9884 66.452 49.0804 66.144 49.2644 65.888C49.4564 65.624 49.7244 65.42 50.0684 65.276C50.4124 65.132 50.8124 65.06 51.2684 65.06C51.6204 65.06 51.9524 65.108 52.2644 65.204C52.5844 65.292 52.8724 65.436 53.1284 65.636C53.2084 65.692 53.2604 65.76 53.2844 65.84C53.3164 65.912 53.3204 65.988 53.2964 66.068C53.2804 66.14 53.2444 66.204 53.1884 66.26C53.1324 66.308 53.0644 66.336 52.9844 66.344C52.9044 66.352 52.8204 66.328 52.7324 66.272C52.4924 66.112 52.2484 65.996 52.0004 65.924C51.7524 65.844 51.5084 65.804 51.2684 65.804C50.8204 65.804 50.4804 65.892 50.2484 66.068C50.0164 66.244 49.9004 66.476 49.9004 66.764C49.9004 66.988 49.9724 67.172 50.1164 67.316C50.2604 67.46 50.4844 67.564 50.7884 67.628L51.8804 67.856C52.4004 67.968 52.7884 68.148 53.0444 68.396C53.3084 68.636 53.4404 68.964 53.4404 69.38C53.4404 69.908 53.2284 70.328 52.8044 70.64C52.3804 70.952 51.8164 71.108 51.1124 71.108ZM55.2098 68.204C55.0898 68.204 54.9898 68.168 54.9098 68.096C54.8298 68.016 54.7898 67.92 54.7898 67.808C54.7898 67.688 54.8298 67.592 54.9098 67.52C54.9898 67.44 55.0898 67.4 55.2098 67.4H57.9098C58.0218 67.4 58.1178 67.44 58.1978 67.52C58.2778 67.592 58.3178 67.688 58.3178 67.808C58.3178 67.92 58.2778 68.016 58.1978 68.096C58.1178 68.168 58.0218 68.204 57.9098 68.204H55.2098ZM60.5117 71.084C60.3517 71.084 60.2317 71.04 60.1517 70.952C60.0717 70.864 60.0317 70.74 60.0317 70.58V65.576C60.0317 65.416 60.0717 65.296 60.1517 65.216C60.2317 65.128 60.3477 65.084 60.4997 65.084C60.6517 65.084 60.7677 65.128 60.8477 65.216C60.9357 65.296 60.9797 65.416 60.9797 65.576V66.632L60.8477 66.464C60.9997 66.016 61.2437 65.672 61.5797 65.432C61.9237 65.184 62.3317 65.06 62.8037 65.06C63.2997 65.06 63.6997 65.18 64.0037 65.42C64.3157 65.652 64.5237 66.016 64.6277 66.512H64.4477C64.5917 66.064 64.8477 65.712 65.2157 65.456C65.5917 65.192 66.0277 65.06 66.5237 65.06C66.9637 65.06 67.3237 65.144 67.6037 65.312C67.8917 65.48 68.1077 65.736 68.2517 66.08C68.3957 66.416 68.4677 66.844 68.4677 67.364V70.58C68.4677 70.74 68.4237 70.864 68.3357 70.952C68.2557 71.04 68.1357 71.084 67.9757 71.084C67.8237 71.084 67.7037 71.04 67.6157 70.952C67.5357 70.864 67.4957 70.74 67.4957 70.58V67.412C67.4957 66.876 67.4037 66.484 67.2197 66.236C67.0357 65.98 66.7237 65.852 66.2837 65.852C65.8037 65.852 65.4237 66.02 65.1437 66.356C64.8717 66.684 64.7357 67.132 64.7357 67.7V70.58C64.7357 70.74 64.6917 70.864 64.6037 70.952C64.5237 71.04 64.4037 71.084 64.2437 71.084C64.0917 71.084 63.9717 71.04 63.8837 70.952C63.8037 70.864 63.7637 70.74 63.7637 70.58V67.412C63.7637 66.876 63.6677 66.484 63.4757 66.236C63.2917 65.98 62.9837 65.852 62.5517 65.852C62.0717 65.852 61.6917 66.02 61.4117 66.356C61.1397 66.684 61.0037 67.132 61.0037 67.7V70.58C61.0037 70.916 60.8397 71.084 60.5117 71.084ZM72.913 71.108C72.297 71.108 71.765 70.988 71.317 70.748C70.877 70.5 70.533 70.152 70.285 69.704C70.045 69.256 69.925 68.72 69.925 68.096C69.925 67.488 70.045 66.96 70.285 66.512C70.525 66.056 70.853 65.7 71.269 65.444C71.693 65.188 72.181 65.06 72.733 65.06C73.125 65.06 73.477 65.128 73.789 65.264C74.101 65.392 74.365 65.58 74.581 65.828C74.805 66.076 74.973 66.376 75.085 66.728C75.205 67.08 75.265 67.476 75.265 67.916C75.265 68.044 75.229 68.14 75.157 68.204C75.085 68.26 74.981 68.288 74.845 68.288H70.669V67.652H74.617L74.425 67.808C74.425 67.376 74.361 67.012 74.233 66.716C74.105 66.412 73.917 66.18 73.669 66.02C73.429 65.86 73.125 65.78 72.757 65.78C72.349 65.78 72.001 65.876 71.713 66.068C71.433 66.252 71.221 66.512 71.077 66.848C70.933 67.176 70.861 67.56 70.861 68V68.072C70.861 68.808 71.037 69.368 71.389 69.752C71.749 70.136 72.257 70.328 72.913 70.328C73.185 70.328 73.453 70.292 73.717 70.22C73.989 70.148 74.253 70.028 74.509 69.86C74.621 69.788 74.721 69.756 74.809 69.764C74.905 69.764 74.981 69.792 75.037 69.848C75.093 69.896 75.129 69.96 75.145 70.04C75.169 70.112 75.161 70.192 75.121 70.28C75.089 70.368 75.021 70.444 74.917 70.508C74.653 70.7 74.341 70.848 73.981 70.952C73.621 71.056 73.265 71.108 72.913 71.108ZM77.1758 71.084C77.0158 71.084 76.8958 71.04 76.8158 70.952C76.7358 70.864 76.6958 70.74 76.6958 70.58V65.576C76.6958 65.416 76.7358 65.296 76.8158 65.216C76.8958 65.128 77.0118 65.084 77.1638 65.084C77.3158 65.084 77.4318 65.128 77.5118 65.216C77.5998 65.296 77.6438 65.416 77.6438 65.576V66.632L77.5118 66.464C77.6638 66.016 77.9078 65.672 78.2438 65.432C78.5878 65.184 78.9958 65.06 79.4678 65.06C79.9638 65.06 80.3638 65.18 80.6678 65.42C80.9798 65.652 81.1878 66.016 81.2918 66.512H81.1118C81.2558 66.064 81.5118 65.712 81.8798 65.456C82.2558 65.192 82.6918 65.06 83.1878 65.06C83.6278 65.06 83.9878 65.144 84.2678 65.312C84.5558 65.48 84.7718 65.736 84.9158 66.08C85.0598 66.416 85.1318 66.844 85.1318 67.364V70.58C85.1318 70.74 85.0878 70.864 84.9998 70.952C84.9198 71.04 84.7998 71.084 84.6398 71.084C84.4878 71.084 84.3678 71.04 84.2798 70.952C84.1998 70.864 84.1598 70.74 84.1598 70.58V67.412C84.1598 66.876 84.0678 66.484 83.8838 66.236C83.6998 65.98 83.3878 65.852 82.9478 65.852C82.4678 65.852 82.0878 66.02 81.8078 66.356C81.5358 66.684 81.3998 67.132 81.3998 67.7V70.58C81.3998 70.74 81.3558 70.864 81.2678 70.952C81.1878 71.04 81.0678 71.084 80.9078 71.084C80.7558 71.084 80.6358 71.04 80.5478 70.952C80.4678 70.864 80.4278 70.74 80.4278 70.58V67.412C80.4278 66.876 80.3318 66.484 80.1398 66.236C79.9558 65.98 79.6478 65.852 79.2158 65.852C78.7358 65.852 78.3558 66.02 78.0758 66.356C77.8038 66.684 77.6678 67.132 77.6678 67.7V70.58C77.6678 70.916 77.5038 71.084 77.1758 71.084ZM89.3731 71.108C88.8051 71.108 88.3131 70.984 87.8971 70.736C87.4811 70.488 87.1571 70.14 86.9251 69.692C86.7011 69.236 86.5891 68.7 86.5891 68.084C86.5891 67.62 86.6531 67.204 86.7811 66.836C86.9091 66.46 87.0971 66.14 87.3451 65.876C87.5931 65.612 87.8851 65.412 88.2211 65.276C88.5651 65.132 88.9491 65.06 89.3731 65.06C89.9411 65.06 90.4331 65.184 90.8491 65.432C91.2651 65.68 91.5851 66.032 91.8091 66.488C92.0411 66.936 92.1571 67.468 92.1571 68.084C92.1571 68.548 92.0931 68.964 91.9651 69.332C91.8371 69.7 91.6491 70.02 91.4011 70.292C91.1531 70.556 90.8571 70.76 90.5131 70.904C90.1771 71.04 89.7971 71.108 89.3731 71.108ZM89.3731 70.328C89.7331 70.328 90.0491 70.24 90.3211 70.064C90.5931 69.888 90.8011 69.632 90.9451 69.296C91.0971 68.96 91.1731 68.556 91.1731 68.084C91.1731 67.356 91.0091 66.8 90.6811 66.416C90.3611 66.032 89.9251 65.84 89.3731 65.84C89.0051 65.84 88.6851 65.928 88.4131 66.104C88.1491 66.272 87.9411 66.524 87.7891 66.86C87.6451 67.188 87.5731 67.596 87.5731 68.084C87.5731 68.804 87.7371 69.36 88.0651 69.752C88.3931 70.136 88.8291 70.328 89.3731 70.328Z" fill="#030712"/>
<path d="M77.8253 53.125H61.1391C60.7891 53.125 60.1438 53.125 59.3103 52.3616C58.6388 51.7469 57.8688 51.1716 57.8841 50.4584L75.8828 29.1588C76.8628 29.1588 77.3069 29.4453 77.9281 29.8172C79.1028 30.5216 79.1422 30.8781 79.1422 31.2763V51.8103C79.1414 52.1591 79.0023 52.4934 78.7555 52.7398C78.5086 52.9863 78.1741 53.1248 77.8253 53.125Z" fill="#B9E4EA"/>
<path d="M69.631 45.1669V51.5106H75.9419C76.2749 51.5106 76.5943 51.3783 76.8298 51.1429C77.0652 50.9074 77.1975 50.588 77.1975 50.255V45.1669H69.631Z" fill="#82AEC0"/>
<path d="M70.9303 51.5106C69.7906 51.5106 71.86 46.8513 71.86 46.8513C71.86 46.8513 77.1975 41.9513 77.1975 45.3528C77.1975 48.7544 72.0678 51.5106 70.9303 51.5106Z" fill="#B9E4EA"/>
<path d="M73.12 47.0963C73.12 47.0963 77.1975 46.8359 77.1975 45.2259V30.4734C77.1975 29.7472 76.6834 29.1588 75.8828 29.1588H59.1725C58.3084 29.1588 57.8578 29.7472 57.8578 30.4734V50.1959C57.8578 50.9222 58.4463 51.5106 59.1725 51.5106H70.7269C73.2491 50.9156 73.12 47.0963 73.12 47.0963Z" fill="#F5F5F5"/>
<path d="M60.6534 31.2478C61.0292 31.2478 61.3337 30.908 61.3337 30.4887C61.3337 30.0695 61.0292 29.7297 60.6534 29.7297C60.2777 29.7297 59.9731 30.0695 59.9731 30.4887C59.9731 30.908 60.2777 31.2478 60.6534 31.2478Z" fill="#2F7889"/>
<path d="M60.9684 29.8653C60.8642 29.6436 60.8104 29.4015 60.8109 29.1566C60.8109 28.5419 61.1303 28.0234 61.5087 28.0234C61.8872 28.0234 62.2087 28.5419 62.2087 29.1566H63.2369C63.2369 27.8988 62.4625 26.875 61.5109 26.875C60.5594 26.875 59.7828 27.8988 59.7828 29.1566C59.7828 29.605 59.8812 30.0228 60.0497 30.375C60.2028 30.6944 60.5331 30.8366 60.8241 30.6812C61.0712 30.5522 61.1019 30.1409 60.9684 29.8653Z" fill="#94D1E0"/>
<path d="M62.5041 27.2928C62.5084 27.3059 62.6353 27.634 62.4559 27.949C62.2744 28.2706 61.8981 28.2203 61.8981 28.2203C62.0841 28.4259 62.2088 28.7715 62.2088 29.1565H63.2413C63.2413 28.3865 62.9459 27.7062 62.5041 27.2928Z" fill="#2F7889"/>
<path d="M65.245 31.2478C65.6207 31.2478 65.9253 30.908 65.9253 30.4887C65.9253 30.0695 65.6207 29.7297 65.245 29.7297C64.8693 29.7297 64.5647 30.0695 64.5647 30.4887C64.5647 30.908 64.8693 31.2478 65.245 31.2478Z" fill="#2F7889"/>
<path d="M65.56 29.8653C65.4558 29.6436 65.402 29.4015 65.4025 29.1566C65.4025 28.5419 65.7219 28.0234 66.1003 28.0234C66.4788 28.0234 66.8003 28.5419 66.8003 29.1566H67.8284C67.8284 27.8988 67.0541 26.875 66.1003 26.875C65.1488 26.875 64.3722 27.8988 64.3722 29.1566C64.3722 29.605 64.4706 30.0228 64.6391 30.375C64.7922 30.6944 65.1225 30.8366 65.4134 30.6812C65.6628 30.5522 65.6934 30.1409 65.56 29.8653Z" fill="#94D1E0"/>
<path d="M67.0956 27.2928C67.1 27.3059 67.2269 27.634 67.0475 27.949C66.8659 28.2706 66.4897 28.2203 66.4897 28.2203C66.6756 28.4259 66.8003 28.7715 66.8003 29.1565H67.8372C67.8372 28.3865 67.5375 27.7062 67.0956 27.2928Z" fill="#2F7889"/>
<path d="M69.8366 31.2478C70.2123 31.2478 70.5169 30.908 70.5169 30.4887C70.5169 30.0695 70.2123 29.7297 69.8366 29.7297C69.4608 29.7297 69.1562 30.0695 69.1562 30.4887C69.1562 30.908 69.4608 31.2478 69.8366 31.2478Z" fill="#2F7889"/>
<path d="M70.1516 29.8653C70.0473 29.6436 69.9936 29.4015 69.9941 29.1566C69.9941 28.5419 70.3134 28.0234 70.6919 28.0234C71.0703 28.0234 71.3919 28.5419 71.3919 29.1566H72.42C72.42 27.8988 71.6456 26.875 70.6919 26.875C69.7403 26.875 68.9637 27.8988 68.9637 29.1566C68.9637 29.605 69.0622 30.0228 69.2306 30.375C69.3837 30.6944 69.7141 30.8366 70.005 30.6812C70.2522 30.5522 70.285 30.1409 70.1516 29.8653Z" fill="#94D1E0"/>
<path d="M71.6872 27.2928C71.6915 27.3059 71.8184 27.634 71.639 27.949C71.4575 28.2706 71.0812 28.2203 71.0812 28.2203C71.2672 28.4259 71.3919 28.7715 71.3919 29.1565H72.4309C72.4309 28.3865 72.129 27.7062 71.6872 27.2928Z" fill="#2F7889"/>
<path d="M74.4238 31.2478C74.7995 31.2478 75.1041 30.908 75.1041 30.4887C75.1041 30.0695 74.7995 29.7297 74.4238 29.7297C74.048 29.7297 73.7434 30.0695 73.7434 30.4887C73.7434 30.908 74.048 31.2478 74.4238 31.2478Z" fill="#2F7889"/>
<path d="M74.7409 29.8653C74.6367 29.6436 74.5829 29.4015 74.5834 29.1566C74.5834 28.5419 74.9028 28.0234 75.2813 28.0234C75.6597 28.0234 75.9813 28.5419 75.9813 29.1566H77.0094C77.0094 27.8988 76.2328 26.875 75.2813 26.875C74.3297 26.875 73.5531 27.8988 73.5531 29.1566C73.5531 29.605 73.6516 30.0228 73.82 30.375C73.9731 30.6944 74.3034 30.8366 74.5944 30.6812C74.8416 30.5522 74.8722 30.1409 74.7409 29.8653Z" fill="#94D1E0"/>
<path d="M76.2744 27.2928C76.2787 27.3059 76.4056 27.634 76.2262 27.949C76.0447 28.2706 75.6684 28.2203 75.6684 28.2203C75.8544 28.4259 75.9791 28.7715 75.9791 29.1565L76.3312 29.1806C76.3312 29.1806 76.6812 29.209 77.0225 29.3403C77.0225 29.3403 77.1406 28.0168 76.2744 27.2928Z" fill="#2F7889"/>
<g opacity="0.9">
<path d="M72.9494 48.7565H57.8841V48.3168H73.0325C73.0128 48.5553 72.9494 48.7565 72.9494 48.7565ZM76.5981 46.1731H57.8841V45.7334H77.0619C76.8672 46.0353 76.5981 46.1731 76.5981 46.1731Z" fill="#4FC3F7"/>
<path d="M77.1975 43.3709H57.8841M77.1975 40.7853H57.8841M77.1975 38.2018H57.8841M77.1975 35.6184H57.8841M77.1975 33.035H57.8841" stroke="#4FC3F7" stroke-width="0.5015" stroke-miterlimit="10"/>
</g>
<path opacity="0.75" d="M79.1334 34.341L77.1975 33.2538V32.8119L79.1422 33.9035L79.1334 34.341ZM79.1334 36.9244L77.1975 35.8394V35.3975L79.1422 36.4891L79.1334 36.9244ZM79.1334 39.51L77.1975 38.4228V37.981L79.1422 39.0725L79.1334 39.51ZM79.1334 42.0935L77.1975 41.0063V40.5644L79.1422 41.6581L79.1334 42.0935ZM79.1334 44.6791L77.1975 43.5919V43.15L79.1422 44.2416L79.1334 44.6791ZM79.1334 47.2625L77.1975 46.1753V45.7335L79.1422 46.825L79.1334 47.2625ZM79.1334 49.846L77.1975 48.7588V48.3169L79.1422 49.4106L79.1334 49.846Z" fill="#2F7889"/>
</svg>
