<svg width="137" height="118" viewBox="0 0 137 118" fill="none" xmlns="http://www.w3.org/2000/svg">
<mask id="path-1-inside-1_673_10129" fill="white">
<path fill-rule="evenodd" clip-rule="evenodd" d="M87.5 0C86.9477 0 86.5029 0.448498 86.4727 0.999957C85.9538 10.476 78.1056 18 68.5 18C58.8944 18 51.0462 10.476 50.5273 0.999956C50.4971 0.448497 50.0523 0 49.5 0L22.5 0C20.2909 0 18.5 1.79086 18.5 4L18.5 31C18.5 31.5523 18.0515 31.9971 17.5 32.0273C8.02403 32.5462 0.499996 40.3944 0.499996 50C0.499996 59.6056 8.02403 67.4538 17.5 67.9727C18.0515 68.0029 18.5 68.4477 18.5 69L18.5 96C18.5 98.2091 20.2909 100 22.5 100L49.5 100C50.0523 100 50.4971 100.448 50.5273 101C51.0462 110.476 58.8944 118 68.5 118C78.1056 118 85.9538 110.476 86.4727 101C86.5029 100.448 86.9477 100 87.5 100L114.5 100C116.709 100 118.5 98.2091 118.5 96V69C118.5 68.4477 118.948 68.0029 119.5 67.9727C128.976 67.4538 136.5 59.6056 136.5 50C136.5 40.3944 128.976 32.5462 119.5 32.0273C118.948 31.9971 118.5 31.5523 118.5 31V4C118.5 1.79086 116.709 0 114.5 0L87.5 0Z"/>
</mask>
<path fill-rule="evenodd" clip-rule="evenodd" d="M87.5 0C86.9477 0 86.5029 0.448498 86.4727 0.999957C85.9538 10.476 78.1056 18 68.5 18C58.8944 18 51.0462 10.476 50.5273 0.999956C50.4971 0.448497 50.0523 0 49.5 0L22.5 0C20.2909 0 18.5 1.79086 18.5 4L18.5 31C18.5 31.5523 18.0515 31.9971 17.5 32.0273C8.02403 32.5462 0.499996 40.3944 0.499996 50C0.499996 59.6056 8.02403 67.4538 17.5 67.9727C18.0515 68.0029 18.5 68.4477 18.5 69L18.5 96C18.5 98.2091 20.2909 100 22.5 100L49.5 100C50.0523 100 50.4971 100.448 50.5273 101C51.0462 110.476 58.8944 118 68.5 118C78.1056 118 85.9538 110.476 86.4727 101C86.5029 100.448 86.9477 100 87.5 100L114.5 100C116.709 100 118.5 98.2091 118.5 96V69C118.5 68.4477 118.948 68.0029 119.5 67.9727C128.976 67.4538 136.5 59.6056 136.5 50C136.5 40.3944 128.976 32.5462 119.5 32.0273C118.948 31.9971 118.5 31.5523 118.5 31V4C118.5 1.79086 116.709 0 114.5 0L87.5 0Z" fill="#D1D5DB" fill-opacity="0.2"/>
<path d="M18.5 4L17.5 4L17.5 4L18.5 4ZM18.5 96L17.5 96V96H18.5ZM119.5 32.0273L119.555 31.0288L119.5 32.0273ZM119.5 67.9727L119.555 68.9712L119.5 67.9727ZM50.5273 101L49.5288 101.055L50.5273 101ZM18.5 31L19.5 31L18.5 31ZM17.5 32.0273L17.4454 31.0288L17.5 32.0273ZM17.5 67.9727L17.4454 68.9712L17.5 67.9727ZM18.5 69L17.5 69L18.5 69ZM50.5273 0.999956L49.5288 1.05463L50.5273 0.999956ZM86.4727 101L85.4742 100.945L86.4727 101ZM86.4727 0.999957L85.4742 0.945284L86.4727 0.999957ZM68.5 19C78.6395 19 86.9235 11.058 87.4712 1.05463L85.4742 0.945284C84.9842 9.89397 77.5716 17 68.5 17V19ZM49.5288 1.05463C50.0765 11.058 58.3604 19 68.5 19V17C59.4284 17 52.0158 9.89397 51.5258 0.945282L49.5288 1.05463ZM22.5 1L49.5 1V-1L22.5 -1V1ZM19.5 4C19.5 2.34315 20.8431 1 22.5 1V-1C19.7386 -1 17.5 1.23858 17.5 4H19.5ZM19.5 31L19.5 4L17.5 4L17.5 31L19.5 31ZM1.5 50C1.5 40.9284 8.60602 33.5158 17.5547 33.0258L17.4454 31.0288C7.44204 31.5765 -0.500004 39.8604 -0.500004 50H1.5ZM17.5547 66.9742C8.60602 66.4842 1.5 59.0716 1.5 50H-0.500004C-0.500004 60.1396 7.44204 68.4235 17.4454 68.9712L17.5547 66.9742ZM19.5 96L19.5 69L17.5 69L17.5 96L19.5 96ZM22.5 99C20.8431 99 19.5 97.6569 19.5 96H17.5C17.5 98.7614 19.7386 101 22.5 101L22.5 99ZM49.5 99L22.5 99L22.5 101L49.5 101V99ZM68.5 117C59.4284 117 52.0158 109.894 51.5258 100.945L49.5288 101.055C50.0765 111.058 58.3604 119 68.5 119V117ZM85.4742 100.945C84.9842 109.894 77.5716 117 68.5 117V119C78.6395 119 86.9235 111.058 87.4712 101.055L85.4742 100.945ZM114.5 99L87.5 99V101L114.5 101V99ZM117.5 96C117.5 97.6569 116.157 99 114.5 99V101C117.261 101 119.5 98.7614 119.5 96H117.5ZM117.5 69V96H119.5V69H117.5ZM135.5 50C135.5 59.0716 128.394 66.4842 119.445 66.9742L119.555 68.9712C129.558 68.4235 137.5 60.1396 137.5 50H135.5ZM119.445 33.0258C128.394 33.5158 135.5 40.9284 135.5 50H137.5C137.5 39.8604 129.558 31.5765 119.555 31.0288L119.445 33.0258ZM117.5 4V31H119.5V4H117.5ZM114.5 1C116.157 1 117.5 2.34315 117.5 4H119.5C119.5 1.23858 117.261 -1 114.5 -1V1ZM87.5 1L114.5 1V-1L87.5 -1V1ZM119.555 31.0288C119.533 31.0276 119.516 31.0187 119.506 31.0081C119.501 31.0033 119.5 31.0001 119.5 30.9999C119.5 30.9998 119.5 31.0001 119.5 31.0007C119.5 31.0012 119.5 31.0012 119.5 31H117.5C117.5 32.1183 118.399 32.9685 119.445 33.0258L119.555 31.0288ZM119.5 69C119.5 68.9988 119.5 68.9988 119.5 68.9994C119.5 68.9999 119.5 69.0002 119.5 69.0001C119.5 68.9999 119.501 68.9967 119.506 68.9919C119.516 68.9813 119.533 68.9724 119.555 68.9712L119.445 66.9742C118.399 67.0315 117.5 67.8817 117.5 69H119.5ZM49.5 101C49.5012 101 49.5012 101 49.5006 101C49.5001 101 49.4998 101 49.4999 101C49.5001 101 49.5033 101.001 49.5081 101.006C49.5187 101.016 49.5276 101.033 49.5288 101.055L51.5258 100.945C51.4685 99.8992 50.6183 99 49.5 99V101ZM17.5 31C17.5 31.0012 17.4999 31.0012 17.5 31.0006C17.5001 31.0001 17.5003 30.9998 17.5002 30.9999C17.5001 31.0001 17.4987 31.0033 17.494 31.0081C17.4836 31.0187 17.4666 31.0276 17.4454 31.0288L17.5547 33.0258C18.6008 32.9685 19.5 32.1183 19.5 31L17.5 31ZM17.4454 68.9712C17.4666 68.9724 17.4836 68.9813 17.494 68.9919C17.4987 68.9967 17.5001 68.9999 17.5002 69.0001C17.5003 69.0002 17.5001 68.9999 17.5 68.9993C17.4999 68.9988 17.5 68.9988 17.5 69L19.5 69C19.5 67.8817 18.6008 67.0315 17.5547 66.9742L17.4454 68.9712ZM51.5258 0.945282C51.4685 -0.100789 50.6183 -1 49.5 -1V1C49.5012 1 49.5012 1.0001 49.5006 0.999977C49.5001 0.999868 49.4998 0.999738 49.4999 0.999766C49.5001 0.999846 49.5033 1.00127 49.5081 1.006C49.5187 1.0164 49.5276 1.03335 49.5288 1.05463L51.5258 0.945282ZM87.4712 101.055C87.4724 101.033 87.4813 101.016 87.4919 101.006C87.4967 101.001 87.4999 101 87.5001 101C87.5002 101 87.4999 101 87.4993 101C87.4988 101 87.4988 101 87.5 101V99C86.3817 99 85.5315 99.8992 85.4742 100.945L87.4712 101.055ZM87.4712 1.05463C87.4724 1.03335 87.4813 1.0164 87.4919 1.006C87.4967 1.00127 87.4999 0.999846 87.5001 0.999766C87.5002 0.999738 87.4999 0.999868 87.4993 0.999977C87.4988 1.0001 87.4988 1 87.5 1V-1C86.3817 -1 85.5315 -0.100786 85.4742 0.945284L87.4712 1.05463Z" fill="#D1D5DB" mask="url(#path-1-inside-1_673_10129)"/>
<path d="M29.2772 73.268C28.8532 73.268 28.4372 73.216 28.0292 73.112C27.6292 73.016 27.2652 72.86 26.9372 72.644C26.8412 72.588 26.7772 72.52 26.7452 72.44C26.7212 72.36 26.7172 72.28 26.7332 72.2C26.7492 72.128 26.7852 72.06 26.8412 71.996C26.8972 71.94 26.9612 71.904 27.0332 71.888C27.1132 71.872 27.1932 71.884 27.2732 71.924C27.6252 72.14 27.9612 72.288 28.2812 72.368C28.6012 72.448 28.9172 72.488 29.2292 72.488C29.7972 72.488 30.2252 72.336 30.5132 72.032C30.8092 71.728 30.9572 71.288 30.9572 70.712V69.356H31.0772C30.9572 69.82 30.7012 70.188 30.3092 70.46C29.9252 70.732 29.4732 70.868 28.9532 70.868C28.4172 70.868 27.9532 70.748 27.5612 70.508C27.1692 70.26 26.8652 69.916 26.6492 69.476C26.4412 69.036 26.3372 68.528 26.3372 67.952C26.3372 67.52 26.3972 67.128 26.5172 66.776C26.6372 66.416 26.8092 66.112 27.0332 65.864C27.2652 65.608 27.5412 65.412 27.8612 65.276C28.1892 65.132 28.5532 65.06 28.9532 65.06C29.4812 65.06 29.9372 65.196 30.3212 65.468C30.7052 65.732 30.9532 66.092 31.0652 66.548L30.9452 66.692V65.576C30.9452 65.416 30.9852 65.296 31.0652 65.216C31.1532 65.128 31.2732 65.084 31.4252 65.084C31.5852 65.084 31.7052 65.128 31.7852 65.216C31.8652 65.296 31.9052 65.416 31.9052 65.576V70.58C31.9052 71.468 31.6812 72.136 31.2332 72.584C30.7932 73.04 30.1412 73.268 29.2772 73.268ZM29.1332 70.076C29.5092 70.076 29.8332 69.992 30.1052 69.824C30.3772 69.648 30.5852 69.4 30.7292 69.08C30.8812 68.76 30.9572 68.384 30.9572 67.952C30.9572 67.304 30.7932 66.792 30.4652 66.416C30.1372 66.032 29.6932 65.84 29.1332 65.84C28.7652 65.84 28.4452 65.928 28.1732 66.104C27.9012 66.272 27.6892 66.516 27.5372 66.836C27.3932 67.148 27.3212 67.52 27.3212 67.952C27.3212 68.6 27.4852 69.116 27.8132 69.5C28.1412 69.884 28.5812 70.076 29.1332 70.076ZM36.3564 71.108C35.7404 71.108 35.2084 70.988 34.7604 70.748C34.3204 70.5 33.9764 70.152 33.7284 69.704C33.4884 69.256 33.3684 68.72 33.3684 68.096C33.3684 67.488 33.4884 66.96 33.7284 66.512C33.9684 66.056 34.2964 65.7 34.7124 65.444C35.1364 65.188 35.6244 65.06 36.1764 65.06C36.5684 65.06 36.9204 65.128 37.2324 65.264C37.5444 65.392 37.8084 65.58 38.0244 65.828C38.2484 66.076 38.4164 66.376 38.5284 66.728C38.6484 67.08 38.7084 67.476 38.7084 67.916C38.7084 68.044 38.6724 68.14 38.6004 68.204C38.5284 68.26 38.4244 68.288 38.2884 68.288H34.1124V67.652H38.0604L37.8684 67.808C37.8684 67.376 37.8044 67.012 37.6764 66.716C37.5484 66.412 37.3604 66.18 37.1124 66.02C36.8724 65.86 36.5684 65.78 36.2004 65.78C35.7924 65.78 35.4444 65.876 35.1564 66.068C34.8764 66.252 34.6644 66.512 34.5204 66.848C34.3764 67.176 34.3044 67.56 34.3044 68V68.072C34.3044 68.808 34.4804 69.368 34.8324 69.752C35.1924 70.136 35.7004 70.328 36.3564 70.328C36.6284 70.328 36.8964 70.292 37.1604 70.22C37.4324 70.148 37.6964 70.028 37.9524 69.86C38.0644 69.788 38.1644 69.756 38.2524 69.764C38.3484 69.764 38.4244 69.792 38.4804 69.848C38.5364 69.896 38.5724 69.96 38.5884 70.04C38.6124 70.112 38.6044 70.192 38.5644 70.28C38.5324 70.368 38.4644 70.444 38.3604 70.508C38.0964 70.7 37.7844 70.848 37.4244 70.952C37.0644 71.056 36.7084 71.108 36.3564 71.108ZM42.4551 71.108C41.9991 71.108 41.6151 71.028 41.3031 70.868C40.9991 70.7 40.7711 70.46 40.6191 70.148C40.4671 69.828 40.3911 69.44 40.3911 68.984V65.924H39.5871C39.4511 65.924 39.3471 65.892 39.2751 65.828C39.2031 65.756 39.1671 65.66 39.1671 65.54C39.1671 65.42 39.2031 65.328 39.2751 65.264C39.3471 65.2 39.4511 65.168 39.5871 65.168H40.3911V63.788C40.3911 63.628 40.4351 63.508 40.5231 63.428C40.6111 63.34 40.7311 63.296 40.8831 63.296C41.0351 63.296 41.1511 63.34 41.2311 63.428C41.3191 63.508 41.3631 63.628 41.3631 63.788V65.168H42.8751C43.0111 65.168 43.1151 65.2 43.1871 65.264C43.2591 65.328 43.2951 65.42 43.2951 65.54C43.2951 65.66 43.2591 65.756 43.1871 65.828C43.1151 65.892 43.0111 65.924 42.8751 65.924H41.3631V68.888C41.3631 69.344 41.4591 69.692 41.6511 69.932C41.8431 70.164 42.1551 70.28 42.5871 70.28C42.7391 70.28 42.8671 70.264 42.9711 70.232C43.0831 70.2 43.1751 70.184 43.2471 70.184C43.3191 70.176 43.3791 70.2 43.4271 70.256C43.4751 70.312 43.4991 70.408 43.4991 70.544C43.4991 70.64 43.4791 70.728 43.4391 70.808C43.4071 70.888 43.3471 70.944 43.2591 70.976C43.1631 71.008 43.0351 71.036 42.8751 71.06C42.7231 71.092 42.5831 71.108 42.4551 71.108ZM44.4813 68.204C44.3613 68.204 44.2613 68.168 44.1813 68.096C44.1013 68.016 44.0613 67.92 44.0613 67.808C44.0613 67.688 44.1013 67.592 44.1813 67.52C44.2613 67.44 44.3613 67.4 44.4813 67.4H47.1813C47.2933 67.4 47.3893 67.44 47.4693 67.52C47.5493 67.592 47.5893 67.688 47.5893 67.808C47.5893 67.92 47.5493 68.016 47.4693 68.096C47.3893 68.168 47.2933 68.204 47.1813 68.204H44.4813ZM49.7592 73.244C49.5992 73.244 49.4792 73.2 49.3992 73.112C49.3192 73.032 49.2792 72.912 49.2792 72.752V65.576C49.2792 65.416 49.3192 65.296 49.3992 65.216C49.4792 65.128 49.5952 65.084 49.7472 65.084C49.9072 65.084 50.0272 65.128 50.1072 65.216C50.1952 65.296 50.2392 65.416 50.2392 65.576V66.716L50.1072 66.548C50.2352 66.092 50.4872 65.732 50.8632 65.468C51.2472 65.196 51.7032 65.06 52.2312 65.06C52.7512 65.06 53.2032 65.184 53.5872 65.432C53.9792 65.672 54.2792 66.02 54.4872 66.476C54.7032 66.924 54.8112 67.46 54.8112 68.084C54.8112 68.7 54.7032 69.236 54.4872 69.692C54.2792 70.14 53.9832 70.488 53.5992 70.736C53.2152 70.984 52.7592 71.108 52.2312 71.108C51.7032 71.108 51.2512 70.976 50.8752 70.712C50.4992 70.44 50.2432 70.08 50.1072 69.632H50.2512V72.752C50.2512 72.912 50.2072 73.032 50.1192 73.112C50.0312 73.2 49.9112 73.244 49.7592 73.244ZM52.0272 70.328C52.3952 70.328 52.7112 70.24 52.9752 70.064C53.2472 69.888 53.4552 69.632 53.5992 69.296C53.7512 68.96 53.8272 68.556 53.8272 68.084C53.8272 67.356 53.6632 66.8 53.3352 66.416C53.0152 66.032 52.5792 65.84 52.0272 65.84C51.6672 65.84 51.3512 65.928 51.0792 66.104C50.8072 66.272 50.5952 66.524 50.4432 66.86C50.2992 67.188 50.2272 67.596 50.2272 68.084C50.2272 68.804 50.3912 69.36 50.7192 69.752C51.0472 70.136 51.4832 70.328 52.0272 70.328ZM58.6993 71.108C58.1313 71.108 57.6393 70.984 57.2233 70.736C56.8073 70.488 56.4833 70.14 56.2513 69.692C56.0273 69.236 55.9153 68.7 55.9153 68.084C55.9153 67.62 55.9793 67.204 56.1073 66.836C56.2353 66.46 56.4233 66.14 56.6713 65.876C56.9193 65.612 57.2113 65.412 57.5473 65.276C57.8913 65.132 58.2753 65.06 58.6993 65.06C59.2673 65.06 59.7593 65.184 60.1753 65.432C60.5913 65.68 60.9113 66.032 61.1353 66.488C61.3673 66.936 61.4833 67.468 61.4833 68.084C61.4833 68.548 61.4193 68.964 61.2913 69.332C61.1633 69.7 60.9753 70.02 60.7273 70.292C60.4793 70.556 60.1833 70.76 59.8393 70.904C59.5033 71.04 59.1233 71.108 58.6993 71.108ZM58.6993 70.328C59.0593 70.328 59.3753 70.24 59.6473 70.064C59.9193 69.888 60.1273 69.632 60.2713 69.296C60.4233 68.96 60.4993 68.556 60.4993 68.084C60.4993 67.356 60.3353 66.8 60.0073 66.416C59.6873 66.032 59.2513 65.84 58.6993 65.84C58.3313 65.84 58.0113 65.928 57.7393 66.104C57.4753 66.272 57.2673 66.524 57.1153 66.86C56.9713 67.188 56.8993 67.596 56.8993 68.084C56.8993 68.804 57.0633 69.36 57.3913 69.752C57.7193 70.136 58.1553 70.328 58.6993 70.328ZM63.4353 71.084C63.2753 71.084 63.1513 71.04 63.0633 70.952C62.9833 70.864 62.9433 70.74 62.9433 70.58V65.576C62.9433 65.416 62.9833 65.296 63.0633 65.216C63.1433 65.128 63.2593 65.084 63.4113 65.084C63.5633 65.084 63.6793 65.128 63.7593 65.216C63.8473 65.296 63.8913 65.416 63.8913 65.576V66.548H63.7713C63.8993 66.076 64.1433 65.712 64.5033 65.456C64.8633 65.2 65.3073 65.064 65.8353 65.048C65.9553 65.04 66.0513 65.068 66.1233 65.132C66.1953 65.188 66.2353 65.288 66.2433 65.432C66.2513 65.568 66.2193 65.676 66.1473 65.756C66.0753 65.836 65.9633 65.884 65.8113 65.9L65.6193 65.924C65.0753 65.972 64.6553 66.148 64.3593 66.452C64.0713 66.748 63.9273 67.156 63.9273 67.676V70.58C63.9273 70.74 63.8833 70.864 63.7952 70.952C63.7153 71.04 63.5953 71.084 63.4353 71.084ZM69.9004 71.108C69.4444 71.108 69.0604 71.028 68.7484 70.868C68.4444 70.7 68.2164 70.46 68.0644 70.148C67.9124 69.828 67.8364 69.44 67.8364 68.984V65.924H67.0324C66.8964 65.924 66.7924 65.892 66.7204 65.828C66.6484 65.756 66.6124 65.66 66.6124 65.54C66.6124 65.42 66.6484 65.328 66.7204 65.264C66.7924 65.2 66.8964 65.168 67.0324 65.168H67.8364V63.788C67.8364 63.628 67.8804 63.508 67.9684 63.428C68.0564 63.34 68.1764 63.296 68.3284 63.296C68.4804 63.296 68.5964 63.34 68.6764 63.428C68.7644 63.508 68.8084 63.628 68.8084 63.788V65.168H70.3204C70.4564 65.168 70.5604 65.2 70.6324 65.264C70.7044 65.328 70.7404 65.42 70.7404 65.54C70.7404 65.66 70.7044 65.756 70.6324 65.828C70.5604 65.892 70.4564 65.924 70.3204 65.924H68.8084V68.888C68.8084 69.344 68.9044 69.692 69.0964 69.932C69.2884 70.164 69.6004 70.28 70.0324 70.28C70.1844 70.28 70.3124 70.264 70.4164 70.232C70.5284 70.2 70.6204 70.184 70.6924 70.184C70.7644 70.176 70.8244 70.2 70.8724 70.256C70.9204 70.312 70.9444 70.408 70.9444 70.544C70.9444 70.64 70.9244 70.728 70.8844 70.808C70.8524 70.888 70.7924 70.944 70.7044 70.976C70.6084 71.008 70.4804 71.036 70.3204 71.06C70.1684 71.092 70.0284 71.108 69.9004 71.108ZM71.9266 68.204C71.8066 68.204 71.7066 68.168 71.6266 68.096C71.5466 68.016 71.5066 67.92 71.5066 67.808C71.5066 67.688 71.5466 67.592 71.6266 67.52C71.7066 67.44 71.8066 67.4 71.9266 67.4H74.6266C74.7386 67.4 74.8346 67.44 74.9146 67.52C74.9946 67.592 75.0346 67.688 75.0346 67.808C75.0346 67.92 74.9946 68.016 74.9146 68.096C74.8346 68.168 74.7386 68.204 74.6266 68.204H71.9266ZM77.2045 73.244C77.0445 73.244 76.9245 73.2 76.8445 73.112C76.7645 73.032 76.7245 72.912 76.7245 72.752V65.576C76.7245 65.416 76.7645 65.296 76.8445 65.216C76.9245 65.128 77.0405 65.084 77.1925 65.084C77.3525 65.084 77.4725 65.128 77.5525 65.216C77.6405 65.296 77.6845 65.416 77.6845 65.576V66.716L77.5525 66.548C77.6805 66.092 77.9325 65.732 78.3085 65.468C78.6925 65.196 79.1485 65.06 79.6765 65.06C80.1965 65.06 80.6485 65.184 81.0325 65.432C81.4245 65.672 81.7245 66.02 81.9325 66.476C82.1485 66.924 82.2565 67.46 82.2565 68.084C82.2565 68.7 82.1485 69.236 81.9325 69.692C81.7245 70.14 81.4285 70.488 81.0445 70.736C80.6605 70.984 80.2045 71.108 79.6765 71.108C79.1485 71.108 78.6965 70.976 78.3205 70.712C77.9445 70.44 77.6885 70.08 77.5525 69.632H77.6965V72.752C77.6965 72.912 77.6525 73.032 77.5645 73.112C77.4765 73.2 77.3565 73.244 77.2045 73.244ZM79.4725 70.328C79.8405 70.328 80.1565 70.24 80.4205 70.064C80.6925 69.888 80.9005 69.632 81.0445 69.296C81.1965 68.96 81.2725 68.556 81.2725 68.084C81.2725 67.356 81.1085 66.8 80.7805 66.416C80.4605 66.032 80.0245 65.84 79.4725 65.84C79.1125 65.84 78.7965 65.928 78.5245 66.104C78.2525 66.272 78.0405 66.524 77.8885 66.86C77.7445 67.188 77.6725 67.596 77.6725 68.084C77.6725 68.804 77.8365 69.36 78.1645 69.752C78.4925 70.136 78.9285 70.328 79.4725 70.328ZM85.4966 71.108C84.9206 71.108 84.4806 70.932 84.1766 70.58C83.8726 70.228 83.7206 69.724 83.7206 69.068V62.948C83.7206 62.788 83.7606 62.668 83.8406 62.588C83.9206 62.5 84.0406 62.456 84.2006 62.456C84.3526 62.456 84.4726 62.5 84.5606 62.588C84.6486 62.668 84.6926 62.788 84.6926 62.948V68.996C84.6926 69.428 84.7766 69.752 84.9446 69.968C85.1206 70.176 85.3766 70.28 85.7126 70.28C85.7846 70.28 85.8486 70.276 85.9046 70.268C85.9606 70.26 86.0166 70.256 86.0726 70.256C86.1606 70.248 86.2206 70.268 86.2526 70.316C86.2926 70.364 86.3126 70.46 86.3126 70.604C86.3126 70.748 86.2806 70.856 86.2166 70.928C86.1526 71 86.0486 71.048 85.9046 71.072C85.8406 71.08 85.7726 71.088 85.7006 71.096C85.6286 71.104 85.5606 71.108 85.4966 71.108ZM89.8408 71.108C89.2248 71.108 88.6928 70.988 88.2448 70.748C87.8048 70.5 87.4608 70.152 87.2128 69.704C86.9728 69.256 86.8528 68.72 86.8528 68.096C86.8528 67.488 86.9728 66.96 87.2128 66.512C87.4528 66.056 87.7808 65.7 88.1968 65.444C88.6208 65.188 89.1088 65.06 89.6608 65.06C90.0528 65.06 90.4048 65.128 90.7168 65.264C91.0288 65.392 91.2928 65.58 91.5088 65.828C91.7328 66.076 91.9008 66.376 92.0128 66.728C92.1328 67.08 92.1928 67.476 92.1928 67.916C92.1928 68.044 92.1568 68.14 92.0848 68.204C92.0128 68.26 91.9088 68.288 91.7728 68.288H87.5968V67.652H91.5448L91.3528 67.808C91.3528 67.376 91.2888 67.012 91.1608 66.716C91.0328 66.412 90.8448 66.18 90.5968 66.02C90.3568 65.86 90.0528 65.78 89.6848 65.78C89.2768 65.78 88.9288 65.876 88.6408 66.068C88.3608 66.252 88.1488 66.512 88.0048 66.848C87.8608 67.176 87.7888 67.56 87.7888 68V68.072C87.7888 68.808 87.9648 69.368 88.3168 69.752C88.6768 70.136 89.1848 70.328 89.8408 70.328C90.1128 70.328 90.3808 70.292 90.6448 70.22C90.9168 70.148 91.1808 70.028 91.4368 69.86C91.5488 69.788 91.6488 69.756 91.7368 69.764C91.8328 69.764 91.9088 69.792 91.9648 69.848C92.0208 69.896 92.0568 69.96 92.0728 70.04C92.0968 70.112 92.0888 70.192 92.0488 70.28C92.0168 70.368 91.9488 70.444 91.8448 70.508C91.5808 70.7 91.2688 70.848 90.9088 70.952C90.5488 71.056 90.1928 71.108 89.8408 71.108ZM95.4355 71.108C95.0355 71.108 94.6755 71.032 94.3555 70.88C94.0435 70.72 93.7955 70.504 93.6115 70.232C93.4275 69.96 93.3355 69.656 93.3355 69.32C93.3355 68.888 93.4435 68.548 93.6595 68.3C93.8835 68.052 94.2475 67.876 94.7515 67.772C95.2635 67.668 95.9595 67.616 96.8395 67.616H97.3795V68.252H96.8515C96.2035 68.252 95.6915 68.284 95.3155 68.348C94.9475 68.404 94.6875 68.504 94.5355 68.648C94.3915 68.792 94.3195 68.996 94.3195 69.26C94.3195 69.588 94.4315 69.856 94.6555 70.064C94.8875 70.272 95.1995 70.376 95.5915 70.376C95.9115 70.376 96.1915 70.3 96.4315 70.148C96.6795 69.996 96.8715 69.788 97.0075 69.524C97.1515 69.26 97.2235 68.956 97.2235 68.612V67.244C97.2235 66.748 97.1235 66.392 96.9235 66.176C96.7235 65.952 96.3955 65.84 95.9395 65.84C95.6595 65.84 95.3795 65.876 95.0995 65.948C94.8195 66.02 94.5235 66.136 94.2115 66.296C94.0995 66.352 94.0035 66.372 93.9235 66.356C93.8435 66.332 93.7795 66.288 93.7315 66.224C93.6835 66.16 93.6555 66.088 93.6475 66.008C93.6395 65.92 93.6555 65.836 93.6955 65.756C93.7435 65.676 93.8155 65.612 93.9115 65.564C94.2635 65.388 94.6115 65.26 94.9555 65.18C95.2995 65.1 95.6275 65.06 95.9395 65.06C96.4435 65.06 96.8595 65.144 97.1875 65.312C97.5155 65.472 97.7595 65.72 97.9195 66.056C98.0795 66.384 98.1595 66.808 98.1595 67.328V70.58C98.1595 70.74 98.1195 70.864 98.0395 70.952C97.9675 71.04 97.8595 71.084 97.7155 71.084C97.5635 71.084 97.4475 71.04 97.3675 70.952C97.2875 70.864 97.2475 70.74 97.2475 70.58V69.644H97.3555C97.2915 69.948 97.1675 70.208 96.9835 70.424C96.8075 70.64 96.5875 70.808 96.3235 70.928C96.0595 71.048 95.7635 71.108 95.4355 71.108ZM101.931 71.108C101.571 71.108 101.207 71.064 100.839 70.976C100.479 70.888 100.143 70.736 99.8308 70.52C99.7508 70.464 99.6948 70.4 99.6628 70.328C99.6308 70.248 99.6188 70.172 99.6268 70.1C99.6428 70.02 99.6748 69.952 99.7228 69.896C99.7788 69.84 99.8428 69.808 99.9148 69.8C99.9948 69.784 100.083 69.8 100.179 69.848C100.491 70.04 100.791 70.176 101.079 70.256C101.375 70.328 101.667 70.364 101.955 70.364C102.411 70.364 102.755 70.28 102.987 70.112C103.219 69.944 103.335 69.716 103.335 69.428C103.335 69.204 103.259 69.028 103.107 68.9C102.955 68.764 102.715 68.66 102.387 68.588L101.295 68.348C100.791 68.244 100.415 68.064 100.167 67.808C99.9268 67.552 99.8068 67.22 99.8068 66.812C99.8068 66.452 99.8988 66.144 100.083 65.888C100.275 65.624 100.543 65.42 100.887 65.276C101.231 65.132 101.631 65.06 102.087 65.06C102.439 65.06 102.771 65.108 103.083 65.204C103.403 65.292 103.691 65.436 103.947 65.636C104.027 65.692 104.079 65.76 104.103 65.84C104.135 65.912 104.139 65.988 104.115 66.068C104.099 66.14 104.063 66.204 104.007 66.26C103.951 66.308 103.883 66.336 103.803 66.344C103.723 66.352 103.639 66.328 103.551 66.272C103.311 66.112 103.067 65.996 102.819 65.924C102.571 65.844 102.327 65.804 102.087 65.804C101.639 65.804 101.299 65.892 101.067 66.068C100.835 66.244 100.719 66.476 100.719 66.764C100.719 66.988 100.791 67.172 100.935 67.316C101.079 67.46 101.303 67.564 101.607 67.628L102.699 67.856C103.219 67.968 103.607 68.148 103.863 68.396C104.127 68.636 104.259 68.964 104.259 69.38C104.259 69.908 104.047 70.328 103.623 70.64C103.199 70.952 102.635 71.108 101.931 71.108ZM108.368 71.108C107.752 71.108 107.22 70.988 106.772 70.748C106.332 70.5 105.988 70.152 105.74 69.704C105.5 69.256 105.38 68.72 105.38 68.096C105.38 67.488 105.5 66.96 105.74 66.512C105.98 66.056 106.308 65.7 106.724 65.444C107.148 65.188 107.636 65.06 108.188 65.06C108.58 65.06 108.932 65.128 109.244 65.264C109.556 65.392 109.82 65.58 110.036 65.828C110.26 66.076 110.428 66.376 110.54 66.728C110.66 67.08 110.72 67.476 110.72 67.916C110.72 68.044 110.684 68.14 110.612 68.204C110.54 68.26 110.436 68.288 110.3 68.288H106.124V67.652H110.072L109.88 67.808C109.88 67.376 109.816 67.012 109.688 66.716C109.56 66.412 109.372 66.18 109.124 66.02C108.884 65.86 108.58 65.78 108.212 65.78C107.804 65.78 107.456 65.876 107.168 66.068C106.888 66.252 106.676 66.512 106.532 66.848C106.388 67.176 106.316 67.56 106.316 68V68.072C106.316 68.808 106.492 69.368 106.844 69.752C107.204 70.136 107.712 70.328 108.368 70.328C108.64 70.328 108.908 70.292 109.172 70.22C109.444 70.148 109.708 70.028 109.964 69.86C110.076 69.788 110.176 69.756 110.264 69.764C110.36 69.764 110.436 69.792 110.492 69.848C110.548 69.896 110.584 69.96 110.6 70.04C110.624 70.112 110.616 70.192 110.576 70.28C110.544 70.368 110.476 70.444 110.372 70.508C110.108 70.7 109.796 70.848 109.436 70.952C109.076 71.056 108.72 71.108 108.368 71.108Z" fill="#030712"/>
<path d="M65.5534 42.2334L64.4597 43.3272C64.2475 43.5394 63.9041 43.5394 63.6941 43.3272L55.5259 35.1591C55.3138 34.9469 55.3138 34.6034 55.5259 34.3934L56.6197 33.2997C56.8319 33.0875 57.1753 33.0875 57.3853 33.2997L65.5534 41.4678C65.7656 41.68 65.7656 42.0213 65.5534 42.2334ZM71.8316 35.9553L70.7378 37.0491C70.5256 37.2613 70.1822 37.2613 69.9722 37.0491L61.8041 28.8809C61.5919 28.6688 61.5919 28.3253 61.8041 28.1153L62.8978 27.0216C63.11 26.8094 63.4534 26.8094 63.6634 27.0216L71.8316 35.1897C72.0438 35.3997 72.0438 35.7431 71.8316 35.9553Z" fill="#C9C9C9"/>
<path d="M60.5279 40.1608L62.3873 38.3014L63.4176 39.3317L61.5582 41.1911L60.5279 40.1608ZM66.808 33.8802L68.6656 32.0224L69.6959 33.0527L67.8381 34.9103L66.808 33.8802Z" fill="#9E9E9E"/>
<path d="M73.8266 34.0106L62.5172 45.32C62.4519 45.3856 62.3744 45.4376 62.289 45.4731C62.2036 45.5085 62.112 45.5268 62.0195 45.5268C61.927 45.5268 61.8355 45.5085 61.7501 45.4731C61.6647 45.4376 61.5871 45.3856 61.5219 45.32L59.715 43.5131C59.6495 43.4479 59.5974 43.3703 59.562 43.2849C59.5265 43.1995 59.5082 43.108 59.5082 43.0155C59.5082 42.923 59.5265 42.8314 59.562 42.746C59.5974 42.6606 59.6495 42.5831 59.715 42.5178L71.0244 31.2085C71.0896 31.1429 71.1672 31.0909 71.2526 31.0554C71.338 31.0199 71.4295 31.0016 71.522 31.0016C71.6145 31.0016 71.7061 31.0199 71.7915 31.0554C71.8769 31.0909 71.9544 31.1429 72.0197 31.2085L73.8266 33.0153C73.9579 33.1477 74.0316 33.3265 74.0316 33.513C74.0316 33.6994 73.9579 33.8783 73.8266 34.0106Z" fill="#616161"/>
<path d="M67.6097 38.9697L62.6966 44.1716C62.6966 44.1716 65.3478 46.6085 66.4766 47.21C67.5178 47.7657 68.6291 48.0588 69.7928 48.2032C70.2347 48.2578 70.8822 48.1813 71.2913 48.3803C71.7791 48.6166 71.6959 48.9403 71.9584 49.3822C72.4659 50.2353 73.3869 50.4344 74.4478 50.0188C75.395 49.6469 78.2869 46.7572 78.6588 45.8078C79.0744 44.7469 78.9453 43.9157 78.0222 43.3185C77.5913 43.0407 77.2588 43.1391 77.0203 42.6513C76.8213 42.2444 76.8978 41.5947 76.8431 41.1528C76.6988 39.9891 76.4056 38.8778 75.85 37.8366C75.2463 36.71 72.8094 34.0588 72.8094 34.0588L67.6097 38.9697Z" fill="#616161"/>
<path d="M74.6097 42.5681C74.6053 42.6425 74.6053 42.7278 74.66 42.7781C74.7059 42.8197 74.7759 42.8197 74.8372 42.811C75.2987 42.7519 75.675 42.3735 75.8391 41.9381C76.0031 41.5028 75.99 41.0216 75.9266 40.56C75.7341 39.1578 75.0822 37.8213 74.0934 36.8063C73.9819 36.6925 73.8441 36.5722 73.6844 36.5941C73.33 36.64 72.8772 37.7447 72.8378 38.0619C72.7678 38.6394 73.3147 38.9478 73.6319 39.381C74.3012 40.2931 74.6666 41.435 74.6097 42.5681ZM70.2456 33.0285C70.1209 33.4331 70.7466 34.5225 71.2431 34.9206C71.6172 35.2203 71.9212 35.146 72.1531 35.0213C72.7394 34.7063 73.3147 34.0085 73.3606 33.9625C73.5662 33.7481 73.4809 33.4222 73.2666 33.1225C72.7547 32.4094 72.2362 31.9194 72.0437 31.7094C71.6762 31.3091 71.2103 31.5716 71.0134 31.7619C70.5891 32.1753 70.3681 32.626 70.2456 33.0285Z" fill="#808080"/>
<path d="M81.3756 51.2372L79.7437 52.869C79.4047 53.2081 79.0066 53.2365 78.5012 52.904L73.9097 49.8984C73.8179 49.8161 73.7438 49.7161 73.6919 49.6042C73.6401 49.4924 73.6116 49.3712 73.6081 49.248C73.6046 49.1248 73.6263 49.0021 73.6717 48.8875C73.7172 48.773 73.7855 48.6688 73.8725 48.5815L77.0903 45.3637C77.4578 44.9962 78.0594 45.0137 78.4072 45.4009L81.4128 49.9925C81.7103 50.5459 81.7147 50.8981 81.3756 51.2372Z" fill="#616161"/>
<path d="M79.3741 47.1837L77.8122 48.7456C77.7208 48.8374 77.6695 48.9617 77.6695 49.0912C77.6695 49.2208 77.7208 49.345 77.8122 49.4369C78.0025 49.6272 78.3131 49.6272 78.5034 49.4369L80.0391 47.9012L79.5075 47.0897C79.4616 47.1137 79.4156 47.1444 79.3741 47.1837ZM78.5691 50.6137C78.4772 50.5224 78.353 50.4711 78.2234 50.4711C78.0939 50.4711 77.9696 50.5224 77.8778 50.6137L76.7403 51.7512L77.5781 52.2981L78.5713 51.305C78.7616 51.1147 78.7616 50.804 78.5691 50.6137ZM81.0213 49.4019L79.7438 50.6794C79.6524 50.7712 79.6011 50.8954 79.6011 51.025C79.6011 51.1545 79.6524 51.2788 79.7438 51.3706C79.9341 51.5609 80.2447 51.5609 80.435 51.3706L81.5353 50.2769L81.4063 49.9947L81.0213 49.4019ZM74.3078 50.0209C74.3078 50.0209 75.3184 49.1437 76.4822 47.9778C77.6459 46.8119 78.5253 45.8034 78.5253 45.8034C78.8863 46.1644 78.2344 47.4003 77.0684 48.564C75.9025 49.7278 74.6688 50.3797 74.3078 50.0209ZM73.2688 34.5684L63.2063 44.6309C63.4119 44.8147 63.67 45.04 63.95 45.2828C65.3938 44.9372 67.6666 43.3709 69.6922 41.0872C72.1094 38.3594 73.4306 34.75 73.2688 34.5684ZM71.9803 47.6519C71.825 48.4809 73.1222 48.6603 74.8722 46.8359C75.9025 45.7619 76.4166 44.4472 76.3728 43.9375C76.3356 43.5153 75.9659 43.535 75.6684 43.8325C75.3403 44.1606 74.8744 44.714 74.5331 45.0312C72.7372 46.7025 72.0853 47.094 71.9803 47.6519Z" fill="#424242"/>
<path d="M76.7994 46.4269C77.4031 46.5909 78.195 45.5694 78.3262 45.0575C78.4072 44.7425 78.3722 44.2809 78.1009 44.0665C77.6612 43.7209 77.3112 43.9178 77.0684 44.2022C76.7403 44.5894 76.1978 46.265 76.7994 46.4269Z" fill="#808080"/>
</svg>
