<svg width="119" height="118" viewBox="0 0 119 118" fill="none" xmlns="http://www.w3.org/2000/svg">
<mask id="path-1-inside-1_673_10131" fill="white">
<path fill-rule="evenodd" clip-rule="evenodd" d="M68.5 0C78.1056 0 85.9538 7.52403 86.4727 17C86.5029 17.5515 86.9477 18 87.5 18L114.5 18C116.709 18 118.5 19.7909 118.5 22L118.5 49C118.5 49.5523 118.052 49.9971 117.5 50.0273C108.024 50.5462 100.5 58.3944 100.5 68C100.5 77.6056 108.024 85.4538 117.5 85.9727C118.052 86.0029 118.5 86.4477 118.5 87L118.5 114C118.5 116.209 116.709 118 114.5 118L87.5 118C86.9477 118 86.5029 117.552 86.4727 117C85.9538 107.524 78.1056 100 68.5 100C58.8944 100 51.0462 107.524 50.5273 117C50.4971 117.552 50.0523 118 49.5 118L22.5 118C20.2909 118 18.5 116.209 18.5 114L18.5 87C18.5 86.4477 18.0515 86.0029 17.5 85.9727C8.02403 85.4538 0.5 77.6056 0.5 68C0.5 58.3944 8.02403 50.5462 17.5 50.0273C18.0515 49.9971 18.5 49.5523 18.5 49L18.5 22C18.5 19.7909 20.2909 18 22.5 18L49.5 18C50.0523 18 50.4971 17.5515 50.5273 17C51.0462 7.52403 58.8944 0 68.5 0Z"/>
</mask>
<path fill-rule="evenodd" clip-rule="evenodd" d="M68.5 0C78.1056 0 85.9538 7.52403 86.4727 17C86.5029 17.5515 86.9477 18 87.5 18L114.5 18C116.709 18 118.5 19.7909 118.5 22L118.5 49C118.5 49.5523 118.052 49.9971 117.5 50.0273C108.024 50.5462 100.5 58.3944 100.5 68C100.5 77.6056 108.024 85.4538 117.5 85.9727C118.052 86.0029 118.5 86.4477 118.5 87L118.5 114C118.5 116.209 116.709 118 114.5 118L87.5 118C86.9477 118 86.5029 117.552 86.4727 117C85.9538 107.524 78.1056 100 68.5 100C58.8944 100 51.0462 107.524 50.5273 117C50.4971 117.552 50.0523 118 49.5 118L22.5 118C20.2909 118 18.5 116.209 18.5 114L18.5 87C18.5 86.4477 18.0515 86.0029 17.5 85.9727C8.02403 85.4538 0.5 77.6056 0.5 68C0.5 58.3944 8.02403 50.5462 17.5 50.0273C18.0515 49.9971 18.5 49.5523 18.5 49L18.5 22C18.5 19.7909 20.2909 18 22.5 18L49.5 18C50.0523 18 50.4971 17.5515 50.5273 17C51.0462 7.52403 58.8944 0 68.5 0Z" fill="#FFFFFF" fill-opacity="1"/>
<path d="M114.5 18L114.5 17L114.5 17L114.5 18ZM18.5 114L17.5 114V114H18.5ZM18.5 22L17.5 22L17.5 22L18.5 22ZM22.5 18L22.5 17H22.5V18ZM49.5 18L49.5 19L49.5 18ZM50.5273 17L49.5288 16.9454L50.5273 17ZM17.5 50.0273L17.4454 49.0288L17.5 50.0273ZM18.5 49L17.5 49L18.5 49ZM18.5 87L17.5 87L18.5 87ZM17.5 85.9727L17.4454 86.9712L17.5 85.9727ZM86.4727 17L87.4712 16.9454L86.4727 17ZM87.5 18L87.5 17L87.5 18ZM50.5273 117L49.5288 116.945L50.5273 117ZM117.5 85.9727L117.555 84.9742L117.5 85.9727ZM86.4727 117L87.4712 116.945L86.4727 117ZM117.5 50.0273L117.445 49.0288L117.5 50.0273ZM87.4712 16.9454C86.9235 6.94204 78.6396 -1 68.5 -1V1C77.5716 1 84.9842 8.10603 85.4742 17.0547L87.4712 16.9454ZM114.5 17L87.5 17L87.5 19L114.5 19L114.5 17ZM119.5 22C119.5 19.2386 117.261 17 114.5 17V19C116.157 19 117.5 20.3431 117.5 22H119.5ZM119.5 49L119.5 22H117.5L117.5 49H119.5ZM101.5 68C101.5 58.9284 108.606 51.5158 117.555 51.0258L117.445 49.0288C107.442 49.5765 99.5 57.8604 99.5 68H101.5ZM117.555 84.9742C108.606 84.4842 101.5 77.0716 101.5 68H99.5C99.5 78.1396 107.442 86.4235 117.445 86.9712L117.555 84.9742ZM119.5 114L119.5 87H117.5L117.5 114H119.5ZM114.5 119C117.261 119 119.5 116.761 119.5 114H117.5C117.5 115.657 116.157 117 114.5 117V119ZM87.5 119L114.5 119V117L87.5 117V119ZM68.5 101C77.5716 101 84.9842 108.106 85.4742 117.055L87.4712 116.945C86.9235 106.942 78.6396 99 68.5 99V101ZM51.5258 117.055C52.0158 108.106 59.4284 101 68.5 101V99C58.3604 99 50.0765 106.942 49.5288 116.945L51.5258 117.055ZM22.5 119L49.5 119V117L22.5 117L22.5 119ZM17.5 114C17.5 116.761 19.7386 119 22.5 119L22.5 117C20.8431 117 19.5 115.657 19.5 114H17.5ZM17.5 87L17.5 114L19.5 114L19.5 87L17.5 87ZM17.5547 84.9742C8.60603 84.4842 1.5 77.0716 1.5 68H-0.5C-0.5 78.1396 7.44204 86.4235 17.4454 86.9712L17.5547 84.9742ZM1.5 68C1.5 58.9284 8.60603 51.5158 17.5547 51.0258L17.4454 49.0288C7.44204 49.5765 -0.5 57.8604 -0.5 68H1.5ZM17.5 22L17.5 49L19.5 49L19.5 22L17.5 22ZM22.5 17C19.7386 17 17.5 19.2386 17.5 22H19.5C19.5 20.3431 20.8431 19 22.5 19V17ZM49.5 17L22.5 17L22.5 19L49.5 19L49.5 17ZM68.5 -1C58.3604 -1 50.0765 6.94204 49.5288 16.9454L51.5258 17.0547C52.0158 8.10603 59.4284 1 68.5 1V-1ZM49.5 19C50.6183 19 51.4685 18.1008 51.5258 17.0547L49.5288 16.9454C49.5276 16.9666 49.5187 16.9836 49.5081 16.994C49.5033 16.9987 49.5001 17.0002 49.4999 17.0002C49.4998 17.0003 49.5001 17.0001 49.5006 17C49.5012 16.9999 49.5012 17 49.5 17L49.5 19ZM17.5547 51.0258C18.6008 50.9685 19.5 50.1183 19.5 49L17.5 49C17.5 49.0012 17.4999 49.0012 17.5 49.0006C17.5001 49.0001 17.5003 48.9998 17.5002 48.9999C17.5002 49.0001 17.4987 49.0033 17.494 49.0081C17.4836 49.0187 17.4666 49.0276 17.4454 49.0288L17.5547 51.0258ZM19.5 87C19.5 85.8817 18.6008 85.0315 17.5547 84.9742L17.4454 86.9712C17.4667 86.9724 17.4836 86.9813 17.494 86.9919C17.4987 86.9967 17.5002 86.9999 17.5002 87.0001C17.5003 87.0002 17.5001 86.9999 17.5 86.9994C17.4999 86.9988 17.5 86.9988 17.5 87L19.5 87ZM85.4742 17.0547C85.5315 18.1008 86.3817 19 87.5 19L87.5 17C87.4988 17 87.4988 16.9999 87.4993 17C87.4999 17.0001 87.5002 17.0003 87.5001 17.0002C87.4999 17.0002 87.4967 16.9987 87.4919 16.994C87.4813 16.9836 87.4724 16.9667 87.4712 16.9454L85.4742 17.0547ZM49.5288 116.945C49.5276 116.967 49.5187 116.984 49.5081 116.994C49.5033 116.999 49.5001 117 49.4999 117C49.4998 117 49.5001 117 49.5007 117C49.5012 117 49.5012 117 49.5 117V119C50.6183 119 51.4685 118.101 51.5258 117.055L49.5288 116.945ZM117.445 86.9712C117.467 86.9724 117.484 86.9813 117.494 86.9919C117.499 86.9967 117.5 86.9999 117.5 87.0001C117.5 87.0002 117.5 86.9999 117.5 86.9993C117.5 86.9988 117.5 86.9988 117.5 87H119.5C119.5 85.8817 118.601 85.0315 117.555 84.9742L117.445 86.9712ZM87.5 117C87.4988 117 87.4988 117 87.4994 117C87.4999 117 87.5002 117 87.5001 117C87.4999 117 87.4967 116.999 87.4919 116.994C87.4813 116.984 87.4724 116.967 87.4712 116.945L85.4742 117.055C85.5315 118.101 86.3817 119 87.5 119V117ZM117.5 49C117.5 49.0012 117.5 49.0012 117.5 49.0006C117.5 49.0001 117.5 48.9998 117.5 48.9999C117.5 49.0001 117.499 49.0033 117.494 49.0081C117.484 49.0187 117.467 49.0276 117.445 49.0288L117.555 51.0258C118.601 50.9685 119.5 50.1183 119.5 49H117.5Z" fill="#D1D5DB" mask="url(#path-1-inside-1_673_10131)"/>
<path d="M62.8842 89.084C62.7242 89.084 62.6042 89.04 62.5242 88.952C62.4442 88.864 62.4042 88.74 62.4042 88.58V80.948C62.4042 80.788 62.4442 80.668 62.5242 80.588C62.6042 80.5 62.7242 80.456 62.8842 80.456C63.0362 80.456 63.1562 80.5 63.2442 80.588C63.3322 80.668 63.3762 80.788 63.3762 80.948V84.464H63.2202C63.3882 84 63.6602 83.652 64.0362 83.42C64.4202 83.18 64.8602 83.06 65.3562 83.06C65.8202 83.06 66.2042 83.144 66.5082 83.312C66.8202 83.48 67.0522 83.736 67.2042 84.08C67.3562 84.416 67.4322 84.844 67.4322 85.364V88.58C67.4322 88.74 67.3882 88.864 67.3002 88.952C67.2202 89.04 67.1042 89.084 66.9522 89.084C66.7922 89.084 66.6682 89.04 66.5802 88.952C66.5002 88.864 66.4602 88.74 66.4602 88.58V85.424C66.4602 84.88 66.3522 84.484 66.1362 84.236C65.9282 83.98 65.5922 83.852 65.1282 83.852C64.5922 83.852 64.1642 84.02 63.8442 84.356C63.5322 84.684 63.3762 85.124 63.3762 85.676V88.58C63.3762 88.916 63.2122 89.084 62.8842 89.084ZM71.8165 89.108C71.3525 89.108 70.8845 89.04 70.4125 88.904C69.9485 88.768 69.5445 88.568 69.2005 88.304C69.0965 88.232 69.0285 88.152 68.9965 88.064C68.9645 87.968 68.9565 87.88 68.9725 87.8C68.9965 87.712 69.0405 87.64 69.1045 87.584C69.1685 87.52 69.2445 87.484 69.3325 87.476C69.4285 87.468 69.5325 87.5 69.6445 87.572C69.9965 87.804 70.3485 87.972 70.7005 88.076C71.0525 88.18 71.4165 88.232 71.7925 88.232C72.2005 88.232 72.5445 88.172 72.8245 88.052C73.1045 87.932 73.3165 87.756 73.4605 87.524C73.6045 87.284 73.6765 86.992 73.6765 86.648C73.6765 86.152 73.5125 85.776 73.1845 85.52C72.8565 85.264 72.3805 85.136 71.7565 85.136H70.9045C70.7525 85.136 70.6365 85.1 70.5565 85.028C70.4765 84.948 70.4365 84.84 70.4365 84.704C70.4365 84.576 70.4765 84.476 70.5565 84.404C70.6365 84.324 70.7525 84.284 70.9045 84.284H71.6725C72.0405 84.284 72.3525 84.22 72.6085 84.092C72.8725 83.964 73.0765 83.784 73.2205 83.552C73.3645 83.312 73.4365 83.024 73.4365 82.688C73.4365 82.24 73.2925 81.9 73.0045 81.668C72.7165 81.428 72.3005 81.308 71.7565 81.308C71.3965 81.308 71.0565 81.36 70.7365 81.464C70.4165 81.568 70.1005 81.744 69.7885 81.992C69.6925 82.064 69.5965 82.1 69.5005 82.1C69.4125 82.092 69.3365 82.064 69.2725 82.016C69.2165 81.96 69.1725 81.888 69.1405 81.8C69.1165 81.712 69.1205 81.624 69.1525 81.536C69.1845 81.44 69.2525 81.352 69.3565 81.272C69.6765 81 70.0525 80.792 70.4845 80.648C70.9165 80.504 71.3605 80.432 71.8165 80.432C72.3605 80.432 72.8245 80.52 73.2085 80.696C73.6005 80.864 73.9005 81.112 74.1085 81.44C74.3165 81.76 74.4205 82.148 74.4205 82.604C74.4205 82.948 74.3525 83.264 74.2165 83.552C74.0885 83.832 73.9045 84.072 73.6645 84.272C73.4325 84.472 73.1485 84.616 72.8125 84.704V84.572C73.3965 84.668 73.8485 84.908 74.1685 85.292C74.4965 85.668 74.6605 86.144 74.6605 86.72C74.6605 87.208 74.5445 87.632 74.3125 87.992C74.0885 88.344 73.7645 88.62 73.3405 88.82C72.9165 89.012 72.4085 89.108 71.8165 89.108Z" fill="#030712"/>
<path d="M69.7425 55.8212C69.7425 55.8212 76.0797 45.6691 76.2241 45.4153C76.3684 45.1616 76.3991 44.6956 76.0009 44.6956C75.6028 44.6956 65.7306 54.7734 65.7306 54.7734L58.7197 58.9297C58.7197 58.9297 58.2494 59.2184 58.3216 59.5794C58.3937 59.9403 58.7087 59.9556 58.8531 59.9556C58.9975 59.9556 66.4766 59.9162 66.9119 59.9031C67.4522 59.8878 67.3187 60.6556 67.3187 60.6556L62.585 68.0975C62.585 68.0975 60.5178 70.9587 60.5178 71.1534C60.5178 71.44 60.8634 71.5822 61.185 71.3897C61.4344 71.2409 77.5562 57.58 78.2672 56.6416C78.4597 56.3856 78.5581 55.7119 77.7641 55.7119C76.97 55.7119 70.6459 57.5537 70.6459 57.5537L69.7425 55.8212Z" fill="#FEB804"/>
<path d="M68.6334 55.0141C68.4388 55.2809 68.3863 55.7272 68.8063 55.7534C69.2241 55.7775 77.7641 55.7141 77.7641 55.7141C77.7641 55.7141 71.6631 61.3206 69.8169 62.9941C67.9706 64.6675 61.8566 70.0881 61.4453 70.4709C61.0428 70.8472 60.6775 71.1928 60.5288 71.1447C60.5047 71.1381 60.4741 71.0091 61.0494 70.0619C61.5744 69.1978 66.6144 60.7519 66.8113 60.4325C67.0081 60.1131 67.1809 59.8419 67.2794 59.6931C67.3778 59.5444 67.6972 58.7328 67.0322 58.7328C66.3672 58.7328 58.7197 58.9297 58.7197 58.9297C58.7197 58.9297 64.0025 54.4475 65.5294 53.2422C67.0563 52.0369 75.71 44.6956 76.0009 44.6956C76.2919 44.6956 68.8303 54.745 68.6334 55.0141Z" fill="#FFC927"/>
<path d="M68.3797 59.4766C68.7734 58.91 69.1606 58.8684 69.3947 59.0084C69.6966 59.19 69.7272 59.6078 69.3466 60.1131C68.7472 60.9137 64.3416 66.8091 64.1731 67.0169C63.8537 67.4106 63.3834 67.2378 63.6897 66.6669C63.9456 66.1944 67.9728 60.0628 68.3797 59.4766ZM62.1191 58.3259C61.3644 58.8312 60.6622 58.0766 61.1675 57.5231C61.6728 56.9697 64.9891 54.2091 65.6606 53.6381C66.3322 53.0672 70.2522 49.6569 70.5562 49.4119C70.9587 49.0881 71.2081 49.4162 70.9544 49.7531C70.7028 50.09 67.9312 52.8594 66.7084 53.9837C65.7634 54.8544 62.8366 57.8447 62.1191 58.3259Z" fill="#FFE567"/>
</svg>
