<svg width="101" height="100" viewBox="0 0 101 100" fill="none" xmlns="http://www.w3.org/2000/svg">
<mask id="path-1-inside-1_673_10132" fill="white">
<path fill-rule="evenodd" clip-rule="evenodd" d="M69.5 0C68.9477 0 68.5029 0.448498 68.4727 0.999957C67.9538 10.476 60.1056 18 50.5 18C40.8944 18 33.0462 10.476 32.5273 0.999956C32.4971 0.448497 32.0523 0 31.5 0L4.5 0C2.29086 0 0.5 1.79086 0.5 4L0.5 31C0.5 31.5523 0.948497 31.9971 1.49996 32.0273C10.976 32.5462 18.5 40.3944 18.5 50C18.5 59.6056 10.976 67.4538 1.49996 67.9727C0.948498 68.0029 0.5 68.4477 0.5 69L0.5 96C0.5 98.2091 2.29086 100 4.5 100H31.5C32.0523 100 32.4971 99.5515 32.5273 99C33.0462 89.524 40.8944 82 50.5 82C60.1056 82 67.9538 89.524 68.4727 99C68.5029 99.5515 68.9477 100 69.5 100H96.5C98.7091 100 100.5 98.2091 100.5 96V69C100.5 68.4477 100.052 68.0029 99.5 67.9727C90.024 67.4538 82.5 59.6056 82.5 50C82.5 40.3944 90.024 32.5462 99.5 32.0273C100.052 31.9971 100.5 31.5523 100.5 31V4C100.5 1.79086 98.7091 0 96.5 0L69.5 0Z"/>
</mask>
<path fill-rule="evenodd" clip-rule="evenodd" d="M69.5 0C68.9477 0 68.5029 0.448498 68.4727 0.999957C67.9538 10.476 60.1056 18 50.5 18C40.8944 18 33.0462 10.476 32.5273 0.999956C32.4971 0.448497 32.0523 0 31.5 0L4.5 0C2.29086 0 0.5 1.79086 0.5 4L0.5 31C0.5 31.5523 0.948497 31.9971 1.49996 32.0273C10.976 32.5462 18.5 40.3944 18.5 50C18.5 59.6056 10.976 67.4538 1.49996 67.9727C0.948498 68.0029 0.5 68.4477 0.5 69L0.5 96C0.5 98.2091 2.29086 100 4.5 100H31.5C32.0523 100 32.4971 99.5515 32.5273 99C33.0462 89.524 40.8944 82 50.5 82C60.1056 82 67.9538 89.524 68.4727 99C68.5029 99.5515 68.9477 100 69.5 100H96.5C98.7091 100 100.5 98.2091 100.5 96V69C100.5 68.4477 100.052 68.0029 99.5 67.9727C90.024 67.4538 82.5 59.6056 82.5 50C82.5 40.3944 90.024 32.5462 99.5 32.0273C100.052 31.9971 100.5 31.5523 100.5 31V4C100.5 1.79086 98.7091 0 96.5 0L69.5 0Z" fill="#D1D5DB" fill-opacity="0.2"/>
<path d="M0.5 4H1.5H0.5ZM0.5 96H-0.5H0.5ZM99.5 32.0273L99.4454 31.0288L99.5 32.0273ZM99.5 67.9727L99.4454 68.9712L99.5 67.9727ZM32.5273 99L33.5258 99.0547L32.5273 99ZM1.49996 67.9727L1.44528 66.9742L1.49996 67.9727ZM32.5273 0.999956L31.5288 1.05463L32.5273 0.999956ZM68.4727 99L67.4742 99.0547L68.4727 99ZM68.4727 0.999957L67.4742 0.945284L68.4727 0.999957ZM50.5 19C60.6396 19 68.9235 11.058 69.4712 1.05463L67.4742 0.945284C66.9842 9.89397 59.5716 17 50.5 17L50.5 19ZM31.5288 1.05463C32.0765 11.058 40.3604 19 50.5 19L50.5 17C41.4284 17 34.0158 9.89397 33.5258 0.945282L31.5288 1.05463ZM4.5 1L31.5 1V-1L4.5 -1V1ZM1.5 4C1.5 2.34315 2.84315 1 4.5 1V-1C1.73858 -1 -0.5 1.23858 -0.5 4H1.5ZM1.5 31L1.5 4L-0.5 4L-0.5 31H1.5ZM1.44528 33.0258C10.394 33.5158 17.5 40.9284 17.5 50L19.5 50C19.5 39.8604 11.558 31.5765 1.55463 31.0288L1.44528 33.0258ZM17.5 50C17.5 59.0716 10.394 66.4842 1.44528 66.9742L1.55463 68.9712C11.558 68.4235 19.5 60.1396 19.5 50L17.5 50ZM1.5 96L1.5 69H-0.5L-0.5 96H1.5ZM4.5 99C2.84315 99 1.5 97.6569 1.5 96H-0.5C-0.5 98.7614 1.73858 101 4.5 101L4.5 99ZM31.5 99H4.5L4.5 101H31.5V99ZM50.5 81C40.3604 81 32.0765 88.942 31.5288 98.9454L33.5258 99.0547C34.0158 90.106 41.4284 83 50.5 83V81ZM69.4712 98.9454C68.9235 88.942 60.6396 81 50.5 81V83C59.5716 83 66.9842 90.106 67.4742 99.0547L69.4712 98.9454ZM96.5 99H69.5V101H96.5V99ZM99.5 96C99.5 97.6569 98.1569 99 96.5 99V101C99.2614 101 101.5 98.7614 101.5 96H99.5ZM99.5 69V96H101.5V69H99.5ZM81.5 50C81.5 60.1396 89.442 68.4235 99.4454 68.9712L99.5547 66.9742C90.606 66.4842 83.5 59.0716 83.5 50H81.5ZM99.4454 31.0288C89.442 31.5765 81.5 39.8604 81.5 50H83.5C83.5 40.9284 90.606 33.5158 99.5547 33.0258L99.4454 31.0288ZM99.5 4V31H101.5V4L99.5 4ZM96.5 1C98.1569 1 99.5 2.34315 99.5 4L101.5 4C101.5 1.23858 99.2614 -1 96.5 -1V1ZM69.5 1L96.5 1V-1L69.5 -1V1ZM99.5547 33.0258C100.601 32.9685 101.5 32.1183 101.5 31H99.5C99.5 31.0012 99.4999 31.0012 99.5 31.0007C99.5001 31.0001 99.5003 30.9998 99.5002 30.9999C99.5002 31.0001 99.4987 31.0033 99.494 31.0081C99.4836 31.0187 99.4667 31.0276 99.4454 31.0288L99.5547 33.0258ZM101.5 69C101.5 67.8817 100.601 67.0315 99.5547 66.9742L99.4454 68.9712C99.4666 68.9724 99.4836 68.9813 99.494 68.9919C99.4987 68.9967 99.5002 68.9999 99.5002 69.0001C99.5003 69.0002 99.5001 68.9999 99.5 68.9994C99.4999 68.9988 99.5 68.9988 99.5 69H101.5ZM31.5 101C32.6183 101 33.4685 100.101 33.5258 99.0547L31.5288 98.9454C31.5276 98.9666 31.5187 98.9836 31.5081 98.994C31.5033 98.9987 31.5001 99.0002 31.4999 99.0002C31.4998 99.0003 31.5001 99.0001 31.5006 99C31.5012 98.9999 31.5012 99 31.5 99V101ZM-0.5 31C-0.5 32.1183 0.399211 32.9685 1.44528 33.0258L1.55463 31.0288C1.53335 31.0276 1.5164 31.0187 1.506 31.0081C1.50127 31.0033 1.49985 31.0001 1.49977 30.9999C1.49974 30.9998 1.49987 31.0001 1.49998 31.0006C1.5001 31.0012 1.5 31.0012 1.5 31H-0.5ZM1.44528 66.9742C0.399215 67.0315 -0.5 67.8817 -0.5 69H1.5C1.5 68.9988 1.5001 68.9988 1.49998 68.9994C1.49987 68.9999 1.49974 69.0002 1.49977 69.0001C1.49985 68.9999 1.50127 68.9967 1.506 68.9919C1.5164 68.9813 1.53335 68.9724 1.55463 68.9712L1.44528 66.9742ZM33.5258 0.945282C33.4685 -0.100789 32.6183 -1 31.5 -1V1C31.5012 1 31.5012 1.0001 31.5007 0.999977C31.5001 0.999868 31.4998 0.999738 31.4999 0.999766C31.5001 0.999846 31.5033 1.00127 31.5081 1.006C31.5187 1.0164 31.5276 1.03335 31.5288 1.05463L33.5258 0.945282ZM67.4742 99.0547C67.5315 100.101 68.3817 101 69.5 101V99C69.4988 99 69.4988 98.9999 69.4993 99C69.4999 99.0001 69.5002 99.0003 69.5001 99.0002C69.4999 99.0002 69.4967 98.9987 69.4919 98.994C69.4813 98.9836 69.4724 98.9667 69.4712 98.9454L67.4742 99.0547ZM69.4712 1.05463C69.4724 1.03335 69.4813 1.0164 69.4919 1.006C69.4967 1.00127 69.4999 0.999846 69.5001 0.999766C69.5002 0.999738 69.4999 0.999868 69.4994 0.999977C69.4988 1.0001 69.4988 1 69.5 1V-1C68.3817 -1 67.5315 -0.100786 67.4742 0.945284L69.4712 1.05463Z" fill="#D1D5DB" mask="url(#path-1-inside-1_673_10132)"/>
<path d="M27.224 71.084C27.064 71.084 26.944 71.04 26.864 70.952C26.784 70.864 26.744 70.74 26.744 70.58V62.948C26.744 62.788 26.784 62.668 26.864 62.588C26.944 62.5 27.064 62.456 27.224 62.456C27.376 62.456 27.496 62.5 27.584 62.588C27.672 62.668 27.716 62.788 27.716 62.948V66.464H27.56C27.728 66 28 65.652 28.376 65.42C28.76 65.18 29.2 65.06 29.696 65.06C30.16 65.06 30.544 65.144 30.848 65.312C31.16 65.48 31.392 65.736 31.544 66.08C31.696 66.416 31.772 66.844 31.772 67.364V70.58C31.772 70.74 31.728 70.864 31.64 70.952C31.56 71.04 31.444 71.084 31.292 71.084C31.132 71.084 31.008 71.04 30.92 70.952C30.84 70.864 30.8 70.74 30.8 70.58V67.424C30.8 66.88 30.692 66.484 30.476 66.236C30.268 65.98 29.932 65.852 29.468 65.852C28.932 65.852 28.504 66.02 28.184 66.356C27.872 66.684 27.716 67.124 27.716 67.676V70.58C27.716 70.916 27.552 71.084 27.224 71.084ZM35.9883 71.108C35.4203 71.108 34.9283 70.984 34.5123 70.736C34.0963 70.488 33.7723 70.14 33.5403 69.692C33.3163 69.236 33.2043 68.7 33.2043 68.084C33.2043 67.62 33.2683 67.204 33.3963 66.836C33.5243 66.46 33.7123 66.14 33.9603 65.876C34.2083 65.612 34.5003 65.412 34.8363 65.276C35.1803 65.132 35.5643 65.06 35.9883 65.06C36.5563 65.06 37.0483 65.184 37.4643 65.432C37.8803 65.68 38.2003 66.032 38.4243 66.488C38.6563 66.936 38.7723 67.468 38.7723 68.084C38.7723 68.548 38.7083 68.964 38.5803 69.332C38.4523 69.7 38.2643 70.02 38.0163 70.292C37.7683 70.556 37.4723 70.76 37.1283 70.904C36.7923 71.04 36.4123 71.108 35.9883 71.108ZM35.9883 70.328C36.3483 70.328 36.6643 70.24 36.9363 70.064C37.2083 69.888 37.4163 69.632 37.5603 69.296C37.7123 68.96 37.7883 68.556 37.7883 68.084C37.7883 67.356 37.6243 66.8 37.2963 66.416C36.9763 66.032 36.5403 65.84 35.9883 65.84C35.6203 65.84 35.3003 65.928 35.0283 66.104C34.7643 66.272 34.5563 66.524 34.4043 66.86C34.2603 67.188 34.1883 67.596 34.1883 68.084C34.1883 68.804 34.3523 69.36 34.6803 69.752C35.0083 70.136 35.4443 70.328 35.9883 70.328ZM42.6563 71.108C42.0883 71.108 41.5963 70.984 41.1803 70.736C40.7643 70.488 40.4403 70.14 40.2083 69.692C39.9843 69.236 39.8723 68.7 39.8723 68.084C39.8723 67.62 39.9363 67.204 40.0643 66.836C40.1923 66.46 40.3803 66.14 40.6283 65.876C40.8763 65.612 41.1683 65.412 41.5043 65.276C41.8483 65.132 42.2323 65.06 42.6563 65.06C43.2243 65.06 43.7163 65.184 44.1323 65.432C44.5483 65.68 44.8683 66.032 45.0923 66.488C45.3243 66.936 45.4403 67.468 45.4403 68.084C45.4403 68.548 45.3763 68.964 45.2483 69.332C45.1203 69.7 44.9323 70.02 44.6843 70.292C44.4363 70.556 44.1403 70.76 43.7963 70.904C43.4603 71.04 43.0803 71.108 42.6563 71.108ZM42.6563 70.328C43.0163 70.328 43.3323 70.24 43.6043 70.064C43.8763 69.888 44.0843 69.632 44.2283 69.296C44.3803 68.96 44.4563 68.556 44.4563 68.084C44.4563 67.356 44.2923 66.8 43.9643 66.416C43.6443 66.032 43.2083 65.84 42.6563 65.84C42.2883 65.84 41.9683 65.928 41.6963 66.104C41.4323 66.272 41.2243 66.524 41.0723 66.86C40.9283 67.188 40.8563 67.596 40.8563 68.084C40.8563 68.804 41.0203 69.36 41.3483 69.752C41.6763 70.136 42.1123 70.328 42.6563 70.328ZM47.3803 71.084C47.2203 71.084 47.1003 71.04 47.0203 70.952C46.9403 70.864 46.9003 70.74 46.9003 70.58V62.948C46.9003 62.788 46.9403 62.668 47.0203 62.588C47.1003 62.5 47.2203 62.456 47.3803 62.456C47.5323 62.456 47.6523 62.5 47.7403 62.588C47.8283 62.668 47.8723 62.788 47.8723 62.948V67.76H47.8963L50.3563 65.408C50.4683 65.304 50.5643 65.224 50.6443 65.168C50.7323 65.112 50.8483 65.084 50.9923 65.084C51.1203 65.084 51.2203 65.12 51.2923 65.192C51.3643 65.256 51.3963 65.34 51.3883 65.444C51.3883 65.54 51.3403 65.644 51.2443 65.756L48.6283 68.24V67.712L51.4723 70.388C51.5843 70.5 51.6403 70.608 51.6403 70.712C51.6403 70.816 51.6003 70.904 51.5203 70.976C51.4483 71.048 51.3523 71.084 51.2323 71.084C51.0883 71.084 50.9723 71.056 50.8843 71C50.7963 70.936 50.6883 70.844 50.5603 70.724L47.8963 68.264H47.8723V70.58C47.8723 70.916 47.7083 71.084 47.3803 71.084ZM54.6777 71.108C54.2777 71.108 53.9177 71.032 53.5977 70.88C53.2857 70.72 53.0377 70.504 52.8537 70.232C52.6697 69.96 52.5777 69.656 52.5777 69.32C52.5777 68.888 52.6857 68.548 52.9017 68.3C53.1257 68.052 53.4897 67.876 53.9937 67.772C54.5057 67.668 55.2017 67.616 56.0817 67.616H56.6217V68.252H56.0937C55.4457 68.252 54.9337 68.284 54.5577 68.348C54.1897 68.404 53.9297 68.504 53.7777 68.648C53.6337 68.792 53.5617 68.996 53.5617 69.26C53.5617 69.588 53.6737 69.856 53.8977 70.064C54.1297 70.272 54.4417 70.376 54.8337 70.376C55.1537 70.376 55.4337 70.3 55.6737 70.148C55.9217 69.996 56.1137 69.788 56.2497 69.524C56.3937 69.26 56.4657 68.956 56.4657 68.612V67.244C56.4657 66.748 56.3657 66.392 56.1657 66.176C55.9657 65.952 55.6377 65.84 55.1817 65.84C54.9017 65.84 54.6217 65.876 54.3417 65.948C54.0617 66.02 53.7657 66.136 53.4537 66.296C53.3417 66.352 53.2457 66.372 53.1657 66.356C53.0857 66.332 53.0217 66.288 52.9737 66.224C52.9257 66.16 52.8977 66.088 52.8897 66.008C52.8817 65.92 52.8977 65.836 52.9377 65.756C52.9857 65.676 53.0577 65.612 53.1537 65.564C53.5057 65.388 53.8537 65.26 54.1977 65.18C54.5417 65.1 54.8697 65.06 55.1817 65.06C55.6857 65.06 56.1017 65.144 56.4297 65.312C56.7577 65.472 57.0017 65.72 57.1617 66.056C57.3217 66.384 57.4017 66.808 57.4017 67.328V70.58C57.4017 70.74 57.3617 70.864 57.2817 70.952C57.2097 71.04 57.1017 71.084 56.9577 71.084C56.8057 71.084 56.6897 71.04 56.6097 70.952C56.5297 70.864 56.4897 70.74 56.4897 70.58V69.644H56.5977C56.5337 69.948 56.4097 70.208 56.2257 70.424C56.0497 70.64 55.8297 70.808 55.5657 70.928C55.3017 71.048 55.0057 71.108 54.6777 71.108ZM62.157 71.108C61.629 71.108 61.173 70.972 60.789 70.7C60.413 70.428 60.161 70.064 60.033 69.608L60.165 69.476V70.58C60.165 70.74 60.121 70.864 60.033 70.952C59.953 71.04 59.837 71.084 59.685 71.084C59.525 71.084 59.405 71.04 59.325 70.952C59.245 70.864 59.205 70.74 59.205 70.58V62.948C59.205 62.788 59.245 62.668 59.325 62.588C59.405 62.5 59.525 62.456 59.685 62.456C59.837 62.456 59.957 62.5 60.045 62.588C60.133 62.668 60.177 62.788 60.177 62.948V66.524H60.033C60.169 66.076 60.425 65.72 60.801 65.456C61.177 65.192 61.629 65.06 62.157 65.06C62.685 65.06 63.141 65.184 63.525 65.432C63.909 65.672 64.205 66.02 64.413 66.476C64.629 66.924 64.737 67.46 64.737 68.084C64.737 68.7 64.629 69.236 64.413 69.692C64.205 70.14 63.905 70.488 63.513 70.736C63.129 70.984 62.677 71.108 62.157 71.108ZM61.953 70.328C62.321 70.328 62.637 70.24 62.901 70.064C63.173 69.888 63.381 69.632 63.525 69.296C63.677 68.96 63.753 68.556 63.753 68.084C63.753 67.356 63.589 66.8 63.261 66.416C62.941 66.032 62.505 65.84 61.953 65.84C61.593 65.84 61.277 65.928 61.005 66.104C60.733 66.272 60.521 66.524 60.369 66.86C60.225 67.188 60.153 67.596 60.153 68.084C60.153 68.804 60.317 69.36 60.645 69.752C60.973 70.136 61.409 70.328 61.953 70.328ZM67.9771 71.108C67.4011 71.108 66.9611 70.932 66.6571 70.58C66.3531 70.228 66.2011 69.724 66.2011 69.068V62.948C66.2011 62.788 66.2411 62.668 66.3211 62.588C66.4011 62.5 66.5211 62.456 66.6811 62.456C66.8331 62.456 66.9531 62.5 67.0411 62.588C67.1291 62.668 67.1731 62.788 67.1731 62.948V68.996C67.1731 69.428 67.2571 69.752 67.4251 69.968C67.6011 70.176 67.8571 70.28 68.1931 70.28C68.2651 70.28 68.3291 70.276 68.3851 70.268C68.4411 70.26 68.4971 70.256 68.5531 70.256C68.6411 70.248 68.7011 70.268 68.7331 70.316C68.7731 70.364 68.7931 70.46 68.7931 70.604C68.7931 70.748 68.7611 70.856 68.6971 70.928C68.6331 71 68.5291 71.048 68.3851 71.072C68.3211 71.08 68.2531 71.088 68.1811 71.096C68.1091 71.104 68.0411 71.108 67.9771 71.108ZM72.3213 71.108C71.7053 71.108 71.1733 70.988 70.7253 70.748C70.2853 70.5 69.9413 70.152 69.6933 69.704C69.4533 69.256 69.3333 68.72 69.3333 68.096C69.3333 67.488 69.4533 66.96 69.6933 66.512C69.9333 66.056 70.2613 65.7 70.6773 65.444C71.1013 65.188 71.5893 65.06 72.1413 65.06C72.5333 65.06 72.8853 65.128 73.1973 65.264C73.5093 65.392 73.7733 65.58 73.9893 65.828C74.2133 66.076 74.3813 66.376 74.4933 66.728C74.6133 67.08 74.6733 67.476 74.6733 67.916C74.6733 68.044 74.6373 68.14 74.5653 68.204C74.4933 68.26 74.3893 68.288 74.2533 68.288H70.0773V67.652H74.0253L73.8333 67.808C73.8333 67.376 73.7693 67.012 73.6413 66.716C73.5133 66.412 73.3253 66.18 73.0773 66.02C72.8373 65.86 72.5333 65.78 72.1653 65.78C71.7573 65.78 71.4093 65.876 71.1213 66.068C70.8413 66.252 70.6293 66.512 70.4853 66.848C70.3413 67.176 70.2693 67.56 70.2693 68V68.072C70.2693 68.808 70.4453 69.368 70.7973 69.752C71.1573 70.136 71.6653 70.328 72.3213 70.328C72.5933 70.328 72.8613 70.292 73.1253 70.22C73.3973 70.148 73.6613 70.028 73.9173 69.86C74.0293 69.788 74.1293 69.756 74.2173 69.764C74.3133 69.764 74.3893 69.792 74.4453 69.848C74.5013 69.896 74.5373 69.96 74.5533 70.04C74.5773 70.112 74.5693 70.192 74.5293 70.28C74.4973 70.368 74.4293 70.444 74.3253 70.508C74.0613 70.7 73.7493 70.848 73.3893 70.952C73.0293 71.056 72.6733 71.108 72.3213 71.108Z" fill="#030712"/>
<path d="M42.5834 40.9165C39.7266 46.0353 42.9356 51.7775 47.9669 52.9106C51.3072 53.6631 55.2228 53.0703 57.2156 50.4453C59.5912 47.3194 59.1669 44.3947 58.8103 43.0822C58.3466 41.3672 58.3684 40.3959 58.8934 39.7987C59.4819 39.1294 59.5716 38.7619 59.4316 38.3506C59.2544 37.8344 58.8169 37.6922 58.2744 37.7359C57.3075 37.8125 56.0519 38.344 55.8703 40.4594C55.7544 41.82 56.6009 45.3965 52.25 45.8428C48.7763 46.1972 47.2188 42.0978 48.3016 40.0415C49.0606 38.6022 49.5878 37.9984 52.5234 34.7522C54.3566 32.7244 54.5797 31.554 54.5797 30.8672C54.5797 28.4565 52.4906 26.5337 50.0231 26.8115C48.1484 27.0215 46.6391 28.5397 46.4378 30.4165C46.3022 31.6678 46.7353 32.8184 47.5075 33.6475C47.8531 34.0172 47.8772 34.5837 47.5469 34.9665C47.2406 35.3231 46.8775 35.7737 46.3788 36.29C44.795 37.9306 43.8981 38.5606 42.5834 40.9165ZM51.9109 30.8694C51.9109 31.8581 51.235 32.6587 50.4016 32.6587C49.5681 32.6587 48.8922 31.8581 48.8922 30.8694C48.8922 29.8806 49.5681 29.08 50.4016 29.08C51.235 29.08 51.9109 29.8806 51.9109 30.8694Z" fill="#FFCA28"/>
<path d="M42.5834 40.9165C39.7266 46.0353 42.9356 51.7775 47.9669 52.9106C51.3072 53.6631 55.2228 53.0703 57.2156 50.4453C59.5912 47.3194 59.1669 44.3947 58.8103 43.0822C58.3466 41.3672 58.3684 40.3959 58.8934 39.7987C59.4819 39.1294 59.5716 38.7619 59.4316 38.3506C59.2544 37.8344 58.8169 37.6922 58.2744 37.7359C57.3075 37.8125 56.0519 38.344 55.8703 40.4594C55.7544 41.82 56.6009 45.3965 52.25 45.8428C48.7763 46.1972 47.2188 42.0978 48.3016 40.0415C49.0606 38.6022 49.5878 37.9984 52.5234 34.7522C54.3566 32.7244 54.5797 31.554 54.5797 30.8672C54.5797 28.4565 52.4906 26.5337 50.0231 26.8115C48.1484 27.0215 46.6391 28.5397 46.4378 30.4165C46.3022 31.6678 46.7353 32.8184 47.5075 33.6475C47.8531 34.0172 47.8772 34.5837 47.5469 34.9665C47.2406 35.3231 46.8775 35.7737 46.3788 36.29C44.795 37.9306 43.8981 38.5606 42.5834 40.9165ZM51.6922 30.8694C51.6922 31.8581 51.0163 32.6587 50.1828 32.6587C49.3494 32.6587 48.6734 31.8581 48.6734 30.8694C48.6734 29.8806 49.3494 29.08 50.1828 29.08C51.0163 29.08 51.6922 29.8806 51.6922 30.8694Z" fill="#FFCA28"/>
<path d="M50.78 47.8597C48.4612 47.4528 46.8819 45.3725 46.6041 44.7206C46.3525 44.13 45.6875 44.3291 46.1359 46.1622C46.4291 47.3631 47.2209 48.4066 48.2709 49.0584C49.8678 50.0494 51.9437 50.1697 53.5516 49.2816C55.4591 48.225 56.2291 46.5953 56.1481 45.8013C56.135 45.6744 55.9184 45.1931 55.4 46.1863C55.2294 46.5078 53.0987 48.2666 50.78 47.8597Z" fill="#FFF59D"/>
<path d="M53.5537 47.7219C56.0584 46.4794 56.2531 44.4341 55.8637 41.8047C55.8506 43.4059 55.5159 45.5081 52.2478 45.8428C48.7762 46.1994 47.2516 42.1153 48.3016 40.0438C49.2181 38.2303 51.4275 35.9684 51.4275 35.9684C51.4275 35.9684 48.7741 37.8016 47.5534 40C46.3919 42.0891 45.9872 44.8716 47.7459 46.6194C48.4634 47.3303 49.3603 47.8728 50.3469 48.1113C51.4406 48.3716 52.5519 48.2206 53.5537 47.7219Z" fill="#E2A610"/>
<path d="M58.3028 38.3047C58.6856 38.5825 58.235 38.9653 57.9331 39.0834C57.1128 39.4006 56.765 40.2209 56.6644 39.9081C56.5725 39.6194 56.6819 39.16 57.2244 38.6C57.4803 38.3353 58.0294 38.1056 58.3028 38.3047ZM49.9203 27.8069C50.22 28.3734 49.555 28.4544 49.1722 28.6359C47.7941 29.29 47.9516 30.8475 47.6344 30.7753C47.3172 30.7031 47.2209 30.1847 47.2341 29.9331C47.2756 29.0625 47.7656 28.3844 48.1156 28.1175C48.9578 27.4722 49.6928 27.3803 49.9203 27.8069Z" fill="#FFF59D"/>
<path d="M49.6513 30.8694C49.6513 30.0841 50.0778 29.4191 50.6728 29.1785C50.5197 29.1172 50.3556 29.08 50.185 29.08C49.3516 29.08 48.6756 29.8806 48.6756 30.8694C48.6756 31.8581 49.3516 32.6588 50.185 32.6588C50.3556 32.6588 50.5197 32.6238 50.6728 32.5603C50.0778 32.3197 49.6513 31.6547 49.6513 30.8694Z" fill="#E2A610"/>
</svg>
