<svg width="119" height="100" viewBox="0 0 119 100" fill="none" xmlns="http://www.w3.org/2000/svg">
<mask id="path-1-inside-1_673_10135" fill="white">
<path fill-rule="evenodd" clip-rule="evenodd" d="M50.5 18C60.1056 18 67.9538 10.476 68.4727 0.999956C68.5029 0.448497 68.9477 0 69.5 0L96.5 0C98.7091 0 100.5 1.79086 100.5 4L100.5 31C100.5 31.5523 100.948 31.9971 101.5 32.0273C110.976 32.5462 118.5 40.3944 118.5 50C118.5 59.6056 110.976 67.4538 101.5 67.9727C100.948 68.0029 100.5 68.4477 100.5 69V96C100.5 98.2091 98.7091 100 96.5 100H69.5C68.9477 100 68.5029 99.5515 68.4727 99C67.9538 89.524 60.1056 82 50.5 82C40.8944 82 33.0462 89.524 32.5273 99C32.4971 99.5515 32.0523 100 31.5 100H4.5C2.29086 100 0.5 98.2091 0.5 96L0.5 69C0.5 68.4477 0.948498 68.0029 1.49996 67.9727C10.976 67.4538 18.5 59.6056 18.5 50C18.5 40.3944 10.976 32.5462 1.49996 32.0273C0.948497 31.9971 0.5 31.5523 0.5 31L0.5 4C0.5 1.79086 2.29086 0 4.5 0L31.5 0C32.0523 0 32.4971 0.448498 32.5273 0.999957C33.0462 10.476 40.8944 18 50.5 18Z"/>
</mask>
<path fill-rule="evenodd" clip-rule="evenodd" d="M50.5 18C60.1056 18 67.9538 10.476 68.4727 0.999956C68.5029 0.448497 68.9477 0 69.5 0L96.5 0C98.7091 0 100.5 1.79086 100.5 4L100.5 31C100.5 31.5523 100.948 31.9971 101.5 32.0273C110.976 32.5462 118.5 40.3944 118.5 50C118.5 59.6056 110.976 67.4538 101.5 67.9727C100.948 68.0029 100.5 68.4477 100.5 69V96C100.5 98.2091 98.7091 100 96.5 100H69.5C68.9477 100 68.5029 99.5515 68.4727 99C67.9538 89.524 60.1056 82 50.5 82C40.8944 82 33.0462 89.524 32.5273 99C32.4971 99.5515 32.0523 100 31.5 100H4.5C2.29086 100 0.5 98.2091 0.5 96L0.5 69C0.5 68.4477 0.948498 68.0029 1.49996 67.9727C10.976 67.4538 18.5 59.6056 18.5 50C18.5 40.3944 10.976 32.5462 1.49996 32.0273C0.948497 31.9971 0.5 31.5523 0.5 31L0.5 4C0.5 1.79086 2.29086 0 4.5 0L31.5 0C32.0523 0 32.4971 0.448498 32.5273 0.999957C33.0462 10.476 40.8944 18 50.5 18Z" fill="#FFFFFF" fill-opacity="1"/>
<path d="M100.5 4H101.5H100.5ZM32.5273 0.999957L33.5258 0.945284L32.5273 0.999957ZM1.49996 67.9727L1.44528 66.9742L1.49996 67.9727ZM32.5273 99L31.5288 98.9454L32.5273 99ZM101.5 67.9727L101.555 68.9712L101.5 67.9727ZM68.4727 99L69.4712 98.9454L68.4727 99ZM100.5 31H99.5H100.5ZM101.5 32.0273L101.555 31.0288L101.5 32.0273ZM67.4742 0.945282C66.9842 9.89397 59.5716 17 50.5 17L50.5 19C60.6396 19 68.9235 11.058 69.4712 1.05463L67.4742 0.945282ZM96.5 -1L69.5 -1V1L96.5 1V-1ZM101.5 4C101.5 1.23858 99.2614 -1 96.5 -1V1C98.1569 1 99.5 2.34315 99.5 4L101.5 4ZM101.5 31L101.5 4L99.5 4L99.5 31H101.5ZM101.445 33.0258C110.394 33.5158 117.5 40.9284 117.5 50H119.5C119.5 39.8604 111.558 31.5765 101.555 31.0288L101.445 33.0258ZM117.5 50C117.5 59.0716 110.394 66.4842 101.445 66.9742L101.555 68.9712C111.558 68.4235 119.5 60.1396 119.5 50H117.5ZM101.5 96V69H99.5V96H101.5ZM96.5 101C99.2614 101 101.5 98.7614 101.5 96H99.5C99.5 97.6569 98.1569 99 96.5 99V101ZM69.5 101H96.5V99H69.5V101ZM50.5 83C59.5716 83 66.9842 90.106 67.4742 99.0547L69.4712 98.9454C68.9235 88.942 60.6396 81 50.5 81V83ZM33.5258 99.0547C34.0158 90.106 41.4284 83 50.5 83V81C40.3604 81 32.0765 88.942 31.5288 98.9454L33.5258 99.0547ZM4.5 101H31.5L31.5 99H4.5V101ZM-0.5 96C-0.5 98.7614 1.73858 101 4.5 101V99C2.84315 99 1.5 97.6569 1.5 96H-0.5ZM-0.5 69L-0.5 96H1.5L1.5 69H-0.5ZM17.5 50C17.5 59.0716 10.394 66.4842 1.44528 66.9742L1.55463 68.9712C11.558 68.4235 19.5 60.1396 19.5 50L17.5 50ZM1.44528 33.0258C10.394 33.5158 17.5 40.9284 17.5 50L19.5 50C19.5 39.8604 11.558 31.5765 1.55463 31.0288L1.44528 33.0258ZM-0.5 4L-0.5 31H1.5L1.5 4H-0.5ZM4.5 -1C1.73858 -1 -0.5 1.23858 -0.5 4H1.5C1.5 2.34315 2.84315 1 4.5 1V-1ZM31.5 -1L4.5 -1V1L31.5 1V-1ZM50.5 17C41.4284 17 34.0158 9.89397 33.5258 0.945284L31.5288 1.05463C32.0765 11.058 40.3604 19 50.5 19L50.5 17ZM31.5 1C31.5012 1 31.5012 1.0001 31.5006 0.999977C31.5001 0.999868 31.4998 0.999738 31.4999 0.999766C31.5001 0.999846 31.5033 1.00127 31.5081 1.006C31.5187 1.0164 31.5276 1.03335 31.5288 1.05463L33.5258 0.945284C33.4685 -0.100786 32.6183 -1 31.5 -1V1ZM1.55463 31.0288C1.53335 31.0276 1.5164 31.0187 1.506 31.0081C1.50127 31.0033 1.49985 31.0001 1.49977 30.9999C1.49974 30.9998 1.49987 31.0001 1.49998 31.0007C1.5001 31.0012 1.5 31.0012 1.5 31H-0.5C-0.5 32.1183 0.399211 32.9685 1.44528 33.0258L1.55463 31.0288ZM1.5 69C1.5 68.9988 1.5001 68.9988 1.49998 68.9994C1.49987 68.9999 1.49974 69.0002 1.49977 69.0001C1.49985 68.9999 1.50127 68.9967 1.506 68.9919C1.5164 68.9813 1.53335 68.9724 1.55463 68.9712L1.44528 66.9742C0.399214 67.0315 -0.5 67.8817 -0.5 69H1.5ZM69.4712 1.05463C69.4724 1.03335 69.4813 1.0164 69.4919 1.006C69.4967 1.00127 69.4999 0.999846 69.5001 0.999766C69.5002 0.999738 69.4999 0.999868 69.4993 0.999977C69.4988 1.0001 69.4988 1 69.5 1V-1C68.3817 -1 67.5315 -0.100789 67.4742 0.945282L69.4712 1.05463ZM31.5288 98.9454C31.5276 98.9667 31.5187 98.9836 31.5081 98.994C31.5033 98.9987 31.5001 99.0002 31.4999 99.0002C31.4998 99.0003 31.5001 99.0001 31.5007 99C31.5012 98.9999 31.5012 99 31.5 99L31.5 101C32.6183 101 33.4685 100.101 33.5258 99.0547L31.5288 98.9454ZM101.445 66.9742C100.399 67.0315 99.5 67.8817 99.5 69H101.5C101.5 68.9988 101.5 68.9988 101.5 68.9994C101.5 68.9999 101.5 69.0002 101.5 69.0001C101.5 68.9999 101.501 68.9967 101.506 68.9919C101.516 68.9813 101.533 68.9724 101.555 68.9712L101.445 66.9742ZM69.5 99C69.4988 99 69.4988 98.9999 69.4994 99C69.4999 99.0001 69.5002 99.0003 69.5001 99.0002C69.4999 99.0002 69.4967 98.9987 69.4919 98.994C69.4813 98.9836 69.4724 98.9666 69.4712 98.9454L67.4742 99.0547C67.5315 100.101 68.3817 101 69.5 101V99ZM99.5 31C99.5 32.1183 100.399 32.9685 101.445 33.0258L101.555 31.0288C101.533 31.0276 101.516 31.0187 101.506 31.0081C101.501 31.0033 101.5 31.0001 101.5 30.9999C101.5 30.9998 101.5 31.0001 101.5 31.0006C101.5 31.0012 101.5 31.0012 101.5 31H99.5Z" fill="#D1D5DB" mask="url(#path-1-inside-1_673_10135)"/>
<path d="M43.9115 71.06C43.7515 71.06 43.6315 71.016 43.5515 70.928C43.4715 70.832 43.4315 70.7 43.4315 70.532V65.624C43.4315 65.456 43.4715 65.328 43.5515 65.24C43.6315 65.152 43.7515 65.108 43.9115 65.108C44.0635 65.108 44.1835 65.152 44.2715 65.24C44.3595 65.328 44.4035 65.456 44.4035 65.624V70.532C44.4035 70.7 44.3595 70.832 44.2715 70.928C44.1915 71.016 44.0715 71.06 43.9115 71.06ZM43.9115 63.764C43.7115 63.764 43.5555 63.712 43.4435 63.608C43.3315 63.496 43.2755 63.348 43.2755 63.164C43.2755 62.972 43.3315 62.828 43.4435 62.732C43.5555 62.628 43.7115 62.576 43.9115 62.576C44.1195 62.576 44.2755 62.628 44.3795 62.732C44.4915 62.828 44.5475 62.972 44.5475 63.164C44.5475 63.348 44.4915 63.496 44.3795 63.608C44.2755 63.712 44.1195 63.764 43.9115 63.764ZM46.7006 73.244C46.5406 73.244 46.4206 73.2 46.3406 73.112C46.2606 73.032 46.2206 72.912 46.2206 72.752V65.576C46.2206 65.416 46.2606 65.296 46.3406 65.216C46.4206 65.128 46.5366 65.084 46.6886 65.084C46.8486 65.084 46.9686 65.128 47.0486 65.216C47.1366 65.296 47.1806 65.416 47.1806 65.576V66.716L47.0486 66.548C47.1766 66.092 47.4286 65.732 47.8046 65.468C48.1886 65.196 48.6446 65.06 49.1726 65.06C49.6926 65.06 50.1446 65.184 50.5286 65.432C50.9206 65.672 51.2206 66.02 51.4286 66.476C51.6446 66.924 51.7526 67.46 51.7526 68.084C51.7526 68.7 51.6446 69.236 51.4286 69.692C51.2206 70.14 50.9246 70.488 50.5406 70.736C50.1566 70.984 49.7006 71.108 49.1726 71.108C48.6446 71.108 48.1926 70.976 47.8166 70.712C47.4406 70.44 47.1846 70.08 47.0486 69.632H47.1926V72.752C47.1926 72.912 47.1486 73.032 47.0606 73.112C46.9726 73.2 46.8526 73.244 46.7006 73.244ZM48.9686 70.328C49.3366 70.328 49.6526 70.24 49.9166 70.064C50.1886 69.888 50.3966 69.632 50.5406 69.296C50.6926 68.96 50.7686 68.556 50.7686 68.084C50.7686 67.356 50.6046 66.8 50.2766 66.416C49.9566 66.032 49.5206 65.84 48.9686 65.84C48.6086 65.84 48.2926 65.928 48.0206 66.104C47.7486 66.272 47.5366 66.524 47.3846 66.86C47.2406 67.188 47.1686 67.596 47.1686 68.084C47.1686 68.804 47.3326 69.36 47.6606 69.752C47.9886 70.136 48.4246 70.328 48.9686 70.328ZM53.1118 71.072C53.0078 71.072 52.9158 71.04 52.8358 70.976C52.7558 70.912 52.7118 70.828 52.7038 70.724C52.7038 70.612 52.7558 70.496 52.8598 70.376L54.9598 67.736V68.24L52.9918 65.78C52.8878 65.652 52.8358 65.536 52.8358 65.432C52.8438 65.328 52.8878 65.244 52.9678 65.18C53.0478 65.116 53.1398 65.084 53.2438 65.084C53.3638 65.084 53.4638 65.108 53.5438 65.156C53.6318 65.196 53.7118 65.264 53.7838 65.36L55.4998 67.532H55.1638L56.8918 65.36C56.9638 65.264 57.0398 65.196 57.1198 65.156C57.1998 65.108 57.2998 65.084 57.4198 65.084C57.5318 65.084 57.6238 65.116 57.6958 65.18C57.7758 65.244 57.8158 65.332 57.8158 65.444C57.8238 65.548 57.7758 65.664 57.6718 65.792L55.7158 68.216V67.772L57.8158 70.376C57.9118 70.496 57.9558 70.612 57.9478 70.724C57.9478 70.828 57.9078 70.912 57.8278 70.976C57.7478 71.04 57.6518 71.072 57.5398 71.072C57.4278 71.072 57.3278 71.048 57.2398 71C57.1598 70.96 57.0798 70.892 56.9998 70.796L55.1518 68.468H55.4998L53.6518 70.796C53.5798 70.884 53.4998 70.952 53.4118 71C53.3318 71.048 53.2318 71.072 53.1118 71.072Z" fill="#030712"/>
<path d="M42.0213 34.5903H39.3416C38.985 34.5903 38.6963 34.3016 38.6963 33.945V32.3656C38.6963 32.0091 38.985 31.7203 39.3416 31.7203H42.0213C42.3778 31.7203 42.6666 32.0091 42.6666 32.3656V33.945C42.6659 34.1159 42.5977 34.2797 42.4768 34.4005C42.3559 34.5214 42.1922 34.5896 42.0213 34.5903Z" fill="#90A4AE"/>
<path d="M40.0612 34.8637H39.1862V32.5887C39.1862 32.3481 39.3831 32.1512 39.6237 32.1512C39.8644 32.1512 40.0612 32.3481 40.0612 32.5887V34.8637Z" fill="#94D1E0"/>
<path d="M45.7663 33.8313H44.5609C44.3203 33.8313 44.1256 33.6366 44.1256 33.396V32.1906C44.1256 31.95 44.2416 31.845 44.5609 31.7553C44.8803 31.6656 45.4622 31.6547 45.7663 31.7553C46.0156 31.8384 46.2016 31.95 46.2016 32.1906V33.396C46.2016 33.6366 46.0047 33.8313 45.7663 33.8313Z" fill="#546E7A"/>
<path d="M37.375 38.8844H63.625V52.04H37.375V38.8844Z" fill="#212121"/>
<path d="M37.375 51.7425V52.3397C37.375 52.7728 37.7272 53.125 38.1603 53.125H62.8419C63.275 53.125 63.6272 52.7728 63.6272 52.3397V51.7425H37.375Z" fill="#B0BEC5"/>
<path d="M45.9806 34.8703H44.3422C43.8084 34.8703 43.3753 34.4372 43.3753 33.9034V33.7612C43.3753 33.2275 43.8084 32.7944 44.3422 32.7944H45.9806C46.5144 32.7944 46.9475 33.2275 46.9475 33.7612V33.9034C46.9478 34.0305 46.923 34.1564 46.8745 34.2738C46.8261 34.3913 46.7549 34.498 46.665 34.5878C46.5752 34.6777 46.4685 34.7489 46.351 34.7974C46.2336 34.8458 46.1077 34.8706 45.9806 34.8703Z" fill="#90A4AE"/>
<path d="M63.1284 33.4725H38.2609C37.7709 33.4725 37.375 33.8684 37.375 34.3584V39.1097H63.625V33.9691C63.625 33.6934 63.4019 33.4725 63.1284 33.4725Z" fill="#B0BEC5"/>
<path d="M61.1072 38.0838H57.1369C57.0255 38.0838 56.9187 38.0395 56.8399 37.9607C56.7611 37.882 56.7169 37.7751 56.7169 37.6638V34.8966C56.7169 34.6647 56.905 34.4766 57.1369 34.4766H61.1072C61.3391 34.4766 61.5272 34.6647 61.5272 34.8966V37.6659C61.5272 37.8956 61.3412 38.0838 61.1072 38.0838Z" fill="#78909C"/>
<path d="M56.7169 37.5588V34.9425C56.7169 34.6844 56.9247 34.4766 57.1828 34.4766H61.0744C61.2931 34.4766 61.3828 34.5969 61.3828 34.5969L56.8678 37.97C56.8678 37.97 56.7169 37.8781 56.7169 37.5588Z" fill="#757575"/>
<path d="M57.5963 35.135H60.6478V37.4253H57.5963V35.135Z" fill="#212121"/>
<path d="M38.8144 51.3466H37.7469C37.5412 51.3466 37.375 51.1803 37.375 50.9747V40.9362C37.375 40.7306 37.5412 40.5644 37.7469 40.5644H38.8144C39.02 40.5644 39.1862 40.7306 39.1862 40.9362V50.9747C39.1862 51.1803 39.0178 51.3466 38.8144 51.3466ZM63.2487 51.3466H62.1813C61.9756 51.3466 61.8094 51.1803 61.8094 50.9747V40.9362C61.8094 40.7306 61.9756 40.5644 62.1813 40.5644H63.2487C63.4544 40.5644 63.6206 40.7306 63.6206 40.9362V50.9747C63.6206 51.1803 63.4544 51.3466 63.2487 51.3466Z" fill="#616161"/>
<path d="M38.2588 52.8275C38.0181 52.8275 37.8213 52.6306 37.8213 52.39V51.8562H38.6963V52.39C38.6963 52.506 38.6502 52.6173 38.5681 52.6994C38.4861 52.7814 38.3748 52.8275 38.2588 52.8275ZM63.1569 38.8012H62.2819V34.3387C62.2819 34.0981 62.4788 33.9012 62.7194 33.9012C62.96 33.9012 63.1569 34.0981 63.1569 34.3387V38.8012ZM38.9413 38.8012H38.0663V34.3387C38.0663 34.0981 38.2631 33.9012 38.5038 33.9012C38.7444 33.9012 38.9413 34.0981 38.9413 34.3387V38.8012ZM62.7194 52.8275C62.4788 52.8275 62.2819 52.6306 62.2819 52.39V51.8562H63.1569V52.39C63.1569 52.506 63.1108 52.6173 63.0287 52.6994C62.9467 52.7814 62.8354 52.8275 62.7194 52.8275Z" fill="#B9E4EA"/>
<path d="M52.3353 52.4906C56.2967 52.4906 59.5081 49.2792 59.5081 45.3178C59.5081 41.3564 56.2967 38.145 52.3353 38.145C48.3739 38.145 45.1625 41.3564 45.1625 45.3178C45.1625 49.2792 48.3739 52.4906 52.3353 52.4906Z" fill="#616161"/>
<path d="M52.3353 51.5456C55.7748 51.5456 58.5631 48.7573 58.5631 45.3178C58.5631 41.8783 55.7748 39.09 52.3353 39.09C48.8958 39.09 46.1075 41.8783 46.1075 45.3178C46.1075 48.7573 48.8958 51.5456 52.3353 51.5456Z" fill="#E0E0E0"/>
<path d="M52.3353 49.765C54.7914 49.765 56.7825 47.7739 56.7825 45.3178C56.7825 42.8617 54.7914 40.8706 52.3353 40.8706C49.8792 40.8706 47.8881 42.8617 47.8881 45.3178C47.8881 47.7739 49.8792 49.765 52.3353 49.765Z" fill="#2F7889"/>
<path d="M52.3353 51.0403C55.4958 51.0403 58.0578 48.4783 58.0578 45.3178C58.0578 42.1574 55.4958 39.5953 52.3353 39.5953C49.1749 39.5953 46.6128 42.1574 46.6128 45.3178C46.6128 48.4783 49.1749 51.0403 52.3353 51.0403Z" fill="black"/>
<path d="M52.3353 49.6797C54.7443 49.6797 56.6972 47.7268 56.6972 45.3178C56.6972 42.9088 54.7443 40.9559 52.3353 40.9559C49.9263 40.9559 47.9734 42.9088 47.9734 45.3178C47.9734 47.7268 49.9263 49.6797 52.3353 49.6797Z" fill="#2F7889"/>
<path d="M51.3028 41.6581C49.9225 41.9709 49.0978 43.3141 49.0978 44.305C49.0978 45.1078 49.6294 44.9066 49.8 44.6156C50.2397 43.8697 50.7712 43.2484 51.6878 42.9881C52.0553 42.8831 52.4841 42.6534 52.4403 42.2247C52.3791 41.6144 51.7731 41.5509 51.3028 41.6581Z" fill="#94D1E0"/>
<path opacity="0.25" d="M52.3353 47.2647C53.4105 47.2647 54.2822 46.393 54.2822 45.3178C54.2822 44.2426 53.4105 43.3709 52.3353 43.3709C51.2601 43.3709 50.3884 44.2426 50.3884 45.3178C50.3884 46.393 51.2601 47.2647 52.3353 47.2647Z" fill="black"/>
<path d="M45.6634 36.2222C45.565 36.2047 45.5431 36.0734 45.6284 36.0253L48.47 34.5903C48.9972 34.2906 49.0431 34.144 48.8703 33.6781L47.1925 28.8175C47.1575 28.7147 47.28 28.6315 47.3631 28.7015L51.0622 31.834C51.7556 32.394 51.9853 32.16 52.1756 31.8297L54.2253 28.205C54.2371 28.1852 54.255 28.1698 54.2763 28.161C54.2976 28.1522 54.3212 28.1505 54.3436 28.1561C54.3659 28.1617 54.3858 28.1744 54.4004 28.1923C54.4149 28.2102 54.4234 28.2323 54.4244 28.2553L54.4397 31.8975C54.4244 32.5997 54.7241 32.4706 55.7019 32.219L58.8716 31.3331C58.9766 31.3025 59.0531 31.4294 58.9787 31.5081L55.4919 35.135C55.2666 35.4237 55.2906 35.5156 55.3869 35.9159L56.0934 37.97C56.1197 38.0465 56.0541 38.1253 55.9731 38.11L53.6172 37.4253C53.265 37.364 53.0922 37.364 52.8691 37.7272L51.2044 40.4375C51.1497 40.5031 51.0031 40.5753 50.9572 40.4419L50.0734 37.2984C49.9619 36.9331 49.8087 36.9265 49.4325 36.8565L45.6634 36.2222Z" fill="#FF8F00"/>
<path d="M47.8903 35.8088L50.6794 34.8703L48.5641 30.6572L51.9219 33.9013L53.4662 31.1253L53.2847 34.1944L56.4631 33.0022L54.0175 35.3559L54.9844 37.0163L52.7969 36.3513L51.3509 38.8975L50.9025 36.1303L47.8903 35.8088Z" fill="#FFEE58"/>
</svg>
