<svg width="137" height="118" viewBox="0 0 137 118" fill="none" xmlns="http://www.w3.org/2000/svg">
<mask id="path-1-inside-1_673_10136" fill="white">
<path fill-rule="evenodd" clip-rule="evenodd" d="M87.5 18C86.9477 18 86.5029 17.5515 86.4727 17C85.9538 7.52403 78.1056 0 68.5 0C58.8944 0 51.0462 7.52403 50.5273 17C50.4971 17.5515 50.0523 18 49.5 18L22.5 18C20.2909 18 18.5 19.7909 18.5 22L18.5 49C18.5 49.5523 18.0515 49.9971 17.5 50.0273C8.02403 50.5462 0.5 58.3944 0.5 68C0.5 77.6056 8.02403 85.4538 17.5 85.9727C18.0515 86.0029 18.5 86.4477 18.5 87L18.5 114C18.5 116.209 20.2909 118 22.5 118L49.5 118C50.0523 118 50.4971 117.552 50.5273 117C51.0462 107.524 58.8944 100 68.5 100C78.1056 100 85.9538 107.524 86.4727 117C86.5029 117.552 86.9477 118 87.5 118L114.5 118C116.709 118 118.5 116.209 118.5 114V86C118.5 85.4477 118.948 85.0029 119.5 84.9727C128.976 84.4538 136.5 76.6056 136.5 67C136.5 57.3944 128.976 49.5462 119.5 49.0273C118.948 48.9971 118.5 48.5523 118.5 48L118.5 22C118.5 19.7909 116.709 18 114.5 18L87.5 18Z"/>
</mask>
<path fill-rule="evenodd" clip-rule="evenodd" d="M87.5 18C86.9477 18 86.5029 17.5515 86.4727 17C85.9538 7.52403 78.1056 0 68.5 0C58.8944 0 51.0462 7.52403 50.5273 17C50.4971 17.5515 50.0523 18 49.5 18L22.5 18C20.2909 18 18.5 19.7909 18.5 22L18.5 49C18.5 49.5523 18.0515 49.9971 17.5 50.0273C8.02403 50.5462 0.5 58.3944 0.5 68C0.5 77.6056 8.02403 85.4538 17.5 85.9727C18.0515 86.0029 18.5 86.4477 18.5 87L18.5 114C18.5 116.209 20.2909 118 22.5 118L49.5 118C50.0523 118 50.4971 117.552 50.5273 117C51.0462 107.524 58.8944 100 68.5 100C78.1056 100 85.9538 107.524 86.4727 117C86.5029 117.552 86.9477 118 87.5 118L114.5 118C116.709 118 118.5 116.209 118.5 114V86C118.5 85.4477 118.948 85.0029 119.5 84.9727C128.976 84.4538 136.5 76.6056 136.5 67C136.5 57.3944 128.976 49.5462 119.5 49.0273C118.948 48.9971 118.5 48.5523 118.5 48L118.5 22C118.5 19.7909 116.709 18 114.5 18L87.5 18Z" fill="#D1D5DB" fill-opacity="0.2"/>
<path d="M18.5 22L17.5 22L17.5 22L18.5 22ZM18.5 114L17.5 114V114H18.5ZM118.5 22H119.5H118.5ZM119.5 49.0273L119.555 48.0288L119.5 49.0273ZM118.5 48H117.5H118.5ZM119.5 84.9727L119.445 83.9742L119.5 84.9727ZM50.5273 117L49.5288 116.945L50.5273 117ZM18.5 49L17.5 49L18.5 49ZM17.5 50.0273L17.5547 51.0258L17.5 50.0273ZM17.5 85.9727L17.4454 86.9712L17.5 85.9727ZM18.5 87L17.5 87L18.5 87ZM50.5273 17L49.5288 16.9454L50.5273 17ZM86.4727 117L87.4712 116.945L86.4727 117ZM86.4727 17L85.4742 17.0547L86.4727 17ZM68.5 1C77.5716 1 84.9842 8.10603 85.4742 17.0547L87.4712 16.9454C86.9235 6.94204 78.6396 -1 68.5 -1V1ZM51.5258 17.0547C52.0158 8.10603 59.4284 1 68.5 1V-1C58.3604 -1 50.0765 6.94204 49.5288 16.9454L51.5258 17.0547ZM49.5 17L22.5 17V19L49.5 19V17ZM22.5 17C19.7386 17 17.5 19.2386 17.5 22H19.5C19.5 20.3431 20.8431 19 22.5 19V17ZM17.5 22L17.5 49L19.5 49L19.5 22L17.5 22ZM17.4454 49.0288C7.44204 49.5765 -0.5 57.8604 -0.5 68H1.5C1.5 58.9284 8.60603 51.5158 17.5547 51.0258L17.4454 49.0288ZM-0.5 68C-0.5 78.1396 7.44204 86.4235 17.4454 86.9712L17.5547 84.9742C8.60603 84.4842 1.5 77.0716 1.5 68H-0.5ZM17.5 87L17.5 114L19.5 114L19.5 87L17.5 87ZM17.5 114C17.5 116.761 19.7386 119 22.5 119V117C20.8431 117 19.5 115.657 19.5 114H17.5ZM22.5 119L49.5 119V117L22.5 117V119ZM51.5258 117.055C52.0158 108.106 59.4284 101 68.5 101V99C58.3604 99 50.0765 106.942 49.5288 116.945L51.5258 117.055ZM68.5 101C77.5716 101 84.9842 108.106 85.4742 117.055L87.4712 116.945C86.9235 106.942 78.6396 99 68.5 99V101ZM87.5 119L114.5 119V117L87.5 117V119ZM114.5 119C117.261 119 119.5 116.761 119.5 114H117.5C117.5 115.657 116.157 117 114.5 117V119ZM119.5 114V86H117.5V114H119.5ZM119.555 85.9712C129.558 85.4235 137.5 77.1396 137.5 67H135.5C135.5 76.0716 128.394 83.4842 119.445 83.9742L119.555 85.9712ZM137.5 67C137.5 56.8604 129.558 48.5765 119.555 48.0288L119.445 50.0258C128.394 50.5158 135.5 57.9284 135.5 67H137.5ZM119.5 48L119.5 22L117.5 22L117.5 48H119.5ZM119.5 22C119.5 19.2386 117.261 17 114.5 17V19C116.157 19 117.5 20.3431 117.5 22H119.5ZM114.5 17L87.5 17V19L114.5 19V17ZM119.555 48.0288C119.533 48.0276 119.516 48.0187 119.506 48.0081C119.501 48.0033 119.5 48.0001 119.5 47.9999C119.5 47.9998 119.5 48.0001 119.5 48.0006C119.5 48.0012 119.5 48.0012 119.5 48H117.5C117.5 49.1183 118.399 49.9685 119.445 50.0258L119.555 48.0288ZM119.5 86C119.5 85.9988 119.5 85.9988 119.5 85.9994C119.5 85.9999 119.5 86.0002 119.5 86.0001C119.5 85.9999 119.501 85.9967 119.506 85.9919C119.516 85.9813 119.533 85.9724 119.555 85.9712L119.445 83.9742C118.399 84.0315 117.5 84.8817 117.5 86H119.5ZM49.5 119C50.6183 119 51.4685 118.101 51.5258 117.055L49.5288 116.945C49.5276 116.967 49.5187 116.984 49.5081 116.994C49.5033 116.999 49.5001 117 49.4999 117C49.4998 117 49.5001 117 49.5007 117C49.5012 117 49.5012 117 49.5 117V119ZM17.5 49C17.5 49.0012 17.4999 49.0012 17.5 49.0007C17.5001 49.0001 17.5003 48.9998 17.5002 48.9999C17.5002 49.0001 17.4987 49.0033 17.494 49.0081C17.4836 49.0187 17.4667 49.0276 17.4454 49.0288L17.5547 51.0258C18.6008 50.9685 19.5 50.1183 19.5 49L17.5 49ZM17.4454 86.9712C17.4666 86.9724 17.4836 86.9813 17.494 86.9919C17.4987 86.9967 17.5002 86.9999 17.5002 87.0001C17.5003 87.0002 17.5001 86.9999 17.5 86.9994C17.4999 86.9988 17.5 86.9988 17.5 87L19.5 87C19.5 85.8817 18.6008 85.0315 17.5547 84.9742L17.4454 86.9712ZM49.5288 16.9454C49.5276 16.9667 49.5187 16.9836 49.5081 16.994C49.5033 16.9987 49.5001 17.0002 49.4999 17.0002C49.4998 17.0003 49.5001 17.0001 49.5006 17C49.5012 16.9999 49.5012 17 49.5 17V19C50.6183 19 51.4685 18.1008 51.5258 17.0547L49.5288 16.9454ZM85.4742 117.055C85.5315 118.101 86.3817 119 87.5 119V117C87.4988 117 87.4988 117 87.4994 117C87.4999 117 87.5002 117 87.5001 117C87.4999 117 87.4967 116.999 87.4919 116.994C87.4813 116.984 87.4724 116.967 87.4712 116.945L85.4742 117.055ZM85.4742 17.0547C85.5315 18.1008 86.3817 19 87.5 19V17C87.4988 17 87.4988 16.9999 87.4994 17C87.4999 17.0001 87.5002 17.0003 87.5001 17.0002C87.4999 17.0002 87.4967 16.9987 87.4919 16.994C87.4813 16.9836 87.4724 16.9666 87.4712 16.9454L85.4742 17.0547Z" fill="#D1D5DB" mask="url(#path-1-inside-1_673_10136)"/>
<path d="M31.3819 91.292C31.2619 91.3 31.1659 91.28 31.0939 91.232C31.0139 91.184 30.9619 91.12 30.9379 91.04C30.9059 90.968 30.8979 90.892 30.9139 90.812C30.9219 90.74 30.9539 90.676 31.0099 90.62C31.0659 90.564 31.1419 90.536 31.2379 90.536C31.6779 90.512 32.0019 90.392 32.2099 90.176C32.4259 89.968 32.5339 89.636 32.5339 89.18V83.576C32.5339 83.416 32.5739 83.296 32.6539 83.216C32.7419 83.128 32.8659 83.084 33.0259 83.084C33.1779 83.084 33.2939 83.128 33.3739 83.216C33.4619 83.296 33.5059 83.416 33.5059 83.576V89.108C33.5059 89.596 33.4219 89.996 33.2539 90.308C33.0939 90.628 32.8579 90.864 32.5459 91.016C32.2339 91.176 31.8459 91.268 31.3819 91.292ZM33.0139 81.764C32.8139 81.764 32.6579 81.712 32.5459 81.608C32.4339 81.496 32.3779 81.348 32.3779 81.164C32.3779 80.972 32.4339 80.828 32.5459 80.732C32.6579 80.628 32.8139 80.576 33.0139 80.576C33.2219 80.576 33.3819 80.628 33.4939 80.732C33.6059 80.828 33.6619 80.972 33.6619 81.164C33.6619 81.348 33.6059 81.496 33.4939 81.608C33.3819 81.712 33.2219 81.764 33.0139 81.764ZM35.8139 89.06C35.6539 89.06 35.5339 89.016 35.4539 88.928C35.3739 88.832 35.3339 88.7 35.3339 88.532V83.624C35.3339 83.456 35.3739 83.328 35.4539 83.24C35.5339 83.152 35.6539 83.108 35.8139 83.108C35.9659 83.108 36.0859 83.152 36.1739 83.24C36.2619 83.328 36.3059 83.456 36.3059 83.624V88.532C36.3059 88.7 36.2619 88.832 36.1739 88.928C36.0939 89.016 35.9739 89.06 35.8139 89.06ZM35.8139 81.764C35.6139 81.764 35.4579 81.712 35.3459 81.608C35.2339 81.496 35.1779 81.348 35.1779 81.164C35.1779 80.972 35.2339 80.828 35.3459 80.732C35.4579 80.628 35.6139 80.576 35.8139 80.576C36.0219 80.576 36.1779 80.628 36.2819 80.732C36.3939 80.828 36.4499 80.972 36.4499 81.164C36.4499 81.348 36.3939 81.496 36.2819 81.608C36.1779 81.712 36.0219 81.764 35.8139 81.764ZM38.6269 89.084C38.4669 89.084 38.3469 89.04 38.2669 88.952C38.1869 88.864 38.1469 88.74 38.1469 88.58V83.576C38.1469 83.416 38.1869 83.296 38.2669 83.216C38.3469 83.128 38.4629 83.084 38.6149 83.084C38.7669 83.084 38.8829 83.128 38.9629 83.216C39.0509 83.296 39.0949 83.416 39.0949 83.576V84.632L38.9629 84.464C39.1149 84.016 39.3589 83.672 39.6949 83.432C40.0389 83.184 40.4469 83.06 40.9189 83.06C41.4149 83.06 41.8149 83.18 42.1189 83.42C42.4309 83.652 42.6389 84.016 42.7429 84.512H42.5629C42.7069 84.064 42.9629 83.712 43.3309 83.456C43.7069 83.192 44.1429 83.06 44.6389 83.06C45.0789 83.06 45.4389 83.144 45.7189 83.312C46.0069 83.48 46.2229 83.736 46.3669 84.08C46.5109 84.416 46.5829 84.844 46.5829 85.364V88.58C46.5829 88.74 46.5389 88.864 46.4509 88.952C46.3709 89.04 46.2509 89.084 46.0909 89.084C45.9389 89.084 45.8189 89.04 45.7309 88.952C45.6509 88.864 45.6109 88.74 45.6109 88.58V85.412C45.6109 84.876 45.5189 84.484 45.3349 84.236C45.1509 83.98 44.8389 83.852 44.3989 83.852C43.9189 83.852 43.5389 84.02 43.2589 84.356C42.9869 84.684 42.8509 85.132 42.8509 85.7V88.58C42.8509 88.74 42.8069 88.864 42.7189 88.952C42.6389 89.04 42.5189 89.084 42.3589 89.084C42.2069 89.084 42.0869 89.04 41.9989 88.952C41.9189 88.864 41.8789 88.74 41.8789 88.58V85.412C41.8789 84.876 41.7829 84.484 41.5909 84.236C41.4069 83.98 41.0989 83.852 40.6669 83.852C40.1869 83.852 39.8069 84.02 39.5269 84.356C39.2549 84.684 39.1189 85.132 39.1189 85.7V88.58C39.1189 88.916 38.9549 89.084 38.6269 89.084ZM48.8803 91.244C48.7203 91.244 48.6003 91.2 48.5203 91.112C48.4403 91.032 48.4003 90.912 48.4003 90.752V83.576C48.4003 83.416 48.4403 83.296 48.5203 83.216C48.6003 83.128 48.7163 83.084 48.8683 83.084C49.0283 83.084 49.1483 83.128 49.2283 83.216C49.3163 83.296 49.3603 83.416 49.3603 83.576V84.716L49.2283 84.548C49.3563 84.092 49.6083 83.732 49.9843 83.468C50.3683 83.196 50.8243 83.06 51.3523 83.06C51.8723 83.06 52.3243 83.184 52.7083 83.432C53.1003 83.672 53.4003 84.02 53.6083 84.476C53.8243 84.924 53.9323 85.46 53.9323 86.084C53.9323 86.7 53.8243 87.236 53.6083 87.692C53.4003 88.14 53.1043 88.488 52.7203 88.736C52.3363 88.984 51.8803 89.108 51.3523 89.108C50.8243 89.108 50.3723 88.976 49.9963 88.712C49.6203 88.44 49.3643 88.08 49.2283 87.632H49.3723V90.752C49.3723 90.912 49.3283 91.032 49.2403 91.112C49.1523 91.2 49.0323 91.244 48.8803 91.244ZM51.1483 88.328C51.5163 88.328 51.8323 88.24 52.0963 88.064C52.3683 87.888 52.5763 87.632 52.7203 87.296C52.8723 86.96 52.9483 86.556 52.9483 86.084C52.9483 85.356 52.7843 84.8 52.4563 84.416C52.1363 84.032 51.7003 83.84 51.1483 83.84C50.7883 83.84 50.4723 83.928 50.2003 84.104C49.9283 84.272 49.7163 84.524 49.5643 84.86C49.4203 85.188 49.3483 85.596 49.3483 86.084C49.3483 86.804 49.5123 87.36 49.8403 87.752C50.1683 88.136 50.6043 88.328 51.1483 88.328ZM55.8602 86.204C55.7402 86.204 55.6402 86.168 55.5602 86.096C55.4802 86.016 55.4402 85.92 55.4402 85.808C55.4402 85.688 55.4802 85.592 55.5602 85.52C55.6402 85.44 55.7402 85.4 55.8602 85.4H58.5602C58.6722 85.4 58.7682 85.44 58.8482 85.52C58.9282 85.592 58.9682 85.688 58.9682 85.808C58.9682 85.92 58.9282 86.016 58.8482 86.096C58.7682 86.168 58.6722 86.204 58.5602 86.204H55.8602ZM63.3059 89.108C62.7219 89.108 62.2179 88.98 61.7939 88.724C61.3699 88.468 61.0419 88.112 60.8099 87.656C60.5859 87.192 60.4739 86.656 60.4739 86.048C60.4739 85.584 60.5379 85.168 60.6659 84.8C60.7939 84.432 60.9819 84.12 61.2299 83.864C61.4779 83.6 61.7739 83.4 62.1179 83.264C62.4699 83.128 62.8659 83.06 63.3059 83.06C63.5939 83.06 63.8939 83.104 64.2059 83.192C64.5179 83.28 64.8019 83.432 65.0579 83.648C65.1379 83.704 65.1899 83.772 65.2139 83.852C65.2379 83.932 65.2379 84.012 65.2139 84.092C65.1899 84.164 65.1499 84.228 65.0939 84.284C65.0379 84.332 64.9659 84.36 64.8779 84.368C64.7979 84.376 64.7139 84.348 64.6259 84.284C64.4179 84.124 64.2059 84.012 63.9899 83.948C63.7739 83.884 63.5659 83.852 63.3659 83.852C63.0539 83.852 62.7819 83.904 62.5499 84.008C62.3179 84.104 62.1219 84.244 61.9619 84.428C61.8019 84.612 61.6779 84.84 61.5899 85.112C61.5099 85.384 61.4699 85.7 61.4699 86.06C61.4699 86.756 61.6339 87.308 61.9619 87.716C62.2899 88.116 62.7579 88.316 63.3659 88.316C63.5659 88.316 63.7699 88.284 63.9779 88.22C64.1939 88.156 64.4099 88.044 64.6259 87.884C64.7139 87.82 64.7979 87.792 64.8779 87.8C64.9579 87.808 65.0259 87.84 65.0819 87.896C65.1379 87.944 65.1739 88.008 65.1899 88.088C65.2139 88.168 65.2139 88.248 65.1899 88.328C65.1659 88.4 65.1139 88.464 65.0339 88.52C64.7779 88.728 64.4979 88.88 64.1939 88.976C63.8899 89.064 63.5939 89.108 63.3059 89.108ZM68.6954 89.108C68.1274 89.108 67.6354 88.984 67.2194 88.736C66.8034 88.488 66.4794 88.14 66.2474 87.692C66.0234 87.236 65.9114 86.7 65.9114 86.084C65.9114 85.62 65.9754 85.204 66.1034 84.836C66.2314 84.46 66.4194 84.14 66.6674 83.876C66.9154 83.612 67.2074 83.412 67.5434 83.276C67.8874 83.132 68.2714 83.06 68.6954 83.06C69.2634 83.06 69.7554 83.184 70.1714 83.432C70.5874 83.68 70.9074 84.032 71.1314 84.488C71.3634 84.936 71.4794 85.468 71.4794 86.084C71.4794 86.548 71.4154 86.964 71.2874 87.332C71.1594 87.7 70.9714 88.02 70.7234 88.292C70.4754 88.556 70.1794 88.76 69.8354 88.904C69.4994 89.04 69.1194 89.108 68.6954 89.108ZM68.6954 88.328C69.0554 88.328 69.3714 88.24 69.6434 88.064C69.9154 87.888 70.1234 87.632 70.2674 87.296C70.4194 86.96 70.4954 86.556 70.4954 86.084C70.4954 85.356 70.3314 84.8 70.0034 84.416C69.6834 84.032 69.2474 83.84 68.6954 83.84C68.3274 83.84 68.0074 83.928 67.7354 84.104C67.4714 84.272 67.2634 84.524 67.1114 84.86C66.9674 85.188 66.8954 85.596 66.8954 86.084C66.8954 86.804 67.0594 87.36 67.3874 87.752C67.7154 88.136 68.1514 88.328 68.6954 88.328ZM73.4433 89.084C73.2833 89.084 73.1633 89.04 73.0833 88.952C73.0033 88.864 72.9633 88.74 72.9633 88.58V83.576C72.9633 83.416 73.0033 83.296 73.0833 83.216C73.1633 83.128 73.2793 83.084 73.4313 83.084C73.5833 83.084 73.6993 83.128 73.7793 83.216C73.8673 83.296 73.9113 83.416 73.9113 83.576V84.632L73.7793 84.464C73.9313 84.016 74.1753 83.672 74.5113 83.432C74.8553 83.184 75.2633 83.06 75.7353 83.06C76.2313 83.06 76.6313 83.18 76.9353 83.42C77.2473 83.652 77.4553 84.016 77.5593 84.512H77.3793C77.5233 84.064 77.7793 83.712 78.1473 83.456C78.5233 83.192 78.9593 83.06 79.4553 83.06C79.8953 83.06 80.2553 83.144 80.5353 83.312C80.8233 83.48 81.0393 83.736 81.1833 84.08C81.3273 84.416 81.3993 84.844 81.3993 85.364V88.58C81.3993 88.74 81.3553 88.864 81.2673 88.952C81.1873 89.04 81.0673 89.084 80.9073 89.084C80.7553 89.084 80.6353 89.04 80.5473 88.952C80.4673 88.864 80.4273 88.74 80.4273 88.58V85.412C80.4273 84.876 80.3353 84.484 80.1513 84.236C79.9673 83.98 79.6553 83.852 79.2153 83.852C78.7353 83.852 78.3553 84.02 78.0753 84.356C77.8033 84.684 77.6673 85.132 77.6673 85.7V88.58C77.6673 88.74 77.6233 88.864 77.5353 88.952C77.4553 89.04 77.3353 89.084 77.1753 89.084C77.0233 89.084 76.9033 89.04 76.8153 88.952C76.7353 88.864 76.6953 88.74 76.6953 88.58V85.412C76.6953 84.876 76.5993 84.484 76.4073 84.236C76.2233 83.98 75.9153 83.852 75.4833 83.852C75.0033 83.852 74.6233 84.02 74.3433 84.356C74.0713 84.684 73.9353 85.132 73.9353 85.7V88.58C73.9353 88.916 73.7713 89.084 73.4433 89.084ZM83.6967 91.244C83.5367 91.244 83.4167 91.2 83.3367 91.112C83.2567 91.032 83.2167 90.912 83.2167 90.752V83.576C83.2167 83.416 83.2567 83.296 83.3367 83.216C83.4167 83.128 83.5327 83.084 83.6847 83.084C83.8447 83.084 83.9647 83.128 84.0447 83.216C84.1327 83.296 84.1767 83.416 84.1767 83.576V84.716L84.0447 84.548C84.1727 84.092 84.4247 83.732 84.8007 83.468C85.1847 83.196 85.6407 83.06 86.1687 83.06C86.6887 83.06 87.1407 83.184 87.5247 83.432C87.9167 83.672 88.2167 84.02 88.4247 84.476C88.6407 84.924 88.7487 85.46 88.7487 86.084C88.7487 86.7 88.6407 87.236 88.4247 87.692C88.2167 88.14 87.9207 88.488 87.5367 88.736C87.1527 88.984 86.6967 89.108 86.1687 89.108C85.6407 89.108 85.1887 88.976 84.8127 88.712C84.4367 88.44 84.1807 88.08 84.0447 87.632H84.1887V90.752C84.1887 90.912 84.1447 91.032 84.0567 91.112C83.9687 91.2 83.8487 91.244 83.6967 91.244ZM85.9647 88.328C86.3327 88.328 86.6487 88.24 86.9127 88.064C87.1847 87.888 87.3927 87.632 87.5367 87.296C87.6887 86.96 87.7647 86.556 87.7647 86.084C87.7647 85.356 87.6007 84.8 87.2727 84.416C86.9527 84.032 86.5167 83.84 85.9647 83.84C85.6047 83.84 85.2887 83.928 85.0167 84.104C84.7447 84.272 84.5327 84.524 84.3807 84.86C84.2367 85.188 84.1647 85.596 84.1647 86.084C84.1647 86.804 84.3287 87.36 84.6567 87.752C84.9847 88.136 85.4207 88.328 85.9647 88.328ZM92.0488 89.108C91.6488 89.108 91.2888 89.032 90.9688 88.88C90.6568 88.72 90.4088 88.504 90.2248 88.232C90.0408 87.96 89.9488 87.656 89.9488 87.32C89.9488 86.888 90.0568 86.548 90.2728 86.3C90.4968 86.052 90.8608 85.876 91.3648 85.772C91.8768 85.668 92.5728 85.616 93.4528 85.616H93.9928V86.252H93.4648C92.8168 86.252 92.3048 86.284 91.9288 86.348C91.5608 86.404 91.3008 86.504 91.1488 86.648C91.0048 86.792 90.9328 86.996 90.9328 87.26C90.9328 87.588 91.0448 87.856 91.2688 88.064C91.5008 88.272 91.8128 88.376 92.2048 88.376C92.5248 88.376 92.8048 88.3 93.0448 88.148C93.2928 87.996 93.4848 87.788 93.6208 87.524C93.7648 87.26 93.8368 86.956 93.8368 86.612V85.244C93.8368 84.748 93.7368 84.392 93.5368 84.176C93.3368 83.952 93.0088 83.84 92.5528 83.84C92.2728 83.84 91.9928 83.876 91.7128 83.948C91.4328 84.02 91.1368 84.136 90.8248 84.296C90.7128 84.352 90.6168 84.372 90.5368 84.356C90.4568 84.332 90.3928 84.288 90.3448 84.224C90.2968 84.16 90.2688 84.088 90.2608 84.008C90.2528 83.92 90.2688 83.836 90.3088 83.756C90.3568 83.676 90.4288 83.612 90.5248 83.564C90.8768 83.388 91.2248 83.26 91.5688 83.18C91.9128 83.1 92.2408 83.06 92.5528 83.06C93.0568 83.06 93.4728 83.144 93.8008 83.312C94.1288 83.472 94.3728 83.72 94.5328 84.056C94.6928 84.384 94.7728 84.808 94.7728 85.328V88.58C94.7728 88.74 94.7328 88.864 94.6528 88.952C94.5808 89.04 94.4728 89.084 94.3288 89.084C94.1768 89.084 94.0608 89.04 93.9808 88.952C93.9008 88.864 93.8608 88.74 93.8608 88.58V87.644H93.9688C93.9048 87.948 93.7808 88.208 93.5968 88.424C93.4208 88.64 93.2008 88.808 92.9368 88.928C92.6728 89.048 92.3768 89.108 92.0488 89.108ZM99.0481 89.108C98.4641 89.108 97.9601 88.98 97.5361 88.724C97.1121 88.468 96.7841 88.112 96.5521 87.656C96.3281 87.192 96.2161 86.656 96.2161 86.048C96.2161 85.584 96.2801 85.168 96.4081 84.8C96.5361 84.432 96.7241 84.12 96.9721 83.864C97.2201 83.6 97.5161 83.4 97.8601 83.264C98.2121 83.128 98.6081 83.06 99.0481 83.06C99.3361 83.06 99.6361 83.104 99.9481 83.192C100.26 83.28 100.544 83.432 100.8 83.648C100.88 83.704 100.932 83.772 100.956 83.852C100.98 83.932 100.98 84.012 100.956 84.092C100.932 84.164 100.892 84.228 100.836 84.284C100.78 84.332 100.708 84.36 100.62 84.368C100.54 84.376 100.456 84.348 100.368 84.284C100.16 84.124 99.9481 84.012 99.7321 83.948C99.5161 83.884 99.3081 83.852 99.1081 83.852C98.7961 83.852 98.5241 83.904 98.2921 84.008C98.0601 84.104 97.8641 84.244 97.7041 84.428C97.5441 84.612 97.4201 84.84 97.3321 85.112C97.2521 85.384 97.2121 85.7 97.2121 86.06C97.2121 86.756 97.3761 87.308 97.7041 87.716C98.0321 88.116 98.5001 88.316 99.1081 88.316C99.3081 88.316 99.5121 88.284 99.7201 88.22C99.9361 88.156 100.152 88.044 100.368 87.884C100.456 87.82 100.54 87.792 100.62 87.8C100.7 87.808 100.768 87.84 100.824 87.896C100.88 87.944 100.916 88.008 100.932 88.088C100.956 88.168 100.956 88.248 100.932 88.328C100.908 88.4 100.856 88.464 100.776 88.52C100.52 88.728 100.24 88.88 99.9361 88.976C99.6321 89.064 99.3361 89.108 99.0481 89.108ZM104.471 89.108C104.015 89.108 103.631 89.028 103.319 88.868C103.015 88.7 102.787 88.46 102.635 88.148C102.483 87.828 102.407 87.44 102.407 86.984V83.924H101.603C101.467 83.924 101.363 83.892 101.291 83.828C101.219 83.756 101.183 83.66 101.183 83.54C101.183 83.42 101.219 83.328 101.291 83.264C101.363 83.2 101.467 83.168 101.603 83.168H102.407V81.788C102.407 81.628 102.451 81.508 102.539 81.428C102.627 81.34 102.747 81.296 102.899 81.296C103.051 81.296 103.167 81.34 103.247 81.428C103.335 81.508 103.379 81.628 103.379 81.788V83.168H104.891C105.027 83.168 105.131 83.2 105.203 83.264C105.275 83.328 105.311 83.42 105.311 83.54C105.311 83.66 105.275 83.756 105.203 83.828C105.131 83.892 105.027 83.924 104.891 83.924H103.379V86.888C103.379 87.344 103.475 87.692 103.667 87.932C103.859 88.164 104.171 88.28 104.603 88.28C104.755 88.28 104.883 88.264 104.987 88.232C105.099 88.2 105.191 88.184 105.263 88.184C105.335 88.176 105.395 88.2 105.443 88.256C105.491 88.312 105.515 88.408 105.515 88.544C105.515 88.64 105.495 88.728 105.455 88.808C105.423 88.888 105.363 88.944 105.275 88.976C105.179 89.008 105.051 89.036 104.891 89.06C104.739 89.092 104.599 89.108 104.471 89.108Z" fill="#030712"/>
<path d="M81.5966 69.9875L80.2447 66.3803L79.315 63.8975C79.105 63.2566 79.0656 62.9919 78.7091 62.6353L76.1234 60.0497L70.5541 65.6191L73.1419 68.2069C73.3541 68.4191 73.7609 68.6006 74.4019 68.8106L76.8847 69.7403L80.4919 71.0922C81.1722 71.3131 81.8175 70.6678 81.5966 69.9875Z" fill="#FFECB3"/>
<path d="M80.4919 71.0922L77.5038 69.9722C77.5038 69.9722 78.7375 69.9022 79.5709 69.0688C80.4044 68.2353 80.4766 66.9994 80.4766 66.9994L81.5966 69.9875C81.8175 70.6678 81.1722 71.3131 80.4919 71.0922Z" fill="#616161"/>
<path d="M63.9456 47.8741L62.7622 52.0938L58.3784 53.4413L55.9022 50.9672C55.2197 50.2847 54.8959 48.9241 56.705 47.115L57.7966 46.0234C59.3606 44.4594 60.7891 44.7153 61.4716 45.3978L63.9456 47.8741Z" fill="#EF5350"/>
<path d="M61.9966 53.765L64.265 51.4966L77.4403 64.6719C77.4403 64.6719 77.7094 65.7919 77.0247 66.4766C76.34 67.1612 75.1719 66.9403 75.1719 66.9403L61.9966 53.765Z" fill="#FFC107"/>
<path d="M60.3472 55.4144L73.1616 68.2288C75.2309 68.6794 75.1412 66.9097 75.1412 66.9097L61.9966 53.765L60.3472 55.4144Z" fill="#FFA000"/>
<path d="M64.2672 51.4944L77.4119 64.6391C77.4119 64.6391 79.7787 64.6391 78.6959 62.6244L65.9166 49.845L64.2672 51.4944Z" fill="#FDD835"/>
<path d="M75.1216 67.1962L61.8631 53.9378L62.1716 53.6294L75.5153 66.9731L75.1719 66.9381L75.1216 67.1962Z" fill="#D1762C"/>
<path d="M77.4928 65.0328L63.2828 50.8228L63.5934 50.5144L77.6962 64.6172L77.4403 64.6697L77.4928 65.0328Z" fill="#F19534"/>
<path opacity="0.2" d="M65.9166 49.845C65.9166 49.845 64.72 51.6147 63.7291 52.6166C61.8325 54.5284 60.3472 55.4144 60.3472 55.4144L60.73 55.7972C61.2747 55.585 62.6681 54.9484 64.0594 53.5594C65.4594 52.1594 66.12 50.7922 66.3409 50.2694L65.9166 49.845Z" fill="#4E342E"/>
<path d="M59.6384 55.3531C59.7609 55.4756 59.9338 55.5303 60.1044 55.5019C60.1044 55.5019 61.8959 54.955 63.6766 53.1744C65.4572 51.3937 66.0456 49.659 66.0456 49.659C66.0741 49.4884 66.0194 49.3134 65.8969 49.1909L64.02 47.314C63.9413 47.2353 63.8319 47.1937 63.7225 47.2069C63.6853 47.2112 63.6481 47.2156 63.6088 47.2222C63.46 47.244 63.3419 47.3534 63.3003 47.4978C63.3003 47.4978 62.4428 49.1603 61.0297 50.5712C59.6166 51.9822 57.8928 52.8047 57.8928 52.8047C57.7484 52.844 57.6369 52.96 57.615 53.1087V53.1131C57.5975 53.2312 57.6369 53.3494 57.72 53.4325L59.6384 55.3531Z" fill="#94D1E0"/>
<path d="M58.4799 47.9791C59.7639 46.6951 60.4966 45.346 60.1164 44.9659C59.7362 44.5858 58.3872 45.3185 57.1033 46.6025C55.8193 47.8865 55.0867 49.2355 55.4668 49.6156C55.847 49.9958 57.196 49.2631 58.4799 47.9791Z" fill="#FF8383"/>
<path d="M63.6022 48.7556C62.8825 50.1337 61.6991 51.2647 60.2903 51.9187C60.1984 51.9603 60.0694 51.9909 60.0147 51.9078C59.9731 51.8422 60.0103 51.7591 60.0519 51.6934C60.2356 51.4091 60.4894 51.1794 60.7344 50.9453C61.3731 50.3328 61.9594 49.6678 62.4866 48.9591C62.7556 48.5981 63.0072 48.2262 63.2434 47.8434C63.3747 47.6334 63.6087 47.1894 63.9084 47.5022C64.1687 47.7712 63.74 48.4909 63.6022 48.7556ZM62.7862 51.3216C62.7294 51.3806 62.6703 51.4397 62.6419 51.5162C62.6134 51.5928 62.6244 51.6912 62.69 51.7394C62.7447 51.7809 62.8191 51.7766 62.8869 51.7656C63.2653 51.7066 63.6 51.4922 63.8953 51.2516C64.5406 50.7287 65.0875 50.0025 65.14 49.1734C65.1466 49.075 65.1444 48.9722 65.1006 48.8847C64.8228 48.3356 64.2344 49.5628 64.1184 49.7356C63.7312 50.3109 63.2697 50.8272 62.7862 51.3216Z" fill="#B9E4EA"/>
</svg>
