<svg width="137" height="100" viewBox="0 0 137 100" fill="none" xmlns="http://www.w3.org/2000/svg">
<mask id="path-1-inside-1_673_10137" fill="white">
<path fill-rule="evenodd" clip-rule="evenodd" d="M87.5 0C86.9477 0 86.5029 0.448498 86.4727 0.999957C85.9538 10.476 78.1056 18 68.5 18C58.8944 18 51.0462 10.476 50.5273 0.999956C50.4971 0.448497 50.0523 0 49.5 0L22.5 0C20.2909 0 18.5 1.79086 18.5 4L18.5 31C18.5 31.5523 18.0515 31.9971 17.5 32.0273C8.02403 32.5462 0.5 40.3944 0.5 50C0.5 59.6056 8.02403 67.4538 17.5 67.9727C18.0515 68.0029 18.5 68.4477 18.5 69L18.5 96C18.5 98.2091 20.2909 100 22.5 100L49.5 100C50.0523 100 50.4971 99.5515 50.5273 99C51.0462 89.524 58.8944 82 68.5 82C78.1056 82 85.9538 89.524 86.4727 99C86.5029 99.5515 86.9477 100 87.5 100H114.5C116.709 100 118.5 98.2091 118.5 96L118.5 69C118.5 68.4477 118.948 68.0029 119.5 67.9727C128.976 67.4538 136.5 59.6056 136.5 50C136.5 40.3944 128.976 32.5462 119.5 32.0273C118.948 31.9971 118.5 31.5523 118.5 31L118.5 4C118.5 1.79086 116.709 0 114.5 0L87.5 0Z"/>
</mask>
<path fill-rule="evenodd" clip-rule="evenodd" d="M87.5 0C86.9477 0 86.5029 0.448498 86.4727 0.999957C85.9538 10.476 78.1056 18 68.5 18C58.8944 18 51.0462 10.476 50.5273 0.999956C50.4971 0.448497 50.0523 0 49.5 0L22.5 0C20.2909 0 18.5 1.79086 18.5 4L18.5 31C18.5 31.5523 18.0515 31.9971 17.5 32.0273C8.02403 32.5462 0.5 40.3944 0.5 50C0.5 59.6056 8.02403 67.4538 17.5 67.9727C18.0515 68.0029 18.5 68.4477 18.5 69L18.5 96C18.5 98.2091 20.2909 100 22.5 100L49.5 100C50.0523 100 50.4971 99.5515 50.5273 99C51.0462 89.524 58.8944 82 68.5 82C78.1056 82 85.9538 89.524 86.4727 99C86.5029 99.5515 86.9477 100 87.5 100H114.5C116.709 100 118.5 98.2091 118.5 96L118.5 69C118.5 68.4477 118.948 68.0029 119.5 67.9727C128.976 67.4538 136.5 59.6056 136.5 50C136.5 40.3944 128.976 32.5462 119.5 32.0273C118.948 31.9971 118.5 31.5523 118.5 31L118.5 4C118.5 1.79086 116.709 0 114.5 0L87.5 0Z" fill="#D1D5DB" fill-opacity="0.2"/>
<path d="M18.5 4L17.5 4L17.5 4L18.5 4ZM18.5 96L17.5 96V96H18.5ZM119.5 32.0273L119.555 31.0288L119.5 32.0273ZM119.5 67.9727L119.555 68.9712L119.5 67.9727ZM18.5 31L17.5 31L18.5 31ZM17.5 32.0273L17.4454 31.0288L17.5 32.0273ZM17.5 67.9727L17.4454 68.9712L17.5 67.9727ZM18.5 69L17.5 69L18.5 69ZM50.5273 0.999956L49.5288 1.05463L50.5273 0.999956ZM86.4727 99L85.4742 99.0547L86.4727 99ZM86.4727 0.999957L85.4742 0.945284L86.4727 0.999957ZM68.5 19C78.6396 19 86.9235 11.058 87.4712 1.05463L85.4742 0.945284C84.9842 9.89397 77.5716 17 68.5 17V19ZM49.5288 1.05463C50.0765 11.058 58.3604 19 68.5 19V17C59.4284 17 52.0158 9.89397 51.5258 0.945282L49.5288 1.05463ZM22.5 1L49.5 1V-1L22.5 -1V1ZM19.5 4C19.5 2.34315 20.8431 1 22.5 1V-1C19.7386 -1 17.5 1.23858 17.5 4L19.5 4ZM19.5 31L19.5 4L17.5 4L17.5 31L19.5 31ZM1.5 50C1.5 40.9284 8.60603 33.5158 17.5547 33.0258L17.4454 31.0288C7.44204 31.5765 -0.5 39.8604 -0.5 50H1.5ZM17.5547 66.9742C8.60603 66.4842 1.5 59.0716 1.5 50H-0.5C-0.5 60.1396 7.44204 68.4235 17.4454 68.9712L17.5547 66.9742ZM19.5 96L19.5 69L17.5 69L17.5 96L19.5 96ZM22.5 99C20.8431 99 19.5 97.6569 19.5 96H17.5C17.5 98.7614 19.7386 101 22.5 101L22.5 99ZM49.5 99L22.5 99L22.5 101L49.5 101V99ZM68.5 81C58.3604 81 50.0765 88.942 49.5288 98.9454L51.5258 99.0547C52.0158 90.106 59.4284 83 68.5 83V81ZM87.4712 98.9454C86.9235 88.942 78.6396 81 68.5 81V83C77.5716 83 84.9842 90.106 85.4742 99.0547L87.4712 98.9454ZM114.5 99H87.5V101H114.5V99ZM117.5 96C117.5 97.6569 116.157 99 114.5 99V101C117.261 101 119.5 98.7614 119.5 96H117.5ZM117.5 69L117.5 96H119.5L119.5 69H117.5ZM135.5 50C135.5 59.0716 128.394 66.4842 119.445 66.9742L119.555 68.9712C129.558 68.4235 137.5 60.1396 137.5 50H135.5ZM119.445 33.0258C128.394 33.5158 135.5 40.9284 135.5 50H137.5C137.5 39.8604 129.558 31.5765 119.555 31.0288L119.445 33.0258ZM117.5 4L117.5 31H119.5L119.5 4H117.5ZM114.5 1C116.157 1 117.5 2.34315 117.5 4H119.5C119.5 1.23858 117.261 -1 114.5 -1V1ZM87.5 1L114.5 1V-1L87.5 -1V1ZM119.555 31.0288C119.533 31.0276 119.516 31.0187 119.506 31.0081C119.501 31.0033 119.5 31.0001 119.5 30.9999C119.5 30.9998 119.5 31.0001 119.5 31.0007C119.5 31.0012 119.5 31.0012 119.5 31H117.5C117.5 32.1183 118.399 32.9685 119.445 33.0258L119.555 31.0288ZM119.5 69C119.5 68.9988 119.5 68.9988 119.5 68.9994C119.5 68.9999 119.5 69.0002 119.5 69.0001C119.5 68.9999 119.501 68.9967 119.506 68.9919C119.516 68.9813 119.533 68.9724 119.555 68.9712L119.445 66.9742C118.399 67.0315 117.5 67.8817 117.5 69H119.5ZM49.5 101C50.6183 101 51.4685 100.101 51.5258 99.0547L49.5288 98.9454C49.5276 98.9666 49.5187 98.9836 49.5081 98.994C49.5033 98.9987 49.5001 99.0002 49.4999 99.0002C49.4998 99.0003 49.5001 99.0001 49.5006 99C49.5012 98.9999 49.5012 99 49.5 99V101ZM17.5 31C17.5 31.0012 17.4999 31.0012 17.5 31.0006C17.5001 31.0001 17.5003 30.9998 17.5002 30.9999C17.5002 31.0001 17.4987 31.0033 17.494 31.0081C17.4836 31.0187 17.4666 31.0276 17.4454 31.0288L17.5547 33.0258C18.6008 32.9685 19.5 32.1183 19.5 31L17.5 31ZM17.4454 68.9712C17.4667 68.9724 17.4836 68.9813 17.494 68.9919C17.4987 68.9967 17.5002 68.9999 17.5002 69.0001C17.5003 69.0002 17.5001 68.9999 17.5 68.9993C17.4999 68.9988 17.5 68.9988 17.5 69L19.5 69C19.5 67.8817 18.6008 67.0315 17.5547 66.9742L17.4454 68.9712ZM51.5258 0.945282C51.4685 -0.100789 50.6183 -1 49.5 -1V1C49.5012 1 49.5012 1.0001 49.5007 0.999977C49.5001 0.999868 49.4998 0.999738 49.4999 0.999766C49.5001 0.999846 49.5033 1.00127 49.5081 1.006C49.5187 1.0164 49.5276 1.03335 49.5288 1.05463L51.5258 0.945282ZM85.4742 99.0547C85.5315 100.101 86.3817 101 87.5 101V99C87.4988 99 87.4988 98.9999 87.4993 99C87.4999 99.0001 87.5002 99.0003 87.5001 99.0002C87.4999 99.0002 87.4967 98.9987 87.4919 98.994C87.4813 98.9836 87.4724 98.9667 87.4712 98.9454L85.4742 99.0547ZM87.4712 1.05463C87.4724 1.03335 87.4813 1.0164 87.4919 1.006C87.4967 1.00127 87.4999 0.999846 87.5001 0.999766C87.5002 0.999738 87.4999 0.999868 87.4994 0.999977C87.4988 1.0001 87.4988 1 87.5 1V-1C86.3817 -1 85.5315 -0.100786 85.4742 0.945284L87.4712 1.05463Z" fill="#D1D5DB" mask="url(#path-1-inside-1_673_10137)"/>
<path d="M61.9562 73.292C61.8362 73.3 61.7402 73.28 61.6682 73.232C61.5882 73.184 61.5362 73.12 61.5122 73.04C61.4802 72.968 61.4722 72.892 61.4882 72.812C61.4962 72.74 61.5282 72.676 61.5842 72.62C61.6402 72.564 61.7162 72.536 61.8122 72.536C62.2522 72.512 62.5762 72.392 62.7842 72.176C63.0002 71.968 63.1082 71.636 63.1082 71.18V65.576C63.1082 65.416 63.1482 65.296 63.2282 65.216C63.3162 65.128 63.4402 65.084 63.6002 65.084C63.7522 65.084 63.8682 65.128 63.9482 65.216C64.0362 65.296 64.0802 65.416 64.0802 65.576V71.108C64.0802 71.596 63.9962 71.996 63.8282 72.308C63.6682 72.628 63.4322 72.864 63.1202 73.016C62.8082 73.176 62.4202 73.268 61.9562 73.292ZM63.5882 63.764C63.3882 63.764 63.2322 63.712 63.1202 63.608C63.0082 63.496 62.9522 63.348 62.9522 63.164C62.9522 62.972 63.0082 62.828 63.1202 62.732C63.2322 62.628 63.3882 62.576 63.5882 62.576C63.7962 62.576 63.9562 62.628 64.0682 62.732C64.1802 62.828 64.2362 62.972 64.2362 63.164C64.2362 63.348 64.1802 63.496 64.0682 63.608C63.9562 63.712 63.7962 63.764 63.5882 63.764ZM66.3881 71.06C66.2281 71.06 66.1081 71.016 66.0281 70.928C65.9481 70.832 65.9081 70.7 65.9081 70.532V65.624C65.9081 65.456 65.9481 65.328 66.0281 65.24C66.1081 65.152 66.2281 65.108 66.3881 65.108C66.5401 65.108 66.6601 65.152 66.7481 65.24C66.8361 65.328 66.8801 65.456 66.8801 65.624V70.532C66.8801 70.7 66.8361 70.832 66.7481 70.928C66.6681 71.016 66.5481 71.06 66.3881 71.06ZM66.3881 63.764C66.1881 63.764 66.0321 63.712 65.9201 63.608C65.8081 63.496 65.7521 63.348 65.7521 63.164C65.7521 62.972 65.8081 62.828 65.9201 62.732C66.0321 62.628 66.1881 62.576 66.3881 62.576C66.5961 62.576 66.7521 62.628 66.8561 62.732C66.9681 62.828 67.0241 62.972 67.0241 63.164C67.0241 63.348 66.9681 63.496 66.8561 63.608C66.7521 63.712 66.5961 63.764 66.3881 63.764ZM71.0372 71.108C70.5812 71.108 70.1972 71.028 69.8852 70.868C69.5812 70.7 69.3532 70.46 69.2012 70.148C69.0492 69.828 68.9732 69.44 68.9732 68.984V65.924H68.1692C68.0332 65.924 67.9292 65.892 67.8572 65.828C67.7852 65.756 67.7492 65.66 67.7492 65.54C67.7492 65.42 67.7852 65.328 67.8572 65.264C67.9292 65.2 68.0332 65.168 68.1692 65.168H68.9732V63.788C68.9732 63.628 69.0172 63.508 69.1052 63.428C69.1932 63.34 69.3132 63.296 69.4652 63.296C69.6172 63.296 69.7332 63.34 69.8132 63.428C69.9012 63.508 69.9452 63.628 69.9452 63.788V65.168H71.4572C71.5932 65.168 71.6972 65.2 71.7692 65.264C71.8412 65.328 71.8772 65.42 71.8772 65.54C71.8772 65.66 71.8412 65.756 71.7692 65.828C71.6972 65.892 71.5932 65.924 71.4572 65.924H69.9452V68.888C69.9452 69.344 70.0412 69.692 70.2332 69.932C70.4252 70.164 70.7372 70.28 71.1692 70.28C71.3212 70.28 71.4492 70.264 71.5532 70.232C71.6652 70.2 71.7572 70.184 71.8292 70.184C71.9012 70.176 71.9612 70.2 72.0092 70.256C72.0572 70.312 72.0812 70.408 72.0812 70.544C72.0812 70.64 72.0612 70.728 72.0212 70.808C71.9892 70.888 71.9292 70.944 71.8412 70.976C71.7452 71.008 71.6172 71.036 71.4572 71.06C71.3052 71.092 71.1652 71.108 71.0372 71.108ZM73.4428 71.06C73.2828 71.06 73.1628 71.016 73.0828 70.928C73.0028 70.832 72.9628 70.7 72.9628 70.532V65.624C72.9628 65.456 73.0028 65.328 73.0828 65.24C73.1628 65.152 73.2828 65.108 73.4428 65.108C73.5948 65.108 73.7148 65.152 73.8028 65.24C73.8908 65.328 73.9348 65.456 73.9348 65.624V70.532C73.9348 70.7 73.8908 70.832 73.8028 70.928C73.7228 71.016 73.6028 71.06 73.4428 71.06ZM73.4428 63.764C73.2428 63.764 73.0868 63.712 72.9748 63.608C72.8628 63.496 72.8068 63.348 72.8068 63.164C72.8068 62.972 72.8628 62.828 72.9748 62.732C73.0868 62.628 73.2428 62.576 73.4428 62.576C73.6508 62.576 73.8068 62.628 73.9108 62.732C74.0228 62.828 74.0788 62.972 74.0788 63.164C74.0788 63.348 74.0228 63.496 73.9108 63.608C73.8068 63.712 73.6508 63.764 73.4428 63.764Z" fill="#030712"/>
<path d="M60.9444 39.0944L60.3712 37.8497L58.9691 32.3984L58.6125 31.5497L59.1266 30.2853C59.1266 30.2853 59.855 30.3881 60.4106 31.0159C61.0866 31.7816 62.1891 34.0719 62.1891 34.0719L61.9572 32.265L63.215 29.0034C63.215 29.0034 63.7662 28.9444 63.9128 29.0953C64.1731 29.3622 64.6172 31.2347 64.7747 31.8275C64.9322 32.4203 65.1509 33.2297 65.4266 33.5841C65.7022 33.9384 66.0391 34.0194 66.0391 34.0194L67.0256 30.2088L67.2619 26.7525C67.2619 26.7525 67.6075 26.7503 68.0909 26.8509C68.4562 26.9275 68.7012 27.0522 68.8194 27.1988C68.9375 27.3453 68.9419 29.675 68.9419 29.675C68.9419 29.675 71.0266 27.8988 71.0944 27.9184C71.2387 27.9578 71.6872 28.0563 71.9234 28.3144C72.1597 28.5703 71.9628 29.5197 71.7856 30.1519C71.6084 30.7841 70.9959 32.8381 70.9959 32.8381L71.5494 32.6281L71.6719 32.7463L72.7022 31.1647C72.7022 31.1647 73.0741 31.1625 73.3759 31.3113C73.7041 31.4731 73.9009 31.8713 73.9009 31.8713L76.5478 28.0409C76.5478 28.0409 76.7491 28.2203 76.9262 28.3975C77.1034 28.5747 77.2281 28.6994 77.2369 28.8788C77.2456 29.0559 76.6069 30.235 76.3116 30.8278C76.0162 31.4206 75.5219 32.6063 75.5219 32.6063L77.6744 30.9634C77.6744 30.9634 78.3875 31.0641 78.4094 31.3003C78.4291 31.5366 78.0506 31.9741 77.6744 32.6259C77.2981 33.2778 76.6681 34.5422 76.4494 34.9753C76.2306 35.4084 76.5281 35.4303 76.5281 35.4303L79.1072 33.8006C79.1072 33.8006 79.6628 33.9144 79.7153 34.1725C79.7744 34.4678 79.1356 35.0563 78.72 35.5288C78.3044 36.0034 77.4162 37.1475 76.9634 38.0378C76.5106 38.9281 76.2066 39.4838 76.2066 39.4838L72.28 43.3797L61.8325 42.7475L60.9444 39.0944Z" fill="url(#paint0_radial_673_10137)"/>
<path d="M74.0059 34.7937C73.7434 34.855 72.9144 36.29 72.14 38.4731C71.6741 39.7856 71.3656 41.2206 71.3831 41.9075C71.4006 42.5944 72.4375 42.3844 72.4375 42.3844L72.8772 40.9581C72.8772 40.9581 73.3694 39.2847 73.9512 38.0356C74.6316 36.57 75.5131 35.6381 75.4475 35.4128C75.36 35.1109 74.3756 34.7062 74.0059 34.7937ZM76.6112 31.0619C76.2437 31.2762 75.4147 32.6631 75.1675 33.1925C74.9203 33.7219 74.9116 34.7172 75.1828 34.8462C75.5175 35.0037 75.8894 33.8794 76.4537 32.9453C77.0181 32.0112 77.6853 30.9547 77.6853 30.9547C77.6853 30.9547 77.0334 30.8147 76.6112 31.0619ZM78.0025 33.8094C77.4403 34.0478 76.3925 35.1656 76.0294 35.7278C75.36 36.7669 74.8678 37.9284 74.6906 38.4031C74.5156 38.8778 74.3734 39.5297 74.9203 39.23C75.4672 38.9303 76.1694 37.5215 77.0684 36.255C78.1097 34.785 79.1116 33.7897 79.1116 33.7897C79.1116 33.7897 78.4597 33.6147 78.0025 33.8094ZM75.6422 27.54C75.4256 27.5137 74.8328 29.0887 74.4981 29.8456C74.1634 30.6025 73.7172 31.6044 73.7172 31.6044C73.7172 31.6044 73.4591 33.5972 73.8287 33.6322C74.1984 33.6672 74.9225 31.2369 75.4628 30.1234C75.99 29.0384 76.5456 28.0344 76.5456 28.0344C76.5456 28.0344 76.0644 27.5925 75.6422 27.54ZM71.7484 31.4862C71.5537 31.6919 71.6631 32.7506 71.6631 32.7506C71.6631 32.7506 72.42 33.315 72.5622 33.1903C72.7044 33.0656 72.7109 31.1537 72.7109 31.1537C72.7109 31.1537 72.0656 31.1515 71.7484 31.4862ZM70.1844 32.9278C69.9109 33.1575 70.0969 34.2337 70.0269 35.1984C69.9219 36.6422 69.4997 39.5997 69.375 40.4637C69.2503 41.3278 69.1278 42.2772 69.1278 42.2772L70.4841 42.065C70.4841 42.065 71.0112 38.0334 71.2234 36.4825C71.4356 34.9315 71.7506 32.7331 71.5406 32.6084C71.3284 32.4881 70.5191 32.6456 70.1844 32.9278ZM70.0203 27.785C69.6747 27.8506 68.9441 29.675 68.9441 29.675C68.9441 29.675 68.9003 30.9919 68.9003 31.6262C68.9003 32.2606 68.7778 33.0175 68.9878 33.0175C69.1978 33.0175 69.6047 31.8034 70.0269 30.7469C70.4491 29.6903 71.0966 27.9184 71.0966 27.9184C71.0966 27.9184 70.5103 27.6931 70.0203 27.785ZM66.0456 27.1178C65.8072 27.3694 66.1856 28.0169 66.2206 29.7931C66.2556 31.5715 66.0369 34.0172 66.0369 34.0172C66.0369 34.0172 66.225 34.004 66.3431 34.3694C66.4437 34.6778 66.6078 36.5525 66.8178 36.4825C67.03 36.4125 67.2925 35.1612 67.5047 33.0481C67.7169 30.935 67.6272 29.2987 67.5572 28.6294C67.4872 27.96 67.2597 26.7481 67.2597 26.7481C67.2597 26.7481 66.3978 26.7481 66.0456 27.1178ZM63.215 29.0034C63.215 29.0034 62.1978 29.0756 61.9178 29.6225C61.6356 30.1694 61.7253 30.434 61.7778 30.9612C61.8303 31.4884 61.9966 32.5406 61.9966 32.5406C61.9966 32.5406 62.9306 33.7022 63.4403 33.42C63.95 33.14 63.215 29.0034 63.215 29.0034ZM59.1266 30.2853C59.1266 30.2853 58.5622 30.1803 58.2275 30.2503C57.8928 30.3203 57.9103 30.6375 58.07 30.8497C58.2275 31.0619 58.9559 32.3787 58.9559 32.3787C58.9559 32.3787 59.1725 32.3831 59.4547 32.4881C59.7369 32.5931 60.2203 32.8556 60.2006 32.4334C60.1656 31.6962 59.1266 30.2853 59.1266 30.2853ZM60.7169 38.6C60.7169 38.6 59.6537 36.4497 58.8619 35.2684C58.07 34.0872 57.2409 33.1728 57.2409 32.9803C57.2409 32.7856 57.7878 32.5931 58.1028 32.5056C58.4178 32.4181 58.9669 32.3984 58.9669 32.3984C58.9669 32.3984 60.2684 34.599 60.7978 35.7978C61.3272 36.9965 61.8194 38.3922 61.6969 38.5628C61.5853 38.7159 60.7956 38.6131 60.7169 38.6ZM61.4322 34.7587C61.3491 35.0672 61.7494 36.4672 61.9966 37.4712C62.2437 38.4753 62.5434 39.5319 62.5434 39.5319L63.3878 41.2578L64.3219 40.9231C64.3219 40.9231 63.8297 39.9715 63.5475 38.9872C63.2653 37.9984 62.9 34.9315 62.5237 34.5312C62.2612 34.249 61.4869 34.5662 61.4322 34.7587ZM64.3569 34.4065C64.1359 34.5509 64.4794 36.8894 64.6566 37.8584C64.8337 38.8275 65.2034 39.849 65.3959 40.3237C65.5906 40.7984 66.1528 41.9972 66.1528 41.9972C66.1528 41.9972 66.7347 42.684 66.7522 42.614C66.7697 42.544 67.0169 41.68 67.0169 41.68C67.0169 41.68 66.2403 39.3897 66.1156 38.4031C65.9931 37.4165 65.7984 34.424 65.6059 34.319C65.4134 34.214 64.7091 34.179 64.3569 34.4065ZM68.2834 34.459C68.0187 34.704 67.7562 37.9459 67.6491 39.1425C67.5419 40.339 67.4544 42.1 67.4544 42.1L68.6334 42.0125C68.6334 42.0125 69.0731 37.6637 69.1431 37.0994C69.2131 36.535 69.5303 35.2509 69.3728 34.739C69.2153 34.2315 68.5109 34.249 68.2834 34.459Z" fill="#FBDE93"/>
<path d="M60.3669 39.0003C60.2925 39.1687 62.5916 51.7491 62.6288 51.9372C62.6659 52.1253 62.5916 52.2959 62.9481 52.4644C63.3069 52.6328 63.8669 52.7225 64.2256 52.7619C64.5844 52.7991 67.0541 52.8034 67.0738 52.5037C67.0934 52.2019 74.4763 41.4481 74.4763 41.4481C74.4763 41.4481 75.8369 39.1666 75.7428 38.9784C75.6488 38.7903 75.2813 38.8778 74.8809 39.1512C74.4806 39.4269 74.1109 40.1072 72.9866 40.8619C71.7681 41.68 70.1538 41.8528 68.5306 41.8331C67.0344 41.8134 65.2559 41.5422 63.9828 40.5994C62.8628 39.7681 62.5325 39.1687 61.535 38.9041C60.6556 38.67 60.3669 39.0003 60.3669 39.0003Z" fill="#FD703F"/>
<path d="M62.1059 39.8228L64.1928 52.7662C64.1928 52.7662 66.68 53.125 68.6181 53.1622C70.5584 53.1994 72.8706 52.7947 72.8706 52.7947L74.5506 47.1159L75.9769 39.6237C75.9769 39.6237 75.6247 39.2716 75.2287 39.5625C74.9247 39.7856 73.9862 41.2381 72.3281 41.8791C70.4578 42.6009 67.0869 42.6534 64.9825 41.7653C63.0531 40.9537 62.4647 39.8972 62.1059 39.8228Z" fill="#FF2A23"/>
<path d="M74.0803 52.3966C73.6559 52.6503 72.6672 52.8209 72.6672 52.8209C72.6672 52.8209 73.6472 48.0566 74.1919 45.5694C74.7365 43.0822 75.5219 38.8756 75.5219 38.8756C75.5219 38.8756 75.8369 38.8253 76.1606 38.8647C76.5281 38.9106 76.7469 39.0178 76.8212 39.1338C76.9415 39.3219 76.2175 42.835 75.5087 46.265C74.8612 49.415 74.3056 52.2631 74.0803 52.3966Z" fill="#DC0D25"/>
<defs>
<radialGradient id="paint0_radial_673_10137" cx="0" cy="0" r="1" gradientUnits="userSpaceOnUse" gradientTransform="translate(68.6284 24.278) scale(18.1843 18.1843)">
<stop offset="0.447" stop-color="#FCC216"/>
<stop offset="0.59" stop-color="#FABB16"/>
<stop offset="0.794" stop-color="#F3A814"/>
<stop offset="0.921" stop-color="#ED9913"/>
</radialGradient>
</defs>
</svg>
