<svg width="119" height="100" viewBox="0 0 119 100" fill="none" xmlns="http://www.w3.org/2000/svg">
<mask id="path-1-inside-1_673_10138" fill="white">
<path fill-rule="evenodd" clip-rule="evenodd" d="M68.5 18C78.1056 18 85.9538 10.476 86.4727 0.999956C86.5029 0.448497 86.9477 0 87.5 0L114.5 0C116.709 0 118.5 1.79086 118.5 4L118.5 31C118.5 31.5523 118.052 31.9971 117.5 32.0273C108.024 32.5462 100.5 40.3944 100.5 50C100.5 59.6056 108.024 67.4538 117.5 67.9727C118.052 68.0029 118.5 68.4477 118.5 69L118.5 96C118.5 98.2091 116.709 100 114.5 100L87.5 100C86.9477 100 86.5029 99.5515 86.4727 99C85.9538 89.524 78.1056 82 68.5 82C58.8944 82 51.0462 89.524 50.5273 99C50.4971 99.5515 50.0523 100 49.5 100L22.5 100C20.2909 100 18.5 98.2091 18.5 96L18.5 69C18.5 68.4477 18.0515 68.0029 17.5 67.9727C8.02403 67.4538 0.5 59.6056 0.5 50C0.5 40.3944 8.02403 32.5462 17.5 32.0273C18.0515 31.9971 18.5 31.5523 18.5 31L18.5 4C18.5 1.79086 20.2909 0 22.5 0L49.5 0C50.0523 0 50.4971 0.448498 50.5273 0.999957C51.0462 10.476 58.8944 18 68.5 18Z"/>
</mask>
<path fill-rule="evenodd" clip-rule="evenodd" d="M68.5 18C78.1056 18 85.9538 10.476 86.4727 0.999956C86.5029 0.448497 86.9477 0 87.5 0L114.5 0C116.709 0 118.5 1.79086 118.5 4L118.5 31C118.5 31.5523 118.052 31.9971 117.5 32.0273C108.024 32.5462 100.5 40.3944 100.5 50C100.5 59.6056 108.024 67.4538 117.5 67.9727C118.052 68.0029 118.5 68.4477 118.5 69L118.5 96C118.5 98.2091 116.709 100 114.5 100L87.5 100C86.9477 100 86.5029 99.5515 86.4727 99C85.9538 89.524 78.1056 82 68.5 82C58.8944 82 51.0462 89.524 50.5273 99C50.4971 99.5515 50.0523 100 49.5 100L22.5 100C20.2909 100 18.5 98.2091 18.5 96L18.5 69C18.5 68.4477 18.0515 68.0029 17.5 67.9727C8.02403 67.4538 0.5 59.6056 0.5 50C0.5 40.3944 8.02403 32.5462 17.5 32.0273C18.0515 31.9971 18.5 31.5523 18.5 31L18.5 4C18.5 1.79086 20.2909 0 22.5 0L49.5 0C50.0523 0 50.4971 0.448498 50.5273 0.999957C51.0462 10.476 58.8944 18 68.5 18Z" fill="#D1D5DB" fill-opacity="0.2"/>
<path d="M114.5 0V1V0ZM114.5 100V101V100ZM18.5 96L17.5 96V96H18.5ZM18.5 4L17.5 4L17.5 4L18.5 4ZM50.5273 0.999957L51.5258 0.945284L50.5273 0.999957ZM17.5 32.0273L17.4454 31.0288L17.5 32.0273ZM18.5 31L17.5 31L18.5 31ZM18.5 69L17.5 69L18.5 69ZM17.5 67.9727L17.4454 68.9712L17.5 67.9727ZM87.5 0V1V0ZM50.5273 99L49.5288 98.9454L50.5273 99ZM117.5 67.9727L117.555 66.9742L117.5 67.9727ZM87.5 100V99V100ZM86.4727 99L87.4712 98.9454L86.4727 99ZM117.5 32.0273L117.555 33.0258L117.5 32.0273ZM85.4742 0.945282C84.9842 9.89397 77.5716 17 68.5 17V19C78.6396 19 86.9235 11.058 87.4712 1.05463L85.4742 0.945282ZM114.5 -1L87.5 -1V1L114.5 1V-1ZM119.5 4C119.5 1.23858 117.261 -1 114.5 -1V1C116.157 1 117.5 2.34315 117.5 4H119.5ZM119.5 31L119.5 4H117.5L117.5 31H119.5ZM101.5 50C101.5 40.9284 108.606 33.5158 117.555 33.0258L117.445 31.0288C107.442 31.5765 99.5 39.8604 99.5 50H101.5ZM117.555 66.9742C108.606 66.4842 101.5 59.0716 101.5 50H99.5C99.5 60.1396 107.442 68.4235 117.445 68.9712L117.555 66.9742ZM119.5 96L119.5 69H117.5L117.5 96H119.5ZM114.5 101C117.261 101 119.5 98.7614 119.5 96H117.5C117.5 97.6569 116.157 99 114.5 99V101ZM87.5 101L114.5 101V99L87.5 99V101ZM68.5 83C77.5716 83 84.9842 90.106 85.4742 99.0547L87.4712 98.9454C86.9235 88.942 78.6396 81 68.5 81V83ZM51.5258 99.0547C52.0158 90.106 59.4284 83 68.5 83V81C58.3604 81 50.0765 88.942 49.5288 98.9454L51.5258 99.0547ZM22.5 101L49.5 101V99L22.5 99L22.5 101ZM17.5 96C17.5 98.7614 19.7386 101 22.5 101L22.5 99C20.8431 99 19.5 97.6569 19.5 96H17.5ZM17.5 69L17.5 96L19.5 96L19.5 69L17.5 69ZM17.5547 66.9742C8.60603 66.4842 1.5 59.0716 1.5 50H-0.5C-0.5 60.1396 7.44204 68.4235 17.4454 68.9712L17.5547 66.9742ZM1.5 50C1.5 40.9284 8.60603 33.5158 17.5547 33.0258L17.4454 31.0288C7.44204 31.5765 -0.5 39.8604 -0.5 50H1.5ZM17.5 4L17.5 31L19.5 31L19.5 4L17.5 4ZM22.5 -1C19.7386 -1 17.5 1.23858 17.5 4L19.5 4C19.5 2.34315 20.8431 1 22.5 1V-1ZM49.5 -1L22.5 -1V1L49.5 1V-1ZM68.5 17C59.4284 17 52.0158 9.89398 51.5258 0.945284L49.5288 1.05463C50.0765 11.058 58.3604 19 68.5 19V17ZM49.5 1C49.5012 1 49.5012 1.0001 49.5006 0.999977C49.5001 0.999868 49.4998 0.999738 49.4999 0.999766C49.5001 0.999846 49.5033 1.00127 49.5081 1.006C49.5187 1.0164 49.5276 1.03335 49.5288 1.05463L51.5258 0.945284C51.4685 -0.100786 50.6183 -1 49.5 -1V1ZM17.5547 33.0258C18.6008 32.9685 19.5 32.1183 19.5 31L17.5 31C17.5 31.0012 17.4999 31.0012 17.5 31.0006C17.5001 31.0001 17.5003 30.9998 17.5002 30.9999C17.5002 31.0001 17.4987 31.0033 17.494 31.0081C17.4836 31.0187 17.4666 31.0276 17.4454 31.0288L17.5547 33.0258ZM19.5 69C19.5 67.8817 18.6008 67.0315 17.5547 66.9742L17.4454 68.9712C17.4667 68.9724 17.4836 68.9813 17.494 68.9919C17.4987 68.9967 17.5002 68.9999 17.5002 69.0001C17.5003 69.0002 17.5001 68.9999 17.5 68.9994C17.4999 68.9988 17.5 68.9988 17.5 69L19.5 69ZM87.4712 1.05463C87.4724 1.03335 87.4813 1.0164 87.4919 1.006C87.4967 1.00127 87.4999 0.999846 87.5001 0.999766C87.5002 0.999738 87.4999 0.999868 87.4993 0.999977C87.4988 1.0001 87.4988 1 87.5 1V-1C86.3817 -1 85.5315 -0.100789 85.4742 0.945282L87.4712 1.05463ZM49.5288 98.9454C49.5276 98.9667 49.5187 98.9836 49.5081 98.994C49.5033 98.9987 49.5001 99.0002 49.4999 99.0002C49.4998 99.0003 49.5001 99.0001 49.5007 99C49.5012 98.9999 49.5012 99 49.5 99V101C50.6183 101 51.4685 100.101 51.5258 99.0547L49.5288 98.9454ZM117.445 68.9712C117.467 68.9724 117.484 68.9813 117.494 68.9919C117.499 68.9967 117.5 68.9999 117.5 69.0001C117.5 69.0002 117.5 68.9999 117.5 68.9993C117.5 68.9988 117.5 68.9988 117.5 69H119.5C119.5 67.8817 118.601 67.0315 117.555 66.9742L117.445 68.9712ZM87.5 99C87.4988 99 87.4988 98.9999 87.4994 99C87.4999 99.0001 87.5002 99.0003 87.5001 99.0002C87.4999 99.0002 87.4967 98.9987 87.4919 98.994C87.4813 98.9836 87.4724 98.9666 87.4712 98.9454L85.4742 99.0547C85.5315 100.101 86.3817 101 87.5 101V99ZM117.5 31C117.5 31.0012 117.5 31.0012 117.5 31.0006C117.5 31.0001 117.5 30.9998 117.5 30.9999C117.5 31.0001 117.499 31.0033 117.494 31.0081C117.484 31.0187 117.467 31.0276 117.445 31.0288L117.555 33.0258C118.601 32.9685 119.5 32.1183 119.5 31H117.5Z" fill="#D1D5DB" mask="url(#path-1-inside-1_673_10138)"/>
<path d="M46.4662 71.084C46.3062 71.084 46.1862 71.04 46.1062 70.952C46.0262 70.864 45.9862 70.74 45.9862 70.58V62.948C45.9862 62.788 46.0262 62.668 46.1062 62.588C46.1862 62.5 46.3062 62.456 46.4662 62.456C46.6182 62.456 46.7382 62.5 46.8262 62.588C46.9142 62.668 46.9582 62.788 46.9582 62.948V67.76H46.9822L49.4422 65.408C49.5542 65.304 49.6502 65.224 49.7302 65.168C49.8182 65.112 49.9342 65.084 50.0782 65.084C50.2062 65.084 50.3062 65.12 50.3782 65.192C50.4502 65.256 50.4822 65.34 50.4742 65.444C50.4742 65.54 50.4262 65.644 50.3302 65.756L47.7142 68.24V67.712L50.5582 70.388C50.6702 70.5 50.7262 70.608 50.7262 70.712C50.7262 70.816 50.6862 70.904 50.6062 70.976C50.5342 71.048 50.4382 71.084 50.3182 71.084C50.1742 71.084 50.0582 71.056 49.9702 71C49.8822 70.936 49.7742 70.844 49.6462 70.724L46.9822 68.264H46.9582V70.58C46.9582 70.916 46.7942 71.084 46.4662 71.084ZM52.4662 71.084C52.3062 71.084 52.1862 71.04 52.1062 70.952C52.0262 70.864 51.9862 70.74 51.9862 70.58V65.576C51.9862 65.416 52.0262 65.296 52.1062 65.216C52.1862 65.128 52.3022 65.084 52.4542 65.084C52.6062 65.084 52.7222 65.128 52.8022 65.216C52.8902 65.296 52.9342 65.416 52.9342 65.576V66.608L52.8022 66.464C52.9702 66 53.2422 65.652 53.6182 65.42C54.0022 65.18 54.4422 65.06 54.9382 65.06C55.4022 65.06 55.7862 65.144 56.0902 65.312C56.4022 65.48 56.6342 65.736 56.7862 66.08C56.9382 66.416 57.0142 66.844 57.0142 67.364V70.58C57.0142 70.74 56.9702 70.864 56.8822 70.952C56.8022 71.04 56.6862 71.084 56.5342 71.084C56.3742 71.084 56.2502 71.04 56.1622 70.952C56.0822 70.864 56.0422 70.74 56.0422 70.58V67.424C56.0422 66.88 55.9342 66.484 55.7182 66.236C55.5102 65.98 55.1742 65.852 54.7102 65.852C54.1742 65.852 53.7462 66.02 53.4262 66.356C53.1142 66.684 52.9582 67.124 52.9582 67.676V70.58C52.9582 70.916 52.7942 71.084 52.4662 71.084ZM59.2865 71.06C59.1265 71.06 59.0065 71.016 58.9265 70.928C58.8465 70.832 58.8065 70.7 58.8065 70.532V65.624C58.8065 65.456 58.8465 65.328 58.9265 65.24C59.0065 65.152 59.1265 65.108 59.2865 65.108C59.4385 65.108 59.5585 65.152 59.6465 65.24C59.7345 65.328 59.7785 65.456 59.7785 65.624V70.532C59.7785 70.7 59.7345 70.832 59.6465 70.928C59.5665 71.016 59.4465 71.06 59.2865 71.06ZM59.2865 63.764C59.0865 63.764 58.9305 63.712 58.8185 63.608C58.7065 63.496 58.6505 63.348 58.6505 63.164C58.6505 62.972 58.7065 62.828 58.8185 62.732C58.9305 62.628 59.0865 62.576 59.2865 62.576C59.4945 62.576 59.6505 62.628 59.7545 62.732C59.8665 62.828 59.9225 62.972 59.9225 63.164C59.9225 63.348 59.8665 63.496 59.7545 63.608C59.6505 63.712 59.4945 63.764 59.2865 63.764ZM63.9356 71.108C63.4796 71.108 63.0956 71.028 62.7836 70.868C62.4796 70.7 62.2516 70.46 62.0996 70.148C61.9476 69.828 61.8716 69.44 61.8716 68.984V65.924H61.0676C60.9316 65.924 60.8276 65.892 60.7556 65.828C60.6836 65.756 60.6476 65.66 60.6476 65.54C60.6476 65.42 60.6836 65.328 60.7556 65.264C60.8276 65.2 60.9316 65.168 61.0676 65.168H61.8716V63.788C61.8716 63.628 61.9156 63.508 62.0036 63.428C62.0916 63.34 62.2116 63.296 62.3636 63.296C62.5156 63.296 62.6316 63.34 62.7116 63.428C62.7996 63.508 62.8436 63.628 62.8436 63.788V65.168H64.3556C64.4916 65.168 64.5956 65.2 64.6676 65.264C64.7396 65.328 64.7756 65.42 64.7756 65.54C64.7756 65.66 64.7396 65.756 64.6676 65.828C64.5956 65.892 64.4916 65.924 64.3556 65.924H62.8436V68.888C62.8436 69.344 62.9396 69.692 63.1316 69.932C63.3236 70.164 63.6356 70.28 64.0676 70.28C64.2196 70.28 64.3476 70.264 64.4516 70.232C64.5636 70.2 64.6556 70.184 64.7276 70.184C64.7996 70.176 64.8596 70.2 64.9076 70.256C64.9556 70.312 64.9796 70.408 64.9796 70.544C64.9796 70.64 64.9596 70.728 64.9196 70.808C64.8876 70.888 64.8276 70.944 64.7396 70.976C64.6436 71.008 64.5156 71.036 64.3556 71.06C64.2036 71.092 64.0636 71.108 63.9356 71.108ZM67.8772 71.084C67.7412 71.084 67.6212 71.048 67.5172 70.976C67.4132 70.904 67.3292 70.788 67.2652 70.628L65.4772 65.768C65.4292 65.632 65.4132 65.512 65.4292 65.408C65.4532 65.304 65.5052 65.224 65.5852 65.168C65.6652 65.112 65.7652 65.084 65.8852 65.084C66.0052 65.084 66.1012 65.112 66.1732 65.168C66.2532 65.224 66.3172 65.328 66.3652 65.48L68.0452 70.28H67.7572L69.4852 65.48C69.5412 65.336 69.6092 65.236 69.6892 65.18C69.7772 65.116 69.8892 65.084 70.0252 65.084C70.1532 65.084 70.2612 65.116 70.3492 65.18C70.4372 65.244 70.5052 65.344 70.5532 65.48L72.2452 70.28H71.9692L73.6732 65.456C73.7292 65.312 73.7972 65.216 73.8772 65.168C73.9572 65.112 74.0532 65.084 74.1652 65.084C74.2932 65.084 74.3892 65.116 74.4532 65.18C74.5252 65.244 74.5652 65.328 74.5732 65.432C74.5812 65.536 74.5612 65.648 74.5132 65.768L72.7252 70.628C72.6692 70.78 72.5852 70.896 72.4732 70.976C72.3692 71.048 72.2492 71.084 72.1132 71.084C71.9772 71.084 71.8572 71.048 71.7532 70.976C71.6492 70.896 71.5692 70.78 71.5132 70.628L69.7372 65.756H70.2532L68.4892 70.628C68.4332 70.78 68.3532 70.896 68.2492 70.976C68.1452 71.048 68.0212 71.084 67.8772 71.084ZM78.293 71.108C77.725 71.108 77.233 70.984 76.817 70.736C76.401 70.488 76.077 70.14 75.845 69.692C75.621 69.236 75.509 68.7 75.509 68.084C75.509 67.62 75.573 67.204 75.701 66.836C75.829 66.46 76.017 66.14 76.265 65.876C76.513 65.612 76.805 65.412 77.141 65.276C77.485 65.132 77.869 65.06 78.293 65.06C78.861 65.06 79.353 65.184 79.769 65.432C80.185 65.68 80.505 66.032 80.729 66.488C80.961 66.936 81.077 67.468 81.077 68.084C81.077 68.548 81.013 68.964 80.885 69.332C80.757 69.7 80.569 70.02 80.321 70.292C80.073 70.556 79.777 70.76 79.433 70.904C79.097 71.04 78.717 71.108 78.293 71.108ZM78.293 70.328C78.653 70.328 78.969 70.24 79.241 70.064C79.513 69.888 79.721 69.632 79.865 69.296C80.017 68.96 80.093 68.556 80.093 68.084C80.093 67.356 79.929 66.8 79.601 66.416C79.281 66.032 78.845 65.84 78.293 65.84C77.925 65.84 77.605 65.928 77.333 66.104C77.069 66.272 76.861 66.524 76.709 66.86C76.565 67.188 76.493 67.596 76.493 68.084C76.493 68.804 76.657 69.36 76.985 69.752C77.313 70.136 77.749 70.328 78.293 70.328ZM83.029 71.084C82.869 71.084 82.745 71.04 82.657 70.952C82.577 70.864 82.537 70.74 82.537 70.58V65.576C82.537 65.416 82.577 65.296 82.657 65.216C82.737 65.128 82.853 65.084 83.005 65.084C83.157 65.084 83.273 65.128 83.353 65.216C83.441 65.296 83.485 65.416 83.485 65.576V66.548H83.365C83.493 66.076 83.737 65.712 84.097 65.456C84.457 65.2 84.901 65.064 85.429 65.048C85.549 65.04 85.645 65.068 85.717 65.132C85.789 65.188 85.829 65.288 85.837 65.432C85.845 65.568 85.813 65.676 85.741 65.756C85.669 65.836 85.557 65.884 85.405 65.9L85.213 65.924C84.669 65.972 84.249 66.148 83.953 66.452C83.665 66.748 83.521 67.156 83.521 67.676V70.58C83.521 70.74 83.477 70.864 83.389 70.952C83.309 71.04 83.189 71.084 83.029 71.084ZM87.3178 71.084C87.1578 71.084 87.0378 71.04 86.9578 70.952C86.8778 70.864 86.8378 70.74 86.8378 70.58V62.948C86.8378 62.788 86.8778 62.668 86.9578 62.588C87.0378 62.5 87.1578 62.456 87.3178 62.456C87.4698 62.456 87.5898 62.5 87.6778 62.588C87.7658 62.668 87.8098 62.788 87.8098 62.948V67.76H87.8338L90.2938 65.408C90.4058 65.304 90.5018 65.224 90.5818 65.168C90.6698 65.112 90.7858 65.084 90.9298 65.084C91.0578 65.084 91.1578 65.12 91.2298 65.192C91.3018 65.256 91.3338 65.34 91.3258 65.444C91.3258 65.54 91.2778 65.644 91.1818 65.756L88.5658 68.24V67.712L91.4098 70.388C91.5218 70.5 91.5778 70.608 91.5778 70.712C91.5778 70.816 91.5378 70.904 91.4578 70.976C91.3858 71.048 91.2898 71.084 91.1698 71.084C91.0258 71.084 90.9098 71.056 90.8218 71C90.7338 70.936 90.6258 70.844 90.4978 70.724L87.8338 68.264H87.8098V70.58C87.8098 70.916 87.6458 71.084 87.3178 71.084Z" fill="#030712"/>
<path d="M68.3097 49.6666C74.5448 49.6666 79.5994 44.612 79.5994 38.3769C79.5994 32.1418 74.5448 27.0872 68.3097 27.0872C62.0746 27.0872 57.02 32.1418 57.02 38.3769C57.02 44.612 62.0746 49.6666 68.3097 49.6666Z" fill="#880E4F"/>
<path d="M66.1681 34.0741C66.1419 34.0741 66.1134 34.0675 66.0872 34.0653C65.6256 34.0391 65.5031 33.5141 65.5797 33.2253C66.0522 31.4162 65.8181 29.8084 65.0438 27.7544C64.8841 27.3344 65.5206 27.225 65.7984 27.3366C66.0653 27.4437 66.3125 27.8287 66.4197 28.1197C67.0606 29.8544 67.24 31.6766 66.7106 33.6256C66.6406 33.8881 66.4306 34.0806 66.1681 34.0741Z" fill="#EC407A"/>
<path d="M67.5812 35.7519C67.5331 35.7519 67.485 35.7431 67.4369 35.7278C67.3689 35.7073 67.3056 35.6736 67.2507 35.6287C67.1957 35.5837 67.1502 35.5284 67.1166 35.4658C67.0831 35.4032 67.0623 35.3346 67.0553 35.264C67.0483 35.1933 67.0553 35.122 67.0759 35.054C67.6841 33.0415 68.1281 29.7515 66.7194 27.2797C66.5706 27.0194 66.9491 26.8487 67.2466 26.8772C67.9291 26.9384 68.3272 27.96 68.4584 28.415C69.0753 30.539 68.8741 33.3784 68.1106 35.3669C68.0231 35.6009 67.8175 35.7584 67.5812 35.7519Z" fill="#EC407A"/>
<path d="M69.0381 37.3378C68.6662 37.2306 68.5963 36.7406 68.6816 36.4541C70.3747 30.7797 68.6706 27.2928 68.6575 27.2556C68.5525 26.9756 69.4713 26.5928 69.9241 27.7281C69.9897 27.8922 71.5013 31.6875 69.7972 36.9156C69.7163 37.1563 69.4275 37.4516 69.0381 37.3378ZM59.4044 45.7969C59.2469 45.6109 59.05 45.3156 59.2994 45.1494C59.7128 44.8716 61.1325 44.4209 62.2678 42.8809C62.445 42.6403 62.7447 42.5288 63.005 42.6775C63.2653 42.8241 63.3812 43.1719 63.2084 43.4147C61.8303 45.3572 60.1525 45.8822 60.0847 45.9216C60.0016 45.9697 59.5619 45.9828 59.4044 45.7969ZM60.3166 46.6041C60.2028 46.3197 60.9291 46.195 60.9291 46.195C61.2506 46.0725 62.5697 45.8253 63.6219 44.1694C63.7816 43.9178 64.1009 43.8194 64.3591 43.9681C64.6194 44.1169 64.7091 44.4472 64.5603 44.7053C63.8538 45.9434 62.4734 46.8709 61.5284 47.0963C61.0231 47.2166 60.4281 46.8819 60.3166 46.6041ZM62.0841 48.225C61.7494 48.0478 61.6509 47.7241 61.8631 47.6541C63.1166 47.2494 64.4859 46.2038 65.1509 45.2194C65.3172 44.9722 65.6541 44.9066 65.9012 45.075C66.1484 45.2413 66.2119 45.5781 66.0456 45.8253C65.2647 47.0022 64.4684 47.5972 63.1691 48.1616C62.9219 48.2688 62.3969 48.3913 62.0841 48.225ZM63.6853 48.7084C64.5056 48.3322 65.8728 47.5534 66.6647 46.2256C66.8178 45.9697 67.1503 45.8844 67.4063 46.0375C67.6622 46.1906 67.7475 46.5231 67.5944 46.7791C66.9556 47.8509 66.0675 48.6975 64.7134 49.1744C64.055 49.4084 63.4141 48.8353 63.6853 48.7084ZM58.6475 44.235C56.8253 42.0869 56.5037 39.2825 56.9719 36.5044C57.0791 35.8656 57.3131 35.4675 57.545 35.4697C57.8447 35.4741 58.1334 36.5022 58.0459 37.06C57.6522 39.5691 58.3784 42.03 59.9491 43.9441C60.0431 44.06 59.9097 44.4516 59.575 44.5981C59.2403 44.7425 58.8662 44.4931 58.6475 44.235Z" fill="#EC407A"/>
<path d="M60.0366 43.0253C59.2119 42.2509 58.5294 39.8272 58.5272 38.6744C58.5272 38.3747 58.5294 37.9438 58.8291 37.9438C58.8291 37.9438 59.4984 38.0466 59.61 38.6722C59.7697 39.5734 60.2684 41.6428 61.0997 42.6906C61.2856 42.9247 60.5988 43.5525 60.0366 43.0253Z" fill="#EC407A"/>
<path d="M69.0316 50.0844C68.08 50.1325 66.6187 49.9334 66.1397 49.2772C65.9625 49.0366 66.2797 48.8091 66.5684 48.8856C68.3097 49.3559 69.515 49.6294 71.7397 48.5487C72.1903 48.33 72.6891 48.5597 72.4659 48.8747C72.1531 49.3187 70.7422 50.0078 69.0316 50.0844Z" fill="#D81B60"/>
<path d="M67.2466 48.1222C67.0781 47.875 67.5791 47.4616 67.8766 47.5097C68.3469 47.5841 68.6728 47.6672 69.0009 47.6803C69.3378 47.6934 69.7512 47.5709 69.8781 47.5709C70.1778 47.5709 70.8953 47.8662 70.7116 48.1025C70.1428 48.8331 67.7781 48.8987 67.2466 48.1222Z" fill="#D81B60"/>
<path d="M73.4175 35.7497C73.1441 35.7825 72.8859 35.6009 72.8269 35.3275C72.7634 35.0366 72.9494 34.7478 73.2403 34.6844C74.5287 34.4044 76.2087 33.4441 77.1887 31.9019C77.4228 31.5322 78.1512 32.2256 77.7597 32.8119C76.5828 34.5816 75.0406 35.4019 73.47 35.7409C73.4525 35.7431 73.435 35.7475 73.4175 35.7497Z" fill="#EC407A"/>
<path d="M73.0434 37.7075C72.903 37.7243 72.7616 37.6854 72.6495 37.5991C72.5374 37.5128 72.4637 37.386 72.4441 37.2459C72.4025 36.9506 72.6059 36.675 72.9034 36.6334C75.0231 36.3294 77.3397 34.7128 78.1184 33.0941C78.2475 32.825 79.1422 33.6191 78.5034 34.505C77.3637 36.0822 75.1281 37.4078 73.0587 37.7031C73.0522 37.7075 73.0478 37.7075 73.0434 37.7075Z" fill="#EC407A"/>
<path d="M73.2381 39.4269C73.0653 39.4466 72.8947 39.4619 72.7306 39.4684C72.4331 39.4816 72.1794 39.2497 72.1662 38.95C72.1531 38.6503 72.385 38.3966 72.6847 38.3878C74.8525 38.2959 78.0047 36.8391 78.9825 35.0256C79.1247 34.7631 80.0303 35.5069 79.2603 36.4825C78.6828 37.2153 77.7728 37.8147 76.7316 38.3375C75.6028 38.9062 74.3341 39.2978 73.2381 39.4269ZM74.9509 40.9056C74.7978 40.9231 74.6556 40.9319 74.5287 40.9275C74.4577 40.926 74.3877 40.9105 74.3227 40.8818C74.2577 40.8531 74.199 40.8119 74.15 40.7604C74.101 40.709 74.0627 40.6484 74.0372 40.5821C74.0117 40.5158 73.9996 40.4451 74.0016 40.3741C74.0031 40.303 74.0186 40.233 74.0473 40.168C74.0759 40.103 74.1172 40.0443 74.1686 39.9953C74.22 39.9463 74.2807 39.908 74.347 39.8825C74.4133 39.857 74.484 39.8449 74.555 39.8469C75.5547 39.8687 78.2541 38.8187 79.4003 37.0184C79.5622 36.7669 80.1594 37.7075 79.5141 38.4425C78.1184 40.0328 76.27 40.7503 74.9509 40.9056ZM70.7794 38.7553C70.7137 38.7553 70.6481 38.7444 70.5825 38.7181C70.3047 38.6109 70.1778 38.3003 70.2741 38.0181C71.3875 34.7522 71.7769 30.9022 70.3769 27.3562C70.2675 27.0784 71.335 27.0412 71.6172 27.8703C72.9472 31.7947 72.5469 34.9709 71.2825 38.4097C71.2037 38.6262 70.9959 38.7553 70.7794 38.7553Z" fill="#EC407A"/>
<path d="M74.8612 32.5209C74.5834 32.1731 73.5203 31.3331 73.1091 31.1888C72.8269 31.0881 72.7284 30.1169 73.0281 30.1169C74.0125 30.1147 75.3622 31.0881 75.7647 32.02C76.0622 32.7091 75.43 33.2319 74.8612 32.5209ZM76.235 31.6459C75.2659 30.3509 74.4872 29.5 72.6934 28.87C72.28 28.7234 71.8884 28.2159 72.14 28.0541C72.6059 27.7522 73.4744 28.1197 73.7172 28.2356C74.6666 28.6884 75.5459 29.1741 76.2853 30.0338C76.7031 30.5194 77.1931 31.5322 76.9941 31.7531C76.6922 32.0878 76.3422 31.7881 76.235 31.6459ZM76.5062 42.3953C76.3487 42.1416 77.2259 41.7763 77.3047 40.8488C77.3309 40.5513 78.2366 40.2013 78.2562 40.4988C78.3306 41.6581 77.9216 42.0803 77.4666 42.4106C76.97 42.7672 76.6069 42.5616 76.5062 42.3953ZM78.3087 43.1872C77.9041 43.0953 78.0659 42.66 78.2541 42.4281C78.9716 41.5488 79.0372 41.0784 78.9628 40.1203C78.9256 39.6478 79.3128 39.2256 79.4966 39.4597C79.735 39.7659 79.9144 40.6606 79.7437 41.3956C79.3412 43.1434 78.4356 43.2156 78.3087 43.1872ZM74.2072 33.0306C74.2728 33.1159 74.3362 33.2078 74.3625 33.3106C74.3909 33.4156 74.3778 33.5359 74.3078 33.6169C74.2597 33.6716 74.1941 33.7044 74.1284 33.735C74.0037 33.7941 73.8791 33.8531 73.7434 33.8772C73.6078 33.9013 73.4612 33.8859 73.3497 33.8072C73.2097 33.7066 73.1528 33.5272 73.1156 33.3609C73.0522 33.0897 73.0128 32.8141 72.9931 32.5363C72.9887 32.4706 72.9866 32.3984 73.0172 32.3394C73.2031 31.9894 74.0803 32.8709 74.2072 33.0306Z" fill="#D81B60"/>
<path d="M74.8613 47.4637C73.575 47.2384 72.2844 46.7353 71.0222 46.1622C70.7313 46.0222 70.4513 45.8756 70.1713 45.7269C69.7075 45.9894 69.2088 46.2016 68.6881 46.3591C70.0684 47.1312 71.2147 47.5491 72.0547 47.7984C73.4919 48.2272 74.0803 48.1484 74.2028 48.1309C74.6753 48.0587 75.1544 47.5228 74.8613 47.4637Z" fill="#EC407A"/>
<path d="M58.7109 33.9384C58.5687 33.6759 58.3566 33.0241 58.3566 33.0241C57.9803 32.9781 57.6719 33.4637 57.8097 34.2884C57.8906 34.7631 60.0322 40.1597 66.3628 44.8519C67.1941 45.4687 67.9706 45.9609 68.6859 46.3612C68.6859 46.3612 69.1891 46.6937 69.8759 46.3394C70.4578 46.0397 70.1691 45.7269 70.1691 45.7269C65.0612 43.0362 61.5634 39.1775 58.7109 33.9384Z" fill="#F06292"/>
<path d="M76.2984 46.2759C74.7519 45.7816 73.2513 45.1909 71.8163 44.48C71.5253 44.7863 71.2059 45.0641 70.8625 45.3134C71.1666 45.4841 71.4684 45.6481 71.7681 45.8078C72.7109 46.3109 76.4822 47.9516 76.2984 46.2759Z" fill="#EC407A"/>
<path d="M71.8141 44.48C66.6953 41.9447 62.2897 37.9722 59.5072 31.2653C58.7744 31.4272 58.8509 32.2869 58.9559 32.5669C61.4431 39.1841 66.4809 42.8569 70.8603 45.3134C70.8603 45.3134 71.5516 45.6941 72.0087 45.11C72.2822 44.7578 71.8141 44.48 71.8141 44.48Z" fill="#F06292"/>
<path d="M77.3987 44.865C75.7778 44.4034 74.2662 43.7625 72.8641 43.0056C72.6856 43.3519 72.4762 43.6814 72.2384 43.99C73.3584 44.5587 74.5419 45.04 75.7844 45.4009C77.355 45.8537 77.6941 44.9153 77.3987 44.865Z" fill="#EC407A"/>
<path d="M60.8525 29.9003C60.6731 29.5219 59.9163 30.0972 60.0475 30.6944C60.8634 33.665 64.6325 40.35 72.2384 43.99C72.2384 43.99 72.8466 44.2569 73.0784 43.7494C73.3103 43.2397 72.8663 43.0056 72.8663 43.0056C64.8753 38.7553 61.8413 32.6675 60.8525 29.9003Z" fill="#F06292"/>
<path d="M78.4816 43.4978C76.6528 42.824 75.0188 42.0956 73.5356 41.2753C73.5247 41.3606 73.5116 41.4459 73.4919 41.5247C73.4153 41.855 73.3125 42.1722 73.19 42.4762C74.4828 43.139 75.8741 43.7056 77.3747 44.1759C78.5734 44.5106 78.7616 43.605 78.4816 43.4978Z" fill="#EC407A"/>
<path d="M73.5356 41.2753C68.1281 38.3025 65.3959 34.9053 62.3838 29.0406C62.0163 28.45 61.1216 28.9903 61.4694 29.6181C64.125 35.3778 66.96 38.9522 73.19 42.4785C73.19 42.4785 73.6669 42.6644 73.8506 42.1088C73.9666 41.7588 73.8572 41.4503 73.5356 41.2753Z" fill="#F06292"/>
<path d="M69.9262 53.125C69.3203 53.125 68.7056 53.1097 68.0909 53.0747C64.3 52.8647 59.5662 51.561 58.1356 49.1875C57.6872 48.446 56.3244 46.1863 59.1047 41.6144C60.6644 39.0506 64.4116 33.5731 63.3856 28.3406C63.3856 28.3406 63.2434 27.8375 63.6919 27.6472C64.3547 27.3672 64.4619 27.936 64.4619 27.936C65.7722 34.0413 61.8566 39.5975 60.2181 42.2903C58.0941 45.7838 58.6497 47.5141 59.2512 48.5116C59.9469 49.6622 62.8934 51.48 68.1631 51.771C74.7869 52.1363 78.8403 50.4803 79.2559 49.8875C79.2712 49.6644 79.1269 49.4019 76.6419 49.3494C75.9528 49.3341 76.0163 48.3278 76.3619 48.2885C77.3725 48.1703 79.2734 48.1703 80.1441 48.8003C80.5838 49.1197 80.7675 49.59 80.5947 50.1369C80.0763 51.7753 75.4628 53.125 69.9262 53.125Z" fill="#FF80AB"/>
</svg>
