<svg width="119" height="118" viewBox="0 0 119 118" fill="none" xmlns="http://www.w3.org/2000/svg">
<mask id="path-1-inside-1_673_10139" fill="white">
<path fill-rule="evenodd" clip-rule="evenodd" d="M69.5 18C68.9477 18 68.5029 17.5515 68.4727 17C67.9538 7.52403 60.1056 0 50.5 0C40.8944 0 33.0462 7.52403 32.5273 17C32.4971 17.5515 32.0523 18 31.5 18L4.5 18C2.29086 18 0.5 19.7909 0.5 22L0.500002 49C0.500002 49.5523 0.948499 49.9971 1.49996 50.0273C10.976 50.5462 18.5 58.3944 18.5 68C18.5 77.6056 10.976 85.4538 1.49996 85.9727C0.9485 86.0029 0.500002 86.4477 0.500002 87L0.5 114C0.5 116.209 2.29086 118 4.5 118H31.5C32.0523 118 32.4971 117.552 32.5273 117C33.0462 107.524 40.8944 100 50.5 100C60.1056 100 67.9538 107.524 68.4727 117C68.5029 117.552 68.9477 118 69.5 118H96.5C98.7091 118 100.5 116.209 100.5 114L100.5 87C100.5 86.4477 100.948 86.0029 101.5 85.9727C110.976 85.4538 118.5 77.6056 118.5 68C118.5 58.3944 110.976 50.5462 101.5 50.0273C100.948 49.9971 100.5 49.5523 100.5 49L100.5 22C100.5 19.7909 98.7091 18 96.5 18L69.5 18Z"/>
</mask>
<path fill-rule="evenodd" clip-rule="evenodd" d="M69.5 18C68.9477 18 68.5029 17.5515 68.4727 17C67.9538 7.52403 60.1056 0 50.5 0C40.8944 0 33.0462 7.52403 32.5273 17C32.4971 17.5515 32.0523 18 31.5 18L4.5 18C2.29086 18 0.5 19.7909 0.5 22L0.500002 49C0.500002 49.5523 0.948499 49.9971 1.49996 50.0273C10.976 50.5462 18.5 58.3944 18.5 68C18.5 77.6056 10.976 85.4538 1.49996 85.9727C0.9485 86.0029 0.500002 86.4477 0.500002 87L0.5 114C0.5 116.209 2.29086 118 4.5 118H31.5C32.0523 118 32.4971 117.552 32.5273 117C33.0462 107.524 40.8944 100 50.5 100C60.1056 100 67.9538 107.524 68.4727 117C68.5029 117.552 68.9477 118 69.5 118H96.5C98.7091 118 100.5 116.209 100.5 114L100.5 87C100.5 86.4477 100.948 86.0029 101.5 85.9727C110.976 85.4538 118.5 77.6056 118.5 68C118.5 58.3944 110.976 50.5462 101.5 50.0273C100.948 49.9971 100.5 49.5523 100.5 49L100.5 22C100.5 19.7909 98.7091 18 96.5 18L69.5 18Z" fill="#FFFFFF" fill-opacity="1"/>
<path d="M4.5 18L4.5 17H4.5V18ZM0.5 22L-0.5 22L-0.5 22L0.5 22ZM0.5 114L-0.5 114V114H0.5ZM96.5 18L96.5 17L96.5 17L96.5 18ZM101.5 50.0273L101.555 49.0288L101.5 50.0273ZM101.5 85.9727L101.445 84.9742L101.5 85.9727ZM32.5273 117L31.5288 116.945L32.5273 117ZM1.49996 85.9727L1.44529 84.9742L1.49996 85.9727ZM32.5273 17L31.5288 16.9454L32.5273 17ZM68.4727 117L69.4712 116.945L68.4727 117ZM68.4727 17L69.4712 16.9454L68.4727 17ZM69.5 18L69.5 17L69.5 18ZM50.5 1C59.5716 1 66.9842 8.10603 67.4742 17.0547L69.4712 16.9454C68.9235 6.94204 60.6396 -1 50.5 -1V1ZM33.5258 17.0547C34.0158 8.10603 41.4284 1 50.5 1V-1C40.3604 -1 32.0765 6.94204 31.5288 16.9454L33.5258 17.0547ZM31.5 17L4.5 17L4.5 19L31.5 19L31.5 17ZM4.5 17C1.73858 17 -0.5 19.2386 -0.5 22H1.5C1.5 20.3431 2.84315 19 4.5 19V17ZM-0.5 22L-0.499998 49L1.5 49L1.5 22L-0.5 22ZM1.44528 51.0258C10.394 51.5158 17.5 58.9284 17.5 68H19.5C19.5 57.8604 11.558 49.5765 1.55463 49.0288L1.44528 51.0258ZM17.5 68C17.5 77.0716 10.394 84.4842 1.44529 84.9742L1.55463 86.9712C11.558 86.4235 19.5 78.1396 19.5 68H17.5ZM-0.499998 87L-0.5 114L1.5 114L1.5 87L-0.499998 87ZM-0.5 114C-0.5 116.761 1.73858 119 4.5 119L4.5 117C2.84315 117 1.5 115.657 1.5 114H-0.5ZM4.5 119H31.5V117H4.5L4.5 119ZM33.5258 117.055C34.0158 108.106 41.4284 101 50.5 101V99C40.3604 99 32.0765 106.942 31.5288 116.945L33.5258 117.055ZM50.5 101C59.5716 101 66.9842 108.106 67.4742 117.055L69.4712 116.945C68.9235 106.942 60.6396 99 50.5 99V101ZM69.5 119H96.5V117H69.5V119ZM96.5 119C99.2614 119 101.5 116.761 101.5 114H99.5C99.5 115.657 98.1569 117 96.5 117V119ZM101.5 114L101.5 87H99.5L99.5 114H101.5ZM101.555 86.9712C111.558 86.4235 119.5 78.1396 119.5 68H117.5C117.5 77.0716 110.394 84.4842 101.445 84.9742L101.555 86.9712ZM119.5 68C119.5 57.8604 111.558 49.5765 101.555 49.0288L101.445 51.0258C110.394 51.5158 117.5 58.9284 117.5 68H119.5ZM101.5 49L101.5 22H99.5L99.5 49H101.5ZM101.5 22C101.5 19.2386 99.2614 17 96.5 17V19C98.1569 19 99.5 20.3431 99.5 22H101.5ZM96.5 17L69.5 17L69.5 19L96.5 19L96.5 17ZM101.555 49.0288C101.533 49.0276 101.516 49.0187 101.506 49.0081C101.501 49.0033 101.5 49.0001 101.5 48.9999C101.5 48.9998 101.5 49.0001 101.5 49.0006C101.5 49.0012 101.5 49.0012 101.5 49H99.5C99.5 50.1183 100.399 50.9685 101.445 51.0258L101.555 49.0288ZM101.5 87C101.5 86.9988 101.5 86.9988 101.5 86.9993C101.5 86.9999 101.5 87.0002 101.5 87.0001C101.5 86.9999 101.501 86.9967 101.506 86.9919C101.516 86.9813 101.533 86.9724 101.555 86.9712L101.445 84.9742C100.399 85.0315 99.5 85.8817 99.5 87H101.5ZM31.5 119C32.6183 119 33.4685 118.101 33.5258 117.055L31.5288 116.945C31.5276 116.967 31.5187 116.984 31.5081 116.994C31.5033 116.999 31.5001 117 31.4999 117C31.4998 117 31.5001 117 31.5007 117C31.5012 117 31.5012 117 31.5 117V119ZM-0.499998 49C-0.499998 50.1183 0.399213 50.9685 1.44528 51.0258L1.55463 49.0288C1.53335 49.0276 1.5164 49.0187 1.506 49.0081C1.50127 49.0033 1.49985 49.0001 1.49977 48.9999C1.49974 48.9998 1.49987 49.0001 1.49998 49.0007C1.5001 49.0012 1.5 49.0012 1.5 49L-0.499998 49ZM1.44529 84.9742C0.399216 85.0315 -0.499998 85.8817 -0.499998 87L1.5 87C1.5 86.9988 1.5001 86.9988 1.49998 86.9994C1.49987 86.9999 1.49974 87.0002 1.49977 87.0001C1.49985 86.9999 1.50127 86.9967 1.506 86.9919C1.5164 86.9813 1.53335 86.9724 1.55463 86.9712L1.44529 84.9742ZM31.5288 16.9454C31.5276 16.9667 31.5187 16.9836 31.5081 16.994C31.5033 16.9987 31.5001 17.0002 31.4999 17.0002C31.4998 17.0003 31.5001 17.0001 31.5006 17C31.5012 16.9999 31.5012 17 31.5 17L31.5 19C32.6183 19 33.4685 18.1008 33.5258 17.0547L31.5288 16.9454ZM67.4742 117.055C67.5315 118.101 68.3817 119 69.5 119V117C69.4988 117 69.4988 117 69.4994 117C69.4999 117 69.5002 117 69.5001 117C69.4999 117 69.4967 116.999 69.4919 116.994C69.4813 116.984 69.4724 116.967 69.4712 116.945L67.4742 117.055ZM67.4742 17.0547C67.5315 18.1008 68.3817 19 69.5 19L69.5 17C69.4988 17 69.4988 16.9999 69.4994 17C69.4999 17.0001 69.5002 17.0003 69.5001 17.0002C69.4999 17.0002 69.4967 16.9987 69.4919 16.994C69.4813 16.9836 69.4724 16.9666 69.4712 16.9454L67.4742 17.0547Z" fill="#D1D5DB" mask="url(#path-1-inside-1_673_10139)"/>
<path d="M35.0122 89.108C34.4362 89.108 33.9962 88.932 33.6922 88.58C33.3882 88.228 33.2362 87.724 33.2362 87.068V80.948C33.2362 80.788 33.2762 80.668 33.3562 80.588C33.4362 80.5 33.5562 80.456 33.7162 80.456C33.8682 80.456 33.9882 80.5 34.0762 80.588C34.1642 80.668 34.2082 80.788 34.2082 80.948V86.996C34.2082 87.428 34.2922 87.752 34.4602 87.968C34.6362 88.176 34.8922 88.28 35.2282 88.28C35.3002 88.28 35.3642 88.276 35.4202 88.268C35.4762 88.26 35.5322 88.256 35.5882 88.256C35.6762 88.248 35.7362 88.268 35.7682 88.316C35.8082 88.364 35.8282 88.46 35.8282 88.604C35.8282 88.748 35.7962 88.856 35.7322 88.928C35.6682 89 35.5642 89.048 35.4202 89.072C35.3562 89.08 35.2882 89.088 35.2162 89.096C35.1442 89.104 35.0762 89.108 35.0122 89.108ZM37.267 89.06C37.107 89.06 36.987 89.016 36.907 88.928C36.827 88.832 36.787 88.7 36.787 88.532V83.624C36.787 83.456 36.827 83.328 36.907 83.24C36.987 83.152 37.107 83.108 37.267 83.108C37.419 83.108 37.539 83.152 37.627 83.24C37.715 83.328 37.759 83.456 37.759 83.624V88.532C37.759 88.7 37.715 88.832 37.627 88.928C37.547 89.016 37.427 89.06 37.267 89.06ZM37.267 81.764C37.067 81.764 36.911 81.712 36.799 81.608C36.687 81.496 36.631 81.348 36.631 81.164C36.631 80.972 36.687 80.828 36.799 80.732C36.911 80.628 37.067 80.576 37.267 80.576C37.475 80.576 37.631 80.628 37.735 80.732C37.847 80.828 37.903 80.972 37.903 81.164C37.903 81.348 37.847 81.496 37.735 81.608C37.631 81.712 37.475 81.764 37.267 81.764ZM41.5441 89.108C41.1841 89.108 40.8201 89.064 40.4521 88.976C40.0921 88.888 39.7561 88.736 39.4441 88.52C39.3641 88.464 39.3081 88.4 39.2761 88.328C39.2441 88.248 39.2321 88.172 39.2401 88.1C39.2561 88.02 39.2881 87.952 39.3361 87.896C39.3921 87.84 39.4561 87.808 39.5281 87.8C39.6081 87.784 39.6961 87.8 39.7921 87.848C40.1041 88.04 40.4041 88.176 40.6921 88.256C40.9881 88.328 41.2801 88.364 41.5681 88.364C42.0241 88.364 42.3681 88.28 42.6001 88.112C42.8321 87.944 42.9481 87.716 42.9481 87.428C42.9481 87.204 42.8721 87.028 42.7201 86.9C42.5681 86.764 42.3281 86.66 42.0001 86.588L40.9081 86.348C40.4041 86.244 40.0281 86.064 39.7801 85.808C39.5401 85.552 39.4201 85.22 39.4201 84.812C39.4201 84.452 39.5121 84.144 39.6961 83.888C39.8881 83.624 40.1561 83.42 40.5001 83.276C40.8441 83.132 41.2441 83.06 41.7001 83.06C42.0521 83.06 42.3841 83.108 42.6961 83.204C43.0161 83.292 43.3041 83.436 43.5601 83.636C43.6401 83.692 43.6921 83.76 43.7161 83.84C43.7481 83.912 43.7521 83.988 43.7281 84.068C43.7121 84.14 43.6761 84.204 43.6201 84.26C43.5641 84.308 43.4961 84.336 43.4161 84.344C43.3361 84.352 43.2521 84.328 43.1641 84.272C42.9241 84.112 42.6801 83.996 42.4321 83.924C42.1841 83.844 41.9401 83.804 41.7001 83.804C41.2521 83.804 40.9121 83.892 40.6801 84.068C40.4481 84.244 40.3321 84.476 40.3321 84.764C40.3321 84.988 40.4041 85.172 40.5481 85.316C40.6921 85.46 40.9161 85.564 41.2201 85.628L42.3121 85.856C42.8321 85.968 43.2201 86.148 43.4761 86.396C43.7401 86.636 43.8721 86.964 43.8721 87.38C43.8721 87.908 43.6601 88.328 43.2361 88.64C42.8121 88.952 42.2481 89.108 41.5441 89.108ZM47.6348 89.108C47.1788 89.108 46.7948 89.028 46.4828 88.868C46.1788 88.7 45.9508 88.46 45.7988 88.148C45.6468 87.828 45.5708 87.44 45.5708 86.984V83.924H44.7668C44.6308 83.924 44.5268 83.892 44.4548 83.828C44.3828 83.756 44.3468 83.66 44.3468 83.54C44.3468 83.42 44.3828 83.328 44.4548 83.264C44.5268 83.2 44.6308 83.168 44.7668 83.168H45.5708V81.788C45.5708 81.628 45.6148 81.508 45.7028 81.428C45.7908 81.34 45.9108 81.296 46.0628 81.296C46.2148 81.296 46.3308 81.34 46.4108 81.428C46.4988 81.508 46.5428 81.628 46.5428 81.788V83.168H48.0548C48.1908 83.168 48.2948 83.2 48.3668 83.264C48.4388 83.328 48.4748 83.42 48.4748 83.54C48.4748 83.66 48.4388 83.756 48.3668 83.828C48.2948 83.892 48.1908 83.924 48.0548 83.924H46.5428V86.888C46.5428 87.344 46.6388 87.692 46.8308 87.932C47.0228 88.164 47.3348 88.28 47.7668 88.28C47.9188 88.28 48.0468 88.264 48.1508 88.232C48.2628 88.2 48.3548 88.184 48.4268 88.184C48.4988 88.176 48.5588 88.2 48.6068 88.256C48.6548 88.312 48.6788 88.408 48.6788 88.544C48.6788 88.64 48.6588 88.728 48.6188 88.808C48.5868 88.888 48.5268 88.944 48.4388 88.976C48.3428 89.008 48.2148 89.036 48.0548 89.06C47.9028 89.092 47.7628 89.108 47.6348 89.108ZM50.0404 89.084C49.8804 89.084 49.7604 89.04 49.6804 88.952C49.6004 88.864 49.5604 88.74 49.5604 88.58V80.948C49.5604 80.788 49.6004 80.668 49.6804 80.588C49.7604 80.5 49.8804 80.456 50.0404 80.456C50.1924 80.456 50.3124 80.5 50.4004 80.588C50.4884 80.668 50.5324 80.788 50.5324 80.948V84.464H50.3764C50.5444 84 50.8164 83.652 51.1924 83.42C51.5764 83.18 52.0164 83.06 52.5124 83.06C52.9764 83.06 53.3604 83.144 53.6644 83.312C53.9764 83.48 54.2084 83.736 54.3604 84.08C54.5124 84.416 54.5884 84.844 54.5884 85.364V88.58C54.5884 88.74 54.5444 88.864 54.4564 88.952C54.3764 89.04 54.2604 89.084 54.1084 89.084C53.9484 89.084 53.8244 89.04 53.7364 88.952C53.6564 88.864 53.6164 88.74 53.6164 88.58V85.424C53.6164 84.88 53.5084 84.484 53.2924 84.236C53.0844 83.98 52.7484 83.852 52.2844 83.852C51.7484 83.852 51.3204 84.02 51.0004 84.356C50.6884 84.684 50.5324 85.124 50.5324 85.676V88.58C50.5324 88.916 50.3684 89.084 50.0404 89.084ZM59.0088 89.108C58.3928 89.108 57.8608 88.988 57.4128 88.748C56.9728 88.5 56.6288 88.152 56.3808 87.704C56.1408 87.256 56.0208 86.72 56.0208 86.096C56.0208 85.488 56.1408 84.96 56.3808 84.512C56.6208 84.056 56.9488 83.7 57.3648 83.444C57.7888 83.188 58.2768 83.06 58.8288 83.06C59.2208 83.06 59.5728 83.128 59.8848 83.264C60.1968 83.392 60.4608 83.58 60.6768 83.828C60.9008 84.076 61.0688 84.376 61.1808 84.728C61.3008 85.08 61.3608 85.476 61.3608 85.916C61.3608 86.044 61.3248 86.14 61.2528 86.204C61.1808 86.26 61.0768 86.288 60.9408 86.288H56.7648V85.652H60.7128L60.5208 85.808C60.5208 85.376 60.4568 85.012 60.3288 84.716C60.2008 84.412 60.0128 84.18 59.7648 84.02C59.5248 83.86 59.2208 83.78 58.8528 83.78C58.4448 83.78 58.0968 83.876 57.8088 84.068C57.5288 84.252 57.3168 84.512 57.1728 84.848C57.0288 85.176 56.9568 85.56 56.9568 86V86.072C56.9568 86.808 57.1328 87.368 57.4848 87.752C57.8448 88.136 58.3528 88.328 59.0088 88.328C59.2808 88.328 59.5488 88.292 59.8128 88.22C60.0848 88.148 60.3488 88.028 60.6048 87.86C60.7168 87.788 60.8168 87.756 60.9048 87.764C61.0008 87.764 61.0768 87.792 61.1328 87.848C61.1888 87.896 61.2248 87.96 61.2408 88.04C61.2648 88.112 61.2568 88.192 61.2168 88.28C61.1848 88.368 61.1168 88.444 61.0128 88.508C60.7488 88.7 60.4368 88.848 60.0768 88.952C59.7168 89.056 59.3608 89.108 59.0088 89.108ZM63.2475 89.084C63.0875 89.084 62.9675 89.04 62.8875 88.952C62.8075 88.864 62.7675 88.74 62.7675 88.58V83.576C62.7675 83.416 62.8075 83.296 62.8875 83.216C62.9675 83.128 63.0835 83.084 63.2355 83.084C63.3875 83.084 63.5035 83.128 63.5835 83.216C63.6715 83.296 63.7155 83.416 63.7155 83.576V84.608L63.5835 84.464C63.7515 84 64.0235 83.652 64.3995 83.42C64.7835 83.18 65.2235 83.06 65.7195 83.06C66.1835 83.06 66.5675 83.144 66.8715 83.312C67.1835 83.48 67.4155 83.736 67.5675 84.08C67.7195 84.416 67.7955 84.844 67.7955 85.364V88.58C67.7955 88.74 67.7515 88.864 67.6635 88.952C67.5835 89.04 67.4675 89.084 67.3155 89.084C67.1555 89.084 67.0315 89.04 66.9435 88.952C66.8635 88.864 66.8235 88.74 66.8235 88.58V85.424C66.8235 84.88 66.7155 84.484 66.4995 84.236C66.2915 83.98 65.9555 83.852 65.4915 83.852C64.9555 83.852 64.5275 84.02 64.2075 84.356C63.8955 84.684 63.7395 85.124 63.7395 85.676V88.58C63.7395 88.916 63.5755 89.084 63.2475 89.084Z" fill="#030712"/>
<path d="M48.8813 46.6666C53.9191 45.3541 59.9609 49.6328 58.7053 56.7531C57.6991 62.4516 55.1047 64.2213 52.3769 66.4656C51.1147 67.5047 49.6731 70.7378 46.8797 70.4228C43.5241 70.0466 42.9116 67.3275 43.0122 65.3959C43.1719 62.3422 43.6181 60.5791 43.4147 58.4025C42.8525 52.3738 43.6903 48.0184 48.8813 46.6666Z" fill="#FFCA28"/>
<path d="M52.8909 61.0997C52.4294 62.9678 51.1409 63.0881 49.9006 63.6941C48.9425 64.1622 48.6034 64.5341 47.8859 65.3281C47.2625 66.0172 45.8384 65.9209 45.0531 64.7616C44.7841 64.3656 44.6944 63.3506 45.1625 62.6025C46.195 60.9488 45.1778 60.0628 45.3397 59.2316C45.5147 58.3434 46.3897 58.2559 46.9278 58.6147C47.7591 59.1659 48.2206 59.8397 48.5028 60.2838C48.7434 60.66 49.1634 60.7956 49.1678 59.9556C49.1766 57.9059 45.4119 55.2503 46.9081 51.7591C48.0259 49.1494 50.4344 48.3969 52.95 49.5453C55.4284 50.6763 57.2025 53.0497 57.0034 55.8869C56.9072 57.2366 56.31 58.5469 55.3519 59.5028C55.5575 59.2972 55.4284 54.8434 53.3744 53.8503C52.4512 53.4063 51.1344 53.7563 50.8281 54.7275C50.6378 55.3334 50.8653 55.9984 51.2066 56.5344C51.5478 57.0703 52.0006 57.5297 52.3287 58.0766C52.9325 59.0806 53.1206 60.1634 52.8909 61.0997Z" fill="#FFB300"/>
<path d="M45.4884 58.84C45.4206 58.9472 45.3681 59.0762 45.3375 59.2316C45.1756 60.0606 46.1906 60.9466 45.1603 62.6025C44.8278 63.1362 44.7797 63.8012 44.8737 64.2847C45.3856 64.4837 46.0922 64.4991 46.9234 63.74C47.4528 63.2587 47.6212 62.4691 47.5097 61.78C47.2209 60.0125 46.3437 59.8944 45.4884 58.84Z" fill="#F09300"/>
<path d="M53.7025 63.5716C56.6403 59.6297 57.8916 56.7816 56.6666 52.7128C56.1262 50.9147 54.2166 49.2566 52.5344 48.7316C51.025 48.2591 49.3144 48.5391 48.0697 49.46C47.2909 50.0353 45.7684 51.9603 46.0309 54.2375C46.2409 56.0728 47.0109 56.9281 47.6453 57.5559C48.7128 58.6147 49.0803 59.3781 49.0803 59.3781C49.0387 58.8991 49.0541 58.5644 48.2666 57.4072C47.8006 56.7225 47.0109 55.725 46.8294 54.1456C46.7944 53.8372 46.8031 53.5484 46.8403 53.2706C47.2581 54.0275 48.4022 55.1781 50.5591 56.7772C53.9453 59.2862 52.3769 62.2525 51.1847 62.7469C50.3184 63.1056 49.4216 63.355 48.7237 64.0178C48.4241 64.3022 48.1922 64.6741 48.1397 65.0831C49.1306 63.8078 50.4409 63.8997 51.7316 63.2544C52.8384 62.7009 53.2628 62.1737 53.4444 60.5769C53.5909 59.2884 53.1337 58.0481 52.2587 57.0987C51.6703 56.4622 48.9141 54.3447 48.4853 53.6381C47.9734 52.7937 47.6934 51.4987 48.6122 50.4466C49.6556 49.6744 51.0906 49.4425 52.3594 49.8384C53.7856 50.2847 55.5553 51.8597 56.0212 53.3997C56.87 56.2194 55.8769 58.3937 54.5141 61.0691C53.7091 62.6594 53.7025 63.5716 53.7025 63.5716Z" fill="#F09300"/>
</svg>
