<svg width="119" height="118" viewBox="0 0 119 118" fill="none" xmlns="http://www.w3.org/2000/svg">
<mask id="path-1-inside-1_673_10140" fill="white">
<path fill-rule="evenodd" clip-rule="evenodd" d="M68.5 18C78.1056 18 85.9538 10.476 86.4727 0.999956C86.5029 0.448497 86.9477 0 87.5 0L114.5 0C116.709 0 118.5 1.79086 118.5 4V30C118.5 30.5523 118.052 30.9971 117.5 31.0273C108.024 31.5462 100.5 39.3944 100.5 49C100.5 58.6056 108.024 66.4538 117.5 66.9727C118.052 67.0029 118.5 67.4477 118.5 68L118.5 96C118.5 98.2091 116.709 100 114.5 100H87.5C86.9477 100 86.5029 100.448 86.4727 101C85.9538 110.476 78.1056 118 68.5 118C58.8944 118 51.0462 110.476 50.5273 101C50.4971 100.448 50.0523 100 49.5 100L22.5 100C20.2909 100 18.5 98.2091 18.5 96L18.5 69C18.5 68.4477 18.0515 68.0029 17.5 67.9727C8.02403 67.4538 0.5 59.6056 0.5 50C0.5 40.3944 8.02403 32.5462 17.5 32.0273C18.0515 31.9971 18.5 31.5523 18.5 31L18.5 4C18.5 1.79086 20.2909 0 22.5 0L49.5 0C50.0523 0 50.4971 0.448498 50.5273 0.999957C51.0462 10.476 58.8944 18 68.5 18Z"/>
</mask>
<path fill-rule="evenodd" clip-rule="evenodd" d="M68.5 18C78.1056 18 85.9538 10.476 86.4727 0.999956C86.5029 0.448497 86.9477 0 87.5 0L114.5 0C116.709 0 118.5 1.79086 118.5 4V30C118.5 30.5523 118.052 30.9971 117.5 31.0273C108.024 31.5462 100.5 39.3944 100.5 49C100.5 58.6056 108.024 66.4538 117.5 66.9727C118.052 67.0029 118.5 67.4477 118.5 68L118.5 96C118.5 98.2091 116.709 100 114.5 100H87.5C86.9477 100 86.5029 100.448 86.4727 101C85.9538 110.476 78.1056 118 68.5 118C58.8944 118 51.0462 110.476 50.5273 101C50.4971 100.448 50.0523 100 49.5 100L22.5 100C20.2909 100 18.5 98.2091 18.5 96L18.5 69C18.5 68.4477 18.0515 68.0029 17.5 67.9727C8.02403 67.4538 0.5 59.6056 0.5 50C0.5 40.3944 8.02403 32.5462 17.5 32.0273C18.0515 31.9971 18.5 31.5523 18.5 31L18.5 4C18.5 1.79086 20.2909 0 22.5 0L49.5 0C50.0523 0 50.4971 0.448498 50.5273 0.999957C51.0462 10.476 58.8944 18 68.5 18Z" fill="#D1D5DB" fill-opacity="0.2"/>
<path d="M18.5 96L17.5 96V96H18.5ZM18.5 4L17.5 4L17.5 4L18.5 4ZM50.5273 0.999957L51.5258 0.945284L50.5273 0.999957ZM17.5 32.0273L17.4454 31.0288L17.5 32.0273ZM18.5 31L17.5 31L18.5 31ZM18.5 69L17.5 69L18.5 69ZM17.5 67.9727L17.4454 68.9712L17.5 67.9727ZM50.5273 101L49.5288 101.055L50.5273 101ZM117.5 66.9727L117.555 65.9742L117.5 66.9727ZM86.4727 101L87.4712 101.055L86.4727 101ZM117.5 31.0273L117.555 32.0258L117.5 31.0273ZM85.4742 0.945282C84.9842 9.89397 77.5716 17 68.5 17V19C78.6396 19 86.9235 11.058 87.4712 1.05463L85.4742 0.945282ZM114.5 -1L87.5 -1V1L114.5 1V-1ZM119.5 4C119.5 1.23858 117.261 -1 114.5 -1V1C116.157 1 117.5 2.34315 117.5 4H119.5ZM119.5 30V4H117.5V30H119.5ZM101.5 49C101.5 39.9284 108.606 32.5158 117.555 32.0258L117.445 30.0288C107.442 30.5765 99.5 38.8604 99.5 49H101.5ZM117.555 65.9742C108.606 65.4842 101.5 58.0716 101.5 49H99.5C99.5 59.1396 107.442 67.4235 117.445 67.9712L117.555 65.9742ZM119.5 96L119.5 68H117.5L117.5 96H119.5ZM114.5 101C117.261 101 119.5 98.7614 119.5 96H117.5C117.5 97.6569 116.157 99 114.5 99V101ZM87.5 101H114.5V99H87.5V101ZM68.5 119C78.6396 119 86.9235 111.058 87.4712 101.055L85.4742 100.945C84.9842 109.894 77.5716 117 68.5 117V119ZM49.5288 101.055C50.0765 111.058 58.3604 119 68.5 119V117C59.4284 117 52.0158 109.894 51.5258 100.945L49.5288 101.055ZM22.5 101L49.5 101V99L22.5 99L22.5 101ZM17.5 96C17.5 98.7614 19.7386 101 22.5 101L22.5 99C20.8431 99 19.5 97.6569 19.5 96H17.5ZM17.5 69L17.5 96L19.5 96L19.5 69L17.5 69ZM17.5547 66.9742C8.60603 66.4842 1.5 59.0716 1.5 50H-0.5C-0.5 60.1396 7.44204 68.4235 17.4454 68.9712L17.5547 66.9742ZM1.5 50C1.5 40.9284 8.60603 33.5158 17.5547 33.0258L17.4454 31.0288C7.44204 31.5765 -0.5 39.8604 -0.5 50H1.5ZM17.5 4L17.5 31L19.5 31L19.5 4L17.5 4ZM22.5 -1C19.7386 -1 17.5 1.23858 17.5 4L19.5 4C19.5 2.34315 20.8431 1 22.5 1V-1ZM49.5 -1L22.5 -1V1L49.5 1V-1ZM68.5 17C59.4284 17 52.0158 9.89397 51.5258 0.945284L49.5288 1.05463C50.0765 11.058 58.3604 19 68.5 19V17ZM49.5 1C49.5012 1 49.5012 1.0001 49.5006 0.999977C49.5001 0.999868 49.4998 0.999738 49.4999 0.999766C49.5001 0.999846 49.5033 1.00127 49.5081 1.006C49.5187 1.0164 49.5276 1.03335 49.5288 1.05463L51.5258 0.945284C51.4685 -0.100786 50.6183 -1 49.5 -1V1ZM17.5547 33.0258C18.6008 32.9685 19.5 32.1183 19.5 31L17.5 31C17.5 31.0012 17.4999 31.0012 17.5 31.0006C17.5001 31.0001 17.5003 30.9998 17.5002 30.9999C17.5002 31.0001 17.4987 31.0033 17.494 31.0081C17.4836 31.0187 17.4666 31.0276 17.4454 31.0288L17.5547 33.0258ZM19.5 69C19.5 67.8817 18.6008 67.0315 17.5547 66.9742L17.4454 68.9712C17.4667 68.9724 17.4836 68.9813 17.494 68.9919C17.4987 68.9967 17.5002 68.9999 17.5002 69.0001C17.5003 69.0002 17.5001 68.9999 17.5 68.9994C17.4999 68.9988 17.5 68.9988 17.5 69L19.5 69ZM87.4712 1.05463C87.4724 1.03335 87.4813 1.0164 87.4919 1.006C87.4967 1.00127 87.4999 0.999846 87.5001 0.999766C87.5002 0.999738 87.4999 0.999868 87.4993 0.999977C87.4988 1.0001 87.4988 1 87.5 1V-1C86.3817 -1 85.5315 -0.100789 85.4742 0.945282L87.4712 1.05463ZM51.5258 100.945C51.4685 99.8992 50.6183 99 49.5 99V101C49.5012 101 49.5012 101 49.5006 101C49.5001 101 49.4998 101 49.4999 101C49.5001 101 49.5033 101.001 49.5081 101.006C49.5187 101.016 49.5276 101.033 49.5288 101.055L51.5258 100.945ZM117.445 67.9712C117.467 67.9724 117.484 67.9813 117.494 67.9919C117.499 67.9967 117.5 67.9999 117.5 68.0001C117.5 68.0002 117.5 67.9999 117.5 67.9994C117.5 67.9988 117.5 67.9988 117.5 68H119.5C119.5 66.8817 118.601 66.0315 117.555 65.9742L117.445 67.9712ZM87.5 99C86.3817 99 85.5315 99.8992 85.4742 100.945L87.4712 101.055C87.4724 101.033 87.4813 101.016 87.4919 101.006C87.4967 101.001 87.4999 101 87.5001 101C87.5002 101 87.4999 101 87.4994 101C87.4988 101 87.4988 101 87.5 101V99ZM117.5 30C117.5 30.0012 117.5 30.0012 117.5 30.0006C117.5 30.0001 117.5 29.9998 117.5 29.9999C117.5 30.0001 117.499 30.0033 117.494 30.0081C117.484 30.0187 117.467 30.0276 117.445 30.0288L117.555 32.0258C118.601 31.9685 119.5 31.1183 119.5 30H117.5Z" fill="#D1D5DB" mask="url(#path-1-inside-1_673_10140)"/>
<path d="M45.793 71.084C45.633 71.084 45.513 71.04 45.433 70.952C45.353 70.864 45.313 70.74 45.313 70.58V65.576C45.313 65.416 45.353 65.296 45.433 65.216C45.513 65.128 45.629 65.084 45.781 65.084C45.933 65.084 46.049 65.128 46.129 65.216C46.217 65.296 46.261 65.416 46.261 65.576V66.632L46.129 66.464C46.281 66.016 46.525 65.672 46.861 65.432C47.205 65.184 47.613 65.06 48.085 65.06C48.581 65.06 48.981 65.18 49.285 65.42C49.597 65.652 49.805 66.016 49.909 66.512H49.729C49.873 66.064 50.129 65.712 50.497 65.456C50.873 65.192 51.309 65.06 51.805 65.06C52.245 65.06 52.605 65.144 52.885 65.312C53.173 65.48 53.389 65.736 53.533 66.08C53.677 66.416 53.749 66.844 53.749 67.364V70.58C53.749 70.74 53.705 70.864 53.617 70.952C53.537 71.04 53.417 71.084 53.257 71.084C53.105 71.084 52.985 71.04 52.897 70.952C52.817 70.864 52.777 70.74 52.777 70.58V67.412C52.777 66.876 52.685 66.484 52.501 66.236C52.317 65.98 52.005 65.852 51.565 65.852C51.085 65.852 50.705 66.02 50.425 66.356C50.153 66.684 50.017 67.132 50.017 67.7V70.58C50.017 70.74 49.973 70.864 49.885 70.952C49.805 71.04 49.685 71.084 49.525 71.084C49.373 71.084 49.253 71.04 49.165 70.952C49.085 70.864 49.045 70.74 49.045 70.58V67.412C49.045 66.876 48.949 66.484 48.757 66.236C48.573 65.98 48.265 65.852 47.833 65.852C47.353 65.852 46.973 66.02 46.693 66.356C46.421 66.684 46.285 67.132 46.285 67.7V70.58C46.285 70.916 46.121 71.084 45.793 71.084ZM57.4023 71.108C57.0023 71.108 56.6423 71.032 56.3223 70.88C56.0103 70.72 55.7623 70.504 55.5783 70.232C55.3943 69.96 55.3023 69.656 55.3023 69.32C55.3023 68.888 55.4103 68.548 55.6263 68.3C55.8503 68.052 56.2143 67.876 56.7183 67.772C57.2303 67.668 57.9263 67.616 58.8063 67.616H59.3463V68.252H58.8183C58.1703 68.252 57.6583 68.284 57.2823 68.348C56.9143 68.404 56.6543 68.504 56.5023 68.648C56.3583 68.792 56.2863 68.996 56.2863 69.26C56.2863 69.588 56.3983 69.856 56.6223 70.064C56.8543 70.272 57.1663 70.376 57.5583 70.376C57.8783 70.376 58.1583 70.3 58.3983 70.148C58.6463 69.996 58.8383 69.788 58.9743 69.524C59.1183 69.26 59.1903 68.956 59.1903 68.612V67.244C59.1903 66.748 59.0903 66.392 58.8903 66.176C58.6903 65.952 58.3623 65.84 57.9063 65.84C57.6263 65.84 57.3463 65.876 57.0663 65.948C56.7863 66.02 56.4903 66.136 56.1783 66.296C56.0663 66.352 55.9703 66.372 55.8903 66.356C55.8103 66.332 55.7463 66.288 55.6983 66.224C55.6503 66.16 55.6223 66.088 55.6143 66.008C55.6063 65.92 55.6223 65.836 55.6623 65.756C55.7103 65.676 55.7823 65.612 55.8783 65.564C56.2303 65.388 56.5783 65.26 56.9223 65.18C57.2663 65.1 57.5943 65.06 57.9063 65.06C58.4103 65.06 58.8263 65.144 59.1543 65.312C59.4823 65.472 59.7263 65.72 59.8863 66.056C60.0463 66.384 60.1263 66.808 60.1263 67.328V70.58C60.1263 70.74 60.0863 70.864 60.0063 70.952C59.9343 71.04 59.8263 71.084 59.6823 71.084C59.5303 71.084 59.4143 71.04 59.3343 70.952C59.2543 70.864 59.2143 70.74 59.2143 70.58V69.644H59.3223C59.2583 69.948 59.1343 70.208 58.9503 70.424C58.7743 70.64 58.5543 70.808 58.2903 70.928C58.0263 71.048 57.7303 71.108 57.4023 71.108ZM64.5096 73.268C64.0856 73.268 63.6696 73.216 63.2616 73.112C62.8616 73.016 62.4976 72.86 62.1696 72.644C62.0736 72.588 62.0096 72.52 61.9776 72.44C61.9536 72.36 61.9496 72.28 61.9656 72.2C61.9816 72.128 62.0176 72.06 62.0736 71.996C62.1296 71.94 62.1936 71.904 62.2656 71.888C62.3456 71.872 62.4256 71.884 62.5056 71.924C62.8576 72.14 63.1936 72.288 63.5136 72.368C63.8336 72.448 64.1496 72.488 64.4616 72.488C65.0296 72.488 65.4576 72.336 65.7456 72.032C66.0416 71.728 66.1896 71.288 66.1896 70.712V69.356H66.3096C66.1896 69.82 65.9336 70.188 65.5416 70.46C65.1576 70.732 64.7056 70.868 64.1856 70.868C63.6496 70.868 63.1856 70.748 62.7936 70.508C62.4016 70.26 62.0976 69.916 61.8816 69.476C61.6736 69.036 61.5696 68.528 61.5696 67.952C61.5696 67.52 61.6296 67.128 61.7496 66.776C61.8696 66.416 62.0416 66.112 62.2656 65.864C62.4976 65.608 62.7736 65.412 63.0936 65.276C63.4216 65.132 63.7856 65.06 64.1856 65.06C64.7136 65.06 65.1696 65.196 65.5536 65.468C65.9376 65.732 66.1856 66.092 66.2976 66.548L66.1776 66.692V65.576C66.1776 65.416 66.2176 65.296 66.2976 65.216C66.3856 65.128 66.5056 65.084 66.6576 65.084C66.8176 65.084 66.9376 65.128 67.0176 65.216C67.0976 65.296 67.1376 65.416 67.1376 65.576V70.58C67.1376 71.468 66.9136 72.136 66.4656 72.584C66.0256 73.04 65.3736 73.268 64.5096 73.268ZM64.3656 70.076C64.7416 70.076 65.0656 69.992 65.3376 69.824C65.6096 69.648 65.8176 69.4 65.9616 69.08C66.1136 68.76 66.1896 68.384 66.1896 67.952C66.1896 67.304 66.0256 66.792 65.6976 66.416C65.3696 66.032 64.9256 65.84 64.3656 65.84C63.9976 65.84 63.6776 65.928 63.4056 66.104C63.1336 66.272 62.9216 66.516 62.7696 66.836C62.6256 67.148 62.5536 67.52 62.5536 67.952C62.5536 68.6 62.7176 69.116 63.0456 69.5C63.3736 69.884 63.8136 70.076 64.3656 70.076ZM69.4408 71.06C69.2808 71.06 69.1608 71.016 69.0808 70.928C69.0008 70.832 68.9608 70.7 68.9608 70.532V65.624C68.9608 65.456 69.0008 65.328 69.0808 65.24C69.1608 65.152 69.2808 65.108 69.4408 65.108C69.5928 65.108 69.7128 65.152 69.8008 65.24C69.8888 65.328 69.9328 65.456 69.9328 65.624V70.532C69.9328 70.7 69.8888 70.832 69.8008 70.928C69.7208 71.016 69.6008 71.06 69.4408 71.06ZM69.4408 63.764C69.2408 63.764 69.0848 63.712 68.9728 63.608C68.8608 63.496 68.8048 63.348 68.8048 63.164C68.8048 62.972 68.8608 62.828 68.9728 62.732C69.0848 62.628 69.2408 62.576 69.4408 62.576C69.6488 62.576 69.8048 62.628 69.9088 62.732C70.0208 62.828 70.0768 62.972 70.0768 63.164C70.0768 63.348 70.0208 63.496 69.9088 63.608C69.8048 63.712 69.6488 63.764 69.4408 63.764ZM74.2219 71.108C73.6379 71.108 73.1339 70.98 72.7099 70.724C72.2859 70.468 71.9579 70.112 71.7259 69.656C71.5019 69.192 71.3899 68.656 71.3899 68.048C71.3899 67.584 71.4539 67.168 71.5819 66.8C71.7099 66.432 71.8979 66.12 72.1459 65.864C72.3939 65.6 72.6899 65.4 73.0339 65.264C73.3859 65.128 73.7819 65.06 74.2219 65.06C74.5099 65.06 74.8099 65.104 75.1219 65.192C75.4339 65.28 75.7179 65.432 75.9739 65.648C76.0539 65.704 76.1059 65.772 76.1299 65.852C76.1539 65.932 76.1539 66.012 76.1299 66.092C76.1059 66.164 76.0659 66.228 76.0099 66.284C75.9539 66.332 75.8819 66.36 75.7939 66.368C75.7139 66.376 75.6299 66.348 75.5419 66.284C75.3339 66.124 75.1219 66.012 74.9059 65.948C74.6899 65.884 74.4819 65.852 74.2819 65.852C73.9699 65.852 73.6979 65.904 73.4659 66.008C73.2339 66.104 73.0379 66.244 72.8779 66.428C72.7179 66.612 72.5939 66.84 72.5059 67.112C72.4259 67.384 72.3859 67.7 72.3859 68.06C72.3859 68.756 72.5499 69.308 72.8779 69.716C73.2059 70.116 73.6739 70.316 74.2819 70.316C74.4819 70.316 74.6859 70.284 74.8939 70.22C75.1099 70.156 75.3259 70.044 75.5419 69.884C75.6299 69.82 75.7139 69.792 75.7939 69.8C75.8739 69.808 75.9419 69.84 75.9979 69.896C76.0539 69.944 76.0899 70.008 76.1059 70.088C76.1299 70.168 76.1299 70.248 76.1059 70.328C76.0819 70.4 76.0299 70.464 75.9499 70.52C75.6939 70.728 75.4139 70.88 75.1099 70.976C74.8059 71.064 74.5099 71.108 74.2219 71.108ZM79.0937 71.108C78.6937 71.108 78.3337 71.032 78.0137 70.88C77.7017 70.72 77.4537 70.504 77.2697 70.232C77.0857 69.96 76.9937 69.656 76.9937 69.32C76.9937 68.888 77.1017 68.548 77.3177 68.3C77.5417 68.052 77.9057 67.876 78.4097 67.772C78.9217 67.668 79.6177 67.616 80.4977 67.616H81.0377V68.252H80.5097C79.8617 68.252 79.3497 68.284 78.9737 68.348C78.6057 68.404 78.3457 68.504 78.1937 68.648C78.0497 68.792 77.9777 68.996 77.9777 69.26C77.9777 69.588 78.0897 69.856 78.3137 70.064C78.5457 70.272 78.8577 70.376 79.2497 70.376C79.5697 70.376 79.8497 70.3 80.0897 70.148C80.3377 69.996 80.5297 69.788 80.6657 69.524C80.8097 69.26 80.8817 68.956 80.8817 68.612V67.244C80.8817 66.748 80.7817 66.392 80.5817 66.176C80.3817 65.952 80.0537 65.84 79.5977 65.84C79.3177 65.84 79.0377 65.876 78.7577 65.948C78.4777 66.02 78.1817 66.136 77.8697 66.296C77.7577 66.352 77.6617 66.372 77.5817 66.356C77.5017 66.332 77.4377 66.288 77.3897 66.224C77.3417 66.16 77.3137 66.088 77.3057 66.008C77.2977 65.92 77.3137 65.836 77.3537 65.756C77.4017 65.676 77.4737 65.612 77.5697 65.564C77.9217 65.388 78.2697 65.26 78.6137 65.18C78.9577 65.1 79.2857 65.06 79.5977 65.06C80.1017 65.06 80.5177 65.144 80.8457 65.312C81.1737 65.472 81.4177 65.72 81.5777 66.056C81.7377 66.384 81.8177 66.808 81.8177 67.328V70.58C81.8177 70.74 81.7777 70.864 81.6977 70.952C81.6257 71.04 81.5177 71.084 81.3737 71.084C81.2217 71.084 81.1057 71.04 81.0257 70.952C80.9457 70.864 80.9057 70.74 80.9057 70.58V69.644H81.0137C80.9497 69.948 80.8257 70.208 80.6417 70.424C80.4657 70.64 80.2457 70.808 79.9817 70.928C79.7177 71.048 79.4217 71.108 79.0937 71.108ZM85.589 71.108C85.229 71.108 84.865 71.064 84.497 70.976C84.137 70.888 83.801 70.736 83.489 70.52C83.409 70.464 83.353 70.4 83.321 70.328C83.289 70.248 83.277 70.172 83.285 70.1C83.301 70.02 83.333 69.952 83.381 69.896C83.437 69.84 83.501 69.808 83.573 69.8C83.653 69.784 83.741 69.8 83.837 69.848C84.149 70.04 84.449 70.176 84.737 70.256C85.033 70.328 85.325 70.364 85.613 70.364C86.069 70.364 86.413 70.28 86.645 70.112C86.877 69.944 86.993 69.716 86.993 69.428C86.993 69.204 86.917 69.028 86.765 68.9C86.613 68.764 86.373 68.66 86.045 68.588L84.953 68.348C84.449 68.244 84.073 68.064 83.825 67.808C83.585 67.552 83.465 67.22 83.465 66.812C83.465 66.452 83.557 66.144 83.741 65.888C83.933 65.624 84.201 65.42 84.545 65.276C84.889 65.132 85.289 65.06 85.745 65.06C86.097 65.06 86.429 65.108 86.741 65.204C87.061 65.292 87.349 65.436 87.605 65.636C87.685 65.692 87.737 65.76 87.761 65.84C87.793 65.912 87.797 65.988 87.773 66.068C87.757 66.14 87.721 66.204 87.665 66.26C87.609 66.308 87.541 66.336 87.461 66.344C87.381 66.352 87.297 66.328 87.209 66.272C86.969 66.112 86.725 65.996 86.477 65.924C86.229 65.844 85.985 65.804 85.745 65.804C85.297 65.804 84.957 65.892 84.725 66.068C84.493 66.244 84.377 66.476 84.377 66.764C84.377 66.988 84.449 67.172 84.593 67.316C84.737 67.46 84.961 67.564 85.265 67.628L86.357 67.856C86.877 67.968 87.265 68.148 87.521 68.396C87.785 68.636 87.917 68.964 87.917 69.38C87.917 69.908 87.705 70.328 87.281 70.64C86.857 70.952 86.293 71.108 85.589 71.108ZM91.6797 71.108C91.2237 71.108 90.8397 71.028 90.5277 70.868C90.2237 70.7 89.9957 70.46 89.8437 70.148C89.6917 69.828 89.6157 69.44 89.6157 68.984V65.924H88.8117C88.6757 65.924 88.5717 65.892 88.4997 65.828C88.4277 65.756 88.3917 65.66 88.3917 65.54C88.3917 65.42 88.4277 65.328 88.4997 65.264C88.5717 65.2 88.6757 65.168 88.8117 65.168H89.6157V63.788C89.6157 63.628 89.6597 63.508 89.7477 63.428C89.8357 63.34 89.9557 63.296 90.1077 63.296C90.2597 63.296 90.3757 63.34 90.4557 63.428C90.5437 63.508 90.5877 63.628 90.5877 63.788V65.168H92.0997C92.2357 65.168 92.3397 65.2 92.4117 65.264C92.4837 65.328 92.5197 65.42 92.5197 65.54C92.5197 65.66 92.4837 65.756 92.4117 65.828C92.3397 65.892 92.2357 65.924 92.0997 65.924H90.5877V68.888C90.5877 69.344 90.6837 69.692 90.8757 69.932C91.0677 70.164 91.3797 70.28 91.8117 70.28C91.9637 70.28 92.0917 70.264 92.1957 70.232C92.3077 70.2 92.3997 70.184 92.4717 70.184C92.5437 70.176 92.6037 70.2 92.6517 70.256C92.6997 70.312 92.7237 70.408 92.7237 70.544C92.7237 70.64 92.7037 70.728 92.6637 70.808C92.6317 70.888 92.5717 70.944 92.4837 70.976C92.3877 71.008 92.2597 71.036 92.0997 71.06C91.9477 71.092 91.8077 71.108 91.6797 71.108Z" fill="#030712"/>
<path d="M65.0394 40.9734L55.9656 41.3016C55.9656 41.3016 55.3903 40.7262 55.4734 40.5206C55.5565 40.315 63.0706 34.4437 63.3572 34.4853C63.6437 34.5269 64.3022 35.2247 64.8359 34.9775C65.3697 34.7303 64.8359 33.2931 65 33.0897C65.164 32.8841 71.0353 29.7231 71.405 29.5591C71.7747 29.395 72.1028 29.0253 72.8422 29.1894C73.5815 29.3534 75.43 29.6816 77.4403 31.0378C79.4506 32.3941 81.5462 33.9537 81.3822 34.8156C81.2181 35.6775 65.0394 40.9734 65.0394 40.9734Z" fill="#FFE265"/>
<path d="M58.7569 51.2809C60.7694 51.0337 79.5338 47.0109 80.3147 46.8884C81.0956 46.7659 81.5878 46.0265 81.5878 45.204C81.5878 44.3816 81.3822 34.8156 81.3822 34.8156C81.3822 34.8156 80.4788 35.1022 79.4113 35.3494C78.3438 35.5944 69.5959 37.7294 66.1484 38.5103C62.7009 39.2912 57.1972 40.7284 56.5803 40.7284C55.9634 40.7284 55.4713 40.5228 55.4713 40.5228C55.4713 40.5228 55.6353 49.0628 55.6769 49.6797C55.7184 50.2965 56.005 51.0337 56.7028 51.2394C57.4006 51.445 57.8556 51.3903 58.7569 51.2809Z" fill="#FEB502"/>
<path d="M70.8997 31.5912C70.8997 32.1162 71.4334 32.4641 72.3172 32.4378C73.2819 32.4094 73.5487 31.8362 73.5181 31.4687C73.4875 31.0991 73.0434 30.7753 72.1641 30.7906C71.3481 30.8059 70.8997 31.1297 70.8997 31.5912Z" fill="#FF8B0D"/>
<path d="M61.045 38.1362C59.6231 38.6153 59.7828 39.86 60.1984 40.1378C60.6141 40.4156 61.1675 40.4003 61.815 40.1684C62.4625 39.9366 62.8738 39.6719 62.9394 39.2387C63.0006 38.8275 62.4625 37.6572 61.045 38.1362ZM73.9644 34.5794C73.0106 34.6231 71.9563 35.3078 71.5625 35.9662C71.1469 36.6597 71.1163 37.4756 72.07 37.9831C73.0238 38.4906 76.3969 37.1978 76.2284 36.0122C76.06 34.8244 74.9663 34.5334 73.9644 34.5794ZM70.6547 44.1716C70.6547 44.1716 72.0088 43.1697 72.0088 42.4631C72.0088 41.7544 71.4247 40.0809 68.9441 39.9541C66.6188 39.8337 65.1859 43.0034 66.7106 44.6353C68.2353 46.2672 69.1584 45.5278 69.7294 45.3747C70.3003 45.2194 70.6547 44.1716 70.6547 44.1716ZM63.9566 47.0197C63.9566 47.0197 65.3019 46.1775 64.2694 45.2544C63.5431 44.6047 62.5719 44.8978 62.0775 45.4031C61.4453 46.0506 61.6159 47.0809 62.2 47.5425C62.7863 48.0062 63.9566 47.0197 63.9566 47.0197ZM59.3978 43.2331C59.3978 43.2331 59.2447 42.7497 58.6956 42.555C58.0788 42.3362 57.1578 43.1041 57.5516 43.9244C57.9059 44.6637 58.6913 44.4472 58.6913 44.4472L59.3978 43.2331ZM79.0919 43.9397C79.2253 43.7953 80.0981 43.1653 80.0981 42.6862C80.0981 42.2094 78.7834 40.735 77.1056 41.8441C75.4278 42.9531 76.305 44.6309 76.7666 44.9087C77.2281 45.1866 78.5078 44.5719 79.0919 43.9397Z" fill="#ED6B31"/>
<path d="M61.2506 38.8909C60.3166 39.2147 59.9644 39.8753 60.1984 40.1378C60.4456 40.4156 60.9838 40.5994 61.9222 40.2603C62.6484 39.9978 63.0159 39.5581 62.9547 39.1665C62.9109 38.8822 62.0972 38.5978 61.2506 38.8909ZM58.1356 43.2003C57.7266 43.7122 58.0591 44.294 58.4441 44.4319C58.8291 44.5697 59.5072 44.154 59.4613 43.4628C59.4131 42.7694 58.5053 42.7387 58.1356 43.2003ZM62.8934 45.9894C62.0141 46.7025 61.99 47.4003 62.3291 47.6365C62.5653 47.8028 63.4359 48.1484 64.2322 47.56C64.8228 47.1247 64.8338 46.2103 64.6478 45.7728C64.4925 45.4009 63.6328 45.3878 62.8934 45.9894ZM68.2309 42.1022C67.0541 43.2462 66.7741 45.1034 67.9291 45.5409C68.9463 45.9259 70.4075 45.694 71.2694 44.6331C72.175 43.5175 72.2713 42.2859 71.6894 41.5597C70.9938 40.6869 69.1409 41.2206 68.2309 42.1022ZM73.5794 35.719C72.0394 36.2419 71.1316 37.3509 71.9169 37.9065C72.7022 38.46 73.5181 38.379 74.4106 38.075C75.4234 37.7315 76.1978 36.9353 76.2284 36.1806C76.2525 35.5615 74.9356 35.2575 73.5794 35.719ZM77.6919 42.8C76.6441 43.6531 76.3378 44.5084 76.7688 44.9087C77.1997 45.309 78.2322 45.4928 79.1859 44.8322C80.1769 44.1453 80.2491 43.3665 80.1397 42.7387C80.0172 42.0322 78.7681 41.9228 77.6919 42.8Z" fill="#FF8B0D"/>
</svg>
