<svg width="119" height="100" viewBox="0 0 119 100" fill="none" xmlns="http://www.w3.org/2000/svg">
<mask id="path-1-inside-1_673_10146" fill="white">
<path fill-rule="evenodd" clip-rule="evenodd" d="M50.5 18C60.1056 18 67.9538 10.476 68.4727 0.999956C68.5029 0.448497 68.9477 0 69.5 0L96.5 0C98.7091 0 100.5 1.79086 100.5 4V31C100.5 31.5523 100.948 31.9971 101.5 32.0273C110.976 32.5462 118.5 40.3944 118.5 50C118.5 59.6056 110.976 67.4538 101.5 67.9727C100.948 68.0029 100.5 68.4477 100.5 69V96C100.5 98.2091 98.7091 100 96.5 100H69.5C68.9477 100 68.5029 99.5515 68.4727 99C67.9538 89.524 60.1056 82 50.5 82C40.8944 82 33.0462 89.524 32.5273 99C32.4971 99.5515 32.0523 100 31.5 100H4.5C2.29086 100 0.5 98.2091 0.5 96L0.5 69C0.5 68.4477 0.948498 68.0029 1.49996 67.9727C10.976 67.4538 18.5 59.6056 18.5 50C18.5 40.3944 10.976 32.5462 1.49996 32.0273C0.948497 31.9971 0.5 31.5523 0.5 31L0.5 4C0.5 1.79086 2.29086 0 4.5 0L31.5 0C32.0523 0 32.4971 0.448498 32.5273 0.999957C33.0462 10.476 40.8944 18 50.5 18Z"/>
</mask>
<path fill-rule="evenodd" clip-rule="evenodd" d="M50.5 18C60.1056 18 67.9538 10.476 68.4727 0.999956C68.5029 0.448497 68.9477 0 69.5 0L96.5 0C98.7091 0 100.5 1.79086 100.5 4V31C100.5 31.5523 100.948 31.9971 101.5 32.0273C110.976 32.5462 118.5 40.3944 118.5 50C118.5 59.6056 110.976 67.4538 101.5 67.9727C100.948 68.0029 100.5 68.4477 100.5 69V96C100.5 98.2091 98.7091 100 96.5 100H69.5C68.9477 100 68.5029 99.5515 68.4727 99C67.9538 89.524 60.1056 82 50.5 82C40.8944 82 33.0462 89.524 32.5273 99C32.4971 99.5515 32.0523 100 31.5 100H4.5C2.29086 100 0.5 98.2091 0.5 96L0.5 69C0.5 68.4477 0.948498 68.0029 1.49996 67.9727C10.976 67.4538 18.5 59.6056 18.5 50C18.5 40.3944 10.976 32.5462 1.49996 32.0273C0.948497 31.9971 0.5 31.5523 0.5 31L0.5 4C0.5 1.79086 2.29086 0 4.5 0L31.5 0C32.0523 0 32.4971 0.448498 32.5273 0.999957C33.0462 10.476 40.8944 18 50.5 18Z" fill="#D1D5DB" fill-opacity="0.2"/>
<path d="M96.5 0V-1V0ZM32.5273 0.999957L33.5258 0.945284L32.5273 0.999957ZM1.49996 67.9727L1.44528 66.9742L1.49996 67.9727ZM32.5273 99L31.5288 98.9454L32.5273 99ZM101.5 67.9727L101.555 68.9712L101.5 67.9727ZM68.4727 99L69.4712 98.9454L68.4727 99ZM101.5 32.0273L101.555 31.0288L101.5 32.0273ZM67.4742 0.945282C66.9842 9.89397 59.5716 17 50.5 17L50.5 19C60.6396 19 68.9235 11.058 69.4712 1.05463L67.4742 0.945282ZM96.5 -1L69.5 -1V1L96.5 1V-1ZM101.5 4C101.5 1.23858 99.2614 -1 96.5 -1V1C98.1569 1 99.5 2.34315 99.5 4L101.5 4ZM101.5 31V4L99.5 4V31H101.5ZM101.445 33.0258C110.394 33.5158 117.5 40.9284 117.5 50H119.5C119.5 39.8604 111.558 31.5765 101.555 31.0288L101.445 33.0258ZM117.5 50C117.5 59.0716 110.394 66.4842 101.445 66.9742L101.555 68.9712C111.558 68.4235 119.5 60.1396 119.5 50H117.5ZM101.5 96V69H99.5V96H101.5ZM96.5 101C99.2614 101 101.5 98.7614 101.5 96H99.5C99.5 97.6569 98.1569 99 96.5 99V101ZM69.5 101H96.5V99H69.5V101ZM50.5 83C59.5716 83 66.9842 90.106 67.4742 99.0547L69.4712 98.9454C68.9235 88.942 60.6396 81 50.5 81V83ZM33.5258 99.0547C34.0158 90.106 41.4284 83 50.5 83V81C40.3604 81 32.0765 88.942 31.5288 98.9454L33.5258 99.0547ZM4.5 101H31.5L31.5 99H4.5V101ZM-0.5 96C-0.5 98.7614 1.73858 101 4.5 101V99C2.84315 99 1.5 97.6569 1.5 96H-0.5ZM-0.5 69L-0.5 96H1.5L1.5 69H-0.5ZM17.5 50C17.5 59.0716 10.394 66.4842 1.44528 66.9742L1.55463 68.9712C11.558 68.4235 19.5 60.1396 19.5 50L17.5 50ZM1.44528 33.0258C10.394 33.5158 17.5 40.9284 17.5 50L19.5 50C19.5 39.8604 11.558 31.5765 1.55463 31.0288L1.44528 33.0258ZM-0.5 4L-0.5 31H1.5L1.5 4H-0.5ZM4.5 -1C1.73858 -1 -0.5 1.23858 -0.5 4H1.5C1.5 2.34315 2.84315 1 4.5 1V-1ZM31.5 -1L4.5 -1V1L31.5 1V-1ZM50.5 17C41.4284 17 34.0158 9.89397 33.5258 0.945284L31.5288 1.05463C32.0765 11.058 40.3604 19 50.5 19L50.5 17ZM31.5 1C31.5012 1 31.5012 1.0001 31.5006 0.999977C31.5001 0.999868 31.4998 0.999738 31.4999 0.999766C31.5001 0.999846 31.5033 1.00127 31.5081 1.006C31.5187 1.0164 31.5276 1.03335 31.5288 1.05463L33.5258 0.945284C33.4685 -0.100786 32.6183 -1 31.5 -1V1ZM1.55463 31.0288C1.53335 31.0276 1.5164 31.0187 1.506 31.0081C1.50127 31.0033 1.49985 31.0001 1.49977 30.9999C1.49974 30.9998 1.49987 31.0001 1.49998 31.0007C1.5001 31.0012 1.5 31.0012 1.5 31H-0.5C-0.5 32.1183 0.399211 32.9685 1.44528 33.0258L1.55463 31.0288ZM1.5 69C1.5 68.9988 1.5001 68.9988 1.49998 68.9994C1.49987 68.9999 1.49974 69.0002 1.49977 69.0001C1.49985 68.9999 1.50127 68.9967 1.506 68.9919C1.5164 68.9813 1.53335 68.9724 1.55463 68.9712L1.44528 66.9742C0.399214 67.0315 -0.5 67.8817 -0.5 69H1.5ZM69.4712 1.05463C69.4724 1.03335 69.4813 1.0164 69.4919 1.006C69.4967 1.00127 69.4999 0.999846 69.5001 0.999766C69.5002 0.999738 69.4999 0.999868 69.4993 0.999977C69.4988 1.0001 69.4988 1 69.5 1V-1C68.3817 -1 67.5315 -0.100789 67.4742 0.945282L69.4712 1.05463ZM31.5288 98.9454C31.5276 98.9667 31.5187 98.9836 31.5081 98.994C31.5033 98.9987 31.5001 99.0002 31.4999 99.0002C31.4998 99.0003 31.5001 99.0001 31.5007 99C31.5012 98.9999 31.5012 99 31.5 99L31.5 101C32.6183 101 33.4685 100.101 33.5258 99.0547L31.5288 98.9454ZM101.445 66.9742C100.399 67.0315 99.5 67.8817 99.5 69H101.5C101.5 68.9988 101.5 68.9988 101.5 68.9994C101.5 68.9999 101.5 69.0002 101.5 69.0001C101.5 68.9999 101.501 68.9967 101.506 68.9919C101.516 68.9813 101.533 68.9724 101.555 68.9712L101.445 66.9742ZM69.5 99C69.4988 99 69.4988 98.9999 69.4994 99C69.4999 99.0001 69.5002 99.0003 69.5001 99.0002C69.4999 99.0002 69.4967 98.9987 69.4919 98.994C69.4813 98.9836 69.4724 98.9666 69.4712 98.9454L67.4742 99.0547C67.5315 100.101 68.3817 101 69.5 101V99ZM99.5 31C99.5 32.1183 100.399 32.9685 101.445 33.0258L101.555 31.0288C101.533 31.0276 101.516 31.0187 101.506 31.0081C101.501 31.0033 101.5 31.0001 101.5 30.9999C101.5 30.9998 101.5 31.0001 101.5 31.0006C101.5 31.0012 101.5 31.0012 101.5 31H99.5Z" fill="#D1D5DB" mask="url(#path-1-inside-1_673_10146)"/>
<path d="M36.7924 71.084C36.6324 71.084 36.5124 71.04 36.4324 70.952C36.3524 70.864 36.3124 70.74 36.3124 70.58V65.576C36.3124 65.416 36.3524 65.296 36.4324 65.216C36.5124 65.128 36.6284 65.084 36.7804 65.084C36.9324 65.084 37.0484 65.128 37.1284 65.216C37.2164 65.296 37.2604 65.416 37.2604 65.576V66.608L37.1284 66.464C37.2964 66 37.5684 65.652 37.9444 65.42C38.3284 65.18 38.7684 65.06 39.2644 65.06C39.7284 65.06 40.1124 65.144 40.4164 65.312C40.7284 65.48 40.9604 65.736 41.1124 66.08C41.2644 66.416 41.3404 66.844 41.3404 67.364V70.58C41.3404 70.74 41.2964 70.864 41.2084 70.952C41.1284 71.04 41.0124 71.084 40.8604 71.084C40.7004 71.084 40.5764 71.04 40.4884 70.952C40.4084 70.864 40.3684 70.74 40.3684 70.58V67.424C40.3684 66.88 40.2604 66.484 40.0444 66.236C39.8364 65.98 39.5004 65.852 39.0364 65.852C38.5004 65.852 38.0724 66.02 37.7524 66.356C37.4404 66.684 37.2844 67.124 37.2844 67.676V70.58C37.2844 70.916 37.1204 71.084 36.7924 71.084ZM44.3701 73.244C44.2501 73.244 44.1541 73.212 44.0821 73.148C44.0101 73.084 43.9661 72.996 43.9501 72.884C43.9421 72.78 43.9621 72.672 44.0101 72.56L44.8381 70.7V71.12L42.5341 65.768C42.4861 65.648 42.4701 65.536 42.4861 65.432C42.5021 65.328 42.5501 65.244 42.6301 65.18C42.7101 65.116 42.8221 65.084 42.9661 65.084C43.0941 65.084 43.1941 65.112 43.2661 65.168C43.3381 65.224 43.4021 65.324 43.4581 65.468L45.4261 70.292H45.1021L47.0941 65.468C47.1581 65.324 47.2261 65.224 47.2981 65.168C47.3701 65.112 47.4741 65.084 47.6101 65.084C47.7381 65.084 47.8341 65.116 47.8981 65.18C47.9701 65.244 48.0101 65.328 48.0181 65.432C48.0341 65.528 48.0181 65.636 47.9701 65.756L44.8981 72.86C44.8341 73.004 44.7621 73.104 44.6821 73.16C44.6101 73.216 44.5061 73.244 44.3701 73.244ZM49.7182 73.244C49.5582 73.244 49.4382 73.2 49.3582 73.112C49.2782 73.032 49.2382 72.912 49.2382 72.752V65.576C49.2382 65.416 49.2782 65.296 49.3582 65.216C49.4382 65.128 49.5542 65.084 49.7062 65.084C49.8662 65.084 49.9862 65.128 50.0662 65.216C50.1542 65.296 50.1982 65.416 50.1982 65.576V66.716L50.0662 66.548C50.1942 66.092 50.4462 65.732 50.8222 65.468C51.2062 65.196 51.6622 65.06 52.1902 65.06C52.7102 65.06 53.1622 65.184 53.5462 65.432C53.9382 65.672 54.2382 66.02 54.4462 66.476C54.6622 66.924 54.7702 67.46 54.7702 68.084C54.7702 68.7 54.6622 69.236 54.4462 69.692C54.2382 70.14 53.9422 70.488 53.5582 70.736C53.1742 70.984 52.7182 71.108 52.1902 71.108C51.6622 71.108 51.2102 70.976 50.8342 70.712C50.4582 70.44 50.2022 70.08 50.0662 69.632H50.2102V72.752C50.2102 72.912 50.1662 73.032 50.0782 73.112C49.9902 73.2 49.8702 73.244 49.7182 73.244ZM51.9862 70.328C52.3542 70.328 52.6702 70.24 52.9342 70.064C53.2062 69.888 53.4142 69.632 53.5582 69.296C53.7102 68.96 53.7862 68.556 53.7862 68.084C53.7862 67.356 53.6222 66.8 53.2942 66.416C52.9742 66.032 52.5382 65.84 51.9862 65.84C51.6262 65.84 51.3102 65.928 51.0382 66.104C50.7662 66.272 50.5542 66.524 50.4022 66.86C50.2582 67.188 50.1862 67.596 50.1862 68.084C50.1862 68.804 50.3502 69.36 50.6782 69.752C51.0062 70.136 51.4422 70.328 51.9862 70.328ZM56.7383 71.084C56.5783 71.084 56.4583 71.04 56.3783 70.952C56.2983 70.864 56.2583 70.74 56.2583 70.58V65.576C56.2583 65.416 56.2983 65.296 56.3783 65.216C56.4583 65.128 56.5743 65.084 56.7263 65.084C56.8783 65.084 56.9943 65.128 57.0743 65.216C57.1623 65.296 57.2063 65.416 57.2063 65.576V66.632L57.0743 66.464C57.2263 66.016 57.4703 65.672 57.8063 65.432C58.1503 65.184 58.5583 65.06 59.0303 65.06C59.5263 65.06 59.9263 65.18 60.2303 65.42C60.5423 65.652 60.7503 66.016 60.8543 66.512H60.6743C60.8183 66.064 61.0743 65.712 61.4423 65.456C61.8183 65.192 62.2543 65.06 62.7503 65.06C63.1903 65.06 63.5503 65.144 63.8303 65.312C64.1183 65.48 64.3343 65.736 64.4783 66.08C64.6223 66.416 64.6943 66.844 64.6943 67.364V70.58C64.6943 70.74 64.6503 70.864 64.5623 70.952C64.4823 71.04 64.3623 71.084 64.2023 71.084C64.0503 71.084 63.9303 71.04 63.8423 70.952C63.7623 70.864 63.7223 70.74 63.7223 70.58V67.412C63.7223 66.876 63.6303 66.484 63.4463 66.236C63.2623 65.98 62.9503 65.852 62.5103 65.852C62.0303 65.852 61.6503 66.02 61.3703 66.356C61.0983 66.684 60.9623 67.132 60.9623 67.7V70.58C60.9623 70.74 60.9183 70.864 60.8303 70.952C60.7503 71.04 60.6303 71.084 60.4703 71.084C60.3183 71.084 60.1983 71.04 60.1103 70.952C60.0303 70.864 59.9903 70.74 59.9903 70.58V67.412C59.9903 66.876 59.8943 66.484 59.7023 66.236C59.5183 65.98 59.2103 65.852 58.7783 65.852C58.2983 65.852 57.9183 66.02 57.6383 66.356C57.3663 66.684 57.2303 67.132 57.2303 67.7V70.58C57.2303 70.916 57.0663 71.084 56.7383 71.084Z" fill="#030712"/>
<path d="M42.7081 50.6356L41.4416 53.1819C41.4416 53.1819 38.9916 53.2366 38.8516 53.1447C38.7116 53.0528 37.1059 43.0275 44.3947 34.9928C52.1034 26.49 61.7897 26.5512 62.0216 26.8312C62.2534 27.1091 62.1966 30.5084 62.1966 30.5084L42.7081 50.6356Z" fill="#FF5117"/>
<path d="M51.9831 32.1709C47.1969 34.8769 43.5831 38.9719 41.9097 45.3791C41.1134 48.4263 41.4131 53.1775 41.4131 53.1775H44.2394L52.6459 40.8356L62.1966 31.8844V29.2681C62.1966 29.2681 56.4828 29.6247 51.9831 32.1709Z" fill="#FF8E00"/>
<path d="M46.1294 42.3887C43.8216 46.8337 44.235 53.1775 44.235 53.1775L46.9934 53.1753L56.415 40.6584L62.1988 34.7106L62.1944 31.8866C62.1944 31.8866 58.8978 31.8559 53.7659 34.3409C49.6447 36.3337 47.385 39.9716 46.1294 42.3887Z" fill="#F9D81E"/>
<path d="M50.8216 40.1597C46.0375 46.1381 46.9431 53.1753 46.9431 53.1753H50.0122L55.2534 43.6663L62.1987 37.9066L62.1966 34.6822C62.1966 34.6822 55.0959 34.8156 50.8216 40.1597Z" fill="#97CC37"/>
<path d="M53.3284 41.505C48.5553 46.0878 49.6163 53.1753 49.6163 53.1753H52.0794L55.75 43.9747L62.1988 40.5994L62.1966 37.4166C62.1966 37.4166 57.9769 37.0447 53.3284 41.505Z" fill="#00C0E9"/>
<path d="M62.1003 42.345C62.2469 42.1153 62.1987 39.72 62.1987 39.72C62.1987 39.72 58.2065 39.6478 54.8422 43.4387C51.4844 47.2231 51.9678 53.1753 51.9678 53.1753C51.9678 53.1753 54.269 53.2453 54.3631 53.0594C54.5512 52.6875 53.7265 48.3059 56.4719 45.215C59.3156 42.0147 62.0194 42.4675 62.1003 42.345Z" fill="#8177FA"/>
</svg>
