<svg width="119" height="100" viewBox="0 0 119 100" fill="none" xmlns="http://www.w3.org/2000/svg">
<mask id="path-1-inside-1_673_10149" fill="white">
<path fill-rule="evenodd" clip-rule="evenodd" d="M68.5 18C78.1056 18 85.9538 10.476 86.4727 0.999956C86.5029 0.448497 86.9477 0 87.5 0L114.5 0C116.709 0 118.5 1.79086 118.5 4L118.5 31C118.5 31.5523 118.052 31.9971 117.5 32.0273C108.024 32.5462 100.5 40.3944 100.5 50C100.5 59.6056 108.024 67.4538 117.5 67.9727C118.052 68.0029 118.5 68.4477 118.5 69L118.5 96C118.5 98.2091 116.709 100 114.5 100H87.5C86.9477 100 86.5029 99.5515 86.4727 99C85.9538 89.524 78.1056 82 68.5 82C58.8944 82 51.0462 89.524 50.5273 99C50.4971 99.5515 50.0523 100 49.5 100L22.5 100C20.2909 100 18.5 98.2091 18.5 96L18.5 69C18.5 68.4477 18.0515 68.0029 17.5 67.9727C8.02403 67.4538 0.5 59.6056 0.5 50C0.5 40.3944 8.02403 32.5462 17.5 32.0273C18.0515 31.9971 18.5 31.5523 18.5 31L18.5 4C18.5 1.79086 20.2909 0 22.5 0L49.5 0C50.0523 0 50.4971 0.448498 50.5273 0.999957C51.0462 10.476 58.8944 18 68.5 18Z"/>
</mask>
<path fill-rule="evenodd" clip-rule="evenodd" d="M68.5 18C78.1056 18 85.9538 10.476 86.4727 0.999956C86.5029 0.448497 86.9477 0 87.5 0L114.5 0C116.709 0 118.5 1.79086 118.5 4L118.5 31C118.5 31.5523 118.052 31.9971 117.5 32.0273C108.024 32.5462 100.5 40.3944 100.5 50C100.5 59.6056 108.024 67.4538 117.5 67.9727C118.052 68.0029 118.5 68.4477 118.5 69L118.5 96C118.5 98.2091 116.709 100 114.5 100H87.5C86.9477 100 86.5029 99.5515 86.4727 99C85.9538 89.524 78.1056 82 68.5 82C58.8944 82 51.0462 89.524 50.5273 99C50.4971 99.5515 50.0523 100 49.5 100L22.5 100C20.2909 100 18.5 98.2091 18.5 96L18.5 69C18.5 68.4477 18.0515 68.0029 17.5 67.9727C8.02403 67.4538 0.5 59.6056 0.5 50C0.5 40.3944 8.02403 32.5462 17.5 32.0273C18.0515 31.9971 18.5 31.5523 18.5 31L18.5 4C18.5 1.79086 20.2909 0 22.5 0L49.5 0C50.0523 0 50.4971 0.448498 50.5273 0.999957C51.0462 10.476 58.8944 18 68.5 18Z" fill="#FFFFFF" fill-opacity="1"/>
<path d="M18.5 96L17.5 96V96H18.5ZM18.5 4L17.5 4L17.5 4L18.5 4ZM50.5273 0.999957L51.5258 0.945284L50.5273 0.999957ZM17.5 32.0273L17.4454 31.0288L17.5 32.0273ZM18.5 31L17.5 31L18.5 31ZM18.5 69L17.5 69L18.5 69ZM17.5 67.9727L17.4454 68.9712L17.5 67.9727ZM50.5273 99L49.5288 98.9454L50.5273 99ZM117.5 67.9727L117.555 66.9742L117.5 67.9727ZM86.4727 99L87.4712 98.9454L86.4727 99ZM117.5 32.0273L117.555 33.0258L117.5 32.0273ZM85.4742 0.945282C84.9842 9.89397 77.5716 17 68.5 17V19C78.6396 19 86.9235 11.058 87.4712 1.05463L85.4742 0.945282ZM114.5 -1L87.5 -1V1L114.5 1V-1ZM119.5 4C119.5 1.23858 117.261 -1 114.5 -1V1C116.157 1 117.5 2.34315 117.5 4H119.5ZM119.5 31L119.5 4H117.5L117.5 31H119.5ZM101.5 50C101.5 40.9284 108.606 33.5158 117.555 33.0258L117.445 31.0288C107.442 31.5765 99.5 39.8604 99.5 50H101.5ZM117.555 66.9742C108.606 66.4842 101.5 59.0716 101.5 50H99.5C99.5 60.1396 107.442 68.4235 117.445 68.9712L117.555 66.9742ZM119.5 96L119.5 69H117.5L117.5 96H119.5ZM114.5 101C117.261 101 119.5 98.7614 119.5 96H117.5C117.5 97.6569 116.157 99 114.5 99V101ZM87.5 101H114.5V99H87.5V101ZM68.5 83C77.5716 83 84.9842 90.106 85.4742 99.0547L87.4712 98.9454C86.9235 88.942 78.6396 81 68.5 81V83ZM51.5258 99.0547C52.0158 90.106 59.4284 83 68.5 83V81C58.3604 81 50.0765 88.942 49.5288 98.9454L51.5258 99.0547ZM22.5 101L49.5 101V99L22.5 99L22.5 101ZM17.5 96C17.5 98.7614 19.7386 101 22.5 101L22.5 99C20.8431 99 19.5 97.6569 19.5 96H17.5ZM17.5 69L17.5 96L19.5 96L19.5 69L17.5 69ZM17.5547 66.9742C8.60603 66.4842 1.5 59.0716 1.5 50H-0.5C-0.5 60.1396 7.44204 68.4235 17.4454 68.9712L17.5547 66.9742ZM1.5 50C1.5 40.9284 8.60603 33.5158 17.5547 33.0258L17.4454 31.0288C7.44204 31.5765 -0.5 39.8604 -0.5 50H1.5ZM17.5 4L17.5 31L19.5 31L19.5 4L17.5 4ZM22.5 -1C19.7386 -1 17.5 1.23858 17.5 4L19.5 4C19.5 2.34315 20.8431 1 22.5 1V-1ZM49.5 -1L22.5 -1V1L49.5 1V-1ZM68.5 17C59.4284 17 52.0158 9.89397 51.5258 0.945284L49.5288 1.05463C50.0765 11.058 58.3604 19 68.5 19V17ZM49.5 1C49.5012 1 49.5012 1.0001 49.5006 0.999977C49.5001 0.999868 49.4998 0.999738 49.4999 0.999766C49.5001 0.999846 49.5033 1.00127 49.5081 1.006C49.5187 1.0164 49.5276 1.03335 49.5288 1.05463L51.5258 0.945284C51.4685 -0.100786 50.6183 -1 49.5 -1V1ZM17.5547 33.0258C18.6008 32.9685 19.5 32.1183 19.5 31L17.5 31C17.5 31.0012 17.4999 31.0012 17.5 31.0006C17.5001 31.0001 17.5003 30.9998 17.5002 30.9999C17.5002 31.0001 17.4987 31.0033 17.494 31.0081C17.4836 31.0187 17.4666 31.0276 17.4454 31.0288L17.5547 33.0258ZM19.5 69C19.5 67.8817 18.6008 67.0315 17.5547 66.9742L17.4454 68.9712C17.4667 68.9724 17.4836 68.9813 17.494 68.9919C17.4987 68.9967 17.5002 68.9999 17.5002 69.0001C17.5003 69.0002 17.5001 68.9999 17.5 68.9994C17.4999 68.9988 17.5 68.9988 17.5 69L19.5 69ZM87.4712 1.05463C87.4724 1.03335 87.4813 1.0164 87.4919 1.006C87.4967 1.00127 87.4999 0.999846 87.5001 0.999766C87.5002 0.999738 87.4999 0.999868 87.4993 0.999977C87.4988 1.0001 87.4988 1 87.5 1V-1C86.3817 -1 85.5315 -0.100789 85.4742 0.945282L87.4712 1.05463ZM49.5288 98.9454C49.5276 98.9667 49.5187 98.9836 49.5081 98.994C49.5033 98.9987 49.5001 99.0002 49.4999 99.0002C49.4998 99.0003 49.5001 99.0001 49.5007 99C49.5012 98.9999 49.5012 99 49.5 99V101C50.6183 101 51.4685 100.101 51.5258 99.0547L49.5288 98.9454ZM117.445 68.9712C117.467 68.9724 117.484 68.9813 117.494 68.9919C117.499 68.9967 117.5 68.9999 117.5 69.0001C117.5 69.0002 117.5 68.9999 117.5 68.9993C117.5 68.9988 117.5 68.9988 117.5 69H119.5C119.5 67.8817 118.601 67.0315 117.555 66.9742L117.445 68.9712ZM87.5 99C87.4988 99 87.4988 98.9999 87.4994 99C87.4999 99.0001 87.5002 99.0003 87.5001 99.0002C87.4999 99.0002 87.4967 98.9987 87.4919 98.994C87.4813 98.9836 87.4724 98.9666 87.4712 98.9454L85.4742 99.0547C85.5315 100.101 86.3817 101 87.5 101V99ZM117.5 31C117.5 31.0012 117.5 31.0012 117.5 31.0006C117.5 31.0001 117.5 30.9998 117.5 30.9999C117.5 31.0001 117.499 31.0033 117.494 31.0081C117.484 31.0187 117.467 31.0276 117.445 31.0288L117.555 33.0258C118.601 32.9685 119.5 32.1183 119.5 31H117.5Z" fill="#D1D5DB" mask="url(#path-1-inside-1_673_10149)"/>
<path d="M54.476 73.244C54.316 73.244 54.196 73.2 54.116 73.112C54.036 73.032 53.996 72.912 53.996 72.752V65.576C53.996 65.416 54.036 65.296 54.116 65.216C54.196 65.128 54.312 65.084 54.464 65.084C54.624 65.084 54.744 65.128 54.824 65.216C54.912 65.296 54.956 65.416 54.956 65.576V66.716L54.824 66.548C54.952 66.092 55.204 65.732 55.58 65.468C55.964 65.196 56.42 65.06 56.948 65.06C57.468 65.06 57.92 65.184 58.304 65.432C58.696 65.672 58.996 66.02 59.204 66.476C59.42 66.924 59.528 67.46 59.528 68.084C59.528 68.7 59.42 69.236 59.204 69.692C58.996 70.14 58.7 70.488 58.316 70.736C57.932 70.984 57.476 71.108 56.948 71.108C56.42 71.108 55.968 70.976 55.592 70.712C55.216 70.44 54.96 70.08 54.824 69.632H54.968V72.752C54.968 72.912 54.924 73.032 54.836 73.112C54.748 73.2 54.628 73.244 54.476 73.244ZM56.744 70.328C57.112 70.328 57.428 70.24 57.692 70.064C57.964 69.888 58.172 69.632 58.316 69.296C58.468 68.96 58.544 68.556 58.544 68.084C58.544 67.356 58.38 66.8 58.052 66.416C57.732 66.032 57.296 65.84 56.744 65.84C56.384 65.84 56.068 65.928 55.796 66.104C55.524 66.272 55.312 66.524 55.16 66.86C55.016 67.188 54.944 67.596 54.944 68.084C54.944 68.804 55.108 69.36 55.436 69.752C55.764 70.136 56.2 70.328 56.744 70.328ZM62.8281 71.108C62.4281 71.108 62.0681 71.032 61.7481 70.88C61.4361 70.72 61.1881 70.504 61.0041 70.232C60.8201 69.96 60.7281 69.656 60.7281 69.32C60.7281 68.888 60.8361 68.548 61.0521 68.3C61.2761 68.052 61.6401 67.876 62.1441 67.772C62.6561 67.668 63.3521 67.616 64.2321 67.616H64.7721V68.252H64.2441C63.5961 68.252 63.0841 68.284 62.7081 68.348C62.3401 68.404 62.0801 68.504 61.9281 68.648C61.7841 68.792 61.7121 68.996 61.7121 69.26C61.7121 69.588 61.8241 69.856 62.0481 70.064C62.2801 70.272 62.5921 70.376 62.9841 70.376C63.3041 70.376 63.5841 70.3 63.8241 70.148C64.0721 69.996 64.2641 69.788 64.4001 69.524C64.5441 69.26 64.6161 68.956 64.6161 68.612V67.244C64.6161 66.748 64.5161 66.392 64.3161 66.176C64.1161 65.952 63.7881 65.84 63.3321 65.84C63.0521 65.84 62.7721 65.876 62.4921 65.948C62.2121 66.02 61.9161 66.136 61.6041 66.296C61.4921 66.352 61.3961 66.372 61.3161 66.356C61.2361 66.332 61.1721 66.288 61.1241 66.224C61.0761 66.16 61.0481 66.088 61.0401 66.008C61.0321 65.92 61.0481 65.836 61.0881 65.756C61.1361 65.676 61.2081 65.612 61.3041 65.564C61.6561 65.388 62.0041 65.26 62.3481 65.18C62.6921 65.1 63.0201 65.06 63.3321 65.06C63.8361 65.06 64.2521 65.144 64.5801 65.312C64.9081 65.472 65.1521 65.72 65.3121 66.056C65.4721 66.384 65.5521 66.808 65.5521 67.328V70.58C65.5521 70.74 65.5121 70.864 65.4321 70.952C65.3601 71.04 65.2521 71.084 65.1081 71.084C64.9561 71.084 64.8401 71.04 64.7601 70.952C64.6801 70.864 64.6401 70.74 64.6401 70.58V69.644H64.7481C64.6841 69.948 64.5601 70.208 64.3761 70.424C64.2001 70.64 63.9801 70.808 63.7161 70.928C63.4521 71.048 63.1561 71.108 62.8281 71.108ZM69.6954 71.108C69.2394 71.108 68.8554 71.028 68.5434 70.868C68.2394 70.7 68.0114 70.46 67.8594 70.148C67.7074 69.828 67.6314 69.44 67.6314 68.984V65.924H66.8274C66.6914 65.924 66.5874 65.892 66.5154 65.828C66.4434 65.756 66.4074 65.66 66.4074 65.54C66.4074 65.42 66.4434 65.328 66.5154 65.264C66.5874 65.2 66.6914 65.168 66.8274 65.168H67.6314V63.788C67.6314 63.628 67.6754 63.508 67.7634 63.428C67.8514 63.34 67.9714 63.296 68.1234 63.296C68.2754 63.296 68.3914 63.34 68.4714 63.428C68.5594 63.508 68.6034 63.628 68.6034 63.788V65.168H70.1154C70.2514 65.168 70.3554 65.2 70.4274 65.264C70.4994 65.328 70.5354 65.42 70.5354 65.54C70.5354 65.66 70.4994 65.756 70.4274 65.828C70.3554 65.892 70.2514 65.924 70.1154 65.924H68.6034V68.888C68.6034 69.344 68.6994 69.692 68.8914 69.932C69.0834 70.164 69.3954 70.28 69.8274 70.28C69.9794 70.28 70.1074 70.264 70.2114 70.232C70.3234 70.2 70.4154 70.184 70.4874 70.184C70.5594 70.176 70.6194 70.2 70.6674 70.256C70.7154 70.312 70.7394 70.408 70.7394 70.544C70.7394 70.64 70.7194 70.728 70.6794 70.808C70.6474 70.888 70.5874 70.944 70.4994 70.976C70.4034 71.008 70.2754 71.036 70.1154 71.06C69.9634 71.092 69.8234 71.108 69.6954 71.108ZM72.101 71.084C71.941 71.084 71.821 71.04 71.741 70.952C71.661 70.864 71.621 70.74 71.621 70.58V62.948C71.621 62.788 71.661 62.668 71.741 62.588C71.821 62.5 71.941 62.456 72.101 62.456C72.253 62.456 72.373 62.5 72.461 62.588C72.549 62.668 72.593 62.788 72.593 62.948V66.464H72.437C72.605 66 72.877 65.652 73.253 65.42C73.637 65.18 74.077 65.06 74.573 65.06C75.037 65.06 75.421 65.144 75.725 65.312C76.037 65.48 76.269 65.736 76.421 66.08C76.573 66.416 76.649 66.844 76.649 67.364V70.58C76.649 70.74 76.605 70.864 76.517 70.952C76.437 71.04 76.321 71.084 76.169 71.084C76.009 71.084 75.885 71.04 75.797 70.952C75.717 70.864 75.677 70.74 75.677 70.58V67.424C75.677 66.88 75.569 66.484 75.353 66.236C75.145 65.98 74.809 65.852 74.345 65.852C73.809 65.852 73.381 66.02 73.061 66.356C72.749 66.684 72.593 67.124 72.593 67.676V70.58C72.593 70.916 72.429 71.084 72.101 71.084ZM81.0693 71.108C80.4533 71.108 79.9213 70.988 79.4733 70.748C79.0333 70.5 78.6893 70.152 78.4413 69.704C78.2013 69.256 78.0813 68.72 78.0813 68.096C78.0813 67.488 78.2013 66.96 78.4413 66.512C78.6813 66.056 79.0093 65.7 79.4253 65.444C79.8493 65.188 80.3373 65.06 80.8893 65.06C81.2813 65.06 81.6333 65.128 81.9453 65.264C82.2573 65.392 82.5213 65.58 82.7373 65.828C82.9613 66.076 83.1293 66.376 83.2413 66.728C83.3613 67.08 83.4213 67.476 83.4213 67.916C83.4213 68.044 83.3853 68.14 83.3133 68.204C83.2413 68.26 83.1373 68.288 83.0013 68.288H78.8253V67.652H82.7733L82.5813 67.808C82.5813 67.376 82.5173 67.012 82.3893 66.716C82.2613 66.412 82.0733 66.18 81.8253 66.02C81.5853 65.86 81.2813 65.78 80.9133 65.78C80.5053 65.78 80.1573 65.876 79.8693 66.068C79.5893 66.252 79.3773 66.512 79.2333 66.848C79.0893 67.176 79.0173 67.56 79.0173 68V68.072C79.0173 68.808 79.1933 69.368 79.5453 69.752C79.9053 70.136 80.4133 70.328 81.0693 70.328C81.3413 70.328 81.6093 70.292 81.8733 70.22C82.1453 70.148 82.4093 70.028 82.6653 69.86C82.7773 69.788 82.8773 69.756 82.9653 69.764C83.0613 69.764 83.1373 69.792 83.1933 69.848C83.2493 69.896 83.2853 69.96 83.3013 70.04C83.3253 70.112 83.3173 70.192 83.2773 70.28C83.2453 70.368 83.1773 70.444 83.0733 70.508C82.8093 70.7 82.4973 70.848 82.1373 70.952C81.7773 71.056 81.4213 71.108 81.0693 71.108Z" fill="#030712"/>
<path d="M61.5372 40.9341L65.1028 40.3478C65.1028 40.3478 63.7509 38.8669 61.9441 38.4753C60.1372 38.0838 59.3562 38.1494 59.3562 38.1494C59.3562 38.1494 58.0219 37.3028 57.1097 37.025C56.1975 36.7472 55.3487 36.8566 55.3487 36.8566L55.34 40.6628L61.5372 40.9341ZM75.185 41.3081L71.9912 40.2625C71.9912 40.2625 74.0322 38.7925 75.1456 38.495C76.3203 38.1822 77.6153 38.3047 77.6153 38.3047C77.6153 38.3047 78.5844 37.4538 79.7044 37.0163C80.8244 36.5788 81.6666 36.5634 81.6666 36.5634L81.6644 40.4003C81.6644 40.4003 80.5553 41.6931 80.5334 41.6625C80.5159 41.6297 75.185 41.3081 75.185 41.3081Z" fill="#A1D1DA"/>
<path d="M76.1913 40.2188C76.1913 40.2188 76.76 39.3459 77.4184 39.2934C78.2869 39.2256 78.5888 39.4466 78.5888 39.4466C78.5888 39.4466 79.0044 39.1425 79.3894 39.1534C79.9428 39.1688 80.2666 39.7069 80.2666 39.7069C80.2666 39.7069 80.5291 38.9434 80.8353 38.9522C81.3581 38.9675 81.4347 40.2778 81.4347 40.2778L79.6562 40.9581L76.1913 40.2188ZM55.5391 40.4069C55.5391 40.4069 56.0072 39.0025 56.3309 39.0178C56.6547 39.0331 56.8997 39.65 56.8997 39.65C56.8997 39.65 57.2103 38.0509 57.6872 38.0509C58.1334 38.0509 58.4222 40.2822 58.4222 40.2822L59.0697 40.56L59.8222 40.3741C59.8222 40.3741 60.1766 39.4203 60.4237 39.4356C60.6556 39.4509 60.8088 39.9278 60.8088 39.9278C60.8088 39.9278 60.9772 39.02 61.3316 39.02C61.7319 39.02 61.9791 40.3281 61.9791 40.3281L58.5163 41.5094L55.5391 40.4069Z" fill="#518E2C"/>
<path d="M81.6687 40.1488L81.6709 51.5216C81.6709 52.4294 80.9337 53.1666 80.0259 53.1666H56.9894C56.0815 53.1666 55.3444 52.4294 55.3444 51.5216L55.3378 40.3041L81.6687 40.1488Z" fill="#7DB240"/>
<path d="M65.1072 40.2494C65.1072 40.2494 66.4919 40.2188 68.7888 40.2166C71.0178 40.2144 72.2166 40.2056 72.2166 40.2056L79.6059 53.1688H57.2016L65.1072 40.2494Z" fill="#5E6367"/>
<path d="M58.5272 53.1687L65.5381 40.2406L65.7678 40.2341H66.0369L59.3606 53.1709L58.9669 53.1775L58.5272 53.1687ZM71.8884 40.2056L71.5997 40.2012L71.2759 40.2078L77.7181 53.1687H78.4094L71.8884 40.2056ZM64.4816 52.2653L65.4309 52.2872L66.0741 49.3187L65.1903 49.3078L64.4816 52.2653ZM70.9216 49.3844L71.7791 49.3691L72.4244 52.2762H71.3328L70.9216 49.3844ZM70.7116 48.1594L71.5625 48.1375L71.0266 45.7684H70.3156L70.7116 48.1594ZM66.8069 45.7159H66.0741L65.5075 48.1725H66.2928L66.8069 45.7159ZM66.7303 43.01L67.3625 43.0209L67.0256 44.6791L66.2928 44.69L66.7303 43.01ZM67.1569 41.3278C67.135 41.3825 66.9053 42.31 66.9053 42.31H67.5266L67.6906 41.3278H67.1569ZM67.2969 40.8378H67.8219L67.9269 40.2187C67.9269 40.2187 67.7344 40.2166 67.6666 40.2166C67.5988 40.2166 67.4434 40.2209 67.4434 40.2209L67.2969 40.8378ZM69.5566 40.8356H70.1363L70.0094 40.2122L69.7425 40.2078L69.4844 40.2144L69.5566 40.8356ZM69.6966 41.3847L70.2063 41.3737L70.4097 42.3209L69.8103 42.3319L69.6966 41.3847ZM69.9416 43.0231L70.5322 43.0034L70.8669 44.7316L70.1341 44.7425L69.9416 43.0231Z" fill="white"/>
<path d="M58.3216 30.4209V43.5503H59.5706V30.1825L58.3216 30.4209ZM77.3572 44.0862L77.4447 30.3378L78.6981 30.4253L78.6325 44.0862H77.3572Z" fill="#9A9A9A"/>
<path d="M79.2472 30.6725H57.5581C57.3175 30.6725 57.1206 30.4756 57.1206 30.235C57.1206 29.9944 57.3175 29.7975 57.5581 29.7975H79.245C79.4856 29.7975 79.6825 29.9944 79.6825 30.235C79.6825 30.4756 79.4878 30.6725 79.2472 30.6725ZM57.5844 34.9513C57.4684 34.9513 57.3571 34.9052 57.275 34.8231C57.193 34.7411 57.1469 34.6298 57.1469 34.5138C57.1469 34.3977 57.193 34.2864 57.275 34.2044C57.3571 34.1223 57.4684 34.0763 57.5844 34.0763L79.3238 34.05C79.4398 34.05 79.5511 34.0961 79.6331 34.1781C79.7152 34.2602 79.7613 34.3715 79.7613 34.4875C79.7613 34.6035 79.7152 34.7148 79.6331 34.7969C79.5511 34.8789 79.4398 34.925 79.3238 34.925L57.5844 34.9513Z" fill="#C8C8C8"/>
<path d="M73.6579 33.9325L77.6269 29.9633L78.1683 30.5047L74.1993 34.4739L73.6579 33.9325ZM58.9376 30.6279L59.479 30.0865L63.4405 34.048L62.8991 34.5892L58.9376 30.6279Z" fill="#C8C8C8"/>
<path d="M74.3603 36.6334H62.5697C62.3585 36.6334 62.156 36.5495 62.0067 36.4002C61.8573 36.2509 61.7734 36.0484 61.7734 35.8372V28.59C61.7734 28.3788 61.8573 28.1763 62.0067 28.027C62.156 27.8776 62.3585 27.7938 62.5697 27.7938H74.3603C74.5715 27.7938 74.774 27.8776 74.9233 28.027C75.0727 28.1763 75.1566 28.3788 75.1566 28.59V35.8372C75.1566 36.0484 75.0727 36.2509 74.9233 36.4002C74.774 36.5495 74.5715 36.6334 74.3603 36.6334Z" fill="#DFE1E0"/>
<path d="M62.4603 35.9444L62.5238 28.3778L74.4478 28.4194V35.9247L62.4603 35.9444Z" fill="#1B9372"/>
<path d="M69.7709 31.5759L69.8059 29.6947H73.0587V31.5934C73.0587 31.5934 69.7884 31.5584 69.7709 31.5759ZM64.3678 30.5894C64.3678 31.3637 64.9825 31.8559 65.6694 31.8559C66.354 31.8559 66.9184 31.3637 66.9184 30.5719C66.9184 29.78 66.1987 29.2878 65.6694 29.2878C64.9825 29.2878 64.3678 29.7625 64.3678 30.5894Z" fill="#85D59E"/>
<path d="M65.1356 32.3831H66.2425V33.525C66.2425 33.525 67.5441 33.0503 67.6491 33.1728C67.7541 33.2953 65.9428 35.1941 65.7328 35.1941C65.5228 35.1941 63.5869 33.3303 63.6591 33.1903C63.7291 33.0503 65.1356 33.455 65.1356 33.455V32.3831ZM70.9391 32.4531H72.0459V33.595C72.0459 33.595 73.3475 33.1203 73.4525 33.2428C73.5575 33.3653 71.7463 35.2641 71.5363 35.2641C71.3263 35.2641 69.3903 33.4003 69.4625 33.2603C69.5325 33.1203 70.9391 33.525 70.9391 33.525V32.4531Z" fill="#FEFFFE"/>
</svg>
