<svg width="119" height="100" viewBox="0 0 119 100" fill="none" xmlns="http://www.w3.org/2000/svg">
<mask id="path-1-inside-1_673_10151" fill="white">
<path fill-rule="evenodd" clip-rule="evenodd" d="M50.5 18C60.1056 18 67.9538 10.476 68.4727 0.999956C68.5029 0.448497 68.9477 0 69.5 0L96.5 0C98.7091 0 100.5 1.79086 100.5 4V31C100.5 31.5523 100.948 31.9971 101.5 32.0273C110.976 32.5462 118.5 40.3944 118.5 50C118.5 59.6056 110.976 67.4538 101.5 67.9727C100.948 68.0029 100.5 68.4477 100.5 69V96C100.5 98.2091 98.7091 100 96.5 100H69.5C68.9477 100 68.5029 99.5515 68.4727 99C67.9538 89.524 60.1056 82 50.5 82C40.8944 82 33.0462 89.524 32.5273 99C32.4971 99.5515 32.0523 100 31.5 100H4.5C2.29086 100 0.5 98.2091 0.5 96L0.5 69C0.5 68.4477 0.948498 68.0029 1.49996 67.9727C10.976 67.4538 18.5 59.6056 18.5 50C18.5 40.3944 10.976 32.5462 1.49996 32.0273C0.948497 31.9971 0.5 31.5523 0.5 31L0.5 4C0.5 1.79086 2.29086 0 4.5 0L31.5 0C32.0523 0 32.4971 0.448498 32.5273 0.999957C33.0462 10.476 40.8944 18 50.5 18Z"/>
</mask>
<path fill-rule="evenodd" clip-rule="evenodd" d="M50.5 18C60.1056 18 67.9538 10.476 68.4727 0.999956C68.5029 0.448497 68.9477 0 69.5 0L96.5 0C98.7091 0 100.5 1.79086 100.5 4V31C100.5 31.5523 100.948 31.9971 101.5 32.0273C110.976 32.5462 118.5 40.3944 118.5 50C118.5 59.6056 110.976 67.4538 101.5 67.9727C100.948 68.0029 100.5 68.4477 100.5 69V96C100.5 98.2091 98.7091 100 96.5 100H69.5C68.9477 100 68.5029 99.5515 68.4727 99C67.9538 89.524 60.1056 82 50.5 82C40.8944 82 33.0462 89.524 32.5273 99C32.4971 99.5515 32.0523 100 31.5 100H4.5C2.29086 100 0.5 98.2091 0.5 96L0.5 69C0.5 68.4477 0.948498 68.0029 1.49996 67.9727C10.976 67.4538 18.5 59.6056 18.5 50C18.5 40.3944 10.976 32.5462 1.49996 32.0273C0.948497 31.9971 0.5 31.5523 0.5 31L0.5 4C0.5 1.79086 2.29086 0 4.5 0L31.5 0C32.0523 0 32.4971 0.448498 32.5273 0.999957C33.0462 10.476 40.8944 18 50.5 18Z" fill="#FFFFFF" fill-opacity="1"/>
<path d="M96.5 0V-1V0ZM32.5273 0.999957L33.5258 0.945284L32.5273 0.999957ZM1.49996 67.9727L1.44528 66.9742L1.49996 67.9727ZM32.5273 99L31.5288 98.9454L32.5273 99ZM101.5 67.9727L101.555 68.9712L101.5 67.9727ZM68.4727 99L69.4712 98.9454L68.4727 99ZM101.5 32.0273L101.555 31.0288L101.5 32.0273ZM67.4742 0.945282C66.9842 9.89397 59.5716 17 50.5 17L50.5 19C60.6396 19 68.9235 11.058 69.4712 1.05463L67.4742 0.945282ZM96.5 -1L69.5 -1V1L96.5 1V-1ZM101.5 4C101.5 1.23858 99.2614 -1 96.5 -1V1C98.1569 1 99.5 2.34315 99.5 4L101.5 4ZM101.5 31V4L99.5 4V31H101.5ZM101.445 33.0258C110.394 33.5158 117.5 40.9284 117.5 50H119.5C119.5 39.8604 111.558 31.5765 101.555 31.0288L101.445 33.0258ZM117.5 50C117.5 59.0716 110.394 66.4842 101.445 66.9742L101.555 68.9712C111.558 68.4235 119.5 60.1396 119.5 50H117.5ZM101.5 96V69H99.5V96H101.5ZM96.5 101C99.2614 101 101.5 98.7614 101.5 96H99.5C99.5 97.6569 98.1569 99 96.5 99V101ZM69.5 101H96.5V99H69.5V101ZM50.5 83C59.5716 83 66.9842 90.106 67.4742 99.0547L69.4712 98.9454C68.9235 88.942 60.6396 81 50.5 81V83ZM33.5258 99.0547C34.0158 90.106 41.4284 83 50.5 83V81C40.3604 81 32.0765 88.942 31.5288 98.9454L33.5258 99.0547ZM4.5 101H31.5L31.5 99H4.5V101ZM-0.5 96C-0.5 98.7614 1.73858 101 4.5 101V99C2.84315 99 1.5 97.6569 1.5 96H-0.5ZM-0.5 69L-0.5 96H1.5L1.5 69H-0.5ZM17.5 50C17.5 59.0716 10.394 66.4842 1.44528 66.9742L1.55463 68.9712C11.558 68.4235 19.5 60.1396 19.5 50L17.5 50ZM1.44528 33.0258C10.394 33.5158 17.5 40.9284 17.5 50L19.5 50C19.5 39.8604 11.558 31.5765 1.55463 31.0288L1.44528 33.0258ZM-0.5 4L-0.5 31H1.5L1.5 4H-0.5ZM4.5 -1C1.73858 -1 -0.5 1.23858 -0.5 4H1.5C1.5 2.34315 2.84315 1 4.5 1V-1ZM31.5 -1L4.5 -1V1L31.5 1V-1ZM50.5 17C41.4284 17 34.0158 9.89397 33.5258 0.945284L31.5288 1.05463C32.0765 11.058 40.3604 19 50.5 19L50.5 17ZM31.5 1C31.5012 1 31.5012 1.0001 31.5006 0.999977C31.5001 0.999868 31.4998 0.999738 31.4999 0.999766C31.5001 0.999846 31.5033 1.00127 31.5081 1.006C31.5187 1.0164 31.5276 1.03335 31.5288 1.05463L33.5258 0.945284C33.4685 -0.100786 32.6183 -1 31.5 -1V1ZM1.55463 31.0288C1.53335 31.0276 1.5164 31.0187 1.506 31.0081C1.50127 31.0033 1.49985 31.0001 1.49977 30.9999C1.49974 30.9998 1.49987 31.0001 1.49998 31.0007C1.5001 31.0012 1.5 31.0012 1.5 31H-0.5C-0.5 32.1183 0.399211 32.9685 1.44528 33.0258L1.55463 31.0288ZM1.5 69C1.5 68.9988 1.5001 68.9988 1.49998 68.9994C1.49987 68.9999 1.49974 69.0002 1.49977 69.0001C1.49985 68.9999 1.50127 68.9967 1.506 68.9919C1.5164 68.9813 1.53335 68.9724 1.55463 68.9712L1.44528 66.9742C0.399214 67.0315 -0.5 67.8817 -0.5 69H1.5ZM69.4712 1.05463C69.4724 1.03335 69.4813 1.0164 69.4919 1.006C69.4967 1.00127 69.4999 0.999846 69.5001 0.999766C69.5002 0.999738 69.4999 0.999868 69.4993 0.999977C69.4988 1.0001 69.4988 1 69.5 1V-1C68.3817 -1 67.5315 -0.100789 67.4742 0.945282L69.4712 1.05463ZM31.5288 98.9454C31.5276 98.9667 31.5187 98.9836 31.5081 98.994C31.5033 98.9987 31.5001 99.0002 31.4999 99.0002C31.4998 99.0003 31.5001 99.0001 31.5007 99C31.5012 98.9999 31.5012 99 31.5 99L31.5 101C32.6183 101 33.4685 100.101 33.5258 99.0547L31.5288 98.9454ZM101.445 66.9742C100.399 67.0315 99.5 67.8817 99.5 69H101.5C101.5 68.9988 101.5 68.9988 101.5 68.9994C101.5 68.9999 101.5 69.0002 101.5 69.0001C101.5 68.9999 101.501 68.9967 101.506 68.9919C101.516 68.9813 101.533 68.9724 101.555 68.9712L101.445 66.9742ZM69.5 99C69.4988 99 69.4988 98.9999 69.4994 99C69.4999 99.0001 69.5002 99.0003 69.5001 99.0002C69.4999 99.0002 69.4967 98.9987 69.4919 98.994C69.4813 98.9836 69.4724 98.9666 69.4712 98.9454L67.4742 99.0547C67.5315 100.101 68.3817 101 69.5 101V99ZM99.5 31C99.5 32.1183 100.399 32.9685 101.445 33.0258L101.555 31.0288C101.533 31.0276 101.516 31.0187 101.506 31.0081C101.501 31.0033 101.5 31.0001 101.5 30.9999C101.5 30.9998 101.5 31.0001 101.5 31.0006C101.5 31.0012 101.5 31.0012 101.5 31H99.5Z" fill="#D1D5DB" mask="url(#path-1-inside-1_673_10151)"/>
<path d="M24.6166 73.244C24.4566 73.244 24.3366 73.2 24.2566 73.112C24.1766 73.032 24.1366 72.912 24.1366 72.752V65.576C24.1366 65.416 24.1766 65.296 24.2566 65.216C24.3366 65.128 24.4526 65.084 24.6046 65.084C24.7646 65.084 24.8846 65.128 24.9646 65.216C25.0526 65.296 25.0966 65.416 25.0966 65.576V66.716L24.9646 66.548C25.0926 66.092 25.3446 65.732 25.7206 65.468C26.1046 65.196 26.5606 65.06 27.0886 65.06C27.6086 65.06 28.0606 65.184 28.4446 65.432C28.8366 65.672 29.1366 66.02 29.3446 66.476C29.5606 66.924 29.6686 67.46 29.6686 68.084C29.6686 68.7 29.5606 69.236 29.3446 69.692C29.1366 70.14 28.8406 70.488 28.4566 70.736C28.0726 70.984 27.6166 71.108 27.0886 71.108C26.5606 71.108 26.1086 70.976 25.7326 70.712C25.3566 70.44 25.1006 70.08 24.9646 69.632H25.1086V72.752C25.1086 72.912 25.0646 73.032 24.9766 73.112C24.8886 73.2 24.7686 73.244 24.6166 73.244ZM26.8846 70.328C27.2526 70.328 27.5686 70.24 27.8326 70.064C28.1046 69.888 28.3126 69.632 28.4566 69.296C28.6086 68.96 28.6846 68.556 28.6846 68.084C28.6846 67.356 28.5206 66.8 28.1926 66.416C27.8726 66.032 27.4366 65.84 26.8846 65.84C26.5246 65.84 26.2086 65.928 25.9366 66.104C25.6646 66.272 25.4526 66.524 25.3006 66.86C25.1566 67.188 25.0846 67.596 25.0846 68.084C25.0846 68.804 25.2486 69.36 25.5766 69.752C25.9046 70.136 26.3406 70.328 26.8846 70.328ZM31.6127 71.084C31.4527 71.084 31.3327 71.04 31.2527 70.952C31.1727 70.864 31.1327 70.74 31.1327 70.58V62.948C31.1327 62.788 31.1727 62.668 31.2527 62.588C31.3327 62.5 31.4527 62.456 31.6127 62.456C31.7647 62.456 31.8847 62.5 31.9727 62.588C32.0607 62.668 32.1047 62.788 32.1047 62.948V67.76H32.1287L34.5887 65.408C34.7007 65.304 34.7967 65.224 34.8767 65.168C34.9647 65.112 35.0807 65.084 35.2247 65.084C35.3527 65.084 35.4527 65.12 35.5247 65.192C35.5967 65.256 35.6287 65.34 35.6207 65.444C35.6207 65.54 35.5727 65.644 35.4767 65.756L32.8607 68.24V67.712L35.7047 70.388C35.8167 70.5 35.8727 70.608 35.8727 70.712C35.8727 70.816 35.8327 70.904 35.7527 70.976C35.6807 71.048 35.5847 71.084 35.4647 71.084C35.3207 71.084 35.2047 71.056 35.1167 71C35.0287 70.936 34.9207 70.844 34.7927 70.724L32.1287 68.264H32.1047V70.58C32.1047 70.916 31.9407 71.084 31.6127 71.084ZM39.5604 73.268C39.1364 73.268 38.7204 73.216 38.3124 73.112C37.9124 73.016 37.5484 72.86 37.2204 72.644C37.1244 72.588 37.0604 72.52 37.0284 72.44C37.0044 72.36 37.0004 72.28 37.0164 72.2C37.0324 72.128 37.0684 72.06 37.1244 71.996C37.1804 71.94 37.2444 71.904 37.3164 71.888C37.3964 71.872 37.4764 71.884 37.5564 71.924C37.9084 72.14 38.2444 72.288 38.5644 72.368C38.8844 72.448 39.2004 72.488 39.5124 72.488C40.0804 72.488 40.5084 72.336 40.7964 72.032C41.0924 71.728 41.2404 71.288 41.2404 70.712V69.356H41.3604C41.2404 69.82 40.9844 70.188 40.5924 70.46C40.2084 70.732 39.7564 70.868 39.2364 70.868C38.7004 70.868 38.2364 70.748 37.8444 70.508C37.4524 70.26 37.1484 69.916 36.9324 69.476C36.7244 69.036 36.6204 68.528 36.6204 67.952C36.6204 67.52 36.6804 67.128 36.8004 66.776C36.9204 66.416 37.0924 66.112 37.3164 65.864C37.5484 65.608 37.8244 65.412 38.1444 65.276C38.4724 65.132 38.8364 65.06 39.2364 65.06C39.7644 65.06 40.2204 65.196 40.6044 65.468C40.9884 65.732 41.2364 66.092 41.3484 66.548L41.2284 66.692V65.576C41.2284 65.416 41.2684 65.296 41.3484 65.216C41.4364 65.128 41.5564 65.084 41.7084 65.084C41.8684 65.084 41.9884 65.128 42.0684 65.216C42.1484 65.296 42.1884 65.416 42.1884 65.576V70.58C42.1884 71.468 41.9644 72.136 41.5164 72.584C41.0764 73.04 40.4244 73.268 39.5604 73.268ZM39.4164 70.076C39.7924 70.076 40.1164 69.992 40.3884 69.824C40.6604 69.648 40.8684 69.4 41.0124 69.08C41.1644 68.76 41.2404 68.384 41.2404 67.952C41.2404 67.304 41.0764 66.792 40.7484 66.416C40.4204 66.032 39.9764 65.84 39.4164 65.84C39.0484 65.84 38.7284 65.928 38.4564 66.104C38.1844 66.272 37.9724 66.516 37.8204 66.836C37.6764 67.148 37.6044 67.52 37.6044 67.952C37.6044 68.6 37.7684 69.116 38.0964 69.5C38.4244 69.884 38.8644 70.076 39.4164 70.076ZM44.2996 68.204C44.1796 68.204 44.0796 68.168 43.9996 68.096C43.9196 68.016 43.8796 67.92 43.8796 67.808C43.8796 67.688 43.9196 67.592 43.9996 67.52C44.0796 67.44 44.1796 67.4 44.2996 67.4H46.9996C47.1116 67.4 47.2076 67.44 47.2876 67.52C47.3676 67.592 47.4076 67.688 47.4076 67.808C47.4076 67.92 47.3676 68.016 47.2876 68.096C47.2076 68.168 47.1116 68.204 46.9996 68.204H44.2996ZM51.4375 71.108C50.9815 71.108 50.5975 71.028 50.2855 70.868C49.9815 70.7 49.7535 70.46 49.6015 70.148C49.4495 69.828 49.3735 69.44 49.3735 68.984V65.924H48.5695C48.4335 65.924 48.3295 65.892 48.2575 65.828C48.1855 65.756 48.1495 65.66 48.1495 65.54C48.1495 65.42 48.1855 65.328 48.2575 65.264C48.3295 65.2 48.4335 65.168 48.5695 65.168H49.3735V63.788C49.3735 63.628 49.4175 63.508 49.5055 63.428C49.5935 63.34 49.7135 63.296 49.8655 63.296C50.0175 63.296 50.1335 63.34 50.2135 63.428C50.3015 63.508 50.3455 63.628 50.3455 63.788V65.168H51.8575C51.9935 65.168 52.0975 65.2 52.1695 65.264C52.2415 65.328 52.2775 65.42 52.2775 65.54C52.2775 65.66 52.2415 65.756 52.1695 65.828C52.0975 65.892 51.9935 65.924 51.8575 65.924H50.3455V68.888C50.3455 69.344 50.4415 69.692 50.6335 69.932C50.8255 70.164 51.1375 70.28 51.5695 70.28C51.7215 70.28 51.8495 70.264 51.9535 70.232C52.0655 70.2 52.1575 70.184 52.2295 70.184C52.3015 70.176 52.3615 70.2 52.4095 70.256C52.4575 70.312 52.4815 70.408 52.4815 70.544C52.4815 70.64 52.4615 70.728 52.4215 70.808C52.3895 70.888 52.3295 70.944 52.2415 70.976C52.1455 71.008 52.0175 71.036 51.8575 71.06C51.7055 71.092 51.5655 71.108 51.4375 71.108ZM54.6592 73.244C54.5392 73.244 54.4432 73.212 54.3712 73.148C54.2992 73.084 54.2552 72.996 54.2392 72.884C54.2312 72.78 54.2512 72.672 54.2992 72.56L55.1272 70.7V71.12L52.8232 65.768C52.7752 65.648 52.7592 65.536 52.7752 65.432C52.7912 65.328 52.8392 65.244 52.9192 65.18C52.9992 65.116 53.1112 65.084 53.2552 65.084C53.3832 65.084 53.4832 65.112 53.5552 65.168C53.6272 65.224 53.6912 65.324 53.7472 65.468L55.7152 70.292H55.3912L57.3832 65.468C57.4472 65.324 57.5152 65.224 57.5872 65.168C57.6592 65.112 57.7632 65.084 57.8992 65.084C58.0272 65.084 58.1232 65.116 58.1872 65.18C58.2592 65.244 58.2992 65.328 58.3072 65.432C58.3232 65.528 58.3072 65.636 58.2592 65.756L55.1872 72.86C55.1232 73.004 55.0512 73.104 54.9712 73.16C54.8992 73.216 54.7952 73.244 54.6592 73.244ZM60.0072 73.244C59.8472 73.244 59.7272 73.2 59.6472 73.112C59.5672 73.032 59.5272 72.912 59.5272 72.752V65.576C59.5272 65.416 59.5672 65.296 59.6472 65.216C59.7272 65.128 59.8432 65.084 59.9952 65.084C60.1552 65.084 60.2752 65.128 60.3552 65.216C60.4432 65.296 60.4872 65.416 60.4872 65.576V66.716L60.3552 66.548C60.4832 66.092 60.7352 65.732 61.1112 65.468C61.4952 65.196 61.9512 65.06 62.4792 65.06C62.9992 65.06 63.4512 65.184 63.8352 65.432C64.2272 65.672 64.5272 66.02 64.7352 66.476C64.9512 66.924 65.0592 67.46 65.0592 68.084C65.0592 68.7 64.9512 69.236 64.7352 69.692C64.5272 70.14 64.2312 70.488 63.8472 70.736C63.4632 70.984 63.0072 71.108 62.4792 71.108C61.9512 71.108 61.4992 70.976 61.1232 70.712C60.7472 70.44 60.4912 70.08 60.3552 69.632H60.4992V72.752C60.4992 72.912 60.4552 73.032 60.3672 73.112C60.2792 73.2 60.1592 73.244 60.0072 73.244ZM62.2752 70.328C62.6432 70.328 62.9592 70.24 63.2232 70.064C63.4952 69.888 63.7032 69.632 63.8472 69.296C63.9992 68.96 64.0752 68.556 64.0752 68.084C64.0752 67.356 63.9112 66.8 63.5832 66.416C63.2632 66.032 62.8272 65.84 62.2752 65.84C61.9152 65.84 61.5992 65.928 61.3272 66.104C61.0552 66.272 60.8432 66.524 60.6912 66.86C60.5472 67.188 60.4752 67.596 60.4752 68.084C60.4752 68.804 60.6392 69.36 60.9672 69.752C61.2952 70.136 61.7312 70.328 62.2752 70.328ZM69.1513 71.108C68.5353 71.108 68.0033 70.988 67.5553 70.748C67.1153 70.5 66.7713 70.152 66.5233 69.704C66.2833 69.256 66.1633 68.72 66.1633 68.096C66.1633 67.488 66.2833 66.96 66.5233 66.512C66.7633 66.056 67.0913 65.7 67.5073 65.444C67.9313 65.188 68.4193 65.06 68.9713 65.06C69.3633 65.06 69.7153 65.128 70.0273 65.264C70.3393 65.392 70.6033 65.58 70.8193 65.828C71.0433 66.076 71.2113 66.376 71.3233 66.728C71.4433 67.08 71.5033 67.476 71.5033 67.916C71.5033 68.044 71.4673 68.14 71.3953 68.204C71.3233 68.26 71.2193 68.288 71.0833 68.288H66.9073V67.652H70.8553L70.6633 67.808C70.6633 67.376 70.5993 67.012 70.4713 66.716C70.3433 66.412 70.1553 66.18 69.9073 66.02C69.6673 65.86 69.3633 65.78 68.9953 65.78C68.5873 65.78 68.2393 65.876 67.9513 66.068C67.6713 66.252 67.4593 66.512 67.3153 66.848C67.1713 67.176 67.0993 67.56 67.0993 68V68.072C67.0993 68.808 67.2753 69.368 67.6273 69.752C67.9873 70.136 68.4953 70.328 69.1513 70.328C69.4233 70.328 69.6913 70.292 69.9553 70.22C70.2273 70.148 70.4913 70.028 70.7473 69.86C70.8593 69.788 70.9593 69.756 71.0473 69.764C71.1433 69.764 71.2193 69.792 71.2753 69.848C71.3313 69.896 71.3673 69.96 71.3833 70.04C71.4073 70.112 71.3993 70.192 71.3593 70.28C71.3273 70.368 71.2593 70.444 71.1553 70.508C70.8913 70.7 70.5793 70.848 70.2193 70.952C69.8593 71.056 69.5033 71.108 69.1513 71.108ZM74.878 71.108C74.518 71.108 74.154 71.064 73.786 70.976C73.426 70.888 73.09 70.736 72.778 70.52C72.698 70.464 72.642 70.4 72.61 70.328C72.578 70.248 72.566 70.172 72.574 70.1C72.59 70.02 72.622 69.952 72.67 69.896C72.726 69.84 72.79 69.808 72.862 69.8C72.942 69.784 73.03 69.8 73.126 69.848C73.438 70.04 73.738 70.176 74.026 70.256C74.322 70.328 74.614 70.364 74.902 70.364C75.358 70.364 75.702 70.28 75.934 70.112C76.166 69.944 76.282 69.716 76.282 69.428C76.282 69.204 76.206 69.028 76.054 68.9C75.902 68.764 75.662 68.66 75.334 68.588L74.242 68.348C73.738 68.244 73.362 68.064 73.114 67.808C72.874 67.552 72.754 67.22 72.754 66.812C72.754 66.452 72.846 66.144 73.03 65.888C73.222 65.624 73.49 65.42 73.834 65.276C74.178 65.132 74.578 65.06 75.034 65.06C75.386 65.06 75.718 65.108 76.03 65.204C76.35 65.292 76.638 65.436 76.894 65.636C76.974 65.692 77.026 65.76 77.05 65.84C77.082 65.912 77.086 65.988 77.062 66.068C77.046 66.14 77.01 66.204 76.954 66.26C76.898 66.308 76.83 66.336 76.75 66.344C76.67 66.352 76.586 66.328 76.498 66.272C76.258 66.112 76.014 65.996 75.766 65.924C75.518 65.844 75.274 65.804 75.034 65.804C74.586 65.804 74.246 65.892 74.014 66.068C73.782 66.244 73.666 66.476 73.666 66.764C73.666 66.988 73.738 67.172 73.882 67.316C74.026 67.46 74.25 67.564 74.554 67.628L75.646 67.856C76.166 67.968 76.554 68.148 76.81 68.396C77.074 68.636 77.206 68.964 77.206 69.38C77.206 69.908 76.994 70.328 76.57 70.64C76.146 70.952 75.582 71.108 74.878 71.108Z" fill="#030712"/>
<path d="M48.8353 36.6619L42.2356 33.3937C42.2356 33.3937 42.2203 33.0809 42.5156 32.9234C42.8131 32.7659 47.49 30.8497 47.8662 30.8497C48.2425 30.8497 50.4453 31.2741 52.0487 31.6306C53.6522 31.9872 57.8894 32.8972 57.9091 33.175C57.9287 33.4528 53.5734 37.9066 53.5734 37.9066L48.8353 36.6619Z" fill="#C3FECE"/>
<path d="M54.8553 34.6231C54.8553 34.6231 52.0881 33.8094 49.3953 33.1772C48.1419 32.8819 44.4581 32.1097 44.4581 32.1097C44.4581 32.1097 44.8497 31.9391 45.145 31.8144C45.4447 31.6897 45.6831 31.6241 45.6831 31.6241C45.6831 31.6241 48.085 32.1031 49.87 32.4838C52.285 32.9978 55.6647 34.0063 55.7434 34.1659C55.8244 34.3234 54.8553 34.6231 54.8553 34.6231Z" fill="white"/>
<path d="M49.4959 33.8575C48.9075 34.2666 49.485 34.5138 50.57 34.7675C51.7578 35.0453 52.6634 35.4544 53.4269 35.0103C54.1159 34.6122 52.4294 34.1791 51.655 34.0128C51.0644 33.8859 49.9509 33.5425 49.4959 33.8575Z" fill="#ACB1B2"/>
<path d="M51.6528 34.68C51.6485 34.68 51.6725 29.8872 51.6725 29.71C51.6725 29.5328 51.4735 29.3731 51.6922 28.9969C51.911 28.6206 52.4841 28.66 52.4841 28.66C52.4841 28.66 54.8619 27.9687 55.8113 27.7303C56.7606 27.4919 58.8606 26.9384 58.8606 26.9384L59.0006 28.1394C59.0006 28.1394 56.8 28.7606 55.7106 29.0384C54.6213 29.3162 53.136 29.7712 53.136 29.7712L52.9172 29.9703L52.9806 34.6537C52.9806 34.6537 52.7772 34.8812 52.3222 34.8812C51.8803 34.8791 51.6528 34.68 51.6528 34.68Z" fill="#FFD816"/>
<path d="M58.4691 27.5531C58.4866 27.9272 58.6856 28.1591 58.9219 28.1591C59.1581 28.1591 59.32 27.8572 59.285 27.4634C59.2478 27.0719 58.9941 26.8925 58.7775 26.9647C58.5609 27.0369 58.4559 27.2797 58.4691 27.5531ZM52.9216 30.0797C52.88 30.0797 52.8384 30.0688 52.8012 30.0425L51.6659 29.2856C51.6178 29.2531 51.5844 29.203 51.573 29.1462C51.5615 29.0893 51.5729 29.0301 51.6047 28.9816C51.6206 28.9575 51.6411 28.9369 51.665 28.9207C51.6889 28.9046 51.7157 28.8934 51.744 28.8877C51.7722 28.882 51.8013 28.882 51.8296 28.8876C51.8579 28.8932 51.8848 28.9043 51.9087 28.9203L53.0441 29.6772C53.1447 29.745 53.1709 29.8806 53.1053 29.9813C53.0616 30.0447 52.9916 30.0797 52.9216 30.0797Z" fill="#FEB804"/>
<path d="M53.0966 29.8959C53.0309 29.8959 52.9653 29.8653 52.9216 29.8084C52.6306 29.4213 52.2981 28.9816 52.2391 28.9138C52.1647 28.8416 52.1494 28.7234 52.2084 28.6338C52.2243 28.6097 52.2448 28.589 52.2687 28.5729C52.2926 28.5568 52.3195 28.5456 52.3477 28.5399C52.376 28.5342 52.4051 28.5342 52.4334 28.5398C52.4617 28.5454 52.4885 28.5565 52.5125 28.5725C52.5519 28.5988 52.5738 28.6141 53.2716 29.5438C53.3438 29.64 53.2781 29.7778 53.1819 29.85C53.1425 29.8806 53.1425 29.8959 53.0966 29.8959Z" fill="#FEB804"/>
<path d="M52.8297 30.2634C52.8187 30.2634 52.8078 30.2634 52.7947 30.2612L51.7009 30.0884C51.6726 30.084 51.6455 30.074 51.6211 30.0591C51.5966 30.0441 51.5754 30.0245 51.5585 30.0014C51.5416 29.9782 51.5295 29.9519 51.5228 29.9241C51.5161 29.8963 51.5149 29.8674 51.5194 29.8391C51.5238 29.8108 51.5338 29.7836 51.5488 29.7592C51.5637 29.7347 51.5833 29.7135 51.6065 29.6966C51.6296 29.6798 51.6559 29.6676 51.6837 29.6609C51.7116 29.6542 51.7405 29.653 51.7688 29.6575L52.8625 29.8303C52.9806 29.85 53.0834 29.8719 53.0637 29.9922C53.0484 30.0972 52.9369 30.2634 52.8297 30.2634Z" fill="#FEB804"/>
<path d="M42.2269 33.3697C42.5747 33.3697 45.3659 34.1025 46.8053 34.3672C48.2447 34.6319 52.5912 35.66 52.7378 35.6884C52.8844 35.7169 52.8559 37.5981 52.8559 37.5981C52.8559 37.5981 54.9122 48.2294 54.8531 48.7303C54.7941 49.2291 53.4444 53.0769 53.4444 53.0769C53.4444 53.0769 52.6503 53.195 50.6247 52.6066C48.5991 52.0181 43.2528 50.5503 42.9291 50.1391C42.6053 49.7278 42.8109 44.2941 42.6359 40.9472C42.4566 37.5981 42.2269 33.3697 42.2269 33.3697Z" fill="#79DD8A"/>
<path d="M58.4341 50.3731C58.5456 50.0034 57.9244 46.0397 57.8369 42.3975C57.7494 38.7575 58.0622 33.2188 57.9112 33.175C57.7603 33.1334 52.7378 35.6884 52.7378 35.6884C52.7378 35.6884 52.7159 39.3022 52.7772 42.7103C52.8559 47.1203 53.2081 52.9587 53.4422 53.0769C53.6762 53.195 55.7084 52.0575 56.3209 51.725C57.4059 51.1366 58.3466 50.6684 58.4341 50.3731Z" fill="#02AB46"/>
<path d="M54.84 37.3619L54.8509 34.6188L55.75 34.1769L55.7762 37.1847L55.3606 37.9131L54.84 37.3619Z" fill="#DBDFE1"/>
<path d="M46.8797 38.3244C44.9372 38.1166 43.5919 39.8491 43.6969 42.1066C43.8216 44.7731 45.5781 46.7375 47.4791 47.1291C49.38 47.5206 51.2219 46.6959 51.2612 43.78C51.305 40.7416 48.6341 38.5103 46.8797 38.3244Z" fill="#FEFEFD"/>
<path d="M48.1747 40.7591C48.1747 40.7591 47.7809 39.4356 46.5975 39.7878C45.4141 40.14 44.7731 42.7147 46.7813 43.8741C48.7106 44.9875 50.4869 42.9444 49.8656 41.6209C49.3013 40.4134 48.1747 40.7591 48.1747 40.7591Z" fill="#EF5B44"/>
<path d="M47.7241 39.1403C47.5906 39.1884 47.4856 39.7331 47.6256 40.2537C47.7306 40.6431 48.0653 41.1769 48.26 41.1419C48.4153 41.1134 48.5334 40.5009 48.3869 39.9869C48.2162 39.3941 47.8794 39.0834 47.7241 39.1403Z" fill="#B8CF17"/>
<path d="M47.6956 42.2116C47.14 42.0431 46.5144 43.9528 47.6388 45.1428C48.8791 46.4531 50.3272 45.2981 50.2878 45.0444C50.2309 44.6922 49.2597 44.4384 48.7806 43.8478C48.3016 43.2528 48.0194 42.31 47.6956 42.2116Z" fill="#FD8F01"/>
<path d="M45.9194 41.8878C45.9194 41.8878 46.0309 41.0522 45.2566 41.0981C44.5084 41.1441 44.6922 42.0278 44.6922 42.0278C44.6922 42.0278 44.0688 42.1022 44.1738 42.7934C44.2525 43.3163 44.8038 43.3097 44.8038 43.3097C44.8038 43.3097 44.1978 43.5481 44.4734 44.2394C44.7184 44.8541 45.2828 44.6069 45.2828 44.6069C45.2828 44.6069 45.075 45.2063 45.565 45.5234C45.9784 45.7903 46.3394 45.565 46.3394 45.565C46.3394 45.565 46.3175 46.0769 46.8884 46.1709C47.5797 46.2847 47.8794 45.4425 47.3872 45.0531C47.0131 44.7578 46.6741 44.9875 46.6741 44.9875C46.6741 44.9875 46.7441 44.8234 46.6784 44.6353C46.6347 44.5128 46.5647 44.4669 46.5647 44.4669C46.5647 44.4669 47.1706 44.41 47.0722 43.7209C46.9738 43.0297 46.3678 43.115 46.3678 43.115C46.3678 43.115 46.72 42.8328 46.58 42.3253C46.4422 41.8156 45.9194 41.8878 45.9194 41.8878Z" fill="#A281D0"/>
<path d="M55.4635 38.1253C54.9603 38.1253 52.8144 35.9925 52.7947 35.9706C52.776 35.9488 52.7618 35.9235 52.7529 35.8962C52.744 35.8689 52.7405 35.8401 52.7428 35.8114C52.745 35.7828 52.7529 35.7548 52.7659 35.7292C52.7789 35.7036 52.7969 35.6808 52.8188 35.6622C52.9106 35.5834 53.0463 35.5944 53.1272 35.6841C53.265 35.8372 54.9056 37.3597 55.3781 37.6528C55.6844 37.1956 56.6797 35.1941 57.535 33.3872C57.5875 33.2778 57.7188 33.2319 57.8259 33.2822C57.9353 33.3347 57.9813 33.4638 57.9309 33.5731C55.8222 38.0291 55.6144 38.0881 55.5028 38.1188C55.4897 38.1253 55.4766 38.1253 55.4635 38.1253Z" fill="#2D802D"/>
</svg>
