<svg width="101" height="118" viewBox="0 0 101 118" fill="none" xmlns="http://www.w3.org/2000/svg">
<mask id="path-1-inside-1_673_10152" fill="white">
<path fill-rule="evenodd" clip-rule="evenodd" d="M69.5 0C68.9477 0 68.5029 0.448498 68.4727 0.999957C67.9538 10.476 60.1056 18 50.5 18C40.8944 18 33.0462 10.476 32.5273 0.999956C32.4971 0.448497 32.0523 0 31.5 0L4.5 0C2.29086 0 0.5 1.79086 0.5 4L0.5 31C0.5 31.5523 0.948498 31.9971 1.49996 32.0273C10.976 32.5462 18.5 40.3944 18.5 50C18.5 59.6056 10.976 67.4538 1.49996 67.9727C0.948497 68.0029 0.5 68.4477 0.5 69L0.5 96C0.5 98.2091 2.29086 100 4.5 100H31.5C32.0523 100 32.4971 100.448 32.5273 101C33.0462 110.476 40.8944 118 50.5 118C60.1056 118 67.9538 110.476 68.4727 101C68.5029 100.448 68.9477 100 69.5 100H96.5C98.7091 100 100.5 98.2091 100.5 96V69C100.5 68.4477 100.052 68.0029 99.5 67.9727C90.024 67.4538 82.5 59.6056 82.5 50C82.5 40.3944 90.024 32.5462 99.5 32.0273C100.052 31.9971 100.5 31.5523 100.5 31L100.5 4C100.5 1.79086 98.7091 0 96.5 0L69.5 0Z"/>
</mask>
<path fill-rule="evenodd" clip-rule="evenodd" d="M69.5 0C68.9477 0 68.5029 0.448498 68.4727 0.999957C67.9538 10.476 60.1056 18 50.5 18C40.8944 18 33.0462 10.476 32.5273 0.999956C32.4971 0.448497 32.0523 0 31.5 0L4.5 0C2.29086 0 0.5 1.79086 0.5 4L0.5 31C0.5 31.5523 0.948498 31.9971 1.49996 32.0273C10.976 32.5462 18.5 40.3944 18.5 50C18.5 59.6056 10.976 67.4538 1.49996 67.9727C0.948497 68.0029 0.5 68.4477 0.5 69L0.5 96C0.5 98.2091 2.29086 100 4.5 100H31.5C32.0523 100 32.4971 100.448 32.5273 101C33.0462 110.476 40.8944 118 50.5 118C60.1056 118 67.9538 110.476 68.4727 101C68.5029 100.448 68.9477 100 69.5 100H96.5C98.7091 100 100.5 98.2091 100.5 96V69C100.5 68.4477 100.052 68.0029 99.5 67.9727C90.024 67.4538 82.5 59.6056 82.5 50C82.5 40.3944 90.024 32.5462 99.5 32.0273C100.052 31.9971 100.5 31.5523 100.5 31L100.5 4C100.5 1.79086 98.7091 0 96.5 0L69.5 0Z" fill="#D1D5DB" fill-opacity="0.2"/>
<path d="M0.5 4H1.5H0.5ZM100.5 4H101.5H100.5ZM96.5 0V-1V0ZM99.5 32.0273L99.4454 31.0288L99.5 32.0273ZM100.5 31H99.5H100.5ZM99.5 67.9727L99.4454 68.9712L99.5 67.9727ZM32.5273 101L33.5258 100.945L32.5273 101ZM1.49996 32.0273L1.44528 33.0258L1.49996 32.0273ZM32.5273 0.999956L31.5288 1.05463L32.5273 0.999956ZM68.4727 101L67.4742 100.945L68.4727 101ZM68.4727 0.999957L67.4742 0.945284L68.4727 0.999957ZM50.5 19C60.6396 19 68.9235 11.058 69.4712 1.05463L67.4742 0.945284C66.9842 9.89397 59.5716 17 50.5 17L50.5 19ZM31.5288 1.05463C32.0765 11.058 40.3604 19 50.5 19L50.5 17C41.4284 17 34.0158 9.89397 33.5258 0.945282L31.5288 1.05463ZM4.5 1L31.5 1V-1L4.5 -1V1ZM1.5 4C1.5 2.34315 2.84315 1 4.5 1V-1C1.73858 -1 -0.5 1.23858 -0.5 4H1.5ZM1.5 31L1.5 4L-0.5 4L-0.5 31L1.5 31ZM19.5 50C19.5 39.8604 11.558 31.5765 1.55463 31.0288L1.44528 33.0258C10.394 33.5158 17.5 40.9284 17.5 50L19.5 50ZM1.55463 68.9712C11.558 68.4235 19.5 60.1396 19.5 50L17.5 50C17.5 59.0716 10.394 66.4842 1.44528 66.9742L1.55463 68.9712ZM1.5 96L1.5 69H-0.5L-0.5 96H1.5ZM4.5 99C2.84315 99 1.5 97.6569 1.5 96H-0.5C-0.5 98.7614 1.73858 101 4.5 101V99ZM31.5 99H4.5V101H31.5L31.5 99ZM50.5 117C41.4284 117 34.0158 109.894 33.5258 100.945L31.5288 101.055C32.0765 111.058 40.3604 119 50.5 119V117ZM67.4742 100.945C66.9842 109.894 59.5716 117 50.5 117V119C60.6396 119 68.9235 111.058 69.4712 101.055L67.4742 100.945ZM96.5 99H69.5V101H96.5V99ZM99.5 96C99.5 97.6569 98.1569 99 96.5 99V101C99.2614 101 101.5 98.7614 101.5 96H99.5ZM99.5 69V96H101.5V69H99.5ZM81.5 50C81.5 60.1396 89.442 68.4235 99.4454 68.9712L99.5547 66.9742C90.606 66.4842 83.5 59.0716 83.5 50H81.5ZM99.4454 31.0288C89.442 31.5765 81.5 39.8604 81.5 50H83.5C83.5 40.9284 90.606 33.5158 99.5547 33.0258L99.4454 31.0288ZM99.5 4L99.5 31L101.5 31L101.5 4L99.5 4ZM96.5 1C98.1569 1 99.5 2.34315 99.5 4L101.5 4C101.5 1.23858 99.2614 -1 96.5 -1V1ZM69.5 1L96.5 1V-1L69.5 -1V1ZM99.5547 33.0258C100.601 32.9685 101.5 32.1183 101.5 31H99.5C99.5 31.0012 99.4999 31.0012 99.5 31.0007C99.5001 31.0001 99.5003 30.9998 99.5002 30.9999C99.5002 31.0001 99.4987 31.0033 99.494 31.0081C99.4836 31.0187 99.4667 31.0276 99.4454 31.0288L99.5547 33.0258ZM101.5 69C101.5 67.8817 100.601 67.0315 99.5547 66.9742L99.4454 68.9712C99.4666 68.9724 99.4836 68.9813 99.494 68.9919C99.4987 68.9967 99.5002 68.9999 99.5002 69.0001C99.5003 69.0002 99.5001 68.9999 99.5 68.9994C99.4999 68.9988 99.5 68.9988 99.5 69H101.5ZM31.5 101C31.5012 101 31.5012 101 31.5006 101C31.5001 101 31.4998 101 31.4999 101C31.5001 101 31.5033 101.001 31.5081 101.006C31.5187 101.016 31.5276 101.033 31.5288 101.055L33.5258 100.945C33.4685 99.8992 32.6183 99 31.5 99L31.5 101ZM-0.5 31C-0.5 32.1183 0.399214 32.9685 1.44528 33.0258L1.55463 31.0288C1.53335 31.0276 1.5164 31.0187 1.506 31.0081C1.50127 31.0033 1.49985 31.0001 1.49977 30.9999C1.49974 30.9998 1.49987 31.0001 1.49998 31.0006C1.5001 31.0012 1.5 31.0012 1.5 31L-0.5 31ZM1.44528 66.9742C0.399211 67.0315 -0.5 67.8817 -0.5 69H1.5C1.5 68.9988 1.5001 68.9988 1.49998 68.9993C1.49987 68.9999 1.49974 69.0002 1.49977 69.0001C1.49985 68.9999 1.50127 68.9967 1.506 68.9919C1.5164 68.9813 1.53335 68.9724 1.55463 68.9712L1.44528 66.9742ZM33.5258 0.945282C33.4685 -0.100789 32.6183 -1 31.5 -1V1C31.5012 1 31.5012 1.0001 31.5007 0.999977C31.5001 0.999868 31.4998 0.999738 31.4999 0.999766C31.5001 0.999846 31.5033 1.00127 31.5081 1.006C31.5187 1.0164 31.5276 1.03335 31.5288 1.05463L33.5258 0.945282ZM69.4712 101.055C69.4724 101.033 69.4813 101.016 69.4919 101.006C69.4967 101.001 69.4999 101 69.5001 101C69.5002 101 69.4999 101 69.4993 101C69.4988 101 69.4988 101 69.5 101V99C68.3817 99 67.5315 99.8992 67.4742 100.945L69.4712 101.055ZM69.4712 1.05463C69.4724 1.03335 69.4813 1.0164 69.4919 1.006C69.4967 1.00127 69.4999 0.999846 69.5001 0.999766C69.5002 0.999738 69.4999 0.999868 69.4994 0.999977C69.4988 1.0001 69.4988 1 69.5 1V-1C68.3817 -1 67.5315 -0.100786 67.4742 0.945284L69.4712 1.05463Z" fill="#D1D5DB" mask="url(#path-1-inside-1_673_10152)"/>
<path d="M34.9587 71.084C34.7987 71.084 34.6747 71.04 34.5867 70.952C34.5067 70.864 34.4667 70.74 34.4667 70.58V65.576C34.4667 65.416 34.5067 65.296 34.5867 65.216C34.6667 65.128 34.7827 65.084 34.9347 65.084C35.0867 65.084 35.2027 65.128 35.2827 65.216C35.3707 65.296 35.4147 65.416 35.4147 65.576V66.548H35.2947C35.4227 66.076 35.6667 65.712 36.0267 65.456C36.3867 65.2 36.8307 65.064 37.3587 65.048C37.4787 65.04 37.5747 65.068 37.6467 65.132C37.7187 65.188 37.7587 65.288 37.7667 65.432C37.7747 65.568 37.7427 65.676 37.6707 65.756C37.5987 65.836 37.4867 65.884 37.3347 65.9L37.1427 65.924C36.5987 65.972 36.1787 66.148 35.8827 66.452C35.5947 66.748 35.4507 67.156 35.4507 67.676V70.58C35.4507 70.74 35.4067 70.864 35.3187 70.952C35.2387 71.04 35.1187 71.084 34.9587 71.084ZM40.5449 71.108C40.1449 71.108 39.7849 71.032 39.4649 70.88C39.1529 70.72 38.9049 70.504 38.7209 70.232C38.5369 69.96 38.4449 69.656 38.4449 69.32C38.4449 68.888 38.5529 68.548 38.7689 68.3C38.9929 68.052 39.3569 67.876 39.8609 67.772C40.3729 67.668 41.0689 67.616 41.9489 67.616H42.4889V68.252H41.9609C41.3129 68.252 40.8009 68.284 40.4249 68.348C40.0569 68.404 39.7969 68.504 39.6449 68.648C39.5009 68.792 39.4289 68.996 39.4289 69.26C39.4289 69.588 39.5409 69.856 39.7649 70.064C39.9969 70.272 40.3089 70.376 40.7009 70.376C41.0209 70.376 41.3009 70.3 41.5409 70.148C41.7889 69.996 41.9809 69.788 42.1169 69.524C42.2609 69.26 42.3329 68.956 42.3329 68.612V67.244C42.3329 66.748 42.2329 66.392 42.0329 66.176C41.8329 65.952 41.5049 65.84 41.0489 65.84C40.7689 65.84 40.4889 65.876 40.2089 65.948C39.9289 66.02 39.6329 66.136 39.3209 66.296C39.2089 66.352 39.1129 66.372 39.0329 66.356C38.9529 66.332 38.8889 66.288 38.8409 66.224C38.7929 66.16 38.7649 66.088 38.7569 66.008C38.7489 65.92 38.7649 65.836 38.8049 65.756C38.8529 65.676 38.9249 65.612 39.0209 65.564C39.3729 65.388 39.7209 65.26 40.0649 65.18C40.4089 65.1 40.7369 65.06 41.0489 65.06C41.5529 65.06 41.9689 65.144 42.2969 65.312C42.6249 65.472 42.8689 65.72 43.0289 66.056C43.1889 66.384 43.2689 66.808 43.2689 67.328V70.58C43.2689 70.74 43.2289 70.864 43.1489 70.952C43.0769 71.04 42.9689 71.084 42.8249 71.084C42.6729 71.084 42.5569 71.04 42.4769 70.952C42.3969 70.864 42.3569 70.74 42.3569 70.58V69.644H42.4649C42.4009 69.948 42.2769 70.208 42.0929 70.424C41.9169 70.64 41.6969 70.808 41.4329 70.928C41.1689 71.048 40.8729 71.108 40.5449 71.108ZM47.2922 71.108C46.7722 71.108 46.3162 70.984 45.9242 70.736C45.5402 70.488 45.2402 70.14 45.0242 69.692C44.8162 69.236 44.7122 68.7 44.7122 68.084C44.7122 67.46 44.8162 66.924 45.0242 66.476C45.2402 66.02 45.5402 65.672 45.9242 65.432C46.3162 65.184 46.7722 65.06 47.2922 65.06C47.8202 65.06 48.2722 65.192 48.6482 65.456C49.0242 65.72 49.2762 66.076 49.4042 66.524H49.2722V62.948C49.2722 62.788 49.3122 62.668 49.3922 62.588C49.4802 62.5 49.6042 62.456 49.7642 62.456C49.9162 62.456 50.0322 62.5 50.1122 62.588C50.2002 62.668 50.2442 62.788 50.2442 62.948V70.58C50.2442 70.74 50.2042 70.864 50.1242 70.952C50.0442 71.04 49.9242 71.084 49.7642 71.084C49.6122 71.084 49.4922 71.04 49.4042 70.952C49.3242 70.864 49.2842 70.74 49.2842 70.58V69.44L49.4162 69.608C49.2882 70.064 49.0322 70.428 48.6482 70.7C48.2722 70.972 47.8202 71.108 47.2922 71.108ZM47.4962 70.328C47.8562 70.328 48.1722 70.24 48.4442 70.064C48.7162 69.888 48.9242 69.632 49.0682 69.296C49.2202 68.96 49.2962 68.556 49.2962 68.084C49.2962 67.356 49.1322 66.8 48.8042 66.416C48.4842 66.032 48.0482 65.84 47.4962 65.84C47.1282 65.84 46.8082 65.928 46.5362 66.104C46.2722 66.272 46.0642 66.524 45.9122 66.86C45.7682 67.188 45.6962 67.596 45.6962 68.084C45.6962 68.804 45.8602 69.36 46.1882 69.752C46.5162 70.136 46.9522 70.328 47.4962 70.328ZM52.5483 71.06C52.3883 71.06 52.2683 71.016 52.1883 70.928C52.1083 70.832 52.0683 70.7 52.0683 70.532V65.624C52.0683 65.456 52.1083 65.328 52.1883 65.24C52.2683 65.152 52.3883 65.108 52.5483 65.108C52.7003 65.108 52.8203 65.152 52.9083 65.24C52.9963 65.328 53.0403 65.456 53.0403 65.624V70.532C53.0403 70.7 52.9963 70.832 52.9083 70.928C52.8283 71.016 52.7083 71.06 52.5483 71.06ZM52.5483 63.764C52.3483 63.764 52.1923 63.712 52.0803 63.608C51.9683 63.496 51.9123 63.348 51.9123 63.164C51.9123 62.972 51.9683 62.828 52.0803 62.732C52.1923 62.628 52.3483 62.576 52.5483 62.576C52.7563 62.576 52.9123 62.628 53.0163 62.732C53.1283 62.828 53.1843 62.972 53.1843 63.164C53.1843 63.348 53.1283 63.496 53.0163 63.608C52.9123 63.712 52.7563 63.764 52.5483 63.764ZM54.8813 71.072C54.7773 71.072 54.6853 71.04 54.6053 70.976C54.5253 70.912 54.4813 70.828 54.4733 70.724C54.4733 70.612 54.5253 70.496 54.6293 70.376L56.7293 67.736V68.24L54.7613 65.78C54.6573 65.652 54.6053 65.536 54.6053 65.432C54.6133 65.328 54.6573 65.244 54.7373 65.18C54.8173 65.116 54.9093 65.084 55.0133 65.084C55.1333 65.084 55.2333 65.108 55.3133 65.156C55.4013 65.196 55.4813 65.264 55.5533 65.36L57.2693 67.532H56.9333L58.6613 65.36C58.7333 65.264 58.8093 65.196 58.8893 65.156C58.9693 65.108 59.0693 65.084 59.1893 65.084C59.3013 65.084 59.3933 65.116 59.4653 65.18C59.5453 65.244 59.5853 65.332 59.5853 65.444C59.5933 65.548 59.5453 65.664 59.4413 65.792L57.4853 68.216V67.772L59.5853 70.376C59.6813 70.496 59.7253 70.612 59.7173 70.724C59.7173 70.828 59.6773 70.912 59.5973 70.976C59.5173 71.04 59.4213 71.072 59.3093 71.072C59.1973 71.072 59.0973 71.048 59.0093 71C58.9293 70.96 58.8493 70.892 58.7693 70.796L56.9213 68.468H57.2693L55.4213 70.796C55.3493 70.884 55.2693 70.952 55.1813 71C55.1013 71.048 55.0013 71.072 54.8813 71.072ZM63.754 71.108C63.29 71.108 62.822 71.04 62.35 70.904C61.886 70.768 61.482 70.568 61.138 70.304C61.034 70.232 60.966 70.152 60.934 70.064C60.902 69.968 60.894 69.88 60.91 69.8C60.934 69.712 60.978 69.64 61.042 69.584C61.106 69.52 61.182 69.484 61.27 69.476C61.366 69.468 61.47 69.5 61.582 69.572C61.934 69.804 62.286 69.972 62.638 70.076C62.99 70.18 63.354 70.232 63.73 70.232C64.138 70.232 64.482 70.172 64.762 70.052C65.042 69.932 65.254 69.756 65.398 69.524C65.542 69.284 65.614 68.992 65.614 68.648C65.614 68.152 65.45 67.776 65.122 67.52C64.794 67.264 64.318 67.136 63.694 67.136H62.842C62.69 67.136 62.574 67.1 62.494 67.028C62.414 66.948 62.374 66.84 62.374 66.704C62.374 66.576 62.414 66.476 62.494 66.404C62.574 66.324 62.69 66.284 62.842 66.284H63.61C63.978 66.284 64.29 66.22 64.546 66.092C64.81 65.964 65.014 65.784 65.158 65.552C65.302 65.312 65.374 65.024 65.374 64.688C65.374 64.24 65.23 63.9 64.942 63.668C64.654 63.428 64.238 63.308 63.694 63.308C63.334 63.308 62.994 63.36 62.674 63.464C62.354 63.568 62.038 63.744 61.726 63.992C61.63 64.064 61.534 64.1 61.438 64.1C61.35 64.092 61.274 64.064 61.21 64.016C61.154 63.96 61.11 63.888 61.078 63.8C61.054 63.712 61.058 63.624 61.09 63.536C61.122 63.44 61.19 63.352 61.294 63.272C61.614 63 61.99 62.792 62.422 62.648C62.854 62.504 63.298 62.432 63.754 62.432C64.298 62.432 64.762 62.52 65.146 62.696C65.538 62.864 65.838 63.112 66.046 63.44C66.254 63.76 66.358 64.148 66.358 64.604C66.358 64.948 66.29 65.264 66.154 65.552C66.026 65.832 65.842 66.072 65.602 66.272C65.37 66.472 65.086 66.616 64.75 66.704V66.572C65.334 66.668 65.786 66.908 66.106 67.292C66.434 67.668 66.598 68.144 66.598 68.72C66.598 69.208 66.482 69.632 66.25 69.992C66.026 70.344 65.702 70.62 65.278 70.82C64.854 71.012 64.346 71.108 63.754 71.108Z" fill="#030712"/>
<path d="M48.8353 48.575C48.8353 48.575 48.7741 49.6687 48.6034 50.3294C48.435 50.9922 47.8641 51.4384 48.05 52.2084C48.1725 52.7159 48.8353 53.0856 50.1587 53.0856C51.4822 53.0856 52.3812 52.7312 52.4075 52.0531C52.4381 51.2678 51.9612 50.99 51.8847 50.1281C51.8081 49.2662 51.8387 48.4656 51.8387 48.4656L48.8353 48.575Z" fill="#855B51"/>
<path d="M41.1266 45.1406C41.1266 45.1406 40.1203 45.3462 39.7506 45.4687C39.3809 45.5912 39.0528 45.6744 38.9697 46.0222C38.8866 46.37 38.8056 47.2537 40.14 47.8487C41.4744 48.4437 43.6094 48.2381 43.6094 48.2381C43.6094 48.2381 43.3841 49.1219 44.1234 49.5309C44.8628 49.9422 46.3 49.8394 47.2844 49.5112C48.2687 49.1831 48.5772 48.9775 48.5772 48.9775C48.5772 48.9775 49.0694 49.8394 50.7537 49.8197C52.4381 49.8 52.9084 49.1831 52.9084 49.1831C52.9084 49.1831 54.6541 50.1894 56.1306 49.8809C57.6072 49.5725 57.1566 48.1769 57.1566 48.1769C57.1566 48.1769 59.005 48.5466 60.545 47.91C62.085 47.2734 62.2075 46.4728 62.1659 46.2256C62.1244 45.9784 61.8072 45.5169 61.2931 45.5584C60.7791 45.6 59.6 45.1778 59.1275 44.8912C58.655 44.6047 57.6072 44.0906 57.4234 44.0075C57.2397 43.9244 56.8787 43.6575 56.94 43.4322C57.0012 43.2069 57.0931 43.1456 57.5044 43.185C57.9156 43.2266 59.0641 43.2266 59.5978 42.8153C60.1316 42.4041 60.4597 41.8309 60.3984 41.5006C60.3372 41.1725 59.7422 40.9056 59.7422 40.9056C59.7422 40.9056 56.6622 39.4881 56.4172 39.3853C56.17 39.2825 55.5772 38.9741 55.5969 38.7072C55.6166 38.4206 57.5262 38.6241 57.7122 37.4537C57.8981 36.2834 57.3622 36.2834 56.9312 36.0362C56.5003 35.7891 55.2469 35.4194 55.2469 35.4194C55.2469 35.4194 54.2209 34.7631 54.035 34.6384C53.8512 34.5159 53.5428 34.3103 53.5625 34.1462C53.5822 33.9822 54.6256 34.3059 55.5334 34.0237C56.1897 33.8181 56.2728 33.3762 56.1394 32.9869C56.0737 32.7966 54.8969 32.2584 54.8969 32.2584L48.5991 31.4469C48.5991 31.4469 44.4319 32.8425 44.2875 32.9037C44.1431 32.965 44.0622 33.2319 44.2875 33.5206C44.5128 33.8072 44.8825 34.2381 45.6831 34.2184C46.4837 34.1987 46.9978 33.8487 47.14 34.0741C47.2844 34.2994 46.93 34.6516 46.6894 34.7916L45.355 35.5725C45.355 35.5725 43.0341 36.5569 42.9116 37.1541C42.7891 37.7512 43.0341 38.0444 43.4037 38.3047C43.7122 38.5212 44.2962 38.6022 44.6769 38.5912C44.9437 38.5847 45.1122 38.5103 45.18 38.7553C45.2719 39.0944 44.6966 39.3919 44.1628 39.5756C43.6291 39.7594 42.5812 40.2319 42.5812 40.2319C42.5812 40.2319 40.8575 40.6431 40.7547 40.8269C40.6519 41.0106 40.4681 41.9141 41.1856 42.5506C41.9031 43.1872 43.2178 43.3512 43.2178 43.3512C43.2178 43.3512 43.0537 43.8653 42.7256 44.1519C42.2526 44.5698 41.7118 44.9041 41.1266 45.1406Z" fill="#027F1C"/>
<path d="M50.1587 26.9516C50.6728 26.9516 50.7122 27.8353 51.7184 29.0669C52.8078 30.4013 54.0437 31.5584 54.5469 31.9609C55.0959 32.4028 55.8659 32.7156 55.9009 32.8075C55.9359 32.8994 55.1047 33.2122 53.9344 33.2756C52.764 33.3369 51.655 32.9059 51.655 32.9059C51.655 32.9059 52.4972 34.7741 52.0444 35.205C51.679 35.5528 50.4015 35.5134 49.4784 34.1572C48.5553 32.8009 48.5334 32.37 48.5334 32.37C48.5334 32.37 47.0765 33.2538 45.7815 33.2734C44.4865 33.2931 44.2831 33.0109 44.2831 32.9038C44.2831 32.7966 45.74 32.1447 46.3153 31.7138C46.8906 31.2828 48.1637 29.8719 48.9687 28.7169C49.5856 27.8353 49.7497 26.9516 50.1587 26.9516Z" fill="#02AB47"/>
<path d="M48.9688 34.5488C48.9688 34.5488 48.435 35.1022 47.5928 35.1656C46.7506 35.2291 46.3 35.0213 46.3 35.0213C46.3 35.0213 45.2631 35.4413 44.3291 35.9859C43.5984 36.4125 42.9269 36.9616 42.9422 37.0534C42.9575 37.1453 43.1588 37.4844 44.5128 37.4844C45.8669 37.4844 45.9916 37.1388 46.6675 37.1563C47.5294 37.1759 48.0216 38.6919 49.5003 38.7159C50.7319 38.7356 50.5481 37.8322 51.2241 37.7513C51.9022 37.6681 52.2106 38.2084 53.1644 38.2347C55.7916 38.3069 57.8653 37.1256 57.5678 36.4169C57.4694 36.1806 56.7913 35.8503 55.8025 35.5025C54.8684 35.1744 54.5184 34.9797 54.5184 34.9797C54.5184 34.9797 54.3653 35.3078 53.8928 35.4522C53.4509 35.5856 52.6809 35.2881 52.6809 35.2881C52.6809 35.2881 52.6809 35.9247 51.9634 36.0472C50.9988 36.2113 50.1369 35.7803 49.7453 35.4303C49.3538 35.0803 48.9688 34.5488 48.9688 34.5488ZM53.0331 43.2113C52.3616 43.4759 51.6572 45.1625 50.22 44.7928C48.7828 44.4231 48.5991 42.0409 48.5991 42.0409C48.5991 42.0409 45.2806 44.9284 44.2875 44.0119C43.4759 43.2616 44.9656 42.0913 44.9656 42.0913C44.9656 42.0913 43.4256 42.5747 42.0913 41.9994C40.7569 41.4241 40.7306 40.9669 40.7569 40.8291C40.7831 40.6913 41.7347 40.3588 42.5222 40.0897C43.1697 39.8688 43.9244 39.6588 43.9244 39.6588C43.9244 39.6588 44.6988 39.9672 44.515 40.3566C44.3313 40.7459 43.5919 41.0128 43.8784 41.3016C44.165 41.5881 44.9459 41.0544 45.2128 40.8706C45.4797 40.6869 46.2388 40.2975 46.7331 40.2756C47.8203 40.2253 48.2534 41.0566 49.2794 40.8706C50.3053 40.6847 51.06 39.8644 52.1494 39.72C53.2366 39.5756 53.9147 40.0897 54.9822 39.9672C56.0497 39.8447 56.4238 39.3919 56.4238 39.3919C56.4238 39.3919 57.5109 39.8031 58.4363 40.1925C59.3594 40.5819 60.1403 41.1375 60.1403 41.1375C60.1403 41.1375 59.4841 41.7938 58.3138 41.9381C57.1434 42.0825 56.5266 41.4875 56.3013 41.3628C56.0759 41.2381 55.3781 40.6453 55.1922 40.8706C55.0084 41.0959 55.9513 41.6297 56.3625 41.9381C56.7738 42.2466 57.5853 42.9072 56.3822 43.5591C55.7763 43.8872 55.0063 43.7953 54.595 43.7034C53.4641 43.4519 53.4881 43.0341 53.0331 43.2113Z" fill="#02AB47"/>
<path d="M53.0966 44.3619C53.0966 44.3619 51.8847 45.8406 51.0031 46.2912C50.1216 46.7419 49.2991 46.7528 49.2991 46.7528C49.2991 46.7528 48.8375 47.2253 48.9294 47.9034C48.995 48.3891 49.5659 48.8572 50.8172 48.7762C52.0684 48.6953 52.3769 48.4066 52.4184 48.0369C52.46 47.6672 52.2019 47.3194 52.1209 47.1531C52.0378 46.9891 51.7009 46.5997 51.9263 46.4553C52.1516 46.3109 52.3769 46.5384 52.6656 46.9694C52.9522 47.4003 54.2866 49.6994 56.0322 48.96C57.7581 48.2294 55.6428 46.5778 56.0738 46.3109C56.5047 46.0441 57.5941 46.9891 59.2763 46.8862C61.105 46.7747 61.5141 45.8559 61.5141 45.5825C61.5141 45.4797 60.7638 45.4797 60.1381 45.3353C59.6634 45.2259 58.9788 44.8016 58.9788 44.8016C58.9788 44.8016 57.4694 45.4272 56.0541 45.2434C54.6388 45.0597 53.0966 44.3619 53.0966 44.3619ZM47.6147 43.8062C47.6147 43.8062 47.6978 45.2019 47.9647 45.6941C48.2316 46.1862 48.8266 46.6784 48.8266 46.6784C48.8266 46.6784 48.6931 47.3259 48.0259 47.8291C47.1531 48.4875 45.5825 48.9578 44.6594 48.7128C43.7363 48.4656 43.9419 47.8291 44.0228 47.5841C44.1059 47.3369 45.0072 46.3306 45.2347 46.0025C45.46 45.6744 45.7488 45.2434 45.4819 45.1822C45.215 45.1209 44.7841 45.7772 44.4756 46.1469C44.1672 46.5166 43.325 47.3172 41.7456 47.0919C40.1663 46.8666 38.95 45.9719 39.0944 45.7881C39.2388 45.6044 40.3478 45.2237 40.9625 45.0378C41.5794 44.8541 42.7278 44.1541 42.7278 44.1541C42.7278 44.1541 42.625 44.7491 43.1588 44.9547C43.8281 45.2128 44.76 45.1384 45.95 44.6681C46.8513 44.3116 47.6147 43.8062 47.6147 43.8062Z" fill="#02AB47"/>
<path d="M41.7675 45.4337C41.3891 45.7597 40.8444 45.8953 41.0741 46.2344C41.3059 46.5734 41.7522 46.1884 42.1219 45.8953C42.4916 45.6022 42.9072 45.3112 42.6906 45.0487C42.4762 44.7862 42.1066 45.1406 41.7675 45.4337ZM46.0025 46.79C46.405 47.1072 46.6806 46.2212 46.8184 45.8822C46.9562 45.5431 47.2734 45.0487 47.0022 44.8803C46.6325 44.6484 46.4794 45.1122 46.2628 45.6503C46.0462 46.1884 45.7094 46.5581 46.0025 46.79ZM47.2494 40.7525C47.0284 40.5862 46.8644 40.7372 46.5559 41.1834C46.2475 41.6297 46.0637 41.9534 46.3087 42.1219C46.5559 42.2903 46.9716 41.6909 47.1247 41.4591C47.2778 41.2272 47.4353 40.8925 47.2494 40.7525ZM50.3184 41.1441C49.9225 41.2359 50.1303 41.6297 50.2112 42.0059C50.3031 42.4369 50.4431 43.115 50.5044 43.2987C50.5809 43.5306 50.6728 43.8675 50.9659 43.7909C51.2591 43.7144 51.1541 43.29 51.1191 43.0975C51.0425 42.6512 50.8719 41.9578 50.8259 41.7434C50.78 41.5291 50.7187 41.05 50.3184 41.1441ZM53.5166 45.4031C53.2716 45.635 53.5778 45.9566 53.9322 46.3569C54.2866 46.7572 54.5162 47.1881 54.8094 47.0044C55.1025 46.8206 54.7787 46.4203 54.4856 46.0966C54.1947 45.7728 53.8097 45.1253 53.5166 45.4031ZM53.09 40.7328C52.8275 40.9647 53.1666 41.2862 53.3678 41.5947C53.5691 41.9031 53.9847 42.3647 54.1072 42.4872C54.2297 42.6097 54.42 42.8612 54.63 42.7344C54.8969 42.5725 54.6453 42.2422 54.5381 42.1175C54.4309 41.9928 54.0766 41.5006 53.8753 41.2862C53.6741 41.0719 53.4181 40.4419 53.09 40.7328ZM53.1469 35.9794C52.9325 36.2812 53.3787 36.5962 53.8097 36.8412C54.2406 37.0884 54.6934 37.3575 54.8575 37.0884C55.0412 36.78 54.595 36.535 54.2253 36.3184C53.8556 36.1019 53.3787 35.6556 53.1469 35.9794ZM49.5441 36.4409C49.0825 36.4103 49.1437 36.8106 49.1591 37.2416C49.1744 37.6725 49.2509 37.9197 49.5441 37.9197C49.8372 37.9197 49.8372 37.4734 49.8372 37.2416C49.8372 37.0119 49.8372 36.4606 49.5441 36.4409ZM47.1312 36.4869C47.3369 36.8194 47.8094 36.3491 48.0084 36.1784C48.2097 36.01 48.5006 35.7628 48.3016 35.5156C48.1003 35.2684 47.6847 35.6228 47.4856 35.8087C47.2866 35.9947 46.9322 36.1653 47.1312 36.4869ZM50.0756 31.8844C50.2003 32.7506 50.3731 33.1159 50.7034 33.0066C50.9987 32.9103 50.7953 32.3744 50.7253 31.8778C50.6575 31.3791 50.6466 30.9459 50.2812 31.0006C49.8722 31.0619 50.0012 31.3637 50.0756 31.8844ZM51.8234 31.5781C52.0991 32.0003 52.3812 32.2366 52.67 32.0528C52.8909 31.9128 52.5847 31.5081 52.3987 31.2631C52.2719 31.0969 51.9087 30.4034 51.5697 30.7009C51.34 30.9022 51.5369 31.1384 51.8234 31.5781ZM48.8812 30.5916C49.0409 30.7403 48.8812 31.0378 48.6494 31.285C48.4175 31.5322 48.0959 31.9784 47.8487 31.7466C47.6016 31.5147 48.0325 31.1297 48.1878 30.9459C48.3431 30.76 48.6362 30.3597 48.8812 30.5916Z" fill="#028B2B"/>
</svg>
