<svg width="101" height="118" viewBox="0 0 101 118" fill="none" xmlns="http://www.w3.org/2000/svg">
<mask id="path-1-inside-1_673_10153" fill="white">
<path fill-rule="evenodd" clip-rule="evenodd" d="M50.5 0C60.1056 0 67.9538 7.52403 68.4727 17C68.5029 17.5515 68.9477 18 69.5 18L96.5 18C98.7091 18 100.5 19.7909 100.5 22L100.5 49C100.5 49.5523 100.052 49.9971 99.5 50.0273C90.024 50.5462 82.5 58.3944 82.5 68C82.5 77.6056 90.024 85.4538 99.5 85.9727C100.052 86.0029 100.5 86.4477 100.5 87V114C100.5 116.209 98.7091 118 96.5 118L69.5 118C68.9477 118 68.5029 117.552 68.4727 117C67.9538 107.524 60.1056 100 50.5 100C40.8944 100 33.0462 107.524 32.5273 117C32.4971 117.552 32.0523 118 31.5 118H4.5C2.29086 118 0.5 116.209 0.5 114L0.5 87C0.5 86.4477 0.948498 86.0029 1.49996 85.9727C10.976 85.4538 18.5 77.6056 18.5 68C18.5 58.3944 10.976 50.5462 1.49996 50.0273C0.948497 49.9971 0.5 49.5523 0.5 49L0.5 22C0.5 19.7909 2.29086 18 4.5 18L31.5 18C32.0523 18 32.4971 17.5515 32.5273 17C33.0462 7.52403 40.8944 0 50.5 0Z"/>
</mask>
<path fill-rule="evenodd" clip-rule="evenodd" d="M50.5 0C60.1056 0 67.9538 7.52403 68.4727 17C68.5029 17.5515 68.9477 18 69.5 18L96.5 18C98.7091 18 100.5 19.7909 100.5 22L100.5 49C100.5 49.5523 100.052 49.9971 99.5 50.0273C90.024 50.5462 82.5 58.3944 82.5 68C82.5 77.6056 90.024 85.4538 99.5 85.9727C100.052 86.0029 100.5 86.4477 100.5 87V114C100.5 116.209 98.7091 118 96.5 118L69.5 118C68.9477 118 68.5029 117.552 68.4727 117C67.9538 107.524 60.1056 100 50.5 100C40.8944 100 33.0462 107.524 32.5273 117C32.4971 117.552 32.0523 118 31.5 118H4.5C2.29086 118 0.5 116.209 0.5 114L0.5 87C0.5 86.4477 0.948498 86.0029 1.49996 85.9727C10.976 85.4538 18.5 77.6056 18.5 68C18.5 58.3944 10.976 50.5462 1.49996 50.0273C0.948497 49.9971 0.5 49.5523 0.5 49L0.5 22C0.5 19.7909 2.29086 18 4.5 18L31.5 18C32.0523 18 32.4971 17.5515 32.5273 17C33.0462 7.52403 40.8944 0 50.5 0Z" fill="#FFFFFF" fill-opacity="1"/>
<path d="M96.5 18V19V18ZM96.5 118V119V118ZM32.5273 17L33.5258 17.0547L32.5273 17ZM1.49996 85.9727L1.44528 84.9742L1.49996 85.9727ZM69.5 18V17V18ZM32.5273 117L31.5288 116.945L32.5273 117ZM99.5 85.9727L99.5547 84.9742L99.5 85.9727ZM69.5 118V117V118ZM68.4727 117L69.4712 116.945L68.4727 117ZM99.5 50.0273L99.4454 49.0288L99.5 50.0273ZM69.4712 16.9454C68.9235 6.94204 60.6396 -1 50.5 -1V1C59.5716 1 66.9842 8.10603 67.4742 17.0547L69.4712 16.9454ZM96.5 17L69.5 17V19L96.5 19V17ZM101.5 22C101.5 19.2386 99.2614 17 96.5 17V19C98.1569 19 99.5 20.3431 99.5 22L101.5 22ZM101.5 49L101.5 22L99.5 22L99.5 49H101.5ZM83.5 68C83.5 58.9284 90.606 51.5158 99.5547 51.0258L99.4454 49.0288C89.442 49.5765 81.5 57.8604 81.5 68H83.5ZM99.5547 84.9742C90.606 84.4842 83.5 77.0716 83.5 68H81.5C81.5 78.1396 89.442 86.4235 99.4454 86.9712L99.5547 84.9742ZM101.5 114V87H99.5V114H101.5ZM96.5 119C99.2614 119 101.5 116.761 101.5 114H99.5C99.5 115.657 98.1569 117 96.5 117V119ZM69.5 119L96.5 119V117L69.5 117V119ZM50.5 101C59.5716 101 66.9842 108.106 67.4742 117.055L69.4712 116.945C68.9235 106.942 60.6396 99 50.5 99V101ZM33.5258 117.055C34.0158 108.106 41.4284 101 50.5 101V99C40.3604 99 32.0765 106.942 31.5288 116.945L33.5258 117.055ZM4.5 119H31.5V117H4.5V119ZM-0.5 114C-0.5 116.761 1.73858 119 4.5 119V117C2.84315 117 1.5 115.657 1.5 114H-0.5ZM-0.5 87L-0.5 114H1.5L1.5 87H-0.5ZM17.5 68C17.5 77.0716 10.394 84.4842 1.44528 84.9742L1.55463 86.9712C11.558 86.4235 19.5 78.1396 19.5 68H17.5ZM1.44528 51.0258C10.394 51.5158 17.5 58.9284 17.5 68H19.5C19.5 57.8604 11.558 49.5765 1.55463 49.0288L1.44528 51.0258ZM-0.5 22L-0.5 49H1.5L1.5 22H-0.5ZM4.5 17C1.73858 17 -0.5 19.2386 -0.5 22H1.5C1.5 20.3431 2.84315 19 4.5 19L4.5 17ZM31.5 17L4.5 17L4.5 19L31.5 19V17ZM50.5 -1C40.3604 -1 32.0765 6.94204 31.5288 16.9454L33.5258 17.0547C34.0158 8.10603 41.4284 1 50.5 1V-1ZM31.5 19C32.6183 19 33.4685 18.1008 33.5258 17.0547L31.5288 16.9454C31.5276 16.9666 31.5187 16.9836 31.5081 16.994C31.5033 16.9987 31.5001 17.0002 31.4999 17.0002C31.4998 17.0003 31.5001 17.0001 31.5006 17C31.5012 16.9999 31.5012 17 31.5 17V19ZM1.55463 49.0288C1.53335 49.0276 1.5164 49.0187 1.506 49.0081C1.50127 49.0033 1.49985 49.0001 1.49977 48.9999C1.49974 48.9998 1.49987 49.0001 1.49998 49.0007C1.5001 49.0012 1.5 49.0012 1.5 49H-0.5C-0.5 50.1183 0.399211 50.9685 1.44528 51.0258L1.55463 49.0288ZM1.5 87C1.5 86.9988 1.5001 86.9988 1.49998 86.9994C1.49987 86.9999 1.49974 87.0002 1.49977 87.0001C1.49985 86.9999 1.50127 86.9967 1.506 86.9919C1.5164 86.9813 1.53335 86.9724 1.55463 86.9712L1.44528 84.9742C0.399214 85.0315 -0.5 85.8817 -0.5 87H1.5ZM67.4742 17.0547C67.5315 18.1008 68.3817 19 69.5 19V17C69.4988 17 69.4988 16.9999 69.4993 17C69.4999 17.0001 69.5002 17.0003 69.5001 17.0002C69.4999 17.0002 69.4967 16.9987 69.4919 16.994C69.4813 16.9836 69.4724 16.9667 69.4712 16.9454L67.4742 17.0547ZM31.5288 116.945C31.5276 116.967 31.5187 116.984 31.5081 116.994C31.5033 116.999 31.5001 117 31.4999 117C31.4998 117 31.5001 117 31.5007 117C31.5012 117 31.5012 117 31.5 117V119C32.6183 119 33.4685 118.101 33.5258 117.055L31.5288 116.945ZM99.4454 86.9712C99.4667 86.9724 99.4836 86.9813 99.494 86.9919C99.4987 86.9967 99.5002 86.9999 99.5002 87.0001C99.5003 87.0002 99.5001 86.9999 99.5 86.9993C99.4999 86.9988 99.5 86.9988 99.5 87H101.5C101.5 85.8817 100.601 85.0315 99.5547 84.9742L99.4454 86.9712ZM69.5 117C69.4988 117 69.4988 117 69.4994 117C69.4999 117 69.5002 117 69.5001 117C69.4999 117 69.4967 116.999 69.4919 116.994C69.4813 116.984 69.4724 116.967 69.4712 116.945L67.4742 117.055C67.5315 118.101 68.3817 119 69.5 119V117ZM99.5 49C99.5 49.0012 99.4999 49.0012 99.5 49.0006C99.5001 49.0001 99.5003 48.9998 99.5002 48.9999C99.5002 49.0001 99.4987 49.0033 99.494 49.0081C99.4836 49.0187 99.4666 49.0276 99.4454 49.0288L99.5547 51.0258C100.601 50.9685 101.5 50.1183 101.5 49H99.5Z" fill="#D1D5DB" mask="url(#path-1-inside-1_673_10153)"/>
<path d="M43.4138 89.084C43.2538 89.084 43.1298 89.04 43.0418 88.952C42.9618 88.864 42.9218 88.74 42.9218 88.58V83.576C42.9218 83.416 42.9618 83.296 43.0418 83.216C43.1218 83.128 43.2378 83.084 43.3898 83.084C43.5418 83.084 43.6578 83.128 43.7378 83.216C43.8258 83.296 43.8698 83.416 43.8698 83.576V84.548H43.7498C43.8778 84.076 44.1218 83.712 44.4818 83.456C44.8418 83.2 45.2858 83.064 45.8138 83.048C45.9338 83.04 46.0298 83.068 46.1018 83.132C46.1738 83.188 46.2138 83.288 46.2218 83.432C46.2298 83.568 46.1978 83.676 46.1258 83.756C46.0538 83.836 45.9418 83.884 45.7898 83.9L45.5978 83.924C45.0538 83.972 44.6338 84.148 44.3378 84.452C44.0498 84.748 43.9058 85.156 43.9058 85.676V88.58C43.9058 88.74 43.8618 88.864 43.7738 88.952C43.6938 89.04 43.5738 89.084 43.4138 89.084ZM49.6242 89.108C49.0402 89.108 48.5362 88.98 48.1122 88.724C47.6882 88.468 47.3602 88.112 47.1282 87.656C46.9042 87.192 46.7922 86.656 46.7922 86.048C46.7922 85.584 46.8562 85.168 46.9842 84.8C47.1122 84.432 47.3002 84.12 47.5482 83.864C47.7962 83.6 48.0922 83.4 48.4362 83.264C48.7882 83.128 49.1842 83.06 49.6242 83.06C49.9122 83.06 50.2122 83.104 50.5242 83.192C50.8362 83.28 51.1202 83.432 51.3762 83.648C51.4562 83.704 51.5082 83.772 51.5322 83.852C51.5562 83.932 51.5562 84.012 51.5322 84.092C51.5082 84.164 51.4682 84.228 51.4122 84.284C51.3562 84.332 51.2842 84.36 51.1962 84.368C51.1162 84.376 51.0322 84.348 50.9442 84.284C50.7362 84.124 50.5242 84.012 50.3082 83.948C50.0922 83.884 49.8842 83.852 49.6842 83.852C49.3722 83.852 49.1002 83.904 48.8682 84.008C48.6362 84.104 48.4402 84.244 48.2802 84.428C48.1202 84.612 47.9962 84.84 47.9082 85.112C47.8282 85.384 47.7882 85.7 47.7882 86.06C47.7882 86.756 47.9522 87.308 48.2802 87.716C48.6082 88.116 49.0762 88.316 49.6842 88.316C49.8842 88.316 50.0882 88.284 50.2962 88.22C50.5122 88.156 50.7282 88.044 50.9442 87.884C51.0322 87.82 51.1162 87.792 51.1962 87.8C51.2762 87.808 51.3442 87.84 51.4002 87.896C51.4562 87.944 51.4922 88.008 51.5082 88.088C51.5322 88.168 51.5322 88.248 51.5082 88.328C51.4842 88.4 51.4322 88.464 51.3522 88.52C51.0962 88.728 50.8162 88.88 50.5122 88.976C50.2082 89.064 49.9122 89.108 49.6242 89.108ZM54.8069 89.108C54.4469 89.108 54.0709 89.036 53.6789 88.892C53.2869 88.748 52.9429 88.54 52.6469 88.268C52.5589 88.204 52.5029 88.128 52.4789 88.04C52.4629 87.952 52.4669 87.868 52.4909 87.788C52.5149 87.7 52.5549 87.628 52.6109 87.572C52.6749 87.508 52.7509 87.476 52.8389 87.476C52.9269 87.468 53.0189 87.5 53.1149 87.572C53.3869 87.804 53.6669 87.972 53.9549 88.076C54.2429 88.18 54.5349 88.232 54.8309 88.232C55.3509 88.232 55.7909 88.104 56.1509 87.848C56.5189 87.592 56.7949 87.204 56.9789 86.684C57.1709 86.164 57.2669 85.52 57.2669 84.752V83.636H57.3749C57.3269 84.084 57.1909 84.476 56.9669 84.812C56.7509 85.148 56.4709 85.404 56.1269 85.58C55.7829 85.756 55.3949 85.844 54.9629 85.844C54.4669 85.844 54.0269 85.732 53.6429 85.508C53.2589 85.284 52.9589 84.968 52.7429 84.56C52.5269 84.152 52.4189 83.692 52.4189 83.18C52.4189 82.644 52.5309 82.172 52.7549 81.764C52.9869 81.348 53.3029 81.024 53.7029 80.792C54.1109 80.552 54.5789 80.432 55.1069 80.432C55.7709 80.432 56.3349 80.596 56.7989 80.924C57.2709 81.244 57.6269 81.712 57.8669 82.328C58.1069 82.944 58.2269 83.688 58.2269 84.56C58.2269 85.296 58.1509 85.944 57.9989 86.504C57.8469 87.064 57.6229 87.54 57.3269 87.932C57.0309 88.316 56.6709 88.608 56.2469 88.808C55.8229 89.008 55.3429 89.108 54.8069 89.108ZM55.1669 85.016C55.5269 85.016 55.8429 84.936 56.1149 84.776C56.3869 84.616 56.5989 84.396 56.7509 84.116C56.9029 83.828 56.9789 83.5 56.9789 83.132C56.9789 82.764 56.9029 82.44 56.7509 82.16C56.5989 81.88 56.3869 81.66 56.1149 81.5C55.8429 81.34 55.5269 81.26 55.1669 81.26C54.8149 81.26 54.5029 81.34 54.2309 81.5C53.9669 81.66 53.7549 81.88 53.5949 82.16C53.4429 82.44 53.3669 82.764 53.3669 83.132C53.3669 83.5 53.4429 83.828 53.5949 84.116C53.7549 84.396 53.9669 84.616 54.2309 84.776C54.5029 84.936 54.8149 85.016 55.1669 85.016Z" fill="#030712"/>
<path d="M40.7109 33.8259H60.9541V34.3816H40.7109V33.8259ZM40.7109 38.19H60.9541V38.7456H40.7109V38.19ZM40.7109 42.4797H60.9541V43.0353H40.7109V42.4797ZM40.7109 46.7081H60.9541V47.2637H40.7109V46.7081ZM40.7109 50.9366H60.9541V51.4922H40.7109V50.9366Z" fill="#AD7146"/>
<path d="M40.7109 55.1234H39.8206C39.5756 55.1234 39.3766 54.9222 39.3766 54.6794V31.3191C39.3766 31.0741 39.5778 30.875 39.8206 30.875H40.7109C40.9559 30.875 41.155 31.0763 41.155 31.3191V54.6772C41.1572 54.9222 40.9559 55.1234 40.7109 55.1234V55.1234ZM61.1772 55.1234H60.2869C60.0419 55.1234 59.8428 54.9222 59.8428 54.6794V31.3191C59.8428 31.0741 60.0441 30.875 60.2869 30.875H61.1772C61.4222 30.875 61.6213 31.0763 61.6213 31.3191V54.6772C61.6234 54.9222 61.4222 55.1234 61.1772 55.1234V55.1234Z" fill="#D99B61"/>
<path d="M39.3766 53.6447V54.6772C39.3766 54.9222 39.5778 55.1212 39.8206 55.1212H40.7109C40.9559 55.1212 41.155 54.92 41.155 54.6772V53.6447H39.3766ZM59.8428 53.6447V54.6772C59.8428 54.9222 60.0441 55.1212 60.2869 55.1212H61.1772C61.4222 55.1212 61.6213 54.92 61.6213 54.6772V53.6447H59.8428Z" fill="#BF7C4E"/>
<path d="M62.5138 57.125H38.4863C38.2413 57.125 38.0422 56.9237 38.0422 56.6809V54.9003C38.0422 54.6553 38.2434 54.4562 38.4863 54.4562H62.5116C62.7566 54.4562 62.9556 54.6575 62.9556 54.9003V56.6809C62.9556 56.7983 62.9091 56.9109 62.8263 56.9942C62.7435 57.0774 62.6311 57.1244 62.5138 57.125Z" fill="#D99B61"/>
<path d="M40.7109 33.8259H60.9541V34.3816H40.7109V33.8259ZM40.7109 38.19H60.9541V38.7456H40.7109V38.19ZM40.7109 42.4797H60.9541V43.0353H40.7109V42.4797ZM40.7109 46.7081H60.9541V47.2637H40.7109V46.7081ZM40.7109 50.9366H60.9541V51.4922H40.7109V50.9366Z" fill="#AD7146"/>
<path d="M40.7109 55.1234H39.8206C39.5756 55.1234 39.3766 54.9222 39.3766 54.6794V31.3191C39.3766 31.0741 39.5778 30.875 39.8206 30.875H40.7109C40.9559 30.875 41.155 31.0763 41.155 31.3191V54.6772C41.1572 54.9222 40.9559 55.1234 40.7109 55.1234V55.1234ZM61.1772 55.1234H60.2869C60.0419 55.1234 59.8428 54.9222 59.8428 54.6794V31.3191C59.8428 31.0741 60.0441 30.875 60.2869 30.875H61.1772C61.4222 30.875 61.6213 31.0763 61.6213 31.3191V54.6772C61.6234 54.9222 61.4222 55.1234 61.1772 55.1234V55.1234Z" fill="#D99B61"/>
<path d="M39.3766 53.6447V54.6772C39.3766 54.9222 39.5778 55.1212 39.8206 55.1212H40.7109C40.9559 55.1212 41.155 54.92 41.155 54.6772V53.6447H39.3766ZM59.8428 53.6447V54.6772C59.8428 54.9222 60.0441 55.1212 60.2869 55.1212H61.1772C61.4222 55.1212 61.6213 54.92 61.6213 54.6772V53.6447H59.8428Z" fill="#BF7C4E"/>
<path d="M62.5138 57.125H38.4863C38.2413 57.125 38.0422 56.9237 38.0422 56.6809V54.9003C38.0422 54.6553 38.2434 54.4562 38.4863 54.4562H62.5116C62.7566 54.4562 62.9556 54.6575 62.9556 54.9003V56.6809C62.9556 56.7983 62.9091 56.9109 62.8263 56.9942C62.7435 57.0774 62.6311 57.1244 62.5138 57.125Z" fill="#D99B61"/>
<path d="M41.9359 49.7684C41.5072 49.7684 41.1572 50.1206 41.1572 50.5472V51.8816C41.1572 52.3081 41.5072 52.6603 41.9359 52.6603C42.3647 52.6603 42.7147 52.3081 42.7147 51.8816V50.5472C42.7147 50.1184 42.3625 49.7684 41.9359 49.7684ZM43.7144 49.7684C43.2856 49.7684 42.9356 50.1206 42.9356 50.5472V51.8816C42.9356 52.3081 43.2856 52.6603 43.7144 52.6603C44.1431 52.6603 44.4931 52.3081 44.4931 51.8816V50.5472C44.4931 50.1184 44.1431 49.7684 43.7144 49.7684ZM45.495 49.7684C45.0663 49.7684 44.7163 50.1206 44.7163 50.5472V51.8816C44.7163 52.3081 45.0663 52.6603 45.495 52.6603C45.9238 52.6603 46.2738 52.3081 46.2738 51.8816V50.5472C46.2738 50.1184 45.9216 49.7684 45.495 49.7684ZM47.7197 49.7684C47.2909 49.7684 46.9409 50.1206 46.9409 50.5472V51.8816C46.9409 52.3081 47.2909 52.6603 47.7197 52.6603C48.1484 52.6603 48.4984 52.3081 48.4984 51.8816V50.5472C48.4984 50.1184 48.1463 49.7684 47.7197 49.7684ZM49.4981 49.7684C49.0694 49.7684 48.7194 50.1206 48.7194 50.5472V51.8816C48.7194 52.3081 49.0694 52.6603 49.4981 52.6603C49.9269 52.6603 50.2769 52.3081 50.2769 51.8816V50.5472C50.2769 50.1184 49.9269 49.7684 49.4981 49.7684ZM51.2788 49.7684C50.85 49.7684 50.5 50.1206 50.5 50.5472V51.8816C50.5 52.3081 50.85 52.6603 51.2788 52.6603C51.7075 52.6603 52.0575 52.3081 52.0575 51.8816V50.5472C52.0575 50.1184 51.7053 49.7684 51.2788 49.7684ZM53.8359 49.7684C53.4072 49.7684 53.0572 50.1206 53.0572 50.5472V51.8816C53.0572 52.3081 53.4072 52.6603 53.8359 52.6603C54.2647 52.6603 54.6147 52.3081 54.6147 51.8816V50.5472C54.6147 50.1184 54.2647 49.7684 53.8359 49.7684ZM55.505 49.7684C55.0763 49.7684 54.7263 50.1206 54.7263 50.5472V51.8816C54.7263 52.3081 55.0763 52.6603 55.505 52.6603C55.9338 52.6603 56.2838 52.3081 56.2838 51.8816V50.5472C56.2838 50.1184 55.9316 49.7684 55.505 49.7684ZM57.1741 49.7684C56.7453 49.7684 56.3953 50.1206 56.3953 50.5472V51.8816C56.3953 52.3081 56.7453 52.6603 57.1741 52.6603C57.6028 52.6603 57.9528 52.3081 57.9528 51.8816V50.5472C57.9528 50.1184 57.6006 49.7684 57.1741 49.7684ZM58.8431 49.7684C58.4144 49.7684 58.0644 50.1206 58.0644 50.5472V51.8816C58.0644 52.3081 58.4144 52.6603 58.8431 52.6603C59.2719 52.6603 59.6219 52.3081 59.6219 51.8816V50.5472C59.6197 50.1184 59.2697 49.7684 58.8431 49.7684Z" fill="#1976D2"/>
<path d="M41.9359 45.5575C41.5072 45.5575 41.1572 45.9097 41.1572 46.3362V47.6706C41.1572 48.0972 41.5072 48.4494 41.9359 48.4494C42.3647 48.4494 42.7147 48.0972 42.7147 47.6706V46.3362C42.7147 45.9075 42.3625 45.5575 41.9359 45.5575ZM43.7144 45.5575C43.2856 45.5575 42.9356 45.9097 42.9356 46.3362V47.6706C42.9356 48.0972 43.2856 48.4494 43.7144 48.4494C44.1431 48.4494 44.4931 48.0972 44.4931 47.6706V46.3362C44.4931 45.9075 44.1431 45.5575 43.7144 45.5575ZM45.495 45.5575C45.0663 45.5575 44.7163 45.9097 44.7163 46.3362V47.6706C44.7163 48.0972 45.0663 48.4494 45.495 48.4494C45.9238 48.4494 46.2738 48.0972 46.2738 47.6706V46.3362C46.2738 45.9075 45.9216 45.5575 45.495 45.5575ZM47.2734 45.5575C46.8447 45.5575 46.4947 45.9097 46.4947 46.3362V47.6706C46.4947 48.0972 46.8447 48.4494 47.2734 48.4494C47.7022 48.4494 48.0522 48.0972 48.0522 47.6706V46.3362C48.0522 45.9075 47.7022 45.5575 47.2734 45.5575ZM50.1653 45.5575C49.7366 45.5575 49.3866 45.9097 49.3866 46.3362V47.6706C49.3866 48.0972 49.7366 48.4494 50.1653 48.4494C50.5941 48.4494 50.9441 48.0972 50.9441 47.6706V46.3362C50.9441 45.9075 50.5941 45.5575 50.1653 45.5575ZM51.9022 45.5575C51.4734 45.5575 51.1234 45.9097 51.1234 46.3362V47.6706C51.1234 48.0972 51.4734 48.4494 51.9022 48.4494C52.3309 48.4494 52.6809 48.0972 52.6809 47.6706V46.3362C52.6809 45.9075 52.3288 45.5575 51.9022 45.5575ZM53.6369 45.5575C53.2081 45.5575 52.8581 45.9097 52.8581 46.3362V47.6706C52.8581 48.0972 53.2081 48.4494 53.6369 48.4494C54.0656 48.4494 54.4156 48.0972 54.4156 47.6706V46.3362C54.4156 45.9075 54.0634 45.5575 53.6369 45.5575ZM55.3716 45.5575C54.9428 45.5575 54.5928 45.9097 54.5928 46.3362V47.6706C54.5928 48.0972 54.9428 48.4494 55.3716 48.4494C55.8003 48.4494 56.1503 48.0972 56.1503 47.6706V46.3362C56.1503 45.9075 55.7981 45.5575 55.3716 45.5575ZM57.1063 45.5575C56.6775 45.5575 56.3275 45.9097 56.3275 46.3362V47.6706C56.3275 48.0972 56.6775 48.4494 57.1063 48.4494C57.535 48.4494 57.885 48.0972 57.885 47.6706V46.3362C57.885 45.9075 57.535 45.5575 57.1063 45.5575ZM58.8431 45.5575C58.4144 45.5575 58.0644 45.9097 58.0644 46.3362V47.6706C58.0644 48.0972 58.4144 48.4494 58.8431 48.4494C59.2719 48.4494 59.6219 48.0972 59.6219 47.6706V46.3362C59.6197 45.9075 59.2697 45.5575 58.8431 45.5575Z" fill="#689F38"/>
<path d="M41.9359 41.3138C41.5072 41.3138 41.1572 41.6659 41.1572 42.0925V43.4269C41.1572 43.8534 41.5072 44.2056 41.9359 44.2056C42.3647 44.2056 42.7147 43.8534 42.7147 43.4269V42.0925C42.7147 41.6616 42.3625 41.3138 41.9359 41.3138ZM43.7144 41.3138C43.2856 41.3138 42.9356 41.6659 42.9356 42.0925V43.4269C42.9356 43.8534 43.2856 44.2056 43.7144 44.2056C44.1431 44.2056 44.4931 43.8534 44.4931 43.4269V42.0925C44.4931 41.6616 44.1431 41.3138 43.7144 41.3138ZM45.495 41.3138C45.0663 41.3138 44.7163 41.6659 44.7163 42.0925V43.4269C44.7163 43.8534 45.0663 44.2056 45.495 44.2056C45.9238 44.2056 46.2738 43.8534 46.2738 43.4269V42.0925C46.2738 41.6616 45.9216 41.3138 45.495 41.3138ZM47.2734 41.3138C46.8447 41.3138 46.4947 41.6659 46.4947 42.0925V43.4269C46.4947 43.8534 46.8447 44.2056 47.2734 44.2056C47.7022 44.2056 48.0522 43.8534 48.0522 43.4269V42.0925C48.0522 41.6616 47.7022 41.3138 47.2734 41.3138ZM49.0541 41.3138C48.6253 41.3138 48.2753 41.6659 48.2753 42.0925V43.4269C48.2753 43.8534 48.6253 44.2056 49.0541 44.2056C49.4828 44.2056 49.8328 43.8534 49.8328 43.4269V42.0925C49.8328 41.6616 49.4806 41.3138 49.0541 41.3138ZM50.8347 41.3138C50.4059 41.3138 50.0559 41.6659 50.0559 42.0925V43.4269C50.0559 43.8534 50.4059 44.2056 50.8347 44.2056C51.2634 44.2056 51.6134 43.8534 51.6134 43.4269V42.0925C51.6134 41.6616 51.2613 41.3138 50.8347 41.3138ZM52.6131 41.3138C52.1844 41.3138 51.8344 41.6659 51.8344 42.0925V43.4269C51.8344 43.8534 52.1844 44.2056 52.6131 44.2056C53.0419 44.2056 53.3919 43.8534 53.3919 43.4269V42.0925C53.3919 41.6616 53.0397 41.3138 52.6131 41.3138ZM54.3938 41.3138C53.965 41.3138 53.615 41.6659 53.615 42.0925V43.4269C53.615 43.8534 53.965 44.2056 54.3938 44.2056C54.8225 44.2056 55.1725 43.8534 55.1725 43.4269V42.0925C55.1725 41.6616 54.8203 41.3138 54.3938 41.3138ZM56.1722 41.3138C55.7434 41.3138 55.3934 41.6659 55.3934 42.0925V43.4269C55.3934 43.8534 55.7434 44.2056 56.1722 44.2056C56.6009 44.2056 56.9509 43.8534 56.9509 43.4269V42.0925C56.9509 41.6616 56.6009 41.3138 56.1722 41.3138ZM58.8431 41.3138C58.4144 41.3138 58.0644 41.6659 58.0644 42.0925V43.4269C58.0644 43.8534 58.4144 44.2056 58.8431 44.2056C59.2719 44.2056 59.6219 43.8534 59.6219 43.4269V42.0925C59.6197 41.6616 59.2697 41.3138 58.8431 41.3138Z" fill="#FFCA28"/>
<path d="M41.9359 37.0219C41.5072 37.0219 41.1572 37.3741 41.1572 37.8006V39.135C41.1572 39.5616 41.5072 39.9138 41.9359 39.9138C42.3647 39.9138 42.7147 39.5616 42.7147 39.135V37.8006C42.7147 37.3697 42.3625 37.0219 41.9359 37.0219ZM43.6969 37.0219C43.2681 37.0219 42.9181 37.3741 42.9181 37.8006V39.135C42.9181 39.5616 43.2681 39.9138 43.6969 39.9138C44.1256 39.9138 44.4756 39.5616 44.4756 39.135V37.8006C44.4756 37.3697 44.1234 37.0219 43.6969 37.0219ZM45.9216 37.0219C45.4928 37.0219 45.1428 37.3741 45.1428 37.8006V39.135C45.1428 39.5616 45.4928 39.9138 45.9216 39.9138C46.3503 39.9138 46.7003 39.5616 46.7003 39.135V37.8006C46.7003 37.3697 46.3481 37.0219 45.9216 37.0219ZM48.8309 37.0219C48.4022 37.0219 48.0522 37.3741 48.0522 37.8006V39.135C48.0522 39.5616 48.4022 39.9138 48.8309 39.9138C49.2597 39.9138 49.6097 39.5616 49.6097 39.135V37.8006C49.6097 37.3697 49.2597 37.0219 48.8309 37.0219ZM50.5372 37.0219C50.1084 37.0219 49.7584 37.3741 49.7584 37.8006V39.135C49.7584 39.5616 50.1084 39.9138 50.5372 39.9138C50.9659 39.9138 51.3159 39.5616 51.3159 39.135V37.8006C51.3159 37.3697 50.9637 37.0219 50.5372 37.0219ZM52.2434 37.0219C51.8147 37.0219 51.4647 37.3741 51.4647 37.8006V39.135C51.4647 39.5616 51.8147 39.9138 52.2434 39.9138C52.6722 39.9138 53.0222 39.5616 53.0222 39.135V37.8006C53.0222 37.3697 52.67 37.0219 52.2434 37.0219ZM53.9475 37.0219C53.5188 37.0219 53.1687 37.3741 53.1687 37.8006V39.135C53.1687 39.5616 53.5188 39.9138 53.9475 39.9138C54.3763 39.9138 54.7262 39.5616 54.7262 39.135V37.8006C54.7262 37.3697 54.3763 37.0219 53.9475 37.0219ZM55.6537 37.0219C55.225 37.0219 54.875 37.3741 54.875 37.8006V39.135C54.875 39.5616 55.225 39.9138 55.6537 39.9138C56.0825 39.9138 56.4325 39.5616 56.4325 39.135V37.8006C56.4325 37.3697 56.0803 37.0219 55.6537 37.0219ZM57.36 37.0219C56.9312 37.0219 56.5813 37.3741 56.5813 37.8006V39.135C56.5813 39.5616 56.9312 39.9138 57.36 39.9138C57.7887 39.9138 58.1387 39.5616 58.1387 39.135V37.8006C58.1387 37.3697 57.7866 37.0219 57.36 37.0219ZM59.0641 37.0219C58.6353 37.0219 58.2853 37.3741 58.2853 37.8006V39.135C58.2853 39.5616 58.6353 39.9138 59.0641 39.9138C59.4928 39.9138 59.8428 39.5616 59.8428 39.135V37.8006C59.8428 37.3697 59.4928 37.0219 59.0641 37.0219Z" fill="#F57C00"/>
<path d="M41.9359 32.66C41.5072 32.66 41.1572 33.0122 41.1572 33.4388V34.7731C41.1572 35.1997 41.5072 35.5519 41.9359 35.5519C42.3647 35.5519 42.7147 35.1997 42.7147 34.7731V33.4388C42.7147 33.0078 42.3625 32.66 41.9359 32.66ZM43.605 32.66C43.1763 32.66 42.8263 33.0122 42.8263 33.4388V34.7731C42.8263 35.1997 43.1763 35.5519 43.605 35.5519C44.0338 35.5519 44.3838 35.1997 44.3838 34.7731V33.4388C44.3816 33.0078 44.0316 32.66 43.605 32.66ZM45.2719 32.66C44.8431 32.66 44.4931 33.0122 44.4931 33.4388V34.7731C44.4931 35.1997 44.8431 35.5519 45.2719 35.5519C45.7006 35.5519 46.0506 35.1997 46.0506 34.7731V33.4388C46.0506 33.0078 45.6984 32.66 45.2719 32.66ZM46.9409 32.66C46.5122 32.66 46.1622 33.0122 46.1622 33.4388V34.7731C46.1622 35.1997 46.5122 35.5519 46.9409 35.5519C47.3697 35.5519 47.7197 35.1997 47.7197 34.7731V33.4388C47.7197 33.0078 47.3675 32.66 46.9409 32.66ZM48.61 32.66C48.1813 32.66 47.8313 33.0122 47.8313 33.4388V34.7731C47.8313 35.1997 48.1813 35.5519 48.61 35.5519C49.0388 35.5519 49.3887 35.1997 49.3887 34.7731V33.4388C49.3887 33.0078 49.0366 32.66 48.61 32.66ZM50.8347 32.66C50.4059 32.66 50.0559 33.0122 50.0559 33.4388V34.7731C50.0559 35.1997 50.4059 35.5519 50.8347 35.5519C51.2634 35.5519 51.6134 35.1997 51.6134 34.7731V33.4388C51.6134 33.0078 51.2612 32.66 50.8347 32.66ZM52.6131 32.66C52.1844 32.66 51.8344 33.0122 51.8344 33.4388V34.7731C51.8344 35.1997 52.1844 35.5519 52.6131 35.5519C53.0419 35.5519 53.3919 35.1997 53.3919 34.7731V33.4388C53.3919 33.0078 53.0397 32.66 52.6131 32.66ZM55.505 32.66C55.0762 32.66 54.7262 33.0122 54.7262 33.4388V34.7731C54.7262 35.1997 55.0762 35.5519 55.505 35.5519C55.9337 35.5519 56.2838 35.1997 56.2838 34.7731V33.4388C56.2838 33.0078 55.9316 32.66 55.505 32.66ZM57.2856 32.66C56.8569 32.66 56.5069 33.0122 56.5069 33.4388V34.7731C56.5069 35.1997 56.8569 35.5519 57.2856 35.5519C57.7144 35.5519 58.0644 35.1997 58.0644 34.7731V33.4388C58.0644 33.0078 57.7122 32.66 57.2856 32.66ZM59.0641 32.66C58.6353 32.66 58.2853 33.0122 58.2853 33.4388V34.7731C58.2853 35.1997 58.6353 35.5519 59.0641 35.5519C59.4928 35.5519 59.8428 35.1997 59.8428 34.7731V33.4388C59.8428 33.0078 59.4928 32.66 59.0641 32.66Z" fill="#D82521"/>
<path d="M41.4175 50.4969C41.4087 50.65 41.3366 51.3325 41.925 51.3325C42.5134 51.3325 42.4041 50.6719 42.3997 50.5078C42.3953 50.3809 42.3866 50.2519 42.3187 50.1403C42.2509 50.0287 42.0212 49.8691 41.7478 49.9631C41.4722 50.0572 41.4241 50.3875 41.4175 50.4969ZM43.2047 50.5975C43.1959 50.7506 43.2375 51.3259 43.7209 51.2712C44.3028 51.2056 44.2634 50.6741 44.2591 50.5078C44.2547 50.3809 44.2284 50.2103 44.1147 50.0769C44.0272 49.9762 43.7778 49.8406 43.5044 49.9784C43.2462 50.1097 43.2112 50.4881 43.2047 50.5975ZM44.9569 50.5712C44.9481 50.7244 44.9897 51.1903 45.4731 51.245C46.0134 51.3062 46.0419 50.7441 46.0112 50.4816C45.9959 50.3569 45.8691 49.8844 45.4141 49.9391C44.9569 49.9937 44.9634 50.4619 44.9569 50.5712ZM50.7866 50.4969C50.7778 50.65 50.7056 51.3325 51.2941 51.3325C51.8825 51.3325 51.7731 50.6719 51.7687 50.5078C51.7644 50.3809 51.7556 50.2519 51.6878 50.1403C51.62 50.0287 51.3903 49.8691 51.1169 49.9631C50.8391 50.0572 50.7931 50.3875 50.7866 50.4969ZM55.0128 50.4969C55.0041 50.65 54.9319 51.3325 55.5203 51.3325C56.1087 51.3325 55.9994 50.6719 55.995 50.5078C55.9906 50.3809 55.9819 50.2519 55.9141 50.1403C55.8462 50.0287 55.6166 49.8691 55.3431 49.9631C55.0653 50.0572 55.0194 50.3875 55.0128 50.4969ZM48.9884 50.5975C48.9797 50.7506 49.0212 51.2166 49.5047 51.2712C50.0559 51.3325 50.0472 50.6741 50.0428 50.5078C50.0384 50.3809 50.0122 50.2103 49.8984 50.0769C49.8109 49.9762 49.5616 49.8406 49.2881 49.9784C49.03 50.1097 48.995 50.4881 48.9884 50.5975ZM53.3109 50.5975C53.3022 50.7506 53.3437 51.2166 53.8272 51.2712C54.3784 51.3325 54.3697 50.6741 54.3653 50.5078C54.3609 50.3809 54.3347 50.2103 54.2209 50.0769C54.1334 49.9762 53.8841 49.8406 53.6106 49.9784C53.3525 50.1097 53.3175 50.4881 53.3109 50.5975Z" fill="#2196F3"/>
<path d="M46.7484 46.3516C46.7397 46.4916 46.7813 46.9225 47.2647 46.9706C47.8159 47.0275 47.8072 46.4216 47.8028 46.2684C47.7984 46.1525 47.7722 45.995 47.6584 45.8725C47.5709 45.7784 47.3216 45.6559 47.0481 45.7828C46.79 45.9031 46.755 46.2531 46.7484 46.3516Z" fill="#8BC34A"/>
<path d="M47.1881 50.5713C47.1794 50.7244 47.2209 51.1903 47.7044 51.245C48.2447 51.3063 48.2731 50.7441 48.2425 50.4816C48.2272 50.3569 48.1003 49.8844 47.6453 49.9391C47.1903 49.9938 47.1947 50.4619 47.1881 50.5713Z" fill="#2196F3"/>
<path d="M45.0006 46.2597C44.9569 46.4741 44.9831 47.0384 45.5081 47.045C46.0922 47.0516 46.0047 46.4238 45.9828 46.2706C45.9172 45.8047 45.6044 45.6713 45.3288 45.761C45.0531 45.8463 45.0203 46.1591 45.0006 46.2597Z" fill="#8BC34A"/>
<path d="M45.0028 42.0181C44.9591 42.2325 44.9853 42.7969 45.5103 42.8034C46.0944 42.81 46.0069 42.1822 45.985 42.0291C45.9194 41.5631 45.6066 41.4297 45.3309 41.5194C45.0553 41.6047 45.0225 41.9175 45.0028 42.0181ZM46.7812 42.0181C46.7375 42.2325 46.7637 42.7969 47.2887 42.8034C47.8728 42.81 47.7787 42.1822 47.7634 42.0291C47.7284 41.6528 47.56 41.4975 47.2734 41.4931C46.8447 41.4866 46.8031 41.9175 46.7812 42.0181Z" fill="#FFEB3B"/>
<path d="M43.2025 46.4041C43.1937 46.5572 43.2309 47.0734 43.7187 47.0756C44.2612 47.08 44.2612 46.4806 44.2569 46.3144C44.2525 46.1897 44.2262 46.0191 44.1125 45.8856C44.025 45.785 43.7756 45.6494 43.5022 45.7894C43.2441 45.9184 43.2091 46.2969 43.2025 46.4041ZM41.4022 46.3712C41.3934 46.5244 41.435 46.9903 41.9184 47.045C42.4587 47.1062 42.4872 46.5441 42.4566 46.2816C42.4412 46.1569 42.3144 45.6844 41.8594 45.7391C41.4022 45.7937 41.4087 46.2619 41.4022 46.3712Z" fill="#8BC34A"/>
<path d="M46.4137 33.4869C46.405 33.6269 46.4466 34.0578 46.93 34.106C47.4812 34.1628 47.4725 33.5569 47.4681 33.4038C47.4637 33.2878 47.4375 33.1303 47.3237 33.0078C47.2362 32.9138 46.9869 32.7913 46.7134 32.9181C46.4553 33.0385 46.4203 33.3863 46.4137 33.4869ZM50.3075 33.4869C50.2987 33.6269 50.3403 34.0578 50.8237 34.106C51.375 34.1628 51.3662 33.5569 51.3619 33.4038C51.3575 33.2878 51.3312 33.1303 51.2175 33.0078C51.13 32.9138 50.8806 32.7913 50.6072 32.9181C50.3491 33.0385 50.3141 33.3863 50.3075 33.4869ZM53.2322 33.4869C53.2409 33.6269 53.1994 34.0578 52.6962 34.106C52.1231 34.1628 52.1319 33.5569 52.1363 33.4038C52.1406 33.2878 52.1691 33.1303 52.2872 33.0078C52.3769 32.9138 52.6372 32.7913 52.9216 32.9181C53.1884 33.0385 53.2256 33.3863 53.2322 33.4869ZM44.7359 33.3906C44.6922 33.605 44.7184 34.1694 45.2434 34.176C45.8275 34.1825 45.74 33.5547 45.7181 33.4016C45.6525 32.9356 45.3397 32.8022 45.0641 32.8919C44.7884 32.9794 44.7556 33.2922 44.7359 33.3906ZM43.0669 33.5372C43.0581 33.6903 43.0953 34.2066 43.5831 34.2088C44.1256 34.2131 44.1256 33.6138 44.1212 33.4475C44.1169 33.3228 44.0906 33.1522 43.9769 33.0188C43.8894 32.9181 43.64 32.7825 43.3666 32.9225C43.1084 33.0516 43.0734 33.43 43.0669 33.5372ZM56.8109 33.3403C56.7409 33.5481 56.6972 34.1125 57.2178 34.1738C57.7975 34.2416 57.7866 33.6094 57.7844 33.4541C57.7756 32.9838 57.4803 32.8197 57.1981 32.8788C56.9159 32.9356 56.8437 33.2419 56.8109 33.3403ZM54.9494 33.5372C54.9406 33.6903 54.9778 34.2066 55.4656 34.2088C56.0081 34.2131 56.0081 33.6138 56.0038 33.4475C55.9994 33.3228 55.9731 33.1522 55.8594 33.0188C55.7719 32.9181 55.5225 32.7825 55.2491 32.9225C54.9931 33.0516 54.9559 33.43 54.9494 33.5372ZM58.5894 33.5722C58.5916 33.7253 58.6681 34.2372 59.1537 34.211C59.6941 34.1803 59.6503 33.581 59.6328 33.4191C59.6197 33.2944 59.5803 33.126 59.4556 33.0013C59.3616 32.905 59.1034 32.7869 58.8388 32.9422C58.5959 33.0844 58.5894 33.4628 58.5894 33.5722ZM48.1528 33.5985C48.1637 33.7516 48.2709 34.2591 48.7544 34.2066C49.2925 34.1497 49.2137 33.5525 49.1875 33.3906C49.1678 33.266 49.1175 33.0997 48.9862 32.9816C48.8878 32.8919 48.6209 32.7869 48.3672 32.9553C48.1287 33.1106 48.1441 33.4891 48.1528 33.5985ZM41.4022 33.5022C41.3934 33.6553 41.435 34.1213 41.9184 34.176C42.4587 34.2372 42.4872 33.675 42.4566 33.4125C42.4412 33.2878 42.3144 32.8153 41.8594 32.87C41.4022 32.9247 41.4087 33.3928 41.4022 33.5022Z" fill="#F44336"/>
<path d="M43.1522 42.1319C43.1434 42.285 43.1806 42.8012 43.6684 42.8034C44.2109 42.8078 44.2109 42.2084 44.2066 42.0422C44.2022 41.9175 44.1759 41.7469 44.0622 41.6134C43.9747 41.5128 43.7253 41.3772 43.4519 41.5172C43.1959 41.6462 43.1587 42.0225 43.1522 42.1319ZM53.9081 42.0181C53.8644 42.2325 53.8906 42.7969 54.4156 42.8034C54.9997 42.81 54.9122 42.1822 54.8903 42.0291C54.8247 41.5631 54.5119 41.4297 54.2362 41.5194C53.9606 41.6047 53.9278 41.9175 53.9081 42.0181ZM52.0575 42.1319C52.0487 42.285 52.0859 42.8012 52.5737 42.8034C53.1162 42.8078 53.1162 42.2084 53.1119 42.0422C53.1075 41.9175 53.0812 41.7469 52.9675 41.6134C52.88 41.5128 52.6306 41.3772 52.3572 41.5172C52.1012 41.6462 52.0641 42.0225 52.0575 42.1319ZM55.6472 42.1319C55.6384 42.285 55.6756 42.8012 56.1634 42.8034C56.7059 42.8078 56.7059 42.2084 56.7016 42.0422C56.6972 41.9175 56.6709 41.7469 56.5572 41.6134C56.4697 41.5128 56.2203 41.3772 55.9469 41.5172C55.6887 41.6462 55.6537 42.0225 55.6472 42.1319ZM48.5291 42.1734C48.5356 42.3266 48.6209 42.7991 49.1066 42.8012C49.6097 42.8034 49.59 42.1625 49.5703 42.0006C49.555 41.8759 49.5112 41.7075 49.3844 41.585C49.2881 41.4909 49.0278 41.3772 48.7675 41.5391C48.5247 41.6878 48.5269 42.0662 48.5291 42.1734ZM41.4153 42.1253C41.4066 42.2784 41.4481 42.7444 41.9316 42.7991C42.4719 42.8603 42.5003 42.2981 42.4697 42.0356C42.4544 41.9109 42.3275 41.4384 41.8725 41.4931C41.4175 41.5478 41.4219 42.0159 41.4153 42.1253ZM50.3031 42.1253C50.2944 42.2784 50.3316 42.7969 50.8194 42.7991C51.375 42.8012 51.3881 42.2981 51.3575 42.0356C51.3422 41.9109 51.2153 41.4384 50.7603 41.4931C50.3031 41.5478 50.3097 42.0159 50.3031 42.1253ZM58.3116 42.1253C58.3028 42.2784 58.34 42.7969 58.8278 42.7991C59.3834 42.8012 59.3966 42.2981 59.3659 42.0356C59.3506 41.9109 59.2237 41.4384 58.7687 41.4931C58.3094 41.5478 58.3181 42.0159 58.3116 42.1253Z" fill="#FFEB3B"/>
<path d="M50.045 37.6672C50.0013 37.8816 50.0275 38.4459 50.5525 38.4525C51.1366 38.4591 51.0491 37.8313 51.0272 37.6781C50.9616 37.2122 50.6488 37.0788 50.3731 37.1684C50.0975 37.2538 50.0647 37.5666 50.045 37.6672ZM53.4225 37.8138C53.4138 37.9669 53.4509 38.4831 53.9388 38.4853C54.4813 38.4897 54.4813 37.8903 54.4769 37.7241C54.4725 37.5994 54.4463 37.4288 54.3325 37.2953C54.245 37.1947 53.9956 37.0591 53.7222 37.1991C53.4641 37.3281 53.4291 37.7044 53.4225 37.8138ZM56.8263 37.8138C56.8175 37.9669 56.8547 38.4831 57.3425 38.4853C57.885 38.4897 57.885 37.8903 57.8806 37.7241C57.8763 37.5994 57.85 37.4288 57.7363 37.2953C57.6488 37.1947 57.3994 37.0591 57.1259 37.1991C56.8678 37.3281 56.8328 37.7044 56.8263 37.8138ZM55.1178 37.8138C55.1091 37.9669 55.1463 38.4831 55.6341 38.4853C56.1766 38.4897 56.1766 37.8903 56.1722 37.7241C56.1678 37.5994 56.1416 37.4288 56.0278 37.2953C55.9403 37.1947 55.6909 37.0591 55.4175 37.1991C55.1616 37.3281 55.1244 37.7044 55.1178 37.8138ZM48.3016 37.7766C48.2928 37.9297 48.33 38.4481 48.8178 38.4503C49.3734 38.4525 49.3866 37.9494 49.3559 37.6869C49.3406 37.5622 49.2138 37.0897 48.7588 37.1444C48.3038 37.1991 48.3081 37.6672 48.3016 37.7766ZM45.39 37.7941C45.3813 37.9472 45.4184 38.4656 45.9063 38.4678C46.4619 38.47 46.475 37.9669 46.4444 37.7044C46.4291 37.5797 46.3022 37.1072 45.8472 37.1619C45.39 37.2166 45.3966 37.6847 45.39 37.7941ZM51.7119 37.7766C51.7031 37.9297 51.7403 38.4481 52.2281 38.4503C52.7838 38.4525 52.7969 37.9494 52.7663 37.6869C52.7509 37.5622 52.6241 37.0897 52.1691 37.1444C51.7141 37.1991 51.7184 37.6672 51.7119 37.7766ZM58.5347 37.7766C58.5259 37.9297 58.5631 38.4481 59.0509 38.4503C59.6066 38.4525 59.6197 37.9494 59.5891 37.6869C59.5738 37.5622 59.4469 37.0897 58.9919 37.1444C58.5369 37.1991 58.5391 37.6672 58.5347 37.7766ZM41.4066 37.8138C41.3978 37.9669 41.435 38.4831 41.9228 38.4853C42.4653 38.4897 42.4653 37.8903 42.4609 37.7241C42.4566 37.5994 42.4303 37.4288 42.3166 37.2953C42.2291 37.1947 41.9797 37.0591 41.7063 37.1991C41.4481 37.3281 41.4131 37.7044 41.4066 37.8138ZM43.1763 37.7022C43.1413 37.8531 43.0953 38.3716 43.5766 38.4394C44.1256 38.5181 44.2219 38.0238 44.2328 37.7591C44.2372 37.6322 44.1913 37.1488 43.7297 37.14C43.2681 37.1313 43.2003 37.595 43.1763 37.7022Z" fill="#FF9800"/>
<path d="M51.375 46.3516C51.3662 46.4916 51.4078 46.9225 51.8912 46.9706C52.4425 47.0275 52.4337 46.4216 52.4294 46.2684C52.425 46.1525 52.3987 45.995 52.285 45.8725C52.1975 45.7784 51.9481 45.6559 51.6747 45.7828C51.4166 45.9031 51.3816 46.2531 51.375 46.3516ZM54.8444 46.3516C54.8356 46.4916 54.8772 46.9225 55.3606 46.9706C55.9119 47.0275 55.9031 46.4216 55.8987 46.2684C55.8944 46.1525 55.8681 45.995 55.7544 45.8725C55.6669 45.7784 55.4175 45.6559 55.1441 45.7828C54.8881 45.9031 54.8509 46.2531 54.8444 46.3516ZM53.1447 46.2247C53.1009 46.4391 53.1272 47.0034 53.6522 47.01C54.2362 47.0166 54.1487 46.3888 54.1269 46.2356C54.0612 45.7697 53.7484 45.6363 53.4728 45.7259C53.1972 45.8156 53.1644 46.1241 53.1447 46.2247ZM56.5812 46.4041C56.5725 46.5572 56.6097 47.0734 57.0975 47.0756C57.64 47.08 57.64 46.4806 57.6356 46.3144C57.6312 46.1897 57.605 46.0191 57.4912 45.8856C57.4037 45.785 57.1544 45.6494 56.8809 45.7894C56.6228 45.9184 56.5878 46.2969 56.5812 46.4041ZM49.66 46.3713C49.6512 46.5244 49.6928 46.9903 50.1762 47.045C50.7166 47.1063 50.745 46.5441 50.7144 46.2816C50.6991 46.1569 50.5722 45.6844 50.1172 45.7391C49.6578 45.7938 49.6666 46.2619 49.66 46.3713ZM58.3116 46.3713C58.3028 46.5244 58.3444 46.9903 58.8278 47.045C59.3681 47.1063 59.3966 46.5441 59.3659 46.2816C59.3506 46.1569 59.2237 45.6844 58.7687 45.7391C58.3116 45.7938 58.3181 46.2619 58.3116 46.3713Z" fill="#8BC34A"/>
<path d="M56.6425 50.5713C56.6338 50.7244 56.6425 51.3872 57.1741 51.3325C57.7144 51.2778 57.7275 50.7441 57.6969 50.4816C57.6816 50.3569 57.5547 49.8844 57.0997 49.9391C56.6447 49.9938 56.6491 50.4619 56.6425 50.5713ZM58.3116 50.5756C58.3028 50.7288 58.3444 51.1947 58.8278 51.2494C59.3681 51.3106 59.3966 50.7485 59.3659 50.486C59.3506 50.3613 59.2238 49.8888 58.7688 49.9435C58.3116 50.0003 58.3181 50.4685 58.3116 50.5756Z" fill="#2196F3"/>
</svg>
