<svg width="119" height="136" viewBox="0 0 119 136" fill="none" xmlns="http://www.w3.org/2000/svg">
<mask id="path-1-inside-1_673_10154" fill="white">
<path fill-rule="evenodd" clip-rule="evenodd" d="M69.5 18C68.9477 18 68.5029 17.5515 68.4727 17C67.9538 7.52403 60.1056 0 50.5 0C40.8944 0 33.0462 7.52403 32.5273 17C32.4971 17.5515 32.0523 18 31.5 18L4.5 18C2.29086 18 0.5 19.7909 0.5 22L0.5 49C0.5 49.5523 0.948497 49.9971 1.49996 50.0273C10.976 50.5462 18.5 58.3944 18.5 68C18.5 77.6056 10.976 85.4538 1.49996 85.9727C0.948498 86.0029 0.5 86.4477 0.5 87L0.5 114C0.5 116.209 2.29086 118 4.5 118L31.5 118C32.0523 118 32.4971 118.448 32.5273 119C33.0462 128.476 40.8944 136 50.5 136C60.1056 136 67.9538 128.476 68.4727 119C68.5029 118.448 68.9477 118 69.5 118L96.5 118C98.7091 118 100.5 116.209 100.5 114V87C100.5 86.4477 100.948 86.0029 101.5 85.9727C110.976 85.4538 118.5 77.6056 118.5 68C118.5 58.3944 110.976 50.5462 101.5 50.0273C100.948 49.9971 100.5 49.5523 100.5 49V22C100.5 19.7909 98.7091 18 96.5 18L69.5 18Z"/>
</mask>
<path fill-rule="evenodd" clip-rule="evenodd" d="M69.5 18C68.9477 18 68.5029 17.5515 68.4727 17C67.9538 7.52403 60.1056 0 50.5 0C40.8944 0 33.0462 7.52403 32.5273 17C32.4971 17.5515 32.0523 18 31.5 18L4.5 18C2.29086 18 0.5 19.7909 0.5 22L0.5 49C0.5 49.5523 0.948497 49.9971 1.49996 50.0273C10.976 50.5462 18.5 58.3944 18.5 68C18.5 77.6056 10.976 85.4538 1.49996 85.9727C0.948498 86.0029 0.5 86.4477 0.5 87L0.5 114C0.5 116.209 2.29086 118 4.5 118L31.5 118C32.0523 118 32.4971 118.448 32.5273 119C33.0462 128.476 40.8944 136 50.5 136C60.1056 136 67.9538 128.476 68.4727 119C68.5029 118.448 68.9477 118 69.5 118L96.5 118C98.7091 118 100.5 116.209 100.5 114V87C100.5 86.4477 100.948 86.0029 101.5 85.9727C110.976 85.4538 118.5 77.6056 118.5 68C118.5 58.3944 110.976 50.5462 101.5 50.0273C100.948 49.9971 100.5 49.5523 100.5 49V22C100.5 19.7909 98.7091 18 96.5 18L69.5 18Z" fill="#D1D5DB" fill-opacity="0.2"/>
<path d="M0.5 114H1.5H0.5ZM101.5 50.0273L101.555 49.0288L101.5 50.0273ZM101.5 85.9727L101.445 84.9742L101.5 85.9727ZM32.5273 119L31.5288 119.055L32.5273 119ZM1.49996 85.9727L1.44528 84.9742L1.49996 85.9727ZM32.5273 17L31.5288 16.9454L32.5273 17ZM68.4727 119L69.4712 119.055L68.4727 119ZM68.4727 17L67.4742 17.0547L68.4727 17ZM50.5 1C59.5716 1 66.9842 8.10603 67.4742 17.0547L69.4712 16.9454C68.9235 6.94204 60.6396 -1 50.5 -1V1ZM33.5258 17.0547C34.0158 8.10603 41.4284 1 50.5 1V-1C40.3604 -1 32.0765 6.94204 31.5288 16.9454L33.5258 17.0547ZM31.5 17L4.5 17V19L31.5 19V17ZM4.5 17C1.73858 17 -0.5 19.2386 -0.5 22H1.5C1.5 20.3431 2.84315 19 4.5 19V17ZM-0.5 22L-0.5 49H1.5L1.5 22H-0.5ZM1.44528 51.0258C10.394 51.5158 17.5 58.9284 17.5 68H19.5C19.5 57.8604 11.558 49.5765 1.55463 49.0288L1.44528 51.0258ZM17.5 68C17.5 77.0716 10.394 84.4842 1.44528 84.9742L1.55463 86.9712C11.558 86.4235 19.5 78.1396 19.5 68H17.5ZM-0.5 87L-0.5 114H1.5L1.5 87H-0.5ZM-0.5 114C-0.5 116.761 1.73858 119 4.5 119V117C2.84315 117 1.5 115.657 1.5 114H-0.5ZM4.5 119L31.5 119V117L4.5 117V119ZM31.5288 119.055C32.0765 129.058 40.3604 137 50.5 137V135C41.4284 135 34.0158 127.894 33.5258 118.945L31.5288 119.055ZM50.5 137C60.6396 137 68.9235 129.058 69.4712 119.055L67.4742 118.945C66.9842 127.894 59.5716 135 50.5 135V137ZM69.5 119L96.5 119V117L69.5 117V119ZM96.5 119C99.2614 119 101.5 116.761 101.5 114H99.5C99.5 115.657 98.1569 117 96.5 117V119ZM101.5 114V87H99.5V114H101.5ZM101.555 86.9712C111.558 86.4235 119.5 78.1396 119.5 68H117.5C117.5 77.0716 110.394 84.4842 101.445 84.9742L101.555 86.9712ZM119.5 68C119.5 57.8604 111.558 49.5765 101.555 49.0288L101.445 51.0258C110.394 51.5158 117.5 58.9284 117.5 68H119.5ZM101.5 49V22H99.5V49H101.5ZM101.5 22C101.5 19.2386 99.2614 17 96.5 17V19C98.1569 19 99.5 20.3431 99.5 22H101.5ZM96.5 17L69.5 17V19L96.5 19V17ZM101.555 49.0288C101.533 49.0276 101.516 49.0187 101.506 49.0081C101.501 49.0033 101.5 49.0001 101.5 48.9999C101.5 48.9998 101.5 49.0001 101.5 49.0006C101.5 49.0012 101.5 49.0012 101.5 49H99.5C99.5 50.1183 100.399 50.9685 101.445 51.0258L101.555 49.0288ZM101.5 87C101.5 86.9988 101.5 86.9988 101.5 86.9993C101.5 86.9999 101.5 87.0002 101.5 87.0001C101.5 86.9999 101.501 86.9967 101.506 86.9919C101.516 86.9813 101.533 86.9724 101.555 86.9712L101.445 84.9742C100.399 85.0315 99.5 85.8817 99.5 87H101.5ZM31.5 119C31.5012 119 31.5012 119 31.5007 119C31.5001 119 31.4998 119 31.4999 119C31.5001 119 31.5033 119.001 31.5081 119.006C31.5187 119.016 31.5276 119.033 31.5288 119.055L33.5258 118.945C33.4685 117.899 32.6183 117 31.5 117V119ZM-0.5 49C-0.5 50.1183 0.399211 50.9685 1.44528 51.0258L1.55463 49.0288C1.53335 49.0276 1.5164 49.0187 1.506 49.0081C1.50127 49.0033 1.49985 49.0001 1.49977 48.9999C1.49974 48.9998 1.49987 49.0001 1.49998 49.0007C1.5001 49.0012 1.5 49.0012 1.5 49H-0.5ZM1.44528 84.9742C0.399214 85.0315 -0.5 85.8817 -0.5 87H1.5C1.5 86.9988 1.5001 86.9988 1.49998 86.9994C1.49987 86.9999 1.49974 87.0002 1.49977 87.0001C1.49985 86.9999 1.50127 86.9967 1.506 86.9919C1.5164 86.9813 1.53335 86.9724 1.55463 86.9712L1.44528 84.9742ZM31.5288 16.9454C31.5276 16.9667 31.5187 16.9836 31.5081 16.994C31.5033 16.9987 31.5001 17.0002 31.4999 17.0002C31.4998 17.0003 31.5001 17.0001 31.5006 17C31.5012 16.9999 31.5012 17 31.5 17V19C32.6183 19 33.4685 18.1008 33.5258 17.0547L31.5288 16.9454ZM69.4712 119.055C69.4724 119.033 69.4813 119.016 69.4919 119.006C69.4967 119.001 69.4999 119 69.5001 119C69.5002 119 69.4999 119 69.4994 119C69.4988 119 69.4988 119 69.5 119V117C68.3817 117 67.5315 117.899 67.4742 118.945L69.4712 119.055ZM67.4742 17.0547C67.5315 18.1008 68.3817 19 69.5 19V17C69.4988 17 69.4988 16.9999 69.4994 17C69.4999 17.0001 69.5002 17.0003 69.5001 17.0002C69.4999 17.0002 69.4967 16.9987 69.4919 16.994C69.4813 16.9836 69.4724 16.9666 69.4712 16.9454L67.4742 17.0547Z" fill="#D1D5DB" mask="url(#path-1-inside-1_673_10154)"/>
<path d="M39.4113 89.108C39.0513 89.108 38.6873 89.064 38.3193 88.976C37.9593 88.888 37.6233 88.736 37.3113 88.52C37.2313 88.464 37.1753 88.4 37.1433 88.328C37.1113 88.248 37.0993 88.172 37.1073 88.1C37.1233 88.02 37.1553 87.952 37.2033 87.896C37.2593 87.84 37.3233 87.808 37.3953 87.8C37.4753 87.784 37.5633 87.8 37.6593 87.848C37.9713 88.04 38.2713 88.176 38.5593 88.256C38.8553 88.328 39.1473 88.364 39.4353 88.364C39.8913 88.364 40.2353 88.28 40.4673 88.112C40.6993 87.944 40.8153 87.716 40.8153 87.428C40.8153 87.204 40.7393 87.028 40.5873 86.9C40.4353 86.764 40.1953 86.66 39.8673 86.588L38.7753 86.348C38.2713 86.244 37.8953 86.064 37.6473 85.808C37.4073 85.552 37.2873 85.22 37.2873 84.812C37.2873 84.452 37.3793 84.144 37.5633 83.888C37.7553 83.624 38.0233 83.42 38.3673 83.276C38.7113 83.132 39.1113 83.06 39.5673 83.06C39.9193 83.06 40.2513 83.108 40.5633 83.204C40.8833 83.292 41.1713 83.436 41.4273 83.636C41.5073 83.692 41.5593 83.76 41.5833 83.84C41.6153 83.912 41.6193 83.988 41.5953 84.068C41.5793 84.14 41.5433 84.204 41.4873 84.26C41.4313 84.308 41.3633 84.336 41.2833 84.344C41.2033 84.352 41.1193 84.328 41.0313 84.272C40.7913 84.112 40.5473 83.996 40.2993 83.924C40.0513 83.844 39.8073 83.804 39.5673 83.804C39.1193 83.804 38.7793 83.892 38.5473 84.068C38.3153 84.244 38.1993 84.476 38.1993 84.764C38.1993 84.988 38.2713 85.172 38.4153 85.316C38.5593 85.46 38.7833 85.564 39.0873 85.628L40.1793 85.856C40.6993 85.968 41.0873 86.148 41.3433 86.396C41.6073 86.636 41.7393 86.964 41.7393 87.38C41.7393 87.908 41.5273 88.328 41.1033 88.64C40.6793 88.952 40.1153 89.108 39.4113 89.108ZM45.6926 89.108C45.1086 89.108 44.6046 88.98 44.1806 88.724C43.7566 88.468 43.4286 88.112 43.1966 87.656C42.9726 87.192 42.8606 86.656 42.8606 86.048C42.8606 85.584 42.9246 85.168 43.0526 84.8C43.1806 84.432 43.3686 84.12 43.6166 83.864C43.8646 83.6 44.1606 83.4 44.5046 83.264C44.8566 83.128 45.2526 83.06 45.6926 83.06C45.9806 83.06 46.2806 83.104 46.5926 83.192C46.9046 83.28 47.1886 83.432 47.4446 83.648C47.5246 83.704 47.5766 83.772 47.6006 83.852C47.6246 83.932 47.6246 84.012 47.6006 84.092C47.5766 84.164 47.5366 84.228 47.4806 84.284C47.4246 84.332 47.3526 84.36 47.2646 84.368C47.1846 84.376 47.1006 84.348 47.0126 84.284C46.8046 84.124 46.5926 84.012 46.3766 83.948C46.1606 83.884 45.9526 83.852 45.7526 83.852C45.4406 83.852 45.1686 83.904 44.9366 84.008C44.7046 84.104 44.5086 84.244 44.3486 84.428C44.1886 84.612 44.0646 84.84 43.9766 85.112C43.8966 85.384 43.8566 85.7 43.8566 86.06C43.8566 86.756 44.0206 87.308 44.3486 87.716C44.6766 88.116 45.1446 88.316 45.7526 88.316C45.9526 88.316 46.1566 88.284 46.3646 88.22C46.5806 88.156 46.7966 88.044 47.0126 87.884C47.1006 87.82 47.1846 87.792 47.2646 87.8C47.3446 87.808 47.4126 87.84 47.4686 87.896C47.5246 87.944 47.5606 88.008 47.5766 88.088C47.6006 88.168 47.6006 88.248 47.5766 88.328C47.5526 88.4 47.5006 88.464 47.4206 88.52C47.1646 88.728 46.8846 88.88 46.5806 88.976C46.2766 89.064 45.9806 89.108 45.6926 89.108ZM50.8393 89.108C50.3673 89.108 49.9753 89.024 49.6633 88.856C49.3593 88.68 49.1273 88.42 48.9673 88.076C48.8153 87.732 48.7393 87.304 48.7393 86.792V83.576C48.7393 83.408 48.7793 83.284 48.8593 83.204C48.9473 83.124 49.0673 83.084 49.2193 83.084C49.3793 83.084 49.4993 83.124 49.5793 83.204C49.6673 83.284 49.7113 83.408 49.7113 83.576V86.78C49.7113 87.292 49.8153 87.676 50.0233 87.932C50.2393 88.18 50.5753 88.304 51.0313 88.304C51.5273 88.304 51.9313 88.136 52.2433 87.8C52.5553 87.464 52.7113 87.024 52.7113 86.48V83.576C52.7113 83.408 52.7513 83.284 52.8313 83.204C52.9193 83.124 53.0433 83.084 53.2033 83.084C53.3553 83.084 53.4713 83.124 53.5513 83.204C53.6393 83.284 53.6833 83.408 53.6833 83.576V88.58C53.6833 88.916 53.5273 89.084 53.2153 89.084C53.0633 89.084 52.9433 89.04 52.8553 88.952C52.7753 88.864 52.7353 88.74 52.7353 88.58V87.488L52.8913 87.656C52.7313 88.128 52.4673 88.488 52.0993 88.736C51.7393 88.984 51.3193 89.108 50.8393 89.108ZM57.2778 89.108C56.7018 89.108 56.2618 88.932 55.9578 88.58C55.6538 88.228 55.5018 87.724 55.5018 87.068V80.948C55.5018 80.788 55.5418 80.668 55.6218 80.588C55.7018 80.5 55.8218 80.456 55.9818 80.456C56.1338 80.456 56.2538 80.5 56.3418 80.588C56.4298 80.668 56.4738 80.788 56.4738 80.948V86.996C56.4738 87.428 56.5578 87.752 56.7258 87.968C56.9018 88.176 57.1578 88.28 57.4938 88.28C57.5658 88.28 57.6298 88.276 57.6858 88.268C57.7418 88.26 57.7978 88.256 57.8538 88.256C57.9418 88.248 58.0018 88.268 58.0338 88.316C58.0738 88.364 58.0938 88.46 58.0938 88.604C58.0938 88.748 58.0618 88.856 57.9978 88.928C57.9338 89 57.8298 89.048 57.6858 89.072C57.6218 89.08 57.5538 89.088 57.4818 89.096C57.4098 89.104 57.3418 89.108 57.2778 89.108ZM61.622 89.108C61.006 89.108 60.474 88.988 60.026 88.748C59.586 88.5 59.242 88.152 58.994 87.704C58.754 87.256 58.634 86.72 58.634 86.096C58.634 85.488 58.754 84.96 58.994 84.512C59.234 84.056 59.562 83.7 59.978 83.444C60.402 83.188 60.89 83.06 61.442 83.06C61.834 83.06 62.186 83.128 62.498 83.264C62.81 83.392 63.074 83.58 63.29 83.828C63.514 84.076 63.682 84.376 63.794 84.728C63.914 85.08 63.974 85.476 63.974 85.916C63.974 86.044 63.938 86.14 63.866 86.204C63.794 86.26 63.69 86.288 63.554 86.288H59.378V85.652H63.326L63.134 85.808C63.134 85.376 63.07 85.012 62.942 84.716C62.814 84.412 62.626 84.18 62.378 84.02C62.138 83.86 61.834 83.78 61.466 83.78C61.058 83.78 60.71 83.876 60.422 84.068C60.142 84.252 59.93 84.512 59.786 84.848C59.642 85.176 59.57 85.56 59.57 86V86.072C59.57 86.808 59.746 87.368 60.098 87.752C60.458 88.136 60.966 88.328 61.622 88.328C61.894 88.328 62.162 88.292 62.426 88.22C62.698 88.148 62.962 88.028 63.218 87.86C63.33 87.788 63.43 87.756 63.518 87.764C63.614 87.764 63.69 87.792 63.746 87.848C63.802 87.896 63.838 87.96 63.854 88.04C63.878 88.112 63.87 88.192 63.83 88.28C63.798 88.368 63.73 88.444 63.626 88.508C63.362 88.7 63.05 88.848 62.69 88.952C62.33 89.056 61.974 89.108 61.622 89.108Z" fill="#030712"/>
<path d="M42.8284 68.4431C42.8284 68.4431 42.1919 67.4106 42.8284 66.5597L57.8609 66.1769C57.8609 66.1769 59.0487 66.8572 58.2153 68.4431C57.7166 69.3881 54.7722 70.0575 50.5219 70.0575C46.2716 70.0575 43.2287 69.1628 42.8284 68.4431Z" fill="#E6A467"/>
<path d="M42.8066 66.5575C42.8066 66.2053 45.0181 64.3766 45.0181 64.3766C46.4094 63.6919 54.6978 63.8625 55.9819 64.3766C55.9819 64.3766 58.1934 66.1397 58.1934 66.5575C58.1934 67.2597 54.7241 68.1456 50.4759 68.1456C46.2278 68.1456 42.8066 67.2619 42.8066 66.5575Z" fill="#F7CF92"/>
<path d="M45.0181 50.3941V64.0069C45.0181 64.2584 45.1647 64.4881 45.3966 64.5909C45.9981 64.86 47.4353 65.2844 50.5 65.2844C53.5647 65.2844 55.0019 64.86 55.6034 64.5909C55.716 64.5403 55.8116 64.4583 55.8788 64.3547C55.9459 64.2511 55.9817 64.1303 55.9819 64.0069V50.3941H45.0181Z" fill="url(#paint0_linear_673_10154)"/>
<path d="M45.0181 50.7856V50.3284L55.9819 50.7856C55.9819 51.5425 53.5275 52.1572 50.5 52.1572C47.4725 52.1572 45.0181 51.5425 45.0181 50.7856Z" fill="#0D47A1"/>
<path opacity="0.32" d="M44.9766 64.4116C44.5828 65.4528 44.8409 66.5291 45.4119 67.485C45.9828 68.4409 46.8294 69.1956 47.6781 69.9197C47.1203 69.9503 46.5756 69.7294 46.0988 69.4384C44.7075 68.5831 43.8281 67.1591 43.6794 65.5337" fill="url(#paint1_radial_673_10154)"/>
<path d="M52.6459 71.3438C50.9616 71.3438 49.4216 71.1228 48.0806 70.6809C45.7991 69.9306 44.2197 68.5788 43.6356 66.8747C42.6994 64.1447 44.7491 59.0938 45.8516 56.3813C46.1338 55.6878 46.3547 55.1409 46.4444 54.8413C46.4563 54.8009 46.4761 54.7633 46.5025 54.7306C46.529 54.6978 46.5616 54.6706 46.5986 54.6505C46.6356 54.6304 46.6761 54.6178 46.718 54.6134C46.7598 54.6089 46.8021 54.6128 46.8425 54.6247C46.8829 54.6366 46.9205 54.6564 46.9532 54.6828C46.9859 54.7093 47.0131 54.7419 47.0332 54.7789C47.0534 54.8159 47.066 54.8564 47.0704 54.8983C47.0748 54.9401 47.071 54.9825 47.0591 55.0228C46.9606 55.3531 46.7331 55.9131 46.4466 56.6219C45.3769 59.2578 43.3863 64.1622 44.2459 66.6669C45.1975 69.4406 49.5594 71.86 57.0844 70.3441C57.2572 70.3113 57.4781 70.3113 57.5525 70.4709C57.6356 70.6481 57.4759 70.8144 57.3009 70.8494C55.6625 71.1797 54.1006 71.3438 52.6459 71.3438Z" fill="#0091EA"/>
<path d="M45.0181 50.394C45.0181 50.394 43.745 49.7378 42.8131 48.7753L57.9966 48.9765C57.4103 49.845 55.9797 50.7506 55.9797 50.7506C55.9797 50.7506 54.9844 51.2428 50.4038 51.2428C45.8231 51.2428 45.0181 50.394 45.0181 50.394Z" fill="#C87D5E"/>
<path d="M42.8131 48.7753C42.1963 48.2656 42.5288 46.5834 42.9247 46.3669C44.1825 45.6778 55.8047 45.4634 57.9638 46.2684C58.7163 46.5506 58.6309 48.1628 58.2 48.7753C57.6422 49.565 54.7569 50.0484 50.5066 50.0484C46.2563 50.0484 43.7581 49.5562 42.8131 48.7753Z" fill="#E6A467"/>
<path d="M50.5 48.165C54.749 48.165 58.1934 47.4775 58.1934 46.6294C58.1934 45.7813 54.749 45.0938 50.5 45.0938C46.251 45.0938 42.8066 45.7813 42.8066 46.6294C42.8066 47.4775 46.251 48.165 50.5 48.165Z" fill="#F7CF92"/>
<path d="M50.5 46.8984C51.4834 46.8984 52.2806 46.6565 52.2806 46.3581C52.2806 46.0597 51.4834 45.8178 50.5 45.8178C49.5166 45.8178 48.7194 46.0597 48.7194 46.3581C48.7194 46.6565 49.5166 46.8984 50.5 46.8984Z" fill="#784D30"/>
<path d="M45.0925 52.2688V51.5228C46.0834 52.1572 47.2975 52.5881 49.8131 52.5991L49.7431 53.2947C47.4178 53.3822 45.9128 53.0147 45.0925 52.2688Z" fill="url(#paint2_linear_673_10154)"/>
<path d="M45.0925 54.1369L45.0816 53.369C46.0309 53.9969 47.2756 54.4365 49.8153 54.4497L49.7584 55.1453C47.385 55.259 45.8866 54.8215 45.0925 54.1369Z" fill="url(#paint3_linear_673_10154)"/>
<path d="M45.0903 56.005L45.0663 55.2153C45.9741 55.8387 47.2494 56.285 49.8131 56.2981L49.7694 56.9937C47.35 57.1359 45.8603 56.6306 45.0903 56.005Z" fill="url(#paint4_linear_673_10154)"/>
<path d="M45.0903 57.8753L45.0553 57.0638C45.9216 57.6806 47.2297 58.1356 49.8131 58.1488L49.7803 58.8444C47.315 59.0128 45.8341 58.4375 45.0903 57.8753Z" fill="url(#paint5_linear_673_10154)"/>
<path d="M45.0903 59.7435L45.0444 58.9122C45.8691 59.5225 47.2078 59.9863 49.8153 60.0016L49.7956 60.6972C47.2822 60.8897 45.8078 60.2444 45.0903 59.7435Z" fill="url(#paint6_linear_673_10154)"/>
<path d="M45.0881 61.6115L45.0312 60.7584C45.8144 61.3644 47.1859 61.8347 49.8153 61.85L49.8088 62.5456C47.2472 62.7644 45.7794 62.0512 45.0881 61.6115Z" fill="url(#paint7_linear_673_10154)"/>
<path d="M45.0881 63.4797L45.0181 62.6047C45.7597 63.204 47.1619 63.6831 49.8131 63.6984L49.8175 64.394C47.2144 64.6412 45.7531 63.8581 45.0881 63.4797Z" fill="url(#paint8_linear_673_10154)"/>
<path d="M55.9819 52.19V51.5162C54.9909 52.1506 53.7506 52.5881 51.2328 52.599L51.3028 53.2947C53.7506 53.3384 55.1222 53.0453 55.9819 52.19Z" fill="url(#paint9_linear_673_10154)"/>
<path d="M55.9775 54.0712L55.9819 53.3647C55.0063 53.9794 53.7725 54.4344 51.2328 54.4475L51.3028 55.1431C53.7134 55.2219 55.1463 54.8587 55.9775 54.0712Z" fill="url(#paint10_linear_673_10154)"/>
<path d="M55.9753 55.9525L55.9819 55.2153C55.0216 55.8103 53.7944 56.285 51.2328 56.2981L51.3006 56.9937C53.6763 57.1075 55.1703 56.6722 55.9753 55.9525Z" fill="url(#paint11_linear_673_10154)"/>
<path d="M55.9709 57.8338L55.9819 57.0638C55.0369 57.6391 53.8184 58.1334 51.2328 58.1466L51.3006 58.8422C53.6391 58.9909 55.1944 58.4856 55.9709 57.8338Z" fill="url(#paint12_linear_673_10154)"/>
<path d="M55.9666 59.7172L55.9819 58.9166C55.0522 59.4722 53.8403 59.9841 51.2328 59.9994L51.3006 60.695C53.6019 60.8766 55.2184 60.2991 55.9666 59.7172Z" fill="url(#paint13_linear_673_10154)"/>
<path d="M55.9622 61.5985L55.9819 60.765C55.0653 61.301 53.8622 61.8325 51.2328 61.8478L51.3006 62.5435C53.5647 62.76 55.2447 62.1125 55.9622 61.5985Z" fill="url(#paint14_linear_673_10154)"/>
<path d="M55.96 63.4797L55.9819 62.6156C55.0806 63.1319 53.8841 63.6831 51.2328 63.6984L51.3006 64.3941C53.5275 64.6456 55.2688 63.9259 55.96 63.4797Z" fill="url(#paint15_linear_673_10154)"/>
<defs>
<linearGradient id="paint0_linear_673_10154" x1="53.447" y1="57.839" x2="56.014" y2="57.839" gradientUnits="userSpaceOnUse">
<stop offset="0.038" stop-color="#0091EA"/>
<stop offset="1" stop-color="#01579B"/>
</linearGradient>
<radialGradient id="paint1_radial_673_10154" cx="0" cy="0" r="1" gradientUnits="userSpaceOnUse" gradientTransform="translate(46.1428 66.892) rotate(-28.4281) scale(1.93107 4.08469)">
<stop offset="0.59" stop-color="#784D30" stop-opacity="0"/>
<stop offset="0.834" stop-color="#784D30"/>
</radialGradient>
<linearGradient id="paint2_linear_673_10154" x1="45.0927" y1="52.4149" x2="49.814" y2="52.4149" gradientUnits="userSpaceOnUse">
<stop offset="0.019" stop-color="#40C4FF" stop-opacity="0"/>
<stop offset="0.49" stop-color="#40C4FF"/>
<stop offset="0.994" stop-color="#40C4FF" stop-opacity="0"/>
</linearGradient>
<linearGradient id="paint3_linear_673_10154" x1="45.0802" y1="54.2664" x2="49.814" y2="54.2664" gradientUnits="userSpaceOnUse">
<stop offset="0.019" stop-color="#40C4FF" stop-opacity="0"/>
<stop offset="0.49" stop-color="#40C4FF"/>
<stop offset="0.994" stop-color="#40C4FF" stop-opacity="0"/>
</linearGradient>
<linearGradient id="paint4_linear_673_10154" x1="45.0678" y1="56.1176" x2="49.814" y2="56.1176" gradientUnits="userSpaceOnUse">
<stop offset="0.019" stop-color="#40C4FF" stop-opacity="0"/>
<stop offset="0.49" stop-color="#40C4FF"/>
<stop offset="0.994" stop-color="#40C4FF" stop-opacity="0"/>
</linearGradient>
<linearGradient id="paint5_linear_673_10154" x1="45.0553" y1="57.9692" x2="49.814" y2="57.9692" gradientUnits="userSpaceOnUse">
<stop offset="0.019" stop-color="#40C4FF" stop-opacity="0"/>
<stop offset="0.49" stop-color="#40C4FF"/>
<stop offset="0.994" stop-color="#40C4FF" stop-opacity="0"/>
</linearGradient>
<linearGradient id="paint6_linear_673_10154" x1="45.0428" y1="59.8207" x2="49.814" y2="59.8207" gradientUnits="userSpaceOnUse">
<stop offset="0.019" stop-color="#40C4FF" stop-opacity="0"/>
<stop offset="0.49" stop-color="#40C4FF"/>
<stop offset="0.994" stop-color="#40C4FF" stop-opacity="0"/>
</linearGradient>
<linearGradient id="paint7_linear_673_10154" x1="45.0306" y1="61.6721" x2="49.814" y2="61.6721" gradientUnits="userSpaceOnUse">
<stop offset="0.019" stop-color="#40C4FF" stop-opacity="0"/>
<stop offset="0.49" stop-color="#40C4FF"/>
<stop offset="0.994" stop-color="#40C4FF" stop-opacity="0"/>
</linearGradient>
<linearGradient id="paint8_linear_673_10154" x1="45.0181" y1="63.5236" x2="49.8193" y2="63.5236" gradientUnits="userSpaceOnUse">
<stop offset="0.019" stop-color="#40C4FF" stop-opacity="0"/>
<stop offset="0.49" stop-color="#40C4FF"/>
<stop offset="0.994" stop-color="#40C4FF" stop-opacity="0"/>
</linearGradient>
<linearGradient id="paint9_linear_673_10154" x1="51.4174" y1="52.4074" x2="56.0125" y2="52.4074" gradientUnits="userSpaceOnUse">
<stop stop-color="#01579B" stop-opacity="0"/>
<stop offset="1" stop-color="#01579B"/>
</linearGradient>
<linearGradient id="paint10_linear_673_10154" x1="51.459" y1="54.2605" x2="55.9919" y2="54.2605" gradientUnits="userSpaceOnUse">
<stop stop-color="#01579B" stop-opacity="0"/>
<stop offset="1" stop-color="#01579B"/>
</linearGradient>
<linearGradient id="paint11_linear_673_10154" x1="51.5003" y1="56.1141" x2="55.9712" y2="56.1141" gradientUnits="userSpaceOnUse">
<stop stop-color="#01579B" stop-opacity="0"/>
<stop offset="1" stop-color="#01579B"/>
</linearGradient>
<linearGradient id="paint12_linear_673_10154" x1="51.5417" y1="57.9681" x2="55.9506" y2="57.9681" gradientUnits="userSpaceOnUse">
<stop stop-color="#01579B" stop-opacity="0"/>
<stop offset="1" stop-color="#01579B"/>
</linearGradient>
<linearGradient id="paint13_linear_673_10154" x1="51.583" y1="59.8224" x2="55.93" y2="59.8224" gradientUnits="userSpaceOnUse">
<stop stop-color="#01579B" stop-opacity="0"/>
<stop offset="1" stop-color="#01579B"/>
</linearGradient>
<linearGradient id="paint14_linear_673_10154" x1="51.6246" y1="61.6768" x2="55.9093" y2="61.6768" gradientUnits="userSpaceOnUse">
<stop stop-color="#01579B" stop-opacity="0"/>
<stop offset="1" stop-color="#01579B"/>
</linearGradient>
<linearGradient id="paint15_linear_673_10154" x1="51.6659" y1="63.5311" x2="55.8887" y2="63.5311" gradientUnits="userSpaceOnUse">
<stop stop-color="#01579B" stop-opacity="0"/>
<stop offset="1" stop-color="#01579B"/>
</linearGradient>
</defs>
</svg>
