<svg width="137" height="118" viewBox="0 0 137 118" fill="none" xmlns="http://www.w3.org/2000/svg">
<mask id="path-1-inside-1_673_10155" fill="white">
<path fill-rule="evenodd" clip-rule="evenodd" d="M87.5 18C86.9477 18 86.5029 17.5515 86.4727 17C85.9538 7.52403 78.1056 0 68.5 0C58.8944 0 51.0462 7.52403 50.5273 17C50.4971 17.5515 50.0523 18 49.5 18L22.5 18C20.2909 18 18.5 19.7909 18.5 22L18.5 49C18.5 49.5523 18.0515 49.9971 17.5 50.0273C8.02403 50.5462 0.5 58.3944 0.5 68C0.5 77.6056 8.02403 85.4538 17.5 85.9727C18.0515 86.0029 18.5 86.4477 18.5 87L18.5 114C18.5 116.209 20.2909 118 22.5 118L49.5 118C50.0523 118 50.4971 117.552 50.5273 117C51.0462 107.524 58.8944 100 68.5 100C78.1056 100 85.9538 107.524 86.4727 117C86.5029 117.552 86.9477 118 87.5 118L114.5 118C116.709 118 118.5 116.209 118.5 114V86C118.5 85.4477 118.948 85.0029 119.5 84.9727C128.976 84.4538 136.5 76.6056 136.5 67C136.5 57.3944 128.976 49.5462 119.5 49.0273C118.948 48.9971 118.5 48.5523 118.5 48L118.5 22C118.5 19.7909 116.709 18 114.5 18L87.5 18Z"/>
</mask>
<path fill-rule="evenodd" clip-rule="evenodd" d="M87.5 18C86.9477 18 86.5029 17.5515 86.4727 17C85.9538 7.52403 78.1056 0 68.5 0C58.8944 0 51.0462 7.52403 50.5273 17C50.4971 17.5515 50.0523 18 49.5 18L22.5 18C20.2909 18 18.5 19.7909 18.5 22L18.5 49C18.5 49.5523 18.0515 49.9971 17.5 50.0273C8.02403 50.5462 0.5 58.3944 0.5 68C0.5 77.6056 8.02403 85.4538 17.5 85.9727C18.0515 86.0029 18.5 86.4477 18.5 87L18.5 114C18.5 116.209 20.2909 118 22.5 118L49.5 118C50.0523 118 50.4971 117.552 50.5273 117C51.0462 107.524 58.8944 100 68.5 100C78.1056 100 85.9538 107.524 86.4727 117C86.5029 117.552 86.9477 118 87.5 118L114.5 118C116.709 118 118.5 116.209 118.5 114V86C118.5 85.4477 118.948 85.0029 119.5 84.9727C128.976 84.4538 136.5 76.6056 136.5 67C136.5 57.3944 128.976 49.5462 119.5 49.0273C118.948 48.9971 118.5 48.5523 118.5 48L118.5 22C118.5 19.7909 116.709 18 114.5 18L87.5 18Z" fill="#FFFFFF" fill-opacity="1"/>
<path d="M18.5 22L17.5 22L17.5 22L18.5 22ZM18.5 114L17.5 114V114H18.5ZM119.5 49.0273L119.555 48.0288L119.5 49.0273ZM119.5 84.9727L119.445 83.9742L119.5 84.9727ZM50.5273 117L49.5288 116.945L50.5273 117ZM18.5 49L17.5 49L18.5 49ZM17.5 50.0273L17.5547 51.0258L17.5 50.0273ZM17.5 85.9727L17.4454 86.9712L17.5 85.9727ZM18.5 87L17.5 87L18.5 87ZM50.5273 17L49.5288 16.9454L50.5273 17ZM86.4727 117L87.4712 116.945L86.4727 117ZM86.4727 17L85.4742 17.0547L86.4727 17ZM68.5 1C77.5716 1 84.9842 8.10603 85.4742 17.0547L87.4712 16.9454C86.9235 6.94204 78.6396 -1 68.5 -1V1ZM51.5258 17.0547C52.0158 8.10603 59.4284 1 68.5 1V-1C58.3604 -1 50.0765 6.94204 49.5288 16.9454L51.5258 17.0547ZM49.5 17L22.5 17V19L49.5 19V17ZM22.5 17C19.7386 17 17.5 19.2386 17.5 22H19.5C19.5 20.3431 20.8431 19 22.5 19V17ZM17.5 22L17.5 49L19.5 49L19.5 22L17.5 22ZM17.4454 49.0288C7.44204 49.5765 -0.5 57.8604 -0.5 68H1.5C1.5 58.9284 8.60603 51.5158 17.5547 51.0258L17.4454 49.0288ZM-0.5 68C-0.5 78.1396 7.44204 86.4235 17.4454 86.9712L17.5547 84.9742C8.60603 84.4842 1.5 77.0716 1.5 68H-0.5ZM17.5 87L17.5 114L19.5 114L19.5 87L17.5 87ZM17.5 114C17.5 116.761 19.7386 119 22.5 119V117C20.8431 117 19.5 115.657 19.5 114H17.5ZM22.5 119L49.5 119V117L22.5 117V119ZM51.5258 117.055C52.0158 108.106 59.4284 101 68.5 101V99C58.3604 99 50.0765 106.942 49.5288 116.945L51.5258 117.055ZM68.5 101C77.5716 101 84.9842 108.106 85.4742 117.055L87.4712 116.945C86.9235 106.942 78.6396 99 68.5 99V101ZM87.5 119L114.5 119V117L87.5 117V119ZM114.5 119C117.261 119 119.5 116.761 119.5 114H117.5C117.5 115.657 116.157 117 114.5 117V119ZM119.5 114V86H117.5V114H119.5ZM119.555 85.9712C129.558 85.4235 137.5 77.1396 137.5 67H135.5C135.5 76.0716 128.394 83.4842 119.445 83.9742L119.555 85.9712ZM137.5 67C137.5 56.8604 129.558 48.5765 119.555 48.0288L119.445 50.0258C128.394 50.5158 135.5 57.9284 135.5 67H137.5ZM119.5 48L119.5 22H117.5L117.5 48H119.5ZM119.5 22C119.5 19.2386 117.261 17 114.5 17V19C116.157 19 117.5 20.3431 117.5 22H119.5ZM114.5 17L87.5 17V19L114.5 19V17ZM119.555 48.0288C119.533 48.0276 119.516 48.0187 119.506 48.0081C119.501 48.0033 119.5 48.0001 119.5 47.9999C119.5 47.9998 119.5 48.0001 119.5 48.0006C119.5 48.0012 119.5 48.0012 119.5 48H117.5C117.5 49.1183 118.399 49.9685 119.445 50.0258L119.555 48.0288ZM119.5 86C119.5 85.9988 119.5 85.9988 119.5 85.9994C119.5 85.9999 119.5 86.0002 119.5 86.0001C119.5 85.9999 119.501 85.9967 119.506 85.9919C119.516 85.9813 119.533 85.9724 119.555 85.9712L119.445 83.9742C118.399 84.0315 117.5 84.8817 117.5 86H119.5ZM49.5 119C50.6183 119 51.4685 118.101 51.5258 117.055L49.5288 116.945C49.5276 116.967 49.5187 116.984 49.5081 116.994C49.5033 116.999 49.5001 117 49.4999 117C49.4998 117 49.5001 117 49.5007 117C49.5012 117 49.5012 117 49.5 117V119ZM17.5 49C17.5 49.0012 17.4999 49.0012 17.5 49.0007C17.5001 49.0001 17.5003 48.9998 17.5002 48.9999C17.5002 49.0001 17.4987 49.0033 17.494 49.0081C17.4836 49.0187 17.4667 49.0276 17.4454 49.0288L17.5547 51.0258C18.6008 50.9685 19.5 50.1183 19.5 49L17.5 49ZM17.4454 86.9712C17.4666 86.9724 17.4836 86.9813 17.494 86.9919C17.4987 86.9967 17.5002 86.9999 17.5002 87.0001C17.5003 87.0002 17.5001 86.9999 17.5 86.9994C17.4999 86.9988 17.5 86.9988 17.5 87L19.5 87C19.5 85.8817 18.6008 85.0315 17.5547 84.9742L17.4454 86.9712ZM49.5288 16.9454C49.5276 16.9667 49.5187 16.9836 49.5081 16.994C49.5033 16.9987 49.5001 17.0002 49.4999 17.0002C49.4998 17.0003 49.5001 17.0001 49.5006 17C49.5012 16.9999 49.5012 17 49.5 17V19C50.6183 19 51.4685 18.1008 51.5258 17.0547L49.5288 16.9454ZM85.4742 117.055C85.5315 118.101 86.3817 119 87.5 119V117C87.4988 117 87.4988 117 87.4994 117C87.4999 117 87.5002 117 87.5001 117C87.4999 117 87.4967 116.999 87.4919 116.994C87.4813 116.984 87.4724 116.967 87.4712 116.945L85.4742 117.055ZM85.4742 17.0547C85.5315 18.1008 86.3817 19 87.5 19V17C87.4988 17 87.4988 16.9999 87.4994 17C87.4999 17.0001 87.5002 17.0003 87.5001 17.0002C87.4999 17.0002 87.4967 16.9987 87.4919 16.994C87.4813 16.9836 87.4724 16.9666 87.4712 16.9454L85.4742 17.0547Z" fill="#D1D5DB" mask="url(#path-1-inside-1_673_10155)"/>
<path d="M22.4191 89.108C22.0591 89.108 21.6951 89.064 21.3271 88.976C20.9671 88.888 20.6311 88.736 20.3191 88.52C20.2391 88.464 20.1831 88.4 20.1511 88.328C20.1191 88.248 20.1071 88.172 20.1151 88.1C20.1311 88.02 20.1631 87.952 20.2111 87.896C20.2671 87.84 20.3311 87.808 20.4031 87.8C20.4831 87.784 20.5711 87.8 20.6671 87.848C20.9791 88.04 21.2791 88.176 21.5671 88.256C21.8631 88.328 22.1551 88.364 22.4431 88.364C22.8991 88.364 23.2431 88.28 23.4751 88.112C23.7071 87.944 23.8231 87.716 23.8231 87.428C23.8231 87.204 23.7471 87.028 23.5951 86.9C23.4431 86.764 23.2031 86.66 22.8751 86.588L21.7831 86.348C21.2791 86.244 20.9031 86.064 20.6551 85.808C20.4151 85.552 20.2951 85.22 20.2951 84.812C20.2951 84.452 20.3871 84.144 20.5711 83.888C20.7631 83.624 21.0311 83.42 21.3751 83.276C21.7191 83.132 22.1191 83.06 22.5751 83.06C22.9271 83.06 23.2591 83.108 23.5711 83.204C23.8911 83.292 24.1791 83.436 24.4351 83.636C24.5151 83.692 24.5671 83.76 24.5911 83.84C24.6231 83.912 24.6271 83.988 24.6031 84.068C24.5871 84.14 24.5511 84.204 24.4951 84.26C24.4391 84.308 24.3711 84.336 24.2911 84.344C24.2111 84.352 24.1271 84.328 24.0391 84.272C23.7991 84.112 23.5551 83.996 23.3071 83.924C23.0591 83.844 22.8151 83.804 22.5751 83.804C22.1271 83.804 21.7871 83.892 21.5551 84.068C21.3231 84.244 21.2071 84.476 21.2071 84.764C21.2071 84.988 21.2791 85.172 21.4231 85.316C21.5671 85.46 21.7911 85.564 22.0951 85.628L23.1871 85.856C23.7071 85.968 24.0951 86.148 24.3511 86.396C24.6151 86.636 24.7471 86.964 24.7471 87.38C24.7471 87.908 24.5351 88.328 24.1111 88.64C23.6871 88.952 23.1231 89.108 22.4191 89.108ZM28.8564 89.108C28.2404 89.108 27.7084 88.988 27.2604 88.748C26.8204 88.5 26.4764 88.152 26.2284 87.704C25.9884 87.256 25.8684 86.72 25.8684 86.096C25.8684 85.488 25.9884 84.96 26.2284 84.512C26.4684 84.056 26.7964 83.7 27.2124 83.444C27.6364 83.188 28.1244 83.06 28.6764 83.06C29.0684 83.06 29.4204 83.128 29.7324 83.264C30.0444 83.392 30.3084 83.58 30.5244 83.828C30.7484 84.076 30.9164 84.376 31.0284 84.728C31.1484 85.08 31.2084 85.476 31.2084 85.916C31.2084 86.044 31.1724 86.14 31.1004 86.204C31.0284 86.26 30.9244 86.288 30.7884 86.288H26.6124V85.652H30.5604L30.3684 85.808C30.3684 85.376 30.3044 85.012 30.1764 84.716C30.0484 84.412 29.8604 84.18 29.6124 84.02C29.3724 83.86 29.0684 83.78 28.7004 83.78C28.2924 83.78 27.9444 83.876 27.6564 84.068C27.3764 84.252 27.1644 84.512 27.0204 84.848C26.8764 85.176 26.8044 85.56 26.8044 86V86.072C26.8044 86.808 26.9804 87.368 27.3324 87.752C27.6924 88.136 28.2004 88.328 28.8564 88.328C29.1284 88.328 29.3964 88.292 29.6604 88.22C29.9324 88.148 30.1964 88.028 30.4524 87.86C30.5644 87.788 30.6644 87.756 30.7524 87.764C30.8484 87.764 30.9244 87.792 30.9804 87.848C31.0364 87.896 31.0724 87.96 31.0884 88.04C31.1124 88.112 31.1044 88.192 31.0644 88.28C31.0324 88.368 30.9644 88.444 30.8604 88.508C30.5964 88.7 30.2844 88.848 29.9244 88.952C29.5644 89.056 29.2084 89.108 28.8564 89.108ZM33.1071 89.084C32.9471 89.084 32.8231 89.04 32.7351 88.952C32.6551 88.864 32.6151 88.74 32.6151 88.58V83.576C32.6151 83.416 32.6551 83.296 32.7351 83.216C32.8151 83.128 32.9311 83.084 33.0831 83.084C33.2351 83.084 33.3511 83.128 33.4311 83.216C33.5191 83.296 33.5631 83.416 33.5631 83.576V84.548H33.4431C33.5711 84.076 33.8151 83.712 34.1751 83.456C34.5351 83.2 34.9791 83.064 35.5071 83.048C35.6271 83.04 35.7231 83.068 35.7951 83.132C35.8671 83.188 35.9071 83.288 35.9151 83.432C35.9231 83.568 35.8911 83.676 35.8191 83.756C35.7471 83.836 35.6351 83.884 35.4831 83.9L35.2911 83.924C34.7471 83.972 34.3271 84.148 34.0311 84.452C33.7431 84.748 33.5991 85.156 33.5991 85.676V88.58C33.5991 88.74 33.5551 88.864 33.4671 88.952C33.3871 89.04 33.2671 89.084 33.1071 89.084ZM39.4512 89.084C39.3152 89.084 39.1952 89.048 39.0912 88.976C38.9872 88.896 38.8992 88.776 38.8272 88.616L36.7512 83.768C36.6952 83.648 36.6752 83.536 36.6912 83.432C36.7072 83.328 36.7552 83.244 36.8352 83.18C36.9152 83.116 37.0272 83.084 37.1712 83.084C37.2992 83.084 37.3992 83.112 37.4712 83.168C37.5432 83.224 37.6072 83.324 37.6632 83.468L39.6312 88.28H39.3072L41.3112 83.468C41.3672 83.324 41.4312 83.224 41.5032 83.168C41.5752 83.112 41.6792 83.084 41.8152 83.084C41.9432 83.084 42.0392 83.116 42.1032 83.18C42.1752 83.244 42.2152 83.328 42.2232 83.432C42.2392 83.528 42.2232 83.636 42.1752 83.756L40.0752 88.616C40.0192 88.776 39.9352 88.896 39.8232 88.976C39.7192 89.048 39.5952 89.084 39.4512 89.084ZM46.0009 89.108C45.3849 89.108 44.8529 88.988 44.4049 88.748C43.9649 88.5 43.6209 88.152 43.3729 87.704C43.1329 87.256 43.0129 86.72 43.0129 86.096C43.0129 85.488 43.1329 84.96 43.3729 84.512C43.6129 84.056 43.9409 83.7 44.3569 83.444C44.7809 83.188 45.2689 83.06 45.8209 83.06C46.2129 83.06 46.5649 83.128 46.8769 83.264C47.1889 83.392 47.4529 83.58 47.6689 83.828C47.8929 84.076 48.0609 84.376 48.1729 84.728C48.2929 85.08 48.3529 85.476 48.3529 85.916C48.3529 86.044 48.3169 86.14 48.2449 86.204C48.1729 86.26 48.0689 86.288 47.9329 86.288H43.7569V85.652H47.7049L47.5129 85.808C47.5129 85.376 47.4489 85.012 47.3209 84.716C47.1929 84.412 47.0049 84.18 46.7569 84.02C46.5169 83.86 46.2129 83.78 45.8449 83.78C45.4369 83.78 45.0889 83.876 44.8009 84.068C44.5209 84.252 44.3089 84.512 44.1649 84.848C44.0209 85.176 43.9489 85.56 43.9489 86V86.072C43.9489 86.808 44.1249 87.368 44.4769 87.752C44.8369 88.136 45.3449 88.328 46.0009 88.328C46.2729 88.328 46.5409 88.292 46.8049 88.22C47.0769 88.148 47.3409 88.028 47.5969 87.86C47.7089 87.788 47.8089 87.756 47.8969 87.764C47.9929 87.764 48.0689 87.792 48.1249 87.848C48.1809 87.896 48.2169 87.96 48.2329 88.04C48.2569 88.112 48.2489 88.192 48.2089 88.28C48.1769 88.368 48.1089 88.444 48.0049 88.508C47.7409 88.7 47.4289 88.848 47.0689 88.952C46.7089 89.056 46.3529 89.108 46.0009 89.108ZM50.1766 86.204C50.0566 86.204 49.9566 86.168 49.8766 86.096C49.7966 86.016 49.7566 85.92 49.7566 85.808C49.7566 85.688 49.7966 85.592 49.8766 85.52C49.9566 85.44 50.0566 85.4 50.1766 85.4H52.8766C52.9886 85.4 53.0846 85.44 53.1646 85.52C53.2446 85.592 53.2846 85.688 53.2846 85.808C53.2846 85.92 53.2446 86.016 53.1646 86.096C53.0846 86.168 52.9886 86.204 52.8766 86.204H50.1766ZM55.4545 91.244C55.2945 91.244 55.1745 91.2 55.0945 91.112C55.0145 91.032 54.9745 90.912 54.9745 90.752V83.576C54.9745 83.416 55.0145 83.296 55.0945 83.216C55.1745 83.128 55.2905 83.084 55.4425 83.084C55.6025 83.084 55.7225 83.128 55.8025 83.216C55.8905 83.296 55.9345 83.416 55.9345 83.576V84.716L55.8025 84.548C55.9305 84.092 56.1825 83.732 56.5585 83.468C56.9425 83.196 57.3985 83.06 57.9265 83.06C58.4465 83.06 58.8985 83.184 59.2825 83.432C59.6745 83.672 59.9745 84.02 60.1825 84.476C60.3985 84.924 60.5065 85.46 60.5065 86.084C60.5065 86.7 60.3985 87.236 60.1825 87.692C59.9745 88.14 59.6785 88.488 59.2945 88.736C58.9105 88.984 58.4545 89.108 57.9265 89.108C57.3985 89.108 56.9465 88.976 56.5705 88.712C56.1945 88.44 55.9385 88.08 55.8025 87.632H55.9465V90.752C55.9465 90.912 55.9025 91.032 55.8145 91.112C55.7265 91.2 55.6065 91.244 55.4545 91.244ZM57.7225 88.328C58.0905 88.328 58.4065 88.24 58.6705 88.064C58.9425 87.888 59.1505 87.632 59.2945 87.296C59.4465 86.96 59.5225 86.556 59.5225 86.084C59.5225 85.356 59.3585 84.8 59.0305 84.416C58.7105 84.032 58.2745 83.84 57.7225 83.84C57.3625 83.84 57.0465 83.928 56.7745 84.104C56.5025 84.272 56.2905 84.524 56.1385 84.86C55.9945 85.188 55.9225 85.596 55.9225 86.084C55.9225 86.804 56.0865 87.36 56.4145 87.752C56.7425 88.136 57.1785 88.328 57.7225 88.328ZM63.7466 89.108C63.1706 89.108 62.7306 88.932 62.4266 88.58C62.1226 88.228 61.9706 87.724 61.9706 87.068V80.948C61.9706 80.788 62.0106 80.668 62.0906 80.588C62.1706 80.5 62.2906 80.456 62.4506 80.456C62.6026 80.456 62.7226 80.5 62.8106 80.588C62.8986 80.668 62.9426 80.788 62.9426 80.948V86.996C62.9426 87.428 63.0266 87.752 63.1946 87.968C63.3706 88.176 63.6266 88.28 63.9626 88.28C64.0346 88.28 64.0986 88.276 64.1546 88.268C64.2106 88.26 64.2666 88.256 64.3226 88.256C64.4106 88.248 64.4706 88.268 64.5026 88.316C64.5426 88.364 64.5626 88.46 64.5626 88.604C64.5626 88.748 64.5306 88.856 64.4666 88.928C64.4026 89 64.2986 89.048 64.1546 89.072C64.0906 89.08 64.0226 89.088 63.9506 89.096C63.8786 89.104 63.8106 89.108 63.7466 89.108ZM67.3574 89.108C66.9574 89.108 66.5974 89.032 66.2774 88.88C65.9654 88.72 65.7174 88.504 65.5334 88.232C65.3494 87.96 65.2574 87.656 65.2574 87.32C65.2574 86.888 65.3654 86.548 65.5814 86.3C65.8054 86.052 66.1694 85.876 66.6734 85.772C67.1854 85.668 67.8814 85.616 68.7614 85.616H69.3014V86.252H68.7734C68.1254 86.252 67.6134 86.284 67.2374 86.348C66.8694 86.404 66.6094 86.504 66.4574 86.648C66.3134 86.792 66.2414 86.996 66.2414 87.26C66.2414 87.588 66.3534 87.856 66.5774 88.064C66.8094 88.272 67.1214 88.376 67.5134 88.376C67.8334 88.376 68.1134 88.3 68.3534 88.148C68.6014 87.996 68.7934 87.788 68.9294 87.524C69.0734 87.26 69.1454 86.956 69.1454 86.612V85.244C69.1454 84.748 69.0454 84.392 68.8454 84.176C68.6454 83.952 68.3174 83.84 67.8614 83.84C67.5814 83.84 67.3014 83.876 67.0214 83.948C66.7414 84.02 66.4454 84.136 66.1334 84.296C66.0214 84.352 65.9254 84.372 65.8454 84.356C65.7654 84.332 65.7014 84.288 65.6534 84.224C65.6054 84.16 65.5774 84.088 65.5694 84.008C65.5614 83.92 65.5774 83.836 65.6174 83.756C65.6654 83.676 65.7374 83.612 65.8334 83.564C66.1854 83.388 66.5334 83.26 66.8774 83.18C67.2214 83.1 67.5494 83.06 67.8614 83.06C68.3654 83.06 68.7814 83.144 69.1094 83.312C69.4374 83.472 69.6814 83.72 69.8414 84.056C70.0014 84.384 70.0814 84.808 70.0814 85.328V88.58C70.0814 88.74 70.0414 88.864 69.9614 88.952C69.8894 89.04 69.7814 89.084 69.6374 89.084C69.4854 89.084 69.3694 89.04 69.2894 88.952C69.2094 88.864 69.1694 88.74 69.1694 88.58V87.644H69.2774C69.2134 87.948 69.0894 88.208 68.9054 88.424C68.7294 88.64 68.5094 88.808 68.2454 88.928C67.9814 89.048 67.6854 89.108 67.3574 89.108ZM74.3567 89.108C73.7727 89.108 73.2687 88.98 72.8447 88.724C72.4207 88.468 72.0927 88.112 71.8607 87.656C71.6367 87.192 71.5247 86.656 71.5247 86.048C71.5247 85.584 71.5887 85.168 71.7167 84.8C71.8447 84.432 72.0327 84.12 72.2807 83.864C72.5287 83.6 72.8247 83.4 73.1687 83.264C73.5207 83.128 73.9167 83.06 74.3567 83.06C74.6447 83.06 74.9447 83.104 75.2567 83.192C75.5687 83.28 75.8527 83.432 76.1087 83.648C76.1887 83.704 76.2407 83.772 76.2647 83.852C76.2887 83.932 76.2887 84.012 76.2647 84.092C76.2407 84.164 76.2007 84.228 76.1447 84.284C76.0887 84.332 76.0167 84.36 75.9287 84.368C75.8487 84.376 75.7647 84.348 75.6767 84.284C75.4687 84.124 75.2567 84.012 75.0407 83.948C74.8247 83.884 74.6167 83.852 74.4167 83.852C74.1047 83.852 73.8327 83.904 73.6007 84.008C73.3687 84.104 73.1727 84.244 73.0127 84.428C72.8527 84.612 72.7287 84.84 72.6407 85.112C72.5607 85.384 72.5207 85.7 72.5207 86.06C72.5207 86.756 72.6847 87.308 73.0127 87.716C73.3407 88.116 73.8087 88.316 74.4167 88.316C74.6167 88.316 74.8207 88.284 75.0287 88.22C75.2447 88.156 75.4607 88.044 75.6767 87.884C75.7647 87.82 75.8487 87.792 75.9287 87.8C76.0087 87.808 76.0767 87.84 76.1327 87.896C76.1887 87.944 76.2247 88.008 76.2407 88.088C76.2647 88.168 76.2647 88.248 76.2407 88.328C76.2167 88.4 76.1647 88.464 76.0847 88.52C75.8287 88.728 75.5487 88.88 75.2447 88.976C74.9407 89.064 74.6447 89.108 74.3567 89.108ZM79.9502 89.108C79.3342 89.108 78.8022 88.988 78.3542 88.748C77.9142 88.5 77.5702 88.152 77.3222 87.704C77.0822 87.256 76.9622 86.72 76.9622 86.096C76.9622 85.488 77.0822 84.96 77.3222 84.512C77.5622 84.056 77.8902 83.7 78.3062 83.444C78.7302 83.188 79.2182 83.06 79.7702 83.06C80.1622 83.06 80.5142 83.128 80.8262 83.264C81.1382 83.392 81.4022 83.58 81.6182 83.828C81.8422 84.076 82.0102 84.376 82.1222 84.728C82.2422 85.08 82.3022 85.476 82.3022 85.916C82.3022 86.044 82.2662 86.14 82.1942 86.204C82.1222 86.26 82.0182 86.288 81.8822 86.288H77.7062V85.652H81.6542L81.4622 85.808C81.4622 85.376 81.3982 85.012 81.2702 84.716C81.1422 84.412 80.9542 84.18 80.7062 84.02C80.4662 83.86 80.1622 83.78 79.7942 83.78C79.3862 83.78 79.0382 83.876 78.7502 84.068C78.4702 84.252 78.2582 84.512 78.1142 84.848C77.9702 85.176 77.8982 85.56 77.8982 86V86.072C77.8982 86.808 78.0742 87.368 78.4262 87.752C78.7862 88.136 79.2942 88.328 79.9502 88.328C80.2222 88.328 80.4902 88.292 80.7542 88.22C81.0262 88.148 81.2902 88.028 81.5462 87.86C81.6582 87.788 81.7582 87.756 81.8462 87.764C81.9422 87.764 82.0182 87.792 82.0742 87.848C82.1302 87.896 82.1662 87.96 82.1822 88.04C82.2062 88.112 82.1982 88.192 82.1582 88.28C82.1262 88.368 82.0582 88.444 81.9542 88.508C81.6902 88.7 81.3782 88.848 81.0182 88.952C80.6582 89.056 80.3022 89.108 79.9502 89.108ZM84.1889 89.084C84.0289 89.084 83.9089 89.04 83.8289 88.952C83.7489 88.864 83.7089 88.74 83.7089 88.58V80.948C83.7089 80.788 83.7489 80.668 83.8289 80.588C83.9089 80.5 84.0289 80.456 84.1889 80.456C84.3409 80.456 84.4609 80.5 84.5489 80.588C84.6369 80.668 84.6809 80.788 84.6809 80.948V84.464H84.5249C84.6929 84 84.9649 83.652 85.3409 83.42C85.7249 83.18 86.1649 83.06 86.6609 83.06C87.1249 83.06 87.5089 83.144 87.8129 83.312C88.1249 83.48 88.3569 83.736 88.5089 84.08C88.6609 84.416 88.7369 84.844 88.7369 85.364V88.58C88.7369 88.74 88.6929 88.864 88.6049 88.952C88.5249 89.04 88.4089 89.084 88.2569 89.084C88.0969 89.084 87.9729 89.04 87.8849 88.952C87.8049 88.864 87.7649 88.74 87.7649 88.58V85.424C87.7649 84.88 87.6569 84.484 87.4409 84.236C87.2329 83.98 86.8969 83.852 86.4329 83.852C85.8969 83.852 85.4689 84.02 85.1489 84.356C84.8369 84.684 84.6809 85.124 84.6809 85.676V88.58C84.6809 88.916 84.5169 89.084 84.1889 89.084ZM92.9532 89.108C92.3852 89.108 91.8932 88.984 91.4772 88.736C91.0612 88.488 90.7372 88.14 90.5052 87.692C90.2812 87.236 90.1692 86.7 90.1692 86.084C90.1692 85.62 90.2332 85.204 90.3612 84.836C90.4892 84.46 90.6772 84.14 90.9252 83.876C91.1732 83.612 91.4652 83.412 91.8012 83.276C92.1452 83.132 92.5292 83.06 92.9532 83.06C93.5212 83.06 94.0132 83.184 94.4292 83.432C94.8452 83.68 95.1652 84.032 95.3892 84.488C95.6212 84.936 95.7372 85.468 95.7372 86.084C95.7372 86.548 95.6732 86.964 95.5452 87.332C95.4172 87.7 95.2292 88.02 94.9812 88.292C94.7332 88.556 94.4372 88.76 94.0932 88.904C93.7572 89.04 93.3772 89.108 92.9532 89.108ZM92.9532 88.328C93.3132 88.328 93.6292 88.24 93.9012 88.064C94.1732 87.888 94.3812 87.632 94.5252 87.296C94.6772 86.96 94.7532 86.556 94.7532 86.084C94.7532 85.356 94.5892 84.8 94.2612 84.416C93.9412 84.032 93.5052 83.84 92.9532 83.84C92.5852 83.84 92.2652 83.928 91.9932 84.104C91.7292 84.272 91.5212 84.524 91.3692 84.86C91.2252 85.188 91.1532 85.596 91.1532 86.084C91.1532 86.804 91.3172 87.36 91.6452 87.752C91.9732 88.136 92.4092 88.328 92.9532 88.328ZM98.9732 89.108C98.3972 89.108 97.9572 88.932 97.6532 88.58C97.3492 88.228 97.1972 87.724 97.1972 87.068V80.948C97.1972 80.788 97.2372 80.668 97.3172 80.588C97.3972 80.5 97.5172 80.456 97.6772 80.456C97.8292 80.456 97.9492 80.5 98.0372 80.588C98.1252 80.668 98.1692 80.788 98.1692 80.948V86.996C98.1692 87.428 98.2532 87.752 98.4212 87.968C98.5972 88.176 98.8532 88.28 99.1892 88.28C99.2612 88.28 99.3252 88.276 99.3812 88.268C99.4372 88.26 99.4932 88.256 99.5492 88.256C99.6372 88.248 99.6972 88.268 99.7292 88.316C99.7692 88.364 99.7892 88.46 99.7892 88.604C99.7892 88.748 99.7572 88.856 99.6932 88.928C99.6292 89 99.5252 89.048 99.3812 89.072C99.3172 89.08 99.2492 89.088 99.1772 89.096C99.1052 89.104 99.0372 89.108 98.9732 89.108ZM102.909 89.108C102.389 89.108 101.933 88.984 101.541 88.736C101.157 88.488 100.857 88.14 100.641 87.692C100.433 87.236 100.329 86.7 100.329 86.084C100.329 85.46 100.433 84.924 100.641 84.476C100.857 84.02 101.157 83.672 101.541 83.432C101.933 83.184 102.389 83.06 102.909 83.06C103.437 83.06 103.889 83.192 104.265 83.456C104.641 83.72 104.893 84.076 105.021 84.524H104.889V80.948C104.889 80.788 104.929 80.668 105.009 80.588C105.097 80.5 105.221 80.456 105.381 80.456C105.533 80.456 105.649 80.5 105.729 80.588C105.817 80.668 105.861 80.788 105.861 80.948V88.58C105.861 88.74 105.821 88.864 105.741 88.952C105.661 89.04 105.541 89.084 105.381 89.084C105.229 89.084 105.109 89.04 105.021 88.952C104.941 88.864 104.901 88.74 104.901 88.58V87.44L105.033 87.608C104.905 88.064 104.649 88.428 104.265 88.7C103.889 88.972 103.437 89.108 102.909 89.108ZM103.113 88.328C103.473 88.328 103.789 88.24 104.061 88.064C104.333 87.888 104.541 87.632 104.685 87.296C104.837 86.96 104.913 86.556 104.913 86.084C104.913 85.356 104.749 84.8 104.421 84.416C104.101 84.032 103.665 83.84 103.113 83.84C102.745 83.84 102.425 83.928 102.153 84.104C101.889 84.272 101.681 84.524 101.529 84.86C101.385 85.188 101.313 85.596 101.313 86.084C101.313 86.804 101.477 87.36 101.805 87.752C102.133 88.136 102.569 88.328 103.113 88.328ZM110.313 89.108C109.697 89.108 109.165 88.988 108.717 88.748C108.277 88.5 107.933 88.152 107.685 87.704C107.445 87.256 107.325 86.72 107.325 86.096C107.325 85.488 107.445 84.96 107.685 84.512C107.925 84.056 108.253 83.7 108.669 83.444C109.093 83.188 109.581 83.06 110.133 83.06C110.525 83.06 110.877 83.128 111.189 83.264C111.501 83.392 111.765 83.58 111.981 83.828C112.205 84.076 112.373 84.376 112.485 84.728C112.605 85.08 112.665 85.476 112.665 85.916C112.665 86.044 112.629 86.14 112.557 86.204C112.485 86.26 112.381 86.288 112.245 86.288H108.069V85.652H112.017L111.825 85.808C111.825 85.376 111.761 85.012 111.633 84.716C111.505 84.412 111.317 84.18 111.069 84.02C110.829 83.86 110.525 83.78 110.157 83.78C109.749 83.78 109.401 83.876 109.113 84.068C108.833 84.252 108.621 84.512 108.477 84.848C108.333 85.176 108.261 85.56 108.261 86V86.072C108.261 86.808 108.437 87.368 108.789 87.752C109.149 88.136 109.657 88.328 110.313 88.328C110.585 88.328 110.853 88.292 111.117 88.22C111.389 88.148 111.653 88.028 111.909 87.86C112.021 87.788 112.121 87.756 112.209 87.764C112.305 87.764 112.381 87.792 112.437 87.848C112.493 87.896 112.529 87.96 112.545 88.04C112.569 88.112 112.561 88.192 112.521 88.28C112.489 88.368 112.421 88.444 112.317 88.508C112.053 88.7 111.741 88.848 111.381 88.952C111.021 89.056 110.665 89.108 110.313 89.108ZM114.564 89.084C114.404 89.084 114.28 89.04 114.192 88.952C114.112 88.864 114.072 88.74 114.072 88.58V83.576C114.072 83.416 114.112 83.296 114.192 83.216C114.272 83.128 114.388 83.084 114.54 83.084C114.692 83.084 114.808 83.128 114.888 83.216C114.976 83.296 115.02 83.416 115.02 83.576V84.548H114.9C115.028 84.076 115.272 83.712 115.632 83.456C115.992 83.2 116.436 83.064 116.964 83.048C117.084 83.04 117.18 83.068 117.252 83.132C117.324 83.188 117.364 83.288 117.372 83.432C117.38 83.568 117.348 83.676 117.276 83.756C117.204 83.836 117.092 83.884 116.94 83.9L116.748 83.924C116.204 83.972 115.784 84.148 115.488 84.452C115.2 84.748 115.056 85.156 115.056 85.676V88.58C115.056 88.74 115.012 88.864 114.924 88.952C114.844 89.04 114.724 89.084 114.564 89.084Z" fill="#030712"/>
<g clip-path="url(#clip0_673_10155)">
<path d="M62.2197 64.65L60.2138 63.6L59.3869 61.6553L57.8403 60.1656C57.8403 60.1656 57.6916 59.8353 57.6347 59.5772C57.5866 59.3541 57.5866 58.8662 57.5866 58.8662L56.1778 57.2278L55.69 56.0662L55.4384 54.8303C55.4384 54.8303 56.1275 55.2394 56.6153 55.5937C57.1031 55.9481 57.7156 56.2872 57.7156 56.2872L57.9125 54.6509L58.4003 52.715L59.26 52.2775C59.26 52.2775 59.3431 51.7044 59.8659 51.1991C60.3888 50.6937 61.0778 50.475 61.0778 50.475L63.8909 50.3066L66.2994 50.1206L68.6575 48.6047C68.6575 48.6047 69.7009 48.4691 70.7969 48.7403C71.8928 49.0116 74.5856 50.4072 74.5856 50.4072L78.2563 50.6259L79.0656 51.5184C79.0656 51.5184 79.9975 51.8816 80.6822 52.3781C81.3034 52.8266 81.3581 53.0978 81.3581 53.0978L80.6997 56.2019L78.1403 60.1766L74.8131 61.5875L67.3778 64.8075L66.7259 65.9231L63.9041 65.3325L62.2197 64.65Z" fill="#B7885A"/>
<path d="M61.3228 57.2541C61.3228 57.2541 60.6556 57.4772 60.2794 57.2541C59.8856 57.0222 59.5947 56.6744 59.5072 55.7797C59.3956 54.6291 59.8156 53.7716 59.8156 53.7716L60.8897 53.0978L61.8172 53.2663L64.1556 51.4769H67.0191L68.1981 51.3085L71.44 51.14L75.9878 52.446L77.5672 54.3403L76.9984 56.11L76.5981 56.425C76.5981 56.425 76.3663 56.8931 75.3928 57.4335C74.8766 57.72 74.4084 57.9825 74.4084 57.9825C74.4084 57.9825 73.4984 58.5053 71.6566 58.6322C70.4928 58.7131 69.2328 58.4988 68.7406 58.5556C68.2419 58.6125 67.2291 59.481 64.7506 59.0675C63.6766 58.8881 66.5159 58.6322 65.4659 58.326C64.4181 58.0219 61.3228 57.2541 61.3228 57.2541Z" fill="#8C6238"/>
<path d="M77.5125 59.1353C77.5125 59.1353 77.1822 58.9297 77.3266 58.5162C77.4709 58.1028 77.7706 57.9891 78.4203 57.5887C79.0678 57.1862 79.6103 56.7728 80.0653 55.9919C80.6778 54.9397 81.3538 53.0847 81.3538 53.0847C81.3538 53.0847 81.7322 53.9487 81.5156 55.4428C81.3778 56.3987 81.0628 56.9697 81.0628 56.9697C81.0628 56.9697 81.0213 58.2887 80.8769 58.805C80.7325 59.3212 80.2163 60.2903 80.2163 60.2903L78.7441 62.1147C78.7441 62.1147 78.7178 63.0356 78.0025 63.7509C77.5935 64.16 76.7447 64.6084 76.2897 64.7222C75.3272 64.965 74.3231 65.4506 73.5794 65.8487C73.155 66.0741 71.2606 67.1962 70.1778 67.5112C68.2769 68.0625 67.2772 67.2116 66.855 67.0125C66.6363 66.9097 65.8663 66.5794 65.4944 66.3322C65.1225 66.085 64.7922 65.7962 64.7922 65.7962C64.7922 65.7962 63.3703 65.7766 63.0181 65.5075C62.6681 65.2384 63.4097 64.6216 63.4097 64.6216C63.4097 64.6216 64.09 65.0962 64.9563 65.3237C65.8225 65.5512 66.5028 65.6541 66.5444 65.385C66.5859 65.1159 65.8422 65.035 65.1619 64.7047C64.4816 64.3744 63.8209 64.0025 63.5956 63.7969C63.3681 63.5912 63.3681 63.2609 63.4928 63.0553C63.6175 62.8497 63.8647 62.7053 64.2978 62.8694C64.7309 63.0334 65.4747 63.46 66.1747 63.7159C66.855 63.9631 67.5769 64.2322 67.7213 63.7356C67.8656 63.2391 67.2269 63.1384 66.7106 62.8497C66.1944 62.5609 65.7 62.2525 65.5141 62.0666C65.3281 61.8806 65.2866 61.5306 65.5556 61.2834C65.8247 61.0362 66.2972 61.1587 66.2972 61.1587L68.7516 61.9419L71.1841 61.9834L73.2053 60.9947L73.8856 60.8306L74.6491 60.4587L77.5125 59.1353ZM57.825 60.1306C57.825 60.1306 57.9847 59.96 58.1488 60.1241C58.3128 60.2881 58.9319 61.1566 59.715 61.3622C60.4981 61.5678 60.9816 61.5066 61.0363 61.9747C61.0975 62.5041 60.2509 62.4691 59.6122 62.2262C58.8138 61.9222 58.4331 61.2637 58.2275 60.9334C58.0219 60.6053 57.825 60.1306 57.825 60.1306ZM57.0091 56.7575C56.7816 56.9762 56.9128 57.2891 57.2628 57.6587C57.6128 58.0284 57.9628 58.3062 58.1859 58.4441C58.4091 58.5819 58.6738 58.5403 58.7919 58.3587C58.8816 58.2187 58.8663 57.9759 58.6541 57.7856C58.4813 57.6303 58.2297 57.3612 57.8469 57.0331C57.6588 56.8712 57.3481 56.4272 57.0091 56.7575Z" fill="#A2764A"/>
<path d="M71.5428 63.3944C71.5319 63.751 71.9103 63.8866 72.9537 63.7334C74.1087 63.5628 74.1941 63.3266 74.1437 62.9175C74.0934 62.5085 73.4809 62.6638 72.8531 62.7644C72.2209 62.8694 71.5603 62.8519 71.5428 63.3944ZM80.3081 59.6231C80.1047 59.6231 79.4244 60.3035 78.6784 60.8131C77.9325 61.3228 77.1166 61.815 76.8781 61.9506C76.6397 62.0863 76.4866 62.3575 76.5894 62.6134C76.6922 62.8672 77.1319 62.97 77.6087 62.7841C78.0834 62.5981 78.6981 62.2569 79.1553 61.9178C79.7503 61.476 80.26 61.0516 80.4459 60.3385C80.54 59.971 80.5116 59.6231 80.3081 59.6231Z" fill="#B7885A"/>
<path d="M70.285 59.8834C70.3813 60.03 70.565 60.1503 70.9894 59.9053C71.8906 59.3847 72.9166 58.6234 73.7128 58.0394C74.6141 57.3787 75.6116 56.4447 75.7844 56.2609C75.9572 56.0772 76.3138 55.6266 76.0666 55.4034C75.7297 55.0994 75.465 55.4647 74.9925 55.8912C74.4063 56.4228 73.5706 57.1491 73.0391 57.5734C72.5075 57.9956 70.9894 59.0172 70.8034 59.1353C70.6219 59.2556 70.0575 59.5378 70.285 59.8834ZM60.5441 56.0947C60.3056 56.2806 60.3822 56.6853 60.7803 57.0703C61.1784 57.4553 61.6225 57.9562 63.0706 58.3697C63.2522 58.4222 63.4294 58.4637 63.6 58.4987C64.8031 58.7416 65.7634 58.5928 66.1134 58.5031C66.5116 58.4003 66.8813 57.9562 66.5575 57.6456C66.3147 57.4137 64.9147 57.8753 63.3091 57.3787C61.3403 56.775 61.15 55.6222 60.5441 56.0947ZM61.0319 58.2078C60.8853 58.5272 61.0166 58.7394 61.535 58.9319C62.0534 59.1244 62.9394 59.4 63.2325 59.5662C63.6481 59.8025 63.9522 59.6625 64.0441 59.4481C64.1775 59.1375 63.9413 58.9231 63.6897 58.7984C63.3638 58.6366 62.2284 58.1641 61.8588 58.0591C61.5481 57.9737 61.1938 57.8534 61.0319 58.2078ZM73.6734 59.8966C73.5772 60.2006 73.7106 60.6359 74.9838 60.6972C76.0053 60.7453 76.8256 60.3909 77.3244 60.0781C77.845 59.75 78.1009 59.2162 77.8822 58.9734C77.6634 58.7306 77.3353 58.9494 76.8628 59.2162C76.3378 59.5116 75.7953 59.7872 74.7519 59.6778C74.2969 59.6319 73.7763 59.5816 73.6734 59.8966ZM71.6084 61.3403C71.6084 61.3403 71.0528 61.1937 70.9216 60.9466C70.7903 60.6994 70.8931 60.45 71.1403 60.3909C71.3875 60.3319 71.7244 60.5069 72.3238 60.5812C72.9231 60.6534 73.4766 60.625 73.7259 60.625C74.2225 60.625 74.2378 61.2244 73.785 61.4125C73.3322 61.6028 72.8225 61.5284 72.8225 61.5284C72.8225 61.5284 72.21 62.55 70.2238 62.4778C68.2375 62.4056 66.5422 61.4169 66.2688 61.2659C65.7875 61.0034 66.0784 60.5222 66.3847 60.5944C66.6909 60.6666 68.7931 61.6312 69.9766 61.6444C71.1556 61.6619 71.6084 61.3403 71.6084 61.3403ZM60.8875 60.8809C60.7322 61.2834 60.4019 61.2791 59.7916 60.9816C59.1813 60.6819 57.44 59.2009 56.6547 58.3806C55.8716 57.5581 55.7709 57.2737 55.7338 57.0484C55.7119 56.9062 55.6353 56.635 55.6353 56.635C55.6353 56.635 55.0141 55.9612 54.9747 55.5019C54.9266 54.9047 55.1759 54.7187 55.4734 54.8434C55.7731 54.9681 55.6353 55.2284 55.7469 55.5894C55.7972 55.7491 56.2828 56.1866 56.3572 56.4862C56.4163 56.7203 56.4578 56.8472 56.4819 56.985C56.5059 57.1228 56.9544 57.7944 58.2253 58.8028C59.3213 59.6734 60.0541 60.0234 60.3538 60.1591C60.6534 60.2947 61.0384 60.4937 60.8875 60.8809ZM57.6369 56.2303C57.6369 56.2303 56.5453 54.7647 57.23 53.1962C57.7069 52.1003 58.5359 52.1003 58.8728 52.1156C59.0828 52.1244 59.3781 52.2425 59.3366 52.6078C59.2753 53.1306 58.8947 52.9097 58.5644 53.2269C58.2406 53.5353 58.1159 54.1828 58.3259 55.1519C58.5359 56.1209 59.0106 56.7531 59.0697 57.0331C59.1266 57.3 58.9297 57.4269 58.7175 57.3131C58.5053 57.1994 57.9869 56.6984 57.6369 56.2303Z" fill="#D29B64"/>
<path d="M59.4787 63.7247C59.4787 63.7247 58.8181 64.4313 58.3697 65.6213C57.9212 66.8113 57.7878 67.7956 57.9956 68.0013C58.2034 68.2069 60.3078 67.5178 61.4278 66.6559C63.0356 65.4178 62.5828 64.2759 62.5828 64.2759C62.5828 64.2759 62.2437 63.8931 61.6575 63.6175C61.1478 63.3769 60.6337 63.2238 60.6337 63.2238C60.6337 63.2238 60.4784 62.7228 60.0125 62.3619C59.5466 62.0009 58.9428 61.7931 58.2362 61.8281C57.5297 61.8631 56.4994 62.4209 56.0334 62.9219C55.5675 63.4228 55.2066 63.9194 55.2853 64.1053C55.3969 64.3678 56.6722 63.8756 57.6369 63.8581C58.6037 63.8406 59.4787 63.7247 59.4787 63.7247Z" fill="#6E9921"/>
<path d="M59.0762 66.6822C59.2556 66.785 60.2247 65.6037 60.835 65.035C61.4322 64.4772 62.0556 63.8384 62.0556 63.8384C62.0556 63.8384 61.8653 63.7203 61.6837 63.6175C61.57 63.5541 61.3666 63.4906 61.3666 63.4906C61.3666 63.4906 60.8831 63.7444 60.2028 64.6719C59.645 65.4244 58.91 66.5881 59.0762 66.6822ZM56.6919 63.0378C56.8034 63.3156 57.2934 62.8387 58.2931 62.7206C59.2644 62.6047 60.4084 62.8081 60.4084 62.8081C60.4084 62.8081 60.2903 62.5697 60.0759 62.3881C59.8703 62.2131 59.6559 62.1103 59.6559 62.1103C59.6559 62.1103 58.6497 61.9834 57.9606 62.2372C57.3503 62.4625 56.5759 62.7512 56.6919 63.0378Z" fill="#2F7C31"/>
<path d="M78.3066 52.7697C78.0878 52.6822 77.7619 52.5772 77.5759 52.8769C77.5366 52.9403 77.5147 53.0016 77.5038 53.0563C77.1363 52.6341 76.6988 52.5378 76.6266 52.5247C76.7359 52.5444 77.9697 52.7478 77.9697 52.2578C77.9697 51.7459 77.3178 51.6366 76.6156 51.5184C75.9134 51.4025 74.7672 51.4156 74.7672 51.4156C74.7672 51.4156 75.4606 51.0919 76.2 51.0153C76.8541 50.9475 77.1975 50.9694 77.6634 51.1881C78.1316 51.4069 78.2934 51.8466 78.5428 51.8619C78.7922 51.8772 79.1663 51.6453 79.1509 51.3959C79.1356 51.1466 78.8513 50.6916 78.4269 50.3547C78.4198 50.3503 78.4132 50.3452 78.4072 50.3394C78.2125 50.1819 77.8909 50.02 77.3725 49.9259C77.285 49.9084 77.2303 49.8997 77.2303 49.8997C77.2303 49.8997 76.6966 49.3222 76.2722 48.9263C75.8478 48.5303 75.5131 48.2831 75.2638 48.2678C75.0144 48.2525 74.9772 48.4538 75.0166 48.6091C75.0516 48.7425 75.8719 49.5978 76.1147 49.8472C74.3866 49.9106 73.2906 50.6063 73.2906 50.6063C73.2906 50.6063 72.4244 50.0331 71.1031 49.7969C70.0247 49.6022 69.1563 49.8078 69.1563 49.8078C69.1563 49.8078 69.6266 49.53 69.5434 49.0094C69.4756 48.5763 68.4366 48.2569 66.9972 48.8978C65.8466 49.4097 65.3325 49.9216 65.3325 49.9216C65.3325 49.9216 64.2213 49.4534 63.74 49.2631C63.2588 49.0728 62.8038 48.795 62.6441 48.795C62.4844 48.795 62.235 49.1756 62.2634 49.2763C62.2919 49.3769 62.7753 49.8013 62.7753 49.8013C62.7753 49.8013 61.6509 49.7728 60.6709 49.7291C59.6909 49.6875 59.3125 49.6591 59.0194 49.6875C58.7263 49.7159 58.2734 50.0091 58.3172 50.2869C58.3609 50.5647 59.4853 50.5209 60.1722 50.5647C60.8591 50.6084 61.7209 50.5931 61.7209 50.5931C61.7209 50.5931 60.975 51.0306 60.5966 51.3828C60.2159 51.7328 59.9819 52.0697 60.2466 52.3913C60.5091 52.7128 60.9334 52.3322 61.2988 51.9975C61.6641 51.6606 62.0447 51.3391 62.5106 51.2231C62.9788 51.1072 63.4009 51.1509 63.4009 51.1509C63.4009 51.1509 62.6878 51.5928 62.3925 51.8663C61.9791 52.2513 61.7931 52.6691 61.7931 52.6691C61.7931 52.6691 60.8722 52.5094 60.4041 52.7566C59.9359 53.0038 59.1856 53.3319 59.1331 54.4081C59.0806 55.48 59.47 55.445 59.6013 55.4603C59.7325 55.4756 59.8791 55.1978 59.9228 54.8894C59.9666 54.5809 60.0103 54.115 60.4784 53.7497C60.9466 53.3844 61.4147 53.5156 61.4147 53.5156C61.4147 53.5156 61.1806 54.0559 61.4738 54.2309C61.7669 54.4059 61.955 54.0253 62.2481 53.7059C62.5413 53.3844 63.0006 52.8572 64.3744 52.2797C65.7481 51.7022 66.1375 51.6869 66.4766 51.6519C66.8156 51.6169 67.1044 51.5491 67.1044 51.2625C67.1044 50.9738 66.4591 50.9234 66.4591 50.9234C66.4591 50.9234 66.68 50.4488 67.3581 50.0594C68.0363 49.67 68.5613 49.6941 68.6203 49.845C68.745 50.1753 67.8 50.2453 67.7497 50.9409C67.6994 51.6366 68.6006 51.4244 69.0097 51.4069C69.4166 51.3894 70.0684 51.3872 70.7663 51.5097C71.3941 51.6191 72.1772 51.8378 72.7394 52.0456C73.5378 52.3431 73.9403 52.7938 74.1766 52.8791C74.4128 52.9644 75.3622 52.89 76.2416 53.4391C77.0334 53.9334 77.1778 54.8675 76.9088 55.4866C76.7381 55.8759 76.55 56.1669 76.5522 56.3506C76.5544 56.5344 76.7228 56.5716 76.9591 56.3856C77.6284 55.8606 78.0397 55.025 78.0681 54.6356C78.0703 54.6116 78.0681 54.5941 78.0681 54.57C78.0725 54.5219 78.0725 54.4694 78.0703 54.4169C78.0703 54.4038 78.0703 54.3884 78.0681 54.3753C78.0659 54.3359 78.0594 54.2944 78.0528 54.2528C78.0484 54.219 78.0426 54.1855 78.0353 54.1522C78.0288 54.1238 78.02 54.0953 78.0134 54.0669C78.0069 54.0472 78.0025 54.0275 77.9981 54.01C77.9697 53.9138 77.9347 53.8131 77.8866 53.7038C78.1381 53.8088 78.8097 54.1063 78.8184 54.3206C78.8425 54.7953 78.1316 55.7513 77.4884 56.2763C76.8453 56.8013 75.1872 57.4816 74.9684 57.5691C74.7497 57.6566 74.4369 57.8294 74.5091 58.1181C74.5769 58.3894 75.0319 58.4353 75.3119 58.3522C75.8566 58.1925 77.0925 57.7572 78.0572 56.9544C79.0219 56.1516 79.6519 55.095 79.7263 54.3206C79.7984 53.5441 78.5253 52.8572 78.3066 52.7697Z" fill="#D29B64"/>
</g>
<defs>
<clipPath id="clip0_673_10155">
<rect width="28" height="28" fill="white" transform="translate(54.5 44)"/>
</clipPath>
</defs>
</svg>
