<svg width="137" height="118" viewBox="0 0 137 118" fill="none" xmlns="http://www.w3.org/2000/svg">
<mask id="path-1-inside-1_673_10156" fill="white">
<path fill-rule="evenodd" clip-rule="evenodd" d="M87.5 18C86.9477 18 86.5029 17.5515 86.4727 17C85.9538 7.52403 78.1056 0 68.5 0C58.8944 0 51.0462 7.52403 50.5273 17C50.4971 17.5515 50.0523 18 49.5 18L22.5 18C20.2909 18 18.5 19.7909 18.5 22L18.5 49C18.5 49.5523 18.0515 49.9971 17.5 50.0273C8.02403 50.5462 0.499996 58.3944 0.499996 68C0.499996 77.6056 8.02403 85.4538 17.5 85.9727C18.0515 86.0029 18.5 86.4477 18.5 87L18.5 114C18.5 116.209 20.2909 118 22.5 118L49.5 118C50.0523 118 50.4971 117.552 50.5273 117C51.0462 107.524 58.8944 100 68.5 100C78.1056 100 85.9538 107.524 86.4727 117C86.5029 117.552 86.9477 118 87.5 118L114.5 118C116.709 118 118.5 116.209 118.5 114V86C118.5 85.4477 118.948 85.0029 119.5 84.9727C128.976 84.4538 136.5 76.6056 136.5 67C136.5 57.3944 128.976 49.5462 119.5 49.0273C118.948 48.9971 118.5 48.5523 118.5 48L118.5 22C118.5 19.7909 116.709 18 114.5 18L87.5 18Z"/>
</mask>
<path fill-rule="evenodd" clip-rule="evenodd" d="M87.5 18C86.9477 18 86.5029 17.5515 86.4727 17C85.9538 7.52403 78.1056 0 68.5 0C58.8944 0 51.0462 7.52403 50.5273 17C50.4971 17.5515 50.0523 18 49.5 18L22.5 18C20.2909 18 18.5 19.7909 18.5 22L18.5 49C18.5 49.5523 18.0515 49.9971 17.5 50.0273C8.02403 50.5462 0.499996 58.3944 0.499996 68C0.499996 77.6056 8.02403 85.4538 17.5 85.9727C18.0515 86.0029 18.5 86.4477 18.5 87L18.5 114C18.5 116.209 20.2909 118 22.5 118L49.5 118C50.0523 118 50.4971 117.552 50.5273 117C51.0462 107.524 58.8944 100 68.5 100C78.1056 100 85.9538 107.524 86.4727 117C86.5029 117.552 86.9477 118 87.5 118L114.5 118C116.709 118 118.5 116.209 118.5 114V86C118.5 85.4477 118.948 85.0029 119.5 84.9727C128.976 84.4538 136.5 76.6056 136.5 67C136.5 57.3944 128.976 49.5462 119.5 49.0273C118.948 48.9971 118.5 48.5523 118.5 48L118.5 22C118.5 19.7909 116.709 18 114.5 18L87.5 18Z" fill="#FFFFFF" fill-opacity="1"/>
<path d="M18.5 22L17.5 22L17.5 22L18.5 22ZM18.5 114L17.5 114V114H18.5ZM119.5 49.0273L119.555 48.0288L119.5 49.0273ZM119.5 84.9727L119.445 83.9742L119.5 84.9727ZM50.5273 117L49.5288 116.945L50.5273 117ZM18.5 49L17.5 49L18.5 49ZM17.5 50.0273L17.5547 51.0258L17.5 50.0273ZM17.5 85.9727L17.4454 86.9712L17.5 85.9727ZM18.5 87L17.5 87L18.5 87ZM50.5273 17L49.5288 16.9454L50.5273 17ZM86.4727 117L87.4712 116.945L86.4727 117ZM86.4727 17L85.4742 17.0547L86.4727 17ZM68.5 1C77.5716 1 84.9842 8.10603 85.4742 17.0547L87.4712 16.9454C86.9235 6.94204 78.6395 -1 68.5 -1V1ZM51.5258 17.0547C52.0158 8.10603 59.4284 1 68.5 1V-1C58.3604 -1 50.0765 6.94204 49.5288 16.9454L51.5258 17.0547ZM49.5 17L22.5 17V19L49.5 19V17ZM22.5 17C19.7386 17 17.5 19.2386 17.5 22H19.5C19.5 20.3431 20.8431 19 22.5 19V17ZM17.5 22L17.5 49L19.5 49L19.5 22L17.5 22ZM17.4454 49.0288C7.44204 49.5765 -0.500004 57.8604 -0.500004 68H1.5C1.5 58.9284 8.60602 51.5158 17.5547 51.0258L17.4454 49.0288ZM-0.500004 68C-0.500004 78.1396 7.44204 86.4235 17.4454 86.9712L17.5547 84.9742C8.60602 84.4842 1.5 77.0716 1.5 68H-0.500004ZM17.5 87L17.5 114L19.5 114L19.5 87L17.5 87ZM17.5 114C17.5 116.761 19.7386 119 22.5 119V117C20.8431 117 19.5 115.657 19.5 114H17.5ZM22.5 119L49.5 119V117L22.5 117V119ZM51.5258 117.055C52.0158 108.106 59.4284 101 68.5 101V99C58.3604 99 50.0765 106.942 49.5288 116.945L51.5258 117.055ZM68.5 101C77.5716 101 84.9842 108.106 85.4742 117.055L87.4712 116.945C86.9235 106.942 78.6395 99 68.5 99V101ZM87.5 119L114.5 119V117L87.5 117V119ZM114.5 119C117.261 119 119.5 116.761 119.5 114H117.5C117.5 115.657 116.157 117 114.5 117V119ZM119.5 114V86H117.5V114H119.5ZM119.555 85.9712C129.558 85.4235 137.5 77.1396 137.5 67H135.5C135.5 76.0716 128.394 83.4842 119.445 83.9742L119.555 85.9712ZM137.5 67C137.5 56.8604 129.558 48.5765 119.555 48.0288L119.445 50.0258C128.394 50.5158 135.5 57.9284 135.5 67H137.5ZM119.5 48L119.5 22H117.5L117.5 48H119.5ZM119.5 22C119.5 19.2386 117.261 17 114.5 17V19C116.157 19 117.5 20.3431 117.5 22H119.5ZM114.5 17L87.5 17V19L114.5 19V17ZM119.555 48.0288C119.533 48.0276 119.516 48.0187 119.506 48.0081C119.501 48.0033 119.5 48.0001 119.5 47.9999C119.5 47.9998 119.5 48.0001 119.5 48.0006C119.5 48.0012 119.5 48.0012 119.5 48H117.5C117.5 49.1183 118.399 49.9685 119.445 50.0258L119.555 48.0288ZM119.5 86C119.5 85.9988 119.5 85.9988 119.5 85.9994C119.5 85.9999 119.5 86.0002 119.5 86.0001C119.5 85.9999 119.501 85.9967 119.506 85.9919C119.516 85.9813 119.533 85.9724 119.555 85.9712L119.445 83.9742C118.399 84.0315 117.5 84.8817 117.5 86H119.5ZM49.5 119C50.6183 119 51.4685 118.101 51.5258 117.055L49.5288 116.945C49.5276 116.967 49.5187 116.984 49.5081 116.994C49.5033 116.999 49.5001 117 49.4999 117C49.4998 117 49.5001 117 49.5006 117C49.5012 117 49.5012 117 49.5 117V119ZM17.5 49C17.5 49.0012 17.4999 49.0012 17.5 49.0007C17.5001 49.0001 17.5003 48.9998 17.5002 48.9999C17.5001 49.0001 17.4987 49.0033 17.494 49.0081C17.4836 49.0187 17.4666 49.0276 17.4454 49.0288L17.5547 51.0258C18.6008 50.9685 19.5 50.1183 19.5 49L17.5 49ZM17.4454 86.9712C17.4666 86.9724 17.4836 86.9813 17.494 86.9919C17.4987 86.9967 17.5001 86.9999 17.5002 87.0001C17.5003 87.0002 17.5001 86.9999 17.5 86.9994C17.4999 86.9988 17.5 86.9988 17.5 87L19.5 87C19.5 85.8817 18.6008 85.0315 17.5547 84.9742L17.4454 86.9712ZM49.5288 16.9454C49.5276 16.9667 49.5187 16.9836 49.5081 16.994C49.5033 16.9987 49.5001 17.0002 49.4999 17.0002C49.4998 17.0003 49.5001 17.0001 49.5006 17C49.5012 16.9999 49.5012 17 49.5 17V19C50.6183 19 51.4685 18.1008 51.5258 17.0547L49.5288 16.9454ZM85.4742 117.055C85.5315 118.101 86.3817 119 87.5 119V117C87.4988 117 87.4988 117 87.4993 117C87.4999 117 87.5002 117 87.5001 117C87.4999 117 87.4967 116.999 87.4919 116.994C87.4813 116.984 87.4724 116.967 87.4712 116.945L85.4742 117.055ZM85.4742 17.0547C85.5315 18.1008 86.3817 19 87.5 19V17C87.4988 17 87.4988 16.9999 87.4993 17C87.4999 17.0001 87.5002 17.0003 87.5001 17.0002C87.4999 17.0002 87.4967 16.9987 87.4919 16.994C87.4813 16.9836 87.4724 16.9666 87.4712 16.9454L85.4742 17.0547Z" fill="#D1D5DB" mask="url(#path-1-inside-1_673_10156)"/>
<path d="M50.6613 89.108C50.3013 89.108 49.9373 89.064 49.5693 88.976C49.2093 88.888 48.8733 88.736 48.5613 88.52C48.4813 88.464 48.4253 88.4 48.3933 88.328C48.3613 88.248 48.3493 88.172 48.3573 88.1C48.3733 88.02 48.4053 87.952 48.4533 87.896C48.5093 87.84 48.5733 87.808 48.6453 87.8C48.7253 87.784 48.8133 87.8 48.9093 87.848C49.2213 88.04 49.5213 88.176 49.8093 88.256C50.1053 88.328 50.3973 88.364 50.6853 88.364C51.1413 88.364 51.4853 88.28 51.7173 88.112C51.9493 87.944 52.0653 87.716 52.0653 87.428C52.0653 87.204 51.9893 87.028 51.8373 86.9C51.6853 86.764 51.4453 86.66 51.1173 86.588L50.0253 86.348C49.5213 86.244 49.1453 86.064 48.8973 85.808C48.6573 85.552 48.5373 85.22 48.5373 84.812C48.5373 84.452 48.6293 84.144 48.8133 83.888C49.0053 83.624 49.2733 83.42 49.6173 83.276C49.9613 83.132 50.3613 83.06 50.8173 83.06C51.1693 83.06 51.5013 83.108 51.8133 83.204C52.1333 83.292 52.4213 83.436 52.6773 83.636C52.7573 83.692 52.8093 83.76 52.8333 83.84C52.8653 83.912 52.8693 83.988 52.8453 84.068C52.8293 84.14 52.7933 84.204 52.7373 84.26C52.6813 84.308 52.6133 84.336 52.5333 84.344C52.4533 84.352 52.3693 84.328 52.2813 84.272C52.0413 84.112 51.7973 83.996 51.5493 83.924C51.3013 83.844 51.0573 83.804 50.8173 83.804C50.3693 83.804 50.0293 83.892 49.7973 84.068C49.5653 84.244 49.4493 84.476 49.4493 84.764C49.4493 84.988 49.5213 85.172 49.6653 85.316C49.8093 85.46 50.0333 85.564 50.3373 85.628L51.4293 85.856C51.9493 85.968 52.3373 86.148 52.5933 86.396C52.8573 86.636 52.9893 86.964 52.9893 87.38C52.9893 87.908 52.7773 88.328 52.3533 88.64C51.9293 88.952 51.3653 89.108 50.6613 89.108ZM56.752 89.108C56.296 89.108 55.912 89.028 55.6 88.868C55.296 88.7 55.068 88.46 54.916 88.148C54.764 87.828 54.688 87.44 54.688 86.984V83.924H53.884C53.748 83.924 53.644 83.892 53.572 83.828C53.5 83.756 53.464 83.66 53.464 83.54C53.464 83.42 53.5 83.328 53.572 83.264C53.644 83.2 53.748 83.168 53.884 83.168H54.688V81.788C54.688 81.628 54.732 81.508 54.82 81.428C54.908 81.34 55.028 81.296 55.18 81.296C55.332 81.296 55.448 81.34 55.528 81.428C55.616 81.508 55.66 81.628 55.66 81.788V83.168H57.172C57.308 83.168 57.412 83.2 57.484 83.264C57.556 83.328 57.592 83.42 57.592 83.54C57.592 83.66 57.556 83.756 57.484 83.828C57.412 83.892 57.308 83.924 57.172 83.924H55.66V86.888C55.66 87.344 55.756 87.692 55.948 87.932C56.14 88.164 56.452 88.28 56.884 88.28C57.036 88.28 57.164 88.264 57.268 88.232C57.38 88.2 57.472 88.184 57.544 88.184C57.616 88.176 57.676 88.2 57.724 88.256C57.772 88.312 57.796 88.408 57.796 88.544C57.796 88.64 57.776 88.728 57.736 88.808C57.704 88.888 57.644 88.944 57.556 88.976C57.46 89.008 57.332 89.036 57.172 89.06C57.02 89.092 56.88 89.108 56.752 89.108ZM60.7687 89.108C60.2487 89.108 59.7927 88.984 59.4007 88.736C59.0167 88.488 58.7167 88.14 58.5007 87.692C58.2927 87.236 58.1887 86.7 58.1887 86.084C58.1887 85.46 58.2927 84.924 58.5007 84.476C58.7167 84.02 59.0167 83.672 59.4007 83.432C59.7927 83.184 60.2487 83.06 60.7687 83.06C61.2967 83.06 61.7487 83.192 62.1247 83.456C62.5007 83.72 62.7527 84.076 62.8807 84.524H62.7487V80.948C62.7487 80.788 62.7887 80.668 62.8687 80.588C62.9567 80.5 63.0807 80.456 63.2407 80.456C63.3927 80.456 63.5087 80.5 63.5887 80.588C63.6767 80.668 63.7207 80.788 63.7207 80.948V88.58C63.7207 88.74 63.6807 88.864 63.6007 88.952C63.5207 89.04 63.4007 89.084 63.2407 89.084C63.0887 89.084 62.9687 89.04 62.8807 88.952C62.8007 88.864 62.7607 88.74 62.7607 88.58V87.44L62.8927 87.608C62.7647 88.064 62.5087 88.428 62.1247 88.7C61.7487 88.972 61.2967 89.108 60.7687 89.108ZM60.9727 88.328C61.3327 88.328 61.6487 88.24 61.9207 88.064C62.1927 87.888 62.4007 87.632 62.5447 87.296C62.6967 86.96 62.7727 86.556 62.7727 86.084C62.7727 85.356 62.6087 84.8 62.2807 84.416C61.9607 84.032 61.5247 83.84 60.9727 83.84C60.6047 83.84 60.2847 83.928 60.0127 84.104C59.7487 84.272 59.5407 84.524 59.3887 84.86C59.2447 85.188 59.1727 85.596 59.1727 86.084C59.1727 86.804 59.3367 87.36 59.6647 87.752C59.9927 88.136 60.4287 88.328 60.9727 88.328ZM65.8328 86.204C65.7128 86.204 65.6128 86.168 65.5328 86.096C65.4528 86.016 65.4128 85.92 65.4128 85.808C65.4128 85.688 65.4528 85.592 65.5328 85.52C65.6128 85.44 65.7128 85.4 65.8328 85.4H68.5328C68.6448 85.4 68.7408 85.44 68.8208 85.52C68.9008 85.592 68.9408 85.688 68.9408 85.808C68.9408 85.92 68.9008 86.016 68.8208 86.096C68.7408 86.168 68.6448 86.204 68.5328 86.204H65.8328ZM73.4345 89.108C72.8185 89.108 72.2865 88.988 71.8385 88.748C71.3985 88.5 71.0545 88.152 70.8065 87.704C70.5665 87.256 70.4465 86.72 70.4465 86.096C70.4465 85.488 70.5665 84.96 70.8065 84.512C71.0465 84.056 71.3745 83.7 71.7905 83.444C72.2145 83.188 72.7025 83.06 73.2545 83.06C73.6465 83.06 73.9985 83.128 74.3105 83.264C74.6225 83.392 74.8865 83.58 75.1025 83.828C75.3265 84.076 75.4945 84.376 75.6065 84.728C75.7265 85.08 75.7865 85.476 75.7865 85.916C75.7865 86.044 75.7505 86.14 75.6785 86.204C75.6065 86.26 75.5025 86.288 75.3665 86.288H71.1905V85.652H75.1385L74.9465 85.808C74.9465 85.376 74.8825 85.012 74.7545 84.716C74.6265 84.412 74.4385 84.18 74.1905 84.02C73.9505 83.86 73.6465 83.78 73.2785 83.78C72.8705 83.78 72.5225 83.876 72.2345 84.068C71.9545 84.252 71.7425 84.512 71.5985 84.848C71.4545 85.176 71.3825 85.56 71.3825 86V86.072C71.3825 86.808 71.5585 87.368 71.9105 87.752C72.2705 88.136 72.7785 88.328 73.4345 88.328C73.7065 88.328 73.9745 88.292 74.2385 88.22C74.5105 88.148 74.7745 88.028 75.0305 87.86C75.1425 87.788 75.2425 87.756 75.3305 87.764C75.4265 87.764 75.5025 87.792 75.5585 87.848C75.6145 87.896 75.6505 87.96 75.6665 88.04C75.6905 88.112 75.6825 88.192 75.6425 88.28C75.6105 88.368 75.5425 88.444 75.4385 88.508C75.1745 88.7 74.8625 88.848 74.5025 88.952C74.1425 89.056 73.7865 89.108 73.4345 89.108ZM77.6733 89.084C77.5133 89.084 77.3933 89.04 77.3133 88.952C77.2333 88.864 77.1933 88.74 77.1933 88.58V83.576C77.1933 83.416 77.2333 83.296 77.3133 83.216C77.3933 83.128 77.5093 83.084 77.6613 83.084C77.8133 83.084 77.9293 83.128 78.0093 83.216C78.0973 83.296 78.1413 83.416 78.1413 83.576V84.608L78.0093 84.464C78.1773 84 78.4493 83.652 78.8253 83.42C79.2093 83.18 79.6493 83.06 80.1453 83.06C80.6093 83.06 80.9933 83.144 81.2973 83.312C81.6093 83.48 81.8413 83.736 81.9933 84.08C82.1453 84.416 82.2213 84.844 82.2213 85.364V88.58C82.2213 88.74 82.1773 88.864 82.0893 88.952C82.0093 89.04 81.8933 89.084 81.7413 89.084C81.5813 89.084 81.4573 89.04 81.3693 88.952C81.2893 88.864 81.2493 88.74 81.2493 88.58V85.424C81.2493 84.88 81.1413 84.484 80.9253 84.236C80.7173 83.98 80.3813 83.852 79.9173 83.852C79.3813 83.852 78.9533 84.02 78.6333 84.356C78.3213 84.684 78.1653 85.124 78.1653 85.676V88.58C78.1653 88.916 78.0013 89.084 77.6733 89.084ZM86.127 89.084C85.991 89.084 85.871 89.048 85.767 88.976C85.663 88.896 85.575 88.776 85.503 88.616L83.427 83.768C83.371 83.648 83.351 83.536 83.367 83.432C83.383 83.328 83.431 83.244 83.511 83.18C83.591 83.116 83.703 83.084 83.847 83.084C83.975 83.084 84.075 83.112 84.147 83.168C84.219 83.224 84.283 83.324 84.339 83.468L86.307 88.28H85.983L87.987 83.468C88.043 83.324 88.107 83.224 88.179 83.168C88.251 83.112 88.355 83.084 88.491 83.084C88.619 83.084 88.715 83.116 88.779 83.18C88.851 83.244 88.891 83.328 88.899 83.432C88.915 83.528 88.899 83.636 88.851 83.756L86.751 88.616C86.695 88.776 86.611 88.896 86.499 88.976C86.395 89.048 86.271 89.084 86.127 89.084Z" fill="#030712"/>
<path d="M71.7156 55.5609L67.6731 52.0566L69.1738 50.9409C69.1738 50.9409 73.5291 48.5019 77.6831 51.4419C81.765 54.3294 81.38 62.9153 78.2213 66.8419C75.0625 70.7684 72.8684 71.0003 71.6763 70.9609C70.4819 70.9216 70.2894 70.3441 69.1344 70.46C67.9794 70.5759 67.5944 71.23 65.4769 71.0769C63.5563 70.9369 61.9725 70.1909 61.2025 69.3444C60.4741 68.5394 71.7156 55.5609 71.7156 55.5609Z" fill="#6EA517"/>
<path d="M76.4209 51.525C76.4209 51.525 74.6862 52.2731 72.9537 52.4088C71.2191 52.5444 68.1259 52.3059 68.1259 52.3059C68.1259 52.3059 67.7869 50.5034 67.6841 50.5034C67.5812 50.5034 63.0291 48.9197 59.6953 51.4222C56.1822 54.0581 55.8366 59.1769 56.3966 61.6203C57.685 67.2356 61.8172 69.8803 61.8172 69.8803C61.8172 69.8803 65.5075 70.2894 70.1319 68.2506C74.7562 66.2119 78.7594 62.6419 78.6653 57.8491C78.5625 52.7478 76.4209 51.525 76.4209 51.525Z" fill="#87C244"/>
<path d="M62.7469 52.5094C62.1541 51.8247 60.5266 51.9778 59.2622 53.7869C57.9453 55.6681 57.8862 59.1156 58.9712 59.2097C59.8616 59.2862 60.0891 57.7791 60.6359 56.7116C61.6641 54.7078 64.1031 54.0778 62.7469 52.5094Z" fill="#E5DD9F"/>
<path d="M64.1797 51.735C63.9194 52.2775 64.7769 53.6119 67.9794 53.7103C71.3481 53.8131 72.4528 51.9363 72.0678 51.4988C71.6828 51.0613 70.4228 51.7809 68.0319 51.7569C65.6409 51.7328 64.6237 50.8141 64.1797 51.735Z" fill="#59702C"/>
<path d="M65.8444 48.0775C65.5862 48.025 64.5341 47.8456 64.4291 47.4344C64.3809 47.2397 64.6347 46.6119 65.3041 46.1481C65.9734 45.6844 66.6406 45.5575 66.7959 45.9162C66.9512 46.2772 66.8987 46.5069 66.8987 46.5856C66.8987 46.6622 67.4281 47.2812 67.7978 48.0775C68.3119 49.1822 68.5941 50.2628 68.5437 51.3697C68.5066 52.1703 68.4912 53.2991 68.0297 53.2203C67.5484 53.1394 67.6491 52.0106 67.4128 51.2144C66.8484 49.3134 65.9997 48.1103 65.8444 48.0775Z" fill="#513532"/>
<path d="M72.5666 49.3288C72.6191 49.2522 77.9413 45.9097 77.9653 45.7041C77.9894 45.4984 75.2156 45.0084 73.4678 45.6516C71.72 46.2947 69.9088 47.3294 69.0447 49.1231C68.3513 50.5625 68.3513 51.5403 68.5306 51.7722C68.6159 51.8816 72.5666 49.3288 72.5666 49.3288Z" fill="#2F7C31"/>
<path d="M71.9759 49.1231C74.3253 47.6225 77.9675 45.7041 77.9675 45.7041C77.9675 45.7041 78.0769 45.9906 77.3769 47.1959C76.4516 48.7906 74.2903 50.8469 72.105 51.49C69.7338 52.1878 68.5306 51.7722 68.5306 51.7722C68.5306 51.7722 70.1253 50.3066 71.9759 49.1231Z" fill="#4C8C19"/>
</svg>
