<svg width="119" height="118" viewBox="0 0 119 118" fill="none" xmlns="http://www.w3.org/2000/svg">
<mask id="path-1-inside-1_673_10158" fill="white">
<path fill-rule="evenodd" clip-rule="evenodd" d="M69.5 0C68.9477 0 68.5029 0.448498 68.4727 0.999957C67.9538 10.476 60.1056 18 50.5 18C40.8944 18 33.0462 10.476 32.5273 0.999956C32.4971 0.448497 32.0523 0 31.5 0L4.5 0C2.29086 0 0.5 1.79086 0.5 4L0.5 31C0.5 31.5523 0.948498 31.9971 1.49996 32.0273C10.976 32.5462 18.5 40.3944 18.5 50C18.5 59.6056 10.976 67.4538 1.49996 67.9727C0.948497 68.0029 0.5 68.4477 0.5 69L0.5 96C0.5 98.2091 2.29086 100 4.5 100H31.5C32.0523 100 32.4971 100.448 32.5273 101C33.0462 110.476 40.8944 118 50.5 118C60.1056 118 67.9538 110.476 68.4727 101C68.5029 100.448 68.9477 100 69.5 100H96.5C98.7091 100 100.5 98.2091 100.5 96V69C100.5 68.4477 100.948 68.0029 101.5 67.9727C110.976 67.4538 118.5 59.6056 118.5 50C118.5 40.3944 110.976 32.5462 101.5 32.0273C100.948 31.9971 100.5 31.5523 100.5 31L100.5 4C100.5 1.79086 98.7091 0 96.5 0L69.5 0Z"/>
</mask>
<path fill-rule="evenodd" clip-rule="evenodd" d="M69.5 0C68.9477 0 68.5029 0.448498 68.4727 0.999957C67.9538 10.476 60.1056 18 50.5 18C40.8944 18 33.0462 10.476 32.5273 0.999956C32.4971 0.448497 32.0523 0 31.5 0L4.5 0C2.29086 0 0.5 1.79086 0.5 4L0.5 31C0.5 31.5523 0.948498 31.9971 1.49996 32.0273C10.976 32.5462 18.5 40.3944 18.5 50C18.5 59.6056 10.976 67.4538 1.49996 67.9727C0.948497 68.0029 0.5 68.4477 0.5 69L0.5 96C0.5 98.2091 2.29086 100 4.5 100H31.5C32.0523 100 32.4971 100.448 32.5273 101C33.0462 110.476 40.8944 118 50.5 118C60.1056 118 67.9538 110.476 68.4727 101C68.5029 100.448 68.9477 100 69.5 100H96.5C98.7091 100 100.5 98.2091 100.5 96V69C100.5 68.4477 100.948 68.0029 101.5 67.9727C110.976 67.4538 118.5 59.6056 118.5 50C118.5 40.3944 110.976 32.5462 101.5 32.0273C100.948 31.9971 100.5 31.5523 100.5 31L100.5 4C100.5 1.79086 98.7091 0 96.5 0L69.5 0Z" fill="#FFFFFF" fill-opacity="1"/>
<path d="M0.5 4H1.5H0.5ZM100.5 4H101.5H100.5ZM96.5 0V1V0ZM101.5 32.0273L101.555 31.0288L101.5 32.0273ZM100.5 31H99.5H100.5ZM101.5 67.9727L101.555 68.9712L101.5 67.9727ZM32.5273 101L33.5258 100.945L32.5273 101ZM1.49996 32.0273L1.44528 33.0258L1.49996 32.0273ZM32.5273 0.999956L31.5288 1.05463L32.5273 0.999956ZM68.4727 101L67.4742 100.945L68.4727 101ZM68.4727 0.999957L67.4742 0.945284L68.4727 0.999957ZM69.5 0V1V0ZM50.5 19C60.6396 19 68.9235 11.058 69.4712 1.05463L67.4742 0.945284C66.9842 9.89397 59.5716 17 50.5 17L50.5 19ZM31.5288 1.05463C32.0765 11.058 40.3604 19 50.5 19L50.5 17C41.4284 17 34.0158 9.89397 33.5258 0.945282L31.5288 1.05463ZM4.5 1L31.5 1V-1L4.5 -1V1ZM1.5 4C1.5 2.34315 2.84315 1 4.5 1V-1C1.73858 -1 -0.5 1.23858 -0.5 4H1.5ZM1.5 31L1.5 4L-0.5 4L-0.5 31L1.5 31ZM19.5 50C19.5 39.8604 11.558 31.5765 1.55463 31.0288L1.44528 33.0258C10.394 33.5158 17.5 40.9284 17.5 50L19.5 50ZM1.55463 68.9712C11.558 68.4235 19.5 60.1396 19.5 50L17.5 50C17.5 59.0716 10.394 66.4842 1.44528 66.9742L1.55463 68.9712ZM1.5 96L1.5 69H-0.5L-0.5 96H1.5ZM4.5 99C2.84315 99 1.5 97.6569 1.5 96H-0.5C-0.5 98.7614 1.73858 101 4.5 101V99ZM31.5 99H4.5V101H31.5L31.5 99ZM50.5 117C41.4284 117 34.0158 109.894 33.5258 100.945L31.5288 101.055C32.0765 111.058 40.3605 119 50.5 119V117ZM67.4742 100.945C66.9842 109.894 59.5716 117 50.5 117V119C60.6396 119 68.9235 111.058 69.4712 101.055L67.4742 100.945ZM96.5 99H69.5V101H96.5V99ZM99.5 96C99.5 97.6569 98.1569 99 96.5 99V101C99.2614 101 101.5 98.7614 101.5 96H99.5ZM99.5 69V96H101.5V69H99.5ZM117.5 50C117.5 59.0716 110.394 66.4842 101.445 66.9742L101.555 68.9712C111.558 68.4235 119.5 60.1396 119.5 50H117.5ZM101.445 33.0258C110.394 33.5158 117.5 40.9284 117.5 50H119.5C119.5 39.8604 111.558 31.5765 101.555 31.0288L101.445 33.0258ZM99.5 4L99.5 31L101.5 31L101.5 4L99.5 4ZM96.5 1C98.1569 1 99.5 2.34315 99.5 4H101.5C101.5 1.23858 99.2614 -1 96.5 -1V1ZM69.5 1L96.5 1V-1L69.5 -1V1ZM101.555 31.0288C101.533 31.0276 101.516 31.0187 101.506 31.0081C101.501 31.0033 101.5 31.0001 101.5 30.9999C101.5 30.9998 101.5 31.0001 101.5 31.0007C101.5 31.0012 101.5 31.0012 101.5 31H99.5C99.5 32.1183 100.399 32.9685 101.445 33.0258L101.555 31.0288ZM101.5 69C101.5 68.9988 101.5 68.9988 101.5 68.9994C101.5 68.9999 101.5 69.0002 101.5 69.0001C101.5 68.9999 101.501 68.9967 101.506 68.9919C101.516 68.9813 101.533 68.9724 101.555 68.9712L101.445 66.9742C100.399 67.0315 99.5 67.8817 99.5 69H101.5ZM31.5 101C31.5012 101 31.5012 101 31.5007 101C31.5001 101 31.4998 101 31.4999 101C31.5001 101 31.5033 101.001 31.5081 101.006C31.5187 101.016 31.5276 101.033 31.5288 101.055L33.5258 100.945C33.4685 99.8992 32.6183 99 31.5 99L31.5 101ZM-0.5 31C-0.5 32.1183 0.399214 32.9685 1.44528 33.0258L1.55463 31.0288C1.53335 31.0276 1.5164 31.0187 1.506 31.0081C1.50127 31.0033 1.49985 31.0001 1.49977 30.9999C1.49974 30.9998 1.49987 31.0001 1.49998 31.0006C1.5001 31.0012 1.5 31.0012 1.5 31L-0.5 31ZM1.44528 66.9742C0.399211 67.0315 -0.5 67.8817 -0.5 69H1.5C1.5 68.9988 1.5001 68.9988 1.49998 68.9993C1.49987 68.9999 1.49974 69.0002 1.49977 69.0001C1.49985 68.9999 1.50127 68.9967 1.506 68.9919C1.5164 68.9813 1.53335 68.9724 1.55463 68.9712L1.44528 66.9742ZM33.5258 0.945282C33.4685 -0.100789 32.6183 -1 31.5 -1V1C31.5012 1 31.5012 1.0001 31.5007 0.999977C31.5001 0.999868 31.4998 0.999738 31.4999 0.999766C31.5001 0.999846 31.5033 1.00127 31.5081 1.006C31.5187 1.0164 31.5276 1.03335 31.5288 1.05463L33.5258 0.945282ZM69.4712 101.055C69.4724 101.033 69.4813 101.016 69.4919 101.006C69.4967 101.001 69.4999 101 69.5001 101C69.5002 101 69.4999 101 69.4993 101C69.4988 101 69.4988 101 69.5 101V99C68.3817 99 67.5315 99.8992 67.4742 100.945L69.4712 101.055ZM69.4712 1.05463C69.4724 1.03335 69.4813 1.0164 69.4919 1.006C69.4967 1.00127 69.4999 0.999846 69.5001 0.999766C69.5002 0.999738 69.4999 0.999868 69.4994 0.999977C69.4988 1.0001 69.4988 1 69.5 1V-1C68.3817 -1 67.5315 -0.100786 67.4742 0.945284L69.4712 1.05463Z" fill="#D1D5DB" mask="url(#path-1-inside-1_673_10158)"/>
<path d="M44.8627 71.108C44.3907 71.108 43.9987 71.024 43.6867 70.856C43.3827 70.68 43.1507 70.42 42.9907 70.076C42.8387 69.732 42.7627 69.304 42.7627 68.792V65.576C42.7627 65.408 42.8027 65.284 42.8827 65.204C42.9707 65.124 43.0907 65.084 43.2427 65.084C43.4027 65.084 43.5227 65.124 43.6027 65.204C43.6907 65.284 43.7347 65.408 43.7347 65.576V68.78C43.7347 69.292 43.8387 69.676 44.0467 69.932C44.2627 70.18 44.5987 70.304 45.0547 70.304C45.5507 70.304 45.9547 70.136 46.2667 69.8C46.5787 69.464 46.7347 69.024 46.7347 68.48V65.576C46.7347 65.408 46.7747 65.284 46.8547 65.204C46.9427 65.124 47.0667 65.084 47.2267 65.084C47.3787 65.084 47.4947 65.124 47.5747 65.204C47.6627 65.284 47.7067 65.408 47.7067 65.576V70.58C47.7067 70.916 47.5507 71.084 47.2387 71.084C47.0867 71.084 46.9667 71.04 46.8787 70.952C46.7987 70.864 46.7587 70.74 46.7587 70.58V69.488L46.9147 69.656C46.7547 70.128 46.4907 70.488 46.1227 70.736C45.7627 70.984 45.3427 71.108 44.8627 71.108ZM50.3173 71.084C50.1653 71.084 50.0453 71.04 49.9573 70.952C49.8773 70.864 49.8373 70.74 49.8373 70.58V65.924H49.0693C48.9413 65.924 48.8373 65.892 48.7573 65.828C48.6853 65.756 48.6493 65.66 48.6493 65.54C48.6493 65.42 48.6853 65.328 48.7573 65.264C48.8373 65.2 48.9413 65.168 49.0693 65.168H50.1013L49.8373 65.42V64.964C49.8373 64.204 50.0213 63.624 50.3893 63.224C50.7653 62.824 51.3133 62.592 52.0333 62.528L52.3813 62.492C52.4933 62.484 52.5813 62.504 52.6453 62.552C52.7173 62.6 52.7613 62.66 52.7773 62.732C52.8013 62.804 52.8053 62.88 52.7893 62.96C52.7733 63.032 52.7373 63.096 52.6813 63.152C52.6253 63.208 52.5573 63.24 52.4773 63.248L52.2013 63.272C51.7133 63.312 51.3573 63.46 51.1333 63.716C50.9173 63.972 50.8093 64.348 50.8093 64.844V65.348L50.6653 65.168H52.1053C52.2413 65.168 52.3453 65.2 52.4173 65.264C52.4893 65.328 52.5253 65.42 52.5253 65.54C52.5253 65.66 52.4893 65.756 52.4173 65.828C52.3453 65.892 52.2413 65.924 52.1053 65.924H50.8093V70.58C50.8093 70.916 50.6453 71.084 50.3173 71.084ZM55.7813 71.108C55.2133 71.108 54.7213 70.984 54.3053 70.736C53.8893 70.488 53.5653 70.14 53.3333 69.692C53.1093 69.236 52.9973 68.7 52.9973 68.084C52.9973 67.62 53.0613 67.204 53.1893 66.836C53.3173 66.46 53.5053 66.14 53.7533 65.876C54.0013 65.612 54.2933 65.412 54.6293 65.276C54.9733 65.132 55.3573 65.06 55.7813 65.06C56.3493 65.06 56.8413 65.184 57.2573 65.432C57.6733 65.68 57.9933 66.032 58.2173 66.488C58.4493 66.936 58.5653 67.468 58.5653 68.084C58.5653 68.548 58.5013 68.964 58.3733 69.332C58.2453 69.7 58.0573 70.02 57.8093 70.292C57.5613 70.556 57.2653 70.76 56.9213 70.904C56.5853 71.04 56.2053 71.108 55.7813 71.108ZM55.7813 70.328C56.1413 70.328 56.4573 70.24 56.7293 70.064C57.0013 69.888 57.2093 69.632 57.3533 69.296C57.5053 68.96 57.5813 68.556 57.5813 68.084C57.5813 67.356 57.4173 66.8 57.0893 66.416C56.7693 66.032 56.3333 65.84 55.7813 65.84C55.4133 65.84 55.0933 65.928 54.8213 66.104C54.5573 66.272 54.3493 66.524 54.1973 66.86C54.0533 67.188 53.9813 67.596 53.9813 68.084C53.9813 68.804 54.1453 69.36 54.4733 69.752C54.8013 70.136 55.2373 70.328 55.7813 70.328Z" fill="#030712"/>
<path d="M41.7303 48.7544C40.3084 47.3041 40.3084 44.9897 41.7303 43.5394L45.8297 39.44C46.2759 38.9938 46.8622 38.6591 47.4747 38.4928C48.0872 38.3266 48.7303 38.3266 49.3144 38.4644C49.9269 38.6306 50.5131 38.9391 50.9878 39.3853L51.0425 39.44C52.4928 40.8903 52.4928 43.2047 51.0425 44.655L46.9431 48.7544C45.495 50.2047 43.1522 50.2047 41.7303 48.7544ZM53.3306 37.1541C50.6269 34.4503 46.1928 34.4503 43.4869 37.1541L39.4159 41.2534C36.7122 43.9572 36.7122 48.3912 39.4159 51.0972C42.1197 53.8031 46.5537 53.8009 49.2597 51.0972L53.3591 46.9978C56.0344 44.2919 56.0344 39.86 53.3306 37.1541Z" fill="#84B0C1"/>
<path d="M51.1256 36.605C51.8606 36.2353 52.5628 36.4934 52.5628 36.4934C51.0447 35.3712 49.3888 35.0519 47.9625 35.1416C47.9538 35.1525 47.9472 35.1634 47.9385 35.1766C47.3128 36.1369 47.1728 37.4056 47.5622 38.4731C48.1485 38.3287 48.7566 38.3331 49.3122 38.4666C49.5397 38.5278 49.7125 38.5869 50.0538 38.7466C50.056 38.7444 49.9356 37.2044 51.1256 36.605ZM46.7288 38.7881C46.7572 38.5759 46.7703 38.3616 46.7835 38.1472C46.8447 37.2241 47.0022 36.3053 47.2516 35.415C47.2691 35.3516 47.2866 35.2837 47.3041 35.2159C46.6281 35.3231 45.9653 35.5287 45.3419 35.835C44.3706 37.0884 44.69 38.7116 45.8297 39.4422C46.09 39.1819 46.3963 38.9609 46.7288 38.7881Z" fill="#2F7889"/>
<path d="M59.2697 31.2456C60.6916 32.6959 60.6916 35.0103 59.2697 36.4606L55.1703 40.56C54.7241 41.0062 54.1378 41.3409 53.5253 41.5072C52.9128 41.6734 52.2697 41.6734 51.6856 41.5356C51.0731 41.3694 50.4869 41.0609 50.0122 40.6147L49.9575 40.56C48.5072 39.1097 48.5072 36.7953 49.9575 35.345L54.0569 31.2456C55.505 29.7953 57.8478 29.7953 59.2697 31.2456ZM47.6694 42.8459C50.3731 45.5497 54.8072 45.5497 57.5131 42.8459L61.5841 38.7466C64.2878 36.0428 64.2878 31.6087 61.5841 28.9028C58.8803 26.1969 54.4463 26.1991 51.7403 28.9028L47.6431 33.0022C44.9656 35.7081 44.9656 40.14 47.6694 42.8459Z" fill="#84B0C1"/>
<path d="M47.5359 34.6231C47.5447 34.6166 47.5534 34.6078 47.5622 34.6013C47.6781 34.5006 47.8072 34.4044 47.9581 34.3781C48.1091 34.3519 48.2863 34.4197 48.3388 34.5641C48.3781 34.6713 48.3431 34.7894 48.3059 34.8966C47.7306 36.6356 47.2691 38.8428 47.8291 40.6431C47.8838 40.8181 47.9363 41.0434 47.7897 41.1528C47.7044 41.2184 47.5775 41.2075 47.4834 41.1572C46.4553 40.6016 46.2759 39.0966 46.2278 38.0641C46.1709 36.7603 46.5319 35.5047 47.5359 34.6231Z" fill="#A8E3F0"/>
<path d="M52.1013 41.6056C51.9613 41.5881 51.8125 41.5597 51.8125 41.5597C51.8125 41.5597 51.7906 42.4937 51.0447 43.2681C50.2178 44.1256 49.3931 44.1037 49.3931 44.1037C49.8284 44.3553 50.6969 44.6156 51.0119 44.69L51.0447 44.6572C51.8825 43.8172 52.2325 42.6884 52.1013 41.6056ZM56.3538 39.3766L55.1878 40.5425C55.4788 41.8419 55.4 43.2069 54.9494 44.4669C55.5159 44.2656 56.0606 43.9878 56.5681 43.6356C57.4059 42.2006 57.2222 40.5053 56.3538 39.3766Z" fill="#2F7889"/>
<path d="M53.9759 41.3147C53.8381 40.9669 53.5691 40.6147 53.2322 40.6475C53.0222 40.6672 52.6962 40.8641 52.7181 41.4656C52.7334 41.9316 52.9106 42.3866 52.6569 42.9969C52.285 43.8894 52.3703 44.13 52.46 44.2722C52.5584 44.4275 52.74 44.4975 52.9084 44.4953C53.3525 44.4931 53.72 44.0863 53.9212 43.64C54.2472 42.9269 54.2669 42.0453 53.9759 41.3147ZM47.2734 49.6644C47.4134 49.5485 47.7766 49.1613 47.945 49.4063C47.8837 50.08 47.3653 50.6291 46.7966 50.9966C46.0966 51.4494 45.2675 51.7163 44.4341 51.6922C43.7428 51.6725 42.5966 51.3925 42.1941 50.7516C41.8659 50.231 42.5594 50.1413 42.9444 50.2856C44.3159 50.8085 45.8669 50.8194 47.2734 49.6644Z" fill="#A8E3F0"/>
</svg>
