<svg width="137" height="118" viewBox="0 0 137 118" fill="none" xmlns="http://www.w3.org/2000/svg">
<mask id="path-1-inside-1_673_10160" fill="white">
<path fill-rule="evenodd" clip-rule="evenodd" d="M87.5 0C86.9477 0 86.5029 0.448498 86.4727 0.999957C85.9538 10.476 78.1056 18 68.5 18C58.8944 18 51.0462 10.476 50.5273 0.999956C50.4971 0.448497 50.0523 0 49.5 0L22.5 0C20.2909 0 18.5 1.79086 18.5 4L18.5 31C18.5 31.5523 18.0515 31.9971 17.5 32.0273C8.02403 32.5462 0.5 40.3944 0.5 50C0.5 59.6056 8.02403 67.4538 17.5 67.9727C18.0515 68.0029 18.5 68.4477 18.5 69L18.5 96C18.5 98.2091 20.2909 100 22.5 100L49.5 100C50.0523 100 50.4971 100.448 50.5273 101C51.0462 110.476 58.8944 118 68.5 118C78.1056 118 85.9538 110.476 86.4727 101C86.5029 100.448 86.9477 100 87.5 100L114.5 100C116.709 100 118.5 98.2091 118.5 96V69C118.5 68.4477 118.948 68.0029 119.5 67.9727C128.976 67.4538 136.5 59.6056 136.5 50C136.5 40.3944 128.976 32.5462 119.5 32.0273C118.948 31.9971 118.5 31.5523 118.5 31V4C118.5 1.79086 116.709 0 114.5 0L87.5 0Z"/>
</mask>
<path fill-rule="evenodd" clip-rule="evenodd" d="M87.5 0C86.9477 0 86.5029 0.448498 86.4727 0.999957C85.9538 10.476 78.1056 18 68.5 18C58.8944 18 51.0462 10.476 50.5273 0.999956C50.4971 0.448497 50.0523 0 49.5 0L22.5 0C20.2909 0 18.5 1.79086 18.5 4L18.5 31C18.5 31.5523 18.0515 31.9971 17.5 32.0273C8.02403 32.5462 0.5 40.3944 0.5 50C0.5 59.6056 8.02403 67.4538 17.5 67.9727C18.0515 68.0029 18.5 68.4477 18.5 69L18.5 96C18.5 98.2091 20.2909 100 22.5 100L49.5 100C50.0523 100 50.4971 100.448 50.5273 101C51.0462 110.476 58.8944 118 68.5 118C78.1056 118 85.9538 110.476 86.4727 101C86.5029 100.448 86.9477 100 87.5 100L114.5 100C116.709 100 118.5 98.2091 118.5 96V69C118.5 68.4477 118.948 68.0029 119.5 67.9727C128.976 67.4538 136.5 59.6056 136.5 50C136.5 40.3944 128.976 32.5462 119.5 32.0273C118.948 31.9971 118.5 31.5523 118.5 31V4C118.5 1.79086 116.709 0 114.5 0L87.5 0Z" fill="#FFFFFF" fill-opacity="1"/>
<path d="M18.5 4L17.5 4L17.5 4L18.5 4ZM18.5 96L17.5 96V96H18.5ZM114.5 100V101V100ZM114.5 0V1V0ZM119.5 32.0273L119.555 31.0288L119.5 32.0273ZM119.5 67.9727L119.555 68.9712L119.5 67.9727ZM50.5273 101L49.5288 101.055L50.5273 101ZM18.5 31L19.5 31L18.5 31ZM17.5 32.0273L17.4454 31.0288L17.5 32.0273ZM17.5 67.9727L17.4454 68.9712L17.5 67.9727ZM18.5 69L17.5 69L18.5 69ZM86.4727 101L85.4742 100.945L86.4727 101ZM87.5 100V99V100ZM86.4727 0.999957L85.4742 0.945284L86.4727 0.999957ZM68.5 19C78.6396 19 86.9235 11.058 87.4712 1.05463L85.4742 0.945284C84.9842 9.89397 77.5716 17 68.5 17V19ZM49.5288 1.05463C50.0765 11.058 58.3604 19 68.5 19V17C59.4284 17 52.0158 9.89397 51.5258 0.945282L49.5288 1.05463ZM22.5 1L49.5 1V-1L22.5 -1V1ZM19.5 4C19.5 2.34315 20.8431 1 22.5 1V-1C19.7386 -1 17.5 1.23858 17.5 4H19.5ZM19.5 31L19.5 4L17.5 4L17.5 31L19.5 31ZM1.5 50C1.5 40.9284 8.60603 33.5158 17.5547 33.0258L17.4454 31.0288C7.44204 31.5765 -0.5 39.8604 -0.5 50H1.5ZM17.5547 66.9742C8.60603 66.4842 1.5 59.0716 1.5 50H-0.5C-0.5 60.1396 7.44204 68.4235 17.4454 68.9712L17.5547 66.9742ZM19.5 96L19.5 69L17.5 69L17.5 96L19.5 96ZM22.5 99C20.8431 99 19.5 97.6569 19.5 96H17.5C17.5 98.7614 19.7386 101 22.5 101L22.5 99ZM49.5 99L22.5 99L22.5 101L49.5 101V99ZM68.5 117C59.4284 117 52.0158 109.894 51.5258 100.945L49.5288 101.055C50.0765 111.058 58.3604 119 68.5 119V117ZM85.4742 100.945C84.9842 109.894 77.5716 117 68.5 117V119C78.6396 119 86.9235 111.058 87.4712 101.055L85.4742 100.945ZM114.5 99L87.5 99V101L114.5 101V99ZM117.5 96C117.5 97.6569 116.157 99 114.5 99V101C117.261 101 119.5 98.7614 119.5 96H117.5ZM117.5 69V96H119.5V69H117.5ZM135.5 50C135.5 59.0716 128.394 66.4842 119.445 66.9742L119.555 68.9712C129.558 68.4235 137.5 60.1396 137.5 50H135.5ZM119.445 33.0258C128.394 33.5158 135.5 40.9284 135.5 50H137.5C137.5 39.8604 129.558 31.5765 119.555 31.0288L119.445 33.0258ZM117.5 4V31H119.5V4H117.5ZM114.5 1C116.157 1 117.5 2.34315 117.5 4H119.5C119.5 1.23858 117.261 -1 114.5 -1V1ZM87.5 1L114.5 1V-1L87.5 -1V1ZM119.555 31.0288C119.533 31.0276 119.516 31.0187 119.506 31.0081C119.501 31.0033 119.5 31.0001 119.5 30.9999C119.5 30.9998 119.5 31.0001 119.5 31.0007C119.5 31.0012 119.5 31.0012 119.5 31H117.5C117.5 32.1183 118.399 32.9685 119.445 33.0258L119.555 31.0288ZM119.5 69C119.5 68.9988 119.5 68.9988 119.5 68.9994C119.5 68.9999 119.5 69.0002 119.5 69.0001C119.5 68.9999 119.501 68.9967 119.506 68.9919C119.516 68.9813 119.533 68.9724 119.555 68.9712L119.445 66.9742C118.399 67.0315 117.5 67.8817 117.5 69H119.5ZM49.5 101C49.5012 101 49.5012 101 49.5006 101C49.5001 101 49.4998 101 49.4999 101C49.5001 101 49.5033 101.001 49.5081 101.006C49.5187 101.016 49.5276 101.033 49.5288 101.055L51.5258 100.945C51.4685 99.8992 50.6183 99 49.5 99V101ZM17.5 31C17.5 31.0012 17.4999 31.0012 17.5 31.0006C17.5001 31.0001 17.5003 30.9998 17.5002 30.9999C17.5002 31.0001 17.4987 31.0033 17.494 31.0081C17.4836 31.0187 17.4666 31.0276 17.4454 31.0288L17.5547 33.0258C18.6008 32.9685 19.5 32.1183 19.5 31L17.5 31ZM17.4454 68.9712C17.4667 68.9724 17.4836 68.9813 17.494 68.9919C17.4987 68.9967 17.5002 68.9999 17.5002 69.0001C17.5003 69.0002 17.5001 68.9999 17.5 68.9993C17.4999 68.9988 17.5 68.9988 17.5 69L19.5 69C19.5 67.8817 18.6008 67.0315 17.5547 66.9742L17.4454 68.9712ZM51.5258 0.945282C51.4685 -0.100789 50.6183 -1 49.5 -1V1C49.5012 1 49.5012 1.0001 49.5007 0.999977C49.5001 0.999868 49.4998 0.999738 49.4999 0.999766C49.5001 0.999846 49.5033 1.00127 49.5081 1.006C49.5187 1.0164 49.5276 1.03335 49.5288 1.05463L51.5258 0.945282ZM87.4712 101.055C87.4724 101.033 87.4813 101.016 87.4919 101.006C87.4967 101.001 87.4999 101 87.5001 101C87.5002 101 87.4999 101 87.4993 101C87.4988 101 87.4988 101 87.5 101V99C86.3817 99 85.5315 99.8992 85.4742 100.945L87.4712 101.055ZM87.4712 1.05463C87.4724 1.03335 87.4813 1.0164 87.4919 1.006C87.4967 1.00127 87.4999 0.999846 87.5001 0.999766C87.5002 0.999738 87.4999 0.999868 87.4994 0.999977C87.4988 1.0001 87.4988 1 87.5 1V-1C86.3817 -1 85.5315 -0.100786 85.4742 0.945284L87.4712 1.05463Z" fill="#D1D5DB" mask="url(#path-1-inside-1_673_10160)"/>
<path d="M47.6401 71.108C47.1681 71.108 46.7761 71.024 46.4641 70.856C46.1601 70.68 45.9281 70.42 45.7681 70.076C45.6161 69.732 45.5401 69.304 45.5401 68.792V65.576C45.5401 65.408 45.5801 65.284 45.6601 65.204C45.7481 65.124 45.8681 65.084 46.0201 65.084C46.1801 65.084 46.3001 65.124 46.3801 65.204C46.4681 65.284 46.5121 65.408 46.5121 65.576V68.78C46.5121 69.292 46.6161 69.676 46.8241 69.932C47.0401 70.18 47.3761 70.304 47.8321 70.304C48.3281 70.304 48.7321 70.136 49.0441 69.8C49.3561 69.464 49.5121 69.024 49.5121 68.48V65.576C49.5121 65.408 49.5521 65.284 49.6321 65.204C49.7201 65.124 49.8441 65.084 50.0041 65.084C50.1561 65.084 50.2721 65.124 50.3521 65.204C50.4401 65.284 50.4841 65.408 50.4841 65.576V70.58C50.4841 70.916 50.3281 71.084 50.0161 71.084C49.8641 71.084 49.7441 71.04 49.6561 70.952C49.5761 70.864 49.5361 70.74 49.5361 70.58V69.488L49.6921 69.656C49.5321 70.128 49.2681 70.488 48.9001 70.736C48.5401 70.984 48.1201 71.108 47.6401 71.108ZM52.7826 71.084C52.6226 71.084 52.5026 71.04 52.4226 70.952C52.3426 70.864 52.3026 70.74 52.3026 70.58V65.576C52.3026 65.416 52.3426 65.296 52.4226 65.216C52.5026 65.128 52.6186 65.084 52.7706 65.084C52.9226 65.084 53.0386 65.128 53.1186 65.216C53.2066 65.296 53.2506 65.416 53.2506 65.576V66.608L53.1186 66.464C53.2866 66 53.5586 65.652 53.9346 65.42C54.3186 65.18 54.7586 65.06 55.2546 65.06C55.7186 65.06 56.1026 65.144 56.4066 65.312C56.7186 65.48 56.9506 65.736 57.1026 66.08C57.2546 66.416 57.3306 66.844 57.3306 67.364V70.58C57.3306 70.74 57.2866 70.864 57.1986 70.952C57.1186 71.04 57.0026 71.084 56.8506 71.084C56.6906 71.084 56.5666 71.04 56.4786 70.952C56.3986 70.864 56.3586 70.74 56.3586 70.58V67.424C56.3586 66.88 56.2506 66.484 56.0346 66.236C55.8266 65.98 55.4906 65.852 55.0266 65.852C54.4906 65.852 54.0626 66.02 53.7426 66.356C53.4306 66.684 53.2746 67.124 53.2746 67.676V70.58C53.2746 70.916 53.1106 71.084 52.7826 71.084ZM61.5949 71.108C61.0109 71.108 60.5069 70.98 60.0829 70.724C59.6589 70.468 59.3309 70.112 59.0989 69.656C58.8749 69.192 58.7629 68.656 58.7629 68.048C58.7629 67.584 58.8269 67.168 58.9549 66.8C59.0829 66.432 59.2709 66.12 59.5189 65.864C59.7669 65.6 60.0629 65.4 60.4069 65.264C60.7589 65.128 61.1549 65.06 61.5949 65.06C61.8829 65.06 62.1829 65.104 62.4949 65.192C62.8069 65.28 63.0909 65.432 63.3469 65.648C63.4269 65.704 63.4789 65.772 63.5029 65.852C63.5269 65.932 63.5269 66.012 63.5029 66.092C63.4789 66.164 63.4389 66.228 63.3829 66.284C63.3269 66.332 63.2549 66.36 63.1669 66.368C63.0869 66.376 63.0029 66.348 62.9149 66.284C62.7069 66.124 62.4949 66.012 62.2789 65.948C62.0629 65.884 61.8549 65.852 61.6549 65.852C61.3429 65.852 61.0709 65.904 60.8389 66.008C60.6069 66.104 60.4109 66.244 60.2509 66.428C60.0909 66.612 59.9669 66.84 59.8789 67.112C59.7989 67.384 59.7589 67.7 59.7589 68.06C59.7589 68.756 59.9229 69.308 60.2509 69.716C60.5789 70.116 61.0469 70.316 61.6549 70.316C61.8549 70.316 62.0589 70.284 62.2669 70.22C62.4829 70.156 62.6989 70.044 62.9149 69.884C63.0029 69.82 63.0869 69.792 63.1669 69.8C63.2469 69.808 63.3149 69.84 63.3709 69.896C63.4269 69.944 63.4629 70.008 63.4789 70.088C63.5029 70.168 63.5029 70.248 63.4789 70.328C63.4549 70.4 63.4029 70.464 63.3229 70.52C63.0669 70.728 62.7869 70.88 62.4829 70.976C62.1789 71.064 61.8829 71.108 61.5949 71.108ZM65.1696 71.084C65.0096 71.084 64.8856 71.04 64.7976 70.952C64.7176 70.864 64.6776 70.74 64.6776 70.58V65.576C64.6776 65.416 64.7176 65.296 64.7976 65.216C64.8776 65.128 64.9936 65.084 65.1456 65.084C65.2976 65.084 65.4136 65.128 65.4936 65.216C65.5816 65.296 65.6256 65.416 65.6256 65.576V66.548H65.5056C65.6336 66.076 65.8776 65.712 66.2376 65.456C66.5976 65.2 67.0416 65.064 67.5696 65.048C67.6896 65.04 67.7856 65.068 67.8576 65.132C67.9296 65.188 67.9696 65.288 67.9776 65.432C67.9856 65.568 67.9536 65.676 67.8816 65.756C67.8096 65.836 67.6976 65.884 67.5456 65.9L67.3536 65.924C66.8096 65.972 66.3896 66.148 66.0936 66.452C65.8056 66.748 65.6616 67.156 65.6616 67.676V70.58C65.6616 70.74 65.6176 70.864 65.5296 70.952C65.4496 71.04 65.3296 71.084 65.1696 71.084ZM70.6377 73.244C70.5177 73.244 70.4217 73.212 70.3497 73.148C70.2777 73.084 70.2337 72.996 70.2177 72.884C70.2097 72.78 70.2297 72.672 70.2777 72.56L71.1057 70.7V71.12L68.8017 65.768C68.7537 65.648 68.7377 65.536 68.7537 65.432C68.7697 65.328 68.8177 65.244 68.8977 65.18C68.9777 65.116 69.0897 65.084 69.2337 65.084C69.3617 65.084 69.4617 65.112 69.5337 65.168C69.6057 65.224 69.6697 65.324 69.7257 65.468L71.6937 70.292H71.3697L73.3617 65.468C73.4257 65.324 73.4937 65.224 73.5657 65.168C73.6377 65.112 73.7417 65.084 73.8777 65.084C74.0057 65.084 74.1017 65.116 74.1657 65.18C74.2377 65.244 74.2777 65.328 74.2857 65.432C74.3017 65.528 74.2857 65.636 74.2377 65.756L71.1657 72.86C71.1017 73.004 71.0297 73.104 70.9497 73.16C70.8777 73.216 70.7737 73.244 70.6377 73.244ZM75.9858 73.244C75.8258 73.244 75.7058 73.2 75.6258 73.112C75.5458 73.032 75.5058 72.912 75.5058 72.752V65.576C75.5058 65.416 75.5458 65.296 75.6258 65.216C75.7058 65.128 75.8218 65.084 75.9738 65.084C76.1338 65.084 76.2538 65.128 76.3338 65.216C76.4218 65.296 76.4658 65.416 76.4658 65.576V66.716L76.3338 66.548C76.4618 66.092 76.7138 65.732 77.0898 65.468C77.4738 65.196 77.9298 65.06 78.4578 65.06C78.9778 65.06 79.4298 65.184 79.8138 65.432C80.2058 65.672 80.5058 66.02 80.7138 66.476C80.9298 66.924 81.0378 67.46 81.0378 68.084C81.0378 68.7 80.9298 69.236 80.7138 69.692C80.5058 70.14 80.2098 70.488 79.8258 70.736C79.4418 70.984 78.9858 71.108 78.4578 71.108C77.9298 71.108 77.4778 70.976 77.1018 70.712C76.7258 70.44 76.4698 70.08 76.3338 69.632H76.4778V72.752C76.4778 72.912 76.4338 73.032 76.3458 73.112C76.2578 73.2 76.1378 73.244 75.9858 73.244ZM78.2538 70.328C78.6218 70.328 78.9378 70.24 79.2018 70.064C79.4738 69.888 79.6818 69.632 79.8258 69.296C79.9778 68.96 80.0538 68.556 80.0538 68.084C80.0538 67.356 79.8898 66.8 79.5618 66.416C79.2418 66.032 78.8058 65.84 78.2538 65.84C77.8938 65.84 77.5778 65.928 77.3058 66.104C77.0338 66.272 76.8218 66.524 76.6698 66.86C76.5258 67.188 76.4538 67.596 76.4538 68.084C76.4538 68.804 76.6178 69.36 76.9458 69.752C77.2738 70.136 77.7098 70.328 78.2538 70.328ZM84.7833 71.108C84.3273 71.108 83.9433 71.028 83.6313 70.868C83.3273 70.7 83.0993 70.46 82.9473 70.148C82.7953 69.828 82.7193 69.44 82.7193 68.984V65.924H81.9153C81.7793 65.924 81.6753 65.892 81.6033 65.828C81.5312 65.756 81.4952 65.66 81.4952 65.54C81.4952 65.42 81.5312 65.328 81.6033 65.264C81.6753 65.2 81.7793 65.168 81.9153 65.168H82.7193V63.788C82.7193 63.628 82.7633 63.508 82.8513 63.428C82.9393 63.34 83.0593 63.296 83.2113 63.296C83.3633 63.296 83.4793 63.34 83.5593 63.428C83.6473 63.508 83.6913 63.628 83.6913 63.788V65.168H85.2033C85.3393 65.168 85.4433 65.2 85.5153 65.264C85.5873 65.328 85.6233 65.42 85.6233 65.54C85.6233 65.66 85.5873 65.756 85.5153 65.828C85.4433 65.892 85.3393 65.924 85.2033 65.924H83.6913V68.888C83.6913 69.344 83.7873 69.692 83.9793 69.932C84.1713 70.164 84.4833 70.28 84.9153 70.28C85.0673 70.28 85.1953 70.264 85.2993 70.232C85.4113 70.2 85.5033 70.184 85.5753 70.184C85.6473 70.176 85.7073 70.2 85.7553 70.256C85.8033 70.312 85.8273 70.408 85.8273 70.544C85.8273 70.64 85.8073 70.728 85.7673 70.808C85.7353 70.888 85.6753 70.944 85.5873 70.976C85.4913 71.008 85.3633 71.036 85.2033 71.06C85.0513 71.092 84.9113 71.108 84.7833 71.108ZM89.004 71.108C88.436 71.108 87.944 70.984 87.528 70.736C87.112 70.488 86.788 70.14 86.556 69.692C86.332 69.236 86.22 68.7 86.22 68.084C86.22 67.62 86.284 67.204 86.412 66.836C86.54 66.46 86.728 66.14 86.976 65.876C87.224 65.612 87.516 65.412 87.852 65.276C88.196 65.132 88.58 65.06 89.004 65.06C89.572 65.06 90.064 65.184 90.48 65.432C90.896 65.68 91.216 66.032 91.44 66.488C91.672 66.936 91.788 67.468 91.788 68.084C91.788 68.548 91.724 68.964 91.596 69.332C91.468 69.7 91.28 70.02 91.032 70.292C90.784 70.556 90.488 70.76 90.144 70.904C89.808 71.04 89.428 71.108 89.004 71.108ZM89.004 70.328C89.364 70.328 89.68 70.24 89.952 70.064C90.224 69.888 90.432 69.632 90.576 69.296C90.728 68.96 90.804 68.556 90.804 68.084C90.804 67.356 90.64 66.8 90.312 66.416C89.992 66.032 89.556 65.84 89.004 65.84C88.636 65.84 88.316 65.928 88.044 66.104C87.78 66.272 87.572 66.524 87.42 66.86C87.276 67.188 87.204 67.596 87.204 68.084C87.204 68.804 87.368 69.36 87.696 69.752C88.024 70.136 88.46 70.328 89.004 70.328Z" fill="#030712"/>
<path d="M61.1653 48.8025H64.0944V51.7316H61.1653V48.8025ZM72.8838 48.8025H75.8128V51.7316H72.8838V48.8025Z" fill="#995AA8"/>
<path d="M61.1675 28.2991H64.0966V31.2281H61.1675V28.2991ZM72.8837 28.2991H75.8128V31.2281H72.8837V28.2991Z" fill="#B574C3"/>
<path d="M75.8194 40.0175V34.1594H72.8837V31.2281H69.9547V34.1594H67.0256V31.2281H64.0966V34.1594H61.1675V40.0175H58.2384V42.9466H61.1675V45.8778H64.0966V48.8047H67.0256V45.8778H69.9547V48.8047H72.8837V45.8778H75.8194V42.9466H78.7441V40.0175H75.8194ZM67.0234 40.0175H64.0944V37.0885H67.0234V40.0175ZM72.8816 40.0175H69.9525V37.0885H72.8816V40.0175Z" fill="url(#paint0_radial_673_10160)"/>
<path d="M78.7419 34.1572H81.6731V40.0197H78.7419V34.1572Z" fill="url(#paint1_radial_673_10160)"/>
<path d="M55.3094 34.155H58.2406V40.0175H55.3094V34.155Z" fill="url(#paint2_radial_673_10160)"/>
<defs>
<radialGradient id="paint0_radial_673_10160" cx="0" cy="0" r="1" gradientUnits="userSpaceOnUse" gradientTransform="translate(68.5752 28.0569) scale(18.1685)">
<stop offset="0.508" stop-color="#B574C3"/>
<stop offset="0.684" stop-color="#B070BF"/>
<stop offset="0.878" stop-color="#A363B2"/>
<stop offset="0.981" stop-color="#995AA8"/>
</radialGradient>
<radialGradient id="paint1_radial_673_10160" cx="0" cy="0" r="1" gradientUnits="userSpaceOnUse" gradientTransform="translate(68.3071 31.2749) scale(14.2802 14.2802)">
<stop offset="0.508" stop-color="#B574C3"/>
<stop offset="0.684" stop-color="#B070BF"/>
<stop offset="0.878" stop-color="#A363B2"/>
<stop offset="0.981" stop-color="#995AA8"/>
</radialGradient>
<radialGradient id="paint2_radial_673_10160" cx="0" cy="0" r="1" gradientUnits="userSpaceOnUse" gradientTransform="translate(68.2399 28.8615) scale(16.4259)">
<stop offset="0.508" stop-color="#B574C3"/>
<stop offset="0.684" stop-color="#B070BF"/>
<stop offset="0.878" stop-color="#A363B2"/>
<stop offset="0.981" stop-color="#995AA8"/>
</radialGradient>
</defs>
</svg>
