<svg width="101" height="118" viewBox="0 0 101 118" fill="none" xmlns="http://www.w3.org/2000/svg">
<mask id="path-1-inside-1_673_10161" fill="white">
<path fill-rule="evenodd" clip-rule="evenodd" d="M50.5 0C60.1056 0 67.9538 7.52403 68.4727 17C68.5029 17.5515 68.9477 18 69.5 18L96.5 18C98.7091 18 100.5 19.7909 100.5 22L100.5 49C100.5 49.5523 100.052 49.9971 99.5 50.0273C90.024 50.5462 82.5 58.3944 82.5 68C82.5 77.6056 90.024 85.4538 99.5 85.9727C100.052 86.0029 100.5 86.4477 100.5 87V114C100.5 116.209 98.7091 118 96.5 118L69.5 118C68.9477 118 68.5029 117.552 68.4727 117C67.9538 107.524 60.1056 100 50.5 100C40.8944 100 33.0462 107.524 32.5273 117C32.4971 117.552 32.0523 118 31.5 118H4.5C2.29086 118 0.5 116.209 0.5 114L0.5 87C0.5 86.4477 0.948498 86.0029 1.49996 85.9727C10.976 85.4538 18.5 77.6056 18.5 68C18.5 58.3944 10.976 50.5462 1.49996 50.0273C0.948497 49.9971 0.5 49.5523 0.5 49L0.5 22C0.5 19.7909 2.29086 18 4.5 18L31.5 18C32.0523 18 32.4971 17.5515 32.5273 17C33.0462 7.52403 40.8944 0 50.5 0Z"/>
</mask>
<path fill-rule="evenodd" clip-rule="evenodd" d="M50.5 0C60.1056 0 67.9538 7.52403 68.4727 17C68.5029 17.5515 68.9477 18 69.5 18L96.5 18C98.7091 18 100.5 19.7909 100.5 22L100.5 49C100.5 49.5523 100.052 49.9971 99.5 50.0273C90.024 50.5462 82.5 58.3944 82.5 68C82.5 77.6056 90.024 85.4538 99.5 85.9727C100.052 86.0029 100.5 86.4477 100.5 87V114C100.5 116.209 98.7091 118 96.5 118L69.5 118C68.9477 118 68.5029 117.552 68.4727 117C67.9538 107.524 60.1056 100 50.5 100C40.8944 100 33.0462 107.524 32.5273 117C32.4971 117.552 32.0523 118 31.5 118H4.5C2.29086 118 0.5 116.209 0.5 114L0.5 87C0.5 86.4477 0.948498 86.0029 1.49996 85.9727C10.976 85.4538 18.5 77.6056 18.5 68C18.5 58.3944 10.976 50.5462 1.49996 50.0273C0.948497 49.9971 0.5 49.5523 0.5 49L0.5 22C0.5 19.7909 2.29086 18 4.5 18L31.5 18C32.0523 18 32.4971 17.5515 32.5273 17C33.0462 7.52403 40.8944 0 50.5 0Z" fill="#FFFFFF" fill-opacity="1"/>
<path d="M32.5273 17L33.5258 17.0547L32.5273 17ZM1.49996 85.9727L1.44528 84.9742L1.49996 85.9727ZM32.5273 117L31.5288 116.945L32.5273 117ZM99.5 85.9727L99.5547 84.9742L99.5 85.9727ZM68.4727 117L69.4712 116.945L68.4727 117ZM99.5 50.0273L99.4454 49.0288L99.5 50.0273ZM69.4712 16.9454C68.9235 6.94204 60.6396 -1 50.5 -1V1C59.5716 1 66.9842 8.10603 67.4742 17.0547L69.4712 16.9454ZM96.5 17L69.5 17V19L96.5 19V17ZM101.5 22C101.5 19.2386 99.2614 17 96.5 17V19C98.1569 19 99.5 20.3431 99.5 22L101.5 22ZM101.5 49L101.5 22L99.5 22L99.5 49H101.5ZM83.5 68C83.5 58.9284 90.606 51.5158 99.5547 51.0258L99.4454 49.0288C89.442 49.5765 81.5 57.8604 81.5 68H83.5ZM99.5547 84.9742C90.606 84.4842 83.5 77.0716 83.5 68H81.5C81.5 78.1396 89.442 86.4235 99.4454 86.9712L99.5547 84.9742ZM101.5 114V87H99.5V114H101.5ZM96.5 119C99.2614 119 101.5 116.761 101.5 114H99.5C99.5 115.657 98.1569 117 96.5 117V119ZM69.5 119L96.5 119V117L69.5 117V119ZM50.5 101C59.5716 101 66.9842 108.106 67.4742 117.055L69.4712 116.945C68.9235 106.942 60.6396 99 50.5 99V101ZM33.5258 117.055C34.0158 108.106 41.4284 101 50.5 101V99C40.3604 99 32.0765 106.942 31.5288 116.945L33.5258 117.055ZM4.5 119H31.5V117H4.5V119ZM-0.5 114C-0.5 116.761 1.73858 119 4.5 119V117C2.84315 117 1.5 115.657 1.5 114H-0.5ZM-0.5 87L-0.5 114H1.5L1.5 87H-0.5ZM17.5 68C17.5 77.0716 10.394 84.4842 1.44528 84.9742L1.55463 86.9712C11.558 86.4235 19.5 78.1396 19.5 68H17.5ZM1.44528 51.0258C10.394 51.5158 17.5 58.9284 17.5 68H19.5C19.5 57.8604 11.558 49.5765 1.55463 49.0288L1.44528 51.0258ZM-0.5 22L-0.5 49H1.5L1.5 22H-0.5ZM4.5 17C1.73858 17 -0.5 19.2386 -0.5 22H1.5C1.5 20.3431 2.84315 19 4.5 19L4.5 17ZM31.5 17L4.5 17L4.5 19L31.5 19V17ZM50.5 -1C40.3604 -1 32.0765 6.94204 31.5288 16.9454L33.5258 17.0547C34.0158 8.10603 41.4284 1 50.5 1V-1ZM31.5 19C32.6183 19 33.4685 18.1008 33.5258 17.0547L31.5288 16.9454C31.5276 16.9666 31.5187 16.9836 31.5081 16.994C31.5033 16.9987 31.5001 17.0002 31.4999 17.0002C31.4998 17.0003 31.5001 17.0001 31.5006 17C31.5012 16.9999 31.5012 17 31.5 17V19ZM1.55463 49.0288C1.53335 49.0276 1.5164 49.0187 1.506 49.0081C1.50127 49.0033 1.49985 49.0001 1.49977 48.9999C1.49974 48.9998 1.49987 49.0001 1.49998 49.0007C1.5001 49.0012 1.5 49.0012 1.5 49H-0.5C-0.5 50.1183 0.399211 50.9685 1.44528 51.0258L1.55463 49.0288ZM1.5 87C1.5 86.9988 1.5001 86.9988 1.49998 86.9994C1.49987 86.9999 1.49974 87.0002 1.49977 87.0001C1.49985 86.9999 1.50127 86.9967 1.506 86.9919C1.5164 86.9813 1.53335 86.9724 1.55463 86.9712L1.44528 84.9742C0.399214 85.0315 -0.5 85.8817 -0.5 87H1.5ZM67.4742 17.0547C67.5315 18.1008 68.3817 19 69.5 19V17C69.4988 17 69.4988 16.9999 69.4993 17C69.4999 17.0001 69.5002 17.0003 69.5001 17.0002C69.4999 17.0002 69.4967 16.9987 69.4919 16.994C69.4813 16.9836 69.4724 16.9667 69.4712 16.9454L67.4742 17.0547ZM31.5288 116.945C31.5276 116.967 31.5187 116.984 31.5081 116.994C31.5033 116.999 31.5001 117 31.4999 117C31.4998 117 31.5001 117 31.5007 117C31.5012 117 31.5012 117 31.5 117V119C32.6183 119 33.4685 118.101 33.5258 117.055L31.5288 116.945ZM99.4454 86.9712C99.4667 86.9724 99.4836 86.9813 99.494 86.9919C99.4987 86.9967 99.5002 86.9999 99.5002 87.0001C99.5003 87.0002 99.5001 86.9999 99.5 86.9993C99.4999 86.9988 99.5 86.9988 99.5 87H101.5C101.5 85.8817 100.601 85.0315 99.5547 84.9742L99.4454 86.9712ZM69.5 117C69.4988 117 69.4988 117 69.4994 117C69.4999 117 69.5002 117 69.5001 117C69.4999 117 69.4967 116.999 69.4919 116.994C69.4813 116.984 69.4724 116.967 69.4712 116.945L67.4742 117.055C67.5315 118.101 68.3817 119 69.5 119V117ZM99.5 49C99.5 49.0012 99.4999 49.0012 99.5 49.0006C99.5001 49.0001 99.5003 48.9998 99.5002 48.9999C99.5002 49.0001 99.4987 49.0033 99.494 49.0081C99.4836 49.0187 99.4666 49.0276 99.4454 49.0288L99.5547 51.0258C100.601 50.9685 101.5 50.1183 101.5 49H99.5Z" fill="#D1D5DB" mask="url(#path-1-inside-1_673_10161)"/>
<path d="M38.6166 89.108C38.1446 89.108 37.7526 89.024 37.4406 88.856C37.1366 88.68 36.9046 88.42 36.7446 88.076C36.5926 87.732 36.5166 87.304 36.5166 86.792V83.576C36.5166 83.408 36.5566 83.284 36.6366 83.204C36.7246 83.124 36.8446 83.084 36.9966 83.084C37.1566 83.084 37.2766 83.124 37.3566 83.204C37.4446 83.284 37.4886 83.408 37.4886 83.576V86.78C37.4886 87.292 37.5926 87.676 37.8006 87.932C38.0166 88.18 38.3526 88.304 38.8086 88.304C39.3046 88.304 39.7086 88.136 40.0206 87.8C40.3326 87.464 40.4886 87.024 40.4886 86.48V83.576C40.4886 83.408 40.5286 83.284 40.6086 83.204C40.6966 83.124 40.8206 83.084 40.9806 83.084C41.1326 83.084 41.2486 83.124 41.3286 83.204C41.4166 83.284 41.4606 83.408 41.4606 83.576V88.58C41.4606 88.916 41.3046 89.084 40.9926 89.084C40.8406 89.084 40.7206 89.04 40.6326 88.952C40.5526 88.864 40.5126 88.74 40.5126 88.58V87.488L40.6686 87.656C40.5086 88.128 40.2446 88.488 39.8766 88.736C39.5166 88.984 39.0966 89.108 38.6166 89.108ZM43.7592 89.084C43.5992 89.084 43.4792 89.04 43.3992 88.952C43.3192 88.864 43.2792 88.74 43.2792 88.58V83.576C43.2792 83.416 43.3192 83.296 43.3992 83.216C43.4792 83.128 43.5952 83.084 43.7472 83.084C43.8992 83.084 44.0152 83.128 44.0952 83.216C44.1832 83.296 44.2272 83.416 44.2272 83.576V84.608L44.0952 84.464C44.2632 84 44.5352 83.652 44.9112 83.42C45.2952 83.18 45.7352 83.06 46.2312 83.06C46.6952 83.06 47.0792 83.144 47.3832 83.312C47.6952 83.48 47.9272 83.736 48.0792 84.08C48.2312 84.416 48.3072 84.844 48.3072 85.364V88.58C48.3072 88.74 48.2632 88.864 48.1752 88.952C48.0952 89.04 47.9792 89.084 47.8272 89.084C47.6672 89.084 47.5432 89.04 47.4552 88.952C47.3752 88.864 47.3352 88.74 47.3352 88.58V85.424C47.3352 84.88 47.2272 84.484 47.0112 84.236C46.8032 83.98 46.4672 83.852 46.0032 83.852C45.4672 83.852 45.0392 84.02 44.7192 84.356C44.4072 84.684 44.2512 85.124 44.2512 85.676V88.58C44.2512 88.916 44.0872 89.084 43.7592 89.084ZM52.5715 89.108C51.9875 89.108 51.4835 88.98 51.0595 88.724C50.6355 88.468 50.3075 88.112 50.0755 87.656C49.8515 87.192 49.7395 86.656 49.7395 86.048C49.7395 85.584 49.8035 85.168 49.9315 84.8C50.0595 84.432 50.2475 84.12 50.4955 83.864C50.7435 83.6 51.0395 83.4 51.3835 83.264C51.7355 83.128 52.1315 83.06 52.5715 83.06C52.8595 83.06 53.1595 83.104 53.4715 83.192C53.7835 83.28 54.0675 83.432 54.3235 83.648C54.4035 83.704 54.4555 83.772 54.4795 83.852C54.5035 83.932 54.5035 84.012 54.4795 84.092C54.4555 84.164 54.4155 84.228 54.3595 84.284C54.3035 84.332 54.2315 84.36 54.1435 84.368C54.0635 84.376 53.9795 84.348 53.8915 84.284C53.6835 84.124 53.4715 84.012 53.2555 83.948C53.0395 83.884 52.8315 83.852 52.6315 83.852C52.3195 83.852 52.0475 83.904 51.8155 84.008C51.5835 84.104 51.3875 84.244 51.2275 84.428C51.0675 84.612 50.9435 84.84 50.8555 85.112C50.7755 85.384 50.7355 85.7 50.7355 86.06C50.7355 86.756 50.8995 87.308 51.2275 87.716C51.5555 88.116 52.0235 88.316 52.6315 88.316C52.8315 88.316 53.0355 88.284 53.2435 88.22C53.4595 88.156 53.6755 88.044 53.8915 87.884C53.9795 87.82 54.0635 87.792 54.1435 87.8C54.2235 87.808 54.2915 87.84 54.3475 87.896C54.4035 87.944 54.4395 88.008 54.4555 88.088C54.4795 88.168 54.4795 88.248 54.4555 88.328C54.4315 88.4 54.3795 88.464 54.2995 88.52C54.0435 88.728 53.7635 88.88 53.4595 88.976C53.1555 89.064 52.8595 89.108 52.5715 89.108ZM57.9942 89.108C57.5382 89.108 57.1542 89.028 56.8422 88.868C56.5382 88.7 56.3102 88.46 56.1582 88.148C56.0062 87.828 55.9302 87.44 55.9302 86.984V83.924H55.1262C54.9902 83.924 54.8862 83.892 54.8142 83.828C54.7422 83.756 54.7062 83.66 54.7062 83.54C54.7062 83.42 54.7422 83.328 54.8142 83.264C54.8862 83.2 54.9902 83.168 55.1262 83.168H55.9302V81.788C55.9302 81.628 55.9742 81.508 56.0622 81.428C56.1502 81.34 56.2702 81.296 56.4222 81.296C56.5742 81.296 56.6902 81.34 56.7702 81.428C56.8582 81.508 56.9022 81.628 56.9022 81.788V83.168H58.4142C58.5502 83.168 58.6542 83.2 58.7262 83.264C58.7982 83.328 58.8342 83.42 58.8342 83.54C58.8342 83.66 58.7982 83.756 58.7262 83.828C58.6542 83.892 58.5502 83.924 58.4142 83.924H56.9022V86.888C56.9022 87.344 56.9982 87.692 57.1902 87.932C57.3822 88.164 57.6942 88.28 58.1262 88.28C58.2782 88.28 58.4062 88.264 58.5102 88.232C58.6222 88.2 58.7142 88.184 58.7862 88.184C58.8582 88.176 58.9182 88.2 58.9662 88.256C59.0142 88.312 59.0382 88.408 59.0382 88.544C59.0382 88.64 59.0182 88.728 58.9782 88.808C58.9462 88.888 58.8862 88.944 58.7982 88.976C58.7022 89.008 58.5742 89.036 58.4142 89.06C58.2622 89.092 58.1222 89.108 57.9942 89.108ZM59.9907 89.072C59.8867 89.072 59.7947 89.04 59.7147 88.976C59.6347 88.912 59.5907 88.828 59.5827 88.724C59.5827 88.612 59.6347 88.496 59.7387 88.376L61.8387 85.736V86.24L59.8707 83.78C59.7667 83.652 59.7147 83.536 59.7147 83.432C59.7227 83.328 59.7667 83.244 59.8467 83.18C59.9267 83.116 60.0187 83.084 60.1227 83.084C60.2427 83.084 60.3427 83.108 60.4227 83.156C60.5107 83.196 60.5907 83.264 60.6627 83.36L62.3787 85.532H62.0427L63.7707 83.36C63.8427 83.264 63.9187 83.196 63.9987 83.156C64.0787 83.108 64.1787 83.084 64.2987 83.084C64.4107 83.084 64.5027 83.116 64.5747 83.18C64.6547 83.244 64.6947 83.332 64.6947 83.444C64.7027 83.548 64.6547 83.664 64.5507 83.792L62.5947 86.216V85.772L64.6947 88.376C64.7907 88.496 64.8347 88.612 64.8267 88.724C64.8267 88.828 64.7867 88.912 64.7067 88.976C64.6267 89.04 64.5307 89.072 64.4187 89.072C64.3067 89.072 64.2067 89.048 64.1187 89C64.0387 88.96 63.9587 88.892 63.8787 88.796L62.0307 86.468H62.3787L60.5307 88.796C60.4587 88.884 60.3787 88.952 60.2907 89C60.2107 89.048 60.1107 89.072 59.9907 89.072Z" fill="#030712"/>
<path d="M54.56 47.0013L44.655 46.9138C44.655 46.9138 44.5631 47.3841 44.7535 47.8588C44.9285 48.2963 45.635 48.9263 45.635 48.9263L46.4641 50.7528L47.1466 55.0119L47.2778 56.2435C47.2778 56.2435 47.7635 57.1513 50.5088 57.1513C53.2541 57.1513 53.7331 56.2106 53.7331 56.2106L53.8272 55.4188L54.5906 51.0197L56.1175 48.3838C56.1175 48.3838 56.4522 48.1497 56.6469 47.651C56.7825 47.3031 56.7103 46.8131 56.7103 46.87C56.7103 46.9269 54.56 47.0013 54.56 47.0013Z" fill="#E27F13"/>
<path d="M50.6837 51.6169C52.9084 51.63 53.9825 51.49 54.6366 51.0306C55.1288 50.685 55.3694 50.2934 55.7041 49.7356C56.1678 48.9634 56.1481 48.3706 56.1481 48.3706C56.1481 48.3706 54.2931 49.3265 50.6247 49.2784C47.0241 49.2325 45.0925 48.375 45.0925 48.375C45.0925 48.375 45.2675 49.2237 45.5584 49.775C45.8953 50.4094 46.51 50.8119 46.51 50.8119C46.51 50.8119 47.6759 51.5994 50.6837 51.6169ZM46.8928 51.8028C47.1137 51.8837 47.3434 51.9603 47.3434 51.9603L47.6716 55.8694C47.6716 55.8694 47.0831 55.6703 47.0153 55.4603C46.9759 55.34 46.7922 54.0428 46.6609 52.9884C46.5909 52.424 46.5275 52.0434 46.51 51.8422C46.4903 51.6234 46.685 51.7262 46.8928 51.8028ZM49.2575 52.354C48.5137 52.26 47.9209 52.1353 47.9209 52.1353C47.9319 52.2162 48.2009 55.994 48.2009 55.994C48.2009 55.994 48.4897 56.1778 49.3012 56.2784L49.2575 52.354ZM51.2022 52.4175C50.6487 52.4481 50.0319 52.4087 49.8262 52.4022L49.8087 56.3244C50.0231 56.3375 50.2594 56.344 50.5241 56.3419C50.7516 56.3397 50.9659 56.3265 51.1737 56.309L51.2022 52.4175ZM53.7484 52.1637C53.6434 53.0562 53.4225 54.99 53.335 55.7884C53.7484 55.6375 53.9125 55.5587 53.9672 55.3509C54.0219 55.1431 54.4528 52.1725 54.4638 52.0106C54.4725 51.9078 54.4244 51.8903 54.1575 52.0019C53.9891 52.0762 53.9081 52.1069 53.7484 52.1637ZM53.2256 52.2447C52.845 52.3081 52.3441 52.3715 51.7534 52.4197L51.6812 56.2456C52.1581 56.1669 52.565 56.0509 52.8975 55.9284C52.9872 55.0053 53.1666 52.9731 53.2256 52.2447Z" fill="#F5B03E"/>
<path d="M49.1066 33.4256C49.3559 33.4037 49.0759 32.3559 49.7037 32.3428C50.5634 32.3231 50.3184 33.6444 49.9269 34.0425C48.89 35.0991 47.2691 34.8956 46.8841 36.6194C46.6325 37.7416 47.77 38.1441 47.77 38.1441C47.77 38.1441 45.8931 38.0369 45.0181 39.8678C44.3028 41.3662 45.1669 42.4075 45.1669 42.4075C45.1669 42.4075 44.1759 42.5956 43.7669 44.0131C43.2441 45.8244 44.7556 47.0187 44.7556 47.0187L51.2547 47.5416L57.6225 44.6103L57.5853 43.1731C57.5853 43.1731 57.2922 42.7509 57.0034 42.4972C56.6819 42.215 56.3341 41.9831 56.3341 41.9831L56.7431 40.0734C56.7431 40.0734 56.8087 38.9075 55.2141 37.7022C54.4987 37.1597 53.7222 37.0087 53.7222 37.0087C53.7222 37.0087 53.2672 34.2853 53.1753 34.0994C53.0812 33.9134 52.0553 32.2684 51.8672 32.1569C51.6812 32.0453 50.395 30.9166 50.395 30.9166C50.395 30.9166 49.4762 30.6059 48.8594 31.3912C48.2425 32.1766 48.4525 33.4825 49.1066 33.4256Z" fill="#FFEBCA"/>
<path d="M51.8147 36.1534C50.5066 37.9078 47.7656 38.1419 47.7656 38.1419C47.7656 38.1419 48.6406 38.75 51.2525 38.5444C53.9825 38.33 54.6147 37.1072 54.5775 35.7619C54.5403 34.4166 53.6084 32.9925 52.2325 31.8638C50.9441 30.8094 49.9706 30.8641 49.9706 30.8641C49.9706 30.8641 51.0031 31.1769 51.7862 32.2422C52.6131 33.3644 52.5584 35.1538 51.8147 36.1534ZM45.1669 42.4053C45.1669 42.4053 46.9781 43.4203 51.2547 43.3809C55.2687 43.3438 56.3909 42.0356 56.3909 42.0356C56.3909 42.0356 56.8481 41.4122 56.8109 40.3666C56.7737 39.2772 56.1634 38.6472 56.1634 38.6472C56.1634 38.6472 55.0281 40.1128 53.4969 40.9725C51.9656 41.8322 49.0125 42.2259 47.6519 42.3178C46.2694 42.4075 45.1669 42.4053 45.1669 42.4053ZM57.5853 43.1731C57.5853 43.1731 58.1847 43.8447 57.9769 44.9275C57.7341 46.1984 56.7256 47.0559 56.7256 47.0559C56.7256 47.0559 55.6603 48.1234 50.3972 48.1628C45.6897 48.1978 44.6747 46.9488 44.6747 46.9488C44.6747 46.9488 49.5791 47.1566 52.8166 46.0628C55.5422 45.1441 56.1109 44.7722 56.9334 43.9519C57.2156 43.6719 57.5853 43.1731 57.5853 43.1731Z" fill="#EAC084"/>
<path d="M44.8869 46.0431C45.2872 45.9972 45.0619 44.8706 45.5519 44.2341C46.0441 43.5975 46.2715 43.4159 46.1644 43.1666C46.0594 42.9172 45.029 42.8866 44.5828 43.9913C44.2131 44.9122 44.5719 46.0781 44.8869 46.0431ZM48.365 38.9731C48.3869 39.3734 47.6606 39.2838 46.8512 40.2813C46.195 41.0906 46.2847 41.9372 45.8822 41.9766C45.4819 42.0138 45.32 40.5963 45.8603 39.7913C46.6237 38.6494 48.3344 38.4525 48.365 38.9731ZM50.0472 34.9263C50.2003 35.0225 50.0012 35.4556 49.3144 35.9784C48.4962 36.5997 48.1944 37.0897 47.8925 37.0066C47.6716 36.9453 47.4616 36.4772 47.9078 35.9631C48.2491 35.5694 48.9184 35.3878 49.24 35.2369C49.7059 35.0159 49.9028 34.8344 50.0472 34.9263Z" fill="white"/>
</svg>
