<svg width="137" height="137" viewBox="0 0 137 137" fill="none" xmlns="http://www.w3.org/2000/svg">
<mask id="path-1-inside-1_776_12106" fill="white">
<path fill-rule="evenodd" clip-rule="evenodd" d="M87.5 18.5C86.9477 18.5 86.5029 18.0515 86.4727 17.5C85.9538 8.02403 78.1056 0.5 68.5 0.5C58.8944 0.5 51.0462 8.02403 50.5273 17.5C50.4971 18.0515 50.0523 18.5 49.5 18.5L22.5 18.5C20.2909 18.5 18.5 20.2909 18.5 22.5L18.5 49.5C18.5 50.0523 18.0515 50.4971 17.5 50.5273C8.02403 51.0462 0.5 58.8944 0.5 68.5C0.5 78.1056 8.02403 85.9538 17.5 86.4727C18.0515 86.5029 18.5 86.9477 18.5 87.5L18.5 114.5C18.5 116.709 20.2909 118.5 22.5 118.5L49.5 118.5C50.0523 118.5 50.4971 118.948 50.5273 119.5C51.0462 128.976 58.8944 136.5 68.5 136.5C78.1056 136.5 85.9538 128.976 86.4727 119.5C86.5029 118.948 86.9477 118.5 87.5 118.5L114.5 118.5C116.709 118.5 118.5 116.709 118.5 114.5V87.5C118.5 86.9477 118.948 86.5029 119.5 86.4727C128.976 85.9538 136.5 78.1056 136.5 68.5C136.5 58.8944 128.976 51.0462 119.5 50.5273C118.948 50.4971 118.5 50.0523 118.5 49.5L118.5 22.5C118.5 20.2909 116.709 18.5 114.5 18.5L87.5 18.5Z"/>
</mask>
<path fill-rule="evenodd" clip-rule="evenodd" d="M87.5 18.5C86.9477 18.5 86.5029 18.0515 86.4727 17.5C85.9538 8.02403 78.1056 0.5 68.5 0.5C58.8944 0.5 51.0462 8.02403 50.5273 17.5C50.4971 18.0515 50.0523 18.5 49.5 18.5L22.5 18.5C20.2909 18.5 18.5 20.2909 18.5 22.5L18.5 49.5C18.5 50.0523 18.0515 50.4971 17.5 50.5273C8.02403 51.0462 0.5 58.8944 0.5 68.5C0.5 78.1056 8.02403 85.9538 17.5 86.4727C18.0515 86.5029 18.5 86.9477 18.5 87.5L18.5 114.5C18.5 116.709 20.2909 118.5 22.5 118.5L49.5 118.5C50.0523 118.5 50.4971 118.948 50.5273 119.5C51.0462 128.976 58.8944 136.5 68.5 136.5C78.1056 136.5 85.9538 128.976 86.4727 119.5C86.5029 118.948 86.9477 118.5 87.5 118.5L114.5 118.5C116.709 118.5 118.5 116.709 118.5 114.5V87.5C118.5 86.9477 118.948 86.5029 119.5 86.4727C128.976 85.9538 136.5 78.1056 136.5 68.5C136.5 58.8944 128.976 51.0462 119.5 50.5273C118.948 50.4971 118.5 50.0523 118.5 49.5L118.5 22.5C118.5 20.2909 116.709 18.5 114.5 18.5L87.5 18.5Z" fill="white"/>
<path d="M18.5 22.5L17.5 22.5L17.5 22.5L18.5 22.5ZM18.5 114.5L17.5 114.5V114.5H18.5ZM119.5 50.5273L119.555 49.5288L119.5 50.5273ZM119.5 86.4727L119.445 85.4742L119.5 86.4727ZM50.5273 119.5L49.5288 119.555L50.5273 119.5ZM18.5 49.5L17.5 49.5L18.5 49.5ZM17.5 50.5273L17.5547 51.5258L17.5 50.5273ZM17.5 86.4727L17.4454 87.4712L17.5 86.4727ZM18.5 87.5L17.5 87.5L18.5 87.5ZM50.5273 17.5L49.5288 17.4454L50.5273 17.5ZM86.4727 119.5L87.4712 119.555L86.4727 119.5ZM86.4727 17.5L85.4742 17.5547L86.4727 17.5ZM68.5 1.5C77.5716 1.5 84.9842 8.60603 85.4742 17.5547L87.4712 17.4454C86.9235 7.44204 78.6396 -0.5 68.5 -0.5V1.5ZM51.5258 17.5547C52.0158 8.60603 59.4284 1.5 68.5 1.5V-0.5C58.3604 -0.5 50.0765 7.44204 49.5288 17.4454L51.5258 17.5547ZM49.5 17.5L22.5 17.5V19.5L49.5 19.5V17.5ZM22.5 17.5C19.7386 17.5 17.5 19.7386 17.5 22.5H19.5C19.5 20.8431 20.8431 19.5 22.5 19.5V17.5ZM17.5 22.5L17.5 49.5L19.5 49.5L19.5 22.5L17.5 22.5ZM17.4454 49.5288C7.44204 50.0765 -0.5 58.3604 -0.5 68.5H1.5C1.5 59.4284 8.60603 52.0158 17.5547 51.5258L17.4454 49.5288ZM-0.5 68.5C-0.5 78.6396 7.44204 86.9235 17.4454 87.4712L17.5547 85.4742C8.60603 84.9842 1.5 77.5716 1.5 68.5H-0.5ZM17.5 87.5L17.5 114.5L19.5 114.5L19.5 87.5L17.5 87.5ZM17.5 114.5C17.5 117.261 19.7386 119.5 22.5 119.5V117.5C20.8431 117.5 19.5 116.157 19.5 114.5H17.5ZM22.5 119.5L49.5 119.5V117.5L22.5 117.5V119.5ZM49.5288 119.555C50.0765 129.558 58.3604 137.5 68.5 137.5V135.5C59.4284 135.5 52.0158 128.394 51.5258 119.445L49.5288 119.555ZM68.5 137.5C78.6396 137.5 86.9235 129.558 87.4712 119.555L85.4742 119.445C84.9842 128.394 77.5716 135.5 68.5 135.5V137.5ZM87.5 119.5L114.5 119.5V117.5L87.5 117.5V119.5ZM114.5 119.5C117.261 119.5 119.5 117.261 119.5 114.5H117.5C117.5 116.157 116.157 117.5 114.5 117.5V119.5ZM119.5 114.5V87.5H117.5V114.5H119.5ZM119.555 87.4712C129.558 86.9235 137.5 78.6396 137.5 68.5H135.5C135.5 77.5716 128.394 84.9842 119.445 85.4742L119.555 87.4712ZM137.5 68.5C137.5 58.3604 129.558 50.0765 119.555 49.5288L119.445 51.5258C128.394 52.0158 135.5 59.4284 135.5 68.5H137.5ZM119.5 49.5L119.5 22.5H117.5L117.5 49.5H119.5ZM119.5 22.5C119.5 19.7386 117.261 17.5 114.5 17.5V19.5C116.157 19.5 117.5 20.8431 117.5 22.5H119.5ZM114.5 17.5L87.5 17.5V19.5L114.5 19.5V17.5ZM119.555 49.5288C119.533 49.5276 119.516 49.5187 119.506 49.5081C119.501 49.5033 119.5 49.5001 119.5 49.4999C119.5 49.4998 119.5 49.5001 119.5 49.5006C119.5 49.5012 119.5 49.5012 119.5 49.5H117.5C117.5 50.6183 118.399 51.4685 119.445 51.5258L119.555 49.5288ZM119.5 87.5C119.5 87.4988 119.5 87.4988 119.5 87.4993C119.5 87.4999 119.5 87.5002 119.5 87.5001C119.5 87.4999 119.501 87.4967 119.506 87.4919C119.516 87.4813 119.533 87.4724 119.555 87.4712L119.445 85.4742C118.399 85.5315 117.5 86.3817 117.5 87.5H119.5ZM49.5 119.5C49.5012 119.5 49.5012 119.5 49.5007 119.5C49.5001 119.5 49.4998 119.5 49.4999 119.5C49.5001 119.5 49.5033 119.501 49.5081 119.506C49.5187 119.516 49.5276 119.533 49.5288 119.555L51.5258 119.445C51.4685 118.399 50.6183 117.5 49.5 117.5V119.5ZM17.5 49.5C17.5 49.5012 17.4999 49.5012 17.5 49.5007C17.5001 49.5001 17.5003 49.4998 17.5002 49.4999C17.5002 49.5001 17.4987 49.5033 17.494 49.5081C17.4836 49.5187 17.4667 49.5276 17.4454 49.5288L17.5547 51.5258C18.6008 51.4685 19.5 50.6183 19.5 49.5L17.5 49.5ZM17.4454 87.4712C17.4666 87.4724 17.4836 87.4813 17.494 87.4919C17.4987 87.4967 17.5002 87.4999 17.5002 87.5001C17.5003 87.5002 17.5001 87.4999 17.5 87.4994C17.4999 87.4988 17.5 87.4988 17.5 87.5L19.5 87.5C19.5 86.3817 18.6008 85.5315 17.5547 85.4742L17.4454 87.4712ZM49.5288 17.4454C49.5276 17.4667 49.5187 17.4836 49.5081 17.494C49.5033 17.4987 49.5001 17.5002 49.4999 17.5002C49.4998 17.5003 49.5001 17.5001 49.5006 17.5C49.5012 17.4999 49.5012 17.5 49.5 17.5V19.5C50.6183 19.5 51.4685 18.6008 51.5258 17.5547L49.5288 17.4454ZM87.4712 119.555C87.4724 119.533 87.4813 119.516 87.4919 119.506C87.4967 119.501 87.4999 119.5 87.5001 119.5C87.5002 119.5 87.4999 119.5 87.4994 119.5C87.4988 119.5 87.4988 119.5 87.5 119.5V117.5C86.3817 117.5 85.5315 118.399 85.4742 119.445L87.4712 119.555ZM85.4742 17.5547C85.5315 18.6008 86.3817 19.5 87.5 19.5V17.5C87.4988 17.5 87.4988 17.4999 87.4994 17.5C87.4999 17.5001 87.5002 17.5003 87.5001 17.5002C87.4999 17.5002 87.4967 17.4987 87.4919 17.494C87.4813 17.4836 87.4724 17.4667 87.4712 17.4454L85.4742 17.5547Z" fill="#D1D5DB" mask="url(#path-1-inside-1_776_12106)"/>
<path d="M52.2045 89.608C51.7325 89.608 51.3405 89.524 51.0285 89.356C50.7245 89.18 50.4925 88.92 50.3325 88.576C50.1805 88.232 50.1045 87.804 50.1045 87.292V84.076C50.1045 83.908 50.1445 83.784 50.2245 83.704C50.3125 83.624 50.4325 83.584 50.5845 83.584C50.7445 83.584 50.8645 83.624 50.9445 83.704C51.0325 83.784 51.0765 83.908 51.0765 84.076V87.28C51.0765 87.792 51.1805 88.176 51.3885 88.432C51.6045 88.68 51.9405 88.804 52.3965 88.804C52.8925 88.804 53.2965 88.636 53.6085 88.3C53.9205 87.964 54.0765 87.524 54.0765 86.98V84.076C54.0765 83.908 54.1165 83.784 54.1965 83.704C54.2845 83.624 54.4085 83.584 54.5685 83.584C54.7205 83.584 54.8365 83.624 54.9165 83.704C55.0045 83.784 55.0485 83.908 55.0485 84.076V89.08C55.0485 89.416 54.8925 89.584 54.5805 89.584C54.4285 89.584 54.3085 89.54 54.2205 89.452C54.1405 89.364 54.1005 89.24 54.1005 89.08V87.988L54.2565 88.156C54.0965 88.628 53.8325 88.988 53.4645 89.236C53.1045 89.484 52.6845 89.608 52.2045 89.608ZM57.3471 89.584C57.1871 89.584 57.0671 89.54 56.9871 89.452C56.9071 89.364 56.8671 89.24 56.8671 89.08V84.076C56.8671 83.916 56.9071 83.796 56.9871 83.716C57.0671 83.628 57.1831 83.584 57.3351 83.584C57.4871 83.584 57.6031 83.628 57.6831 83.716C57.7711 83.796 57.8151 83.916 57.8151 84.076V85.108L57.6831 84.964C57.8511 84.5 58.1231 84.152 58.4991 83.92C58.8831 83.68 59.3231 83.56 59.8191 83.56C60.2831 83.56 60.6671 83.644 60.9711 83.812C61.2831 83.98 61.5151 84.236 61.6671 84.58C61.8191 84.916 61.8951 85.344 61.8951 85.864V89.08C61.8951 89.24 61.8511 89.364 61.7631 89.452C61.6831 89.54 61.5671 89.584 61.4151 89.584C61.2551 89.584 61.1311 89.54 61.0431 89.452C60.9631 89.364 60.9231 89.24 60.9231 89.08V85.924C60.9231 85.38 60.8151 84.984 60.5991 84.736C60.3911 84.48 60.0551 84.352 59.5911 84.352C59.0551 84.352 58.6271 84.52 58.3071 84.856C57.9951 85.184 57.8391 85.624 57.8391 86.176V89.08C57.8391 89.416 57.6751 89.584 57.3471 89.584ZM65.9074 89.608C65.3874 89.608 64.9314 89.484 64.5394 89.236C64.1554 88.988 63.8554 88.64 63.6394 88.192C63.4314 87.736 63.3274 87.2 63.3274 86.584C63.3274 85.96 63.4314 85.424 63.6394 84.976C63.8554 84.52 64.1554 84.172 64.5394 83.932C64.9314 83.684 65.3874 83.56 65.9074 83.56C66.4354 83.56 66.8874 83.692 67.2634 83.956C67.6394 84.22 67.8914 84.576 68.0194 85.024H67.8874V81.448C67.8874 81.288 67.9274 81.168 68.0074 81.088C68.0954 81 68.2194 80.956 68.3794 80.956C68.5314 80.956 68.6474 81 68.7274 81.088C68.8154 81.168 68.8594 81.288 68.8594 81.448V89.08C68.8594 89.24 68.8194 89.364 68.7394 89.452C68.6594 89.54 68.5394 89.584 68.3794 89.584C68.2274 89.584 68.1074 89.54 68.0194 89.452C67.9394 89.364 67.8994 89.24 67.8994 89.08V87.94L68.0314 88.108C67.9034 88.564 67.6474 88.928 67.2634 89.2C66.8874 89.472 66.4354 89.608 65.9074 89.608ZM66.1114 88.828C66.4714 88.828 66.7874 88.74 67.0594 88.564C67.3314 88.388 67.5394 88.132 67.6834 87.796C67.8354 87.46 67.9114 87.056 67.9114 86.584C67.9114 85.856 67.7474 85.3 67.4194 84.916C67.0994 84.532 66.6634 84.34 66.1114 84.34C65.7434 84.34 65.4234 84.428 65.1514 84.604C64.8874 84.772 64.6794 85.024 64.5274 85.36C64.3834 85.688 64.3114 86.096 64.3114 86.584C64.3114 87.304 64.4754 87.86 64.8034 88.252C65.1314 88.636 65.5674 88.828 66.1114 88.828ZM73.1075 89.608C72.5395 89.608 72.0475 89.484 71.6315 89.236C71.2155 88.988 70.8915 88.64 70.6595 88.192C70.4355 87.736 70.3235 87.2 70.3235 86.584C70.3235 86.12 70.3875 85.704 70.5155 85.336C70.6435 84.96 70.8315 84.64 71.0795 84.376C71.3275 84.112 71.6195 83.912 71.9555 83.776C72.2995 83.632 72.6835 83.56 73.1075 83.56C73.6755 83.56 74.1675 83.684 74.5835 83.932C74.9995 84.18 75.3195 84.532 75.5435 84.988C75.7755 85.436 75.8915 85.968 75.8915 86.584C75.8915 87.048 75.8275 87.464 75.6995 87.832C75.5715 88.2 75.3835 88.52 75.1355 88.792C74.8875 89.056 74.5915 89.26 74.2475 89.404C73.9115 89.54 73.5315 89.608 73.1075 89.608ZM73.1075 88.828C73.4675 88.828 73.7835 88.74 74.0555 88.564C74.3275 88.388 74.5355 88.132 74.6795 87.796C74.8315 87.46 74.9075 87.056 74.9075 86.584C74.9075 85.856 74.7435 85.3 74.4155 84.916C74.0955 84.532 73.6595 84.34 73.1075 84.34C72.7395 84.34 72.4195 84.428 72.1475 84.604C71.8835 84.772 71.6755 85.024 71.5235 85.36C71.3795 85.688 71.3075 86.096 71.3075 86.584C71.3075 87.304 71.4715 87.86 71.7995 88.252C72.1275 88.636 72.5635 88.828 73.1075 88.828ZM79.8235 89.608C79.2395 89.608 78.7355 89.48 78.3115 89.224C77.8875 88.968 77.5595 88.612 77.3275 88.156C77.1035 87.692 76.9915 87.156 76.9915 86.548C76.9915 86.084 77.0555 85.668 77.1835 85.3C77.3115 84.932 77.4995 84.62 77.7475 84.364C77.9955 84.1 78.2915 83.9 78.6355 83.764C78.9875 83.628 79.3835 83.56 79.8235 83.56C80.1115 83.56 80.4115 83.604 80.7235 83.692C81.0355 83.78 81.3195 83.932 81.5755 84.148C81.6555 84.204 81.7075 84.272 81.7315 84.352C81.7555 84.432 81.7555 84.512 81.7315 84.592C81.7075 84.664 81.6675 84.728 81.6115 84.784C81.5555 84.832 81.4835 84.86 81.3955 84.868C81.3155 84.876 81.2315 84.848 81.1435 84.784C80.9355 84.624 80.7235 84.512 80.5075 84.448C80.2915 84.384 80.0835 84.352 79.8835 84.352C79.5715 84.352 79.2995 84.404 79.0675 84.508C78.8355 84.604 78.6395 84.744 78.4795 84.928C78.3195 85.112 78.1955 85.34 78.1075 85.612C78.0275 85.884 77.9875 86.2 77.9875 86.56C77.9875 87.256 78.1515 87.808 78.4795 88.216C78.8075 88.616 79.2755 88.816 79.8835 88.816C80.0835 88.816 80.2875 88.784 80.4955 88.72C80.7115 88.656 80.9275 88.544 81.1435 88.384C81.2315 88.32 81.3155 88.292 81.3955 88.3C81.4755 88.308 81.5435 88.34 81.5995 88.396C81.6555 88.444 81.6915 88.508 81.7075 88.588C81.7315 88.668 81.7315 88.748 81.7075 88.828C81.6835 88.9 81.6315 88.964 81.5515 89.02C81.2955 89.228 81.0155 89.38 80.7115 89.476C80.4075 89.564 80.1115 89.608 79.8235 89.608ZM84.8741 89.608C84.5141 89.608 84.1501 89.564 83.7821 89.476C83.4221 89.388 83.0861 89.236 82.7741 89.02C82.6941 88.964 82.6381 88.9 82.6061 88.828C82.5741 88.748 82.5621 88.672 82.5701 88.6C82.5861 88.52 82.6181 88.452 82.6661 88.396C82.7221 88.34 82.7861 88.308 82.8581 88.3C82.9381 88.284 83.0261 88.3 83.1221 88.348C83.4341 88.54 83.7341 88.676 84.0221 88.756C84.3181 88.828 84.6101 88.864 84.8981 88.864C85.3541 88.864 85.6981 88.78 85.9301 88.612C86.1621 88.444 86.2781 88.216 86.2781 87.928C86.2781 87.704 86.2021 87.528 86.0501 87.4C85.8981 87.264 85.6581 87.16 85.3301 87.088L84.2381 86.848C83.7341 86.744 83.3581 86.564 83.1101 86.308C82.8701 86.052 82.7501 85.72 82.7501 85.312C82.7501 84.952 82.8421 84.644 83.0261 84.388C83.2181 84.124 83.4861 83.92 83.8301 83.776C84.1741 83.632 84.5741 83.56 85.0301 83.56C85.3821 83.56 85.7141 83.608 86.0261 83.704C86.3461 83.792 86.6341 83.936 86.8901 84.136C86.9701 84.192 87.0221 84.26 87.0461 84.34C87.0781 84.412 87.0821 84.488 87.0581 84.568C87.0421 84.64 87.0061 84.704 86.9501 84.76C86.8941 84.808 86.8261 84.836 86.7461 84.844C86.6661 84.852 86.5821 84.828 86.4941 84.772C86.2541 84.612 86.0101 84.496 85.7621 84.424C85.5141 84.344 85.2701 84.304 85.0301 84.304C84.5821 84.304 84.2421 84.392 84.0101 84.568C83.7781 84.744 83.6621 84.976 83.6621 85.264C83.6621 85.488 83.7341 85.672 83.8781 85.816C84.0221 85.96 84.2461 86.064 84.5501 86.128L85.6421 86.356C86.1621 86.468 86.5501 86.648 86.8061 86.896C87.0701 87.136 87.2021 87.464 87.2021 87.88C87.2021 88.408 86.9901 88.828 86.5661 89.14C86.1421 89.452 85.5781 89.608 84.8741 89.608Z" fill="#030712"/>
<path d="M77.3146 63.5341C75.9153 67.0796 72.4021 69.3838 68.2892 69.3838C64.7437 69.3838 60.8008 67.1535 59.4019 63.6084L59.3526 63.4867C58.9088 62.3745 58.9804 61.0134 58.9804 59.7405L60.4064 47.1522L64.384 51.0722C65.5531 50.5732 66.8112 50.3165 68.0823 50.3177H68.4961C69.8078 50.3177 71.0581 50.5865 72.1944 51.0722L76.5609 46.7633L78.0087 59.9369C78.0105 61.1698 77.7769 62.3916 77.3204 63.5369" fill="#F4AA41"/>
<path d="M68.2892 69.3839C72.4153 69.5169 76.2047 67.0933 77.6039 63.5474L77.6467 63.458C78.0908 62.3457 78.0196 60.7758 78.0196 59.503L76.5613 47.1519" fill="#E27022"/>
<path d="M67.5005 65.4144C69.1634 66.5037 71.2222 65.2067 71.5178 63.9821L71.9389 63.6088C71.9389 63.6088 70.1061 65.0103 68.8407 63.2004C68.9243 64.7587 68.2332 65.2036 67.5278 65.4327" fill="#EA5A47"/>
<path d="M75.9301 57.6211C75.9301 57.6211 70.5222 59.9078 70.7765 60.1983C75.9511 64.905 76.3571 58.2771 75.9301 57.6219M61.0699 57.6211C61.0699 57.6211 66.0733 60.3122 66.2234 60.1979C61.2282 65.1512 60.5655 58.6964 61.0699 57.6211Z" fill="white"/>
<path d="M67.7222 62.7311H70.1178M67.5005 65.4067C69.1634 66.4964 71.2222 65.1994 71.5178 63.9748L71.9389 63.6015C71.9389 63.6015 70.1061 65.003 68.8407 63.1931C68.9243 64.7514 68.2332 65.1963 67.5278 65.4254M78.6111 65.5622L74.9711 63.54M76.9933 67.5845L73.3533 65.5622M75.9301 57.6141C75.9301 57.6141 70.5222 59.9 70.7765 60.1905C75.9511 64.8972 76.3571 58.2694 75.9301 57.6141Z" stroke="black" stroke-width="0.888889" stroke-miterlimit="10" stroke-linecap="round" stroke-linejoin="round"/>
<path d="M59.6691 63.1791C59.2227 62.0728 58.994 60.8907 58.9956 59.6978L60.4111 46.9578L64.6811 51.1247C65.8257 50.642 67.0556 50.394 68.2978 50.3955H68.7022C69.9852 50.3955 71.2071 50.6553 72.3193 51.1247L76.5889 46.9578L78.0044 59.6978C78.0044 60.9286 77.7657 62.1034 77.3309 63.1791M63.3764 67.593C64.852 68.5152 66.5577 69.0028 68.2978 69H68.7022C70.509 69 72.196 68.4851 73.6236 67.593" stroke="black" stroke-width="0.888889" stroke-miterlimit="10" stroke-linecap="round" stroke-linejoin="round"/>
<path d="M58.3889 65.5622L62.0289 63.54M60.0067 67.5845L63.6467 65.5622M61.0699 57.6141C61.0699 57.6141 66.0733 60.3045 66.2234 60.1905C61.2282 65.1438 60.5655 58.6894 61.0699 57.6141Z" stroke="black" stroke-width="0.888889" stroke-miterlimit="10" stroke-linecap="round" stroke-linejoin="round"/>
<path d="M63.6467 60.3044C64.0934 60.3044 64.4555 59.9423 64.4555 59.4955C64.4555 59.0488 64.0934 58.6866 63.6467 58.6866C63.1999 58.6866 62.8378 59.0488 62.8378 59.4955C62.8378 59.9423 63.1999 60.3044 63.6467 60.3044Z" fill="black"/>
<path d="M73.3533 60.3044C73.8001 60.3044 74.1622 59.9423 74.1622 59.4955C74.1622 59.0488 73.8001 58.6866 73.3533 58.6866C72.9066 58.6866 72.5444 59.0488 72.5444 59.4955C72.5444 59.9423 72.9066 60.3044 73.3533 60.3044Z" fill="black"/>
</svg>
