<svg width="119" height="118" viewBox="0 0 119 118" fill="none" xmlns="http://www.w3.org/2000/svg">
<mask id="path-1-inside-1_673_10162" fill="white">
<path fill-rule="evenodd" clip-rule="evenodd" d="M68.5 18C78.1056 18 85.9538 10.476 86.4727 0.999956C86.5029 0.448497 86.9477 0 87.5 0L114.5 0C116.709 0 118.5 1.79086 118.5 4V30C118.5 30.5523 118.052 30.9971 117.5 31.0273C108.024 31.5462 100.5 39.3944 100.5 49C100.5 58.6056 108.024 66.4538 117.5 66.9727C118.052 67.0029 118.5 67.4477 118.5 68L118.5 96C118.5 98.2091 116.709 100 114.5 100H87.5C86.9477 100 86.5029 100.448 86.4727 101C85.9538 110.476 78.1056 118 68.5 118C58.8944 118 51.0462 110.476 50.5273 101C50.4971 100.448 50.0523 100 49.5 100L22.5 100C20.2909 100 18.5 98.2091 18.5 96L18.5 69C18.5 68.4477 18.0515 68.0029 17.5 67.9727C8.02403 67.4538 0.5 59.6056 0.5 50C0.5 40.3944 8.02403 32.5462 17.5 32.0273C18.0515 31.9971 18.5 31.5523 18.5 31L18.5 4C18.5 1.79086 20.2909 0 22.5 0L49.5 0C50.0523 0 50.4971 0.448498 50.5273 0.999957C51.0462 10.476 58.8944 18 68.5 18Z"/>
</mask>
<path fill-rule="evenodd" clip-rule="evenodd" d="M68.5 18C78.1056 18 85.9538 10.476 86.4727 0.999956C86.5029 0.448497 86.9477 0 87.5 0L114.5 0C116.709 0 118.5 1.79086 118.5 4V30C118.5 30.5523 118.052 30.9971 117.5 31.0273C108.024 31.5462 100.5 39.3944 100.5 49C100.5 58.6056 108.024 66.4538 117.5 66.9727C118.052 67.0029 118.5 67.4477 118.5 68L118.5 96C118.5 98.2091 116.709 100 114.5 100H87.5C86.9477 100 86.5029 100.448 86.4727 101C85.9538 110.476 78.1056 118 68.5 118C58.8944 118 51.0462 110.476 50.5273 101C50.4971 100.448 50.0523 100 49.5 100L22.5 100C20.2909 100 18.5 98.2091 18.5 96L18.5 69C18.5 68.4477 18.0515 68.0029 17.5 67.9727C8.02403 67.4538 0.5 59.6056 0.5 50C0.5 40.3944 8.02403 32.5462 17.5 32.0273C18.0515 31.9971 18.5 31.5523 18.5 31L18.5 4C18.5 1.79086 20.2909 0 22.5 0L49.5 0C50.0523 0 50.4971 0.448498 50.5273 0.999957C51.0462 10.476 58.8944 18 68.5 18Z" fill="#D1D5DB" fill-opacity="0.2"/>
<path d="M18.5 96L17.5 96V96H18.5ZM18.5 4L17.5 4L17.5 4L18.5 4ZM50.5273 0.999957L51.5258 0.945284L50.5273 0.999957ZM17.5 32.0273L17.4454 31.0288L17.5 32.0273ZM18.5 31L17.5 31L18.5 31ZM18.5 69L17.5 69L18.5 69ZM17.5 67.9727L17.4454 68.9712L17.5 67.9727ZM50.5273 101L49.5288 101.055L50.5273 101ZM117.5 66.9727L117.555 65.9742L117.5 66.9727ZM86.4727 101L87.4712 101.055L86.4727 101ZM117.5 31.0273L117.555 32.0258L117.5 31.0273ZM85.4742 0.945282C84.9842 9.89397 77.5716 17 68.5 17V19C78.6396 19 86.9235 11.058 87.4712 1.05463L85.4742 0.945282ZM114.5 -1L87.5 -1V1L114.5 1V-1ZM119.5 4C119.5 1.23858 117.261 -1 114.5 -1V1C116.157 1 117.5 2.34315 117.5 4H119.5ZM119.5 30V4H117.5V30H119.5ZM101.5 49C101.5 39.9284 108.606 32.5158 117.555 32.0258L117.445 30.0288C107.442 30.5765 99.5 38.8604 99.5 49H101.5ZM117.555 65.9742C108.606 65.4842 101.5 58.0716 101.5 49H99.5C99.5 59.1396 107.442 67.4235 117.445 67.9712L117.555 65.9742ZM119.5 96L119.5 68H117.5L117.5 96H119.5ZM114.5 101C117.261 101 119.5 98.7614 119.5 96H117.5C117.5 97.6569 116.157 99 114.5 99V101ZM87.5 101H114.5V99H87.5V101ZM68.5 119C78.6396 119 86.9235 111.058 87.4712 101.055L85.4742 100.945C84.9842 109.894 77.5716 117 68.5 117V119ZM49.5288 101.055C50.0765 111.058 58.3604 119 68.5 119V117C59.4284 117 52.0158 109.894 51.5258 100.945L49.5288 101.055ZM22.5 101L49.5 101V99L22.5 99L22.5 101ZM17.5 96C17.5 98.7614 19.7386 101 22.5 101L22.5 99C20.8431 99 19.5 97.6569 19.5 96H17.5ZM17.5 69L17.5 96L19.5 96L19.5 69L17.5 69ZM17.5547 66.9742C8.60603 66.4842 1.5 59.0716 1.5 50H-0.5C-0.5 60.1396 7.44204 68.4235 17.4454 68.9712L17.5547 66.9742ZM1.5 50C1.5 40.9284 8.60603 33.5158 17.5547 33.0258L17.4454 31.0288C7.44204 31.5765 -0.5 39.8604 -0.5 50H1.5ZM17.5 4L17.5 31L19.5 31L19.5 4L17.5 4ZM22.5 -1C19.7386 -1 17.5 1.23858 17.5 4L19.5 4C19.5 2.34315 20.8431 1 22.5 1V-1ZM49.5 -1L22.5 -1V1L49.5 1V-1ZM68.5 17C59.4284 17 52.0158 9.89397 51.5258 0.945284L49.5288 1.05463C50.0765 11.058 58.3604 19 68.5 19V17ZM49.5 1C49.5012 1 49.5012 1.0001 49.5006 0.999977C49.5001 0.999868 49.4998 0.999738 49.4999 0.999766C49.5001 0.999846 49.5033 1.00127 49.5081 1.006C49.5187 1.0164 49.5276 1.03335 49.5288 1.05463L51.5258 0.945284C51.4685 -0.100786 50.6183 -1 49.5 -1V1ZM17.5547 33.0258C18.6008 32.9685 19.5 32.1183 19.5 31L17.5 31C17.5 31.0012 17.4999 31.0012 17.5 31.0006C17.5001 31.0001 17.5003 30.9998 17.5002 30.9999C17.5002 31.0001 17.4987 31.0033 17.494 31.0081C17.4836 31.0187 17.4666 31.0276 17.4454 31.0288L17.5547 33.0258ZM19.5 69C19.5 67.8817 18.6008 67.0315 17.5547 66.9742L17.4454 68.9712C17.4667 68.9724 17.4836 68.9813 17.494 68.9919C17.4987 68.9967 17.5002 68.9999 17.5002 69.0001C17.5003 69.0002 17.5001 68.9999 17.5 68.9994C17.4999 68.9988 17.5 68.9988 17.5 69L19.5 69ZM87.4712 1.05463C87.4724 1.03335 87.4813 1.0164 87.4919 1.006C87.4967 1.00127 87.4999 0.999846 87.5001 0.999766C87.5002 0.999738 87.4999 0.999868 87.4993 0.999977C87.4988 1.0001 87.4988 1 87.5 1V-1C86.3817 -1 85.5315 -0.100789 85.4742 0.945282L87.4712 1.05463ZM51.5258 100.945C51.4685 99.8992 50.6183 99 49.5 99V101C49.5012 101 49.5012 101 49.5006 101C49.5001 101 49.4998 101 49.4999 101C49.5001 101 49.5033 101.001 49.5081 101.006C49.5187 101.016 49.5276 101.033 49.5288 101.055L51.5258 100.945ZM117.445 67.9712C117.467 67.9724 117.484 67.9813 117.494 67.9919C117.499 67.9967 117.5 67.9999 117.5 68.0001C117.5 68.0002 117.5 67.9999 117.5 67.9994C117.5 67.9988 117.5 67.9988 117.5 68H119.5C119.5 66.8817 118.601 66.0315 117.555 65.9742L117.445 67.9712ZM87.5 99C86.3817 99 85.5315 99.8992 85.4742 100.945L87.4712 101.055C87.4724 101.033 87.4813 101.016 87.4919 101.006C87.4967 101.001 87.4999 101 87.5001 101C87.5002 101 87.4999 101 87.4994 101C87.4988 101 87.4988 101 87.5 101V99ZM117.5 30C117.5 30.0012 117.5 30.0012 117.5 30.0006C117.5 30.0001 117.5 29.9998 117.5 29.9999C117.5 30.0001 117.499 30.0033 117.494 30.0081C117.484 30.0187 117.467 30.0276 117.445 30.0288L117.555 32.0258C118.601 31.9685 119.5 31.1183 119.5 30H117.5Z" fill="#D1D5DB" mask="url(#path-1-inside-1_673_10162)"/>
<path d="M55.0405 71.108C54.5685 71.108 54.1765 71.024 53.8645 70.856C53.5605 70.68 53.3285 70.42 53.1685 70.076C53.0165 69.732 52.9405 69.304 52.9405 68.792V65.576C52.9405 65.408 52.9805 65.284 53.0605 65.204C53.1485 65.124 53.2685 65.084 53.4205 65.084C53.5805 65.084 53.7005 65.124 53.7805 65.204C53.8685 65.284 53.9125 65.408 53.9125 65.576V68.78C53.9125 69.292 54.0165 69.676 54.2245 69.932C54.4405 70.18 54.7765 70.304 55.2325 70.304C55.7285 70.304 56.1325 70.136 56.4445 69.8C56.7565 69.464 56.9125 69.024 56.9125 68.48V65.576C56.9125 65.408 56.9525 65.284 57.0325 65.204C57.1205 65.124 57.2445 65.084 57.4045 65.084C57.5565 65.084 57.6725 65.124 57.7525 65.204C57.8405 65.284 57.8845 65.408 57.8845 65.576V70.58C57.8845 70.916 57.7285 71.084 57.4165 71.084C57.2645 71.084 57.1445 71.04 57.0565 70.952C56.9765 70.864 56.9365 70.74 56.9365 70.58V69.488L57.0925 69.656C56.9325 70.128 56.6685 70.488 56.3005 70.736C55.9405 70.984 55.5205 71.108 55.0405 71.108ZM60.183 71.084C60.023 71.084 59.903 71.04 59.823 70.952C59.743 70.864 59.703 70.74 59.703 70.58V65.576C59.703 65.416 59.743 65.296 59.823 65.216C59.903 65.128 60.019 65.084 60.171 65.084C60.323 65.084 60.439 65.128 60.519 65.216C60.607 65.296 60.651 65.416 60.651 65.576V66.608L60.519 66.464C60.687 66 60.959 65.652 61.335 65.42C61.719 65.18 62.159 65.06 62.655 65.06C63.119 65.06 63.503 65.144 63.807 65.312C64.119 65.48 64.351 65.736 64.503 66.08C64.655 66.416 64.731 66.844 64.731 67.364V70.58C64.731 70.74 64.687 70.864 64.599 70.952C64.519 71.04 64.403 71.084 64.251 71.084C64.091 71.084 63.967 71.04 63.879 70.952C63.799 70.864 63.759 70.74 63.759 70.58V67.424C63.759 66.88 63.651 66.484 63.435 66.236C63.227 65.98 62.891 65.852 62.427 65.852C61.891 65.852 61.463 66.02 61.143 66.356C60.831 66.684 60.675 67.124 60.675 67.676V70.58C60.675 70.916 60.511 71.084 60.183 71.084ZM69.1513 71.108C68.5353 71.108 68.0033 70.988 67.5553 70.748C67.1153 70.5 66.7713 70.152 66.5233 69.704C66.2833 69.256 66.1633 68.72 66.1633 68.096C66.1633 67.488 66.2833 66.96 66.5233 66.512C66.7633 66.056 67.0913 65.7 67.5073 65.444C67.9313 65.188 68.4193 65.06 68.9713 65.06C69.3633 65.06 69.7153 65.128 70.0273 65.264C70.3393 65.392 70.6033 65.58 70.8193 65.828C71.0433 66.076 71.2113 66.376 71.3233 66.728C71.4433 67.08 71.5033 67.476 71.5033 67.916C71.5033 68.044 71.4673 68.14 71.3953 68.204C71.3233 68.26 71.2193 68.288 71.0833 68.288H66.9073V67.652H70.8553L70.6633 67.808C70.6633 67.376 70.5993 67.012 70.4713 66.716C70.3433 66.412 70.1553 66.18 69.9073 66.02C69.6673 65.86 69.3633 65.78 68.9953 65.78C68.5873 65.78 68.2393 65.876 67.9513 66.068C67.6713 66.252 67.4593 66.512 67.3153 66.848C67.1713 67.176 67.0993 67.56 67.0993 68V68.072C67.0993 68.808 67.2753 69.368 67.6273 69.752C67.9873 70.136 68.4953 70.328 69.1513 70.328C69.4233 70.328 69.6913 70.292 69.9553 70.22C70.2273 70.148 70.4913 70.028 70.7473 69.86C70.8593 69.788 70.9593 69.756 71.0473 69.764C71.1433 69.764 71.2193 69.792 71.2753 69.848C71.3313 69.896 71.3673 69.96 71.3833 70.04C71.4073 70.112 71.3993 70.192 71.3593 70.28C71.3273 70.368 71.2593 70.444 71.1553 70.508C70.8913 70.7 70.5793 70.848 70.2193 70.952C69.8593 71.056 69.5033 71.108 69.1513 71.108ZM73.39 71.084C73.23 71.084 73.11 71.04 73.03 70.952C72.95 70.864 72.91 70.74 72.91 70.58V65.576C72.91 65.416 72.95 65.296 73.03 65.216C73.11 65.128 73.226 65.084 73.378 65.084C73.53 65.084 73.646 65.128 73.726 65.216C73.814 65.296 73.858 65.416 73.858 65.576V66.608L73.726 66.464C73.894 66 74.166 65.652 74.542 65.42C74.926 65.18 75.366 65.06 75.862 65.06C76.326 65.06 76.71 65.144 77.014 65.312C77.326 65.48 77.558 65.736 77.71 66.08C77.862 66.416 77.938 66.844 77.938 67.364V70.58C77.938 70.74 77.894 70.864 77.806 70.952C77.726 71.04 77.61 71.084 77.458 71.084C77.298 71.084 77.174 71.04 77.086 70.952C77.006 70.864 76.966 70.74 76.966 70.58V67.424C76.966 66.88 76.858 66.484 76.642 66.236C76.434 65.98 76.098 65.852 75.634 65.852C75.098 65.852 74.67 66.02 74.35 66.356C74.038 66.684 73.882 67.124 73.882 67.676V70.58C73.882 70.916 73.718 71.084 73.39 71.084ZM81.8438 71.084C81.7078 71.084 81.5878 71.048 81.4838 70.976C81.3798 70.896 81.2918 70.776 81.2198 70.616L79.1438 65.768C79.0878 65.648 79.0678 65.536 79.0838 65.432C79.0998 65.328 79.1478 65.244 79.2278 65.18C79.3078 65.116 79.4198 65.084 79.5638 65.084C79.6918 65.084 79.7918 65.112 79.8638 65.168C79.9358 65.224 79.9998 65.324 80.0558 65.468L82.0238 70.28H81.6998L83.7038 65.468C83.7598 65.324 83.8238 65.224 83.8958 65.168C83.9678 65.112 84.0718 65.084 84.2078 65.084C84.3358 65.084 84.4318 65.116 84.4958 65.18C84.5678 65.244 84.6078 65.328 84.6158 65.432C84.6318 65.528 84.6158 65.636 84.5678 65.756L82.4678 70.616C82.4118 70.776 82.3278 70.896 82.2158 70.976C82.1118 71.048 81.9878 71.084 81.8438 71.084Z" fill="#030712"/>
<path d="M57.7966 37.5347C57.7966 37.5347 58.8663 37.259 59.2688 37.2678C59.7763 37.2787 60.3559 37.4209 60.6644 37.6069C60.9728 37.7906 62.1213 37.5194 62.1213 37.5194C62.1213 37.5194 62.7841 37.5653 62.5522 37.0731C62.4384 36.8303 61.22 36.4628 60.4894 36.349C59.5356 36.2003 58.2253 36.5175 58.2253 36.5175C58.2253 36.5175 58.1334 35.3887 57.8709 34.7937C57.7222 34.4525 57.2081 33.315 56.7619 32.8534C56.4709 32.5515 56.0553 32.2256 55.6988 32.4225C55.2525 32.6697 55.7447 33.5315 56.1297 34.1615C56.5147 34.7915 57.0878 35.4631 57.2847 36.01C57.4269 36.395 57.7966 37.5347 57.7966 37.5347Z" fill="#6B7E37"/>
<path d="M59.2666 34.9556C59.2666 34.9556 59.7434 33.8006 59.82 33.2472C59.8966 32.6938 59.9272 31.6919 59.7281 31.1538C59.5969 30.8016 59.3431 30.5522 59.0347 30.6922C58.8509 30.7753 58.4441 31.2391 58.5731 32.1403C58.6956 33.0022 58.7897 33.6803 58.7897 34.3431C58.7897 34.7894 58.7131 35.3756 58.7131 35.3756L59.2666 34.9556ZM58.8597 35.8263C58.8597 35.8263 59.4919 35.7038 60.2291 35.7191C60.9663 35.7344 62.4472 36.0581 63.3244 36.0275C64.2016 35.9969 64.3416 35.5813 64.0944 35.2575C63.8472 34.9338 63.1866 34.4109 61.9069 34.5334C60.9378 34.6275 59.4131 35.1416 59.4131 35.1416L58.8597 35.8263Z" fill="#6B7E37"/>
<path d="M59.9994 42.17C59.9994 42.17 59.9841 42.4019 59.8309 42.5244C59.6669 42.6556 59.4613 42.6928 59.4613 42.6928C59.4613 42.6928 58.2144 41.5837 57.7834 40.2909C57.3547 39.0025 57.5144 37.8256 57.5363 37.5806C57.5822 37.0884 57.86 36.4562 58.1203 36.0406C58.4813 35.4697 59.1375 34.7784 59.4591 34.47C59.7828 34.1616 60.275 33.6081 60.6447 33.2078C60.9466 32.8819 61.8106 31.9675 62.1234 31.7291C62.7075 31.2828 63.5716 30.7119 63.9413 31.2216C64.3109 31.7291 63.5409 32.5756 62.9241 32.9912C62.3072 33.4069 61.4606 33.9297 61.0603 34.1156C60.8394 34.2184 60.0759 34.7172 59.6909 35.1328C59.3059 35.5484 58.6584 36.2419 58.4288 36.9025C58.1969 37.5653 58.1356 38.1997 58.2122 39.1053C58.2888 40.0131 58.8291 40.9669 58.9975 41.2141C59.3103 41.6778 59.9994 42.17 59.9994 42.17Z" fill="#6B7E37"/>
<path d="M65.7109 39.9825C65.7109 39.9825 65.1881 38.3659 65.8947 36.2091C66.6253 33.9844 67.7584 32.6369 68.605 31.9281C70.0422 30.725 71.0222 30.5259 71.4072 30.865C71.7681 31.1822 71.7616 31.6503 71.6391 32.1884C71.5669 32.5056 71.1009 33.1903 71.1009 33.1903C71.1009 33.1903 71.3897 33.1837 71.6391 33.5141C72.0241 34.0216 71.8228 35.2225 71.8228 35.2225L70.0684 39.4575L67.6666 40.9516L65.7109 39.9825Z" fill="#B0B0B0"/>
<path d="M67.3384 40.3172C67.3384 40.3172 65.9581 39.7003 65.4506 38.9216C64.4663 37.4122 63.04 37.0841 62.1453 37.095C59.9491 37.1169 59.1266 38.5934 59.1266 38.5934L59.2294 40.2975C59.2294 40.2975 60.1744 41.5291 60.2138 41.715C60.2531 41.9009 59.9163 43.1828 60.7672 45.5737C61.4519 47.4944 63.8472 49.4959 66.7828 49.8656C69.7184 50.2353 70.7859 49.9269 70.7859 49.9269C70.7859 49.9269 72.0897 52.2784 72.315 52.2566C72.5403 52.2369 72.9931 51.7337 73.4131 51.5478C74.0694 51.2591 75.3644 50.6706 76.165 49.6687C77.5191 47.9756 77.2784 46.9103 77.5913 46.2606C77.8581 45.7072 78.1141 45.3156 78.0747 45.11C78.0353 44.9044 76.9044 44.7709 76.2263 44.7403C75.7319 44.7184 75.1478 44.6791 74.6863 44.6178C74.2903 44.5653 73.8025 44.3006 73.8025 44.3006L75.1566 43.1719L75.4038 41.3234L76.7797 40.07L76.8825 38.7969L78.7703 37.5041L79.8991 35.9225V34.6078L80.7609 33.1903C80.7609 33.1903 81.2334 32.2497 81.0891 32.125C80.9447 32.0003 80.6691 31.8406 80.1659 32.1622C79.9822 32.2803 80.47 31.5497 80.7347 31.1406C81.0738 30.6178 81.1547 30.0534 80.9513 29.8478C80.7456 29.6422 80.5203 29.6312 79.4266 29.9244C78.0025 30.305 76.1016 30.9306 73.4306 33.3128C70.7597 35.695 67.3384 40.3172 67.3384 40.3172Z" fill="#E0E0E0"/>
<path d="M80.9447 32.0331C80.9447 32.0331 80.8156 33.0503 80.2162 33.7022C79.5512 34.4241 78.3984 35.2575 77.9062 35.52C77.4141 35.7825 76.1366 36.3666 75.9353 36.4431C75.7341 36.5197 75.4278 36.6903 75.5197 36.9047C75.6116 37.1213 75.8281 37.1519 76.1366 37.0119C76.445 36.8741 77.845 36.1435 78.1687 35.9641C78.5384 35.7585 79.4528 35.205 79.5228 35.4719C79.6059 35.7803 78.9912 36.5853 78.2562 37.3203C77.3944 38.1822 76.1956 38.8297 75.8106 38.9981C75.4256 39.1666 74.8416 39.3985 74.6556 39.475C74.4719 39.5516 74.0541 39.7222 74.1481 39.9978C74.24 40.2756 74.7956 40.081 74.9881 40.0219C75.4344 39.8841 76.5194 39.2606 76.5653 39.4138C76.6112 39.5669 76.5041 39.9519 76.1191 40.3981C75.7341 40.8444 74.5484 41.4613 74.1328 41.691C73.7172 41.9206 73.5487 41.9841 73.4241 42.03C73.3016 42.076 72.9778 42.1831 73.0391 42.4763C73.1003 42.7694 73.4306 42.66 73.6012 42.5988C73.7172 42.5572 74.8875 41.9666 75.01 41.9206C75.1325 41.8747 75.1784 42.3363 75.01 42.6972C74.8569 43.0275 74.3625 43.4913 73.8703 43.8916C73.4831 44.2066 72.9778 44.4931 72.8531 44.5544C72.7306 44.6156 72.3456 44.8169 72.4222 45.016C72.4987 45.2172 72.7919 45.2325 73.1769 45.0466C73.5619 44.8628 75.5306 43.4803 75.7319 42.3975C75.8391 41.82 75.7625 41.505 75.7625 41.505C75.7625 41.505 76.8256 40.536 77.0247 40.0263C77.2259 39.5188 77.1931 39.0572 77.1931 39.0572C77.1931 39.0572 78.5209 38.0006 79.2078 37.2088C79.8269 36.4956 80.2162 35.6338 80.2884 35.2335C80.3519 34.8835 80.3037 34.5466 80.3037 34.5466C80.3037 34.5466 81.0278 33.4988 81.2116 32.8841C81.4172 32.2213 80.9447 32.0331 80.9447 32.0331ZM80.7237 29.7122C80.7237 29.7122 80.785 30.1585 80.5706 30.666C80.2272 31.4731 79.4441 32.0813 78.8162 32.4685C78.1381 32.8841 77.2916 33.2538 77.1537 33.3303C77.0159 33.4069 76.7775 33.5841 76.8759 33.8225C76.9831 34.085 77.2916 33.9756 77.4775 33.8838C77.6612 33.7919 79.7262 32.6216 80.1266 32.2213C80.3978 31.95 81.0803 31.3288 81.2356 30.6813C81.5134 29.5 80.7237 29.7122 80.7237 29.7122Z" fill="#B0B0B0"/>
<path d="M62.1759 39.5975C62.1759 39.9497 61.9462 40.2538 61.6006 40.2538C61.255 40.2538 60.9706 39.9453 60.9225 39.5975C60.8722 39.2278 61.1412 38.9456 61.4869 38.9303C61.9397 38.9106 62.1759 39.2475 62.1759 39.5975Z" fill="#2D2D2D"/>
<path d="M59.2709 38.3965C59.2709 38.3965 56.53 39.3809 56.5497 39.5865C56.5628 39.709 57.7397 40.1619 57.7397 40.1619L57.6938 39.9606L58.4288 40.0897L58.5622 40.3762L59.4459 40.5709C59.4459 40.5709 59.5181 39.8206 59.4569 39.2475C59.4 38.729 59.2709 38.3965 59.2709 38.3965Z" fill="#FFC300"/>
</svg>
