<svg width="119" height="118" viewBox="0 0 119 118" fill="none" xmlns="http://www.w3.org/2000/svg">
<mask id="path-1-inside-1_673_10163" fill="white">
<path fill-rule="evenodd" clip-rule="evenodd" d="M69.5 18C68.9477 18 68.5029 17.5515 68.4727 17C67.9538 7.52403 60.1056 0 50.5 0C40.8944 0 33.0462 7.52403 32.5273 17C32.4971 17.5515 32.0523 18 31.5 18L4.5 18C2.29086 18 0.5 19.7909 0.5 22L0.500002 49C0.500002 49.5523 0.948499 49.9971 1.49996 50.0273C10.976 50.5462 18.5 58.3944 18.5 68C18.5 77.6056 10.976 85.4538 1.49996 85.9727C0.9485 86.0029 0.500002 86.4477 0.500002 87L0.5 114C0.5 116.209 2.29086 118 4.5 118H31.5C32.0523 118 32.4971 117.552 32.5273 117C33.0462 107.524 40.8944 100 50.5 100C60.1056 100 67.9538 107.524 68.4727 117C68.5029 117.552 68.9477 118 69.5 118L96.5 118C98.7091 118 100.5 116.209 100.5 114L100.5 87C100.5 86.4477 100.948 86.0029 101.5 85.9727C110.976 85.4538 118.5 77.6056 118.5 68C118.5 58.3944 110.976 50.5462 101.5 50.0273C100.948 49.9971 100.5 49.5523 100.5 49L100.5 22C100.5 19.7909 98.7091 18 96.5 18L69.5 18Z"/>
</mask>
<path fill-rule="evenodd" clip-rule="evenodd" d="M69.5 18C68.9477 18 68.5029 17.5515 68.4727 17C67.9538 7.52403 60.1056 0 50.5 0C40.8944 0 33.0462 7.52403 32.5273 17C32.4971 17.5515 32.0523 18 31.5 18L4.5 18C2.29086 18 0.5 19.7909 0.5 22L0.500002 49C0.500002 49.5523 0.948499 49.9971 1.49996 50.0273C10.976 50.5462 18.5 58.3944 18.5 68C18.5 77.6056 10.976 85.4538 1.49996 85.9727C0.9485 86.0029 0.500002 86.4477 0.500002 87L0.5 114C0.5 116.209 2.29086 118 4.5 118H31.5C32.0523 118 32.4971 117.552 32.5273 117C33.0462 107.524 40.8944 100 50.5 100C60.1056 100 67.9538 107.524 68.4727 117C68.5029 117.552 68.9477 118 69.5 118L96.5 118C98.7091 118 100.5 116.209 100.5 114L100.5 87C100.5 86.4477 100.948 86.0029 101.5 85.9727C110.976 85.4538 118.5 77.6056 118.5 68C118.5 58.3944 110.976 50.5462 101.5 50.0273C100.948 49.9971 100.5 49.5523 100.5 49L100.5 22C100.5 19.7909 98.7091 18 96.5 18L69.5 18Z" fill="#D1D5DB" fill-opacity="0.2"/>
<path d="M4.5 18L4.5 17H4.5V18ZM0.5 22L-0.5 22L-0.5 22L0.5 22ZM0.5 114L-0.5 114V114H0.5ZM96.5 118V119V118ZM96.5 18L96.5 17L96.5 17L96.5 18ZM101.5 50.0273L101.555 49.0288L101.5 50.0273ZM101.5 85.9727L101.445 84.9742L101.5 85.9727ZM32.5273 117L31.5288 116.945L32.5273 117ZM1.49996 85.9727L1.44529 84.9742L1.49996 85.9727ZM32.5273 17L31.5288 16.9454L32.5273 17ZM68.4727 117L69.4712 116.945L68.4727 117ZM69.5 118V117V118ZM68.4727 17L69.4712 16.9454L68.4727 17ZM69.5 18L69.5 19L69.5 18ZM50.5 1C59.5716 1 66.9842 8.10603 67.4742 17.0547L69.4712 16.9454C68.9235 6.94204 60.6396 -1 50.5 -1V1ZM33.5258 17.0547C34.0158 8.10603 41.4284 1 50.5 1V-1C40.3604 -1 32.0765 6.94204 31.5288 16.9454L33.5258 17.0547ZM31.5 17L4.5 17L4.5 19L31.5 19L31.5 17ZM4.5 17C1.73858 17 -0.5 19.2386 -0.5 22H1.5C1.5 20.3431 2.84315 19 4.5 19V17ZM-0.5 22L-0.499998 49L1.5 49L1.5 22L-0.5 22ZM1.44528 51.0258C10.394 51.5158 17.5 58.9284 17.5 68H19.5C19.5 57.8604 11.558 49.5765 1.55463 49.0288L1.44528 51.0258ZM17.5 68C17.5 77.0716 10.394 84.4842 1.44529 84.9742L1.55463 86.9712C11.558 86.4235 19.5 78.1396 19.5 68H17.5ZM-0.499998 87L-0.5 114L1.5 114L1.5 87L-0.499998 87ZM-0.5 114C-0.5 116.761 1.73858 119 4.5 119L4.5 117C2.84315 117 1.5 115.657 1.5 114H-0.5ZM4.5 119H31.5V117H4.5L4.5 119ZM33.5258 117.055C34.0158 108.106 41.4284 101 50.5 101V99C40.3604 99 32.0765 106.942 31.5288 116.945L33.5258 117.055ZM50.5 101C59.5716 101 66.9842 108.106 67.4742 117.055L69.4712 116.945C68.9235 106.942 60.6396 99 50.5 99V101ZM69.5 119L96.5 119V117L69.5 117V119ZM96.5 119C99.2614 119 101.5 116.761 101.5 114H99.5C99.5 115.657 98.1569 117 96.5 117V119ZM101.5 114L101.5 87H99.5L99.5 114H101.5ZM101.555 86.9712C111.558 86.4235 119.5 78.1396 119.5 68H117.5C117.5 77.0716 110.394 84.4842 101.445 84.9742L101.555 86.9712ZM119.5 68C119.5 57.8604 111.558 49.5765 101.555 49.0288L101.445 51.0258C110.394 51.5158 117.5 58.9284 117.5 68H119.5ZM101.5 49L101.5 22H99.5L99.5 49H101.5ZM101.5 22C101.5 19.2386 99.2614 17 96.5 17V19C98.1569 19 99.5 20.3431 99.5 22H101.5ZM96.5 17L69.5 17L69.5 19L96.5 19L96.5 17ZM101.555 49.0288C101.533 49.0276 101.516 49.0187 101.506 49.0081C101.501 49.0033 101.5 49.0001 101.5 48.9999C101.5 48.9998 101.5 49.0001 101.5 49.0006C101.5 49.0012 101.5 49.0012 101.5 49H99.5C99.5 50.1183 100.399 50.9685 101.445 51.0258L101.555 49.0288ZM101.5 87C101.5 86.9988 101.5 86.9988 101.5 86.9993C101.5 86.9999 101.5 87.0002 101.5 87.0001C101.5 86.9999 101.501 86.9967 101.506 86.9919C101.516 86.9813 101.533 86.9724 101.555 86.9712L101.445 84.9742C100.399 85.0315 99.5 85.8817 99.5 87H101.5ZM31.5 119C32.6183 119 33.4685 118.101 33.5258 117.055L31.5288 116.945C31.5276 116.967 31.5187 116.984 31.5081 116.994C31.5033 116.999 31.5001 117 31.4999 117C31.4998 117 31.5001 117 31.5007 117C31.5012 117 31.5012 117 31.5 117V119ZM-0.499998 49C-0.499998 50.1183 0.399213 50.9685 1.44528 51.0258L1.55463 49.0288C1.53335 49.0276 1.5164 49.0187 1.506 49.0081C1.50127 49.0033 1.49985 49.0001 1.49977 48.9999C1.49974 48.9998 1.49987 49.0001 1.49998 49.0007C1.5001 49.0012 1.5 49.0012 1.5 49L-0.499998 49ZM1.44529 84.9742C0.399216 85.0315 -0.499998 85.8817 -0.499998 87L1.5 87C1.5 86.9988 1.5001 86.9988 1.49998 86.9994C1.49987 86.9999 1.49974 87.0002 1.49977 87.0001C1.49985 86.9999 1.50127 86.9967 1.506 86.9919C1.5164 86.9813 1.53335 86.9724 1.55463 86.9712L1.44529 84.9742ZM31.5288 16.9454C31.5276 16.9667 31.5187 16.9836 31.5081 16.994C31.5033 16.9987 31.5001 17.0002 31.4999 17.0002C31.4998 17.0003 31.5001 17.0001 31.5006 17C31.5012 16.9999 31.5012 17 31.5 17L31.5 19C32.6183 19 33.4685 18.1008 33.5258 17.0547L31.5288 16.9454ZM67.4742 117.055C67.5315 118.101 68.3817 119 69.5 119V117C69.4988 117 69.4988 117 69.4994 117C69.4999 117 69.5002 117 69.5001 117C69.4999 117 69.4967 116.999 69.4919 116.994C69.4813 116.984 69.4724 116.967 69.4712 116.945L67.4742 117.055ZM67.4742 17.0547C67.5315 18.1008 68.3817 19 69.5 19L69.5 17C69.4988 17 69.4988 16.9999 69.4994 17C69.4999 17.0001 69.5002 17.0003 69.5001 17.0002C69.4999 17.0002 69.4967 16.9987 69.4919 16.994C69.4813 16.9836 69.4724 16.9666 69.4712 16.9454L67.4742 17.0547Z" fill="#D1D5DB" mask="url(#path-1-inside-1_673_10163)"/>
<path d="M39.7768 89.108C39.3048 89.108 38.9128 89.024 38.6008 88.856C38.2968 88.68 38.0648 88.42 37.9048 88.076C37.7528 87.732 37.6768 87.304 37.6768 86.792V83.576C37.6768 83.408 37.7168 83.284 37.7968 83.204C37.8848 83.124 38.0048 83.084 38.1568 83.084C38.3168 83.084 38.4368 83.124 38.5168 83.204C38.6048 83.284 38.6488 83.408 38.6488 83.576V86.78C38.6488 87.292 38.7528 87.676 38.9608 87.932C39.1768 88.18 39.5128 88.304 39.9688 88.304C40.4648 88.304 40.8688 88.136 41.1808 87.8C41.4928 87.464 41.6488 87.024 41.6488 86.48V83.576C41.6488 83.408 41.6888 83.284 41.7688 83.204C41.8568 83.124 41.9808 83.084 42.1408 83.084C42.2928 83.084 42.4088 83.124 42.4888 83.204C42.5768 83.284 42.6208 83.408 42.6208 83.576V88.58C42.6208 88.916 42.4648 89.084 42.1528 89.084C42.0008 89.084 41.8808 89.04 41.7928 88.952C41.7128 88.864 41.6728 88.74 41.6728 88.58V87.488L41.8288 87.656C41.6688 88.128 41.4048 88.488 41.0368 88.736C40.6768 88.984 40.2568 89.108 39.7768 89.108ZM44.9193 89.084C44.7593 89.084 44.6393 89.04 44.5593 88.952C44.4793 88.864 44.4393 88.74 44.4393 88.58V83.576C44.4393 83.416 44.4793 83.296 44.5593 83.216C44.6393 83.128 44.7553 83.084 44.9073 83.084C45.0593 83.084 45.1753 83.128 45.2553 83.216C45.3433 83.296 45.3873 83.416 45.3873 83.576V84.608L45.2553 84.464C45.4233 84 45.6953 83.652 46.0713 83.42C46.4553 83.18 46.8953 83.06 47.3913 83.06C47.8553 83.06 48.2393 83.144 48.5433 83.312C48.8553 83.48 49.0873 83.736 49.2393 84.08C49.3913 84.416 49.4673 84.844 49.4673 85.364V88.58C49.4673 88.74 49.4233 88.864 49.3353 88.952C49.2553 89.04 49.1393 89.084 48.9873 89.084C48.8273 89.084 48.7033 89.04 48.6153 88.952C48.5353 88.864 48.4953 88.74 48.4953 88.58V85.424C48.4953 84.88 48.3873 84.484 48.1713 84.236C47.9633 83.98 47.6273 83.852 47.1633 83.852C46.6273 83.852 46.1993 84.02 45.8793 84.356C45.5673 84.684 45.4113 85.124 45.4113 85.676V88.58C45.4113 88.916 45.2473 89.084 44.9193 89.084ZM53.8397 91.268C53.4157 91.268 52.9997 91.216 52.5917 91.112C52.1917 91.016 51.8277 90.86 51.4997 90.644C51.4037 90.588 51.3397 90.52 51.3077 90.44C51.2837 90.36 51.2797 90.28 51.2957 90.2C51.3117 90.128 51.3477 90.06 51.4037 89.996C51.4597 89.94 51.5237 89.904 51.5957 89.888C51.6757 89.872 51.7557 89.884 51.8357 89.924C52.1877 90.14 52.5237 90.288 52.8437 90.368C53.1637 90.448 53.4797 90.488 53.7917 90.488C54.3597 90.488 54.7877 90.336 55.0757 90.032C55.3717 89.728 55.5197 89.288 55.5197 88.712V87.356H55.6397C55.5197 87.82 55.2637 88.188 54.8717 88.46C54.4877 88.732 54.0357 88.868 53.5157 88.868C52.9797 88.868 52.5157 88.748 52.1237 88.508C51.7317 88.26 51.4277 87.916 51.2117 87.476C51.0037 87.036 50.8997 86.528 50.8997 85.952C50.8997 85.52 50.9597 85.128 51.0797 84.776C51.1997 84.416 51.3717 84.112 51.5957 83.864C51.8277 83.608 52.1037 83.412 52.4237 83.276C52.7517 83.132 53.1157 83.06 53.5157 83.06C54.0437 83.06 54.4997 83.196 54.8837 83.468C55.2677 83.732 55.5157 84.092 55.6277 84.548L55.5077 84.692V83.576C55.5077 83.416 55.5477 83.296 55.6277 83.216C55.7157 83.128 55.8357 83.084 55.9877 83.084C56.1477 83.084 56.2677 83.128 56.3477 83.216C56.4277 83.296 56.4677 83.416 56.4677 83.576V88.58C56.4677 89.468 56.2437 90.136 55.7957 90.584C55.3557 91.04 54.7037 91.268 53.8397 91.268ZM53.6957 88.076C54.0717 88.076 54.3957 87.992 54.6677 87.824C54.9397 87.648 55.1477 87.4 55.2917 87.08C55.4437 86.76 55.5197 86.384 55.5197 85.952C55.5197 85.304 55.3557 84.792 55.0277 84.416C54.6997 84.032 54.2557 83.84 53.6957 83.84C53.3277 83.84 53.0077 83.928 52.7357 84.104C52.4637 84.272 52.2517 84.516 52.0997 84.836C51.9557 85.148 51.8837 85.52 51.8837 85.952C51.8837 86.6 52.0477 87.116 52.3757 87.5C52.7037 87.884 53.1437 88.076 53.6957 88.076ZM58.7709 89.084C58.6109 89.084 58.4909 89.04 58.4109 88.952C58.3309 88.864 58.2909 88.74 58.2909 88.58V80.948C58.2909 80.788 58.3309 80.668 58.4109 80.588C58.4909 80.5 58.6109 80.456 58.7709 80.456C58.9229 80.456 59.0429 80.5 59.1309 80.588C59.2189 80.668 59.2629 80.788 59.2629 80.948V84.464H59.1069C59.2749 84 59.5469 83.652 59.9229 83.42C60.3069 83.18 60.7469 83.06 61.2429 83.06C61.7069 83.06 62.0909 83.144 62.3949 83.312C62.7069 83.48 62.9389 83.736 63.0909 84.08C63.2429 84.416 63.3189 84.844 63.3189 85.364V88.58C63.3189 88.74 63.2749 88.864 63.1869 88.952C63.1069 89.04 62.9909 89.084 62.8389 89.084C62.6789 89.084 62.5549 89.04 62.4669 88.952C62.3869 88.864 62.3469 88.74 62.3469 88.58V85.424C62.3469 84.88 62.2389 84.484 62.0229 84.236C61.8149 83.98 61.4789 83.852 61.0149 83.852C60.4789 83.852 60.0509 84.02 59.7309 84.356C59.4189 84.684 59.2629 85.124 59.2629 85.676V88.58C59.2629 88.916 59.0989 89.084 58.7709 89.084Z" fill="#030712"/>
<path d="M55.7653 53.1022C55.7653 53.1022 62.6537 51.9122 63.0541 52.435C63.4544 52.9578 63.555 54.5328 63.3406 55.4231C63.1241 56.3156 62.3234 57.6916 59.9828 58.3391C58.0162 58.8816 57.3556 58.8838 56.3384 59.4897C55.5269 59.9731 54.3478 63.4513 54.1619 63.9456C53.9759 64.44 52.6219 66.3781 49.7891 65.9778C47.0219 65.5841 45.3244 62.9875 45.9106 60.4325C46.4969 57.8775 55.7653 53.1022 55.7653 53.1022Z" fill="#A92813"/>
<path d="M50.745 59.4766C50.745 59.4766 46.895 59.5684 45.6941 58.3063C44.4931 57.0441 43.2309 54.2419 42.8919 51.9931C42.5528 49.7444 41.4437 48.4209 40.9209 48.0819C40.3981 47.7428 39.8578 47.6509 39.7966 47.99C39.7353 48.3291 40.6869 49.4622 40.8597 49.9916C41.2906 51.315 41.0522 54.395 41.4131 55.8125C41.7828 57.2628 42.0759 57.7594 42.8919 58.7066C43.5 59.4131 44.4625 60.0934 44.4625 60.0934C44.4625 60.0934 40.7372 60.9859 39.6894 59.8769C38.6416 58.7678 38.7662 57.8447 38.8581 57.3831C38.95 56.9216 39.6894 55.6594 39.475 55.5347C39.2584 55.4122 37.9044 56.4578 37.7206 57.8447C37.5369 59.2316 37.9941 60.3866 38.7684 61.2331C39.7769 62.3334 41.6866 62.5194 42.7956 62.4275C43.9047 62.3356 45.0203 61.9725 45.0203 61.9725C45.0203 61.9725 44.9897 66.4984 42.8328 66.4678C41.2009 66.4438 41.015 65.9144 40.8619 65.6366C40.7087 65.3588 40.5491 65.1291 40.63 66.0128C40.6847 66.5969 41.3694 68.3994 43.5175 67.9378C45.3375 67.5463 46.4641 65.8728 46.8359 65.3588C47.245 64.7966 48.19 63.5103 48.19 63.5103C48.19 63.5103 47.8247 66.0106 47.9034 67.7803C47.9362 68.5197 48.1287 70.2544 49.485 70.8384C50.8391 71.4225 52.5716 70.6919 52.88 69.5216C53.1884 68.3513 52.565 67.6972 52.4709 67.6053C52.3769 67.5134 51.9481 68.9288 51.9481 68.9288C51.9481 68.9288 50.8391 69.6681 50.4081 69.1453C49.9772 68.6225 50.5 64.5559 50.5612 63.6941C50.6225 62.8322 51.515 63.6634 51.8234 64.0944C52.1319 64.5253 52.6328 65.595 53.3941 66.3431C54.6497 67.5791 56.0125 68.115 57.9484 67.9663C59.9653 67.8109 61.2253 67.0191 61.9012 66.0041C62.5794 64.9869 62.7259 63.9784 62.5094 63.7947C62.2928 63.6109 60.8162 65.3894 60.5078 65.6344C60.1994 65.8816 57.1194 65.6344 56.6884 65.6344C56.2575 65.6344 56.1656 64.8644 56.1656 64.8644C56.1656 64.8644 57.92 64.4028 58.5369 63.9413C59.1537 63.4797 60.8469 62.5084 60.9694 59.7522C61.0634 57.6259 60.9694 51.9188 61.1859 50.9956C61.4025 50.0725 62.2228 49.2916 62.0369 48.9831C61.8509 48.6747 61.0306 49.1888 60.9081 49.2806C60.7856 49.3725 59.4906 49.9894 59.46 51.0984C59.4294 52.2075 59.0597 60.1219 58.4428 60.7672C57.8259 61.4147 55.8244 62.7075 54.7175 62.5544C53.6084 62.4034 50.745 59.4766 50.745 59.4766Z" fill="#FFA8A8"/>
<path d="M62.4175 63.7575C62.0478 63.7269 61.7394 64.219 61.3697 64.4969C61 64.7747 60.2606 65.4812 58.3203 65.42C56.38 65.3587 55.0872 63.2325 55.0872 63.2325C55.0872 63.2325 55.7041 63.2937 56.4106 63.11C57.1194 62.9262 58.2438 62.3247 58.9503 61.0472C59.7925 59.529 59.6044 55.7819 59.6131 54.1172C59.6241 51.8181 60.3722 50.5953 60.6609 50.2059C61.1531 49.5387 61.9341 49.1581 61.9647 48.9437C61.9953 48.7272 60.9891 48.8519 60.4138 49.1909C59.775 49.5672 59.46 49.9915 59.46 49.9915C59.46 49.9915 57.9813 49.8384 57.1806 49.8384C56.38 49.8384 54.8422 49.9565 53.5013 50.2694C51.8541 50.6544 50.6225 51.5928 50.2834 51.6562C50.2834 51.6562 49.1897 50.569 47.3894 51.8094C45.5103 53.1022 46.8666 55.8431 46.8666 55.8431C46.8666 55.8431 46.7747 56.239 46.2825 56.3659C45.5738 56.5497 44.5128 55.8584 44.1278 54.6269C43.8041 53.5878 43.8806 52.1484 43.5744 50.4859C43.2659 48.8234 42.3734 48.084 41.5728 47.7144C40.7722 47.3447 39.755 47.6837 39.9103 47.8981C40.0634 48.1147 41.2338 48.515 41.9425 49.8078C42.6513 51.1006 42.3122 54.1194 43.0822 56.274C43.8522 58.4287 45.2697 59.1375 45.2697 59.1375C45.2697 59.1375 44.4691 59.5072 44.0381 59.599C43.6072 59.6909 42.4369 59.9075 41.3584 59.6844C40.2363 59.4525 39.4794 58.63 39.3569 57.7222C39.2519 56.95 39.7572 55.5981 39.4794 55.5347C39.2016 55.4712 38.2084 56.8887 38.1778 58.059C38.1472 59.2294 39.0484 60.5834 40.4025 61.2309C41.7566 61.8784 44.5916 61.2922 44.5916 61.2922C44.5916 61.2922 44.3597 61.6465 44.3291 62.3247C44.2984 63.0028 43.8981 64.5187 43.1741 64.9584C42.6775 65.2603 42.2356 65.3587 42.0803 64.9584C41.9272 64.5581 42.7125 64.405 42.6819 64.0047C42.6513 63.6044 42.0038 63.5037 41.3891 63.8822C40.9734 64.1359 40.28 65.0525 40.7109 66.0369C41.1419 67.0212 42.2116 67.369 43.3906 67.054C45.1494 66.5837 47.1794 63.3287 47.8247 62.7731C48.4722 62.2197 48.9031 62.3728 48.9031 62.3728C48.9031 62.3728 48.5947 65.2362 48.6559 67.1765C48.7172 69.1169 49.9575 70.3834 51.3356 70.1647C52.8756 69.9175 52.9675 68.6553 52.7225 67.9772C52.5059 67.3844 51.69 67.1612 51.4603 67.3297C51.1606 67.5506 51.3597 67.9137 51.4756 68.0144C51.7534 68.2528 51.5216 68.8084 51.0906 68.6837C50.6597 68.5612 51.06 67.1131 51.2438 66.4044C51.4275 65.6956 51.8606 64.0331 52.3528 63.9106C52.845 63.7881 53.3459 64.6522 53.8009 65.1728C54.5797 66.0653 55.8484 66.7587 57.6575 66.7894C60.0484 66.8309 61.5294 65.3565 61.8684 64.9869C62.2009 64.6194 62.785 63.7881 62.4175 63.7575ZM56.8722 57.3219C57.5809 56.8297 58.1869 56.6044 58.1869 56.6044C58.1869 56.6044 58.2066 59.1287 57.2419 60.4325C56.4434 61.5109 55.6713 61.2637 55.6713 61.2637C55.6713 61.2637 56.4653 60.8306 56.5331 60.0015C56.625 58.8619 55.4241 58.6475 55.4241 58.6475C55.4241 58.6475 56.2553 57.7506 56.8722 57.3219Z" fill="#FF615E"/>
<path d="M61.0197 55.7972C61.0197 55.7972 63.555 55.0425 63.3078 53.1941C63.0606 51.3456 61.1925 50.9366 61.1925 50.9366C61.1925 50.9366 60.9256 51.9013 60.9672 53.1635C60.9869 53.7169 61.0197 55.7972 61.0197 55.7972Z" fill="#FF615E"/>
<path d="M55.6472 60.5375C55.365 60.9881 54.8837 61.0822 54.5337 60.8635C54.1837 60.6447 54.1291 60.205 54.4112 59.7544C54.6934 59.3038 55.2709 59.1003 55.6231 59.3191C55.9753 59.5378 55.9294 60.0869 55.6472 60.5375ZM50.7909 57.8906C51.1847 57.8666 51.0534 57.475 50.9747 56.9522C50.8981 56.4294 50.6137 55.0535 51.4209 54.2266C52.0991 53.5331 52.9434 53.5419 53.5756 53.9488C54.0525 54.2572 54.2691 54.3797 54.4528 54.15C54.5753 53.9969 54.3916 53.7038 54.0831 53.4413C53.6916 53.1088 52.3441 52.4241 51.0797 53.4719C49.8853 54.4628 50.0778 56.3813 50.2331 57.0441C50.3906 57.7069 50.5437 57.906 50.7909 57.8906ZM46.9256 51.6847C46.125 52.516 45.9609 53.181 46.0484 54.3031C46.125 55.305 46.4794 56.0728 46.8644 55.9197C47.1859 55.7906 47.0481 55.1956 46.9409 54.8872C46.8337 54.5788 46.6478 53.1 47.4331 52.2994C48.2184 51.4988 49.1109 51.606 49.5112 51.6978C49.9116 51.7897 50.08 51.8816 50.2812 51.6519C50.4825 51.4222 50.0647 51.0503 49.6644 50.9585C49.2641 50.8666 47.9844 50.5866 46.9256 51.6847Z" fill="#A52914"/>
<path d="M54.4397 56.6131C54.4397 57.2519 53.9606 57.8928 53.3306 57.86C52.7137 57.8294 52.4228 57.2344 52.4228 56.5978C52.4228 55.9612 52.7925 55.4428 53.44 55.3969C54.1772 55.3444 54.4397 55.9744 54.4397 56.6131Z" fill="#2C2B2D"/>
<path d="M60.7487 54.4579C60.791 54.1943 60.6213 53.9478 60.3696 53.9074C60.1179 53.867 59.8796 54.048 59.8373 54.3116C59.7949 54.5752 59.9647 54.8217 60.2164 54.8621C60.4681 54.9025 60.7064 54.7215 60.7487 54.4579Z" fill="#FCD4B0"/>
<path d="M61.0978 51.472C61.1896 51.2277 61.0917 50.9649 60.879 50.885C60.6664 50.8051 60.4197 50.9384 60.3279 51.1826C60.2361 51.4269 60.334 51.6897 60.5466 51.7696C60.7592 51.8495 61.006 51.7163 61.0978 51.472Z" fill="#FCD4B0"/>
<path d="M60.2912 58.3981C60.6029 58.3981 60.8556 58.1366 60.8556 57.814C60.8556 57.4915 60.6029 57.23 60.2912 57.23C59.9795 57.23 59.7269 57.4915 59.7269 57.814C59.7269 58.1366 59.9795 58.3981 60.2912 58.3981Z" fill="#FCD4B0"/>
<path d="M60.2804 61.4989C60.4165 61.1919 60.2924 60.839 60.003 60.7107C59.7137 60.5823 59.3688 60.7271 59.2326 61.0341C59.0964 61.3411 59.2205 61.6941 59.5099 61.8224C59.7992 61.9508 60.1442 61.8059 60.2804 61.4989Z" fill="#FCD4B0"/>
<path d="M60.7258 67.0107C60.9604 66.9109 61.0781 66.6597 60.9887 66.4496C60.8993 66.2395 60.6367 66.15 60.4022 66.2498C60.1676 66.3496 60.0499 66.6008 60.1393 66.8109C60.2287 67.021 60.4913 67.1105 60.7258 67.0107Z" fill="#FCD4B0"/>
<path d="M57.8456 67.8328C58.1344 67.8328 58.3684 67.6125 58.3684 67.3406C58.3684 67.0688 58.1344 66.8484 57.8456 66.8484C57.5569 66.8484 57.3228 67.0688 57.3228 67.3406C57.3228 67.6125 57.5569 67.8328 57.8456 67.8328Z" fill="#FCD4B0"/>
<path d="M55.0369 67.3275C55.3147 67.3275 55.54 67.0934 55.54 66.8047C55.54 66.5159 55.3147 66.2819 55.0369 66.2819C54.759 66.2819 54.5338 66.5159 54.5338 66.8047C54.5338 67.0934 54.759 67.3275 55.0369 67.3275Z" fill="#FCD4B0"/>
<path d="M49.8219 70.9631C50.1227 70.9631 50.3666 70.7242 50.3666 70.4294C50.3666 70.1346 50.1227 69.8956 49.8219 69.8956C49.5211 69.8956 49.2772 70.1346 49.2772 70.4294C49.2772 70.7242 49.5211 70.9631 49.8219 70.9631Z" fill="#FCD4B0"/>
<path d="M48.2551 67.864C48.4649 67.8498 48.6194 67.6106 48.6003 67.3297C48.5812 67.0489 48.3958 66.8328 48.186 66.847C47.9763 66.8613 47.8217 67.1005 47.8408 67.3813C47.8599 67.6622 48.0454 67.8783 48.2551 67.864Z" fill="#FCD4B0"/>
<path d="M45.7286 66.8061C45.9575 66.5946 45.9902 66.2576 45.8016 66.0536C45.613 65.8495 45.2746 65.8555 45.0457 66.0671C44.8167 66.2786 44.784 66.6155 44.9726 66.8196C45.1612 67.0237 45.4996 67.0176 45.7286 66.8061Z" fill="#FCD4B0"/>
<path d="M42.6972 68.1938C43.0089 68.1938 43.2616 67.9636 43.2616 67.6797C43.2616 67.3958 43.0089 67.1656 42.6972 67.1656C42.3855 67.1656 42.1328 67.3958 42.1328 67.6797C42.1328 67.9636 42.3855 68.1938 42.6972 68.1938Z" fill="#FCD4B0"/>
<path d="M42.1219 62.4844C42.3997 62.4844 42.625 62.2826 42.625 62.0338C42.625 61.7849 42.3997 61.5831 42.1219 61.5831C41.844 61.5831 41.6187 61.7849 41.6187 62.0338C41.6187 62.2826 41.844 62.4844 42.1219 62.4844Z" fill="#FCD4B0"/>
<path d="M39.9713 61.5383C40.1017 61.3123 40.0167 61.0189 39.7813 60.883C39.5458 60.7471 39.2492 60.8201 39.1188 61.0461C38.9883 61.2721 39.0733 61.5655 39.3088 61.7014C39.5442 61.8373 39.8408 61.7643 39.9713 61.5383Z" fill="#FCD4B0"/>
<path d="M38.1788 59.8259C38.3886 59.7453 38.4828 59.4826 38.3892 59.2389C38.2957 58.9953 38.0498 58.8632 37.84 58.9437C37.6302 59.0243 37.536 59.2871 37.6296 59.5307C37.7231 59.7743 37.969 59.9065 38.1788 59.8259Z" fill="#FCD4B0"/>
<path d="M42.0125 55.7666C42.2795 55.7666 42.4959 55.5413 42.4959 55.2634C42.4959 54.9856 42.2795 54.7603 42.0125 54.7603C41.7455 54.7603 41.5291 54.9856 41.5291 55.2634C41.5291 55.5413 41.7455 55.7666 42.0125 55.7666Z" fill="#FCD4B0"/>
<path d="M41.7434 52.8747C42.0044 52.8747 42.2159 52.6543 42.2159 52.3825C42.2159 52.1107 42.0044 51.8903 41.7434 51.8903C41.4825 51.8903 41.2709 52.1107 41.2709 52.3825C41.2709 52.6543 41.4825 52.8747 41.7434 52.8747Z" fill="#FCD4B0"/>
<path d="M41.5162 50.2491C41.7325 50.1652 41.833 49.9046 41.7409 49.6669C41.6487 49.4293 41.3986 49.3046 41.1824 49.3885C40.9661 49.4723 40.8655 49.733 40.9577 49.9707C41.0499 50.2083 41.2999 50.333 41.5162 50.2491Z" fill="#FCD4B0"/>
</svg>
