<svg width="119" height="118" viewBox="0 0 119 118" fill="none" xmlns="http://www.w3.org/2000/svg">
<mask id="path-1-inside-1_673_10164" fill="white">
<path fill-rule="evenodd" clip-rule="evenodd" d="M69.5 0C68.9477 0 68.5029 0.448498 68.4727 0.999957C67.9538 10.476 60.1056 18 50.5 18C40.8944 18 33.0462 10.476 32.5273 0.999956C32.4971 0.448497 32.0523 0 31.5 0L4.5 0C2.29086 0 0.5 1.79086 0.5 4L0.5 31C0.5 31.5523 0.948498 31.9971 1.49996 32.0273C10.976 32.5462 18.5 40.3944 18.5 50C18.5 59.6056 10.976 67.4538 1.49996 67.9727C0.948497 68.0029 0.5 68.4477 0.5 69L0.5 96C0.5 98.2091 2.29086 100 4.5 100H31.5C32.0523 100 32.4971 100.448 32.5273 101C33.0462 110.476 40.8944 118 50.5 118C60.1056 118 67.9538 110.476 68.4727 101C68.5029 100.448 68.9477 100 69.5 100H96.5C98.7091 100 100.5 98.2091 100.5 96V69C100.5 68.4477 100.948 68.0029 101.5 67.9727C110.976 67.4538 118.5 59.6056 118.5 50C118.5 40.3944 110.976 32.5462 101.5 32.0273C100.948 31.9971 100.5 31.5523 100.5 31V4C100.5 1.79086 98.7091 0 96.5 0L69.5 0Z"/>
</mask>
<path fill-rule="evenodd" clip-rule="evenodd" d="M69.5 0C68.9477 0 68.5029 0.448498 68.4727 0.999957C67.9538 10.476 60.1056 18 50.5 18C40.8944 18 33.0462 10.476 32.5273 0.999956C32.4971 0.448497 32.0523 0 31.5 0L4.5 0C2.29086 0 0.5 1.79086 0.5 4L0.5 31C0.5 31.5523 0.948498 31.9971 1.49996 32.0273C10.976 32.5462 18.5 40.3944 18.5 50C18.5 59.6056 10.976 67.4538 1.49996 67.9727C0.948497 68.0029 0.5 68.4477 0.5 69L0.5 96C0.5 98.2091 2.29086 100 4.5 100H31.5C32.0523 100 32.4971 100.448 32.5273 101C33.0462 110.476 40.8944 118 50.5 118C60.1056 118 67.9538 110.476 68.4727 101C68.5029 100.448 68.9477 100 69.5 100H96.5C98.7091 100 100.5 98.2091 100.5 96V69C100.5 68.4477 100.948 68.0029 101.5 67.9727C110.976 67.4538 118.5 59.6056 118.5 50C118.5 40.3944 110.976 32.5462 101.5 32.0273C100.948 31.9971 100.5 31.5523 100.5 31V4C100.5 1.79086 98.7091 0 96.5 0L69.5 0Z" fill="#FFFFFF" fill-opacity="1"/>
<path d="M101.5 32.0273L101.555 31.0288L101.5 32.0273ZM101.5 67.9727L101.555 68.9712L101.5 67.9727ZM32.5273 101L33.5258 100.945L32.5273 101ZM1.49996 32.0273L1.44528 33.0258L1.49996 32.0273ZM32.5273 0.999956L31.5288 1.05463L32.5273 0.999956ZM68.4727 101L67.4742 100.945L68.4727 101ZM68.4727 0.999957L67.4742 0.945284L68.4727 0.999957ZM50.5 19C60.6396 19 68.9235 11.058 69.4712 1.05463L67.4742 0.945284C66.9842 9.89397 59.5716 17 50.5 17L50.5 19ZM31.5288 1.05463C32.0765 11.058 40.3604 19 50.5 19L50.5 17C41.4284 17 34.0158 9.89397 33.5258 0.945282L31.5288 1.05463ZM4.5 1L31.5 1V-1L4.5 -1V1ZM1.5 4C1.5 2.34315 2.84315 1 4.5 1V-1C1.73858 -1 -0.5 1.23858 -0.5 4H1.5ZM1.5 31L1.5 4H-0.5L-0.5 31H1.5ZM19.5 50C19.5 39.8604 11.558 31.5765 1.55463 31.0288L1.44528 33.0258C10.394 33.5158 17.5 40.9284 17.5 50L19.5 50ZM1.55463 68.9712C11.558 68.4235 19.5 60.1396 19.5 50L17.5 50C17.5 59.0716 10.394 66.4842 1.44528 66.9742L1.55463 68.9712ZM1.5 96L1.5 69H-0.5L-0.5 96H1.5ZM4.5 99C2.84315 99 1.5 97.6569 1.5 96H-0.5C-0.5 98.7614 1.73858 101 4.5 101V99ZM31.5 99H4.5V101H31.5L31.5 99ZM50.5 117C41.4284 117 34.0158 109.894 33.5258 100.945L31.5288 101.055C32.0765 111.058 40.3605 119 50.5 119V117ZM67.4742 100.945C66.9842 109.894 59.5716 117 50.5 117V119C60.6396 119 68.9235 111.058 69.4712 101.055L67.4742 100.945ZM96.5 99H69.5V101H96.5V99ZM99.5 96C99.5 97.6569 98.1569 99 96.5 99V101C99.2614 101 101.5 98.7614 101.5 96H99.5ZM99.5 69V96H101.5V69H99.5ZM117.5 50C117.5 59.0716 110.394 66.4842 101.445 66.9742L101.555 68.9712C111.558 68.4235 119.5 60.1396 119.5 50H117.5ZM101.445 33.0258C110.394 33.5158 117.5 40.9284 117.5 50H119.5C119.5 39.8604 111.558 31.5765 101.555 31.0288L101.445 33.0258ZM99.5 4V31H101.5V4L99.5 4ZM96.5 1C98.1569 1 99.5 2.34315 99.5 4L101.5 4C101.5 1.23858 99.2614 -1 96.5 -1V1ZM69.5 1L96.5 1V-1L69.5 -1V1ZM101.555 31.0288C101.533 31.0276 101.516 31.0187 101.506 31.0081C101.501 31.0033 101.5 31.0001 101.5 30.9999C101.5 30.9998 101.5 31.0001 101.5 31.0007C101.5 31.0012 101.5 31.0012 101.5 31H99.5C99.5 32.1183 100.399 32.9685 101.445 33.0258L101.555 31.0288ZM101.5 69C101.5 68.9988 101.5 68.9988 101.5 68.9994C101.5 68.9999 101.5 69.0002 101.5 69.0001C101.5 68.9999 101.501 68.9967 101.506 68.9919C101.516 68.9813 101.533 68.9724 101.555 68.9712L101.445 66.9742C100.399 67.0315 99.5 67.8817 99.5 69H101.5ZM31.5 101C31.5012 101 31.5012 101 31.5007 101C31.5001 101 31.4998 101 31.4999 101C31.5001 101 31.5033 101.001 31.5081 101.006C31.5187 101.016 31.5276 101.033 31.5288 101.055L33.5258 100.945C33.4685 99.8992 32.6183 99 31.5 99L31.5 101ZM-0.5 31C-0.5 32.1183 0.399214 32.9685 1.44528 33.0258L1.55463 31.0288C1.53335 31.0276 1.5164 31.0187 1.506 31.0081C1.50127 31.0033 1.49985 31.0001 1.49977 30.9999C1.49974 30.9998 1.49987 31.0001 1.49998 31.0006C1.5001 31.0012 1.5 31.0012 1.5 31H-0.5ZM1.44528 66.9742C0.399211 67.0315 -0.5 67.8817 -0.5 69H1.5C1.5 68.9988 1.5001 68.9988 1.49998 68.9993C1.49987 68.9999 1.49974 69.0002 1.49977 69.0001C1.49985 68.9999 1.50127 68.9967 1.506 68.9919C1.5164 68.9813 1.53335 68.9724 1.55463 68.9712L1.44528 66.9742ZM33.5258 0.945282C33.4685 -0.100789 32.6183 -1 31.5 -1V1C31.5012 1 31.5012 1.0001 31.5007 0.999977C31.5001 0.999868 31.4998 0.999738 31.4999 0.999766C31.5001 0.999846 31.5033 1.00127 31.5081 1.006C31.5187 1.0164 31.5276 1.03335 31.5288 1.05463L33.5258 0.945282ZM69.4712 101.055C69.4724 101.033 69.4813 101.016 69.4919 101.006C69.4967 101.001 69.4999 101 69.5001 101C69.5002 101 69.4999 101 69.4993 101C69.4988 101 69.4988 101 69.5 101V99C68.3817 99 67.5315 99.8992 67.4742 100.945L69.4712 101.055ZM69.4712 1.05463C69.4724 1.03335 69.4813 1.0164 69.4919 1.006C69.4967 1.00127 69.4999 0.999846 69.5001 0.999766C69.5002 0.999738 69.4999 0.999868 69.4994 0.999977C69.4988 1.0001 69.4988 1 69.5 1V-1C68.3817 -1 67.5315 -0.100786 67.4742 0.945284L69.4712 1.05463Z" fill="#D1D5DB" mask="url(#path-1-inside-1_673_10164)"/>
<path d="M33.4194 71.108C32.9474 71.108 32.5554 71.024 32.2434 70.856C31.9394 70.68 31.7074 70.42 31.5474 70.076C31.3954 69.732 31.3194 69.304 31.3194 68.792V65.576C31.3194 65.408 31.3594 65.284 31.4394 65.204C31.5274 65.124 31.6474 65.084 31.7994 65.084C31.9594 65.084 32.0794 65.124 32.1594 65.204C32.2474 65.284 32.2914 65.408 32.2914 65.576V68.78C32.2914 69.292 32.3954 69.676 32.6034 69.932C32.8194 70.18 33.1554 70.304 33.6114 70.304C34.1074 70.304 34.5114 70.136 34.8234 69.8C35.1354 69.464 35.2914 69.024 35.2914 68.48V65.576C35.2914 65.408 35.3314 65.284 35.4114 65.204C35.4994 65.124 35.6234 65.084 35.7834 65.084C35.9354 65.084 36.0514 65.124 36.1314 65.204C36.2194 65.284 36.2634 65.408 36.2634 65.576V70.58C36.2634 70.916 36.1074 71.084 35.7954 71.084C35.6434 71.084 35.5234 71.04 35.4354 70.952C35.3554 70.864 35.3154 70.74 35.3154 70.58V69.488L35.4714 69.656C35.3114 70.128 35.0474 70.488 34.6794 70.736C34.3194 70.984 33.8994 71.108 33.4194 71.108ZM38.5619 71.084C38.4019 71.084 38.2819 71.04 38.2019 70.952C38.1219 70.864 38.0819 70.74 38.0819 70.58V65.576C38.0819 65.416 38.1219 65.296 38.2019 65.216C38.2819 65.128 38.3979 65.084 38.5499 65.084C38.7019 65.084 38.8179 65.128 38.8979 65.216C38.9859 65.296 39.0299 65.416 39.0299 65.576V66.608L38.8979 66.464C39.0659 66 39.3379 65.652 39.7139 65.42C40.0979 65.18 40.5379 65.06 41.0339 65.06C41.4979 65.06 41.8819 65.144 42.1859 65.312C42.4979 65.48 42.7299 65.736 42.8819 66.08C43.0339 66.416 43.1099 66.844 43.1099 67.364V70.58C43.1099 70.74 43.0659 70.864 42.9779 70.952C42.8979 71.04 42.7819 71.084 42.6299 71.084C42.4699 71.084 42.3459 71.04 42.2579 70.952C42.1779 70.864 42.1379 70.74 42.1379 70.58V67.424C42.1379 66.88 42.0299 66.484 41.8139 66.236C41.6059 65.98 41.2699 65.852 40.8059 65.852C40.2699 65.852 39.8419 66.02 39.5219 66.356C39.2099 66.684 39.0539 67.124 39.0539 67.676V70.58C39.0539 70.916 38.8899 71.084 38.5619 71.084ZM45.3822 71.084C45.2222 71.084 45.1022 71.04 45.0222 70.952C44.9422 70.864 44.9022 70.74 44.9022 70.58V62.948C44.9022 62.788 44.9422 62.668 45.0222 62.588C45.1022 62.5 45.2222 62.456 45.3822 62.456C45.5342 62.456 45.6542 62.5 45.7422 62.588C45.8302 62.668 45.8742 62.788 45.8742 62.948V66.464H45.7182C45.8862 66 46.1582 65.652 46.5342 65.42C46.9182 65.18 47.3582 65.06 47.8542 65.06C48.3182 65.06 48.7022 65.144 49.0062 65.312C49.3182 65.48 49.5502 65.736 49.7022 66.08C49.8542 66.416 49.9302 66.844 49.9302 67.364V70.58C49.9302 70.74 49.8862 70.864 49.7982 70.952C49.7182 71.04 49.6022 71.084 49.4502 71.084C49.2902 71.084 49.1662 71.04 49.0782 70.952C48.9982 70.864 48.9582 70.74 48.9582 70.58V67.424C48.9582 66.88 48.8502 66.484 48.6342 66.236C48.4262 65.98 48.0902 65.852 47.6262 65.852C47.0902 65.852 46.6622 66.02 46.3422 66.356C46.0302 66.684 45.8742 67.124 45.8742 67.676V70.58C45.8742 70.916 45.7102 71.084 45.3822 71.084ZM54.3505 71.108C53.7345 71.108 53.2025 70.988 52.7545 70.748C52.3145 70.5 51.9705 70.152 51.7225 69.704C51.4825 69.256 51.3625 68.72 51.3625 68.096C51.3625 67.488 51.4825 66.96 51.7225 66.512C51.9625 66.056 52.2905 65.7 52.7065 65.444C53.1305 65.188 53.6185 65.06 54.1705 65.06C54.5625 65.06 54.9145 65.128 55.2265 65.264C55.5385 65.392 55.8025 65.58 56.0185 65.828C56.2425 66.076 56.4105 66.376 56.5225 66.728C56.6425 67.08 56.7025 67.476 56.7025 67.916C56.7025 68.044 56.6665 68.14 56.5945 68.204C56.5225 68.26 56.4185 68.288 56.2825 68.288H52.1065V67.652H56.0545L55.8625 67.808C55.8625 67.376 55.7985 67.012 55.6705 66.716C55.5425 66.412 55.3545 66.18 55.1065 66.02C54.8665 65.86 54.5625 65.78 54.1945 65.78C53.7865 65.78 53.4385 65.876 53.1505 66.068C52.8705 66.252 52.6585 66.512 52.5145 66.848C52.3705 67.176 52.2985 67.56 52.2985 68V68.072C52.2985 68.808 52.4745 69.368 52.8265 69.752C53.1865 70.136 53.6945 70.328 54.3505 70.328C54.6225 70.328 54.8905 70.292 55.1545 70.22C55.4265 70.148 55.6905 70.028 55.9465 69.86C56.0585 69.788 56.1585 69.756 56.2465 69.764C56.3425 69.764 56.4185 69.792 56.4745 69.848C56.5305 69.896 56.5665 69.96 56.5825 70.04C56.6065 70.112 56.5985 70.192 56.5585 70.28C56.5265 70.368 56.4585 70.444 56.3545 70.508C56.0905 70.7 55.7785 70.848 55.4185 70.952C55.0585 71.056 54.7025 71.108 54.3505 71.108ZM59.9453 71.108C59.5453 71.108 59.1853 71.032 58.8653 70.88C58.5533 70.72 58.3053 70.504 58.1213 70.232C57.9373 69.96 57.8453 69.656 57.8453 69.32C57.8453 68.888 57.9533 68.548 58.1693 68.3C58.3933 68.052 58.7573 67.876 59.2613 67.772C59.7733 67.668 60.4693 67.616 61.3493 67.616H61.8893V68.252H61.3613C60.7133 68.252 60.2013 68.284 59.8253 68.348C59.4573 68.404 59.1973 68.504 59.0453 68.648C58.9013 68.792 58.8293 68.996 58.8293 69.26C58.8293 69.588 58.9413 69.856 59.1653 70.064C59.3973 70.272 59.7093 70.376 60.1013 70.376C60.4213 70.376 60.7013 70.3 60.9413 70.148C61.1893 69.996 61.3813 69.788 61.5173 69.524C61.6613 69.26 61.7333 68.956 61.7333 68.612V67.244C61.7333 66.748 61.6333 66.392 61.4333 66.176C61.2333 65.952 60.9053 65.84 60.4493 65.84C60.1693 65.84 59.8893 65.876 59.6093 65.948C59.3293 66.02 59.0333 66.136 58.7213 66.296C58.6093 66.352 58.5133 66.372 58.4333 66.356C58.3533 66.332 58.2893 66.288 58.2413 66.224C58.1933 66.16 58.1653 66.088 58.1573 66.008C58.1493 65.92 58.1653 65.836 58.2053 65.756C58.2533 65.676 58.3253 65.612 58.4213 65.564C58.7733 65.388 59.1213 65.26 59.4653 65.18C59.8093 65.1 60.1373 65.06 60.4493 65.06C60.9533 65.06 61.3693 65.144 61.6973 65.312C62.0253 65.472 62.2693 65.72 62.4293 66.056C62.5893 66.384 62.6693 66.808 62.6693 67.328V70.58C62.6693 70.74 62.6293 70.864 62.5493 70.952C62.4773 71.04 62.3693 71.084 62.2253 71.084C62.0733 71.084 61.9573 71.04 61.8773 70.952C61.7973 70.864 61.7573 70.74 61.7573 70.58V69.644H61.8653C61.8013 69.948 61.6773 70.208 61.4933 70.424C61.3173 70.64 61.0973 70.808 60.8333 70.928C60.5693 71.048 60.2733 71.108 59.9453 71.108ZM66.6925 71.108C66.1725 71.108 65.7165 70.984 65.3245 70.736C64.9405 70.488 64.6405 70.14 64.4245 69.692C64.2165 69.236 64.1125 68.7 64.1125 68.084C64.1125 67.46 64.2165 66.924 64.4245 66.476C64.6405 66.02 64.9405 65.672 65.3245 65.432C65.7165 65.184 66.1725 65.06 66.6925 65.06C67.2205 65.06 67.6725 65.192 68.0485 65.456C68.4245 65.72 68.6765 66.076 68.8045 66.524H68.6725V62.948C68.6725 62.788 68.7125 62.668 68.7925 62.588C68.8805 62.5 69.0045 62.456 69.1645 62.456C69.3165 62.456 69.4325 62.5 69.5125 62.588C69.6005 62.668 69.6445 62.788 69.6445 62.948V70.58C69.6445 70.74 69.6045 70.864 69.5245 70.952C69.4445 71.04 69.3245 71.084 69.1645 71.084C69.0125 71.084 68.8925 71.04 68.8045 70.952C68.7245 70.864 68.6845 70.74 68.6845 70.58V69.44L68.8165 69.608C68.6885 70.064 68.4325 70.428 68.0485 70.7C67.6725 70.972 67.2205 71.108 66.6925 71.108ZM66.8965 70.328C67.2565 70.328 67.5725 70.24 67.8445 70.064C68.1165 69.888 68.3245 69.632 68.4685 69.296C68.6205 68.96 68.6965 68.556 68.6965 68.084C68.6965 67.356 68.5325 66.8 68.2045 66.416C67.8845 66.032 67.4485 65.84 66.8965 65.84C66.5285 65.84 66.2085 65.928 65.9365 66.104C65.6725 66.272 65.4645 66.524 65.3125 66.86C65.1685 67.188 65.0965 67.596 65.0965 68.084C65.0965 68.804 65.2605 69.36 65.5885 69.752C65.9165 70.136 66.3525 70.328 66.8965 70.328Z" fill="#030712"/>
<g clip-path="url(#clip0_673_10164)">
<path d="M37.6164 51L50.5124 28.696L63.3764 51H37.6164ZM39.8244 49.72H61.1684L50.5124 31.224L39.8244 49.72Z" fill="black"/>
</g>
<defs>
<clipPath id="clip0_673_10164">
<rect width="28" height="28" fill="white" transform="translate(36.5 26)"/>
</clipPath>
</defs>
</svg>
