<svg width="119" height="100" viewBox="0 0 119 100" fill="none" xmlns="http://www.w3.org/2000/svg">
<mask id="path-1-inside-1_673_10165" fill="white">
<path fill-rule="evenodd" clip-rule="evenodd" d="M68.5 18C78.1056 18 85.9538 10.476 86.4727 0.999956C86.5029 0.448497 86.9477 0 87.5 0L114.5 0C116.709 0 118.5 1.79086 118.5 4L118.5 31C118.5 31.5523 118.052 31.9971 117.5 32.0273C108.024 32.5462 100.5 40.3944 100.5 50C100.5 59.6056 108.024 67.4538 117.5 67.9727C118.052 68.0029 118.5 68.4477 118.5 69L118.5 96C118.5 98.2091 116.709 100 114.5 100H87.5C86.9477 100 86.5029 99.5515 86.4727 99C85.9538 89.524 78.1056 82 68.5 82C58.8944 82 51.0462 89.524 50.5273 99C50.4971 99.5515 50.0523 100 49.5 100L22.5 100C20.2909 100 18.5 98.2091 18.5 96L18.5 69C18.5 68.4477 18.0515 68.0029 17.5 67.9727C8.02403 67.4538 0.5 59.6056 0.5 50C0.5 40.3944 8.02403 32.5462 17.5 32.0273C18.0515 31.9971 18.5 31.5523 18.5 31L18.5 4C18.5 1.79086 20.2909 0 22.5 0L49.5 0C50.0523 0 50.4971 0.448498 50.5273 0.999957C51.0462 10.476 58.8944 18 68.5 18Z"/>
</mask>
<path fill-rule="evenodd" clip-rule="evenodd" d="M68.5 18C78.1056 18 85.9538 10.476 86.4727 0.999956C86.5029 0.448497 86.9477 0 87.5 0L114.5 0C116.709 0 118.5 1.79086 118.5 4L118.5 31C118.5 31.5523 118.052 31.9971 117.5 32.0273C108.024 32.5462 100.5 40.3944 100.5 50C100.5 59.6056 108.024 67.4538 117.5 67.9727C118.052 68.0029 118.5 68.4477 118.5 69L118.5 96C118.5 98.2091 116.709 100 114.5 100H87.5C86.9477 100 86.5029 99.5515 86.4727 99C85.9538 89.524 78.1056 82 68.5 82C58.8944 82 51.0462 89.524 50.5273 99C50.4971 99.5515 50.0523 100 49.5 100L22.5 100C20.2909 100 18.5 98.2091 18.5 96L18.5 69C18.5 68.4477 18.0515 68.0029 17.5 67.9727C8.02403 67.4538 0.5 59.6056 0.5 50C0.5 40.3944 8.02403 32.5462 17.5 32.0273C18.0515 31.9971 18.5 31.5523 18.5 31L18.5 4C18.5 1.79086 20.2909 0 22.5 0L49.5 0C50.0523 0 50.4971 0.448498 50.5273 0.999957C51.0462 10.476 58.8944 18 68.5 18Z" fill="#D1D5DB" fill-opacity="0.2"/>
<path d="M118.5 96H119.5H118.5ZM18.5 96L17.5 96V96H18.5ZM18.5 4L17.5 4L17.5 4L18.5 4ZM50.5273 0.999957L51.5258 0.945284L50.5273 0.999957ZM17.5 32.0273L17.4454 31.0288L17.5 32.0273ZM18.5 31L17.5 31L18.5 31ZM18.5 69L17.5 69L18.5 69ZM17.5 67.9727L17.4454 68.9712L17.5 67.9727ZM50.5273 99L49.5288 98.9454L50.5273 99ZM117.5 67.9727L117.555 66.9742L117.5 67.9727ZM118.5 69H117.5H118.5ZM86.4727 99L87.4712 98.9454L86.4727 99ZM117.5 32.0273L117.555 33.0258L117.5 32.0273ZM85.4742 0.945282C84.9842 9.89397 77.5716 17 68.5 17V19C78.6396 19 86.9235 11.058 87.4712 1.05463L85.4742 0.945282ZM114.5 -1L87.5 -1V1L114.5 1V-1ZM119.5 4C119.5 1.23858 117.261 -1 114.5 -1V1C116.157 1 117.5 2.34315 117.5 4H119.5ZM119.5 31L119.5 4H117.5L117.5 31H119.5ZM101.5 50C101.5 40.9284 108.606 33.5158 117.555 33.0258L117.445 31.0288C107.442 31.5765 99.5 39.8604 99.5 50H101.5ZM117.555 66.9742C108.606 66.4842 101.5 59.0716 101.5 50H99.5C99.5 60.1396 107.442 68.4235 117.445 68.9712L117.555 66.9742ZM119.5 96L119.5 69H117.5L117.5 96H119.5ZM114.5 101C117.261 101 119.5 98.7614 119.5 96H117.5C117.5 97.6569 116.157 99 114.5 99V101ZM87.5 101H114.5V99H87.5V101ZM68.5 83C77.5716 83 84.9842 90.106 85.4742 99.0547L87.4712 98.9454C86.9235 88.942 78.6396 81 68.5 81V83ZM51.5258 99.0547C52.0158 90.106 59.4284 83 68.5 83V81C58.3604 81 50.0765 88.942 49.5288 98.9454L51.5258 99.0547ZM22.5 101L49.5 101V99L22.5 99L22.5 101ZM17.5 96C17.5 98.7614 19.7386 101 22.5 101L22.5 99C20.8431 99 19.5 97.6569 19.5 96H17.5ZM17.5 69L17.5 96L19.5 96L19.5 69L17.5 69ZM17.5547 66.9742C8.60603 66.4842 1.5 59.0716 1.5 50H-0.5C-0.5 60.1396 7.44204 68.4235 17.4454 68.9712L17.5547 66.9742ZM1.5 50C1.5 40.9284 8.60603 33.5158 17.5547 33.0258L17.4454 31.0288C7.44204 31.5765 -0.5 39.8604 -0.5 50H1.5ZM17.5 4L17.5 31L19.5 31L19.5 4L17.5 4ZM22.5 -1C19.7386 -1 17.5 1.23858 17.5 4L19.5 4C19.5 2.34315 20.8431 1 22.5 1V-1ZM49.5 -1L22.5 -1V1L49.5 1V-1ZM68.5 17C59.4284 17 52.0158 9.89397 51.5258 0.945284L49.5288 1.05463C50.0765 11.058 58.3604 19 68.5 19V17ZM49.5 1C49.5012 1 49.5012 1.0001 49.5006 0.999977C49.5001 0.999868 49.4998 0.999738 49.4999 0.999766C49.5001 0.999846 49.5033 1.00127 49.5081 1.006C49.5187 1.0164 49.5276 1.03335 49.5288 1.05463L51.5258 0.945284C51.4685 -0.100786 50.6183 -1 49.5 -1V1ZM17.5547 33.0258C18.6008 32.9685 19.5 32.1183 19.5 31L17.5 31C17.5 31.0012 17.4999 31.0012 17.5 31.0006C17.5001 31.0001 17.5003 30.9998 17.5002 30.9999C17.5002 31.0001 17.4987 31.0033 17.494 31.0081C17.4836 31.0187 17.4666 31.0276 17.4454 31.0288L17.5547 33.0258ZM19.5 69C19.5 67.8817 18.6008 67.0315 17.5547 66.9742L17.4454 68.9712C17.4667 68.9724 17.4836 68.9813 17.494 68.9919C17.4987 68.9967 17.5002 68.9999 17.5002 69.0001C17.5003 69.0002 17.5001 68.9999 17.5 68.9994C17.4999 68.9988 17.5 68.9988 17.5 69L19.5 69ZM87.4712 1.05463C87.4724 1.03335 87.4813 1.0164 87.4919 1.006C87.4967 1.00127 87.4999 0.999846 87.5001 0.999766C87.5002 0.999738 87.4999 0.999868 87.4993 0.999977C87.4988 1.0001 87.4988 1 87.5 1V-1C86.3817 -1 85.5315 -0.100789 85.4742 0.945282L87.4712 1.05463ZM49.5288 98.9454C49.5276 98.9667 49.5187 98.9836 49.5081 98.994C49.5033 98.9987 49.5001 99.0002 49.4999 99.0002C49.4998 99.0003 49.5001 99.0001 49.5007 99C49.5012 98.9999 49.5012 99 49.5 99V101C50.6183 101 51.4685 100.101 51.5258 99.0547L49.5288 98.9454ZM117.445 68.9712C117.467 68.9724 117.484 68.9813 117.494 68.9919C117.499 68.9967 117.5 68.9999 117.5 69.0001C117.5 69.0002 117.5 68.9999 117.5 68.9993C117.5 68.9988 117.5 68.9988 117.5 69H119.5C119.5 67.8817 118.601 67.0315 117.555 66.9742L117.445 68.9712ZM87.5 99C87.4988 99 87.4988 98.9999 87.4994 99C87.4999 99.0001 87.5002 99.0003 87.5001 99.0002C87.4999 99.0002 87.4967 98.9987 87.4919 98.994C87.4813 98.9836 87.4724 98.9666 87.4712 98.9454L85.4742 99.0547C85.5315 100.101 86.3817 101 87.5 101V99ZM117.5 31C117.5 31.0012 117.5 31.0012 117.5 31.0006C117.5 31.0001 117.5 30.9998 117.5 30.9999C117.5 31.0001 117.499 31.0033 117.494 31.0081C117.484 31.0187 117.467 31.0276 117.445 31.0288L117.555 33.0258C118.601 32.9685 119.5 32.1183 119.5 31H117.5Z" fill="#D1D5DB" mask="url(#path-1-inside-1_673_10165)"/>
<path d="M46.9311 71.108C46.4591 71.108 46.0671 71.024 45.7551 70.856C45.4511 70.68 45.2191 70.42 45.0591 70.076C44.9071 69.732 44.8311 69.304 44.8311 68.792V65.576C44.8311 65.408 44.8711 65.284 44.9511 65.204C45.0391 65.124 45.1591 65.084 45.3111 65.084C45.4711 65.084 45.5911 65.124 45.6711 65.204C45.7591 65.284 45.8031 65.408 45.8031 65.576V68.78C45.8031 69.292 45.9071 69.676 46.1151 69.932C46.3311 70.18 46.6671 70.304 47.1231 70.304C47.6191 70.304 48.0231 70.136 48.3351 69.8C48.6471 69.464 48.8031 69.024 48.8031 68.48V65.576C48.8031 65.408 48.8431 65.284 48.9231 65.204C49.0111 65.124 49.1351 65.084 49.2951 65.084C49.4471 65.084 49.5631 65.124 49.6431 65.204C49.7311 65.284 49.7751 65.408 49.7751 65.576V70.58C49.7751 70.916 49.6191 71.084 49.3071 71.084C49.1551 71.084 49.0351 71.04 48.9471 70.952C48.8671 70.864 48.8271 70.74 48.8271 70.58V69.488L48.9831 69.656C48.8231 70.128 48.5591 70.488 48.1911 70.736C47.8311 70.984 47.4111 71.108 46.9311 71.108ZM52.0736 71.084C51.9136 71.084 51.7936 71.04 51.7136 70.952C51.6336 70.864 51.5936 70.74 51.5936 70.58V65.576C51.5936 65.416 51.6336 65.296 51.7136 65.216C51.7936 65.128 51.9096 65.084 52.0616 65.084C52.2136 65.084 52.3296 65.128 52.4096 65.216C52.4976 65.296 52.5416 65.416 52.5416 65.576V66.608L52.4096 66.464C52.5776 66 52.8496 65.652 53.2256 65.42C53.6096 65.18 54.0496 65.06 54.5456 65.06C55.0096 65.06 55.3936 65.144 55.6976 65.312C56.0096 65.48 56.2416 65.736 56.3936 66.08C56.5456 66.416 56.6216 66.844 56.6216 67.364V70.58C56.6216 70.74 56.5776 70.864 56.4896 70.952C56.4096 71.04 56.2936 71.084 56.1416 71.084C55.9816 71.084 55.8576 71.04 55.7696 70.952C55.6896 70.864 55.6496 70.74 55.6496 70.58V67.424C55.6496 66.88 55.5416 66.484 55.3256 66.236C55.1176 65.98 54.7816 65.852 54.3176 65.852C53.7816 65.852 53.3536 66.02 53.0336 66.356C52.7216 66.684 52.5656 67.124 52.5656 67.676V70.58C52.5656 70.916 52.4016 71.084 52.0736 71.084ZM58.894 71.06C58.734 71.06 58.614 71.016 58.534 70.928C58.454 70.832 58.414 70.7 58.414 70.532V65.624C58.414 65.456 58.454 65.328 58.534 65.24C58.614 65.152 58.734 65.108 58.894 65.108C59.046 65.108 59.166 65.152 59.254 65.24C59.342 65.328 59.386 65.456 59.386 65.624V70.532C59.386 70.7 59.342 70.832 59.254 70.928C59.174 71.016 59.054 71.06 58.894 71.06ZM58.894 63.764C58.694 63.764 58.538 63.712 58.426 63.608C58.314 63.496 58.258 63.348 58.258 63.164C58.258 62.972 58.314 62.828 58.426 62.732C58.538 62.628 58.694 62.576 58.894 62.576C59.102 62.576 59.258 62.628 59.362 62.732C59.474 62.828 59.53 62.972 59.53 63.164C59.53 63.348 59.474 63.496 59.362 63.608C59.258 63.712 59.102 63.764 58.894 63.764ZM61.707 71.084C61.547 71.084 61.427 71.04 61.347 70.952C61.267 70.864 61.227 70.74 61.227 70.58V65.576C61.227 65.416 61.267 65.296 61.347 65.216C61.427 65.128 61.543 65.084 61.695 65.084C61.847 65.084 61.963 65.128 62.043 65.216C62.131 65.296 62.175 65.416 62.175 65.576V66.632L62.043 66.464C62.195 66.016 62.439 65.672 62.775 65.432C63.119 65.184 63.527 65.06 63.999 65.06C64.495 65.06 64.895 65.18 65.199 65.42C65.511 65.652 65.719 66.016 65.823 66.512H65.643C65.787 66.064 66.043 65.712 66.411 65.456C66.787 65.192 67.223 65.06 67.719 65.06C68.159 65.06 68.519 65.144 68.799 65.312C69.087 65.48 69.303 65.736 69.447 66.08C69.591 66.416 69.663 66.844 69.663 67.364V70.58C69.663 70.74 69.619 70.864 69.531 70.952C69.451 71.04 69.331 71.084 69.171 71.084C69.019 71.084 68.899 71.04 68.811 70.952C68.731 70.864 68.691 70.74 68.691 70.58V67.412C68.691 66.876 68.599 66.484 68.415 66.236C68.231 65.98 67.919 65.852 67.479 65.852C66.999 65.852 66.619 66.02 66.339 66.356C66.067 66.684 65.931 67.132 65.931 67.7V70.58C65.931 70.74 65.887 70.864 65.799 70.952C65.719 71.04 65.599 71.084 65.439 71.084C65.287 71.084 65.167 71.04 65.079 70.952C64.999 70.864 64.959 70.74 64.959 70.58V67.412C64.959 66.876 64.863 66.484 64.671 66.236C64.487 65.98 64.179 65.852 63.747 65.852C63.267 65.852 62.887 66.02 62.607 66.356C62.335 66.684 62.199 67.132 62.199 67.7V70.58C62.199 70.916 62.035 71.084 61.707 71.084ZM71.9604 73.244C71.8004 73.244 71.6804 73.2 71.6004 73.112C71.5204 73.032 71.4804 72.912 71.4804 72.752V65.576C71.4804 65.416 71.5204 65.296 71.6004 65.216C71.6804 65.128 71.7964 65.084 71.9484 65.084C72.1084 65.084 72.2284 65.128 72.3084 65.216C72.3964 65.296 72.4404 65.416 72.4404 65.576V66.716L72.3084 66.548C72.4364 66.092 72.6884 65.732 73.0644 65.468C73.4484 65.196 73.9044 65.06 74.4324 65.06C74.9524 65.06 75.4044 65.184 75.7884 65.432C76.1804 65.672 76.4804 66.02 76.6884 66.476C76.9044 66.924 77.0124 67.46 77.0124 68.084C77.0124 68.7 76.9044 69.236 76.6884 69.692C76.4804 70.14 76.1844 70.488 75.8004 70.736C75.4164 70.984 74.9604 71.108 74.4324 71.108C73.9044 71.108 73.4524 70.976 73.0764 70.712C72.7004 70.44 72.4444 70.08 72.3084 69.632H72.4524V72.752C72.4524 72.912 72.4084 73.032 72.3204 73.112C72.2324 73.2 72.1124 73.244 71.9604 73.244ZM74.2284 70.328C74.5964 70.328 74.9124 70.24 75.1764 70.064C75.4484 69.888 75.6564 69.632 75.8004 69.296C75.9524 68.96 76.0284 68.556 76.0284 68.084C76.0284 67.356 75.8644 66.8 75.5364 66.416C75.2164 66.032 74.7804 65.84 74.2284 65.84C73.8684 65.84 73.5524 65.928 73.2804 66.104C73.0084 66.272 72.7964 66.524 72.6444 66.86C72.5004 67.188 72.4284 67.596 72.4284 68.084C72.4284 68.804 72.5924 69.36 72.9204 69.752C73.2484 70.136 73.6844 70.328 74.2284 70.328ZM80.9005 71.108C80.3325 71.108 79.8405 70.984 79.4245 70.736C79.0085 70.488 78.6845 70.14 78.4525 69.692C78.2285 69.236 78.1165 68.7 78.1165 68.084C78.1165 67.62 78.1805 67.204 78.3085 66.836C78.4365 66.46 78.6245 66.14 78.8725 65.876C79.1205 65.612 79.4125 65.412 79.7485 65.276C80.0925 65.132 80.4765 65.06 80.9005 65.06C81.4685 65.06 81.9605 65.184 82.3765 65.432C82.7925 65.68 83.1125 66.032 83.3365 66.488C83.5685 66.936 83.6845 67.468 83.6845 68.084C83.6845 68.548 83.6205 68.964 83.4925 69.332C83.3645 69.7 83.1765 70.02 82.9285 70.292C82.6805 70.556 82.3845 70.76 82.0405 70.904C81.7045 71.04 81.3245 71.108 80.9005 71.108ZM80.9005 70.328C81.2605 70.328 81.5765 70.24 81.8485 70.064C82.1205 69.888 82.3285 69.632 82.4725 69.296C82.6245 68.96 82.7005 68.556 82.7005 68.084C82.7005 67.356 82.5365 66.8 82.2085 66.416C81.8885 66.032 81.4525 65.84 80.9005 65.84C80.5325 65.84 80.2125 65.928 79.9405 66.104C79.6765 66.272 79.4685 66.524 79.3165 66.86C79.1725 67.188 79.1005 67.596 79.1005 68.084C79.1005 68.804 79.2645 69.36 79.5925 69.752C79.9205 70.136 80.3565 70.328 80.9005 70.328ZM85.6364 71.084C85.4764 71.084 85.3524 71.04 85.2644 70.952C85.1844 70.864 85.1444 70.74 85.1444 70.58V65.576C85.1444 65.416 85.1844 65.296 85.2644 65.216C85.3444 65.128 85.4604 65.084 85.6124 65.084C85.7644 65.084 85.8804 65.128 85.9604 65.216C86.0484 65.296 86.0924 65.416 86.0924 65.576V66.548H85.9724C86.1004 66.076 86.3444 65.712 86.7044 65.456C87.0644 65.2 87.5084 65.064 88.0364 65.048C88.1564 65.04 88.2524 65.068 88.3244 65.132C88.3964 65.188 88.4364 65.288 88.4444 65.432C88.4524 65.568 88.4204 65.676 88.3484 65.756C88.2764 65.836 88.1644 65.884 88.0124 65.9L87.8204 65.924C87.2764 65.972 86.8564 66.148 86.5604 66.452C86.2724 66.748 86.1284 67.156 86.1284 67.676V70.58C86.1284 70.74 86.0844 70.864 85.9964 70.952C85.9164 71.04 85.7964 71.084 85.6364 71.084ZM92.1016 71.108C91.6456 71.108 91.2616 71.028 90.9496 70.868C90.6456 70.7 90.4176 70.46 90.2656 70.148C90.1136 69.828 90.0376 69.44 90.0376 68.984V65.924H89.2336C89.0976 65.924 88.9936 65.892 88.9216 65.828C88.8496 65.756 88.8136 65.66 88.8136 65.54C88.8136 65.42 88.8496 65.328 88.9216 65.264C88.9936 65.2 89.0976 65.168 89.2336 65.168H90.0376V63.788C90.0376 63.628 90.0816 63.508 90.1696 63.428C90.2576 63.34 90.3776 63.296 90.5296 63.296C90.6816 63.296 90.7976 63.34 90.8776 63.428C90.9656 63.508 91.0096 63.628 91.0096 63.788V65.168H92.5216C92.6576 65.168 92.7616 65.2 92.8336 65.264C92.9056 65.328 92.9416 65.42 92.9416 65.54C92.9416 65.66 92.9056 65.756 92.8336 65.828C92.7616 65.892 92.6576 65.924 92.5216 65.924H91.0096V68.888C91.0096 69.344 91.1056 69.692 91.2976 69.932C91.4896 70.164 91.8016 70.28 92.2336 70.28C92.3856 70.28 92.5136 70.264 92.6176 70.232C92.7296 70.2 92.8216 70.184 92.8936 70.184C92.9656 70.176 93.0256 70.2 93.0736 70.256C93.1216 70.312 93.1456 70.408 93.1456 70.544C93.1456 70.64 93.1256 70.728 93.0856 70.808C93.0536 70.888 92.9936 70.944 92.9056 70.976C92.8096 71.008 92.6816 71.036 92.5216 71.06C92.3696 71.092 92.2296 71.108 92.1016 71.108Z" fill="#030712"/>
<path d="M78.7047 30.1869C78.6413 30.1584 78.7988 29.9003 76.3925 29.8347C76.1825 29.8281 75.4891 30.1978 74.6972 30.2087C73.8769 30.2197 73.3628 29.8784 73.0872 29.6137C72.9647 29.4956 72.77 29.5262 72.6825 29.6706C72.5272 29.9309 72.2319 30.2678 71.6894 30.4625C71.0616 30.6878 70.495 30.4428 70.1756 30.2437C70.0422 30.1606 69.8628 30.2197 69.8038 30.3662C69.6638 30.714 69.3466 31.2522 68.6619 31.5103C68.0384 31.7465 67.5375 31.5497 67.2291 31.3484C67.1937 31.3254 67.1532 31.3114 67.1112 31.3078C67.0692 31.3042 67.0269 31.311 66.9881 31.3277C66.9494 31.3444 66.9154 31.3704 66.8891 31.4034C66.8628 31.4364 66.8451 31.4754 66.8375 31.5169C66.7522 31.974 66.5466 32.65 66.0478 32.919C65.4528 33.2384 64.8819 33.0328 64.5209 32.8184C64.3547 32.7178 64.1403 32.8228 64.125 33.0175C64.09 33.5403 63.9456 34.354 63.4294 34.8112C62.8716 35.3056 62.0294 35.1722 61.5634 35.0453C61.3994 35.0015 61.2419 35.124 61.2397 35.2947C61.2353 35.7081 61.1675 36.3797 60.8175 36.7537C60.3472 37.2547 59.5816 37.3837 59.5816 37.3837L70.5366 48.0937C70.7925 47.8203 72.2691 45.8144 76.2416 45.1144C76.62 45.0465 78.3241 44.8256 78.4881 44.7162C78.7113 44.5653 78.4925 43.0997 78.5034 42.7409L78.5888 39.6347C78.6434 37.609 78.7003 35.5834 78.755 33.5578C78.7747 32.8534 78.7944 32.1469 78.8119 31.4425C78.8184 31.1887 78.8578 30.9153 78.8338 30.6615C78.8075 30.3422 78.8469 30.2503 78.7047 30.1869Z" fill="#FCE8B2"/>
<path d="M61.3381 35.0934C61.2812 35.1394 61.2419 35.2116 61.2397 35.2947C61.2353 35.7081 61.1675 36.3797 60.8175 36.7537C60.8044 36.7669 60.7912 36.7778 60.7803 36.7909L71.3831 47.2297L61.3381 35.0934ZM64.2803 32.8031C64.1972 32.8381 64.1337 32.9147 64.125 33.0175C64.09 33.5403 63.9456 34.3541 63.4294 34.8112L63.3966 34.8375C66.0041 38.2237 72.2712 46.4509 72.2712 46.4509L64.2803 32.8031ZM66.8375 31.5169C66.7522 31.9741 66.5466 32.65 66.0478 32.9191C66.0303 32.9278 66.015 32.9322 65.9975 32.9409C67.6403 36.0712 71.4094 43.1609 73.0062 46.16L73.1375 46.0944L66.9709 31.3375C66.9053 31.3725 66.8528 31.4359 66.8375 31.5169ZM69.8037 30.3662C69.6681 30.7075 69.3575 31.2281 68.7034 31.4928C69.8825 34.7631 72.7744 42.4937 73.9841 45.7247C74.0322 45.7072 74.0825 45.6897 74.1306 45.67L70.0356 30.2087C69.9372 30.2109 69.8431 30.2678 69.8037 30.3662ZM72.6825 29.6706C72.5272 29.9309 72.2319 30.2678 71.6894 30.4625C71.6566 30.4734 71.6237 30.48 71.5909 30.4887L74.7212 45.4731C74.8175 45.4447 74.9159 45.4141 75.0166 45.3878L72.8356 29.5525C72.7722 29.57 72.7175 29.6094 72.6825 29.6706ZM76.2722 29.8544C75.9812 29.9287 75.3753 30.2 74.6972 30.2087C74.6141 30.2109 74.5353 30.2044 74.4566 30.2C74.7081 33.9472 75.2309 41.7391 75.5306 45.2566C75.5853 45.2434 75.6422 45.2325 75.6991 45.2194C75.7253 44.3575 75.7362 43.2419 75.7362 43.2419L76.2722 29.8544Z" fill="#FFBD66"/>
<path d="M71.6522 47.35C71.5516 47.35 71.4531 47.3084 71.3831 47.2275L61.1762 35.3778C61.0494 35.229 61.0647 35.0059 61.2134 34.879C61.3622 34.7522 61.5853 34.7675 61.7122 34.9162L71.9212 46.7659C71.9654 46.8173 71.9939 46.8803 72.0034 46.9474C72.0128 47.0145 72.0027 47.0829 71.9744 47.1444C71.946 47.2059 71.9006 47.258 71.8435 47.2945C71.7863 47.3309 71.7199 47.3502 71.6522 47.35ZM72.5097 46.7856C72.3894 46.7856 72.2734 46.7244 72.2078 46.615L63.9128 32.9606C63.8643 32.8805 63.8496 32.7844 63.8717 32.6934C63.8938 32.6024 63.9511 32.5239 64.0309 32.475C64.1111 32.4265 64.2071 32.4117 64.2981 32.4339C64.3891 32.456 64.4676 32.5132 64.5166 32.5931L72.8116 46.2475C72.8441 46.3011 72.8618 46.3625 72.8629 46.4252C72.8639 46.488 72.8483 46.5499 72.8176 46.6046C72.7869 46.6593 72.7422 46.7049 72.6881 46.7367C72.634 46.7685 72.5724 46.7854 72.5097 46.7856ZM73.0456 46.1512L66.6997 31.5453C66.6231 31.3659 66.7041 31.1581 66.8834 31.0794C67.0628 31.0028 67.2706 31.0837 67.3494 31.2631L73.6953 45.869C73.6953 45.869 73.7872 46.1622 73.4962 46.3022C73.1966 46.4487 73.0456 46.1512 73.0456 46.1512ZM74.2991 46.0287C74.1437 46.0287 74.0016 45.9259 73.9578 45.7706L69.6703 30.4319C69.6178 30.2437 69.7272 30.049 69.9153 29.9965C70.1034 29.944 70.2981 30.0534 70.3506 30.2415L74.6381 45.5803C74.6529 45.6327 74.6553 45.6878 74.6452 45.7413C74.6351 45.7948 74.6128 45.8453 74.5799 45.8887C74.5471 45.9321 74.5046 45.9674 74.4559 45.9917C74.4072 46.016 74.3535 46.0286 74.2991 46.0287ZM75.115 45.7837C74.9422 45.7837 74.7891 45.6547 74.765 45.4775L72.5775 29.6903C72.5512 29.4956 72.6869 29.3184 72.8794 29.2922C73.0719 29.2637 73.2512 29.4015 73.2775 29.594L75.465 45.3812C75.4912 45.5737 75.3556 45.7531 75.1631 45.7794C75.1478 45.7815 75.1325 45.7837 75.115 45.7837Z" fill="#6D4C41"/>
<path d="M75.605 45.1122C75.5984 45.4031 75.8216 45.6459 76.1125 45.6613L79.4769 45.7903C79.7176 45.7967 79.9573 45.7556 80.1821 45.6694C80.407 45.5831 80.6127 45.4534 80.7874 45.2876C80.9621 45.1219 81.1024 44.9233 81.2003 44.7033C81.2983 44.4832 81.3519 44.2461 81.3581 44.0053L81.6775 31.7684C81.6839 31.5277 81.6428 31.288 81.5565 31.0632C81.4703 30.8383 81.3406 30.6327 81.1748 30.4579C81.009 30.2832 80.8105 30.1429 80.5904 30.045C80.3704 29.947 80.1333 29.8934 79.8925 29.8872L76.5872 29.7625C76.5118 29.7585 76.4365 29.7697 76.3655 29.7953C76.2945 29.8209 76.2294 29.8605 76.174 29.9116C76.1185 29.9628 76.0739 30.0245 76.0426 30.0932C76.0114 30.1619 75.9943 30.2361 75.9922 30.3116L75.605 45.1122ZM69.1366 49.9663L67.0037 52.1691C66.9159 52.2599 66.811 52.3326 66.695 52.3829C66.5791 52.4332 66.4543 52.4601 66.328 52.4621C66.2016 52.4642 66.0761 52.4413 65.9585 52.3947C65.841 52.3482 65.7338 52.2789 65.6431 52.1909L55.6156 42.4806C55.5248 42.3928 55.4521 42.2879 55.4018 42.1719C55.3515 42.056 55.3246 41.9312 55.3226 41.8048C55.3205 41.6785 55.3434 41.5529 55.39 41.4354C55.4365 41.3179 55.5057 41.2107 55.5937 41.12L57.7266 38.9172C57.8144 38.8263 57.9193 38.7537 58.0353 38.7034C58.1512 38.6531 58.276 38.6261 58.4023 38.6241C58.5287 38.6221 58.6543 38.645 58.7718 38.6915C58.8893 38.7381 58.9965 38.8073 59.0872 38.8953L69.1125 48.6056C69.4953 48.9753 69.5063 49.5834 69.1366 49.9663Z" fill="#CF381A"/>
<path d="M56.6503 41.2797C56.5702 41.3622 56.5072 41.4597 56.4648 41.5666C56.4224 41.6736 56.4016 41.7878 56.4034 41.9028C56.4052 42.0178 56.4297 42.1313 56.4755 42.2368C56.5212 42.3424 56.5873 42.4378 56.67 42.5178C56.7661 42.6103 56.8821 42.6796 57.0092 42.7201C57.1362 42.7607 57.2709 42.7716 57.4028 42.7518C57.3744 43.0122 57.4575 43.2812 57.6609 43.4759C57.757 43.5684 57.873 43.6377 58.0001 43.6783C58.1271 43.7189 58.2618 43.7297 58.3937 43.71C58.3653 43.9703 58.4484 44.2393 58.6519 44.434C58.7479 44.5266 58.864 44.5958 58.991 44.6364C59.1181 44.677 59.2528 44.6878 59.3847 44.6681C59.3562 44.9284 59.4394 45.1975 59.6428 45.3922C59.7389 45.4847 59.8549 45.5539 59.982 45.5945C60.109 45.6351 60.2437 45.6459 60.3756 45.6262C60.3472 45.8865 60.4303 46.1556 60.6337 46.3503C60.8372 46.545 61.1062 46.6215 61.3666 46.5843C61.3381 46.8447 61.4212 47.1137 61.6247 47.3084C61.7207 47.401 61.8368 47.4702 61.9638 47.5108C62.0909 47.5514 62.2256 47.5622 62.3575 47.5425C62.3291 47.8028 62.4122 48.0718 62.6156 48.2665C62.8191 48.4612 63.0881 48.5378 63.3484 48.5006C63.32 48.7609 63.4031 49.03 63.6066 49.2247C63.81 49.4193 64.0791 49.4959 64.3394 49.4587C64.3109 49.719 64.3941 49.9881 64.5975 50.1828C64.8009 50.3775 65.07 50.454 65.3303 50.4168C65.3019 50.6772 65.385 50.9462 65.5884 51.1409C65.671 51.221 65.7685 51.284 65.8754 51.3264C65.9823 51.3688 66.0966 51.3897 66.2116 51.3878C66.3266 51.386 66.4401 51.3615 66.5456 51.3158C66.6511 51.27 66.7466 51.2039 66.8266 51.1212L68.9703 48.9075L58.8072 39.0637L56.6503 41.2797Z" fill="#822322"/>
<path d="M56.8275 41.0959C56.7474 41.1785 56.6844 41.276 56.642 41.3829C56.5996 41.4899 56.5787 41.6041 56.5806 41.7191C56.5824 41.8341 56.6069 41.9476 56.6526 42.0531C56.6984 42.1587 56.7645 42.2541 56.8472 42.3341C56.9432 42.4266 57.0593 42.4958 57.1863 42.5364C57.3134 42.577 57.4481 42.5879 57.58 42.5681C57.5516 42.8284 57.6347 43.0975 57.8381 43.2922C57.9342 43.3847 58.0502 43.454 58.1773 43.4946C58.3043 43.5351 58.439 43.546 58.5709 43.5263C58.5425 43.7866 58.6256 44.0556 58.8291 44.2503C58.9251 44.3429 59.0412 44.4121 59.1682 44.4527C59.2953 44.4933 59.43 44.5041 59.5619 44.4844C59.5334 44.7447 59.6166 45.0138 59.82 45.2084C59.9161 45.301 60.0321 45.3702 60.1591 45.4108C60.2862 45.4514 60.4209 45.4622 60.5528 45.4425C60.5244 45.7028 60.6075 45.9719 60.8109 46.1666C60.907 46.2591 61.023 46.3283 61.1501 46.3689C61.2771 46.4095 61.4118 46.4204 61.5437 46.4006C61.5153 46.6609 61.5984 46.93 61.8019 47.1247C62.0053 47.3194 62.2744 47.3959 62.5347 47.3588C62.5062 47.6191 62.5894 47.8881 62.7928 48.0828C62.8889 48.1754 63.0049 48.2446 63.132 48.2852C63.259 48.3258 63.3937 48.3366 63.5256 48.3169C63.4972 48.5772 63.5803 48.8463 63.7837 49.0409C63.9872 49.2356 64.2562 49.3122 64.5166 49.275C64.4881 49.5353 64.5712 49.8044 64.7747 49.9991C64.8707 50.0916 64.9868 50.1608 65.1138 50.2014C65.2409 50.242 65.3756 50.2529 65.5075 50.2331C65.4791 50.4934 65.5622 50.7625 65.7656 50.9572C65.8482 51.0373 65.9457 51.1003 66.0526 51.1427C66.1595 51.1851 66.2738 51.2059 66.3888 51.2041C66.5038 51.2023 66.6173 51.1778 66.7228 51.132C66.8283 51.0863 66.9238 51.0202 67.0037 50.9375L69.1475 48.7238L58.9844 38.88L56.8275 41.0959Z" fill="#FFF3E0"/>
<path d="M57.4269 40.4616L67.5878 50.3031L69.1322 48.7238L58.9691 38.88L57.4269 40.4616Z" fill="#FFCC80"/>
<path d="M59.7631 40.6103L58.2078 42.2159C58.14 42.2859 58.0262 42.2881 57.9562 42.2203L57.7091 41.9797C57.6754 41.9468 57.656 41.9019 57.6552 41.8548C57.6544 41.8077 57.6722 41.7622 57.7047 41.7281L59.26 40.1225C59.3278 40.0525 59.4416 40.0503 59.5116 40.1181L59.7587 40.3587C59.8287 40.4266 59.8309 40.5403 59.7631 40.6103ZM60.4391 41.2666L58.8837 42.8722C58.8159 42.9422 58.7022 42.9444 58.6322 42.8766L58.385 42.6359C58.3513 42.603 58.332 42.5581 58.3311 42.5111C58.3303 42.464 58.3481 42.4184 58.3806 42.3844L59.9359 40.7787C60.0037 40.7087 60.1175 40.7066 60.1875 40.7744L60.4347 41.015C60.5047 41.0828 60.5069 41.1944 60.4391 41.2666ZM61.7909 42.5769L60.2356 44.1825C60.1678 44.2525 60.0541 44.2547 59.9841 44.1869L59.7369 43.9462C59.7032 43.9133 59.6838 43.8685 59.683 43.8214C59.6822 43.7743 59.7 43.7288 59.7325 43.6947L61.2878 42.0891C61.3556 42.0191 61.4694 42.0169 61.5394 42.0847L61.7866 42.3253C61.8037 42.3413 61.8175 42.3606 61.827 42.3821C61.8366 42.4035 61.8417 42.4267 61.8421 42.4502C61.8425 42.4736 61.8382 42.497 61.8294 42.5187C61.8206 42.5405 61.8075 42.5603 61.7909 42.5769ZM62.4691 43.2309L60.9137 44.8366C60.8459 44.9066 60.7322 44.9087 60.6622 44.8409L60.415 44.6003C60.3813 44.5674 60.362 44.5225 60.3611 44.4754C60.3603 44.4283 60.3781 44.3828 60.4106 44.3487L61.9659 42.7431C62.0337 42.6731 62.1475 42.6709 62.2175 42.7387L62.4647 42.9794C62.5347 43.0494 62.5369 43.1609 62.4691 43.2309ZM63.145 43.8872L61.5897 45.4928C61.5219 45.5628 61.4081 45.565 61.3381 45.4972L61.0909 45.2566C61.0572 45.2236 61.0379 45.1788 61.0371 45.1317C61.0362 45.0846 61.054 45.0391 61.0866 45.005L62.6419 43.3994C62.7097 43.3294 62.8234 43.3272 62.8934 43.395L63.1406 43.6356C63.2106 43.7034 63.2128 43.8172 63.145 43.8872ZM64.4969 45.1975L62.9437 46.8031C62.8759 46.8731 62.7622 46.8753 62.6922 46.8075L62.445 46.5669C62.4113 46.534 62.392 46.4891 62.3911 46.442C62.3903 46.3949 62.4081 46.3494 62.4406 46.3153L63.9959 44.7097C64.0637 44.6397 64.1775 44.6375 64.2475 44.7053L64.4947 44.9459C64.5647 45.0137 64.5669 45.1275 64.4969 45.1975ZM65.175 45.8516L63.6197 47.4572C63.5519 47.5272 63.4381 47.5294 63.3681 47.4616L63.1209 47.2209C63.0872 47.188 63.0679 47.1431 63.0671 47.0961C63.0662 47.049 63.084 47.0034 63.1166 46.9694L64.6719 45.3637C64.7397 45.2937 64.8534 45.2916 64.9234 45.3594L65.1706 45.6C65.2406 45.67 65.2428 45.7816 65.175 45.8516ZM66.5269 47.1641L64.9716 48.7697C64.9037 48.8397 64.79 48.8419 64.72 48.7741L64.4728 48.5334C64.4391 48.5005 64.4198 48.4556 64.4189 48.4086C64.4181 48.3615 64.4359 48.3159 64.4684 48.2819L66.0237 46.6762C66.0916 46.6062 66.2053 46.6041 66.2753 46.6719L66.5225 46.9125C66.5397 46.9285 66.5534 46.9478 66.5629 46.9693C66.5725 46.9907 66.5776 47.0139 66.578 47.0374C66.5784 47.0608 66.5741 47.0841 66.5653 47.1059C66.5565 47.1277 66.5435 47.1475 66.5269 47.1641ZM67.205 47.8181L65.6497 49.4238C65.5819 49.4938 65.4681 49.4959 65.3981 49.4281L65.1509 49.1875C65.1172 49.1546 65.0979 49.1097 65.0971 49.0626C65.0962 49.0155 65.114 48.97 65.1466 48.9359L66.7019 47.3303C66.7697 47.2603 66.8834 47.2581 66.9534 47.3259L67.2006 47.5666C67.2706 47.6344 67.2728 47.7481 67.205 47.8181ZM67.8809 48.4744L66.3256 50.08C66.2578 50.15 66.1441 50.1522 66.0741 50.0844L65.8269 49.8437C65.7932 49.8108 65.7738 49.766 65.773 49.7189C65.7722 49.6718 65.79 49.6263 65.8225 49.5922L67.3778 47.9866C67.4456 47.9166 67.5594 47.9144 67.6294 47.9822L67.8766 48.2228C67.9466 48.2906 67.9487 48.4022 67.8809 48.4744Z" fill="#6D4238"/>
<path d="M70.7903 48.2578L68.9856 50.1215C68.8646 50.2465 68.699 50.3183 68.525 50.3212C68.3511 50.324 68.1832 50.2577 68.0581 50.1369L57.5931 39.9978C57.4682 39.8768 57.3964 39.7111 57.3935 39.5372C57.3906 39.3633 57.4569 39.1954 57.5778 39.0703L59.3825 37.2065C59.5035 37.0816 59.6692 37.0098 59.8431 37.0069C60.017 37.0041 60.1849 37.0703 60.31 37.1912L70.7772 47.3281C70.8392 47.3882 70.8887 47.46 70.9229 47.5393C70.9571 47.6186 70.9753 47.7039 70.9765 47.7902C70.9777 47.8766 70.9619 47.9623 70.93 48.0425C70.898 48.1228 70.8506 48.1959 70.7903 48.2578Z" fill="#CF381A"/>
<path d="M69.8081 47.8882L68.6006 49.135C68.4796 49.26 68.314 49.3318 68.14 49.3346C67.9661 49.3375 67.7982 49.2712 67.6731 49.1503L58.1531 39.93C58.0282 39.809 57.9564 39.6434 57.9535 39.4694C57.9506 39.2955 58.0169 39.1276 58.1378 39.0025L59.3453 37.7557C59.4663 37.6307 59.632 37.5589 59.8059 37.556C59.9798 37.5532 60.1478 37.6195 60.2728 37.7403L69.7906 46.9607C69.8533 47.02 69.9036 47.0913 69.9385 47.1703C69.9734 47.2492 69.9922 47.3344 69.9938 47.4207C69.9955 47.5071 69.9799 47.5929 69.948 47.6731C69.9161 47.7534 69.8686 47.8265 69.8081 47.8882ZM78.8381 44.9985L77.3506 44.9657C76.9936 44.9575 76.6545 44.808 76.4076 44.5501C76.1607 44.2921 76.0262 43.9467 76.0338 43.5897L76.305 31.3178C76.3225 30.5741 76.9372 29.9857 77.6809 30.001L79.1684 30.0338C79.9122 30.0513 80.5006 30.666 80.4853 31.4097L80.2141 43.6816C80.2059 44.0386 80.0565 44.3777 79.7985 44.6246C79.5405 44.8715 79.1951 45.006 78.8381 44.9985Z" fill="#FF5722"/>
<path d="M77.2894 36.2353C77.5527 36.2353 77.7663 36.0218 77.7663 35.7584C77.7663 35.4951 77.5527 35.2816 77.2894 35.2816C77.026 35.2816 76.8125 35.4951 76.8125 35.7584C76.8125 36.0218 77.026 36.2353 77.2894 36.2353Z" fill="#6D4238"/>
<path d="M77.2391 38.2741C77.5024 38.2741 77.7159 38.0606 77.7159 37.7972C77.7159 37.5338 77.5024 37.3203 77.2391 37.3203C76.9757 37.3203 76.7622 37.5338 76.7622 37.7972C76.7622 38.0606 76.9757 38.2741 77.2391 38.2741Z" fill="#6D4238"/>
<path d="M77.1888 40.3128C77.4521 40.3128 77.6656 40.0993 77.6656 39.8359C77.6656 39.5726 77.4521 39.3591 77.1888 39.3591C76.9254 39.3591 76.7119 39.5726 76.7119 39.8359C76.7119 40.0993 76.9254 40.3128 77.1888 40.3128Z" fill="#6D4238"/>
<path d="M77.1384 42.3494C77.4018 42.3494 77.6153 42.1359 77.6153 41.8725C77.6153 41.6091 77.4018 41.3956 77.1384 41.3956C76.8751 41.3956 76.6616 41.6091 76.6616 41.8725C76.6616 42.1359 76.8751 42.3494 77.1384 42.3494Z" fill="#6D4238"/>
<path d="M79.5206 34.1725C79.784 34.1725 79.9975 33.959 79.9975 33.6956C79.9975 33.4323 79.784 33.2188 79.5206 33.2188C79.2573 33.2188 79.0437 33.4323 79.0437 33.6956C79.0437 33.959 79.2573 34.1725 79.5206 34.1725Z" fill="#6D4238"/>
<path d="M79.4703 36.2113C79.7337 36.2113 79.9472 35.9978 79.9472 35.7344C79.9472 35.471 79.7337 35.2575 79.4703 35.2575C79.2069 35.2575 78.9934 35.471 78.9934 35.7344C78.9934 35.9978 79.2069 36.2113 79.4703 36.2113Z" fill="#6D4238"/>
<path d="M79.42 38.2478C79.6834 38.2478 79.8969 38.0343 79.8969 37.7709C79.8969 37.5076 79.6834 37.2941 79.42 37.2941C79.1566 37.2941 78.9431 37.5076 78.9431 37.7709C78.9431 38.0343 79.1566 38.2478 79.42 38.2478Z" fill="#6D4238"/>
<path d="M79.3675 40.2866C79.6309 40.2866 79.8444 40.0731 79.8444 39.8097C79.8444 39.5463 79.6309 39.3328 79.3675 39.3328C79.1041 39.3328 78.8906 39.5463 78.8906 39.8097C78.8906 40.0731 79.1041 40.2866 79.3675 40.2866Z" fill="#6D4238"/>
<path d="M78.405 35.205C78.6684 35.205 78.8819 34.9915 78.8819 34.7281C78.8819 34.4647 78.6684 34.2512 78.405 34.2512C78.1416 34.2512 77.9281 34.4647 77.9281 34.7281C77.9281 34.9915 78.1416 35.205 78.405 35.205Z" fill="#6D4238"/>
<path d="M78.3547 37.2416C78.6181 37.2416 78.8316 37.0281 78.8316 36.7647C78.8316 36.5013 78.6181 36.2878 78.3547 36.2878C78.0913 36.2878 77.8778 36.5013 77.8778 36.7647C77.8778 37.0281 78.0913 37.2416 78.3547 37.2416Z" fill="#6D4238"/>
<path d="M78.3044 39.2803C78.5677 39.2803 78.7812 39.0668 78.7812 38.8034C78.7812 38.54 78.5677 38.3265 78.3044 38.3265C78.041 38.3265 77.8275 38.54 77.8275 38.8034C77.8275 39.0668 78.041 39.2803 78.3044 39.2803Z" fill="#6D4238"/>
<path d="M78.2541 41.319C78.5174 41.319 78.7309 41.1055 78.7309 40.8422C78.7309 40.5788 78.5174 40.3653 78.2541 40.3653C77.9907 40.3653 77.7772 40.5788 77.7772 40.8422C77.7772 41.1055 77.9907 41.319 78.2541 41.319Z" fill="#6D4238"/>
</svg>
