<svg width="119" height="118" viewBox="0 0 119 118" fill="none" xmlns="http://www.w3.org/2000/svg">
<mask id="path-1-inside-1_673_10166" fill="white">
<path fill-rule="evenodd" clip-rule="evenodd" d="M68.5 18C78.1056 18 85.9538 10.476 86.4727 0.999956C86.5029 0.448497 86.9477 0 87.5 0L114.5 0C116.709 0 118.5 1.79086 118.5 4V30C118.5 30.5523 118.052 30.9971 117.5 31.0273C108.024 31.5462 100.5 39.3944 100.5 49C100.5 58.6056 108.024 66.4538 117.5 66.9727C118.052 67.0029 118.5 67.4477 118.5 68L118.5 96C118.5 98.2091 116.709 100 114.5 100H87.5C86.9477 100 86.5029 100.448 86.4727 101C85.9538 110.476 78.1056 118 68.5 118C58.8944 118 51.0462 110.476 50.5273 101C50.4971 100.448 50.0523 100 49.5 100L22.5 100C20.2909 100 18.5 98.2091 18.5 96L18.5 69C18.5 68.4477 18.0515 68.0029 17.5 67.9727C8.02403 67.4538 0.5 59.6056 0.5 50C0.5 40.3944 8.02403 32.5462 17.5 32.0273C18.0515 31.9971 18.5 31.5523 18.5 31L18.5 4C18.5 1.79086 20.2909 0 22.5 0L49.5 0C50.0523 0 50.4971 0.448498 50.5273 0.999957C51.0462 10.476 58.8944 18 68.5 18Z"/>
</mask>
<path fill-rule="evenodd" clip-rule="evenodd" d="M68.5 18C78.1056 18 85.9538 10.476 86.4727 0.999956C86.5029 0.448497 86.9477 0 87.5 0L114.5 0C116.709 0 118.5 1.79086 118.5 4V30C118.5 30.5523 118.052 30.9971 117.5 31.0273C108.024 31.5462 100.5 39.3944 100.5 49C100.5 58.6056 108.024 66.4538 117.5 66.9727C118.052 67.0029 118.5 67.4477 118.5 68L118.5 96C118.5 98.2091 116.709 100 114.5 100H87.5C86.9477 100 86.5029 100.448 86.4727 101C85.9538 110.476 78.1056 118 68.5 118C58.8944 118 51.0462 110.476 50.5273 101C50.4971 100.448 50.0523 100 49.5 100L22.5 100C20.2909 100 18.5 98.2091 18.5 96L18.5 69C18.5 68.4477 18.0515 68.0029 17.5 67.9727C8.02403 67.4538 0.5 59.6056 0.5 50C0.5 40.3944 8.02403 32.5462 17.5 32.0273C18.0515 31.9971 18.5 31.5523 18.5 31L18.5 4C18.5 1.79086 20.2909 0 22.5 0L49.5 0C50.0523 0 50.4971 0.448498 50.5273 0.999957C51.0462 10.476 58.8944 18 68.5 18Z" fill="#D1D5DB" fill-opacity="0.2"/>
<path d="M18.5 96L17.5 96V96H18.5ZM18.5 4L17.5 4L17.5 4L18.5 4ZM50.5273 0.999957L51.5258 0.945284L50.5273 0.999957ZM17.5 32.0273L17.4454 31.0288L17.5 32.0273ZM18.5 31L17.5 31L18.5 31ZM18.5 69L17.5 69L18.5 69ZM17.5 67.9727L17.4454 68.9712L17.5 67.9727ZM50.5273 101L49.5288 101.055L50.5273 101ZM117.5 66.9727L117.555 65.9742L117.5 66.9727ZM86.4727 101L87.4712 101.055L86.4727 101ZM117.5 31.0273L117.555 32.0258L117.5 31.0273ZM85.4742 0.945282C84.9842 9.89397 77.5716 17 68.5 17V19C78.6396 19 86.9235 11.058 87.4712 1.05463L85.4742 0.945282ZM114.5 -1L87.5 -1V1L114.5 1V-1ZM119.5 4C119.5 1.23858 117.261 -1 114.5 -1V1C116.157 1 117.5 2.34315 117.5 4H119.5ZM119.5 30V4H117.5V30H119.5ZM101.5 49C101.5 39.9284 108.606 32.5158 117.555 32.0258L117.445 30.0288C107.442 30.5765 99.5 38.8604 99.5 49H101.5ZM117.555 65.9742C108.606 65.4842 101.5 58.0716 101.5 49H99.5C99.5 59.1396 107.442 67.4235 117.445 67.9712L117.555 65.9742ZM119.5 96L119.5 68H117.5L117.5 96H119.5ZM114.5 101C117.261 101 119.5 98.7614 119.5 96H117.5C117.5 97.6569 116.157 99 114.5 99V101ZM87.5 101H114.5V99H87.5V101ZM68.5 119C78.6396 119 86.9235 111.058 87.4712 101.055L85.4742 100.945C84.9842 109.894 77.5716 117 68.5 117V119ZM49.5288 101.055C50.0765 111.058 58.3604 119 68.5 119V117C59.4284 117 52.0158 109.894 51.5258 100.945L49.5288 101.055ZM22.5 101L49.5 101V99L22.5 99L22.5 101ZM17.5 96C17.5 98.7614 19.7386 101 22.5 101L22.5 99C20.8431 99 19.5 97.6569 19.5 96H17.5ZM17.5 69L17.5 96L19.5 96L19.5 69L17.5 69ZM17.5547 66.9742C8.60603 66.4842 1.5 59.0716 1.5 50H-0.5C-0.5 60.1396 7.44204 68.4235 17.4454 68.9712L17.5547 66.9742ZM1.5 50C1.5 40.9284 8.60603 33.5158 17.5547 33.0258L17.4454 31.0288C7.44204 31.5765 -0.5 39.8604 -0.5 50H1.5ZM17.5 4L17.5 31L19.5 31L19.5 4L17.5 4ZM22.5 -1C19.7386 -1 17.5 1.23858 17.5 4L19.5 4C19.5 2.34315 20.8431 1 22.5 1V-1ZM49.5 -1L22.5 -1V1L49.5 1V-1ZM68.5 17C59.4284 17 52.0158 9.89397 51.5258 0.945284L49.5288 1.05463C50.0765 11.058 58.3604 19 68.5 19V17ZM49.5 1C49.5012 1 49.5012 1.0001 49.5006 0.999977C49.5001 0.999868 49.4998 0.999738 49.4999 0.999766C49.5001 0.999846 49.5033 1.00127 49.5081 1.006C49.5187 1.0164 49.5276 1.03335 49.5288 1.05463L51.5258 0.945284C51.4685 -0.100786 50.6183 -1 49.5 -1V1ZM17.5547 33.0258C18.6008 32.9685 19.5 32.1183 19.5 31L17.5 31C17.5 31.0012 17.4999 31.0012 17.5 31.0006C17.5001 31.0001 17.5003 30.9998 17.5002 30.9999C17.5002 31.0001 17.4987 31.0033 17.494 31.0081C17.4836 31.0187 17.4666 31.0276 17.4454 31.0288L17.5547 33.0258ZM19.5 69C19.5 67.8817 18.6008 67.0315 17.5547 66.9742L17.4454 68.9712C17.4667 68.9724 17.4836 68.9813 17.494 68.9919C17.4987 68.9967 17.5002 68.9999 17.5002 69.0001C17.5003 69.0002 17.5001 68.9999 17.5 68.9994C17.4999 68.9988 17.5 68.9988 17.5 69L19.5 69ZM87.4712 1.05463C87.4724 1.03335 87.4813 1.0164 87.4919 1.006C87.4967 1.00127 87.4999 0.999846 87.5001 0.999766C87.5002 0.999738 87.4999 0.999868 87.4993 0.999977C87.4988 1.0001 87.4988 1 87.5 1V-1C86.3817 -1 85.5315 -0.100789 85.4742 0.945282L87.4712 1.05463ZM51.5258 100.945C51.4685 99.8992 50.6183 99 49.5 99V101C49.5012 101 49.5012 101 49.5006 101C49.5001 101 49.4998 101 49.4999 101C49.5001 101 49.5033 101.001 49.5081 101.006C49.5187 101.016 49.5276 101.033 49.5288 101.055L51.5258 100.945ZM117.445 67.9712C117.467 67.9724 117.484 67.9813 117.494 67.9919C117.499 67.9967 117.5 67.9999 117.5 68.0001C117.5 68.0002 117.5 67.9999 117.5 67.9994C117.5 67.9988 117.5 67.9988 117.5 68H119.5C119.5 66.8817 118.601 66.0315 117.555 65.9742L117.445 67.9712ZM87.5 99C86.3817 99 85.5315 99.8992 85.4742 100.945L87.4712 101.055C87.4724 101.033 87.4813 101.016 87.4919 101.006C87.4967 101.001 87.4999 101 87.5001 101C87.5002 101 87.4999 101 87.4994 101C87.4988 101 87.4988 101 87.5 101V99ZM117.5 30C117.5 30.0012 117.5 30.0012 117.5 30.0006C117.5 30.0001 117.5 29.9998 117.5 29.9999C117.5 30.0001 117.499 30.0033 117.494 30.0081C117.484 30.0187 117.467 30.0276 117.445 30.0288L117.555 32.0258C118.601 31.9685 119.5 31.1183 119.5 30H117.5Z" fill="#D1D5DB" mask="url(#path-1-inside-1_673_10166)"/>
<path d="M55.7084 71.108C55.2364 71.108 54.8444 71.024 54.5324 70.856C54.2284 70.68 53.9964 70.42 53.8364 70.076C53.6844 69.732 53.6084 69.304 53.6084 68.792V65.576C53.6084 65.408 53.6484 65.284 53.7284 65.204C53.8164 65.124 53.9364 65.084 54.0884 65.084C54.2484 65.084 54.3684 65.124 54.4484 65.204C54.5364 65.284 54.5804 65.408 54.5804 65.576V68.78C54.5804 69.292 54.6844 69.676 54.8924 69.932C55.1084 70.18 55.4444 70.304 55.9004 70.304C56.3964 70.304 56.8004 70.136 57.1124 69.8C57.4244 69.464 57.5804 69.024 57.5804 68.48V65.576C57.5804 65.408 57.6204 65.284 57.7004 65.204C57.7884 65.124 57.9124 65.084 58.0724 65.084C58.2244 65.084 58.3404 65.124 58.4204 65.204C58.5084 65.284 58.5524 65.408 58.5524 65.576V70.58C58.5524 70.916 58.3964 71.084 58.0844 71.084C57.9324 71.084 57.8124 71.04 57.7244 70.952C57.6444 70.864 57.6044 70.74 57.6044 70.58V69.488L57.7604 69.656C57.6004 70.128 57.3364 70.488 56.9684 70.736C56.6084 70.984 56.1884 71.108 55.7084 71.108ZM60.851 71.084C60.691 71.084 60.571 71.04 60.491 70.952C60.411 70.864 60.371 70.74 60.371 70.58V65.576C60.371 65.416 60.411 65.296 60.491 65.216C60.571 65.128 60.687 65.084 60.839 65.084C60.991 65.084 61.107 65.128 61.187 65.216C61.275 65.296 61.319 65.416 61.319 65.576V66.608L61.187 66.464C61.355 66 61.627 65.652 62.003 65.42C62.387 65.18 62.827 65.06 63.323 65.06C63.787 65.06 64.171 65.144 64.475 65.312C64.787 65.48 65.019 65.736 65.171 66.08C65.323 66.416 65.399 66.844 65.399 67.364V70.58C65.399 70.74 65.355 70.864 65.267 70.952C65.187 71.04 65.071 71.084 64.919 71.084C64.759 71.084 64.635 71.04 64.547 70.952C64.467 70.864 64.427 70.74 64.427 70.58V67.424C64.427 66.88 64.319 66.484 64.103 66.236C63.895 65.98 63.559 65.852 63.095 65.852C62.559 65.852 62.131 66.02 61.811 66.356C61.499 66.684 61.343 67.124 61.343 67.676V70.58C61.343 70.916 61.179 71.084 60.851 71.084ZM67.6713 73.244C67.5113 73.244 67.3913 73.2 67.3113 73.112C67.2313 73.032 67.1913 72.912 67.1913 72.752V65.576C67.1913 65.416 67.2313 65.296 67.3113 65.216C67.3913 65.128 67.5073 65.084 67.6593 65.084C67.8193 65.084 67.9393 65.128 68.0193 65.216C68.1073 65.296 68.1513 65.416 68.1513 65.576V66.716L68.0193 66.548C68.1473 66.092 68.3993 65.732 68.7753 65.468C69.1593 65.196 69.6153 65.06 70.1433 65.06C70.6633 65.06 71.1153 65.184 71.4993 65.432C71.8913 65.672 72.1913 66.02 72.3993 66.476C72.6153 66.924 72.7233 67.46 72.7233 68.084C72.7233 68.7 72.6153 69.236 72.3993 69.692C72.1913 70.14 71.8953 70.488 71.5113 70.736C71.1273 70.984 70.6713 71.108 70.1433 71.108C69.6153 71.108 69.1633 70.976 68.7873 70.712C68.4113 70.44 68.1553 70.08 68.0193 69.632H68.1633V72.752C68.1633 72.912 68.1193 73.032 68.0313 73.112C67.9433 73.2 67.8233 73.244 67.6713 73.244ZM69.9393 70.328C70.3073 70.328 70.6233 70.24 70.8873 70.064C71.1593 69.888 71.3673 69.632 71.5113 69.296C71.6633 68.96 71.7393 68.556 71.7393 68.084C71.7393 67.356 71.5753 66.8 71.2473 66.416C70.9273 66.032 70.4913 65.84 69.9393 65.84C69.5793 65.84 69.2633 65.928 68.9913 66.104C68.7193 66.272 68.5073 66.524 68.3553 66.86C68.2113 67.188 68.1393 67.596 68.1393 68.084C68.1393 68.804 68.3033 69.36 68.6313 69.752C68.9593 70.136 69.3953 70.328 69.9393 70.328ZM76.4074 71.108C75.8874 71.108 75.4314 70.984 75.0394 70.736C74.6554 70.488 74.3554 70.14 74.1394 69.692C73.9314 69.236 73.8274 68.7 73.8274 68.084C73.8274 67.46 73.9314 66.924 74.1394 66.476C74.3554 66.02 74.6554 65.672 75.0394 65.432C75.4314 65.184 75.8874 65.06 76.4074 65.06C76.9354 65.06 77.3874 65.192 77.7634 65.456C78.1394 65.72 78.3914 66.076 78.5194 66.524H78.3874V62.948C78.3874 62.788 78.4274 62.668 78.5074 62.588C78.5954 62.5 78.7194 62.456 78.8794 62.456C79.0314 62.456 79.1474 62.5 79.2274 62.588C79.3154 62.668 79.3594 62.788 79.3594 62.948V70.58C79.3594 70.74 79.3194 70.864 79.2394 70.952C79.1594 71.04 79.0394 71.084 78.8794 71.084C78.7274 71.084 78.6074 71.04 78.5194 70.952C78.4394 70.864 78.3994 70.74 78.3994 70.58V69.44L78.5314 69.608C78.4034 70.064 78.1474 70.428 77.7634 70.7C77.3874 70.972 76.9354 71.108 76.4074 71.108ZM76.6114 70.328C76.9714 70.328 77.2874 70.24 77.5594 70.064C77.8314 69.888 78.0394 69.632 78.1834 69.296C78.3354 68.96 78.4114 68.556 78.4114 68.084C78.4114 67.356 78.2474 66.8 77.9194 66.416C77.5994 66.032 77.1634 65.84 76.6114 65.84C76.2434 65.84 75.9234 65.928 75.6514 66.104C75.3874 66.272 75.1794 66.524 75.0274 66.86C74.8834 67.188 74.8114 67.596 74.8114 68.084C74.8114 68.804 74.9754 69.36 75.3034 69.752C75.6314 70.136 76.0674 70.328 76.6114 70.328ZM81.9755 71.084C81.8235 71.084 81.7035 71.04 81.6155 70.952C81.5355 70.864 81.4955 70.74 81.4955 70.58V65.924H80.7275C80.5995 65.924 80.4955 65.892 80.4155 65.828C80.3435 65.756 80.3075 65.66 80.3075 65.54C80.3075 65.42 80.3435 65.328 80.4155 65.264C80.4955 65.2 80.5995 65.168 80.7275 65.168H81.7595L81.4955 65.42V64.964C81.4955 64.204 81.6795 63.624 82.0475 63.224C82.4235 62.824 82.9715 62.592 83.6915 62.528L84.0395 62.492C84.1515 62.484 84.2395 62.504 84.3035 62.552C84.3755 62.6 84.4195 62.66 84.4355 62.732C84.4595 62.804 84.4635 62.88 84.4475 62.96C84.4315 63.032 84.3955 63.096 84.3395 63.152C84.2835 63.208 84.2155 63.24 84.1355 63.248L83.8595 63.272C83.3715 63.312 83.0155 63.46 82.7915 63.716C82.5755 63.972 82.4675 64.348 82.4675 64.844V65.348L82.3235 65.168H83.7635C83.8995 65.168 84.0035 65.2 84.0755 65.264C84.1475 65.328 84.1835 65.42 84.1835 65.54C84.1835 65.66 84.1475 65.756 84.0755 65.828C84.0035 65.892 83.8995 65.924 83.7635 65.924H82.4675V70.58C82.4675 70.916 82.3035 71.084 81.9755 71.084Z" fill="#030712"/>
<path d="M73.7172 27.3541H58.175V52.6088H78.8731V32.3L73.7172 27.3541Z" fill="white"/>
<path d="M61.7931 34.9797H75.1719M61.7931 38.18H75.1719M61.7931 41.3781H75.1719M61.7931 44.5784H75.1719M61.7931 47.7787H67.5134" stroke="#B0BEC5" stroke-width="0.96625" stroke-miterlimit="10" stroke-linecap="round"/>
<path d="M78.4422 31.1603L74.7978 27.505C74.369 27.1002 73.8016 26.8748 73.2119 26.875H58.2275C57.8884 26.875 57.6128 27.1506 57.6128 27.4897V52.5103C57.6128 52.8494 57.8884 53.125 58.2275 53.125H78.7747C79.1137 53.125 79.3894 52.8494 79.3894 52.5103V32.8425C79.3872 32.2059 78.9059 31.5978 78.4422 31.1603ZM78.5122 52.25H58.4878V27.75H72.6322C73.0959 27.75 73.4744 28.1263 73.4744 28.5922V32.5034H77.2675C77.9544 32.5034 78.5122 32.8819 78.5122 33.7481V52.25Z" fill="#6FBFF0"/>
</svg>
