<svg width="119" height="118" viewBox="0 0 119 118" fill="none" xmlns="http://www.w3.org/2000/svg">
<mask id="path-1-inside-1_673_10169" fill="white">
<path fill-rule="evenodd" clip-rule="evenodd" d="M68.5 0C78.1056 0 85.9538 7.52403 86.4727 17C86.5029 17.5515 86.9477 18 87.5 18L114.5 18C116.709 18 118.5 19.7909 118.5 22L118.5 49C118.5 49.5523 118.052 49.9971 117.5 50.0273C108.024 50.5462 100.5 58.3944 100.5 68C100.5 77.6056 108.024 85.4538 117.5 85.9727C118.052 86.0029 118.5 86.4477 118.5 87L118.5 114C118.5 116.209 116.709 118 114.5 118L87.5 118C86.9477 118 86.5029 117.552 86.4727 117C85.9538 107.524 78.1056 100 68.5 100C58.8944 100 51.0462 107.524 50.5273 117C50.4971 117.552 50.0523 118 49.5 118L22.5 118C20.2909 118 18.5 116.209 18.5 114L18.5 87C18.5 86.4477 18.0515 86.0029 17.5 85.9727C8.02403 85.4538 0.5 77.6056 0.5 68C0.5 58.3944 8.02403 50.5462 17.5 50.0273C18.0515 49.9971 18.5 49.5523 18.5 49L18.5 22C18.5 19.7909 20.2909 18 22.5 18L49.5 18C50.0523 18 50.4971 17.5515 50.5273 17C51.0462 7.52403 58.8944 0 68.5 0Z"/>
</mask>
<path fill-rule="evenodd" clip-rule="evenodd" d="M68.5 0C78.1056 0 85.9538 7.52403 86.4727 17C86.5029 17.5515 86.9477 18 87.5 18L114.5 18C116.709 18 118.5 19.7909 118.5 22L118.5 49C118.5 49.5523 118.052 49.9971 117.5 50.0273C108.024 50.5462 100.5 58.3944 100.5 68C100.5 77.6056 108.024 85.4538 117.5 85.9727C118.052 86.0029 118.5 86.4477 118.5 87L118.5 114C118.5 116.209 116.709 118 114.5 118L87.5 118C86.9477 118 86.5029 117.552 86.4727 117C85.9538 107.524 78.1056 100 68.5 100C58.8944 100 51.0462 107.524 50.5273 117C50.4971 117.552 50.0523 118 49.5 118L22.5 118C20.2909 118 18.5 116.209 18.5 114L18.5 87C18.5 86.4477 18.0515 86.0029 17.5 85.9727C8.02403 85.4538 0.5 77.6056 0.5 68C0.5 58.3944 8.02403 50.5462 17.5 50.0273C18.0515 49.9971 18.5 49.5523 18.5 49L18.5 22C18.5 19.7909 20.2909 18 22.5 18L49.5 18C50.0523 18 50.4971 17.5515 50.5273 17C51.0462 7.52403 58.8944 0 68.5 0Z" fill="#FFFFFF" fill-opacity="1"/>
<path d="M114.5 18L114.5 17L114.5 17L114.5 18ZM18.5 114L17.5 114V114H18.5ZM18.5 22L17.5 22L17.5 22L18.5 22ZM22.5 18L22.5 17H22.5V18ZM49.5 18L49.5 19L49.5 18ZM50.5273 17L49.5288 16.9454L50.5273 17ZM17.5 50.0273L17.4454 49.0288L17.5 50.0273ZM18.5 49L17.5 49L18.5 49ZM18.5 87L17.5 87L18.5 87ZM17.5 85.9727L17.4454 86.9712L17.5 85.9727ZM86.4727 17L87.4712 16.9454L86.4727 17ZM87.5 18L87.5 17L87.5 18ZM50.5273 117L49.5288 116.945L50.5273 117ZM117.5 85.9727L117.555 84.9742L117.5 85.9727ZM86.4727 117L87.4712 116.945L86.4727 117ZM117.5 50.0273L117.445 49.0288L117.5 50.0273ZM87.4712 16.9454C86.9235 6.94204 78.6396 -1 68.5 -1V1C77.5716 1 84.9842 8.10603 85.4742 17.0547L87.4712 16.9454ZM114.5 17L87.5 17L87.5 19L114.5 19L114.5 17ZM119.5 22C119.5 19.2386 117.261 17 114.5 17V19C116.157 19 117.5 20.3431 117.5 22H119.5ZM119.5 49L119.5 22H117.5L117.5 49H119.5ZM101.5 68C101.5 58.9284 108.606 51.5158 117.555 51.0258L117.445 49.0288C107.442 49.5765 99.5 57.8604 99.5 68H101.5ZM117.555 84.9742C108.606 84.4842 101.5 77.0716 101.5 68H99.5C99.5 78.1396 107.442 86.4235 117.445 86.9712L117.555 84.9742ZM119.5 114L119.5 87H117.5L117.5 114H119.5ZM114.5 119C117.261 119 119.5 116.761 119.5 114H117.5C117.5 115.657 116.157 117 114.5 117V119ZM87.5 119L114.5 119V117L87.5 117V119ZM68.5 101C77.5716 101 84.9842 108.106 85.4742 117.055L87.4712 116.945C86.9235 106.942 78.6396 99 68.5 99V101ZM51.5258 117.055C52.0158 108.106 59.4284 101 68.5 101V99C58.3604 99 50.0765 106.942 49.5288 116.945L51.5258 117.055ZM22.5 119L49.5 119V117L22.5 117L22.5 119ZM17.5 114C17.5 116.761 19.7386 119 22.5 119L22.5 117C20.8431 117 19.5 115.657 19.5 114H17.5ZM17.5 87L17.5 114L19.5 114L19.5 87L17.5 87ZM17.5547 84.9742C8.60603 84.4842 1.5 77.0716 1.5 68H-0.5C-0.5 78.1396 7.44204 86.4235 17.4454 86.9712L17.5547 84.9742ZM1.5 68C1.5 58.9284 8.60603 51.5158 17.5547 51.0258L17.4454 49.0288C7.44204 49.5765 -0.5 57.8604 -0.5 68H1.5ZM17.5 22L17.5 49L19.5 49L19.5 22L17.5 22ZM22.5 17C19.7386 17 17.5 19.2386 17.5 22H19.5C19.5 20.3431 20.8431 19 22.5 19V17ZM49.5 17L22.5 17L22.5 19L49.5 19L49.5 17ZM68.5 -1C58.3604 -1 50.0765 6.94204 49.5288 16.9454L51.5258 17.0547C52.0158 8.10603 59.4284 1 68.5 1V-1ZM49.5 19C50.6183 19 51.4685 18.1008 51.5258 17.0547L49.5288 16.9454C49.5276 16.9666 49.5187 16.9836 49.5081 16.994C49.5033 16.9987 49.5001 17.0002 49.4999 17.0002C49.4998 17.0003 49.5001 17.0001 49.5006 17C49.5012 16.9999 49.5012 17 49.5 17L49.5 19ZM17.5547 51.0258C18.6008 50.9685 19.5 50.1183 19.5 49L17.5 49C17.5 49.0012 17.4999 49.0012 17.5 49.0006C17.5001 49.0001 17.5003 48.9998 17.5002 48.9999C17.5002 49.0001 17.4987 49.0033 17.494 49.0081C17.4836 49.0187 17.4666 49.0276 17.4454 49.0288L17.5547 51.0258ZM19.5 87C19.5 85.8817 18.6008 85.0315 17.5547 84.9742L17.4454 86.9712C17.4667 86.9724 17.4836 86.9813 17.494 86.9919C17.4987 86.9967 17.5002 86.9999 17.5002 87.0001C17.5003 87.0002 17.5001 86.9999 17.5 86.9994C17.4999 86.9988 17.5 86.9988 17.5 87L19.5 87ZM85.4742 17.0547C85.5315 18.1008 86.3817 19 87.5 19L87.5 17C87.4988 17 87.4988 16.9999 87.4993 17C87.4999 17.0001 87.5002 17.0003 87.5001 17.0002C87.4999 17.0002 87.4967 16.9987 87.4919 16.994C87.4813 16.9836 87.4724 16.9667 87.4712 16.9454L85.4742 17.0547ZM49.5288 116.945C49.5276 116.967 49.5187 116.984 49.5081 116.994C49.5033 116.999 49.5001 117 49.4999 117C49.4998 117 49.5001 117 49.5007 117C49.5012 117 49.5012 117 49.5 117V119C50.6183 119 51.4685 118.101 51.5258 117.055L49.5288 116.945ZM117.445 86.9712C117.467 86.9724 117.484 86.9813 117.494 86.9919C117.499 86.9967 117.5 86.9999 117.5 87.0001C117.5 87.0002 117.5 86.9999 117.5 86.9993C117.5 86.9988 117.5 86.9988 117.5 87H119.5C119.5 85.8817 118.601 85.0315 117.555 84.9742L117.445 86.9712ZM87.5 117C87.4988 117 87.4988 117 87.4994 117C87.4999 117 87.5002 117 87.5001 117C87.4999 117 87.4967 116.999 87.4919 116.994C87.4813 116.984 87.4724 116.967 87.4712 116.945L85.4742 117.055C85.5315 118.101 86.3817 119 87.5 119V117ZM117.5 49C117.5 49.0012 117.5 49.0012 117.5 49.0006C117.5 49.0001 117.5 48.9998 117.5 48.9999C117.5 49.0001 117.499 49.0033 117.494 49.0081C117.484 49.0187 117.467 49.0276 117.445 49.0288L117.555 51.0258C118.601 50.9685 119.5 50.1183 119.5 49H117.5Z" fill="#D1D5DB" mask="url(#path-1-inside-1_673_10169)"/>
<path d="M55.8315 89.108C55.3595 89.108 54.9675 89.024 54.6555 88.856C54.3515 88.68 54.1195 88.42 53.9595 88.076C53.8075 87.732 53.7315 87.304 53.7315 86.792V83.576C53.7315 83.408 53.7715 83.284 53.8515 83.204C53.9395 83.124 54.0595 83.084 54.2115 83.084C54.3715 83.084 54.4915 83.124 54.5715 83.204C54.6595 83.284 54.7035 83.408 54.7035 83.576V86.78C54.7035 87.292 54.8075 87.676 55.0155 87.932C55.2315 88.18 55.5675 88.304 56.0235 88.304C56.5195 88.304 56.9235 88.136 57.2355 87.8C57.5475 87.464 57.7035 87.024 57.7035 86.48V83.576C57.7035 83.408 57.7435 83.284 57.8235 83.204C57.9115 83.124 58.0355 83.084 58.1955 83.084C58.3475 83.084 58.4635 83.124 58.5435 83.204C58.6315 83.284 58.6755 83.408 58.6755 83.576V88.58C58.6755 88.916 58.5195 89.084 58.2075 89.084C58.0555 89.084 57.9355 89.04 57.8475 88.952C57.7675 88.864 57.7275 88.74 57.7275 88.58V87.488L57.8835 87.656C57.7235 88.128 57.4595 88.488 57.0915 88.736C56.7315 88.984 56.3115 89.108 55.8315 89.108ZM60.974 89.084C60.814 89.084 60.694 89.04 60.614 88.952C60.534 88.864 60.494 88.74 60.494 88.58V83.576C60.494 83.416 60.534 83.296 60.614 83.216C60.694 83.128 60.81 83.084 60.962 83.084C61.114 83.084 61.23 83.128 61.31 83.216C61.398 83.296 61.442 83.416 61.442 83.576V84.608L61.31 84.464C61.478 84 61.75 83.652 62.126 83.42C62.51 83.18 62.95 83.06 63.446 83.06C63.91 83.06 64.294 83.144 64.598 83.312C64.91 83.48 65.142 83.736 65.294 84.08C65.446 84.416 65.522 84.844 65.522 85.364V88.58C65.522 88.74 65.478 88.864 65.39 88.952C65.31 89.04 65.194 89.084 65.042 89.084C64.882 89.084 64.758 89.04 64.67 88.952C64.59 88.864 64.55 88.74 64.55 88.58V85.424C64.55 84.88 64.442 84.484 64.226 84.236C64.018 83.98 63.682 83.852 63.218 83.852C62.682 83.852 62.254 84.02 61.934 84.356C61.622 84.684 61.466 85.124 61.466 85.676V88.58C61.466 88.916 61.302 89.084 60.974 89.084ZM69.6543 89.108C69.1983 89.108 68.8143 89.028 68.5023 88.868C68.1983 88.7 67.9703 88.46 67.8183 88.148C67.6663 87.828 67.5903 87.44 67.5903 86.984V83.924H66.7863C66.6503 83.924 66.5463 83.892 66.4743 83.828C66.4023 83.756 66.3663 83.66 66.3663 83.54C66.3663 83.42 66.4023 83.328 66.4743 83.264C66.5463 83.2 66.6503 83.168 66.7863 83.168H67.5903V81.788C67.5903 81.628 67.6343 81.508 67.7223 81.428C67.8103 81.34 67.9303 81.296 68.0823 81.296C68.2343 81.296 68.3503 81.34 68.4303 81.428C68.5183 81.508 68.5623 81.628 68.5623 81.788V83.168H70.0743C70.2103 83.168 70.3143 83.2 70.3863 83.264C70.4583 83.328 70.4943 83.42 70.4943 83.54C70.4943 83.66 70.4583 83.756 70.3863 83.828C70.3143 83.892 70.2103 83.924 70.0743 83.924H68.5623V86.888C68.5623 87.344 68.6583 87.692 68.8503 87.932C69.0423 88.164 69.3543 88.28 69.7863 88.28C69.9383 88.28 70.0663 88.264 70.1703 88.232C70.2823 88.2 70.3743 88.184 70.4463 88.184C70.5183 88.176 70.5783 88.2 70.6263 88.256C70.6743 88.312 70.6983 88.408 70.6983 88.544C70.6983 88.64 70.6783 88.728 70.6383 88.808C70.6063 88.888 70.5463 88.944 70.4583 88.976C70.3623 89.008 70.2343 89.036 70.0743 89.06C69.9223 89.092 69.7823 89.108 69.6543 89.108ZM73.5737 89.108C73.1017 89.108 72.7097 89.024 72.3977 88.856C72.0937 88.68 71.8617 88.42 71.7017 88.076C71.5497 87.732 71.4737 87.304 71.4737 86.792V83.576C71.4737 83.408 71.5137 83.284 71.5937 83.204C71.6817 83.124 71.8017 83.084 71.9537 83.084C72.1137 83.084 72.2337 83.124 72.3137 83.204C72.4017 83.284 72.4457 83.408 72.4457 83.576V86.78C72.4457 87.292 72.5497 87.676 72.7577 87.932C72.9737 88.18 73.3097 88.304 73.7657 88.304C74.2617 88.304 74.6657 88.136 74.9777 87.8C75.2897 87.464 75.4457 87.024 75.4457 86.48V83.576C75.4457 83.408 75.4857 83.284 75.5657 83.204C75.6537 83.124 75.7777 83.084 75.9377 83.084C76.0897 83.084 76.2057 83.124 76.2857 83.204C76.3737 83.284 76.4177 83.408 76.4177 83.576V88.58C76.4177 88.916 76.2617 89.084 75.9497 89.084C75.7977 89.084 75.6777 89.04 75.5897 88.952C75.5097 88.864 75.4697 88.74 75.4697 88.58V87.488L75.6257 87.656C75.4657 88.128 75.2017 88.488 74.8337 88.736C74.4737 88.984 74.0537 89.108 73.5737 89.108ZM78.7162 89.084C78.5562 89.084 78.4362 89.04 78.3562 88.952C78.2762 88.864 78.2362 88.74 78.2362 88.58V83.576C78.2362 83.416 78.2762 83.296 78.3562 83.216C78.4362 83.128 78.5522 83.084 78.7042 83.084C78.8562 83.084 78.9722 83.128 79.0522 83.216C79.1402 83.296 79.1842 83.416 79.1842 83.576V84.608L79.0522 84.464C79.2202 84 79.4922 83.652 79.8682 83.42C80.2522 83.18 80.6922 83.06 81.1882 83.06C81.6522 83.06 82.0362 83.144 82.3402 83.312C82.6522 83.48 82.8842 83.736 83.0362 84.08C83.1882 84.416 83.2642 84.844 83.2642 85.364V88.58C83.2642 88.74 83.2202 88.864 83.1322 88.952C83.0522 89.04 82.9362 89.084 82.7842 89.084C82.6242 89.084 82.5002 89.04 82.4122 88.952C82.3322 88.864 82.2922 88.74 82.2922 88.58V85.424C82.2922 84.88 82.1842 84.484 81.9682 84.236C81.7602 83.98 81.4242 83.852 80.9602 83.852C80.4242 83.852 79.9962 84.02 79.6762 84.356C79.3642 84.684 79.2082 85.124 79.2082 85.676V88.58C79.2082 88.916 79.0442 89.084 78.7162 89.084Z" fill="#030712"/>
<path d="M68.5 71.125C75.7487 71.125 81.625 65.2487 81.625 58C81.625 50.7513 75.7487 44.875 68.5 44.875C61.2513 44.875 55.375 50.7513 55.375 58C55.375 65.2487 61.2513 71.125 68.5 71.125Z" fill="#455A64"/>
<path d="M62.0206 58.8772C65.8422 56.5978 71.8622 57.066 74.9312 58.6322C76.3509 59.3563 77.0444 60.1394 78.8075 61.0735C80.3037 61.8675 80.5159 61.2266 80.6078 60.9203C80.9119 59.8485 80.855 59.1681 80.855 57.9978C80.8572 51.175 75.325 45.2622 68.5 45.2622C61.675 45.2622 56.1428 51.175 56.1428 58C56.1428 58.9428 56.1428 59.2775 56.3419 60.1591C56.9237 62.1125 60.1284 60.006 62.0206 58.8772Z" fill="black"/>
<path d="M77.2609 67.7475L74.2706 64.1972L72.4484 64.0944L74.9203 69.4472C74.9203 69.4472 75.2463 69.2437 76.1103 68.6837C76.9766 68.1259 77.2609 67.7475 77.2609 67.7475Z" fill="#82AEC0"/>
<path d="M73.0391 63.729L76.305 68.5524C76.305 68.5524 75.7297 68.9703 75.5459 69.0709C75.3622 69.1737 74.9159 69.4515 74.9159 69.4515L72.4484 64.0965L73.0391 63.729Z" fill="#263238"/>
<path d="M59.7413 67.7475L62.7316 64.1972L64.5538 64.0944L62.0819 69.4472C62.0819 69.4472 61.7559 69.2437 60.8919 68.6837C60.0256 68.1259 59.7413 67.7475 59.7413 67.7475Z" fill="#82AEC0"/>
<path d="M63.9631 63.729L60.6972 68.5524C60.6972 68.5524 61.2725 68.9703 61.4563 69.0709C61.64 69.1737 62.0863 69.4515 62.0863 69.4515L64.5538 64.0943L63.9631 63.729Z" fill="#263238"/>
<path d="M61.5394 64.254C61.5525 64.7462 61.6006 65.2822 61.7122 65.8006C61.7472 65.9647 61.8412 66.1353 61.9987 66.1353H62.4253C62.585 66.1353 62.7447 66.0522 63.0072 66.599C63.0794 66.7522 63.1756 66.8462 63.2719 66.8943V66.9009C66.8681 68.1697 71.7769 67.614 73.5641 66.9228C73.7106 66.9753 73.9447 66.9053 74.0891 66.599C74.3516 66.05 74.5134 66.1353 74.6709 66.1353H75.0975C75.255 66.1353 75.3491 65.9647 75.3841 65.8006C75.4956 65.2822 75.5437 64.744 75.5569 64.254H61.5394Z" fill="black"/>
<path d="M75.8544 64.3875H61.1456C61.0186 64.3875 60.8967 64.337 60.8069 64.2471C60.717 64.1573 60.6666 64.0355 60.6666 63.9084V61.5459H76.3291V63.9084C76.3313 64.1731 76.1169 64.3875 75.8544 64.3875Z" fill="#82AEC0"/>
<path d="M76.3356 61.9922H60.6666V62.6484H66.2841V63.7772H70.565V62.6484H76.3356V61.9922Z" fill="#37474F"/>
<path d="M76.1912 62.06H60.8087C60.6228 62.06 60.4697 61.9156 60.4697 61.7362V53.3909C60.4697 50.3022 61.6487 47.4934 67.4544 47.4934H69.7053C74.8066 47.4934 76.5281 50.3022 76.5281 53.3909V61.7362C76.5281 61.9156 76.3772 62.06 76.1912 62.06Z" fill="#F44336"/>
<path d="M60.4763 53.0606C60.4763 54.1916 61.5153 54.4366 61.5153 54.4366L65.5272 54.4256L67.3975 54.4234H67.8197L68.6466 54.4212L70.4338 54.4169L75.4978 54.4059C75.4978 54.4059 76.5238 54.08 76.5238 53.0606C76.5238 52.0412 76.2306 47.4278 69.7075 47.4912H67.4544C60.4784 47.4037 60.4763 51.9297 60.4763 53.0606Z" fill="#82AEC0"/>
<path d="M70.0444 61.3906H66.9556C66.7555 61.3906 66.5635 61.3111 66.422 61.1696C66.2805 61.0281 66.2009 60.8361 66.2009 60.636V52.5247C66.2009 52.1091 66.5378 51.77 66.9556 51.77H70.0466C70.4622 51.77 70.8013 52.1069 70.8013 52.5247V60.636C70.8007 60.8363 70.7208 61.0283 70.5789 61.1698C70.437 61.3113 70.2448 61.3907 70.0444 61.3906Z" fill="#F44336" stroke="#9B1313" stroke-width="0.5" stroke-miterlimit="10"/>
<path d="M65.1838 49.0641C65.4703 49.0641 65.5797 49.2325 65.5797 49.4425V57.5844C65.5797 57.7944 65.4025 57.9628 65.1838 57.9628H61.9309C61.7122 57.9628 61.535 57.7944 61.535 57.5844V53.4085C61.535 49.5169 64.4859 49.0641 65.1838 49.0641ZM69.6134 52.435H67.3866C67.065 52.435 66.8047 52.6953 66.8047 53.0169V57.405C66.8047 57.7266 67.065 57.9869 67.3866 57.9869H69.6113C69.9328 57.9869 70.1931 57.7266 70.1931 57.405V53.0169C70.1931 52.6953 69.9328 52.435 69.6134 52.435Z" fill="#BAE2FD"/>
<path d="M65.1838 49.0641C65.4703 49.0641 65.5797 49.2325 65.5797 49.4425V57.5844C65.5797 57.7944 65.4025 57.9628 65.1838 57.9628H61.9309C61.7122 57.9628 61.535 57.7944 61.535 57.5844V53.4085C61.535 49.5169 64.4859 49.0641 65.1838 49.0641ZM69.6134 52.435H67.3866C67.065 52.435 66.8047 52.6953 66.8047 53.0169V57.405C66.8047 57.7266 67.065 57.9869 67.3866 57.9869H69.6113C69.9328 57.9869 70.1931 57.7266 70.1931 57.405V53.0169C70.1931 52.6953 69.9328 52.435 69.6134 52.435Z" fill="#37474F"/>
<path d="M70.1734 50.8184H66.8266C66.4897 50.8184 66.2162 50.545 66.2162 50.2081V49.5759C66.2162 49.239 66.4897 48.9656 66.8266 48.9656H70.1734C70.5103 48.9656 70.7837 49.239 70.7837 49.5759V50.2081C70.7837 50.5471 70.5103 50.8184 70.1734 50.8184Z" fill="black"/>
<path d="M66.7347 49.4578H67.3909V50.3284H66.7347V49.4578ZM69.6091 49.4578H70.2653V50.3284H69.6091V49.4578ZM67.7409 49.4578H68.1741V50.3284H67.7409V49.4578ZM68.9834 49.4578H69.2875V50.3284H68.9834V49.4578Z" fill="#FFEB3B"/>
<path d="M64.9497 49.7115C65.1859 49.7115 65.2756 49.8515 65.2756 50.0244V57.0659C65.2756 57.2387 65.1291 57.3787 64.9497 57.3787H62.3466C62.1672 57.3787 62.0206 57.2387 62.0206 57.0659V53.4412C62.0206 50.2344 64.3744 49.7115 64.9497 49.7115ZM69.4384 52.9534H67.6228C67.3822 52.9534 67.1853 53.1503 67.1853 53.3909V57.0178C67.1853 57.2584 67.3822 57.4553 67.6228 57.4553H69.4384C69.6791 57.4553 69.8759 57.2584 69.8759 57.0178V53.3909C69.8759 53.1503 69.6791 52.9534 69.4384 52.9534Z" fill="#BAE2FD"/>
<path d="M62.5281 60.9509C63.1008 60.9509 63.565 60.4867 63.565 59.9141C63.565 59.3414 63.1008 58.8772 62.5281 58.8772C61.9555 58.8772 61.4913 59.3414 61.4913 59.9141C61.4913 60.4867 61.9555 60.9509 62.5281 60.9509Z" fill="#FFFF8D"/>
<path d="M74.4784 60.9509C75.0511 60.9509 75.5153 60.4867 75.5153 59.9141C75.5153 59.3414 75.0511 58.8772 74.4784 58.8772C73.9058 58.8772 73.4416 59.3414 73.4416 59.9141C73.4416 60.4867 73.9058 60.9509 74.4784 60.9509Z" fill="#FFFF8D"/>
<path d="M71.9519 49.0641C71.6653 49.0641 71.5559 49.2325 71.5559 49.4425V57.5844C71.5559 57.7944 71.7331 57.9628 71.9519 57.9628H75.2047C75.4234 57.9628 75.6006 57.7944 75.6006 57.5844V53.4085C75.6028 49.5169 72.6519 49.0641 71.9519 49.0641Z" fill="#37474F"/>
<path d="M72.1881 49.7115C71.9519 49.7115 71.8622 49.8515 71.8622 50.0244V57.0659C71.8622 57.2387 72.0087 57.3787 72.1881 57.3787H74.7912C74.9706 57.3787 75.1172 57.2387 75.1172 57.0659V53.4412C75.1172 50.2344 72.7634 49.7115 72.1881 49.7115Z" fill="#BAE2FD"/>
<path d="M62.0316 53.0585L65.2756 56.3025V54.7582L62.2875 51.77C62.2875 51.77 62.1759 52.0391 62.1016 52.4044C62.0425 52.6844 62.0316 53.0585 62.0316 53.0585ZM71.86 53.0475L75.1172 56.3025V54.7582L71.8622 51.5032L71.86 53.0475ZM67.1853 53.3604L69.8759 56.051V54.5066L68.2616 52.9535H67.59C67.3669 52.9535 67.1853 53.135 67.1853 53.3604Z" fill="white"/>
<path d="M64.4291 66.5094L64.7222 65.9713C64.7878 65.851 64.9147 65.7744 65.0525 65.7744H71.6216C71.7616 65.7744 71.8906 65.8532 71.9541 65.9757L72.2406 66.5247C72.2551 66.553 72.2621 66.5845 72.261 66.6162C72.2598 66.648 72.2506 66.6789 72.2342 66.7061C72.2177 66.7332 72.1946 66.7558 72.167 66.7715C72.1395 66.7872 72.1083 66.7957 72.0766 66.796L64.5909 66.7829C64.5589 66.7828 64.5274 66.7744 64.4996 66.7585C64.4718 66.7426 64.4486 66.7197 64.4322 66.6922C64.4159 66.6646 64.407 66.6333 64.4065 66.6012C64.4059 66.5692 64.4137 66.5375 64.4291 66.5094Z" fill="#424242"/>
<path d="M73.5509 69.421L63.4578 69.3094C63.2566 69.3072 63.1297 69.1213 63.2216 68.9682L63.6 68.3403C63.6809 68.2069 63.8384 68.1238 64.0112 68.1238H73.0237C73.2097 68.1238 73.3781 68.22 73.4503 68.3688L73.8025 69.095C73.8791 69.2525 73.7456 69.4232 73.5509 69.421Z" fill="#82AEC0"/>
</svg>
