<svg width="119" height="100" viewBox="0 0 119 100" fill="none" xmlns="http://www.w3.org/2000/svg">
<mask id="path-1-inside-1_774_11248" fill="white">
<path fill-rule="evenodd" clip-rule="evenodd" d="M68.5 18C78.1056 18 85.9538 10.476 86.4727 0.999956C86.5029 0.448497 86.9477 0 87.5 0L114.5 0C116.709 0 118.5 1.79086 118.5 4L118.5 31C118.5 31.5523 118.052 31.9971 117.5 32.0273C108.024 32.5462 100.5 40.3944 100.5 50C100.5 59.6056 108.024 67.4538 117.5 67.9727C118.052 68.0029 118.5 68.4477 118.5 69L118.5 96C118.5 98.2091 116.709 100 114.5 100H87.5C86.9477 100 86.5029 99.5515 86.4727 99C85.9538 89.524 78.1056 82 68.5 82C58.8944 82 51.0462 89.524 50.5273 99C50.4971 99.5515 50.0523 100 49.5 100L22.5 100C20.2909 100 18.5 98.2091 18.5 96L18.5 69C18.5 68.4477 18.0515 68.0029 17.5 67.9727C8.02403 67.4538 0.5 59.6056 0.5 50C0.5 40.3944 8.02403 32.5462 17.5 32.0273C18.0515 31.9971 18.5 31.5523 18.5 31L18.5 4C18.5 1.79086 20.2909 0 22.5 0L49.5 0C50.0523 0 50.4971 0.448498 50.5273 0.999957C51.0462 10.476 58.8944 18 68.5 18Z"/>
</mask>
<path fill-rule="evenodd" clip-rule="evenodd" d="M68.5 18C78.1056 18 85.9538 10.476 86.4727 0.999956C86.5029 0.448497 86.9477 0 87.5 0L114.5 0C116.709 0 118.5 1.79086 118.5 4L118.5 31C118.5 31.5523 118.052 31.9971 117.5 32.0273C108.024 32.5462 100.5 40.3944 100.5 50C100.5 59.6056 108.024 67.4538 117.5 67.9727C118.052 68.0029 118.5 68.4477 118.5 69L118.5 96C118.5 98.2091 116.709 100 114.5 100H87.5C86.9477 100 86.5029 99.5515 86.4727 99C85.9538 89.524 78.1056 82 68.5 82C58.8944 82 51.0462 89.524 50.5273 99C50.4971 99.5515 50.0523 100 49.5 100L22.5 100C20.2909 100 18.5 98.2091 18.5 96L18.5 69C18.5 68.4477 18.0515 68.0029 17.5 67.9727C8.02403 67.4538 0.5 59.6056 0.5 50C0.5 40.3944 8.02403 32.5462 17.5 32.0273C18.0515 31.9971 18.5 31.5523 18.5 31L18.5 4C18.5 1.79086 20.2909 0 22.5 0L49.5 0C50.0523 0 50.4971 0.448498 50.5273 0.999957C51.0462 10.476 58.8944 18 68.5 18Z" fill="white"/>
<path d="M18.5 96L17.5 96V96H18.5ZM18.5 4L17.5 4L17.5 4L18.5 4ZM50.5273 0.999957L51.5258 0.945284L50.5273 0.999957ZM17.5 32.0273L17.4454 31.0288L17.5 32.0273ZM18.5 31L17.5 31L18.5 31ZM18.5 69L17.5 69L18.5 69ZM17.5 67.9727L17.4454 68.9712L17.5 67.9727ZM50.5273 99L49.5288 98.9454L50.5273 99ZM117.5 67.9727L117.555 66.9742L117.5 67.9727ZM86.4727 99L87.4712 98.9454L86.4727 99ZM117.5 32.0273L117.555 33.0258L117.5 32.0273ZM85.4742 0.945282C84.9842 9.89397 77.5716 17 68.5 17V19C78.6396 19 86.9235 11.058 87.4712 1.05463L85.4742 0.945282ZM114.5 -1L87.5 -1V1L114.5 1V-1ZM119.5 4C119.5 1.23858 117.261 -1 114.5 -1V1C116.157 1 117.5 2.34315 117.5 4H119.5ZM119.5 31L119.5 4H117.5L117.5 31H119.5ZM101.5 50C101.5 40.9284 108.606 33.5158 117.555 33.0258L117.445 31.0288C107.442 31.5765 99.5 39.8604 99.5 50H101.5ZM117.555 66.9742C108.606 66.4842 101.5 59.0716 101.5 50H99.5C99.5 60.1396 107.442 68.4235 117.445 68.9712L117.555 66.9742ZM119.5 96L119.5 69H117.5L117.5 96H119.5ZM114.5 101C117.261 101 119.5 98.7614 119.5 96H117.5C117.5 97.6569 116.157 99 114.5 99V101ZM87.5 101H114.5V99H87.5V101ZM68.5 83C77.5716 83 84.9842 90.106 85.4742 99.0547L87.4712 98.9454C86.9235 88.942 78.6396 81 68.5 81V83ZM51.5258 99.0547C52.0158 90.106 59.4284 83 68.5 83V81C58.3604 81 50.0765 88.942 49.5288 98.9454L51.5258 99.0547ZM22.5 101L49.5 101V99L22.5 99L22.5 101ZM17.5 96C17.5 98.7614 19.7386 101 22.5 101L22.5 99C20.8431 99 19.5 97.6569 19.5 96H17.5ZM17.5 69L17.5 96L19.5 96L19.5 69L17.5 69ZM17.5547 66.9742C8.60603 66.4842 1.5 59.0716 1.5 50H-0.5C-0.5 60.1396 7.44204 68.4235 17.4454 68.9712L17.5547 66.9742ZM1.5 50C1.5 40.9284 8.60603 33.5158 17.5547 33.0258L17.4454 31.0288C7.44204 31.5765 -0.5 39.8604 -0.5 50H1.5ZM17.5 4L17.5 31L19.5 31L19.5 4L17.5 4ZM22.5 -1C19.7386 -1 17.5 1.23858 17.5 4L19.5 4C19.5 2.34315 20.8431 1 22.5 1V-1ZM49.5 -1L22.5 -1V1L49.5 1V-1ZM68.5 17C59.4284 17 52.0158 9.89397 51.5258 0.945284L49.5288 1.05463C50.0765 11.058 58.3604 19 68.5 19V17ZM49.5 1C49.5012 1 49.5012 1.0001 49.5006 0.999977C49.5001 0.999868 49.4998 0.999738 49.4999 0.999766C49.5001 0.999846 49.5033 1.00127 49.5081 1.006C49.5187 1.0164 49.5276 1.03335 49.5288 1.05463L51.5258 0.945284C51.4685 -0.100786 50.6183 -1 49.5 -1V1ZM17.5547 33.0258C18.6008 32.9685 19.5 32.1183 19.5 31L17.5 31C17.5 31.0012 17.4999 31.0012 17.5 31.0006C17.5001 31.0001 17.5003 30.9998 17.5002 30.9999C17.5002 31.0001 17.4987 31.0033 17.494 31.0081C17.4836 31.0187 17.4666 31.0276 17.4454 31.0288L17.5547 33.0258ZM19.5 69C19.5 67.8817 18.6008 67.0315 17.5547 66.9742L17.4454 68.9712C17.4667 68.9724 17.4836 68.9813 17.494 68.9919C17.4987 68.9967 17.5002 68.9999 17.5002 69.0001C17.5003 69.0002 17.5001 68.9999 17.5 68.9994C17.4999 68.9988 17.5 68.9988 17.5 69L19.5 69ZM87.4712 1.05463C87.4724 1.03335 87.4813 1.0164 87.4919 1.006C87.4967 1.00127 87.4999 0.999846 87.5001 0.999766C87.5002 0.999738 87.4999 0.999868 87.4993 0.999977C87.4988 1.0001 87.4988 1 87.5 1V-1C86.3817 -1 85.5315 -0.100789 85.4742 0.945282L87.4712 1.05463ZM49.5288 98.9454C49.5276 98.9667 49.5187 98.9836 49.5081 98.994C49.5033 98.9987 49.5001 99.0002 49.4999 99.0002C49.4998 99.0003 49.5001 99.0001 49.5007 99C49.5012 98.9999 49.5012 99 49.5 99V101C50.6183 101 51.4685 100.101 51.5258 99.0547L49.5288 98.9454ZM117.445 68.9712C117.467 68.9724 117.484 68.9813 117.494 68.9919C117.499 68.9967 117.5 68.9999 117.5 69.0001C117.5 69.0002 117.5 68.9999 117.5 68.9993C117.5 68.9988 117.5 68.9988 117.5 69H119.5C119.5 67.8817 118.601 67.0315 117.555 66.9742L117.445 68.9712ZM87.5 99C87.4988 99 87.4988 98.9999 87.4994 99C87.4999 99.0001 87.5002 99.0003 87.5001 99.0002C87.4999 99.0002 87.4967 98.9987 87.4919 98.994C87.4813 98.9836 87.4724 98.9666 87.4712 98.9454L85.4742 99.0547C85.5315 100.101 86.3817 101 87.5 101V99ZM117.5 31C117.5 31.0012 117.5 31.0012 117.5 31.0006C117.5 31.0001 117.5 30.9998 117.5 30.9999C117.5 31.0001 117.499 31.0033 117.494 31.0081C117.484 31.0187 117.467 31.0276 117.445 31.0288L117.555 33.0258C118.601 32.9685 119.5 32.1183 119.5 31H117.5Z" fill="#D1D5DB" mask="url(#path-1-inside-1_774_11248)"/>
<path d="M48.5365 71.108C48.0645 71.108 47.6725 71.024 47.3605 70.856C47.0565 70.68 46.8245 70.42 46.6645 70.076C46.5125 69.732 46.4365 69.304 46.4365 68.792V65.576C46.4365 65.408 46.4765 65.284 46.5565 65.204C46.6445 65.124 46.7645 65.084 46.9165 65.084C47.0765 65.084 47.1965 65.124 47.2765 65.204C47.3645 65.284 47.4085 65.408 47.4085 65.576V68.78C47.4085 69.292 47.5125 69.676 47.7205 69.932C47.9365 70.18 48.2725 70.304 48.7285 70.304C49.2245 70.304 49.6285 70.136 49.9405 69.8C50.2525 69.464 50.4085 69.024 50.4085 68.48V65.576C50.4085 65.408 50.4485 65.284 50.5285 65.204C50.6165 65.124 50.7405 65.084 50.9005 65.084C51.0525 65.084 51.1685 65.124 51.2485 65.204C51.3365 65.284 51.3805 65.408 51.3805 65.576V70.58C51.3805 70.916 51.2245 71.084 50.9125 71.084C50.7605 71.084 50.6405 71.04 50.5525 70.952C50.4725 70.864 50.4325 70.74 50.4325 70.58V69.488L50.5885 69.656C50.4285 70.128 50.1645 70.488 49.7965 70.736C49.4365 70.984 49.0165 71.108 48.5365 71.108ZM53.6791 71.084C53.5191 71.084 53.3991 71.04 53.3191 70.952C53.2391 70.864 53.1991 70.74 53.1991 70.58V65.576C53.1991 65.416 53.2391 65.296 53.3191 65.216C53.3991 65.128 53.5151 65.084 53.6671 65.084C53.8191 65.084 53.9351 65.128 54.0151 65.216C54.1031 65.296 54.1471 65.416 54.1471 65.576V66.608L54.0151 66.464C54.1831 66 54.4551 65.652 54.8311 65.42C55.2151 65.18 55.6551 65.06 56.1511 65.06C56.6151 65.06 56.9991 65.144 57.3031 65.312C57.6151 65.48 57.8471 65.736 57.9991 66.08C58.1511 66.416 58.2271 66.844 58.2271 67.364V70.58C58.2271 70.74 58.1831 70.864 58.0951 70.952C58.0151 71.04 57.8991 71.084 57.7471 71.084C57.5871 71.084 57.4631 71.04 57.3751 70.952C57.2951 70.864 57.2551 70.74 57.2551 70.58V67.424C57.2551 66.88 57.1471 66.484 56.9311 66.236C56.7231 65.98 56.3871 65.852 55.9231 65.852C55.3871 65.852 54.9591 66.02 54.6391 66.356C54.3271 66.684 54.1711 67.124 54.1711 67.676V70.58C54.1711 70.916 54.0071 71.084 53.6791 71.084ZM61.9768 71.084C61.8408 71.084 61.7208 71.048 61.6168 70.976C61.5128 70.904 61.4288 70.788 61.3648 70.628L59.5768 65.768C59.5288 65.632 59.5128 65.512 59.5288 65.408C59.5528 65.304 59.6048 65.224 59.6848 65.168C59.7648 65.112 59.8648 65.084 59.9848 65.084C60.1048 65.084 60.2008 65.112 60.2728 65.168C60.3528 65.224 60.4168 65.328 60.4648 65.48L62.1448 70.28H61.8568L63.5848 65.48C63.6408 65.336 63.7088 65.236 63.7888 65.18C63.8768 65.116 63.9888 65.084 64.1248 65.084C64.2528 65.084 64.3608 65.116 64.4488 65.18C64.5368 65.244 64.6048 65.344 64.6528 65.48L66.3448 70.28H66.0688L67.7728 65.456C67.8288 65.312 67.8968 65.216 67.9768 65.168C68.0568 65.112 68.1528 65.084 68.2648 65.084C68.3928 65.084 68.4888 65.116 68.5528 65.18C68.6248 65.244 68.6648 65.328 68.6728 65.432C68.6808 65.536 68.6608 65.648 68.6128 65.768L66.8248 70.628C66.7688 70.78 66.6848 70.896 66.5728 70.976C66.4688 71.048 66.3488 71.084 66.2128 71.084C66.0768 71.084 65.9568 71.048 65.8528 70.976C65.7488 70.896 65.6688 70.78 65.6128 70.628L63.8368 65.756H64.3528L62.5888 70.628C62.5328 70.78 62.4528 70.896 62.3488 70.976C62.2448 71.048 62.1208 71.084 61.9768 71.084ZM71.7695 71.108C71.3695 71.108 71.0095 71.032 70.6895 70.88C70.3775 70.72 70.1295 70.504 69.9455 70.232C69.7615 69.96 69.6695 69.656 69.6695 69.32C69.6695 68.888 69.7775 68.548 69.9935 68.3C70.2175 68.052 70.5815 67.876 71.0855 67.772C71.5975 67.668 72.2935 67.616 73.1735 67.616H73.7135V68.252H73.1855C72.5375 68.252 72.0255 68.284 71.6495 68.348C71.2815 68.404 71.0215 68.504 70.8695 68.648C70.7255 68.792 70.6535 68.996 70.6535 69.26C70.6535 69.588 70.7655 69.856 70.9895 70.064C71.2215 70.272 71.5335 70.376 71.9255 70.376C72.2455 70.376 72.5255 70.3 72.7655 70.148C73.0135 69.996 73.2055 69.788 73.3415 69.524C73.4855 69.26 73.5575 68.956 73.5575 68.612V67.244C73.5575 66.748 73.4575 66.392 73.2575 66.176C73.0575 65.952 72.7295 65.84 72.2735 65.84C71.9935 65.84 71.7135 65.876 71.4335 65.948C71.1535 66.02 70.8575 66.136 70.5455 66.296C70.4335 66.352 70.3375 66.372 70.2575 66.356C70.1775 66.332 70.1135 66.288 70.0655 66.224C70.0175 66.16 69.9895 66.088 69.9815 66.008C69.9735 65.92 69.9895 65.836 70.0295 65.756C70.0775 65.676 70.1495 65.612 70.2455 65.564C70.5975 65.388 70.9455 65.26 71.2895 65.18C71.6335 65.1 71.9615 65.06 72.2735 65.06C72.7775 65.06 73.1935 65.144 73.5215 65.312C73.8495 65.472 74.0935 65.72 74.2535 66.056C74.4135 66.384 74.4935 66.808 74.4935 67.328V70.58C74.4935 70.74 74.4535 70.864 74.3735 70.952C74.3015 71.04 74.1935 71.084 74.0495 71.084C73.8975 71.084 73.7815 71.04 73.7015 70.952C73.6215 70.864 73.5815 70.74 73.5815 70.58V69.644H73.6895C73.6255 69.948 73.5015 70.208 73.3175 70.424C73.1415 70.64 72.9215 70.808 72.6575 70.928C72.3935 71.048 72.0975 71.108 71.7695 71.108ZM78.2648 71.108C77.9048 71.108 77.5408 71.064 77.1728 70.976C76.8128 70.888 76.4768 70.736 76.1648 70.52C76.0848 70.464 76.0288 70.4 75.9968 70.328C75.9648 70.248 75.9528 70.172 75.9608 70.1C75.9768 70.02 76.0088 69.952 76.0568 69.896C76.1128 69.84 76.1768 69.808 76.2488 69.8C76.3288 69.784 76.4168 69.8 76.5128 69.848C76.8248 70.04 77.1248 70.176 77.4128 70.256C77.7088 70.328 78.0008 70.364 78.2888 70.364C78.7448 70.364 79.0888 70.28 79.3208 70.112C79.5528 69.944 79.6688 69.716 79.6688 69.428C79.6688 69.204 79.5928 69.028 79.4408 68.9C79.2888 68.764 79.0488 68.66 78.7208 68.588L77.6288 68.348C77.1248 68.244 76.7488 68.064 76.5008 67.808C76.2608 67.552 76.1408 67.22 76.1408 66.812C76.1408 66.452 76.2328 66.144 76.4168 65.888C76.6088 65.624 76.8768 65.42 77.2208 65.276C77.5648 65.132 77.9648 65.06 78.4208 65.06C78.7728 65.06 79.1048 65.108 79.4168 65.204C79.7368 65.292 80.0248 65.436 80.2808 65.636C80.3608 65.692 80.4128 65.76 80.4368 65.84C80.4688 65.912 80.4728 65.988 80.4488 66.068C80.4328 66.14 80.3968 66.204 80.3408 66.26C80.2848 66.308 80.2168 66.336 80.1368 66.344C80.0568 66.352 79.9728 66.328 79.8848 66.272C79.6448 66.112 79.4008 65.996 79.1528 65.924C78.9048 65.844 78.6608 65.804 78.4208 65.804C77.9728 65.804 77.6328 65.892 77.4008 66.068C77.1688 66.244 77.0528 66.476 77.0528 66.764C77.0528 66.988 77.1248 67.172 77.2688 67.316C77.4128 67.46 77.6368 67.564 77.9408 67.628L79.0328 67.856C79.5528 67.968 79.9408 68.148 80.1968 68.396C80.4608 68.636 80.5928 68.964 80.5928 69.38C80.5928 69.908 80.3808 70.328 79.9568 70.64C79.5328 70.952 78.9688 71.108 78.2648 71.108ZM82.5781 71.084C82.4181 71.084 82.2981 71.04 82.2181 70.952C82.1381 70.864 82.0981 70.74 82.0981 70.58V65.576C82.0981 65.416 82.1381 65.296 82.2181 65.216C82.2981 65.128 82.4141 65.084 82.5661 65.084C82.7181 65.084 82.8341 65.128 82.9141 65.216C83.0021 65.296 83.0461 65.416 83.0461 65.576V66.632L82.9141 66.464C83.0661 66.016 83.3101 65.672 83.6461 65.432C83.9901 65.184 84.3981 65.06 84.8701 65.06C85.3661 65.06 85.7661 65.18 86.0701 65.42C86.3821 65.652 86.5901 66.016 86.6941 66.512H86.5141C86.6581 66.064 86.9141 65.712 87.2821 65.456C87.6581 65.192 88.0941 65.06 88.5901 65.06C89.0301 65.06 89.3901 65.144 89.6701 65.312C89.9581 65.48 90.1741 65.736 90.3181 66.08C90.4621 66.416 90.5341 66.844 90.5341 67.364V70.58C90.5341 70.74 90.4901 70.864 90.4021 70.952C90.3221 71.04 90.2021 71.084 90.0421 71.084C89.8901 71.084 89.7701 71.04 89.6821 70.952C89.6021 70.864 89.5621 70.74 89.5621 70.58V67.412C89.5621 66.876 89.4701 66.484 89.2861 66.236C89.1021 65.98 88.7901 65.852 88.3501 65.852C87.8701 65.852 87.4901 66.02 87.2101 66.356C86.9381 66.684 86.8021 67.132 86.8021 67.7V70.58C86.8021 70.74 86.7581 70.864 86.6701 70.952C86.5901 71.04 86.4701 71.084 86.3101 71.084C86.1581 71.084 86.0381 71.04 85.9501 70.952C85.8701 70.864 85.8301 70.74 85.8301 70.58V67.412C85.8301 66.876 85.7341 66.484 85.5421 66.236C85.3581 65.98 85.0501 65.852 84.6181 65.852C84.1381 65.852 83.7581 66.02 83.4781 66.356C83.2061 66.684 83.0701 67.132 83.0701 67.7V70.58C83.0701 70.916 82.9061 71.084 82.5781 71.084Z" fill="#030712"/>
<g clip-path="url(#clip0_774_11248)">
<path d="M82.3447 29.5941C82.2956 29.5326 82.2334 29.4828 82.1626 29.4484C82.0919 29.4139 82.0143 29.3957 81.9356 29.395H76.5128C76.2634 29.395 76.0491 29.57 76.0031 29.815L73.9075 40.4638L70.9609 29.7756C70.9434 29.7122 70.9128 29.6575 70.8756 29.6072C70.8734 29.605 70.8734 29.5985 70.8691 29.5963C70.8625 29.5875 70.8516 29.5853 70.845 29.5766C70.8078 29.5328 70.7641 29.4978 70.7138 29.4694C70.6963 29.4606 70.6809 29.4497 70.6634 29.4431C70.6 29.4147 70.5322 29.395 70.4578 29.395H66.54C66.4678 29.395 66.3978 29.4147 66.3344 29.4431C66.3169 29.4519 66.3016 29.4606 66.2841 29.4694C66.2338 29.4978 66.19 29.5328 66.1528 29.5766C66.1441 29.5853 66.1353 29.5875 66.1288 29.5963C66.1266 29.6006 66.1266 29.605 66.1222 29.6072C66.085 29.6575 66.0544 29.7144 66.0369 29.7756L63.0947 40.4638L60.9969 29.815C60.9734 29.697 60.9098 29.5907 60.8169 29.5142C60.724 29.4376 60.6075 29.3955 60.4872 29.395H55.0666C54.9069 29.395 54.7538 29.4694 54.6575 29.5941C54.5569 29.7188 54.5219 29.885 54.5591 30.0381L59.9819 52.0116C59.9841 52.0181 59.9906 52.0247 59.9906 52.0335C60.0038 52.075 60.0191 52.1122 60.0409 52.1494C60.0475 52.1603 60.0519 52.1713 60.0606 52.1822C60.065 52.1888 60.0672 52.1953 60.0738 52.2019C60.1 52.2369 60.1284 52.2653 60.1634 52.2938C60.1678 52.2981 60.1744 52.3003 60.1809 52.3047C60.2159 52.331 60.2553 52.3528 60.2969 52.3681C60.3078 52.3725 60.3209 52.3769 60.3341 52.3813C60.3822 52.3966 60.4347 52.4075 60.4872 52.4075H64.8141C64.8863 52.4075 64.9519 52.39 65.0153 52.3616C65.0328 52.3528 65.0481 52.3441 65.0656 52.3353C65.1094 52.3091 65.1509 52.2785 65.1859 52.2391C65.1947 52.2303 65.2078 52.226 65.2166 52.2172C65.2209 52.2106 65.2209 52.2041 65.2253 52.1975C65.2669 52.1428 65.2997 52.0838 65.3172 52.016L68.5 39.6347L71.6828 52.0181C71.7003 52.086 71.7331 52.145 71.7747 52.1997C71.7791 52.2063 71.7791 52.2128 71.7856 52.2194C71.7922 52.2281 71.8053 52.2325 71.8141 52.2413C71.8491 52.2806 71.8884 52.3113 71.9344 52.3375C71.9519 52.3463 71.9672 52.3572 71.9847 52.3638C72.0481 52.39 72.1138 52.4097 72.1859 52.4097H76.5128C76.5653 52.4097 76.6156 52.3988 76.6659 52.3835C76.6791 52.3791 76.69 52.3747 76.7053 52.3703C76.7447 52.355 76.7841 52.3331 76.8213 52.3069C76.8278 52.3025 76.8322 52.3003 76.8388 52.296C76.8716 52.2697 76.9022 52.2391 76.9284 52.2041C76.9328 52.1975 76.935 52.191 76.9416 52.1844C76.9481 52.1735 76.9525 52.1625 76.9613 52.1516C76.9809 52.1144 76.9984 52.0772 77.0116 52.0356C77.0138 52.0291 77.0203 52.0225 77.0203 52.0138L82.4431 30.0403C82.4781 29.885 82.4431 29.7188 82.3447 29.5941Z" fill="#40C0E7"/>
</g>
<defs>
<clipPath id="clip0_774_11248">
<rect width="28" height="28" fill="white" transform="translate(54.5 26)"/>
</clipPath>
</defs>
</svg>
