<svg width="137" height="136" viewBox="0 0 137 136" fill="none" xmlns="http://www.w3.org/2000/svg">
<mask id="path-1-inside-1_673_10172" fill="white">
<path fill-rule="evenodd" clip-rule="evenodd" d="M87.5 18C86.9477 18 86.5029 17.5515 86.4727 17C85.9538 7.52403 78.1056 0 68.5 0C58.8944 0 51.0462 7.52403 50.5273 17C50.4971 17.5515 50.0523 18 49.5 18L22.5 18C20.2909 18 18.5 19.7909 18.5 22L18.5 49C18.5 49.5523 18.0515 49.9971 17.5 50.0273C8.02403 50.5462 0.5 58.3944 0.5 68C0.5 77.6056 8.02403 85.4538 17.5 85.9727C18.0515 86.0029 18.5 86.4477 18.5 87L18.5 114C18.5 116.209 20.2909 118 22.5 118L49.5 118C50.0523 118 50.4971 118.448 50.5273 119C51.0462 128.476 58.8944 136 68.5 136C78.1056 136 85.9538 128.476 86.4727 119C86.5029 118.448 86.9477 118 87.5 118L114.5 118C116.709 118 118.5 116.209 118.5 114V87C118.5 86.4477 118.948 86.0029 119.5 85.9727C128.976 85.4538 136.5 77.6056 136.5 68C136.5 58.3944 128.976 50.5462 119.5 50.0273C118.948 49.9971 118.5 49.5523 118.5 49L118.5 22C118.5 19.7909 116.709 18 114.5 18L87.5 18Z"/>
</mask>
<path fill-rule="evenodd" clip-rule="evenodd" d="M87.5 18C86.9477 18 86.5029 17.5515 86.4727 17C85.9538 7.52403 78.1056 0 68.5 0C58.8944 0 51.0462 7.52403 50.5273 17C50.4971 17.5515 50.0523 18 49.5 18L22.5 18C20.2909 18 18.5 19.7909 18.5 22L18.5 49C18.5 49.5523 18.0515 49.9971 17.5 50.0273C8.02403 50.5462 0.5 58.3944 0.5 68C0.5 77.6056 8.02403 85.4538 17.5 85.9727C18.0515 86.0029 18.5 86.4477 18.5 87L18.5 114C18.5 116.209 20.2909 118 22.5 118L49.5 118C50.0523 118 50.4971 118.448 50.5273 119C51.0462 128.476 58.8944 136 68.5 136C78.1056 136 85.9538 128.476 86.4727 119C86.5029 118.448 86.9477 118 87.5 118L114.5 118C116.709 118 118.5 116.209 118.5 114V87C118.5 86.4477 118.948 86.0029 119.5 85.9727C128.976 85.4538 136.5 77.6056 136.5 68C136.5 58.3944 128.976 50.5462 119.5 50.0273C118.948 49.9971 118.5 49.5523 118.5 49L118.5 22C118.5 19.7909 116.709 18 114.5 18L87.5 18Z" fill="#FFFFFF" fill-opacity="1"/>
<path d="M18.5 22L17.5 22L17.5 22L18.5 22ZM18.5 114L17.5 114V114H18.5ZM119.5 50.0273L119.555 49.0288L119.5 50.0273ZM119.5 85.9727L119.445 84.9742L119.5 85.9727ZM50.5273 119L49.5288 119.055L50.5273 119ZM18.5 49L17.5 49L18.5 49ZM17.5 50.0273L17.5547 51.0258L17.5 50.0273ZM17.5 85.9727L17.4454 86.9712L17.5 85.9727ZM18.5 87L17.5 87L18.5 87ZM50.5273 17L49.5288 16.9454L50.5273 17ZM86.4727 119L87.4712 119.055L86.4727 119ZM86.4727 17L85.4742 17.0547L86.4727 17ZM68.5 1C77.5716 1 84.9842 8.10603 85.4742 17.0547L87.4712 16.9454C86.9235 6.94204 78.6396 -1 68.5 -1V1ZM51.5258 17.0547C52.0158 8.10603 59.4284 1 68.5 1V-1C58.3604 -1 50.0765 6.94204 49.5288 16.9454L51.5258 17.0547ZM49.5 17L22.5 17V19L49.5 19V17ZM22.5 17C19.7386 17 17.5 19.2386 17.5 22H19.5C19.5 20.3431 20.8431 19 22.5 19V17ZM17.5 22L17.5 49L19.5 49L19.5 22L17.5 22ZM17.4454 49.0288C7.44204 49.5765 -0.5 57.8604 -0.5 68H1.5C1.5 58.9284 8.60603 51.5158 17.5547 51.0258L17.4454 49.0288ZM-0.5 68C-0.5 78.1396 7.44204 86.4235 17.4454 86.9712L17.5547 84.9742C8.60603 84.4842 1.5 77.0716 1.5 68H-0.5ZM17.5 87L17.5 114L19.5 114L19.5 87L17.5 87ZM17.5 114C17.5 116.761 19.7386 119 22.5 119V117C20.8431 117 19.5 115.657 19.5 114H17.5ZM22.5 119L49.5 119V117L22.5 117V119ZM49.5288 119.055C50.0765 129.058 58.3604 137 68.5 137V135C59.4284 135 52.0158 127.894 51.5258 118.945L49.5288 119.055ZM68.5 137C78.6396 137 86.9235 129.058 87.4712 119.055L85.4742 118.945C84.9842 127.894 77.5716 135 68.5 135V137ZM87.5 119L114.5 119V117L87.5 117V119ZM114.5 119C117.261 119 119.5 116.761 119.5 114H117.5C117.5 115.657 116.157 117 114.5 117V119ZM119.5 114V87H117.5V114H119.5ZM119.555 86.9712C129.558 86.4235 137.5 78.1396 137.5 68H135.5C135.5 77.0716 128.394 84.4842 119.445 84.9742L119.555 86.9712ZM137.5 68C137.5 57.8604 129.558 49.5765 119.555 49.0288L119.445 51.0258C128.394 51.5158 135.5 58.9284 135.5 68H137.5ZM119.5 49L119.5 22H117.5L117.5 49H119.5ZM119.5 22C119.5 19.2386 117.261 17 114.5 17V19C116.157 19 117.5 20.3431 117.5 22H119.5ZM114.5 17L87.5 17V19L114.5 19V17ZM119.555 49.0288C119.533 49.0276 119.516 49.0187 119.506 49.0081C119.501 49.0033 119.5 49.0001 119.5 48.9999C119.5 48.9998 119.5 49.0001 119.5 49.0006C119.5 49.0012 119.5 49.0012 119.5 49H117.5C117.5 50.1183 118.399 50.9685 119.445 51.0258L119.555 49.0288ZM119.5 87C119.5 86.9988 119.5 86.9988 119.5 86.9993C119.5 86.9999 119.5 87.0002 119.5 87.0001C119.5 86.9999 119.501 86.9967 119.506 86.9919C119.516 86.9813 119.533 86.9724 119.555 86.9712L119.445 84.9742C118.399 85.0315 117.5 85.8817 117.5 87H119.5ZM49.5 119C49.5012 119 49.5012 119 49.5007 119C49.5001 119 49.4998 119 49.4999 119C49.5001 119 49.5033 119.001 49.5081 119.006C49.5187 119.016 49.5276 119.033 49.5288 119.055L51.5258 118.945C51.4685 117.899 50.6183 117 49.5 117V119ZM17.5 49C17.5 49.0012 17.4999 49.0012 17.5 49.0007C17.5001 49.0001 17.5003 48.9998 17.5002 48.9999C17.5002 49.0001 17.4987 49.0033 17.494 49.0081C17.4836 49.0187 17.4667 49.0276 17.4454 49.0288L17.5547 51.0258C18.6008 50.9685 19.5 50.1183 19.5 49L17.5 49ZM17.4454 86.9712C17.4666 86.9724 17.4836 86.9813 17.494 86.9919C17.4987 86.9967 17.5002 86.9999 17.5002 87.0001C17.5003 87.0002 17.5001 86.9999 17.5 86.9994C17.4999 86.9988 17.5 86.9988 17.5 87L19.5 87C19.5 85.8817 18.6008 85.0315 17.5547 84.9742L17.4454 86.9712ZM49.5288 16.9454C49.5276 16.9667 49.5187 16.9836 49.5081 16.994C49.5033 16.9987 49.5001 17.0002 49.4999 17.0002C49.4998 17.0003 49.5001 17.0001 49.5006 17C49.5012 16.9999 49.5012 17 49.5 17V19C50.6183 19 51.4685 18.1008 51.5258 17.0547L49.5288 16.9454ZM87.4712 119.055C87.4724 119.033 87.4813 119.016 87.4919 119.006C87.4967 119.001 87.4999 119 87.5001 119C87.5002 119 87.4999 119 87.4994 119C87.4988 119 87.4988 119 87.5 119V117C86.3817 117 85.5315 117.899 85.4742 118.945L87.4712 119.055ZM85.4742 17.0547C85.5315 18.1008 86.3817 19 87.5 19V17C87.4988 17 87.4988 16.9999 87.4994 17C87.4999 17.0001 87.5002 17.0003 87.5001 17.0002C87.4999 17.0002 87.4967 16.9987 87.4919 16.994C87.4813 16.9836 87.4724 16.9667 87.4712 16.9454L85.4742 17.0547Z" fill="#D1D5DB" mask="url(#path-1-inside-1_673_10172)"/>
<path d="M38.4456 89.084C38.3096 89.084 38.1896 89.048 38.0856 88.976C37.9816 88.904 37.8976 88.788 37.8336 88.628L36.0456 83.768C35.9976 83.632 35.9816 83.512 35.9976 83.408C36.0216 83.304 36.0736 83.224 36.1536 83.168C36.2336 83.112 36.3336 83.084 36.4536 83.084C36.5736 83.084 36.6696 83.112 36.7416 83.168C36.8216 83.224 36.8856 83.328 36.9336 83.48L38.6136 88.28H38.3256L40.0536 83.48C40.1096 83.336 40.1776 83.236 40.2576 83.18C40.3456 83.116 40.4576 83.084 40.5936 83.084C40.7216 83.084 40.8296 83.116 40.9176 83.18C41.0056 83.244 41.0736 83.344 41.1216 83.48L42.8136 88.28H42.5376L44.2416 83.456C44.2976 83.312 44.3656 83.216 44.4456 83.168C44.5256 83.112 44.6216 83.084 44.7336 83.084C44.8616 83.084 44.9576 83.116 45.0216 83.18C45.0936 83.244 45.1336 83.328 45.1416 83.432C45.1496 83.536 45.1296 83.648 45.0816 83.768L43.2936 88.628C43.2376 88.78 43.1536 88.896 43.0416 88.976C42.9376 89.048 42.8176 89.084 42.6816 89.084C42.5456 89.084 42.4256 89.048 42.3216 88.976C42.2176 88.896 42.1376 88.78 42.0816 88.628L40.3056 83.756H40.8216L39.0576 88.628C39.0016 88.78 38.9216 88.896 38.8176 88.976C38.7136 89.048 38.5896 89.084 38.4456 89.084ZM49.0654 89.108C48.4494 89.108 47.9174 88.988 47.4694 88.748C47.0294 88.5 46.6854 88.152 46.4374 87.704C46.1974 87.256 46.0774 86.72 46.0774 86.096C46.0774 85.488 46.1974 84.96 46.4374 84.512C46.6774 84.056 47.0054 83.7 47.4214 83.444C47.8454 83.188 48.3334 83.06 48.8854 83.06C49.2774 83.06 49.6294 83.128 49.9414 83.264C50.2534 83.392 50.5174 83.58 50.7334 83.828C50.9574 84.076 51.1254 84.376 51.2374 84.728C51.3574 85.08 51.4174 85.476 51.4174 85.916C51.4174 86.044 51.3814 86.14 51.3094 86.204C51.2374 86.26 51.1334 86.288 50.9974 86.288H46.8214V85.652H50.7694L50.5774 85.808C50.5774 85.376 50.5134 85.012 50.3854 84.716C50.2574 84.412 50.0694 84.18 49.8214 84.02C49.5814 83.86 49.2774 83.78 48.9094 83.78C48.5014 83.78 48.1534 83.876 47.8654 84.068C47.5854 84.252 47.3734 84.512 47.2294 84.848C47.0854 85.176 47.0134 85.56 47.0134 86V86.072C47.0134 86.808 47.1894 87.368 47.5414 87.752C47.9014 88.136 48.4094 88.328 49.0654 88.328C49.3374 88.328 49.6054 88.292 49.8694 88.22C50.1414 88.148 50.4054 88.028 50.6614 87.86C50.7734 87.788 50.8734 87.756 50.9614 87.764C51.0574 87.764 51.1334 87.792 51.1894 87.848C51.2454 87.896 51.2814 87.96 51.2974 88.04C51.3214 88.112 51.3134 88.192 51.2734 88.28C51.2414 88.368 51.1734 88.444 51.0694 88.508C50.8054 88.7 50.4934 88.848 50.1334 88.952C49.7734 89.056 49.4174 89.108 49.0654 89.108ZM55.7761 89.108C55.2481 89.108 54.7921 88.972 54.4081 88.7C54.0321 88.428 53.7801 88.064 53.6521 87.608L53.7841 87.476V88.58C53.7841 88.74 53.7401 88.864 53.6521 88.952C53.5721 89.04 53.4561 89.084 53.3041 89.084C53.1441 89.084 53.0241 89.04 52.9441 88.952C52.8641 88.864 52.8241 88.74 52.8241 88.58V80.948C52.8241 80.788 52.8641 80.668 52.9441 80.588C53.0241 80.5 53.1441 80.456 53.3041 80.456C53.4561 80.456 53.5761 80.5 53.6641 80.588C53.7521 80.668 53.7961 80.788 53.7961 80.948V84.524H53.6521C53.7881 84.076 54.0441 83.72 54.4201 83.456C54.7961 83.192 55.2481 83.06 55.7761 83.06C56.3041 83.06 56.7601 83.184 57.1441 83.432C57.5281 83.672 57.8241 84.02 58.0321 84.476C58.2481 84.924 58.3561 85.46 58.3561 86.084C58.3561 86.7 58.2481 87.236 58.0321 87.692C57.8241 88.14 57.5241 88.488 57.1321 88.736C56.7481 88.984 56.2961 89.108 55.7761 89.108ZM55.5721 88.328C55.9401 88.328 56.2561 88.24 56.5201 88.064C56.7921 87.888 57.0001 87.632 57.1441 87.296C57.2961 86.96 57.3721 86.556 57.3721 86.084C57.3721 85.356 57.2081 84.8 56.8801 84.416C56.5601 84.032 56.1241 83.84 55.5721 83.84C55.2121 83.84 54.8961 83.928 54.6241 84.104C54.3521 84.272 54.1401 84.524 53.9881 84.86C53.8441 85.188 53.7721 85.596 53.7721 86.084C53.7721 86.804 53.9361 87.36 54.2641 87.752C54.5921 88.136 55.0281 88.328 55.5721 88.328ZM60.3002 91.244C60.1402 91.244 60.0202 91.2 59.9402 91.112C59.8602 91.032 59.8202 90.912 59.8202 90.752V83.576C59.8202 83.416 59.8602 83.296 59.9402 83.216C60.0202 83.128 60.1362 83.084 60.2882 83.084C60.4482 83.084 60.5682 83.128 60.6482 83.216C60.7362 83.296 60.7802 83.416 60.7802 83.576V84.716L60.6482 84.548C60.7762 84.092 61.0282 83.732 61.4042 83.468C61.7882 83.196 62.2442 83.06 62.7722 83.06C63.2922 83.06 63.7442 83.184 64.1282 83.432C64.5202 83.672 64.8202 84.02 65.0282 84.476C65.2442 84.924 65.3522 85.46 65.3522 86.084C65.3522 86.7 65.2442 87.236 65.0282 87.692C64.8202 88.14 64.5242 88.488 64.1402 88.736C63.7562 88.984 63.3002 89.108 62.7722 89.108C62.2442 89.108 61.7922 88.976 61.4162 88.712C61.0402 88.44 60.7842 88.08 60.6482 87.632H60.7922V90.752C60.7922 90.912 60.7482 91.032 60.6602 91.112C60.5722 91.2 60.4522 91.244 60.3002 91.244ZM62.5682 88.328C62.9362 88.328 63.2522 88.24 63.5162 88.064C63.7882 87.888 63.9962 87.632 64.1402 87.296C64.2922 86.96 64.3682 86.556 64.3682 86.084C64.3682 85.356 64.2042 84.8 63.8762 84.416C63.5562 84.032 63.1202 83.84 62.5682 83.84C62.2082 83.84 61.8922 83.928 61.6202 84.104C61.3482 84.272 61.1362 84.524 60.9842 84.86C60.8402 85.188 60.7682 85.596 60.7682 86.084C60.7682 86.804 60.9322 87.36 61.2602 87.752C61.5882 88.136 62.0242 88.328 62.5682 88.328ZM68.6523 89.108C68.2523 89.108 67.8923 89.032 67.5723 88.88C67.2603 88.72 67.0123 88.504 66.8283 88.232C66.6443 87.96 66.5523 87.656 66.5523 87.32C66.5523 86.888 66.6603 86.548 66.8763 86.3C67.1003 86.052 67.4643 85.876 67.9683 85.772C68.4803 85.668 69.1763 85.616 70.0563 85.616H70.5963V86.252H70.0683C69.4203 86.252 68.9083 86.284 68.5323 86.348C68.1643 86.404 67.9043 86.504 67.7523 86.648C67.6083 86.792 67.5363 86.996 67.5363 87.26C67.5363 87.588 67.6483 87.856 67.8723 88.064C68.1043 88.272 68.4163 88.376 68.8083 88.376C69.1283 88.376 69.4083 88.3 69.6483 88.148C69.8963 87.996 70.0883 87.788 70.2243 87.524C70.3683 87.26 70.4403 86.956 70.4403 86.612V85.244C70.4403 84.748 70.3403 84.392 70.1403 84.176C69.9403 83.952 69.6123 83.84 69.1563 83.84C68.8763 83.84 68.5963 83.876 68.3163 83.948C68.0363 84.02 67.7403 84.136 67.4283 84.296C67.3163 84.352 67.2203 84.372 67.1403 84.356C67.0603 84.332 66.9963 84.288 66.9483 84.224C66.9003 84.16 66.8723 84.088 66.8643 84.008C66.8563 83.92 66.8723 83.836 66.9123 83.756C66.9603 83.676 67.0323 83.612 67.1283 83.564C67.4803 83.388 67.8283 83.26 68.1723 83.18C68.5163 83.1 68.8443 83.06 69.1563 83.06C69.6603 83.06 70.0763 83.144 70.4043 83.312C70.7323 83.472 70.9763 83.72 71.1363 84.056C71.2963 84.384 71.3763 84.808 71.3763 85.328V88.58C71.3763 88.74 71.3363 88.864 71.2563 88.952C71.1843 89.04 71.0763 89.084 70.9323 89.084C70.7803 89.084 70.6643 89.04 70.5843 88.952C70.5043 88.864 70.4643 88.74 70.4643 88.58V87.644H70.5723C70.5083 87.948 70.3843 88.208 70.2003 88.424C70.0243 88.64 69.8043 88.808 69.5403 88.928C69.2763 89.048 68.9803 89.108 68.6523 89.108ZM75.6516 89.108C75.0676 89.108 74.5636 88.98 74.1396 88.724C73.7156 88.468 73.3876 88.112 73.1556 87.656C72.9316 87.192 72.8196 86.656 72.8196 86.048C72.8196 85.584 72.8836 85.168 73.0116 84.8C73.1396 84.432 73.3276 84.12 73.5756 83.864C73.8236 83.6 74.1196 83.4 74.4636 83.264C74.8156 83.128 75.2116 83.06 75.6516 83.06C75.9396 83.06 76.2396 83.104 76.5516 83.192C76.8636 83.28 77.1476 83.432 77.4036 83.648C77.4836 83.704 77.5356 83.772 77.5596 83.852C77.5836 83.932 77.5836 84.012 77.5596 84.092C77.5356 84.164 77.4956 84.228 77.4396 84.284C77.3836 84.332 77.3116 84.36 77.2236 84.368C77.1436 84.376 77.0596 84.348 76.9716 84.284C76.7636 84.124 76.5516 84.012 76.3356 83.948C76.1196 83.884 75.9116 83.852 75.7116 83.852C75.3996 83.852 75.1276 83.904 74.8956 84.008C74.6636 84.104 74.4676 84.244 74.3076 84.428C74.1476 84.612 74.0236 84.84 73.9356 85.112C73.8556 85.384 73.8156 85.7 73.8156 86.06C73.8156 86.756 73.9796 87.308 74.3076 87.716C74.6356 88.116 75.1036 88.316 75.7116 88.316C75.9116 88.316 76.1156 88.284 76.3236 88.22C76.5396 88.156 76.7556 88.044 76.9716 87.884C77.0596 87.82 77.1436 87.792 77.2236 87.8C77.3036 87.808 77.3716 87.84 77.4276 87.896C77.4836 87.944 77.5196 88.008 77.5356 88.088C77.5596 88.168 77.5596 88.248 77.5356 88.328C77.5116 88.4 77.4596 88.464 77.3796 88.52C77.1236 88.728 76.8436 88.88 76.5396 88.976C76.2356 89.064 75.9396 89.108 75.6516 89.108ZM79.2143 89.084C79.0543 89.084 78.9343 89.04 78.8543 88.952C78.7743 88.864 78.7343 88.74 78.7343 88.58V80.948C78.7343 80.788 78.7743 80.668 78.8543 80.588C78.9343 80.5 79.0543 80.456 79.2143 80.456C79.3663 80.456 79.4863 80.5 79.5743 80.588C79.6623 80.668 79.7063 80.788 79.7063 80.948V85.76H79.7303L82.1903 83.408C82.3023 83.304 82.3983 83.224 82.4783 83.168C82.5663 83.112 82.6823 83.084 82.8263 83.084C82.9543 83.084 83.0543 83.12 83.1263 83.192C83.1983 83.256 83.2303 83.34 83.2223 83.444C83.2223 83.54 83.1743 83.644 83.0783 83.756L80.4623 86.24V85.712L83.3063 88.388C83.4183 88.5 83.4743 88.608 83.4743 88.712C83.4743 88.816 83.4343 88.904 83.3543 88.976C83.2823 89.048 83.1863 89.084 83.0663 89.084C82.9223 89.084 82.8063 89.056 82.7183 89C82.6303 88.936 82.5223 88.844 82.3943 88.724L79.7303 86.264H79.7063V88.58C79.7063 88.916 79.5423 89.084 79.2143 89.084ZM87.6863 89.108C87.1583 89.108 86.7023 88.972 86.3183 88.7C85.9423 88.428 85.6903 88.064 85.5623 87.608L85.6943 87.476V88.58C85.6943 88.74 85.6503 88.864 85.5623 88.952C85.4823 89.04 85.3663 89.084 85.2143 89.084C85.0543 89.084 84.9343 89.04 84.8543 88.952C84.7743 88.864 84.7343 88.74 84.7343 88.58V80.948C84.7343 80.788 84.7743 80.668 84.8543 80.588C84.9343 80.5 85.0543 80.456 85.2143 80.456C85.3663 80.456 85.4863 80.5 85.5743 80.588C85.6623 80.668 85.7063 80.788 85.7063 80.948V84.524H85.5623C85.6983 84.076 85.9543 83.72 86.3303 83.456C86.7063 83.192 87.1583 83.06 87.6863 83.06C88.2143 83.06 88.6703 83.184 89.0543 83.432C89.4383 83.672 89.7343 84.02 89.9423 84.476C90.1583 84.924 90.2663 85.46 90.2663 86.084C90.2663 86.7 90.1583 87.236 89.9423 87.692C89.7343 88.14 89.4343 88.488 89.0423 88.736C88.6583 88.984 88.2063 89.108 87.6863 89.108ZM87.4823 88.328C87.8503 88.328 88.1663 88.24 88.4303 88.064C88.7023 87.888 88.9103 87.632 89.0543 87.296C89.2063 86.96 89.2823 86.556 89.2823 86.084C89.2823 85.356 89.1183 84.8 88.7903 84.416C88.4703 84.032 88.0343 83.84 87.4823 83.84C87.1223 83.84 86.8063 83.928 86.5343 84.104C86.2623 84.272 86.0503 84.524 85.8983 84.86C85.7543 85.188 85.6823 85.596 85.6823 86.084C85.6823 86.804 85.8463 87.36 86.1743 87.752C86.5023 88.136 86.9383 88.328 87.4823 88.328ZM93.5664 89.108C93.1664 89.108 92.8064 89.032 92.4864 88.88C92.1744 88.72 91.9264 88.504 91.7424 88.232C91.5584 87.96 91.4664 87.656 91.4664 87.32C91.4664 86.888 91.5744 86.548 91.7904 86.3C92.0144 86.052 92.3784 85.876 92.8824 85.772C93.3944 85.668 94.0904 85.616 94.9704 85.616H95.5104V86.252H94.9824C94.3344 86.252 93.8224 86.284 93.4464 86.348C93.0784 86.404 92.8184 86.504 92.6664 86.648C92.5224 86.792 92.4504 86.996 92.4504 87.26C92.4504 87.588 92.5624 87.856 92.7864 88.064C93.0184 88.272 93.3304 88.376 93.7224 88.376C94.0424 88.376 94.3224 88.3 94.5624 88.148C94.8104 87.996 95.0024 87.788 95.1384 87.524C95.2824 87.26 95.3544 86.956 95.3544 86.612V85.244C95.3544 84.748 95.2544 84.392 95.0544 84.176C94.8544 83.952 94.5264 83.84 94.0704 83.84C93.7904 83.84 93.5104 83.876 93.2304 83.948C92.9504 84.02 92.6544 84.136 92.3424 84.296C92.2304 84.352 92.1344 84.372 92.0544 84.356C91.9744 84.332 91.9104 84.288 91.8624 84.224C91.8144 84.16 91.7864 84.088 91.7784 84.008C91.7704 83.92 91.7864 83.836 91.8264 83.756C91.8744 83.676 91.9464 83.612 92.0424 83.564C92.3944 83.388 92.7424 83.26 93.0864 83.18C93.4304 83.1 93.7584 83.06 94.0704 83.06C94.5744 83.06 94.9904 83.144 95.3184 83.312C95.6464 83.472 95.8904 83.72 96.0504 84.056C96.2104 84.384 96.2904 84.808 96.2904 85.328V88.58C96.2904 88.74 96.2504 88.864 96.1704 88.952C96.0984 89.04 95.9904 89.084 95.8464 89.084C95.6944 89.084 95.5784 89.04 95.4984 88.952C95.4184 88.864 95.3784 88.74 95.3784 88.58V87.644H95.4864C95.4224 87.948 95.2984 88.208 95.1144 88.424C94.9384 88.64 94.7184 88.808 94.4544 88.928C94.1904 89.048 93.8944 89.108 93.5664 89.108ZM98.5856 89.084C98.4256 89.084 98.3016 89.04 98.2136 88.952C98.1336 88.864 98.0936 88.74 98.0936 88.58V83.576C98.0936 83.416 98.1336 83.296 98.2136 83.216C98.2936 83.128 98.4096 83.084 98.5616 83.084C98.7136 83.084 98.8296 83.128 98.9096 83.216C98.9976 83.296 99.0416 83.416 99.0416 83.576V84.548H98.9216C99.0496 84.076 99.2936 83.712 99.6536 83.456C100.014 83.2 100.458 83.064 100.986 83.048C101.106 83.04 101.202 83.068 101.274 83.132C101.346 83.188 101.386 83.288 101.394 83.432C101.402 83.568 101.37 83.676 101.298 83.756C101.226 83.836 101.114 83.884 100.962 83.9L100.77 83.924C100.226 83.972 99.8056 84.148 99.5096 84.452C99.2216 84.748 99.0776 85.156 99.0776 85.676V88.58C99.0776 88.74 99.0336 88.864 98.9456 88.952C98.8656 89.04 98.7456 89.084 98.5856 89.084Z" fill="#030712"/>
<path d="M63.9544 51.1576L64.1294 64.906L73.2666 64.8469L73.0916 50.6566L63.9544 51.1576Z" fill="white"/>
<path d="M63.8362 52.2556L66.0544 50.9738L71.1819 51.0984L63.8078 56.1516L63.8362 52.2556Z" fill="#D80D1A"/>
<path d="M63.9544 58.7065L73.2075 52.3912L73.1484 56.6219L63.9237 63.0553L63.9544 58.7065Z" fill="#1D86FA"/>
<path d="M65.4222 64.8468L73.1791 59.354L73.0609 63.4074L70.1516 65.4943L65.4222 64.8468Z" fill="#D80D1A"/>
<path d="M63.3659 51.0984L63.5431 65.1115L64.3941 64.7878L64.2191 50.7747L63.3659 51.0984ZM72.7087 50.8622L72.7962 64.8468L73.6428 64.7506L73.5312 50.8337L72.7087 50.8622Z" fill="#A1D2D6"/>
<path d="M63.2609 51.2385C63.4009 51.3938 73.3169 51.2735 73.4897 51.186C73.6625 51.0985 74.5419 50.37 74.4741 49.2063C74.4063 48.0578 73.6122 47.6947 73.6122 47.6947C73.6122 47.6947 73.4591 46.5441 72.1356 45.6625C71.1972 45.0369 69.9809 44.8553 68.4541 44.8685C66.7697 44.8838 65.1881 44.9866 64.1819 45.9928C63.215 46.9597 63.1756 47.9025 63.1756 47.9025C63.1756 47.9025 62.3203 48.165 62.3203 49.4513C62.3181 50.72 63.2609 51.2385 63.2609 51.2385ZM63.4163 64.6631C63.2719 64.7835 63.2434 65.5316 63.2434 65.5316C63.2434 65.5316 62.4319 65.9691 62.5478 66.9206C62.6528 67.7716 63.3638 68.1019 63.3638 68.1019C63.3638 68.1019 63.6963 69.5413 64.8053 70.3244C65.9866 71.1578 67.1503 71.1928 68.8172 71.1928C70.6241 71.1928 71.8556 71.0528 72.8291 70.1341C73.9447 69.0775 74.0278 67.9816 74.0278 67.9816C74.0278 67.9816 74.6709 67.5988 74.6534 66.7303C74.6359 65.8619 73.925 65.5316 73.925 65.5316C73.925 65.5316 73.7763 64.8381 73.6472 64.6631C73.5816 64.5735 70.9872 64.5975 68.4366 64.6106C65.9756 64.6216 63.5278 64.5691 63.4163 64.6631Z" fill="#C8C8C8"/>
<path d="M67.9684 70.3418C67.9509 70.6896 69.7906 70.6809 71.1469 70.3768C72.6934 70.029 73.1966 68.71 73.1091 68.605C73.0216 68.5 71.4597 68.535 71.3722 68.6225C71.2847 68.71 70.8866 69.5259 70.2084 69.8037C69.5303 70.0815 67.9816 70.0771 67.9684 70.3418ZM62.6025 67.1503L74.6228 67.0956C74.6228 67.0956 74.5834 67.3493 74.4194 67.5965C74.2597 67.835 74.03 67.9793 74.03 67.9793L63.3725 68.104C63.3725 68.104 63.0531 67.9312 62.9153 67.7606C62.6113 67.3843 62.6025 67.1503 62.6025 67.1503Z" fill="#858585"/>
<path d="M62.55 66.5532L74.6119 66.3979C74.6119 66.3979 74.5725 66.0807 74.3581 65.8422C74.1788 65.641 73.925 65.5294 73.925 65.5294L63.0881 65.6344C63.0881 65.6344 62.8694 65.7963 62.7403 65.9822C62.585 66.2075 62.55 66.5532 62.55 66.5532ZM62.3619 49.0007C62.3619 49.0007 64.7725 48.5282 68.2988 48.4757C71.825 48.4232 74.3647 48.631 74.3647 48.631C74.3647 48.631 74.24 48.2154 74.0475 48.0075C73.855 47.7997 73.6144 47.6947 73.6144 47.6947C73.6144 47.6947 70.3091 47.5744 68.3097 47.5569C65.8947 47.5372 63.1756 47.9025 63.1756 47.9025C63.1756 47.9025 62.8847 47.9857 62.6878 48.2416C62.4078 48.6025 62.3619 49.0007 62.3619 49.0007Z" fill="#E1E0E0"/>
<path d="M62.3225 49.6788C62.3225 49.6788 64.1994 49.3113 68.3841 49.2588C72.5688 49.2063 74.4719 49.5103 74.4719 49.5103C74.4719 49.5103 74.4894 49.7641 74.4063 50.0069C74.3144 50.2782 74.17 50.4575 74.17 50.4575C74.17 50.4575 70.5716 50.2169 68.3841 50.2344C66.1966 50.2519 62.6266 50.5975 62.6266 50.5975C62.6266 50.5975 62.4756 50.3372 62.4231 50.1819C62.3728 50.02 62.3225 49.6788 62.3225 49.6788Z" fill="#858585"/>
<path d="M67.7475 48.2547C67.7475 48.4406 66.5159 48.55 65.2078 48.6287C64.475 48.6725 63.1822 49.0334 63.1822 48.55C63.1822 48.0665 63.6503 47.9747 65.2384 47.9419C66.8266 47.909 67.7475 48.0053 67.7475 48.2547ZM67.8416 45.3737C67.8831 45.4919 67.2181 45.7172 66.7041 46.2619C66.3409 46.6469 66.2206 47.01 65.9713 47.104C65.7219 47.1981 64.3831 47.3228 64.3656 47.0428C64.3438 46.6534 64.6238 46.0365 65.2844 45.6712C66.33 45.0915 67.7628 45.155 67.8416 45.3737Z" fill="white"/>
</svg>
