<svg width="400" height="200" viewBox="0 0 400 200" fill="none" xmlns="http://www.w3.org/2000/svg">
<g clip-path="url(#clip0_49_1132)">
<rect width="400" height="200" fill="#374151" fill-opacity="0.2"/>
<path d="M338 80.5H364.651C368.74 80.5 372.17 77.4171 372.606 73.3518L372.735 72.1482C373.17 68.0829 376.601 65 380.689 65H400" stroke="url(#paint0_linear_49_1132)" stroke-width="4" stroke-linecap="round"/>
<path d="M338 96.5H400" stroke="url(#paint1_linear_49_1132)" stroke-width="4" stroke-linecap="round"/>
<path d="M338 112.5H364.651C368.74 112.5 372.17 115.583 372.606 119.648L372.735 120.852C373.17 124.917 376.601 128 380.689 128H400" stroke="url(#paint2_linear_49_1132)" stroke-width="4" stroke-linecap="round"/>
<path d="M310 67V39C310 34.5817 306.418 31 302 31H254" stroke="url(#paint3_linear_49_1132)" stroke-width="4" stroke-linecap="round"/>
<path d="M278.5 104.5H183C178.582 104.5 175 108.082 175 112.5V142" stroke="url(#paint4_linear_49_1132)" stroke-width="4" stroke-linecap="round"/>
<path d="M86 46H146.5C150.918 46 154.5 49.5817 154.5 54V67.5C154.5 71.9183 158.082 75.5 162.5 75.5H278" stroke="url(#paint5_linear_49_1132)" stroke-width="4" stroke-linecap="round"/>
<path d="M92 155.653H114.5C118.918 155.653 122.5 159.234 122.5 163.653V169C122.5 173.418 126.082 177 130.5 177H254.5C258.918 177 262.5 173.418 262.5 169V127C262.5 122.582 266.082 119 270.5 119H278" stroke="url(#paint6_linear_49_1132)" stroke-width="4" stroke-linecap="round"/>
<path d="M278 89.5H133.25C129.246 89.5 126 92.7459 126 96.75V96.75C126 100.754 122.754 104 118.75 104H80" stroke="url(#paint7_linear_49_1132)" stroke-width="4" stroke-linecap="round"/>
<path d="M88.5302 173.813H39.9988V173.28H88.5302V173.813Z" fill="white"/>
<g clip-path="url(#clip1_49_1132)">
<mask id="mask0_49_1132" style="mask-type:luminance" maskUnits="userSpaceOnUse" x="278" y="67" width="60" height="60">
<path d="M338 67H278V127H338V67Z" fill="white"/>
</mask>
<g mask="url(#mask0_49_1132)">
<path d="M337.839 127.042C317.894 127.042 297.97 127.042 278.046 127.042C278.045 127.036 278.042 127.031 278.042 127.026C278.042 107.033 278.042 87.0397 278.042 67.0442C298.04 67.0442 318.038 67.0442 338.039 67.0442C338.039 87.0394 338.039 107.037 338.039 127.042C337.981 127.042 337.921 127.042 337.839 127.042ZM327.523 106.252C327.427 106.143 327.336 106.028 327.235 105.925C326.108 104.779 324.689 104.541 323.179 104.677C321.869 104.795 320.747 105.372 319.777 106.252C319.725 106.299 319.667 106.342 319.592 106.403C319.592 106.28 319.597 106.191 319.591 106.102C319.563 105.667 319.358 105.337 318.971 105.139C318.592 104.944 318.204 104.963 317.846 105.192C317.448 105.446 317.312 105.837 317.313 106.296C317.315 109.737 317.314 113.178 317.314 116.62C317.314 116.834 317.31 117.049 317.315 117.264C317.328 117.816 317.621 118.254 318.066 118.394C318.846 118.639 319.591 118.098 319.592 117.275C319.595 114.914 319.594 112.553 319.592 110.192C319.591 109.527 319.76 108.917 320.184 108.398C321.172 107.189 322.452 106.678 324 106.854C324.754 106.94 325.363 107.29 325.781 107.936C326.173 108.543 326.307 109.227 326.313 109.932C326.327 111.877 326.322 113.823 326.324 115.769C326.324 116.302 326.316 116.835 326.326 117.368C326.342 118.202 327.238 118.718 327.972 118.321C328.439 118.07 328.605 117.658 328.604 117.149C328.601 114.94 328.608 112.732 328.599 110.523C328.597 109.998 328.58 109.471 328.519 108.95C328.406 107.985 328.138 107.068 327.523 106.252ZM313.16 105.019C313.023 105.028 312.88 105.017 312.75 105.052C312.206 105.196 311.907 105.628 311.906 106.256C311.905 108.506 311.909 110.757 311.902 113.007C311.901 113.379 311.881 113.757 311.816 114.122C311.642 115.086 311.125 115.808 310.198 116.174C309.294 116.531 308.364 116.543 307.428 116.289C306.718 116.096 306.174 115.689 305.819 115.042C305.564 114.578 305.44 114.073 305.431 113.55C305.412 112.491 305.419 111.431 305.417 110.372C305.416 109 305.419 107.629 305.416 106.258C305.414 105.583 304.966 105.053 304.379 105.019C303.653 104.976 303.14 105.471 303.139 106.229C303.137 108.542 303.134 110.854 303.141 113.167C303.143 113.994 303.232 114.809 303.547 115.588C304.144 117.064 305.259 117.956 306.754 118.389C307.695 118.662 308.664 118.679 309.635 118.565C310.386 118.476 311.103 118.272 311.756 117.892C313.3 116.995 314.085 115.6 314.135 113.859C314.208 111.306 314.178 108.75 314.181 106.195C314.181 105.554 313.804 105.129 313.16 105.019Z" fill="#ECDC5A"/>
<path d="M327.531 106.264C328.138 107.068 328.406 107.985 328.519 108.95C328.58 109.471 328.597 109.998 328.599 110.523C328.608 112.732 328.601 114.94 328.604 117.149C328.605 117.658 328.439 118.07 327.972 118.322C327.238 118.718 326.342 118.202 326.326 117.368C326.316 116.835 326.324 116.302 326.324 115.768C326.322 113.823 326.327 111.877 326.313 109.932C326.307 109.227 326.173 108.542 325.781 107.936C325.363 107.29 324.754 106.94 324 106.854C322.452 106.678 321.172 107.189 320.184 108.398C319.76 108.917 319.591 109.527 319.592 110.192C319.594 112.553 319.595 114.914 319.592 117.275C319.591 118.098 318.846 118.639 318.066 118.394C317.621 118.254 317.328 117.816 317.315 117.264C317.31 117.049 317.314 116.834 317.314 116.62C317.314 113.178 317.315 109.737 317.313 106.296C317.312 105.837 317.448 105.446 317.846 105.191C318.204 104.963 318.592 104.944 318.971 105.139C319.358 105.337 319.563 105.667 319.591 106.102C319.597 106.191 319.592 106.28 319.592 106.403C319.668 106.342 319.725 106.299 319.777 106.252C320.747 105.372 321.869 104.795 323.179 104.677C324.689 104.541 326.108 104.779 327.235 105.925C327.336 106.028 327.427 106.143 327.531 106.264Z" fill="#111827"/>
<path d="M313.178 105.02C313.804 105.129 314.181 105.554 314.181 106.195C314.178 108.75 314.208 111.306 314.135 113.859C314.085 115.6 313.3 116.995 311.756 117.892C311.103 118.272 310.386 118.476 309.635 118.565C308.664 118.679 307.695 118.662 306.754 118.389C305.259 117.956 304.144 117.064 303.547 115.588C303.232 114.809 303.143 113.994 303.141 113.167C303.134 110.854 303.137 108.542 303.139 106.229C303.14 105.471 303.653 104.976 304.379 105.019C304.966 105.053 305.414 105.583 305.416 106.258C305.419 107.629 305.416 109.001 305.417 110.372C305.419 111.431 305.412 112.491 305.431 113.55C305.44 114.073 305.564 114.578 305.819 115.042C306.174 115.689 306.718 116.096 307.428 116.289C308.364 116.543 309.294 116.531 310.198 116.174C311.125 115.808 311.642 115.086 311.816 114.122C311.881 113.757 311.901 113.379 311.902 113.007C311.909 110.757 311.905 108.506 311.906 106.256C311.907 105.628 312.206 105.196 312.75 105.052C312.88 105.017 313.023 105.029 313.178 105.02Z" fill="#111827"/>
</g>
</g>
<path d="M59.6605 66H81.9651C82.6735 66.0001 83.3695 65.8153 83.983 65.4642C84.5965 65.1131 85.1059 64.6081 85.46 63.9999C85.8141 63.3917 86.0003 62.7019 86 61.9998C85.9997 61.2977 85.8129 60.608 85.4582 60.0001L70.4791 34.2859C70.1251 33.6779 69.6158 33.173 69.0024 32.8219C68.389 32.4709 67.6932 32.2861 66.9849 32.2861C66.2766 32.2861 65.5807 32.4709 64.9674 32.8219C64.354 33.173 63.8447 33.6779 63.4907 34.2859L59.6605 40.8653L52.1721 27.9995C51.8177 27.3916 51.3082 26.8867 50.6947 26.5357C50.0811 26.1848 49.3851 26 48.6767 26C47.9683 26 47.2724 26.1848 46.6589 26.5357C46.0453 26.8867 45.5357 27.3916 45.1814 27.9995L26.5418 60.0001C26.1872 60.608 26.0003 61.2977 26 61.9998C25.9997 62.7019 26.1859 63.3917 26.54 63.9999C26.8941 64.6081 27.4035 65.1131 28.017 65.4642C28.6305 65.8153 29.3265 66.0001 30.0349 66H44.0359C49.5832 66 53.6741 63.585 56.4891 58.8734L63.3233 47.143L66.9838 40.8653L77.9698 59.7223H63.3233L59.6605 66ZM43.8076 59.7158L34.0367 59.7136L48.6833 34.5724L55.9913 47.143L51.0983 55.545C49.2289 58.602 47.1051 59.7158 43.8076 59.7158Z" fill="#00DC82"/>
<g clip-path="url(#clip2_49_1132)">
<mask id="mask1_49_1132" style="mask-type:luminance" maskUnits="userSpaceOnUse" x="45" y="135" width="47" height="41">
<path d="M45.673 135.999H91.4079V175.895H45.673V135.999Z" fill="white"/>
</mask>
<g mask="url(#mask1_49_1132)">
<path d="M68.5405 136L91.4079 175.896H45.673L68.5405 136Z" fill="#C30F2E"/>
</g>
<mask id="mask2_49_1132" style="mask-type:luminance" maskUnits="userSpaceOnUse" x="34" y="141" width="40" height="35">
<path d="M34.9956 141.943H73.9186V176H34.9954L34.9956 141.943Z" fill="white"/>
</mask>
<g mask="url(#mask2_49_1132)">
<path d="M54.4569 141.943L73.9178 176H34.9958L54.4566 141.943" fill="#DD0330"/>
</g>
<mask id="mask3_49_1132" style="mask-type:luminance" maskUnits="userSpaceOnUse" x="41" y="155" width="44" height="19">
<path d="M41.0435 155.443H84.6454V173.688H41.0435V155.443Z" fill="white"/>
</mask>
<g mask="url(#mask3_49_1132)">
<path d="M80.033 173.608C79.8432 173.608 79.6648 173.53 79.5156 173.38C78.6242 172.485 78.5854 168.844 78.6284 163.391C78.6527 160.412 78.685 156.331 78.2098 156.009C77.7459 156.201 77.6996 159.572 77.6695 161.804C77.6338 164.401 77.5975 167.088 77.1756 168.457C77.05 168.862 76.8878 169.233 76.5616 169.204C76.1019 169.163 75.9533 168.437 75.6103 165.573C75.4676 164.383 75.32 163.153 75.1473 162.677C75.1244 162.617 75.1051 162.569 75.0881 162.532C74.9039 162.948 74.6915 164.092 74.5439 164.886C74.3394 165.982 74.1465 167.018 73.9048 167.469C73.7182 167.817 73.4221 168.269 73.0085 168.182C72.4448 168.063 72.2762 166.927 72.2257 166.26C72.2257 160.651 71.4918 159.998 71.345 159.924L71.3215 159.942L71.2858 159.934C70.7619 160.163 70.7335 161.982 70.7067 163.741C70.6857 165.032 70.6631 166.494 70.4748 167.862C70.2306 169.636 69.9354 169.978 69.5681 169.957C68.7222 169.899 68.6977 166.986 68.6977 166.654C68.6977 166.551 68.7002 166.428 68.7035 166.293C68.7197 165.615 68.7488 164.353 68.3319 163.956C68.2768 163.903 68.199 163.842 68.1382 163.86C67.8412 163.934 67.5331 164.898 67.431 165.215C67.3986 165.316 67.3726 165.399 67.3506 165.456C67.3336 165.503 67.3118 165.569 67.2858 165.65C67.0612 166.332 66.8056 167.012 66.3694 167.18C66.2078 167.242 66.0392 167.229 65.881 167.139C65.6709 167.02 65.4998 166.777 65.3399 166.372C65.2525 166.148 65.178 165.921 65.1016 165.693C65.0092 165.415 64.9143 165.127 64.7966 164.854C64.7042 164.641 64.4739 164.546 64.1803 164.598C63.5703 164.706 63.4682 165.323 63.3822 166.25C63.3669 166.412 63.3521 166.57 63.332 166.719C63.3295 166.763 63.2215 168.125 63.1526 168.558C62.962 169.745 62.7114 170.213 62.2953 170.179C61.2686 170.092 60.7975 165.588 60.8226 163.685C60.8419 162.233 60.5792 161.702 60.4219 161.618C60.4057 161.61 60.3803 161.597 60.3205 161.639C60.1347 161.765 59.9692 162.156 60.0203 162.568C60.5857 167.045 60.1688 172.174 59.1476 173.329C58.8258 173.692 58.3877 173.687 58.0827 173.38C57.1905 172.485 57.1534 168.844 57.1955 163.391C57.2198 160.412 57.2516 156.331 56.7769 156.009C56.3131 156.201 56.2676 159.572 56.2369 161.804C56.2012 164.401 56.1646 167.088 55.7421 168.457C55.6163 168.862 55.4541 169.233 55.129 169.204C54.6683 169.163 54.5206 168.437 54.1768 165.573C54.034 164.383 53.8863 163.153 53.7138 162.677C53.6918 162.617 53.6723 162.569 53.6544 162.532C53.4711 162.948 53.2587 164.092 53.1111 164.886C52.9067 165.982 52.7137 167.018 52.4711 167.469C52.2847 167.817 51.9886 168.269 51.5759 168.182C51.0121 168.063 50.8433 166.927 50.7931 166.26C50.7923 160.651 50.0591 159.998 49.9123 159.924L49.8889 159.942L49.8523 159.934C49.3291 160.163 49.3007 161.982 49.273 163.741C49.2529 165.032 49.2303 166.494 49.042 167.862C48.798 169.636 48.505 169.981 48.1361 169.957C47.2885 169.899 47.264 166.986 47.264 166.654C47.264 166.551 47.2676 166.428 47.2707 166.293C47.2869 165.615 47.3161 164.353 46.8992 163.956C46.844 163.903 46.7663 163.842 46.7053 163.859C46.4084 163.934 46.0994 164.898 45.999 165.216C45.9666 165.315 45.9389 165.399 45.9186 165.456C45.8952 165.52 45.8733 165.584 45.853 165.649C45.6283 166.331 45.3727 167.012 44.9374 167.18C44.7752 167.242 44.6056 167.229 44.4482 167.139C44.2383 167.02 44.0661 166.777 43.9073 166.372C43.8197 166.148 43.7443 165.921 43.6687 165.693C43.5763 165.415 43.4806 165.127 43.3631 164.854C43.2713 164.641 43.0403 164.546 42.7467 164.598C42.0443 164.723 41.8779 165.594 41.7442 166.633L41.7208 166.818L41.1895 166.748L41.2146 166.566C41.3306 165.654 41.5073 164.276 42.6534 164.074C43.1926 163.978 43.664 164.202 43.8537 164.643C43.981 164.938 44.0809 165.237 44.1766 165.526C44.248 165.744 44.3209 165.963 44.4052 166.178C44.5537 166.555 44.6689 166.652 44.7119 166.676C44.9803 166.592 45.2544 165.757 45.3451 165.482C45.3736 165.394 45.3981 165.321 45.4174 165.269C45.4361 165.218 45.4604 165.143 45.4896 165.053C45.7313 164.298 46.0347 163.479 46.5733 163.343C46.7379 163.301 46.9927 163.306 47.269 163.571C47.8562 164.131 47.8255 165.439 47.8051 166.306C47.802 166.435 47.7989 166.554 47.7989 166.655C47.7989 168.037 48.0038 169.002 48.1604 169.334C48.2413 169.165 48.3802 168.754 48.5125 167.79C48.6956 166.453 48.7193 165.008 48.7388 163.733C48.7743 161.477 48.7994 159.841 49.6163 159.456C49.7379 159.382 49.9399 159.341 50.1532 159.449C50.9432 159.846 51.3267 162.068 51.3267 166.24C51.3763 166.885 51.5499 167.564 51.6925 167.661C51.6934 167.646 51.8094 167.575 51.9998 167.218C52.2035 166.839 52.4064 165.749 52.5847 164.788C52.9796 162.67 53.159 161.926 53.6262 161.887C53.9821 161.852 54.1467 162.305 54.2158 162.495C54.4104 163.029 54.5547 164.233 54.7073 165.509C54.8265 166.499 54.9959 167.912 55.1687 168.483C55.1873 168.433 55.2085 168.373 55.2311 168.299C55.631 167.004 55.6676 164.358 55.7025 161.797C55.751 158.24 55.8135 156.037 56.4624 155.577C56.6067 155.475 56.7828 155.45 56.9545 155.507C57.7144 155.76 57.7729 157.988 57.73 163.396C57.6992 167.319 57.661 172.2 58.4623 173.005C58.532 173.075 58.5816 173.075 58.5993 173.075C58.6367 173.075 58.6902 173.04 58.7471 172.976C59.5581 172.058 60.0714 167.242 59.49 162.635C59.4178 162.061 59.6391 161.459 60.0172 161.199C60.2256 161.056 60.4657 161.037 60.6733 161.148C61.1461 161.399 61.3757 162.255 61.357 163.693C61.3238 166.202 61.9263 169.139 62.3198 169.607C62.3821 169.504 62.5054 169.219 62.6237 168.474C62.6902 168.062 62.7998 166.677 62.8015 166.663C62.821 166.507 62.8355 166.355 62.8492 166.201C62.9304 165.337 63.0301 164.261 64.0861 164.074C64.6247 163.978 65.096 164.201 65.2866 164.643C65.4139 164.938 65.5129 165.237 65.6084 165.526C65.6815 165.744 65.7546 165.963 65.8389 166.178C65.9863 166.555 66.1026 166.652 66.1445 166.676C66.413 166.592 66.6881 165.757 66.778 165.483C66.807 165.395 66.8315 165.321 66.8502 165.269C66.8697 165.219 66.8932 165.143 66.9217 165.053C67.1642 164.298 67.4675 163.479 68.0067 163.343C68.1697 163.301 68.4253 163.306 68.7019 163.571C69.289 164.131 69.2583 165.439 69.2388 166.306C69.2346 166.422 69.2322 166.538 69.2315 166.655C69.2315 168.037 69.4367 169.002 69.5932 169.334C69.6736 169.165 69.8123 168.754 69.946 167.79C70.1293 166.453 70.1511 165.008 70.1723 163.733C70.2072 161.477 70.2323 159.841 71.0491 159.456C71.1706 159.382 71.3726 159.341 71.5869 159.449C72.3758 159.846 72.7604 162.068 72.7604 166.24C72.8098 166.885 72.9834 167.564 73.1254 167.661C73.127 167.646 73.2412 167.575 73.4335 167.218C73.637 166.839 73.839 165.749 74.0182 164.788C74.4116 162.67 74.5917 161.926 75.0588 161.887C75.4157 161.852 75.5804 162.305 75.6493 162.495C75.843 163.029 75.9875 164.233 76.1414 165.509C76.2591 166.499 76.4287 167.912 76.6023 168.483C76.6202 168.433 76.6411 168.373 76.664 168.299C77.0637 167.004 77.0994 164.358 77.1351 161.797C77.1829 158.24 77.2462 156.037 77.895 155.577C77.9655 155.527 78.047 155.494 78.1326 155.482C78.2183 155.47 78.3057 155.479 78.3873 155.507C79.1481 155.76 79.2066 157.988 79.1628 163.396C79.1319 167.319 79.0939 172.2 79.8943 173.005C79.9657 173.075 80.0143 173.075 80.033 173.075C80.0695 173.075 80.1231 173.04 80.1789 172.976C80.9916 172.058 81.5042 167.242 80.9227 162.635C80.8473 162.035 81.0175 161.43 81.3282 161.197C81.4847 161.078 81.6753 161.054 81.8505 161.128C82.3032 161.321 82.6096 162.148 82.7882 163.658C82.8627 164.291 82.9294 164.975 82.9933 165.65C83.1345 167.122 83.3257 169.107 83.5847 169.543C83.664 169.442 83.8263 169.168 84.0672 168.433L84.5757 168.599C84.2019 169.736 83.909 170.164 83.5278 170.12C82.935 170.054 82.7637 168.856 82.4612 165.701C82.3972 165.029 82.3314 164.349 82.2569 163.72C82.0297 161.794 81.6437 161.619 81.6396 161.618C81.5642 161.656 81.389 162.057 81.454 162.568C82.0177 167.045 81.6024 172.175 80.5805 173.329C80.4158 173.514 80.2308 173.608 80.033 173.608" fill="white"/>
</g>
</g>
<path d="M244 29C244.796 29 245.559 28.6839 246.121 28.1213C246.684 27.5587 247 26.7956 247 26C247 25.2044 246.684 24.4413 246.121 23.8787C245.559 23.3161 244.796 23 244 23C243.204 23 242.441 23.3161 241.879 23.8787C241.316 24.4413 241 25.2044 241 26C241 26.7956 241.316 27.5587 241.879 28.1213C242.441 28.6839 243.204 29 244 29ZM237.465 35.493C237.372 35.7411 237.362 36.0126 237.436 36.267C237.51 36.5214 237.664 36.7452 237.875 36.905C239.626 38.266 241.782 39.0034 244 39C246.31 39 248.438 38.216 250.131 36.9C250.561 36.567 250.735 35.997 250.539 35.49C250.031 34.168 249.135 33.0311 247.967 32.2292C246.8 31.4274 245.417 30.9983 244.001 30.9986C242.585 30.9989 241.202 31.4287 240.035 32.231C238.868 33.0334 237.972 34.1708 237.465 35.493Z" fill="#6B7280"/>
<path d="M175 152.8C175.955 152.8 176.87 152.421 177.546 151.746C178.221 151.071 178.6 150.155 178.6 149.2C178.6 148.245 178.221 147.33 177.546 146.655C176.87 145.979 175.955 145.6 175 145.6C174.045 145.6 173.129 145.979 172.454 146.655C171.779 147.33 171.4 148.245 171.4 149.2C171.4 150.155 171.779 151.071 172.454 151.746C173.129 152.421 174.045 152.8 175 152.8ZM170.2 151.6C170.2 152.237 169.947 152.847 169.497 153.297C169.047 153.747 168.436 154 167.8 154C167.163 154 166.553 153.747 166.103 153.297C165.653 152.847 165.4 152.237 165.4 151.6C165.4 150.964 165.653 150.353 166.103 149.903C166.553 149.453 167.163 149.2 167.8 149.2C168.436 149.2 169.047 149.453 169.497 149.903C169.947 150.353 170.2 150.964 170.2 151.6ZM164.788 160.391C164.583 160.275 164.43 160.085 164.358 159.861C164.147 159.176 164.145 158.444 164.352 157.758C164.559 157.072 164.967 156.463 165.522 156.01C166.077 155.557 166.755 155.28 167.469 155.214C168.182 155.148 168.899 155.297 169.528 155.642C168.236 156.911 167.428 158.591 167.242 160.392C167.214 160.659 167.225 160.923 167.272 161.177C166.396 161.102 165.548 160.833 164.788 160.391ZM182.728 161.176C183.604 161.101 184.452 160.833 185.212 160.391C185.416 160.275 185.569 160.085 185.64 159.861C185.852 159.176 185.855 158.444 185.647 157.757C185.44 157.071 185.033 156.462 184.478 156.009C183.922 155.555 183.244 155.278 182.53 155.213C181.817 155.147 181.099 155.296 180.471 155.64C181.764 156.91 182.573 158.59 182.759 160.392C182.786 160.654 182.775 160.918 182.728 161.177V161.176ZM184.6 151.6C184.6 152.237 184.347 152.847 183.897 153.297C183.447 153.747 182.836 154 182.2 154C181.563 154 180.953 153.747 180.503 153.297C180.053 152.847 179.8 152.237 179.8 151.6C179.8 150.964 180.053 150.353 180.503 149.903C180.953 149.453 181.563 149.2 182.2 149.2C182.836 149.2 183.447 149.453 183.897 149.903C184.347 150.353 184.6 150.964 184.6 151.6ZM169.365 161.428C169.246 161.322 169.155 161.19 169.097 161.042C169.039 160.894 169.017 160.734 169.032 160.576C169.185 159.099 169.88 157.732 170.982 156.738C172.084 155.743 173.516 155.193 175.001 155.193C176.485 155.193 177.917 155.743 179.019 156.738C180.121 157.732 180.816 159.099 180.969 160.576C180.984 160.734 180.962 160.894 180.904 161.042C180.847 161.19 180.755 161.322 180.636 161.428C179.093 162.828 177.084 163.603 175 163.6C172.917 163.603 170.907 162.828 169.365 161.428Z" fill="#6B7280"/>
<path d="M70 102C70.7956 102 71.5587 101.684 72.1213 101.121C72.6839 100.559 73 99.7956 73 99C73 98.2044 72.6839 97.4413 72.1213 96.8787C71.5587 96.3161 70.7956 96 70 96C69.2043 96 68.4412 96.3161 67.8786 96.8787C67.316 97.4413 67 98.2044 67 99C67 99.7956 67.316 100.559 67.8786 101.121C68.4412 101.684 69.2043 102 70 102ZM63.465 108.493C63.3721 108.741 63.3619 109.013 63.4358 109.267C63.5096 109.521 63.6637 109.745 63.875 109.905C65.6263 111.266 67.7819 112.003 70 112C72.31 112 74.438 111.216 76.131 109.9C76.561 109.567 76.735 108.997 76.539 108.49C76.0312 107.168 75.1345 106.031 73.9673 105.229C72.8 104.427 71.4171 103.998 70.0009 103.999C68.5848 103.999 67.202 104.429 66.0351 105.231C64.8683 106.033 63.9721 107.171 63.465 108.493Z" fill="#6B7280"/>
</g>
<defs>
<linearGradient id="paint0_linear_49_1132" x1="338" y1="65" x2="398.306" y2="54.8936" gradientUnits="userSpaceOnUse">
<stop offset="0.644608" stop-color="#9CA3AF" stop-opacity="0.4"/>
<stop offset="1" stop-color="#9CA3AF" stop-opacity="0"/>
</linearGradient>
<linearGradient id="paint1_linear_49_1132" x1="339.5" y1="97" x2="363.797" y2="125.828" gradientUnits="userSpaceOnUse">
<stop offset="0.713542" stop-color="#9CA3AF" stop-opacity="0.4"/>
<stop offset="1" stop-color="#9CA3AF" stop-opacity="0"/>
</linearGradient>
<linearGradient id="paint2_linear_49_1132" x1="338" y1="128" x2="398.306" y2="138.106" gradientUnits="userSpaceOnUse">
<stop offset="0.692708" stop-color="#9CA3AF" stop-opacity="0.4"/>
<stop offset="1" stop-color="#9CA3AF" stop-opacity="0"/>
</linearGradient>
<linearGradient id="paint3_linear_49_1132" x1="255" y1="31.5001" x2="295.212" y2="6.86343" gradientUnits="userSpaceOnUse">
<stop stop-color="#9CA3AF" stop-opacity="0"/>
<stop offset="0.662535" stop-color="#9CA3AF" stop-opacity="0.4"/>
</linearGradient>
<linearGradient id="paint4_linear_49_1132" x1="175" y1="142" x2="248.019" y2="83.4351" gradientUnits="userSpaceOnUse">
<stop stop-color="#D1D5DB" stop-opacity="0"/>
<stop offset="0.308283" stop-color="#9CA3AF" stop-opacity="0.4"/>
</linearGradient>
<linearGradient id="paint5_linear_49_1132" x1="86" y1="46" x2="278" y2="46" gradientUnits="userSpaceOnUse">
<stop stop-color="#9CA3AF" stop-opacity="0"/>
<stop offset="0.328125" stop-color="#9CA3AF" stop-opacity="0.4"/>
</linearGradient>
<linearGradient id="paint6_linear_49_1132" x1="92" y1="156.055" x2="251.069" y2="90.4027" gradientUnits="userSpaceOnUse">
<stop stop-color="#9CA3AF" stop-opacity="0"/>
<stop offset="0.296789" stop-color="#9CA3AF" stop-opacity="0.4"/>
</linearGradient>
<linearGradient id="paint7_linear_49_1132" x1="80" y1="104" x2="273.297" y2="137.203" gradientUnits="userSpaceOnUse">
<stop stop-color="#9CA3AF" stop-opacity="0"/>
<stop offset="0.390625" stop-color="#9CA3AF" stop-opacity="0.4"/>
</linearGradient>
<clipPath id="clip0_49_1132">
<rect width="400" height="200" fill="white"/>
</clipPath>
<clipPath id="clip1_49_1132">
<rect x="278" y="67" width="60" height="60" rx="2" fill="white"/>
</clipPath>
<clipPath id="clip2_49_1132">
<rect width="56.4123" height="40" fill="white" transform="translate(35 136)"/>
</clipPath>
</defs>
</svg>
