<svg width="400" height="200" viewBox="0 0 400 200" fill="none" xmlns="http://www.w3.org/2000/svg">
<rect width="400" height="200" fill="#374151" fill-opacity="0.2"/>
<g opacity="0.8">
<path d="M100 28.0068L300 28.0082" stroke="url(#paint0_linear_56_2143)" stroke-width="0.5" stroke-linecap="round"/>
<path d="M100 44.0083L300 44.0097" stroke="url(#paint1_linear_56_2143)" stroke-width="0.5" stroke-linecap="round"/>
<path d="M100 60.0095L300 60.0109" stroke="url(#paint2_linear_56_2143)" stroke-width="0.5" stroke-linecap="round"/>
<path d="M100 76.011L300 76.0124" stroke="url(#paint3_linear_56_2143)" stroke-width="0.5" stroke-linecap="round"/>
<path d="M100 92.0122L300 92.0136" stroke="url(#paint4_linear_56_2143)" stroke-width="0.5" stroke-linecap="round"/>
<path d="M100 108.014L300 108.015" stroke="url(#paint5_linear_56_2143)" stroke-width="0.5" stroke-linecap="round"/>
<path d="M100 124.015L300 124.017" stroke="url(#paint6_linear_56_2143)" stroke-width="0.5" stroke-linecap="round"/>
<path d="M100 140.016L300 140.018" stroke="url(#paint7_linear_56_2143)" stroke-width="0.5" stroke-linecap="round"/>
<path d="M100 156.018L300 156.019" stroke="url(#paint8_linear_56_2143)" stroke-width="0.5" stroke-linecap="round"/>
<path d="M100 172.019L300 172.021" stroke="url(#paint9_linear_56_2143)" stroke-width="0.5" stroke-linecap="round"/>
</g>
<g opacity="0.8">
<path d="M128 190L128.001 10" stroke="url(#paint10_linear_56_2143)" stroke-width="0.5" stroke-linecap="round"/>
<path d="M144.001 190L144.002 10" stroke="url(#paint11_linear_56_2143)" stroke-width="0.5" stroke-linecap="round"/>
<path d="M160.002 190L160.004 10" stroke="url(#paint12_linear_56_2143)" stroke-width="0.5" stroke-linecap="round"/>
<path d="M176.004 190L176.005 10" stroke="url(#paint13_linear_56_2143)" stroke-width="0.5" stroke-linecap="round"/>
<path d="M192.005 190L192.006 10" stroke="url(#paint14_linear_56_2143)" stroke-width="0.5" stroke-linecap="round"/>
<path d="M208.006 190L208.007 10" stroke="url(#paint15_linear_56_2143)" stroke-width="0.5" stroke-linecap="round"/>
<path d="M224.007 190L224.009 10" stroke="url(#paint16_linear_56_2143)" stroke-width="0.5" stroke-linecap="round"/>
<path d="M240.009 190L240.01 10" stroke="url(#paint17_linear_56_2143)" stroke-width="0.5" stroke-linecap="round"/>
<path d="M256.01 190L256.011 10" stroke="url(#paint18_linear_56_2143)" stroke-width="0.5" stroke-linecap="round"/>
<path d="M272.011 190L272.012 10" stroke="url(#paint19_linear_56_2143)" stroke-width="0.5" stroke-linecap="round"/>
</g>
<g opacity="0.4">
<path fill-rule="evenodd" clip-rule="evenodd" d="M147.465 78C146.773 79.1956 145.481 80 144 80C141.791 80 140 78.2091 140 76C140 73.7909 141.791 72 144 72C145.481 72 146.773 72.8044 147.465 74H148H170H172V78H170H148H147.465ZM145.6 76C145.6 76.8837 144.884 77.6 144 77.6C143.116 77.6 142.4 76.8837 142.4 76C142.4 75.1163 143.116 74.4 144 74.4C144.884 74.4 145.6 75.1163 145.6 76Z" fill="#9CA3AF"/>
<path fill-rule="evenodd" clip-rule="evenodd" d="M159.465 98C158.773 99.1956 157.481 100 156 100C153.791 100 152 98.2091 152 96C152 93.7909 153.791 92 156 92C157.481 92 158.773 92.8044 159.465 94H160H170H172V98H170H160H159.465ZM157.6 96C157.6 96.8837 156.884 97.6 156 97.6C155.116 97.6 154.4 96.8837 154.4 96C154.4 95.1163 155.116 94.4 156 94.4C156.884 94.4 157.6 95.1163 157.6 96Z" fill="#9CA3AF"/>
<path fill-rule="evenodd" clip-rule="evenodd" d="M250 114C250 116.209 248.209 118 246 118C244.519 118 243.227 117.196 242.535 116H242H230H228V112H230H242H242.535C243.227 110.804 244.519 110 246 110C248.209 110 250 111.791 250 114ZM247.6 114C247.6 114.884 246.884 115.6 246 115.6C245.116 115.6 244.4 114.884 244.4 114C244.4 113.116 245.116 112.4 246 112.4C246.884 112.4 247.6 113.116 247.6 114Z" fill="#9CA3AF"/>
<path fill-rule="evenodd" clip-rule="evenodd" d="M178 130V128H174V130V136.372C174 137.88 173.432 139.333 172.409 140.442L169.887 143.174C168.674 144.488 168 146.211 168 148V148.535C166.804 149.227 166 150.519 166 152C166 154.209 167.791 156 170 156C172.209 156 174 154.209 174 152C174 150.519 173.196 149.227 172 148.535V148C172 147.217 172.295 146.462 172.826 145.887L175.348 143.155C177.053 141.308 178 138.886 178 136.372V130ZM171.6 152C171.6 152.884 170.884 153.6 170 153.6C169.116 153.6 168.4 152.884 168.4 152C168.4 151.116 169.116 150.4 170 150.4C170.884 150.4 171.6 151.116 171.6 152Z" fill="#9CA3AF"/>
<path fill-rule="evenodd" clip-rule="evenodd" d="M198 130V128H194V130V136V136.535C192.804 137.227 192 138.519 192 140C192 142.209 193.791 144 196 144C198.209 144 200 142.209 200 140C200 138.519 199.196 137.227 198 136.535V136V130ZM197.6 140C197.6 140.884 196.884 141.6 196 141.6C195.116 141.6 194.4 140.884 194.4 140C194.4 139.116 195.116 138.4 196 138.4C196.884 138.4 197.6 139.116 197.6 140Z" fill="#9CA3AF"/>
<path fill-rule="evenodd" clip-rule="evenodd" d="M188 130L188 128L184 128L184 130L184 132.89C184 134.611 183.261 136.25 181.97 137.389L181.82 137.522C177.862 141.013 177.365 147.006 180.693 151.102C181.539 152.142 182 153.442 182 154.783V156V156.535C180.804 157.227 180 158.519 180 160C180 162.209 181.791 164 184 164C186.209 164 188 162.209 188 160C188 158.519 187.196 157.227 186 156.535V156V154.783C186 152.523 185.222 150.333 183.798 148.579C181.823 146.149 182.118 142.593 184.466 140.521L184.616 140.388C186.768 138.49 188 135.759 188 132.89L188 130ZM185.6 160C185.6 160.884 184.884 161.6 184 161.6C183.116 161.6 182.4 160.884 182.4 160C182.4 159.116 183.116 158.4 184 158.4C184.884 158.4 185.6 159.116 185.6 160Z" fill="#9CA3AF"/>
<path fill-rule="evenodd" clip-rule="evenodd" d="M210 130V128H206L206 130V137.172C206 138.452 205.491 139.68 204.586 140.586C202.93 142.241 202 144.487 202 146.828L202 150.764C202 151.887 202.262 152.995 202.764 154L203.317 155.106C204.204 156.879 206.017 158 208 158H208.535C209.227 159.196 210.519 160 212 160C214.209 160 216 158.209 216 156C216 153.791 214.209 152 212 152C210.519 152 209.227 152.804 208.535 154H208C207.532 154 207.104 153.735 206.894 153.317L206.342 152.211C206.117 151.762 206 151.266 206 150.764L206 146.828C206 145.548 206.509 144.32 207.414 143.414C209.07 141.759 210 139.513 210 137.172V130ZM213.6 156C213.6 156.884 212.884 157.6 212 157.6C211.116 157.6 210.4 156.884 210.4 156C210.4 155.116 211.116 154.4 212 154.4C212.884 154.4 213.6 155.116 213.6 156Z" fill="#9CA3AF"/>
<path fill-rule="evenodd" clip-rule="evenodd" d="M220 130V128H216V130V133.784C216 135.597 216.493 137.375 217.425 138.929L221.145 145.129C221.704 146.061 222 147.128 222 148.216V164V164.535C220.804 165.227 220 166.519 220 168C220 170.209 221.791 172 224 172C226.209 172 228 170.209 228 168C228 166.519 227.196 165.227 226 164.535V164V148.216C226 146.403 225.507 144.625 224.575 143.071L220.855 136.871C220.296 135.939 220 134.872 220 133.784V130ZM225.6 168C225.6 168.884 224.884 169.6 224 169.6C223.116 169.6 222.4 168.884 222.4 168C222.4 167.116 223.116 166.4 224 166.4C224.884 166.4 225.6 167.116 225.6 168Z" fill="#9CA3AF"/>
<path fill-rule="evenodd" clip-rule="evenodd" d="M228 130V128H224V130V132.872C224 135.386 224.947 137.808 226.652 139.655L228.409 141.558C229.432 142.667 230 144.12 230 145.628L230 154.5L230 155.535C228.804 156.227 228 157.519 228 159C228 161.209 229.791 163 232 163C234.209 163 236 161.209 236 159C236 157.519 235.196 156.227 234 155.535L234 154.5L234 145.628C234 143.114 233.053 140.692 231.348 138.845L229.591 136.942C228.568 135.833 228 134.38 228 132.872V130ZM233.6 159C233.6 159.884 232.884 160.6 232 160.6C231.116 160.6 230.4 159.884 230.4 159C230.4 158.116 231.116 157.4 232 157.4C232.884 157.4 233.6 158.116 233.6 159Z" fill="#9CA3AF"/>
<path fill-rule="evenodd" clip-rule="evenodd" d="M234 41.4649C235.196 40.7732 236 39.4806 236 38C236 35.7909 234.209 34 232 34C229.791 34 228 35.7909 228 38C228 39.4806 228.804 40.7733 230 41.4649V41.9999C230 42.9092 229.731 43.7981 229.227 44.5546L223.68 52.8751C222.584 54.5178 222 56.4479 222 58.4222L222 70L222 72H226L226 70L226 58.4222C226 57.2376 226.351 56.0795 227.008 55.0939L232.555 46.7734C233.497 45.3598 234 43.6989 234 41.9999V41.4649ZM233.6 38C233.6 38.8837 232.884 39.6 232 39.6C231.116 39.6 230.4 38.8837 230.4 38C230.4 37.1163 231.116 36.4 232 36.4C232.884 36.4 233.6 37.1163 233.6 38Z" fill="#9CA3AF"/>
<path fill-rule="evenodd" clip-rule="evenodd" d="M201 39.4649C202.196 38.7733 203 37.4806 203 36C203 33.7909 201.209 32 199 32C196.791 32 195 33.7909 195 36C195 37.4806 195.804 38.7733 197 39.4649V40V42.7297C197 44.3017 196.383 45.8109 195.282 46.9328L193.864 48.3777C192.028 50.2474 191 52.7628 191 55.3828V70V72H195V70V55.3828C195 53.8108 195.617 52.3016 196.718 51.1797L198.136 49.7348C199.972 47.8651 201 45.3497 201 42.7297V40V39.4649ZM200.6 36C200.6 36.8837 199.884 37.6 199 37.6C198.116 37.6 197.4 36.8837 197.4 36C197.4 35.1163 198.116 34.4 199 34.4C199.884 34.4 200.6 35.1163 200.6 36Z" fill="#9CA3AF"/>
<path fill-rule="evenodd" clip-rule="evenodd" d="M182 39.4648C183.196 38.7732 184 37.4805 184 36C184 33.7909 182.209 32 180 32C177.791 32 176 33.7909 176 36C176 37.4806 176.804 38.7733 178 39.4649L178 40L178 42L178 42L178 50.1115C178 51.664 178.361 53.1951 179.056 54.5837L181.367 59.2053C181.783 60.0384 182 60.9571 182 61.8886L182 70V72H186V70V61.8886C186 60.3361 185.639 58.805 184.944 57.4164L182.633 52.7948C182.217 51.9617 182 51.043 182 50.1115L182 42.0001V42L182 40.0001L182 39.4648ZM181.6 36C181.6 36.8837 180.884 37.6 180 37.6C179.116 37.6 178.4 36.8837 178.4 36C178.4 35.1163 179.116 34.4 180 34.4C180.884 34.4 181.6 35.1163 181.6 36Z" fill="#9CA3AF"/>
<path fill-rule="evenodd" clip-rule="evenodd" d="M216 44C216 46.2091 214.209 48 212 48C211.363 48 210.761 47.8511 210.226 47.5862L210.109 47.6641L209.48 48.0837C208.33 48.8503 207.48 49.9904 207.074 51.3114L206.265 53.9384C206.089 54.5101 206 55.1048 206 55.703L206 70L206 72L202 72L202 70L202 55.703C202 54.7061 202.149 53.7148 202.442 52.762L203.251 50.135C203.928 47.9334 205.345 46.0332 207.261 44.7554L207.891 44.3359L208.008 44.2575C208.003 44.1724 208 44.0865 208 44C208 41.7909 209.791 40 212 40C214.209 40 216 41.7909 216 44ZM213.6 44C213.6 44.8837 212.884 45.6 212 45.6C211.116 45.6 210.4 44.8837 210.4 44C210.4 43.1163 211.116 42.4 212 42.4C212.884 42.4 213.6 43.1163 213.6 44Z" fill="#9CA3AF"/>
<path fill-rule="evenodd" clip-rule="evenodd" d="M216 61.4649C217.196 60.7733 218 59.4806 218 58C218 55.7909 216.209 54 214 54C211.791 54 210 55.7909 210 58C210 59.4806 210.804 60.7732 212 61.4649L212 62L212 70L212 72L216 72L216 70L216 62L216 61.4649ZM215.6 58C215.6 58.8837 214.884 59.6 214 59.6C213.116 59.6 212.4 58.8837 212.4 58C212.4 57.1163 213.116 56.4 214 56.4C214.884 56.4 215.6 57.1163 215.6 58Z" fill="#9CA3AF"/>
<path fill-rule="evenodd" clip-rule="evenodd" d="M166 47.4649C167.196 46.7732 168 45.4806 168 44C168 41.7909 166.209 40 164 40C161.791 40 160 41.7909 160 44C160 45.4806 160.804 46.7733 162 47.4649L162 48L162 51.7186C162 55.0621 163.671 58.1844 166.453 60.039L171.328 63.2892C172.997 64.402 174 66.2754 174 68.2815V70V72H178V70V68.2815C178 64.9379 176.329 61.8156 173.547 59.961L168.672 56.7108C167.003 55.598 166 53.7247 166 51.7186L166 48L166 47.4649ZM165.6 44C165.6 44.8837 164.884 45.6 164 45.6C163.116 45.6 162.4 44.8837 162.4 44C162.4 43.1163 163.116 42.4 164 42.4C164.884 42.4 165.6 43.1163 165.6 44Z" fill="#9CA3AF"/>
<path fill-rule="evenodd" clip-rule="evenodd" d="M286 119C286 121.209 284.209 123 282 123C280.519 123 279.227 122.196 278.535 121H278H264C263.015 121 262.045 121.242 261.176 121.706L257.206 123.824C255.758 124.596 254.141 125 252.5 125H230H228V121H230H252.5C253.485 121 254.455 120.758 255.324 120.294L259.294 118.176C260.742 117.404 262.359 117 264 117H278H278.535C279.227 115.804 280.519 115 282 115C284.209 115 286 116.791 286 119ZM283.6 119C283.6 119.884 282.884 120.6 282 120.6C281.116 120.6 280.4 119.884 280.4 119C280.4 118.116 281.116 117.4 282 117.4C282.884 117.4 283.6 118.116 283.6 119Z" fill="#9CA3AF"/>
<path fill-rule="evenodd" clip-rule="evenodd" d="M230 102H228V106H230H249.172C250.452 106 251.68 106.509 252.586 107.414C254.241 109.07 256.487 110 258.828 110H268H268.535C269.227 111.196 270.519 112 272 112C274.209 112 276 110.209 276 108C276 105.791 274.209 104 272 104C270.519 104 269.227 104.804 268.535 106H268H258.828C257.548 106 256.32 105.491 255.414 104.586C253.759 102.93 251.513 102 249.172 102H230ZM273.6 108C273.6 108.884 272.884 109.6 272 109.6C271.116 109.6 270.4 108.884 270.4 108C270.4 107.116 271.116 106.4 272 106.4C272.884 106.4 273.6 107.116 273.6 108Z" fill="#9CA3AF"/>
<path fill-rule="evenodd" clip-rule="evenodd" d="M266 93C266 95.2091 264.209 97 262 97C260.519 97 259.227 96.1956 258.535 95H258H246.798C246.153 95 245.513 95.104 244.901 95.3079L241.364 96.4868C240.344 96.8267 239.277 97 238.202 97H230H228V93H230H238.202C238.847 93 239.487 92.896 240.099 92.6921L243.636 91.5132C244.656 91.1733 245.723 91 246.798 91H258H258.535C259.227 89.8044 260.519 89 262 89C264.209 89 266 90.7909 266 93ZM263.6 93C263.6 93.8837 262.884 94.6 262 94.6C261.116 94.6 260.4 93.8837 260.4 93C260.4 92.1163 261.116 91.4 262 91.4C262.884 91.4 263.6 92.1163 263.6 93Z" fill="#9CA3AF"/>
<path fill-rule="evenodd" clip-rule="evenodd" d="M251.114 82.912C252.068 82.316 253.17 82 254.294 82H261.736C262.846 82 263.935 82.3081 264.88 82.89L268.174 84.9172C269.325 85.6252 270.649 86 272 86H272.535C273.227 87.1956 274.519 88 276 88C278.209 88 280 86.2091 280 84C280 81.7909 278.209 80 276 80C274.519 80 273.227 80.8044 272.535 82H272C271.389 82 270.791 81.8306 270.271 81.5105L266.977 79.4834C265.401 78.5135 263.586 78 261.736 78H254.294C252.42 78 250.584 78.5267 248.994 79.5201L244.886 82.0881C243.932 82.6841 242.83 83.0001 241.706 83.0001H230H228V87.0001H230H241.706C243.58 87.0001 245.416 86.4734 247.006 85.48L251.114 82.912ZM277.6 84C277.6 84.8837 276.884 85.6 276 85.6C275.116 85.6 274.4 84.8837 274.4 84C274.4 83.1163 275.116 82.4 276 82.4C276.884 82.4 277.6 83.1163 277.6 84Z" fill="#9CA3AF"/>
<path fill-rule="evenodd" clip-rule="evenodd" d="M267 72C267 74.2091 265.209 76 263 76C261.519 76 260.227 75.1956 259.535 74H259H250.667C249.368 74 248.105 74.4211 247.067 75.2L243.333 78C241.602 79.2982 239.497 80 237.333 80H230H228V76H230H237.333C238.632 76 239.895 75.5789 240.933 74.8L244.667 72C246.398 70.7018 248.503 70 250.667 70H259H259.535C260.227 68.8044 261.519 68 263 68C265.209 68 267 69.7909 267 72ZM264.6 72C264.6 72.8837 263.884 73.6 263 73.6C262.116 73.6 261.4 72.8837 261.4 72C261.4 71.1163 262.116 70.4 263 70.4C263.884 70.4 264.6 71.1163 264.6 72Z" fill="#9CA3AF"/>
<path fill-rule="evenodd" clip-rule="evenodd" d="M159.465 108C158.773 109.196 157.481 110 156 110C153.791 110 152 108.209 152 106C152 103.791 153.791 102 156 102C157.481 102 158.773 102.804 159.465 104H160H170H172V108H170H160H159.465ZM157.6 106C157.6 106.884 156.884 107.6 156 107.6C155.116 107.6 154.4 106.884 154.4 106C154.4 105.116 155.116 104.4 156 104.4C156.884 104.4 157.6 105.116 157.6 106Z" fill="#9CA3AF"/>
<path fill-rule="evenodd" clip-rule="evenodd" d="M136.472 114C132.974 114 129.776 115.977 128.211 119.106L127.76 120.007C125.663 120.131 124 121.871 124 124C124 126.209 125.791 128 128 128C130.209 128 132 126.209 132 124C132 123.185 131.756 122.428 131.338 121.796L131.789 120.894C132.676 119.121 134.489 118 136.472 118H137.578C138.762 118 139.92 118.351 140.906 119.008L148.875 124.321C150.518 125.416 152.448 126 154.422 126H170H172V122H170H154.422C153.238 122 152.08 121.649 151.094 120.992L143.125 115.679C141.482 114.584 139.552 114 137.578 114H136.472ZM129.6 124C129.6 124.884 128.884 125.6 128 125.6C127.116 125.6 126.4 124.884 126.4 124C126.4 123.116 127.116 122.4 128 122.4C128.884 122.4 129.6 123.116 129.6 124Z" fill="#9CA3AF"/>
<path fill-rule="evenodd" clip-rule="evenodd" d="M137.465 106C136.773 107.196 135.481 108 134 108C131.791 108 130 106.209 130 104C130 101.791 131.791 100 134 100C135.481 100 136.773 100.804 137.465 102H138H138.248C142.544 102 146.36 104.744 147.727 108.816L148.095 109.91C148.916 112.354 151.205 114 153.783 114H170H172V118H170H153.783C149.487 118 145.671 115.256 144.303 111.184L143.936 110.09C143.115 107.646 140.825 106 138.248 106H138H137.465ZM135.6 104C135.6 104.884 134.884 105.6 134 105.6C133.116 105.6 132.4 104.884 132.4 104C132.4 103.116 133.116 102.4 134 102.4C134.884 102.4 135.6 103.116 135.6 104Z" fill="#9CA3AF"/>
<path fill-rule="evenodd" clip-rule="evenodd" d="M154.806 84C152.536 84 150.332 84.7728 148.559 86.1913L142.942 90.6852C141.878 91.5363 140.556 92 139.194 92H132H131.465C130.773 90.8044 129.481 90 128 90C125.791 90 124 91.7909 124 94C124 96.2091 125.791 98 128 98C129.481 98 130.773 97.1956 131.465 96H132H139.194C141.464 96 143.668 95.2272 145.441 93.8087L151.058 89.3148C152.122 88.4637 153.444 88 154.806 88H170H172V84H170H154.806ZM129.6 94C129.6 94.8837 128.884 95.6 128 95.6C127.116 95.6 126.4 94.8837 126.4 94C126.4 93.1163 127.116 92.4 128 92.4C128.884 92.4 129.6 93.1163 129.6 94Z" fill="#9CA3AF"/>
</g>
<g clip-path="url(#clip0_56_2143)">
<mask id="mask0_56_2143" style="mask-type:luminance" maskUnits="userSpaceOnUse" x="170" y="70" width="60" height="60">
<path d="M230 70H170V130H230V70Z" fill="white"/>
</mask>
<g mask="url(#mask0_56_2143)">
<path d="M229.839 130.042C209.894 130.042 189.97 130.042 170.046 130.042C170.045 130.036 170.042 130.031 170.042 130.026C170.042 110.033 170.042 90.0397 170.042 70.0442C190.04 70.0442 210.038 70.0442 230.039 70.0442C230.039 90.0394 230.039 110.037 230.039 130.042C229.981 130.042 229.921 130.042 229.839 130.042ZM219.523 109.252C219.427 109.143 219.336 109.028 219.235 108.925C218.108 107.779 216.689 107.541 215.179 107.677C213.869 107.795 212.747 108.372 211.777 109.252C211.725 109.299 211.667 109.342 211.592 109.403C211.592 109.28 211.597 109.191 211.591 109.102C211.563 108.667 211.358 108.337 210.971 108.139C210.592 107.944 210.204 107.963 209.846 108.192C209.448 108.446 209.312 108.837 209.313 109.296C209.315 112.737 209.314 116.178 209.314 119.62C209.314 119.834 209.31 120.049 209.315 120.264C209.328 120.816 209.621 121.254 210.066 121.394C210.846 121.639 211.591 121.098 211.592 120.275C211.595 117.914 211.594 115.553 211.592 113.192C211.591 112.527 211.76 111.917 212.184 111.398C213.172 110.189 214.452 109.678 216 109.854C216.754 109.94 217.363 110.29 217.781 110.936C218.173 111.543 218.307 112.227 218.313 112.932C218.327 114.877 218.322 116.823 218.324 118.769C218.324 119.302 218.316 119.835 218.326 120.368C218.342 121.202 219.238 121.718 219.972 121.321C220.439 121.07 220.605 120.658 220.604 120.149C220.601 117.94 220.608 115.732 220.599 113.523C220.597 112.998 220.58 112.471 220.519 111.95C220.406 110.985 220.138 110.068 219.523 109.252ZM205.16 108.019C205.023 108.028 204.88 108.017 204.75 108.052C204.206 108.196 203.907 108.628 203.906 109.256C203.905 111.506 203.909 113.757 203.902 116.007C203.901 116.379 203.881 116.757 203.816 117.122C203.642 118.086 203.125 118.808 202.198 119.174C201.294 119.531 200.364 119.543 199.428 119.289C198.718 119.096 198.174 118.689 197.819 118.042C197.564 117.578 197.44 117.073 197.431 116.55C197.412 115.491 197.419 114.431 197.417 113.372C197.416 112 197.419 110.629 197.416 109.258C197.414 108.583 196.966 108.053 196.379 108.019C195.653 107.976 195.14 108.471 195.139 109.229C195.137 111.542 195.134 113.854 195.141 116.167C195.143 116.994 195.232 117.809 195.547 118.588C196.144 120.064 197.259 120.956 198.754 121.389C199.695 121.662 200.664 121.679 201.635 121.565C202.386 121.476 203.103 121.272 203.756 120.892C205.3 119.995 206.085 118.6 206.135 116.859C206.208 114.306 206.178 111.75 206.181 109.195C206.181 108.554 205.804 108.129 205.16 108.019Z" fill="#ECDC5A"/>
<path d="M219.531 109.264C220.138 110.068 220.406 110.985 220.519 111.95C220.58 112.471 220.597 112.998 220.599 113.523C220.608 115.732 220.601 117.94 220.604 120.149C220.605 120.658 220.439 121.07 219.972 121.322C219.238 121.718 218.342 121.202 218.326 120.368C218.316 119.835 218.324 119.302 218.324 118.768C218.322 116.823 218.327 114.877 218.313 112.932C218.307 112.227 218.173 111.542 217.781 110.936C217.363 110.29 216.754 109.94 216 109.854C214.452 109.678 213.172 110.189 212.184 111.398C211.76 111.917 211.591 112.527 211.592 113.192C211.594 115.553 211.595 117.914 211.592 120.275C211.591 121.098 210.846 121.639 210.066 121.394C209.621 121.254 209.328 120.816 209.315 120.264C209.31 120.049 209.314 119.834 209.314 119.62C209.314 116.178 209.315 112.737 209.313 109.296C209.312 108.837 209.448 108.446 209.846 108.191C210.204 107.963 210.592 107.944 210.971 108.139C211.358 108.337 211.563 108.667 211.591 109.102C211.597 109.191 211.592 109.28 211.592 109.403C211.668 109.342 211.725 109.299 211.777 109.252C212.747 108.372 213.869 107.795 215.179 107.677C216.689 107.541 218.108 107.779 219.235 108.925C219.336 109.028 219.427 109.143 219.531 109.264Z" fill="#111827"/>
<path d="M205.178 108.02C205.804 108.129 206.181 108.554 206.181 109.195C206.178 111.75 206.208 114.306 206.135 116.859C206.085 118.6 205.3 119.995 203.756 120.892C203.103 121.272 202.386 121.476 201.635 121.565C200.664 121.679 199.695 121.662 198.754 121.389C197.259 120.956 196.144 120.064 195.547 118.588C195.232 117.809 195.143 116.994 195.141 116.167C195.134 113.854 195.137 111.542 195.139 109.229C195.14 108.471 195.653 107.976 196.379 108.019C196.966 108.053 197.414 108.583 197.416 109.258C197.419 110.629 197.416 112.001 197.417 113.372C197.419 114.431 197.412 115.491 197.431 116.55C197.44 117.073 197.564 117.578 197.819 118.042C198.174 118.689 198.718 119.096 199.428 119.289C200.364 119.543 201.294 119.531 202.198 119.174C203.125 118.808 203.642 118.086 203.816 117.122C203.881 116.757 203.901 116.379 203.902 116.007C203.909 113.757 203.905 111.506 203.906 109.256C203.907 108.628 204.206 108.196 204.75 108.052C204.88 108.017 205.023 108.029 205.178 108.02Z" fill="#111827"/>
</g>
</g>
<defs>
<linearGradient id="paint0_linear_56_2143" x1="100" y1="28.5075" x2="300" y2="28.5082" gradientUnits="userSpaceOnUse">
<stop stop-color="#9CA3AF" stop-opacity="0"/>
<stop offset="0.0574454" stop-color="#9CA3AF" stop-opacity="0.1"/>
<stop offset="0.931234" stop-color="#9CA3AF" stop-opacity="0.1"/>
<stop offset="1" stop-color="#9CA3AF" stop-opacity="0"/>
</linearGradient>
<linearGradient id="paint1_linear_56_2143" x1="100" y1="44.509" x2="300" y2="44.5097" gradientUnits="userSpaceOnUse">
<stop stop-color="#9CA3AF" stop-opacity="0"/>
<stop offset="0.0574454" stop-color="#9CA3AF" stop-opacity="0.1"/>
<stop offset="0.931234" stop-color="#9CA3AF" stop-opacity="0.1"/>
<stop offset="1" stop-color="#9CA3AF" stop-opacity="0"/>
</linearGradient>
<linearGradient id="paint2_linear_56_2143" x1="100" y1="60.5102" x2="300" y2="60.5109" gradientUnits="userSpaceOnUse">
<stop stop-color="#9CA3AF" stop-opacity="0"/>
<stop offset="0.0574454" stop-color="#9CA3AF" stop-opacity="0.1"/>
<stop offset="0.931234" stop-color="#9CA3AF" stop-opacity="0.1"/>
<stop offset="1" stop-color="#9CA3AF" stop-opacity="0"/>
</linearGradient>
<linearGradient id="paint3_linear_56_2143" x1="100" y1="76.5117" x2="300" y2="76.5124" gradientUnits="userSpaceOnUse">
<stop stop-color="#9CA3AF" stop-opacity="0"/>
<stop offset="0.0574454" stop-color="#9CA3AF" stop-opacity="0.1"/>
<stop offset="0.931234" stop-color="#9CA3AF" stop-opacity="0.1"/>
<stop offset="1" stop-color="#9CA3AF" stop-opacity="0"/>
</linearGradient>
<linearGradient id="paint4_linear_56_2143" x1="100" y1="92.5129" x2="300" y2="92.5136" gradientUnits="userSpaceOnUse">
<stop stop-color="#9CA3AF" stop-opacity="0"/>
<stop offset="0.0574454" stop-color="#9CA3AF" stop-opacity="0.1"/>
<stop offset="0.931234" stop-color="#9CA3AF" stop-opacity="0.1"/>
<stop offset="1" stop-color="#9CA3AF" stop-opacity="0"/>
</linearGradient>
<linearGradient id="paint5_linear_56_2143" x1="100" y1="108.514" x2="300" y2="108.515" gradientUnits="userSpaceOnUse">
<stop stop-color="#9CA3AF" stop-opacity="0"/>
<stop offset="0.0574454" stop-color="#9CA3AF" stop-opacity="0.1"/>
<stop offset="0.931234" stop-color="#9CA3AF" stop-opacity="0.1"/>
<stop offset="1" stop-color="#9CA3AF" stop-opacity="0"/>
</linearGradient>
<linearGradient id="paint6_linear_56_2143" x1="100" y1="124.516" x2="300" y2="124.517" gradientUnits="userSpaceOnUse">
<stop stop-color="#9CA3AF" stop-opacity="0"/>
<stop offset="0.0574454" stop-color="#9CA3AF" stop-opacity="0.1"/>
<stop offset="0.931234" stop-color="#9CA3AF" stop-opacity="0.1"/>
<stop offset="1" stop-color="#9CA3AF" stop-opacity="0"/>
</linearGradient>
<linearGradient id="paint7_linear_56_2143" x1="100" y1="140.517" x2="300" y2="140.518" gradientUnits="userSpaceOnUse">
<stop stop-color="#9CA3AF" stop-opacity="0"/>
<stop offset="0.0574454" stop-color="#9CA3AF" stop-opacity="0.1"/>
<stop offset="0.931234" stop-color="#9CA3AF" stop-opacity="0.1"/>
<stop offset="1" stop-color="#9CA3AF" stop-opacity="0"/>
</linearGradient>
<linearGradient id="paint8_linear_56_2143" x1="100" y1="156.519" x2="300" y2="156.519" gradientUnits="userSpaceOnUse">
<stop stop-color="#9CA3AF" stop-opacity="0"/>
<stop offset="0.0574454" stop-color="#9CA3AF" stop-opacity="0.1"/>
<stop offset="0.931234" stop-color="#9CA3AF" stop-opacity="0.1"/>
<stop offset="1" stop-color="#9CA3AF" stop-opacity="0"/>
</linearGradient>
<linearGradient id="paint9_linear_56_2143" x1="100" y1="172.52" x2="300" y2="172.521" gradientUnits="userSpaceOnUse">
<stop stop-color="#9CA3AF" stop-opacity="0"/>
<stop offset="0.0574454" stop-color="#9CA3AF" stop-opacity="0.1"/>
<stop offset="0.931234" stop-color="#9CA3AF" stop-opacity="0.1"/>
<stop offset="1" stop-color="#9CA3AF" stop-opacity="0"/>
</linearGradient>
<linearGradient id="paint10_linear_56_2143" x1="128.501" y1="190" x2="128.501" y2="10" gradientUnits="userSpaceOnUse">
<stop stop-color="#9CA3AF" stop-opacity="0"/>
<stop offset="0.0574454" stop-color="#9CA3AF" stop-opacity="0.1"/>
<stop offset="0.931234" stop-color="#9CA3AF" stop-opacity="0.1"/>
<stop offset="1" stop-color="#9CA3AF" stop-opacity="0"/>
</linearGradient>
<linearGradient id="paint11_linear_56_2143" x1="144.502" y1="190" x2="144.503" y2="10" gradientUnits="userSpaceOnUse">
<stop stop-color="#9CA3AF" stop-opacity="0"/>
<stop offset="0.0574454" stop-color="#9CA3AF" stop-opacity="0.1"/>
<stop offset="0.931234" stop-color="#9CA3AF" stop-opacity="0.1"/>
<stop offset="1" stop-color="#9CA3AF" stop-opacity="0"/>
</linearGradient>
<linearGradient id="paint12_linear_56_2143" x1="160.503" y1="190" x2="160.504" y2="10" gradientUnits="userSpaceOnUse">
<stop stop-color="#9CA3AF" stop-opacity="0"/>
<stop offset="0.0574454" stop-color="#9CA3AF" stop-opacity="0.1"/>
<stop offset="0.931234" stop-color="#9CA3AF" stop-opacity="0.1"/>
<stop offset="1" stop-color="#9CA3AF" stop-opacity="0"/>
</linearGradient>
<linearGradient id="paint13_linear_56_2143" x1="176.504" y1="190" x2="176.505" y2="10" gradientUnits="userSpaceOnUse">
<stop stop-color="#9CA3AF" stop-opacity="0"/>
<stop offset="0.0574454" stop-color="#9CA3AF" stop-opacity="0.1"/>
<stop offset="0.931234" stop-color="#9CA3AF" stop-opacity="0.1"/>
<stop offset="1" stop-color="#9CA3AF" stop-opacity="0"/>
</linearGradient>
<linearGradient id="paint14_linear_56_2143" x1="192.506" y1="190" x2="192.506" y2="10" gradientUnits="userSpaceOnUse">
<stop stop-color="#9CA3AF" stop-opacity="0"/>
<stop offset="0.0574454" stop-color="#9CA3AF" stop-opacity="0.1"/>
<stop offset="0.931234" stop-color="#9CA3AF" stop-opacity="0.1"/>
<stop offset="1" stop-color="#9CA3AF" stop-opacity="0"/>
</linearGradient>
<linearGradient id="paint15_linear_56_2143" x1="208.507" y1="190" x2="208.507" y2="10" gradientUnits="userSpaceOnUse">
<stop stop-color="#9CA3AF" stop-opacity="0"/>
<stop offset="0.0574454" stop-color="#9CA3AF" stop-opacity="0.1"/>
<stop offset="0.931234" stop-color="#9CA3AF" stop-opacity="0.1"/>
<stop offset="1" stop-color="#9CA3AF" stop-opacity="0"/>
</linearGradient>
<linearGradient id="paint16_linear_56_2143" x1="224.508" y1="190" x2="224.509" y2="10" gradientUnits="userSpaceOnUse">
<stop stop-color="#9CA3AF" stop-opacity="0"/>
<stop offset="0.0574454" stop-color="#9CA3AF" stop-opacity="0.1"/>
<stop offset="0.931234" stop-color="#9CA3AF" stop-opacity="0.1"/>
<stop offset="1" stop-color="#9CA3AF" stop-opacity="0"/>
</linearGradient>
<linearGradient id="paint17_linear_56_2143" x1="240.509" y1="190" x2="240.51" y2="10" gradientUnits="userSpaceOnUse">
<stop stop-color="#9CA3AF" stop-opacity="0"/>
<stop offset="0.0574454" stop-color="#9CA3AF" stop-opacity="0.1"/>
<stop offset="0.931234" stop-color="#9CA3AF" stop-opacity="0.1"/>
<stop offset="1" stop-color="#9CA3AF" stop-opacity="0"/>
</linearGradient>
<linearGradient id="paint18_linear_56_2143" x1="256.511" y1="190" x2="256.511" y2="10" gradientUnits="userSpaceOnUse">
<stop stop-color="#9CA3AF" stop-opacity="0"/>
<stop offset="0.0574454" stop-color="#9CA3AF" stop-opacity="0.1"/>
<stop offset="0.931234" stop-color="#9CA3AF" stop-opacity="0.1"/>
<stop offset="1" stop-color="#9CA3AF" stop-opacity="0"/>
</linearGradient>
<linearGradient id="paint19_linear_56_2143" x1="272.512" y1="190" x2="272.512" y2="10" gradientUnits="userSpaceOnUse">
<stop stop-color="#9CA3AF" stop-opacity="0"/>
<stop offset="0.0574454" stop-color="#9CA3AF" stop-opacity="0.1"/>
<stop offset="0.931234" stop-color="#9CA3AF" stop-opacity="0.1"/>
<stop offset="1" stop-color="#9CA3AF" stop-opacity="0"/>
</linearGradient>
<clipPath id="clip0_56_2143">
<rect x="170" y="70" width="60" height="60" rx="2" fill="white"/>
</clipPath>
</defs>
</svg>
