<svg width="32" height="32" viewBox="0 0 32 32" fill="none" xmlns="http://www.w3.org/2000/svg">
  <path
    d="M19.2 7.14718C19.2 6.49918 19.6192 5.94718 20.0944 5.50398C20.536 5.09278 20.8 4.56958 20.8 3.99998C20.8 2.67518 19.368 1.59998 17.6 1.59998C15.832 1.59998 14.4 2.67518 14.4 3.99998C14.4 4.57918 14.6736 5.11038 15.1296 5.52478C15.5936 5.94878 16 6.48478 16 7.11518C16.0016 7.32714 15.9598 7.53719 15.877 7.73232C15.7942 7.92745 15.6722 8.10351 15.5186 8.24959C15.3651 8.39568 15.1831 8.50869 14.9841 8.58162C14.7851 8.65455 14.5732 8.68584 14.3616 8.67358C12.7485 8.57186 11.1398 8.40854 9.53918 8.18398C9.35517 8.15814 9.16768 8.17539 8.99148 8.23435C8.81528 8.29332 8.65518 8.3924 8.52379 8.52379C8.3924 8.65518 8.29332 8.81528 8.23435 8.99148C8.17539 9.16768 8.15814 9.35517 8.18398 9.53918C8.40798 11.128 8.57118 12.7376 8.67358 14.3616C8.68584 14.5732 8.65455 14.7851 8.58162 14.9841C8.50869 15.1831 8.39568 15.3651 8.24959 15.5186C8.10351 15.6722 7.92745 15.7942 7.73232 15.877C7.53719 15.9598 7.32714 16.0016 7.11518 16C6.48638 16 5.94878 15.5952 5.52478 15.1296C5.11038 14.672 4.57918 14.4 3.99998 14.4C2.67518 14.4 1.59998 15.832 1.59998 17.6C1.59998 19.368 2.67518 20.8 3.99998 20.8C4.56958 20.8 5.09278 20.536 5.50398 20.0944C5.94558 19.6192 6.49918 19.2 7.14718 19.2C7.36212 19.1983 7.57517 19.2402 7.77355 19.323C7.97192 19.4057 8.15152 19.5277 8.30155 19.6817C8.45159 19.8356 8.56897 20.0182 8.64665 20.2187C8.72433 20.4191 8.7607 20.6331 8.75358 20.848C8.67747 22.8464 8.50715 24.84 8.24318 26.8224C8.20125 27.1367 8.28542 27.4548 8.47729 27.7072C8.66916 27.9596 8.95313 28.1259 9.26718 28.1696C10.9472 28.4032 12.6448 28.5728 14.3616 28.6784C14.5733 28.6902 14.7853 28.6585 14.9843 28.5852C15.1834 28.5119 15.3653 28.3986 15.5188 28.2522C15.6723 28.1059 15.7942 27.9296 15.877 27.7343C15.9598 27.5391 16.0016 27.3289 16 27.1168C16 26.4864 15.5936 25.9488 15.128 25.5248C14.6736 25.1088 14.4 24.5792 14.4 24C14.4 22.6752 15.832 21.6 17.6 21.6C19.368 21.6 20.8 22.6752 20.8 24C20.8 24.5696 20.536 25.0928 20.0944 25.504C19.6192 25.9456 19.2 26.4992 19.2 27.1472C19.1984 27.3622 19.2402 27.5753 19.3229 27.7738C19.4057 27.9722 19.5277 28.1519 19.6816 28.3021C19.8355 28.4523 20.0181 28.5698 20.2185 28.6476C20.419 28.7255 20.6331 28.7621 20.848 28.7552C22.9679 28.6772 25.0829 28.4973 27.1856 28.216C27.4466 28.1811 27.6889 28.0613 27.8751 27.8751C28.0613 27.6889 28.1811 27.4466 28.216 27.1856C28.496 25.1024 28.6768 22.9872 28.7552 20.848C28.7621 20.6331 28.7255 20.419 28.6476 20.2185C28.5698 20.0181 28.4523 19.8355 28.3021 19.6816C28.1519 19.5277 27.9722 19.4057 27.7738 19.3229C27.5753 19.2402 27.3622 19.1984 27.1472 19.2C26.4992 19.2 25.9472 19.6192 25.504 20.0944C25.0928 20.536 24.5696 20.8 24 20.8C22.6752 20.8 21.6 19.368 21.6 17.6C21.6 15.832 22.6752 14.4 24 14.4C24.5792 14.4 25.1104 14.672 25.5248 15.128C25.9488 15.5936 26.4864 16 27.1168 16C27.3289 16.0016 27.5391 15.9598 27.7343 15.877C27.9296 15.7942 28.1059 15.6723 28.2522 15.5188C28.3986 15.3653 28.5119 15.1834 28.5852 14.9843C28.6585 14.7853 28.6902 14.5733 28.6784 14.3616C28.5749 12.6575 28.4051 10.9581 28.1696 9.26718C28.1259 8.95313 27.9596 8.66916 27.7072 8.47729C27.4548 8.28542 27.1367 8.20125 26.8224 8.24318C24.8401 8.50758 22.8464 8.67791 20.848 8.75358C20.6331 8.7607 20.4191 8.72433 20.2187 8.64665C20.0182 8.56897 19.8356 8.45159 19.6817 8.30155C19.5277 8.15152 19.4057 7.97192 19.323 7.77355C19.2402 7.57517 19.1983 7.36212 19.2 7.14718Z"
    fill="#ECDC5A" />
</svg>
