<svg width="340" height="228" viewBox="0 0 340 228" fill="none" xmlns="http://www.w3.org/2000/svg">
<g clip-path="url(#clip0_572_8629)">
<rect width="100" height="22" rx="2" fill="#374151" fill-opacity="0.2"/>
<rect x="6" y="6" width="72" height="10" rx="3" fill="#4B5563"/>
<path d="M88.512 9.08796C88.4551 9.03497 88.3799 9.00612 88.3022 9.00749C88.2245 9.00886 88.1503 9.04035 88.0954 9.09531C88.0404 9.15028 88.0089 9.22443 88.0075 9.30215C88.0062 9.37987 88.035 9.45509 88.088 9.51196L89.576 11L88.088 12.488C88.0585 12.5154 88.0349 12.5485 88.0185 12.5853C88.0021 12.6221 87.9933 12.6619 87.9926 12.7022C87.9919 12.7424 87.9993 12.7824 88.0144 12.8198C88.0294 12.8572 88.0519 12.8911 88.0804 12.9196C88.1089 12.9481 88.1428 12.9705 88.1802 12.9856C88.2175 13.0007 88.2575 13.0081 88.2978 13.0074C88.3381 13.0067 88.3778 12.9979 88.4146 12.9815C88.4514 12.9651 88.4845 12.9414 88.512 12.912L90 11.424L91.488 12.912C91.5155 12.9414 91.5486 12.9651 91.5854 12.9815C91.6222 12.9979 91.6619 13.0067 91.7022 13.0074C91.7425 13.0081 91.7825 13.0007 91.8198 12.9856C91.8572 12.9705 91.8911 12.9481 91.9196 12.9196C91.9481 12.8911 91.9706 12.8572 91.9857 12.8198C92.0007 12.7824 92.0082 12.7424 92.0074 12.7022C92.0067 12.6619 91.9979 12.6221 91.9815 12.5853C91.9651 12.5485 91.9415 12.5154 91.912 12.488L90.424 11L91.912 9.51196C91.965 9.45509 91.9938 9.37987 91.9925 9.30215C91.9911 9.22443 91.9596 9.15028 91.9047 9.09531C91.8497 9.04035 91.7755 9.00886 91.6978 9.00749C91.6201 9.00612 91.5449 9.03497 91.488 9.08796L90 10.576L88.512 9.08796Z" fill="#4B5563"/>
<g opacity="0.4">
<rect x="108" width="100" height="22" rx="2" fill="#374151" fill-opacity="0.2"/>
<rect x="114" y="6" width="72" height="10" rx="3" fill="#4B5563"/>
<path d="M196.512 9.08796C196.455 9.03497 196.38 9.00612 196.302 9.00749C196.224 9.00886 196.15 9.04035 196.095 9.09531C196.04 9.15028 196.009 9.22443 196.008 9.30215C196.006 9.37987 196.035 9.45509 196.088 9.51196L197.576 11L196.088 12.488C196.059 12.5154 196.035 12.5485 196.018 12.5853C196.002 12.6221 195.993 12.6619 195.993 12.7022C195.992 12.7424 195.999 12.7824 196.014 12.8198C196.029 12.8572 196.052 12.8911 196.08 12.9196C196.109 12.9481 196.143 12.9705 196.18 12.9856C196.218 13.0007 196.258 13.0081 196.298 13.0074C196.338 13.0067 196.378 12.9979 196.415 12.9815C196.451 12.9651 196.485 12.9414 196.512 12.912L198 11.424L199.488 12.912C199.515 12.9414 199.549 12.9651 199.585 12.9815C199.622 12.9979 199.662 13.0067 199.702 13.0074C199.742 13.0081 199.782 13.0007 199.82 12.9856C199.857 12.9705 199.891 12.9481 199.92 12.9196C199.948 12.8911 199.971 12.8572 199.986 12.8198C200.001 12.7824 200.008 12.7424 200.007 12.7022C200.007 12.6619 199.998 12.6221 199.982 12.5853C199.965 12.5485 199.941 12.5154 199.912 12.488L198.424 11L199.912 9.51196C199.965 9.45509 199.994 9.37987 199.992 9.30215C199.991 9.22443 199.96 9.15028 199.905 9.09531C199.85 9.04035 199.776 9.00886 199.698 9.00749C199.62 9.00612 199.545 9.03497 199.488 9.08796L198 10.576L196.512 9.08796Z" fill="#4B5563"/>
</g>
<rect y="30" width="340" height="198" rx="2" fill="#374151" fill-opacity="0.2"/>
<g opacity="0.4">
<rect x="24" y="42" width="164" height="12" rx="6" fill="#9CA3AF"/>
<rect x="48" y="62" width="82" height="10" rx="5" fill="#9CA3AF"/>
<rect x="138" y="62" width="82" height="10" rx="5" fill="#9CA3AF"/>
<rect x="48" y="80" width="36" height="10" rx="5" fill="#9CA3AF"/>
<rect x="92" y="80" width="36" height="10" rx="5" fill="#9CA3AF"/>
<rect x="136" y="80" width="68" height="10" rx="5" fill="#9CA3AF"/>
<rect x="212" y="80" width="68" height="10" rx="5" fill="#9CA3AF"/>
<rect x="24" y="98" width="56" height="10" rx="5" fill="#9CA3AF"/>
<rect x="88" y="98" width="88" height="10" rx="5" fill="#9CA3AF"/>
<rect x="184" y="98" width="88" height="10" rx="5" fill="#9CA3AF"/>
<rect x="48" y="116" width="120" height="10" rx="5" fill="#9CA3AF"/>
<rect x="176" y="116" width="120" height="10" rx="5" fill="#9CA3AF"/>
<rect x="48" y="134" width="100" height="10" rx="5" fill="#9CA3AF"/>
<rect x="156" y="134" width="80" height="10" rx="5" fill="#9CA3AF"/>
<rect x="244" y="134" width="72" height="10" rx="5" fill="#9CA3AF"/>
<rect x="56" y="152" width="32" height="10" rx="5" fill="#9CA3AF"/>
<rect x="96" y="152" width="80" height="10" rx="5" fill="#9CA3AF"/>
<rect x="184" y="152" width="48" height="10" rx="5" fill="#9CA3AF"/>
<rect x="72" y="170" width="56" height="10" rx="5" fill="#9CA3AF"/>
<rect x="136" y="170" width="32" height="10" rx="5" fill="#9CA3AF"/>
<rect x="176" y="170" width="56" height="10" rx="5" fill="#9CA3AF"/>
<rect x="56" y="188" width="56" height="10" rx="5" fill="#9CA3AF"/>
<rect x="120" y="188" width="32" height="10" rx="5" fill="#9CA3AF"/>
<rect x="160" y="188" width="56" height="10" rx="5" fill="#9CA3AF"/>
<rect x="24" y="206" width="56" height="10" rx="5" fill="#9CA3AF"/>
<rect x="88" y="206" width="56" height="10" rx="5" fill="#9CA3AF"/>
</g>
</g>
<defs>
<clipPath id="clip0_572_8629">
<rect width="340" height="228" rx="8" fill="white"/>
</clipPath>
</defs>
</svg>
