<svg width="400" height="200" viewBox="0 0 400 200" fill="none" xmlns="http://www.w3.org/2000/svg">
<g clip-path="url(#clip0_185_681)">
<rect width="400" height="200" fill="white"/>
<path d="M2 82L37 82" stroke="url(#paint0_linear_185_681)" stroke-width="4" stroke-linecap="square"/>
<path d="M45 82H84" stroke="#9CA3AF" stroke-opacity="0.4" stroke-width="4" stroke-linecap="square"/>
<path d="M0 94H41" stroke="url(#paint1_linear_185_681)" stroke-width="4" stroke-linecap="square"/>
<path d="M47 94L84 94" stroke="#9CA3AF" stroke-opacity="0.4" stroke-width="4" stroke-linecap="square"/>
<path d="M0 106L34 106" stroke="url(#paint2_linear_185_681)" stroke-width="4" stroke-linecap="square"/>
<path d="M42 106H84" stroke="#9CA3AF" stroke-opacity="0.4" stroke-width="4" stroke-linecap="square"/>
<path d="M2 118L35 118" stroke="url(#paint3_linear_185_681)" stroke-width="4" stroke-linecap="square"/>
<path d="M41 118H84" stroke="#9CA3AF" stroke-opacity="0.4" stroke-width="4" stroke-linecap="square"/>
<path d="M138 70V68C138 63.5817 141.582 60 146 60H398" stroke="url(#paint4_linear_185_681)" stroke-opacity="0.4" stroke-width="4" stroke-linecap="square" stroke-dasharray="40 8"/>
<path d="M144 76H398" stroke="url(#paint5_linear_185_681)" stroke-opacity="0.4" stroke-width="4" stroke-linecap="square" stroke-dasharray="24 8"/>
<path d="M144 92H398" stroke="url(#paint6_linear_185_681)" stroke-opacity="0.4" stroke-width="4" stroke-linecap="square" stroke-dasharray="56 8"/>
<path d="M144 108H398" stroke="url(#paint7_linear_185_681)" stroke-opacity="0.4" stroke-width="4" stroke-linecap="square" stroke-dasharray="112 8"/>
<path d="M138 130V132C138 136.418 141.582 140 146 140H398" stroke="url(#paint8_linear_185_681)" stroke-opacity="0.4" stroke-width="4" stroke-linecap="square" stroke-dasharray="52 8"/>
<path d="M144 124H398" stroke="url(#paint9_linear_185_681)" stroke-opacity="0.4" stroke-width="4" stroke-linecap="square" stroke-dasharray="56 10"/>
<g filter="url(#filter0_dddd_185_681)">
<path d="M237.602 43.005C238.816 42.9875 240.019 43.2281 241.122 43.6613C243.025 44.4094 247.334 44.8053 248.189 46.3563C249.202 48.1938 247.603 52.7241 247.693 53.4678C247.778 54.1875 247.798 55.1019 247.708 55.8041C247.551 57.0291 247.067 58.2191 246.232 59.291C245.387 60.3716 244.07 61.2991 242.242 61.8372C238.385 62.9681 233.255 62.2463 231.243 60.5794C230.488 59.9559 229.928 59.2975 229.528 58.5931C228.858 57.4206 228.627 56.1235 228.666 54.6513C228.729 52.2953 226.172 48.7953 227.933 46.8156C229.694 44.8359 234.102 43.7881 234.102 43.7881C234.102 43.7881 235.495 43.0378 237.602 43.005Z" fill="#B0B0B0"/>
<path d="M244.335 45.6038C244.387 45.8247 244.943 46.5466 245.634 47.8875C246.297 49.1716 246.829 50.5059 246.934 50.5278C247.183 50.5781 249.762 49.7731 249.782 49.69C249.804 49.6069 248.902 45.2909 248.902 45.2909L244.818 44.16L244.335 45.6038ZM230.164 48.0341C230.856 46.4088 231.411 45.9494 231.475 45.6781C231.538 45.4069 229.066 44.9125 229.066 44.9125L226.362 46.5247L227.032 49.7513C227.032 49.7513 228.896 51.2913 229.022 51.2694C229.149 51.2497 229.473 49.6572 230.164 48.0341Z" fill="#FEBDBE"/>
<path d="M234.218 43.7816C234.301 43.005 231.201 42.2109 230.258 42.7556C229.569 43.1537 230.3 43.5103 230.007 43.7619C229.812 43.9281 228.038 43.0925 226.719 44.0966C225.715 44.86 226.279 44.9344 226.216 45.1859C226.153 45.4375 225.525 45.8356 225.127 46.4437C224.728 47.0519 224.518 47.9203 224.645 48.0559C224.801 48.2244 225.256 47.8875 225.315 48.2244C225.378 48.5809 224.608 49.7512 224.958 50.8209C225.293 51.8469 225.586 51.0725 225.818 51.3875C226.048 51.7025 225.84 52.1619 226.384 53.1462C226.748 53.8025 227.172 54.0081 227.327 54.0475C227.579 54.1109 227.537 53.7959 227.85 53.7762C228.165 53.7544 228.666 54.6556 228.666 54.6556C228.666 54.6556 228.644 53.9009 228.782 52.7284C228.92 51.5472 229.169 51.1775 229.149 50.9894C229.128 50.8012 227.098 49.5653 227.808 47.45C228.519 45.3347 230.468 45.7109 230.72 45.7744C230.972 45.8378 231.37 45.9844 231.956 45.8378C232.542 45.6869 234.135 44.5559 234.218 43.7816Z" fill="url(#paint10_linear_185_681)"/>
<path d="M241.025 43.6766C240.993 43.9412 241.804 44.5669 242.344 44.9125C243.099 45.3937 243.915 45.6869 244.23 45.6869C244.545 45.6869 246.827 44.3875 248.001 46.3562C249.174 48.325 246.995 50.2325 246.934 50.5256C246.923 50.9347 247.093 51.1666 247.321 52.0547C247.531 52.8706 247.625 53.1747 247.678 53.5006C247.756 53.6362 248.655 52.9209 249.154 52.1597C249.511 51.615 249.53 51.0484 249.74 50.9872C249.95 50.9237 250.075 51.5734 250.348 51.5319C250.62 51.4903 251.112 50.0662 251.009 49.0819C250.863 47.6994 250.036 47.2378 250.287 46.7981C250.539 46.3584 251.103 46.8812 251.293 46.5269C251.482 46.1703 251.022 45.1662 250.329 44.6828C249.635 44.1994 248.946 44.2628 248.841 44.0134C248.736 43.7619 249.198 43.6372 249.198 43.3637C249.198 43.0925 248.443 42.6725 247.124 42.6091C245.991 42.5544 244.967 43.1537 244.904 42.8191C244.84 42.4844 245.133 42.5041 245.114 42.3575C245.092 42.2109 244.309 41.8653 243.145 42.1891C242.242 42.4406 241.067 43.3462 241.025 43.6766Z" fill="url(#paint11_linear_185_681)"/>
<path d="M242.554 50.95C241.767 50.9894 241.627 51.8775 241.675 52.4747C241.725 53.12 241.896 53.8878 242.712 53.8725C243.545 53.8572 243.749 52.9778 243.764 52.3019C243.782 51.6259 243.515 50.9041 242.554 50.95ZM233.568 50.9041C232.781 50.9434 232.573 51.5778 232.595 52.1772C232.625 53.1047 233.161 53.8112 233.726 53.8266C234.559 53.8506 234.732 53.0719 234.747 52.3959C234.763 51.72 234.526 50.8559 233.568 50.9041Z" fill="#2F2F2F"/>
<path d="M242.745 51.9409C242.609 52.2581 242.294 52.4966 242.102 52.4156C241.909 52.3347 241.865 52.0109 242.001 51.6938C242.137 51.3766 242.401 51.1863 242.592 51.2694C242.784 51.3503 242.88 51.6238 242.745 51.9409ZM233.774 52.0809C233.61 52.3653 233.207 52.5666 233.019 52.4572C232.831 52.35 232.868 51.9759 233.032 51.6916C233.196 51.4072 233.481 51.2628 233.669 51.3722C233.855 51.4794 233.938 51.7966 233.774 52.0809Z" fill="#DFDFDF"/>
<path d="M238.816 58.6653L237.182 58.6347L235.83 58.1797C235.83 58.1797 235.804 59.0328 235.845 59.5469C235.893 60.1134 236.442 61.3078 238.234 61.275C239.977 61.2444 240.559 60.1791 240.575 59.5316C240.59 58.8884 240.559 58.3853 240.559 58.3853L238.816 58.6653Z" fill="url(#paint12_radial_185_681)"/>
<path d="M238.203 58.3197C237.7 58.335 237.009 58.195 236.742 58.0988C236.475 58.0047 236.082 57.7225 235.83 58.02C235.578 58.3175 235.939 58.7113 236.521 58.8994C237.103 59.0875 237.543 59.1969 238.171 59.1816C238.956 59.1619 239.678 59.0241 239.929 58.9453C240.181 58.8666 240.772 58.6106 240.605 58.2059C240.417 57.7509 240.087 58.0484 239.663 58.1578C239.24 58.2716 238.737 58.3022 238.203 58.3197Z" fill="#2F2F2F"/>
<path d="M238.188 51.1228C236.618 51.09 236.13 52.3631 236.005 53.1966C235.88 54.03 235.756 54.8897 235.979 55.9091C236.2 56.9153 236.994 57.4884 238.173 57.4688C239.21 57.4534 239.809 57.0881 240.122 56.48C240.468 55.8041 240.452 55.1281 240.389 53.6669C240.325 52.2078 239.649 51.1534 238.188 51.1228Z" fill="#303030"/>
<path d="M238.494 56.7556C238.494 56.9066 238.72 56.9941 238.973 56.9197C239.24 56.8409 239.656 56.5981 239.783 56.3137C239.851 56.1628 239.798 55.9375 239.634 56.0075C239.47 56.0775 239.337 56.235 239.107 56.3772C238.879 56.5194 238.494 56.6375 238.494 56.7556ZM237.276 56.3619C236.926 56.1497 236.812 55.9769 236.655 56.0316C236.497 56.0862 236.585 56.4012 236.749 56.5412C236.913 56.6812 237.204 56.9022 237.503 56.9656C237.737 57.0137 237.897 56.8322 237.818 56.7294C237.74 56.6287 237.536 56.5194 237.276 56.3619Z" fill="#AFAFAF"/>
<g clip-path="url(#clip1_185_681)">
<path d="M251.162 76.114V95.2525C251.162 96.3069 250.307 97.1622 249.253 97.1622H226.748C225.693 97.1622 224.838 96.3069 224.838 95.2525V72.7475C224.838 71.6931 225.693 70.8378 226.748 70.8378H246.356C247.135 70.8378 247.874 71.1856 248.371 71.7872L250.567 74.4537C250.952 74.9219 251.162 75.5081 251.162 76.114Z" fill="#616161"/>
<path d="M246.737 97.1622H229.25V85.5859C229.25 85.19 229.572 84.8684 229.968 84.8684H246.022C246.417 84.8684 246.739 85.19 246.739 85.5859V97.1622H246.737Z" fill="white"/>
<path d="M229.25 94.4825H246.737V97.1622H229.25V94.4825Z" fill="#039BE5"/>
<path d="M227.664 70.8378V81.2831C227.664 81.6725 228.007 81.9765 228.462 81.9765H245.23C245.685 81.9765 246.037 81.6747 246.037 81.2831V70.8378H227.664Z" fill="#424242"/>
<path d="M231.656 70.8378V80.6859C231.656 81.0534 231.914 81.3378 232.256 81.3378H244.825C245.166 81.3378 245.431 81.0534 245.431 80.6859V70.8378H231.656ZM242.806 80.1762C242.806 80.3337 242.677 80.4628 242.519 80.4628H238.718C238.56 80.4628 238.431 80.3337 238.431 80.1762V71.9994C238.431 71.8419 238.56 71.7128 238.718 71.7128H242.519C242.677 71.7128 242.806 71.8419 242.806 71.9994V80.1762Z" fill="#E0E0E0"/>
</g>
<path d="M239.243 113.821C239.243 113.821 245.58 103.669 245.724 103.415C245.868 103.162 245.899 102.696 245.501 102.696C245.103 102.696 235.231 112.773 235.231 112.773L228.22 116.93C228.22 116.93 227.749 117.218 227.822 117.579C227.894 117.94 228.209 117.956 228.353 117.956C228.498 117.956 235.977 117.916 236.412 117.903C236.952 117.888 236.819 118.656 236.819 118.656L232.085 126.097C232.085 126.097 230.018 128.959 230.018 129.153C230.018 129.44 230.363 129.582 230.685 129.39C230.934 129.241 247.056 115.58 247.767 114.642C247.96 114.386 248.058 113.712 247.264 113.712C246.47 113.712 240.146 115.554 240.146 115.554L239.243 113.821Z" fill="#FEB804"/>
<path d="M238.133 113.014C237.939 113.281 237.886 113.727 238.306 113.753C238.724 113.777 247.264 113.714 247.264 113.714C247.264 113.714 241.163 119.321 239.317 120.994C237.471 122.667 231.357 128.088 230.945 128.471C230.543 128.847 230.178 129.193 230.029 129.145C230.005 129.138 229.974 129.009 230.549 128.062C231.074 127.198 236.114 118.752 236.311 118.432C236.508 118.113 236.681 117.842 236.779 117.693C236.878 117.544 237.197 116.733 236.532 116.733C235.867 116.733 228.22 116.93 228.22 116.93C228.22 116.93 233.503 112.447 235.029 111.242C236.556 110.037 245.21 102.696 245.501 102.696C245.792 102.696 238.33 112.745 238.133 113.014Z" fill="#FFC927"/>
<path d="M237.88 117.477C238.273 116.91 238.661 116.868 238.895 117.008C239.197 117.19 239.227 117.608 238.847 118.113C238.247 118.914 233.842 124.809 233.673 125.017C233.354 125.411 232.883 125.238 233.19 124.667C233.446 124.194 237.473 118.063 237.88 117.477ZM231.619 116.326C230.864 116.831 230.162 116.077 230.667 115.523C231.173 114.97 234.489 112.209 235.161 111.638C235.832 111.067 239.752 107.657 240.056 107.412C240.459 107.088 240.708 107.416 240.454 107.753C240.203 108.09 237.431 110.859 236.208 111.984C235.263 112.854 232.337 115.845 231.619 116.326Z" fill="#FFE567"/>
<g clip-path="url(#clip2_185_681)">
<path d="M237.681 135.059L226.271 140.941C226.021 141.088 225.949 141.306 225.951 141.623L225.973 142.019L238.02 148.197L250.038 142.118C250.038 142.118 250.051 142.057 250.051 141.842C250.051 141.842 250.04 141.56 249.977 141.429C249.907 141.28 249.758 141.147 249.662 141.066C249.406 140.853 249.15 140.665 248.714 140.42C242.473 136.892 238.37 135.074 238.37 135.074C238.105 134.976 237.886 134.941 237.681 135.059Z" fill="#DEA66C"/>
<path d="M226.131 155.035C226.796 155.475 228.01 156.052 229.237 156.717C232.089 158.262 235.694 160.138 237.488 160.876C237.731 160.976 237.875 161.024 238.044 161.033C238.168 161.04 238.374 160.957 238.374 160.957C238.374 160.957 238.039 148.884 238.02 148.195C238 147.521 237.718 147.298 237.468 147.136C237.079 146.887 236.235 146.497 236.235 146.497C236.235 146.497 233.277 145.027 230.324 143.478C228.92 142.741 227.734 141.987 226.459 141.365C226.225 141.254 225.949 141.394 225.949 141.656V154.737C225.949 154.862 226.026 154.967 226.131 155.035Z" fill="#B38251"/>
<path d="M249.721 155.112L238.398 160.95C238.217 161.044 238 160.913 238 160.707L238.02 148.199C238.02 148.079 237.983 147.814 237.945 147.709C237.843 147.403 238.066 147.28 238.166 147.23L249.397 141.446C249.694 141.293 250.051 141.51 250.051 141.844V154.573C250.051 154.799 249.924 155.007 249.721 155.112Z" fill="#966239"/>
<path opacity="0.5" d="M244.663 144.41C244.663 144.41 238.457 147.584 238.357 147.853C238.256 148.12 243.226 145.732 243.808 145.432C244.466 145.093 249.638 142.328 249.638 142.024C249.64 141.774 244.663 144.41 244.663 144.41Z" fill="#212121"/>
<g opacity="0.5">
<path d="M226.802 154.311C227.609 154.718 228.41 155.138 229.408 155.647V155.258C228.414 154.751 227.612 154.333 226.802 153.922V154.311ZM228.502 154.488C228.729 154.604 228.843 154.663 229.058 154.772C229.06 154.094 229.06 153.755 229.062 153.077C228.848 152.968 228.736 152.911 228.511 152.795C228.506 153.473 228.504 153.81 228.502 154.488ZM227.089 153.762C227.277 153.858 227.382 153.913 227.596 154.022L227.607 152.333C227.391 152.222 227.286 152.169 227.095 152.069C227.093 152.747 227.091 153.086 227.089 153.762Z" fill="#212121"/>
<path d="M228.145 152.81C228.664 153.075 228.939 153.217 229.397 153.449C229.169 153.036 229.044 152.826 228.795 152.401C228.539 152.567 228.406 152.648 228.145 152.81ZM226.802 152.121C227.189 152.322 227.45 152.456 227.962 152.718C227.708 152.292 227.581 152.08 227.347 151.662C227.108 151.835 226.997 151.924 226.802 152.121Z" fill="#212121"/>
</g>
<g opacity="0.5">
<path d="M230.958 156.181C231.14 156.275 231.234 156.326 231.416 156.42C231.403 155.615 231.396 155.212 231.381 154.407C231.206 154.315 231.118 154.269 230.943 154.18C230.95 154.98 230.952 155.381 230.958 156.181Z" fill="#212121"/>
<path d="M230.291 156.039C230.956 156.389 231.473 156.652 232.111 156.993C232.107 156.763 231.93 156.485 231.689 156.356C231.313 156.157 231.098 156.048 230.718 155.849C230.473 155.724 230.291 155.814 230.291 156.039ZM231.558 153.766L231.838 154.359C231.75 154.545 231.704 154.639 231.613 154.823C231.691 154.816 231.731 154.814 231.809 154.808C231.914 154.668 231.967 154.598 232.068 154.458C231.976 154.241 231.928 154.132 231.831 153.915C232.098 154.062 232.229 154.136 232.472 154.278C232.472 155.061 231.96 155.407 231.19 155.004C230.42 154.604 229.911 153.709 229.911 152.924C230.484 153.211 230.869 153.399 231.558 153.766Z" fill="#212121"/>
</g>
<path d="M246.037 143.076C245.927 142.995 234.183 136.859 234.183 136.859L230.538 138.743L242.581 144.953L242.587 144.959L246.111 143.155C246.111 143.155 246.105 143.137 246.085 143.115C246.07 143.102 246.043 143.083 246.037 143.076Z" fill="#FFE0B2"/>
<path d="M246.094 143.128C244.099 144.111 242.581 144.953 242.581 144.953C242.631 145.003 242.633 145.069 242.633 145.102C242.627 145.355 242.622 145.557 242.616 145.808C242.585 147.11 242.568 148.413 242.524 149.715C242.67 149.627 242.847 149.82 242.981 149.715C243.187 149.553 243.624 148.84 243.69 148.818C243.777 148.79 243.871 148.812 243.961 148.807C244.355 148.785 245.236 147.982 245.424 147.945C245.606 147.91 246.205 148.026 246.205 148.026C246.205 148.026 246.164 144.056 246.148 143.389C246.144 143.152 246.094 143.128 246.094 143.128Z" fill="#BF9F85"/>
</g>
</g>
<g filter="url(#filter1_dd_185_681)">
<g clip-path="url(#clip3_185_681)">
<rect x="332" y="84" width="32" height="32" rx="16" fill="white"/>
<path fill-rule="evenodd" clip-rule="evenodd" d="M360.173 89.6161C354.438 82.8935 344.339 82.0928 337.617 87.8278C330.894 93.5629 330.093 103.662 335.828 110.384C341.563 117.107 351.662 117.908 358.385 112.173C365.108 106.438 365.908 96.3388 360.173 89.6161ZM352.202 98.014C352.819 98.014 353.213 98.6822 352.903 99.2155L352.814 99.3689L346.776 109.304C346.664 109.488 346.463 109.601 346.247 109.601H345.671C345.276 109.601 344.987 109.228 345.086 108.846L346.724 102.511C346.855 102.004 346.473 101.51 345.95 101.51H343.433C342.91 101.51 342.528 101.017 342.659 100.51L345.131 90.9463C345.221 90.6244 345.512 90.3979 345.847 90.4017C345.887 90.4021 345.924 90.4028 345.954 90.4038L348.489 90.4037C348.974 90.4035 349.347 90.8312 349.282 91.3116L349.266 91.426L348.3 97.0792C348.216 97.5678 348.593 98.014 349.088 98.014H352.202Z" fill="url(#paint13_radial_185_681)"/>
<path fill-rule="evenodd" clip-rule="evenodd" d="M360.173 89.6161C354.438 82.8935 344.339 82.0928 337.617 87.8278C330.894 93.5629 330.093 103.662 335.828 110.384C341.563 117.107 351.662 117.908 358.385 112.173C365.108 106.438 365.908 96.3388 360.173 89.6161ZM352.202 98.014C352.819 98.014 353.213 98.6822 352.903 99.2155L352.814 99.3689L346.776 109.304C346.664 109.488 346.463 109.601 346.247 109.601H345.671C345.276 109.601 344.987 109.228 345.086 108.846L346.724 102.511C346.855 102.004 346.473 101.51 345.95 101.51H343.433C342.91 101.51 342.528 101.017 342.659 100.51L345.131 90.9463C345.221 90.6244 345.512 90.3979 345.847 90.4017C345.887 90.4021 345.924 90.4028 345.954 90.4038L348.489 90.4037C348.974 90.4035 349.347 90.8312 349.282 91.3116L349.266 91.426L348.3 97.0792C348.216 97.5678 348.593 98.014 349.088 98.014H352.202Z" fill="url(#paint14_radial_185_681)"/>
<mask id="mask0_185_681" style="mask-type:alpha" maskUnits="userSpaceOnUse" x="332" y="84" width="32" height="33">
<path d="M348 116.001C356.837 116.001 364 108.838 364 100.001C364 91.1645 356.837 84.001 348 84.001C339.163 84.001 332 91.1645 332 100.001C332 108.838 339.163 116.001 348 116.001Z" fill="url(#paint15_radial_185_681)"/>
</mask>
<g mask="url(#mask0_185_681)">
<g filter="url(#filter2_f_185_681)">
<path d="M332.889 94.7414C332.056 97.1343 331.804 99.6909 332.152 102.201C332.5 104.71 333.44 107.101 334.893 109.177C336.346 111.253 338.271 112.954 340.51 114.14C342.75 115.326 345.238 115.963 347.772 115.999C350.305 116.035 352.811 115.469 355.083 114.348C357.355 113.226 359.328 111.581 360.84 109.547C362.352 107.514 363.359 105.151 363.779 102.652C364.199 100.153 364.019 97.5903 363.255 95.1746L358.603 96.6464C359.134 98.3254 359.259 100.107 358.967 101.843C358.675 103.58 357.975 105.223 356.924 106.636C355.873 108.049 354.502 109.193 352.923 109.972C351.344 110.752 349.602 111.145 347.841 111.12C346.08 111.095 344.351 110.652 342.795 109.828C341.238 109.003 339.9 107.821 338.89 106.379C337.88 104.936 337.227 103.274 336.985 101.53C336.743 99.7854 336.919 98.0085 337.497 96.3453L332.889 94.7414Z" fill="white"/>
</g>
</g>
</g>
</g>
<g clip-path="url(#clip4_185_681)">
<mask id="mask1_185_681" style="mask-type:luminance" maskUnits="userSpaceOnUse" x="84" y="70" width="60" height="60">
<path d="M144 70H84V130H144V70Z" fill="white"/>
</mask>
<g mask="url(#mask1_185_681)">
<path d="M143.839 130.042C123.894 130.042 103.97 130.042 84.0463 130.042C84.0447 130.036 84.0417 130.031 84.0417 130.026C84.0415 110.033 84.0415 90.0397 84.0415 70.0442C104.04 70.0442 124.038 70.0442 144.039 70.0442C144.039 90.0394 144.039 110.037 144.039 130.042C143.981 130.042 143.921 130.042 143.839 130.042ZM133.523 109.252C133.427 109.143 133.336 109.028 133.235 108.925C132.108 107.779 130.689 107.541 129.179 107.677C127.869 107.795 126.747 108.372 125.777 109.252C125.725 109.299 125.667 109.342 125.592 109.403C125.592 109.28 125.597 109.191 125.591 109.102C125.563 108.667 125.358 108.337 124.971 108.139C124.592 107.944 124.204 107.963 123.846 108.192C123.448 108.446 123.312 108.837 123.313 109.296C123.315 112.737 123.314 116.178 123.314 119.62C123.314 119.834 123.31 120.049 123.315 120.264C123.328 120.816 123.621 121.254 124.066 121.394C124.846 121.639 125.591 121.098 125.592 120.275C125.595 117.914 125.594 115.553 125.592 113.192C125.591 112.527 125.76 111.917 126.184 111.398C127.172 110.189 128.452 109.678 130 109.854C130.754 109.94 131.363 110.29 131.781 110.936C132.173 111.543 132.307 112.227 132.313 112.932C132.327 114.877 132.322 116.823 132.324 118.769C132.324 119.302 132.316 119.835 132.326 120.368C132.342 121.202 133.238 121.718 133.972 121.321C134.439 121.07 134.605 120.658 134.604 120.149C134.601 117.94 134.608 115.732 134.599 113.523C134.597 112.998 134.58 112.471 134.519 111.95C134.406 110.985 134.138 110.068 133.523 109.252ZM119.16 108.019C119.023 108.028 118.88 108.017 118.75 108.052C118.206 108.196 117.907 108.628 117.906 109.256C117.905 111.506 117.909 113.757 117.902 116.007C117.901 116.379 117.881 116.757 117.816 117.122C117.642 118.086 117.125 118.808 116.198 119.174C115.294 119.531 114.364 119.543 113.428 119.289C112.718 119.096 112.174 118.689 111.819 118.042C111.564 117.578 111.44 117.073 111.431 116.55C111.412 115.491 111.419 114.431 111.417 113.372C111.416 112 111.419 110.629 111.416 109.258C111.414 108.583 110.966 108.053 110.379 108.019C109.653 107.976 109.14 108.471 109.139 109.229C109.137 111.542 109.134 113.854 109.141 116.167C109.143 116.994 109.232 117.809 109.547 118.588C110.144 120.064 111.259 120.956 112.754 121.389C113.695 121.662 114.664 121.679 115.635 121.565C116.386 121.476 117.103 121.272 117.756 120.892C119.3 119.995 120.085 118.6 120.135 116.859C120.208 114.306 120.178 111.75 120.181 109.195C120.181 108.554 119.804 108.129 119.16 108.019Z" fill="#ECDC5A"/>
<path d="M133.531 109.264C134.138 110.068 134.406 110.985 134.519 111.95C134.58 112.471 134.597 112.998 134.599 113.523C134.608 115.732 134.601 117.94 134.604 120.149C134.605 120.658 134.439 121.07 133.972 121.322C133.238 121.718 132.342 121.202 132.326 120.368C132.316 119.835 132.324 119.302 132.324 118.768C132.322 116.823 132.327 114.877 132.313 112.932C132.307 112.227 132.173 111.542 131.781 110.936C131.363 110.29 130.754 109.94 130 109.854C128.452 109.678 127.172 110.189 126.184 111.398C125.76 111.917 125.591 112.527 125.592 113.192C125.594 115.553 125.595 117.914 125.592 120.275C125.591 121.098 124.846 121.639 124.066 121.394C123.621 121.254 123.328 120.816 123.315 120.264C123.31 120.049 123.314 119.834 123.314 119.62C123.314 116.178 123.315 112.737 123.313 109.296C123.312 108.837 123.448 108.446 123.846 108.191C124.204 107.963 124.592 107.944 124.971 108.139C125.358 108.337 125.563 108.667 125.591 109.102C125.597 109.191 125.592 109.28 125.592 109.403C125.668 109.342 125.725 109.299 125.777 109.252C126.747 108.372 127.869 107.795 129.179 107.677C130.689 107.541 132.108 107.779 133.235 108.925C133.336 109.028 133.427 109.143 133.531 109.264Z" fill="#111827"/>
<path d="M119.178 108.02C119.804 108.129 120.181 108.554 120.181 109.195C120.178 111.75 120.208 114.306 120.135 116.859C120.085 118.6 119.3 119.995 117.756 120.892C117.103 121.272 116.386 121.476 115.635 121.565C114.664 121.679 113.695 121.662 112.754 121.389C111.259 120.956 110.144 120.064 109.547 118.588C109.232 117.809 109.143 116.994 109.141 116.167C109.134 113.854 109.137 111.542 109.139 109.229C109.14 108.471 109.653 107.976 110.379 108.019C110.966 108.053 111.414 108.583 111.416 109.258C111.419 110.629 111.416 112.001 111.417 113.372C111.419 114.431 111.412 115.491 111.431 116.55C111.44 117.073 111.564 117.578 111.819 118.042C112.174 118.689 112.718 119.096 113.428 119.289C114.364 119.543 115.294 119.531 116.198 119.174C117.125 118.808 117.642 118.086 117.816 117.122C117.881 116.757 117.901 116.379 117.902 116.007C117.909 113.757 117.905 111.506 117.906 109.256C117.907 108.628 118.206 108.196 118.75 108.052C118.88 108.017 119.023 108.029 119.178 108.02Z" fill="#111827"/>
</g>
</g>
</g>
<defs>
<filter id="filter0_dddd_185_681" x="216" y="30" width="44" height="140" filterUnits="userSpaceOnUse" color-interpolation-filters="sRGB">
<feFlood flood-opacity="0" result="BackgroundImageFix"/>
<feColorMatrix in="SourceAlpha" type="matrix" values="0 0 0 0 0 0 0 0 0 0 0 0 0 0 0 0 0 0 127 0" result="hardAlpha"/>
<feOffset dy="4"/>
<feGaussianBlur stdDeviation="2"/>
<feColorMatrix type="matrix" values="0 0 0 0 1 0 0 0 0 1 0 0 0 0 1 0 0 0 1 0"/>
<feBlend mode="normal" in2="BackgroundImageFix" result="effect1_dropShadow_185_681"/>
<feColorMatrix in="SourceAlpha" type="matrix" values="0 0 0 0 0 0 0 0 0 0 0 0 0 0 0 0 0 0 127 0" result="hardAlpha"/>
<feOffset dy="-4"/>
<feGaussianBlur stdDeviation="2"/>
<feColorMatrix type="matrix" values="0 0 0 0 1 0 0 0 0 1 0 0 0 0 1 0 0 0 1 0"/>
<feBlend mode="normal" in2="effect1_dropShadow_185_681" result="effect2_dropShadow_185_681"/>
<feColorMatrix in="SourceAlpha" type="matrix" values="0 0 0 0 0 0 0 0 0 0 0 0 0 0 0 0 0 0 127 0" result="hardAlpha"/>
<feOffset dx="4"/>
<feGaussianBlur stdDeviation="2"/>
<feColorMatrix type="matrix" values="0 0 0 0 1 0 0 0 0 1 0 0 0 0 1 0 0 0 1 0"/>
<feBlend mode="normal" in2="effect2_dropShadow_185_681" result="effect3_dropShadow_185_681"/>
<feColorMatrix in="SourceAlpha" type="matrix" values="0 0 0 0 0 0 0 0 0 0 0 0 0 0 0 0 0 0 127 0" result="hardAlpha"/>
<feOffset dx="-4"/>
<feGaussianBlur stdDeviation="2"/>
<feColorMatrix type="matrix" values="0 0 0 0 1 0 0 0 0 1 0 0 0 0 1 0 0 0 1 0"/>
<feBlend mode="normal" in2="effect3_dropShadow_185_681" result="effect4_dropShadow_185_681"/>
<feBlend mode="normal" in="SourceGraphic" in2="effect4_dropShadow_185_681" result="shape"/>
</filter>
<filter id="filter1_dd_185_681" x="316" y="72" width="64" height="56" filterUnits="userSpaceOnUse" color-interpolation-filters="sRGB">
<feFlood flood-opacity="0" result="BackgroundImageFix"/>
<feColorMatrix in="SourceAlpha" type="matrix" values="0 0 0 0 0 0 0 0 0 0 0 0 0 0 0 0 0 0 127 0" result="hardAlpha"/>
<feMorphology radius="4" operator="dilate" in="SourceAlpha" result="effect1_dropShadow_185_681"/>
<feOffset dx="4"/>
<feGaussianBlur stdDeviation="4"/>
<feComposite in2="hardAlpha" operator="out"/>
<feColorMatrix type="matrix" values="0 0 0 0 1 0 0 0 0 1 0 0 0 0 1 0 0 0 1 0"/>
<feBlend mode="normal" in2="BackgroundImageFix" result="effect1_dropShadow_185_681"/>
<feColorMatrix in="SourceAlpha" type="matrix" values="0 0 0 0 0 0 0 0 0 0 0 0 0 0 0 0 0 0 127 0" result="hardAlpha"/>
<feMorphology radius="4" operator="dilate" in="SourceAlpha" result="effect2_dropShadow_185_681"/>
<feOffset dx="-4"/>
<feGaussianBlur stdDeviation="4"/>
<feComposite in2="hardAlpha" operator="out"/>
<feColorMatrix type="matrix" values="0 0 0 0 1 0 0 0 0 1 0 0 0 0 1 0 0 0 1 0"/>
<feBlend mode="normal" in2="effect1_dropShadow_185_681" result="effect2_dropShadow_185_681"/>
<feBlend mode="normal" in="SourceGraphic" in2="effect2_dropShadow_185_681" result="shape"/>
</filter>
<filter id="filter2_f_185_681" x="322" y="84.7414" width="52" height="41.2595" filterUnits="userSpaceOnUse" color-interpolation-filters="sRGB">
<feFlood flood-opacity="0" result="BackgroundImageFix"/>
<feBlend mode="normal" in="SourceGraphic" in2="BackgroundImageFix" result="shape"/>
<feGaussianBlur stdDeviation="5" result="effect1_foregroundBlur_185_681"/>
</filter>
<linearGradient id="paint0_linear_185_681" x1="3.38158" y1="82.5" x2="27.9375" y2="109.335" gradientUnits="userSpaceOnUse">
<stop stop-color="#9CA3AF" stop-opacity="0"/>
<stop offset="0.260417" stop-color="#9CA3AF" stop-opacity="0.4"/>
</linearGradient>
<linearGradient id="paint1_linear_185_681" x1="0.499998" y1="94.5" x2="24.7966" y2="123.328" gradientUnits="userSpaceOnUse">
<stop stop-color="#9CA3AF" stop-opacity="0"/>
<stop offset="0.260417" stop-color="#9CA3AF" stop-opacity="0.4"/>
</linearGradient>
<linearGradient id="paint2_linear_185_681" x1="1.45714" y1="106.5" x2="25.8634" y2="134.63" gradientUnits="userSpaceOnUse">
<stop stop-color="#9CA3AF" stop-opacity="0"/>
<stop offset="0.260417" stop-color="#9CA3AF" stop-opacity="0.4"/>
</linearGradient>
<linearGradient id="paint3_linear_185_681" x1="3.30263" y1="118.5" x2="27.9443" y2="143.89" gradientUnits="userSpaceOnUse">
<stop stop-color="#9CA3AF" stop-opacity="0"/>
<stop offset="0.260417" stop-color="#9CA3AF" stop-opacity="0.4"/>
</linearGradient>
<linearGradient id="paint4_linear_185_681" x1="258" y1="60" x2="398" y2="60" gradientUnits="userSpaceOnUse">
<stop offset="0.786458" stop-color="#9CA3AF"/>
<stop offset="1" stop-color="#9CA3AF" stop-opacity="0"/>
</linearGradient>
<linearGradient id="paint5_linear_185_681" x1="144" y1="76" x2="398" y2="76" gradientUnits="userSpaceOnUse">
<stop offset="0.786458" stop-color="#9CA3AF"/>
<stop offset="1" stop-color="#9CA3AF" stop-opacity="0"/>
</linearGradient>
<linearGradient id="paint6_linear_185_681" x1="258" y1="92" x2="398" y2="92" gradientUnits="userSpaceOnUse">
<stop offset="0.786458" stop-color="#9CA3AF"/>
<stop offset="1" stop-color="#9CA3AF" stop-opacity="0"/>
</linearGradient>
<linearGradient id="paint7_linear_185_681" x1="258" y1="108" x2="398" y2="108" gradientUnits="userSpaceOnUse">
<stop offset="0.786458" stop-color="#9CA3AF"/>
<stop offset="1" stop-color="#9CA3AF" stop-opacity="0"/>
</linearGradient>
<linearGradient id="paint8_linear_185_681" x1="242" y1="130" x2="398" y2="130" gradientUnits="userSpaceOnUse">
<stop offset="0.786458" stop-color="#9CA3AF"/>
<stop offset="1" stop-color="#9CA3AF" stop-opacity="0"/>
</linearGradient>
<linearGradient id="paint9_linear_185_681" x1="258" y1="124" x2="398" y2="124" gradientUnits="userSpaceOnUse">
<stop offset="0.786458" stop-color="#9CA3AF"/>
<stop offset="1" stop-color="#9CA3AF" stop-opacity="0"/>
</linearGradient>
<linearGradient id="paint10_linear_185_681" x1="226.59" y1="53.9375" x2="230.673" y2="42.0795" gradientUnits="userSpaceOnUse">
<stop offset="0.182" stop-color="#C9C7C8"/>
<stop offset="0.256" stop-color="#BDBCBD"/>
<stop offset="0.411" stop-color="#A8A8AA"/>
<stop offset="0.498" stop-color="#9E9EA1"/>
<stop offset="0.648" stop-color="#828487"/>
<stop offset="0.799" stop-color="#606468"/>
</linearGradient>
<linearGradient id="paint11_linear_185_681" x1="249.638" y1="52.6744" x2="244.654" y2="41.4818" gradientUnits="userSpaceOnUse">
<stop offset="0.164" stop-color="#C9C7C8"/>
<stop offset="0.244" stop-color="#BDBCBD"/>
<stop offset="0.411" stop-color="#A8A8AA"/>
<stop offset="0.486" stop-color="#96979A"/>
<stop offset="0.674" stop-color="#6F7276"/>
<stop offset="0.772" stop-color="#606468"/>
</linearGradient>
<radialGradient id="paint12_radial_185_681" cx="0" cy="0" r="1" gradientUnits="userSpaceOnUse" gradientTransform="translate(238.14 55.2557) scale(5.29178 5.29178)">
<stop offset="0.784" stop-color="#FEBDBB"/>
<stop offset="0.821" stop-color="#F5BEBC"/>
<stop offset="0.88" stop-color="#DCC1C0"/>
<stop offset="0.922" stop-color="#C7C3C3"/>
</radialGradient>
<radialGradient id="paint13_radial_185_681" cx="0" cy="0" r="1" gradientUnits="userSpaceOnUse" gradientTransform="translate(335.201 100) scale(31.2006 318.168)">
<stop stop-color="#31B2F3"/>
<stop offset="0.473958" stop-color="#F27CEC"/>
<stop offset="1" stop-color="#FD6641"/>
</radialGradient>
<radialGradient id="paint14_radial_185_681" cx="0" cy="0" r="1" gradientUnits="userSpaceOnUse" gradientTransform="translate(335.201 100) scale(31.2006 318.168)">
<stop stop-color="#31B2F3"/>
<stop offset="0.473958" stop-color="#F27CEC"/>
<stop offset="1" stop-color="#FD6641"/>
</radialGradient>
<radialGradient id="paint15_radial_185_681" cx="0" cy="0" r="1" gradientUnits="userSpaceOnUse" gradientTransform="translate(335.2 100.001) scale(31.2 318.162)">
<stop stop-color="#F27CEC"/>
<stop offset="0.484375" stop-color="#31B2F3"/>
<stop offset="1" stop-color="#7D7573"/>
</radialGradient>
<clipPath id="clip0_185_681">
<rect width="400" height="200" fill="white"/>
</clipPath>
<clipPath id="clip1_185_681">
<rect width="28" height="28" fill="white" transform="translate(224 70)"/>
</clipPath>
<clipPath id="clip2_185_681">
<rect width="28" height="28" fill="white" transform="translate(224 134)"/>
</clipPath>
<clipPath id="clip3_185_681">
<rect x="332" y="84" width="32" height="32" rx="16" fill="white"/>
</clipPath>
<clipPath id="clip4_185_681">
<rect width="60" height="60" fill="white" transform="translate(84 70)"/>
</clipPath>
</defs>
</svg>
