<svg width="32" height="32" viewBox="0 0 32 32" fill="none" xmlns="http://www.w3.org/2000/svg">
<path d="M6.29749 17.51C6.12499 17.51 5.94999 17.5075 5.76749 17.4975C4.79749 17.4575 4.03749 17.13 3.50749 16.53C2.55499 15.45 2.61249 13.7925 2.62499 13.5625L2.63249 13.54C2.68999 13.3425 2.85999 12.7375 3.35749 12.475C3.68249 12.3025 3.97499 12.22 4.24999 12.22C4.60749 12.22 4.93749 12.36 5.25999 12.65C6.08249 13.39 7.00499 13.85 7.66499 13.85C8.13749 13.85 9.39999 13.7775 9.91499 13.745L10.695 16.3175C10.3 16.625 8.93999 17.51 6.29749 17.51Z" fill="#37474F"/>
<path d="M4.2475 12.4975C4.5325 12.4975 4.8025 12.615 5.07 12.855C5.955 13.6525 6.925 14.1275 7.6625 14.1275C8.0825 14.1275 9.1125 14.07 9.71 14.035L10.3675 16.21C9.8675 16.55 8.5875 17.2275 6.2975 17.2275C6.1275 17.2275 5.9525 17.225 5.78 17.2175C4.89 17.18 4.1975 16.8875 3.72 16.3475C2.87 15.385 2.89 13.895 2.9025 13.6075C2.9525 13.43 3.1 12.9225 3.4875 12.72C3.7675 12.57 4.0175 12.4975 4.2475 12.4975ZM4.2475 11.94C3.8875 11.94 3.5425 12.06 3.2225 12.2275C2.56 12.5775 2.385 13.395 2.3475 13.5125C2.3475 13.5125 1.995 17.6175 5.755 17.775C5.9425 17.7825 6.1225 17.7875 6.2975 17.7875C9.6575 17.7875 11.0125 16.4125 11.0125 16.4125L10.1175 13.4525C10.1175 13.4525 8.2475 13.57 7.665 13.57C7.0825 13.57 6.225 13.1425 5.445 12.44C5.0375 12.0775 4.635 11.94 4.2475 11.94Z" fill="#90A4AE"/>
<path d="M1.65499 21.715C1.27749 22.97 1.315 25.185 1.315 25.185C1.315 25.5375 1.5375 26.1525 2.0525 26.3475C4.75749 27.365 7.84 27.0975 9.45 27.835C11.32 28.6925 17.38 31.33 22.45 30.7725C28.485 30.11 30.4 27.385 30.7275 26.625C30.96 26.08 31.1175 24.015 30.8825 23.9375C28.3175 23.0825 18.75 26.8775 17 25.555C15.4975 24.42 2.03249 20.46 1.65499 21.715Z" fill="#E0E0E0"/>
<path d="M3.1075 12.2475C3.1075 12.2475 1.685 13.355 1.3175 15.675C0.925 18.1275 0.5775 21.715 2.3475 23.12C3.655 24.1575 7.6925 23.655 9.5625 24.5125C11.4325 25.37 17.1025 29.6425 22.1725 29.0875C28.2075 28.425 30.335 25.8 30.66 25.0375C30.8925 24.4925 31.5375 23.525 28.13 22.1525C25.62 21.1425 23.705 19.645 21.9525 18.32C20.45 17.185 15.0225 13.88 15.0225 13.88C15.0225 13.88 14.115 11.725 12.6075 11.3875C11.6175 11.165 9.415 12.3325 9.025 13.3975C8.5925 14.58 9.13 15.67 9.13 15.67C6.795 16.89 5.99 17.0725 4.405 16.06C2.82 15.0475 3.1075 12.2475 3.1075 12.2475V12.2475Z" fill="#0277BD"/>
<path d="M3.1075 12.2475C3.1075 12.2475 1.685 13.355 1.3175 15.675C0.925 18.1275 0.5775 21.715 2.3475 23.12C3.655 24.1575 7.6925 23.655 9.5625 24.5125C11.4325 25.37 17.1025 29.6425 22.1725 29.0875C28.2075 28.425 30.335 25.8 30.66 25.0375C30.8925 24.4925 31.5375 23.525 28.13 22.1525C25.62 21.1425 23.705 19.645 21.9525 18.32C20.45 17.185 15.0225 13.88 15.0225 13.88C15.0225 13.88 14.115 11.725 12.6075 11.3875C11.6175 11.165 9.415 12.3325 9.025 13.3975C8.5925 14.58 9.13 15.67 9.13 15.67C6.795 16.89 5.99 17.0725 4.405 16.06C2.82 15.0475 3.1075 12.2475 3.1075 12.2475V12.2475Z" fill="#0277BD"/>
<path d="M9.3225 15.655C9.9225 15.555 10.4125 15.5425 11.0075 15.6175C11.0325 15.015 10.7425 14.33 10.4325 13.825C10.3575 13.7025 10.2725 13.5825 10.225 13.4475C9.975 12.7425 11.31 12.0175 11.8425 11.8625C12.4275 11.69 13.065 11.7175 13.635 11.935C13.335 11.68 12.9925 11.48 12.6125 11.3925C11.6925 11.185 10.5225 11.8175 9.81 12.3375C8.705 13.14 8.495 14.3425 9.0975 15.5775C9.1125 15.61 9.1325 15.645 9.1625 15.66C9.195 15.6775 9.235 15.6725 9.2725 15.665C9.285 15.66 9.3025 15.6575 9.3225 15.655Z" fill="#BDBDBD"/>
<path d="M23.0125 19.12C22.7425 18.92 22.395 18.8425 22.075 18.9425C22.005 18.965 21.935 18.99 21.8675 19.0175C21.2625 19.2675 20.7825 19.74 20.325 20.21C19.8675 20.6775 19.405 21.165 18.82 21.455C18.0275 21.8475 17.355 21.655 16.565 21.615C15.8425 21.58 15.3925 21.955 15.23 22.7125C15.1175 23.24 15.3725 23.9525 15.8325 24.235C17.41 25.205 18.955 25.6375 20.67 25.87C22.865 26.1675 25.16 25.665 27.03 24.48C27.56 24.145 28.09 23.705 28.22 23.09C28.22 23.0875 28.2225 23.0825 28.2225 23.08C28.32 22.605 28.0475 22.125 27.6025 21.9275C25.8275 21.1425 24.3525 20.12 23.0125 19.12Z" fill="#03A9F4"/>
<path d="M18.0975 22.13C17.4875 22.13 16.8825 21.8575 16.295 21.5225C15.3525 20.985 11.56 18.49 10.415 17.735C10.15 18.0525 9.7025 18.515 9.1775 18.73C8.6825 18.9325 8.2725 18.8875 7.91 18.85C7.5475 18.8125 7.26 18.78 6.87 18.975C6.3475 19.2375 5.8825 19.6025 5.355 19.855C4.7925 20.125 3.755 20.0925 3.225 19.8925C1.99 19.4275 1.8 18.77 1.7375 18.51C2.345 18.94 3.135 19.4075 4.0175 19.37C5.325 19.315 5.8 18.59 6.5025 18.2375C7.1075 17.935 7.6 17.9875 7.9975 18.03C8.3125 18.0625 8.5625 18.09 8.8675 17.965C9.3475 17.77 9.8325 17.165 9.98 16.9475L10.2075 16.61L10.5475 16.835C10.5975 16.87 15.6375 20.1975 16.7025 20.805C17.2875 21.14 18.03 21.5175 18.68 21.14C19.4225 20.71 20.0275 20.015 20.7025 19.4875C21.0425 19.22 21.4075 18.9675 21.825 18.85C22.2425 18.735 22.7275 18.7825 23.0525 19.0675C21.7075 19.145 20.6025 20.34 19.765 21.2825C19.2175 21.9 18.6575 22.13 18.0975 22.13Z" fill="#004A7C"/>
<path d="M15.67 18.9275C16.06 17.5525 17.0175 16.435 17.6425 15.5M13.745 17.6175C13.75 16.2375 15.125 14.2975 15.3575 14.0875" stroke="#9E9E9E" stroke-width="0.83725" stroke-miterlimit="10" stroke-linecap="round"/>
<path d="M11.475 16.5425C12.775 15.2825 14.5 14.1425 15.3575 13.9875M13.745 17.6175C14.8075 16.4875 16.1875 15.66 17.685 15.255" stroke="#E0E0E0" stroke-width="0.83725" stroke-miterlimit="10" stroke-linecap="round"/>
<path d="M17.8275 19.835C18.195 18.77 18.895 17.63 19.5325 16.7075" stroke="#9E9E9E" stroke-width="0.83725" stroke-miterlimit="10" stroke-linecap="round"/>
<path d="M15.55 18.9275C16.6474 17.7895 18.049 16.9911 19.5875 16.6275" stroke="#E0E0E0" stroke-width="0.83725" stroke-miterlimit="10" stroke-linecap="round"/>
<path d="M4.715 12.42C4.6875 12.4475 4.65 12.4625 4.61 12.475C4.36 12.5525 4.1925 12.46 3.9375 12.52C3.6025 12.6 3.25 12.9275 3.1675 13.2625C3.085 13.5975 3.1425 13.95 3.24 14.2775C3.4275 14.9 3.77 15.475 4.2275 15.9375C4.3725 16.0825 4.5325 16.225 4.605 16.4175C4.6775 16.61 4.62 16.87 4.43 16.9425C4.3525 16.9725 4.265 16.9675 4.1825 16.95C4.035 16.92 3.895 16.8525 3.7625 16.78C3.32 16.5375 2.915 16.2225 2.575 15.85C2.345 15.6 2.1425 15.3175 2.0175 15.0025C1.7325 14.2725 1.9675 13.4275 2.4475 12.8075C2.7975 12.355 3.1475 12.1525 3.755 12.03C3.9475 11.99 4.3075 11.94 4.645 12.0075C4.7975 12.0375 4.8575 12.2825 4.715 12.42Z" fill="#03A9F4"/>
<path d="M9.055 15.5C9.0625 15.52 8.95 15.455 8.9425 15.475C8.925 15.5175 8.8625 15.5 8.825 15.475C8.64 15.3475 8.52 15.15 8.4125 14.955C8.3 14.7475 8.2 14.525 8.1875 14.29C8.15 13.615 8.885 13.51 8.885 13.51C8.76 13.795 8.7625 14.165 8.76 14.355C8.755 14.7375 8.915 15.145 9.055 15.5Z" fill="#37474F"/>
<path d="M2.0625 26.3225C2.37 26.4125 2.6775 26.485 2.99 26.5475C3.3 26.6125 3.6125 26.67 3.925 26.715C4.5525 26.805 5.185 26.8575 5.82 26.9C6.455 26.9525 7.0925 26.9975 7.7375 27.07C8.3775 27.1475 9.0525 27.245 9.695 27.525C10.8675 28.0025 12.0425 28.4725 13.2425 28.86C14.4375 29.26 15.65 29.61 16.875 29.87C18.0975 30.145 19.3375 30.325 20.5775 30.3775C21.1975 30.405 21.815 30.3975 22.43 30.34C23.0525 30.2775 23.6725 30.2 24.29 30.095C25.52 29.88 26.73 29.5275 27.8475 28.9775C28.41 28.71 28.9525 28.3925 29.4425 28.0025C29.6875 27.81 29.92 27.5975 30.135 27.3675C30.3525 27.14 30.555 26.895 30.705 26.6175L30.755 26.64C30.48 27.2275 30.0375 27.71 29.5625 28.1375C29.0825 28.565 28.545 28.9225 27.985 29.23C26.8575 29.8425 25.6275 30.245 24.3775 30.51C23.1275 30.77 21.8475 30.935 20.565 30.8925C19.285 30.8575 18.0125 30.675 16.76 30.405C14.26 29.8525 11.8425 28.9725 9.52 27.9125C8.9475 27.64 8.315 27.5225 7.6875 27.425C7.0575 27.33 6.4225 27.265 5.7875 27.1875C4.5225 27.0325 3.2475 26.8275 2.045 26.375L2.0625 26.3225Z" fill="#82AEC0"/>
</svg>
