<svg width="32" height="32" viewBox="0 0 32 32" fill="none" xmlns="http://www.w3.org/2000/svg">
<path d="M31 17.9625V14.0375C31 13.89 30.8875 13.765 30.7425 13.75L26.285 13.2775C26.1675 13.265 26.0725 13.1825 26.04 13.07C25.825 12.3325 25.5325 11.63 25.17 10.9725C25.1125 10.87 25.1225 10.7425 25.1975 10.6525L28.0175 7.1675C28.11 7.0525 28.1025 6.885 27.9975 6.7825L25.2225 4.0075C25.1722 3.95707 25.105 3.9271 25.0338 3.92341C24.9627 3.91971 24.8927 3.94255 24.8375 3.9875L21.3475 6.805C21.255 6.88 21.13 6.8875 21.0275 6.8325C20.362 6.46716 19.6587 6.17544 18.93 5.9625C18.8175 5.93 18.735 5.835 18.7225 5.7175L18.25 1.2575C18.235 1.1125 18.11 1 17.9625 1H14.0375C13.89 1 13.765 1.1125 13.75 1.2575L13.2775 5.715C13.265 5.8325 13.1825 5.9275 13.07 5.96C12.3325 6.175 11.63 6.4675 10.9725 6.83C10.87 6.8875 10.7425 6.8775 10.6525 6.8025L7.1675 3.985C7.11225 3.94005 7.04228 3.91721 6.97115 3.92091C6.90002 3.9246 6.8328 3.95457 6.7825 4.005L4.0075 6.78C3.95707 6.8303 3.9271 6.89752 3.92341 6.96865C3.91971 7.03978 3.94255 7.10975 3.9875 7.165L6.8075 10.65C6.8825 10.7425 6.89 10.8675 6.835 10.97C6.46966 11.6355 6.17794 12.3388 5.965 13.0675C5.9325 13.18 5.8375 13.2625 5.72 13.275L1.2575 13.75C1.1125 13.765 1 13.89 1 14.0375V17.9625C1 18.11 1.1125 18.235 1.2575 18.25L5.715 18.7225C5.8325 18.735 5.9275 18.8175 5.96 18.93C6.175 19.6675 6.4675 20.37 6.83 21.0275C6.8875 21.13 6.8775 21.2575 6.8025 21.3475L3.985 24.8325C3.8925 24.9475 3.9 25.115 4.005 25.2175L6.78 27.9925C6.885 28.0975 7.05 28.105 7.165 28.0125L10.65 25.1925C10.7425 25.1175 10.8675 25.11 10.97 25.165C11.63 25.5275 12.3325 25.82 13.0675 26.035C13.18 26.0675 13.2625 26.1625 13.275 26.28L13.75 30.7425C13.765 30.89 13.89 31 14.0375 31H17.9625C18.11 31 18.235 30.8875 18.25 30.7425L18.7225 26.285C18.735 26.1675 18.8175 26.0725 18.93 26.04C19.6675 25.825 20.37 25.5325 21.0275 25.17C21.13 25.1125 21.2575 25.1225 21.3475 25.1975L24.8325 28.0175C24.9475 28.11 25.115 28.1025 25.2175 27.9975L27.9925 25.2225C28.0975 25.1175 28.105 24.9525 28.0125 24.8375L25.1925 21.3525C25.1175 21.26 25.11 21.135 25.165 21.0325C25.5275 20.3725 25.82 19.67 26.035 18.935C26.0675 18.8225 26.1625 18.74 26.28 18.7275L30.7425 18.25C30.8875 18.235 31 18.11 31 17.9625ZM16 18.82C14.4425 18.82 13.18 17.5575 13.18 16C13.18 14.4425 14.4425 13.18 16 13.18C17.5575 13.18 18.82 14.4425 18.82 16C18.82 17.5575 17.5575 18.82 16 18.82Z" fill="#82AEC0"/>
<path d="M20.14 12.37C21.0575 13.415 21.585 14.8125 21.4975 16.3325C21.335 19.1225 19.04 21.38 16.2475 21.5025C15.06 21.555 13.9525 21.23 13.0325 20.64C12.9625 20.595 12.8875 20.69 12.9475 20.75C13.5231 21.3387 14.2214 21.7934 14.9927 22.0816C15.764 22.3698 16.5893 22.4845 17.41 22.4175C20.105 22.205 22.3 20.0425 22.5475 17.35C22.74 15.26 21.7825 13.3825 20.24 12.2675C20.1675 12.2175 20.085 12.305 20.14 12.37Z" fill="#2F7889"/>
<path d="M10.9675 16.33C10.8 13.0425 12.925 10.6325 15.97 10.6325C16.1325 10.6325 16.39 10.6325 16.59 10.8625C16.8425 11.1575 16.865 11.5125 16.59 11.805C16.3875 12.02 16.1025 12.035 15.9575 12.055C12.8825 12.4525 12.1625 14.3925 12 16.2475C11.9925 16.33 12.015 16.835 11.5725 16.8875C11.035 16.95 10.97 16.41 10.9675 16.33Z" fill="#B9E4EA"/>
<path d="M6.31 16.4675C6.3075 10.96 10.285 6.41998 15.8425 6.20498C16.0125 6.19748 16.455 6.20498 16.73 6.45248C16.9825 6.67998 17.075 7.07998 16.9275 7.40748C16.69 7.93498 16.215 7.92498 16.0875 7.92998C11.46 8.09498 7.5425 11.8625 7.54 16.4175C7.54 16.49 7.5275 16.5625 7.5025 16.6275L7.4775 16.69C7.2875 17.185 6.5975 17.2125 6.37 16.735C6.3325 16.65 6.31 16.56 6.31 16.4675Z" fill="#94D1E0"/>
</svg>
