<svg width="32" height="32" viewBox="0 0 32 32" fill="none" xmlns="http://www.w3.org/2000/svg">
<path d="M19.0275 24.76C21.09 21.8425 19.69 20.47 19.2375 19.98C18.785 19.49 10.69 23.11 10.69 23.11C10.69 23.11 14.5975 20.2 16.4 18.355C18.4 16.3075 17.6 15.085 17.495 14.655C16.28 9.71751 4.9525 17.775 4.9525 17.775C4.9525 17.775 5.9125 17.0625 7.1075 16.2375C8.6225 15.1925 10.3875 13.565 9.4325 11.4925C9.165 10.91 5.24 11.1025 1 13.04V31H13.7125C15.8625 28.6025 18.325 25.755 19.0275 24.76Z" fill="#BA8F63"/>
<path d="M14.7625 27.44C14.7625 27.44 16.625 25.7425 15.8275 25.7125C14.5075 25.6625 13.105 24.385 13.1975 23.465C13.33 22.16 16.9675 23.5075 17.355 23.015C17.9375 22.2775 18.4825 21.5075 18.9825 20.7125C19.04 20.6225 19.0975 20.5275 19.1125 20.42C19.145 20.195 18.9125 19.9725 18.7675 19.8325C17.4975 18.5875 16.3825 18.4275 13.715 20.47C11.795 21.9425 4.7775 27.78 1 30.9325V31H11.165L14.7625 27.44ZM9.0925 10.7775C9.0675 10.695 8.9575 10.6025 8.9025 10.535C8.78 10.3875 8.645 10.25 8.4975 10.125C8.195 9.87003 8.09 8.80753 6.4875 9.03253C5.7475 9.13503 3.3525 10.3375 1 11.5925V18.13C3.4975 16.585 4.31 16.095 4.895 15.5875C5.5925 14.9825 2.96 15.26 3.1675 12.5125C3.2375 11.5975 8.015 11.7225 8.9125 11.04C8.9775 10.99 9.09 10.9125 9.1 10.8225C9.1 10.8075 9.0975 10.7925 9.0925 10.7775ZM16.18 13.805C16.1025 13.685 16.02 13.5675 15.935 13.4525C15.755 13.215 15.5475 12.9975 15.315 12.8125C14.93 12.505 14.7 12.5975 14.285 12.335C13.7325 11.9825 12.205 13.0175 8.6925 15.105C6.6375 16.325 3.6475 18.285 1 20.06V28.2125C5.97 24.375 12.51 19.3475 13.035 18.8425C13.5375 18.3575 10.265 18.3725 10.715 15.8375C10.78 15.47 13.895 17.09 14.0575 16.7525C14.3675 16.11 14.7475 15.5 15.1925 14.945C15.365 14.73 15.555 14.5175 15.8025 14.4C15.94 14.335 16.0975 14.295 16.195 14.1825C16.295 14.065 16.2525 13.92 16.18 13.805Z" fill="#E0BB95"/>
<path d="M10.55 8.82002C11.27 9.84252 11.0525 10.975 9.27 12.565C7.9675 13.7275 7.095 14.19 5.8225 14.455C4.6925 14.69 3.9225 14.0725 3.24 12.8325C2.695 11.84 3.06 11.295 3.31 10.965C4.065 9.96752 5.9675 9.10752 6.99 8.72752C8.62 8.12252 10.0375 8.09002 10.55 8.82002ZM17.46 15.58C16.595 16.38 15.24 17.485 14.055 17.815C13.5 17.97 12.3625 18.0775 11.23 16.71C10.11 15.36 10.8275 14.4875 11.09 14.1525C11.91 13.105 13.2925 12.335 14.5075 11.775C16.0125 11.0825 17.47 10.825 18.245 11.4775C19.27 12.3375 19.1075 14.06 17.46 15.58ZM19.8075 18.5175C21.0625 19.355 20.31 21.29 19.5975 22.2375C18.83 23.26 17.7925 24.45 16.9 24.8475C16.2725 25.1275 15.26 25.3875 13.8825 24.2375C12.745 23.285 13.12 21.975 13.505 21.33C14.1125 20.3125 15.2225 19.5675 16.4825 18.8175C17.8775 17.99 19.0675 18.0225 19.8075 18.5175Z" fill="#F44336"/>
<path d="M19.5975 22.2375C20.1325 21.5225 20.6925 20.25 20.4 19.305C19.8825 19.925 16.81 23.5725 15.4 24.1325C14.7925 24.375 14.15 24.44 14.15 24.44L14.1475 24.4425C15.39 25.3525 16.3125 25.1075 16.9 24.8475C17.7925 24.4525 18.83 23.26 19.5975 22.2375ZM18.88 13.04C17.8125 13.86 13.955 16.74 12.715 17.0225C12.175 17.145 11.8675 17.1875 11.665 17.1575C12.5975 17.9975 13.5575 17.9525 14.055 17.815C15.24 17.4825 16.595 16.3775 17.46 15.58C18.3775 14.7325 18.8325 13.825 18.88 13.04ZM4.7875 13.8075C4.4425 13.86 4.19 13.89 4.0025 13.89C4.5075 14.395 5.09 14.605 5.825 14.4525C7.0975 14.1875 7.97 13.725 9.2725 12.5625C10.1825 11.75 10.6825 11.06 10.86 10.44C9.225 11.5075 5.87 13.64 4.7875 13.8075Z" fill="#C62828"/>
<path d="M4.505 11.135C5.09 10.4625 6.41 9.4125 8.0725 8.93C8.8225 8.7125 9.045 9.45751 8.5425 9.66251C7.475 10.1 5.37 11.27 5.085 11.4325C4.495 11.7625 4.0975 11.6025 4.505 11.135ZM12.125 14.4875C13.0425 13.43 13.8325 12.87 15.415 12.07C15.7625 11.895 16.2475 11.865 16.45 11.9875C16.8575 12.2325 16.885 12.57 16.38 12.8275C14.1525 13.9675 13.5775 14.455 12.635 14.955C12.09 15.245 11.825 14.835 12.125 14.4875ZM16.13 20.0925C17.2025 19.1575 17.89 18.885 18.11 19.0525C18.5025 19.35 18.2025 19.72 17.8225 20.0125C17.4425 20.305 15.425 21.9225 15.12 22.1575C14.815 22.3925 14.37 22.4975 14.5525 22.01C14.705 21.6025 15.3 20.815 16.13 20.0925Z" fill="#FF7555"/>
<path d="M20.2875 7.2475C19.9025 8.38 21.5775 9.975 24.0325 10.8125C26.4875 11.65 28.79 11.41 29.175 10.2775C29.3675 9.71 30.895 1 30.895 1H23.53C22.4125 3.15 20.54 6.5025 20.2875 7.2475Z" fill="#546E7A"/>
<path d="M28.3334 10.2088C28.5713 9.51099 27.1178 8.38398 25.087 7.6916C23.0562 6.99921 21.217 7.00365 20.979 7.70151C20.7411 8.39936 22.1946 9.52638 24.2254 10.2188C26.2563 10.9111 28.0955 10.9067 28.3334 10.2088Z" fill="#202020"/>
<path d="M22.6175 16.7575C22.675 16.6525 22.8725 16.1825 22.9225 16.115C23.14 15.83 23.3175 15.8025 23.485 15.3725C23.6275 15.01 25.605 9.39502 25.605 9.39502C25.605 9.39502 25.7375 8.78502 24.885 8.49502C24.035 8.20502 23.765 8.77002 23.765 8.77002C23.765 8.77002 21.9 14.04 21.695 14.64C21.5225 15.15 21.705 15.29 21.585 15.6125C21.565 15.67 21.3525 16.05 21.3075 16.12L22.6175 16.7575Z" fill="#546E7A"/>
<path d="M21.9525 15.335C21.8075 15.34 21.67 15.3175 21.46 15.56C21.065 16.0075 20.4875 16.5 19.5825 16.845C19.3 16.9525 18.9175 17.14 18.9325 17.4425C18.965 18.11 20.2075 18.985 21.135 18.7375C21.96 18.5175 22.7075 17.1 22.765 16.815C22.8225 16.53 22.925 16.1675 22.85 15.945C22.735 15.605 22.31 15.325 21.9525 15.335Z" fill="#F44336"/>
<path d="M19.69 17.75C19.815 17.795 19.935 17.685 20.0575 17.63C20.2375 17.5475 20.45 17.595 20.6325 17.6725C20.815 17.75 20.9875 17.855 21.1825 17.895C21.4725 17.955 21.78 17.8525 22.02 17.675C22.2575 17.4975 22.72 16.275 22.8675 16.0175C22.8825 16.09 22.9025 16.2025 22.885 16.335C22.75 17.3875 21.8775 18.615 21.1775 18.79C20.905 18.8575 20.4925 18.8675 20.2175 18.8125C19.94 18.7575 19.615 18.605 19.3825 18.4425C19.15 18.28 18.9875 18.0725 18.86 17.8175C18.7975 17.6925 18.82 17.5025 18.8925 17.3725C18.9425 17.28 19.0425 17.225 19.145 17.2175C19.265 17.2075 19.3925 17.265 19.4625 17.365C19.535 17.4675 19.535 17.61 19.6225 17.7025C19.6375 17.7225 19.6625 17.74 19.69 17.75Z" fill="#C62828"/>
<path d="M20.885 17.4525C20.15 18.005 19.81 17.8725 19.67 17.81C19.5275 17.7475 19.4225 17.585 19.465 17.435C19.51 17.275 19.6825 17.1975 19.835 17.1325C20.185 16.985 20.6475 16.8325 20.9675 16.625C22.1 15.8975 21.8625 15.5175 22.085 15.585C22.3075 15.6525 22.025 16.27 21.715 16.68C21.4775 16.99 21.1175 17.2775 20.885 17.4525Z" fill="#FF7555"/>
<path d="M21.9425 6.50997C22.335 6.45997 23.025 6.49247 23.545 6.56497C23.7275 6.58997 23.905 6.49497 23.98 6.32747C24.475 5.24997 25.485 2.89997 25.675 2.34747C25.86 1.80497 24.0725 1.54997 23.665 2.22497C23.1775 3.03497 21.7725 5.92247 21.7725 5.92247C21.555 6.27247 21.61 6.55497 21.9425 6.50997ZM21.8875 14.9375C21.7475 14.8875 21.6675 14.7225 21.715 14.5725C22.045 13.5525 23.37 9.79997 23.5825 9.32747C23.8325 8.77747 24.51 8.90497 24.375 9.32747C24.26 9.68747 22.67 13.6975 22.27 14.7675C22.215 14.9225 22.0275 14.9875 21.8875 14.9375Z" fill="#78909C"/>
</svg>
