<svg width="32" height="32" viewBox="0 0 32 32" fill="none" xmlns="http://www.w3.org/2000/svg">
<g clip-path="url(#clip0_25_6420)">
<path d="M29.155 31.065H2.83001C1.79251 31.065 0.950012 30.2225 0.950012 29.185V2.85998C0.950012 1.82248 1.79251 0.97998 2.83001 0.97998H29.155C30.1925 0.97998 31.035 1.82248 31.035 2.85998V29.185C31.0375 30.2225 30.195 31.065 29.155 31.065Z" fill="url(#paint0_radial_25_6420)"/>
<path d="M30.325 15.5975H25.575V21.0625H15.0475V4.71002H7.16249V21.0625H6.04249V12.2825H3.08499V22.945H5.45999V29.305H29.7425V26.5275H30.325V15.5975Z" fill="#A47FCD"/>
<path d="M8.10251 6.28247H8.69501V8.17997H8.10251V6.28247ZM9.36501 6.28247H9.98251V8.17997H9.36501V6.28247ZM11.3175 6.28247H10.7125V8.17997L11.3025 8.17497L11.3175 6.28247Z" fill="#3F737B"/>
<path d="M12.61 6.28247L11.96 6.28497L11.9775 8.17997H12.605L12.61 6.28247Z" fill="#A363B0"/>
<path d="M8.10251 6.28247H8.69501V8.17997H8.10251V6.28247ZM9.36501 6.28247H9.98251V8.17997H9.36501V6.28247ZM11.3275 6.28247H10.7125V8.17997L11.32 8.17497L11.3275 6.28247Z" fill="#FDE064"/>
<path d="M12.61 9.28247L11.96 9.28497L11.9775 11.18H12.605L12.61 9.28247Z" fill="#A463B0"/>
<path d="M8.10251 9.28247H8.69501V11.18H8.10251V9.28247Z" fill="#FDE064"/>
<path d="M9.36501 9.28247H9.98251V11.18H9.36501V9.28247ZM11.3275 9.28247H10.7125V11.18L11.32 11.175L11.3275 9.28247ZM8.10251 12.2825H8.69501V14.18H8.10251V12.2825ZM9.36501 12.2825H9.98251V14.18H9.36501V12.2825ZM11.3275 12.2825H10.7125V14.18L11.32 14.175L11.3275 12.2825Z" fill="#A463B0"/>
<path d="M13.34 6.28247L13.3375 8.17997H13.9775V6.28247H13.34Z" fill="#A363B0"/>
<path d="M26.3875 20.3H27.1075V21.285H26.3875V20.3ZM27.825 20.3H28.545V21.285H27.825V20.3Z" fill="#A463B0"/>
<path d="M26.3875 18.4575H27.1075V19.4425H26.3875V18.4575Z" fill="#FDE064"/>
<path d="M27.825 18.4575H28.545V19.4425H27.825V18.4575Z" fill="#A463B0"/>
<path d="M26.3875 16.7075H27.1075V17.6925H26.3875V16.7075ZM27.825 16.7075H28.545V17.6925H27.825V16.7075Z" fill="#FDE064"/>
<path d="M28.75 12.35C28.66 12.5325 28.75 23.025 28.75 23.025H24.7825V17.025H23.505V15.1075H22.3725V13.48H20.3325V15.19H19.035V16.9825H17.695V25.72H16.435V15.97H17.0225V14.11H16.435V10.2575H15.7725L14.87 7.46748H13.0925L12.2 10.2575H11.5025V14.11H10.8825V15.97H11.5025V25.72H9.70751V16.9575H4.29751V7.11748C4.29751 7.11748 0.960012 7.09498 0.950012 7.10498V29.185C0.950012 30.2225 1.79251 31.065 2.83001 31.065H29.155C30.1925 31.065 31.035 30.2225 31.035 29.185V12.35H28.75Z" fill="url(#paint1_radial_25_6420)"/>
<path d="M1.42749 29.0525H8.91999V29.64H1.42749V29.0525ZM1.42749 26.965H8.91999V27.5525H1.42749V26.965Z" fill="#A463B0"/>
<path d="M1.42749 24.8025H8.91999V25.39H1.42749V24.8025ZM1.42749 22.715H8.91999V23.3025H1.42749V22.715ZM1.42749 20.3025H8.91999V20.89H1.42749V20.3025ZM1.42749 18.215H8.91999V18.8025H1.42749V18.215Z" fill="#FDE064"/>
<path d="M1.42749 15.83H1.86749V16.755H1.42749V15.83Z" fill="#A463B0"/>
<path d="M2.92749 15.83H3.36749V16.755H2.92749V15.83ZM1.42749 13.9725H1.86749V14.8975H1.42749V13.9725ZM2.92749 13.9725H3.36749V14.8975H2.92749V13.9725ZM1.42749 12.115H1.86749V13.04H1.42749V12.115ZM2.92749 12.115H3.36749V13.04H2.92749V12.115ZM1.42749 10.2575H1.86749V11.1825H1.42749V10.2575ZM2.92749 10.2575H3.36749V11.1825H2.92749V10.2575ZM1.42749 8.39752H1.86749V9.32252H1.42749V8.39752Z" fill="#FDE064"/>
<path d="M2.92749 8.39752H3.36749V9.32252H2.92749V8.39752Z" fill="#A463B0"/>
<path d="M12.45 16.1275H13.0175V17.3175H12.45V16.1275ZM13.795 16.1275H14.3625V17.3175H13.795V16.1275ZM15.09 16.1275H15.6575V17.3175H15.09V16.1275ZM12.45 18.3775H13.0175V19.5675H12.45V18.3775ZM12.45 24.425H13.0175V25.615H12.45V24.425Z" fill="#FDE064"/>
<path d="M13.795 24.425H14.3625V25.615H13.795V24.425ZM15.09 24.425H15.6575V25.615H15.09V24.425ZM13.795 18.3775H14.3625V19.5675H13.795V18.3775Z" fill="#A463B0"/>
<path d="M15.09 18.3775H15.6575V19.5675H15.09V18.3775Z" fill="#FDE064"/>
<path d="M12.45 20.6275H13.0175V21.8175H12.45V20.6275Z" fill="#A463B0"/>
<path d="M13.795 20.6275H14.3625V21.8175H13.795V20.6275ZM15.09 20.6275H15.6575V21.8175H15.09V20.6275Z" fill="#FDE064"/>
<path d="M13.5025 13.49H14.6675V11.76C14.6675 11.76 14.71 11.11 14.08 11.095C13.4875 11.08 13.48 11.745 13.48 11.745C13.48 11.745 13.5175 13.49 13.5025 13.49Z" fill="#A463B0"/>
<path d="M19.9625 16.04H20.53V18.4625H19.9625V16.04ZM22.09 16.04H22.6575V18.4625H22.09V16.04ZM21.0375 16.04H21.605V18.4625H21.0375V16.04ZM19.0925 19.395H19.66V20.1675H19.0925V19.395ZM21.0475 19.395H21.615V20.1675H21.0475V19.395ZM23.0025 19.395H23.57V20.1675H23.0025V19.395Z" fill="#FDE064"/>
<path d="M19.0925 21.895H19.66V22.6675H19.0925V21.895Z" fill="#A463B0"/>
<path d="M21.0475 21.895H21.615V22.6675H21.0475V21.895ZM23.0025 21.895H23.57V22.6675H23.0025V21.895ZM19.0925 24.2575H19.66V25.03H19.0925V24.2575ZM21.0475 24.2575H21.615V25.03H21.0475V24.2575ZM23.0025 24.2575H23.57V25.03H23.0025V24.2575Z" fill="#FDE064"/>
<path d="M19.0925 26.7575H19.66V27.53H19.0925V26.7575Z" fill="#A463B0"/>
<path d="M21.0475 26.7575H21.615V27.53H21.0475V26.7575Z" fill="#FDE064"/>
<path d="M23.0025 26.7575H23.57V27.53H23.0025V26.7575ZM19.0925 29.125H19.66V29.8975H19.0925V29.125ZM21.0475 29.125H21.615V29.8975H21.0475V29.125ZM23.0025 29.125H23.57V29.8975H23.0025V29.125Z" fill="#A463B0"/>
</g>
<defs>
<radialGradient id="paint0_radial_25_6420" cx="0" cy="0" r="1" gradientUnits="userSpaceOnUse" gradientTransform="translate(16.5573 34.3047) scale(33.7202 33.7203)">
<stop offset="0.408" stop-color="#F4704F"/>
<stop offset="0.463" stop-color="#EF6F55"/>
<stop offset="0.536" stop-color="#E16D66"/>
<stop offset="0.621" stop-color="#CA6982"/>
<stop offset="0.713" stop-color="#A964A9"/>
<stop offset="0.727" stop-color="#A463B0"/>
<stop offset="0.772" stop-color="#9361B0"/>
<stop offset="0.861" stop-color="#655CAF"/>
<stop offset="0.944" stop-color="#3657AE"/>
</radialGradient>
<radialGradient id="paint1_radial_25_6420" cx="0" cy="0" r="1" gradientUnits="userSpaceOnUse" gradientTransform="translate(14.2473 5.81973) scale(25.0985)">
<stop offset="0.46" stop-color="#513076"/>
<stop offset="0.951" stop-color="#412769"/>
</radialGradient>
<clipPath id="clip0_25_6420">
<rect width="32" height="32" fill="white"/>
</clipPath>
</defs>
</svg>
