<svg width="32" height="32" viewBox="0 0 32 32" fill="none" xmlns="http://www.w3.org/2000/svg">
<path d="M29.2175 8.07251H2.7825L1 12.49H31L29.2175 8.07251Z" fill="#F44336"/>
<path d="M24.975 6.65247H7.025C6.69 6.65247 6.355 6.71247 6.0425 6.83247L2.78 8.07247H29.2175L25.955 6.83247C25.6425 6.71247 25.31 6.65247 24.975 6.65247Z" fill="#FF7555"/>
<path d="M29.9925 29.4025H2.0075C1.45 29.4025 1 28.9525 1 28.395V12.49H31V28.395C31 28.9525 30.55 29.4025 29.9925 29.4025Z" fill="#C62828"/>
<path d="M1 17.525H31" stroke="#A80707" stroke-width="0.53325" stroke-miterlimit="10"/>
<path d="M10.2625 16.3199H6.13249C5.89749 16.3199 5.70499 16.4849 5.70499 16.6874V19.1149C5.70499 19.3174 5.89499 19.4824 6.13249 19.4824H6.74499V20.7474C6.74499 21.2874 7.25249 21.7249 7.87999 21.7249H8.51749C9.14249 21.7249 9.65249 21.2874 9.65249 20.7474V19.4824H10.265C10.5 19.4824 10.6925 19.3174 10.6925 19.1149V16.6874C10.6875 16.4849 10.4975 16.3199 10.2625 16.3199Z" fill="#A80707"/>
<path d="M9.97 18.98H6.4225C6.2725 18.98 6.1525 18.86 6.1525 18.71V16.145C6.1525 15.995 6.2725 15.875 6.4225 15.875H9.9675C10.1175 15.875 10.2375 15.995 10.2375 16.145V18.71C10.24 18.86 10.1175 18.98 9.97 18.98Z" fill="#558EA0"/>
<path d="M7.005 17.5074H9.3875" stroke="#332424" stroke-width="0.7075" stroke-miterlimit="10"/>
<path d="M9.3875 17.155H7.005V15.8275C7.005 15.6372 7.0806 15.4547 7.21515 15.3201C7.34971 15.1856 7.53221 15.11 7.7225 15.11H8.6725C8.86279 15.11 9.04529 15.1856 9.17985 15.3201C9.31441 15.4547 9.39 15.6372 9.39 15.8275V17.155H9.3875ZM7.005 17.82H9.3875V20.465C9.3875 20.5592 9.36894 20.6525 9.33289 20.7396C9.29683 20.8266 9.24398 20.9057 9.17735 20.9723C9.11073 21.039 9.03163 21.0918 8.94458 21.1279C8.85753 21.1639 8.76423 21.1825 8.67 21.1825H7.72C7.62578 21.1825 7.53248 21.1639 7.44543 21.1279C7.35838 21.0918 7.27928 21.039 7.21265 20.9723C7.14603 20.9057 7.09318 20.8266 7.05712 20.7396C7.02106 20.6525 7.0025 20.5592 7.0025 20.465V17.82H7.005Z" fill="#82AEC0"/>
<path d="M8.95751 19.8975C9.06501 19.8975 9.19251 19.9875 9.22251 20.1475C9.23751 20.2375 9.18751 20.4225 9.11751 20.4825C8.99001 20.59 8.82001 20.66 8.64251 20.7025C8.36751 20.77 8.06751 20.7825 7.79501 20.71C7.52251 20.64 7.23751 20.5025 7.15501 20.275C7.03001 19.9275 7.49751 19.9025 8.95751 19.8975Z" fill="#A1D5E5"/>
<path d="M25.8675 16.3199H21.7375C21.5025 16.3199 21.31 16.4849 21.31 16.6874V19.1149C21.31 19.3174 21.5 19.4824 21.7375 19.4824H22.35V20.7474C22.35 21.2874 22.8575 21.7249 23.485 21.7249H24.1225C24.7475 21.7249 25.2575 21.2874 25.2575 20.7474V19.4824H25.87C26.105 19.4824 26.2975 19.3174 26.2975 19.1149V16.6874C26.295 16.4849 26.105 16.3199 25.8675 16.3199Z" fill="#A80707"/>
<path d="M25.5775 18.98H22.03C21.88 18.98 21.76 18.86 21.76 18.71V16.145C21.76 15.995 21.88 15.875 22.03 15.875H25.575C25.725 15.875 25.845 15.995 25.845 16.145V18.71C25.845 18.86 25.725 18.98 25.5775 18.98Z" fill="#558EA0"/>
<path d="M22.6125 17.5074H24.995" stroke="#332424" stroke-width="0.7075" stroke-miterlimit="10"/>
<path d="M24.995 17.155H22.6125V15.8275C22.6125 15.6372 22.6881 15.4547 22.8226 15.3201C22.9572 15.1856 23.1397 15.11 23.33 15.11H24.28C24.4703 15.11 24.6528 15.1856 24.7873 15.3201C24.9219 15.4547 24.9975 15.6372 24.9975 15.8275V17.155H24.995ZM22.6125 17.82H24.995V20.465C24.995 20.5592 24.9764 20.6525 24.9404 20.7396C24.9043 20.8266 24.8515 20.9057 24.7848 20.9723C24.7182 21.039 24.6391 21.0918 24.5521 21.1279C24.465 21.1639 24.3717 21.1825 24.2775 21.1825H23.3275C23.2333 21.1825 23.14 21.1639 23.0529 21.1279C22.9659 21.0918 22.8868 21.039 22.8201 20.9723C22.7535 20.9057 22.7007 20.8266 22.6646 20.7396C22.6285 20.6525 22.61 20.5592 22.61 20.465V17.82H22.6125Z" fill="#82AEC0"/>
<path d="M24.6375 19.8976C24.7125 19.9001 24.85 19.9226 24.9 20.0701C24.95 20.2176 24.85 20.3726 24.7225 20.4801C24.595 20.5876 24.425 20.6576 24.2475 20.7001C23.9725 20.7676 23.6725 20.7801 23.4 20.7076C23.1275 20.6376 22.8825 20.4826 22.76 20.2726C22.565 19.9401 23.2175 19.8376 24.6375 19.8976Z" fill="#A1D5E5"/>
<path d="M22.6325 6.76248C22.515 6.60498 22.13 6.44498 22.0175 6.37998C21.265 5.93248 21.3425 4.69998 20.8375 3.89998C20.3875 3.18498 19.585 2.59998 18.74 2.59998H14.0225C13.1775 2.59998 12.375 3.18748 11.925 3.89998C11.42 4.69998 11.4975 5.93248 10.745 6.37998C10.635 6.44498 10.2475 6.60748 10.13 6.76248C9.985 6.95748 10.13 7.16248 10.13 7.16248H11.495C12.1625 7.16248 12.5375 6.03998 12.595 5.88748C12.8225 5.26248 13.2375 4.33998 14.0225 4.33998H18.74C19.525 4.33998 19.94 5.26498 20.1675 5.88748C20.2225 6.03998 20.5975 7.16248 21.2675 7.16248H22.6325C22.6325 7.16248 22.7775 6.95748 22.6325 6.76248Z" fill="#424242"/>
<path d="M12.805 3.34754C13.1625 3.05004 13.625 2.87254 14.09 2.87754C14.2175 2.88004 14.35 2.89504 14.4575 2.96504C14.565 3.03504 14.64 3.16754 14.6075 3.29254C14.5725 3.42504 14.435 3.50254 14.3075 3.55254C13.845 3.73254 13.31 3.77254 12.9425 4.10254C12.69 4.33004 12.5575 4.65754 12.3775 4.94504C12.29 5.08504 12.1725 5.22754 12.0075 5.24504C11.95 5.25004 11.8875 5.23754 11.85 5.19504C11.785 5.12004 11.825 5.00504 11.8675 4.91754C12.005 4.63254 12.085 4.33254 12.2325 4.05504C12.3875 3.77004 12.59 3.57504 12.805 3.34754Z" fill="#616161"/>
<path d="M8.29999 15.8625C7.97999 15.875 7.66999 16.0425 7.50999 16.2925C7.47249 16.35 7.41998 16.42 7.34998 16.405C7.29498 16.3925 7.27249 16.335 7.25999 16.285C7.20749 16.075 7.18999 15.8325 7.31249 15.64C7.43999 15.4375 7.68748 15.32 7.92748 15.29C8.41248 15.2325 8.77248 15.21 8.85498 15.5125C8.95248 15.87 8.55499 15.8525 8.29999 15.8625ZM23.895 15.8625C23.575 15.875 23.265 16.0425 23.105 16.2925C23.0675 16.35 23.015 16.42 22.945 16.405C22.89 16.3925 22.8675 16.335 22.855 16.285C22.8025 16.075 22.785 15.8325 22.9075 15.64C23.035 15.4375 23.2825 15.32 23.5225 15.29C24.0075 15.2325 24.3675 15.21 24.45 15.5125C24.55 15.87 24.15 15.8525 23.895 15.8625Z" fill="#A1D5E5"/>
</svg>
