<svg width="32" height="32" viewBox="0 0 32 32" fill="none" xmlns="http://www.w3.org/2000/svg">
<path d="M15.545 5.72001C16.9325 5.70001 18.3075 5.97501 19.5675 6.47001C21.7425 7.32501 26.6675 7.77751 27.645 9.55001C28.8025 11.65 26.975 16.8275 27.0775 17.6775C27.175 18.5 27.1975 19.545 27.095 20.3475C26.915 21.7475 26.3625 23.1075 25.4075 24.3325C24.4425 25.5675 22.9375 26.6275 20.8475 27.2425C16.44 28.535 10.5775 27.71 8.27751 25.805C7.41501 25.0925 6.77501 24.34 6.31751 23.535C5.55251 22.195 5.28751 20.7125 5.33251 19.03C5.40501 16.3375 2.48251 12.3375 4.49501 10.075C6.50751 7.81251 11.545 6.61501 11.545 6.61501C11.545 6.61501 13.1375 5.75751 15.545 5.72001Z" fill="#B0B0B0"/>
<path d="M23.24 8.68998C23.3 8.94248 23.935 9.76748 24.725 11.3C25.4825 12.7675 26.09 14.2925 26.21 14.3175C26.495 14.375 29.4425 13.455 29.465 13.36C29.49 13.265 28.46 8.33248 28.46 8.33248L23.7925 7.03998L23.24 8.68998ZM7.04501 11.4675C7.83501 9.60998 8.47001 9.08498 8.54251 8.77498C8.61501 8.46498 5.79001 7.89998 5.79001 7.89998L2.70001 9.74248L3.46501 13.43C3.46501 13.43 5.59501 15.19 5.74001 15.165C5.88501 15.1425 6.25501 13.3225 7.04501 11.4675Z" fill="#FEBDBE"/>
<path d="M11.6775 6.6075C11.7725 5.72 8.23001 4.8125 7.15251 5.435C6.36501 5.89 7.20001 6.2975 6.86501 6.585C6.64251 6.775 4.61501 5.82 3.10751 6.9675C1.96001 7.84 2.60501 7.925 2.53251 8.2125C2.46001 8.5 1.74251 8.955 1.28751 9.65C0.832513 10.345 0.592513 11.3375 0.737513 11.4925C0.915013 11.685 1.43501 11.3 1.50251 11.685C1.57501 12.0925 0.695013 13.43 1.09501 14.6525C1.47751 15.825 1.81251 14.94 2.07751 15.3C2.34001 15.66 2.10251 16.185 2.72501 17.31C3.14001 18.06 3.62501 18.295 3.80251 18.34C4.09001 18.4125 4.04251 18.0525 4.40001 18.03C4.76001 18.005 5.33251 19.035 5.33251 19.035C5.33251 19.035 5.30751 18.1725 5.46501 16.8325C5.62251 15.4825 5.90751 15.06 5.88501 14.845C5.86001 14.63 3.54001 13.2175 4.35251 10.8C5.16501 8.3825 7.39251 8.8125 7.68001 8.885C7.96751 8.9575 8.42251 9.125 9.09251 8.9575C9.76251 8.785 11.5825 7.4925 11.6775 6.6075Z" fill="url(#paint0_linear_7_763)"/>
<path d="M19.4575 6.48753C19.42 6.79003 20.3475 7.50503 20.965 7.90003C21.8275 8.45003 22.76 8.78503 23.12 8.78503C23.48 8.78503 26.0875 7.30003 27.43 9.55003C28.77 11.8 26.28 13.98 26.21 14.315C26.1975 14.7825 26.3925 15.0475 26.6525 16.0625C26.8925 16.995 27 17.3425 27.06 17.715C27.15 17.87 28.1775 17.0525 28.7475 16.1825C29.155 15.56 29.1775 14.9125 29.4175 14.8425C29.6575 14.77 29.8 15.5125 30.1125 15.465C30.4225 15.4175 30.985 13.79 30.8675 12.665C30.7 11.085 29.755 10.5575 30.0425 10.055C30.33 9.55253 30.975 10.15 31.1925 9.74503C31.4075 9.33753 30.8825 8.19002 30.09 7.63752C29.2975 7.08502 28.51 7.15753 28.39 6.87252C28.27 6.58502 28.7975 6.44253 28.7975 6.13003C28.7975 5.82003 27.935 5.34003 26.4275 5.26753C25.1325 5.20503 23.9625 5.89003 23.89 5.50753C23.8175 5.12503 24.1525 5.14753 24.13 4.98003C24.105 4.81253 23.21 4.41752 21.88 4.78752C20.8475 5.07502 19.505 6.11003 19.4575 6.48753Z" fill="url(#paint1_linear_7_763)"/>
<path d="M21.205 14.8C20.305 14.845 20.145 15.86 20.2 16.5425C20.2575 17.28 20.4525 18.1575 21.385 18.14C22.3375 18.1225 22.57 17.1175 22.5875 16.345C22.6075 15.5725 22.3025 14.7475 21.205 14.8ZM10.935 14.7475C10.035 14.7925 9.79751 15.5175 9.82251 16.2025C9.85751 17.2625 10.47 18.07 11.115 18.0875C12.0675 18.115 12.265 17.225 12.2825 16.4525C12.3 15.68 12.03 14.6925 10.935 14.7475Z" fill="#2F2F2F"/>
<path d="M21.4225 15.9325C21.2675 16.295 20.9075 16.5675 20.6875 16.475C20.4675 16.3825 20.4175 16.0125 20.5725 15.65C20.7275 15.2875 21.03 15.07 21.2475 15.165C21.4675 15.2575 21.5775 15.57 21.4225 15.9325ZM11.17 16.0925C10.9825 16.4175 10.5225 16.6475 10.3075 16.5225C10.0925 16.4 10.135 15.9725 10.3225 15.6475C10.51 15.3225 10.835 15.1575 11.05 15.2825C11.2625 15.405 11.3575 15.7675 11.17 16.0925Z" fill="#DFDFDF"/>
<path d="M16.9325 23.6175L15.065 23.5825L13.52 23.0625C13.52 23.0625 13.49 24.0375 13.5375 24.625C13.5925 25.2725 14.22 26.6375 16.2675 26.6C18.26 26.565 18.925 25.3475 18.9425 24.6075C18.96 23.8725 18.925 23.2975 18.925 23.2975L16.9325 23.6175Z" fill="url(#paint2_radial_7_763)"/>
<path d="M16.2325 23.2225C15.6575 23.24 14.8675 23.08 14.5625 22.97C14.2575 22.8625 13.8075 22.54 13.52 22.88C13.2325 23.22 13.645 23.67 14.31 23.885C14.975 24.1 15.4775 24.225 16.195 24.2075C17.0925 24.185 17.9175 24.0275 18.205 23.9375C18.4925 23.8475 19.1675 23.555 18.9775 23.0925C18.7625 22.5725 18.385 22.9125 17.9 23.0375C17.4175 23.1675 16.8425 23.2025 16.2325 23.2225Z" fill="#2F2F2F"/>
<path d="M16.215 14.9975C14.42 14.96 13.8625 16.415 13.72 17.3675C13.5775 18.32 13.435 19.3025 13.69 20.4675C13.9425 21.6175 14.85 22.2725 16.1975 22.25C17.3825 22.2325 18.0675 21.815 18.425 21.12C18.82 20.3475 18.8025 19.575 18.73 17.905C18.6575 16.2375 17.885 15.0325 16.215 14.9975Z" fill="#303030"/>
<path d="M16.565 21.435C16.565 21.6075 16.8225 21.7075 17.1125 21.6225C17.4175 21.5325 17.8925 21.255 18.0375 20.93C18.115 20.7575 18.055 20.5 17.8675 20.58C17.68 20.66 17.5275 20.84 17.265 21.0025C17.005 21.165 16.565 21.3 16.565 21.435ZM15.1725 20.985C14.7725 20.7425 14.6425 20.545 14.4625 20.6075C14.2825 20.67 14.3825 21.03 14.57 21.19C14.7575 21.35 15.09 21.6025 15.4325 21.675C15.7 21.73 15.8825 21.5225 15.7925 21.405C15.7025 21.29 15.47 21.165 15.1725 20.985Z" fill="#AFAFAF"/>
<defs>
<linearGradient id="paint0_linear_7_763" x1="2.95976" y1="18.2143" x2="7.62601" y2="4.66225" gradientUnits="userSpaceOnUse">
<stop offset="0.182" stop-color="#C9C7C8"/>
<stop offset="0.256" stop-color="#BDBCBD"/>
<stop offset="0.411" stop-color="#A8A8AA"/>
<stop offset="0.498" stop-color="#9E9EA1"/>
<stop offset="0.648" stop-color="#828487"/>
<stop offset="0.799" stop-color="#606468"/>
</linearGradient>
<linearGradient id="paint1_linear_7_763" x1="29.3" y1="16.7708" x2="23.605" y2="3.97927" gradientUnits="userSpaceOnUse">
<stop offset="0.164" stop-color="#C9C7C8"/>
<stop offset="0.244" stop-color="#BDBCBD"/>
<stop offset="0.411" stop-color="#A8A8AA"/>
<stop offset="0.486" stop-color="#96979A"/>
<stop offset="0.674" stop-color="#6F7276"/>
<stop offset="0.772" stop-color="#606468"/>
</linearGradient>
<radialGradient id="paint2_radial_7_763" cx="0" cy="0" r="1" gradientUnits="userSpaceOnUse" gradientTransform="translate(16.1605 19.7207) scale(6.04775 6.04775)">
<stop offset="0.784" stop-color="#FEBDBB"/>
<stop offset="0.821" stop-color="#F5BEBC"/>
<stop offset="0.88" stop-color="#DCC1C0"/>
<stop offset="0.922" stop-color="#C7C3C3"/>
</radialGradient>
</defs>
</svg>
