<svg width="32" height="32" viewBox="0 0 32 32" fill="none" xmlns="http://www.w3.org/2000/svg">
<path d="M3.9975 8.94L2.9325 9.185C2.9325 9.185 1.455 11.465 1.1325 13.89C0.929998 15.4125 0.922497 17.4 1.0625 18.39C1.205 19.38 1.715 21.4875 2.5175 22.9725C3.29 24.4025 4.0425 24.965 4.865 25.4625C5.2175 25.675 5.5325 26.4025 6.0825 26.755C6.5975 27.085 7.2775 27.15 7.2775 27.15C7.2775 27.15 9.1575 30.1025 13.225 30.615C17.9975 31.215 20.3325 29.06 20.3325 29.06C20.3325 29.06 22.2425 29.055 24.045 28.2825C26.0675 27.415 27.1475 25.61 27.1475 25.61C27.1475 25.61 29.68 23.43 30.4825 20.82C31.1275 18.725 31.145 14.7425 30.65 12.8675C30.155 10.9925 29.1975 9.405 28.4375 8.3875C27.8325 7.5775 21.0775 3.9875 20.2625 3.6675C19.45 3.35 11.8825 2.855 11.6 3.0675C11.3175 3.2825 3.9975 8.94 3.9975 8.94Z" fill="#AC5811"/>
<path d="M6.63251 4.93749C4.87001 6.37249 3.95751 7.12249 3.04251 8.91749C2.12751 10.7125 2.42251 13.095 2.58751 13.975C2.75001 14.855 3.04501 16.5525 3.20751 17.4C3.37001 18.25 3.80251 20.265 5.00001 21.5125C6.67751 23.26 8.19751 23.8625 8.19751 23.8625C8.19751 23.8625 9.43001 25.7725 12.4075 26.865C16.3225 28.3 18.085 26.2125 19.585 25.6575C21.085 25.1025 22.88 25.07 24.415 23.9925C25.9475 22.915 27.645 21.61 28.755 18.87C29.865 16.13 29.635 14.9225 29.6675 14.2375C29.7 13.5525 29.6025 10.2575 28.33 8.23499C27.0575 6.21249 25.5275 4.9975 24.9375 4.6125C23.6325 3.765 18.9725 1.7375 17.8 1.51C16.625 1.2825 12.435 1.6375 10.7725 2.3225C9.11001 3.0075 6.63251 4.93749 6.63251 4.93749Z" fill="url(#paint0_radial_508_6404)"/>
<path d="M14.07 17.865C13.7925 17.7775 13.5 17.365 13.43 16.4825C13.3325 15.225 14.26 14.8775 14.26 14.8775C14.26 14.8775 15.365 14.585 16.1425 14.3075C16.865 14.05 17.385 13.72 17.385 13.72C17.385 13.72 17.455 12.3725 17.9025 11.975C18.3525 11.5775 19.145 11.6125 20.0275 11.715C20.9075 11.8175 22.325 12.405 22.1175 12.94C21.91 13.475 21.6675 14.01 20.8225 14.495C19.9775 14.9775 19.3725 15.4275 18.94 15.8075C18.5075 16.19 17.715 16.67 16.4025 17.155C15.09 17.64 14.47 17.99 14.07 17.865ZM6.63748 6.61752C5.80748 6.44752 4.63498 8.24502 4.41748 8.84002C4.19748 9.43502 3.97248 10.885 3.94748 11.5475C3.91498 12.37 3.89998 13.1425 4.24498 13.77C4.50998 14.255 5.15248 14.5275 5.72998 14.0275C6.30748 13.5275 7.30998 12.1575 7.57498 11.965C7.83998 11.7725 8.61498 11.5175 8.30998 10.2575C8.18498 9.74252 6.91748 8.67752 6.85498 8.53252C6.79498 8.39002 7.10748 6.71502 6.63748 6.61752ZM12.505 4.36002C12.5375 4.84252 12.9325 5.61502 13.36 6.03252C14 6.65502 16.935 8.76002 17.695 8.64002C18.455 8.52002 19.2825 7.15502 19.525 6.77502C19.7675 6.39502 20.25 5.86002 20.44 5.61752C20.63 5.37502 21.13 4.82252 20.7175 4.27002C20.3025 3.71752 19.2675 3.35502 18.5775 3.30252C17.8875 3.25002 16.815 2.80252 15.9 2.83752C14.985 2.87252 12.42 3.11502 12.505 4.36002ZM24.585 10.7975C24.6425 11.3225 25.38 11.4375 25.9675 11.8175C26.555 12.1975 26.9525 12.595 27.2975 12.49C27.6425 12.3875 28.1125 11.835 28.005 10.8675C27.8675 9.62502 27.09 8.03502 26.0025 8.08752C25.345 8.12002 25.435 9.26252 25.435 9.26252C25.435 9.26252 24.55 10.4875 24.585 10.7975Z" fill="#FFC86E"/>
<path d="M10.3675 7.5575C10.3675 7.5575 8.00998 7.5425 8.05248 7.7775C8.09748 8.0125 8.30248 8.7875 8.91748 8.8175C9.53248 8.8475 10.325 8.905 10.705 8.7875C11.085 8.67 12.14 7.82 12.14 7.44C12.14 7.06 11.715 6.5025 11.715 6.5025L10.3675 7.5575ZM13.735 11.88C13.735 11.88 13.7075 11.8975 13.6675 11.93C13.55 12.0275 13.325 12.255 13.4125 12.51C13.53 12.8475 14.2175 13.4775 14.8925 13.4775C15.5675 13.4775 15.9325 12.8475 16.05 12.4375C16.1675 12.0275 16.1075 11.7775 16.1075 11.7775L13.735 11.88ZM8.47748 13.8C8.47748 13.8 8.06748 13.9475 8.08248 14.21C8.09748 14.4725 8.19998 14.9575 8.72748 15.47C9.25998 15.9875 10.0325 16.13 10.735 15.94C11.4375 15.75 11.95 15.2225 11.8925 14.52C11.835 13.8175 11.16 13.275 11.16 13.275L8.47748 13.8ZM5.44498 17.6825C5.44498 17.6825 5.00498 17.785 5.04998 18.0775C5.09498 18.37 5.59248 19.2925 6.38248 19.19C7.17248 19.0875 8.41998 18.18 8.41998 17.8275C8.41998 17.475 7.78998 17.0075 7.78998 17.0075L5.44498 17.6825ZM10.835 21.345C10.835 21.345 10.6725 22.29 11.9475 22.635C14.0725 23.2075 14.2925 21.9175 14.2925 21.9175L10.835 21.345ZM19.1825 21.7825C19.1825 21.7825 18.6125 22.3525 19.26 22.8C19.9075 23.2475 20.645 23.4 21.34 23.3225C22.035 23.245 22.51 22.69 22.51 22.69L19.1825 21.7825ZM24.5025 15.4525C24.5025 15.4525 23.4275 15.995 24.26 16.9325C24.8925 17.6475 26.34 17.5025 26.9325 17.1C27.32 16.8375 27.435 16.3725 27.29 16.1375C27.1425 15.9025 24.5025 15.4525 24.5025 15.4525ZM20.3425 9.2425C20.3425 9.2425 20.285 10.47 21.94 10.43C24.255 10.3725 23.9625 8.935 23.9625 8.935L20.3425 9.2425Z" fill="#CF701E"/>
<path d="M21.4125 7.70502C21.4125 7.70502 20.3275 8.38002 20.21 8.65752C20.0925 8.93502 19.8425 9.81502 21.1025 9.75752C22.3625 9.70002 23.6225 9.65502 24.0475 9.14252C24.4725 8.63002 24.37 8.16002 24.195 7.78002C24.02 7.40002 23.035 5.96252 22.2525 5.98002C21.74 5.99002 21.4125 7.70502 21.4125 7.70502Z" fill="#593329"/>
<path d="M22.2475 5.975C22.2475 5.975 21.56 5.8875 20.9575 6.9575C20.3575 8.0275 20.2025 8.665 20.2025 8.665C20.2025 8.665 21.425 8.67 22.1575 8.5825C22.89 8.495 23.3875 8.04 23.3875 8.04C23.3875 8.04 22.79 6.1075 22.2475 5.975Z" fill="#925849"/>
<path d="M13.9275 10.9725C13.9275 10.9725 13.3275 10.9325 13.2825 11.165C13.2375 11.4 13.37 11.9975 13.575 12.26C13.78 12.5225 14.395 13.11 15.01 12.9925C15.625 12.875 15.99 12.2725 16.0925 12.065C16.185 11.87 16.285 11.66 16.11 11.3975C15.9325 11.1325 13.9275 10.9725 13.9275 10.9725Z" fill="#593329"/>
<path d="M14.82 10.035C14.31 9.98001 13.08 10.9575 13.3 11.2925C13.545 11.66 13.5875 11.4275 14.2625 11.765C14.82 12.0425 15.0625 12.3 15.4125 12.255C15.7625 12.21 16.18 11.6325 16.1075 11.3975C16.035 11.1625 15.51 10.1075 14.82 10.035Z" fill="#925849"/>
<path d="M9.04751 6.07748L7.84751 6.90748C7.84751 6.90748 7.80251 7.46998 8.05251 7.77748C8.30251 8.08498 8.37501 8.27498 9.54751 8.27498C10.72 8.27498 11.8175 8.11498 12.0225 7.27998C12.2275 6.44498 11.8675 5.90998 11.6475 5.60248C11.4275 5.29498 9.04751 6.07748 9.04751 6.07748Z" fill="#593329"/>
<path d="M9.06251 4.77503C8.79251 4.89003 8.15501 5.75753 8.00751 6.13753C7.86001 6.51753 7.82751 6.92253 7.84751 6.92753C8.09001 6.98753 9.51751 7.12003 10.1475 7.01753C10.7775 6.91503 11.29 6.63753 11.495 6.27003C11.6575 5.97753 11.645 5.59003 11.645 5.59003C11.645 5.59003 11.2175 4.82003 10.63 4.58503C10.045 4.35003 9.16501 4.73003 9.06251 4.77503Z" fill="#925949"/>
<path d="M8.05749 13.855C8.05749 13.855 7.95749 14.0075 8.14749 14.3C8.33749 14.5925 8.70999 14.9425 9.26749 15.105C9.82499 15.265 10.22 15.485 10.585 15.4425C10.9525 15.3975 11.67 15.105 11.6975 14.095C11.7275 13.085 11.5225 12.615 11.0825 12.175C10.6425 11.735 10.325 11.81 10.325 11.81L8.05749 13.855Z" fill="#593329"/>
<path d="M8.18498 12.92C8.02998 13.18 7.91498 14.025 8.10498 14.215C8.29498 14.405 9.43748 14.4175 9.73748 14.385C10.04 14.3525 11.0275 13.8875 11.0425 13.535C11.0575 13.1825 10.8675 12.715 10.8675 12.54C10.8675 12.365 11.0875 11.955 10.4875 11.8075C9.88748 11.66 8.50498 12.3775 8.18498 12.92Z" fill="#925849"/>
<path d="M6.20497 16.715C6.20497 16.715 5.26247 16.9475 5.20247 17.27C5.14497 17.5925 5.27997 17.9175 5.60247 18.225C5.92497 18.5325 6.15997 18.855 6.40747 18.825C6.65747 18.795 7.31497 18.21 7.51997 18.02C7.72497 17.83 8.01747 17.4925 7.98997 17.215C7.96247 16.9375 7.84247 16.6575 7.57997 16.4375C7.31997 16.2175 6.20497 16.715 6.20497 16.715Z" fill="#593329"/>
<path d="M6.43998 15.88C5.99998 15.89 5.66248 16.4225 5.51748 16.6125C5.36998 16.8025 5.12248 17.2575 5.22498 17.33C5.32748 17.4025 5.75248 17.4475 5.95748 17.58C6.16248 17.7125 6.46998 17.9175 6.70498 17.7275C6.93998 17.5375 7.14498 17.01 7.26248 16.835C7.37998 16.66 7.58498 16.44 7.58498 16.44C7.58498 16.44 7.14248 15.865 6.43998 15.88Z" fill="#925849"/>
<path d="M11.8175 19.41C11.73 19.5125 10.485 20.5225 10.485 20.5225C10.485 20.5225 10.53 21.4025 10.8075 21.6075C11.085 21.8125 11.95 22.105 12.5075 22.2225C13.065 22.34 14.06 22.4725 14.31 22.37C14.56 22.2675 14.8225 21.725 14.8375 21.0225C14.8525 20.32 14.6025 19.795 14.325 19.4725C14.0475 19.15 13.825 19.03 13.825 19.03L11.8175 19.41Z" fill="#593329"/>
<path d="M13.4725 20.7275C13.635 20.545 13.825 19.0275 13.825 19.0275C13.825 19.0275 12.6975 18.1625 12.2275 18.105C11.7575 18.0475 11.2025 18.09 11.04 18.265C10.88 18.44 10.25 19.07 10.3075 19.48C10.365 19.89 10.4825 20.52 10.4825 20.52C10.4825 20.52 13.135 21.11 13.4725 20.7275Z" fill="#925849"/>
<path d="M18.9375 21.45C18.9375 21.45 18.795 22.4 19.84 22.58C20.885 22.7575 21.7525 22.995 22.205 22.9C22.6575 22.805 23.1075 22.2 23.155 21.76C23.2025 21.32 23.2275 20.685 23.155 20.5125C22.965 20.055 22.085 18.8025 21.6575 18.67C21.4175 18.5975 21.19 18.6375 21.19 18.6375L18.9375 21.45Z" fill="#593329"/>
<path d="M19.615 19.785C19.1475 20.3025 18.9075 21.05 18.9325 21.445C18.9575 21.8175 20.73 21.655 20.94 21.5275C21.15 21.4 21.6075 20.83 21.6225 20.64C21.6375 20.45 21.4925 19.855 21.4675 19.4875C21.4425 19.12 21.4325 18.62 21.23 18.6325C21.0275 18.645 20.28 19.05 19.615 19.785Z" fill="#925849"/>
<path d="M25.61 13.335C25.61 13.335 26.0225 13.395 26.53 13.7C27.1225 14.055 27.7425 14.96 27.695 15.6975C27.6475 16.435 27.005 16.7675 26.2225 16.78C25.44 16.7925 24.675 16.75 24.5325 16.345C24.39 15.94 25.61 13.335 25.61 13.335Z" fill="#593329"/>
<path d="M24.985 13.5825C24.8625 13.7525 24.545 14.2725 24.4375 14.9375C24.33 15.6025 24.4025 16.3625 24.64 16.495C24.8775 16.625 26.185 15.4975 26.255 15.3775C26.3275 15.2575 25.8375 13.44 25.6825 13.3575C25.5275 13.275 25.14 13.37 24.985 13.5825Z" fill="#925849"/>
<defs>
<radialGradient id="paint0_radial_508_6404" cx="0" cy="0" r="1" gradientUnits="userSpaceOnUse" gradientTransform="translate(16.041 14.399) scale(13.3005)">
<stop offset="0.507" stop-color="#F29F58"/>
<stop offset="0.715" stop-color="#F09D56"/>
<stop offset="0.826" stop-color="#EB9550"/>
<stop offset="0.914" stop-color="#E18745"/>
<stop offset="0.99" stop-color="#D47436"/>
<stop offset="1" stop-color="#D27133"/>
</radialGradient>
</defs>
</svg>
