<svg width="32" height="32" viewBox="0 0 32 32" fill="none" xmlns="http://www.w3.org/2000/svg">
<path d="M29.5075 25.58L18.0725 30.75C17.3675 31.0825 16.6325 31.05 15.9575 30.66L1.5225 23.33C1.11 23.065 0.987496 22.6775 1.0125 22.4075C1.0375 22.1375 1.1 21.845 1.825 21.635L2.895 21.24L17.375 29.1325L27.665 24.9275L29.5075 25.58Z" fill="#01579B"/>
<path d="M17.935 29.9225C17.6491 30.0567 17.3353 30.1207 17.0196 30.1094C16.704 30.0981 16.3956 30.0118 16.12 29.8575L2.0275 22.7575C1.8275 22.6475 1.7675 22.395 1.8875 22.2C2.1975 21.6875 2.7675 20.0675 1.8275 18.7225L17.7425 26.385L17.935 29.9225Z" fill="#F5F5F5"/>
<path d="M28.8975 24.995L17.935 29.9225C17.5725 30.08 16.85 30.36 16.0175 29.8C16.675 29.8475 17.1375 29.575 17.375 29.1325C17.6075 28.7025 17.5375 27.9975 17.255 27.6C17.0825 27.36 16.62 26.9775 16.4175 26.7625L28.275 22.125C29.325 21.6925 30.31 22.34 30.4675 23.1275C30.6425 24.0175 29.5075 24.745 28.8975 24.995Z" fill="#94C6D6"/>
<path d="M29.445 21.74L18.1275 26.79C17.415 27.0725 16.6175 27.035 15.935 26.69L1.475 19.345C1.335 19.275 1.1275 19.0825 1.045 18.82C0.909997 18.3825 1.08 17.8325 1.5925 17.6575L17.2625 25.645L27.9925 21.0525L29.445 21.74Z" fill="#01579B"/>
<path d="M30.2975 22.4725L29.065 22.025L26.525 22.1725L18.13 25.92C17.4175 26.2025 16.62 26.165 15.9375 25.82L1.47499 18.4775C1.10249 18.2875 1.18249 17.735 1.59249 17.6575L12.015 12.995C12.3125 12.94 12.6175 12.9725 12.895 13.09L27.7675 20.18C27.7675 20.18 30.13 21.7975 30.2975 22.4725Z" fill="#0091EA"/>
<path d="M26.3825 22.245C26.3825 22.245 27.9475 21.6325 29.1775 21.6875C30.4075 21.7425 30.835 22.605 30.835 22.605C30.6025 21.5475 29.51 21.0075 29.51 21.0075L13.26 12.825C13.1475 12.7775 12.7325 12.68 12.095 12.9425C11.58 13.155 9.89749 13.9425 9.89749 13.9425L26.3825 22.245Z" fill="#616161"/>
<path d="M30.905 22.8051C30.7875 22.3376 30.4975 21.8376 29.9625 21.5951C29.2575 21.2776 28.2525 21.3601 27.61 21.6951L26.3825 22.2401V23.1051L27.935 22.4151C29.445 21.7426 30.115 22.7501 30.1725 22.9876C30.4125 23.9551 29.9475 24.5151 28.575 25.1451L26.345 26.1501V27.0201L28.91 25.8776C30.045 25.4226 31.34 24.5676 30.905 22.8051Z" fill="#424242"/>
<path d="M8.2525 22.5775L3.935 16.61L4.6125 16.3075L9.47 22.9825L8.2525 22.5775ZM13.79 25.3275L13.02 24.7175L26.3825 21.99V22.4275L24.51 23.1375L13.79 25.3275Z" fill="#01579B"/>
<path d="M3.70001 11.545L20.5775 8.72498L27.95 16.8425C28.3225 17.235 28.12 17.885 27.59 17.9925L10.165 21.5675L3.70001 11.545Z" fill="#9CCC65"/>
<path d="M27.59 17.2925L10.285 20.7975L10.23 21.6225L27.59 18.0625C28.08 17.96 28.285 17.4 28.0175 17.005C27.9225 17.145 27.7775 17.255 27.59 17.2925ZM28.5225 21.075C28.705 21.365 28.54 21.7475 28.205 21.815L12.275 25.045C11.3175 25.2425 10.3775 24.615 10.2925 23.64C10.22 22.815 10.7775 22.0675 11.59 21.8975L26.91 18.4575L28.5225 21.075Z" fill="#689F38"/>
<path d="M13.8975 20.0249L7.5525 10.9449L3.9325 11.9024C3.095 12.7349 3.4075 14.1024 3.4075 14.1024C3.4075 14.1024 8.95 22.9974 9.825 24.1349C10.7 25.2724 11.9775 25.0949 11.9775 25.0949L14.135 24.6599L13.91 20.6349L13.8975 20.0249Z" fill="#616161"/>
<path d="M13.8975 20.085L10.85 20.715C10.0175 20.9025 9.8675 21.685 9.8675 21.685L2.51 11.1425C2.51 11.1425 1.4625 12.41 2.1575 13.4875L9.825 24.135C10.6625 25.3275 11.9775 25.105 11.9775 25.105L14.135 24.67L13.9125 20.725L13.8975 20.085Z" fill="#424242"/>
<path d="M27.5625 20.7499C27.64 20.9199 27.54 21.1174 27.3575 21.1549L12.125 24.2799C11.1675 24.4774 10.49 23.8424 10.525 22.9774C10.57 21.8849 11.1825 21.4224 11.9925 21.2549L27.3 18.1274C27.3 18.1274 26.78 18.7124 27.1775 19.8074C27.3125 20.1849 27.4575 20.5199 27.5625 20.7499Z" fill="#B9E4EA"/>
<path d="M11.3025 20.9249L4.77499 11.6899" stroke="#424242" stroke-width="0.51775" stroke-miterlimit="10"/>
<path d="M11.815 16.9874L3.41999 12.7574L3.07999 13.4274L12.78 18.3699L11.815 16.9874Z" fill="#424242"/>
<path d="M27.1975 16.0075L26.5825 15.3325L17.125 19.6725L11.815 17.045L12.72 18.34L16.2375 20.1375L18.8575 19.735L27.1975 16.0075Z" fill="#689F38"/>
<path d="M29.505 14.3375L18.0725 19.5075C17.3675 19.84 16.6325 19.8075 15.9575 19.4175L1.5225 12.0875C1.11 11.8225 0.987496 11.435 1.0125 11.165C1.0375 10.895 1.1 10.6025 1.825 10.3925L2.5025 10.1425L17.3325 17.42L29.375 12.4375L29.505 14.3375Z" fill="#C62828"/>
<path d="M17.9325 18.68C17.6466 18.8141 17.3328 18.8782 17.0171 18.8669C16.7015 18.8556 16.3931 18.7692 16.1175 18.615L2.025 11.515C1.825 11.405 1.765 11.1525 1.885 10.9575C2.195 10.445 2.765 8.82498 1.825 7.47998L17.385 15.395L17.9325 18.68Z" fill="#F5F5F5"/>
<path d="M28.895 13.7525L17.9325 18.68C17.57 18.8375 16.8475 19.1175 16.015 18.5575C16.6725 18.605 17.135 18.3325 17.3725 17.89C17.605 17.46 17.535 16.755 17.2525 16.3575C17.08 16.1175 16.6175 15.735 16.415 15.52L28.2725 10.8825C29.3225 10.45 30.3075 11.0975 30.465 11.885C30.64 12.775 29.505 13.5025 28.895 13.7525Z" fill="#94C6D6"/>
<path d="M29.445 10.4975L18.1275 15.5475C17.415 15.83 16.6175 15.7925 15.935 15.4475L1.47249 8.10254C1.32249 8.02754 1.09749 7.83504 1.02499 7.56254C0.917493 7.15754 1.05749 6.62504 1.58999 6.41504L14.8425 3.60754L29.445 10.4975Z" fill="#C62828"/>
<path d="M30.295 11.2299L29.0625 10.7824L26.5225 10.9299L18.1275 14.6774C17.415 14.9599 16.6175 14.9224 15.935 14.5774L1.47249 7.23245C1.09999 7.04245 1.23249 6.53995 1.58999 6.41245L12.015 1.75245C12.3125 1.69745 12.6175 1.72995 12.895 1.84745L27.7675 8.93745C27.7675 8.93745 30.1275 10.5524 30.295 11.2299Z" fill="#F44336"/>
<path d="M26.3825 11C26.3825 11 27.685 10.5425 28.915 10.5975C30.145 10.6525 30.8375 11.36 30.8375 11.36C30.585 10.23 29.5125 9.76246 29.5125 9.76246L13.2625 1.57996C13.15 1.53246 12.735 1.43496 12.0975 1.69746C11.5825 1.90996 9.89999 2.69746 9.89999 2.69746L26.3825 11Z" fill="#616161"/>
<path d="M27.87 10.465L11.2425 2.07746L11.7925 1.82996L28.7025 10.305L27.87 10.465Z" fill="#424242"/>
<path d="M30.9025 11.5625C30.785 11.095 30.5875 10.6425 30.03 10.4075C29.3175 10.1075 28.6675 10.045 27.6075 10.4525L26.38 10.9975V11.8625L27.9325 11.1725C28.72 10.8025 29.88 10.8825 30.17 11.745C30.4875 12.69 29.945 13.2725 28.5725 13.9025L26.3425 14.9075V15.7775L28.9075 14.635C30.045 14.18 31.34 13.325 30.9025 11.5625Z" fill="#424242"/>
</svg>
