<svg width="32" height="32" viewBox="0 0 32 32" fill="none" xmlns="http://www.w3.org/2000/svg">
<path d="M3.665 28.935C4.0075 29.2 4.995 27.4925 8.715 27.265C12.6975 27.02 17.105 30.1875 23.1425 30.1875C28.495 30.1875 31.2675 27.5675 31.0775 27.15C30.95 26.8725 28.8375 26.3625 26.4075 25.1C23.485 23.5825 20.4075 22.0625 18.055 18.645C16.5475 16.4575 15.4725 13.9375 16.955 11.9625C18.435 9.98748 22.195 10.9 22.195 10.9L17.07 5.35748L7.3125 8.01748L2.375 20.395L2.9075 26.6975L3.665 28.935Z" fill="url(#paint0_radial_7_5943)"/>
<path d="M14.815 9.0275C14.815 9.0275 16.0075 9.4075 17.605 10.24C20.2625 11.6275 21.8725 13.81 23.515 13.945C25.22 14.0825 26.0925 13.1 25.72 11.05C25.3725 9.1375 22.55 6.8925 22.55 6.8925C22.55 6.8925 25.1275 7.3775 25.1275 5.9C25.1275 4.3825 23.7375 3.6525 21.55 2.9C20.0925 2.4 16.1725 1.29 10.9175 3.28C8.65749 4.135 5.89749 5.715 3.80249 8.7425C1.06249 12.7025 0.507489 17.8525 1.02749 21.7625C1.65749 26.485 3.62249 28.92 3.66999 28.94C3.71749 28.96 3.97499 23.3875 6.17249 20.97C8.04499 18.91 9.95999 19.755 12.235 19.6425C14.9175 19.51 16.115 16.74 14.0675 14.6275C12.31 12.8125 9.39749 12.975 9.39749 12.975C9.39749 12.975 10.3625 12.59 12.195 12.425C14.3 12.2325 14.715 11.01 14.865 10.5525C15.1975 9.5425 14.815 9.0275 14.815 9.0275Z" fill="#1B6DA4"/>
<path d="M9.53747 9.07498C9.39747 8.24998 11.8275 7.50498 14.3725 7.90498C18.3325 8.52748 21.4675 12.14 22.7975 12.6675C24.7575 13.4475 25.4475 11.845 24.465 10.11C23.4525 8.31748 20.7725 6.79248 20.8725 6.19998C21.0525 5.14748 23.7975 6.74998 23.965 5.57998C24.0775 4.80498 22.0275 3.68998 20.08 3.19248C18.5125 2.79248 15.22 2.29998 10.67 4.28248C4.75497 6.86498 2.19747 12.0025 1.77497 17.385C1.37497 22.49 3.32497 26.295 3.32497 26.295C3.32497 26.295 3.45747 22.485 5.36747 20.3875C6.76247 18.8575 8.55247 18.2825 10.495 18.6525C13.735 19.2725 15.1475 16.93 13.59 15.2375C12.57 14.13 11.2625 13.785 9.90997 13.74C7.57247 13.665 6.31497 14.4475 6.24747 14.1825C6.14747 13.78 7.41497 12.8475 9.02247 12.1775C11.1375 11.2975 13.69 11.9 14.09 10.13C14.285 9.26748 13.7975 8.79498 12.4025 8.69248C10.64 8.56498 9.54747 9.13498 9.53747 9.07498Z" fill="white"/>
<defs>
<radialGradient id="paint0_radial_7_5943" cx="0" cy="0" r="1" gradientUnits="userSpaceOnUse" gradientTransform="translate(14.9628 -0.351268) scale(28.4267)">
<stop offset="0.423" stop-color="#45D6F0"/>
<stop offset="0.518" stop-color="#41CDE9"/>
<stop offset="0.674" stop-color="#37B4D7"/>
<stop offset="0.87" stop-color="#278BBA"/>
<stop offset="1" stop-color="#1B6DA4"/>
</radialGradient>
</defs>
</svg>
