<svg width="32" height="32" viewBox="0 0 32 32" fill="none" xmlns="http://www.w3.org/2000/svg">
<path d="M0.942505 17.9325L5.0275 13.9075L11.9825 12.675L11.295 16.315L1.8925 19.205L1.285 18.9425L0.942505 17.9325Z" fill="#CA2C31"/>
<path d="M5.73499 14.94L1.29999 18.97L4.56249 20.56L9.51499 18.0325V16.84L10.5275 14.11L5.73499 14.94ZM16.23 22.0375L14.0875 22.9675L12.065 27.255C12.065 27.255 13.845 31.1975 13.925 31.1975C14.005 31.1975 15.0175 31.2775 15.0175 31.2775L18.6175 27.2525L19.5275 20.3775L16.23 22.0375Z" fill="#A02422"/>
<path d="M14.125 25.21C14.125 25.21 15.3175 24.9675 16.1675 24.5625C17.0175 24.1575 18.0675 23.5525 18.0675 23.5525L17.6825 26.91L13.92 31.1925C13.92 31.1925 13.7725 31.01 13.1475 29.65C12.65 28.565 12.4775 28.1775 12.4775 28.1775L14.125 25.21Z" fill="#CA2C31"/>
<path d="M7.89503 20.165C7.89503 20.165 6.46003 20.045 4.88753 22.0325C3.45253 23.8475 2.78003 26.8025 2.52003 27.5625C2.26003 28.3225 1.63753 28.4775 1.84503 28.825C2.05253 29.1725 2.95003 29.1525 4.05753 29.015C5.16503 28.8775 6.11503 28.53 6.11503 28.53C6.11503 28.53 6.06753 28.65 5.90753 28.91C5.85003 29.0025 5.65003 29.135 5.66503 29.2725C5.70003 29.6 8.50503 29.6075 10.745 27.3025C13.165 24.815 11.99 22.775 11.99 22.775L7.89503 20.165Z" fill="#F7D74D"/>
<path d="M8.32752 21.3225C8.32752 21.3225 6.78002 21.405 5.50002 23.3925C4.22002 25.38 3.62502 27.6825 3.74752 27.8375C3.86752 27.9925 6.25252 27.13 6.82502 27.3025C7.21752 27.4225 7.01502 27.82 7.12002 27.925C7.20752 28.0125 8.24252 28.16 9.91752 26.345C11.595 24.53 11.1975 21.98 11.1975 21.98L8.32752 21.3225Z" fill="#FBF0B4"/>
<path d="M9.08749 18.61C9.08749 18.61 8.30999 19.3025 8.03249 19.7C7.75499 20.0975 7.75499 20.1325 7.77249 20.2525C7.78999 20.3725 8.07749 21.69 9.27499 22.845C10.745 24.2625 12.0575 24.4525 12.2475 24.4525C12.4375 24.4525 13.7 23.035 13.7 23.035L9.08749 18.61Z" fill="#858585"/>
<path d="M12.525 22.81C12.525 22.81 13.785 23.6375 15.8975 22.9275C18.785 21.9575 20.9025 19.7875 23.525 17.0475C26.055 14.4025 28.1775 11.12 28.1775 11.12L26.69 6.13751L12.525 22.81Z" fill="#437687"/>
<path d="M16.9975 20.0825L17.345 19.0025L18.215 19.125C18.215 19.125 18.8775 19.4375 19.365 19.665C19.8525 19.8925 20.48 20.065 20.48 20.065L19.2425 21.11C19.2425 21.11 18.5675 20.855 18.075 20.64C17.52 20.3975 16.9975 20.0825 16.9975 20.0825Z" fill="#3F545F"/>
<path d="M21.08 4.03497C21.08 4.03497 18.675 5.42997 15.2275 8.69247C12.12 11.6325 9.81747 14.2925 9.25997 16.555C8.79497 18.45 9.04247 19.6 10.1 20.8425C11.2175 22.1575 12.5275 22.81 12.5275 22.81C12.5275 22.81 13.5125 22.825 17.6225 19.6625C22.75 15.715 26.8575 9.10497 26.8575 9.10497L21.08 4.03497Z" fill="#8DAFBF"/>
<path d="M26.045 10.46C26.045 10.46 23.9525 9.56752 22.46 7.48502C20.9775 5.41752 21.095 4.02002 21.095 4.02002C21.095 4.02002 22.335 3.04752 25.1225 1.93502C26.9975 1.18752 29.55 0.805018 30.39 1.42752C31.23 2.05002 29.815 5.17252 29.815 5.17252L27.2375 10.1625L26.045 10.46Z" fill="#D83F22"/>
<path d="M17.0425 20.1C17.0425 20.1 15.235 19.1775 14.085 17.865C11.91 15.3875 11.46 12.6675 11.46 12.6675L12.5525 11.385C12.5525 11.385 12.825 14.275 15.1575 16.7725C16.6775 18.4 18.265 19.145 18.265 19.145C18.265 19.145 17.9475 19.4125 17.6075 19.6725C17.39 19.84 17.0425 20.1 17.0425 20.1Z" fill="#6896A5"/>
<path d="M28.1775 11.12C28.1775 11.12 29.2625 9.81251 30.29 6.86501C31.725 2.75501 30.475 1.51001 30.475 1.51001C30.475 1.51001 30.0525 3.46501 28.585 6.18251C27.4075 8.36001 25.9825 10.4325 25.9825 10.4325C25.9825 10.4325 26.7675 10.785 27.1925 10.9075C27.7275 11.0625 28.1775 11.12 28.1775 11.12Z" fill="#A02422"/>
<path d="M9.95249 17.415C10.2775 17.725 10.77 17.4 11.0925 16.64C11.4175 15.88 11.4125 15.455 11.1625 15.275C10.8525 15.05 10.3325 15.5425 10.105 15.98C9.85499 16.465 9.70749 17.18 9.95249 17.415ZM21.2375 5.03247C21.2375 5.03247 19.335 6.39997 17.305 8.25997C15.4425 9.96747 14.2075 11.3025 14.0375 11.6125C13.8575 11.945 13.855 12.415 13.995 12.655C14.135 12.895 14.445 13.02 14.7275 12.81C15.01 12.5975 17.0225 10.3725 18.84 8.78247C20.5025 7.32747 21.785 6.40497 21.785 6.40497C21.785 6.40497 22.305 5.48497 22.22 5.27497C22.135 5.06247 21.2375 5.03247 21.2375 5.03247Z" fill="#B3E1EE"/>
<path d="M21.2375 5.03251C21.2375 5.03251 22.6425 3.95501 24.1725 3.19751C25.595 2.49251 27.01 1.90501 27.265 2.41501C27.5075 2.90001 25.9225 3.56001 24.5275 4.45001C23.1325 5.34001 21.79 6.40251 21.79 6.40251C21.79 6.40251 21.585 6.02751 21.4525 5.68001C21.3684 5.46849 21.2967 5.2523 21.2375 5.03251Z" fill="#ED6A65"/>
<path d="M22.3975 9.81248C21.005 8.52998 19.0675 8.87498 18.1125 10.015C17.1325 11.19 17.205 12.985 18.3625 14.065C19.415 15.045 21.3725 15.2675 22.5525 13.8925C23.6025 12.6725 23.5375 10.86 22.3975 9.81248Z" fill="#E1E1E1"/>
<path d="M18.8325 10.4675C18.005 11.28 18.05 12.89 19.035 13.625C19.895 14.2675 21.115 14.235 21.88 13.4525C22.645 12.67 22.645 11.2475 21.9275 10.5125C21.1025 9.67002 19.78 9.53752 18.8325 10.4675Z" fill="#3F545F"/>
<path d="M12.5 19.2225C12.5 19.2225 14.0475 17.6525 14.2175 17.8225C14.3875 17.9925 14.365 18.945 13.625 20.005C12.8825 21.065 11.25 22.9525 9.9575 24.225C8.6825 25.4775 6.885 26.91 6.715 26.885C6.5825 26.865 6.045 26.5975 5.83 26.3375C5.62 26.08 6.2475 24.8625 6.5 24.46C6.755 24.0575 12.5 19.2225 12.5 19.2225Z" fill="#A02524"/>
<path d="M5.30748 25.4625C5.28748 25.8225 5.83748 26.3475 5.83748 26.3475L14.2175 17.825C14.2175 17.825 13.825 17.3825 12.67 18.1C11.505 18.825 10.485 19.695 8.97998 21.1525C6.88248 23.1875 5.32748 25.1025 5.30748 25.4625Z" fill="#CA2C31"/>
<path d="M4.76501 9.23748C4.48751 9.51498 4.47501 9.95998 4.78501 10.215C5.06001 10.4425 5.50751 10.295 5.67501 10.09C5.84251 9.88498 5.82251 9.43998 5.60001 9.21998C5.37751 8.99748 4.93501 9.06998 4.76501 9.23748Z" fill="white"/>
<path opacity="0.5" d="M10.255 8.91252C10.045 9.14502 10.1125 9.49002 10.3075 9.61752C10.5025 9.74502 10.795 9.73252 10.9375 9.55752C11.065 9.40002 11.08 9.08502 10.885 8.89002C10.715 8.72252 10.39 8.76252 10.255 8.91252Z" fill="white"/>
<path d="M13.8875 2.97249C13.8875 2.97249 14.1925 2.10249 14.3725 2.09249C14.555 2.08249 14.8175 2.96249 14.8175 2.96249C14.8175 2.96249 15.72 2.97249 15.78 3.10499C15.8575 3.27499 15.2025 3.84499 15.2025 3.84499C15.2025 3.84499 15.415 4.69499 15.315 4.79749C15.2025 4.90999 14.425 4.46249 14.425 4.46249C14.425 4.46249 13.625 5.01999 13.4525 4.86749C13.3025 4.73499 13.615 3.83499 13.615 3.83499C13.615 3.83499 12.865 3.28749 12.905 3.13499C12.9625 2.91999 13.8875 2.97249 13.8875 2.97249ZM24.2525 23.8325C24.555 24 24.935 23.905 25.075 23.5825C25.2025 23.295 24.9675 22.9525 24.755 22.86C24.5425 22.7675 24.17 22.89 24.035 23.1325C23.9025 23.3725 24.07 23.7325 24.2525 23.8325ZM28.5475 16.46C28.375 16.1925 28.0025 16.105 27.76 16.32C27.525 16.53 27.5825 16.86 27.715 17.0275C27.8475 17.195 28.2025 17.2575 28.4175 17.12C28.6325 16.9825 28.6525 16.62 28.5475 16.46Z" fill="white"/>
</svg>
