<svg width="32" height="32" viewBox="0 0 32 32" fill="none" xmlns="http://www.w3.org/2000/svg">
<g clip-path="url(#clip0_686_11345)">
<path d="M2.78751 25.6651L3.12501 26.0725C3.12501 26.0725 5.03001 28.5825 9.88501 30.1625C13.96 31.4876 18.8025 31.2976 22.365 30.0576C27.3025 28.3376 29.13 25.1125 29.13 25.1125L2.78751 25.6651Z" fill="#89847E"/>
<path d="M1.77 22.345C1.77 22.345 1.43 23.1475 1.6775 24.1125C1.92 25.0575 3.715 28.765 15.8075 28.8625C26.7725 28.9525 30.0625 24.835 30.03 23.32C30.0075 22.315 28.5375 19.695 20.8025 19.27C13.0675 18.845 7.9225 19.725 7.9225 19.725L1.77 22.345Z" fill="#CFC6BD"/>
<path d="M15.9925 20.4875C11.2725 20.43 4.39 21.59 3.78 23.32C3.2775 24.7475 5.425 26.1525 9.84 26.7625C14.255 27.3725 22.0225 26.855 23.545 26.275C25.0675 25.695 27.7775 24.57 27.7775 24.57L28.4175 23.625C28.4175 23.625 28.4775 23.1075 28.0525 22.7125C27.6275 22.3175 26.1025 20.61 15.9925 20.4875Z" fill="#A2E4FD"/>
<path d="M28.9625 23.1376C29.265 23.1051 29.29 23.7951 28.635 24.4226C27.98 25.0501 24.185 27.7676 15.94 27.7976C7.695 27.8276 1.6175 25.6626 1.6375 22.8851C1.66 19.9251 12.0125 18.7176 15.5375 19.1976C19.0625 19.6751 14.94 19.765 14.94 19.765C14.94 19.765 10.305 19.7576 6.5 20.8076C4.74 21.2926 3.275 21.8526 3.245 22.7501C3.215 23.6451 5.815 26.3951 15.67 26.5426C25.525 26.6901 28.695 23.1676 28.9625 23.1376Z" fill="#E4DCD5"/>
<path d="M6.96751 21.81C6.82251 21.8925 6.96751 22.1325 6.79001 22.2975C6.61251 22.465 5.78251 22.82 5.70751 23.4525C5.58751 24.4525 7.49251 24.6675 7.67251 24.56C7.85001 24.4525 6.99501 23.75 7.16001 23.335C7.35501 22.8475 7.93251 22.525 7.93251 22.1925C7.93251 21.8575 7.24001 21.6575 6.96751 21.81ZM9.32501 21.4075C9.32501 21.5375 9.61001 21.645 9.61001 21.835C9.61001 22.0975 8.40751 22.68 8.55001 23.7275C8.68251 24.69 9.62251 25.1575 10.0975 25.3575C10.6925 25.6075 12.1375 25.6975 12.0725 25.3925C12.025 25.1675 10.9525 25.06 10.3475 24.38C9.81251 23.7825 9.80501 23.105 10.3725 22.56C11.11 21.845 10.6475 21.3225 10.1575 21.2375C9.62501 21.15 9.32501 21.2875 9.32501 21.4075Z" fill="white"/>
<path d="M16.01 21.5424C12.9275 21.5874 11.2275 22.3024 11.2525 23.4049C11.28 24.6299 13.515 25.2474 16.0975 25.2624C18.8775 25.2799 20.5025 24.4174 20.56 23.4774C20.62 22.5374 19.04 21.4974 16.01 21.5424ZM21.3775 21.4899C21.3375 21.5299 21.105 21.8424 21.635 22.4399C22.0475 22.9049 22.1775 23.3774 22.055 24.0424C21.9325 24.7074 22.355 25.2799 23.2925 25.2799C24.23 25.2799 24.4075 24.9799 24.4075 24.8999C24.4075 24.8174 23.725 24.5699 23.565 23.7174C23.375 22.7124 22.995 22.0474 22.4225 21.6924C21.83 21.3249 21.465 21.3999 21.3775 21.4899ZM23.85 22.2624C23.8475 22.3999 24.72 22.8199 24.775 23.3899C24.83 23.9599 24.585 24.3274 24.7475 24.4224C24.91 24.5174 26.28 24.2324 26.27 23.2124C26.255 22.0324 23.8625 21.7474 23.85 22.2624Z" fill="#4FC0FA"/>
<path d="M7.57249 14.1625L8.28249 22.0575L8.99249 21.9875L8.73999 14.46L7.57249 14.1625ZM22.8575 14.6425C22.8575 15.1225 22.835 21.255 22.835 21.255L23.59 21.3925L24.0025 13.9775C24.0025 13.98 22.8575 14.2075 22.8575 14.6425Z" fill="#A2E4FD"/>
<path d="M7.16 14.0701C7.16 14.0701 8.03 15.8326 10.2025 17.1126C12.3775 18.3951 14.0175 18.0851 14.07 19.9951C14.1075 21.3676 13.795 21.6201 13.4975 21.9401C13.21 22.2476 12.6725 22.4901 12.6725 23.0151C12.6725 23.5426 13.1975 24.2276 15.9975 24.2426C18.955 24.2601 19.1775 23.4476 19.1475 22.9226C19.1175 22.4076 18.445 22.0026 18.2175 21.6351C18.0225 21.3226 17.9425 20.7251 17.9575 20.0851C18.01 18.1126 19.275 18.4576 21.505 17.1326C24.255 15.5001 24.57 13.9976 24.57 13.9976L7.16 14.0701Z" fill="#89847E"/>
<path d="M7.5825 12.275L9.9975 11.005L14.7575 10.4325L17.4925 9.91748C17.4925 9.91748 19.2025 10.0275 20.3975 10.2225C21.4925 10.4025 22.49 10.73 22.49 10.73L22.605 11.2325L23.475 11.3C23.475 11.3 24.2525 11.2775 24.8475 11.9875C25.48 12.7425 25.35 13.6575 23.8875 14.595C22.44 15.5225 16.2 15.785 16.2 15.785L9.06 14.23L7.5825 12.275Z" fill="#CFC6BD"/>
<path d="M8.58 13.2925C8.58 13.2925 8.1 11.1425 16.0625 11.095C24.025 11.0475 23.91 13.27 23.91 13.27L22.01 14.8725L16.2425 15.6275L9.5375 14.62L8.58 13.2925Z" fill="#A2E4FD"/>
<path d="M9.11 12.58C9.11 12.58 8.88 12.3 8.7025 12.2125C8.525 12.125 8.1425 11.9575 8.1425 11.9575C8.1425 11.9575 8.3075 11.6275 8.6125 11.5C8.9175 11.3725 9.16 11.3475 9.5025 11.475C9.845 11.6025 9.9975 12.085 9.9975 12.085L9.11 12.58ZM22.595 12.0975C22.595 12.0975 22.9 11.6875 23.1025 11.5625C23.3325 11.4225 23.65 11.3075 23.65 11.3075C23.65 11.3075 23.2675 10.925 22.71 10.9775C22.15 11.0275 21.6925 11.7275 21.6925 11.7275L22.595 12.0975Z" fill="#A2E4FD"/>
<path d="M9.895 11.5325C10.035 11.5475 11.2525 11.08 12.07 10.95C13.715 10.69 14.8125 10.71 14.8125 10.71L14.865 10.0275C14.865 10.0275 13.49 9.92245 11.57 10.3C10.3225 10.545 9.5175 10.9175 9.5175 10.9175L9.895 11.5325ZM23.6075 11.7525C23.4375 11.915 24.0925 12.21 23.915 12.7575C23.7075 13.395 22.105 14.84 15.9275 14.875C9.7325 14.91 8.6425 13.2775 8.34 12.8075C8.0025 12.28 8.645 11.8075 7.92 11.75C7.3 11.7 6.465 12.2425 6.5325 13.0575C6.5975 13.8425 8.0225 16.425 16.025 16.425C23.7075 16.425 25.0475 13.785 25.115 12.9975C25.1825 12.2025 23.99 11.3875 23.6075 11.7525Z" fill="#E2DDD7"/>
<path d="M12.85 12.0749C13 12.1974 12.1525 12.6074 12.14 13.0849C12.13 13.5624 12.945 13.9649 12.8275 14.1274C12.66 14.3599 10.4425 13.9574 10.4875 13.1299C10.545 12.0974 12.54 11.8199 12.85 12.0749Z" fill="#FFFFFD"/>
<path d="M12.9675 13.16C12.94 13.64 13.7375 14.1275 16.11 14.1375C18.575 14.1475 19.09 13.6425 19.0375 13.095C18.99 12.61 17.8075 12.4075 16.0625 12.375C14.5 12.345 13.005 12.515 12.9675 13.16ZM19.5075 12.32C19.42 12.4575 20.17 12.735 20.1575 13.2175C20.1475 13.7 19.5975 14.08 19.72 14.1925C19.8425 14.305 21.705 14.115 21.695 13.1725C21.6825 12.23 19.685 12.0375 19.5075 12.32Z" fill="#4FC0FA"/>
<path d="M14.6825 13.26L14.6725 11.2975C14.6725 11.2975 13.9775 10.625 13.675 9.87248C13.3725 9.11998 13.3375 8.53748 13.45 8.31248C13.5625 8.08748 14.28 7.97498 14.28 7.97498L16.21 8.53498C16.21 8.53498 18.42 7.97498 18.5325 8.06498C18.645 8.15498 18.735 9.04498 18.4875 9.77998C18.1625 10.745 17.5225 11.2725 17.5225 11.2725L17.5325 13.37C17.5325 13.37 17.185 13.72 16.075 13.73C14.785 13.7425 14.6825 13.26 14.6825 13.26Z" fill="#89847E"/>
<path d="M16.0075 7.12495C13.965 7.13495 13.45 8.31495 13.45 8.31495C13.45 8.31495 14 9.08995 16.075 9.11245C18.24 9.13495 18.5475 8.08995 18.5475 8.08995C18.5475 8.08995 17.9125 7.11495 16.0075 7.12495Z" fill="#A9A299"/>
<path d="M18.2875 14.7125C18.2875 14.7125 19.8275 14.7975 20.07 15.7925C20.3125 16.7875 20.2325 21.5975 20.2325 21.5975L21.2275 21.09C21.2275 21.09 21.51 16.35 21.59 15.62C21.65 15.07 21.835 13.9275 21.835 13.9275L20.495 14.3325L18.2875 14.7125ZM10.5325 14.39C10.5325 14.39 10.3725 14.58 10.29 15.08C10.1675 15.81 10.37 17.6175 10.4525 18.6925C10.5325 19.7675 10.655 21.27 10.655 21.27L11.4475 21.0675C11.4475 21.0675 11.5075 18.2675 11.59 17.2325C11.6725 16.1975 12.015 15.385 12.625 15.1225C13.235 14.86 13.925 14.655 13.925 14.655L10.82 14.045L10.5325 14.39ZM16.0725 8.07999C16.7825 8.07999 16.8025 7.57249 16.8025 7.28749C16.8025 7.00249 17.1275 3.73499 19.2575 3.67499C21.2675 3.61749 21.635 8.54749 21.66 9.76749C21.6825 10.8075 21.68 12.3375 21.68 12.3375L22.6425 12.14C22.6425 12.14 23.4125 2.64499 19.44 2.39749C17.6175 2.28249 16.7825 3.79749 16.7825 3.79749C16.7825 3.79749 16.7225 2.03249 16.68 1.52499C16.6375 1.01749 16.2325 0.87499 15.97 0.89499C15.705 0.91499 15.3825 1.13749 15.34 1.52499C15.3 1.90999 15.32 3.77749 15.32 3.77749C15.32 3.77749 14.2875 2.17499 12.905 2.19499C11.4025 2.21499 9.72 3.97999 9.2525 7.63249C8.785 11.285 9.1725 12.97 9.1725 12.97L10.1175 12.2275C10.1175 12.2275 10.065 8.40499 10.51 6.71999C10.955 5.03499 11.75 3.51749 12.8275 3.51749C13.905 3.51749 14.5525 4.67249 14.9975 5.82749C15.24 6.45749 15.2775 7.16249 15.2825 7.36999C15.29 7.74749 15.4025 8.07999 16.0725 8.07999Z" fill="#A2E4FD"/>
</g>
<defs>
<clipPath id="clip0_686_11345">
<rect width="32" height="32" fill="white"/>
</clipPath>
</defs>
</svg>
