<svg width="32" height="32" viewBox="0 0 32 32" fill="none" xmlns="http://www.w3.org/2000/svg">
<path d="M26.6575 31H7.58751C7.18751 31 6.45001 31 5.49751 30.1275C4.73001 29.425 3.85001 28.7675 3.86751 27.9525L24.4375 3.60999C25.5575 3.60999 26.065 3.93749 26.775 4.36249C28.1175 5.16749 28.1625 5.57499 28.1625 6.02999V29.4975C28.1616 29.8961 28.0026 30.2781 27.7205 30.5598C27.4384 30.8414 27.0561 30.9997 26.6575 31Z" fill="#B9E4EA"/>
<path d="M17.2925 21.905V29.155H24.505C24.8856 29.155 25.2506 29.0038 25.5197 28.7347C25.7888 28.4656 25.94 28.1006 25.94 27.72V21.905H17.2925Z" fill="#82AEC0"/>
<path d="M18.7775 29.155C17.475 29.155 19.84 23.83 19.84 23.83C19.84 23.83 25.94 18.23 25.94 22.1175C25.94 26.005 20.0775 29.155 18.7775 29.155Z" fill="#B9E4EA"/>
<path d="M21.28 24.11C21.28 24.11 25.94 23.8125 25.94 21.9725V5.11249C25.94 4.28249 25.3525 3.60999 24.4375 3.60999H5.34002C4.35252 3.60999 3.83752 4.28249 3.83752 5.11249V27.6525C3.83752 28.4825 4.51002 29.155 5.34002 29.155H18.545C21.4275 28.475 21.28 24.11 21.28 24.11Z" fill="#F5F5F5"/>
<path d="M7.0325 5.99751C7.46191 5.99751 7.81 5.60912 7.81 5.13001C7.81 4.65091 7.46191 4.26251 7.0325 4.26251C6.6031 4.26251 6.255 4.65091 6.255 5.13001C6.255 5.60912 6.6031 5.99751 7.0325 5.99751Z" fill="#2F7889"/>
<path d="M7.39248 4.4175C7.27337 4.16411 7.2119 3.88748 7.21248 3.6075C7.21248 2.905 7.57748 2.3125 8.00998 2.3125C8.44248 2.3125 8.80998 2.905 8.80998 3.6075H9.98498C9.98498 2.17 9.09998 1 8.01248 1C6.92498 1 6.03748 2.17 6.03748 3.6075C6.03748 4.12 6.14998 4.5975 6.34248 5C6.51748 5.365 6.89498 5.5275 7.22748 5.35C7.50998 5.2025 7.54498 4.7325 7.39248 4.4175Z" fill="#94D1E0"/>
<path d="M9.14752 1.47748C9.15252 1.49248 9.29752 1.86748 9.09252 2.22748C8.88502 2.59498 8.45502 2.53748 8.45502 2.53748C8.66752 2.77248 8.81002 3.16748 8.81002 3.60748H9.99002C9.99002 2.72748 9.65252 1.94998 9.14752 1.47748Z" fill="#2F7889"/>
<path d="M12.28 5.99751C12.7094 5.99751 13.0575 5.60912 13.0575 5.13001C13.0575 4.65091 12.7094 4.26251 12.28 4.26251C11.8506 4.26251 11.5025 4.65091 11.5025 5.13001C11.5025 5.60912 11.8506 5.99751 12.28 5.99751Z" fill="#2F7889"/>
<path d="M12.64 4.4175C12.5209 4.16411 12.4594 3.88748 12.46 3.6075C12.46 2.905 12.825 2.3125 13.2575 2.3125C13.69 2.3125 14.0575 2.905 14.0575 3.6075H15.2325C15.2325 2.17 14.3475 1 13.2575 1C12.17 1 11.2825 2.17 11.2825 3.6075C11.2825 4.12 11.395 4.5975 11.5875 5C11.7625 5.365 12.14 5.5275 12.4725 5.35C12.7575 5.2025 12.7925 4.7325 12.64 4.4175Z" fill="#94D1E0"/>
<path d="M14.395 1.47748C14.4 1.49248 14.545 1.86748 14.34 2.22748C14.1325 2.59498 13.7025 2.53748 13.7025 2.53748C13.915 2.77248 14.0575 3.16748 14.0575 3.60748H15.2425C15.2425 2.72748 14.9 1.94998 14.395 1.47748Z" fill="#2F7889"/>
<path d="M17.5275 5.99751C17.9569 5.99751 18.305 5.60912 18.305 5.13001C18.305 4.65091 17.9569 4.26251 17.5275 4.26251C17.0981 4.26251 16.75 4.65091 16.75 5.13001C16.75 5.60912 17.0981 5.99751 17.5275 5.99751Z" fill="#2F7889"/>
<path d="M17.8875 4.4175C17.7684 4.16411 17.707 3.88748 17.7075 3.6075C17.7075 2.905 18.0725 2.3125 18.505 2.3125C18.9375 2.3125 19.305 2.905 19.305 3.6075H20.48C20.48 2.17 19.595 1 18.505 1C17.4175 1 16.53 2.17 16.53 3.6075C16.53 4.12 16.6425 4.5975 16.835 5C17.01 5.365 17.3875 5.5275 17.72 5.35C18.0025 5.2025 18.04 4.7325 17.8875 4.4175Z" fill="#94D1E0"/>
<path d="M19.6425 1.47748C19.6475 1.49248 19.7925 1.86748 19.5875 2.22748C19.38 2.59498 18.95 2.53748 18.95 2.53748C19.1625 2.77248 19.305 3.16748 19.305 3.60748H20.4925C20.4925 2.72748 20.1475 1.94998 19.6425 1.47748Z" fill="#2F7889"/>
<path d="M22.77 5.99751C23.1994 5.99751 23.5475 5.60912 23.5475 5.13001C23.5475 4.65091 23.1994 4.26251 22.77 4.26251C22.3406 4.26251 21.9925 4.65091 21.9925 5.13001C21.9925 5.60912 22.3406 5.99751 22.77 5.99751Z" fill="#2F7889"/>
<path d="M23.1325 4.4175C23.0134 4.16411 22.9519 3.88748 22.9525 3.6075C22.9525 2.905 23.3175 2.3125 23.75 2.3125C24.1825 2.3125 24.55 2.905 24.55 3.6075H25.725C25.725 2.17 24.8375 1 23.75 1C22.6625 1 21.775 2.17 21.775 3.6075C21.775 4.12 21.8875 4.5975 22.08 5C22.255 5.365 22.6325 5.5275 22.965 5.35C23.2475 5.2025 23.2825 4.7325 23.1325 4.4175Z" fill="#94D1E0"/>
<path d="M24.885 1.47748C24.89 1.49248 25.035 1.86748 24.83 2.22748C24.6225 2.59498 24.1925 2.53748 24.1925 2.53748C24.405 2.77248 24.5475 3.16748 24.5475 3.60748L24.95 3.63498C24.95 3.63498 25.35 3.66748 25.74 3.81748C25.74 3.81748 25.875 2.30498 24.885 1.47748Z" fill="#2F7889"/>
<g opacity="0.9">
<path d="M21.085 26.0075H3.86749V25.505H21.18C21.1575 25.7775 21.085 26.0075 21.085 26.0075ZM25.255 23.055H3.86749V22.5525H25.785C25.5625 22.8975 25.255 23.055 25.255 23.055Z" fill="#4FC3F7"/>
<path d="M25.94 19.8525H3.86749M25.94 16.8975H3.86749M25.94 13.945H3.86749M25.94 10.9925H3.86749M25.94 8.03998H3.86749" stroke="#4FC3F7" stroke-width="0.5015" stroke-miterlimit="10"/>
</g>
<path opacity="0.75" d="M28.1525 9.53247L25.94 8.28997V7.78497L28.1625 9.03247L28.1525 9.53247ZM28.1525 12.485L25.94 11.245V10.74L28.1625 11.9875L28.1525 12.485ZM28.1525 15.44L25.94 14.1975V13.6925L28.1625 14.94L28.1525 15.44ZM28.1525 18.3925L25.94 17.15V16.645L28.1625 17.895L28.1525 18.3925ZM28.1525 21.3475L25.94 20.105V19.6L28.1625 20.8475L28.1525 21.3475ZM28.1525 24.3L25.94 23.0575V22.5525L28.1625 23.8L28.1525 24.3ZM28.1525 27.2525L25.94 26.01V25.505L28.1625 26.755L28.1525 27.2525Z" fill="#2F7889"/>
</svg>
