<svg width="32" height="32" viewBox="0 0 32 32" fill="none" xmlns="http://www.w3.org/2000/svg">
<g clip-path="url(#clip0_56_1403)">
<path d="M12.6325 18.5525L11.3825 19.8025C11.14 20.045 10.7475 20.045 10.5075 19.8025L1.17251 10.4675C0.930006 10.225 0.930006 9.83247 1.17251 9.59247L2.42251 8.34247C2.66501 8.09997 3.05751 8.09997 3.29751 8.34247L12.6325 17.6775C12.875 17.92 12.875 18.31 12.6325 18.5525ZM19.8075 11.3775L18.5575 12.6275C18.315 12.87 17.9225 12.87 17.6825 12.6275L8.34751 3.29247C8.10501 3.04997 8.10501 2.65747 8.34751 2.41747L9.59751 1.16747C9.84001 0.924971 10.2325 0.924971 10.4725 1.16747L19.8075 10.5025C20.05 10.7425 20.05 11.135 19.8075 11.3775Z" fill="#C9C9C9"/>
<path d="M6.88901 16.1838L9.01401 14.0588L10.1915 15.2363L8.06651 17.3613L6.88901 16.1838ZM14.0663 9.006L16.1893 6.88275L17.3668 8.06025L15.2435 10.1833L14.0663 9.006Z" fill="#9E9E9E"/>
<path d="M22.0875 9.15497L9.16251 22.08C9.08794 22.1549 8.99931 22.2143 8.90171 22.2549C8.80411 22.2954 8.69945 22.3163 8.59376 22.3163C8.48807 22.3163 8.38341 22.2954 8.28581 22.2549C8.18821 22.2143 8.09958 22.1549 8.02501 22.08L5.96001 20.015C5.8851 19.9404 5.82566 19.8518 5.7851 19.7542C5.74454 19.6566 5.72366 19.5519 5.72366 19.4462C5.72366 19.3405 5.74454 19.2359 5.7851 19.1383C5.82566 19.0407 5.8851 18.952 5.96001 18.8775L18.885 5.95247C18.9596 5.87756 19.0482 5.81812 19.1458 5.77756C19.2434 5.737 19.3481 5.71613 19.4538 5.71613C19.5595 5.71613 19.6641 5.737 19.7617 5.77756C19.8593 5.81812 19.9479 5.87756 20.0225 5.95247L22.0875 8.01747C22.2376 8.16872 22.3218 8.37315 22.3218 8.58622C22.3218 8.79929 22.2376 9.00372 22.0875 9.15497Z" fill="#616161"/>
<path d="M14.9825 14.8225L9.36752 20.7675C9.36752 20.7675 12.3975 23.5525 13.6875 24.24C14.8775 24.875 16.1475 25.21 17.4775 25.375C17.9825 25.4375 18.7225 25.35 19.19 25.5775C19.7475 25.8475 19.6525 26.2175 19.9525 26.7225C20.5325 27.6975 21.585 27.925 22.7975 27.45C23.88 27.025 27.185 23.7225 27.61 22.6375C28.085 21.425 27.9375 20.475 26.8825 19.7925C26.39 19.475 26.01 19.5875 25.7375 19.03C25.51 18.565 25.5975 17.8225 25.535 17.3175C25.37 15.9875 25.035 14.7175 24.4 13.5275C23.71 12.24 20.925 9.20996 20.925 9.20996L14.9825 14.8225Z" fill="#616161"/>
<path d="M22.9825 18.935C22.9775 19.02 22.9775 19.1175 23.04 19.175C23.0925 19.2225 23.1725 19.2225 23.2425 19.2125C23.77 19.145 24.2 18.7125 24.3875 18.215C24.575 17.7175 24.56 17.1675 24.4875 16.64C24.2675 15.0375 23.5225 13.51 22.3925 12.35C22.265 12.22 22.1075 12.0825 21.925 12.1075C21.52 12.16 21.0025 13.4225 20.9575 13.785C20.8775 14.445 21.5025 14.7975 21.865 15.2925C22.63 16.335 23.0475 17.64 22.9825 18.935ZM17.995 8.03247C17.8525 8.49497 18.5675 9.73997 19.135 10.195C19.5625 10.5375 19.91 10.4525 20.175 10.31C20.845 9.94997 21.5025 9.15247 21.555 9.09997C21.79 8.85497 21.6925 8.48247 21.4475 8.13997C20.8625 7.32497 20.27 6.76497 20.05 6.52497C19.63 6.06747 19.0975 6.36747 18.8725 6.58497C18.3875 7.05747 18.135 7.57247 17.995 8.03247Z" fill="#808080"/>
<path d="M30.715 28.8425L28.85 30.7075C28.4625 31.095 28.0075 31.1275 27.43 30.7475L22.1825 27.3125C22.0776 27.2185 21.9929 27.1041 21.9337 26.9763C21.8744 26.8485 21.8418 26.71 21.8378 26.5691C21.8338 26.4283 21.8586 26.2882 21.9105 26.1572C21.9625 26.0263 22.0406 25.9073 22.14 25.8075L25.8175 22.13C26.2375 21.71 26.925 21.73 27.3225 22.1725L30.7575 27.42C31.0975 28.0525 31.1025 28.455 30.715 28.8425Z" fill="#616161"/>
<path d="M28.4275 24.21L26.6425 25.995C26.5381 26.0999 26.4795 26.2419 26.4795 26.39C26.4795 26.538 26.5381 26.68 26.6425 26.785C26.86 27.0025 27.215 27.0025 27.4325 26.785L29.1875 25.03L28.58 24.1025C28.5275 24.13 28.475 24.165 28.4275 24.21ZM27.5075 28.13C27.4026 28.0256 27.2606 27.9669 27.1125 27.9669C26.9645 27.9669 26.8225 28.0256 26.7175 28.13L25.4175 29.43L26.375 30.055L27.51 28.92C27.7275 28.7025 27.7275 28.3475 27.5075 28.13ZM30.31 26.745L28.85 28.205C28.7456 28.3099 28.687 28.4519 28.687 28.6C28.687 28.748 28.7456 28.89 28.85 28.995C29.0675 29.2125 29.4225 29.2125 29.64 28.995L30.8975 27.745L30.75 27.4225L30.31 26.745ZM22.6375 27.4525C22.6375 27.4525 23.7925 26.45 25.1225 25.1175C26.4525 23.785 27.4575 22.6325 27.4575 22.6325C27.87 23.045 27.125 24.4575 25.7925 25.7875C24.46 27.1175 23.05 27.8625 22.6375 27.4525ZM21.45 9.79248L9.95001 21.2925C10.185 21.5025 10.48 21.76 10.8 22.0375C12.45 21.6425 15.0475 19.8525 17.3625 17.2425C20.125 14.125 21.635 9.99998 21.45 9.79248ZM19.9775 24.745C19.8 25.6925 21.2825 25.8975 23.2825 23.8125C24.46 22.585 25.0475 21.0825 24.9975 20.5C24.955 20.0175 24.5325 20.04 24.1925 20.38C23.8175 20.755 23.285 21.3875 22.895 21.75C20.8425 23.66 20.0975 24.1075 19.9775 24.745Z" fill="#424242"/>
<path d="M25.485 23.345C26.175 23.5325 27.08 22.365 27.23 21.78C27.3225 21.42 27.2825 20.8925 26.9725 20.6475C26.47 20.2525 26.07 20.4775 25.7925 20.8025C25.4175 21.245 24.7975 23.16 25.485 23.345Z" fill="#808080"/>
</g>
<defs>
<clipPath id="clip0_56_1403">
<rect width="32" height="32" fill="white"/>
</clipPath>
</defs>
</svg>
