<svg width="32" height="32" viewBox="0 0 32 32" fill="none" xmlns="http://www.w3.org/2000/svg">
<path d="M30.3975 15.2075L26.915 14.085C24.6875 13.35 23.3825 11.5475 22.77 9.28247L21.2375 1.81747C21.1975 1.66997 21.1 1.47247 20.8 1.47247C20.5475 1.47247 20.4025 1.66997 20.3625 1.81747L18.83 9.28497C18.215 11.55 16.9125 13.3525 14.685 14.0875L11.2025 15.21C10.71 15.37 10.7025 16.065 11.1925 16.2325L14.7 17.44C16.92 18.1775 18.215 19.9775 18.83 22.2325L20.365 29.615C20.405 29.7625 20.4875 30.0275 20.8025 30.0275C21.135 30.0275 21.2 29.7625 21.24 29.615L22.775 22.2325C23.39 19.975 24.685 18.175 26.905 17.44L30.4125 16.2325C30.8975 16.0625 30.89 15.3675 30.3975 15.2075Z" fill="#FDD835"/>
<path d="M30.7275 15.52C30.6725 15.3825 30.565 15.2625 30.3975 15.2075L26.915 14.085C24.6875 13.35 23.3825 11.5475 22.77 9.28247L21.2375 1.81747C21.215 1.73247 21.135 1.57747 21.0425 1.53247L21.5375 9.02497C21.905 12.445 22.22 14.055 24.95 14.525C27.295 14.93 30.0075 15.395 30.7275 15.52Z" fill="#FFEE58"/>
<path d="M30.735 15.91L24.695 17.295C22.5675 17.835 21.395 19.0675 21.395 22.2925L20.8025 30.0275C21.005 30.0075 21.17 29.8975 21.24 29.615L22.775 22.2325C23.39 19.975 24.685 18.175 26.905 17.44L30.4125 16.2325C30.5775 16.1725 30.6825 16.05 30.735 15.91Z" fill="#F4B400"/>
<path d="M10.4525 21.7025C8.36998 21.015 8.17998 20.24 7.82998 18.9325L6.95748 15.8725C6.90498 15.675 6.38998 15.675 6.33498 15.8725L5.74248 18.7C5.38998 20.0025 4.63998 21.0375 3.35998 21.46L1.31998 22.345C1.03748 22.4375 1.03248 22.8375 1.31498 22.9325L3.36998 23.66C4.64498 24.0825 5.38998 25.1175 5.74498 26.415L6.33748 29.12C6.39248 29.3175 6.90498 29.3175 6.95748 29.12L7.65248 26.4275C8.00498 25.1225 8.54498 24.085 10.2775 23.66L12.2075 22.9325C12.49 22.835 12.4875 22.435 12.2025 22.3425L10.4525 21.7025Z" fill="#FDD835"/>
<path d="M7.12251 18.8875C7.33501 20.8525 7.44251 21.3975 9.03501 21.805L12.3525 22.4525C12.3175 22.405 12.2675 22.365 12.2 22.345L10.45 21.7025C8.62251 21.0775 8.11751 20.2825 7.77501 18.6925C7.43251 17.1025 7.06751 16.065 7.06751 16.065C6.94001 15.7225 6.75751 15.74 6.75751 15.74L7.12251 18.8875Z" fill="#FFEE58"/>
<path d="M7.18248 25.7475C7.18248 23.895 8.19498 22.9775 9.80498 22.9775L12.31 22.875C12.31 22.875 12.165 23.0675 11.9125 23.1275L10.2775 23.66C8.88998 24.2175 8.25748 24.4975 7.82748 26.395C7.82748 26.395 7.27248 28.6025 7.16748 28.835C7.02248 29.16 6.84998 29.2275 6.84998 29.2275L7.18248 25.7475Z" fill="#F4B400"/>
<path d="M14.935 7.035C15.075 6.9875 15.07 6.7875 14.9275 6.7475L12.9975 6.2275C12.799 6.17368 12.6178 6.06942 12.4715 5.92486C12.3251 5.7803 12.2187 5.60035 12.1625 5.4025L11.4025 2.265C11.365 2.1125 11.1475 2.1125 11.11 2.2675L10.395 5.3925C10.341 5.5958 10.2337 5.78103 10.0843 5.92911C9.93493 6.0772 9.74876 6.18278 9.54499 6.235L7.62749 6.7325C7.48499 6.77 7.47499 6.97 7.61499 7.02L9.63749 7.72C9.99999 7.845 10.28 8.14 10.39 8.5075L11.1125 11.405C11.15 11.555 11.365 11.5575 11.4025 11.405L12.15 8.4975C12.2053 8.31605 12.3032 8.15041 12.4353 8.01433C12.5675 7.87824 12.7302 7.77563 12.91 7.715L14.935 7.035Z" fill="#F4B400" stroke="#F4B400" stroke-width="0.25" stroke-miterlimit="10"/>
</svg>
