<svg width="32" height="32" viewBox="0 0 32 32" fill="none" xmlns="http://www.w3.org/2000/svg">
<path d="M6.95249 17.0475C3.68749 22.8975 7.35499 29.46 13.105 30.755C16.9225 31.615 21.3975 30.9375 23.675 27.9375C26.39 24.365 25.905 21.0225 25.4975 19.5225C24.9675 17.5625 24.9925 16.4525 25.5925 15.77C26.265 15.005 26.3675 14.585 26.2075 14.115C26.005 13.525 25.505 13.3625 24.885 13.4125C23.78 13.5 22.345 14.1075 22.1375 16.525C22.005 18.08 22.9725 22.1675 18 22.6775C14.03 23.0825 12.25 18.3975 13.4875 16.0475C14.355 14.4025 14.9575 13.7125 18.3125 10.0025C20.4075 7.68498 20.6625 6.34748 20.6625 5.56248C20.6625 2.80748 18.275 0.609985 15.455 0.927485C13.3125 1.16748 11.5875 2.90248 11.3575 5.04748C11.2025 6.47748 11.6975 7.79248 12.58 8.73998C12.975 9.16248 13.0025 9.80999 12.625 10.2475C12.275 10.655 11.86 11.17 11.29 11.76C9.47999 13.635 8.45499 14.355 6.95249 17.0475ZM17.6125 5.56498C17.6125 6.69498 16.84 7.60998 15.8875 7.60998C14.935 7.60998 14.1625 6.69498 14.1625 5.56498C14.1625 4.43498 14.935 3.51998 15.8875 3.51998C16.84 3.51998 17.6125 4.43498 17.6125 5.56498Z" fill="#FFCA28"/>
<path d="M6.95249 17.0475C3.68749 22.8975 7.35499 29.46 13.105 30.755C16.9225 31.615 21.3975 30.9375 23.675 27.9375C26.39 24.365 25.905 21.0225 25.4975 19.5225C24.9675 17.5625 24.9925 16.4525 25.5925 15.77C26.265 15.005 26.3675 14.585 26.2075 14.115C26.005 13.525 25.505 13.3625 24.885 13.4125C23.78 13.5 22.345 14.1075 22.1375 16.525C22.005 18.08 22.9725 22.1675 18 22.6775C14.03 23.0825 12.25 18.3975 13.4875 16.0475C14.355 14.4025 14.9575 13.7125 18.3125 10.0025C20.4075 7.68498 20.6625 6.34748 20.6625 5.56248C20.6625 2.80748 18.275 0.609985 15.455 0.927485C13.3125 1.16748 11.5875 2.90248 11.3575 5.04748C11.2025 6.47748 11.6975 7.79248 12.58 8.73998C12.975 9.16248 13.0025 9.80999 12.625 10.2475C12.275 10.655 11.86 11.17 11.29 11.76C9.47999 13.635 8.45499 14.355 6.95249 17.0475ZM17.3625 5.56498C17.3625 6.69498 16.59 7.60998 15.6375 7.60998C14.685 7.60998 13.9125 6.69498 13.9125 5.56498C13.9125 4.43498 14.685 3.51998 15.6375 3.51998C16.59 3.51998 17.3625 4.43498 17.3625 5.56498Z" fill="#FFCA28"/>
<path d="M16.32 24.9825C13.67 24.5175 11.865 22.14 11.5475 21.395C11.26 20.72 10.5 20.9475 11.0125 23.0425C11.3475 24.415 12.2525 25.6075 13.4525 26.3525C15.2775 27.485 17.65 27.6225 19.4875 26.6075C21.6675 25.4 22.5475 23.5375 22.455 22.63C22.44 22.485 22.1925 21.935 21.6 23.07C21.405 23.4375 18.97 25.4475 16.32 24.9825Z" fill="#FFF59D"/>
<path d="M19.49 24.825C22.3525 23.405 22.575 21.0675 22.13 18.0625C22.115 19.8925 21.7325 22.295 17.9975 22.6775C14.03 23.085 12.2875 18.4175 13.4875 16.05C14.535 13.9775 17.06 11.3925 17.06 11.3925C17.06 11.3925 14.0275 13.4875 12.6325 16C11.305 18.3875 10.8425 21.5675 12.8525 23.565C13.6725 24.3775 14.6975 24.9975 15.825 25.27C17.075 25.5675 18.345 25.395 19.49 24.825Z" fill="#E2A610"/>
<path d="M24.9175 14.0625C25.355 14.38 24.84 14.8175 24.495 14.9525C23.5575 15.315 23.16 16.2525 23.045 15.895C22.94 15.565 23.065 15.04 23.685 14.4C23.9775 14.0975 24.605 13.835 24.9175 14.0625ZM15.3375 2.06501C15.68 2.71251 14.92 2.80501 14.4825 3.01251C12.9075 3.76001 13.0875 5.54001 12.725 5.45751C12.3625 5.37501 12.2525 4.78251 12.2675 4.49501C12.315 3.50001 12.875 2.72501 13.275 2.42001C14.2375 1.68251 15.0775 1.57751 15.3375 2.06501Z" fill="#FFF59D"/>
<path d="M15.03 5.56502C15.03 4.66752 15.5175 3.90752 16.1975 3.63252C16.0225 3.56252 15.835 3.52002 15.64 3.52002C14.6875 3.52002 13.915 4.43502 13.915 5.56502C13.915 6.69502 14.6875 7.61002 15.64 7.61002C15.835 7.61002 16.0225 7.57002 16.1975 7.49752C15.5175 7.22252 15.03 6.46252 15.03 5.56502Z" fill="#E2A610"/>
</svg>
