<svg width="32" height="32" viewBox="0 0 32 32" fill="none" xmlns="http://www.w3.org/2000/svg">
<path d="M29 1H3C1.895 1 1 1.895 1 3V29C1 30.105 1.895 31 3 31H29C30.105 31 31 30.105 31 29V3C31 1.895 30.105 1 29 1Z" fill="#F77E00"/>
<path d="M27.425 1H2.87501C2.37884 1.0036 1.90401 1.2023 1.55316 1.55315C1.2023 1.90401 1.0036 2.37883 1.00001 2.875V27.35C0.997506 28.385 1.83501 29.2225 2.87001 29.225H27.4C28.435 29.2275 29.2725 28.39 29.275 27.355V2.875C29.2975 1.8625 28.4925 1.0225 27.48 1H27.425Z" fill="#FF9800"/>
<path d="M27.65 8.22501L23.65 4.22501C23.5021 4.10528 23.3236 4.02963 23.1347 4.00671C22.9458 3.98379 22.7543 4.01453 22.5821 4.09541C22.4099 4.17629 22.264 4.30404 22.161 4.46403C22.0581 4.62402 22.0023 4.80977 22 5.00001V6.65001C22.005 6.89251 21.8375 7.10251 21.6 7.15001C18.6719 7.70085 16.0773 9.37971 14.375 11.825C13.7847 12.6948 13.2422 13.5962 12.75 14.525C10.925 17.775 8.875 21.45 4.875 21.95C4.63186 21.9803 4.40835 22.0989 4.24701 22.2833C4.08566 22.4677 3.99775 22.705 4 22.95V24.975C4.00257 25.2434 4.11134 25.4998 4.3025 25.6881C4.49366 25.8764 4.75164 25.9814 5.02 25.98C5.0475 25.98 5.0725 25.9775 5.1 25.975C11.25 25.375 14.25 20.075 16.25 16.5C16.6775 15.7025 17.145 14.925 17.65 14.175C18.5377 12.8508 19.8387 11.8575 21.35 11.35C21.4247 11.3265 21.5039 11.3209 21.5812 11.3336C21.6585 11.3463 21.7318 11.3771 21.795 11.4233C21.8583 11.4695 21.9098 11.5299 21.9454 11.5997C21.981 11.6695 21.9997 11.7467 22 11.825V13.025C22.0015 13.158 22.0292 13.2894 22.0816 13.4117C22.1339 13.534 22.2099 13.6447 22.3051 13.7376C22.4003 13.8305 22.5129 13.9037 22.6364 13.953C22.7599 14.0023 22.892 14.0268 23.025 14.025C23.2525 14.0225 23.475 13.9425 23.65 13.8L27.65 9.80001C27.762 9.70165 27.8518 9.58053 27.9132 9.44473C27.9747 9.30893 28.0065 9.16157 28.0065 9.01251C28.0065 8.86344 27.9747 8.71609 27.9132 8.58029C27.8518 8.44449 27.762 8.32336 27.65 8.22501Z" fill="#FAFAFA"/>
<path d="M23.65 18.225C23.5021 18.1053 23.3236 18.0296 23.1347 18.0067C22.9458 17.9838 22.7543 18.0145 22.5821 18.0954C22.4099 18.1763 22.264 18.3041 22.161 18.464C22.0581 18.624 22.0023 18.8098 22 19V20.2C22 20.475 21.775 20.7 21.4975 20.6975C21.4475 20.6975 21.3975 20.69 21.35 20.675C19.8442 20.1446 18.5419 19.1569 17.625 17.85C17.525 17.7 17.425 17.55 17.3 17.375C17.2774 17.339 17.2461 17.3093 17.2089 17.2888C17.1718 17.2682 17.13 17.2574 17.0875 17.2574C17.045 17.2574 17.0032 17.2682 16.9661 17.2888C16.9289 17.3093 16.8976 17.339 16.875 17.375C16.325 18.375 15.675 19.475 14.925 20.575C14.875 20.6675 14.875 20.7825 14.925 20.875C16.6126 22.9276 18.9652 24.325 21.575 24.825C21.815 24.875 21.99 25.08 22 25.325V27C22.0015 27.133 22.0292 27.2644 22.0816 27.3867C22.1339 27.509 22.2099 27.6197 22.3051 27.7126C22.4003 27.8055 22.5129 27.8787 22.6364 27.928C22.7599 27.9773 22.892 28.0018 23.025 28C23.2525 27.9975 23.475 27.9175 23.65 27.775L27.65 23.775C27.7618 23.6792 27.8515 23.5603 27.913 23.4265C27.9745 23.2927 28.0063 23.1473 28.0063 23C28.0063 22.8528 27.9745 22.7073 27.913 22.5735C27.8515 22.4398 27.7618 22.3209 27.65 22.225L23.65 18.225Z" fill="#FAFAFA"/>
<path opacity="0.65" d="M9.92499 3.22497C9.92499 2.64997 9.52499 2.47497 7.22499 2.54997C5.29999 2.62497 4.34999 2.84997 3.77499 3.54997C3.19999 4.24997 3.04999 5.67497 3.02499 7.37497C3.02499 8.57497 3.02499 9.69997 3.64999 9.69997C4.49999 9.69997 4.49999 7.72497 5.19999 6.62497C6.54999 4.44997 9.92499 3.97497 9.92499 3.22497V3.22497Z" fill="#FFBD52"/>
<path d="M4.9 10.05C7.75 10.4 9.625 12.375 11.1 14.675C11.1226 14.711 11.1539 14.7407 11.1911 14.7613C11.2282 14.7819 11.27 14.7927 11.3125 14.7927C11.355 14.7927 11.3968 14.7819 11.4339 14.7613C11.4711 14.7407 11.5024 14.711 11.525 14.675C12 13.85 13.15 11.925 13.475 11.4C13.53 11.3125 13.52 11.2 13.45 11.125C11.55 8.65003 8.95 6.42503 5.075 6.07503C4.94792 6.06144 4.81942 6.07305 4.69684 6.10919C4.57425 6.14533 4.46 6.20528 4.36061 6.28563C4.26123 6.36597 4.17866 6.46512 4.11764 6.57741C4.05662 6.6897 4.01834 6.81293 4.005 6.94003C4.0025 6.97503 4 7.01253 4 7.05003V9.07503C4 9.58503 4.3925 10.01 4.9 10.05Z" fill="#FAFAFA"/>
<path opacity="0.3" d="M9.92499 3.22497C9.92499 2.64997 9.52499 2.47497 7.22499 2.54997C5.29999 2.62497 4.34999 2.84997 3.77499 3.54997C3.19999 4.24997 3.04999 5.67497 3.02499 7.37497C3.02499 8.57497 3.02499 9.69997 3.64999 9.69997C4.49999 9.69997 4.49999 7.72497 5.19999 6.62497C6.54999 4.44997 9.92499 3.97497 9.92499 3.22497V3.22497Z" fill="#FFBD52"/>
</svg>
