<svg width="32" height="32" viewBox="0 0 32 32" fill="none" xmlns="http://www.w3.org/2000/svg">
<path d="M7.7825 27.6375C7.7825 26.5625 9.285 22.765 9.285 22.765C10.7325 22.3175 21.185 22.6975 22.7775 22.6975C22.7775 22.6975 24.2175 25.78 24.2175 27.6375C24.2175 29.495 19.7975 31 16.015 31C12.2325 31 7.7825 29.495 7.7825 27.6375Z" fill="#8B5738"/>
<path d="M16.015 26.3125C19.7498 26.3125 22.7775 24.9973 22.7775 23.375C22.7775 21.7527 19.7498 20.4375 16.015 20.4375C12.2802 20.4375 9.2525 21.7527 9.2525 23.375C9.2525 24.9973 12.2802 26.3125 16.015 26.3125Z" fill="#FFB17A"/>
<path d="M9.66749 26.5375C10.4225 26.9675 11.6175 26.935 12.545 27.1025C13.725 27.3175 14.3925 28.2175 16.6675 28.1775C17.48 28.1625 19.375 28.07 19.27 28.0725C19.205 27.94 18.835 27.8125 18.115 27.7C17.455 27.595 16.98 27.605 16.215 27.605C15.63 27.605 14.8275 27.43 14.0175 26.985C13.6475 26.7825 13.0725 26.5575 12.51 26.4425C11.645 26.265 11.0425 26.4525 9.83499 25.88C9.25749 25.6075 8.78999 25.0425 8.67999 24.385L8.39499 25.205C8.76999 25.8925 9.11249 26.2225 9.66749 26.5375ZM22.11 25.865C20.175 27.095 18.54 26.9575 18.54 26.9575C18.4025 27.0475 19.53 27.29 20.3675 27.15C22.0125 26.875 23.0125 26.05 23.6625 24.945C23.5725 24.665 23.375 24.135 23.375 24.135C23.1875 24.5875 22.97 25.3175 22.11 25.865Z" fill="#CC8552"/>
<path d="M18.6275 29.3549C17.5575 29.5499 16.5325 29.2174 15.48 28.9699C14.0375 28.6324 11.3275 28.6799 11.3275 28.6799C11.165 28.7599 12.605 29.2824 13.305 29.3424C13.9425 29.3974 14.6175 29.3424 15.2225 29.5899C16.075 29.9374 16.9 30.1124 17.725 30.1124C19.2925 30.1124 21.34 29.1674 21.8275 27.9399C21.8275 27.9399 20.9325 28.4649 20.2375 28.8174C19.7325 29.0749 19.1875 29.2549 18.6275 29.3549Z" fill="#A86D44"/>
<path d="M8.95501 27.87C9.16751 28.21 9.38501 28.525 9.67001 28.8075C10.1525 29.2875 10.7625 29.565 11.155 29.495C11.155 29.495 9.76501 28.3725 9.91251 28.08C9.98751 27.93 12.8725 28.1675 12.8725 28.1675C12.8725 28.1675 11.9975 27.7075 11.145 27.5425C10.5925 27.435 9.58251 27.65 8.66251 27.0025C8.15501 26.645 8.07751 26.215 8.07751 26.215C8.07751 26.215 7.89501 26.8375 7.85751 27.075C8.39001 27.6325 8.88501 27.7575 8.95501 27.87ZM23.575 26.635C23.07 27.0875 22.2725 28.0025 22.2725 28.475C22.2725 28.475 23.1675 27.6075 23.77 27.21C23.92 27.1125 24.0275 26.9875 24.145 26.855C24.145 26.855 24.085 26.4075 23.99 26.09C23.9525 26.3025 23.8 26.435 23.575 26.635Z" fill="#A86D44"/>
<path d="M16 25.38C22.7323 25.38 28.19 19.9224 28.19 13.19C28.19 6.45765 22.7323 1 16 1C9.26765 1 3.81 6.45765 3.81 13.19C3.81 19.9224 9.26765 25.38 16 25.38Z" fill="url(#paint0_radial_620_2360)"/>
<path d="M16 25.38C22.7323 25.38 28.19 19.9224 28.19 13.19C28.19 6.45765 22.7323 1 16 1C9.26765 1 3.81 6.45765 3.81 13.19C3.81 19.9224 9.26765 25.38 16 25.38Z" fill="url(#paint1_radial_620_2360)"/>
<path opacity="0.7" d="M11.4775 5.59254C12.6125 5.69004 14.9375 6.54004 13.245 8.72004C12.1325 10.1525 10.7425 11.485 10.25 12.6375C8.82749 15.97 12.3925 17.33 13.5 17.6775C14.46 17.98 16.31 18.655 16.83 19.5175C18.8375 22.8425 12.7325 23.75 12.7325 23.75C12.7325 23.75 17.225 25.3875 20.925 22.885C22.325 21.9375 23.5575 19.7325 22.3525 17.7475C21.7675 16.785 20.155 15.9175 19.76 15.6075C18.07 14.2725 17.0275 12.8925 17.8675 11.345C18.2075 10.72 18.9175 10.395 19.605 10.205C21.53 9.67254 23.9325 9.76754 24.56 7.39004C25.1025 5.34004 21.1425 0.760044 15 1.50504C12.45 1.81254 10.155 2.88004 8.27749 4.63504C4.81249 7.87754 5.11249 10.56 5.11249 10.56C5.11249 10.56 7.36999 5.23504 11.4775 5.59254Z" fill="url(#paint2_linear_620_2360)"/>
<path opacity="0.39" d="M24.9425 6.05499C24.0725 4.78999 22.87 3.78499 21.6025 2.91749C19.58 1.53499 16.965 1.42249 16.965 1.42249C20.175 2.95749 19.815 4.99249 18.7675 6.44749C17.4925 8.21999 14.935 9.41749 14.2675 11.575C13.8775 12.835 14.1175 14.16 15.345 14.965C16.5725 15.77 20.99 17.9075 21.1425 20.4375C21.2575 22.3425 19.7425 23.5425 19.7425 23.5425C21.515 23.16 25.245 20.55 24.14 17.865C23.605 16.565 21.1725 15.7025 22.3975 14.22C22.8525 13.6675 26.03 13.3725 26.3275 10.1575C26.465 8.65499 25.655 7.08999 24.9425 6.05499Z" fill="url(#paint3_linear_620_2360)"/>
<path opacity="0.85" d="M6.17749 15.415C6.17749 15.415 4.35249 10.575 8.09999 6.09253C11.1875 2.39753 13.975 3.89252 13.545 5.46752C13.1125 7.04252 11.77 7.52752 9.74749 9.11002C7.07499 11.2 6.17749 15.415 6.17749 15.415Z" fill="url(#paint4_linear_620_2360)"/>
<path d="M23.24 8.69249C22.7525 8.44999 22.3625 8.14499 22.1925 7.62749L21.47 5.23499L20.7475 7.62749C20.5775 8.14249 20.185 8.44999 19.7 8.69249L18.4925 9.21499L19.735 9.72998C20.2225 9.97248 20.5775 10.305 20.75 10.82L21.4725 13.1925L22.195 10.82C22.365 10.305 22.7225 9.97248 23.21 9.72998L24.4525 9.21499L23.24 8.69249Z" fill="url(#paint5_linear_620_2360)"/>
<path d="M20.8275 17.3425C20.34 17.1 19.95 16.795 19.78 16.2775L19.0575 13.885L18.335 16.2775C18.165 16.7925 17.7725 17.1 17.2875 17.3425L16.08 17.865L17.3225 18.38C17.81 18.6225 18.165 18.955 18.3375 19.47L19.06 21.8425L19.7825 19.47C19.9525 18.955 20.31 18.6225 20.7975 18.38L22.04 17.865L20.8275 17.3425Z" fill="url(#paint6_linear_620_2360)"/>
<path d="M26.585 13.4924C26.2175 13.3099 25.9225 13.0774 25.7925 12.6899L25.2475 10.8824L24.7025 12.6899C24.5725 13.0799 24.2775 13.3099 23.91 13.4924L23 13.8874L23.9375 14.2774C24.305 14.4599 24.575 14.7099 24.7025 15.0999L25.2475 16.8899L25.7925 15.0999C25.9225 14.7099 26.19 14.4599 26.5575 14.2774L27.495 13.8874L26.585 13.4924Z" fill="white"/>
<defs>
<radialGradient id="paint0_radial_620_2360" cx="0" cy="0" r="1" gradientUnits="userSpaceOnUse" gradientTransform="translate(19.9565 5.5398) rotate(-3.714) scale(19.046 19.046)">
<stop offset="0.104" stop-color="#CE93D8"/>
<stop offset="1" stop-color="#AB47BC"/>
</radialGradient>
<radialGradient id="paint1_radial_620_2360" cx="0" cy="0" r="1" gradientUnits="userSpaceOnUse" gradientTransform="translate(13.3372 11.5337) scale(17.3473 17.3472)">
<stop offset="0.28" stop-color="#81D4FA" stop-opacity="0"/>
<stop offset="0.964" stop-color="#81D4FA" stop-opacity="0.9"/>
</radialGradient>
<linearGradient id="paint2_linear_620_2360" x1="18.6725" y1="2.66279" x2="8.98549" y2="27.7518" gradientUnits="userSpaceOnUse">
<stop stop-color="#673AB7"/>
<stop offset="0.937" stop-color="#673AB7" stop-opacity="0"/>
</linearGradient>
<linearGradient id="paint3_linear_620_2360" x1="20.2195" y1="6.23349" x2="20.2195" y2="27.0192" gradientUnits="userSpaceOnUse">
<stop offset="0.235" stop-color="#1D44B3"/>
<stop offset="0.884" stop-color="#2044B3" stop-opacity="0.074"/>
<stop offset="0.936" stop-color="#2144B3" stop-opacity="0"/>
</linearGradient>
<linearGradient id="paint4_linear_620_2360" x1="8.22678" y1="4.12063" x2="10.4089" y2="12.2548" gradientUnits="userSpaceOnUse">
<stop offset="0.227" stop-color="white"/>
<stop offset="1" stop-color="white" stop-opacity="0"/>
</linearGradient>
<linearGradient id="paint5_linear_620_2360" x1="21.4677" y1="7.23999" x2="21.4677" y2="13.0967" gradientUnits="userSpaceOnUse">
<stop offset="0.261" stop-color="white"/>
<stop offset="1" stop-color="white" stop-opacity="0"/>
</linearGradient>
<linearGradient id="paint6_linear_620_2360" x1="19.0552" y1="14.5403" x2="19.0552" y2="21.3078" gradientUnits="userSpaceOnUse">
<stop stop-color="white"/>
<stop offset="1" stop-color="white" stop-opacity="0"/>
</linearGradient>
</defs>
</svg>
