<svg width="32" height="32" viewBox="0 0 32 32" fill="none" xmlns="http://www.w3.org/2000/svg">
<path d="M6.31001 9.81748H3.24751C2.84001 9.81748 2.51001 9.48748 2.51001 9.07998V7.27498C2.51001 6.86748 2.84001 6.53748 3.24751 6.53748H6.31001C6.71751 6.53748 7.04751 6.86748 7.04751 7.27498V9.07998C7.04672 9.27533 6.96877 9.46246 6.83063 9.60059C6.69249 9.73873 6.50536 9.81669 6.31001 9.81748Z" fill="#90A4AE"/>
<path d="M4.07001 10.13H3.07001V7.53003C3.07001 7.25503 3.29501 7.03003 3.57001 7.03003C3.84501 7.03003 4.07001 7.25503 4.07001 7.53003V10.13Z" fill="#94D1E0"/>
<path d="M10.59 8.94998H9.2125C8.9375 8.94998 8.715 8.72748 8.715 8.45248V7.07498C8.715 6.79998 8.8475 6.67998 9.2125 6.57748C9.5775 6.47498 10.2425 6.46248 10.59 6.57748C10.875 6.67248 11.0875 6.79998 11.0875 7.07498V8.45248C11.0875 8.72748 10.8625 8.94998 10.59 8.94998Z" fill="#546E7A"/>
<path d="M1 14.725H31V29.76H1V14.725Z" fill="#212121"/>
<path d="M1 29.42V30.1025C1 30.5975 1.4025 31 1.8975 31H30.105C30.6 31 31.0025 30.5975 31.0025 30.1025V29.42H1Z" fill="#B0BEC5"/>
<path d="M10.835 10.1375H8.96251C8.35251 10.1375 7.85751 9.64252 7.85751 9.03252V8.87001C7.85751 8.26001 8.35251 7.76501 8.96251 7.76501H10.835C11.445 7.76501 11.94 8.26001 11.94 8.87001V9.03252C11.9404 9.17773 11.912 9.32158 11.8566 9.45581C11.8012 9.59004 11.7199 9.712 11.6172 9.81468C11.5145 9.91736 11.3925 9.99874 11.2583 10.0541C11.1241 10.1095 10.9802 10.1379 10.835 10.1375Z" fill="#90A4AE"/>
<path d="M30.4325 8.53998H2.0125C1.4525 8.53998 1 8.99248 1 9.55248V14.9825H31V9.10748C31 8.79248 30.745 8.53998 30.4325 8.53998Z" fill="#B0BEC5"/>
<path d="M28.1225 13.81H23.585C23.4577 13.81 23.3356 13.7594 23.2456 13.6694C23.1556 13.5794 23.105 13.4573 23.105 13.33V10.1675C23.105 9.9025 23.32 9.6875 23.585 9.6875H28.1225C28.3875 9.6875 28.6025 9.9025 28.6025 10.1675V13.3325C28.6025 13.595 28.39 13.81 28.1225 13.81Z" fill="#78909C"/>
<path d="M23.105 13.21V10.22C23.105 9.925 23.3425 9.6875 23.6375 9.6875H28.085C28.335 9.6875 28.4375 9.825 28.4375 9.825L23.2775 13.68C23.2775 13.68 23.105 13.575 23.105 13.21Z" fill="#757575"/>
<path d="M24.11 10.44H27.5975V13.0575H24.11V10.44Z" fill="#212121"/>
<path d="M2.645 28.9675H1.425C1.19 28.9675 1 28.7775 1 28.5425V17.07C1 16.835 1.19 16.645 1.425 16.645H2.645C2.88 16.645 3.07 16.835 3.07 17.07V28.5425C3.07 28.7775 2.8775 28.9675 2.645 28.9675ZM30.57 28.9675H29.35C29.115 28.9675 28.925 28.7775 28.925 28.5425V17.07C28.925 16.835 29.115 16.645 29.35 16.645H30.57C30.805 16.645 30.995 16.835 30.995 17.07V28.5425C30.995 28.7775 30.805 28.9675 30.57 28.9675Z" fill="#616161"/>
<path d="M2.01001 30.66C1.73501 30.66 1.51001 30.435 1.51001 30.16V29.55H2.51001V30.16C2.51001 30.2926 2.45733 30.4198 2.36356 30.5136C2.26979 30.6074 2.14262 30.66 2.01001 30.66ZM30.465 14.63H29.465V9.53003C29.465 9.25503 29.69 9.03003 29.965 9.03003C30.24 9.03003 30.465 9.25503 30.465 9.53003V14.63ZM2.79001 14.63H1.79001V9.53003C1.79001 9.25503 2.01501 9.03003 2.29001 9.03003C2.56501 9.03003 2.79001 9.25503 2.79001 9.53003V14.63ZM29.965 30.66C29.69 30.66 29.465 30.435 29.465 30.16V29.55H30.465V30.16C30.465 30.2926 30.4123 30.4198 30.3186 30.5136C30.2248 30.6074 30.0976 30.66 29.965 30.66Z" fill="#B9E4EA"/>
<path d="M18.0975 30.275C22.6248 30.275 26.295 26.6049 26.295 22.0775C26.295 17.5501 22.6248 13.88 18.0975 13.88C13.5701 13.88 9.89999 17.5501 9.89999 22.0775C9.89999 26.6049 13.5701 30.275 18.0975 30.275Z" fill="#616161"/>
<path d="M18.0975 29.195C22.0284 29.195 25.215 26.0084 25.215 22.0775C25.215 18.1466 22.0284 14.96 18.0975 14.96C14.1666 14.96 10.98 18.1466 10.98 22.0775C10.98 26.0084 14.1666 29.195 18.0975 29.195Z" fill="#E0E0E0"/>
<path d="M18.0975 27.16C20.9045 27.16 23.18 24.8845 23.18 22.0775C23.18 19.2705 20.9045 16.995 18.0975 16.995C15.2905 16.995 13.015 19.2705 13.015 22.0775C13.015 24.8845 15.2905 27.16 18.0975 27.16Z" fill="#2F7889"/>
<path d="M18.0975 28.6175C21.7094 28.6175 24.6375 25.6894 24.6375 22.0775C24.6375 18.4655 21.7094 15.5375 18.0975 15.5375C14.4856 15.5375 11.5575 18.4655 11.5575 22.0775C11.5575 25.6894 14.4856 28.6175 18.0975 28.6175Z" fill="black"/>
<path d="M18.0975 27.0625C20.8506 27.0625 23.0825 24.8307 23.0825 22.0775C23.0825 19.3244 20.8506 17.0925 18.0975 17.0925C15.3443 17.0925 13.1125 19.3244 13.1125 22.0775C13.1125 24.8307 15.3443 27.0625 18.0975 27.0625Z" fill="#2F7889"/>
<path d="M16.9175 17.895C15.34 18.2525 14.3975 19.7875 14.3975 20.92C14.3975 21.8375 15.005 21.6075 15.2 21.275C15.7025 20.4225 16.31 19.7125 17.3575 19.415C17.7775 19.295 18.2675 19.0325 18.2175 18.5425C18.1475 17.845 17.455 17.7725 16.9175 17.895Z" fill="#94D1E0"/>
<path opacity="0.25" d="M18.0975 24.3025C19.3263 24.3025 20.3225 23.3063 20.3225 22.0775C20.3225 20.8486 19.3263 19.8525 18.0975 19.8525C16.8687 19.8525 15.8725 20.8486 15.8725 22.0775C15.8725 23.3063 16.8687 24.3025 18.0975 24.3025Z" fill="black"/>
<path d="M10.4725 11.6825C10.36 11.6625 10.335 11.5125 10.4325 11.4575L13.68 9.81749C14.2825 9.47499 14.335 9.30749 14.1375 8.77499L12.22 3.21999C12.18 3.10249 12.32 3.00749 12.415 3.08749L16.6425 6.66749C17.435 7.30749 17.6975 7.03999 17.915 6.66249L20.2575 2.51999C20.271 2.49739 20.2915 2.47974 20.3158 2.46968C20.3402 2.45962 20.3671 2.45767 20.3926 2.46412C20.4182 2.47058 20.441 2.48509 20.4576 2.50551C20.4742 2.52593 20.4838 2.55117 20.485 2.57749L20.5025 6.73999C20.485 7.54249 20.8275 7.39499 21.945 7.10749L25.5675 6.09499C25.6875 6.05999 25.775 6.20499 25.69 6.29499L21.705 10.44C21.4475 10.77 21.475 10.875 21.585 11.3325L22.3925 13.68C22.4225 13.7675 22.3475 13.8575 22.255 13.84L19.5625 13.0575C19.16 12.9875 18.9625 12.9875 18.7075 13.4025L16.805 16.5C16.7425 16.575 16.575 16.6575 16.5225 16.505L15.5125 12.9125C15.385 12.495 15.21 12.4875 14.78 12.4075L10.4725 11.6825Z" fill="#FF8F00"/>
<path d="M13.0175 11.21L16.205 10.1375L13.7875 5.32251L17.625 9.03001L19.39 5.85751L19.1825 9.36501L22.815 8.00251L20.02 10.6925L21.125 12.59L18.625 11.83L16.9725 14.74L16.46 11.5775L13.0175 11.21Z" fill="#FFEE58"/>
</svg>
