<svg width="32" height="32" viewBox="0 0 32 32" fill="none" xmlns="http://www.w3.org/2000/svg">
<g clip-path="url(#clip0_508_6464)">
<path d="M30.9675 29.7L29.4225 25.5775L28.36 22.74C28.12 22.0075 28.075 21.705 27.6675 21.2975L24.7125 18.3425L18.3475 24.7075L21.305 27.665C21.5475 27.9075 22.0125 28.115 22.745 28.355L25.5825 29.4175L29.705 30.9625C30.4825 31.215 31.22 30.4775 30.9675 29.7Z" fill="#FFECB3"/>
<path d="M29.705 30.9625L26.29 29.6825C26.29 29.6825 27.7 29.6025 28.6525 28.65C29.605 27.6975 29.6875 26.285 29.6875 26.285L30.9675 29.7C31.22 30.4775 30.4825 31.215 29.705 30.9625Z" fill="#616161"/>
<path d="M10.795 4.42748L9.44251 9.24998L4.43251 10.79L1.60251 7.96248C0.822507 7.18248 0.452507 5.62748 2.52001 3.55998L3.76751 2.31248C5.55501 0.524981 7.18751 0.817481 7.96751 1.59748L10.795 4.42748Z" fill="#EF5350"/>
<path d="M8.5675 11.16L11.16 8.5675L26.2175 23.625C26.2175 23.625 26.525 24.905 25.7425 25.6875C24.96 26.47 23.625 26.2175 23.625 26.2175L8.5675 11.16Z" fill="#FFC107"/>
<path d="M6.6825 13.045L21.3275 27.69C23.6925 28.205 23.59 26.1825 23.59 26.1825L8.5675 11.16L6.6825 13.045Z" fill="#FFA000"/>
<path d="M11.1625 8.56499L26.185 23.5875C26.185 23.5875 28.89 23.5875 27.6525 21.285L13.0475 6.67999L11.1625 8.56499Z" fill="#FDD835"/>
<path d="M23.5675 26.51L8.41501 11.3575L8.76751 11.005L24.0175 26.255L23.625 26.215L23.5675 26.51Z" fill="#D1762C"/>
<path d="M26.2775 24.0375L10.0375 7.79751L10.3925 7.44501L26.51 23.5625L26.2175 23.6225L26.2775 24.0375Z" fill="#F19534"/>
<path opacity="0.2" d="M13.0475 6.67999C13.0475 6.67999 11.68 8.70249 10.5475 9.84749C8.37999 12.0325 6.6825 13.045 6.6825 13.045L7.12 13.4825C7.7425 13.24 9.335 12.5125 10.925 10.925C12.525 9.32499 13.28 7.76249 13.5325 7.16499L13.0475 6.67999Z" fill="#4E342E"/>
<path d="M5.8725 12.975C6.0125 13.115 6.21 13.1775 6.405 13.145C6.405 13.145 8.4525 12.52 10.4875 10.485C12.5225 8.45003 13.195 6.46753 13.195 6.46753C13.2275 6.27253 13.165 6.07253 13.025 5.93253L10.88 3.78753C10.79 3.69753 10.665 3.65003 10.54 3.66503C10.4975 3.67003 10.455 3.67503 10.41 3.68253C10.24 3.70753 10.105 3.83253 10.0575 3.99753C10.0575 3.99753 9.0775 5.89753 7.4625 7.51003C5.8475 9.12253 3.8775 10.0625 3.8775 10.0625C3.7125 10.1075 3.585 10.24 3.56 10.41V10.415C3.54 10.55 3.585 10.685 3.68 10.78L5.8725 12.975Z" fill="#94D1E0"/>
<path d="M4.54852 4.54751C6.01588 3.08009 6.85322 1.53832 6.41875 1.10387C5.98429 0.669417 4.44254 1.50681 2.97518 2.97423C1.50781 4.44165 0.670472 5.98342 1.10494 6.41787C1.5394 6.85232 3.08115 6.01493 4.54852 4.54751Z" fill="#FF8383"/>
<path d="M10.4025 5.435C9.58 7.01 8.2275 8.3025 6.6175 9.05C6.5125 9.0975 6.365 9.1325 6.3025 9.0375C6.255 8.9625 6.2975 8.8675 6.345 8.7925C6.555 8.4675 6.845 8.205 7.125 7.9375C7.855 7.2375 8.525 6.4775 9.1275 5.6675C9.435 5.255 9.7225 4.83 9.9925 4.3925C10.1425 4.1525 10.41 3.645 10.7525 4.0025C11.05 4.31 10.56 5.1325 10.4025 5.435ZM9.47 8.3675C9.405 8.435 9.3375 8.5025 9.305 8.59C9.2725 8.6775 9.285 8.79 9.36 8.845C9.4225 8.8925 9.5075 8.8875 9.585 8.875C10.0175 8.8075 10.4 8.5625 10.7375 8.2875C11.475 7.69 12.1 6.86 12.16 5.9125C12.1675 5.8 12.165 5.6825 12.115 5.5825C11.7975 4.955 11.125 6.3575 10.9925 6.555C10.55 7.2125 10.0225 7.8025 9.47 8.3675Z" fill="#B9E4EA"/>
</g>
<defs>
<clipPath id="clip0_508_6464">
<rect width="32" height="32" fill="white"/>
</clipPath>
</defs>
</svg>
