<svg width="32" height="32" viewBox="0 0 32 32" fill="none" xmlns="http://www.w3.org/2000/svg">
<path d="M7.36501 14.965L6.71001 13.5425L5.10751 7.31249L4.70001 6.34249L5.28751 4.89749C5.28751 4.89749 6.12001 5.01499 6.75501 5.73249C7.52751 6.60749 8.78751 9.22499 8.78751 9.22499L8.52251 7.15999L9.96001 3.43249C9.96001 3.43249 10.59 3.36499 10.7575 3.53749C11.055 3.84249 11.5625 5.98249 11.7425 6.65999C11.9225 7.33749 12.1725 8.26249 12.4875 8.66749C12.8025 9.07249 13.1875 9.16499 13.1875 9.16499L14.315 4.80999L14.585 0.85999C14.585 0.85999 14.98 0.85749 15.5325 0.97249C15.95 1.05999 16.23 1.20249 16.365 1.36999C16.5 1.53749 16.505 4.19999 16.505 4.19999C16.505 4.19999 18.8875 2.16999 18.965 2.19249C19.13 2.23749 19.6425 2.34999 19.9125 2.64499C20.1825 2.93749 19.9575 4.02249 19.755 4.74499C19.5525 5.46749 18.8525 7.81499 18.8525 7.81499L19.485 7.57499L19.625 7.70999L20.8025 5.90249C20.8025 5.90249 21.2275 5.89999 21.5725 6.06999C21.9475 6.25499 22.1725 6.70999 22.1725 6.70999L25.1975 2.33249C25.1975 2.33249 25.4275 2.53749 25.63 2.73999C25.8325 2.94249 25.975 3.08499 25.985 3.28999C25.995 3.49249 25.265 4.83999 24.9275 5.51749C24.59 6.19499 24.025 7.54999 24.025 7.54999L26.485 5.67249C26.485 5.67249 27.3 5.78749 27.325 6.05749C27.3475 6.32749 26.915 6.82749 26.485 7.57249C26.055 8.31749 25.335 9.76249 25.085 10.2575C24.835 10.7525 25.175 10.7775 25.175 10.7775L28.1225 8.91499C28.1225 8.91499 28.7575 9.04499 28.8175 9.33999C28.885 9.67749 28.155 10.35 27.68 10.89C27.205 11.4325 26.19 12.74 25.6725 13.7575C25.155 14.775 24.8075 15.41 24.8075 15.41L20.32 19.8625L8.38001 19.14L7.36501 14.965Z" fill="url(#paint0_radial_508_6515)"/>
<path d="M22.2925 10.05C21.9925 10.12 21.045 11.76 20.16 14.255C19.6275 15.755 19.275 17.395 19.295 18.18C19.315 18.965 20.5 18.725 20.5 18.725L21.0025 17.095C21.0025 17.095 21.565 15.1825 22.23 13.755C23.0075 12.08 24.015 11.015 23.94 10.7575C23.84 10.4125 22.715 9.94998 22.2925 10.05ZM25.27 5.78498C24.85 6.02998 23.9025 7.61498 23.62 8.21998C23.3375 8.82498 23.3275 9.96248 23.6375 10.11C24.02 10.29 24.445 9.00498 25.09 7.93748C25.735 6.86998 26.4975 5.66248 26.4975 5.66248C26.4975 5.66248 25.7525 5.50248 25.27 5.78498ZM26.86 8.92498C26.2175 9.19748 25.02 10.475 24.605 11.1175C23.84 12.305 23.2775 13.6325 23.075 14.175C22.875 14.7175 22.7125 15.4625 23.3375 15.12C23.9625 14.7775 24.765 13.1675 25.7925 11.72C26.9825 10.04 28.1275 8.90248 28.1275 8.90248C28.1275 8.90248 27.3825 8.70248 26.86 8.92498ZM24.1625 1.75998C23.915 1.72998 23.2375 3.52998 22.855 4.39498C22.4725 5.25998 21.9625 6.40498 21.9625 6.40498C21.9625 6.40498 21.6675 8.68248 22.09 8.72248C22.5125 8.76248 23.34 5.98498 23.9575 4.71248C24.56 3.47248 25.195 2.32498 25.195 2.32498C25.195 2.32498 24.645 1.81998 24.1625 1.75998ZM19.7125 6.26998C19.49 6.50498 19.615 7.71498 19.615 7.71498C19.615 7.71498 20.48 8.35998 20.6425 8.21748C20.805 8.07498 20.8125 5.88998 20.8125 5.88998C20.8125 5.88998 20.075 5.88748 19.7125 6.26998ZM17.925 7.91748C17.6125 8.17998 17.825 9.40998 17.745 10.5125C17.625 12.1625 17.1425 15.5425 17 16.53C16.8575 17.5175 16.7175 18.6025 16.7175 18.6025L18.2675 18.36C18.2675 18.36 18.87 13.7525 19.1125 11.98C19.355 10.2075 19.715 7.69498 19.475 7.55248C19.2325 7.41498 18.3075 7.59498 17.925 7.91748ZM17.7375 2.03998C17.3425 2.11498 16.5075 4.19998 16.5075 4.19998C16.5075 4.19998 16.4575 5.70498 16.4575 6.42998C16.4575 7.15498 16.3175 8.01998 16.5575 8.01998C16.7975 8.01998 17.2625 6.63248 17.745 5.42498C18.2275 4.21748 18.9675 2.19248 18.9675 2.19248C18.9675 2.19248 18.2975 1.93498 17.7375 2.03998ZM13.195 1.27748C12.9225 1.56498 13.355 2.30498 13.395 4.33498C13.435 6.36748 13.185 9.16248 13.185 9.16248C13.185 9.16248 13.4 9.14748 13.535 9.56498C13.65 9.91748 13.8375 12.06 14.0775 11.98C14.32 11.9 14.62 10.47 14.8625 8.05498C15.105 5.63998 15.0025 3.76998 14.9225 3.00498C14.8425 2.23998 14.5825 0.85498 14.5825 0.85498C14.5825 0.85498 13.5975 0.85498 13.195 1.27748ZM9.96001 3.43248C9.96001 3.43248 8.79751 3.51498 8.47751 4.13998C8.15501 4.76498 8.25751 5.06748 8.31751 5.66998C8.37751 6.27248 8.56751 7.47498 8.56751 7.47498C8.56751 7.47498 9.63501 8.80248 10.2175 8.47998C10.8 8.15998 9.96001 3.43248 9.96001 3.43248ZM5.28751 4.89748C5.28751 4.89748 4.64251 4.77748 4.26001 4.85748C3.87751 4.93748 3.89751 5.29998 4.08001 5.54248C4.26001 5.78498 5.09251 7.28998 5.09251 7.28998C5.09251 7.28998 5.34001 7.29498 5.66251 7.41498C5.98501 7.53498 6.53751 7.83498 6.51501 7.35248C6.47501 6.50998 5.28751 4.89748 5.28751 4.89748ZM7.10501 14.4C7.10501 14.4 5.89001 11.9425 4.98501 10.5925C4.08001 9.24248 3.13251 8.19748 3.13251 7.97748C3.13251 7.75498 3.75751 7.53498 4.11751 7.43498C4.47751 7.33498 5.10501 7.31248 5.10501 7.31248C5.10501 7.31248 6.59251 9.82748 7.19751 11.1975C7.80251 12.5675 8.36501 14.1625 8.22501 14.3575C8.09751 14.5325 7.19501 14.415 7.10501 14.4ZM7.92251 10.01C7.82751 10.3625 8.28501 11.9625 8.56751 13.11C8.85001 14.2575 9.19251 15.465 9.19251 15.465L10.1575 17.4375L11.225 17.055C11.225 17.055 10.6625 15.9675 10.34 14.8425C10.0175 13.7125 9.60001 10.2075 9.17001 9.74998C8.87001 9.42748 7.98501 9.78998 7.92251 10.01ZM11.265 9.60748C11.0125 9.77248 11.405 12.445 11.6075 13.5525C11.81 14.66 12.2325 15.8275 12.4525 16.37C12.675 16.9125 13.3175 18.2825 13.3175 18.2825C13.3175 18.2825 13.9825 19.0675 14.0025 18.9875C14.0225 18.9075 14.305 17.92 14.305 17.92C14.305 17.92 13.4175 15.3025 13.275 14.175C13.135 13.0475 12.9125 9.62748 12.6925 9.50748C12.4725 9.38748 11.6675 9.34748 11.265 9.60748ZM15.7525 9.66748C15.45 9.94748 15.15 13.6525 15.0275 15.02C14.905 16.3875 14.805 18.4 14.805 18.4L16.1525 18.3C16.1525 18.3 16.655 13.33 16.735 12.685C16.815 12.04 17.1775 10.5725 16.9975 9.98748C16.8175 9.40748 16.0125 9.42748 15.7525 9.66748Z" fill="#FBDE93"/>
<path d="M6.70502 14.8575C6.62002 15.05 9.24752 29.4275 9.29002 29.6425C9.33252 29.8575 9.24752 30.0525 9.65502 30.245C10.065 30.4375 10.705 30.54 11.115 30.585C11.525 30.6275 14.3475 30.6325 14.37 30.29C14.3925 29.945 22.83 17.655 22.83 17.655C22.83 17.655 24.385 15.0475 24.2775 14.8325C24.17 14.6175 23.75 14.7175 23.2925 15.03C22.835 15.345 22.4125 16.1225 21.1275 16.985C19.735 17.92 17.89 18.1175 16.035 18.095C14.325 18.0725 12.2925 17.7625 10.8375 16.685C9.55752 15.735 9.18002 15.05 8.04002 14.7475C7.03502 14.48 6.70502 14.8575 6.70502 14.8575Z" fill="#FD703F"/>
<path d="M8.6925 15.7975L11.0775 30.59C11.0775 30.59 13.92 31 16.135 31.0425C18.3525 31.085 20.995 30.6225 20.995 30.6225L22.915 24.1325L24.545 15.57C24.545 15.57 24.1425 15.1675 23.69 15.5C23.3425 15.755 22.27 17.415 20.375 18.1475C18.2375 18.9725 14.385 19.0325 11.98 18.0175C9.775 17.09 9.1025 15.8825 8.6925 15.7975Z" fill="#FF2A23"/>
<path d="M22.3775 30.1675C21.8925 30.4575 20.7625 30.6525 20.7625 30.6525C20.7625 30.6525 21.8825 25.2075 22.505 22.365C23.1275 19.5225 24.025 14.715 24.025 14.715C24.025 14.715 24.385 14.6575 24.755 14.7025C25.175 14.755 25.425 14.8775 25.51 15.01C25.6475 15.225 24.82 19.24 24.01 23.16C23.27 26.76 22.635 30.015 22.3775 30.1675Z" fill="#DC0D25"/>
<defs>
<radialGradient id="paint0_radial_508_6515" cx="0" cy="0" r="1" gradientUnits="userSpaceOnUse" gradientTransform="translate(16.1468 -1.96801) scale(20.782)">
<stop offset="0.447" stop-color="#FCC216"/>
<stop offset="0.59" stop-color="#FABB16"/>
<stop offset="0.794" stop-color="#F3A814"/>
<stop offset="0.921" stop-color="#ED9913"/>
</radialGradient>
</defs>
</svg>
