<svg width="32" height="32" viewBox="0 0 32 32" fill="none" xmlns="http://www.w3.org/2000/svg">
<path d="M15.7825 27.0475C22.9084 27.0475 28.685 21.2708 28.685 14.145C28.685 7.01914 22.9084 1.24249 15.7825 1.24249C8.65665 1.24249 2.88 7.01914 2.88 14.145C2.88 21.2708 8.65665 27.0475 15.7825 27.0475Z" fill="#880E4F"/>
<path d="M13.335 9.22753C13.305 9.22753 13.2725 9.22003 13.2425 9.21753C12.715 9.18753 12.575 8.58752 12.6625 8.25752C13.2025 6.19002 12.935 4.35253 12.05 2.00503C11.8675 1.52503 12.595 1.40003 12.9125 1.52753C13.2175 1.65003 13.5 2.09003 13.6225 2.42253C14.355 4.40503 14.56 6.48753 13.955 8.71503C13.875 9.01503 13.635 9.23503 13.335 9.22753Z" fill="#EC407A"/>
<path d="M14.95 11.145C14.895 11.145 14.84 11.135 14.785 11.1175C14.7073 11.0941 14.635 11.0556 14.5722 11.0042C14.5094 10.9528 14.4573 10.8896 14.419 10.8181C14.3807 10.7465 14.3569 10.6682 14.3489 10.5874C14.3409 10.5067 14.3489 10.4251 14.3725 10.3475C15.0675 8.04749 15.575 4.28749 13.965 1.46249C13.795 1.16499 14.2275 0.969991 14.5675 1.00249C15.3475 1.07249 15.8025 2.23999 15.9525 2.75999C16.6575 5.18749 16.4275 8.43249 15.555 10.705C15.455 10.9725 15.22 11.1525 14.95 11.145Z" fill="#EC407A"/>
<path d="M16.615 12.9575C16.19 12.835 16.11 12.275 16.2075 11.9475C18.1425 5.46252 16.195 1.47752 16.18 1.43502C16.06 1.11502 17.11 0.677518 17.6275 1.97502C17.7025 2.16252 19.43 6.50002 17.4825 12.475C17.39 12.75 17.06 13.0875 16.615 12.9575ZM5.60499 22.625C5.42499 22.4125 5.19999 22.075 5.48499 21.885C5.95749 21.5675 7.57999 21.0525 8.87749 19.2925C9.07999 19.0175 9.42249 18.89 9.71999 19.06C10.0175 19.2275 10.15 19.625 9.95249 19.9025C8.37749 22.1225 6.45999 22.7225 6.38249 22.7675C6.28749 22.8225 5.78499 22.8375 5.60499 22.625ZM6.64749 23.5475C6.51749 23.2225 7.34749 23.08 7.34749 23.08C7.71499 22.94 9.22249 22.6575 10.425 20.765C10.6075 20.4775 10.9725 20.365 11.2675 20.535C11.565 20.705 11.6675 21.0825 11.4975 21.3775C10.69 22.7925 9.11249 23.8525 8.03249 24.11C7.45499 24.2475 6.77499 23.865 6.64749 23.5475ZM8.66749 25.4C8.28499 25.1975 8.17249 24.8275 8.41499 24.7475C9.84749 24.285 11.4125 23.09 12.1725 21.965C12.3625 21.6825 12.7475 21.6075 13.03 21.8C13.3125 21.99 13.385 22.375 13.195 22.6575C12.3025 24.0025 11.3925 24.6825 9.90749 25.3275C9.62499 25.45 9.02499 25.59 8.66749 25.4ZM10.4975 25.9525C11.435 25.5225 12.9975 24.6325 13.9025 23.115C14.0775 22.8225 14.4575 22.725 14.75 22.9C15.0425 23.075 15.14 23.455 14.965 23.7475C14.235 24.9725 13.22 25.94 11.6725 26.485C10.92 26.7525 10.1875 26.0975 10.4975 25.9525ZM4.73999 20.84C2.65749 18.385 2.28999 15.18 2.82499 12.005C2.94749 11.275 3.21499 10.82 3.47999 10.8225C3.82249 10.8275 4.15249 12.0025 4.05249 12.64C3.60249 15.5075 4.43249 18.32 6.22749 20.5075C6.33499 20.64 6.18249 21.0875 5.79999 21.255C5.41749 21.42 4.98999 21.135 4.73999 20.84Z" fill="#EC407A"/>
<path d="M6.32748 19.4575C5.38498 18.5725 4.60498 15.8025 4.60248 14.485C4.60248 14.1425 4.60498 13.65 4.94748 13.65C4.94748 13.65 5.71248 13.7675 5.83998 14.4825C6.02248 15.5125 6.59248 17.8775 7.54248 19.075C7.75498 19.3425 6.96998 20.06 6.32748 19.4575Z" fill="#EC407A"/>
<path d="M16.6075 27.525C15.52 27.58 13.85 27.3525 13.3025 26.6025C13.1 26.3275 13.4625 26.0675 13.7925 26.155C15.7825 26.6925 17.16 27.005 19.7025 25.77C20.2175 25.52 20.7875 25.7825 20.5325 26.1425C20.175 26.65 18.5625 27.4375 16.6075 27.525Z" fill="#D81B60"/>
<path d="M14.5675 25.2825C14.375 25 14.9475 24.5275 15.2875 24.5825C15.825 24.6675 16.1975 24.7625 16.5725 24.7775C16.9575 24.7925 17.43 24.6525 17.575 24.6525C17.9175 24.6525 18.7375 24.99 18.5275 25.26C17.8775 26.095 15.175 26.17 14.5675 25.2825Z" fill="#D81B60"/>
<path d="M21.62 11.1425C21.3075 11.18 21.0125 10.9725 20.945 10.66C20.8725 10.3275 21.085 9.99751 21.4175 9.92501C22.89 9.60501 24.81 8.5075 25.93 6.745C26.1975 6.3225 27.03 7.115 26.5825 7.785C25.2375 9.8075 23.475 10.745 21.68 11.1325C21.66 11.135 21.64 11.14 21.62 11.1425Z" fill="#EC407A"/>
<path d="M21.1925 13.38C21.032 13.3992 20.8704 13.3547 20.7423 13.2561C20.6142 13.1575 20.5299 13.0126 20.5075 12.8525C20.46 12.515 20.6925 12.2 21.0325 12.1525C23.455 11.805 26.1025 9.95747 26.9925 8.10747C27.14 7.79997 28.1625 8.70747 27.4325 9.71997C26.13 11.5225 23.575 13.0375 21.21 13.375C21.2025 13.38 21.1975 13.38 21.1925 13.38Z" fill="#EC407A"/>
<path d="M21.415 15.345C21.2175 15.3675 21.0225 15.385 20.835 15.3925C20.495 15.4075 20.205 15.1425 20.19 14.8C20.175 14.4575 20.44 14.1675 20.7825 14.1575C23.26 14.0525 26.8625 12.3875 27.98 10.315C28.1425 10.015 29.1775 10.865 28.2975 11.98C27.6375 12.8175 26.5975 13.5025 25.4075 14.1C24.1175 14.75 22.6675 15.1975 21.415 15.345ZM23.3725 17.035C23.1975 17.055 23.035 17.065 22.89 17.06C22.8088 17.0583 22.7288 17.0405 22.6545 17.0078C22.5802 16.975 22.5132 16.9279 22.4572 16.8691C22.4012 16.8103 22.3573 16.741 22.3282 16.6652C22.2991 16.5895 22.2853 16.5087 22.2875 16.4275C22.2892 16.3463 22.307 16.2663 22.3397 16.192C22.3725 16.1177 22.4196 16.0507 22.4784 15.9947C22.5372 15.9387 22.6065 15.8949 22.6823 15.8657C22.758 15.8366 22.8388 15.8228 22.92 15.825C24.0625 15.85 27.1475 14.65 28.4575 12.5925C28.6425 12.305 29.325 13.38 28.5875 14.22C26.9925 16.0375 24.88 16.8575 23.3725 17.035ZM18.605 14.5775C18.53 14.5775 18.455 14.565 18.38 14.535C18.0625 14.4125 17.9175 14.0575 18.0275 13.735C19.3 10.0025 19.745 5.6025 18.145 1.55C18.02 1.2325 19.24 1.19 19.5625 2.1375C21.0825 6.6225 20.625 10.2525 19.18 14.1825C19.09 14.43 18.8525 14.5775 18.605 14.5775Z" fill="#EC407A"/>
<path d="M23.27 7.45252C22.9525 7.05502 21.7375 6.09502 21.2675 5.93002C20.945 5.81502 20.8325 4.70502 21.175 4.70502C22.3 4.70252 23.8425 5.81502 24.3025 6.88002C24.6425 7.66752 23.92 8.26502 23.27 7.45252ZM24.84 6.45252C23.7325 4.97252 22.8425 4.00002 20.7925 3.28002C20.32 3.11252 19.8725 2.53252 20.16 2.34752C20.6925 2.00252 21.685 2.42252 21.9625 2.55502C23.0475 3.07252 24.0525 3.62752 24.8975 4.61002C25.375 5.16502 25.935 6.32252 25.7075 6.57502C25.3625 6.95752 24.9625 6.61502 24.84 6.45252ZM25.15 18.7375C24.97 18.4475 25.9725 18.03 26.0625 16.97C26.0925 16.63 27.1275 16.23 27.15 16.57C27.235 17.895 26.7675 18.3775 26.2475 18.755C25.68 19.1625 25.265 18.9275 25.15 18.7375ZM27.21 19.6425C26.7475 19.5375 26.9325 19.04 27.1475 18.775C27.9675 17.77 28.0425 17.2325 27.9575 16.1375C27.915 15.5975 28.3575 15.115 28.5675 15.3825C28.84 15.7325 29.045 16.755 28.85 17.595C28.39 19.5925 27.355 19.675 27.21 19.6425ZM22.5225 8.03502C22.5975 8.13252 22.67 8.23752 22.7 8.35502C22.7325 8.47502 22.7175 8.61252 22.6375 8.70502C22.5825 8.76752 22.5075 8.80502 22.4325 8.84002C22.29 8.90752 22.1475 8.97502 21.9925 9.00252C21.8375 9.03002 21.67 9.01252 21.5425 8.92252C21.3825 8.80752 21.3175 8.60252 21.275 8.41252C21.2025 8.10252 21.1575 7.78752 21.135 7.47002C21.13 7.39502 21.1275 7.31252 21.1625 7.24502C21.375 6.84502 22.3775 7.85252 22.5225 8.03502Z" fill="#D81B60"/>
<path d="M23.27 24.53C21.8 24.2725 20.325 23.6975 18.8825 23.0425C18.55 22.8825 18.23 22.715 17.91 22.545C17.38 22.845 16.81 23.0875 16.215 23.2675C17.7925 24.15 19.1025 24.6275 20.0625 24.9125C21.705 25.4025 22.3775 25.3125 22.5175 25.2925C23.0575 25.21 23.605 24.5975 23.27 24.53Z" fill="#EC407A"/>
<path d="M4.81252 9.07253C4.65002 8.77253 4.40752 8.02753 4.40752 8.02753C3.97752 7.97503 3.62502 8.53003 3.78252 9.47253C3.87502 10.015 6.32252 16.1825 13.5575 21.545C14.5075 22.25 15.395 22.8125 16.2125 23.27C16.2125 23.27 16.7875 23.65 17.5725 23.245C18.2375 22.9025 17.9075 22.545 17.9075 22.545C12.07 19.47 8.07252 15.06 4.81252 9.07253Z" fill="#F06292"/>
<path d="M24.9125 23.1725C23.145 22.6075 21.43 21.9325 19.79 21.12C19.4575 21.47 19.0925 21.7875 18.7 22.0725C19.0475 22.2675 19.3925 22.455 19.735 22.6375C20.8125 23.2125 25.1225 25.0875 24.9125 23.1725Z" fill="#EC407A"/>
<path d="M19.7875 21.12C13.9375 18.2225 8.90247 13.6825 5.72247 6.01752C4.88497 6.20252 4.97247 7.18502 5.09247 7.50502C7.93497 15.0675 13.6925 19.265 18.6975 22.0725C18.6975 22.0725 19.4875 22.5075 20.01 21.84C20.3225 21.4375 19.7875 21.12 19.7875 21.12Z" fill="#F06292"/>
<path d="M26.17 21.56C24.3175 21.0325 22.59 20.3 20.9875 19.435C20.7836 19.8308 20.5443 20.2073 20.2725 20.56C21.5525 21.21 22.905 21.76 24.325 22.1725C26.12 22.69 26.5075 21.6175 26.17 21.56Z" fill="#EC407A"/>
<path d="M7.26 4.45751C7.055 4.02501 6.19 4.68251 6.34 5.36501C7.2725 8.76001 11.58 16.4 20.2725 20.56C20.2725 20.56 20.9675 20.865 21.2325 20.285C21.4975 19.7025 20.99 19.435 20.99 19.435C11.8575 14.5775 8.39 7.62001 7.26 4.45751Z" fill="#F06292"/>
<path d="M27.4075 19.9975C25.3175 19.2275 23.45 18.395 21.755 17.4575C21.7425 17.555 21.7275 17.6525 21.705 17.7425C21.6175 18.12 21.5 18.4825 21.36 18.83C22.8375 19.5875 24.4275 20.235 26.1425 20.7725C27.5125 21.155 27.7275 20.12 27.4075 19.9975Z" fill="#EC407A"/>
<path d="M21.755 17.4575C15.575 14.06 12.4525 10.1775 9.00999 3.47502C8.58999 2.80002 7.56749 3.41753 7.96499 4.13503C11 10.7175 14.24 14.8025 21.36 18.8325C21.36 18.8325 21.905 19.045 22.115 18.41C22.2475 18.01 22.1225 17.6575 21.755 17.4575Z" fill="#F06292"/>
<path d="M17.63 31C16.9375 31 16.235 30.9825 15.5325 30.9425C11.2 30.7025 5.79 29.2125 4.155 26.5C3.6425 25.6525 2.085 23.07 5.2625 17.845C7.045 14.915 11.3275 8.65502 10.155 2.67502C10.155 2.67502 9.9925 2.10002 10.505 1.88252C11.2625 1.56252 11.385 2.21252 11.385 2.21252C12.8825 9.19002 8.4075 15.54 6.535 18.6175C4.1075 22.61 4.7425 24.5875 5.43 25.7275C6.225 27.0425 9.5925 29.12 15.615 29.4525C23.185 29.87 27.8175 27.9775 28.2925 27.3C28.31 27.045 28.145 26.745 25.305 26.685C24.5175 26.6675 24.59 25.5175 24.985 25.4725C26.14 25.3375 28.3125 25.3375 29.3075 26.0575C29.81 26.4225 30.02 26.96 29.8225 27.585C29.23 29.4575 23.9575 31 17.63 31Z" fill="#FF80AB"/>
</svg>
