<svg width="32" height="32" viewBox="0 0 32 32" fill="none" xmlns="http://www.w3.org/2000/svg">
<path d="M14.15 3.04748C19.9075 1.54748 26.8125 6.43748 25.3775 14.575C24.2275 21.0875 21.2625 23.11 18.145 25.675C16.7025 26.8625 15.055 30.5575 11.8625 30.1975C8.0275 29.7675 7.3275 26.66 7.4425 24.4525C7.625 20.9625 8.135 18.9475 7.9025 16.46C7.26 9.56997 8.2175 4.59248 14.15 3.04748Z" fill="#FFCA28"/>
<path d="M18.7325 19.5425C18.205 21.6775 16.7325 21.815 15.315 22.5075C14.22 23.0425 13.8325 23.4675 13.0125 24.375C12.3 25.1625 10.6725 25.0525 9.77499 23.7275C9.46749 23.275 9.36499 22.115 9.89999 21.26C11.08 19.37 9.91749 18.3575 10.1025 17.4075C10.3025 16.3925 11.3025 16.2925 11.9175 16.7025C12.8675 17.3325 13.395 18.1025 13.7175 18.61C13.9925 19.04 14.4725 19.195 14.4775 18.235C14.4875 15.8925 10.185 12.8575 11.895 8.86748C13.1725 5.88498 15.925 5.02498 18.8 6.33748C21.6325 7.62998 23.66 10.3425 23.4325 13.585C23.3225 15.1275 22.64 16.625 21.545 17.7175C21.78 17.4825 21.6325 12.3925 19.285 11.2575C18.23 10.75 16.725 11.15 16.375 12.26C16.1575 12.9525 16.4175 13.7125 16.8075 14.325C17.1975 14.9375 17.715 15.4625 18.09 16.0875C18.78 17.235 18.995 18.4725 18.7325 19.5425Z" fill="#FFB300"/>
<path d="M10.2725 16.96C10.195 17.0825 10.135 17.23 10.1 17.4075C9.915 18.355 11.075 19.3675 9.8975 21.26C9.5175 21.87 9.4625 22.63 9.57 23.1825C10.155 23.41 10.9625 23.4275 11.9125 22.56C12.5175 22.01 12.71 21.1075 12.5825 20.32C12.2525 18.3 11.25 18.165 10.2725 16.96Z" fill="#F09300"/>
<path d="M19.66 22.3675C23.0175 17.8625 24.4475 14.6075 23.0475 9.9575C22.43 7.9025 20.2475 6.0075 18.325 5.4075C16.6 4.8675 14.645 5.1875 13.2225 6.24C12.3325 6.8975 10.5925 9.0975 10.8925 11.7C11.1325 13.7975 12.0125 14.775 12.7375 15.4925C13.9575 16.7025 14.3775 17.575 14.3775 17.575C14.33 17.0275 14.3475 16.645 13.4475 15.3225C12.915 14.54 12.0125 13.4 11.805 11.595C11.765 11.2425 11.775 10.9125 11.8175 10.595C12.295 11.46 13.6025 12.775 16.0675 14.6025C19.9375 17.47 18.145 20.86 16.7825 21.425C15.7925 21.835 14.7675 22.12 13.97 22.8775C13.6275 23.2025 13.3625 23.6275 13.3025 24.095C14.435 22.6375 15.9325 22.7425 17.4075 22.005C18.6725 21.3725 19.1575 20.77 19.365 18.945C19.5325 17.4725 19.01 16.055 18.01 14.97C17.3375 14.2425 14.1875 11.8225 13.6975 11.015C13.1125 10.05 12.7925 8.57 13.8425 7.3675C15.035 6.485 16.675 6.22 18.125 6.6725C19.755 7.1825 21.7775 8.9825 22.31 10.7425C23.28 13.965 22.145 16.45 20.5875 19.5075C19.6675 21.325 19.66 22.3675 19.66 22.3675Z" fill="#F09300"/>
</svg>
