<svg width="32" height="32" viewBox="0 0 32 32" fill="none" xmlns="http://www.w3.org/2000/svg">
<path d="M12.7725 6.20255C12.7725 6.20255 10.0275 5.57505 7.79749 6.51255C5.70749 7.39255 5.40999 9.07005 5.59749 10.0325C5.78499 10.995 6.38999 11.8375 7.60249 11.915C8.42999 11.9675 8.70999 11.4925 8.59499 11.2925C8.53499 11.19 7.65749 10.635 8.05999 9.94255C8.39749 9.36505 9.53499 9.89755 9.85999 10.4C10.165 10.87 10.565 11.55 10.565 11.55C10.565 11.55 14.015 10.0725 13.9425 9.97755C13.87 9.88255 12.7725 6.20255 12.7725 6.20255Z" fill="#E74B8C"/>
<path d="M12.6075 8.12754L11.5275 7.16504L9.75751 9.31254L10.765 10.8825L13.335 9.75754L12.6075 8.12754Z" fill="#FCD817"/>
<path d="M7.21251 9.06496C7.07751 9.46246 7.19751 10.1 6.69751 10.155C6.18251 10.2125 5.81001 9.58996 6.12251 8.59496C6.39251 7.73746 7.45751 7.22746 7.87001 7.92746C8.17251 8.44246 7.45751 8.33746 7.21251 9.06496Z" fill="#EF7FAD"/>
<path d="M9.71 5.25244C9.64 5.36994 8.42 7.16494 8.42 7.16494L9.5925 9.02994L11 8.31494L11.2925 6.89494L9.71 5.25244Z" fill="#BBD047"/>
<path d="M8.37249 3.88L7.30499 5.2275L8.34999 7.0475L9.32249 6.565L9.76999 5.2875L8.37249 3.88Z" fill="#62A5A8"/>
<path d="M6.91749 2.41248L6.17999 3.18748L7.26999 5.14748L7.89249 4.68998L8.32499 3.81998L6.91749 2.41248Z" fill="#38B2E8"/>
<path d="M5.51001 1.43997C5.25751 1.69247 6.17751 3.17747 6.17751 3.17747C6.17751 3.17747 6.85751 2.40247 6.85751 2.35747C6.86001 2.30747 5.80251 1.14497 5.51001 1.43997Z" fill="#A37BCB"/>
<path d="M11.295 6.8C11.635 6.705 11.87 7.34 11.565 7.985C11.2925 8.56 10.8975 9.005 10.3675 9.3C10.105 9.445 9.71 9.605 9.5575 9.3225C9.3925 9.02 9.58 8.865 9.91 8.63C10.2125 8.4125 10.52 8.09 10.695 7.785C10.87 7.48 11.04 6.87 11.295 6.8ZM9.675 5.1C9.95 5.02 10.155 5.57 9.9075 6.1225C9.6875 6.615 9.415 7.0075 8.99 7.26C8.78 7.385 8.46 7.5225 8.3375 7.28C8.205 7.02 8.33 6.8375 8.595 6.635C8.84 6.45 9.0525 6.11 9.1925 5.85C9.335 5.59 9.47 5.16 9.675 5.1ZM8.2725 3.6C8.5 3.6625 8.66 4.065 8.455 4.4775C8.2725 4.845 8.095 5.04 7.74 5.2275C7.5625 5.32 7.3575 5.4375 7.245 5.2975C7.1025 5.1225 7.05 4.8725 7.2725 4.7225C7.4775 4.585 7.7075 4.4175 7.86 4.125C7.9625 3.9225 8.0625 3.5425 8.2725 3.6ZM6.7675 2.21C6.9225 2.1725 7.1125 2.4975 6.975 2.7575C6.8525 2.99 6.695 3.1375 6.455 3.2575C6.3375 3.3175 6.205 3.3525 6.135 3.24C6.06 3.1175 5.99 3.0325 6.14 2.9375C6.2775 2.85 6.47 2.6525 6.55 2.5275C6.63 2.405 6.6525 2.24 6.7675 2.21Z" fill="#A364B2"/>
<path d="M12.57 29.975C12.3175 29.8075 13.57 25.4525 14.0625 24.2925C14.555 23.13 14.8475 22.1575 14.8475 22.1575C14.8475 22.1575 12.49 22.52 10.965 22.5325C9.8025 22.5425 8.115 22.3925 8.115 22.3925L4.735 17.9575C4.735 17.9575 5.685 16.2325 6.2475 15.53C6.81 14.825 8.5 12.5375 9.345 11.73C10.19 10.92 11.35 10.075 11.845 9.86501C12.3375 9.65501 12.655 9.51251 12.655 9.51251C12.655 9.51251 12.4075 8.00001 12.515 7.05001C12.62 6.10001 13.9675 3.44751 14.18 3.44751C14.4625 3.44751 15.6825 5.25501 15.9275 6.48501C16.175 7.71501 18.85 11.165 18.85 11.165L26.6625 25.9475C26.6625 25.9475 26.8025 29.89 26.7675 30.03C26.7325 30.17 22.4025 30.77 19.7625 30.77C17.1225 30.77 12.7825 30.1175 12.57 29.975Z" fill="#DFDFDF"/>
<path d="M17.8925 17.345C17.6325 17.3325 16.89 18.8201 16.145 19.9151C15.5175 20.8351 14.7825 21.2775 13.9975 21.6875C13.1875 22.11 11.985 22.3851 12.395 22.4676C12.805 22.5501 15.2525 22.2776 16.0725 21.9326C16.535 21.7401 17.18 20.7876 17.51 20.1551C17.84 19.5226 18.4325 17.3675 17.8925 17.345Z" fill="#B0B0B0"/>
<path d="M13.4475 14.485C13.5 15.26 13.2175 15.9275 12.41 15.98C11.84 16.0175 11.4125 15.44 11.34 14.735C11.2825 14.185 11.5125 13.475 12.265 13.37C12.9725 13.27 13.3975 13.7775 13.4475 14.485Z" fill="#303030"/>
<path d="M15.8925 6.495C15.8925 6.495 18.015 7.45 18.8325 7.27C19.465 7.13 19.685 6.6725 19.7125 6.215C19.7475 5.6 19.2025 5.67 19.115 5.4225C19.0275 5.175 19.6775 4.735 20.435 4.8775C21.1925 5.0175 22.095 5.7175 22.0775 6.8425C22.06 7.9675 21.3675 8.5725 21.3675 8.5725C21.3675 8.5725 23.1925 8.485 24.4125 9.735C25.785 11.1425 25.485 13.4475 25.485 13.4475C25.485 13.4475 26.2075 13.5525 26.47 13.1825C26.7325 12.8125 26.6625 12.39 26.4875 12.145C26.3125 11.8975 26.8225 11.74 27.155 11.88C27.49 12.02 29.035 13.1275 28.195 14.915C27.675 16.025 26.3625 16.1925 26.3625 16.1925C26.3625 16.1925 28.5625 17.165 29.3675 19.6175C30.2525 22.3175 29.285 24.1125 28.2825 25.835C27.28 27.56 27.37 27.6625 27.315 28.2275C27.245 28.9325 27.0325 29.8125 26.77 29.7925C26.505 29.775 26.19 29.035 26.03 28.2275C25.8725 27.4175 24.885 26.625 24.095 25.905C23.305 25.185 21.32 23.2825 20.75 21.5425C20.0275 19.3425 20.3975 16.28 20.3975 16.28C20.3975 16.28 18.215 15.2775 17 13.27C15.685 11.0975 15.8025 9.505 15.8025 9.505C15.8025 9.505 16.1375 8.555 16.155 7.9025C16.1725 7.25 15.8925 6.495 15.8925 6.495Z" fill="#E74B8C"/>
<path d="M19.325 8.01002C19.4775 8.66502 20.68 8.32752 20.91 7.21752C21.14 6.10752 20.505 5.61502 20.135 5.82752C19.765 6.03752 20.2225 6.60252 19.9775 7.07752C19.7325 7.55252 19.2 7.48002 19.325 8.01002ZM25.425 14.4C25.215 15.04 26.3125 15.2625 27.1725 14.5725C28.055 13.8625 27.805 12.8125 27.295 12.865C26.6475 12.9325 26.9225 13.665 26.465 13.9425C26.0075 14.2225 25.595 13.8875 25.425 14.4ZM17.935 8.83502C17.09 8.73002 16.9725 10.3775 17.495 11.51C18.3225 13.305 19.695 12.97 20.645 14.1325C21.38 15.0325 21.2075 16.1925 21.965 16.175C22.7225 16.1575 22.915 14.89 21.755 13.3425C20.5925 11.795 19.1325 11.795 18.6925 10.8625C18.25 9.92752 18.92 8.96002 17.935 8.83502ZM22.2275 16.8075C21.26 17.36 21.95 18.6125 22.475 18.725C23.215 18.8825 23.5475 18.39 23.6375 17.8975C23.7275 17.405 23.2125 16.245 22.2275 16.8075ZM22.9675 19.7825C22.2025 19.9075 22.2875 20.675 22.4225 21.455C22.6525 22.7925 23.355 24.0775 24.1825 24.7625C24.9825 25.425 25.4325 25.22 25.66 24.955C25.93 24.645 25.6775 24.0925 25.36 23.7225C25.0425 23.3525 24.6325 22.8775 24.3575 22.4725C24.0225 21.98 23.9825 21.34 23.9175 20.9775C23.795 20.275 23.7225 19.6575 22.9675 19.7825Z" fill="#F081AF"/>
<path d="M2.835 23.3199C3.61 24.7824 5.4225 24.4099 5.4225 24.4099C5.4225 24.4099 7.13 23.6349 7.13 23.5824C7.13 23.5299 8.255 22.1049 8.255 22.1049C8.255 22.1049 7.955 20.8199 6.795 19.4124C5.8775 18.3024 4.9125 17.7574 4.9125 17.7574L2.8 19.6574C2.8 19.6574 1.745 21.2599 2.835 23.3199Z" fill="white"/>
<path d="M4.225 19.465C4.1025 19.9225 4.5075 20.0975 4.6475 20.2575C4.7875 20.415 4.455 21.085 4.93 21.26C5.405 21.435 5.95 20.645 5.775 19.9575C5.585 19.2225 4.41 18.78 4.225 19.465Z" fill="#90909B"/>
<path d="M5.1225 17.7C5 17.465 4.73 17.5825 4.465 17.83C4.2 18.0775 2.705 19.1675 2.2825 20.165C1.9725 20.8975 1.75 22.31 2.555 23.46C3.39 24.655 4.14 24.77 5.2825 24.675C6.955 24.535 7.88 23.1625 8.0575 22.9325C8.235 22.7025 8.62 22.205 8.41 21.96C8.2 21.7125 8.0025 22.07 7.73 22.44C7.3775 22.915 7.0975 23.2025 6.745 23.52C6.54 23.705 5.9525 24.025 5.7075 24.0775C5.46 24.13 6.195 23.7075 6.4825 23.215C6.6775 22.8825 7.08 22.09 7.08 22.09L6.3925 21.88C6.3925 21.88 6.0575 22.6075 5.795 22.925C5.53 23.2425 4.705 23.9575 4.4575 24.01C4.21 24.0625 3.2775 23.6475 2.8625 22.9025C2.4625 22.1875 2.4 21.16 2.805 20.35C3.21 19.54 4.23 18.7125 4.5475 18.4675C4.86 18.215 5.28 18 5.1225 17.7Z" fill="#AFAFAF"/>
<path d="M7.13 21.4075C6.94 21.2425 6.625 21.36 6.4625 21.5825C6.2975 21.805 6.24 22.0625 6.5675 22.24C6.895 22.415 7.1075 22.2275 7.26 22.0175C7.41 21.805 7.305 21.56 7.13 21.4075Z" fill="#90909B"/>
</svg>
