<svg width="32" height="32" viewBox="0 0 32 32" fill="none" xmlns="http://www.w3.org/2000/svg">
<path d="M12.045 17.1125L1.675 17.4875C1.675 17.4875 1.0175 16.83 1.1125 16.595C1.2075 16.36 9.795 9.65001 10.1225 9.69751C10.45 9.74501 11.2025 10.5425 11.8125 10.26C12.4225 9.97751 11.8125 8.33501 12 8.10251C12.1875 7.86751 18.8975 4.25501 19.32 4.06751C19.7425 3.88001 20.1175 3.45751 20.9625 3.64501C21.8075 3.83251 23.92 4.20751 26.2175 5.75751C28.515 7.30751 30.91 9.09001 30.7225 10.075C30.535 11.06 12.045 17.1125 12.045 17.1125Z" fill="#FFE265"/>
<path d="M4.86498 28.8925C7.16498 28.61 28.61 24.0125 29.5025 23.8725C30.395 23.7325 30.9575 22.8875 30.9575 21.9475C30.9575 21.0075 30.7225 10.075 30.7225 10.075C30.7225 10.075 29.69 10.4025 28.47 10.685C27.25 10.965 17.2525 13.405 13.3125 14.2975C9.37249 15.19 3.08249 16.8325 2.37749 16.8325C1.67249 16.8325 1.10999 16.5975 1.10999 16.5975C1.10999 16.5975 1.29749 26.3575 1.34499 27.0625C1.39249 27.7675 1.71999 28.61 2.51749 28.845C3.31499 29.08 3.83499 29.0175 4.86498 28.8925Z" fill="#FEB502"/>
<path d="M18.7425 6.39002C18.7425 6.99002 19.3525 7.38752 20.3625 7.35752C21.465 7.32502 21.77 6.67002 21.735 6.25002C21.7 5.82752 21.1925 5.45752 20.1875 5.47502C19.255 5.49252 18.7425 5.86252 18.7425 6.39002Z" fill="#FF8B0D"/>
<path d="M7.48001 13.87C5.85501 14.4175 6.03751 15.84 6.51251 16.1575C6.98751 16.475 7.62001 16.4575 8.36001 16.1925C9.10001 15.9275 9.57001 15.625 9.64501 15.13C9.71501 14.66 9.10001 13.3225 7.48001 13.87ZM22.245 9.80499C21.155 9.85499 19.95 10.6375 19.5 11.39C19.025 12.1825 18.99 13.115 20.08 13.695C21.17 14.275 25.025 12.7975 24.8325 11.4425C24.64 10.085 23.39 9.75249 22.245 9.80499ZM18.4625 20.7675C18.4625 20.7675 20.01 19.6225 20.01 18.815C20.01 18.005 19.3425 16.0925 16.5075 15.9475C13.85 15.81 12.2125 19.4325 13.955 21.2975C15.6975 23.1625 16.7525 22.3175 17.405 22.1425C18.0575 21.965 18.4625 20.7675 18.4625 20.7675ZM10.8075 24.0225C10.8075 24.0225 12.345 23.06 11.165 22.005C10.335 21.2625 9.22501 21.5975 8.66001 22.175C7.93751 22.915 8.13251 24.0925 8.80001 24.62C9.47001 25.15 10.8075 24.0225 10.8075 24.0225ZM5.59751 19.695C5.59751 19.695 5.42251 19.1425 4.79501 18.92C4.09001 18.67 3.03751 19.5475 3.48751 20.485C3.89251 21.33 4.79001 21.0825 4.79001 21.0825L5.59751 19.695ZM28.105 20.5025C28.2575 20.3375 29.255 19.6175 29.255 19.07C29.255 18.525 27.7525 16.84 25.835 18.1075C23.9175 19.375 24.92 21.2925 25.4475 21.61C25.975 21.9275 27.4375 21.225 28.105 20.5025Z" fill="#ED6B31"/>
<path d="M7.715 14.7325C6.6475 15.1025 6.245 15.8575 6.5125 16.1575C6.795 16.475 7.41 16.685 8.4825 16.2975C9.3125 15.9975 9.7325 15.495 9.6625 15.0475C9.6125 14.7225 8.6825 14.3975 7.715 14.7325ZM4.155 19.6575C3.6875 20.2425 4.0675 20.9075 4.5075 21.065C4.9475 21.2225 5.7225 20.7475 5.67 19.9575C5.615 19.165 4.5775 19.13 4.155 19.6575ZM9.5925 22.845C8.5875 23.66 8.56 24.4575 8.9475 24.7275C9.2175 24.9175 10.2125 25.3125 11.1225 24.64C11.7975 24.1425 11.81 23.0975 11.5975 22.5975C11.42 22.1725 10.4375 22.1575 9.5925 22.845ZM15.6925 18.4025C14.3475 19.71 14.0275 21.8325 15.3475 22.3325C16.51 22.7725 18.18 22.5075 19.165 21.295C20.2 20.02 20.31 18.6125 19.645 17.7825C18.85 16.785 16.7325 17.395 15.6925 18.4025ZM21.805 11.1075C20.045 11.705 19.0075 12.9725 19.905 13.6075C20.8025 14.24 21.735 14.1475 22.755 13.8C23.9125 13.4075 24.7975 12.4975 24.8325 11.635C24.86 10.9275 23.355 10.58 21.805 11.1075ZM26.505 19.2C25.3075 20.175 24.9575 21.1525 25.45 21.61C25.9425 22.0675 27.1225 22.2775 28.2125 21.5225C29.345 20.7375 29.4275 19.8475 29.3025 19.13C29.1625 18.3225 27.735 18.1975 26.505 19.2Z" fill="#FF8B0D"/>
</svg>
