<svg width="32" height="32" viewBox="0 0 32 32" fill="none" xmlns="http://www.w3.org/2000/svg">
<path d="M29 1H3C1.9 1 1 1.9 1 3V29C1 30.1 1.9 31 3 31H29C30.1 31 31 30.1 31 29V3C31 1.9 30.1 1 29 1Z" fill="#427687"/>
<path d="M27.425 1H2.875C1.85 1 1 1.85 1 2.875V27.35C1 28.4 1.85 29.225 2.875 29.225H27.4C28.45 29.225 29.275 28.375 29.275 27.35V2.875C29.325 1.85 28.45 1 27.425 1Z" fill="#8CAFBF"/>
<path d="M22.75 20.15L16.75 26.15C16.35 26.6 15.65 26.6 15.25 26.15L9.25 20.15C8.675 19.5 9.15 18.5 10 18.5H13.5C13.775 18.5 14 18.275 14 18V6.5C14 5.95 14.45 5.5 15 5.5H17C17.55 5.5 18 5.95 18 6.5V18C18 18.275 18.225 18.5 18.5 18.5H22C22.85 18.5 23.325 19.525 22.75 20.15Z" fill="#FAFAFA"/>
<path opacity="0.5" d="M9.92499 3.22497C9.92499 2.64997 9.52499 2.47497 7.22499 2.54997C5.29999 2.62497 4.34999 2.84997 3.77499 3.54997C3.19999 4.24997 3.04999 5.67497 3.02499 7.37497C3.02499 8.57497 3.02499 9.69997 3.64999 9.69997C4.49999 9.69997 4.49999 7.72497 5.19999 6.62497C6.54999 4.44997 9.92499 3.97497 9.92499 3.22497Z" fill="#B4E1ED"/>
</svg>
