<svg width="32" height="32" viewBox="0 0 32 32" fill="none" xmlns="http://www.w3.org/2000/svg">
<path d="M11.5475 6.98251V6.54751C11.5475 5.68001 11.0275 5.50001 10.4575 5.60251L5.68251 6.46501C5.11001 6.56751 4.69001 7.08251 4.69001 7.68251V8.79251C4.69001 9.19751 4.40751 9.54501 4.02001 9.61501L3.93501 9.63001C3.60001 9.69001 3.35251 9.99001 3.35251 10.3425L3.62251 28.85C3.62251 28.85 3.60251 29.145 3.88001 29.165C4.16751 29.185 4.38501 28.965 4.67251 28.8975L27.0825 23.5575C27.4175 23.4975 27.665 23.1975 27.665 22.845V6.33751C27.665 5.89001 27.275 5.55001 26.8475 5.62501L12.77 8.04751C12.1325 8.16001 11.5475 7.92001 11.5475 6.98251Z" fill="#F3AB47"/>
<path d="M28.14 22.9125L28.645 8C28.645 7.5525 28.255 7.2125 27.8275 7.2875L13.76 9.6925C13.442 9.74679 13.1516 9.90697 12.936 10.147C12.7205 10.3871 12.5924 10.693 12.5725 11.015L12.515 11.9575C12.4928 12.3243 12.347 12.6728 12.1014 12.9461C11.8558 13.2194 11.5249 13.4014 11.1625 13.4625L5.5 14.415C5.22823 14.461 4.98152 14.6018 4.80353 14.8122C4.62554 15.0227 4.52776 15.2894 4.5275 15.565L3.88 29.16C3.88 29.16 3.9625 29.195 4.89 28.96L27.19 23.6825C27.5275 23.6275 27.9125 23.3125 28.14 22.9125Z" fill="#FFE36C"/>
<path d="M5.4075 14.6825L11.0975 13.71C12.5225 13.3925 12.75 12.8525 12.7475 11.7175L12.75 11.425C12.795 10.57 13.21 10.065 14.0525 9.92001L27.97 7.50751" stroke="#FFF9C4" stroke-width="0.5" stroke-miterlimit="10" stroke-linecap="round"/>
</svg>
