<svg width="32" height="32" viewBox="0 0 32 32" fill="none" xmlns="http://www.w3.org/2000/svg">
<path d="M26.3025 21.205C25.64 20.175 22.3775 16.6525 21.6775 15.7425C20.9775 14.8325 19.1775 9.64252 17.445 9.12502C15.7125 8.60502 14.0025 8.74002 12.1925 9.27502C10.3825 9.81002 8.69 9.76002 6.68 9.19002C4.67 8.62002 2.525 7.27502 2.525 7.27502C1.5925 7.98752 1.1125 9.97752 1.0125 12.7925C0.912505 15.6075 1.4425 17.1375 1.6275 17.6025C1.8125 18.0675 3.2025 18.755 4.7675 19.965C4.9025 20.0675 16.0125 27.6575 16.2475 27.765C17.945 28.5375 19.025 26.975 19.025 26.975C19.025 26.975 19.925 27.49 20.795 26.975C21.8575 26.345 21.7325 25.5625 21.7325 25.5625C21.7325 25.5625 22.7625 25.73 23.385 25.3225C24.5725 24.545 24.19 23.6475 24.19 23.6475C24.19 23.6475 25.25 23.9875 25.875 23.4275C26.5 22.8675 26.9625 22.235 26.3025 21.205Z" fill="#FFCA28"/>
<path d="M14.6 25.495C14.585 25.455 14.57 25.415 14.5475 25.375C14.0625 24.4375 13.14 24.475 13.1 24.4425C13.0475 24.4025 13.0575 23.7025 13 23.43C12.695 22.0025 11.045 22.04 11.0025 22.01C10.945 21.9725 11.2475 20.9975 10.2925 20.175C10.065 19.9775 9.71999 19.9975 9.41998 20.0325C8.57748 20.135 8.19248 20.53 8.13248 20.5175C7.98998 20.49 8.14998 19.445 7.11498 19.41C6.36248 19.385 5.86998 19.7525 5.45498 20.3225C5.02998 20.9075 4.76498 21.5 5.24748 22.1925C5.85498 23.065 6.51998 22.83 6.51998 22.83C6.51998 22.83 6.31998 23.8975 6.93248 24.4675C7.54498 25.0375 8.77998 25.0025 8.77998 25.0025C8.77998 25.0025 8.67748 26.2625 9.56748 26.8625C10.4575 27.4625 11.525 26.9175 11.525 26.9175C11.525 26.9175 11.94 27.9925 13.1525 27.835C14.215 27.7 15.0025 26.5525 14.6 25.495Z" fill="#FFCA28"/>
<path d="M26.47 21.53C26.425 21.46 26.3875 21.4025 26.3825 21.3175C26.3775 21.2225 23.8425 17.86 22.775 16.5075C22.99 17.125 23.3 17.7125 23.695 18.235C24.3325 19.08 25.2275 19.8725 25.245 20.93C25.2525 21.45 25.0225 21.97 24.63 22.3125C24.2375 22.655 23.6925 22.815 23.1775 22.735C23.0125 22.71 22.775 22.71 22.755 22.875C22.7475 22.9225 22.7675 22.97 22.7825 23.0175C22.9475 23.5275 22.745 24.1225 22.3275 24.4575C21.91 24.795 21.315 24.8725 20.8075 24.6975C20.675 24.6525 20.5 24.6 20.4175 24.7125C20.3525 24.8 20.395 24.92 20.425 25.0225C20.5825 25.5825 20.21 26.2025 19.675 26.4325C19.1425 26.6625 18.505 26.5525 18.005 26.2575C17.895 26.1925 17.72 26.135 17.665 26.2525C17.6475 26.2875 17.6525 26.33 17.655 26.3675C17.675 26.755 17.4925 27.15 17.1825 27.385C16.8725 27.62 16.445 27.69 16.075 27.565L15.9825 27.6225C16.0925 27.6875 16.185 27.735 16.245 27.7625C17.9425 28.535 19.0225 26.9725 19.0225 26.9725C19.0225 26.9725 19.9225 27.4875 20.7925 26.9725C21.855 26.3425 21.73 25.56 21.73 25.56C21.73 25.56 22.76 25.7275 23.3825 25.32C24.57 24.5425 24.1875 23.645 24.1875 23.645C24.1875 23.645 25.2475 23.985 25.8725 23.425C26.0275 23.2875 26.175 23.1425 26.3025 22.98C26.5525 22.66 26.68 22.28 26.595 21.875C26.57 21.755 26.535 21.6325 26.47 21.53Z" fill="#FFB300"/>
<path d="M18.405 26.465C19.16 26.935 19.465 27.14 19.465 27.14C19.1925 27.1725 18.5975 27.285 17.175 26.185C16.7825 25.8825 15.2175 24.6725 15.9425 24.375C16.4775 24.155 17.3425 25.805 18.405 26.465ZM21.71 25.66C21.24 25.62 19.395 24.5475 17.965 23.0725C17.815 22.9175 17.675 22.785 17.5575 22.6725C17.415 22.535 17.41 22.3075 17.5475 22.1625C17.5803 22.1283 17.6195 22.1009 17.6629 22.0818C17.7063 22.0628 17.753 22.0525 17.8004 22.0516C17.8478 22.0507 17.8949 22.0591 17.939 22.0764C17.9831 22.0937 18.0234 22.1196 18.0575 22.1525C18.1775 22.2675 18.3175 22.405 18.4725 22.56C18.7975 22.8825 19.6275 23.815 21.265 24.94C21.6325 25.1925 22.095 25.4475 22.52 25.585C22.5675 25.6 22.1775 25.7 21.71 25.66ZM23.6225 23.465C22.6275 23.0275 21.6575 22.1275 19.9875 19.985C19.865 19.8275 19.885 19.6025 20.04 19.4775C20.195 19.3525 20.4225 19.375 20.5475 19.53C21.0825 20.185 21.6325 20.83 22.2225 21.4375C22.455 21.6775 23.5375 22.6075 23.675 22.705C24.9725 23.605 25.505 23.665 25.505 23.665C25.3525 23.7275 24.7625 23.965 23.6225 23.465ZM2.1525 18.1775C2.04 18.095 2.1425 17.92 2.2675 17.9775C3 18.3075 4.03 18.79 4.81 19.1875C5.5275 19.5525 5.9675 19.77 5.9675 19.77L5.245 20.4725L2.1525 18.1775Z" fill="#D69513"/>
<path d="M30.8275 11.6875C30.4575 9.22498 29.97 7.54998 29.6075 7.14498C29.1925 6.68498 28.48 7.59998 26.9725 8.13498C25.465 8.66998 22.75 8.87248 22.75 8.87248C22.75 8.87248 18.0025 8.86248 16.34 9.32748C15.0275 9.69498 13.4025 10.735 12.0375 11.56C10.9475 12.22 9.965 12.6525 9.8825 13.13C9.805 13.585 10.31 14.6025 11.565 14.705C13.6025 14.8725 15.7575 13.585 15.7575 13.585C16.455 13.19 16.715 13.1425 18.1075 13.1425C19.5 13.1425 20.935 14.205 21.0375 14.375C22.0775 16.0875 23.0125 16.9575 23.9675 18.1175C24.665 18.965 26.305 21.2075 26.305 21.2075C26.305 21.2075 28.1475 19.03 28.6175 18.5275C29.0875 18.025 30.83 16.7525 30.83 16.7525C30.83 16.7525 31.215 14.265 30.8275 11.6875Z" fill="#FFCA28"/>
<path d="M26.3775 19.23C26.225 18.315 25.7825 17.4175 25.9925 16.52C26.025 16.3875 26.055 16.255 26.07 16.12C26.14 15.405 25.465 15.7175 25.365 15.7275C25.1075 15.755 22.1475 15.645 22.4775 15.98L26.3025 21.155C26.3025 21.155 26.4525 21.1075 26.4875 20.7375C26.525 20.3625 26.39 19.3075 26.3775 19.23Z" fill="#FFB300"/>
<path d="M23.9675 16.0375L20.895 14.9725C21.3 15.3725 21.6375 15.805 22.0225 16.2025C23.1925 17.565 24.96 19.88 26.275 21.2C26.33 21.255 26.4175 21.185 26.3775 21.12C25.6475 19.9675 23.7725 16.99 23.675 16.6975C23.49 16.13 23.9675 16.0375 23.9675 16.0375Z" fill="#D69513"/>
<path d="M18.3575 13.66C19.495 13.8625 19.835 14.135 20.7675 14.8475C23.0575 16.5925 25.145 15.93 25.4125 15.8475C26.8825 15.415 24.21 15.415 23.79 15.2525C20.4125 14.4625 20.1975 11.9925 16.105 13.11C14.7225 13.615 12.4675 15.4325 10.7 14.175C10.4475 13.995 10.0425 13.6325 10.0875 13.23C10.1725 12.45 12.2375 11.9825 13.13 11.18C14.3475 10.2375 15.8725 9.51252 17.365 9.12752C16.6325 9.04502 15.8 9.20252 15.1925 9.40002C13.565 9.93252 12.4375 11.16 10.705 11.845C9.2725 12.41 9.395 12.89 9.3975 13.2225C9.4 13.555 9.6625 14.425 10.455 14.8525C13.445 16.46 15.5775 13.1625 18.3575 13.66ZM14.7675 26.7125C14.6775 26.9375 14.2975 27.325 14.1 27.39C14.1 27.39 14.6975 26.085 14.375 25.4975C14.1775 25.0025 13.5875 24.82 13.1 24.93C12.315 25.1825 11.825 26.3825 11.695 27.1225C11.66 27.315 11.45 26.9675 11.48 26.58C11.5825 25.27 12.5875 24.7625 12.6975 23.61C12.7675 22.8975 12.085 22.3825 11.385 22.53C10.4725 22.6325 10.05 23.5075 9.6125 24.2175C9.42 24.5575 9.03 25.2075 8.99 25.595C8.955 25.9325 8.8725 26.0025 8.7925 25.5825C8.445 23.8 10.685 22.2625 10.5475 21.295C10.4025 20.27 9.65 20.085 9 20.3825C8.03 20.83 7.08 22.4075 6.7125 23.1525C6.6075 23.3025 6.525 23.71 6.525 23.71C6.175 22.85 6.9275 21.7075 7.3025 21.165C7.465 20.89 7.8175 20.56 7.67 20.225C7.4425 19.705 7.055 19.7175 6.74 19.78C5.9275 19.9425 5.0125 21.105 5.0125 21.105C4.9825 20.81 5.35 20.225 5.635 19.89C6.345 19.035 7.875 18.88 8.41 20.1825C9.865 19.1875 11.41 19.7825 11.3525 21.645C11.41 21.815 12.0475 21.6125 12.82 22.205C13.595 22.7975 13.355 24.1425 13.355 24.1425C13.355 24.1425 14.13 24.225 14.5575 24.7625C14.9525 25.26 15.015 26.19 14.7675 26.7125ZM25.9325 20.4075C25.9325 20.4075 27.7625 18.575 28.42 18.1525C29.0775 17.73 30.0375 17.1525 30.07 17.315C30.1025 17.4775 28.54 18.5775 27.9525 19.2675C27.3675 19.96 26.3825 21.1175 26.3825 21.1175L25.9325 20.4075Z" fill="#D69513"/>
</svg>
