<svg width="32" height="32" viewBox="0 0 32 32" fill="none" xmlns="http://www.w3.org/2000/svg">
<path d="M1.0075 22.3575C0.7075 23.86 2.4225 29.6375 11.37 30.7925C15.9675 31.385 20.4825 29.7525 24.0575 27.015C27.6325 24.2775 29.825 20.75 30.5775 17.5275C31.735 12.565 30.405 5.0725 20.5625 4.63C10.4975 4.1775 7.115 14.7 5.005 17.7925C2.465 21.52 1.28 21 1.0075 22.3575Z" fill="url(#paint0_radial_508_6518)"/>
<path d="M10.4725 9.08252C10.4725 9.08252 13.865 10.8075 19.125 10.4425C23.3825 10.1475 25.0575 8.05752 25.0575 8.05752C25.0575 8.05752 26.93 8.57252 28.1725 8.24252C28.67 8.11002 28.7775 7.84002 28.17 7.21002C27.2525 6.25502 24.1025 4.48752 19.4575 4.78502C13.645 5.16252 10.4725 9.08252 10.4725 9.08252Z" fill="#DC0D27"/>
<path d="M6.50999 19.155C7.09999 20.1375 8.84749 18.87 10.0775 17.6375C11.8525 15.8575 12.66 14.2275 13.1325 13.4C13.605 12.5725 14.245 10.79 12.955 10.5025C11.6125 10.205 11.215 11.865 10.525 13.0875C9.83498 14.31 8.87498 15.765 8.10498 16.7125C7.28748 17.72 6.15999 18.5725 6.50999 19.155Z" fill="#FFEBC9"/>
<path d="M25.59 6.24497C25.42 6.98747 26.1025 7.50747 26.575 7.87997C27.0475 8.25247 28.1125 8.39247 28.4675 8.13497C28.8225 7.87997 28.4275 7.12997 28.685 6.67747C28.94 6.22497 29.395 5.67247 28.8425 5.29747C28.38 4.98247 27.7575 4.86497 27.1875 4.98247C26.6175 5.09997 26.615 5.53497 26.38 5.65247C26.14 5.77247 25.6475 5.98997 25.59 6.24497Z" fill="#6D4C41"/>
<path d="M25.035 6.47C24.405 6.745 22.55 8.2075 18.22 8.54C13.445 8.9075 7.83751 8.34 6.90251 8.2075C5.96751 8.075 4.37251 8.0125 4.39501 7.6125C4.42751 7.0125 5.04751 7.205 6.29751 6.845C7.80001 6.41 9.33501 5.81 10.505 5.11C12.3 4.0325 15.955 1.3375 19.5525 1.27C23.4925 1.1975 24.76 2.4375 25.7275 3.4725C26.695 4.5075 26.71 5.5925 26.4425 6.0275C26.1775 6.4625 25.8025 6.1375 25.035 6.47Z" fill="#518E30"/>
<path d="M12.615 6.23001C12.7075 6.34501 14.4525 6.41001 15.425 6.37751C17.645 6.30501 19.4025 5.71501 21.59 5.47001C23.7775 5.22501 25.685 5.47001 25.7575 5.38501C25.89 5.23001 24.5475 3.40501 20.155 3.89751C18.5375 4.08001 16.4575 4.90251 15.0225 5.47501C14.1075 5.84751 12.5275 6.12001 12.615 6.23001Z" fill="#366918"/>
<defs>
<radialGradient id="paint0_radial_508_6518" cx="0" cy="0" r="1" gradientUnits="userSpaceOnUse" gradientTransform="translate(18.856 -15.4032) scale(45.9907 45.9908)">
<stop offset="0.532" stop-color="#F33A1F"/>
<stop offset="0.615" stop-color="#F86922"/>
<stop offset="0.696" stop-color="#FD9124"/>
<stop offset="0.739" stop-color="#FFA025"/>
<stop offset="0.793" stop-color="#FCA025"/>
<stop offset="0.839" stop-color="#F1A124"/>
<stop offset="0.883" stop-color="#DFA222"/>
<stop offset="0.925" stop-color="#C7A41F"/>
<stop offset="0.962" stop-color="#AAA61C"/>
</radialGradient>
</defs>
</svg>
