<svg width="32" height="32" viewBox="0 0 32 32" fill="none" xmlns="http://www.w3.org/2000/svg">
<path d="M26.215 16.5018L26.9683 9.47205L27.4653 9.5253L26.7123 16.5553L26.215 16.5018Z" fill="#504F4F"/>
<path d="M10.46 21.46C13.4755 21.46 15.92 19.0155 15.92 16C15.92 12.9846 13.4755 10.54 10.46 10.54C7.44453 10.54 5 12.9846 5 16C5 19.0155 7.44453 21.46 10.46 21.46Z" fill="#504F4F"/>
<path d="M10.46 18.5C11.8407 18.5 12.96 17.3807 12.96 16C12.96 14.6193 11.8407 13.5 10.46 13.5C9.07928 13.5 7.95999 14.6193 7.95999 16C7.95999 17.3807 9.07928 18.5 10.46 18.5Z" fill="url(#paint0_radial_685_3086)"/>
<path opacity="0.2" d="M10.46 20.5C12.9453 20.5 14.96 18.4853 14.96 16C14.96 13.5147 12.9453 11.5 10.46 11.5C7.97471 11.5 5.95999 13.5147 5.95999 16C5.95999 18.4853 7.97471 20.5 10.46 20.5Z" stroke="#EEEEEE" stroke-width="0.23525" stroke-miterlimit="10"/>
<path opacity="0.2" d="M10.46 19.655C12.4786 19.655 14.115 18.0186 14.115 16C14.115 13.9814 12.4786 12.345 10.46 12.345C8.44139 12.345 6.80499 13.9814 6.80499 16C6.80499 18.0186 8.44139 19.655 10.46 19.655Z" stroke="#EEEEEE" stroke-width="0.25" stroke-miterlimit="10"/>
<path d="M22.46 20.2875C24.8279 20.2875 26.7475 18.3679 26.7475 16C26.7475 13.6321 24.8279 11.7125 22.46 11.7125C20.0921 11.7125 18.1725 13.6321 18.1725 16C18.1725 18.3679 20.0921 20.2875 22.46 20.2875Z" fill="#504F4F"/>
<path d="M22.46 18.5C23.8407 18.5 24.96 17.3807 24.96 16C24.96 14.6193 23.8407 13.5 22.46 13.5C21.0793 13.5 19.96 14.6193 19.96 16C19.96 17.3807 21.0793 18.5 22.46 18.5Z" fill="url(#paint1_radial_685_3086)"/>
<path opacity="0.2" d="M22.46 19.3826C24.3281 19.3826 25.8425 17.8682 25.8425 16.0001C25.8425 14.132 24.3281 12.6176 22.46 12.6176C20.5919 12.6176 19.0775 14.132 19.0775 16.0001C19.0775 17.8682 20.5919 19.3826 22.46 19.3826Z" stroke="#EEEEEE" stroke-width="0.25" stroke-miterlimit="10"/>
<path d="M1 8V24C1 24.5525 1.4475 25 2 25H30C30.5525 25 31 24.5525 31 24V8C31 7.4475 30.5525 7 30 7H2C1.4475 7 1 7.4475 1 8ZM10 19.5C10 19.775 9.775 20 9.5 20H5C4.4475 20 3 18.21 3 16C3 13.79 4.4475 12 5 12H9.5C9.775 12 10 12.225 10 12.5V19.5ZM27 20H22.5C22.225 20 22 19.775 22 19.5V12.5C22 12.225 22.225 12 22.5 12H27C27.5525 12 29 13.79 29 16C29 18.21 27.5525 20 27 20Z" fill="#595858"/>
<path d="M2.96249 9.53748H28.9625V10.0375H2.96249V9.53748ZM2.96249 10.5375H28.9625V11.0375H2.96249V10.5375ZM2.99999 22H29V22.5H2.99999V22ZM2.99999 23H29V23.5H2.99999V23ZM2.99999 21H29V21.5H2.99999V21Z" fill="#787676"/>
<path opacity="0.2" d="M20.5 12C20.775 12 21 12.225 21 12.5V19.5C21 19.775 20.775 20 20.5 20H11.5C11.225 20 11 19.775 11 19.5V12.5C11 12.225 11.225 12 11.5 12H20.5ZM20.5 11.5H11.5C10.9475 11.5 10.5 11.9475 10.5 12.5V19.5C10.5 20.0525 10.9475 20.5 11.5 20.5H20.5C21.0525 20.5 21.5 20.0525 21.5 19.5V12.5C21.5 11.9475 21.0525 11.5 20.5 11.5Z" fill="#424242"/>
<path d="M21 12.5C21 12.225 20.775 12 20.5 12H11.5C11.225 12 11 12.225 11 12.5V14H21V12.5Z" fill="url(#paint2_radial_685_3086)"/>
<path d="M11 14V19.5C11 19.775 11.225 20 11.5 20H20.5C20.775 20 21 19.775 21 19.5V14H11Z" fill="url(#paint3_radial_685_3086)"/>
<path d="M19.25 16.5H12.75C12.6125 16.5 12.5 16.3875 12.5 16.25V15.75C12.5 15.6125 12.6125 15.5 12.75 15.5H19.25C19.3875 15.5 19.5 15.6125 19.5 15.75V16.25C19.5 16.3875 19.3875 16.5 19.25 16.5ZM19.25 18.5H12.75C12.6125 18.5 12.5 18.3875 12.5 18.25V17.75C12.5 17.6125 12.6125 17.5 12.75 17.5H19.25C19.3875 17.5 19.5 17.6125 19.5 17.75V18.25C19.5 18.3875 19.3875 18.5 19.25 18.5Z" fill="#BDBDBD"/>
<path d="M16 7H1.9725C1.435 7 1 7.435 1 7.9725V11.0375H2.1825L2.1975 9.0375H29.8325L29.8175 11.0375H31V7.97C31 7.435 30.565 7 30.03 7H16Z" fill="#424242"/>
<defs>
<radialGradient id="paint0_radial_685_3086" cx="0" cy="0" r="1" gradientUnits="userSpaceOnUse" gradientTransform="translate(10.459 13.2083) rotate(180) scale(5.353)">
<stop stop-color="#EEEEEE"/>
<stop offset="1" stop-color="#BDBDBD"/>
</radialGradient>
<radialGradient id="paint1_radial_685_3086" cx="0" cy="0" r="1" gradientUnits="userSpaceOnUse" gradientTransform="translate(22.5422 13.3333) rotate(180) scale(5.2515)">
<stop stop-color="#EEEEEE"/>
<stop offset="1" stop-color="#BDBDBD"/>
</radialGradient>
<radialGradient id="paint2_radial_685_3086" cx="0" cy="0" r="1" gradientUnits="userSpaceOnUse" gradientTransform="translate(15.875 12.125) scale(5.461)">
<stop stop-color="#EF5350"/>
<stop offset="1" stop-color="#E53935"/>
</radialGradient>
<radialGradient id="paint3_radial_685_3086" cx="0" cy="0" r="1" gradientUnits="userSpaceOnUse" gradientTransform="translate(15.8332 13.7917) scale(7.101)">
<stop stop-color="#FAFAFA"/>
<stop offset="1" stop-color="#EEEEEE"/>
</radialGradient>
</defs>
</svg>
