<svg width="32" height="32" viewBox="0 0 32 32" fill="none" xmlns="http://www.w3.org/2000/svg">
<g clip-path="url(#clip0_7_821)">
<path fill-rule="evenodd" clip-rule="evenodd" d="M28.1734 5.61613C22.4384 -1.10654 12.3394 -1.90718 5.61674 3.82785C-1.10593 9.56288 -1.90657 19.6618 3.82846 26.3845C9.56348 33.1071 19.6624 33.9078 26.3851 28.1728C33.1078 22.4378 33.9084 12.3388 28.1734 5.61613ZM20.2021 14.014C20.8188 14.014 21.2125 14.6822 20.9031 15.2155L20.8141 15.3689L14.7758 25.3035C14.6636 25.4882 14.4632 25.6008 14.2472 25.6008H13.6708C13.2758 25.6008 12.987 25.2279 13.086 24.8455L14.7244 18.5107C14.8554 18.0042 14.4731 17.5104 13.95 17.5104H11.4332C10.9101 17.5104 10.5278 17.0166 10.6587 16.5102L13.1311 6.94631C13.221 6.62445 13.5124 6.39787 13.8466 6.40166C13.8871 6.40213 13.9238 6.4028 13.9543 6.40376L16.4888 6.40372C16.9737 6.40349 17.3473 6.83117 17.282 7.31159L17.2664 7.42597L16.2998 13.0792C16.2163 13.5678 16.5926 14.014 17.0884 14.014H20.2021Z" fill="url(#paint0_radial_7_821)"/>
<path fill-rule="evenodd" clip-rule="evenodd" d="M28.1734 5.61613C22.4384 -1.10654 12.3394 -1.90718 5.61674 3.82785C-1.10593 9.56288 -1.90657 19.6618 3.82846 26.3845C9.56348 33.1071 19.6624 33.9078 26.3851 28.1728C33.1078 22.4378 33.9084 12.3388 28.1734 5.61613ZM20.2021 14.014C20.8188 14.014 21.2125 14.6822 20.9031 15.2155L20.8141 15.3689L14.7758 25.3035C14.6636 25.4882 14.4632 25.6008 14.2472 25.6008H13.6708C13.2758 25.6008 12.987 25.2279 13.086 24.8455L14.7244 18.5107C14.8554 18.0042 14.4731 17.5104 13.95 17.5104H11.4332C10.9101 17.5104 10.5278 17.0166 10.6587 16.5102L13.1311 6.94631C13.221 6.62445 13.5124 6.39787 13.8466 6.40166C13.8871 6.40213 13.9238 6.4028 13.9543 6.40376L16.4888 6.40372C16.9737 6.40349 17.3473 6.83117 17.282 7.31159L17.2664 7.42597L16.2998 13.0792C16.2163 13.5678 16.5926 14.014 17.0884 14.014H20.2021Z" fill="url(#paint1_radial_7_821)"/>
<mask id="mask0_7_821" style="mask-type:alpha" maskUnits="userSpaceOnUse" x="0" y="0" width="32" height="33">
<path d="M16 32.001C24.8366 32.001 32 24.8375 32 16.001C32 7.16442 24.8366 0.000976562 16 0.000976562C7.16344 0.000976562 0 7.16442 0 16.001C0 24.8375 7.16344 32.001 16 32.001Z" fill="url(#paint2_radial_7_821)"/>
</mask>
<g mask="url(#mask0_7_821)">
<g filter="url(#filter0_f_7_821)">
<path d="M0.889162 10.7413C0.0562563 13.1343 -0.196416 15.6909 0.151941 18.2005C0.500298 20.7103 1.43972 23.1014 2.89289 25.1771C4.34605 27.2527 6.2714 28.9536 8.51048 30.1397C10.7495 31.3257 13.2382 31.963 15.7718 31.9992C18.3053 32.0353 20.8111 31.4693 23.0831 30.3476C25.3551 29.2259 27.3282 27.5806 28.84 25.5473C30.3518 23.5139 31.359 21.1506 31.7789 18.6518C32.1986 16.1531 32.019 13.5903 31.2547 11.1745L26.6026 12.6464C27.1338 14.3254 27.2586 16.1066 26.9668 17.8433C26.675 19.5801 25.975 21.2226 24.9242 22.6359C23.8734 24.0492 22.5021 25.1926 20.923 25.9722C19.3439 26.7519 17.6022 27.1453 15.8414 27.1201C14.0805 27.095 12.3507 26.6521 10.7946 25.8277C9.23832 25.0034 7.90015 23.8213 6.89015 22.3786C5.88015 20.9359 5.22723 19.2741 4.98511 17.5297C4.74299 15.7853 4.9186 14.0085 5.4975 12.3453L0.889162 10.7413Z" fill="white"/>
</g>
</g>
</g>
<defs>
<filter id="filter0_f_7_821" x="-10" y="0.741333" width="52" height="41.2595" filterUnits="userSpaceOnUse" color-interpolation-filters="sRGB">
<feFlood flood-opacity="0" result="BackgroundImageFix"/>
<feBlend mode="normal" in="SourceGraphic" in2="BackgroundImageFix" result="shape"/>
<feGaussianBlur stdDeviation="5" result="effect1_foregroundBlur_7_821"/>
</filter>
<radialGradient id="paint0_radial_7_821" cx="0" cy="0" r="1" gradientUnits="userSpaceOnUse" gradientTransform="translate(3.20067 16.0003) scale(31.2006 318.168)">
<stop stop-color="#31B2F3"/>
<stop offset="0.473958" stop-color="#F27CEC"/>
<stop offset="1" stop-color="#FD6641"/>
</radialGradient>
<radialGradient id="paint1_radial_7_821" cx="0" cy="0" r="1" gradientUnits="userSpaceOnUse" gradientTransform="translate(3.20067 16.0003) scale(31.2006 318.168)">
<stop stop-color="#31B2F3"/>
<stop offset="0.473958" stop-color="#F27CEC"/>
<stop offset="1" stop-color="#FD6641"/>
</radialGradient>
<radialGradient id="paint2_radial_7_821" cx="0" cy="0" r="1" gradientUnits="userSpaceOnUse" gradientTransform="translate(3.2 16.0011) scale(31.2 318.162)">
<stop stop-color="#F27CEC"/>
<stop offset="0.484375" stop-color="#31B2F3"/>
<stop offset="1" stop-color="#7D7573"/>
</radialGradient>
<clipPath id="clip0_7_821">
<rect width="32" height="32" fill="white"/>
</clipPath>
</defs>
</svg>
