<svg width="32" height="32" viewBox="0 0 32 32" fill="none" xmlns="http://www.w3.org/2000/svg">
<path d="M15.9825 31C24.2668 31 30.9825 24.2843 30.9825 16C30.9825 7.71573 24.2668 1 15.9825 1C7.69824 1 0.982513 7.71573 0.982513 16C0.982513 24.2843 7.69824 31 15.9825 31Z" fill="#F2A600"/>
<path d="M15.0075 29.8C22.7533 29.8 29.0325 23.5208 29.0325 15.775C29.0325 8.02921 22.7533 1.75 15.0075 1.75C7.26172 1.75 0.982513 8.02921 0.982513 15.775C0.982513 23.5208 7.26172 29.8 15.0075 29.8Z" fill="#FFCC32"/>
<path d="M5.98251 7.42501C7.10751 5.65001 9.50751 4.17501 12.0075 3.72501C12.6325 3.62501 13.2575 3.57501 13.7825 3.77501C14.1825 3.92501 14.5075 4.30001 14.2825 4.72501C14.1075 5.07501 13.6325 5.22501 13.2575 5.35001C10.9123 6.12388 8.89008 7.65375 7.50751 9.70001C7.00751 10.45 6.25751 12.525 5.33251 12C4.35751 11.425 4.55751 9.62501 5.98251 7.42501Z" fill="#FFF170"/>
</svg>
