<svg width="32" height="32" viewBox="0 0 32 32" fill="none" xmlns="http://www.w3.org/2000/svg">
<path d="M7.09499 28.155L5.64749 31.065C5.64749 31.065 2.84749 31.1275 2.68749 31.0225C2.52749 30.9175 0.692487 19.46 9.02249 10.2775C17.8325 0.560018 28.9025 0.630017 29.1675 0.950017C29.4325 1.26752 29.3675 5.15252 29.3675 5.15252L7.09499 28.155Z" fill="#FF5117"/>
<path d="M17.695 7.05249C12.225 10.145 8.09499 14.825 6.18249 22.1475C5.27249 25.63 5.61499 31.06 5.61499 31.06H8.84499L18.4525 16.955L29.3675 6.72499V3.73499C29.3675 3.73499 22.8375 4.14249 17.695 7.05249Z" fill="#FF8E00"/>
<path d="M11.005 18.73C8.36751 23.81 8.84001 31.06 8.84001 31.06L11.9925 31.0575L22.76 16.7525L29.37 9.955L29.365 6.7275C29.365 6.7275 25.5975 6.6925 19.7325 9.5325C15.0225 11.81 12.44 15.9675 11.005 18.73Z" fill="#F9D81E"/>
<path d="M16.3675 16.1825C10.9 23.015 11.935 31.0575 11.935 31.0575H15.4425L21.4325 20.19L29.37 13.6075L29.3675 9.92249C29.3675 9.92249 21.2525 10.075 16.3675 16.1825Z" fill="#97CC37"/>
<path d="M19.2325 17.72C13.7775 22.9575 14.99 31.0575 14.99 31.0575H17.805L22 20.5425L29.37 16.685L29.3675 13.0475C29.3675 13.0475 24.545 12.6225 19.2325 17.72Z" fill="#00C0E9"/>
<path d="M29.2575 18.68C29.425 18.4175 29.37 15.68 29.37 15.68C29.37 15.68 24.8075 15.5975 20.9625 19.93C17.125 24.255 17.6775 31.0575 17.6775 31.0575C17.6775 31.0575 20.3075 31.1375 20.415 30.925C20.63 30.5 19.6875 25.4925 22.825 21.96C26.075 18.3025 29.165 18.82 29.2575 18.68Z" fill="#8177FA"/>
</svg>
