<svg width="32" height="32" viewBox="0 0 32 32" fill="none" xmlns="http://www.w3.org/2000/svg">
<path d="M15.9 29.7C8.92502 29.7 1.40002 25.325 1.40002 15.725C1.40002 6.125 8.92502 1.75 15.9 1.75C19.775 1.75 23.35 3.025 26 5.35C28.875 7.9 30.4 11.5 30.4 15.725C30.4 19.95 28.875 23.525 26 26.075C23.35 28.4 19.75 29.7 15.9 29.7Z" fill="url(#paint0_radial_7_781)"/>
<path d="M27.8725 7.41748C29.205 9.56748 29.9 12.1275 29.9 14.975C29.9 19.2 28.375 22.775 25.5 25.325C22.85 27.65 19.25 28.95 15.4 28.95C10.885 28.95 6.14998 27.1125 3.35498 23.215C6.04498 27.63 11.105 29.7 15.9 29.7C19.75 29.7 23.35 28.4 26 26.075C28.875 23.525 30.4 19.95 30.4 15.725C30.4 12.54 29.5325 9.70998 27.8725 7.41748Z" fill="#EB8F00"/>
<path d="M15.9 29.7C8.92502 29.7 1.40002 25.325 1.40002 15.725C1.40002 6.125 8.92502 1.75 15.9 1.75C19.775 1.75 23.35 3.025 26 5.35C28.875 7.9 30.4 11.5 30.4 15.725C30.4 19.95 28.875 23.525 26 26.075C23.35 28.4 19.75 29.7 15.9 29.7Z" fill="url(#paint1_linear_7_781)"/>
<path d="M15.9 29.7C8.92502 29.7 1.40002 25.325 1.40002 15.725C1.40002 6.125 8.92502 1.75 15.9 1.75C19.775 1.75 23.35 3.025 26 5.35C28.875 7.9 30.4 11.5 30.4 15.725C30.4 19.95 28.875 23.525 26 26.075C23.35 28.4 19.75 29.7 15.9 29.7Z" fill="url(#paint2_linear_7_781)"/>
<path d="M27.8725 7.41748C29.205 9.56748 29.9 12.1275 29.9 14.975C29.9 19.2 28.375 22.775 25.5 25.325C22.85 27.65 19.25 28.95 15.4 28.95C10.885 28.95 6.14998 27.1125 3.35498 23.215C6.04498 27.63 11.105 29.7 15.9 29.7C19.75 29.7 23.35 28.4 26 26.075C28.875 23.525 30.4 19.95 30.4 15.725C30.4 12.54 29.5325 9.70998 27.8725 7.41748Z" fill="#EB8F00"/>
<path d="M16 27.4325C14.495 27.4225 13.2775 26.205 13.2675 24.7V21.55C13.2675 20.04 14.49 18.8175 16 18.8175C17.51 18.8175 18.7325 20.04 18.7325 21.55V24.7025C18.7225 26.2075 17.505 27.4225 16 27.4325Z" fill="#422B0D"/>
<path d="M10.8225 10.455C11.3325 10.455 11.8325 10.6025 12.2625 10.8775C13.6725 11.77 14.2625 13.8775 13.125 16.055C12.34 17.555 11.16 18.2475 10.0425 18.2475C9.53202 18.247 9.03236 18.1004 8.6025 17.825C7.1925 16.9325 6.6025 14.825 7.74 12.6475C8.525 11.1475 9.7025 10.455 10.8225 10.455Z" fill="white"/>
<path opacity="0.66" d="M29.735 18.25C29.3925 18 29.435 17.7225 28.485 18.105C28.0925 18.265 27.6425 19.165 27.6425 19.165C27.6425 19.165 26.965 17.81 25.625 19.6125C23.19 22.8825 22.125 22.7325 20.6925 24.2325C19.77 25.1925 18.9725 26.1075 19.28 27.925C19.4525 28.94 19.935 29.2175 19.935 29.2175C19.935 29.2175 20.23 29.2175 23.125 27.7175C26.02 26.2175 28.5475 24.095 29.9375 20.695" fill="url(#paint3_linear_7_781)"/>
<path d="M21.935 24.88C23.0225 24.055 24.0725 23.2975 24.5675 22.645C25.0625 21.9925 25.595 20.625 25.915 19.73C26.235 18.835 27.165 18.3975 27.665 19.1625C27.795 19.3675 27.6925 20.1625 27.665 20.4675C27.9375 20.015 28.13 19.5175 28.235 19C28.485 17.78 29.76 17.385 29.985 19.025C29.985 19.025 30.9325 19.0625 30.5125 22.0025C30.3025 23.1475 29.925 24.2575 29.3875 25.29C28.04 27.83 26.985 29.0075 25.62 29.9425C23.485 31.4025 21.4625 31.055 20.83 30.225C19.75 28.7975 20.04 26.3175 21.935 24.88Z" fill="url(#paint4_radial_7_781)"/>
<path d="M27.655 19.1625C27.655 19.65 27.185 21.3475 27.0075 21.7825C26.395 23.395 25.2775 24.145 25.59 24.4C25.9025 24.655 26.5 24.1125 27.3625 22.065C27.6275 21.3675 27.7825 20.635 27.8175 19.89C27.815 19.6375 27.76 19.39 27.655 19.1625ZM29.3 17.9275C29.6175 18.065 30.09 18.97 29.3825 21.505C28.945 23.42 27.49 24.91 27.84 25.0775C28.2525 25.355 29.195 23.7925 29.8625 21.6275C30.0375 20.9725 30.1475 20.3025 30.185 19.6275C30.195 19.2875 30.08 18.02 29.3 17.9275Z" fill="#ED6C30"/>
<path opacity="0.66" d="M2.13249 18.25C2.47499 18 2.43249 17.7225 3.38249 18.105C3.77499 18.265 4.22499 19.165 4.22499 19.165C4.22499 19.165 4.90249 17.81 6.24249 19.6125C8.67749 22.8825 9.74249 22.7325 11.175 24.2325C12.095 25.1925 12.8925 26.1075 12.585 27.925C12.415 28.94 11.9325 29.2175 11.9325 29.2175C11.9325 29.2175 11.4525 29.2175 9.14999 28.0425C8.95249 27.9425 8.96999 27.84 8.74249 27.72C5.84749 26.22 3.31999 24.0975 1.92999 20.6975" fill="url(#paint5_linear_7_781)"/>
<path d="M9.93251 24.88C8.84501 24.055 7.79501 23.2975 7.30001 22.645C6.80501 21.9925 6.2725 20.625 5.95001 19.73C5.62751 18.835 4.70001 18.3975 4.21251 19.1625C4.08251 19.3675 4.18501 20.1625 4.21251 20.4675C3.93751 20.015 3.74001 19.5175 3.63251 19C3.38251 17.78 2.10751 17.385 1.88251 19.025C1.88251 19.025 0.935005 19.0625 1.35501 22.0025C1.56501 23.1475 1.94251 24.2575 2.48001 25.29C3.82501 27.83 4.88251 29.0075 6.24751 29.9425C8.38 31.4025 10.4025 31.055 11.0375 30.225C12.11 28.7975 11.8275 26.3175 9.93251 24.88Z" fill="url(#paint6_radial_7_781)"/>
<path d="M4.21252 19.1625C4.21252 19.65 4.68252 21.3475 4.86002 21.7825C5.47252 23.395 6.58752 24.145 6.27752 24.4C5.96752 24.655 5.36502 24.1125 4.50252 22.065C4.23767 21.3685 4.08494 20.6344 4.05002 19.89C4.05002 19.6375 4.10502 19.39 4.21252 19.1625ZM2.56502 17.9275C2.25002 18.065 1.77752 18.97 2.48502 21.5C2.92252 23.415 4.37752 24.905 4.02752 25.0725C3.61502 25.35 2.67252 23.7875 2.00502 21.6225C1.83002 20.9675 1.72002 20.2975 1.68252 19.6225C1.67252 19.2875 1.78752 18.02 2.56502 17.9275Z" fill="#ED6C30"/>
<path d="M13.1575 16.0725C12.9729 16.7247 12.6293 17.3208 12.1575 17.8075C11.6478 18.3343 10.9761 18.6749 10.25 18.775C9.47248 18.8725 8.68498 18.67 8.04998 18.2125C7.42498 17.7575 6.95498 17.1175 6.70748 16.385C6.64998 16.2075 6.60248 16.025 6.56748 15.84C6.53498 15.6575 6.51248 15.4725 6.49998 15.2875L6.48248 15L6.49498 14.725C6.50248 14.5425 6.52248 14.3625 6.55748 14.1825C6.69498 13.4925 6.96748 12.835 7.35748 12.25C7.73535 11.6532 8.24943 11.1545 8.85748 10.795C9.44998 10.4375 10.1525 10.3075 10.835 10.4275V10.5C10.2025 10.5125 9.58748 10.7275 9.08498 11.1125C8.58498 11.495 8.17248 11.9825 7.87498 12.5375C7.56325 13.0821 7.35158 13.6782 7.24998 14.2975C7.15498 14.9175 7.20748 15.55 7.40498 16.145C7.59498 16.74 7.96248 17.265 8.45998 17.645C8.95748 18.0325 9.57998 18.225 10.21 18.185C10.835 18.14 11.4325 17.9 11.915 17.5C12.4025 17.0975 12.8025 16.6025 13.0925 16.04L13.1575 16.0725Z" fill="#EB8F00"/>
<path d="M21.2025 10.455C22.3225 10.455 23.5 11.155 24.285 12.6475C25.4275 14.815 24.8325 16.9325 23.4225 17.825C22.9925 18.1025 22.4925 18.25 21.9825 18.25C20.865 18.25 19.685 17.55 18.9 16.0575C17.75 13.8875 18.3525 11.77 19.7625 10.8775C20.1924 10.6022 20.692 10.4556 21.2025 10.455Z" fill="white"/>
<path d="M21.2025 10.4175C21.885 10.2975 22.5875 10.4275 23.18 10.785C23.7881 11.1445 24.3021 11.6432 24.68 12.24C25.0725 12.8325 25.345 13.495 25.48 14.1925C25.5125 14.3725 25.535 14.5525 25.5425 14.735V15.2875C25.5275 15.66 25.4575 16.03 25.3375 16.385C25.09 17.1175 24.6225 17.755 23.995 18.21C23.3604 18.6694 22.5748 18.8705 21.7975 18.7725C21.065 18.675 20.3875 18.335 19.875 17.805C19.4019 17.3203 19.0581 16.7246 18.875 16.0725L18.94 16.0375C19.2275 16.5975 19.625 17.095 20.11 17.5C20.595 17.9025 21.1925 18.1425 21.82 18.1875C22.45 18.2275 23.0725 18.035 23.57 17.6475C24.065 17.265 24.4325 16.7425 24.6225 16.1475C24.82 15.5525 24.8725 14.92 24.7775 14.3C24.68 13.68 24.4725 13.08 24.1625 12.5325C23.8651 11.9768 23.4526 11.491 22.9525 11.1075C22.45 10.7225 21.835 10.5075 21.2025 10.495V10.4175Z" fill="#EB8F00"/>
<defs>
<radialGradient id="paint0_radial_7_781" cx="0" cy="0" r="1" gradientUnits="userSpaceOnUse" gradientTransform="translate(15.9 15.725) scale(14.24)">
<stop offset="0.5" stop-color="#FDE030"/>
<stop offset="0.92" stop-color="#F7C02B"/>
<stop offset="1" stop-color="#F4A223"/>
</radialGradient>
<linearGradient id="paint1_linear_7_781" x1="15.9" y1="29.7" x2="15.9" y2="1.75" gradientUnits="userSpaceOnUse">
<stop offset="0.39" stop-color="#40C0E7" stop-opacity="0"/>
<stop offset="1" stop-color="#5F7AFF"/>
</linearGradient>
<linearGradient id="paint2_linear_7_781" x1="15.9" y1="29.7" x2="15.9" y2="1.75" gradientUnits="userSpaceOnUse">
<stop offset="0.16" stop-color="#F4A223"/>
<stop offset="0.33" stop-color="#F7C02B"/>
<stop offset="0.81" stop-color="#FDE030" stop-opacity="0"/>
</linearGradient>
<linearGradient id="paint3_linear_7_781" x1="24.5752" y1="31.955" x2="24.5752" y2="19.53" gradientUnits="userSpaceOnUse">
<stop stop-color="#ED6C30"/>
<stop offset="1" stop-color="#ED6C30" stop-opacity="0.2"/>
</linearGradient>
<radialGradient id="paint4_radial_7_781" cx="0" cy="0" r="1" gradientUnits="userSpaceOnUse" gradientTransform="translate(22.8752 23.5704) rotate(141.52) scale(11.1746 10.2989)">
<stop offset="0.27" stop-color="#FFF176"/>
<stop offset="1" stop-color="#FFC400"/>
</radialGradient>
<linearGradient id="paint5_linear_7_781" x1="7.29099" y1="31.955" x2="7.29099" y2="19.53" gradientUnits="userSpaceOnUse">
<stop stop-color="#ED6C30"/>
<stop offset="1" stop-color="#ED6C30" stop-opacity="0.2"/>
</linearGradient>
<radialGradient id="paint6_radial_7_781" cx="0" cy="0" r="1" gradientUnits="userSpaceOnUse" gradientTransform="translate(8.97985 23.5516) rotate(38.4802) scale(11.1746 10.2989)">
<stop offset="0.27" stop-color="#FFF176"/>
<stop offset="1" stop-color="#FFC400"/>
</radialGradient>
</defs>
</svg>
