<svg width="32" height="32" viewBox="0 0 32 32" fill="none" xmlns="http://www.w3.org/2000/svg">
<path d="M2.2325 22.685C2.1 22.3725 1.9725 22.06 1.8475 21.7475C0.905003 19.37 2.0875 17.225 3.1425 15.125L4.6725 12.085C4.98 11.4725 5.4525 10.9575 6.0325 10.5975L10.4325 7.8675L14.78 3.3725C15.0499 3.09246 15.3943 2.89553 15.7725 2.805L18.7325 2.09C20.165 1.7475 20.78 1.8025 21.2425 2.46C22.845 4.735 23.9175 6.6075 25.345 8.875C26.1225 10.11 27.9175 12.9475 28.03 13.135C28.375 13.715 28.235 14.2 28.2225 14.865C28.1925 16.3975 28.4625 17.9375 29.0225 19.365C29.19 19.79 29.3825 20.21 29.47 20.6575C29.55 21.06 29.4425 23.6175 29.36 24.4825C29.2925 25.185 27.6325 27.8075 27.0375 28.125C26.3825 28.475 21.5275 30.26 20.455 30.565C19.3825 30.87 14.7325 29.8075 12.3175 29.4375C10.825 29.21 9.33 28.98 7.8375 28.7525C6.5425 28.555 5.255 28.705 4.53 27.3975C3.6775 25.8675 2.9125 24.295 2.2325 22.685Z" fill="url(#paint0_linear_508_6529)"/>
<path d="M7.835 28.75C9.3275 28.9775 10.8225 29.2075 12.315 29.435C13.0925 29.555 14.1025 29.745 15.15 29.94C14.445 29.105 13.3925 28.115 12.6875 27.28C12.535 27.1 12.38 26.9125 12.325 26.6825C12.2675 26.4375 12.3325 26.185 12.4 25.9425C12.615 25.1475 12.67 24.285 12.885 23.49C11.5525 23.8 8.4825 24.39 8.23 24.3175C7.95 24.2375 7.7225 24.035 7.505 23.8375C5.9225 22.3925 4.685 20.935 3.475 19.1725C3.3325 18.965 3.1875 18.75 3.135 18.5025C3.085 18.27 3.1225 18.03 3.16 17.7975C3.25 17.2175 3.45 15.61 3.61 14.1925L3.14 15.125C2.0875 17.225 0.904996 19.37 1.85 21.7475C1.975 22.0625 2.1025 22.375 2.235 22.685C2.91316 24.2946 3.67846 25.8661 4.5275 27.3925C5.25 28.7025 6.54 28.5525 7.835 28.75Z" fill="url(#paint1_linear_508_6529)"/>
<path d="M21.2625 2.48751C20.955 2.12501 20.355 2.19501 19.725 2.77001L17.46 5.03501C17.32 5.17501 17.245 5.36751 17.2575 5.56501L17.5 10.19C17.5075 10.345 17.565 10.49 17.665 10.6075C18.47 11.5475 21.315 16.065 22.14 16.065C22.9625 16.065 24.4 12.86 25.1325 12.8775C25.2575 12.88 25.91 12.92 26.5475 13.115C27.1425 13.295 27.375 12.4775 27.2525 11.8975C26.6375 10.9225 25.81 9.61501 25.345 8.87501C23.9225 6.61751 22.8525 4.75001 21.2625 2.48751Z" fill="url(#paint2_linear_508_6529)"/>
<path d="M10.7225 11.5925C11.555 11.4675 14.3325 10.995 14.855 10.79C15.875 10.3875 16.775 8.6725 17.37 7.75C17.37 7.75 17.575 10.7575 17.37 11.9325C17.2275 12.75 16.69 17.025 16.15 18.05L12.885 23.49L8.08751 18.6925C7.68001 18.285 7.42001 18.07 7.27251 17.4925C6.93501 16.1725 6.32251 14.225 6.32001 13.0775C6.31751 11.93 9.41001 11.7875 10.7225 11.5925Z" fill="url(#paint3_linear_508_6529)"/>
<path d="M16.79 5.18503C16.47 4.80253 16.38 4.26003 16.49 3.77503C16.5825 3.37003 17.4225 2.58753 17.695 2.34003L15.7725 2.80503C15.3947 2.89658 15.0505 3.09335 14.78 3.37253L10.4325 7.86753C10.4325 7.86753 14.6425 6.11253 16.79 5.18503Z" fill="url(#paint4_linear_508_6529)"/>
<path d="M29.02 19.365C28.6003 18.2933 28.3424 17.1651 28.255 16.0175C26.82 17 26.0175 18.275 23.7075 18.5875C23.095 18.67 22.1475 18.785 21.55 18.9425C20.81 19.1375 20.125 19.685 19.015 19.7875C18.225 19.8625 16.2325 19.805 16.5325 20.25C16.8325 20.695 18.62 21.5925 19.065 21.955C19.6975 22.4625 20.2475 23.06 20.775 23.675C21.05 23.9975 21.4625 24.78 21.9425 24.9925C22.065 25.0475 22.195 25.0625 22.325 25.0225C22.5525 24.955 22.735 24.79 22.9125 24.6325C24.6335 23.1078 26.5681 21.8428 28.655 20.8775C28.8775 20.775 29.1175 20.66 29.2275 20.44C29.275 20.3425 29.295 20.21 29.2975 20.0675C29.21 19.8325 29.1125 19.6 29.02 19.365Z" fill="url(#paint5_linear_508_6529)"/>
<path d="M29.4675 20.6575C29.435 20.495 29.3875 20.335 29.3325 20.1775C29.29 20.325 29.1975 20.4875 28.9975 20.64C28.4225 21.08 26.205 21.7575 23.765 23.895C22.1725 25.29 22.17 25.4775 21.8275 27.015C21.2675 29.5325 20.3775 30.4475 20.2075 30.6025C20.3 30.5925 20.3825 30.58 20.45 30.56C21.525 30.2575 26.3775 28.47 27.0325 28.12C27.6275 27.8025 29.2875 25.18 29.355 24.4775C29.44 23.6175 29.5475 21.06 29.4675 20.6575Z" fill="url(#paint6_linear_508_6529)"/>
<defs>
<linearGradient id="paint0_linear_508_6529" x1="21.904" y1="5.26" x2="10.387" y2="34.521" gradientUnits="userSpaceOnUse">
<stop stop-color="#9E958E"/>
<stop offset="0.46" stop-color="#8E8884"/>
<stop offset="1" stop-color="#757575"/>
</linearGradient>
<linearGradient id="paint1_linear_508_6529" x1="2.21475" y1="30.0343" x2="11.7927" y2="19.384" gradientUnits="userSpaceOnUse">
<stop stop-color="#37474F"/>
<stop offset="0.612" stop-color="#42565F" stop-opacity="0.192"/>
<stop offset="0.757" stop-color="#455A64" stop-opacity="0"/>
</linearGradient>
<linearGradient id="paint2_linear_508_6529" x1="24.8883" y1="16.6755" x2="18.6945" y2="2.93626" gradientUnits="userSpaceOnUse">
<stop stop-color="#9E958E"/>
<stop offset="0.442" stop-color="#AEA298"/>
<stop offset="1" stop-color="#C9B8A9"/>
</linearGradient>
<linearGradient id="paint3_linear_508_6529" x1="9.37551" y1="26.1362" x2="11.8755" y2="12.5737" gradientUnits="userSpaceOnUse">
<stop stop-color="#4C5C64"/>
<stop offset="1" stop-color="#455A64" stop-opacity="0"/>
</linearGradient>
<linearGradient id="paint4_linear_508_6529" x1="10.433" y1="5.10403" x2="17.6955" y2="5.10403" gradientUnits="userSpaceOnUse">
<stop stop-color="#4C5C64"/>
<stop offset="1" stop-color="#455A64" stop-opacity="0"/>
</linearGradient>
<linearGradient id="paint5_linear_508_6529" x1="21.8152" y1="19.1518" x2="30.404" y2="22.6918" gradientUnits="userSpaceOnUse">
<stop stop-color="#9E958E"/>
<stop offset="0.25" stop-color="#AEA298"/>
<stop offset="0.566" stop-color="#C9B8A9"/>
</linearGradient>
<linearGradient id="paint6_linear_508_6529" x1="26.1615" y1="30.8392" x2="24.4015" y2="23.8967" gradientUnits="userSpaceOnUse">
<stop stop-color="#37474F"/>
<stop offset="0.808" stop-color="#42565F" stop-opacity="0.192"/>
<stop offset="1" stop-color="#455A64" stop-opacity="0"/>
</linearGradient>
</defs>
</svg>
