<svg width="32" height="32" viewBox="0 0 32 32" fill="none" xmlns="http://www.w3.org/2000/svg">
<path d="M8.04249 17.0675L12.1175 16.3975C12.1175 16.3975 10.5725 14.705 8.50749 14.2575C6.44249 13.81 5.54999 13.885 5.54999 13.885C5.54999 13.885 4.02499 12.9175 2.98249 12.6C1.93999 12.2825 0.969992 12.4075 0.969992 12.4075L0.959991 16.7575L8.04249 17.0675ZM23.64 17.495L19.99 16.3C19.99 16.3 22.3225 14.62 23.595 14.28C24.9375 13.9225 26.4175 14.0625 26.4175 14.0625C26.4175 14.0625 27.525 13.09 28.805 12.59C30.085 12.09 31.0475 12.0725 31.0475 12.0725L31.045 16.4575C31.045 16.4575 29.7775 17.935 29.7525 17.9C29.7325 17.8625 23.64 17.495 23.64 17.495Z" fill="#A1D1DA"/>
<path d="M24.79 16.25C24.79 16.25 25.44 15.2525 26.1925 15.1925C27.185 15.115 27.53 15.3675 27.53 15.3675C27.53 15.3675 28.005 15.02 28.445 15.0325C29.0775 15.05 29.4475 15.665 29.4475 15.665C29.4475 15.665 29.7475 14.7925 30.0975 14.8025C30.695 14.82 30.7825 16.3175 30.7825 16.3175L28.75 17.095L24.79 16.25ZM1.1875 16.465C1.1875 16.465 1.7225 14.86 2.0925 14.8775C2.4625 14.895 2.7425 15.6 2.7425 15.6C2.7425 15.6 3.0975 13.7725 3.6425 13.7725C4.1525 13.7725 4.4825 16.3225 4.4825 16.3225L5.2225 16.64L6.0825 16.4275C6.0825 16.4275 6.4875 15.3375 6.77 15.355C7.035 15.3725 7.21 15.9175 7.21 15.9175C7.21 15.9175 7.4025 14.88 7.8075 14.88C8.265 14.88 8.5475 16.375 8.5475 16.375L4.59 17.725L1.1875 16.465Z" fill="#518E2C"/>
<path d="M31.05 16.17L31.0525 29.1675C31.0525 30.205 30.21 31.0475 29.1725 31.0475H2.84499C1.80749 31.0475 0.964989 30.205 0.964989 29.1675L0.957489 16.3475L31.05 16.17Z" fill="#7DB240"/>
<path d="M12.1225 16.285C12.1225 16.285 13.705 16.25 16.33 16.2475C18.8775 16.245 20.2475 16.235 20.2475 16.235L28.6925 31.05H3.08749L12.1225 16.285Z" fill="#5E6367"/>
<path d="M4.60251 31.05L12.615 16.275L12.8775 16.2675H13.185L5.55501 31.0525L5.10501 31.06L4.60251 31.05ZM19.8725 16.235L19.5425 16.23L19.1725 16.2375L26.535 31.05H27.325L19.8725 16.235ZM11.4075 30.0175L12.4925 30.0425L13.2275 26.65L12.2175 26.6375L11.4075 30.0175ZM18.7675 26.725L19.7475 26.7075L20.485 30.03H19.2375L18.7675 26.725ZM18.5275 25.325L19.5 25.3L18.8875 22.5925H18.075L18.5275 25.325ZM14.065 22.5325H13.2275L12.58 25.34H13.4775L14.065 22.5325ZM13.9775 19.44L14.7 19.4525L14.315 21.3475L13.4775 21.36L13.9775 19.44ZM14.465 17.5175C14.44 17.58 14.1775 18.64 14.1775 18.64H14.8875L15.075 17.5175H14.465ZM14.625 16.9575H15.225L15.345 16.25C15.345 16.25 15.125 16.2475 15.0475 16.2475C14.97 16.2475 14.7925 16.2525 14.7925 16.2525L14.625 16.9575ZM17.2075 16.955H17.87L17.725 16.2425L17.42 16.2375L17.125 16.245L17.2075 16.955ZM17.3675 17.5825L17.95 17.57L18.1825 18.6525L17.4975 18.665L17.3675 17.5825ZM17.6475 19.455L18.3225 19.4325L18.705 21.4075L17.8675 21.42L17.6475 19.455Z" fill="white"/>
<path d="M4.36749 5.05253V20.0575H5.79499V4.78003L4.36749 5.05253ZM26.1225 20.67L26.2225 4.95753L27.655 5.05753L27.58 20.67H26.1225Z" fill="#9A9A9A"/>
<path d="M28.2825 5.34003H3.495C3.22 5.34003 2.995 5.11503 2.995 4.84003C2.995 4.56503 3.22 4.34003 3.495 4.34003H28.28C28.555 4.34003 28.78 4.56503 28.78 4.84003C28.78 5.11503 28.5575 5.34003 28.2825 5.34003ZM3.525 10.23C3.39239 10.23 3.26521 10.1773 3.17144 10.0836C3.07767 9.98981 3.025 9.86263 3.025 9.73003C3.025 9.59742 3.07767 9.47024 3.17144 9.37647C3.26521 9.28271 3.39239 9.23003 3.525 9.23003L28.37 9.20003C28.5026 9.20003 28.6298 9.25271 28.7235 9.34647C28.8173 9.44024 28.87 9.56742 28.87 9.70003C28.87 9.83263 28.8173 9.95981 28.7235 10.0536C28.6298 10.1473 28.5026 10.2 28.37 10.2L3.525 10.23Z" fill="#C8C8C8"/>
<path d="M21.8948 9.06573L26.4308 4.52948L27.0495 5.14823L22.5135 9.68448L21.8948 9.06573ZM5.0715 5.28898L5.69025 4.67023L10.2178 9.19773L9.599 9.81623L5.0715 5.28898Z" fill="#C8C8C8"/>
<path d="M22.6975 12.1525H9.2225C8.98115 12.1525 8.74969 12.0566 8.57903 11.886C8.40837 11.7153 8.3125 11.4838 8.3125 11.2425V2.95999C8.3125 2.71864 8.40837 2.48718 8.57903 2.31652C8.74969 2.14586 8.98115 2.04999 9.2225 2.04999H22.6975C22.9388 2.04999 23.1703 2.14586 23.341 2.31652C23.5116 2.48718 23.6075 2.71864 23.6075 2.95999V11.2425C23.6075 11.4838 23.5116 11.7153 23.341 11.886C23.1703 12.0566 22.9388 12.1525 22.6975 12.1525Z" fill="#DFE1E0"/>
<path d="M9.0975 11.365L9.17 2.71753L22.7975 2.76503V11.3425L9.0975 11.365Z" fill="#1B9372"/>
<path d="M17.4525 6.37251L17.4925 4.22251H21.21V6.39251C21.21 6.39251 17.4725 6.35251 17.4525 6.37251ZM11.2775 5.24501C11.2775 6.13001 11.98 6.69251 12.765 6.69251C13.5475 6.69251 14.1925 6.13001 14.1925 5.22501C14.1925 4.32001 13.37 3.75751 12.765 3.75751C11.98 3.75751 11.2775 4.30001 11.2775 5.24501Z" fill="#85D59E"/>
<path d="M12.155 7.29498H13.42V8.59998C13.42 8.59998 14.9075 8.05748 15.0275 8.19748C15.1475 8.33748 13.0775 10.5075 12.8375 10.5075C12.5975 10.5075 10.385 8.37748 10.4675 8.21748C10.5475 8.05748 12.155 8.51998 12.155 8.51998V7.29498ZM18.7875 7.37498H20.0525V8.67998C20.0525 8.67998 21.54 8.13748 21.66 8.27748C21.78 8.41748 19.71 10.5875 19.47 10.5875C19.23 10.5875 17.0175 8.45748 17.1 8.29748C17.18 8.13748 18.7875 8.59998 18.7875 8.59998V7.37498Z" fill="#FEFFFE"/>
</svg>
