<svg width="32" height="32" viewBox="0 0 32 32" fill="none" xmlns="http://www.w3.org/2000/svg">
<path d="M9.40249 15.4675L9.30999 15.1325C9.29249 15.0725 9.23499 15.0325 9.17249 15.0425C8.26999 15.165 6.14749 15.47 5.95749 15.6425C5.84999 15.74 5.81249 15.8675 5.84999 15.9925C5.89249 16.1325 6.02749 16.245 6.17749 16.265C6.26749 16.28 6.38499 16.285 6.48499 16.29C6.47499 16.34 6.47749 16.3875 6.48999 16.435C6.51749 16.53 6.58999 16.5975 6.68499 16.6175C6.72749 16.6275 6.77249 16.63 6.82249 16.63C7.56499 16.63 9.15499 15.72 9.34249 15.61C9.39499 15.58 9.41749 15.5225 9.40249 15.4675Z" fill="#91674D"/>
<path d="M12.2025 10.7025L10.64 13.655C10.6375 13.655 10.6375 13.6575 10.635 13.6575L7.94999 15.085C7.48999 15.305 7.94749 16.4925 8.41499 16.4925C8.45499 16.4925 8.49499 16.4825 8.53499 16.465L11.6025 15.235L11.6 15.23C11.79 15.145 11.9425 15.005 12.04 14.8325L12.0475 14.8375L13.8275 11.565L12.2025 10.7025Z" fill="url(#paint0_linear_509_6560)"/>
<path d="M9.1775 15.1275C8.8625 14.7575 8.625 14.7775 8.2975 14.85C8.2225 14.8675 8.145 14.8875 8.06 14.91C7.82 14.9725 7.52 15.05 7.0375 15.1075C6.395 15.1825 5.6125 15.1525 5.605 15.1525C5.5925 15.15 5.58 15.1525 5.5675 15.155C5.4275 15.19 5.3225 15.2875 5.285 15.4125C5.25 15.53 5.28 15.6525 5.365 15.7425C5.605 15.9975 6.48 16.045 7.01 16.0125C7.16 16.0025 7.4225 15.9925 7.6325 15.985C7.6625 15.9775 7.685 16.0075 7.69 16.02C7.695 16.0325 7.7025 16.0575 7.6825 16.0825C7.585 16.195 7.46 16.2975 7.3125 16.3825C7.125 16.49 7.035 16.6075 7.0425 16.74C7.0475 16.8725 7.1525 16.985 7.34 17.07C7.395 17.095 7.4575 17.105 7.5275 17.105C7.965 17.105 8.635 16.675 8.8625 16.4525C9.145 16.1725 9.49 15.4925 9.1775 15.1275Z" fill="url(#paint1_linear_509_6560)"/>
<path d="M13.8825 9.72501L13.615 9.59001C13.4351 9.49632 13.2353 9.44744 13.0325 9.44751C12.56 9.44751 12.105 9.70751 11.8775 10.1575L10.65 12.58L13.2225 13.885L14.45 11.4625C14.7725 10.825 14.5175 10.0475 13.8825 9.72501Z" fill="#ED6D23"/>
<path d="M21.4775 20.6525L17.815 15.2375L15.11 17.2125L19.46 22.7425H19.4625C19.7 23.0675 20.05 23.26 20.42 23.31L20.4175 23.325L27.12 24.165L27.5275 21.9775L21.4775 20.6525Z" fill="#91674D"/>
<path d="M25.6325 21.56L25.1925 23.92L27.1175 24.16L27.525 21.9725L25.6325 21.56Z" fill="#BDBDBD"/>
<path d="M15.095 3.04497C14.4175 2.06247 12.96 1.34247 11.7925 1.59497C10.485 1.87497 9.8225 2.85997 9.695 4.07247C9.6475 4.51247 9.6825 4.94497 9.7725 5.24997C9.7825 5.28747 9.87 5.54997 9.8775 5.63497C9.9425 5.95747 9.33 6.30997 9.275 6.67247C9.2325 6.94497 9.8025 7.08747 9.85 7.13497C10.0825 7.36497 9.79 8.53497 11.3375 8.57247C11.9325 8.58747 11.815 8.55747 11.9925 8.61497C12.27 8.70497 12.62 9.51497 12.62 9.51497C12.62 9.51497 12.49 10.6175 13.495 10.2525C14.64 9.83497 14.8975 8.79747 14.8975 8.79747C14.8975 8.79747 14.1575 7.88247 14.795 6.65497C15.3025 5.67247 15.53 3.67747 15.095 3.04497Z" fill="#BA8D68"/>
<path d="M10.04 7.77002C10.255 7.77252 10.4625 7.71002 10.6375 7.56752C10.8275 7.41252 10.685 7.25502 10.4625 7.36252C10.33 7.42752 10.1375 7.46502 9.95999 7.44252L10.04 7.77002Z" fill="#5D4037"/>
<path d="M10.8775 6.2036C11.033 6.19106 11.1435 5.98677 11.1241 5.7473C11.1048 5.50784 10.9631 5.32388 10.8076 5.33642C10.6521 5.34896 10.5417 5.55326 10.561 5.79272C10.5803 6.03219 10.722 6.21615 10.8775 6.2036Z" fill="#49362E"/>
<path d="M10.5925 5.13752C10.3175 5.21752 10.2525 5.03502 10.345 4.88752C10.4125 4.78002 10.58 4.69002 10.9025 4.75502C11.205 4.81752 11.33 4.99252 11.4125 5.09752C11.4925 5.20502 11.4825 5.31002 11.4125 5.32002C11.3175 5.33502 10.935 5.04002 10.5925 5.13752Z" fill="#613E31"/>
<path d="M15.97 3.05C15.6 2.24 14.9175 2.0225 14.695 1.9725C14.5775 1.6775 14.005 0.567505 12.1425 0.970005C11.69 1.06751 11.3675 1.30251 11.08 1.50751C10.9575 1.59751 10.8425 1.68001 10.7325 1.74001C10.6425 1.78751 10.485 1.83501 10.35 1.79751C10.0425 1.71251 10.115 1.25001 10.115 1.25001C10.115 1.25001 9.01749 1.52251 9.54749 2.5725C9.18499 2.75501 9.02999 3.16001 8.98249 3.53251C8.91749 4.04501 9.18749 4.5125 9.68499 4.7075C9.68499 4.7075 9.54749 3.89751 10.725 3.88751C11.09 3.88501 11.475 3.9225 11.805 3.77C11.9325 3.7125 12.0475 3.62501 12.17 3.55501C12.2 3.55251 12.215 3.55251 12.215 3.55251C12.6725 3.77001 12.1375 4.84751 12.6625 5.43751C12.7675 5.55501 12.845 5.50501 12.845 5.50501L13.03 5.20501C13.17 4.99751 13.3 4.8175 13.4875 4.85C14.0475 4.945 13.995 5.93751 13.35 6.18751C13.285 6.21251 13.4925 7.30751 14.8525 7.24001C15.555 7.20501 15.775 6.61001 15.775 6.61001C15.775 6.61001 15.4775 6.70001 15.4 6.44751C15.36 6.31751 15.4725 6.13251 15.6825 5.92501C16.2875 5.32751 16.0275 4.6925 15.925 4.495C16.0225 4.3025 16.26 3.685 15.97 3.05Z" fill="#543930"/>
<path d="M15.935 4.49502C15.945 4.47252 15.7625 5.00502 14.86 4.96502C14.49 4.98252 14.02 5.90002 14.59 6.46252C15.095 6.96002 15.785 6.61002 15.785 6.61002C15.785 6.61002 15.69 6.64252 15.545 6.60002C15.45 6.57252 15.4125 6.45252 15.41 6.44752C15.37 6.31752 15.4825 6.13252 15.6925 5.92502C16.2975 5.32752 16.0375 4.69002 15.935 4.49502Z" fill="url(#paint2_radial_509_6560)"/>
<path d="M15.97 3.04997C15.775 2.62247 15.44 2.27247 15.01 2.07997C14.9475 2.05247 14.795 1.98747 14.6925 1.97247C14.7525 2.16247 14.755 2.36997 14.685 2.58747C14.6825 2.59497 14.6025 2.91747 14.345 3.18247C14.5575 3.44747 14.6725 3.77497 14.7825 4.09497C14.8775 4.37497 14.9725 4.68497 14.86 4.95997C15.0325 4.93997 15.3075 4.97497 15.6025 4.82497C15.885 4.67997 16.02 4.33997 16.0775 4.03747C16.14 3.70747 16.11 3.35997 15.97 3.04997Z" fill="url(#paint3_radial_509_6560)"/>
<path d="M14.6825 2.58999C14.8725 2.02249 14.54 1.52249 14.06 1.20249C13.4975 0.82749 12.78 0.83249 12.1425 0.96999C11.69 1.06749 11.3675 1.30249 11.08 1.50749C10.9575 1.59749 10.8425 1.67999 10.7325 1.73999C10.6425 1.78749 10.485 1.83499 10.35 1.79749C10.0425 1.71249 10.115 1.24999 10.115 1.24999C10.115 1.24999 9.01749 1.52249 9.54749 2.57249C9.18499 2.75499 9.02999 3.15999 8.98249 3.53249C8.91749 4.04499 9.18749 4.51249 9.68499 4.70749C9.68499 4.70749 9.54749 3.89749 10.725 3.88749C11.09 3.88499 11.475 3.92249 11.805 3.76999C12.0975 3.63499 12.1925 3.46749 12.5275 3.46999C12.89 3.47249 13.3775 3.58749 13.7475 3.50999C14.4975 3.35749 14.68 2.59999 14.6825 2.58999Z" fill="url(#paint4_radial_509_6560)"/>
<path d="M14.5875 6.46002C14.3325 6.21502 14.2475 5.79252 13.8575 5.58502C13.8 5.83502 13.6325 6.07752 13.3575 6.18502C13.2925 6.21002 13.5 7.30502 14.86 7.23752C15.5625 7.20252 15.7825 6.60752 15.7825 6.60752C15.7825 6.60752 15.1 6.95252 14.5875 6.46002Z" fill="url(#paint5_radial_509_6560)"/>
<path d="M15.135 15.3775L11.9725 20.655C11.4871 21.4649 11.2807 22.4116 11.385 23.35L12.07 29.545L13.9725 29.55L14.1875 22.6675L17.9625 17.175L15.135 15.3775Z" fill="url(#paint6_linear_509_6560)"/>
<path d="M11.8025 27.055L11.995 29.1625L13.97 29.1675L14.0675 27.06L11.8025 27.055Z" fill="#E0E0E0"/>
<path d="M18.0525 15.02C17.8673 14.7669 17.625 14.5612 17.3452 14.4195C17.0654 14.2779 16.7561 14.2044 16.4425 14.205C16.035 14.205 15.625 14.33 15.27 14.5875C14.3825 15.235 14.1875 16.4825 14.835 17.37L17.0775 20.285L20.145 18.045L18.0525 15.02Z" fill="#646464"/>
<path d="M17.64 14.565C17.3197 14.3628 16.9488 14.2554 16.57 14.255C15.9125 14.255 15.2675 14.5825 14.8875 15.1775L12.995 18.33L16.2 20.3675L18.2525 17.315C18.8425 16.3875 18.5675 15.155 17.64 14.565Z" fill="#7C7C7C"/>
<path d="M18.54 15.3425C18.0525 13.375 17.1975 11.4075 16.3175 9.44C16.0225 8.6975 15.2625 8.255 14.5075 8.255C14.2925 8.255 14.08 8.29 13.8775 8.365C12.635 8.825 11.995 9.9675 12.385 11.34C12.96 13.37 13.245 14.575 13.4575 16.5725C13.485 16.83 13.71 17.015 13.965 17.015C14.01 17.015 14.055 17.01 14.1025 16.9975C15.4 16.6525 16.8625 16.29 18.1825 15.94C18.4425 15.87 18.605 15.605 18.54 15.3425Z" fill="url(#paint7_radial_509_6560)"/>
<path d="M24.15 14.975C24.07 14.775 23.95 14.5775 23.7975 14.325C23.68 14.1325 22.8 13.13 22.435 12.955C22.215 12.585 21.0025 11.0775 20.46 10.4075C20.3325 10.25 20.1625 10.1325 19.9675 10.0675L16.3975 8.94249C16.3817 8.93747 16.3651 8.93562 16.3487 8.93706C16.3322 8.93849 16.3162 8.94318 16.3015 8.95086C16.2869 8.95853 16.2739 8.96903 16.2633 8.98176C16.2528 8.99448 16.2448 9.00918 16.24 9.02499L15.695 10.795C15.6856 10.8265 15.689 10.8604 15.7044 10.8894C15.7199 10.9184 15.7461 10.9402 15.7775 10.95L19.04 11.9575C19.5675 12.465 20.835 13.6875 21.01 13.8575C21.0975 14.15 21.0775 14.52 21.0625 14.8475C21.045 15.2025 21.03 15.4825 21.145 15.6375C21.255 15.785 21.38 15.7925 21.445 15.785C21.6175 15.7625 21.7425 15.6 21.7975 15.465C21.87 15.29 21.8675 15.11 21.865 14.9775V14.9025C22.02 15.0075 22.0775 15.415 22.1225 15.745C22.1825 16.17 22.2325 16.5375 22.49 16.5825C22.5025 16.585 22.515 16.585 22.5275 16.585C22.58 16.585 22.6275 16.565 22.6675 16.5275C22.795 16.4075 22.805 16.0925 22.795 15.865C22.8125 15.9425 22.8175 16.02 22.8225 16.0975C22.8375 16.29 22.8575 16.55 23.13 16.56C23.2125 16.5625 23.2675 16.5325 23.3125 16.475C23.39 16.38 23.405 16.2175 23.395 16.0525C23.46 16.1825 23.5375 16.2575 23.66 16.2175C23.705 16.2025 23.77 16.165 23.8125 16.07C23.8525 15.9825 23.8675 15.8625 23.8625 15.7375C23.8775 15.7525 23.8925 15.765 23.9125 15.7725C23.9425 15.785 23.9875 15.7875 24.0175 15.7775C24.0675 15.76 24.135 15.72 24.18 15.62C24.2575 15.4625 24.2425 15.215 24.15 14.975Z" fill="url(#paint8_linear_509_6560)"/>
<path d="M15.5825 8.3C15.465 8.265 15.3425 8.2475 15.225 8.2475C14.6625 8.2475 14.1475 8.615 13.9825 9.1825L13.8925 9.49C13.695 10.175 14.09 10.8925 14.775 11.09L17.41 11.85L18.215 9.0575L15.5825 8.3Z" fill="#ED6D23"/>
<path d="M13.99 28.955H12.0075L10.6375 29.4725C10.2525 29.6225 9.99999 29.9875 9.99499 30.395L9.99249 30.7125C9.99249 30.85 10.105 30.9625 10.245 30.9625L14.185 30.9575C14.345 30.9575 14.475 30.83 14.475 30.67V29.97C14.4775 29.4975 13.99 28.955 13.99 28.955Z" fill="#4568AD"/>
<path d="M29.0725 21.8575L28.385 21.73C28.3325 21.72 28.2825 21.7175 28.23 21.7175C27.79 21.7175 27.29 22.0225 27.29 22.0225L26.925 23.9725L27.1825 25.4125C27.2575 25.8175 27.57 26.135 27.9725 26.2125L28.2825 26.2725C28.2975 26.275 28.315 26.2775 28.33 26.2775C28.4475 26.2775 28.555 26.1925 28.5775 26.07L29.3 22.195C29.33 22.0375 29.2275 21.8875 29.0725 21.8575Z" fill="#325599"/>
<path d="M8.83749 20.24C8.83749 21.825 7.51249 23.1125 5.87999 23.1125C4.24749 23.1125 2.92499 21.825 2.92499 20.24C2.92499 18.655 4.24999 17.3675 5.87999 17.3675C7.51499 17.3675 8.83749 18.6525 8.83749 20.24Z" fill="url(#paint9_radial_509_6560)"/>
<path d="M5.95751 23.11C5.93251 23.1125 5.90501 23.1125 5.88001 23.1125C5.59001 23.1125 5.30751 23.07 5.04501 22.995H5.04251C4.68501 22.5 4.02001 21.37 4.06001 19.86C4.06251 19.745 4.07001 19.625 4.08251 19.505C4.09501 19.35 4.12001 19.195 4.15001 19.035C4.16751 18.94 4.19001 18.845 4.21501 18.7475L4.22251 18.725C4.25001 18.61 4.28751 18.505 4.33001 18.41H4.33251C4.36751 18.3225 4.40501 18.245 4.44751 18.1725H4.45001C4.65001 17.82 4.91251 17.6 5.11001 17.47C5.34251 17.4075 5.58751 17.3725 5.83751 17.37C5.58501 17.4625 5.13751 17.68 4.82751 18.165C4.77501 18.2425 4.72751 18.33 4.69001 18.4225H4.68751C4.65001 18.505 4.61751 18.5975 4.58751 18.695C4.55608 18.7963 4.53267 18.9 4.51751 19.005C4.49251 19.1625 4.47501 19.3125 4.46751 19.4625C4.46001 19.5825 4.46001 19.7025 4.46751 19.82C4.52751 21.395 5.50001 22.6175 5.95751 23.11Z" fill="url(#paint10_radial_509_6560)"/>
<path d="M7.365 17.7575C6.505 17.745 5.795 18.3625 4.6925 18.42H4.69C4.635 18.4225 4.5825 18.425 4.525 18.425C4.4525 18.425 4.3925 18.42 4.335 18.4075H4.3325C4.06 18.3575 3.97 18.1925 3.9425 18.0725C4.0175 18.0075 4.0975 17.9475 4.1775 17.8925C4.17 18.0025 4.215 18.1275 4.45 18.17H4.4525C4.505 18.1775 4.565 18.18 4.6375 18.18C4.6975 18.18 4.7625 18.1725 4.83 18.1625C5.4625 18.0725 6.3175 17.6375 6.5775 17.555C6.6525 17.5325 6.7325 17.5175 6.805 17.5125C7.0025 17.575 7.19 17.655 7.365 17.7575Z" fill="url(#paint11_radial_509_6560)"/>
<path d="M8.20249 22.0175C8.06999 22.1825 7.91749 22.3325 7.74749 22.47C7.51749 22.0575 7.07249 21.395 6.23999 20.6225C5.76999 20.185 5.13499 19.83 4.46999 19.8175C4.39499 19.8125 4.31749 19.815 4.24249 19.8225C4.17749 19.8275 4.11749 19.84 4.05999 19.86C3.39749 20.0575 3.24749 20.9375 3.21999 21.4875C3.09249 21.2325 2.99999 20.9575 2.95499 20.6675C3.11499 20.2425 3.44499 19.655 4.08249 19.505C4.13499 19.4925 4.18749 19.4825 4.24499 19.4775C4.31999 19.47 4.39749 19.465 4.46999 19.4625C5.33999 19.445 5.97999 19.8725 6.59249 20.32C7.42499 20.92 7.95249 21.6375 8.20249 22.0175Z" fill="url(#paint12_radial_509_6560)"/>
<path d="M8.83749 20.2025V20.24C8.83749 20.465 8.81249 20.68 8.75999 20.89C7.97499 20.1625 6.37749 18.94 4.51999 19.0025C4.39709 19.0069 4.27446 19.0169 4.15249 19.0325C3.58999 19.11 3.23499 19.325 3.01999 19.52C3.06499 19.3475 3.12749 19.1825 3.20249 19.025C3.43999 18.9 3.77499 18.775 4.22499 18.7225C4.27249 18.715 4.31999 18.7125 4.36749 18.7075L4.58999 18.6925C6.65499 18.5975 8.21999 19.69 8.83749 20.2025Z" fill="url(#paint13_radial_509_6560)"/>
<defs>
<linearGradient id="paint0_linear_509_6560" x1="8.14474" y1="15.8618" x2="11.8772" y2="13.0013" gradientUnits="userSpaceOnUse">
<stop stop-color="#BA8D68"/>
<stop offset="1" stop-color="#A47B62"/>
</linearGradient>
<linearGradient id="paint1_linear_509_6560" x1="9.547" y1="15.861" x2="6.05875" y2="16.082" gradientUnits="userSpaceOnUse">
<stop stop-color="#BA8D68"/>
<stop offset="1" stop-color="#A47B62"/>
</linearGradient>
<radialGradient id="paint2_radial_509_6560" cx="0" cy="0" r="1" gradientUnits="userSpaceOnUse" gradientTransform="translate(14.3004 5.87615) rotate(17.4511) scale(1.78055 2.56408)">
<stop offset="0.45" stop-color="#6D4C41" stop-opacity="0"/>
<stop offset="1" stop-color="#6D4C41"/>
</radialGradient>
<radialGradient id="paint3_radial_509_6560" cx="0" cy="0" r="1" gradientUnits="userSpaceOnUse" gradientTransform="translate(14.4212 4.07308) rotate(-10.5334) scale(1.80466 2.27736)">
<stop offset="0.45" stop-color="#6D4C41" stop-opacity="0"/>
<stop offset="1" stop-color="#6D4C41"/>
</radialGradient>
<radialGradient id="paint4_radial_509_6560" cx="0" cy="0" r="1" gradientUnits="userSpaceOnUse" gradientTransform="translate(12.3811 3.55016) rotate(-11.6302) scale(3.71462 2.79199)">
<stop offset="0.45" stop-color="#6D4C41" stop-opacity="0"/>
<stop offset="1" stop-color="#6D4C41"/>
</radialGradient>
<radialGradient id="paint5_radial_509_6560" cx="0" cy="0" r="1" gradientUnits="userSpaceOnUse" gradientTransform="translate(14.7197 6.0738) rotate(11.4493) scale(1.99975 1.28562)">
<stop offset="0.45" stop-color="#6D4C41" stop-opacity="0"/>
<stop offset="1" stop-color="#6D4C41"/>
</radialGradient>
<linearGradient id="paint6_linear_509_6560" x1="14.7955" y1="19.0505" x2="13.4233" y2="27.097" gradientUnits="userSpaceOnUse">
<stop stop-color="#A47B62"/>
<stop offset="1" stop-color="#BA8D68"/>
</linearGradient>
<radialGradient id="paint7_radial_509_6560" cx="0" cy="0" r="1" gradientUnits="userSpaceOnUse" gradientTransform="translate(14.389 11.5735) scale(3.8115)">
<stop offset="0.367" stop-color="#F78C1F"/>
<stop offset="0.68" stop-color="#F37F21"/>
<stop offset="1" stop-color="#ED6D23"/>
</radialGradient>
<linearGradient id="paint8_linear_509_6560" x1="15.6902" y1="12.76" x2="24.2305" y2="12.76" gradientUnits="userSpaceOnUse">
<stop offset="0.007" stop-color="#A47B62"/>
<stop offset="1" stop-color="#BA8D68"/>
</linearGradient>
<radialGradient id="paint9_radial_509_6560" cx="0" cy="0" r="1" gradientUnits="userSpaceOnUse" gradientTransform="translate(4.82949 19.2457) scale(3.191)">
<stop offset="0.017" stop-color="#FB8C00"/>
<stop offset="0.442" stop-color="#F47900"/>
<stop offset="0.838" stop-color="#D95A1E"/>
</radialGradient>
<radialGradient id="paint10_radial_509_6560" cx="0" cy="0" r="1" gradientUnits="userSpaceOnUse" gradientTransform="translate(4.25826 18.1695) scale(5.38725 5.38725)">
<stop offset="0.017" stop-color="#FFA726"/>
<stop offset="0.494" stop-color="#FC950D"/>
<stop offset="0.838" stop-color="#FB8C00"/>
</radialGradient>
<radialGradient id="paint11_radial_509_6560" cx="0" cy="0" r="1" gradientUnits="userSpaceOnUse" gradientTransform="translate(4.25825 18.1695) scale(5.38725 5.38724)">
<stop offset="0.017" stop-color="#FFA726"/>
<stop offset="0.494" stop-color="#FC950D"/>
<stop offset="0.838" stop-color="#FB8C00"/>
</radialGradient>
<radialGradient id="paint12_radial_509_6560" cx="0" cy="0" r="1" gradientUnits="userSpaceOnUse" gradientTransform="translate(4.25824 18.1695) scale(5.38725)">
<stop offset="0.017" stop-color="#FFA726"/>
<stop offset="0.494" stop-color="#FC950D"/>
<stop offset="0.838" stop-color="#FB8C00"/>
</radialGradient>
<radialGradient id="paint13_radial_509_6560" cx="0" cy="0" r="1" gradientUnits="userSpaceOnUse" gradientTransform="translate(4.25824 18.1695) scale(5.38725 5.38725)">
<stop offset="0.017" stop-color="#FFA726"/>
<stop offset="0.494" stop-color="#FC950D"/>
<stop offset="0.838" stop-color="#FB8C00"/>
</radialGradient>
</defs>
</svg>
