<svg width="32" height="32" viewBox="0 0 32 32" fill="none" xmlns="http://www.w3.org/2000/svg">
<path d="M14.0975 12.185L6.55503 8.44998C6.55503 8.44998 6.53753 8.09248 6.87503 7.91248C7.21503 7.73248 12.56 5.54248 12.99 5.54248C13.42 5.54248 15.9375 6.02748 17.77 6.43498C19.6025 6.84248 24.445 7.88248 24.4675 8.19998C24.49 8.51748 19.5125 13.6075 19.5125 13.6075L14.0975 12.185Z" fill="#C3FECE"/>
<path d="M20.9775 9.85499C20.9775 9.85499 17.815 8.92499 14.7375 8.20249C13.305 7.86499 9.09497 6.98249 9.09497 6.98249C9.09497 6.98249 9.54247 6.78749 9.87997 6.64499C10.2225 6.50249 10.495 6.42749 10.495 6.42749C10.495 6.42749 13.24 6.97499 15.28 7.40999C18.04 7.99749 21.9025 9.14999 21.9925 9.33249C22.085 9.51249 20.9775 9.85499 20.9775 9.85499Z" fill="white"/>
<path d="M14.8525 8.97998C14.18 9.44748 14.84 9.72998 16.08 10.02C17.4375 10.3375 18.4725 10.805 19.345 10.2975C20.1325 9.84248 18.205 9.34748 17.32 9.15748C16.645 9.01248 15.3725 8.61998 14.8525 8.97998Z" fill="#ACB1B2"/>
<path d="M17.3175 9.92001C17.3125 9.92001 17.34 4.44251 17.34 4.24001C17.34 4.03751 17.1125 3.85501 17.3625 3.42501C17.6125 2.99501 18.2675 3.04001 18.2675 3.04001C18.2675 3.04001 20.985 2.25001 22.07 1.97751C23.155 1.70501 25.555 1.07251 25.555 1.07251L25.715 2.44501C25.715 2.44501 23.2 3.15501 21.955 3.47251C20.71 3.79001 19.0125 4.31001 19.0125 4.31001L18.7625 4.53751L18.835 9.89001C18.835 9.89001 18.6025 10.15 18.0825 10.15C17.5775 10.1475 17.3175 9.92001 17.3175 9.92001Z" fill="#FFD816"/>
<path d="M25.1075 1.77499C25.1275 2.20249 25.355 2.46749 25.625 2.46749C25.895 2.46749 26.08 2.12249 26.04 1.67249C25.9975 1.22499 25.7075 1.01999 25.46 1.10249C25.2125 1.18499 25.0925 1.46249 25.1075 1.77499ZM18.7675 4.66249C18.72 4.66249 18.6725 4.64999 18.63 4.61999L17.3325 3.75499C17.2775 3.71787 17.2394 3.66061 17.2263 3.59558C17.2132 3.53056 17.2262 3.46299 17.2625 3.40749C17.2807 3.38 17.3041 3.35638 17.3314 3.33798C17.3587 3.31958 17.3894 3.30675 17.4217 3.30025C17.454 3.29374 17.4873 3.29368 17.5196 3.30008C17.5519 3.30647 17.5826 3.31918 17.61 3.33749L18.9075 4.20249C19.0225 4.27999 19.0525 4.43499 18.9775 4.54999C18.9275 4.62249 18.8475 4.66249 18.7675 4.66249Z" fill="#FEB804"/>
<path d="M18.9675 4.45249C18.8925 4.45249 18.8175 4.41749 18.7675 4.35249C18.435 3.90999 18.055 3.40749 17.9875 3.32999C17.9025 3.24749 17.885 3.11249 17.9525 3.00999C17.9707 2.98251 17.9941 2.95888 18.0214 2.94048C18.0487 2.92208 18.0794 2.90925 18.1117 2.90275C18.144 2.89625 18.1773 2.89619 18.2096 2.90258C18.2419 2.90897 18.2726 2.92168 18.3 2.93999C18.345 2.96999 18.37 2.98749 19.1675 4.04999C19.25 4.15999 19.175 4.31749 19.065 4.39999C19.02 4.43499 19.02 4.45249 18.9675 4.45249Z" fill="#FEB804"/>
<path d="M18.6625 4.87247C18.65 4.87247 18.6375 4.87247 18.6225 4.86997L17.3725 4.67247C17.3402 4.66738 17.3092 4.65597 17.2812 4.6389C17.2533 4.62182 17.229 4.59941 17.2097 4.57295C17.1905 4.54648 17.1766 4.51648 17.1689 4.48466C17.1613 4.45283 17.1599 4.41981 17.165 4.38747C17.1701 4.35513 17.1815 4.32411 17.1986 4.29619C17.2157 4.26826 17.2381 4.24396 17.2645 4.2247C17.291 4.20543 17.321 4.19156 17.3528 4.18389C17.3847 4.17621 17.4177 4.17488 17.45 4.17997L18.7 4.37747C18.835 4.39997 18.9525 4.42497 18.93 4.56247C18.9125 4.68247 18.785 4.87247 18.6625 4.87247Z" fill="#FEB804"/>
<path d="M6.54498 8.42249C6.94248 8.42249 10.1325 9.25999 11.7775 9.56249C13.4225 9.86499 18.39 11.04 18.5575 11.0725C18.725 11.105 18.6925 13.255 18.6925 13.255C18.6925 13.255 21.0425 25.405 20.975 25.9775C20.9075 26.5475 19.365 30.945 19.365 30.945C19.365 30.945 18.4575 31.08 16.1425 30.4075C13.8275 29.735 7.71748 28.0575 7.34748 27.5875C6.97748 27.1175 7.21248 20.9075 7.01248 17.0825C6.80748 13.255 6.54498 8.42249 6.54498 8.42249Z" fill="#79DD8A"/>
<path d="M25.0675 27.855C25.195 27.4325 24.485 22.9025 24.385 18.74C24.285 14.58 24.6425 8.24998 24.47 8.19998C24.2975 8.15248 18.5575 11.0725 18.5575 11.0725C18.5575 11.0725 18.5325 15.2025 18.6025 19.0975C18.6925 24.1375 19.095 30.81 19.3625 30.945C19.63 31.08 21.9525 29.78 22.6525 29.4C23.8925 28.7275 24.9675 28.1925 25.0675 27.855Z" fill="#02AB46"/>
<path d="M20.96 12.985L20.9725 9.84997L22 9.34497L22.03 12.7825L21.555 13.615L20.96 12.985Z" fill="#DBDFE1"/>
<path d="M11.8625 14.085C9.64251 13.8475 8.10501 15.8275 8.22501 18.4075C8.36751 21.455 10.375 23.7 12.5475 24.1475C14.72 24.595 16.825 23.6525 16.87 20.32C16.92 16.8475 13.8675 14.2975 11.8625 14.085Z" fill="#FEFEFD"/>
<path d="M13.3425 16.8675C13.3425 16.8675 12.8925 15.355 11.54 15.7575C10.1875 16.16 9.45499 19.1025 11.75 20.4275C13.955 21.7 15.985 19.365 15.275 17.8525C14.63 16.4725 13.3425 16.8675 13.3425 16.8675Z" fill="#EF5B44"/>
<path d="M12.8275 15.0175C12.675 15.0725 12.555 15.695 12.715 16.29C12.835 16.735 13.2175 17.345 13.44 17.305C13.6175 17.2725 13.7525 16.5725 13.585 15.985C13.39 15.3075 13.005 14.9525 12.8275 15.0175Z" fill="#B8CF17"/>
<path d="M12.795 18.5275C12.16 18.335 11.445 20.5175 12.73 21.8775C14.1475 23.375 15.8025 22.055 15.7575 21.765C15.6925 21.3625 14.5825 21.0725 14.035 20.3975C13.4875 19.7175 13.165 18.64 12.795 18.5275Z" fill="#FD8F01"/>
<path d="M10.765 18.1575C10.765 18.1575 10.8925 17.2025 10.0075 17.255C9.15253 17.3075 9.36253 18.3175 9.36253 18.3175C9.36253 18.3175 8.65003 18.4025 8.77003 19.1925C8.86003 19.79 9.49003 19.7825 9.49003 19.7825C9.49003 19.7825 8.79753 20.055 9.11253 20.845C9.39253 21.5475 10.0375 21.265 10.0375 21.265C10.0375 21.265 9.80003 21.95 10.36 22.3125C10.8325 22.6175 11.245 22.36 11.245 22.36C11.245 22.36 11.22 22.945 11.8725 23.0525C12.6625 23.1825 13.005 22.22 12.4425 21.775C12.015 21.4375 11.6275 21.7 11.6275 21.7C11.6275 21.7 11.7075 21.5125 11.6325 21.2975C11.5825 21.1575 11.5025 21.105 11.5025 21.105C11.5025 21.105 12.195 21.04 12.0825 20.2525C11.97 19.4625 11.2775 19.56 11.2775 19.56C11.2775 19.56 11.68 19.2375 11.52 18.6575C11.3625 18.075 10.765 18.1575 10.765 18.1575Z" fill="#A281D0"/>
<path d="M21.6725 13.8575C21.0975 13.8575 18.645 11.42 18.6225 11.395C18.6011 11.3701 18.5849 11.3412 18.5747 11.31C18.5645 11.2787 18.5606 11.2458 18.5631 11.2131C18.5657 11.1803 18.5747 11.1484 18.5896 11.1191C18.6045 11.0899 18.625 11.0638 18.65 11.0425C18.755 10.9525 18.91 10.965 19.0025 11.0675C19.16 11.2425 21.035 12.9825 21.575 13.3175C21.925 12.795 23.0625 10.5075 24.04 8.44252C24.1 8.31752 24.25 8.26502 24.3725 8.32252C24.4975 8.38252 24.55 8.53002 24.4925 8.65502C22.0825 13.7475 21.845 13.815 21.7175 13.85C21.7025 13.8575 21.6875 13.8575 21.6725 13.8575Z" fill="#2D802D"/>
</svg>
