<svg width="32" height="32" viewBox="0 0 32 32" fill="none" xmlns="http://www.w3.org/2000/svg">
<path d="M7.99999 6.16498C7.99999 6.16498 8.60749 4.33998 10.04 3.19498C11.4725 2.04998 24.7525 6.95498 24.7525 6.95498C24.7525 6.95498 27.0725 7.78249 28.445 9.97499C29.3675 11.45 29.8825 13.63 28.905 16.2625C26.575 22.5325 20.53 21.8075 18.955 21.45C18.215 21.2825 16.4125 20.805 16.4125 20.805C16.4125 20.805 12.295 24.205 7.33999 21.5975C3.56749 19.6125 4.03499 16.645 4.03499 16.645C4.03499 16.645 1.49499 14.105 2.59499 10.5675C3.91999 6.30749 7.99999 6.16498 7.99999 6.16498Z" fill="#5B9821"/>
<path d="M16.5925 13.7525C20.03 13.18 21.1025 11.7125 22.035 10.3525C23.0625 8.85252 22.7875 7.59502 23.5025 7.56002C24.2175 7.52502 24.7875 8.81502 24.0025 11.0675C22.8925 14.2525 20.61 14.72 20.565 15.5775C20.53 16.2575 22.995 16.305 25.22 15.22C28.4425 13.645 28.4425 9.95752 28.4425 9.95752C28.4425 9.95752 27.87 8.77502 26.76 7.95252C25.65 7.13002 24.825 6.70002 24.825 6.70002C24.825 6.70002 23.5 1.72502 17.4875 0.900022C11.475 0.0750216 9.00249 4.26752 9.00249 4.26752C9.00249 4.26752 9.21749 5.62752 10.255 7.20252C11.0825 8.46002 11.9375 8.42002 11.865 9.13502C11.8175 9.60002 10.325 9.74252 8.74999 9.06252C7.31499 8.44252 6.95999 7.59502 6.56749 7.59502C6.17499 7.59502 2.91999 9.40752 4.27749 13.25C5.35249 16.2925 8.90499 16.8625 9.53999 16.9725C11.4025 17.295 12.475 16.0775 11.15 15.11C9.82499 14.1425 8.35749 13.57 8.67999 12.605C9.02749 11.56 10.2675 12.65 11.7575 13.295C13.23 13.9325 15.0125 14.0175 16.5925 13.7525Z" fill="#8BC02B"/>
<path d="M9.75751 17.7425C9.75751 17.7425 10.5825 17.695 10.9225 17.5975C11.2625 17.5 11.7225 17.21 11.7225 17.21C11.7225 17.21 14.91 20.545 15.24 20.825C15.5625 21.0975 15.9425 16.9425 15.9425 16.9425C15.9425 16.9425 16.67 17.055 17.35 16.9475C18.245 16.805 18.855 16.52 18.855 16.52C18.855 16.52 18.42 19.0775 18.25 20.0475C18.1425 20.67 18.105 22.4 18.105 22.4L15.775 24.34L14.0025 23.15C14.0025 23.15 13.9975 22.6825 13.735 22.365C12.92 21.38 9.75751 17.7425 9.75751 17.7425ZM17.885 23.445L19.6575 21.31C19.6575 21.31 20.2875 21.3575 20.75 21.3575C21.21 21.3575 22.0125 21.26 22.0125 21.26C22.0125 21.26 20.5575 23.225 19.78 24.195C19.0025 25.165 17.985 26.38 17.985 26.38L17.015 23.565L17.885 23.445Z" fill="#6D4B41"/>
<path d="M16.625 21.745C15.9 21.81 14.005 23.1525 14.005 23.1525C14.005 23.1525 14.1025 25.4325 14.03 26.72C13.9575 28.0075 13.45 30.11 13.9175 30.6425C14.3225 31.1025 17.7275 31.19 18.235 30.655C18.745 30.12 18.25 27.91 18.25 26.4775C18.25 25.045 18.105 22.4 18.105 22.4C18.105 22.4 17.45 21.6725 16.625 21.745Z" fill="#865B50"/>
</svg>
