<svg width="32" height="32" viewBox="0 0 32 32" fill="none" xmlns="http://www.w3.org/2000/svg">
<path d="M4.8125 4.3725H27.9475V5.0075H4.8125V4.3725ZM4.8125 9.36H27.9475V9.995H4.8125V9.36ZM4.8125 14.2625H27.9475V14.8975H4.8125V14.2625ZM4.8125 19.095H27.9475V19.73H4.8125V19.095ZM4.8125 23.9275H27.9475V24.5625H4.8125V23.9275Z" fill="#AD7146"/>
<path d="M4.81248 28.7125H3.79498C3.51498 28.7125 3.28748 28.4825 3.28748 28.205V1.5075C3.28748 1.2275 3.51748 1 3.79498 1H4.81248C5.09248 1 5.31998 1.23 5.31998 1.5075V28.2025C5.32248 28.4825 5.09248 28.7125 4.81248 28.7125V28.7125ZM28.2025 28.7125H27.185C26.905 28.7125 26.6775 28.4825 26.6775 28.205V1.5075C26.6775 1.2275 26.9075 1 27.185 1H28.2025C28.4825 1 28.71 1.23 28.71 1.5075V28.2025C28.7125 28.4825 28.4825 28.7125 28.2025 28.7125V28.7125Z" fill="#D99B61"/>
<path d="M3.28748 27.0225V28.2025C3.28748 28.4825 3.51748 28.71 3.79498 28.71H4.81248C5.09248 28.71 5.31998 28.48 5.31998 28.2025V27.0225H3.28748ZM26.6775 27.0225V28.2025C26.6775 28.4825 26.9075 28.71 27.185 28.71H28.2025C28.4825 28.71 28.71 28.48 28.71 28.2025V27.0225H26.6775Z" fill="#BF7C4E"/>
<path d="M29.73 31H2.27001C1.99001 31 1.76251 30.77 1.76251 30.4925V28.4575C1.76251 28.1775 1.99251 27.95 2.27001 27.95H29.7275C30.0075 27.95 30.235 28.18 30.235 28.4575V30.4925C30.235 30.6267 30.1819 30.7554 30.0873 30.8505C29.9926 30.9456 29.8642 30.9994 29.73 31Z" fill="#D99B61"/>
<path d="M4.8125 4.3725H27.9475V5.0075H4.8125V4.3725ZM4.8125 9.36H27.9475V9.995H4.8125V9.36ZM4.8125 14.2625H27.9475V14.8975H4.8125V14.2625ZM4.8125 19.095H27.9475V19.73H4.8125V19.095ZM4.8125 23.9275H27.9475V24.5625H4.8125V23.9275Z" fill="#AD7146"/>
<path d="M4.81248 28.7125H3.79498C3.51498 28.7125 3.28748 28.4825 3.28748 28.205V1.5075C3.28748 1.2275 3.51748 1 3.79498 1H4.81248C5.09248 1 5.31998 1.23 5.31998 1.5075V28.2025C5.32248 28.4825 5.09248 28.7125 4.81248 28.7125V28.7125ZM28.2025 28.7125H27.185C26.905 28.7125 26.6775 28.4825 26.6775 28.205V1.5075C26.6775 1.2275 26.9075 1 27.185 1H28.2025C28.4825 1 28.71 1.23 28.71 1.5075V28.2025C28.7125 28.4825 28.4825 28.7125 28.2025 28.7125V28.7125Z" fill="#D99B61"/>
<path d="M3.28748 27.0225V28.2025C3.28748 28.4825 3.51748 28.71 3.79498 28.71H4.81248C5.09248 28.71 5.31998 28.48 5.31998 28.2025V27.0225H3.28748ZM26.6775 27.0225V28.2025C26.6775 28.4825 26.9075 28.71 27.185 28.71H28.2025C28.4825 28.71 28.71 28.48 28.71 28.2025V27.0225H26.6775Z" fill="#BF7C4E"/>
<path d="M29.73 31H2.27001C1.99001 31 1.76251 30.77 1.76251 30.4925V28.4575C1.76251 28.1775 1.99251 27.95 2.27001 27.95H29.7275C30.0075 27.95 30.235 28.18 30.235 28.4575V30.4925C30.235 30.6267 30.1819 30.7554 30.0873 30.8505C29.9926 30.9456 29.8642 30.9994 29.73 31Z" fill="#D99B61"/>
<path d="M6.21251 22.5925C5.72251 22.5925 5.32251 22.995 5.32251 23.4825V25.0075C5.32251 25.495 5.72251 25.8975 6.21251 25.8975C6.70251 25.8975 7.10251 25.495 7.10251 25.0075V23.4825C7.10251 22.9925 6.70001 22.5925 6.21251 22.5925ZM8.24501 22.5925C7.75501 22.5925 7.35501 22.995 7.35501 23.4825V25.0075C7.35501 25.495 7.75501 25.8975 8.24501 25.8975C8.73501 25.8975 9.13501 25.495 9.13501 25.0075V23.4825C9.13501 22.9925 8.73501 22.5925 8.24501 22.5925ZM10.28 22.5925C9.79001 22.5925 9.39001 22.995 9.39001 23.4825V25.0075C9.39001 25.495 9.79001 25.8975 10.28 25.8975C10.77 25.8975 11.17 25.495 11.17 25.0075V23.4825C11.17 22.9925 10.7675 22.5925 10.28 22.5925ZM12.8225 22.5925C12.3325 22.5925 11.9325 22.995 11.9325 23.4825V25.0075C11.9325 25.495 12.3325 25.8975 12.8225 25.8975C13.3125 25.8975 13.7125 25.495 13.7125 25.0075V23.4825C13.7125 22.9925 13.31 22.5925 12.8225 22.5925ZM14.855 22.5925C14.365 22.5925 13.965 22.995 13.965 23.4825V25.0075C13.965 25.495 14.365 25.8975 14.855 25.8975C15.345 25.8975 15.745 25.495 15.745 25.0075V23.4825C15.745 22.9925 15.345 22.5925 14.855 22.5925ZM16.89 22.5925C16.4 22.5925 16 22.995 16 23.4825V25.0075C16 25.495 16.4 25.8975 16.89 25.8975C17.38 25.8975 17.78 25.495 17.78 25.0075V23.4825C17.78 22.9925 17.3775 22.5925 16.89 22.5925ZM19.8125 22.5925C19.3225 22.5925 18.9225 22.995 18.9225 23.4825V25.0075C18.9225 25.495 19.3225 25.8975 19.8125 25.8975C20.3025 25.8975 20.7025 25.495 20.7025 25.0075V23.4825C20.7025 22.9925 20.3025 22.5925 19.8125 22.5925ZM21.72 22.5925C21.23 22.5925 20.83 22.995 20.83 23.4825V25.0075C20.83 25.495 21.23 25.8975 21.72 25.8975C22.21 25.8975 22.61 25.495 22.61 25.0075V23.4825C22.61 22.9925 22.2075 22.5925 21.72 22.5925ZM23.6275 22.5925C23.1375 22.5925 22.7375 22.995 22.7375 23.4825V25.0075C22.7375 25.495 23.1375 25.8975 23.6275 25.8975C24.1175 25.8975 24.5175 25.495 24.5175 25.0075V23.4825C24.5175 22.9925 24.115 22.5925 23.6275 22.5925ZM25.535 22.5925C25.045 22.5925 24.645 22.995 24.645 23.4825V25.0075C24.645 25.495 25.045 25.8975 25.535 25.8975C26.025 25.8975 26.425 25.495 26.425 25.0075V23.4825C26.4225 22.9925 26.0225 22.5925 25.535 22.5925Z" fill="#1976D2"/>
<path d="M6.21251 17.78C5.72251 17.78 5.32251 18.1825 5.32251 18.67V20.195C5.32251 20.6825 5.72251 21.085 6.21251 21.085C6.70251 21.085 7.10251 20.6825 7.10251 20.195V18.67C7.10251 18.18 6.70001 17.78 6.21251 17.78ZM8.24501 17.78C7.75501 17.78 7.35501 18.1825 7.35501 18.67V20.195C7.35501 20.6825 7.75501 21.085 8.24501 21.085C8.73501 21.085 9.13501 20.6825 9.13501 20.195V18.67C9.13501 18.18 8.73501 17.78 8.24501 17.78ZM10.28 17.78C9.79001 17.78 9.39001 18.1825 9.39001 18.67V20.195C9.39001 20.6825 9.79001 21.085 10.28 21.085C10.77 21.085 11.17 20.6825 11.17 20.195V18.67C11.17 18.18 10.7675 17.78 10.28 17.78ZM12.3125 17.78C11.8225 17.78 11.4225 18.1825 11.4225 18.67V20.195C11.4225 20.6825 11.8225 21.085 12.3125 21.085C12.8025 21.085 13.2025 20.6825 13.2025 20.195V18.67C13.2025 18.18 12.8025 17.78 12.3125 17.78ZM15.6175 17.78C15.1275 17.78 14.7275 18.1825 14.7275 18.67V20.195C14.7275 20.6825 15.1275 21.085 15.6175 21.085C16.1075 21.085 16.5075 20.6825 16.5075 20.195V18.67C16.5075 18.18 16.1075 17.78 15.6175 17.78ZM17.6025 17.78C17.1125 17.78 16.7125 18.1825 16.7125 18.67V20.195C16.7125 20.6825 17.1125 21.085 17.6025 21.085C18.0925 21.085 18.4925 20.6825 18.4925 20.195V18.67C18.4925 18.18 18.09 17.78 17.6025 17.78ZM19.585 17.78C19.095 17.78 18.695 18.1825 18.695 18.67V20.195C18.695 20.6825 19.095 21.085 19.585 21.085C20.075 21.085 20.475 20.6825 20.475 20.195V18.67C20.475 18.18 20.0725 17.78 19.585 17.78ZM21.5675 17.78C21.0775 17.78 20.6775 18.1825 20.6775 18.67V20.195C20.6775 20.6825 21.0775 21.085 21.5675 21.085C22.0575 21.085 22.4575 20.6825 22.4575 20.195V18.67C22.4575 18.18 22.055 17.78 21.5675 17.78ZM23.55 17.78C23.06 17.78 22.66 18.1825 22.66 18.67V20.195C22.66 20.6825 23.06 21.085 23.55 21.085C24.04 21.085 24.44 20.6825 24.44 20.195V18.67C24.44 18.18 24.04 17.78 23.55 17.78ZM25.535 17.78C25.045 17.78 24.645 18.1825 24.645 18.67V20.195C24.645 20.6825 25.045 21.085 25.535 21.085C26.025 21.085 26.425 20.6825 26.425 20.195V18.67C26.4225 18.18 26.0225 17.78 25.535 17.78Z" fill="#689F38"/>
<path d="M6.21251 12.93C5.72251 12.93 5.32251 13.3325 5.32251 13.82V15.345C5.32251 15.8325 5.72251 16.235 6.21251 16.235C6.70251 16.235 7.10251 15.8325 7.10251 15.345V13.82C7.10251 13.3275 6.70001 12.93 6.21251 12.93ZM8.24501 12.93C7.75501 12.93 7.35501 13.3325 7.35501 13.82V15.345C7.35501 15.8325 7.75501 16.235 8.24501 16.235C8.73501 16.235 9.13501 15.8325 9.13501 15.345V13.82C9.13501 13.3275 8.73501 12.93 8.24501 12.93ZM10.28 12.93C9.79001 12.93 9.39001 13.3325 9.39001 13.82V15.345C9.39001 15.8325 9.79001 16.235 10.28 16.235C10.77 16.235 11.17 15.8325 11.17 15.345V13.82C11.17 13.3275 10.7675 12.93 10.28 12.93ZM12.3125 12.93C11.8225 12.93 11.4225 13.3325 11.4225 13.82V15.345C11.4225 15.8325 11.8225 16.235 12.3125 16.235C12.8025 16.235 13.2025 15.8325 13.2025 15.345V13.82C13.2025 13.3275 12.8025 12.93 12.3125 12.93ZM14.3475 12.93C13.8575 12.93 13.4575 13.3325 13.4575 13.82V15.345C13.4575 15.8325 13.8575 16.235 14.3475 16.235C14.8375 16.235 15.2375 15.8325 15.2375 15.345V13.82C15.2375 13.3275 14.835 12.93 14.3475 12.93ZM16.3825 12.93C15.8925 12.93 15.4925 13.3325 15.4925 13.82V15.345C15.4925 15.8325 15.8925 16.235 16.3825 16.235C16.8725 16.235 17.2725 15.8325 17.2725 15.345V13.82C17.2725 13.3275 16.87 12.93 16.3825 12.93ZM18.415 12.93C17.925 12.93 17.525 13.3325 17.525 13.82V15.345C17.525 15.8325 17.925 16.235 18.415 16.235C18.905 16.235 19.305 15.8325 19.305 15.345V13.82C19.305 13.3275 18.9025 12.93 18.415 12.93ZM20.45 12.93C19.96 12.93 19.56 13.3325 19.56 13.82V15.345C19.56 15.8325 19.96 16.235 20.45 16.235C20.94 16.235 21.34 15.8325 21.34 15.345V13.82C21.34 13.3275 20.9375 12.93 20.45 12.93ZM22.4825 12.93C21.9925 12.93 21.5925 13.3325 21.5925 13.82V15.345C21.5925 15.8325 21.9925 16.235 22.4825 16.235C22.9725 16.235 23.3725 15.8325 23.3725 15.345V13.82C23.3725 13.3275 22.9725 12.93 22.4825 12.93ZM25.535 12.93C25.045 12.93 24.645 13.3325 24.645 13.82V15.345C24.645 15.8325 25.045 16.235 25.535 16.235C26.025 16.235 26.425 15.8325 26.425 15.345V13.82C26.4225 13.3275 26.0225 12.93 25.535 12.93Z" fill="#FFCA28"/>
<path d="M6.21251 8.02502C5.72251 8.02502 5.32251 8.42752 5.32251 8.91502V10.44C5.32251 10.9275 5.72251 11.33 6.21251 11.33C6.70251 11.33 7.10251 10.9275 7.10251 10.44V8.91502C7.10251 8.42252 6.70001 8.02502 6.21251 8.02502ZM8.22501 8.02502C7.73501 8.02502 7.33501 8.42752 7.33501 8.91502V10.44C7.33501 10.9275 7.73501 11.33 8.22501 11.33C8.71501 11.33 9.11501 10.9275 9.11501 10.44V8.91502C9.11501 8.42252 8.71251 8.02502 8.22501 8.02502ZM10.7675 8.02502C10.2775 8.02502 9.87751 8.42752 9.87751 8.91502V10.44C9.87751 10.9275 10.2775 11.33 10.7675 11.33C11.2575 11.33 11.6575 10.9275 11.6575 10.44V8.91502C11.6575 8.42252 11.255 8.02502 10.7675 8.02502ZM14.0925 8.02502C13.6025 8.02502 13.2025 8.42752 13.2025 8.91502V10.44C13.2025 10.9275 13.6025 11.33 14.0925 11.33C14.5825 11.33 14.9825 10.9275 14.9825 10.44V8.91502C14.9825 8.42252 14.5825 8.02502 14.0925 8.02502ZM16.0425 8.02502C15.5525 8.02502 15.1525 8.42752 15.1525 8.91502V10.44C15.1525 10.9275 15.5525 11.33 16.0425 11.33C16.5325 11.33 16.9325 10.9275 16.9325 10.44V8.91502C16.9325 8.42252 16.53 8.02502 16.0425 8.02502ZM17.9925 8.02502C17.5025 8.02502 17.1025 8.42752 17.1025 8.91502V10.44C17.1025 10.9275 17.5025 11.33 17.9925 11.33C18.4825 11.33 18.8825 10.9275 18.8825 10.44V8.91502C18.8825 8.42252 18.48 8.02502 17.9925 8.02502ZM19.94 8.02502C19.45 8.02502 19.05 8.42752 19.05 8.91502V10.44C19.05 10.9275 19.45 11.33 19.94 11.33C20.43 11.33 20.83 10.9275 20.83 10.44V8.91502C20.83 8.42252 20.43 8.02502 19.94 8.02502ZM21.89 8.02502C21.4 8.02502 21 8.42752 21 8.91502V10.44C21 10.9275 21.4 11.33 21.89 11.33C22.38 11.33 22.78 10.9275 22.78 10.44V8.91502C22.78 8.42252 22.3775 8.02502 21.89 8.02502ZM23.84 8.02502C23.35 8.02502 22.95 8.42752 22.95 8.91502V10.44C22.95 10.9275 23.35 11.33 23.84 11.33C24.33 11.33 24.73 10.9275 24.73 10.44V8.91502C24.73 8.42252 24.3275 8.02502 23.84 8.02502ZM25.7875 8.02502C25.2975 8.02502 24.8975 8.42752 24.8975 8.91502V10.44C24.8975 10.9275 25.2975 11.33 25.7875 11.33C26.2775 11.33 26.6775 10.9275 26.6775 10.44V8.91502C26.6775 8.42252 26.2775 8.02502 25.7875 8.02502Z" fill="#F57C00"/>
<path d="M6.21251 3.03998C5.72251 3.03998 5.32251 3.44248 5.32251 3.92998V5.45498C5.32251 5.94248 5.72251 6.34498 6.21251 6.34498C6.70251 6.34498 7.10251 5.94248 7.10251 5.45498V3.92998C7.10251 3.43748 6.70001 3.03998 6.21251 3.03998ZM8.12001 3.03998C7.63001 3.03998 7.23001 3.44248 7.23001 3.92998V5.45498C7.23001 5.94248 7.63001 6.34498 8.12001 6.34498C8.61001 6.34498 9.01001 5.94248 9.01001 5.45498V3.92998C9.00751 3.43748 8.60751 3.03998 8.12001 3.03998ZM10.025 3.03998C9.53501 3.03998 9.13501 3.44248 9.13501 3.92998V5.45498C9.13501 5.94248 9.53501 6.34498 10.025 6.34498C10.515 6.34498 10.915 5.94248 10.915 5.45498V3.92998C10.915 3.43748 10.5125 3.03998 10.025 3.03998ZM11.9325 3.03998C11.4425 3.03998 11.0425 3.44248 11.0425 3.92998V5.45498C11.0425 5.94248 11.4425 6.34498 11.9325 6.34498C12.4225 6.34498 12.8225 5.94248 12.8225 5.45498V3.92998C12.8225 3.43748 12.42 3.03998 11.9325 3.03998ZM13.84 3.03998C13.35 3.03998 12.95 3.44248 12.95 3.92998V5.45498C12.95 5.94248 13.35 6.34498 13.84 6.34498C14.33 6.34498 14.73 5.94248 14.73 5.45498V3.92998C14.73 3.43748 14.3275 3.03998 13.84 3.03998ZM16.3825 3.03998C15.8925 3.03998 15.4925 3.44248 15.4925 3.92998V5.45498C15.4925 5.94248 15.8925 6.34498 16.3825 6.34498C16.8725 6.34498 17.2725 5.94248 17.2725 5.45498V3.92998C17.2725 3.43748 16.87 3.03998 16.3825 3.03998ZM18.415 3.03998C17.925 3.03998 17.525 3.44248 17.525 3.92998V5.45498C17.525 5.94248 17.925 6.34498 18.415 6.34498C18.905 6.34498 19.305 5.94248 19.305 5.45498V3.92998C19.305 3.43748 18.9025 3.03998 18.415 3.03998ZM21.72 3.03998C21.23 3.03998 20.83 3.44248 20.83 3.92998V5.45498C20.83 5.94248 21.23 6.34498 21.72 6.34498C22.21 6.34498 22.61 5.94248 22.61 5.45498V3.92998C22.61 3.43748 22.2075 3.03998 21.72 3.03998ZM23.755 3.03998C23.265 3.03998 22.865 3.44248 22.865 3.92998V5.45498C22.865 5.94248 23.265 6.34498 23.755 6.34498C24.245 6.34498 24.645 5.94248 24.645 5.45498V3.92998C24.645 3.43748 24.2425 3.03998 23.755 3.03998ZM25.7875 3.03998C25.2975 3.03998 24.8975 3.44248 24.8975 3.92998V5.45498C24.8975 5.94248 25.2975 6.34498 25.7875 6.34498C26.2775 6.34498 26.6775 5.94248 26.6775 5.45498V3.92998C26.6775 3.43748 26.2775 3.03998 25.7875 3.03998Z" fill="#D82521"/>
<path d="M5.61997 23.425C5.60997 23.6 5.52747 24.38 6.19997 24.38C6.87247 24.38 6.74747 23.625 6.74247 23.4375C6.73747 23.2925 6.72747 23.145 6.64997 23.0175C6.57247 22.89 6.30997 22.7075 5.99747 22.815C5.68247 22.9225 5.62747 23.3 5.61997 23.425ZM7.66247 23.54C7.65247 23.715 7.69997 24.3725 8.25247 24.31C8.91747 24.235 8.87247 23.6275 8.86747 23.4375C8.86247 23.2925 8.83247 23.0975 8.70247 22.945C8.60247 22.83 8.31747 22.675 8.00497 22.8325C7.70997 22.9825 7.66997 23.415 7.66247 23.54ZM9.66497 23.51C9.65497 23.685 9.70247 24.2175 10.255 24.28C10.8725 24.35 10.905 23.7075 10.87 23.4075C10.8525 23.265 10.7075 22.725 10.1875 22.7875C9.66497 22.85 9.67247 23.385 9.66497 23.51ZM16.3275 23.425C16.3175 23.6 16.235 24.38 16.9075 24.38C17.58 24.38 17.455 23.625 17.45 23.4375C17.445 23.2925 17.435 23.145 17.3575 23.0175C17.28 22.89 17.0175 22.7075 16.705 22.815C16.3875 22.9225 16.335 23.3 16.3275 23.425ZM21.1575 23.425C21.1475 23.6 21.065 24.38 21.7375 24.38C22.41 24.38 22.285 23.625 22.28 23.4375C22.275 23.2925 22.265 23.145 22.1875 23.0175C22.11 22.89 21.8475 22.7075 21.535 22.815C21.2175 22.9225 21.165 23.3 21.1575 23.425ZM14.2725 23.54C14.2625 23.715 14.31 24.2475 14.8625 24.31C15.4925 24.38 15.4825 23.6275 15.4775 23.4375C15.4725 23.2925 15.4425 23.0975 15.3125 22.945C15.2125 22.83 14.9275 22.675 14.615 22.8325C14.32 22.9825 14.28 23.415 14.2725 23.54ZM19.2125 23.54C19.2025 23.715 19.25 24.2475 19.8025 24.31C20.4325 24.38 20.4225 23.6275 20.4175 23.4375C20.4125 23.2925 20.3825 23.0975 20.2525 22.945C20.1525 22.83 19.8675 22.675 19.555 22.8325C19.26 22.9825 19.22 23.415 19.2125 23.54Z" fill="#2196F3"/>
<path d="M11.7125 18.6875C11.7025 18.8475 11.75 19.34 12.3025 19.395C12.9325 19.46 12.9225 18.7675 12.9175 18.5925C12.9125 18.46 12.8825 18.28 12.7525 18.14C12.6525 18.0325 12.3675 17.8925 12.055 18.0375C11.76 18.175 11.72 18.575 11.7125 18.6875Z" fill="#8BC34A"/>
<path d="M12.215 23.51C12.205 23.685 12.2525 24.2175 12.805 24.28C13.4225 24.35 13.455 23.7075 13.42 23.4075C13.4025 23.265 13.2575 22.725 12.7375 22.7875C12.2175 22.85 12.2225 23.385 12.215 23.51Z" fill="#2196F3"/>
<path d="M9.71498 18.5825C9.66498 18.8275 9.69498 19.4725 10.295 19.48C10.9625 19.4875 10.8625 18.77 10.8375 18.595C10.7625 18.0625 10.405 17.91 10.09 18.0125C9.77498 18.11 9.73748 18.4675 9.71498 18.5825Z" fill="#8BC34A"/>
<path d="M9.71748 13.735C9.66748 13.98 9.69748 14.625 10.2975 14.6325C10.965 14.64 10.865 13.9225 10.84 13.7475C10.765 13.215 10.4075 13.0625 10.0925 13.165C9.77748 13.2625 9.73998 13.62 9.71748 13.735ZM11.75 13.735C11.7 13.98 11.73 14.625 12.33 14.6325C12.9975 14.64 12.89 13.9225 12.8725 13.7475C12.8325 13.3175 12.64 13.14 12.3125 13.135C11.8225 13.1275 11.775 13.62 11.75 13.735Z" fill="#FFEB3B"/>
<path d="M7.65998 18.7475C7.64998 18.9225 7.69248 19.5125 8.24998 19.515C8.86998 19.52 8.86998 18.835 8.86498 18.645C8.85998 18.5025 8.82998 18.3075 8.69998 18.155C8.59998 18.04 8.31498 17.885 8.00248 18.045C7.70748 18.1925 7.66748 18.625 7.65998 18.7475ZM5.60248 18.71C5.59248 18.885 5.63998 19.4175 6.19248 19.48C6.80998 19.55 6.84248 18.9075 6.80748 18.6075C6.78998 18.465 6.64498 17.925 6.12498 17.9875C5.60248 18.05 5.60998 18.585 5.60248 18.71Z" fill="#8BC34A"/>
<path d="M11.33 3.98499C11.32 4.14499 11.3675 4.63749 11.92 4.69249C12.55 4.75749 12.54 4.06499 12.535 3.88999C12.53 3.75749 12.5 3.57749 12.37 3.43749C12.27 3.32999 11.985 3.18999 11.6725 3.33499C11.3775 3.47249 11.3375 3.86999 11.33 3.98499ZM15.78 3.98499C15.77 4.14499 15.8175 4.63749 16.37 4.69249C17 4.75749 16.99 4.06499 16.985 3.88999C16.98 3.75749 16.95 3.57749 16.82 3.43749C16.72 3.32999 16.435 3.18999 16.1225 3.33499C15.8275 3.47249 15.7875 3.86999 15.78 3.98499ZM19.1225 3.98499C19.1325 4.14499 19.085 4.63749 18.51 4.69249C17.855 4.75749 17.865 4.06499 17.87 3.88999C17.875 3.75749 17.9075 3.57749 18.0425 3.43749C18.145 3.32999 18.4425 3.18999 18.7675 3.33499C19.0725 3.47249 19.115 3.86999 19.1225 3.98499ZM9.41248 3.87499C9.36248 4.11999 9.39248 4.76499 9.99248 4.77249C10.66 4.77999 10.56 4.06249 10.535 3.88749C10.46 3.35499 10.1025 3.20249 9.78748 3.30499C9.47248 3.40499 9.43498 3.76249 9.41248 3.87499ZM7.50498 4.04249C7.49498 4.21749 7.53748 4.80749 8.09498 4.80999C8.71498 4.81499 8.71498 4.12999 8.70998 3.93999C8.70498 3.79749 8.67498 3.60249 8.54498 3.44999C8.44498 3.33499 8.15998 3.17999 7.84748 3.33999C7.55248 3.48749 7.51248 3.91999 7.50498 4.04249ZM23.2125 3.81749C23.1325 4.05499 23.0825 4.69999 23.6775 4.76999C24.34 4.84749 24.3275 4.12499 24.325 3.94749C24.315 3.40999 23.9775 3.22249 23.655 3.28999C23.3325 3.35499 23.25 3.70499 23.2125 3.81749ZM21.085 4.04249C21.075 4.21749 21.1175 4.80749 21.675 4.80999C22.295 4.81499 22.295 4.12999 22.29 3.93999C22.285 3.79749 22.255 3.60249 22.125 3.44999C22.025 3.33499 21.74 3.17999 21.4275 3.33999C21.135 3.48749 21.0925 3.91999 21.085 4.04249ZM25.245 4.08249C25.2475 4.25749 25.335 4.84249 25.89 4.81249C26.5075 4.77749 26.4575 4.09249 26.4375 3.90749C26.4225 3.76499 26.3775 3.57249 26.235 3.42999C26.1275 3.31999 25.8325 3.18499 25.53 3.36249C25.2525 3.52499 25.245 3.95749 25.245 4.08249ZM13.3175 4.11249C13.33 4.28749 13.4525 4.86749 14.005 4.80749C14.62 4.74249 14.53 4.05999 14.5 3.87499C14.4775 3.73249 14.42 3.54249 14.27 3.40749C14.1575 3.30499 13.8525 3.18499 13.5625 3.37749C13.29 3.55499 13.3075 3.98749 13.3175 4.11249ZM5.60248 4.00249C5.59248 4.17749 5.63998 4.70999 6.19248 4.77249C6.80998 4.84249 6.84248 4.19999 6.80748 3.89999C6.78998 3.75749 6.64498 3.21749 6.12498 3.27999C5.60248 3.34249 5.60998 3.87749 5.60248 4.00249Z" fill="#F44336"/>
<path d="M7.6025 13.865C7.5925 14.04 7.635 14.63 8.1925 14.6325C8.8125 14.6375 8.8125 13.9525 8.8075 13.7625C8.8025 13.62 8.7725 13.425 8.6425 13.2725C8.5425 13.1575 8.2575 13.0025 7.945 13.1625C7.6525 13.31 7.61 13.74 7.6025 13.865ZM19.895 13.735C19.845 13.98 19.875 14.625 20.475 14.6325C21.1425 14.64 21.0425 13.9225 21.0175 13.7475C20.9425 13.215 20.585 13.0625 20.27 13.165C19.955 13.2625 19.9175 13.62 19.895 13.735ZM17.78 13.865C17.77 14.04 17.8125 14.63 18.37 14.6325C18.99 14.6375 18.99 13.9525 18.985 13.7625C18.98 13.62 18.95 13.425 18.82 13.2725C18.72 13.1575 18.435 13.0025 18.1225 13.1625C17.83 13.31 17.7875 13.74 17.78 13.865ZM21.8825 13.865C21.8725 14.04 21.915 14.63 22.4725 14.6325C23.0925 14.6375 23.0925 13.9525 23.0875 13.7625C23.0825 13.62 23.0525 13.425 22.9225 13.2725C22.8225 13.1575 22.5375 13.0025 22.225 13.1625C21.93 13.31 21.89 13.74 21.8825 13.865ZM13.7475 13.9125C13.755 14.0875 13.8525 14.6275 14.4075 14.63C14.9825 14.6325 14.96 13.9 14.9375 13.715C14.92 13.5725 14.87 13.38 14.725 13.24C14.615 13.1325 14.3175 13.0025 14.02 13.1875C13.7425 13.3575 13.745 13.79 13.7475 13.9125ZM5.6175 13.8575C5.6075 14.0325 5.655 14.565 6.2075 14.6275C6.825 14.6975 6.8575 14.055 6.8225 13.755C6.805 13.6125 6.66 13.0725 6.14 13.135C5.62 13.1975 5.625 13.7325 5.6175 13.8575ZM15.775 13.8575C15.765 14.0325 15.8075 14.625 16.365 14.6275C17 14.63 17.015 14.055 16.98 13.755C16.9625 13.6125 16.8175 13.0725 16.2975 13.135C15.775 13.1975 15.7825 13.7325 15.775 13.8575ZM24.9275 13.8575C24.9175 14.0325 24.96 14.625 25.5175 14.6275C26.1525 14.63 26.1675 14.055 26.1325 13.755C26.115 13.6125 25.97 13.0725 25.45 13.135C24.925 13.1975 24.935 13.7325 24.9275 13.8575Z" fill="#FFEB3B"/>
<path d="M15.48 8.7625C15.43 9.0075 15.46 9.6525 16.06 9.66C16.7275 9.6675 16.6275 8.95 16.6025 8.775C16.5275 8.2425 16.17 8.09 15.855 8.1925C15.54 8.29 15.5025 8.6475 15.48 8.7625ZM19.34 8.93C19.33 9.105 19.3725 9.695 19.93 9.6975C20.55 9.7025 20.55 9.0175 20.545 8.8275C20.54 8.685 20.51 8.49 20.38 8.3375C20.28 8.2225 19.995 8.0675 19.6825 8.2275C19.3875 8.375 19.3475 8.805 19.34 8.93ZM23.23 8.93C23.22 9.105 23.2625 9.695 23.82 9.6975C24.44 9.7025 24.44 9.0175 24.435 8.8275C24.43 8.685 24.4 8.49 24.27 8.3375C24.17 8.2225 23.885 8.0675 23.5725 8.2275C23.2775 8.375 23.2375 8.805 23.23 8.93ZM21.2775 8.93C21.2675 9.105 21.31 9.695 21.8675 9.6975C22.4875 9.7025 22.4875 9.0175 22.4825 8.8275C22.4775 8.685 22.4475 8.49 22.3175 8.3375C22.2175 8.2225 21.9325 8.0675 21.62 8.2275C21.3275 8.375 21.285 8.805 21.2775 8.93ZM13.4875 8.8875C13.4775 9.0625 13.52 9.655 14.0775 9.6575C14.7125 9.66 14.7275 9.085 14.6925 8.785C14.675 8.6425 14.53 8.1025 14.01 8.165C13.49 8.2275 13.495 8.7625 13.4875 8.8875ZM10.16 8.9075C10.15 9.0825 10.1925 9.675 10.75 9.6775C11.385 9.68 11.4 9.105 11.365 8.805C11.3475 8.6625 11.2025 8.1225 10.6825 8.185C10.16 8.2475 10.1675 8.7825 10.16 8.9075ZM17.385 8.8875C17.375 9.0625 17.4175 9.655 17.975 9.6575C18.61 9.66 18.625 9.085 18.59 8.785C18.5725 8.6425 18.4275 8.1025 17.9075 8.165C17.3875 8.2275 17.3925 8.7625 17.385 8.8875ZM25.1825 8.8875C25.1725 9.0625 25.215 9.655 25.7725 9.6575C26.4075 9.66 26.4225 9.085 26.3875 8.785C26.37 8.6425 26.225 8.1025 25.705 8.165C25.185 8.2275 25.1875 8.7625 25.1825 8.8875ZM5.60749 8.93C5.59749 9.105 5.63999 9.695 6.19749 9.6975C6.81749 9.7025 6.81749 9.0175 6.81249 8.8275C6.80749 8.685 6.77749 8.49 6.64749 8.3375C6.54749 8.2225 6.26249 8.0675 5.94999 8.2275C5.65499 8.375 5.61499 8.805 5.60749 8.93ZM7.62999 8.8025C7.58999 8.975 7.53749 9.5675 8.08749 9.645C8.71499 9.735 8.82499 9.17 8.83749 8.8675C8.84249 8.7225 8.78999 8.17 8.26249 8.16C7.73499 8.15 7.65749 8.68 7.62999 8.8025Z" fill="#FF9800"/>
<path d="M17 18.6875C16.99 18.8475 17.0375 19.34 17.59 19.395C18.22 19.46 18.21 18.7675 18.205 18.5925C18.2 18.46 18.17 18.28 18.04 18.14C17.94 18.0325 17.655 17.8925 17.3425 18.0375C17.0475 18.175 17.0075 18.575 17 18.6875ZM20.965 18.6875C20.955 18.8475 21.0025 19.34 21.555 19.395C22.185 19.46 22.175 18.7675 22.17 18.5925C22.165 18.46 22.135 18.28 22.005 18.14C21.905 18.0325 21.62 17.8925 21.3075 18.0375C21.015 18.175 20.9725 18.575 20.965 18.6875ZM19.0225 18.5425C18.9725 18.7875 19.0025 19.4325 19.6025 19.44C20.27 19.4475 20.17 18.73 20.145 18.555C20.07 18.0225 19.7125 17.87 19.3975 17.9725C19.0825 18.075 19.045 18.4275 19.0225 18.5425ZM22.95 18.7475C22.94 18.9225 22.9825 19.5125 23.54 19.515C24.16 19.52 24.16 18.835 24.155 18.645C24.15 18.5025 24.12 18.3075 23.99 18.155C23.89 18.04 23.605 17.885 23.2925 18.045C22.9975 18.1925 22.9575 18.625 22.95 18.7475ZM15.04 18.71C15.03 18.885 15.0775 19.4175 15.63 19.48C16.2475 19.55 16.28 18.9075 16.245 18.6075C16.2275 18.465 16.0825 17.925 15.5625 17.9875C15.0375 18.05 15.0475 18.585 15.04 18.71ZM24.9275 18.71C24.9175 18.885 24.965 19.4175 25.5175 19.48C26.135 19.55 26.1675 18.9075 26.1325 18.6075C26.115 18.465 25.97 17.925 25.45 17.9875C24.9275 18.05 24.935 18.585 24.9275 18.71Z" fill="#8BC34A"/>
<path d="M23.02 23.51C23.01 23.685 23.02 24.4425 23.6275 24.38C24.245 24.3175 24.26 23.7075 24.225 23.4075C24.2075 23.265 24.0625 22.725 23.5425 22.7875C23.0225 22.85 23.0275 23.385 23.02 23.51ZM24.9275 23.515C24.9175 23.69 24.965 24.2225 25.5175 24.285C26.135 24.355 26.1675 23.7125 26.1325 23.4125C26.115 23.27 25.97 22.73 25.45 22.7925C24.9275 22.8575 24.935 23.3925 24.9275 23.515Z" fill="#2196F3"/>
</svg>
