<svg width="32" height="32" viewBox="0 0 32 32" fill="none" xmlns="http://www.w3.org/2000/svg">
<path d="M15.9525 9.77999C15.3775 11.81 16.4875 13.4825 19.9175 14.8725C21.58 15.545 23.6125 16.3075 24.525 17.9375C25.2625 19.26 24.2825 21.77 20.905 21.2425C17.425 20.7 14.1875 16.54 9.43749 14.64C5.11498 12.9125 1.42499 13.815 1.45499 16.77C1.47749 19.005 3.27498 19.6175 4.21998 19.5175C4.85498 19.45 5.47749 19.125 6.68249 18.97C8.18499 18.7775 12.3275 21.715 15.06 23.4575C18.3675 25.57 24.79 26.5475 27.2725 22.8975C29.525 19.585 28.6975 16.3475 25.865 14.2C23.2975 12.255 19.5875 11.75 19.9175 10.625C20.3225 9.23749 24.295 10.5025 27.1325 10.3625C30.0175 10.2225 30.58 9.16749 30.5825 8.67249C30.585 7.94999 29.1225 8.70749 27.115 8.44249C23.5875 7.97749 21.7475 6.87749 18.7675 7.29499C17.52 7.47749 16.355 8.35749 15.9525 9.77999Z" fill="#EC7FAC"/>
<path d="M25.405 9.02752C25.3775 9.44752 25.3925 9.91002 25.425 10.32C26.0125 10.3675 26.5925 10.3925 27.1325 10.365C27.3575 10.355 27.5625 10.335 27.76 10.315C27.7275 10.03 27.6975 9.70002 27.695 9.46252C27.6925 9.12752 27.71 8.77252 27.7275 8.49752C27.53 8.49002 27.325 8.47502 27.115 8.44752C26.5703 8.37463 26.0283 8.28291 25.49 8.17252C25.4575 8.41502 25.4275 8.70252 25.405 9.02752ZM17.945 8.33752C19.695 8.54752 20.22 9.51002 20.26 10.205C20.6375 9.98752 21.3575 9.95252 21.995 9.98502C21.915 9.61752 21.8375 9.17502 21.8075 8.74752C21.785 8.43502 21.79 7.79752 21.7975 7.36002C20.85 7.20252 19.89 7.14502 18.7675 7.30252C18.0275 7.40752 17.165 7.75252 16.535 8.60752C16.865 8.42252 17.435 8.27502 17.945 8.33752ZM26.51 16.455C27.2975 16.455 27.79 16.67 28.0925 16.8975C27.6425 15.89 26.885 14.975 25.865 14.2025C25.5975 14 25.315 13.8125 25.03 13.6375C24.685 13.7125 24.14 13.905 23.7075 14.4125C23.2325 14.9675 23.15 15.94 23.14 16.4525C23.6875 16.845 24.1625 17.31 24.495 17.8875C24.69 17.445 25.2625 16.455 26.51 16.455Z" fill="#FEA8A7"/>
<path d="M18.9375 14.435C18.86 13.965 18.82 13.1275 19.2825 12.315C19.5925 11.7675 20.12 11.5525 20.465 11.4675C20.045 11.2075 19.825 10.9425 19.915 10.63C19.93 10.58 19.8925 10.6725 19.915 10.63C19.71 10.0525 19.28 9.22254 17.8675 9.02504C16.9975 8.90254 16.32 9.31254 15.935 9.83754C15.455 11.6325 16.31 13.1475 18.9375 14.435ZM23.025 14.1575C23.4675 13.5875 23.9675 13.345 24.315 13.24C23.155 12.6325 21.97 12.205 21.1175 11.81C20.765 11.9 20.215 12.1325 19.88 12.735C19.46 13.49 19.5575 14.3475 19.6425 14.7575C19.7325 14.795 19.82 14.835 19.915 14.875C20.7425 15.21 21.66 15.5675 22.4875 16.0425C22.5075 15.5825 22.6 14.705 23.025 14.1575ZM24.7625 9.18254C24.78 8.81254 24.835 8.40004 24.89 8.04754C23.9925 7.84754 23.19 7.63754 22.405 7.47504C22.39 7.86254 22.3875 8.39004 22.4375 8.87004C22.4775 9.24754 22.585 9.68254 22.6875 10.035C23.34 10.095 24.0525 10.1875 24.7725 10.26C24.7525 9.93004 24.7425 9.55754 24.7625 9.18254ZM28.3125 8.50254C28.31 8.80504 28.31 9.18754 28.3175 9.45254C28.3225 9.67754 28.3475 9.97004 28.3725 10.2275C30.185 9.89254 30.5825 9.09004 30.5825 8.67754C30.5825 8.11004 29.675 8.45504 28.3125 8.50254ZM26.5725 17.1C25.61 17.1975 25.0025 18.065 24.7325 18.5825C24.8 19.075 24.6925 19.6225 24.385 20.0975C24.7425 20.145 25.5075 20.3075 26.0875 20.865C26.8725 21.62 27.01 22.6225 27.0075 23.25C27.1 23.1375 27.1875 23.02 27.2725 22.8975C28.4625 21.1475 28.7925 19.4175 28.42 17.8575C28.0725 17.49 27.4475 17.0125 26.5725 17.1ZM25.5 21.525C25.08 21.015 24.2625 20.775 23.855 20.6825C23.4075 21.035 22.7875 21.2775 21.975 21.31C22.1275 21.5975 22.3425 22.1775 22.3425 23.1675C22.3425 24.15 22.0325 24.93 21.8225 25.3425C23.4425 25.3275 24.99 24.9525 26.1625 24.0625C26.185 23.5 26.1375 22.3 25.5 21.525ZM10.0375 17.43C10.295 16.7275 10.32 15.5875 10.315 15.025C10.0275 14.89 9.735 14.76 9.435 14.64C5.115 12.91 1.1725 13.87 1.205 16.825C1.2275 19.06 3.275 19.6175 4.22 19.5175C4.855 19.45 5.4775 19.125 6.6825 18.97C7.1175 18.915 7.7775 19.1225 8.5575 19.4875C8.9425 19.17 9.6575 18.4675 10.0375 17.43ZM21.4525 23.2025C21.405 22.3125 21.23 21.6125 21.1075 21.27C21.04 21.2625 20.97 21.255 20.9 21.2425C17.89 20.7725 15.06 17.595 11.275 15.5175C11.3275 15.9875 11.285 16.8675 10.705 18.275C10.435 18.9275 9.785 19.6325 9.4675 19.9525C11.2525 20.925 13.41 22.4075 15.0575 23.46C16.555 24.415 18.69 25.1375 20.8075 25.305C21.05 24.895 21.4975 24.0075 21.4525 23.2025Z" fill="#FEA8A7"/>
<path d="M5.22286 16.4855C5.25906 16.1575 5.0481 15.865 4.75166 15.8323C4.45523 15.7996 4.18558 16.039 4.14938 16.367C4.11318 16.695 4.32414 16.9874 4.62057 17.0201C4.91701 17.0528 5.18666 16.8135 5.22286 16.4855Z" fill="black"/>
<path d="M2.52941 17.0193C2.82619 16.9899 3.0404 16.6999 3.00786 16.3715C2.97532 16.0431 2.70836 15.8008 2.41157 15.8302C2.11479 15.8596 1.90058 16.1496 1.93312 16.478C1.96566 16.8064 2.23263 17.0488 2.52941 17.0193Z" fill="black"/>
<path d="M3.61751 17.7275C4.05251 17.7275 4.29501 17.39 4.52501 17.65C4.81001 17.975 4.16251 18.3575 3.61001 18.3575C2.95251 18.3575 2.45501 17.885 2.75251 17.6175C2.98751 17.4075 3.12501 17.7275 3.61751 17.7275Z" fill="black"/>
<path d="M12.7375 19.0025C11.985 20.165 11.1 20.5175 11.095 21.045C11.09 21.4675 11.7675 21.925 13.7825 23.155C15.9275 24.465 16.5425 24.5275 16.93 24.315C17.1925 24.1725 17.8 23.7925 18.38 22.85C19.025 21.805 19.26 20.6725 18.555 20.1625C18.115 19.845 17.7425 19.585 16.5725 18.7775C15.025 17.7075 14.12 16.905 13.745 16.9125C13.31 16.9225 13.4325 17.93 12.7375 19.0025Z" fill="#EC7FAC"/>
</svg>
