<svg width="32" height="32" viewBox="0 0 32 32" fill="none" xmlns="http://www.w3.org/2000/svg">
<path d="M8.82251 23.6L6.53001 22.4L5.58501 20.1775L3.81751 18.475C3.81751 18.475 3.64751 18.0975 3.58251 17.8025C3.52751 17.5475 3.52751 16.99 3.52751 16.99L1.91751 15.1175L1.36001 13.79L1.07251 12.3775C1.07251 12.3775 1.86001 12.845 2.41751 13.25C2.97501 13.655 3.67501 14.0425 3.67501 14.0425L3.90001 12.1725L4.45751 9.96L5.44001 9.46C5.44001 9.46 5.53501 8.805 6.13251 8.2275C6.73001 7.65 7.51751 7.40001 7.51751 7.40001L10.7325 7.2075L13.485 6.995L16.18 5.2625C16.18 5.2625 17.3725 5.1075 18.625 5.4175C19.8775 5.7275 22.955 7.32251 22.955 7.32251L27.15 7.57251L28.075 8.5925C28.075 8.5925 29.14 9.0075 29.9225 9.575C30.6325 10.0875 30.695 10.3975 30.695 10.3975L29.9425 13.945L27.0175 18.4875L23.215 20.1L14.7175 23.78L13.9725 25.055L10.7475 24.38L8.82251 23.6Z" fill="#B7885A"/>
<path d="M7.7975 15.1475C7.7975 15.1475 7.035 15.4025 6.605 15.1475C6.155 14.8825 5.8225 14.485 5.7225 13.4625C5.595 12.1475 6.075 11.1675 6.075 11.1675L7.3025 10.3975L8.3625 10.59L11.035 8.54497H14.3075L15.655 8.35247L19.36 8.15997L24.5575 9.65247L26.3625 11.8175L25.7125 13.84L25.255 14.2C25.255 14.2 24.99 14.735 23.8775 15.3525C23.2875 15.68 22.7525 15.98 22.7525 15.98C22.7525 15.98 21.7125 16.5775 19.6075 16.7225C18.2775 16.815 16.8375 16.57 16.275 16.635C15.705 16.7 14.5475 17.6925 11.715 17.22C10.4875 17.015 13.7325 16.7225 12.5325 16.3725C11.335 16.025 7.7975 15.1475 7.7975 15.1475Z" fill="#8C6238"/>
<path d="M26.3 17.2975C26.3 17.2975 25.9225 17.0625 26.0875 16.59C26.2525 16.1175 26.595 15.9875 27.3375 15.53C28.0775 15.07 28.6975 14.5975 29.2175 13.705C29.9175 12.5025 30.69 10.3825 30.69 10.3825C30.69 10.3825 31.1225 11.37 30.875 13.0775C30.7175 14.17 30.3575 14.8225 30.3575 14.8225C30.3575 14.8225 30.31 16.33 30.145 16.92C29.98 17.51 29.39 18.6175 29.39 18.6175L27.7075 20.7025C27.7075 20.7025 27.6775 21.755 26.86 22.5725C26.3925 23.04 25.4225 23.5525 24.9025 23.6825C23.8025 23.96 22.655 24.515 21.805 24.97C21.32 25.2275 19.155 26.51 17.9175 26.87C15.745 27.5 14.6025 26.5275 14.12 26.3C13.87 26.1825 12.99 25.805 12.565 25.5225C12.14 25.24 11.7625 24.91 11.7625 24.91C11.7625 24.91 10.1375 24.8875 9.73499 24.58C9.33499 24.2725 10.1825 23.5675 10.1825 23.5675C10.1825 23.5675 10.96 24.11 11.95 24.37C12.94 24.63 13.7175 24.7475 13.765 24.44C13.8125 24.1325 12.9625 24.04 12.185 23.6625C11.4075 23.285 10.6525 22.86 10.395 22.625C10.135 22.39 10.135 22.0125 10.2775 21.7775C10.42 21.5425 10.7025 21.3775 11.1975 21.565C11.6925 21.7525 12.5425 22.24 13.3425 22.5325C14.12 22.815 14.945 23.1225 15.11 22.555C15.275 21.9875 14.545 21.8725 13.955 21.5425C13.365 21.2125 12.8 20.86 12.5875 20.6475C12.375 20.435 12.3275 20.035 12.635 19.7525C12.9425 19.47 13.4825 19.61 13.4825 19.61L16.2875 20.505L19.0675 20.5525L21.3775 19.4225L22.155 19.235L23.0275 18.81L26.3 17.2975ZM3.79999 18.435C3.79999 18.435 3.98249 18.24 4.16999 18.4275C4.35749 18.615 5.06499 19.6075 5.95999 19.8425C6.85499 20.0775 7.40749 20.0075 7.46999 20.5425C7.53999 21.1475 6.57249 21.1075 5.84249 20.83C4.92999 20.4825 4.49499 19.73 4.25999 19.3525C4.02499 18.9775 3.79999 18.435 3.79999 18.435ZM2.86749 14.58C2.60749 14.83 2.75749 15.1875 3.15749 15.61C3.55749 16.0325 3.95749 16.35 4.21249 16.5075C4.46749 16.665 4.76999 16.6175 4.90499 16.41C5.00749 16.25 4.98999 15.9725 4.74749 15.755C4.54999 15.5775 4.26249 15.27 3.82499 14.895C3.60999 14.71 3.25499 14.2025 2.86749 14.58Z" fill="#A2764A"/>
<path d="M19.4775 22.165C19.465 22.5725 19.8975 22.7275 21.09 22.5525C22.41 22.3575 22.5075 22.0875 22.45 21.62C22.3925 21.1525 21.6925 21.33 20.975 21.445C20.2525 21.565 19.4975 21.545 19.4775 22.165ZM29.495 17.855C29.2625 17.855 28.485 18.6325 27.6325 19.215C26.78 19.7975 25.8475 20.36 25.575 20.515C25.3025 20.67 25.1275 20.98 25.245 21.2725C25.3625 21.5625 25.865 21.68 26.41 21.4675C26.9525 21.255 27.655 20.865 28.1775 20.4775C28.8575 19.9725 29.44 19.4875 29.6525 18.6725C29.76 18.2525 29.7275 17.855 29.495 17.855Z" fill="#B7885A"/>
<path d="M18.04 18.1525C18.15 18.32 18.36 18.4575 18.845 18.1775C19.875 17.5825 21.0475 16.7125 21.9575 16.045C22.9875 15.29 24.1275 14.2225 24.325 14.0125C24.5225 13.8025 24.93 13.2875 24.6475 13.0325C24.2625 12.685 23.96 13.1025 23.42 13.59C22.75 14.1975 21.795 15.0275 21.1875 15.5125C20.58 15.995 18.845 17.1625 18.6325 17.2975C18.425 17.435 17.78 17.7575 18.04 18.1525ZM6.90751 13.8225C6.63501 14.035 6.72251 14.4975 7.17751 14.9375C7.63251 15.3775 8.14001 15.95 9.79501 16.4225C10.0025 16.4825 10.205 16.53 10.4 16.57C11.775 16.8475 12.8725 16.6775 13.2725 16.575C13.7275 16.4575 14.15 15.95 13.78 15.595C13.5025 15.33 11.9025 15.8575 10.0675 15.29C7.81751 14.6 7.60001 13.2825 6.90751 13.8225ZM7.46501 16.2375C7.29751 16.6025 7.44751 16.845 8.04001 17.065C8.63251 17.285 9.64501 17.6 9.98001 17.79C10.455 18.06 10.8025 17.9 10.9075 17.655C11.06 17.3 10.79 17.055 10.5025 16.9125C10.13 16.7275 8.83251 16.1875 8.41001 16.0675C8.05501 15.97 7.65001 15.8325 7.46501 16.2375ZM21.9125 18.1675C21.8025 18.515 21.955 19.0125 23.41 19.0825C24.5775 19.1375 25.515 18.7325 26.085 18.375C26.68 18 26.9725 17.39 26.7225 17.1125C26.4725 16.835 26.0975 17.085 25.5575 17.39C24.9575 17.7275 24.3375 18.0425 23.145 17.9175C22.625 17.865 22.03 17.8075 21.9125 18.1675ZM19.5525 19.8175C19.5525 19.8175 18.9175 19.65 18.7675 19.3675C18.6175 19.085 18.735 18.8 19.0175 18.7325C19.3 18.665 19.685 18.865 20.37 18.95C21.055 19.0325 21.6875 19 21.9725 19C22.54 19 22.5575 19.685 22.04 19.9C21.5225 20.1175 20.94 20.0325 20.94 20.0325C20.94 20.0325 20.24 21.2 17.97 21.1175C15.7 21.035 13.7625 19.905 13.45 19.7325C12.9 19.4325 13.2325 18.8825 13.5825 18.965C13.9325 19.0475 16.335 20.15 17.6875 20.165C19.035 20.185 19.5525 19.8175 19.5525 19.8175ZM7.30001 19.2925C7.12251 19.7525 6.74501 19.7475 6.04751 19.4075C5.35001 19.065 3.36001 17.3725 2.46251 16.435C1.56751 15.495 1.45251 15.17 1.41001 14.9125C1.38501 14.75 1.29751 14.44 1.29751 14.44C1.29751 14.44 0.587507 13.67 0.542507 13.145C0.487507 12.4625 0.772507 12.25 1.11251 12.3925C1.45501 12.535 1.29751 12.8325 1.42501 13.245C1.48251 13.4275 2.03751 13.9275 2.12251 14.27C2.19001 14.5375 2.23751 14.6825 2.26501 14.84C2.29251 14.9975 2.80501 15.765 4.25751 16.9175C5.51001 17.9125 6.34751 18.3125 6.69001 18.4675C7.03251 18.6225 7.47251 18.85 7.30001 19.2925ZM3.58501 13.9775C3.58501 13.9775 2.33751 12.3025 3.12001 10.51C3.66501 9.25749 4.61251 9.25749 4.99751 9.27499C5.23751 9.28499 5.57501 9.41999 5.52751 9.83749C5.45751 10.435 5.02251 10.1825 4.64501 10.545C4.27501 10.8975 4.13251 11.6375 4.37251 12.745C4.61251 13.8525 5.15501 14.575 5.22251 14.895C5.28751 15.2 5.06251 15.345 4.82001 15.215C4.57751 15.085 3.98501 14.5125 3.58501 13.9775Z" fill="#D29B64"/>
<path d="M5.69001 22.5425C5.69001 22.5425 4.93501 23.35 4.42251 24.71C3.91001 26.07 3.75751 27.195 3.99501 27.43C4.23251 27.665 6.63751 26.8775 7.91751 25.8925C9.75501 24.4775 9.23751 23.1725 9.23751 23.1725C9.23751 23.1725 8.85001 22.735 8.18001 22.42C7.59751 22.145 7.01001 21.97 7.01001 21.97C7.01001 21.97 6.83251 21.3975 6.30001 20.985C5.76751 20.5725 5.07751 20.335 4.27001 20.375C3.46251 20.415 2.28501 21.0525 1.75251 21.625C1.22001 22.1975 0.807511 22.765 0.897511 22.9775C1.02501 23.2775 2.48251 22.715 3.58501 22.695C4.69001 22.675 5.69001 22.5425 5.69001 22.5425Z" fill="#6E9921"/>
<path d="M5.22999 25.9225C5.43499 26.04 6.54249 24.69 7.23999 24.04C7.92249 23.4025 8.63499 22.6725 8.63499 22.6725C8.63499 22.6725 8.41749 22.5375 8.20999 22.42C8.07999 22.3475 7.84749 22.275 7.84749 22.275C7.84749 22.275 7.29499 22.565 6.51749 23.625C5.87999 24.485 5.03999 25.815 5.22999 25.9225ZM2.50499 21.7575C2.63249 22.075 3.19249 21.53 4.33499 21.395C5.44499 21.2625 6.75249 21.495 6.75249 21.495C6.75249 21.495 6.61749 21.2225 6.37249 21.015C6.13749 20.815 5.89249 20.6975 5.89249 20.6975C5.89249 20.6975 4.74249 20.5525 3.95499 20.8425C3.25749 21.1 2.37249 21.43 2.50499 21.7575Z" fill="#2F7C31"/>
<path d="M27.2075 10.0225C26.9575 9.92253 26.585 9.80253 26.3725 10.145C26.3275 10.2175 26.3025 10.2875 26.29 10.35C25.87 9.86753 25.37 9.75753 25.2875 9.74253C25.4125 9.76503 26.8225 9.99753 26.8225 9.43753C26.8225 8.85253 26.0775 8.72753 25.275 8.59253C24.4725 8.46003 23.1625 8.47503 23.1625 8.47503C23.1625 8.47503 23.955 8.10503 24.8 8.01753C25.5475 7.94003 25.94 7.96503 26.4725 8.21503C27.0075 8.46503 27.1925 8.96753 27.4775 8.98503C27.7625 9.00253 28.19 8.73753 28.1725 8.45253C28.155 8.16753 27.83 7.64753 27.345 7.26253C27.3369 7.25749 27.3294 7.25163 27.3225 7.24503C27.1 7.06503 26.7325 6.88003 26.14 6.77253C26.04 6.75253 25.9775 6.74253 25.9775 6.74253C25.9775 6.74253 25.3675 6.08253 24.8825 5.63003C24.3975 5.17753 24.015 4.89503 23.73 4.87753C23.445 4.86003 23.4025 5.09003 23.4475 5.26753C23.4875 5.42003 24.425 6.39753 24.7025 6.68253C22.7275 6.75503 21.475 7.55003 21.475 7.55003C21.475 7.55003 20.485 6.89503 18.975 6.62503C17.7425 6.40253 16.75 6.63753 16.75 6.63753C16.75 6.63753 17.2875 6.32003 17.1925 5.72503C17.115 5.23003 15.9275 4.86503 14.2825 5.59753C12.9675 6.18253 12.38 6.76753 12.38 6.76753C12.38 6.76753 11.11 6.23253 10.56 6.01503C10.01 5.79753 9.49 5.48003 9.3075 5.48003C9.125 5.48003 8.84 5.91503 8.8725 6.03003C8.905 6.14503 9.4575 6.63003 9.4575 6.63003C9.4575 6.63003 8.1725 6.59753 7.0525 6.54753C5.9325 6.50003 5.5 6.46753 5.165 6.50003C4.83 6.53253 4.3125 6.86753 4.3625 7.18503C4.4125 7.50253 5.6975 7.45253 6.4825 7.50253C7.2675 7.55253 8.2525 7.53503 8.2525 7.53503C8.2525 7.53503 7.4 8.03503 6.9675 8.43753C6.5325 8.83753 6.265 9.22253 6.5675 9.59003C6.8675 9.95753 7.3525 9.52253 7.77 9.14003C8.1875 8.75503 8.6225 8.38753 9.155 8.25503C9.69 8.12253 10.1725 8.17253 10.1725 8.17253C10.1725 8.17253 9.3575 8.67753 9.02 8.99003C8.5475 9.43003 8.335 9.90753 8.335 9.90753C8.335 9.90753 7.2825 9.72503 6.7475 10.0075C6.2125 10.29 5.355 10.665 5.295 11.895C5.235 13.12 5.68 13.08 5.83 13.0975C5.98 13.115 6.1475 12.7975 6.1975 12.445C6.2475 12.0925 6.2975 11.56 6.8325 11.1425C7.3675 10.725 7.9025 10.875 7.9025 10.875C7.9025 10.875 7.635 11.4925 7.97 11.6925C8.305 11.8925 8.52 11.4575 8.855 11.0925C9.19 10.725 9.715 10.1225 11.285 9.46253C12.855 8.80253 13.3 8.78503 13.6875 8.74503C14.075 8.70503 14.405 8.62753 14.405 8.30003C14.405 7.97003 13.6675 7.91253 13.6675 7.91253C13.6675 7.91253 13.92 7.37003 14.695 6.92503C15.47 6.48003 16.07 6.50753 16.1375 6.68003C16.28 7.05753 15.2 7.13753 15.1425 7.93253C15.085 8.72753 16.115 8.48503 16.5825 8.46503C17.0475 8.44503 17.7925 8.44253 18.59 8.58253C19.3075 8.70753 20.2025 8.95753 20.845 9.19503C21.7575 9.53503 22.2175 10.05 22.4875 10.1475C22.7575 10.245 23.8425 10.16 24.8475 10.7875C25.7525 11.3525 25.9175 12.42 25.61 13.1275C25.415 13.5725 25.2 13.905 25.2025 14.115C25.205 14.325 25.3975 14.3675 25.6675 14.155C26.4325 13.555 26.9025 12.6 26.935 12.155C26.9375 12.1275 26.935 12.1075 26.935 12.08C26.94 12.025 26.94 11.965 26.9375 11.905C26.9375 11.89 26.9375 11.8725 26.935 11.8575C26.9325 11.8125 26.925 11.765 26.9175 11.7175C26.9125 11.6789 26.9058 11.6406 26.8975 11.6025C26.89 11.57 26.88 11.5375 26.8725 11.505C26.865 11.4825 26.86 11.46 26.855 11.44C26.8225 11.33 26.7825 11.215 26.7275 11.09C27.015 11.21 27.7825 11.55 27.7925 11.795C27.82 12.3375 27.0075 13.43 26.2725 14.03C25.5375 14.63 23.6425 15.4075 23.3925 15.5075C23.1425 15.6075 22.785 15.805 22.8675 16.135C22.945 16.445 23.465 16.4975 23.785 16.4025C24.4075 16.22 25.82 15.7225 26.9225 14.805C28.025 13.8875 28.745 12.68 28.83 11.795C28.9125 10.9075 27.4575 10.1225 27.2075 10.0225Z" fill="#D29B64"/>
</svg>
