<svg width="32" height="32" viewBox="0 0 32 32" fill="none" xmlns="http://www.w3.org/2000/svg">
<path d="M19.675 13.2125L15.055 9.2075L16.77 7.9325C16.77 7.9325 21.7475 5.145 26.495 8.505C31.16 11.805 30.72 21.6175 27.11 26.105C23.5 30.5925 20.9925 30.8575 19.63 30.8125C18.265 30.7675 18.045 30.1075 16.725 30.24C15.405 30.3725 14.965 31.12 12.545 30.945C10.35 30.785 8.53999 29.9325 7.65999 28.965C6.82749 28.045 19.675 13.2125 19.675 13.2125Z" fill="#6EA517"/>
<path d="M25.0525 8.59998C25.0525 8.59998 23.07 9.45498 21.09 9.60998C19.1075 9.76498 15.5725 9.49248 15.5725 9.49248C15.5725 9.49248 15.185 7.43248 15.0675 7.43248C14.95 7.43248 9.7475 5.62248 5.9375 8.48248C1.9225 11.495 1.5275 17.345 2.1675 20.1375C3.64 26.555 8.3625 29.5775 8.3625 29.5775C8.3625 29.5775 12.58 30.045 17.865 27.715C23.15 25.385 27.725 21.305 27.6175 15.8275C27.5 9.99748 25.0525 8.59998 25.0525 8.59998Z" fill="#87C244"/>
<path d="M9.42499 9.72501C8.74749 8.94251 6.88749 9.11751 5.44249 11.185C3.93749 13.335 3.86999 17.275 5.10999 17.3825C6.12749 17.47 6.38749 15.7475 7.01249 14.5275C8.18749 12.2375 10.975 11.5175 9.42499 9.72501Z" fill="#E5DD9F"/>
<path d="M11.0625 8.84003C10.765 9.46003 11.745 10.985 15.405 11.0975C19.255 11.215 20.5175 9.07003 20.0775 8.57003C19.6375 8.07003 18.1975 8.89253 15.465 8.86503C12.7325 8.83753 11.57 7.78753 11.0625 8.84003Z" fill="#59702C"/>
<path d="M12.965 4.65998C12.67 4.59998 11.4675 4.39498 11.3475 3.92498C11.2925 3.70248 11.5825 2.98498 12.3475 2.45498C13.1125 1.92498 13.875 1.77998 14.0525 2.18998C14.23 2.60248 14.17 2.86498 14.17 2.95498C14.17 3.04248 14.775 3.74998 15.1975 4.65998C15.785 5.92248 16.1075 7.15748 16.05 8.42248C16.0075 9.33748 15.99 10.6275 15.4625 10.5375C14.9125 10.445 15.0275 9.15498 14.7575 8.24498C14.1125 6.07248 13.1425 4.69748 12.965 4.65998Z" fill="#513532"/>
<path d="M20.6475 6.08998C20.7075 6.00248 26.79 2.18248 26.8175 1.94748C26.845 1.71248 23.675 1.15248 21.6775 1.88748C19.68 2.62248 17.61 3.80498 16.6225 5.85498C15.83 7.49998 15.83 8.61748 16.035 8.88248C16.1325 9.00748 20.6475 6.08998 20.6475 6.08998Z" fill="#2F7C31"/>
<path d="M19.9725 5.85501C22.6575 4.14001 26.82 1.94751 26.82 1.94751C26.82 1.94751 26.945 2.27501 26.145 3.65251C25.0875 5.47501 22.6175 7.82501 20.12 8.56001C17.41 9.35751 16.035 8.88251 16.035 8.88251C16.035 8.88251 17.8575 7.20751 19.9725 5.85501Z" fill="#4C8C19"/>
</svg>
