<svg width="32" height="32" viewBox="0 0 32 32" fill="none" xmlns="http://www.w3.org/2000/svg">
<path d="M19.3425 4.82997C11.7075 0.80247 4.75749 3.67247 2.25249 7.59497C1.43249 8.87747 0.852492 11.21 0.874992 13.06C0.919992 16.8675 3.02749 21.11 7.57499 25.39C13.17 30.655 18.88 30.195 20.695 29.7525C22.98 29.195 24.5125 28.72 24.2775 26.59C24.2475 26.31 24.0075 25.8025 23.645 25.58C22.4825 24.875 20.055 24.5075 18.9125 22.81C17.2525 20.3375 19.3175 20.2125 21.295 21.27C23.4125 22.4025 24.6225 23.11 26.7475 22.915C28.305 22.7725 30.57 21.8325 30.8775 19.205C31.1525 16.8275 27.6825 9.22997 19.3425 4.82997ZM22.46 17.75C21.875 18.64 20.43 18.335 19.4825 17.495C18.535 16.655 18.4125 15.255 19.0275 14.705C19.6525 14.1475 20.8275 14.275 21.775 15.115C22.72 15.9575 22.9175 17.05 22.46 17.75Z" fill="#AC5810"/>
<path d="M19.6775 3.92251C12.0425 -0.104991 5.075 3.01001 2.57 6.93251C0.0625013 10.8575 1.1525 18.125 7.9075 24.4825C13.5025 29.7475 19.2125 29.2875 21.0275 28.845C23.3125 28.2875 24.925 27.2 23.92 25.8125C23.2275 24.855 20.745 24.1325 19.2475 21.9025C17.5875 19.43 19.6525 19.305 21.63 20.3625C23.7475 21.495 24.9575 22.2025 27.0825 22.0075C28.64 21.865 30.995 20.66 30.925 18.225C30.8525 15.8325 28.0175 8.32501 19.6775 3.92251ZM23.1925 17.68C22.48 18.45 20.9625 18.24 19.8025 17.215C18.645 16.1875 18.2825 14.7325 18.995 13.965C19.7075 13.195 21.225 13.405 22.385 14.43C23.545 15.455 23.905 16.9125 23.1925 17.68Z" fill="#F2A259"/>
<path d="M11.905 21.165C12.1925 20.43 14.2375 19.625 16.1175 20.9625C16.645 21.3375 17.305 22.2925 17.2375 23.4925C17.0175 27.4125 10.585 24.5475 11.905 21.165Z" fill="#EEEEEE"/>
<path d="M5.93251 14.5175C6.59001 13.4675 8.18751 13.3475 9.58501 14.255C10.83 15.0625 11.87 17.05 10.335 18.35C9.51251 19.0475 8.09001 18.615 7.21251 17.9425C6.14751 17.13 5.22501 15.6475 5.93251 14.5175Z" fill="#2686C6"/>
<path d="M14.4175 5.35502C14.62 4.52252 16.0325 4.38002 17.0325 4.75252C18.76 5.39752 19.5425 7.10752 18.905 8.06002C17.9725 9.45252 15.94 8.97502 15.17 8.17752C13.8625 6.82752 14.2475 6.05252 14.4175 5.35502Z" fill="#FFEE58"/>
<path d="M24.4275 9.43001C25.8125 10.06 25.9925 11.0575 25.7275 11.785C25.5625 12.235 25.225 12.8525 24.535 12.9075C23.3675 13.0025 23.205 12.0375 22.3725 11.7725C21.6725 11.55 21.3875 10.5925 21.6625 9.95001C21.9175 9.35751 22.6625 8.62501 24.4275 9.43001Z" fill="#7CB342"/>
<path d="M16.7425 24.24C16.3975 24.5525 15.2 24.9375 13.68 23.9875C13.165 23.665 12.6725 23.1975 12.395 22.4975C12.1775 21.9475 12.225 21.4175 12.3225 21.1825C12.6025 20.505 13.03 20.38 13.03 20.38C12.6 20.35 11.7875 20.92 11.6525 21.6675C11.61 21.9025 11.3075 23.3725 13.255 24.705C14.9325 25.855 17.4125 25.7475 17.25 23.4325C17.175 23.7175 16.9625 24.0425 16.7425 24.24Z" fill="#B0B0B0"/>
<path d="M11.065 16.43C11.0175 17.3225 9.97249 17.7925 9.38999 17.795C7.74249 17.7975 6.26249 16.7625 6.15999 14.92C6.14249 14.59 6.30499 14.1125 6.30499 14.1125C6.08749 14.205 5.77999 14.675 5.71499 14.94C5.32999 16.53 6.93249 18.3825 8.61999 18.7575C9.47499 18.9475 10.5525 18.655 10.945 17.89C11.225 17.345 11.17 16.8775 11.065 16.43Z" fill="#01579B"/>
<path d="M16.83 8.17998C15.71 8.05248 15.09 7.31998 14.9275 7.15248C14.4825 6.68748 14.2075 6.23498 14.3675 5.56498C14.4175 5.34998 14.54 5.07498 14.69 4.91998C14.5075 4.97998 14.2125 5.37248 14.12 5.58498C14.025 5.79748 13.68 6.59498 14.42 7.57748C14.8775 8.18748 15.675 8.87498 16.855 9.03998C17.6925 9.15748 18.2925 8.85748 18.7925 8.36998C19.1325 8.03748 19.2825 7.28748 19.08 6.89998C19.1125 7.18248 18.595 8.38248 16.83 8.17998Z" fill="#DF7F14"/>
<path d="M26.0425 11.2125C25.94 10.835 25.6475 10.4425 25.6175 10.4225C25.745 10.6675 25.9975 11.4025 25.4675 12.1175C25.2 12.4775 24.395 12.92 23.445 12.15C23.165 11.9225 22.94 11.6975 22.435 11.5125C21.1525 11.04 21.7125 9.73502 22.1575 9.33002C21.8075 9.51252 21.49 9.84002 21.3575 10.34C21.1725 11.0375 21.63 11.7675 22.325 12.1175C23.115 12.515 23.37 13.2825 24.4525 13.2825C24.5075 13.2825 24.565 13.28 24.6275 13.275C25.3575 13.2125 25.665 12.93 25.8875 12.585C26.16 12.155 26.1675 11.6675 26.0425 11.2125Z" fill="#558B2F"/>
<path d="M6.45499 6.4475C7.02499 5.885 8.01749 5.29 9.46999 6.0475C10.345 6.5025 11.3625 7.0375 10.9025 8.8875C10.6175 10.035 8.94749 10.6425 7.55249 9.365C6.99999 8.86 4.89999 7.9825 6.45499 6.4475Z" fill="#F44336"/>
<path d="M11.235 8.64C11.2525 8.2025 11.0275 7.67 10.95 7.49C10.9625 7.75249 11.19 8.41499 10.1475 9.29249C9.78501 9.59749 9.1275 9.82999 8.41 9.54749C8.0425 9.40249 7.515 8.795 7.1375 8.6425C5.735 8.0775 6.34 6.575 6.5375 6.37C6.22 6.5925 5.95 6.9475 5.85 7.465C5.72 8.1425 5.84001 8.7825 6.77001 9.515C9.41001 11.5975 10.22 10.3425 10.5075 10.0225C10.87 9.6325 11.215 9.1225 11.235 8.64Z" fill="#C62828"/>
<path d="M16.435 4.84002C16.0675 4.66752 15.0175 4.71752 14.815 5.59252C14.6925 6.11752 15.0775 6.65002 15.44 6.58752C15.8525 6.51752 15.6325 5.87502 15.88 5.69252C16.2575 5.41752 16.95 5.08252 16.435 4.84002ZM8.69 6.11502C8.3275 5.87502 7.17 5.87252 6.8225 6.76002C6.6125 7.29252 6.94 7.91002 7.3325 7.90002C7.78 7.89002 7.565 7.36252 7.9375 7.02752C8.4075 6.60502 9.1975 6.45002 8.69 6.11502ZM8.5175 14.125C8.175 13.9075 7.16 13.8225 6.74 14.6175C6.4325 15.2025 6.855 15.8475 7.2225 15.83C7.64 15.81 7.5 15.145 7.7675 14.995C8.175 14.7675 8.9975 14.43 8.5175 14.125ZM14.35 20.7825C13.9825 20.61 12.9325 20.66 12.73 21.535C12.6075 22.06 12.9925 22.5925 13.355 22.53C13.7675 22.46 13.5475 21.8175 13.795 21.635C14.17 21.36 14.8625 21.025 14.35 20.7825ZM23.77 9.51252C23.44 9.27752 22.3975 9.14002 22.0425 9.96502C21.83 10.46 22.1125 11.0525 22.48 11.055C22.8975 11.0575 22.795 10.3875 23.0725 10.2525C23.49 10.05 24.2325 9.84252 23.77 9.51252Z" fill="white"/>
</svg>
