<svg width="32" height="32" viewBox="0 0 32 32" fill="none" xmlns="http://www.w3.org/2000/svg">
<path d="M5.97751 26.005C4.35251 24.3475 4.35251 21.7025 5.97751 20.045L10.6625 15.36C11.1725 14.85 11.8425 14.4675 12.5425 14.2775C13.2425 14.0875 13.9775 14.0875 14.645 14.245C15.345 14.435 16.015 14.7875 16.5575 15.2975L16.62 15.36C18.2775 17.0175 18.2775 19.6625 16.62 21.32L11.935 26.005C10.28 27.6625 7.60251 27.6625 5.97751 26.005ZM19.235 12.7475C16.145 9.65749 11.0775 9.65749 7.98501 12.7475L3.33251 17.4325C0.242515 20.5225 0.242515 25.59 3.33251 28.6825C6.42251 31.775 11.49 31.7725 14.5825 28.6825L19.2675 23.9975C22.325 20.905 22.325 15.84 19.235 12.7475Z" fill="#84B0C1"/>
<path d="M16.715 12.12C17.555 11.6975 18.3575 11.9925 18.3575 11.9925C16.6225 10.71 14.73 10.345 13.1 10.4475C13.09 10.46 13.0825 10.4725 13.0725 10.4875C12.3575 11.585 12.1975 13.035 12.6425 14.255C13.3125 14.09 14.0075 14.095 14.6425 14.2475C14.9025 14.3175 15.1 14.385 15.49 14.5675C15.4925 14.565 15.355 12.805 16.715 12.12ZM11.69 14.615C11.7225 14.3725 11.7375 14.1275 11.7525 13.8825C11.8225 12.8275 12.0025 11.7775 12.2875 10.76C12.3075 10.6875 12.3275 10.61 12.3475 10.5325C11.575 10.655 10.8175 10.89 10.105 11.24C8.99499 12.6725 9.35999 14.5275 10.6625 15.3625C10.96 15.065 11.31 14.8125 11.69 14.615Z" fill="#2F7889"/>
<path d="M26.0225 5.99502C27.6475 7.65252 27.6475 10.2975 26.0225 11.955L21.3375 16.64C20.8275 17.15 20.1575 17.5325 19.4575 17.7225C18.7575 17.9125 18.0225 17.9125 17.355 17.755C16.655 17.565 15.985 17.2125 15.4425 16.7025L15.38 16.64C13.7225 14.9825 13.7225 12.3375 15.38 10.68L20.065 5.99502C21.72 4.33752 24.3975 4.33752 26.0225 5.99502ZM12.765 19.2525C15.855 22.3425 20.9225 22.3425 24.015 19.2525L28.6675 14.5675C31.7575 11.4775 31.7575 6.41002 28.6675 3.31752C25.5775 0.225022 20.51 0.227522 17.4175 3.31752L12.735 8.00252C9.67499 11.095 9.67499 16.16 12.765 19.2525Z" fill="#84B0C1"/>
<path d="M12.6125 9.855C12.6225 9.8475 12.6325 9.8375 12.6425 9.83C12.775 9.715 12.9225 9.605 13.095 9.575C13.2675 9.545 13.47 9.6225 13.53 9.7875C13.575 9.91 13.535 10.045 13.4925 10.1675C12.835 12.155 12.3075 14.6775 12.9475 16.735C13.01 16.935 13.07 17.1925 12.9025 17.3175C12.805 17.3925 12.66 17.38 12.5525 17.3225C11.3775 16.6875 11.1725 14.9675 11.1175 13.7875C11.0525 12.2975 11.465 10.8625 12.6125 9.855Z" fill="#A8E3F0"/>
<path d="M17.83 17.835C17.67 17.815 17.5 17.7825 17.5 17.7825C17.5 17.7825 17.475 18.85 16.6225 19.735C15.6775 20.715 14.735 20.69 14.735 20.69C15.2325 20.9775 16.225 21.275 16.585 21.36L16.6225 21.3225C17.58 20.3625 17.98 19.0725 17.83 17.835ZM22.69 15.2875L21.3575 16.62C21.69 18.105 21.6 19.665 21.085 21.105C21.7325 20.875 22.355 20.5575 22.935 20.155C23.8925 18.515 23.6825 16.5775 22.69 15.2875Z" fill="#2F7889"/>
<path d="M19.9725 17.5025C19.815 17.105 19.5075 16.7025 19.1225 16.74C18.8825 16.7625 18.51 16.9875 18.535 17.675C18.5525 18.2075 18.755 18.7275 18.465 19.425C18.04 20.445 18.1375 20.72 18.24 20.8825C18.3525 21.06 18.56 21.14 18.7525 21.1375C19.26 21.135 19.68 20.67 19.91 20.16C20.2825 19.345 20.305 18.3375 19.9725 17.5025ZM12.3125 27.045C12.4725 26.9125 12.8875 26.47 13.08 26.75C13.01 27.52 12.4175 28.1475 11.7675 28.5675C10.9675 29.085 10.02 29.39 9.0675 29.3625C8.2775 29.34 6.9675 29.02 6.5075 28.2875C6.1325 27.6925 6.925 27.59 7.365 27.755C8.9325 28.3525 10.705 28.365 12.3125 27.045Z" fill="#A8E3F0"/>
</svg>
