<svg width="32" height="32" viewBox="0 0 32 32" fill="none" xmlns="http://www.w3.org/2000/svg">
<g clip-path="url(#clip0_7_5661)">
<path d="M15.635 1.20999L2.595 7.93249C2.31 8.09999 2.2275 8.34999 2.23 8.71249L2.255 9.16499L16.0225 16.225L29.7575 9.27749C29.7575 9.27749 29.7725 9.20749 29.7725 8.96249C29.7725 8.96249 29.76 8.63999 29.6875 8.48999C29.6075 8.31999 29.4375 8.16749 29.3275 8.07499C29.035 7.83249 28.7425 7.61749 28.245 7.33749C21.1125 3.30499 16.4225 1.22749 16.4225 1.22749C16.12 1.11499 15.87 1.07499 15.635 1.20999Z" fill="#DEA66C"/>
<path d="M2.43501 24.04C3.19501 24.5425 4.58251 25.2025 5.98501 25.9625C9.24501 27.7275 13.365 29.8725 15.415 30.715C15.6925 30.83 15.8575 30.885 16.05 30.895C16.1925 30.9025 16.4275 30.8075 16.4275 30.8075C16.4275 30.8075 16.045 17.01 16.0225 16.2225C16 15.4525 15.6775 15.1975 15.3925 15.0125C14.9475 14.7275 13.9825 14.2825 13.9825 14.2825C13.9825 14.2825 10.6025 12.6025 7.22751 10.8325C5.62251 9.99002 4.26751 9.12752 2.81001 8.41752C2.54251 8.29002 2.22751 8.45002 2.22751 8.75002V23.7C2.22751 23.8425 2.31501 23.9625 2.43501 24.04Z" fill="#B38251"/>
<path d="M29.395 24.1275L16.455 30.8C16.2475 30.9075 16 30.7575 16 30.5225L16.0225 16.2275C16.0225 16.09 15.98 15.7875 15.9375 15.6675C15.82 15.3175 16.075 15.1775 16.19 15.12L29.025 8.50999C29.365 8.33499 29.7725 8.58249 29.7725 8.96499V23.5125C29.7725 23.77 29.6275 24.0075 29.395 24.1275Z" fill="#966239"/>
<path opacity="0.5" d="M23.615 11.8975C23.615 11.8975 16.5225 15.525 16.4075 15.8325C16.2925 16.1375 21.9725 13.4075 22.6375 13.065C23.39 12.6775 29.3 9.51752 29.3 9.17002C29.3025 8.88502 23.615 11.8975 23.615 11.8975Z" fill="#212121"/>
<g opacity="0.5">
<path d="M3.20251 23.2125C4.12501 23.6775 5.04001 24.1575 6.18001 24.74V24.295C5.04501 23.715 4.12751 23.2375 3.20251 22.7675V23.2125ZM5.14501 23.415C5.40501 23.5475 5.53501 23.615 5.78001 23.74C5.78251 22.965 5.78251 22.5775 5.78501 21.8025C5.54001 21.6775 5.41251 21.6125 5.15501 21.48C5.15001 22.255 5.14751 22.64 5.14501 23.415ZM3.53001 22.585C3.74501 22.695 3.86501 22.7575 4.11001 22.8825L4.12251 20.9525C3.87501 20.825 3.75501 20.765 3.53751 20.65C3.53501 21.425 3.53251 21.8125 3.53001 22.585Z" fill="#212121"/>
<path d="M4.73751 21.4975C5.33001 21.8 5.64501 21.9625 6.16751 22.2275C5.90751 21.755 5.76501 21.515 5.48001 21.03C5.18751 21.22 5.03501 21.3125 4.73751 21.4975ZM3.20251 20.71C3.64501 20.94 3.94251 21.0925 4.52751 21.3925C4.23751 20.905 4.09251 20.6625 3.82501 20.185C3.55251 20.3825 3.42501 20.485 3.20251 20.71Z" fill="#212121"/>
</g>
<g opacity="0.5">
<path d="M7.9525 25.35C8.16 25.4575 8.2675 25.515 8.475 25.6225C8.46 24.7025 8.4525 24.2425 8.435 23.3225C8.235 23.2175 8.135 23.165 7.935 23.0625C7.9425 23.9775 7.945 24.435 7.9525 25.35Z" fill="#212121"/>
<path d="M7.19 25.1875C7.95 25.5875 8.54001 25.8875 9.27001 26.2775C9.26501 26.015 9.06251 25.6975 8.78751 25.55C8.35751 25.3225 8.1125 25.1975 7.6775 24.97C7.3975 24.8275 7.19 24.93 7.19 25.1875ZM8.6375 22.59L8.95751 23.2675C8.85751 23.48 8.805 23.5875 8.7 23.7975C8.79 23.79 8.83501 23.7875 8.925 23.78C9.045 23.62 9.10501 23.54 9.22001 23.38C9.11501 23.1325 9.06 23.0075 8.95 22.76C9.255 22.9275 9.405 23.0125 9.6825 23.175C9.6825 24.07 9.0975 24.465 8.2175 24.005C7.3375 23.5475 6.755 22.525 6.755 21.6275C7.41 21.955 7.85 22.17 8.6375 22.59Z" fill="#212121"/>
</g>
<path d="M25.185 10.3725C25.06 10.28 11.6375 3.26752 11.6375 3.26752L7.4725 5.42002L21.235 12.5175L21.2425 12.525L25.27 10.4625C25.27 10.4625 25.2625 10.4425 25.24 10.4175C25.2225 10.4025 25.1925 10.38 25.185 10.3725Z" fill="#FFE0B2"/>
<path d="M25.25 10.4325C22.97 11.555 21.235 12.5175 21.235 12.5175C21.2925 12.575 21.295 12.65 21.295 12.6875C21.2875 12.9775 21.2825 13.2075 21.275 13.495C21.24 14.9825 21.22 16.4725 21.17 17.96C21.3375 17.86 21.54 18.08 21.6925 17.96C21.9275 17.775 22.4275 16.96 22.5025 16.935C22.6025 16.9025 22.71 16.9275 22.8125 16.9225C23.2625 16.8975 24.27 15.98 24.485 15.9375C24.6925 15.8975 25.3775 16.03 25.3775 16.03C25.3775 16.03 25.33 11.4925 25.3125 10.73C25.3075 10.46 25.25 10.4325 25.25 10.4325Z" fill="#BF9F85"/>
</g>
<defs>
<clipPath id="clip0_7_5661">
<rect width="32" height="32" fill="white"/>
</clipPath>
</defs>
</svg>
