<svg width="32" height="32" viewBox="0 0 32 32" fill="none" xmlns="http://www.w3.org/2000/svg">
<path d="M20.64 19.43L9.32001 19.33C9.32001 19.33 9.21501 19.8675 9.43251 20.41C9.63251 20.91 10.44 21.63 10.44 21.63L11.3875 23.7175L12.1675 28.585L12.3175 29.9925C12.3175 29.9925 12.8725 31.03 16.01 31.03C19.1475 31.03 19.695 29.955 19.695 29.955L19.8025 29.05L20.675 24.0225L22.42 21.01C22.42 21.01 22.8025 20.7425 23.025 20.1725C23.18 19.775 23.0975 19.215 23.0975 19.28C23.0975 19.345 20.64 19.43 20.64 19.43Z" fill="#E27F13"/>
<path d="M16.21 24.705C18.7525 24.72 19.98 24.56 20.7275 24.035C21.29 23.64 21.565 23.1925 21.9475 22.555C22.4775 21.6725 22.455 20.995 22.455 20.995C22.455 20.995 20.335 22.0875 16.1425 22.0325C12.0275 21.98 9.82001 21 9.82001 21C9.82001 21 10.02 21.97 10.3525 22.6C10.7375 23.325 11.44 23.785 11.44 23.785C11.44 23.785 12.7725 24.685 16.21 24.705ZM11.8775 24.9175C12.13 25.01 12.3925 25.0975 12.3925 25.0975L12.7675 29.565C12.7675 29.565 12.095 29.3375 12.0175 29.0975C11.9725 28.96 11.7625 27.4775 11.6125 26.2725C11.5325 25.6275 11.46 25.1925 11.44 24.9625C11.4175 24.7125 11.64 24.83 11.8775 24.9175ZM14.58 25.5475C13.73 25.44 13.0525 25.2975 13.0525 25.2975C13.065 25.39 13.3725 29.7075 13.3725 29.7075C13.3725 29.7075 13.7025 29.9175 14.63 30.0325L14.58 25.5475ZM16.8025 25.62C16.17 25.655 15.465 25.61 15.23 25.6025L15.21 30.085C15.455 30.1 15.725 30.1075 16.0275 30.105C16.2875 30.1025 16.5325 30.0875 16.77 30.0675L16.8025 25.62ZM19.7125 25.33C19.5925 26.35 19.34 28.56 19.24 29.4725C19.7125 29.3 19.9 29.21 19.9625 28.9725C20.025 28.735 20.5175 25.34 20.53 25.155C20.54 25.0375 20.485 25.0175 20.18 25.145C19.9875 25.23 19.895 25.265 19.7125 25.33ZM19.115 25.4225C18.68 25.495 18.1075 25.5675 17.4325 25.6225L17.35 29.995C17.895 29.905 18.36 29.7725 18.74 29.6325C18.8425 28.5775 19.0475 26.255 19.115 25.4225Z" fill="#F5B03E"/>
<path d="M14.4075 3.91503C14.6925 3.89003 14.3725 2.69253 15.09 2.67753C16.0725 2.65503 15.7925 4.16503 15.345 4.62003C14.16 5.82753 12.3075 5.59503 11.8675 7.56503C11.58 8.84753 12.88 9.30752 12.88 9.30752C12.88 9.30752 10.735 9.18503 9.73497 11.2775C8.91747 12.99 9.90497 14.18 9.90497 14.18C9.90497 14.18 8.77247 14.395 8.30497 16.015C7.70747 18.085 9.43497 19.45 9.43497 19.45L16.8625 20.0475L24.14 16.6975L24.0975 15.055C24.0975 15.055 23.7625 14.5725 23.4325 14.2825C23.065 13.96 22.6675 13.695 22.6675 13.695L23.135 11.5125C23.135 11.5125 23.21 10.18 21.3875 8.80253C20.57 8.18253 19.6825 8.01003 19.6825 8.01003C19.6825 8.01003 19.1625 4.89753 19.0575 4.68503C18.95 4.47253 17.7775 2.59253 17.5625 2.46503C17.35 2.33753 15.88 1.04753 15.88 1.04753C15.88 1.04753 14.83 0.692525 14.125 1.59003C13.42 2.48753 13.66 3.98003 14.4075 3.91503Z" fill="#FFEBCA"/>
<path d="M17.5025 7.03249C16.0075 9.03749 12.875 9.30499 12.875 9.30499C12.875 9.30499 13.875 9.99999 16.86 9.76499C19.98 9.51999 20.7025 8.12249 20.66 6.58499C20.6175 5.04749 19.5525 3.41999 17.98 2.12999C16.5075 0.924991 15.395 0.987491 15.395 0.987491C15.395 0.987491 16.575 1.34499 17.47 2.56249C18.415 3.84499 18.3525 5.88999 17.5025 7.03249ZM9.90503 14.1775C9.90503 14.1775 11.975 15.3375 16.8625 15.2925C21.45 15.25 22.7325 13.755 22.7325 13.755C22.7325 13.755 23.255 13.0425 23.2125 11.8475C23.17 10.6025 22.4725 9.88249 22.4725 9.88249C22.4725 9.88249 21.175 11.5575 19.425 12.54C17.675 13.5225 14.3 13.9725 12.745 14.0775C11.165 14.18 9.90503 14.1775 9.90503 14.1775ZM24.0975 15.055C24.0975 15.055 24.7825 15.8225 24.545 17.06C24.2675 18.5125 23.115 19.4925 23.115 19.4925C23.115 19.4925 21.8975 20.7125 15.8825 20.7575C10.5025 20.7975 9.34253 19.37 9.34253 19.37C9.34253 19.37 14.9475 19.6075 18.6475 18.3575C21.7625 17.3075 22.4125 16.8825 23.3525 15.945C23.675 15.625 24.0975 15.055 24.0975 15.055Z" fill="#EAC084"/>
<path d="M9.58498 18.335C10.0425 18.2825 9.78498 16.995 10.345 16.2675C10.9075 15.54 11.1675 15.3325 11.045 15.0475C10.925 14.7625 9.74748 14.7275 9.23748 15.99C8.81498 17.0425 9.22498 18.375 9.58498 18.335ZM13.56 10.255C13.585 10.7125 12.755 10.61 11.83 11.75C11.08 12.675 11.1825 13.6425 10.7225 13.6875C10.265 13.73 10.08 12.11 10.6975 11.19C11.57 9.885 13.525 9.66 13.56 10.255ZM15.4825 5.63C15.6575 5.74 15.43 6.235 14.645 6.8325C13.71 7.5425 13.365 8.1025 13.02 8.0075C12.7675 7.9375 12.5275 7.4025 13.0375 6.815C13.4275 6.365 14.1925 6.1575 14.56 5.985C15.0925 5.7325 15.3175 5.525 15.4825 5.63Z" fill="white"/>
</svg>
