<svg width="32" height="32" viewBox="0 0 32 32" fill="none" xmlns="http://www.w3.org/2000/svg">
<path d="M26.0738 21.7533C24.4747 25.8053 20.4595 28.4387 15.7591 28.4387C11.7071 28.4387 7.20088 25.8898 5.60221 21.8382L5.54577 21.6991C5.03866 20.428 5.12043 18.8724 5.12043 17.4178L6.75021 3.03111L11.296 7.51111C12.6321 6.9408 14.07 6.64748 15.5227 6.64889H15.9955C17.4947 6.64889 18.9235 6.956 20.2222 7.51111L25.2124 2.58667L26.8671 17.6422C26.8692 19.0512 26.6022 20.4476 26.0804 21.7564" fill="#F4AA41"/>
<path d="M15.7591 28.4386C20.4747 28.5906 24.8053 25.8209 26.4045 21.7684L26.4533 21.6662C26.9609 20.3951 26.8796 18.6009 26.8796 17.1462L25.2129 3.03064" fill="#E27022"/>
<path d="M14.8578 23.9022C16.7582 25.1471 19.1111 23.6648 19.4489 22.2653L19.9302 21.8386C19.9302 21.8386 17.8356 23.4404 16.3893 21.3719C16.4849 23.1528 15.6951 23.6613 14.8889 23.9231" fill="#EA5A47"/>
<path d="M24.4916 14.9956C24.4916 14.9956 18.3111 17.6089 18.6018 17.9409C24.5156 23.32 24.9796 15.7454 24.4916 14.9965M7.50845 14.9956C7.50845 14.9956 13.2267 18.0712 13.3982 17.9405C7.68934 23.6014 6.93201 16.2245 7.50845 14.9956Z" fill="white"/>
<path d="M15.1111 20.8355H17.8489M14.8578 23.8933C16.7582 25.1387 19.1111 23.6564 19.4489 22.2569L19.9302 21.8302C19.9302 21.8302 17.8356 23.432 16.3893 21.3635C16.4849 23.1444 15.6951 23.6529 14.8889 23.9147M27.5556 24.0711L23.3956 21.76M25.7067 26.3822L21.5467 24.0711M24.4916 14.9875C24.4916 14.9875 18.3111 17.6 18.6018 17.932C24.5156 23.3111 24.9796 15.7364 24.4916 14.9875Z" stroke="black" stroke-width="0.888889" stroke-miterlimit="10" stroke-linecap="round" stroke-linejoin="round"/>
<path d="M5.90754 21.3475C5.39741 20.0831 5.13604 18.7322 5.13776 17.3688L6.75554 2.80884L11.6355 7.57106C12.9436 7.01938 14.3492 6.736 15.7689 6.73773H16.2311C17.6973 6.73773 19.0938 7.03462 20.3649 7.57106L25.2444 2.80884L26.8622 17.3688C26.8622 18.7755 26.5893 20.1182 26.0924 21.3475M10.1444 26.3919C11.8309 27.4459 13.7802 28.0032 15.7689 27.9999H16.2311C18.296 27.9999 20.224 27.4115 21.8555 26.3919" stroke="black" stroke-width="0.888889" stroke-miterlimit="10" stroke-linecap="round" stroke-linejoin="round"/>
<path d="M4.44446 24.0711L8.60446 21.76M6.29335 26.3822L10.4533 24.0711M7.50846 14.9875C7.50846 14.9875 13.2267 18.0622 13.3982 17.932C7.68935 23.5929 6.93201 16.2164 7.50846 14.9875Z" stroke="black" stroke-width="0.888889" stroke-miterlimit="10" stroke-linecap="round" stroke-linejoin="round"/>
<path d="M10.4533 18.0623C10.9639 18.0623 11.3778 17.6484 11.3778 17.1378C11.3778 16.6273 10.9639 16.2134 10.4533 16.2134C9.94279 16.2134 9.5289 16.6273 9.5289 17.1378C9.5289 17.6484 9.94279 18.0623 10.4533 18.0623Z" fill="black"/>
<path d="M21.5466 18.0623C22.0572 18.0623 22.4711 17.6484 22.4711 17.1378C22.4711 16.6273 22.0572 16.2134 21.5466 16.2134C21.0361 16.2134 20.6222 16.6273 20.6222 17.1378C20.6222 17.6484 21.0361 18.0623 21.5466 18.0623Z" fill="black"/>
</svg>
