<svg width="32" height="32" viewBox="0 0 32 32" fill="none" xmlns="http://www.w3.org/2000/svg">
<path d="M3.76749 13.1825C3.76749 13.1825 4.98999 12.8675 5.44999 12.8775C6.02999 12.89 6.69249 13.0525 7.04499 13.265C7.39749 13.475 8.70999 13.165 8.70999 13.165C8.70999 13.165 9.46749 13.2175 9.20249 12.655C9.07249 12.3775 7.67999 11.9575 6.84499 11.8275C5.75499 11.6575 4.25749 12.02 4.25749 12.02C4.25749 12.02 4.15249 10.73 3.85249 10.05C3.68249 9.65998 3.09499 8.35998 2.58499 7.83248C2.25249 7.48748 1.77749 7.11498 1.36999 7.33998C0.859993 7.62248 1.42249 8.60748 1.86249 9.32748C2.30249 10.0475 2.95749 10.815 3.18249 11.44C3.34499 11.88 3.76749 13.1825 3.76749 13.1825Z" fill="#6B7E37"/>
<path d="M5.44751 10.235C5.44751 10.235 5.99251 8.91503 6.08001 8.28253C6.16751 7.65003 6.20251 6.50503 5.97501 5.89003C5.82501 5.48753 5.53501 5.20253 5.18251 5.36253C4.97251 5.45753 4.50751 5.98753 4.65501 7.01753C4.79501 8.00253 4.90251 8.77753 4.90251 9.53503C4.90251 10.045 4.81501 10.715 4.81501 10.715L5.44751 10.235ZM4.98251 11.23C4.98251 11.23 5.70501 11.09 6.54751 11.1075C7.39001 11.125 9.08251 11.495 10.085 11.46C11.0875 11.425 11.2475 10.95 10.965 10.58C10.6825 10.21 9.92751 9.61253 8.46501 9.75253C7.35751 9.86003 5.61501 10.4475 5.61501 10.4475L4.98251 11.23Z" fill="#6B7E37"/>
<path d="M6.285 18.48C6.285 18.48 6.2675 18.745 6.0925 18.885C5.905 19.035 5.67 19.0775 5.67 19.0775C5.67 19.0775 4.245 17.81 3.7525 16.3325C3.2625 14.86 3.445 13.515 3.47 13.235C3.5225 12.6725 3.84 11.95 4.1375 11.475C4.55 10.8225 5.3 10.0325 5.6675 9.67997C6.0375 9.32747 6.6 8.69497 7.0225 8.23747C7.3675 7.86497 8.355 6.81997 8.7125 6.54747C9.38 6.03747 10.3675 5.38497 10.79 5.96747C11.2125 6.54747 10.3325 7.51497 9.6275 7.98997C8.9225 8.46497 7.955 9.06247 7.4975 9.27497C7.245 9.39247 6.3725 9.96247 5.9325 10.4375C5.4925 10.9125 4.7525 11.705 4.49 12.46C4.225 13.2175 4.155 13.9425 4.2425 14.9775C4.33 16.015 4.9475 17.105 5.14 17.3875C5.4975 17.9175 6.285 18.48 6.285 18.48Z" fill="#6B7E37"/>
<path d="M12.8125 15.98C12.8125 15.98 12.215 14.1325 13.0225 11.6675C13.8575 9.12497 15.1525 7.58497 16.12 6.77497C17.7625 5.39997 18.8825 5.17247 19.3225 5.55997C19.735 5.92247 19.7275 6.45747 19.5875 7.07247C19.505 7.43497 18.9725 8.21747 18.9725 8.21747C18.9725 8.21747 19.3025 8.20997 19.5875 8.58747C20.0275 9.16747 19.7975 10.54 19.7975 10.54L17.7925 15.38L15.0475 17.0875L12.8125 15.98Z" fill="#B0B0B0"/>
<path d="M14.6725 16.3625C14.6725 16.3625 13.095 15.6575 12.515 14.7675C11.39 13.0425 9.76001 12.6675 8.73751 12.68C6.22751 12.705 5.28751 14.3925 5.28751 14.3925L5.40501 16.34C5.40501 16.34 6.48501 17.7475 6.53001 17.96C6.57501 18.1725 6.19001 19.6375 7.16251 22.37C7.94501 24.565 10.6825 26.8525 14.0375 27.275C17.3925 27.6975 18.6125 27.345 18.6125 27.345C18.6125 27.345 20.1025 30.0325 20.36 30.0075C20.6175 29.985 21.135 29.41 21.615 29.1975C22.365 28.8675 23.845 28.195 24.76 27.05C26.3075 25.115 26.0325 23.8975 26.39 23.155C26.695 22.5225 26.9875 22.075 26.9425 21.84C26.8975 21.605 25.605 21.4525 24.83 21.4175C24.265 21.3925 23.5975 21.3475 23.07 21.2775C22.6175 21.2175 22.06 20.915 22.06 20.915L23.6075 19.625L23.89 17.5125L25.4625 16.08L25.58 14.625L27.7375 13.1475L29.0275 11.34V9.83749L30.0125 8.21749C30.0125 8.21749 30.5525 7.14249 30.3875 6.99999C30.2225 6.85749 29.9075 6.67499 29.3325 7.04249C29.1225 7.17749 29.68 6.34249 29.9825 5.87499C30.37 5.27749 30.4625 4.63249 30.23 4.39749C29.995 4.16249 29.7375 4.14999 28.4875 4.48499C26.86 4.91999 24.6875 5.63499 21.635 8.35749C18.5825 11.08 14.6725 16.3625 14.6725 16.3625Z" fill="#E0E0E0"/>
<path d="M30.2225 6.89503C30.2225 6.89503 30.075 8.05753 29.39 8.80253C28.63 9.62753 27.3125 10.58 26.75 10.88C26.1875 11.18 24.7275 11.8475 24.4975 11.935C24.2675 12.0225 23.9175 12.2175 24.0225 12.4625C24.1275 12.71 24.375 12.745 24.7275 12.585C25.08 12.4275 26.68 11.5925 27.05 11.3875C27.4725 11.1525 28.5175 10.52 28.5975 10.825C28.6925 11.1775 27.99 12.0975 27.15 12.9375C26.165 13.9225 24.795 14.6625 24.355 14.855C23.915 15.0475 23.2475 15.3125 23.035 15.4C22.825 15.4875 22.3475 15.6825 22.455 15.9975C22.56 16.315 23.195 16.0925 23.415 16.025C23.925 15.8675 25.165 15.155 25.2175 15.33C25.27 15.505 25.1475 15.945 24.7075 16.455C24.2675 16.965 22.9125 17.67 22.4375 17.9325C21.9625 18.195 21.77 18.2675 21.6275 18.32C21.4875 18.3725 21.1175 18.495 21.1875 18.83C21.2575 19.165 21.635 19.04 21.83 18.97C21.9625 18.9225 23.3 18.2475 23.44 18.195C23.58 18.1425 23.6325 18.67 23.44 19.0825C23.265 19.46 22.7 19.99 22.1375 20.4475C21.695 20.8075 21.1175 21.135 20.975 21.205C20.835 21.275 20.395 21.505 20.4825 21.7325C20.57 21.9625 20.905 21.98 21.345 21.7675C21.785 21.5575 24.035 19.9775 24.265 18.74C24.3875 18.08 24.3 17.72 24.3 17.72C24.3 17.72 25.515 16.6125 25.7425 16.03C25.9725 15.45 25.935 14.9225 25.935 14.9225C25.935 14.9225 27.4525 13.715 28.2375 12.81C28.945 11.995 29.39 11.01 29.4725 10.5525C29.545 10.1525 29.49 9.76753 29.49 9.76753C29.49 9.76753 30.3175 8.57003 30.5275 7.86753C30.7625 7.11003 30.2225 6.89503 30.2225 6.89503ZM29.97 4.24253C29.97 4.24253 30.04 4.75253 29.795 5.33253C29.4025 6.25503 28.5075 6.95003 27.79 7.39253C27.015 7.86753 26.0475 8.29003 25.89 8.37753C25.7325 8.46503 25.46 8.66753 25.5725 8.94003C25.695 9.24003 26.0475 9.11503 26.26 9.01003C26.47 8.90503 28.83 7.56753 29.2875 7.11003C29.5975 6.80003 30.3775 6.09003 30.555 5.35003C30.8725 4.00003 29.97 4.24253 29.97 4.24253Z" fill="#B0B0B0"/>
<path d="M8.7725 15.54C8.7725 15.9425 8.51 16.29 8.115 16.29C7.72 16.29 7.395 15.9375 7.34 15.54C7.2825 15.1175 7.59 14.795 7.985 14.7775C8.5025 14.755 8.7725 15.14 8.7725 15.54Z" fill="#2D2D2D"/>
<path d="M5.4525 14.1675C5.4525 14.1675 2.32 15.2925 2.3425 15.5275C2.3575 15.6675 3.7025 16.185 3.7025 16.185L3.65 15.955L4.49 16.1025L4.6425 16.43L5.6525 16.6525C5.6525 16.6525 5.735 15.795 5.665 15.14C5.6 14.5475 5.4525 14.1675 5.4525 14.1675Z" fill="#FFC300"/>
</svg>
