<svg width="32" height="32" viewBox="0 0 32 32" fill="none" xmlns="http://www.w3.org/2000/svg">
<path d="M22.0175 10.4025C22.0175 10.4025 29.89 9.04251 30.3475 9.64001C30.805 10.2375 30.92 12.0375 30.675 13.055C30.4275 14.075 29.5125 15.6475 26.8375 16.3875C24.59 17.0075 23.835 17.01 22.6725 17.7025C21.745 18.255 20.3975 22.23 20.185 22.795C19.9725 23.36 18.425 25.575 15.1875 25.1175C12.025 24.6675 10.085 21.7 10.755 18.78C11.425 15.86 22.0175 10.4025 22.0175 10.4025Z" fill="#A92813"/>
<path d="M16.28 17.6875C16.28 17.6875 11.88 17.7925 10.5075 16.35C9.135 14.9075 7.6925 11.705 7.305 9.13499C6.9175 6.56499 5.65 5.05249 5.0525 4.66499C4.455 4.27749 3.8375 4.17249 3.7675 4.55999C3.6975 4.94749 4.785 6.24249 4.9825 6.84749C5.475 8.35999 5.2025 11.88 5.615 13.5C6.0375 15.1575 6.3725 15.725 7.305 16.8075C8 17.615 9.1 18.3925 9.1 18.3925C9.1 18.3925 4.8425 19.4125 3.645 18.145C2.4475 16.8775 2.59 15.8225 2.695 15.295C2.8 14.7675 3.645 13.325 3.4 13.1825C3.1525 13.0425 1.605 14.2375 1.395 15.8225C1.185 17.4075 1.7075 18.7275 2.5925 19.695C3.745 20.9525 5.9275 21.165 7.195 21.06C8.4625 20.955 9.7375 20.54 9.7375 20.54C9.7375 20.54 9.7025 25.7125 7.2375 25.6775C5.3725 25.65 5.16 25.045 4.985 24.7275C4.81 24.41 4.6275 24.1475 4.72 25.1575C4.7825 25.825 5.565 27.885 8.02 27.3575C10.1 26.91 11.3875 24.9975 11.8125 24.41C12.28 23.7675 13.36 22.2975 13.36 22.2975C13.36 22.2975 12.9425 25.155 13.0325 27.1775C13.07 28.0225 13.29 30.005 14.84 30.6725C16.3875 31.34 18.3675 30.505 18.72 29.1675C19.0725 27.83 18.36 27.0825 18.2525 26.9775C18.145 26.8725 17.655 28.49 17.655 28.49C17.655 28.49 16.3875 29.335 15.895 28.7375C15.4025 28.14 16 23.4925 16.07 22.5075C16.14 21.5225 17.16 22.4725 17.5125 22.965C17.865 23.4575 18.4375 24.68 19.3075 25.535C20.7425 26.9475 22.3 27.56 24.5125 27.39C26.8175 27.2125 28.2575 26.3075 29.03 25.1475C29.805 23.985 29.9725 22.8325 29.725 22.6225C29.4775 22.4125 27.79 24.445 27.4375 24.725C27.085 25.0075 23.565 24.725 23.0725 24.725C22.58 24.725 22.475 23.845 22.475 23.845C22.475 23.845 24.48 23.3175 25.185 22.79C25.89 22.2625 27.825 21.1525 27.965 18.0025C28.0725 15.5725 27.965 9.04999 28.2125 7.99499C28.46 6.93999 29.3975 6.04749 29.185 5.69499C28.9725 5.34249 28.035 5.92999 27.895 6.03499C27.755 6.13999 26.275 6.84499 26.24 8.11249C26.205 9.37999 25.7825 18.425 25.0775 19.1625C24.3725 19.9025 22.085 21.38 20.82 21.205C19.5525 21.0325 16.28 17.6875 16.28 17.6875Z" fill="#FFA8A8"/>
<path d="M29.62 22.58C29.1975 22.545 28.845 23.1075 28.4225 23.425C28 23.7425 27.155 24.55 24.9375 24.48C22.72 24.41 21.2425 21.98 21.2425 21.98C21.2425 21.98 21.9475 22.05 22.755 21.84C23.565 21.63 24.85 20.9425 25.6575 19.4825C26.62 17.7475 26.405 13.465 26.415 11.5625C26.4275 8.93499 27.2825 7.53749 27.6125 7.09249C28.175 6.32999 29.0675 5.89499 29.1025 5.64999C29.1375 5.40249 27.9875 5.54499 27.33 5.93249C26.6 6.36249 26.24 6.84749 26.24 6.84749C26.24 6.84749 24.55 6.67249 23.635 6.67249C22.72 6.67249 20.9625 6.80749 19.43 7.16499C17.5475 7.60499 16.14 8.67749 15.7525 8.74999C15.7525 8.74999 14.5025 7.50749 12.445 8.92499C10.2975 10.4025 11.8475 13.535 11.8475 13.535C11.8475 13.535 11.7425 13.9875 11.18 14.1325C10.37 14.3425 9.15749 13.5525 8.71749 12.145C8.34749 10.9575 8.43499 9.31249 8.08499 7.41249C7.73249 5.51249 6.71249 4.66749 5.79749 4.24499C4.88249 3.82249 3.71999 4.20999 3.89749 4.45499C4.07249 4.70249 5.40999 5.15999 6.21999 6.63749C7.02999 8.11499 6.64249 11.565 7.52249 14.0275C8.40249 16.49 10.0225 17.3 10.0225 17.3C10.0225 17.3 9.10749 17.7225 8.61499 17.8275C8.12249 17.9325 6.78499 18.18 5.55249 17.925C4.26999 17.66 3.40499 16.72 3.26499 15.6825C3.14499 14.8 3.72249 13.255 3.40499 13.1825C3.08749 13.11 1.95249 14.73 1.91749 16.0675C1.88249 17.405 2.91249 18.9525 4.45999 19.6925C6.00749 20.4325 9.24749 19.7625 9.24749 19.7625C9.24749 19.7625 8.98249 20.1675 8.94749 20.9425C8.91249 21.7175 8.45499 23.45 7.62749 23.9525C7.05999 24.2975 6.55499 24.41 6.37749 23.9525C6.20249 23.495 7.09999 23.32 7.06499 22.8625C7.02999 22.405 6.28999 22.29 5.58749 22.7225C5.11249 23.0125 4.31999 24.06 4.81249 25.185C5.30499 26.31 6.52749 26.7075 7.87499 26.3475C9.88499 25.81 12.205 22.09 12.9425 21.455C13.6825 20.8225 14.175 20.9975 14.175 20.9975C14.175 20.9975 13.8225 24.27 13.8925 26.4875C13.9625 28.705 15.38 30.1525 16.955 29.9025C18.715 29.62 18.82 28.1775 18.54 27.4025C18.2925 26.725 17.36 26.47 17.0975 26.6625C16.755 26.915 16.9825 27.33 17.115 27.445C17.4325 27.7175 17.1675 28.3525 16.675 28.21C16.1825 28.07 16.64 26.415 16.85 25.605C17.06 24.795 17.555 22.895 18.1175 22.755C18.68 22.615 19.2525 23.6025 19.7725 24.1975C20.6625 25.2175 22.1125 26.01 24.18 26.045C26.9125 26.0925 28.605 24.4075 28.9925 23.985C29.3725 23.565 30.04 22.615 29.62 22.58ZM23.2825 15.225C24.0925 14.6625 24.785 14.405 24.785 14.405C24.785 14.405 24.8075 17.29 23.705 18.78C22.7925 20.0125 21.91 19.73 21.91 19.73C21.91 19.73 22.8175 19.235 22.895 18.2875C23 16.985 21.6275 16.74 21.6275 16.74C21.6275 16.74 22.5775 15.715 23.2825 15.225Z" fill="#FF615E"/>
<path d="M28.0225 13.4825C28.0225 13.4825 30.92 12.62 30.6375 10.5075C30.355 8.39499 28.22 7.92749 28.22 7.92749C28.22 7.92749 27.915 9.02999 27.9625 10.4725C27.985 11.105 28.0225 13.4825 28.0225 13.4825Z" fill="#FF615E"/>
<path d="M21.8825 18.9C21.56 19.415 21.01 19.5225 20.61 19.2725C20.21 19.0225 20.1475 18.52 20.47 18.005C20.7925 17.49 21.4525 17.2575 21.855 17.5075C22.2575 17.7575 22.205 18.385 21.8825 18.9ZM16.3325 15.875C16.7825 15.8475 16.6325 15.4 16.5425 14.8025C16.455 14.205 16.13 12.6325 17.0525 11.6875C17.8275 10.895 18.7925 10.905 19.515 11.37C20.06 11.7225 20.3075 11.8625 20.5175 11.6C20.6575 11.425 20.4475 11.09 20.095 10.79C19.6475 10.41 18.1075 9.62748 16.6625 10.825C15.2975 11.9575 15.5175 14.15 15.695 14.9075C15.875 15.665 16.05 15.8925 16.3325 15.875ZM11.915 8.78248C11 9.73248 10.8125 10.4925 10.9125 11.775C11 12.92 11.405 13.7975 11.845 13.6225C12.2125 13.475 12.055 12.795 11.9325 12.4425C11.81 12.09 11.5975 10.4 12.495 9.48498C13.3925 8.56998 14.4125 8.69248 14.87 8.79748C15.3275 8.90248 15.52 9.00748 15.75 8.74498C15.98 8.48248 15.5025 8.05748 15.045 7.95248C14.5875 7.84748 13.125 7.52748 11.915 8.78248Z" fill="#A52914"/>
<path d="M20.5025 14.415C20.5025 15.145 19.955 15.8775 19.235 15.84C18.53 15.805 18.1975 15.125 18.1975 14.3975C18.1975 13.67 18.62 13.0775 19.36 13.025C20.2025 12.965 20.5025 13.685 20.5025 14.415Z" fill="#2C2B2D"/>
<path d="M27.7128 11.9519C27.7612 11.6507 27.5672 11.369 27.2795 11.3228C26.9919 11.2767 26.7195 11.4835 26.6712 11.7847C26.6228 12.086 26.8168 12.3677 27.1044 12.4139C27.3921 12.46 27.6645 12.2532 27.7128 11.9519Z" fill="#FCD4B0"/>
<path d="M28.1118 8.53944C28.2167 8.26027 28.1047 7.95993 27.8618 7.86861C27.6188 7.7773 27.3368 7.92958 27.2318 8.20875C27.1269 8.48792 27.2388 8.78826 27.4818 8.87958C27.7248 8.97089 28.0068 8.81861 28.1118 8.53944Z" fill="#FCD4B0"/>
<path d="M27.19 16.455C27.5462 16.455 27.835 16.1561 27.835 15.7875C27.835 15.4188 27.5462 15.12 27.19 15.12C26.8338 15.12 26.545 15.4188 26.545 15.7875C26.545 16.1561 26.8338 16.455 27.19 16.455Z" fill="#FCD4B0"/>
<path d="M27.1776 19.9987C27.3332 19.6479 27.1913 19.2445 26.8606 19.0978C26.53 18.9512 26.1357 19.1167 25.9801 19.4675C25.8244 19.8184 25.9663 20.2218 26.297 20.3684C26.6277 20.5151 27.0219 20.3496 27.1776 19.9987Z" fill="#FCD4B0"/>
<path d="M27.6867 26.298C27.9548 26.1839 28.0893 25.8968 27.9871 25.6567C27.885 25.4166 27.5848 25.3144 27.3168 25.4284C27.0487 25.5424 26.9142 25.8296 27.0163 26.0697C27.1185 26.3098 27.4186 26.412 27.6867 26.298Z" fill="#FCD4B0"/>
<path d="M24.395 27.2375C24.725 27.2375 24.9925 26.9856 24.9925 26.675C24.9925 26.3643 24.725 26.1125 24.395 26.1125C24.065 26.1125 23.7975 26.3643 23.7975 26.675C23.7975 26.9856 24.065 27.2375 24.395 27.2375Z" fill="#FCD4B0"/>
<path d="M21.185 26.66C21.5025 26.66 21.76 26.3925 21.76 26.0625C21.76 25.7325 21.5025 25.465 21.185 25.465C20.8674 25.465 20.61 25.7325 20.61 26.0625C20.61 26.3925 20.8674 26.66 21.185 26.66Z" fill="#FCD4B0"/>
<path d="M15.225 30.815C15.5688 30.815 15.8475 30.5419 15.8475 30.205C15.8475 29.8681 15.5688 29.595 15.225 29.595C14.8812 29.595 14.6025 29.8681 14.6025 30.205C14.6025 30.5419 14.8812 30.815 15.225 30.815Z" fill="#FCD4B0"/>
<path d="M13.4345 27.2732C13.6741 27.2569 13.8508 26.9835 13.829 26.6626C13.8072 26.3416 13.5952 26.0946 13.3555 26.1109C13.1158 26.1272 12.9392 26.4006 12.961 26.7215C12.9828 27.0425 13.1948 27.2895 13.4345 27.2732Z" fill="#FCD4B0"/>
<path d="M10.5469 26.0642C10.8086 25.8224 10.8459 25.4374 10.6304 25.2041C10.4149 24.9709 10.0281 24.9778 9.76648 25.2196C9.50485 25.4613 9.46747 25.8464 9.68298 26.0796C9.8985 26.3128 10.2853 26.3059 10.5469 26.0642Z" fill="#FCD4B0"/>
<path d="M7.0825 27.65C7.43872 27.65 7.7275 27.3869 7.7275 27.0625C7.7275 26.738 7.43872 26.475 7.0825 26.475C6.72628 26.475 6.4375 26.738 6.4375 27.0625C6.4375 27.3869 6.72628 27.65 7.0825 27.65Z" fill="#FCD4B0"/>
<path d="M6.42501 21.125C6.74257 21.125 7.00001 20.8944 7.00001 20.61C7.00001 20.3255 6.74257 20.095 6.42501 20.095C6.10744 20.095 5.85001 20.3255 5.85001 20.61C5.85001 20.8944 6.10744 21.125 6.42501 21.125Z" fill="#FCD4B0"/>
<path d="M3.96715 20.0438C4.11627 19.7855 4.01905 19.4502 3.75001 19.2949C3.48097 19.1395 3.14199 19.223 2.99287 19.4813C2.84375 19.7395 2.94097 20.0748 3.21001 20.2302C3.47905 20.3855 3.81803 20.302 3.96715 20.0438Z" fill="#FCD4B0"/>
<path d="M1.91864 18.0868C2.15838 17.9947 2.26605 17.6944 2.15913 17.416C2.05221 17.1376 1.77118 16.9865 1.53144 17.0786C1.2917 17.1707 1.18403 17.471 1.29095 17.7494C1.39787 18.0278 1.67889 18.1789 1.91864 18.0868Z" fill="#FCD4B0"/>
<path d="M6.3 13.4475C6.60514 13.4475 6.8525 13.19 6.8525 12.8725C6.8525 12.5549 6.60514 12.2975 6.3 12.2975C5.99486 12.2975 5.7475 12.5549 5.7475 12.8725C5.7475 13.19 5.99486 13.4475 6.3 13.4475Z" fill="#FCD4B0"/>
<path d="M5.99251 10.1425C6.29075 10.1425 6.53251 9.89068 6.53251 9.58002C6.53251 9.26936 6.29075 9.01752 5.99251 9.01752C5.69428 9.01752 5.45251 9.26936 5.45251 9.58002C5.45251 9.89068 5.69428 10.1425 5.99251 10.1425Z" fill="#FCD4B0"/>
<path d="M5.73279 7.14188C5.97995 7.04602 6.09491 6.74812 5.98956 6.47651C5.88422 6.20489 5.59845 6.06242 5.3513 6.15828C5.10414 6.25414 4.98918 6.55204 5.09453 6.82365C5.19987 7.09527 5.48564 7.23775 5.73279 7.14188Z" fill="#FCD4B0"/>
</svg>
