<svg width="32" height="32" viewBox="0 0 32 32" fill="none" xmlns="http://www.w3.org/2000/svg">
<path d="M16.99 9.55251L23.99 21.6775C24.0595 21.8192 24.0921 21.9761 24.0849 22.1337C24.0776 22.2913 24.0306 22.4445 23.9483 22.5791C23.8661 22.7138 23.7511 22.8254 23.6142 22.9038C23.4773 22.9822 23.3228 23.0248 23.165 23.0275H9.16501C8.65751 23.035 8.24001 22.6275 8.23251 22.12C8.23001 21.965 8.26751 21.815 8.34001 21.6775L15.34 9.55251C15.4133 9.39554 15.5299 9.26274 15.676 9.16969C15.8221 9.07665 15.9918 9.02722 16.165 9.02722C16.3383 9.02722 16.5079 9.07665 16.654 9.16969C16.8002 9.26274 16.9167 9.39554 16.99 9.55251Z" fill="#CC3333"/>
<path d="M16.15 10.7525L22.525 21.8025C22.5898 21.931 22.6208 22.0739 22.6149 22.2176C22.609 22.3614 22.5664 22.5013 22.4913 22.624C22.4162 22.7467 22.3109 22.8482 22.1856 22.9188C22.0602 22.9894 21.9189 23.0269 21.775 23.0275H9.025C8.91457 23.0283 8.8051 23.0071 8.70288 22.9654C8.60067 22.9236 8.50772 22.862 8.42941 22.7842C8.3511 22.7063 8.28896 22.6137 8.24659 22.5118C8.20421 22.4098 8.18243 22.3004 8.1825 22.19C8.1825 22.055 8.215 21.9225 8.275 21.8025L14.65 10.7525C14.6934 10.6538 14.7559 10.5647 14.8339 10.4902C14.9119 10.4158 15.0038 10.3575 15.1044 10.3187C15.205 10.2799 15.3123 10.2613 15.4201 10.2641C15.5279 10.2669 15.6341 10.291 15.7325 10.335C15.9175 10.415 16.0675 10.565 16.15 10.7525Z" fill="#F44336"/>
<path d="M15.18 11.9625C14.925 12.2475 10.4825 19.7075 10.4825 19.7075C10.4825 19.7075 10.1025 20.28 10.545 20.6275C10.99 20.9775 11.4025 20.6275 11.5925 20.3425C11.7825 20.0575 15.815 13.36 15.9725 13.0425C16.0413 12.8641 16.0629 12.6711 16.0353 12.4819C16.0077 12.2927 15.9318 12.1138 15.815 11.9625C15.5925 11.74 15.34 11.74 15.18 11.9625Z" fill="#FF8A80"/>
</svg>
