<svg width="32" height="32" viewBox="0 0 32 32" fill="none" xmlns="http://www.w3.org/2000/svg">
<path d="M27.6625 4.78498C27.59 4.75248 27.77 4.45748 25.02 4.38248C24.78 4.37498 23.9875 4.79748 23.0825 4.80998C22.145 4.82248 21.5575 4.43248 21.2425 4.12998C21.1025 3.99498 20.88 4.02998 20.78 4.19498C20.6025 4.49248 20.265 4.87748 19.645 5.09998C18.9275 5.35748 18.28 5.07748 17.915 4.84998C17.7625 4.75498 17.5575 4.82248 17.49 4.98998C17.33 5.38748 16.9675 6.00248 16.185 6.29748C15.4725 6.56748 14.9 6.34248 14.5475 6.11248C14.5071 6.08614 14.4608 6.0702 14.4128 6.06607C14.3648 6.06194 14.3164 6.06975 14.2722 6.0888C14.2279 6.10786 14.189 6.13756 14.1589 6.17528C14.1289 6.21299 14.1087 6.25755 14.1 6.30498C14.0025 6.82748 13.7675 7.59998 13.1975 7.90748C12.5175 8.27248 11.865 8.03748 11.4525 7.79248C11.2625 7.67748 11.0175 7.79748 11 8.01998C10.96 8.61748 10.795 9.54748 10.205 10.07C9.5675 10.635 8.605 10.4825 8.0725 10.3375C7.885 10.2875 7.705 10.4275 7.7025 10.6225C7.6975 11.095 7.62 11.8625 7.22 12.29C6.68249 12.8625 5.8075 13.01 5.8075 13.01L18.3275 25.25C18.62 24.9375 20.3075 22.645 24.8475 21.845C25.28 21.7675 27.2275 21.515 27.415 21.39C27.67 21.2175 27.42 19.5425 27.4325 19.1325L27.53 15.5825C27.5925 13.2675 27.6575 10.9525 27.72 8.63748C27.7425 7.83248 27.765 7.02498 27.785 6.21998C27.7925 5.92998 27.8375 5.61748 27.81 5.32748C27.78 4.96248 27.825 4.85748 27.6625 4.78498Z" fill="#FCE8B2"/>
<path d="M7.81499 10.3925C7.74999 10.445 7.70499 10.5275 7.70249 10.6225C7.69749 11.095 7.61999 11.8625 7.21999 12.29C7.20499 12.305 7.18999 12.3175 7.17749 12.3325L19.295 24.2625L7.81499 10.3925ZM11.1775 7.775C11.0825 7.815 11.01 7.9025 11 8.02C10.96 8.6175 10.795 9.5475 10.205 10.07L10.1675 10.1C13.1475 13.97 20.31 23.3725 20.31 23.3725L11.1775 7.775ZM14.1 6.305C14.0025 6.8275 13.7675 7.6 13.1975 7.9075C13.1775 7.9175 13.16 7.9225 13.14 7.9325C15.0175 11.51 19.325 19.6125 21.15 23.04L21.3 22.965L14.2525 6.1C14.1775 6.14 14.1175 6.2125 14.1 6.305ZM17.49 4.99C17.335 5.38 16.98 5.975 16.2325 6.2775C17.58 10.015 20.885 18.85 22.2675 22.5425C22.3225 22.5225 22.38 22.5025 22.435 22.48L17.755 4.81C17.6425 4.8125 17.535 4.8775 17.49 4.99ZM20.78 4.195C20.6025 4.4925 20.265 4.8775 19.645 5.1C19.6075 5.1125 19.57 5.12 19.5325 5.13L23.11 22.255C23.22 22.2225 23.3325 22.1875 23.4475 22.1575L20.955 4.06C20.8825 4.08 20.82 4.125 20.78 4.195ZM24.8825 4.405C24.55 4.49 23.8575 4.8 23.0825 4.81C22.9875 4.8125 22.8975 4.805 22.8075 4.8C23.095 9.0825 23.6925 17.9875 24.035 22.0075C24.0975 21.9925 24.1625 21.98 24.2275 21.965C24.2575 20.98 24.27 19.705 24.27 19.705L24.8825 4.405Z" fill="#FFBD66"/>
<path d="M19.6025 24.4C19.4875 24.4 19.375 24.3525 19.295 24.26L7.62999 10.7175C7.48499 10.5475 7.50249 10.2925 7.67249 10.1475C7.84249 10.0025 8.09749 10.02 8.24249 10.19L19.91 23.7325C19.9605 23.7912 19.9931 23.8632 20.0038 23.9399C20.0146 24.0165 20.0031 24.0947 19.9707 24.165C19.9383 24.2354 19.8864 24.2949 19.8211 24.3366C19.7558 24.3782 19.6799 24.4002 19.6025 24.4ZM20.5825 23.755C20.445 23.755 20.3125 23.685 20.2375 23.56L10.7575 7.95499C10.7021 7.86342 10.6852 7.75364 10.7105 7.64964C10.7358 7.54565 10.8012 7.45589 10.8925 7.39999C10.9841 7.3446 11.0938 7.3277 11.1978 7.35299C11.3018 7.37829 11.3916 7.44372 11.4475 7.53499L20.9275 23.14C20.9647 23.2013 20.9849 23.2714 20.9861 23.3431C20.9873 23.4148 20.9695 23.4856 20.9344 23.5481C20.8993 23.6107 20.8482 23.6628 20.7864 23.6991C20.7246 23.7355 20.6542 23.7548 20.5825 23.755ZM21.195 23.03L13.9425 6.33749C13.855 6.13249 13.9475 5.89499 14.1525 5.80499C14.3575 5.71749 14.595 5.80999 14.685 6.01499L21.9375 22.7075C21.9375 22.7075 22.0425 23.0425 21.71 23.2025C21.3675 23.37 21.195 23.03 21.195 23.03ZM22.6275 22.89C22.45 22.89 22.2875 22.7725 22.2375 22.595L17.3375 5.06499C17.2775 4.84999 17.4025 4.62749 17.6175 4.56749C17.8325 4.50749 18.055 4.63249 18.115 4.84749L23.015 22.3775C23.0318 22.4374 23.0346 22.5004 23.0231 22.5615C23.0115 22.6227 22.986 22.6803 22.9485 22.7299C22.9109 22.7796 22.8624 22.8199 22.8068 22.8476C22.7511 22.8754 22.6897 22.8899 22.6275 22.89ZM23.56 22.61C23.3625 22.61 23.1875 22.4625 23.16 22.26L20.66 4.21749C20.63 3.99499 20.785 3.79249 21.005 3.76249C21.225 3.72999 21.43 3.88749 21.46 4.10749L23.96 22.15C23.99 22.37 23.835 22.575 23.615 22.605C23.5975 22.6075 23.58 22.61 23.56 22.61Z" fill="#6D4C41"/>
<path d="M24.12 21.8425C24.1125 22.175 24.3675 22.4525 24.7 22.47L28.545 22.6175C28.8201 22.6248 29.094 22.5779 29.351 22.4793C29.608 22.3807 29.843 22.2325 30.0427 22.043C30.2424 21.8536 30.4027 21.6266 30.5147 21.3752C30.6266 21.1237 30.6879 20.8527 30.695 20.5775L31.06 6.59253C31.0673 6.31738 31.0203 6.0435 30.9218 5.78651C30.8232 5.52953 30.6749 5.29449 30.4855 5.09482C30.296 4.89516 30.0691 4.73478 29.8176 4.62286C29.5662 4.51093 29.2951 4.44966 29.02 4.44253L25.2425 4.30003C25.1564 4.29549 25.0702 4.30823 24.9891 4.3375C24.908 4.36677 24.8336 4.41197 24.7702 4.47045C24.7069 4.52893 24.6558 4.59949 24.6202 4.67799C24.5845 4.75649 24.5649 4.84133 24.5625 4.92753L24.12 21.8425ZM16.7275 27.39L14.29 29.9075C14.1896 30.0114 14.0697 30.0944 13.9372 30.1519C13.8047 30.2094 13.6621 30.2401 13.5177 30.2425C13.3732 30.2448 13.2298 30.2186 13.0955 30.1654C12.9612 30.1122 12.8387 30.0331 12.735 29.9325L1.275 18.835C1.17114 18.7346 1.0881 18.6147 1.03063 18.4822C0.973153 18.3497 0.942375 18.2071 0.940053 18.0627C0.937731 17.9183 0.963911 17.7748 1.01709 17.6405C1.07028 17.5062 1.14942 17.3837 1.25 17.28L3.6875 14.7625C3.78789 14.6587 3.90778 14.5756 4.0403 14.5182C4.17283 14.4607 4.31538 14.4299 4.45981 14.4276C4.60424 14.4253 4.74771 14.4514 4.88201 14.5046C5.01632 14.5578 5.13881 14.637 5.2425 14.7375L16.7 25.835C17.1375 26.2575 17.15 26.9525 16.7275 27.39Z" fill="#CF381A"/>
<path d="M2.45749 17.4625C2.36595 17.5568 2.2939 17.6683 2.24548 17.7905C2.19706 17.9127 2.17321 18.0432 2.1753 18.1747C2.17739 18.3061 2.20537 18.4358 2.25766 18.5564C2.30994 18.677 2.38549 18.7861 2.47999 18.8775C2.58977 18.9833 2.72238 19.0624 2.86759 19.1088C3.0128 19.1551 3.16673 19.1675 3.31749 19.145C3.28499 19.4425 3.37999 19.75 3.61249 19.9725C3.72227 20.0783 3.85488 20.1574 4.00009 20.2038C4.1453 20.2501 4.29923 20.2625 4.44999 20.24C4.41749 20.5375 4.51249 20.845 4.74499 21.0675C4.85477 21.1733 4.98738 21.2524 5.13259 21.2988C5.2778 21.3451 5.43173 21.3575 5.58249 21.335C5.54999 21.6325 5.64499 21.94 5.87749 22.1625C5.98727 22.2683 6.11988 22.3474 6.26509 22.3938C6.4103 22.4401 6.56423 22.4525 6.71499 22.43C6.68249 22.7275 6.77749 23.035 7.00999 23.2575C7.24249 23.48 7.54999 23.5675 7.84749 23.525C7.81499 23.8225 7.90999 24.13 8.14249 24.3525C8.25227 24.4583 8.38488 24.5374 8.53009 24.5838C8.6753 24.6301 8.82923 24.6425 8.97999 24.62C8.94749 24.9175 9.04249 25.225 9.27499 25.4475C9.50749 25.67 9.81499 25.7575 10.1125 25.715C10.08 26.0125 10.175 26.32 10.4075 26.5425C10.64 26.765 10.9475 26.8525 11.245 26.81C11.2125 27.1075 11.3075 27.415 11.54 27.6375C11.7725 27.86 12.08 27.9475 12.3775 27.905C12.345 28.2025 12.44 28.51 12.6725 28.7325C12.7668 28.824 12.8783 28.8961 13.0005 28.9445C13.1227 28.9929 13.2532 29.0168 13.3847 29.0147C13.5161 29.0126 13.6458 28.9846 13.7664 28.9323C13.887 28.88 13.9961 28.8045 14.0875 28.71L16.5375 26.18L4.92249 14.93L2.45749 17.4625Z" fill="#822322"/>
<path d="M2.66 17.2525C2.56846 17.3468 2.49641 17.4583 2.44799 17.5805C2.39957 17.7027 2.37572 17.8332 2.37781 17.9646C2.3799 18.0961 2.40789 18.2258 2.46017 18.3464C2.51245 18.467 2.58801 18.5761 2.6825 18.6675C2.79228 18.7732 2.9249 18.8524 3.07011 18.8987C3.21532 18.9451 3.36924 18.9575 3.52 18.935C3.4875 19.2325 3.5825 19.54 3.815 19.7625C3.92478 19.8682 4.0574 19.9474 4.20261 19.9937C4.34782 20.0401 4.50174 20.0525 4.6525 20.03C4.62 20.3275 4.715 20.635 4.9475 20.8575C5.05728 20.9632 5.1899 21.0424 5.33511 21.0887C5.48032 21.1351 5.63424 21.1475 5.785 21.125C5.7525 21.4225 5.8475 21.73 6.08 21.9525C6.18978 22.0582 6.3224 22.1374 6.46761 22.1837C6.61282 22.2301 6.76674 22.2425 6.9175 22.22C6.885 22.5175 6.98 22.825 7.2125 23.0475C7.32228 23.1532 7.4549 23.2324 7.60011 23.2787C7.74532 23.3251 7.89924 23.3375 8.05 23.315C8.0175 23.6125 8.11251 23.92 8.34501 24.1425C8.57751 24.365 8.885 24.4525 9.1825 24.41C9.15 24.7075 9.245 25.015 9.4775 25.2375C9.58728 25.3432 9.7199 25.4224 9.86511 25.4687C10.0103 25.5151 10.1642 25.5275 10.315 25.505C10.2825 25.8025 10.3775 26.11 10.61 26.3325C10.8425 26.555 11.15 26.6425 11.4475 26.6C11.415 26.8975 11.51 27.205 11.7425 27.4275C11.8523 27.5332 11.9849 27.6124 12.1301 27.6587C12.2753 27.7051 12.4292 27.7175 12.58 27.695C12.5475 27.9925 12.6425 28.3 12.875 28.5225C12.9693 28.614 13.0808 28.6861 13.203 28.7345C13.3252 28.7829 13.4557 28.8068 13.5872 28.8047C13.7186 28.8026 13.8483 28.7746 13.9689 28.7223C14.0895 28.67 14.1986 28.5945 14.29 28.5L16.74 25.97L5.125 14.72L2.66 17.2525Z" fill="#FFF3E0"/>
<path d="M3.345 16.5275L14.9575 27.775L16.7225 25.97L5.1075 14.72L3.345 16.5275Z" fill="#FFCC80"/>
<path d="M6.01499 16.6975L4.23749 18.5325C4.15999 18.6125 4.02999 18.615 3.94999 18.5375L3.66749 18.2625C3.62898 18.2249 3.60686 18.1736 3.60593 18.1198C3.60499 18.066 3.62531 18.014 3.66249 17.975L5.43999 16.14C5.51749 16.06 5.64749 16.0575 5.72749 16.135L6.00999 16.41C6.08999 16.4875 6.09249 16.6175 6.01499 16.6975ZM6.78749 17.4475L5.00999 19.2825C4.93249 19.3625 4.80249 19.365 4.72249 19.2875L4.43999 19.0125C4.40148 18.9749 4.37936 18.9236 4.37843 18.8698C4.37749 18.816 4.39781 18.764 4.43499 18.725L6.21249 16.89C6.28999 16.81 6.41999 16.8075 6.49999 16.885L6.78249 17.16C6.86249 17.2375 6.86499 17.365 6.78749 17.4475ZM8.33249 18.945L6.55499 20.78C6.47749 20.86 6.34749 20.8625 6.26749 20.785L5.98499 20.51C5.94648 20.4724 5.92436 20.4211 5.92343 20.3673C5.92249 20.3135 5.94281 20.2615 5.97999 20.2225L7.75749 18.3875C7.83499 18.3075 7.96499 18.305 8.04499 18.3825L8.32749 18.6575C8.3471 18.6758 8.36282 18.6979 8.37372 18.7224C8.38462 18.7469 8.39048 18.7734 8.39095 18.8002C8.39141 18.827 8.38648 18.8537 8.37644 18.8786C8.36639 18.9034 8.35145 18.926 8.33249 18.945ZM9.10749 19.6925L7.32999 21.5275C7.25249 21.6075 7.12249 21.61 7.04249 21.5325L6.75999 21.2575C6.72148 21.2199 6.69936 21.1686 6.69843 21.1148C6.69749 21.061 6.71781 21.009 6.75499 20.97L8.53249 19.135C8.60999 19.055 8.73999 19.0525 8.81999 19.13L9.10249 19.405C9.18249 19.485 9.18499 19.6125 9.10749 19.6925ZM9.87999 20.4425L8.10249 22.2775C8.02499 22.3575 7.89499 22.36 7.81499 22.2825L7.53249 22.0075C7.49398 21.9699 7.47186 21.9186 7.47093 21.8648C7.46999 21.811 7.49031 21.759 7.52749 21.72L9.30499 19.885C9.38249 19.805 9.51249 19.8025 9.59249 19.88L9.87499 20.155C9.95499 20.2325 9.95749 20.3625 9.87999 20.4425ZM11.425 21.94L9.64999 23.775C9.57249 23.855 9.44249 23.8575 9.36249 23.78L9.07999 23.505C9.04148 23.4674 9.01936 23.4161 9.01843 23.3623C9.01749 23.3085 9.03781 23.2565 9.07499 23.2175L10.8525 21.3825C10.93 21.3025 11.06 21.3 11.14 21.3775L11.4225 21.6525C11.5025 21.73 11.505 21.86 11.425 21.94ZM12.2 22.6875L10.4225 24.5225C10.345 24.6025 10.215 24.605 10.135 24.5275L9.85249 24.2525C9.81398 24.2149 9.79186 24.1636 9.79093 24.1098C9.78999 24.056 9.81031 24.004 9.84749 23.965L11.625 22.13C11.7025 22.05 11.8325 22.0475 11.9125 22.125L12.195 22.4C12.275 22.48 12.2775 22.6075 12.2 22.6875ZM13.745 24.1875L11.9675 26.0225C11.89 26.1025 11.76 26.105 11.68 26.0275L11.3975 25.7525C11.359 25.7149 11.3369 25.6636 11.3359 25.6098C11.335 25.556 11.3553 25.504 11.3925 25.465L13.17 23.63C13.2475 23.55 13.3775 23.5475 13.4575 23.625L13.74 23.9C13.7596 23.9183 13.7753 23.9404 13.7862 23.9649C13.7971 23.9894 13.803 24.0159 13.8034 24.0427C13.8039 24.0695 13.799 24.0962 13.7889 24.1211C13.7789 24.1459 13.7639 24.1685 13.745 24.1875ZM14.52 24.935L12.7425 26.77C12.665 26.85 12.535 26.8525 12.455 26.775L12.1725 26.5C12.134 26.4624 12.1119 26.4111 12.1109 26.3573C12.11 26.3035 12.1303 26.2515 12.1675 26.2125L13.945 24.3775C14.0225 24.2975 14.1525 24.295 14.2325 24.3725L14.515 24.6475C14.595 24.725 14.5975 24.855 14.52 24.935ZM15.2925 25.685L13.515 27.52C13.4375 27.6 13.3075 27.6025 13.2275 27.525L12.945 27.25C12.9065 27.2124 12.8844 27.1611 12.8834 27.1073C12.8825 27.0535 12.9028 27.0015 12.94 26.9625L14.7175 25.1275C14.795 25.0475 14.925 25.045 15.005 25.1225L15.2875 25.3975C15.3675 25.475 15.37 25.6025 15.2925 25.685Z" fill="#6D4238"/>
<path d="M18.6175 25.4375L16.555 27.5675C16.4167 27.7103 16.2274 27.7924 16.0286 27.7957C15.8299 27.7989 15.6379 27.7232 15.495 27.585L3.535 15.9975C3.3922 15.8592 3.31015 15.6699 3.30687 15.4711C3.30358 15.2724 3.37934 15.0805 3.5175 14.9375L5.58 12.8075C5.71829 12.6647 5.90762 12.5827 6.10638 12.5794C6.30513 12.5761 6.49707 12.6519 6.64 12.79L18.6025 24.375C18.6733 24.4438 18.7299 24.5258 18.769 24.6164C18.8081 24.707 18.8289 24.8045 18.8303 24.9032C18.8317 25.0018 18.8136 25.0998 18.7771 25.1915C18.7406 25.2832 18.6864 25.3668 18.6175 25.4375Z" fill="#CF381A"/>
<path d="M17.495 25.015L16.115 26.44C15.9767 26.5828 15.7874 26.6648 15.5886 26.6681C15.3899 26.6714 15.1979 26.5956 15.055 26.4575L4.17501 15.92C4.03222 15.7817 3.95016 15.5924 3.94688 15.3936C3.9436 15.1948 4.01936 15.0029 4.15751 14.86L5.53751 13.435C5.6758 13.2922 5.86513 13.2101 6.06389 13.2068C6.26265 13.2036 6.45458 13.2793 6.59751 13.4175L17.475 23.955C17.5467 24.0228 17.6041 24.1042 17.644 24.1945C17.6839 24.2848 17.7054 24.3821 17.7072 24.4808C17.7091 24.5795 17.6913 24.6775 17.6549 24.7692C17.6184 24.8609 17.5641 24.9445 17.495 25.015ZM27.815 21.7125L26.115 21.675C25.707 21.6657 25.3194 21.4948 25.0372 21.2C24.7551 20.9052 24.6014 20.5105 24.61 20.1025L24.92 6.07748C24.94 5.22748 25.6425 4.55498 26.4925 4.57248L28.1925 4.60998C29.0425 4.62998 29.715 5.33248 29.6975 6.18248L29.3875 20.2075C29.3782 20.6155 29.2074 21.0031 28.9126 21.2852C28.6177 21.5674 28.223 21.7211 27.815 21.7125Z" fill="#FF5722"/>
<path d="M26.045 11.6975C26.346 11.6975 26.59 11.4535 26.59 11.1525C26.59 10.8515 26.346 10.6075 26.045 10.6075C25.744 10.6075 25.5 10.8515 25.5 11.1525C25.5 11.4535 25.744 11.6975 26.045 11.6975Z" fill="#6D4238"/>
<path d="M25.9875 14.0275C26.2885 14.0275 26.5325 13.7835 26.5325 13.4825C26.5325 13.1815 26.2885 12.9375 25.9875 12.9375C25.6865 12.9375 25.4425 13.1815 25.4425 13.4825C25.4425 13.7835 25.6865 14.0275 25.9875 14.0275Z" fill="#6D4238"/>
<path d="M25.93 16.3575C26.231 16.3575 26.475 16.1135 26.475 15.8125C26.475 15.5115 26.231 15.2675 25.93 15.2675C25.629 15.2675 25.385 15.5115 25.385 15.8125C25.385 16.1135 25.629 16.3575 25.93 16.3575Z" fill="#6D4238"/>
<path d="M25.8725 18.685C26.1735 18.685 26.4175 18.441 26.4175 18.14C26.4175 17.839 26.1735 17.595 25.8725 17.595C25.5715 17.595 25.3275 17.839 25.3275 18.14C25.3275 18.441 25.5715 18.685 25.8725 18.685Z" fill="#6D4238"/>
<path d="M28.595 9.34C28.896 9.34 29.14 9.096 29.14 8.795C29.14 8.494 28.896 8.25 28.595 8.25C28.294 8.25 28.05 8.494 28.05 8.795C28.05 9.096 28.294 9.34 28.595 9.34Z" fill="#6D4238"/>
<path d="M28.5375 11.67C28.8385 11.67 29.0825 11.426 29.0825 11.125C29.0825 10.824 28.8385 10.58 28.5375 10.58C28.2365 10.58 27.9925 10.824 27.9925 11.125C27.9925 11.426 28.2365 11.67 28.5375 11.67Z" fill="#6D4238"/>
<path d="M28.48 13.9975C28.781 13.9975 29.025 13.7535 29.025 13.4525C29.025 13.1515 28.781 12.9075 28.48 12.9075C28.179 12.9075 27.935 13.1515 27.935 13.4525C27.935 13.7535 28.179 13.9975 28.48 13.9975Z" fill="#6D4238"/>
<path d="M28.42 16.3275C28.721 16.3275 28.965 16.0835 28.965 15.7825C28.965 15.4815 28.721 15.2375 28.42 15.2375C28.119 15.2375 27.875 15.4815 27.875 15.7825C27.875 16.0835 28.119 16.3275 28.42 16.3275Z" fill="#6D4238"/>
<path d="M27.32 10.52C27.621 10.52 27.865 10.276 27.865 9.97499C27.865 9.674 27.621 9.42999 27.32 9.42999C27.019 9.42999 26.775 9.674 26.775 9.97499C26.775 10.276 27.019 10.52 27.32 10.52Z" fill="#6D4238"/>
<path d="M27.2625 12.8475C27.5635 12.8475 27.8075 12.6035 27.8075 12.3025C27.8075 12.0015 27.5635 11.7575 27.2625 11.7575C26.9615 11.7575 26.7175 12.0015 26.7175 12.3025C26.7175 12.6035 26.9615 12.8475 27.2625 12.8475Z" fill="#6D4238"/>
<path d="M27.205 15.1775C27.506 15.1775 27.75 14.9335 27.75 14.6325C27.75 14.3315 27.506 14.0875 27.205 14.0875C26.904 14.0875 26.66 14.3315 26.66 14.6325C26.66 14.9335 26.904 15.1775 27.205 15.1775Z" fill="#6D4238"/>
<path d="M27.1475 17.5075C27.4485 17.5075 27.6925 17.2635 27.6925 16.9625C27.6925 16.6615 27.4485 16.4175 27.1475 16.4175C26.8465 16.4175 26.6025 16.6615 26.6025 16.9625C26.6025 17.2635 26.8465 17.5075 27.1475 17.5075Z" fill="#6D4238"/>
</svg>
