<svg width="32" height="32" viewBox="0 0 32 32" fill="none" xmlns="http://www.w3.org/2000/svg">
<path d="M21.9625 1.54749H4.2V30.41H27.855V7.19999L21.9625 1.54749Z" fill="white"/>
<path d="M8.33501 10.2625H23.625M8.33501 13.92H23.625M8.33501 17.575H23.625M8.33501 21.2325H23.625M8.33501 24.89H14.8725" stroke="#B0BEC5" stroke-width="0.96625" stroke-miterlimit="10" stroke-linecap="round"/>
<path d="M27.3625 5.8975L23.1975 1.72C22.7074 1.25735 22.0589 0.999736 21.385 1H4.26C3.8725 1 3.5575 1.315 3.5575 1.7025V30.2975C3.5575 30.685 3.8725 31 4.26 31H27.7425C28.13 31 28.445 30.685 28.445 30.2975V7.82C28.4425 7.0925 27.8925 6.3975 27.3625 5.8975ZM27.4425 30H4.5575V2H20.7225C21.2525 2 21.685 2.43 21.685 2.9625V7.4325H26.02C26.805 7.4325 27.4425 7.865 27.4425 8.855V30Z" fill="#6FBFF0"/>
</svg>
