<svg width="32" height="32" viewBox="0 0 32 32" fill="none" xmlns="http://www.w3.org/2000/svg">
<path d="M8.18499 14.95C8.07999 14.845 1.68749 13.4375 1.68749 13.4375C1.68749 13.4375 1.31499 14.035 1.42249 14.3875C1.48249 14.585 2.87749 16.2075 4.31249 17.7C5.44499 18.88 6.73249 20.08 6.91999 20.765C7.20749 21.82 7.23749 23.5125 7.23749 23.5125L3.06999 26.0575C3.06999 26.0575 3.57999 28.6525 6.88499 28.55C9.97249 28.455 10.1325 25.185 11.1125 25.1675C11.2775 25.165 11.505 25.1075 11.9125 25.545C12.9225 26.63 14.8125 28.725 15.445 29.36C16.29 30.205 16.89 31.05 17.2075 31.015C17.525 30.98 20.2025 28.585 20.9775 27.845C21.7525 27.105 22.4575 26.225 22.4575 25.485C22.4575 24.745 21.365 24.1825 21.365 24.1825L15.34 24.8875L8.18499 14.95ZM25.905 5.405C26.01 5.405 28.6875 4.0675 28.6875 4.0675C28.6875 4.0675 30.0625 6.85001 28.3 8.43501C26.5375 10.02 26.15 9.12251 25.305 10.055C24.66 10.7675 24.9875 12.24 24.9875 12.24L30.225 17.275C30.225 17.275 30.5175 17.8075 30.3075 18.195C30.1575 18.47 28.395 20.4425 27.03 21.86C26.415 22.4975 25.5575 22.7125 25.0925 22.6C23.93 22.3175 23.755 21.4025 23.5425 19.7825C23.33 18.1625 21.935 18.1875 21.4275 18.2675C20.3575 18.4375 19.66 19.0625 19.66 19.0625C19.66 19.0625 13.36 11.47 13.43 11.2575C13.5 11.045 13.7475 9.46 13.0075 8.7925C12.2675 8.1225 10.79 7.7825 10.225 7.395C9.66249 7.0075 9.58749 6.27 9.68999 5.555C9.79249 4.84 14.3475 4.8475 14.3475 4.8475C14.3475 4.8475 22.2025 9.18 22.24 9.005C22.275 8.82 25.905 5.405 25.905 5.405Z" fill="#B0B0AF"/>
<path d="M22.03 6.24749C22.22 5.55249 22.0025 3.84499 23.33 2.71499C24.6575 1.58499 26.7225 1.72499 27.965 2.91249C29.2075 4.09999 29.4075 6.33249 27.9375 7.80249C26.4675 9.27249 25.79 8.45249 24.97 9.24499C24.15 10.0375 24.2925 10.6875 24.8 11.1675C25.31 11.6475 30.37 16.935 30.2275 17.2725C30.085 17.61 26.6375 21.5125 26.0725 21.795C25.5075 22.0775 24.5175 22.05 24.32 21.1175C24.1225 20.185 24.4625 18.32 23.0475 17.8375C21.635 17.3575 21.0125 17.7525 19.6275 19.2225C18.2425 20.6925 17.62 22.3025 18.75 23.1225C19.88 23.9425 21.295 23.6025 21.86 24.565C22.425 25.5275 21.5775 26.4025 20.08 27.7875C18.5825 29.1725 17.4225 30.3025 17.225 30.1625C17.0275 30.02 12.73 25.47 12.3075 24.99C11.8825 24.51 11.0625 24.085 10.2725 24.82C9.47999 25.555 9.33999 27.9575 6.00499 27.9575C2.66999 27.9575 2.26999 24.34 3.45749 22.8425C4.64499 21.345 7.27249 21.2025 7.32999 20.185C7.35499 19.7175 5.91249 18.4575 4.61749 17.105C3.09499 15.5125 1.67999 13.825 1.61999 13.6275C1.50749 13.26 4.78499 10.0375 5.40749 9.58499C6.02999 9.13249 6.73499 9.41499 7.07499 9.78249C7.41499 10.15 7.49999 11.28 7.78249 11.93C8.06499 12.58 9.39249 15.4075 12.5875 12.185C15.7525 8.98999 12.7575 7.60499 11.74 7.32249C10.7225 7.03999 9.98999 6.94749 9.70499 5.90999C9.47999 5.08999 10.7225 4.12999 12.0225 2.88499C13.3225 1.63999 14.085 0.98999 14.425 0.98999C14.765 0.98999 19.315 5.87999 19.91 6.44499C20.505 7.00999 20.87 7.15249 21.295 7.03749C21.7175 6.92749 21.945 6.55999 22.03 6.24749Z" fill="url(#paint0_radial_509_6683)"/>
<defs>
<radialGradient id="paint0_radial_509_6683" cx="0" cy="0" r="1" gradientUnits="userSpaceOnUse" gradientTransform="translate(15.543 -7.07501) scale(29.8062)">
<stop offset="0.508" stop-color="#B7D118"/>
<stop offset="0.572" stop-color="#B2D019"/>
<stop offset="0.643" stop-color="#A5CD1D"/>
<stop offset="0.717" stop-color="#8FC922"/>
<stop offset="0.793" stop-color="#70C22A"/>
<stop offset="0.871" stop-color="#48BA34"/>
<stop offset="0.949" stop-color="#18B040"/>
<stop offset="0.981" stop-color="#02AB46"/>
</radialGradient>
</defs>
</svg>
