<svg width="32" height="32" viewBox="0 0 32 32" fill="none" xmlns="http://www.w3.org/2000/svg">
<path d="M16 31C24.2843 31 31 24.2843 31 16C31 7.71573 24.2843 1 16 1C7.71573 1 1 7.71573 1 16C1 24.2843 7.71573 31 16 31Z" fill="#455A64"/>
<path d="M8.595 17.0025C12.9625 14.3975 19.8425 14.9325 23.35 16.7225C24.9725 17.55 25.765 18.445 27.78 19.5125C29.49 20.42 29.7325 19.6875 29.8375 19.3375C30.185 18.1125 30.12 17.335 30.12 15.9975C30.1225 8.20001 23.8 1.4425 16 1.4425C8.2 1.4425 1.8775 8.2 1.8775 16C1.8775 17.0775 1.8775 17.46 2.105 18.4675C2.77 20.7 6.4325 18.2925 8.595 17.0025Z" fill="black"/>
<path d="M26.0125 27.14L22.595 23.0825L20.5125 22.965L23.3375 29.0825C23.3375 29.0825 23.71 28.85 24.6975 28.21C25.6875 27.5725 26.0125 27.14 26.0125 27.14Z" fill="#82AEC0"/>
<path d="M21.1875 22.5475L24.92 28.06C24.92 28.06 24.2625 28.5375 24.0525 28.6525C23.8425 28.77 23.3325 29.0875 23.3325 29.0875L20.5125 22.9675L21.1875 22.5475Z" fill="#263238"/>
<path d="M5.98999 27.14L9.40749 23.0825L11.49 22.965L8.66499 29.0825C8.66499 29.0825 8.29249 28.85 7.30499 28.21C6.31499 27.5725 5.98999 27.14 5.98999 27.14Z" fill="#82AEC0"/>
<path d="M10.815 22.5475L7.08249 28.06C7.08249 28.06 7.73999 28.5375 7.94999 28.6525C8.15999 28.77 8.66999 29.0875 8.66999 29.0875L11.49 22.965L10.815 22.5475Z" fill="#263238"/>
<path d="M8.04501 23.1475C8.06001 23.71 8.11501 24.3225 8.24251 24.915C8.28251 25.1025 8.39001 25.2975 8.57001 25.2975H9.05751C9.24001 25.2975 9.42251 25.2025 9.72251 25.8275C9.80501 26.0025 9.91501 26.11 10.025 26.165V26.1725C14.135 27.6225 19.745 26.9875 21.7875 26.1975C21.955 26.2575 22.2225 26.1775 22.3875 25.8275C22.6875 25.2 22.8725 25.2975 23.0525 25.2975H23.54C23.72 25.2975 23.8275 25.1025 23.8675 24.915C23.995 24.3225 24.05 23.7075 24.065 23.1475H8.04501Z" fill="black"/>
<path d="M24.405 23.3H7.59499C7.44978 23.3 7.31052 23.2423 7.20784 23.1396C7.10517 23.037 7.04749 22.8977 7.04749 22.7525V20.0525H24.9475V22.7525C24.95 23.055 24.705 23.3 24.405 23.3Z" fill="#82AEC0"/>
<path d="M24.955 20.5625H7.04749V21.3125H13.4675V22.6025H18.36V21.3125H24.955V20.5625Z" fill="#37474F"/>
<path d="M24.79 20.64H7.21001C6.99751 20.64 6.82251 20.475 6.82251 20.27V10.7325C6.82251 7.20249 8.17001 3.99249 14.805 3.99249H17.3775C23.2075 3.99249 25.175 7.20249 25.175 10.7325V20.27C25.175 20.475 25.0025 20.64 24.79 20.64Z" fill="#F44336"/>
<path d="M6.82999 10.355C6.82999 11.6475 8.01749 11.9275 8.01749 11.9275L12.6025 11.915L14.74 11.9125H15.2225L16.1675 11.91L18.21 11.905L23.9975 11.8925C23.9975 11.8925 25.17 11.52 25.17 10.355C25.17 9.19002 24.835 3.91752 17.38 3.99002H14.805C6.83249 3.89002 6.82999 9.06252 6.82999 10.355Z" fill="#82AEC0"/>
<path d="M17.765 19.875H14.235C14.0062 19.875 13.7869 19.7841 13.6251 19.6224C13.4634 19.4606 13.3725 19.2413 13.3725 19.0125V9.74251C13.3725 9.26751 13.7575 8.88 14.235 8.88H17.7675C18.2425 8.88 18.63 9.26501 18.63 9.74251V19.0125C18.6294 19.2415 18.538 19.4609 18.3758 19.6226C18.2137 19.7843 17.994 19.8751 17.765 19.875Z" fill="#F44336" stroke="#9B1313" stroke-width="0.5" stroke-miterlimit="10"/>
<path d="M12.21 5.78748C12.5375 5.78748 12.6625 5.97998 12.6625 6.21998V15.525C12.6625 15.765 12.46 15.9575 12.21 15.9575H8.49251C8.24251 15.9575 8.04001 15.765 8.04001 15.525V10.7525C8.04001 6.30498 11.4125 5.78748 12.21 5.78748ZM17.2725 9.63998H14.7275C14.36 9.63998 14.0625 9.93748 14.0625 10.305V15.32C14.0625 15.6875 14.36 15.985 14.7275 15.985H17.27C17.6375 15.985 17.935 15.6875 17.935 15.32V10.305C17.935 9.93748 17.6375 9.63998 17.2725 9.63998Z" fill="#BAE2FD"/>
<path d="M12.21 5.78748C12.5375 5.78748 12.6625 5.97998 12.6625 6.21998V15.525C12.6625 15.765 12.46 15.9575 12.21 15.9575H8.49251C8.24251 15.9575 8.04001 15.765 8.04001 15.525V10.7525C8.04001 6.30498 11.4125 5.78748 12.21 5.78748ZM17.2725 9.63998H14.7275C14.36 9.63998 14.0625 9.93748 14.0625 10.305V15.32C14.0625 15.6875 14.36 15.985 14.7275 15.985H17.27C17.6375 15.985 17.935 15.6875 17.935 15.32V10.305C17.935 9.93748 17.6375 9.63998 17.2725 9.63998Z" fill="#37474F"/>
<path d="M17.9125 7.79249H14.0875C13.7025 7.79249 13.39 7.47999 13.39 7.09499V6.37249C13.39 5.98749 13.7025 5.67499 14.0875 5.67499H17.9125C18.2975 5.67499 18.61 5.98749 18.61 6.37249V7.09499C18.61 7.48249 18.2975 7.79249 17.9125 7.79249Z" fill="black"/>
<path d="M13.9825 6.23749H14.7325V7.23249H13.9825V6.23749ZM17.2675 6.23749H18.0175V7.23249H17.2675V6.23749ZM15.1325 6.23749H15.6275V7.23249H15.1325V6.23749ZM16.5525 6.23749H16.9V7.23249H16.5525V6.23749Z" fill="#FFEB3B"/>
<path d="M11.9425 6.52753C12.2125 6.52753 12.315 6.68753 12.315 6.88503V14.9325C12.315 15.13 12.1475 15.29 11.9425 15.29H8.9675C8.7625 15.29 8.595 15.13 8.595 14.9325V10.79C8.595 7.12503 11.285 6.52753 11.9425 6.52753ZM17.0725 10.2325H14.9975C14.7225 10.2325 14.4975 10.4575 14.4975 10.7325V14.8775C14.4975 15.1525 14.7225 15.3775 14.9975 15.3775H17.0725C17.3475 15.3775 17.5725 15.1525 17.5725 14.8775V10.7325C17.5725 10.4575 17.3475 10.2325 17.0725 10.2325Z" fill="#BAE2FD"/>
<path d="M9.17499 19.3725C9.82945 19.3725 10.36 18.842 10.36 18.1875C10.36 17.533 9.82945 17.0025 9.17499 17.0025C8.52053 17.0025 7.98999 17.533 7.98999 18.1875C7.98999 18.842 8.52053 19.3725 9.17499 19.3725Z" fill="#FFFF8D"/>
<path d="M22.8325 19.3725C23.487 19.3725 24.0175 18.842 24.0175 18.1875C24.0175 17.533 23.487 17.0025 22.8325 17.0025C22.178 17.0025 21.6475 17.533 21.6475 18.1875C21.6475 18.842 22.178 19.3725 22.8325 19.3725Z" fill="#FFFF8D"/>
<path d="M19.945 5.78748C19.6175 5.78748 19.4925 5.97998 19.4925 6.21998V15.525C19.4925 15.765 19.695 15.9575 19.945 15.9575H23.6625C23.9125 15.9575 24.115 15.765 24.115 15.525V10.7525C24.1175 6.30498 20.745 5.78748 19.945 5.78748Z" fill="#37474F"/>
<path d="M20.215 6.52753C19.945 6.52753 19.8425 6.68753 19.8425 6.88503V14.9325C19.8425 15.13 20.01 15.29 20.215 15.29H23.19C23.395 15.29 23.5625 15.13 23.5625 14.9325V10.79C23.5625 7.12503 20.8725 6.52753 20.215 6.52753Z" fill="#BAE2FD"/>
<path d="M8.60751 10.3525L12.315 14.06V12.295L8.90001 8.88001C8.90001 8.88001 8.77251 9.18751 8.68751 9.60501C8.62001 9.92501 8.60751 10.3525 8.60751 10.3525ZM19.84 10.34L23.5625 14.06V12.295L19.8425 8.57501L19.84 10.34ZM14.4975 10.6975L17.5725 13.7725V12.0075L15.7275 10.2325H14.96C14.705 10.2325 14.4975 10.44 14.4975 10.6975Z" fill="white"/>
<path d="M11.3475 25.725L11.6825 25.11C11.7575 24.9725 11.9025 24.885 12.06 24.885H19.5675C19.7275 24.885 19.875 24.975 19.9475 25.115L20.275 25.7425C20.2915 25.7748 20.2995 25.8108 20.2982 25.8471C20.2969 25.8834 20.2864 25.9187 20.2676 25.9498C20.2488 25.9808 20.2224 26.0066 20.1909 26.0245C20.1594 26.0425 20.1238 26.0521 20.0875 26.0525L11.5325 26.0375C11.4959 26.0374 11.4599 26.0279 11.4281 26.0097C11.3963 25.9915 11.3698 25.9654 11.3511 25.9339C11.3325 25.9024 11.3223 25.8665 11.3217 25.8299C11.3211 25.7933 11.3299 25.7572 11.3475 25.725Z" fill="#424242"/>
<path d="M21.7725 29.0525L10.2375 28.925C10.0075 28.9225 9.8625 28.71 9.9675 28.535L10.4 27.8175C10.4925 27.665 10.6725 27.57 10.87 27.57H21.17C21.3825 27.57 21.575 27.68 21.6575 27.85L22.06 28.68C22.1475 28.86 21.995 29.055 21.7725 29.0525Z" fill="#82AEC0"/>
</svg>
