<svg width="32" height="32" viewBox="0 0 32 32" fill="none" xmlns="http://www.w3.org/2000/svg">
<path d="M9.3225 28.315L7.2175 29.435V24.395L9.8475 27.195L9.3225 28.315Z" fill="#633D35"/>
<path d="M24.9975 4.98749C24.9975 5.74249 25.125 10.36 25.125 10.36C25.125 10.36 25.19 10.855 25.5625 10.98C25.8075 11.0625 26.3425 10.8875 26.995 10.3775C27.0825 10.31 27.2 10.3 27.295 10.355C27.545 10.505 28.0825 10.7975 28.42 11.685C28.7925 12.665 28.7225 13.49 28.665 13.84C28.645 13.9575 28.59 14.065 28.5225 14.15C27.915 14.9 24.875 18.795 24.875 21.27C24.875 21.27 24.925 24.8825 24.925 27.0075C24.925 28.945 21.6525 30.5625 17.3025 30.9375L14.875 30.27L12.075 30.7725C11.185 30.635 10.355 30.445 9.61001 30.21L7.74251 24.955L7.21751 29.435C7.21751 29.435 5.81501 27.9975 5.81501 27.0075C5.81501 24.865 5.29001 4.99999 5.29001 4.99999L24.9975 4.98749Z" fill="#AD7156"/>
<path d="M11.75 8.89502C11.6675 10.285 11.5225 11.6625 11.3675 13.0375L11.135 15.095C11.0625 15.78 10.9675 16.4575 10.9875 17.115C10.9875 17.79 11.02 18.48 11.055 19.1675L11.1475 21.2375C11.2075 22.62 11.26 24.0025 11.25 25.395C10.95 24.035 10.7375 22.6625 10.565 21.285C10.395 19.905 10.2625 18.53 10.2375 17.1175C10.2325 16.39 10.3375 15.69 10.4325 15.0025C10.5425 14.315 10.6525 13.63 10.79 12.95C11.0575 11.5875 11.3625 10.235 11.75 8.89502ZM8.49999 15.895C8.56749 16.07 8.57499 16.26 8.59499 16.4425C8.60749 16.6275 8.61999 16.8125 8.62499 16.9975C8.63499 17.3675 8.63999 17.7375 8.63499 18.1075C8.62999 18.8475 8.60249 19.585 8.56249 20.3225C8.52499 21.06 8.47499 21.795 8.41499 22.53C8.36249 23.265 8.28499 24 8.21249 24.735L8.20499 24.645L8.55999 25.9475L8.89749 27.255C9.11499 28.13 9.32249 29.005 9.49999 29.8925C9.16999 29.0525 8.86999 28.2 8.57999 27.3475L8.15499 26.065L7.74999 24.7825L7.73749 24.7425L7.74249 24.695C7.80499 23.9625 7.85749 23.2275 7.92749 22.4925C7.98999 21.76 8.05999 21.025 8.13249 20.2925L8.35499 18.095L8.46249 16.995C8.47999 16.8125 8.49499 16.6275 8.50749 16.445C8.51249 16.2625 8.53749 16.0775 8.49999 15.895ZM14.625 24.02V30.27L16.625 30.77C16.625 30.77 15.375 27.02 14.625 24.02Z" fill="#CE8963"/>
<path d="M22.125 19.77C23.545 16.5325 28.545 13.0375 28.545 13.0375L28.6925 12.93C28.72 13.37 28.6975 13.69 28.6575 13.865C28.64 13.9425 28.5825 14.07 28.5425 14.1175C28.0625 14.7075 24.875 18.7225 24.875 21.2675C24.875 21.2675 24.925 24.88 24.925 27.005C24.925 27.9575 23.875 29.2675 21.625 30.0175L22.625 22.7675L20.375 25.0175C20.375 25.02 21.1275 22.0475 22.125 19.77ZM25.125 10.1975C25.19 11.21 25.895 10.98 25.895 10.98C25.085 11.36 23.91 11.5725 23.23 11.12C22.48 10.62 22.125 8.02251 22.125 8.02251L22.625 6.52251L24.985 5.14001L25.125 10.1975Z" fill="#965B44"/>
<path d="M14.62 1.0675C9.6075 1.1825 5.625 2.9325 5.625 5.075C5.625 7.2925 9.8875 9.0875 15.145 9.0875C20.4025 9.0875 24.665 7.29 24.665 5.075C24.665 2.9425 20.72 1.1975 15.7375 1.07" fill="#FFCC80"/>
<path d="M14.62 1.06748C12.8275 1.20998 11.04 1.49248 9.3725 2.10748C8.5425 2.40998 7.7325 2.78498 7.055 3.30748C6.7225 3.56998 6.415 3.86498 6.2125 4.20498C6.0025 4.53998 5.9175 4.91498 5.9775 5.27498C6.0375 5.63248 6.24 5.97248 6.5175 6.26248C6.795 6.55248 7.13 6.80998 7.495 7.02498C8.2275 7.45748 9.05 7.76498 9.89 7.99748C11.5775 8.46248 13.3475 8.65748 15.1125 8.65498C16.875 8.65998 18.6475 8.47248 20.3375 8.01248C21.1775 7.78248 22.005 7.47998 22.74 7.05498C23.1075 6.84248 23.45 6.59498 23.73 6.30498C24.0125 6.01998 24.23 5.68498 24.3 5.32748C24.3825 4.96998 24.2975 4.59498 24.1075 4.25498C23.9125 3.91498 23.615 3.61248 23.285 3.34748C22.6175 2.81498 21.8075 2.43748 20.98 2.12998C19.3175 1.50748 17.53 1.21998 15.7375 1.06998C16.1875 1.06248 16.6375 1.06498 17.09 1.07998C17.54 1.10248 17.9925 1.13998 18.44 1.19248C19.3375 1.30248 20.235 1.46498 21.1125 1.72498C21.985 1.99498 22.85 2.34248 23.625 2.88998C24.0125 3.16498 24.3725 3.49998 24.6425 3.92998C24.91 4.35748 25.0625 4.91248 24.965 5.44498C24.88 5.97998 24.59 6.43748 24.26 6.79998C23.925 7.16748 23.535 7.45498 23.13 7.70498C22.32 8.19998 21.445 8.53748 20.56 8.80248C18.78 9.31248 16.9425 9.51248 15.11 9.51998C13.28 9.50498 11.44 9.30248 9.6625 8.78248C8.7775 8.51498 7.905 8.16998 7.0975 7.66998C6.695 7.41748 6.31 7.11998 5.9775 6.74748C5.6525 6.37748 5.3775 5.90498 5.3075 5.36998C5.275 5.10498 5.2925 4.83248 5.36 4.57498C5.425 4.31748 5.545 4.08498 5.6825 3.87248C5.96 3.44748 6.33 3.12498 6.7175 2.85248C7.5 2.31748 8.3625 1.97248 9.2375 1.70748C10.115 1.45248 11.0125 1.29248 11.9125 1.18498C12.3625 1.13498 12.8125 1.09748 13.265 1.07748C13.7175 1.05748 14.17 1.05748 14.62 1.06748Z" fill="#CE8963"/>
<path d="M5.47751 4.41247C5.47751 6.16997 9.06001 7.59497 13.4825 7.59497C17.905 7.59497 21.4875 6.16997 21.4875 4.41247C21.4875 2.65497 19.925 0.627474 13.4825 1.22747C9.08001 1.63997 5.47751 2.65247 5.47751 4.41247Z" fill="url(#paint0_radial_509_6721)"/>
<path opacity="0.66" d="M7.76999 4.655C7.76749 5.0025 7.97249 5.315 8.21749 5.5575C8.46999 5.7975 8.76999 5.985 9.08249 6.1425C9.70999 6.4525 10.3875 6.6525 11.07 6.8075C12.44 7.095 13.845 7.1975 15.24 7.18C16.635 7.1625 18.035 7.0225 19.3825 6.6925C20.0525 6.5225 20.715 6.305 21.32 5.9925C21.62 5.8375 21.9025 5.6475 22.135 5.4275C22.36 5.2025 22.5275 4.9325 22.52 4.6575C22.5175 4.385 22.3475 4.1225 22.1175 3.905C21.8825 3.69 21.6 3.51 21.2975 3.3625C20.6925 3.065 20.03 2.865 19.36 2.71C18.6875 2.555 18.0025 2.4525 17.315 2.3825C16.6275 2.3075 15.9325 2.2725 15.24 2.2675C13.8525 2.2575 12.4575 2.3275 11.09 2.59C10.41 2.73 9.73249 2.91 9.10249 3.205C8.78999 3.355 8.48999 3.535 8.23249 3.7675C7.98499 4 7.77499 4.305 7.76999 4.655ZM7.71499 4.655C7.70999 4.285 7.92249 3.9575 8.17249 3.7075C8.42999 3.4575 8.72499 3.2525 9.03999 3.085C9.66499 2.7425 10.3375 2.5 11.0225 2.3075C12.3925 1.9275 13.8175 1.74 15.24 1.725C15.9525 1.7225 16.665 1.7525 17.375 1.8225C18.085 1.8975 18.79 2.0175 19.4875 2.1875C20.1825 2.365 20.87 2.59 21.5225 2.93C21.8475 3.1 22.16 3.305 22.44 3.5725C22.575 3.71 22.7025 3.865 22.8 4.045C22.8975 4.225 22.96 4.4375 22.9575 4.655C22.955 4.8725 22.89 5.0825 22.79 5.26C22.69 5.4375 22.5625 5.59 22.425 5.7225C22.145 5.9825 21.83 6.18 21.5025 6.34C20.85 6.6625 20.1625 6.8725 19.4675 7.0325C18.0775 7.345 16.6575 7.46 15.2425 7.45C13.83 7.425 12.4125 7.2725 11.045 6.9175C10.3625 6.74 9.68749 6.515 9.05999 6.19C8.74499 6.03 8.44749 5.8325 8.18749 5.59C7.93499 5.345 7.71749 5.025 7.71499 4.655Z" fill="#7F441C"/>
<path opacity="0.82" d="M9.45251 4.37501C9.45251 5.30251 11.8675 6.05501 14.845 6.05501C17.8225 6.05501 20.2375 5.30251 20.2375 4.37501C20.2375 3.44751 17.8225 2.69501 14.845 2.69501C11.8675 2.69501 9.45251 3.44751 9.45251 4.37501ZM10.3725 4.37501C10.3725 3.68001 12.2775 3.11501 14.63 3.11501C16.9825 3.11501 18.8875 3.68001 18.8875 4.37501C18.8875 5.07001 16.9825 5.63501 14.63 5.63501C12.2775 5.63501 10.3725 5.07001 10.3725 4.37501Z" fill="#B5772C"/>
<path opacity="0.74" d="M15.3525 4.79499C16.5247 4.79499 17.475 4.54427 17.475 4.23499C17.475 3.92571 16.5247 3.67499 15.3525 3.67499C14.1803 3.67499 13.23 3.92571 13.23 4.23499C13.23 4.54427 14.1803 4.79499 15.3525 4.79499Z" fill="url(#paint1_linear_509_6721)"/>
<defs>
<radialGradient id="paint0_radial_509_6721" cx="0" cy="0" r="1" gradientUnits="userSpaceOnUse" gradientTransform="translate(15.0275 3.60494) rotate(180) scale(6.38526 5.09824)">
<stop offset="0.056" stop-color="#FFA726"/>
<stop offset="0.135" stop-color="#FFA726"/>
<stop offset="1" stop-color="#FFA726" stop-opacity="0.1"/>
</radialGradient>
<linearGradient id="paint1_linear_509_6721" x1="17.475" y1="4.23474" x2="13.2278" y2="4.23474" gradientUnits="userSpaceOnUse">
<stop stop-color="#8A5140"/>
<stop offset="1" stop-color="#8A5140"/>
</linearGradient>
</defs>
</svg>
