<svg width="32" height="32" viewBox="0 0 32 32" fill="none" xmlns="http://www.w3.org/2000/svg">
<path d="M31.8225 4.1075C31.7664 4.03722 31.6953 3.98033 31.6144 3.94098C31.5335 3.90162 31.4449 3.88079 31.355 3.88H25.1575C24.8725 3.88 24.6275 4.08 24.575 4.36L22.18 16.53L18.8125 4.315C18.7925 4.2425 18.7575 4.18 18.715 4.1225C18.7125 4.12 18.7125 4.1125 18.7075 4.11C18.7 4.1 18.6875 4.0975 18.68 4.0875C18.6375 4.0375 18.5875 3.9975 18.53 3.965C18.51 3.955 18.4925 3.9425 18.4725 3.935C18.4 3.9025 18.3225 3.88 18.2375 3.88H13.76C13.6775 3.88 13.5975 3.9025 13.525 3.935C13.505 3.945 13.4875 3.955 13.4675 3.965C13.41 3.9975 13.36 4.0375 13.3175 4.0875C13.3075 4.0975 13.2975 4.1 13.29 4.11C13.2875 4.115 13.2875 4.12 13.2825 4.1225C13.24 4.18 13.205 4.245 13.185 4.315L9.82248 16.53L7.42498 4.36C7.39812 4.2251 7.32546 4.10363 7.21931 4.01616C7.11316 3.92868 6.98003 3.88058 6.84248 3.88H0.647485C0.464985 3.88 0.289985 3.965 0.179985 4.1075C0.0649848 4.25 0.0249848 4.44 0.0674848 4.615L6.26498 29.7275C6.26748 29.735 6.27498 29.7425 6.27498 29.7525C6.28998 29.8 6.30748 29.8425 6.33248 29.885C6.33998 29.8975 6.34498 29.91 6.35498 29.9225C6.35998 29.93 6.36248 29.9375 6.36998 29.945C6.39998 29.985 6.43248 30.0175 6.47248 30.05C6.47748 30.055 6.48498 30.0575 6.49248 30.0625C6.53248 30.0925 6.57748 30.1175 6.62498 30.135C6.63748 30.14 6.65248 30.145 6.66748 30.15C6.72248 30.1675 6.78248 30.18 6.84248 30.18H11.7875C11.87 30.18 11.945 30.16 12.0175 30.1275C12.0375 30.1175 12.055 30.1075 12.075 30.0975C12.125 30.0675 12.1725 30.0325 12.2125 29.9875C12.2225 29.9775 12.2375 29.9725 12.2475 29.9625C12.2525 29.955 12.2525 29.9475 12.2575 29.94C12.305 29.8775 12.3425 29.81 12.3625 29.7325L16 15.5825L19.6375 29.735C19.6575 29.8125 19.695 29.88 19.7425 29.9425C19.7475 29.95 19.7475 29.9575 19.755 29.965C19.7625 29.975 19.7775 29.98 19.7875 29.99C19.8275 30.035 19.8725 30.07 19.925 30.1C19.945 30.11 19.9625 30.1225 19.9825 30.13C20.055 30.16 20.13 30.1825 20.2125 30.1825H25.1575C25.2175 30.1825 25.275 30.17 25.3325 30.1525C25.3475 30.1475 25.36 30.1425 25.3775 30.1375C25.4225 30.12 25.4675 30.095 25.51 30.065C25.5175 30.06 25.5225 30.0575 25.53 30.0525C25.5675 30.0225 25.6025 29.9875 25.6325 29.9475C25.6375 29.94 25.64 29.9325 25.6475 29.925C25.655 29.9125 25.66 29.9 25.67 29.8875C25.6925 29.845 25.7125 29.8025 25.7275 29.755C25.73 29.7475 25.7375 29.74 25.7375 29.73L31.935 4.6175C31.975 4.44 31.935 4.25 31.8225 4.1075Z" fill="#40C0E7"/>
</svg>
