<svg width="32" height="32" viewBox="0 0 32 32" fill="none" xmlns="http://www.w3.org/2000/svg">
<path d="M10.805 8.17998L11.005 23.8925L21.4475 23.825L21.2475 7.60748L10.805 8.17998Z" fill="white"/>
<path d="M10.67 9.43497L13.205 7.96997L19.065 8.11247L10.6375 13.8875L10.67 9.43497Z" fill="#D80D1A"/>
<path d="M10.805 16.8075L21.38 9.59003L21.3125 14.425L10.77 21.7775L10.805 16.8075Z" fill="#1D86FA"/>
<path d="M12.4825 23.825L21.3475 17.5475L21.2125 22.18L17.8875 24.565L12.4825 23.825Z" fill="#D80D1A"/>
<path d="M10.1325 8.11249L10.335 24.1275L11.3075 23.7575L11.1075 7.74249L10.1325 8.11249ZM20.81 7.84249L20.91 23.825L21.8775 23.715L21.75 7.80999L20.81 7.84249Z" fill="#A1D2D6"/>
<path d="M10.0125 8.27251C10.1725 8.45001 21.505 8.31251 21.7025 8.21251C21.9 8.11251 22.905 7.28001 22.8275 5.95001C22.75 4.63751 21.8425 4.22251 21.8425 4.22251C21.8425 4.22251 21.6675 2.90751 20.155 1.90001C19.0825 1.18501 17.6925 0.977508 15.9475 0.992508C14.0225 1.01001 12.215 1.12751 11.065 2.27751C9.96 3.38251 9.915 4.46001 9.915 4.46001C9.915 4.46001 8.9375 4.76001 8.9375 6.23001C8.935 7.68001 10.0125 8.27251 10.0125 8.27251ZM10.19 23.615C10.025 23.7525 9.9925 24.6075 9.9925 24.6075C9.9925 24.6075 9.065 25.1075 9.1975 26.195C9.3175 27.1675 10.13 27.545 10.13 27.545C10.13 27.545 10.51 29.19 11.7775 30.085C13.1275 31.0375 14.4575 31.0775 16.3625 31.0775C18.4275 31.0775 19.835 30.9175 20.9475 29.8675C22.2225 28.66 22.3175 27.4075 22.3175 27.4075C22.3175 27.4075 23.0525 26.97 23.0325 25.9775C23.0125 24.985 22.2 24.6075 22.2 24.6075C22.2 24.6075 22.03 23.815 21.8825 23.615C21.8075 23.5125 18.8425 23.54 15.9275 23.555C13.115 23.5675 10.3175 23.5075 10.19 23.615Z" fill="#C8C8C8"/>
<path d="M15.3925 30.105C15.3725 30.5025 17.475 30.4925 19.025 30.145C20.7925 29.7475 21.3675 28.24 21.2675 28.12C21.1675 28 19.3825 28.04 19.2825 28.14C19.1825 28.24 18.7275 29.1725 17.9525 29.49C17.1775 29.8075 15.4075 29.8025 15.3925 30.105ZM9.26001 26.4575L22.9975 26.395C22.9975 26.395 22.9525 26.685 22.765 26.9675C22.5825 27.24 22.32 27.405 22.32 27.405L10.14 27.5475C10.14 27.5475 9.77501 27.35 9.61751 27.155C9.27001 26.725 9.26001 26.4575 9.26001 26.4575Z" fill="#858585"/>
<path d="M9.19999 25.775L22.985 25.5975C22.985 25.5975 22.94 25.235 22.695 24.9625C22.49 24.7325 22.2 24.605 22.2 24.605L9.81499 24.725C9.81499 24.725 9.56499 24.91 9.41749 25.1225C9.23999 25.38 9.19999 25.775 9.19999 25.775ZM8.98499 5.71503C8.98499 5.71503 11.74 5.17503 15.77 5.11503C19.8 5.05503 22.7025 5.29253 22.7025 5.29253C22.7025 5.29253 22.56 4.81753 22.34 4.58003C22.12 4.34253 21.845 4.22253 21.845 4.22253C21.845 4.22253 18.0675 4.08503 15.7825 4.06503C13.0225 4.04253 9.91499 4.46003 9.91499 4.46003C9.91499 4.46003 9.58249 4.55503 9.35749 4.84753C9.03749 5.26003 8.98499 5.71503 8.98499 5.71503Z" fill="#E1E0E0"/>
<path d="M8.94 6.49001C8.94 6.49001 11.085 6.07001 15.8675 6.01001C20.65 5.95001 22.825 6.29751 22.825 6.29751C22.825 6.29751 22.845 6.58751 22.75 6.86501C22.645 7.17501 22.48 7.38001 22.48 7.38001C22.48 7.38001 18.3675 7.10501 15.8675 7.12501C13.3675 7.14501 9.2875 7.54001 9.2875 7.54001C9.2875 7.54001 9.115 7.24251 9.055 7.06501C8.9975 6.88001 8.94 6.49001 8.94 6.49001Z" fill="#858585"/>
<path d="M15.14 4.86247C15.14 5.07497 13.7325 5.19997 12.2375 5.28997C11.4 5.33997 9.92249 5.75247 9.92249 5.19997C9.92249 4.64747 10.4575 4.54247 12.2725 4.50497C14.0875 4.46747 15.14 4.57747 15.14 4.86247ZM15.2475 1.56997C15.295 1.70497 14.535 1.96247 13.9475 2.58497C13.5325 3.02497 13.395 3.43997 13.11 3.54747C12.825 3.65497 11.295 3.79747 11.275 3.47747C11.25 3.03247 11.57 2.32747 12.325 1.90997C13.52 1.24747 15.1575 1.31997 15.2475 1.56997Z" fill="white"/>
</svg>
