<svg width="119" height="118" viewBox="0 0 119 118" fill="none" xmlns="http://www.w3.org/2000/svg">
<mask id="path-1-inside-1_773_6214" fill="white">
<path fill-rule="evenodd" clip-rule="evenodd" d="M69.5 18C68.9477 18 68.5029 17.5515 68.4727 17C67.9538 7.52403 60.1056 0 50.5 0C40.8944 0 33.0462 7.52403 32.5273 17C32.4971 17.5515 32.0523 18 31.5 18L4.5 18C2.29086 18 0.5 19.7909 0.5 22L0.500002 49C0.500002 49.5523 0.948499 49.9971 1.49996 50.0273C10.976 50.5462 18.5 58.3944 18.5 68C18.5 77.6056 10.976 85.4538 1.49996 85.9727C0.9485 86.0029 0.500002 86.4477 0.500002 87L0.5 114C0.5 116.209 2.29086 118 4.5 118H31.5C32.0523 118 32.4971 117.552 32.5273 117C33.0462 107.524 40.8944 100 50.5 100C60.1056 100 67.9538 107.524 68.4727 117C68.5029 117.552 68.9477 118 69.5 118H96.5C98.7091 118 100.5 116.209 100.5 114L100.5 87C100.5 86.4477 100.948 86.0029 101.5 85.9727C110.976 85.4538 118.5 77.6056 118.5 68C118.5 58.3944 110.976 50.5462 101.5 50.0273C100.948 49.9971 100.5 49.5523 100.5 49L100.5 22C100.5 19.7909 98.7091 18 96.5 18L69.5 18Z"/>
</mask>
<path fill-rule="evenodd" clip-rule="evenodd" d="M69.5 18C68.9477 18 68.5029 17.5515 68.4727 17C67.9538 7.52403 60.1056 0 50.5 0C40.8944 0 33.0462 7.52403 32.5273 17C32.4971 17.5515 32.0523 18 31.5 18L4.5 18C2.29086 18 0.5 19.7909 0.5 22L0.500002 49C0.500002 49.5523 0.948499 49.9971 1.49996 50.0273C10.976 50.5462 18.5 58.3944 18.5 68C18.5 77.6056 10.976 85.4538 1.49996 85.9727C0.9485 86.0029 0.500002 86.4477 0.500002 87L0.5 114C0.5 116.209 2.29086 118 4.5 118H31.5C32.0523 118 32.4971 117.552 32.5273 117C33.0462 107.524 40.8944 100 50.5 100C60.1056 100 67.9538 107.524 68.4727 117C68.5029 117.552 68.9477 118 69.5 118H96.5C98.7091 118 100.5 116.209 100.5 114L100.5 87C100.5 86.4477 100.948 86.0029 101.5 85.9727C110.976 85.4538 118.5 77.6056 118.5 68C118.5 58.3944 110.976 50.5462 101.5 50.0273C100.948 49.9971 100.5 49.5523 100.5 49L100.5 22C100.5 19.7909 98.7091 18 96.5 18L69.5 18Z" fill="#374151" fill-opacity="0.4"/>
<path d="M4.5 18L4.5 17H4.5V18ZM0.5 22L-0.5 22L-0.5 22L0.5 22ZM0.5 114L-0.5 114V114H0.5ZM100.5 114H101.5H100.5ZM96.5 18L96.5 17L96.5 17L96.5 18ZM101.5 50.0273L101.555 49.0288L101.5 50.0273ZM100.5 87H99.5H100.5ZM101.5 85.9727L101.445 84.9742L101.5 85.9727ZM32.5273 117L31.5288 116.945L32.5273 117ZM1.49996 85.9727L1.44529 84.9742L1.49996 85.9727ZM32.5273 17L31.5288 16.9454L32.5273 17ZM68.4727 117L69.4712 116.945L68.4727 117ZM68.4727 17L69.4712 16.9454L68.4727 17ZM69.5 18L69.5 17L69.5 18ZM50.5 1C59.5716 1 66.9842 8.10603 67.4742 17.0547L69.4712 16.9454C68.9235 6.94204 60.6396 -1 50.5 -1V1ZM33.5258 17.0547C34.0158 8.10603 41.4284 1 50.5 1V-1C40.3604 -1 32.0765 6.94204 31.5288 16.9454L33.5258 17.0547ZM31.5 17L4.5 17L4.5 19L31.5 19L31.5 17ZM4.5 17C1.73858 17 -0.5 19.2386 -0.5 22H1.5C1.5 20.3431 2.84315 19 4.5 19V17ZM-0.5 22L-0.499998 49L1.5 49L1.5 22L-0.5 22ZM1.44528 51.0258C10.394 51.5158 17.5 58.9284 17.5 68H19.5C19.5 57.8604 11.558 49.5765 1.55463 49.0288L1.44528 51.0258ZM17.5 68C17.5 77.0716 10.394 84.4842 1.44529 84.9742L1.55463 86.9712C11.558 86.4235 19.5 78.1396 19.5 68H17.5ZM-0.499998 87L-0.5 114L1.5 114L1.5 87L-0.499998 87ZM-0.5 114C-0.5 116.761 1.73858 119 4.5 119L4.5 117C2.84315 117 1.5 115.657 1.5 114H-0.5ZM4.5 119H31.5V117H4.5L4.5 119ZM33.5258 117.055C34.0158 108.106 41.4284 101 50.5 101V99C40.3604 99 32.0765 106.942 31.5288 116.945L33.5258 117.055ZM50.5 101C59.5716 101 66.9842 108.106 67.4742 117.055L69.4712 116.945C68.9235 106.942 60.6396 99 50.5 99V101ZM69.5 119H96.5V117H69.5V119ZM96.5 119C99.2614 119 101.5 116.761 101.5 114H99.5C99.5 115.657 98.1569 117 96.5 117V119ZM101.5 114L101.5 87H99.5L99.5 114H101.5ZM101.555 86.9712C111.558 86.4235 119.5 78.1396 119.5 68H117.5C117.5 77.0716 110.394 84.4842 101.445 84.9742L101.555 86.9712ZM119.5 68C119.5 57.8604 111.558 49.5765 101.555 49.0288L101.445 51.0258C110.394 51.5158 117.5 58.9284 117.5 68H119.5ZM101.5 49L101.5 22H99.5L99.5 49H101.5ZM101.5 22C101.5 19.2386 99.2614 17 96.5 17V19C98.1569 19 99.5 20.3431 99.5 22H101.5ZM96.5 17L69.5 17L69.5 19L96.5 19L96.5 17ZM101.555 49.0288C101.533 49.0276 101.516 49.0187 101.506 49.0081C101.501 49.0033 101.5 49.0001 101.5 48.9999C101.5 48.9998 101.5 49.0001 101.5 49.0006C101.5 49.0012 101.5 49.0012 101.5 49H99.5C99.5 50.1183 100.399 50.9685 101.445 51.0258L101.555 49.0288ZM101.5 87C101.5 86.9988 101.5 86.9988 101.5 86.9993C101.5 86.9999 101.5 87.0002 101.5 87.0001C101.5 86.9999 101.501 86.9967 101.506 86.9919C101.516 86.9813 101.533 86.9724 101.555 86.9712L101.445 84.9742C100.399 85.0315 99.5 85.8817 99.5 87H101.5ZM31.5 119C32.6183 119 33.4685 118.101 33.5258 117.055L31.5288 116.945C31.5276 116.967 31.5187 116.984 31.5081 116.994C31.5033 116.999 31.5001 117 31.4999 117C31.4998 117 31.5001 117 31.5007 117C31.5012 117 31.5012 117 31.5 117V119ZM-0.499998 49C-0.499998 50.1183 0.399213 50.9685 1.44528 51.0258L1.55463 49.0288C1.53335 49.0276 1.5164 49.0187 1.506 49.0081C1.50127 49.0033 1.49985 49.0001 1.49977 48.9999C1.49974 48.9998 1.49987 49.0001 1.49998 49.0007C1.5001 49.0012 1.5 49.0012 1.5 49L-0.499998 49ZM1.44529 84.9742C0.399216 85.0315 -0.499998 85.8817 -0.499998 87L1.5 87C1.5 86.9988 1.5001 86.9988 1.49998 86.9994C1.49987 86.9999 1.49974 87.0002 1.49977 87.0001C1.49985 86.9999 1.50127 86.9967 1.506 86.9919C1.5164 86.9813 1.53335 86.9724 1.55463 86.9712L1.44529 84.9742ZM31.5288 16.9454C31.5276 16.9667 31.5187 16.9836 31.5081 16.994C31.5033 16.9987 31.5001 17.0002 31.4999 17.0002C31.4998 17.0003 31.5001 17.0001 31.5006 17C31.5012 16.9999 31.5012 17 31.5 17L31.5 19C32.6183 19 33.4685 18.1008 33.5258 17.0547L31.5288 16.9454ZM67.4742 117.055C67.5315 118.101 68.3817 119 69.5 119V117C69.4988 117 69.4988 117 69.4994 117C69.4999 117 69.5002 117 69.5001 117C69.4999 117 69.4967 116.999 69.4919 116.994C69.4813 116.984 69.4724 116.967 69.4712 116.945L67.4742 117.055ZM67.4742 17.0547C67.5315 18.1008 68.3817 19 69.5 19L69.5 17C69.4988 17 69.4988 16.9999 69.4994 17C69.4999 17.0001 69.5002 17.0003 69.5001 17.0002C69.4999 17.0002 69.4967 16.9987 69.4919 16.994C69.4813 16.9836 69.4724 16.9666 69.4712 16.9454L67.4742 17.0547Z" fill="#374151" mask="url(#path-1-inside-1_773_6214)"/>
<path d="M32.664 89.108C32.264 89.108 31.904 89.032 31.584 88.88C31.272 88.72 31.024 88.504 30.84 88.232C30.656 87.96 30.564 87.656 30.564 87.32C30.564 86.888 30.672 86.548 30.888 86.3C31.112 86.052 31.476 85.876 31.98 85.772C32.492 85.668 33.188 85.616 34.068 85.616H34.608V86.252H34.08C33.432 86.252 32.92 86.284 32.544 86.348C32.176 86.404 31.916 86.504 31.764 86.648C31.62 86.792 31.548 86.996 31.548 87.26C31.548 87.588 31.66 87.856 31.884 88.064C32.116 88.272 32.428 88.376 32.82 88.376C33.14 88.376 33.42 88.3 33.66 88.148C33.908 87.996 34.1 87.788 34.236 87.524C34.38 87.26 34.452 86.956 34.452 86.612V85.244C34.452 84.748 34.352 84.392 34.152 84.176C33.952 83.952 33.624 83.84 33.168 83.84C32.888 83.84 32.608 83.876 32.328 83.948C32.048 84.02 31.752 84.136 31.44 84.296C31.328 84.352 31.232 84.372 31.152 84.356C31.072 84.332 31.008 84.288 30.96 84.224C30.912 84.16 30.884 84.088 30.876 84.008C30.868 83.92 30.884 83.836 30.924 83.756C30.972 83.676 31.044 83.612 31.14 83.564C31.492 83.388 31.84 83.26 32.184 83.18C32.528 83.1 32.856 83.06 33.168 83.06C33.672 83.06 34.088 83.144 34.416 83.312C34.744 83.472 34.988 83.72 35.148 84.056C35.308 84.384 35.388 84.808 35.388 85.328V88.58C35.388 88.74 35.348 88.864 35.268 88.952C35.196 89.04 35.088 89.084 34.944 89.084C34.792 89.084 34.676 89.04 34.596 88.952C34.516 88.864 34.476 88.74 34.476 88.58V87.644H34.584C34.52 87.948 34.396 88.208 34.212 88.424C34.036 88.64 33.816 88.808 33.552 88.928C33.288 89.048 32.992 89.108 32.664 89.108ZM39.2553 89.108C38.7833 89.108 38.3913 89.024 38.0793 88.856C37.7753 88.68 37.5433 88.42 37.3833 88.076C37.2313 87.732 37.1553 87.304 37.1553 86.792V83.576C37.1553 83.408 37.1953 83.284 37.2753 83.204C37.3633 83.124 37.4833 83.084 37.6353 83.084C37.7953 83.084 37.9153 83.124 37.9953 83.204C38.0833 83.284 38.1273 83.408 38.1273 83.576V86.78C38.1273 87.292 38.2313 87.676 38.4393 87.932C38.6553 88.18 38.9913 88.304 39.4473 88.304C39.9433 88.304 40.3473 88.136 40.6593 87.8C40.9713 87.464 41.1273 87.024 41.1273 86.48V83.576C41.1273 83.408 41.1673 83.284 41.2473 83.204C41.3353 83.124 41.4593 83.084 41.6193 83.084C41.7713 83.084 41.8873 83.124 41.9673 83.204C42.0553 83.284 42.0993 83.408 42.0993 83.576V88.58C42.0993 88.916 41.9433 89.084 41.6313 89.084C41.4793 89.084 41.3593 89.04 41.2713 88.952C41.1913 88.864 41.1513 88.74 41.1513 88.58V87.488L41.3073 87.656C41.1473 88.128 40.8833 88.488 40.5153 88.736C40.1553 88.984 39.7353 89.108 39.2553 89.108ZM46.2579 89.108C45.8019 89.108 45.4179 89.028 45.1059 88.868C44.8019 88.7 44.5739 88.46 44.4219 88.148C44.2699 87.828 44.1939 87.44 44.1939 86.984V83.924H43.3899C43.2539 83.924 43.1499 83.892 43.0779 83.828C43.0059 83.756 42.9699 83.66 42.9699 83.54C42.9699 83.42 43.0059 83.328 43.0779 83.264C43.1499 83.2 43.2539 83.168 43.3899 83.168H44.1939V81.788C44.1939 81.628 44.2379 81.508 44.3259 81.428C44.4139 81.34 44.5339 81.296 44.6859 81.296C44.8379 81.296 44.9539 81.34 45.0339 81.428C45.1219 81.508 45.1659 81.628 45.1659 81.788V83.168H46.6779C46.8139 83.168 46.9179 83.2 46.9899 83.264C47.0619 83.328 47.0979 83.42 47.0979 83.54C47.0979 83.66 47.0619 83.756 46.9899 83.828C46.9179 83.892 46.8139 83.924 46.6779 83.924H45.1659V86.888C45.1659 87.344 45.2619 87.692 45.4539 87.932C45.6459 88.164 45.9579 88.28 46.3899 88.28C46.5419 88.28 46.6699 88.264 46.7739 88.232C46.8859 88.2 46.9779 88.184 47.0499 88.184C47.1219 88.176 47.1819 88.2 47.2299 88.256C47.2779 88.312 47.3019 88.408 47.3019 88.544C47.3019 88.64 47.2819 88.728 47.2419 88.808C47.2099 88.888 47.1499 88.944 47.0619 88.976C46.9659 89.008 46.8379 89.036 46.6779 89.06C46.5259 89.092 46.3859 89.108 46.2579 89.108ZM50.4786 89.108C49.9106 89.108 49.4186 88.984 49.0026 88.736C48.5866 88.488 48.2626 88.14 48.0306 87.692C47.8066 87.236 47.6946 86.7 47.6946 86.084C47.6946 85.62 47.7586 85.204 47.8866 84.836C48.0146 84.46 48.2026 84.14 48.4506 83.876C48.6986 83.612 48.9906 83.412 49.3266 83.276C49.6706 83.132 50.0546 83.06 50.4786 83.06C51.0466 83.06 51.5386 83.184 51.9546 83.432C52.3706 83.68 52.6906 84.032 52.9146 84.488C53.1466 84.936 53.2626 85.468 53.2626 86.084C53.2626 86.548 53.1986 86.964 53.0706 87.332C52.9426 87.7 52.7546 88.02 52.5066 88.292C52.2586 88.556 51.9626 88.76 51.6186 88.904C51.2826 89.04 50.9026 89.108 50.4786 89.108ZM50.4786 88.328C50.8386 88.328 51.1546 88.24 51.4266 88.064C51.6986 87.888 51.9066 87.632 52.0506 87.296C52.2026 86.96 52.2786 86.556 52.2786 86.084C52.2786 85.356 52.1146 84.8 51.7866 84.416C51.4666 84.032 51.0306 83.84 50.4786 83.84C50.1106 83.84 49.7906 83.928 49.5186 84.104C49.2546 84.272 49.0466 84.524 48.8946 84.86C48.7506 85.188 48.6786 85.596 48.6786 86.084C48.6786 86.804 48.8426 87.36 49.1706 87.752C49.4986 88.136 49.9346 88.328 50.4786 88.328ZM55.2265 89.084C55.0665 89.084 54.9465 89.04 54.8665 88.952C54.7865 88.864 54.7465 88.74 54.7465 88.58V83.576C54.7465 83.416 54.7865 83.296 54.8665 83.216C54.9465 83.128 55.0625 83.084 55.2145 83.084C55.3665 83.084 55.4825 83.128 55.5625 83.216C55.6505 83.296 55.6945 83.416 55.6945 83.576V84.632L55.5625 84.464C55.7145 84.016 55.9585 83.672 56.2945 83.432C56.6385 83.184 57.0465 83.06 57.5185 83.06C58.0145 83.06 58.4145 83.18 58.7185 83.42C59.0305 83.652 59.2385 84.016 59.3425 84.512H59.1625C59.3065 84.064 59.5625 83.712 59.9305 83.456C60.3065 83.192 60.7425 83.06 61.2385 83.06C61.6785 83.06 62.0385 83.144 62.3185 83.312C62.6065 83.48 62.8225 83.736 62.9665 84.08C63.1105 84.416 63.1825 84.844 63.1825 85.364V88.58C63.1825 88.74 63.1385 88.864 63.0505 88.952C62.9705 89.04 62.8505 89.084 62.6905 89.084C62.5385 89.084 62.4185 89.04 62.3305 88.952C62.2505 88.864 62.2105 88.74 62.2105 88.58V85.412C62.2105 84.876 62.1185 84.484 61.9345 84.236C61.7505 83.98 61.4385 83.852 60.9985 83.852C60.5185 83.852 60.1385 84.02 59.8585 84.356C59.5865 84.684 59.4505 85.132 59.4505 85.7V88.58C59.4505 88.74 59.4065 88.864 59.3185 88.952C59.2385 89.04 59.1185 89.084 58.9585 89.084C58.8065 89.084 58.6865 89.04 58.5985 88.952C58.5185 88.864 58.4785 88.74 58.4785 88.58V85.412C58.4785 84.876 58.3825 84.484 58.1905 84.236C58.0065 83.98 57.6985 83.852 57.2665 83.852C56.7865 83.852 56.4065 84.02 56.1265 84.356C55.8545 84.684 55.7185 85.132 55.7185 85.7V88.58C55.7185 88.916 55.5545 89.084 55.2265 89.084ZM67.2199 89.108C66.6999 89.108 66.2439 88.984 65.8519 88.736C65.4679 88.488 65.1679 88.14 64.9519 87.692C64.7439 87.236 64.6399 86.7 64.6399 86.084C64.6399 85.46 64.7439 84.924 64.9519 84.476C65.1679 84.02 65.4679 83.672 65.8519 83.432C66.2439 83.184 66.6999 83.06 67.2199 83.06C67.7479 83.06 68.1999 83.192 68.5759 83.456C68.9519 83.72 69.2039 84.076 69.3319 84.524H69.1999V80.948C69.1999 80.788 69.2399 80.668 69.3199 80.588C69.4079 80.5 69.5319 80.456 69.6919 80.456C69.8439 80.456 69.9599 80.5 70.0399 80.588C70.1279 80.668 70.1719 80.788 70.1719 80.948V88.58C70.1719 88.74 70.1319 88.864 70.0519 88.952C69.9719 89.04 69.8519 89.084 69.6919 89.084C69.5399 89.084 69.4199 89.04 69.3319 88.952C69.2519 88.864 69.2119 88.74 69.2119 88.58V87.44L69.3439 87.608C69.2159 88.064 68.9599 88.428 68.5759 88.7C68.1999 88.972 67.7479 89.108 67.2199 89.108ZM67.4239 88.328C67.7839 88.328 68.0999 88.24 68.3719 88.064C68.6439 87.888 68.8519 87.632 68.9959 87.296C69.1479 86.96 69.2239 86.556 69.2239 86.084C69.2239 85.356 69.0599 84.8 68.7319 84.416C68.4119 84.032 67.9759 83.84 67.4239 83.84C67.0559 83.84 66.7359 83.928 66.4639 84.104C66.1999 84.272 65.9919 84.524 65.8399 84.86C65.6959 85.188 65.6239 85.596 65.6239 86.084C65.6239 86.804 65.7879 87.36 66.1159 87.752C66.4439 88.136 66.8799 88.328 67.4239 88.328Z" fill="#F9FAFB"/>
<path d="M39.2409 55.6047C38.2412 55.6069 37.4297 56.4184 37.4297 57.4181V65.8138C37.4307 66.2938 37.6218 66.7539 37.9613 67.0934C38.3007 67.4329 38.7609 67.624 39.2409 67.625H40.455V55.5938L39.2409 55.6047ZM61.8138 55.6047C62.8134 55.6069 63.625 56.4184 63.625 57.4181V65.8138C63.6228 66.8134 62.8134 67.625 61.8138 67.6272H60.5997V55.5959L61.8138 55.6047Z" fill="#C62828"/>
<path d="M61.2559 55.9021L61.2297 53.7146C61.2231 52.774 60.4575 52.0149 59.5169 52.0193H51.1672V49.0859C52.285 48.7162 52.8931 47.5109 52.5234 46.3931C52.1537 45.2753 50.9484 44.6671 49.8306 45.0368C48.7128 45.4065 48.1047 46.6118 48.4744 47.7296C48.5787 48.0459 48.7558 48.3334 48.9913 48.5689C49.2268 48.8045 49.5143 48.9815 49.8306 49.0859V52.0303H41.4831C40.5469 52.0324 39.7878 52.7893 39.7812 53.7256V69.4274C39.7878 70.3637 40.5469 71.1206 41.4831 71.1249H59.5169C60.4575 71.1271 61.2231 70.3681 61.2297 69.4274V67.8153H61.2559V55.9021Z" fill="#90A4AE"/>
<path d="M50.5 47.9375C50.0166 47.9375 49.625 47.5459 49.625 47.0625C49.625 46.5791 50.0166 46.1875 50.5 46.1875C50.9834 46.1875 51.375 46.5791 51.375 47.0625C51.375 47.5459 50.9834 47.9375 50.5 47.9375Z" fill="#C62828"/>
<path d="M46.1578 64.6609H54.8444C55.6013 64.6609 56.2159 65.2756 56.2159 66.0325V66.1571C56.2159 66.914 55.6013 67.5287 54.8444 67.5287H46.1578C45.4009 67.5287 44.7863 66.914 44.7863 66.1571V66.0325C44.7863 65.2756 45.4009 64.6609 46.1578 64.6609Z" fill="url(#paint0_linear_773_6214)"/>
<path d="M48.2403 64.6653H48.7566V67.5287H48.2403V64.6653Z" fill="url(#paint1_linear_773_6214)"/>
<path d="M50.255 64.6653H50.7713V67.5287H50.255V64.6653Z" fill="url(#paint2_linear_773_6214)"/>
<path d="M52.2434 64.6653H52.7597V67.5287H52.2434V64.6653Z" fill="url(#paint3_linear_773_6214)"/>
<path d="M54.3544 64.6653H54.8706V67.5287H54.3544V64.6653Z" fill="url(#paint4_linear_773_6214)"/>
<path d="M46.1294 64.6609H46.6456V67.5243H46.1294V64.6609Z" fill="url(#paint5_linear_773_6214)"/>
<path d="M50.5 62.666H49.3341C49.2137 62.666 49.1153 62.5676 49.1153 62.4472C49.1153 62.4122 49.1241 62.3794 49.1394 62.3488L49.7387 61.1654L50.3053 60.1197C50.3238 60.0848 50.3516 60.0555 50.3855 60.0351C50.4194 60.0147 50.4582 60.0039 50.4978 60.0039C50.5374 60.0039 50.5762 60.0147 50.6101 60.0351C50.6441 60.0555 50.6718 60.0848 50.6903 60.1197L51.2612 61.2135L51.8541 62.3488C51.9087 62.456 51.8672 62.5872 51.76 62.6441C51.7294 62.6594 51.6966 62.6682 51.6616 62.6682L50.5 62.666Z" fill="#C62828"/>
<path d="M45.8275 61.1304C47.2168 61.1304 48.3431 60.0041 48.3431 58.6147C48.3431 57.2254 47.2168 56.0991 45.8275 56.0991C44.4382 56.0991 43.3119 57.2254 43.3119 58.6147C43.3119 60.0041 44.4382 61.1304 45.8275 61.1304Z" fill="url(#paint6_radial_773_6214)"/>
<path d="M45.8275 61.1304C47.2168 61.1304 48.3431 60.0041 48.3431 58.6147C48.3431 57.2254 47.2168 56.0991 45.8275 56.0991C44.4382 56.0991 43.3119 57.2254 43.3119 58.6147C43.3119 60.0041 44.4382 61.1304 45.8275 61.1304Z" stroke="url(#paint7_linear_773_6214)" stroke-width="0.5" stroke-miterlimit="10"/>
<path d="M55.0938 56.0925C53.7047 56.0925 52.5781 57.2191 52.5781 58.6082C52.5781 59.9972 53.7047 61.1238 55.0938 61.1238C56.4828 61.1238 57.6094 59.9972 57.6094 58.6082C57.6072 57.2191 56.4828 56.0947 55.0938 56.0925Z" fill="url(#paint8_radial_773_6214)"/>
<path d="M55.0938 56.0925C53.7047 56.0925 52.5781 57.2191 52.5781 58.6082C52.5781 59.9972 53.7047 61.1238 55.0938 61.1238C56.4828 61.1238 57.6094 59.9972 57.6094 58.6082C57.6072 57.2191 56.4828 56.0947 55.0938 56.0925Z" stroke="url(#paint9_linear_773_6214)" stroke-width="0.5" stroke-miterlimit="10"/>
<defs>
<linearGradient id="paint0_linear_773_6214" x1="50.5011" y1="67.5287" x2="50.5011" y2="64.6609" gradientUnits="userSpaceOnUse">
<stop offset="0.12" stop-color="#E0E0E0"/>
<stop offset="0.52" stop-color="white"/>
<stop offset="1" stop-color="#EAEAEA"/>
</linearGradient>
<linearGradient id="paint1_linear_773_6214" x1="48.4984" y1="67.5287" x2="48.4984" y2="64.6653" gradientUnits="userSpaceOnUse">
<stop stop-color="#333333"/>
<stop offset="0.55" stop-color="#666666"/>
<stop offset="1" stop-color="#333333"/>
</linearGradient>
<linearGradient id="paint2_linear_773_6214" x1="50.5131" y1="67.5287" x2="50.5131" y2="64.6653" gradientUnits="userSpaceOnUse">
<stop stop-color="#333333"/>
<stop offset="0.55" stop-color="#666666"/>
<stop offset="1" stop-color="#333333"/>
</linearGradient>
<linearGradient id="paint3_linear_773_6214" x1="52.5016" y1="67.5287" x2="52.5016" y2="64.6653" gradientUnits="userSpaceOnUse">
<stop stop-color="#333333"/>
<stop offset="0.55" stop-color="#666666"/>
<stop offset="1" stop-color="#333333"/>
</linearGradient>
<linearGradient id="paint4_linear_773_6214" x1="54.6125" y1="67.5287" x2="54.6125" y2="64.6653" gradientUnits="userSpaceOnUse">
<stop stop-color="#333333"/>
<stop offset="0.55" stop-color="#666666"/>
<stop offset="1" stop-color="#333333"/>
</linearGradient>
<linearGradient id="paint5_linear_773_6214" x1="46.3875" y1="67.5243" x2="46.3875" y2="64.6609" gradientUnits="userSpaceOnUse">
<stop stop-color="#333333"/>
<stop offset="0.55" stop-color="#666666"/>
<stop offset="1" stop-color="#333333"/>
</linearGradient>
<radialGradient id="paint6_radial_773_6214" cx="0" cy="0" r="1" gradientUnits="userSpaceOnUse" gradientTransform="translate(45.8275 58.6147) scale(2.51562)">
<stop offset="0.48" stop-color="white"/>
<stop offset="0.77" stop-color="#FDFDFD"/>
<stop offset="0.88" stop-color="#F6F6F6"/>
<stop offset="0.96" stop-color="#EBEBEB"/>
<stop offset="1" stop-color="#E0E0E0"/>
</radialGradient>
<linearGradient id="paint7_linear_773_6214" x1="43.0931" y1="58.6147" x2="48.5619" y2="58.6147" gradientUnits="userSpaceOnUse">
<stop stop-color="#333333"/>
<stop offset="0.55" stop-color="#666666"/>
<stop offset="1" stop-color="#333333"/>
</linearGradient>
<radialGradient id="paint8_radial_773_6214" cx="0" cy="0" r="1" gradientUnits="userSpaceOnUse" gradientTransform="translate(55.0828 58.6082) scale(2.51562)">
<stop offset="0.48" stop-color="white"/>
<stop offset="0.77" stop-color="#FDFDFD"/>
<stop offset="0.88" stop-color="#F6F6F6"/>
<stop offset="0.96" stop-color="#EBEBEB"/>
<stop offset="1" stop-color="#E0E0E0"/>
</radialGradient>
<linearGradient id="paint9_linear_773_6214" x1="52.3484" y1="58.6082" x2="57.8172" y2="58.6082" gradientUnits="userSpaceOnUse">
<stop stop-color="#333333"/>
<stop offset="0.55" stop-color="#666666"/>
<stop offset="1" stop-color="#333333"/>
</linearGradient>
</defs>
</svg>
