<svg width="119" height="118" viewBox="0 0 119 118" fill="none" xmlns="http://www.w3.org/2000/svg">
<mask id="path-1-inside-1_576_10478" fill="white">
<path fill-rule="evenodd" clip-rule="evenodd" d="M68.5 0C78.1056 0 85.9538 7.52403 86.4727 17C86.5029 17.5515 86.9477 18 87.5 18L114.5 18C116.709 18 118.5 19.7909 118.5 22L118.5 49C118.5 49.5523 118.051 49.9971 117.5 50.0273C108.024 50.5462 100.5 58.3944 100.5 68C100.5 77.6056 108.024 85.4538 117.5 85.9727C118.052 86.0029 118.5 86.4477 118.5 87L118.5 114C118.5 116.209 116.709 118 114.5 118L87.5 118C86.9477 118 86.5029 117.551 86.4727 117C85.9538 107.524 78.1056 100 68.5 100C58.8944 100 51.0462 107.524 50.5273 117C50.4971 117.552 50.0523 118 49.5 118L22.5 118C20.2909 118 18.5 116.209 18.5 114L18.5 87C18.5 86.4477 18.0515 86.0029 17.5 85.9727C8.02403 85.4538 0.5 77.6056 0.5 68C0.5 58.3944 8.02403 50.5462 17.5 50.0273C18.0515 49.9971 18.5 49.5523 18.5 49L18.5 22C18.5 19.7909 20.2909 18 22.5 18L49.5 18C50.0523 18 50.4971 17.5515 50.5273 17C51.0462 7.52403 58.8944 0 68.5 0Z"/>
</mask>
<path fill-rule="evenodd" clip-rule="evenodd" d="M68.5 0C78.1056 0 85.9538 7.52403 86.4727 17C86.5029 17.5515 86.9477 18 87.5 18L114.5 18C116.709 18 118.5 19.7909 118.5 22L118.5 49C118.5 49.5523 118.051 49.9971 117.5 50.0273C108.024 50.5462 100.5 58.3944 100.5 68C100.5 77.6056 108.024 85.4538 117.5 85.9727C118.052 86.0029 118.5 86.4477 118.5 87L118.5 114C118.5 116.209 116.709 118 114.5 118L87.5 118C86.9477 118 86.5029 117.551 86.4727 117C85.9538 107.524 78.1056 100 68.5 100C58.8944 100 51.0462 107.524 50.5273 117C50.4971 117.552 50.0523 118 49.5 118L22.5 118C20.2909 118 18.5 116.209 18.5 114L18.5 87C18.5 86.4477 18.0515 86.0029 17.5 85.9727C8.02403 85.4538 0.5 77.6056 0.5 68C0.5 58.3944 8.02403 50.5462 17.5 50.0273C18.0515 49.9971 18.5 49.5523 18.5 49L18.5 22C18.5 19.7909 20.2909 18 22.5 18L49.5 18C50.0523 18 50.4971 17.5515 50.5273 17C51.0462 7.52403 58.8944 0 68.5 0Z" fill="#374151" fill-opacity="0.4"/>
<path d="M114.5 18V17V18ZM118.5 114H119.5H118.5ZM18.5 114H17.5H18.5ZM18.5 22H17.5H18.5ZM22.5 18V17V18ZM49.5 18L49.5 19L49.5 18ZM50.5273 17L49.5288 16.9454L50.5273 17ZM17.5 50.0273L17.4454 49.0288L17.5 50.0273ZM18.5 49L17.5 49L18.5 49ZM18.5 87H17.5H18.5ZM17.5 85.9727L17.4454 86.9712L17.5 85.9727ZM86.4727 17L87.4712 16.9454L86.4727 17ZM87.5 18V17V18ZM50.5273 117L49.5288 116.945L50.5273 117ZM117.5 85.9727L117.555 84.9742L117.5 85.9727ZM118.5 87H117.5H118.5ZM86.4727 117L87.4712 116.945L86.4727 117ZM117.5 50.0273L117.445 49.0288L117.5 50.0273ZM87.4712 16.9454C86.9235 6.94204 78.6395 -1 68.5 -1V1C77.5716 1 84.9842 8.10603 85.4742 17.0547L87.4712 16.9454ZM114.5 17L87.5 17V19L114.5 19V17ZM119.5 22C119.5 19.2386 117.261 17 114.5 17V19C116.157 19 117.5 20.3431 117.5 22H119.5ZM119.5 49L119.5 22H117.5L117.5 49H119.5ZM101.5 68C101.5 58.9284 108.606 51.5158 117.555 51.0258L117.445 49.0288C107.442 49.5765 99.5 57.8604 99.5 68H101.5ZM117.555 84.9742C108.606 84.4842 101.5 77.0716 101.5 68H99.5C99.5 78.1395 107.442 86.4235 117.445 86.9712L117.555 84.9742ZM119.5 114L119.5 87H117.5L117.5 114H119.5ZM114.5 119C117.261 119 119.5 116.761 119.5 114H117.5C117.5 115.657 116.157 117 114.5 117V119ZM87.5 119L114.5 119V117L87.5 117V119ZM68.5 101C77.5716 101 84.9842 108.106 85.4742 117.055L87.4712 116.945C86.9235 106.942 78.6395 99 68.5 99V101ZM51.5258 117.055C52.0158 108.106 59.4284 101 68.5 101V99C58.3604 99 50.0765 106.942 49.5288 116.945L51.5258 117.055ZM22.5 119L49.5 119V117L22.5 117L22.5 119ZM17.5 114C17.5 116.761 19.7386 119 22.5 119L22.5 117C20.8431 117 19.5 115.657 19.5 114H17.5ZM17.5 87L17.5 114H19.5L19.5 87H17.5ZM17.5547 84.9742C8.60603 84.4842 1.5 77.0716 1.5 68H-0.5C-0.5 78.1395 7.44204 86.4235 17.4454 86.9712L17.5547 84.9742ZM1.5 68C1.5 58.9284 8.60602 51.5158 17.5547 51.0258L17.4454 49.0288C7.44204 49.5765 -0.5 57.8604 -0.5 68H1.5ZM17.5 22L17.5 49L19.5 49L19.5 22H17.5ZM22.5 17C19.7386 17 17.5 19.2386 17.5 22H19.5C19.5 20.3431 20.8431 19 22.5 19V17ZM49.5 17L22.5 17V19L49.5 19L49.5 17ZM68.5 -1C58.3604 -1 50.0765 6.94204 49.5288 16.9454L51.5258 17.0547C52.0158 8.10602 59.4284 1 68.5 1V-1ZM49.5 19C50.6183 19 51.4685 18.1008 51.5258 17.0547L49.5288 16.9454C49.5276 16.9667 49.5187 16.9836 49.5081 16.994C49.5033 16.9987 49.5001 17.0002 49.4999 17.0002C49.4998 17.0003 49.5001 17.0001 49.5006 17C49.5012 16.9999 49.5012 17 49.5 17L49.5 19ZM17.5547 51.0258C18.6008 50.9685 19.5 50.1183 19.5 49L17.5 49C17.5 49.0012 17.4999 49.0012 17.5 49.0006C17.5001 49.0001 17.5003 48.9998 17.5002 48.9999C17.5002 49.0001 17.4987 49.0033 17.494 49.0081C17.4836 49.0187 17.4667 49.0276 17.4454 49.0288L17.5547 51.0258ZM19.5 87C19.5 85.8817 18.6008 85.0315 17.5547 84.9742L17.4454 86.9712C17.4667 86.9724 17.4836 86.9813 17.494 86.9919C17.4987 86.9967 17.5002 86.9999 17.5002 87.0001C17.5003 87.0002 17.5001 86.9999 17.5 86.9994C17.4999 86.9988 17.5 86.9988 17.5 87H19.5ZM85.4742 17.0547C85.5315 18.1008 86.3817 19 87.5 19V17C87.4988 17 87.4988 16.9999 87.4994 17C87.4999 17.0001 87.5002 17.0003 87.5001 17.0002C87.4999 17.0002 87.4967 16.9987 87.4919 16.994C87.4813 16.9836 87.4724 16.9667 87.4712 16.9454L85.4742 17.0547ZM49.5288 116.945C49.5276 116.967 49.5187 116.984 49.5081 116.994C49.5033 116.999 49.5001 117 49.4999 117C49.4998 117 49.5001 117 49.5006 117C49.5012 117 49.5012 117 49.5 117V119C50.6183 119 51.4685 118.101 51.5258 117.055L49.5288 116.945ZM117.445 86.9712C117.467 86.9724 117.484 86.9813 117.494 86.9919C117.499 86.9967 117.5 86.9999 117.5 87.0001C117.5 87.0002 117.5 86.9999 117.5 86.9994C117.5 86.9988 117.5 86.9988 117.5 87H119.5C119.5 85.8817 118.601 85.0315 117.555 84.9742L117.445 86.9712ZM87.5 117C87.4988 117 87.4988 117 87.4994 117C87.4999 117 87.5002 117 87.5001 117C87.4999 117 87.4967 116.999 87.4919 116.994C87.4813 116.984 87.4724 116.967 87.4712 116.945L85.4742 117.055C85.5315 118.101 86.3817 119 87.5 119V117ZM117.5 49C117.5 49.0012 117.5 49.0012 117.5 49.0006C117.5 49.0001 117.5 48.9998 117.5 48.9999C117.5 49.0001 117.499 49.0033 117.494 49.0081C117.484 49.0187 117.467 49.0276 117.445 49.0288L117.555 51.0258C118.601 50.9685 119.5 50.1183 119.5 49H117.5Z" fill="#374151" mask="url(#path-1-inside-1_576_10478)"/>
<path d="M61.9113 89.108C61.3273 89.108 60.8233 88.98 60.3993 88.724C59.9753 88.468 59.6473 88.112 59.4153 87.656C59.1913 87.192 59.0793 86.656 59.0793 86.048C59.0793 85.584 59.1433 85.168 59.2713 84.8C59.3993 84.432 59.5873 84.12 59.8353 83.864C60.0833 83.6 60.3793 83.4 60.7233 83.264C61.0753 83.128 61.4713 83.06 61.9113 83.06C62.1993 83.06 62.4993 83.104 62.8113 83.192C63.1233 83.28 63.4073 83.432 63.6633 83.648C63.7433 83.704 63.7953 83.772 63.8193 83.852C63.8433 83.932 63.8433 84.012 63.8193 84.092C63.7953 84.164 63.7553 84.228 63.6993 84.284C63.6433 84.332 63.5713 84.36 63.4833 84.368C63.4033 84.376 63.3193 84.348 63.2313 84.284C63.0233 84.124 62.8113 84.012 62.5953 83.948C62.3793 83.884 62.1713 83.852 61.9713 83.852C61.6593 83.852 61.3873 83.904 61.1553 84.008C60.9233 84.104 60.7273 84.244 60.5673 84.428C60.4073 84.612 60.2833 84.84 60.1953 85.112C60.1153 85.384 60.0753 85.7 60.0753 86.06C60.0753 86.756 60.2393 87.308 60.5673 87.716C60.8953 88.116 61.3633 88.316 61.9713 88.316C62.1713 88.316 62.3753 88.284 62.5833 88.22C62.7993 88.156 63.0153 88.044 63.2313 87.884C63.3193 87.82 63.4033 87.792 63.4833 87.8C63.5633 87.808 63.6313 87.84 63.6873 87.896C63.7433 87.944 63.7793 88.008 63.7953 88.088C63.8193 88.168 63.8193 88.248 63.7953 88.328C63.7713 88.4 63.7193 88.464 63.6393 88.52C63.3833 88.728 63.1033 88.88 62.7993 88.976C62.4953 89.064 62.1993 89.108 61.9113 89.108ZM65.942 89C65.798 89 65.686 88.964 65.606 88.892C65.526 88.812 65.486 88.704 65.486 88.568C65.486 88.432 65.526 88.332 65.606 88.268C65.686 88.196 65.798 88.16 65.942 88.16H67.502V81.356H68.018L66.278 82.508C66.174 82.564 66.074 82.588 65.978 82.58C65.89 82.572 65.814 82.54 65.75 82.484C65.694 82.42 65.654 82.348 65.63 82.268C65.606 82.18 65.61 82.092 65.642 82.004C65.674 81.908 65.742 81.828 65.846 81.764L67.502 80.672C67.606 80.608 67.706 80.556 67.802 80.516C67.898 80.476 67.994 80.456 68.09 80.456C68.202 80.456 68.294 80.492 68.366 80.564C68.446 80.628 68.486 80.732 68.486 80.876V88.16H69.926C70.07 88.16 70.182 88.196 70.262 88.268C70.342 88.332 70.382 88.432 70.382 88.568C70.382 88.712 70.342 88.82 70.262 88.892C70.182 88.964 70.07 89 69.926 89H65.942ZM72.8253 89C72.6493 89 72.5173 88.96 72.4293 88.88C72.3493 88.792 72.3093 88.676 72.3093 88.532C72.3093 88.444 72.3293 88.36 72.3693 88.28C72.4173 88.192 72.4813 88.104 72.5613 88.016L75.2493 85.136C75.6573 84.696 75.9493 84.292 76.1253 83.924C76.3093 83.548 76.4013 83.168 76.4013 82.784C76.4013 82.304 76.2533 81.94 75.9573 81.692C75.6693 81.436 75.2453 81.308 74.6853 81.308C74.3253 81.308 73.9853 81.364 73.6653 81.476C73.3453 81.588 73.0373 81.76 72.7413 81.992C72.6373 82.072 72.5413 82.108 72.4533 82.1C72.3733 82.092 72.3013 82.06 72.2373 82.004C72.1733 81.948 72.1293 81.876 72.1053 81.788C72.0813 81.7 72.0813 81.612 72.1053 81.524C72.1373 81.436 72.2013 81.356 72.2973 81.284C72.6093 81.028 72.9853 80.824 73.4253 80.672C73.8653 80.512 74.3133 80.432 74.7693 80.432C75.3373 80.432 75.8173 80.52 76.2093 80.696C76.6013 80.872 76.8973 81.132 77.0973 81.476C77.2973 81.812 77.3973 82.224 77.3973 82.712C77.3973 83.048 77.3413 83.38 77.2293 83.708C77.1253 84.028 76.9613 84.356 76.7373 84.692C76.5213 85.028 76.2373 85.376 75.8853 85.736L73.3293 88.436V88.16H77.3733C77.5253 88.16 77.6373 88.196 77.7093 88.268C77.7893 88.332 77.8293 88.432 77.8293 88.568C77.8293 88.712 77.7893 88.82 77.7093 88.892C77.6373 88.964 77.5253 89 77.3733 89H72.8253Z" fill="#F9FAFB"/>
<path d="M81.625 59.7172V56.2828C81.625 56.1538 81.5266 56.0444 81.3997 56.0312L77.4994 55.6178C77.3966 55.6069 77.3134 55.5347 77.285 55.4362C77.0969 54.7909 76.8409 54.1762 76.5238 53.6009C76.4734 53.5112 76.4822 53.3997 76.5478 53.3209L79.0153 50.2716C79.0962 50.1709 79.0897 50.0244 78.9978 49.9347L76.5697 47.5066C76.5257 47.4624 76.4669 47.4362 76.4046 47.433C76.3424 47.4297 76.2812 47.4497 76.2328 47.4891L73.1791 49.9544C73.0981 50.02 72.9888 50.0266 72.8991 49.9784C72.3168 49.6588 71.7014 49.4035 71.0638 49.2172C70.9653 49.1888 70.8931 49.1056 70.8822 49.0028L70.4688 45.1003C70.4556 44.9734 70.3462 44.875 70.2172 44.875H66.7828C66.6538 44.875 66.5444 44.9734 66.5312 45.1003L66.1178 49.0006C66.1069 49.1034 66.0347 49.1866 65.9362 49.215C65.2909 49.4031 64.6762 49.6591 64.1009 49.9762C64.0112 50.0266 63.8997 50.0178 63.8209 49.9522L60.7716 47.4869C60.7232 47.4475 60.662 47.4276 60.5998 47.4308C60.5375 47.434 60.4787 47.4602 60.4347 47.5044L58.0066 49.9325C57.9624 49.9765 57.9362 50.0353 57.933 50.0976C57.9297 50.1598 57.9497 50.221 57.9891 50.2694L60.4566 53.3187C60.5222 53.3997 60.5288 53.5091 60.4806 53.5988C60.161 54.1811 59.9057 54.7965 59.7194 55.4341C59.6909 55.5325 59.6078 55.6047 59.505 55.6156L55.6003 56.0312C55.4734 56.0444 55.375 56.1538 55.375 56.2828V59.7172C55.375 59.8462 55.4734 59.9556 55.6003 59.9688L59.5006 60.3822C59.6034 60.3931 59.6866 60.4653 59.715 60.5638C59.9031 61.2091 60.1591 61.8238 60.4762 62.3991C60.5266 62.4888 60.5178 62.6003 60.4522 62.6791L57.9869 65.7284C57.9059 65.8291 57.9125 65.9756 58.0044 66.0653L60.4325 68.4934C60.5244 68.5853 60.6687 68.5919 60.7694 68.5109L63.8187 66.0434C63.8997 65.9778 64.0091 65.9713 64.0988 66.0194C64.6763 66.3366 65.2909 66.5925 65.9341 66.7806C66.0325 66.8091 66.1047 66.8922 66.1156 66.995L66.5312 70.8997C66.5444 71.0288 66.6538 71.125 66.7828 71.125H70.2172C70.3462 71.125 70.4556 71.0266 70.4688 70.8997L70.8822 66.9994C70.8931 66.8966 70.9653 66.8134 71.0638 66.785C71.7091 66.5969 72.3238 66.3409 72.8991 66.0238C72.9888 65.9734 73.1003 65.9822 73.1791 66.0478L76.2284 68.5153C76.3291 68.5962 76.4756 68.5897 76.5653 68.4978L78.9934 66.0697C79.0853 65.9778 79.0919 65.8334 79.0109 65.7328L76.5434 62.6834C76.4778 62.6025 76.4713 62.4931 76.5194 62.4034C76.8366 61.8259 77.0925 61.2112 77.2806 60.5681C77.3091 60.4697 77.3922 60.3975 77.495 60.3866L81.3997 59.9688C81.5266 59.9556 81.625 59.8462 81.625 59.7172ZM68.5 60.4675C67.1372 60.4675 66.0325 59.3628 66.0325 58C66.0325 56.6372 67.1372 55.5325 68.5 55.5325C69.8628 55.5325 70.9675 56.6372 70.9675 58C70.9675 59.3628 69.8628 60.4675 68.5 60.4675Z" fill="#82AEC0"/>
<path d="M72.1225 54.8237C72.9253 55.7381 73.3869 56.9609 73.3103 58.2909C73.1681 60.7321 71.16 62.7075 68.7166 62.8146C67.6775 62.8606 66.7084 62.5762 65.9034 62.06C65.8422 62.0206 65.7766 62.1037 65.8291 62.1562C66.3327 62.6714 66.9437 63.0692 67.6186 63.3214C68.2935 63.5736 69.0157 63.6739 69.7337 63.6153C72.0919 63.4293 74.0125 61.5371 74.2291 59.1812C74.3975 57.3525 73.5597 55.7096 72.21 54.734C72.1466 54.6903 72.0744 54.7668 72.1225 54.8237Z" fill="#2F7889"/>
<path d="M64.0966 58.2888C63.95 55.4122 65.8094 53.3035 68.4737 53.3035C68.6159 53.3035 68.8412 53.3035 69.0162 53.5047C69.2372 53.7628 69.2569 54.0735 69.0162 54.3294C68.8391 54.5175 68.5897 54.5307 68.4628 54.5482C65.7722 54.896 65.1422 56.5935 65 58.2166C64.9934 58.2888 65.0131 58.7307 64.6259 58.7766C64.1556 58.8313 64.0987 58.3588 64.0966 58.2888Z" fill="#B9E4EA"/>
<path d="M60.0212 58.409C60.0191 53.5899 63.4994 49.6174 68.3622 49.4293C68.5109 49.4228 68.8981 49.4293 69.1387 49.6459C69.3597 49.8449 69.4406 50.1949 69.3116 50.4815C69.1037 50.9431 68.6881 50.9343 68.5766 50.9387C64.5275 51.0831 61.0997 54.3796 61.0975 58.3653C61.0975 58.4287 61.0866 58.4921 61.0647 58.549L61.0428 58.6037C60.8766 59.0368 60.2728 59.0609 60.0737 58.6431C60.0409 58.5687 60.0212 58.4899 60.0212 58.409Z" fill="#94D1E0"/>
</svg>
