<svg width="136" height="118" viewBox="0 0 136 118" fill="none" xmlns="http://www.w3.org/2000/svg">
<mask id="path-1-inside-1_576_10477" fill="white">
<path fill-rule="evenodd" clip-rule="evenodd" d="M87 0C86.4477 0 86.0029 0.448498 85.9727 0.999957C85.4538 10.476 77.6056 18 68 18C58.3944 18 50.5462 10.476 50.0273 0.999955C49.9971 0.448497 49.5523 0 49 0L22 0C19.7909 0 18 1.79086 18 4L18 31C18 31.5523 17.5515 31.9971 17 32.0273C7.52403 32.5462 0 40.3944 0 50C0 59.6056 7.52403 67.4538 17 67.9727C17.5515 68.0029 18 68.4477 18 69L18 96C18 98.2091 19.7909 100 22 100L49 100C49.5523 100 49.9971 100.449 50.0273 101C50.5462 110.476 58.3944 118 68 118C77.6056 118 85.4538 110.476 85.9727 101C86.0029 100.448 86.4477 100 87 100L114 100C116.209 100 118 98.2091 118 96V69C118 68.4477 118.449 68.0029 119 67.9727C128.476 67.4538 136 59.6056 136 50C136 40.3944 128.476 32.5462 119 32.0273C118.448 31.9971 118 31.5523 118 31V4C118 1.79086 116.209 0 114 0L87 0Z"/>
</mask>
<path fill-rule="evenodd" clip-rule="evenodd" d="M87 0C86.4477 0 86.0029 0.448498 85.9727 0.999957C85.4538 10.476 77.6056 18 68 18C58.3944 18 50.5462 10.476 50.0273 0.999955C49.9971 0.448497 49.5523 0 49 0L22 0C19.7909 0 18 1.79086 18 4L18 31C18 31.5523 17.5515 31.9971 17 32.0273C7.52403 32.5462 0 40.3944 0 50C0 59.6056 7.52403 67.4538 17 67.9727C17.5515 68.0029 18 68.4477 18 69L18 96C18 98.2091 19.7909 100 22 100L49 100C49.5523 100 49.9971 100.449 50.0273 101C50.5462 110.476 58.3944 118 68 118C77.6056 118 85.4538 110.476 85.9727 101C86.0029 100.448 86.4477 100 87 100L114 100C116.209 100 118 98.2091 118 96V69C118 68.4477 118.449 68.0029 119 67.9727C128.476 67.4538 136 59.6056 136 50C136 40.3944 128.476 32.5462 119 32.0273C118.448 31.9971 118 31.5523 118 31V4C118 1.79086 116.209 0 114 0L87 0Z" fill="#374151" fill-opacity="0.4"/>
<path d="M18 4H17H18ZM18 96H17H18ZM119 32.0273L119.055 31.0288L119 32.0273ZM118 31H117H118ZM119 67.9727L119.055 68.9712L119 67.9727ZM50.0273 101L49.0288 101.055L50.0273 101ZM18 31H19H18ZM17 32.0273L16.9454 31.0288L17 32.0273ZM17 67.9727L16.9454 68.9712L17 67.9727ZM18 69H17H18ZM50.0273 0.999955L49.0288 1.05463L50.0273 0.999955ZM85.9727 101L84.9742 100.945L85.9727 101ZM85.9727 0.999957L84.9742 0.945284L85.9727 0.999957ZM68 19C78.1395 19 86.4235 11.058 86.9712 1.05463L84.9742 0.945284C84.4842 9.89398 77.0716 17 68 17V19ZM49.0288 1.05463C49.5765 11.058 57.8604 19 68 19V17C58.9284 17 51.5158 9.89397 51.0258 0.945282L49.0288 1.05463ZM22 1L49 1V-1L22 -1V1ZM19 4C19 2.34315 20.3431 1 22 1V-1C19.2386 -1 17 1.23858 17 4H19ZM19 31L19 4H17L17 31H19ZM1 50C1 40.9284 8.10602 33.5158 17.0547 33.0258L16.9454 31.0288C6.94204 31.5765 -1 39.8604 -1 50H1ZM17.0547 66.9742C8.10603 66.4842 1 59.0716 1 50H-1C-1 60.1396 6.94204 68.4235 16.9454 68.9712L17.0547 66.9742ZM19 96L19 69H17L17 96H19ZM22 99C20.3431 99 19 97.6569 19 96H17C17 98.7614 19.2386 101 22 101L22 99ZM49 99L22 99L22 101L49 101V99ZM68 117C58.9284 117 51.5158 109.894 51.0258 100.945L49.0288 101.055C49.5765 111.058 57.8604 119 68 119V117ZM84.9742 100.945C84.4842 109.894 77.0716 117 68 117V119C78.1395 119 86.4235 111.058 86.9712 101.055L84.9742 100.945ZM114 99L87 99V101L114 101V99ZM117 96C117 97.6569 115.657 99 114 99V101C116.761 101 119 98.7614 119 96H117ZM117 69V96H119V69H117ZM135 50C135 59.0716 127.894 66.4842 118.945 66.9742L119.055 68.9712C129.058 68.4235 137 60.1396 137 50H135ZM118.945 33.0258C127.894 33.5158 135 40.9284 135 50H137C137 39.8604 129.058 31.5765 119.055 31.0288L118.945 33.0258ZM117 4V31H119V4H117ZM114 1C115.657 1 117 2.34315 117 4H119C119 1.23858 116.761 -1 114 -1V1ZM87 1L114 1V-1L87 -1V1ZM119.055 31.0288C119.033 31.0276 119.016 31.0187 119.006 31.0081C119.001 31.0033 119 31.0001 119 30.9999C119 30.9998 119 31.0001 119 31.0007C119 31.0012 119 31.0012 119 31H117C117 32.1183 117.899 32.9685 118.945 33.0258L119.055 31.0288ZM119 69C119 68.9988 119 68.9988 119 68.9994C119 68.9999 119 69.0002 119 69.0001C119 68.9999 119.001 68.9967 119.006 68.9919C119.016 68.9813 119.033 68.9724 119.055 68.9712L118.945 66.9742C117.899 67.0315 117 67.8817 117 69H119ZM49 101C49.0012 101 49.0012 101 49.0006 101C49.0001 101 48.9998 101 48.9999 101C49.0001 101 49.0033 101.001 49.0081 101.006C49.0187 101.016 49.0276 101.033 49.0288 101.055L51.0258 100.945C50.9685 99.8992 50.1183 99 49 99V101ZM17 31C17 31.0012 16.9999 31.0012 17 31.0006C17.0001 31.0001 17.0003 30.9998 17.0002 30.9999C17.0002 31.0001 16.9987 31.0033 16.994 31.0081C16.9836 31.0187 16.9667 31.0276 16.9454 31.0288L17.0547 33.0258C18.1008 32.9685 19 32.1183 19 31H17ZM16.9454 68.9712C16.9667 68.9724 16.9836 68.9813 16.994 68.9919C16.9987 68.9967 17.0002 68.9999 17.0002 69.0001C17.0003 69.0002 17.0001 68.9999 17 68.9994C16.9999 68.9988 17 68.9988 17 69H19C19 67.8817 18.1008 67.0315 17.0547 66.9742L16.9454 68.9712ZM51.0258 0.945282C50.9685 -0.100789 50.1183 -1 49 -1V1C49.0012 1 49.0012 1.0001 49.0006 0.999977C49.0001 0.999868 48.9998 0.999738 48.9999 0.999766C49.0001 0.999846 49.0033 1.00127 49.0081 1.006C49.0187 1.0164 49.0276 1.03335 49.0288 1.05463L51.0258 0.945282ZM86.9712 101.055C86.9724 101.033 86.9813 101.016 86.9919 101.006C86.9967 101.001 86.9999 101 87.0001 101C87.0002 101 86.9999 101 86.9994 101C86.9988 101 86.9988 101 87 101V99C85.8817 99 85.0315 99.8992 84.9742 100.945L86.9712 101.055ZM86.9712 1.05463C86.9724 1.03335 86.9813 1.0164 86.9919 1.006C86.9967 1.00127 86.9999 0.999846 87.0001 0.999766C87.0002 0.999738 86.9999 0.999868 86.9994 0.999977C86.9988 1.0001 86.9988 1 87 1V-1C85.8817 -1 85.0315 -0.100786 84.9742 0.945284L86.9712 1.05463Z" fill="#374151" mask="url(#path-1-inside-1_576_10477)"/>
<path d="M26.262 72.144C25.4833 72.144 24.8113 71.9733 24.246 71.632C23.6807 71.2907 23.2433 70.816 22.934 70.208C22.6353 69.5893 22.486 68.8747 22.486 68.064C22.486 67.4453 22.5713 66.8907 22.742 66.4C22.9127 65.9093 23.1633 65.4933 23.494 65.152C23.8247 64.8 24.2193 64.5333 24.678 64.352C25.1473 64.1707 25.6753 64.08 26.262 64.08C26.646 64.08 27.046 64.1387 27.462 64.256C27.878 64.3733 28.2567 64.576 28.598 64.864C28.7047 64.9387 28.774 65.0293 28.806 65.136C28.838 65.2427 28.838 65.3493 28.806 65.456C28.774 65.552 28.7207 65.6373 28.646 65.712C28.5713 65.776 28.4753 65.8133 28.358 65.824C28.2513 65.8347 28.1393 65.7973 28.022 65.712C27.7447 65.4987 27.462 65.3493 27.174 65.264C26.886 65.1787 26.6087 65.136 26.342 65.136C25.926 65.136 25.5633 65.2053 25.254 65.344C24.9447 65.472 24.6833 65.6587 24.47 65.904C24.2567 66.1493 24.0913 66.4533 23.974 66.816C23.8673 67.1787 23.814 67.6 23.814 68.08C23.814 69.008 24.0327 69.744 24.47 70.288C24.9073 70.8213 25.5313 71.088 26.342 71.088C26.6087 71.088 26.8807 71.0453 27.158 70.96C27.446 70.8747 27.734 70.7253 28.022 70.512C28.1393 70.4267 28.2513 70.3893 28.358 70.4C28.4647 70.4107 28.5553 70.4533 28.63 70.528C28.7047 70.592 28.7527 70.6773 28.774 70.784C28.806 70.8907 28.806 70.9973 28.774 71.104C28.742 71.2 28.6727 71.2853 28.566 71.36C28.2247 71.6373 27.8513 71.84 27.446 71.968C27.0407 72.0853 26.646 72.144 26.262 72.144ZM31.0123 72.112C30.7989 72.112 30.6389 72.0533 30.5323 71.936C30.4256 71.8187 30.3723 71.6533 30.3723 71.44V61.264C30.3723 61.0507 30.4256 60.8907 30.5323 60.784C30.6389 60.6667 30.7989 60.608 31.0123 60.608C31.2149 60.608 31.3749 60.6667 31.4923 60.784C31.6096 60.8907 31.6683 61.0507 31.6683 61.264V65.952H31.4603C31.6843 65.3333 32.0469 64.8693 32.5483 64.56C33.0603 64.24 33.6469 64.08 34.3083 64.08C34.9269 64.08 35.4389 64.192 35.8443 64.416C36.2603 64.64 36.5696 64.9813 36.7723 65.44C36.9749 65.888 37.0763 66.4587 37.0763 67.152V71.44C37.0763 71.6533 37.0176 71.8187 36.9003 71.936C36.7936 72.0533 36.6389 72.112 36.4363 72.112C36.2229 72.112 36.0576 72.0533 35.9403 71.936C35.8336 71.8187 35.7803 71.6533 35.7803 71.44V67.232C35.7803 66.5067 35.6363 65.9787 35.3483 65.648C35.0709 65.3067 34.6229 65.136 34.0043 65.136C33.2896 65.136 32.7189 65.36 32.2923 65.808C31.8763 66.2453 31.6683 66.832 31.6683 67.568V71.44C31.6683 71.888 31.4496 72.112 31.0123 72.112ZM41.914 72.144C41.3807 72.144 40.9007 72.0427 40.474 71.84C40.058 71.6267 39.7273 71.3387 39.482 70.976C39.2367 70.6133 39.114 70.208 39.114 69.76C39.114 69.184 39.258 68.7307 39.546 68.4C39.8447 68.0693 40.33 67.8347 41.002 67.696C41.6847 67.5573 42.6127 67.488 43.786 67.488H44.506V68.336H43.802C42.938 68.336 42.2553 68.3787 41.754 68.464C41.2633 68.5387 40.9167 68.672 40.714 68.864C40.522 69.056 40.426 69.328 40.426 69.68C40.426 70.1173 40.5753 70.4747 40.874 70.752C41.1833 71.0293 41.5993 71.168 42.122 71.168C42.5487 71.168 42.922 71.0667 43.242 70.864C43.5727 70.6613 43.8287 70.384 44.01 70.032C44.202 69.68 44.298 69.2747 44.298 68.816V66.992C44.298 66.3307 44.1647 65.856 43.898 65.568C43.6313 65.2693 43.194 65.12 42.586 65.12C42.2127 65.12 41.8393 65.168 41.466 65.264C41.0927 65.36 40.698 65.5147 40.282 65.728C40.1327 65.8027 40.0047 65.8293 39.898 65.808C39.7913 65.776 39.706 65.7173 39.642 65.632C39.578 65.5467 39.5407 65.4507 39.53 65.344C39.5193 65.2267 39.5407 65.1147 39.594 65.008C39.658 64.9013 39.754 64.816 39.882 64.752C40.3513 64.5173 40.8153 64.3467 41.274 64.24C41.7327 64.1333 42.17 64.08 42.586 64.08C43.258 64.08 43.8127 64.192 44.25 64.416C44.6873 64.6293 45.0127 64.96 45.226 65.408C45.4393 65.8453 45.546 66.4107 45.546 67.104V71.44C45.546 71.6533 45.4927 71.8187 45.386 71.936C45.29 72.0533 45.146 72.112 44.954 72.112C44.7513 72.112 44.5967 72.0533 44.49 71.936C44.3833 71.8187 44.33 71.6533 44.33 71.44V70.192H44.474C44.3887 70.5973 44.2233 70.944 43.978 71.232C43.7433 71.52 43.45 71.744 43.098 71.904C42.746 72.064 42.3513 72.144 41.914 72.144ZM48.5904 72.112C48.377 72.112 48.217 72.0533 48.1104 71.936C48.0037 71.8187 47.9504 71.6533 47.9504 71.44V64.768C47.9504 64.5547 48.0037 64.3947 48.1104 64.288C48.217 64.1707 48.3717 64.112 48.5744 64.112C48.777 64.112 48.9317 64.1707 49.0384 64.288C49.1557 64.3947 49.2144 64.5547 49.2144 64.768V66.144L49.0384 65.952C49.2624 65.3333 49.625 64.8693 50.1264 64.56C50.6384 64.24 51.225 64.08 51.8864 64.08C52.505 64.08 53.017 64.192 53.4224 64.416C53.8384 64.64 54.1477 64.9813 54.3504 65.44C54.553 65.888 54.6544 66.4587 54.6544 67.152V71.44C54.6544 71.6533 54.5957 71.8187 54.4784 71.936C54.3717 72.0533 54.217 72.112 54.0144 72.112C53.801 72.112 53.6357 72.0533 53.5184 71.936C53.4117 71.8187 53.3584 71.6533 53.3584 71.44V67.232C53.3584 66.5067 53.2144 65.9787 52.9264 65.648C52.649 65.3067 52.201 65.136 51.5824 65.136C50.8677 65.136 50.297 65.36 49.8704 65.808C49.4544 66.2453 49.2464 66.832 49.2464 67.568V71.44C49.2464 71.888 49.0277 72.112 48.5904 72.112ZM60.4841 75.024C59.9188 75.024 59.3641 74.9547 58.8201 74.816C58.2868 74.688 57.8015 74.48 57.3641 74.192C57.2361 74.1173 57.1508 74.0267 57.1081 73.92C57.0761 73.8133 57.0708 73.7067 57.0921 73.6C57.1135 73.504 57.1615 73.4133 57.2361 73.328C57.3108 73.2533 57.3961 73.2053 57.4921 73.184C57.5988 73.1627 57.7055 73.1787 57.8121 73.232C58.2815 73.52 58.7295 73.7173 59.1561 73.824C59.5828 73.9307 60.0041 73.984 60.4201 73.984C61.1775 73.984 61.7481 73.7813 62.1321 73.376C62.5268 72.9707 62.7241 72.384 62.7241 71.616V69.808H62.8841C62.7241 70.4267 62.3828 70.9173 61.8601 71.28C61.3481 71.6427 60.7455 71.824 60.0521 71.824C59.3375 71.824 58.7188 71.664 58.1961 71.344C57.6735 71.0133 57.2681 70.5547 56.9801 69.968C56.7028 69.3813 56.5641 68.704 56.5641 67.936C56.5641 67.36 56.6441 66.8373 56.8041 66.368C56.9641 65.888 57.1935 65.4827 57.4921 65.152C57.8015 64.8107 58.1695 64.5493 58.5961 64.368C59.0335 64.176 59.5188 64.08 60.0521 64.08C60.7561 64.08 61.3641 64.2613 61.8761 64.624C62.3881 64.976 62.7188 65.456 62.8681 66.064L62.7081 66.256V64.768C62.7081 64.5547 62.7615 64.3947 62.8681 64.288C62.9855 64.1707 63.1455 64.112 63.3481 64.112C63.5615 64.112 63.7215 64.1707 63.8281 64.288C63.9348 64.3947 63.9881 64.5547 63.9881 64.768V71.44C63.9881 72.624 63.6895 73.5147 63.0921 74.112C62.5055 74.72 61.6361 75.024 60.4841 75.024ZM60.2921 70.768C60.7935 70.768 61.2255 70.656 61.5881 70.432C61.9508 70.1973 62.2281 69.8667 62.4201 69.44C62.6228 69.0133 62.7241 68.512 62.7241 67.936C62.7241 67.072 62.5055 66.3893 62.0681 65.888C61.6308 65.376 61.0388 65.12 60.2921 65.12C59.8015 65.12 59.3748 65.2373 59.0121 65.472C58.6495 65.696 58.3668 66.0213 58.1641 66.448C57.9721 66.864 57.8761 67.36 57.8761 67.936C57.8761 68.8 58.0948 69.488 58.5321 70C58.9695 70.512 59.5561 70.768 60.2921 70.768ZM69.9231 72.144C69.1018 72.144 68.3925 71.984 67.7951 71.664C67.2085 71.3333 66.7498 70.8693 66.4191 70.272C66.0991 69.6747 65.9391 68.96 65.9391 68.128C65.9391 67.3173 66.0991 66.6133 66.4191 66.016C66.7391 65.408 67.1765 64.9333 67.7311 64.592C68.2965 64.2507 68.9471 64.08 69.6831 64.08C70.2058 64.08 70.6751 64.1707 71.0911 64.352C71.5071 64.5227 71.8591 64.7733 72.1471 65.104C72.4458 65.4347 72.6698 65.8347 72.8191 66.304C72.9791 66.7733 73.0591 67.3013 73.0591 67.888C73.0591 68.0587 73.0111 68.1867 72.9151 68.272C72.8191 68.3467 72.6805 68.384 72.4991 68.384H66.9311V67.536H72.1951L71.9391 67.744C71.9391 67.168 71.8538 66.6827 71.6831 66.288C71.5125 65.8827 71.2618 65.5733 70.9311 65.36C70.6111 65.1467 70.2058 65.04 69.7151 65.04C69.1711 65.04 68.7071 65.168 68.3231 65.424C67.9498 65.6693 67.6671 66.016 67.4751 66.464C67.2831 66.9013 67.1871 67.4133 67.1871 68V68.096C67.1871 69.0773 67.4218 69.824 67.8911 70.336C68.3711 70.848 69.0485 71.104 69.9231 71.104C70.2858 71.104 70.6431 71.056 70.9951 70.96C71.3578 70.864 71.7098 70.704 72.0511 70.48C72.2005 70.384 72.3338 70.3413 72.4511 70.352C72.5791 70.352 72.6805 70.3893 72.7551 70.464C72.8298 70.528 72.8778 70.6133 72.8991 70.72C72.9311 70.816 72.9205 70.9227 72.8671 71.04C72.8245 71.1573 72.7338 71.2587 72.5951 71.344C72.2431 71.6 71.8271 71.7973 71.3471 71.936C70.8671 72.0747 70.3925 72.144 69.9231 72.144ZM77.3028 72.144C76.5348 72.144 75.9481 71.9093 75.5428 71.44C75.1374 70.9707 74.9348 70.2987 74.9348 69.424V61.264C74.9348 61.0507 74.9881 60.8907 75.0948 60.784C75.2014 60.6667 75.3614 60.608 75.5748 60.608C75.7774 60.608 75.9374 60.6667 76.0548 60.784C76.1721 60.8907 76.2308 61.0507 76.2308 61.264V69.328C76.2308 69.904 76.3428 70.336 76.5668 70.624C76.8014 70.9013 77.1428 71.04 77.5908 71.04C77.6868 71.04 77.7721 71.0347 77.8468 71.024C77.9214 71.0133 77.9961 71.008 78.0708 71.008C78.1881 70.9973 78.2681 71.024 78.3108 71.088C78.3641 71.152 78.3908 71.28 78.3908 71.472C78.3908 71.664 78.3481 71.808 78.2628 71.904C78.1774 72 78.0388 72.064 77.8468 72.096C77.7614 72.1067 77.6708 72.1173 77.5748 72.128C77.4788 72.1387 77.3881 72.144 77.3028 72.144ZM82.823 72.144C82.0657 72.144 81.4097 71.9787 80.855 71.648C80.3003 71.3173 79.8683 70.8533 79.559 70.256C79.2603 69.648 79.111 68.9333 79.111 68.112C79.111 67.4933 79.1963 66.9387 79.367 66.448C79.5377 65.9467 79.7883 65.52 80.119 65.168C80.4497 64.816 80.839 64.5493 81.287 64.368C81.7457 64.176 82.2577 64.08 82.823 64.08C83.5803 64.08 84.2363 64.2453 84.791 64.576C85.3457 64.9067 85.7723 65.376 86.071 65.984C86.3803 66.5813 86.535 67.2907 86.535 68.112C86.535 68.7307 86.4497 69.2853 86.279 69.776C86.1083 70.2667 85.8577 70.6933 85.527 71.056C85.1963 71.408 84.8017 71.68 84.343 71.872C83.895 72.0533 83.3883 72.144 82.823 72.144ZM82.823 71.104C83.303 71.104 83.7243 70.9867 84.087 70.752C84.4497 70.5173 84.727 70.176 84.919 69.728C85.1217 69.28 85.223 68.7413 85.223 68.112C85.223 67.1413 85.0043 66.4 84.567 65.888C84.1403 65.376 83.559 65.12 82.823 65.12C82.3323 65.12 81.9057 65.2373 81.543 65.472C81.191 65.696 80.9137 66.032 80.711 66.48C80.519 66.9173 80.423 67.4613 80.423 68.112C80.423 69.072 80.6417 69.8133 81.079 70.336C81.5163 70.848 82.0977 71.104 82.823 71.104ZM91.9216 75.024C91.3563 75.024 90.8016 74.9547 90.2576 74.816C89.7243 74.688 89.239 74.48 88.8016 74.192C88.6736 74.1173 88.5883 74.0267 88.5456 73.92C88.5136 73.8133 88.5083 73.7067 88.5296 73.6C88.551 73.504 88.599 73.4133 88.6736 73.328C88.7483 73.2533 88.8336 73.2053 88.9296 73.184C89.0363 73.1627 89.143 73.1787 89.2496 73.232C89.719 73.52 90.167 73.7173 90.5936 73.824C91.0203 73.9307 91.4416 73.984 91.8576 73.984C92.615 73.984 93.1856 73.7813 93.5696 73.376C93.9643 72.9707 94.1616 72.384 94.1616 71.616V69.808H94.3216C94.1616 70.4267 93.8203 70.9173 93.2976 71.28C92.7856 71.6427 92.183 71.824 91.4896 71.824C90.775 71.824 90.1563 71.664 89.6336 71.344C89.111 71.0133 88.7056 70.5547 88.4176 69.968C88.1403 69.3813 88.0016 68.704 88.0016 67.936C88.0016 67.36 88.0816 66.8373 88.2416 66.368C88.4016 65.888 88.631 65.4827 88.9296 65.152C89.239 64.8107 89.607 64.5493 90.0336 64.368C90.471 64.176 90.9563 64.08 91.4896 64.08C92.1936 64.08 92.8016 64.2613 93.3136 64.624C93.8256 64.976 94.1563 65.456 94.3056 66.064L94.1456 66.256V64.768C94.1456 64.5547 94.199 64.3947 94.3056 64.288C94.423 64.1707 94.583 64.112 94.7856 64.112C94.999 64.112 95.159 64.1707 95.2656 64.288C95.3723 64.3947 95.4256 64.5547 95.4256 64.768V71.44C95.4256 72.624 95.127 73.5147 94.5296 74.112C93.943 74.72 93.0736 75.024 91.9216 75.024ZM91.7296 70.768C92.231 70.768 92.663 70.656 93.0256 70.432C93.3883 70.1973 93.6656 69.8667 93.8576 69.44C94.0603 69.0133 94.1616 68.512 94.1616 67.936C94.1616 67.072 93.943 66.3893 93.5056 65.888C93.0683 65.376 92.4763 65.12 91.7296 65.12C91.239 65.12 90.8123 65.2373 90.4496 65.472C90.087 65.696 89.8043 66.0213 89.6016 66.448C89.4096 66.864 89.3136 67.36 89.3136 67.936C89.3136 68.8 89.5323 69.488 89.9696 70C90.407 70.512 90.9936 70.768 91.7296 70.768ZM101.361 72.144C100.539 72.144 99.83 71.984 99.2326 71.664C98.646 71.3333 98.1873 70.8693 97.8566 70.272C97.5366 69.6747 97.3766 68.96 97.3766 68.128C97.3766 67.3173 97.5366 66.6133 97.8566 66.016C98.1766 65.408 98.614 64.9333 99.1686 64.592C99.734 64.2507 100.385 64.08 101.121 64.08C101.643 64.08 102.113 64.1707 102.529 64.352C102.945 64.5227 103.297 64.7733 103.585 65.104C103.883 65.4347 104.107 65.8347 104.257 66.304C104.417 66.7733 104.497 67.3013 104.497 67.888C104.497 68.0587 104.449 68.1867 104.353 68.272C104.257 68.3467 104.118 68.384 103.937 68.384H98.3686V67.536H103.633L103.377 67.744C103.377 67.168 103.291 66.6827 103.121 66.288C102.95 65.8827 102.699 65.5733 102.369 65.36C102.049 65.1467 101.643 65.04 101.153 65.04C100.609 65.04 100.145 65.168 99.7606 65.424C99.3873 65.6693 99.1046 66.016 98.9126 66.464C98.7206 66.9013 98.6246 67.4133 98.6246 68V68.096C98.6246 69.0773 98.8593 69.824 99.3286 70.336C99.8086 70.848 100.486 71.104 101.361 71.104C101.723 71.104 102.081 71.056 102.433 70.96C102.795 70.864 103.147 70.704 103.489 70.48C103.638 70.384 103.771 70.3413 103.889 70.352C104.017 70.352 104.118 70.3893 104.193 70.464C104.267 70.528 104.315 70.6133 104.337 70.72C104.369 70.816 104.358 70.9227 104.305 71.04C104.262 71.1573 104.171 71.2587 104.033 71.344C103.681 71.6 103.265 71.7973 102.785 71.936C102.305 72.0747 101.83 72.144 101.361 72.144ZM107.012 72.112C106.799 72.112 106.639 72.0533 106.532 71.936C106.426 71.8187 106.372 71.6533 106.372 71.44V64.768C106.372 64.5547 106.426 64.3947 106.532 64.288C106.639 64.1707 106.794 64.112 106.996 64.112C107.199 64.112 107.354 64.1707 107.46 64.288C107.578 64.3947 107.636 64.5547 107.636 64.768V66.144L107.46 65.952C107.684 65.3333 108.047 64.8693 108.548 64.56C109.06 64.24 109.647 64.08 110.308 64.08C110.927 64.08 111.439 64.192 111.844 64.416C112.26 64.64 112.57 64.9813 112.772 65.44C112.975 65.888 113.076 66.4587 113.076 67.152V71.44C113.076 71.6533 113.018 71.8187 112.9 71.936C112.794 72.0533 112.639 72.112 112.436 72.112C112.223 72.112 112.058 72.0533 111.94 71.936C111.834 71.8187 111.78 71.6533 111.78 71.44V67.232C111.78 66.5067 111.636 65.9787 111.348 65.648C111.071 65.3067 110.623 65.136 110.004 65.136C109.29 65.136 108.719 65.36 108.292 65.808C107.876 66.2453 107.668 66.832 107.668 67.568V71.44C107.668 71.888 107.45 72.112 107.012 72.112Z" fill="#F9FAFB"/>
<g clip-path="url(#clip0_576_10477)">
<path d="M70.6491 47.665C72.4538 45.1122 71.2288 43.9113 70.8328 43.4825C70.4369 43.0538 63.3537 46.2213 63.3537 46.2213C63.3537 46.2213 66.7728 43.675 68.35 42.0606C70.1 40.2691 69.4 39.1994 69.3081 38.8231C68.245 34.5028 58.3334 41.5531 58.3334 41.5531C58.3334 41.5531 59.1734 40.9297 60.2191 40.2078C61.5447 39.2934 63.0891 37.8694 62.2534 36.0559C62.0194 35.5463 58.585 35.7147 54.875 37.41V53.125H65.9984C67.8797 51.0272 70.0344 48.5356 70.6491 47.665Z" fill="#BA8F63"/>
<path d="M66.9172 50.01C66.9172 50.01 68.5469 48.5247 67.8491 48.4985C66.6941 48.4547 65.4669 47.3369 65.5478 46.5319C65.6638 45.39 68.8466 46.5691 69.1856 46.1381C69.6953 45.4928 70.1722 44.8191 70.6097 44.1235C70.66 44.0447 70.7103 43.9616 70.7234 43.8675C70.7519 43.6706 70.5484 43.476 70.4216 43.3535C69.3103 42.2641 68.3347 42.1241 66.0006 43.9113C64.3206 45.1997 58.1803 50.3075 54.875 53.066V53.125H63.7694L66.9172 50.01ZM61.9559 35.4303C61.9341 35.3581 61.8378 35.2772 61.7897 35.2181C61.6825 35.0891 61.5644 34.9688 61.4353 34.8594C61.1706 34.6363 61.0788 33.7066 59.6766 33.9035C59.0291 33.9931 56.9334 35.0453 54.875 36.1435V41.8638C57.0603 40.5119 57.7713 40.0831 58.2831 39.6391C58.8934 39.1097 56.59 39.3525 56.7716 36.9485C56.8328 36.1478 61.0131 36.2572 61.7984 35.66C61.8553 35.6163 61.9538 35.5485 61.9625 35.4697C61.9625 35.4566 61.9603 35.4435 61.9559 35.4303ZM68.1575 38.0794C68.0897 37.9744 68.0175 37.8716 67.9431 37.771C67.7856 37.5631 67.6041 37.3728 67.4006 37.211C67.0638 36.9419 66.8625 37.0228 66.4994 36.7931C66.0159 36.4847 64.6794 37.3903 61.6059 39.2169C59.8078 40.2844 57.1916 41.9994 54.875 43.5525V50.686C59.2238 47.3281 64.9463 42.9291 65.4056 42.4872C65.8453 42.0628 62.9819 42.076 63.3756 39.8578C63.4325 39.5363 66.1581 40.9538 66.3003 40.6585C66.5716 40.0963 66.9041 39.5625 67.2934 39.0769C67.4444 38.8888 67.6106 38.7028 67.8272 38.6C67.9475 38.5431 68.0853 38.5081 68.1706 38.4097C68.2581 38.3069 68.2209 38.18 68.1575 38.0794Z" fill="#E0BB95"/>
<path d="M63.2313 33.7175C63.8613 34.6122 63.6709 35.6031 62.1113 36.9944C60.9716 38.0116 60.2081 38.4163 59.0947 38.6481C58.1059 38.8538 57.4322 38.3134 56.835 37.2284C56.3581 36.36 56.6775 35.8831 56.8962 35.5944C57.5569 34.7216 59.2216 33.9691 60.1162 33.6366C61.5425 33.1072 62.7828 33.0788 63.2313 33.7175ZM69.2775 39.6325C68.5206 40.3325 67.335 41.2994 66.2981 41.5881C65.8125 41.7238 64.8172 41.8178 63.8263 40.6213C62.8463 39.44 63.4741 38.6766 63.7038 38.3834C64.4213 37.4669 65.6309 36.7931 66.6941 36.3031C68.0109 35.6972 69.2863 35.4719 69.9644 36.0428C70.8613 36.7953 70.7191 38.3025 69.2775 39.6325ZM71.3316 42.2028C72.4297 42.9356 71.7713 44.6288 71.1478 45.4578C70.4763 46.3525 69.5684 47.3938 68.7875 47.7416C68.2384 47.9866 67.3525 48.2141 66.1472 47.2078C65.1519 46.3744 65.48 45.2281 65.8169 44.6638C66.3484 43.7734 67.3197 43.1216 68.4222 42.4653C69.6428 41.7413 70.6841 41.7697 71.3316 42.2028Z" fill="#F44336"/>
<path d="M71.1478 45.4578C71.6159 44.8322 72.1059 43.7188 71.85 42.8919C71.3972 43.4344 68.7088 46.6259 67.475 47.1159C66.9434 47.3281 66.3813 47.385 66.3813 47.385L66.3791 47.3872C67.4663 48.1834 68.2734 47.9691 68.7875 47.7416C69.5684 47.3959 70.4763 46.3525 71.1478 45.4578ZM70.52 37.41C69.5859 38.1275 66.2106 40.6475 65.1256 40.8947C64.6531 41.0019 64.3841 41.0391 64.2069 41.0128C65.0228 41.7478 65.8628 41.7084 66.2981 41.5881C67.335 41.2972 68.5206 40.3303 69.2775 39.6325C70.0803 38.8909 70.4784 38.0969 70.52 37.41ZM58.1891 38.0816C57.8872 38.1275 57.6663 38.1538 57.5022 38.1538C57.9441 38.5956 58.4538 38.7794 59.0969 38.6459C60.2103 38.4141 60.9738 38.0094 62.1134 36.9922C62.9097 36.2813 63.3472 35.6775 63.5025 35.135C62.0719 36.0691 59.1363 37.935 58.1891 38.0816Z" fill="#C62828"/>
<path d="M57.9419 35.7431C58.4537 35.1547 59.6087 34.2359 61.0634 33.8138C61.7197 33.6234 61.9144 34.2753 61.4747 34.4547C60.5406 34.8375 58.6987 35.8613 58.4494 36.0034C57.9331 36.2922 57.5853 36.1522 57.9419 35.7431ZM64.6094 38.6766C65.4122 37.7513 66.1034 37.2613 67.4881 36.5613C67.7922 36.4081 68.2166 36.3819 68.3937 36.4891C68.7503 36.7034 68.7744 36.9988 68.3325 37.2241C66.3834 38.2216 65.8803 38.6481 65.0556 39.0856C64.5787 39.3394 64.3469 38.9806 64.6094 38.6766ZM68.1137 43.5809C69.0522 42.7628 69.6537 42.5244 69.8462 42.6709C70.1897 42.9313 69.9272 43.255 69.5947 43.5109C69.2622 43.7669 67.4969 45.1822 67.23 45.3878C66.9631 45.5934 66.5737 45.6853 66.7334 45.2588C66.8669 44.9022 67.3875 44.2131 68.1137 43.5809Z" fill="#FF7555"/>
<path d="M71.7516 32.3416C71.4147 33.3325 72.8803 34.7281 75.0284 35.4609C77.1766 36.1938 79.1913 35.9838 79.5281 34.9928C79.6966 34.4963 81.0331 26.875 81.0331 26.875H74.5888C73.6109 28.7563 71.9725 31.6897 71.7516 32.3416Z" fill="#546E7A"/>
<path d="M78.7917 34.9328C78.9999 34.3221 77.7281 33.336 75.9511 32.7302C74.1742 32.1243 72.5649 32.1282 72.3567 32.7388C72.1485 33.3495 73.4203 34.3356 75.1972 34.9414C76.9742 35.5473 78.5835 35.5434 78.7917 34.9328Z" fill="#202020"/>
<path d="M73.7903 40.6628C73.8406 40.5709 74.0134 40.1597 74.0572 40.1006C74.2475 39.8512 74.4028 39.8272 74.5494 39.4509C74.6741 39.1337 76.4044 34.2206 76.4044 34.2206C76.4044 34.2206 76.5203 33.6868 75.7744 33.4331C75.0306 33.1793 74.7944 33.6737 74.7944 33.6737C74.7944 33.6737 73.1625 38.285 72.9831 38.81C72.8322 39.2562 72.9919 39.3787 72.8869 39.6609C72.8694 39.7112 72.6834 40.0437 72.6441 40.105L73.7903 40.6628Z" fill="#546E7A"/>
<path d="M73.2084 39.4181C73.0816 39.4225 72.9613 39.4028 72.7775 39.615C72.4319 40.0066 71.9266 40.4375 71.1347 40.7394C70.8875 40.8334 70.5528 40.9975 70.5659 41.2622C70.5944 41.8463 71.6816 42.6119 72.4931 42.3953C73.215 42.2028 73.8691 40.9625 73.9194 40.7131C73.9697 40.4638 74.0594 40.1466 73.9938 39.9519C73.8931 39.6544 73.5213 39.4094 73.2084 39.4181Z" fill="#F44336"/>
<path d="M71.2288 41.5313C71.3381 41.5706 71.4431 41.4744 71.5503 41.4263C71.7078 41.3541 71.8938 41.3956 72.0534 41.4634C72.2131 41.5313 72.3641 41.6231 72.5347 41.6581C72.7884 41.7106 73.0575 41.6209 73.2675 41.4656C73.4753 41.3103 73.88 40.2406 74.0091 40.0153C74.0222 40.0788 74.0397 40.1772 74.0244 40.2931C73.9063 41.2141 73.1428 42.2881 72.5303 42.4413C72.2919 42.5003 71.9309 42.5091 71.6903 42.4609C71.4475 42.4128 71.1631 42.2794 70.9597 42.1372C70.7562 41.995 70.6141 41.8134 70.5025 41.5903C70.4478 41.4809 70.4675 41.3147 70.5309 41.2009C70.5747 41.12 70.6622 41.0719 70.7519 41.0653C70.8569 41.0566 70.9684 41.1069 71.0297 41.1944C71.0931 41.2841 71.0931 41.4088 71.1697 41.4897C71.1828 41.5072 71.2047 41.5225 71.2288 41.5313Z" fill="#C62828"/>
<path d="M72.2744 41.2709C71.6313 41.7543 71.3338 41.6384 71.2113 41.5837C71.0866 41.529 70.9947 41.3868 71.0319 41.2556C71.0713 41.1156 71.2222 41.0478 71.3556 40.9909C71.6619 40.8618 72.0666 40.7284 72.3466 40.5468C73.3375 39.9103 73.1297 39.5778 73.3244 39.6368C73.5191 39.6959 73.2719 40.2362 73.0006 40.595C72.7928 40.8662 72.4778 41.1178 72.2744 41.2709Z" fill="#FF7555"/>
<path d="M73.1997 31.6962C73.5431 31.6525 74.1469 31.6809 74.6019 31.7444C74.7616 31.7662 74.9169 31.6831 74.9825 31.5366C75.4156 30.5937 76.2994 28.5375 76.4656 28.0541C76.6275 27.5794 75.0634 27.3562 74.7069 27.9469C74.2803 28.6556 73.0509 31.1822 73.0509 31.1822C72.8606 31.4884 72.9087 31.7356 73.1997 31.6962ZM73.1516 39.0703C73.0291 39.0266 72.9591 38.8822 73.0006 38.7509C73.2894 37.8584 74.4487 34.575 74.6347 34.1616C74.8534 33.6803 75.4462 33.7919 75.3281 34.1616C75.2275 34.4766 73.8362 37.9853 73.4862 38.9216C73.4381 39.0572 73.2741 39.1141 73.1516 39.0703Z" fill="#78909C"/>
</g>
<defs>
<clipPath id="clip0_576_10477">
<rect width="28" height="28" fill="white" transform="translate(54 26)"/>
</clipPath>
</defs>
</svg>
