<svg width="100" height="118" viewBox="0 0 100 118" fill="none" xmlns="http://www.w3.org/2000/svg">
<mask id="path-1-inside-1_576_10476" fill="white">
<path fill-rule="evenodd" clip-rule="evenodd" d="M69 0C68.4477 0 68.0029 0.448498 67.9727 0.999957C67.4538 10.476 59.6056 18 50 18C40.3944 18 32.5462 10.476 32.0273 0.999955C31.9971 0.448497 31.5523 0 31 0L4 0C1.79086 0 0 1.79086 0 4L0 31C0 31.5523 0.448498 31.9971 0.999957 32.0273C10.476 32.5462 18 40.3944 18 50C18 59.6056 10.476 67.4538 0.999955 67.9727C0.448497 68.0029 0 68.4477 0 69L0 96C0 98.2091 1.79086 100 4 100H31C31.5523 100 31.9971 100.449 32.0273 101C32.5462 110.476 40.3944 118 50 118C59.6056 118 67.4538 110.476 67.9727 101C68.0029 100.448 68.4477 100 69 100H96C98.2091 100 100 98.2091 100 96V69C100 68.4477 99.5515 68.0029 99 67.9727C89.524 67.4538 82 59.6056 82 50C82 40.3944 89.524 32.5462 99 32.0273C99.5515 31.9971 100 31.5523 100 31V4C100 1.79086 98.2091 0 96 0L69 0Z"/>
</mask>
<path fill-rule="evenodd" clip-rule="evenodd" d="M69 0C68.4477 0 68.0029 0.448498 67.9727 0.999957C67.4538 10.476 59.6056 18 50 18C40.3944 18 32.5462 10.476 32.0273 0.999955C31.9971 0.448497 31.5523 0 31 0L4 0C1.79086 0 0 1.79086 0 4L0 31C0 31.5523 0.448498 31.9971 0.999957 32.0273C10.476 32.5462 18 40.3944 18 50C18 59.6056 10.476 67.4538 0.999955 67.9727C0.448497 68.0029 0 68.4477 0 69L0 96C0 98.2091 1.79086 100 4 100H31C31.5523 100 31.9971 100.449 32.0273 101C32.5462 110.476 40.3944 118 50 118C59.6056 118 67.4538 110.476 67.9727 101C68.0029 100.448 68.4477 100 69 100H96C98.2091 100 100 98.2091 100 96V69C100 68.4477 99.5515 68.0029 99 67.9727C89.524 67.4538 82 59.6056 82 50C82 40.3944 89.524 32.5462 99 32.0273C99.5515 31.9971 100 31.5523 100 31V4C100 1.79086 98.2091 0 96 0L69 0Z" fill="#374151" fill-opacity="0.4"/>
<path d="M99 32.0273L98.9454 31.0288L99 32.0273ZM99 67.9727L98.9454 68.9712L99 67.9727ZM32.0273 101L33.0258 100.945L32.0273 101ZM0.999957 32.0273L0.945284 33.0258L0.999957 32.0273ZM32.0273 0.999955L31.0288 1.05463L32.0273 0.999955ZM67.9727 101L66.9742 100.945L67.9727 101ZM67.9727 0.999957L66.9742 0.945284L67.9727 0.999957ZM50 19C60.1396 19 68.4235 11.058 68.9712 1.05463L66.9742 0.945284C66.4842 9.89398 59.0716 17 50 17L50 19ZM31.0288 1.05463C31.5765 11.058 39.8604 19 50 19L50 17C40.9284 17 33.5158 9.89397 33.0258 0.945282L31.0288 1.05463ZM4 1L31 1V-1L4 -1V1ZM1 4C1 2.34315 2.34315 1 4 1V-1C1.23858 -1 -1 1.23858 -1 4H1ZM1 31L1 4H-1L-1 31H1ZM19 50C19 39.8604 11.058 31.5765 1.05463 31.0288L0.945284 33.0258C9.89398 33.5158 17 40.9284 17 50L19 50ZM1.05463 68.9712C11.058 68.4235 19 60.1396 19 50L17 50C17 59.0716 9.89397 66.4842 0.945282 66.9742L1.05463 68.9712ZM1 96L1 69H-1L-1 96H1ZM4 99C2.34315 99 1 97.6569 1 96H-1C-1 98.7614 1.23858 101 4 101V99ZM31 99H4V101H31L31 99ZM50 117C40.9284 117 33.5158 109.894 33.0258 100.945L31.0288 101.055C31.5765 111.058 39.8604 119 50 119V117ZM66.9742 100.945C66.4842 109.894 59.0716 117 50 117V119C60.1396 119 68.4235 111.058 68.9712 101.055L66.9742 100.945ZM96 99H69V101H96V99ZM99 96C99 97.6569 97.6569 99 96 99V101C98.7614 101 101 98.7614 101 96H99ZM99 69V96H101V69H99ZM81 50C81 60.1396 88.942 68.4235 98.9454 68.9712L99.0547 66.9742C90.106 66.4842 83 59.0716 83 50H81ZM98.9454 31.0288C88.942 31.5765 81 39.8604 81 50H83C83 40.9284 90.106 33.5158 99.0547 33.0258L98.9454 31.0288ZM99 4V31H101V4L99 4ZM96 1C97.6569 1 99 2.34315 99 4L101 4C101 1.23858 98.7614 -1 96 -1V1ZM69 1L96 1V-1L69 -1V1ZM99.0547 33.0258C100.101 32.9685 101 32.1183 101 31H99C99 31.0012 98.9999 31.0012 99 31.0007C99.0001 31.0001 99.0003 30.9998 99.0002 30.9999C99.0002 31.0001 98.9987 31.0033 98.994 31.0081C98.9836 31.0187 98.9667 31.0276 98.9454 31.0288L99.0547 33.0258ZM101 69C101 67.8817 100.101 67.0315 99.0547 66.9742L98.9454 68.9712C98.9667 68.9724 98.9836 68.9813 98.994 68.9919C98.9987 68.9967 99.0002 68.9999 99.0002 69.0001C99.0003 69.0002 99.0001 68.9999 99 68.9994C98.9999 68.9988 99 68.9988 99 69H101ZM31 101C31.0012 101 31.0012 101 31.0006 101C31.0001 101 30.9998 101 30.9999 101C31.0001 101 31.0033 101.001 31.0081 101.006C31.0187 101.016 31.0276 101.033 31.0288 101.055L33.0258 100.945C32.9685 99.8992 32.1183 99 31 99L31 101ZM-1 31C-1 32.1183 -0.100786 32.9685 0.945284 33.0258L1.05463 31.0288C1.03335 31.0276 1.0164 31.0187 1.006 31.0081C1.00127 31.0033 0.999846 31.0001 0.999766 30.9999C0.999738 30.9998 0.999868 31.0001 0.999977 31.0006C1.0001 31.0012 1 31.0012 1 31H-1ZM0.945282 66.9742C-0.100789 67.0315 -1 67.8817 -1 69H1C1 68.9988 1.0001 68.9988 0.999977 68.9994C0.999868 68.9999 0.999738 69.0002 0.999766 69.0001C0.999846 68.9999 1.00127 68.9967 1.006 68.9919C1.0164 68.9813 1.03335 68.9724 1.05463 68.9712L0.945282 66.9742ZM33.0258 0.945282C32.9685 -0.100789 32.1183 -1 31 -1V1C31.0012 1 31.0012 1.0001 31.0007 0.999977C31.0001 0.999868 30.9998 0.999738 30.9999 0.999766C31.0001 0.999846 31.0033 1.00127 31.0081 1.006C31.0187 1.0164 31.0276 1.03335 31.0288 1.05463L33.0258 0.945282ZM68.9712 101.055C68.9724 101.033 68.9813 101.016 68.9919 101.006C68.9967 101.001 68.9999 101 69.0001 101C69.0002 101 68.9999 101 68.9994 101C68.9988 101 68.9988 101 69 101V99C67.8817 99 67.0315 99.8992 66.9742 100.945L68.9712 101.055ZM68.9712 1.05463C68.9724 1.03335 68.9813 1.0164 68.9919 1.006C68.9967 1.00127 68.9999 0.999846 69.0001 0.999766C69.0002 0.999738 68.9999 0.999868 68.9994 0.999977C68.9988 1.0001 68.9988 1 69 1V-1C67.8817 -1 67.0315 -0.100786 66.9742 0.945284L68.9712 1.05463Z" fill="#374151" mask="url(#path-1-inside-1_576_10476)"/>
<path d="M39.3011 72.144C38.5224 72.144 37.8504 71.9733 37.2851 71.632C36.7197 71.2907 36.2824 70.816 35.9731 70.208C35.6744 69.5893 35.5251 68.8747 35.5251 68.064C35.5251 67.4453 35.6104 66.8907 35.7811 66.4C35.9517 65.9093 36.2024 65.4933 36.5331 65.152C36.8637 64.8 37.2584 64.5333 37.7171 64.352C38.1864 64.1707 38.7144 64.08 39.3011 64.08C39.6851 64.08 40.0851 64.1387 40.5011 64.256C40.9171 64.3733 41.2957 64.576 41.6371 64.864C41.7437 64.9387 41.8131 65.0293 41.8451 65.136C41.8771 65.2427 41.8771 65.3493 41.8451 65.456C41.8131 65.552 41.7597 65.6373 41.6851 65.712C41.6104 65.776 41.5144 65.8133 41.3971 65.824C41.2904 65.8347 41.1784 65.7973 41.0611 65.712C40.7837 65.4987 40.5011 65.3493 40.2131 65.264C39.9251 65.1787 39.6477 65.136 39.3811 65.136C38.9651 65.136 38.6024 65.2053 38.2931 65.344C37.9837 65.472 37.7224 65.6587 37.5091 65.904C37.2957 66.1493 37.1304 66.4533 37.0131 66.816C36.9064 67.1787 36.8531 67.6 36.8531 68.08C36.8531 69.008 37.0717 69.744 37.5091 70.288C37.9464 70.8213 38.5704 71.088 39.3811 71.088C39.6477 71.088 39.9197 71.0453 40.1971 70.96C40.4851 70.8747 40.7731 70.7253 41.0611 70.512C41.1784 70.4267 41.2904 70.3893 41.3971 70.4C41.5037 70.4107 41.5944 70.4533 41.6691 70.528C41.7437 70.592 41.7917 70.6773 41.8131 70.784C41.8451 70.8907 41.8451 70.9973 41.8131 71.104C41.7811 71.2 41.7117 71.2853 41.6051 71.36C41.2637 71.6373 40.8904 71.84 40.4851 71.968C40.0797 72.0853 39.6851 72.144 39.3011 72.144ZM44.0513 72.08C43.838 72.08 43.678 72.0213 43.5713 71.904C43.4646 71.776 43.4113 71.6 43.4113 71.376V64.832C43.4113 64.608 43.4646 64.4373 43.5713 64.32C43.678 64.2027 43.838 64.144 44.0513 64.144C44.254 64.144 44.414 64.2027 44.5313 64.32C44.6486 64.4373 44.7073 64.608 44.7073 64.832V71.376C44.7073 71.6 44.6486 71.776 44.5313 71.904C44.4246 72.0213 44.2646 72.08 44.0513 72.08ZM44.0513 62.352C43.7846 62.352 43.5766 62.2827 43.4273 62.144C43.278 61.9947 43.2033 61.7973 43.2033 61.552C43.2033 61.296 43.278 61.104 43.4273 60.976C43.5766 60.8373 43.7846 60.768 44.0513 60.768C44.3286 60.768 44.5366 60.8373 44.6753 60.976C44.8246 61.104 44.8993 61.296 44.8993 61.552C44.8993 61.7973 44.8246 61.9947 44.6753 62.144C44.5366 62.2827 44.3286 62.352 44.0513 62.352ZM50.2501 72.144C49.6421 72.144 49.1301 72.0373 48.7141 71.824C48.3087 71.6 48.0047 71.28 47.8021 70.864C47.5994 70.4373 47.4981 69.92 47.4981 69.312V65.232H46.4261C46.2447 65.232 46.1061 65.1893 46.0101 65.104C45.9141 65.008 45.8661 64.88 45.8661 64.72C45.8661 64.56 45.9141 64.4373 46.0101 64.352C46.1061 64.2667 46.2447 64.224 46.4261 64.224H47.4981V62.384C47.4981 62.1707 47.5567 62.0107 47.6741 61.904C47.7914 61.7867 47.9514 61.728 48.1541 61.728C48.3567 61.728 48.5114 61.7867 48.6181 61.904C48.7354 62.0107 48.7941 62.1707 48.7941 62.384V64.224H50.8101C50.9914 64.224 51.1301 64.2667 51.2261 64.352C51.3221 64.4373 51.3701 64.56 51.3701 64.72C51.3701 64.88 51.3221 65.008 51.2261 65.104C51.1301 65.1893 50.9914 65.232 50.8101 65.232H48.7941V69.184C48.7941 69.792 48.9221 70.256 49.1781 70.576C49.4341 70.8853 49.8501 71.04 50.4261 71.04C50.6287 71.04 50.7994 71.0187 50.9381 70.976C51.0874 70.9333 51.2101 70.912 51.3061 70.912C51.4021 70.9013 51.4821 70.9333 51.5461 71.008C51.6101 71.0827 51.6421 71.2107 51.6421 71.392C51.6421 71.52 51.6154 71.6373 51.5621 71.744C51.5194 71.8507 51.4394 71.9253 51.3221 71.968C51.1941 72.0107 51.0234 72.048 50.8101 72.08C50.6074 72.1227 50.4207 72.144 50.2501 72.144ZM55.6407 72.144C55.0327 72.144 54.5207 72.0373 54.1047 71.824C53.6994 71.6 53.3954 71.28 53.1927 70.864C52.99 70.4373 52.8887 69.92 52.8887 69.312V65.232H51.8167C51.6354 65.232 51.4967 65.1893 51.4007 65.104C51.3047 65.008 51.2567 64.88 51.2567 64.72C51.2567 64.56 51.3047 64.4373 51.4007 64.352C51.4967 64.2667 51.6354 64.224 51.8167 64.224H52.8887V62.384C52.8887 62.1707 52.9474 62.0107 53.0647 61.904C53.182 61.7867 53.342 61.728 53.5447 61.728C53.7474 61.728 53.902 61.7867 54.0087 61.904C54.126 62.0107 54.1847 62.1707 54.1847 62.384V64.224H56.2007C56.382 64.224 56.5207 64.2667 56.6167 64.352C56.7127 64.4373 56.7607 64.56 56.7607 64.72C56.7607 64.88 56.7127 65.008 56.6167 65.104C56.5207 65.1893 56.382 65.232 56.2007 65.232H54.1847V69.184C54.1847 69.792 54.3127 70.256 54.5687 70.576C54.8247 70.8853 55.2407 71.04 55.8167 71.04C56.0194 71.04 56.19 71.0187 56.3287 70.976C56.478 70.9333 56.6007 70.912 56.6967 70.912C56.7927 70.9013 56.8727 70.9333 56.9367 71.008C57.0007 71.0827 57.0327 71.2107 57.0327 71.392C57.0327 71.52 57.006 71.6373 56.9527 71.744C56.91 71.8507 56.83 71.9253 56.7127 71.968C56.5847 72.0107 56.414 72.048 56.2007 72.08C55.998 72.1227 55.8114 72.144 55.6407 72.144ZM59.9362 74.992C59.7762 74.992 59.6482 74.9493 59.5522 74.864C59.4562 74.7787 59.3975 74.6613 59.3762 74.512C59.3655 74.3733 59.3922 74.2293 59.4562 74.08L60.5602 71.6V72.16L57.4882 65.024C57.4242 64.864 57.4029 64.7147 57.4242 64.576C57.4455 64.4373 57.5095 64.3253 57.6162 64.24C57.7229 64.1547 57.8722 64.112 58.0642 64.112C58.2349 64.112 58.3682 64.1493 58.4642 64.224C58.5602 64.2987 58.6455 64.432 58.7202 64.624L61.3442 71.056H60.9122L63.5682 64.624C63.6535 64.432 63.7442 64.2987 63.8402 64.224C63.9362 64.1493 64.0749 64.112 64.2562 64.112C64.4269 64.112 64.5549 64.1547 64.6402 64.24C64.7362 64.3253 64.7895 64.4373 64.8002 64.576C64.8215 64.704 64.8002 64.848 64.7362 65.008L60.6402 74.48C60.5549 74.672 60.4589 74.8053 60.3522 74.88C60.2562 74.9547 60.1175 74.992 59.9362 74.992Z" fill="#F9FAFB"/>
<g clip-path="url(#clip0_576_10476)">
<path d="M61.5106 53.1819H38.4762C37.5684 53.1819 36.8312 52.4447 36.8312 51.5369V28.5025C36.8312 27.5947 37.5684 26.8575 38.4762 26.8575H61.5106C62.4184 26.8575 63.1556 27.5947 63.1556 28.5025V51.5369C63.1578 52.4447 62.4206 53.1819 61.5106 53.1819Z" fill="url(#paint0_radial_576_10476)"/>
<path d="M62.5344 39.6478H58.3781V44.4297H49.1666V30.1213H42.2672V44.4297H41.2872V36.7472H38.6994V46.0769H40.7775V51.6419H62.0247V49.2116H62.5344V39.6478Z" fill="#A47FCD"/>
<path d="M43.0897 31.4972H43.6081V33.1575H43.0897V31.4972ZM44.1944 31.4972H44.7347V33.1575H44.1944V31.4972ZM45.9028 31.4972H45.3734V33.1575L45.8897 33.1531L45.9028 31.4972Z" fill="#3F737B"/>
<path d="M47.0337 31.4972L46.465 31.4994L46.4803 33.1575H47.0294L47.0337 31.4972Z" fill="#A363B0"/>
<path d="M43.0897 31.4972H43.6081V33.1575H43.0897V31.4972ZM44.1944 31.4972H44.7347V33.1575H44.1944V31.4972ZM45.9116 31.4972H45.3734V33.1575L45.905 33.1531L45.9116 31.4972Z" fill="#FDE064"/>
<path d="M47.0337 34.1222L46.465 34.1244L46.4803 35.7825H47.0294L47.0337 34.1222Z" fill="#A463B0"/>
<path d="M43.0897 34.1222H43.6081V35.7825H43.0897V34.1222Z" fill="#FDE064"/>
<path d="M44.1944 34.1222H44.7347V35.7825H44.1944V34.1222ZM45.9116 34.1222H45.3734V35.7825L45.905 35.7781L45.9116 34.1222ZM43.0897 36.7472H43.6081V38.4075H43.0897V36.7472ZM44.1944 36.7472H44.7347V38.4075H44.1944V36.7472ZM45.9116 36.7472H45.3734V38.4075L45.905 38.4031L45.9116 36.7472Z" fill="#A463B0"/>
<path d="M47.6725 31.4972L47.6703 33.1575H48.2303V31.4972H47.6725Z" fill="#A363B0"/>
<path d="M59.0891 43.7625H59.7191V44.6244H59.0891V43.7625ZM60.3469 43.7625H60.9769V44.6244H60.3469V43.7625Z" fill="#A463B0"/>
<path d="M59.0891 42.1503H59.7191V43.0122H59.0891V42.1503Z" fill="#FDE064"/>
<path d="M60.3469 42.1503H60.9769V43.0122H60.3469V42.1503Z" fill="#A463B0"/>
<path d="M59.0891 40.6191H59.7191V41.481H59.0891V40.6191ZM60.3469 40.6191H60.9769V41.481H60.3469V40.6191Z" fill="#FDE064"/>
<path d="M61.1562 36.8063C61.0775 36.966 61.1562 46.1469 61.1562 46.1469H57.6847V40.8969H56.5669V39.2191H55.5759V37.795H53.7909V39.2913H52.6556V40.8597H51.4831V48.505H50.3806V39.9738H50.8947V38.3463H50.3806V34.9753H49.8009L49.0113 32.5341H47.4559L46.675 34.9753H46.0647V38.3463H45.5222V39.9738H46.0647V48.505H44.4941V40.8378H39.7603V32.2278C39.7603 32.2278 36.84 32.2082 36.8312 32.2169V51.5369C36.8312 52.4447 37.5684 53.1819 38.4762 53.1819H61.5106C62.4184 53.1819 63.1556 52.4447 63.1556 51.5369V36.8063H61.1562Z" fill="url(#paint1_radial_576_10476)"/>
<path d="M37.2491 51.4209H43.805V51.935H37.2491V51.4209ZM37.2491 49.5944H43.805V50.1084H37.2491V49.5944Z" fill="#A463B0"/>
<path d="M37.2491 47.7022H43.805V48.2162H37.2491V47.7022ZM37.2491 45.8756H43.805V46.3897H37.2491V45.8756ZM37.2491 43.7647H43.805V44.2787H37.2491V43.7647ZM37.2491 41.9381H43.805V42.4522H37.2491V41.9381Z" fill="#FDE064"/>
<path d="M37.2491 39.8513H37.6341V40.6606H37.2491V39.8513Z" fill="#A463B0"/>
<path d="M38.5616 39.8513H38.9466V40.6607H38.5616V39.8513ZM37.2491 38.226H37.6341V39.0353H37.2491V38.226ZM38.5616 38.226H38.9466V39.0353H38.5616V38.226ZM37.2491 36.6007H37.6341V37.41H37.2491V36.6007ZM38.5616 36.6007H38.9466V37.41H38.5616V36.6007ZM37.2491 34.9753H37.6341V35.7847H37.2491V34.9753ZM38.5616 34.9753H38.9466V35.7847H38.5616V34.9753ZM37.2491 33.3478H37.6341V34.1572H37.2491V33.3478Z" fill="#FDE064"/>
<path d="M38.5616 33.3478H38.9466V34.1572H38.5616V33.3478Z" fill="#A463B0"/>
<path d="M46.8938 40.1116H47.3903V41.1528H46.8938V40.1116ZM48.0706 40.1116H48.5672V41.1528H48.0706V40.1116ZM49.2038 40.1116H49.7003V41.1528H49.2038V40.1116ZM46.8938 42.0803H47.3903V43.1216H46.8938V42.0803ZM46.8938 47.3719H47.3903V48.4131H46.8938V47.3719Z" fill="#FDE064"/>
<path d="M48.0706 47.3719H48.5672V48.4131H48.0706V47.3719ZM49.2038 47.3719H49.7003V48.4131H49.2038V47.3719ZM48.0706 42.0803H48.5672V43.1216H48.0706V42.0803Z" fill="#A463B0"/>
<path d="M49.2038 42.0803H49.7003V43.1216H49.2038V42.0803Z" fill="#FDE064"/>
<path d="M46.8938 44.0491H47.3903V45.0903H46.8938V44.0491Z" fill="#A463B0"/>
<path d="M48.0706 44.0491H48.5672V45.0903H48.0706V44.0491ZM49.2038 44.0491H49.7003V45.0903H49.2038V44.0491Z" fill="#FDE064"/>
<path d="M47.8147 37.8037H48.8341V36.29C48.8341 36.29 48.8712 35.7212 48.32 35.7081C47.8016 35.695 47.795 36.2769 47.795 36.2769C47.795 36.2769 47.8278 37.8037 47.8147 37.8037Z" fill="#A463B0"/>
<path d="M53.4672 40.035H53.9638V42.1547H53.4672V40.035ZM55.3288 40.035H55.8253V42.1547H55.3288V40.035ZM54.4078 40.035H54.9044V42.1547H54.4078V40.035ZM52.7059 42.9706H53.2025V43.6465H52.7059V42.9706ZM54.4166 42.9706H54.9131V43.6465H54.4166V42.9706ZM56.1272 42.9706H56.6238V43.6465H56.1272V42.9706Z" fill="#FDE064"/>
<path d="M52.7059 45.1581H53.2025V45.8341H52.7059V45.1581Z" fill="#A463B0"/>
<path d="M54.4166 45.1581H54.9131V45.8341H54.4166V45.1581ZM56.1272 45.1581H56.6238V45.8341H56.1272V45.1581ZM52.7059 47.2253H53.2025V47.9013H52.7059V47.2253ZM54.4166 47.2253H54.9131V47.9013H54.4166V47.2253ZM56.1272 47.2253H56.6238V47.9013H56.1272V47.2253Z" fill="#FDE064"/>
<path d="M52.7059 49.4128H53.2025V50.0888H52.7059V49.4128Z" fill="#A463B0"/>
<path d="M54.4166 49.4128H54.9131V50.0888H54.4166V49.4128Z" fill="#FDE064"/>
<path d="M56.1272 49.4128H56.6238V50.0888H56.1272V49.4128ZM52.7059 51.4844H53.2025V52.1603H52.7059V51.4844ZM54.4166 51.4844H54.9131V52.1603H54.4166V51.4844ZM56.1272 51.4844H56.6238V52.1603H56.1272V51.4844Z" fill="#A463B0"/>
</g>
<defs>
<radialGradient id="paint0_radial_576_10476" cx="0" cy="0" r="1" gradientUnits="userSpaceOnUse" gradientTransform="translate(50.4876 56.0166) scale(29.5052)">
<stop offset="0.408" stop-color="#F4704F"/>
<stop offset="0.463" stop-color="#EF6F55"/>
<stop offset="0.536" stop-color="#E16D66"/>
<stop offset="0.621" stop-color="#CA6982"/>
<stop offset="0.713" stop-color="#A964A9"/>
<stop offset="0.727" stop-color="#A463B0"/>
<stop offset="0.772" stop-color="#9361B0"/>
<stop offset="0.861" stop-color="#655CAF"/>
<stop offset="0.944" stop-color="#3657AE"/>
</radialGradient>
<radialGradient id="paint1_radial_576_10476" cx="0" cy="0" r="1" gradientUnits="userSpaceOnUse" gradientTransform="translate(48.4663 31.0923) scale(21.9612)">
<stop offset="0.46" stop-color="#513076"/>
<stop offset="0.951" stop-color="#412769"/>
</radialGradient>
<clipPath id="clip0_576_10476">
<rect width="28" height="28" fill="white" transform="translate(36 26)"/>
</clipPath>
</defs>
</svg>
