<svg width="119" height="119" viewBox="0 0 119 119" fill="none" xmlns="http://www.w3.org/2000/svg">
<mask id="path-1-inside-1_776_11822" fill="white">
<path fill-rule="evenodd" clip-rule="evenodd" d="M68.5 18.5C78.1056 18.5 85.9538 10.976 86.4727 1.49996C86.5029 0.948497 86.9477 0.5 87.5 0.5L114.5 0.5C116.709 0.5 118.5 2.29086 118.5 4.5V30.5C118.5 31.0523 118.052 31.4971 117.5 31.5273C108.024 32.0462 100.5 39.8944 100.5 49.5C100.5 59.1056 108.024 66.9538 117.5 67.4727C118.052 67.5029 118.5 67.9477 118.5 68.5L118.5 96.5C118.5 98.7091 116.709 100.5 114.5 100.5H87.5C86.9477 100.5 86.5029 100.948 86.4727 101.5C85.9538 110.976 78.1056 118.5 68.5 118.5C58.8944 118.5 51.0462 110.976 50.5273 101.5C50.4971 100.948 50.0523 100.5 49.5 100.5L22.5 100.5C20.2909 100.5 18.5 98.7091 18.5 96.5L18.5 69.5C18.5 68.9477 18.0515 68.5029 17.5 68.4727C8.02403 67.9538 0.5 60.1056 0.5 50.5C0.5 40.8944 8.02403 33.0462 17.5 32.5273C18.0515 32.4971 18.5 32.0523 18.5 31.5L18.5 4.5C18.5 2.29086 20.2909 0.5 22.5 0.5L49.5 0.5C50.0523 0.5 50.4971 0.948498 50.5273 1.49996C51.0462 10.976 58.8944 18.5 68.5 18.5Z"/>
</mask>
<path fill-rule="evenodd" clip-rule="evenodd" d="M68.5 18.5C78.1056 18.5 85.9538 10.976 86.4727 1.49996C86.5029 0.948497 86.9477 0.5 87.5 0.5L114.5 0.5C116.709 0.5 118.5 2.29086 118.5 4.5V30.5C118.5 31.0523 118.052 31.4971 117.5 31.5273C108.024 32.0462 100.5 39.8944 100.5 49.5C100.5 59.1056 108.024 66.9538 117.5 67.4727C118.052 67.5029 118.5 67.9477 118.5 68.5L118.5 96.5C118.5 98.7091 116.709 100.5 114.5 100.5H87.5C86.9477 100.5 86.5029 100.948 86.4727 101.5C85.9538 110.976 78.1056 118.5 68.5 118.5C58.8944 118.5 51.0462 110.976 50.5273 101.5C50.4971 100.948 50.0523 100.5 49.5 100.5L22.5 100.5C20.2909 100.5 18.5 98.7091 18.5 96.5L18.5 69.5C18.5 68.9477 18.0515 68.5029 17.5 68.4727C8.02403 67.9538 0.5 60.1056 0.5 50.5C0.5 40.8944 8.02403 33.0462 17.5 32.5273C18.0515 32.4971 18.5 32.0523 18.5 31.5L18.5 4.5C18.5 2.29086 20.2909 0.5 22.5 0.5L49.5 0.5C50.0523 0.5 50.4971 0.948498 50.5273 1.49996C51.0462 10.976 58.8944 18.5 68.5 18.5Z" fill="#374151" fill-opacity="0.4"/>
<path d="M118.5 96.5H119.5H118.5ZM18.5 96.5L17.5 96.5V96.5H18.5ZM18.5 4.5L17.5 4.5L17.5 4.5L18.5 4.5ZM50.5273 1.49996L51.5258 1.44528L50.5273 1.49996ZM17.5 32.5273L17.4454 31.5288L17.5 32.5273ZM18.5 31.5L17.5 31.5L18.5 31.5ZM18.5 69.5L17.5 69.5L18.5 69.5ZM17.5 68.4727L17.4454 69.4712L17.5 68.4727ZM50.5273 101.5L49.5288 101.555L50.5273 101.5ZM117.5 67.4727L117.555 66.4742L117.5 67.4727ZM118.5 68.5H117.5H118.5ZM86.4727 101.5L87.4712 101.555L86.4727 101.5ZM117.5 31.5273L117.555 32.5258L117.5 31.5273ZM85.4742 1.44528C84.9842 10.394 77.5716 17.5 68.5 17.5V19.5C78.6396 19.5 86.9235 11.558 87.4712 1.55463L85.4742 1.44528ZM114.5 -0.5L87.5 -0.5V1.5L114.5 1.5V-0.5ZM119.5 4.5C119.5 1.73858 117.261 -0.5 114.5 -0.5V1.5C116.157 1.5 117.5 2.84315 117.5 4.5H119.5ZM119.5 30.5V4.5H117.5V30.5H119.5ZM101.5 49.5C101.5 40.4284 108.606 33.0158 117.555 32.5258L117.445 30.5288C107.442 31.0765 99.5 39.3604 99.5 49.5H101.5ZM117.555 66.4742C108.606 65.9842 101.5 58.5716 101.5 49.5H99.5C99.5 59.6396 107.442 67.9235 117.445 68.4712L117.555 66.4742ZM119.5 96.5L119.5 68.5H117.5L117.5 96.5H119.5ZM114.5 101.5C117.261 101.5 119.5 99.2614 119.5 96.5H117.5C117.5 98.1569 116.157 99.5 114.5 99.5V101.5ZM87.5 101.5H114.5V99.5H87.5V101.5ZM68.5 119.5C78.6396 119.5 86.9235 111.558 87.4712 101.555L85.4742 101.445C84.9842 110.394 77.5716 117.5 68.5 117.5V119.5ZM49.5288 101.555C50.0765 111.558 58.3604 119.5 68.5 119.5V117.5C59.4284 117.5 52.0158 110.394 51.5258 101.445L49.5288 101.555ZM22.5 101.5L49.5 101.5V99.5L22.5 99.5L22.5 101.5ZM17.5 96.5C17.5 99.2614 19.7386 101.5 22.5 101.5L22.5 99.5C20.8431 99.5 19.5 98.1569 19.5 96.5H17.5ZM17.5 69.5L17.5 96.5L19.5 96.5L19.5 69.5L17.5 69.5ZM17.5547 67.4742C8.60603 66.9842 1.5 59.5716 1.5 50.5H-0.5C-0.5 60.6396 7.44204 68.9235 17.4454 69.4712L17.5547 67.4742ZM1.5 50.5C1.5 41.4284 8.60603 34.0158 17.5547 33.5258L17.4454 31.5288C7.44204 32.0765 -0.5 40.3604 -0.5 50.5H1.5ZM17.5 4.5L17.5 31.5L19.5 31.5L19.5 4.5L17.5 4.5ZM22.5 -0.5C19.7386 -0.5 17.5 1.73858 17.5 4.5L19.5 4.5C19.5 2.84315 20.8431 1.5 22.5 1.5V-0.5ZM49.5 -0.5L22.5 -0.5V1.5L49.5 1.5V-0.5ZM68.5 17.5C59.4284 17.5 52.0158 10.394 51.5258 1.44528L49.5288 1.55463C50.0765 11.558 58.3604 19.5 68.5 19.5V17.5ZM49.5 1.5C49.5012 1.5 49.5012 1.5001 49.5006 1.49998C49.5001 1.49987 49.4998 1.49974 49.4999 1.49977C49.5001 1.49985 49.5033 1.50127 49.5081 1.506C49.5187 1.5164 49.5276 1.53335 49.5288 1.55463L51.5258 1.44528C51.4685 0.399214 50.6183 -0.5 49.5 -0.5V1.5ZM17.5547 33.5258C18.6008 33.4685 19.5 32.6183 19.5 31.5L17.5 31.5C17.5 31.5012 17.4999 31.5012 17.5 31.5006C17.5001 31.5001 17.5003 31.4998 17.5002 31.4999C17.5002 31.5001 17.4987 31.5033 17.494 31.5081C17.4836 31.5187 17.4666 31.5276 17.4454 31.5288L17.5547 33.5258ZM19.5 69.5C19.5 68.3817 18.6008 67.5315 17.5547 67.4742L17.4454 69.4712C17.4667 69.4724 17.4836 69.4813 17.494 69.4919C17.4987 69.4967 17.5002 69.4999 17.5002 69.5001C17.5003 69.5002 17.5001 69.4999 17.5 69.4994C17.4999 69.4988 17.5 69.4988 17.5 69.5L19.5 69.5ZM87.4712 1.55463C87.4724 1.53335 87.4813 1.5164 87.4919 1.506C87.4967 1.50127 87.4999 1.49985 87.5001 1.49977C87.5002 1.49974 87.4999 1.49987 87.4993 1.49998C87.4988 1.5001 87.4988 1.5 87.5 1.5V-0.5C86.3817 -0.5 85.5315 0.399211 85.4742 1.44528L87.4712 1.55463ZM51.5258 101.445C51.4685 100.399 50.6183 99.5 49.5 99.5V101.5C49.5012 101.5 49.5012 101.5 49.5006 101.5C49.5001 101.5 49.4998 101.5 49.4999 101.5C49.5001 101.5 49.5033 101.501 49.5081 101.506C49.5187 101.516 49.5276 101.533 49.5288 101.555L51.5258 101.445ZM117.445 68.4712C117.467 68.4724 117.484 68.4813 117.494 68.4919C117.499 68.4967 117.5 68.4999 117.5 68.5001C117.5 68.5002 117.5 68.4999 117.5 68.4994C117.5 68.4988 117.5 68.4988 117.5 68.5H119.5C119.5 67.3817 118.601 66.5315 117.555 66.4742L117.445 68.4712ZM87.5 99.5C86.3817 99.5 85.5315 100.399 85.4742 101.445L87.4712 101.555C87.4724 101.533 87.4813 101.516 87.4919 101.506C87.4967 101.501 87.4999 101.5 87.5001 101.5C87.5002 101.5 87.4999 101.5 87.4994 101.5C87.4988 101.5 87.4988 101.5 87.5 101.5V99.5ZM117.5 30.5C117.5 30.5012 117.5 30.5012 117.5 30.5006C117.5 30.5001 117.5 30.4998 117.5 30.4999C117.5 30.5001 117.499 30.5033 117.494 30.5081C117.484 30.5187 117.467 30.5276 117.445 30.5288L117.555 32.5258C118.601 32.4685 119.5 31.6183 119.5 30.5H117.5Z" fill="#374151" mask="url(#path-1-inside-1_776_11822)"/>
<path d="M50.5031 71.608C49.9191 71.608 49.4151 71.48 48.9911 71.224C48.5671 70.968 48.2391 70.612 48.0071 70.156C47.7831 69.692 47.6711 69.156 47.6711 68.548C47.6711 68.084 47.7351 67.668 47.8631 67.3C47.9911 66.932 48.1791 66.62 48.4271 66.364C48.6751 66.1 48.9711 65.9 49.3151 65.764C49.6671 65.628 50.0631 65.56 50.5031 65.56C50.7911 65.56 51.0911 65.604 51.4031 65.692C51.7151 65.78 51.9991 65.932 52.2551 66.148C52.3351 66.204 52.3871 66.272 52.4111 66.352C52.4351 66.432 52.4351 66.512 52.4111 66.592C52.3871 66.664 52.3471 66.728 52.2911 66.784C52.2351 66.832 52.1631 66.86 52.0751 66.868C51.9951 66.876 51.9111 66.848 51.8231 66.784C51.6151 66.624 51.4031 66.512 51.1871 66.448C50.9711 66.384 50.7631 66.352 50.5631 66.352C50.2511 66.352 49.9791 66.404 49.7471 66.508C49.5151 66.604 49.3191 66.744 49.1591 66.928C48.9991 67.112 48.8751 67.34 48.7871 67.612C48.7071 67.884 48.6671 68.2 48.6671 68.56C48.6671 69.256 48.8311 69.808 49.1591 70.216C49.4871 70.616 49.9551 70.816 50.5631 70.816C50.7631 70.816 50.9671 70.784 51.1751 70.72C51.3911 70.656 51.6071 70.544 51.8231 70.384C51.9111 70.32 51.9951 70.292 52.0751 70.3C52.1551 70.308 52.2231 70.34 52.2791 70.396C52.3351 70.444 52.3711 70.508 52.3871 70.588C52.4111 70.668 52.4111 70.748 52.3871 70.828C52.3631 70.9 52.3111 70.964 52.2311 71.02C51.9751 71.228 51.6951 71.38 51.3911 71.476C51.0871 71.564 50.7911 71.608 50.5031 71.608ZM55.8926 71.608C55.3246 71.608 54.8326 71.484 54.4166 71.236C54.0006 70.988 53.6766 70.64 53.4446 70.192C53.2206 69.736 53.1086 69.2 53.1086 68.584C53.1086 68.12 53.1726 67.704 53.3006 67.336C53.4286 66.96 53.6166 66.64 53.8646 66.376C54.1126 66.112 54.4046 65.912 54.7406 65.776C55.0846 65.632 55.4686 65.56 55.8926 65.56C56.4606 65.56 56.9526 65.684 57.3686 65.932C57.7846 66.18 58.1046 66.532 58.3286 66.988C58.5606 67.436 58.6766 67.968 58.6766 68.584C58.6766 69.048 58.6126 69.464 58.4846 69.832C58.3566 70.2 58.1686 70.52 57.9206 70.792C57.6726 71.056 57.3766 71.26 57.0326 71.404C56.6966 71.54 56.3166 71.608 55.8926 71.608ZM55.8926 70.828C56.2526 70.828 56.5686 70.74 56.8406 70.564C57.1126 70.388 57.3206 70.132 57.4646 69.796C57.6166 69.46 57.6926 69.056 57.6926 68.584C57.6926 67.856 57.5286 67.3 57.2006 66.916C56.8806 66.532 56.4446 66.34 55.8926 66.34C55.5246 66.34 55.2046 66.428 54.9326 66.604C54.6686 66.772 54.4606 67.024 54.3086 67.36C54.1646 67.688 54.0926 68.096 54.0926 68.584C54.0926 69.304 54.2566 69.86 54.5846 70.252C54.9126 70.636 55.3486 70.828 55.8926 70.828ZM60.6166 71.584C60.4566 71.584 60.3366 71.54 60.2566 71.452C60.1766 71.364 60.1366 71.24 60.1366 71.08V66.076C60.1366 65.916 60.1766 65.796 60.2566 65.716C60.3366 65.628 60.4526 65.584 60.6046 65.584C60.7566 65.584 60.8726 65.628 60.9526 65.716C61.0406 65.796 61.0846 65.916 61.0846 66.076V67.108L60.9526 66.964C61.1206 66.5 61.3926 66.152 61.7686 65.92C62.1526 65.68 62.5926 65.56 63.0886 65.56C63.5526 65.56 63.9366 65.644 64.2406 65.812C64.5526 65.98 64.7846 66.236 64.9366 66.58C65.0886 66.916 65.1646 67.344 65.1646 67.864V71.08C65.1646 71.24 65.1206 71.364 65.0326 71.452C64.9526 71.54 64.8366 71.584 64.6846 71.584C64.5246 71.584 64.4006 71.54 64.3126 71.452C64.2326 71.364 64.1926 71.24 64.1926 71.08V67.924C64.1926 67.38 64.0846 66.984 63.8686 66.736C63.6606 66.48 63.3246 66.352 62.8606 66.352C62.3246 66.352 61.8966 66.52 61.5766 66.856C61.2646 67.184 61.1086 67.624 61.1086 68.176V71.08C61.1086 71.416 60.9446 71.584 60.6166 71.584ZM67.7489 71.584C67.5969 71.584 67.4769 71.54 67.3889 71.452C67.3089 71.364 67.2689 71.24 67.2689 71.08V66.424H66.5009C66.3729 66.424 66.2689 66.392 66.1889 66.328C66.1169 66.256 66.0809 66.16 66.0809 66.04C66.0809 65.92 66.1169 65.828 66.1889 65.764C66.2689 65.7 66.3729 65.668 66.5009 65.668H67.5329L67.2689 65.92V65.464C67.2689 64.704 67.4529 64.124 67.8209 63.724C68.1969 63.324 68.7449 63.092 69.4649 63.028L69.8129 62.992C69.9249 62.984 70.0129 63.004 70.0769 63.052C70.1489 63.1 70.1929 63.16 70.2089 63.232C70.2329 63.304 70.2369 63.38 70.2209 63.46C70.2049 63.532 70.1689 63.596 70.1129 63.652C70.0569 63.708 69.9889 63.74 69.9089 63.748L69.6329 63.772C69.1449 63.812 68.7889 63.96 68.5649 64.216C68.3489 64.472 68.2409 64.848 68.2409 65.344V65.848L68.0969 65.668H69.5369C69.6729 65.668 69.7769 65.7 69.8489 65.764C69.9209 65.828 69.9569 65.92 69.9569 66.04C69.9569 66.16 69.9209 66.256 69.8489 66.328C69.7769 66.392 69.6729 66.424 69.5369 66.424H68.2409V71.08C68.2409 71.416 68.0769 71.584 67.7489 71.584ZM73.905 71.608C73.377 71.608 72.921 71.472 72.537 71.2C72.161 70.928 71.909 70.564 71.781 70.108L71.913 69.976V71.08C71.913 71.24 71.869 71.364 71.781 71.452C71.701 71.54 71.585 71.584 71.433 71.584C71.273 71.584 71.153 71.54 71.073 71.452C70.993 71.364 70.953 71.24 70.953 71.08V63.448C70.953 63.288 70.993 63.168 71.073 63.088C71.153 63 71.273 62.956 71.433 62.956C71.585 62.956 71.705 63 71.793 63.088C71.881 63.168 71.925 63.288 71.925 63.448V67.024H71.781C71.917 66.576 72.173 66.22 72.549 65.956C72.925 65.692 73.377 65.56 73.905 65.56C74.433 65.56 74.889 65.684 75.273 65.932C75.657 66.172 75.953 66.52 76.161 66.976C76.377 67.424 76.485 67.96 76.485 68.584C76.485 69.2 76.377 69.736 76.161 70.192C75.953 70.64 75.653 70.988 75.261 71.236C74.877 71.484 74.425 71.608 73.905 71.608ZM73.701 70.828C74.069 70.828 74.385 70.74 74.649 70.564C74.921 70.388 75.129 70.132 75.273 69.796C75.425 69.46 75.501 69.056 75.501 68.584C75.501 67.856 75.337 67.3 75.009 66.916C74.689 66.532 74.253 66.34 73.701 66.34C73.341 66.34 73.025 66.428 72.753 66.604C72.481 66.772 72.269 67.024 72.117 67.36C71.973 67.688 71.901 68.096 71.901 68.584C71.901 69.304 72.065 69.86 72.393 70.252C72.721 70.636 73.157 70.828 73.701 70.828ZM80.3731 71.608C79.8051 71.608 79.3131 71.484 78.8971 71.236C78.4811 70.988 78.1571 70.64 77.9251 70.192C77.7011 69.736 77.5891 69.2 77.5891 68.584C77.5891 68.12 77.6531 67.704 77.7811 67.336C77.9091 66.96 78.0971 66.64 78.3451 66.376C78.5931 66.112 78.8851 65.912 79.2211 65.776C79.5651 65.632 79.9491 65.56 80.3731 65.56C80.9411 65.56 81.4331 65.684 81.8491 65.932C82.2651 66.18 82.5851 66.532 82.8091 66.988C83.0411 67.436 83.1571 67.968 83.1571 68.584C83.1571 69.048 83.0931 69.464 82.9651 69.832C82.8371 70.2 82.6491 70.52 82.4011 70.792C82.1531 71.056 81.8571 71.26 81.5131 71.404C81.1771 71.54 80.7971 71.608 80.3731 71.608ZM80.3731 70.828C80.7331 70.828 81.0491 70.74 81.3211 70.564C81.5931 70.388 81.8011 70.132 81.9451 69.796C82.0971 69.46 82.1731 69.056 82.1731 68.584C82.1731 67.856 82.0091 67.3 81.6811 66.916C81.3611 66.532 80.9251 66.34 80.3731 66.34C80.0051 66.34 79.6851 66.428 79.4131 66.604C79.1491 66.772 78.9411 67.024 78.7891 67.36C78.6451 67.688 78.5731 68.096 78.5731 68.584C78.5731 69.304 78.7371 69.86 79.0651 70.252C79.3931 70.636 79.8291 70.828 80.3731 70.828ZM84.5122 71.572C84.4082 71.572 84.3162 71.54 84.2362 71.476C84.1562 71.412 84.1122 71.328 84.1042 71.224C84.1042 71.112 84.1562 70.996 84.2602 70.876L86.3602 68.236V68.74L84.3922 66.28C84.2882 66.152 84.2362 66.036 84.2362 65.932C84.2442 65.828 84.2882 65.744 84.3682 65.68C84.4482 65.616 84.5402 65.584 84.6442 65.584C84.7642 65.584 84.8642 65.608 84.9442 65.656C85.0322 65.696 85.1122 65.764 85.1842 65.86L86.9002 68.032H86.5642L88.2922 65.86C88.3642 65.764 88.4402 65.696 88.5202 65.656C88.6002 65.608 88.7002 65.584 88.8202 65.584C88.9322 65.584 89.0242 65.616 89.0962 65.68C89.1762 65.744 89.2162 65.832 89.2162 65.944C89.2242 66.048 89.1762 66.164 89.0722 66.292L87.1162 68.716V68.272L89.2162 70.876C89.3122 70.996 89.3562 71.112 89.3482 71.224C89.3482 71.328 89.3082 71.412 89.2282 71.476C89.1482 71.54 89.0522 71.572 88.9402 71.572C88.8282 71.572 88.7282 71.548 88.6402 71.5C88.5602 71.46 88.4802 71.392 88.4002 71.296L86.5522 68.968H86.9002L85.0522 71.296C84.9802 71.384 84.9002 71.452 84.8122 71.5C84.7322 71.548 84.6322 71.572 84.5122 71.572Z" fill="#F9FAFB"/>
<path d="M80.0653 33.5635H56.9347L55.375 37.4288H81.625L80.0653 33.5635Z" fill="#F44336"/>
<path d="M76.3531 32.3209H60.6469C60.3537 32.3209 60.0606 32.3734 59.7872 32.4784L56.9325 33.5634H80.0653L77.2106 32.4784C76.9372 32.3734 76.6462 32.3209 76.3531 32.3209Z" fill="#FF7555"/>
<path d="M80.7434 52.2271H56.2566C55.7687 52.2271 55.375 51.8334 55.375 51.3456V37.4287H81.625V51.3456C81.625 51.8334 81.2313 52.2271 80.7434 52.2271Z" fill="#C62828"/>
<path d="M55.375 41.8344H81.625" stroke="#A80707" stroke-width="0.53325" stroke-miterlimit="10"/>
<path d="M63.4797 40.78H59.8659C59.6603 40.78 59.4919 40.9244 59.4919 41.1016V43.2257C59.4919 43.4028 59.6581 43.5472 59.8659 43.5472H60.4019V44.6541C60.4019 45.1266 60.8459 45.5094 61.395 45.5094H61.9528C62.4997 45.5094 62.9459 45.1266 62.9459 44.6541V43.5472H63.4819C63.6875 43.5472 63.8559 43.4028 63.8559 43.2257V41.1016C63.8516 40.9244 63.6853 40.78 63.4797 40.78Z" fill="#A80707"/>
<path d="M63.2238 43.1075H60.1197C59.9884 43.1075 59.8834 43.0025 59.8834 42.8712V40.6269C59.8834 40.4956 59.9884 40.3906 60.1197 40.3906H63.2216C63.3528 40.3906 63.4578 40.4956 63.4578 40.6269V42.8712C63.46 43.0025 63.3528 43.1075 63.2238 43.1075Z" fill="#558EA0"/>
<path d="M60.6294 41.8191H62.7141" stroke="#332424" stroke-width="0.7075" stroke-miterlimit="10"/>
<path d="M62.7141 41.5106H60.6294V40.349C60.6294 40.1825 60.6955 40.0228 60.8133 39.9051C60.931 39.7873 61.0907 39.7212 61.2572 39.7212H62.0884C62.2549 39.7212 62.4146 39.7873 62.5324 39.9051C62.6501 40.0228 62.7162 40.1825 62.7162 40.349V41.5106H62.7141ZM60.6294 42.0924H62.7141V44.4068C62.7141 44.4893 62.6978 44.5709 62.6663 44.6471C62.6347 44.7232 62.5885 44.7925 62.5302 44.8507C62.4719 44.909 62.4027 44.9553 62.3265 44.9868C62.2503 45.0184 62.1687 45.0346 62.0862 45.0346H61.255C61.1725 45.0346 61.0909 45.0184 61.0147 44.9868C60.9386 44.9553 60.8694 44.909 60.8111 44.8507C60.7528 44.7925 60.7065 44.7232 60.675 44.6471C60.6434 44.5709 60.6272 44.4893 60.6272 44.4068V42.0924H60.6294Z" fill="#82AEC0"/>
<path d="M62.3378 43.9103C62.4319 43.9103 62.5434 43.989 62.5697 44.129C62.5828 44.2078 62.5391 44.3697 62.4778 44.4222C62.3663 44.5162 62.2175 44.5775 62.0622 44.6147C61.8216 44.6737 61.5591 44.6847 61.3206 44.6212C61.0822 44.56 60.8328 44.4397 60.7606 44.2406C60.6513 43.9365 61.0603 43.9147 62.3378 43.9103Z" fill="#A1D5E5"/>
<path d="M77.1341 40.78H73.5203C73.3147 40.78 73.1463 40.9244 73.1463 41.1016V43.2257C73.1463 43.4028 73.3125 43.5472 73.5203 43.5472H74.0563V44.6541C74.0563 45.1266 74.5003 45.5094 75.0494 45.5094H75.6072C76.1541 45.5094 76.6003 45.1266 76.6003 44.6541V43.5472H77.1363C77.3419 43.5472 77.5103 43.4028 77.5103 43.2257V41.1016C77.5081 40.9244 77.3419 40.78 77.1341 40.78Z" fill="#A80707"/>
<path d="M76.8803 43.1075H73.7763C73.645 43.1075 73.54 43.0025 73.54 42.8712V40.6269C73.54 40.4956 73.645 40.3906 73.7763 40.3906H76.8781C77.0094 40.3906 77.1144 40.4956 77.1144 40.6269V42.8712C77.1144 43.0025 77.0094 43.1075 76.8803 43.1075Z" fill="#558EA0"/>
<path d="M74.2859 41.8191H76.3706" stroke="#332424" stroke-width="0.7075" stroke-miterlimit="10"/>
<path d="M76.3706 41.5106H74.2859V40.349C74.2859 40.1825 74.3521 40.0228 74.4698 39.9051C74.5876 39.7873 74.7472 39.7212 74.9138 39.7212H75.745C75.9115 39.7212 76.0712 39.7873 76.1889 39.9051C76.3067 40.0228 76.3728 40.1825 76.3728 40.349V41.5106H76.3706ZM74.2859 42.0924H76.3706V44.4068C76.3706 44.4893 76.3544 44.5709 76.3228 44.6471C76.2913 44.7232 76.245 44.7925 76.1867 44.8507C76.1284 44.909 76.0592 44.9553 75.9831 44.9868C75.9069 45.0184 75.8253 45.0346 75.7428 45.0346H74.9116C74.8291 45.0346 74.7475 45.0184 74.6713 44.9868C74.5951 44.9553 74.5259 44.909 74.4676 44.8507C74.4093 44.7925 74.3631 44.7232 74.3315 44.6471C74.3 44.5709 74.2838 44.4893 74.2838 44.4068V42.0924H74.2859Z" fill="#82AEC0"/>
<path d="M76.0578 43.9103C76.1234 43.9125 76.2438 43.9322 76.2875 44.0612C76.3313 44.1903 76.2438 44.3259 76.1322 44.42C76.0206 44.5141 75.8719 44.5753 75.7166 44.6125C75.4759 44.6716 75.2134 44.6825 74.975 44.6191C74.7366 44.5578 74.5222 44.4222 74.415 44.2384C74.2444 43.9475 74.8153 43.8578 76.0578 43.9103Z" fill="#A1D5E5"/>
<path d="M74.3034 32.4172C74.2006 32.2794 73.8637 32.1394 73.7653 32.0825C73.1069 31.691 73.1747 30.6125 72.7328 29.9125C72.3391 29.2869 71.6369 28.775 70.8975 28.775H66.7697C66.0303 28.775 65.3281 29.2891 64.9344 29.9125C64.4925 30.6125 64.5603 31.691 63.9019 32.0825C63.8056 32.1394 63.4666 32.2816 63.3637 32.4172C63.2369 32.5878 63.3637 32.7672 63.3637 32.7672H64.5581C65.1422 32.7672 65.4703 31.785 65.5206 31.6516C65.7197 31.1047 66.0828 30.2975 66.7697 30.2975H70.8975C71.5844 30.2975 71.9475 31.1069 72.1466 31.6516C72.1947 31.785 72.5228 32.7672 73.1091 32.7672H74.3034C74.3034 32.7672 74.4303 32.5878 74.3034 32.4172Z" fill="#424242"/>
<path d="M65.7044 29.429C66.0172 29.1687 66.4219 29.0134 66.8287 29.0178C66.9403 29.02 67.0562 29.0331 67.1503 29.0944C67.2444 29.1556 67.31 29.2715 67.2816 29.3809C67.2509 29.4969 67.1306 29.5647 67.0191 29.6084C66.6144 29.7659 66.1462 29.8009 65.8247 30.0897C65.6037 30.2887 65.4878 30.5753 65.3303 30.8269C65.2537 30.9494 65.1509 31.074 65.0066 31.0894C64.9562 31.0937 64.9016 31.0828 64.8687 31.0456C64.8119 30.98 64.8469 30.8794 64.8841 30.8028C65.0044 30.5534 65.0744 30.2909 65.2034 30.0481C65.3391 29.7987 65.5162 29.6281 65.7044 29.429Z" fill="#616161"/>
<path d="M61.7625 40.3797C61.4825 40.3906 61.2112 40.5372 61.0712 40.7559C61.0384 40.8062 60.9925 40.8675 60.9312 40.8544C60.8831 40.8434 60.8634 40.7931 60.8525 40.7494C60.8066 40.5656 60.7912 40.3534 60.8984 40.185C61.01 40.0078 61.2266 39.905 61.4366 39.8787C61.8609 39.8284 62.1759 39.8087 62.2481 40.0734C62.3334 40.3862 61.9856 40.3709 61.7625 40.3797ZM75.4081 40.3797C75.1281 40.3906 74.8569 40.5372 74.7169 40.7559C74.6841 40.8062 74.6381 40.8675 74.5769 40.8544C74.5287 40.8434 74.5091 40.7931 74.4981 40.7494C74.4522 40.5656 74.4369 40.3534 74.5441 40.185C74.6556 40.0078 74.8722 39.905 75.0822 39.8787C75.5066 39.8284 75.8216 39.8087 75.8937 40.0734C75.9812 40.3862 75.6312 40.3709 75.4081 40.3797Z" fill="#A1D5E5"/>
</svg>
