<svg width="136" height="100" viewBox="0 0 136 100" fill="none" xmlns="http://www.w3.org/2000/svg">
<mask id="path-1-inside-1_576_10475" fill="white">
<path fill-rule="evenodd" clip-rule="evenodd" d="M87 0C86.4477 0 86.0029 0.448498 85.9727 0.999957C85.4538 10.476 77.6056 18 68 18C58.3944 18 50.5462 10.476 50.0273 0.999955C49.9971 0.448497 49.5523 0 49 0L22 0C19.7909 0 18 1.79086 18 4L18 31C18 31.5523 17.5515 31.9971 17 32.0273C7.52403 32.5462 0 40.3944 0 50C0 59.6056 7.52403 67.4538 17 67.9727C17.5515 68.0029 18 68.4477 18 69L18 96C18 98.2091 19.7909 100 22 100L49 100C49.5523 100 49.9971 99.5515 50.0273 99C50.5462 89.524 58.3944 82 68 82C77.6056 82 85.4538 89.524 85.9727 99C86.0029 99.5515 86.4477 100 87 100H114C116.209 100 118 98.2091 118 96L118 69C118 68.4477 118.449 68.0029 119 67.9727C128.476 67.4538 136 59.6056 136 50C136 40.3944 128.476 32.5462 119 32.0273C118.448 31.9971 118 31.5523 118 31L118 4C118 1.79086 116.209 0 114 0L87 0Z"/>
</mask>
<path fill-rule="evenodd" clip-rule="evenodd" d="M87 0C86.4477 0 86.0029 0.448498 85.9727 0.999957C85.4538 10.476 77.6056 18 68 18C58.3944 18 50.5462 10.476 50.0273 0.999955C49.9971 0.448497 49.5523 0 49 0L22 0C19.7909 0 18 1.79086 18 4L18 31C18 31.5523 17.5515 31.9971 17 32.0273C7.52403 32.5462 0 40.3944 0 50C0 59.6056 7.52403 67.4538 17 67.9727C17.5515 68.0029 18 68.4477 18 69L18 96C18 98.2091 19.7909 100 22 100L49 100C49.5523 100 49.9971 99.5515 50.0273 99C50.5462 89.524 58.3944 82 68 82C77.6056 82 85.4538 89.524 85.9727 99C86.0029 99.5515 86.4477 100 87 100H114C116.209 100 118 98.2091 118 96L118 69C118 68.4477 118.449 68.0029 119 67.9727C128.476 67.4538 136 59.6056 136 50C136 40.3944 128.476 32.5462 119 32.0273C118.448 31.9971 118 31.5523 118 31L118 4C118 1.79086 116.209 0 114 0L87 0Z" fill="#374151" fill-opacity="0.4"/>
<path d="M22 0V-1V0ZM18 4L17 4L18 4ZM18 96H17H18ZM22 100V99V100ZM119 32.0273L119.055 31.0288L119 32.0273ZM119 67.9727L119.055 68.9712L119 67.9727ZM49 100V101V100ZM50.0273 99L49.0288 98.9454L50.0273 99ZM18 31H17H18ZM17 32.0273L16.9454 31.0288L17 32.0273ZM17 67.9727L16.9454 68.9712L17 67.9727ZM18 69H17H18ZM49 0V1V0ZM85.9727 99L84.9742 99.0547L85.9727 99ZM85.9727 0.999957L84.9742 0.945284L85.9727 0.999957ZM68 19C78.1395 19 86.4235 11.058 86.9712 1.05463L84.9742 0.945284C84.4842 9.89398 77.0716 17 68 17V19ZM49.0288 1.05463C49.5765 11.058 57.8604 19 68 19V17C58.9284 17 51.5158 9.89397 51.0258 0.945282L49.0288 1.05463ZM22 1L49 1V-1L22 -1V1ZM19 4C19 2.34315 20.3431 1 22 1V-1C19.2386 -1 17 1.23858 17 4L19 4ZM19 31L19 4L17 4L17 31H19ZM1 50C1 40.9284 8.10602 33.5158 17.0547 33.0258L16.9454 31.0288C6.94204 31.5765 -1 39.8604 -1 50H1ZM17.0547 66.9742C8.10603 66.4842 1 59.0716 1 50H-1C-1 60.1396 6.94204 68.4235 16.9454 68.9712L17.0547 66.9742ZM19 96L19 69H17L17 96H19ZM22 99C20.3431 99 19 97.6569 19 96H17C17 98.7614 19.2386 101 22 101L22 99ZM49 99L22 99L22 101L49 101V99ZM68 81C57.8604 81 49.5765 88.942 49.0288 98.9454L51.0258 99.0547C51.5158 90.106 58.9284 83 68 83V81ZM86.9712 98.9454C86.4235 88.942 78.1395 81 68 81V83C77.0716 83 84.4842 90.106 84.9742 99.0547L86.9712 98.9454ZM114 99H87V101H114V99ZM117 96C117 97.6569 115.657 99 114 99V101C116.761 101 119 98.7614 119 96H117ZM117 69L117 96H119L119 69H117ZM135 50C135 59.0716 127.894 66.4842 118.945 66.9742L119.055 68.9712C129.058 68.4235 137 60.1396 137 50H135ZM118.945 33.0258C127.894 33.5158 135 40.9284 135 50H137C137 39.8604 129.058 31.5765 119.055 31.0288L118.945 33.0258ZM117 4L117 31H119L119 4H117ZM114 1C115.657 1 117 2.34315 117 4H119C119 1.23858 116.761 -1 114 -1V1ZM87 1L114 1V-1L87 -1V1ZM119.055 31.0288C119.033 31.0276 119.016 31.0187 119.006 31.0081C119.001 31.0033 119 31.0001 119 30.9999C119 30.9998 119 31.0001 119 31.0007C119 31.0012 119 31.0012 119 31H117C117 32.1183 117.899 32.9685 118.945 33.0258L119.055 31.0288ZM119 69C119 68.9988 119 68.9988 119 68.9994C119 68.9999 119 69.0002 119 69.0001C119 68.9999 119.001 68.9967 119.006 68.9919C119.016 68.9813 119.033 68.9724 119.055 68.9712L118.945 66.9742C117.899 67.0315 117 67.8817 117 69H119ZM49 101C50.1183 101 50.9685 100.101 51.0258 99.0547L49.0288 98.9454C49.0276 98.9667 49.0187 98.9836 49.0081 98.994C49.0033 98.9987 49.0001 99.0002 48.9999 99.0002C48.9998 99.0003 49.0001 99.0001 49.0006 99C49.0012 98.9999 49.0012 99 49 99V101ZM17 31C17 31.0012 16.9999 31.0012 17 31.0006C17.0001 31.0001 17.0003 30.9998 17.0002 30.9999C17.0002 31.0001 16.9987 31.0033 16.994 31.0081C16.9836 31.0187 16.9667 31.0276 16.9454 31.0288L17.0547 33.0258C18.1008 32.9685 19 32.1183 19 31H17ZM16.9454 68.9712C16.9667 68.9724 16.9836 68.9813 16.994 68.9919C16.9987 68.9967 17.0002 68.9999 17.0002 69.0001C17.0003 69.0002 17.0001 68.9999 17 68.9994C16.9999 68.9988 17 68.9988 17 69H19C19 67.8817 18.1008 67.0315 17.0547 66.9742L16.9454 68.9712ZM51.0258 0.945282C50.9685 -0.100789 50.1183 -1 49 -1V1C49.0012 1 49.0012 1.0001 49.0006 0.999977C49.0001 0.999868 48.9998 0.999738 48.9999 0.999766C49.0001 0.999846 49.0033 1.00127 49.0081 1.006C49.0187 1.0164 49.0276 1.03335 49.0288 1.05463L51.0258 0.945282ZM84.9742 99.0547C85.0315 100.101 85.8817 101 87 101V99C86.9988 99 86.9988 98.9999 86.9994 99C86.9999 99.0001 87.0002 99.0003 87.0001 99.0002C86.9999 99.0002 86.9967 98.9987 86.9919 98.994C86.9813 98.9836 86.9724 98.9667 86.9712 98.9454L84.9742 99.0547ZM86.9712 1.05463C86.9724 1.03335 86.9813 1.0164 86.9919 1.006C86.9967 1.00127 86.9999 0.999846 87.0001 0.999766C87.0002 0.999738 86.9999 0.999868 86.9994 0.999977C86.9988 1.0001 86.9988 1 87 1V-1C85.8817 -1 85.0315 -0.100786 84.9742 0.945284L86.9712 1.05463Z" fill="#374151" mask="url(#path-1-inside-1_576_10475)"/>
<path d="M44.9886 72.144C44.2099 72.144 43.5379 71.9733 42.9726 71.632C42.4072 71.2907 41.9699 70.816 41.6606 70.208C41.3619 69.5893 41.2126 68.8747 41.2126 68.064C41.2126 67.4453 41.2979 66.8907 41.4686 66.4C41.6392 65.9093 41.8899 65.4933 42.2206 65.152C42.5512 64.8 42.9459 64.5333 43.4046 64.352C43.8739 64.1707 44.4019 64.08 44.9886 64.08C45.3726 64.08 45.7726 64.1387 46.1886 64.256C46.6046 64.3733 46.9832 64.576 47.3246 64.864C47.4312 64.9387 47.5006 65.0293 47.5326 65.136C47.5646 65.2427 47.5646 65.3493 47.5326 65.456C47.5006 65.552 47.4472 65.6373 47.3726 65.712C47.2979 65.776 47.2019 65.8133 47.0846 65.824C46.9779 65.8347 46.8659 65.7973 46.7486 65.712C46.4712 65.4987 46.1886 65.3493 45.9006 65.264C45.6126 65.1787 45.3352 65.136 45.0686 65.136C44.6526 65.136 44.2899 65.2053 43.9806 65.344C43.6712 65.472 43.4099 65.6587 43.1966 65.904C42.9832 66.1493 42.8179 66.4533 42.7006 66.816C42.5939 67.1787 42.5406 67.6 42.5406 68.08C42.5406 69.008 42.7592 69.744 43.1966 70.288C43.6339 70.8213 44.2579 71.088 45.0686 71.088C45.3352 71.088 45.6072 71.0453 45.8846 70.96C46.1726 70.8747 46.4606 70.7253 46.7486 70.512C46.8659 70.4267 46.9779 70.3893 47.0846 70.4C47.1912 70.4107 47.2819 70.4533 47.3566 70.528C47.4312 70.592 47.4792 70.6773 47.5006 70.784C47.5326 70.8907 47.5326 70.9973 47.5006 71.104C47.4686 71.2 47.3992 71.2853 47.2926 71.36C46.9512 71.6373 46.5779 71.84 46.1726 71.968C45.7672 72.0853 45.3726 72.144 44.9886 72.144ZM52.1746 72.144C51.4172 72.144 50.7612 71.9787 50.2066 71.648C49.6519 71.3173 49.2199 70.8533 48.9106 70.256C48.6119 69.648 48.4626 68.9333 48.4626 68.112C48.4626 67.4933 48.5479 66.9387 48.7186 66.448C48.8892 65.9467 49.1399 65.52 49.4706 65.168C49.8012 64.816 50.1906 64.5493 50.6386 64.368C51.0972 64.176 51.6092 64.08 52.1746 64.08C52.9319 64.08 53.5879 64.2453 54.1426 64.576C54.6972 64.9067 55.1239 65.376 55.4226 65.984C55.7319 66.5813 55.8866 67.2907 55.8866 68.112C55.8866 68.7307 55.8012 69.2853 55.6306 69.776C55.4599 70.2667 55.2092 70.6933 54.8786 71.056C54.5479 71.408 54.1532 71.68 53.6946 71.872C53.2466 72.0533 52.7399 72.144 52.1746 72.144ZM52.1746 71.104C52.6546 71.104 53.0759 70.9867 53.4386 70.752C53.8012 70.5173 54.0786 70.176 54.2706 69.728C54.4732 69.28 54.5746 68.7413 54.5746 68.112C54.5746 67.1413 54.3559 66.4 53.9186 65.888C53.4919 65.376 52.9106 65.12 52.1746 65.12C51.6839 65.12 51.2572 65.2373 50.8946 65.472C50.5426 65.696 50.2652 66.032 50.0626 66.48C49.8706 66.9173 49.7746 67.4613 49.7746 68.112C49.7746 69.072 49.9932 69.8133 50.4306 70.336C50.8679 70.848 51.4492 71.104 52.1746 71.104ZM58.4732 72.112C58.2599 72.112 58.0999 72.0533 57.9932 71.936C57.8865 71.8187 57.8332 71.6533 57.8332 71.44V64.768C57.8332 64.5547 57.8865 64.3947 57.9932 64.288C58.0999 64.1707 58.2545 64.112 58.4572 64.112C58.6599 64.112 58.8145 64.1707 58.9212 64.288C59.0385 64.3947 59.0972 64.5547 59.0972 64.768V66.144L58.9212 65.952C59.1452 65.3333 59.5079 64.8693 60.0092 64.56C60.5212 64.24 61.1079 64.08 61.7692 64.08C62.3879 64.08 62.8999 64.192 63.3052 64.416C63.7212 64.64 64.0305 64.9813 64.2332 65.44C64.4359 65.888 64.5372 66.4587 64.5372 67.152V71.44C64.5372 71.6533 64.4785 71.8187 64.3612 71.936C64.2545 72.0533 64.0999 72.112 63.8972 72.112C63.6839 72.112 63.5185 72.0533 63.4012 71.936C63.2945 71.8187 63.2412 71.6533 63.2412 71.44V67.232C63.2412 66.5067 63.0972 65.9787 62.8092 65.648C62.5319 65.3067 62.0839 65.136 61.4652 65.136C60.7505 65.136 60.1799 65.36 59.7532 65.808C59.3372 66.2453 59.1292 66.832 59.1292 67.568V71.44C59.1292 71.888 58.9105 72.112 58.4732 72.112ZM69.5509 72.144C69.0709 72.144 68.5856 72.0853 68.0949 71.968C67.6149 71.8507 67.1669 71.648 66.7509 71.36C66.6443 71.2853 66.5696 71.2 66.5269 71.104C66.4843 70.9973 66.4683 70.896 66.4789 70.8C66.5003 70.6933 66.5429 70.6027 66.6069 70.528C66.6816 70.4533 66.7669 70.4107 66.8629 70.4C66.9696 70.3787 67.0869 70.4 67.2149 70.464C67.6309 70.72 68.0309 70.9013 68.4149 71.008C68.8096 71.104 69.1989 71.152 69.5829 71.152C70.1909 71.152 70.6496 71.04 70.9589 70.816C71.2683 70.592 71.4229 70.288 71.4229 69.904C71.4229 69.6053 71.3216 69.3707 71.1189 69.2C70.9163 69.0187 70.5963 68.88 70.1589 68.784L68.7029 68.464C68.0309 68.3253 67.5296 68.0853 67.1989 67.744C66.8789 67.4027 66.7189 66.96 66.7189 66.416C66.7189 65.936 66.8416 65.5253 67.0869 65.184C67.3429 64.832 67.7003 64.56 68.1589 64.368C68.6176 64.176 69.1509 64.08 69.7589 64.08C70.2283 64.08 70.6709 64.144 71.0869 64.272C71.5136 64.3893 71.8976 64.5813 72.2389 64.848C72.3456 64.9227 72.4149 65.0133 72.4469 65.12C72.4896 65.216 72.4949 65.3173 72.4629 65.424C72.4416 65.52 72.3936 65.6053 72.3189 65.68C72.2443 65.744 72.1536 65.7813 72.0469 65.792C71.9403 65.8027 71.8283 65.7707 71.7109 65.696C71.3909 65.4827 71.0656 65.328 70.7349 65.232C70.4043 65.1253 70.0789 65.072 69.7589 65.072C69.1616 65.072 68.7083 65.1893 68.3989 65.424C68.0896 65.6587 67.9349 65.968 67.9349 66.352C67.9349 66.6507 68.0309 66.896 68.2229 67.088C68.4149 67.28 68.7136 67.4187 69.1189 67.504L70.5749 67.808C71.2683 67.9573 71.7856 68.1973 72.1269 68.528C72.4789 68.848 72.6549 69.2853 72.6549 69.84C72.6549 70.544 72.3723 71.104 71.8069 71.52C71.2416 71.936 70.4896 72.144 69.5509 72.144ZM77.8621 72.144C77.1047 72.144 76.4487 71.9787 75.8941 71.648C75.3394 71.3173 74.9074 70.8533 74.5981 70.256C74.2994 69.648 74.1501 68.9333 74.1501 68.112C74.1501 67.4933 74.2354 66.9387 74.4061 66.448C74.5767 65.9467 74.8274 65.52 75.1581 65.168C75.4887 64.816 75.8781 64.5493 76.3261 64.368C76.7847 64.176 77.2967 64.08 77.8621 64.08C78.6194 64.08 79.2754 64.2453 79.8301 64.576C80.3847 64.9067 80.8114 65.376 81.1101 65.984C81.4194 66.5813 81.5741 67.2907 81.5741 68.112C81.5741 68.7307 81.4887 69.2853 81.3181 69.776C81.1474 70.2667 80.8967 70.6933 80.5661 71.056C80.2354 71.408 79.8407 71.68 79.3821 71.872C78.9341 72.0533 78.4274 72.144 77.8621 72.144ZM77.8621 71.104C78.3421 71.104 78.7634 70.9867 79.1261 70.752C79.4887 70.5173 79.7661 70.176 79.9581 69.728C80.1607 69.28 80.2621 68.7413 80.2621 68.112C80.2621 67.1413 80.0434 66.4 79.6061 65.888C79.1794 65.376 78.5981 65.12 77.8621 65.12C77.3714 65.12 76.9447 65.2373 76.5821 65.472C76.2301 65.696 75.9527 66.032 75.7501 66.48C75.5581 66.9173 75.4621 67.4613 75.4621 68.112C75.4621 69.072 75.6807 69.8133 76.1181 70.336C76.5554 70.848 77.1367 71.104 77.8621 71.104ZM85.8887 72.144C85.1207 72.144 84.534 71.9093 84.1287 71.44C83.7234 70.9707 83.5207 70.2987 83.5207 69.424V61.264C83.5207 61.0507 83.574 60.8907 83.6807 60.784C83.7874 60.6667 83.9474 60.608 84.1607 60.608C84.3634 60.608 84.5234 60.6667 84.6407 60.784C84.758 60.8907 84.8167 61.0507 84.8167 61.264V69.328C84.8167 69.904 84.9287 70.336 85.1527 70.624C85.3874 70.9013 85.7287 71.04 86.1767 71.04C86.2727 71.04 86.358 71.0347 86.4327 71.024C86.5074 71.0133 86.582 71.008 86.6567 71.008C86.774 70.9973 86.854 71.024 86.8967 71.088C86.95 71.152 86.9767 71.28 86.9767 71.472C86.9767 71.664 86.934 71.808 86.8487 71.904C86.7634 72 86.6247 72.064 86.4327 72.096C86.3474 72.1067 86.2567 72.1173 86.1607 72.128C86.0647 72.1387 85.974 72.144 85.8887 72.144ZM90.7031 72.144C90.1697 72.144 89.6897 72.0427 89.2631 71.84C88.8471 71.6267 88.5164 71.3387 88.2711 70.976C88.0257 70.6133 87.9031 70.208 87.9031 69.76C87.9031 69.184 88.0471 68.7307 88.3351 68.4C88.6337 68.0693 89.1191 67.8347 89.7911 67.696C90.4737 67.5573 91.4017 67.488 92.5751 67.488H93.2951V68.336H92.5911C91.7271 68.336 91.0444 68.3787 90.5431 68.464C90.0524 68.5387 89.7057 68.672 89.5031 68.864C89.3111 69.056 89.2151 69.328 89.2151 69.68C89.2151 70.1173 89.3644 70.4747 89.6631 70.752C89.9724 71.0293 90.3884 71.168 90.9111 71.168C91.3377 71.168 91.7111 71.0667 92.0311 70.864C92.3617 70.6613 92.6177 70.384 92.7991 70.032C92.9911 69.68 93.0871 69.2747 93.0871 68.816V66.992C93.0871 66.3307 92.9537 65.856 92.6871 65.568C92.4204 65.2693 91.9831 65.12 91.3751 65.12C91.0017 65.12 90.6284 65.168 90.2551 65.264C89.8817 65.36 89.4871 65.5147 89.0711 65.728C88.9217 65.8027 88.7937 65.8293 88.6871 65.808C88.5804 65.776 88.4951 65.7173 88.4311 65.632C88.3671 65.5467 88.3297 65.4507 88.3191 65.344C88.3084 65.2267 88.3297 65.1147 88.3831 65.008C88.4471 64.9013 88.5431 64.816 88.6711 64.752C89.1404 64.5173 89.6044 64.3467 90.0631 64.24C90.5217 64.1333 90.9591 64.08 91.3751 64.08C92.0471 64.08 92.6017 64.192 93.0391 64.416C93.4764 64.6293 93.8017 64.96 94.0151 65.408C94.2284 65.8453 94.3351 66.4107 94.3351 67.104V71.44C94.3351 71.6533 94.2817 71.8187 94.1751 71.936C94.0791 72.0533 93.9351 72.112 93.7431 72.112C93.5404 72.112 93.3857 72.0533 93.2791 71.936C93.1724 71.8187 93.1191 71.6533 93.1191 71.44V70.192H93.2631C93.1777 70.5973 93.0124 70.944 92.7671 71.232C92.5324 71.52 92.2391 71.744 91.8871 71.904C91.5351 72.064 91.1404 72.144 90.7031 72.144Z" fill="#F9FAFB"/>
<path d="M67.6019 31.005C68.8159 30.9875 70.0191 31.2281 71.1216 31.6612C73.0247 32.4094 77.3341 32.8053 78.1894 34.3562C79.2022 36.1937 77.6031 40.724 77.6928 41.4678C77.7781 42.1875 77.7978 43.1019 77.7081 43.804C77.5506 45.029 77.0672 46.219 76.2316 47.2909C75.3872 48.3715 74.0703 49.299 72.2416 49.8372C68.385 50.9681 63.2553 50.2462 61.2428 48.5794C60.4881 47.9559 59.9281 47.2975 59.5278 46.5931C58.8584 45.4206 58.6266 44.1234 58.6659 42.6512C58.7294 40.2953 56.1722 36.7953 57.9331 34.8156C59.6941 32.8359 64.1019 31.7881 64.1019 31.7881C64.1019 31.7881 65.4953 31.0378 67.6019 31.005Z" fill="#B0B0B0"/>
<path d="M74.335 33.6037C74.3875 33.8247 74.9431 34.5465 75.6344 35.8875C76.2972 37.1715 76.8288 38.5059 76.9338 38.5278C77.1831 38.5781 79.7622 37.7731 79.7819 37.69C79.8038 37.6068 78.9025 33.2909 78.9025 33.2909L74.8184 32.16L74.335 33.6037ZM60.1644 36.034C60.8556 34.4087 61.4113 33.9493 61.4747 33.6781C61.5381 33.4068 59.0663 32.9125 59.0663 32.9125L56.3625 34.5247L57.0319 37.7512C57.0319 37.7512 58.8956 39.2912 59.0225 39.2693C59.1494 39.2497 59.4731 37.6572 60.1644 36.034Z" fill="#FEBDBE"/>
<path d="M64.2178 31.7816C64.3009 31.005 61.2013 30.2109 60.2584 30.7556C59.5694 31.1537 60.3 31.5103 60.0069 31.7619C59.8122 31.9281 58.0381 31.0925 56.7191 32.0966C55.715 32.86 56.2794 32.9344 56.2159 33.1859C56.1525 33.4375 55.5247 33.8356 55.1266 34.4437C54.7284 35.0519 54.5184 35.9203 54.6453 36.0559C54.8006 36.2244 55.2556 35.8875 55.3147 36.2244C55.3781 36.5809 54.6081 37.7512 54.9581 38.8209C55.2928 39.8469 55.5859 39.0725 55.8178 39.3875C56.0475 39.7025 55.8397 40.1619 56.3844 41.1462C56.7475 41.8025 57.1719 42.0081 57.3272 42.0475C57.5788 42.1109 57.5372 41.7959 57.85 41.7762C58.165 41.7544 58.6659 42.6556 58.6659 42.6556C58.6659 42.6556 58.6441 41.9009 58.7819 40.7284C58.9197 39.5472 59.1691 39.1775 59.1494 38.9894C59.1275 38.8012 57.0975 37.5653 57.8084 35.45C58.5194 33.3347 60.4684 33.7109 60.72 33.7744C60.9716 33.8378 61.3697 33.9844 61.9559 33.8378C62.5422 33.6869 64.1347 32.5559 64.2178 31.7816Z" fill="url(#paint0_linear_576_10475)"/>
<path d="M71.0253 31.6766C70.9925 31.9413 71.8041 32.5669 72.3444 32.9125C73.0991 33.3938 73.915 33.6869 74.23 33.6869C74.545 33.6869 76.8266 32.3875 78.0013 34.3563C79.1738 36.325 76.995 38.2325 76.9338 38.5256C76.9228 38.9347 77.0934 39.1666 77.3209 40.0547C77.5309 40.8706 77.625 41.1747 77.6775 41.5006C77.7563 41.6363 78.6553 40.921 79.1541 40.1597C79.5106 39.615 79.5303 39.0485 79.7403 38.9872C79.9503 38.9238 80.075 39.5735 80.3484 39.5319C80.6197 39.4903 81.1119 38.0663 81.0091 37.0819C80.8625 35.6994 80.0356 35.2378 80.2872 34.7981C80.5388 34.3585 81.1031 34.8813 81.2934 34.5269C81.4816 34.1703 81.0222 33.1663 80.3288 32.6828C79.6353 32.1994 78.9463 32.2628 78.8413 32.0135C78.7363 31.7619 79.1978 31.6372 79.1978 31.3638C79.1978 31.0925 78.4431 30.6725 77.1241 30.6091C75.9909 30.5544 74.9672 31.1538 74.9038 30.8191C74.8403 30.4844 75.1334 30.5041 75.1138 30.3575C75.0919 30.211 74.3088 29.8653 73.145 30.1891C72.2416 30.4406 71.0669 31.3463 71.0253 31.6766Z" fill="url(#paint1_linear_576_10475)"/>
<path d="M72.5544 38.95C71.7669 38.9894 71.6269 39.8775 71.675 40.4747C71.7253 41.12 71.8959 41.8878 72.7119 41.8725C73.5453 41.8572 73.7487 40.9778 73.7641 40.3019C73.7816 39.6259 73.5147 38.9041 72.5544 38.95ZM63.5681 38.9041C62.7806 38.9434 62.5728 39.5778 62.5947 40.1772C62.6253 41.1047 63.1612 41.8112 63.7256 41.8266C64.5591 41.8506 64.7319 41.0719 64.7472 40.3959C64.7625 39.72 64.5262 38.8559 63.5681 38.9041Z" fill="#2F2F2F"/>
<path d="M72.7447 39.9409C72.6091 40.2581 72.2941 40.4966 72.1016 40.4156C71.9091 40.3347 71.8653 40.0109 72.0009 39.6938C72.1366 39.3766 72.4012 39.1863 72.5916 39.2694C72.7841 39.3503 72.8803 39.6238 72.7447 39.9409ZM63.7737 40.0809C63.6097 40.3653 63.2072 40.5666 63.0191 40.4572C62.8309 40.35 62.8681 39.9759 63.0322 39.6916C63.1962 39.4072 63.4806 39.2628 63.6687 39.3722C63.8547 39.4794 63.9378 39.7966 63.7737 40.0809Z" fill="#DFDFDF"/>
<path d="M68.8159 46.6653L67.1819 46.6347L65.83 46.1797C65.83 46.1797 65.8038 47.0328 65.8453 47.5469C65.8934 48.1134 66.4425 49.3078 68.2341 49.275C69.9775 49.2444 70.5594 48.1791 70.5747 47.5316C70.59 46.8884 70.5594 46.3853 70.5594 46.3853L68.8159 46.6653Z" fill="url(#paint2_radial_576_10475)"/>
<path d="M68.2034 46.3197C67.7003 46.335 67.0091 46.195 66.7422 46.0988C66.4753 46.0047 66.0816 45.7225 65.83 46.02C65.5784 46.3175 65.9394 46.7113 66.5213 46.8994C67.1031 47.0875 67.5428 47.1969 68.1706 47.1816C68.9559 47.1619 69.6778 47.0241 69.9294 46.9453C70.1809 46.8666 70.7716 46.6106 70.6053 46.2059C70.4172 45.7509 70.0869 46.0484 69.6625 46.1578C69.2403 46.2716 68.7372 46.3022 68.2034 46.3197Z" fill="#2F2F2F"/>
<path d="M68.1881 39.1228C66.6175 39.09 66.1297 40.3631 66.005 41.1966C65.8803 42.03 65.7556 42.8897 65.9787 43.9091C66.1997 44.9153 66.9937 45.4884 68.1728 45.4688C69.2097 45.4534 69.8091 45.0881 70.1219 44.48C70.4675 43.8041 70.4522 43.1281 70.3887 41.6669C70.3253 40.2078 69.6494 39.1534 68.1881 39.1228Z" fill="#303030"/>
<path d="M68.4944 44.7556C68.4944 44.9066 68.7197 44.9941 68.9734 44.9197C69.2403 44.8409 69.6559 44.5981 69.7828 44.3137C69.8506 44.1628 69.7981 43.9375 69.6341 44.0075C69.47 44.0775 69.3366 44.235 69.1069 44.3772C68.8794 44.5194 68.4944 44.6375 68.4944 44.7556ZM67.2759 44.3619C66.9259 44.1497 66.8122 43.9769 66.6547 44.0316C66.4972 44.0862 66.5847 44.4012 66.7487 44.5412C66.9128 44.6812 67.2037 44.9022 67.5034 44.9656C67.7375 45.0137 67.8972 44.8322 67.8184 44.7294C67.7397 44.6287 67.5362 44.5194 67.2759 44.3619Z" fill="#AFAFAF"/>
<defs>
<linearGradient id="paint0_linear_576_10475" x1="56.5898" y1="41.9375" x2="60.6728" y2="30.0795" gradientUnits="userSpaceOnUse">
<stop offset="0.182" stop-color="#C9C7C8"/>
<stop offset="0.256" stop-color="#BDBCBD"/>
<stop offset="0.411" stop-color="#A8A8AA"/>
<stop offset="0.498" stop-color="#9E9EA1"/>
<stop offset="0.648" stop-color="#828487"/>
<stop offset="0.799" stop-color="#606468"/>
</linearGradient>
<linearGradient id="paint1_linear_576_10475" x1="79.6375" y1="40.6744" x2="74.6544" y2="29.4819" gradientUnits="userSpaceOnUse">
<stop offset="0.164" stop-color="#C9C7C8"/>
<stop offset="0.244" stop-color="#BDBCBD"/>
<stop offset="0.411" stop-color="#A8A8AA"/>
<stop offset="0.486" stop-color="#96979A"/>
<stop offset="0.674" stop-color="#6F7276"/>
<stop offset="0.772" stop-color="#606468"/>
</linearGradient>
<radialGradient id="paint2_radial_576_10475" cx="0" cy="0" r="1" gradientUnits="userSpaceOnUse" gradientTransform="translate(68.1404 43.2557) scale(5.29178 5.29178)">
<stop offset="0.784" stop-color="#FEBDBB"/>
<stop offset="0.821" stop-color="#F5BEBC"/>
<stop offset="0.88" stop-color="#DCC1C0"/>
<stop offset="0.922" stop-color="#C7C3C3"/>
</radialGradient>
</defs>
</svg>
