<svg width="137" height="100" viewBox="0 0 137 100" fill="none" xmlns="http://www.w3.org/2000/svg">
<mask id="path-1-inside-1_774_11292" fill="white">
<path fill-rule="evenodd" clip-rule="evenodd" d="M87.5 0C86.9477 0 86.5029 0.448498 86.4727 0.999957C85.9538 10.476 78.1056 18 68.5 18C58.8944 18 51.0462 10.476 50.5273 0.999956C50.4971 0.448497 50.0523 0 49.5 0L22.5 0C20.2909 0 18.5 1.79086 18.5 4L18.5 31C18.5 31.5523 18.0515 31.9971 17.5 32.0273C8.02403 32.5462 0.5 40.3944 0.5 50C0.5 59.6056 8.02403 67.4538 17.5 67.9727C18.0515 68.0029 18.5 68.4477 18.5 69L18.5 96C18.5 98.2091 20.2909 100 22.5 100L49.5 100C50.0523 100 50.4971 99.5515 50.5273 99C51.0462 89.524 58.8944 82 68.5 82C78.1056 82 85.9538 89.524 86.4727 99C86.5029 99.5515 86.9477 100 87.5 100H114.5C116.709 100 118.5 98.2091 118.5 96L118.5 69C118.5 68.4477 118.948 68.0029 119.5 67.9727C128.976 67.4538 136.5 59.6056 136.5 50C136.5 40.3944 128.976 32.5462 119.5 32.0273C118.948 31.9971 118.5 31.5523 118.5 31L118.5 4C118.5 1.79086 116.709 0 114.5 0L87.5 0Z"/>
</mask>
<path fill-rule="evenodd" clip-rule="evenodd" d="M87.5 0C86.9477 0 86.5029 0.448498 86.4727 0.999957C85.9538 10.476 78.1056 18 68.5 18C58.8944 18 51.0462 10.476 50.5273 0.999956C50.4971 0.448497 50.0523 0 49.5 0L22.5 0C20.2909 0 18.5 1.79086 18.5 4L18.5 31C18.5 31.5523 18.0515 31.9971 17.5 32.0273C8.02403 32.5462 0.5 40.3944 0.5 50C0.5 59.6056 8.02403 67.4538 17.5 67.9727C18.0515 68.0029 18.5 68.4477 18.5 69L18.5 96C18.5 98.2091 20.2909 100 22.5 100L49.5 100C50.0523 100 50.4971 99.5515 50.5273 99C51.0462 89.524 58.8944 82 68.5 82C78.1056 82 85.9538 89.524 86.4727 99C86.5029 99.5515 86.9477 100 87.5 100H114.5C116.709 100 118.5 98.2091 118.5 96L118.5 69C118.5 68.4477 118.948 68.0029 119.5 67.9727C128.976 67.4538 136.5 59.6056 136.5 50C136.5 40.3944 128.976 32.5462 119.5 32.0273C118.948 31.9971 118.5 31.5523 118.5 31L118.5 4C118.5 1.79086 116.709 0 114.5 0L87.5 0Z" fill="#374151" fill-opacity="0.4"/>
<path d="M18.5 4L17.5 4L17.5 4L18.5 4ZM18.5 96L17.5 96V96H18.5ZM118.5 96H119.5H118.5ZM119.5 32.0273L119.555 31.0288L119.5 32.0273ZM118.5 69H117.5H118.5ZM119.5 67.9727L119.555 68.9712L119.5 67.9727ZM50.5273 99L49.5288 98.9454L50.5273 99ZM18.5 31L17.5 31L18.5 31ZM17.5 32.0273L17.4454 31.0288L17.5 32.0273ZM17.5 67.9727L17.4454 68.9712L17.5 67.9727ZM18.5 69L17.5 69L18.5 69ZM50.5273 0.999956L49.5288 1.05463L50.5273 0.999956ZM86.4727 99L85.4742 99.0547L86.4727 99ZM86.4727 0.999957L85.4742 0.945284L86.4727 0.999957ZM68.5 19C78.6396 19 86.9235 11.058 87.4712 1.05463L85.4742 0.945284C84.9842 9.89397 77.5716 17 68.5 17V19ZM49.5288 1.05463C50.0765 11.058 58.3604 19 68.5 19V17C59.4284 17 52.0158 9.89397 51.5258 0.945282L49.5288 1.05463ZM22.5 1L49.5 1V-1L22.5 -1V1ZM19.5 4C19.5 2.34315 20.8431 1 22.5 1V-1C19.7386 -1 17.5 1.23858 17.5 4L19.5 4ZM19.5 31L19.5 4L17.5 4L17.5 31L19.5 31ZM1.5 50C1.5 40.9284 8.60603 33.5158 17.5547 33.0258L17.4454 31.0288C7.44204 31.5765 -0.5 39.8604 -0.5 50H1.5ZM17.5547 66.9742C8.60603 66.4842 1.5 59.0716 1.5 50H-0.5C-0.5 60.1396 7.44204 68.4235 17.4454 68.9712L17.5547 66.9742ZM19.5 96L19.5 69L17.5 69L17.5 96L19.5 96ZM22.5 99C20.8431 99 19.5 97.6569 19.5 96H17.5C17.5 98.7614 19.7386 101 22.5 101L22.5 99ZM49.5 99L22.5 99L22.5 101L49.5 101V99ZM68.5 81C58.3604 81 50.0765 88.942 49.5288 98.9454L51.5258 99.0547C52.0158 90.106 59.4284 83 68.5 83V81ZM87.4712 98.9454C86.9235 88.942 78.6396 81 68.5 81V83C77.5716 83 84.9842 90.106 85.4742 99.0547L87.4712 98.9454ZM114.5 99H87.5V101H114.5V99ZM117.5 96C117.5 97.6569 116.157 99 114.5 99V101C117.261 101 119.5 98.7614 119.5 96H117.5ZM117.5 69L117.5 96H119.5L119.5 69H117.5ZM135.5 50C135.5 59.0716 128.394 66.4842 119.445 66.9742L119.555 68.9712C129.558 68.4235 137.5 60.1396 137.5 50H135.5ZM119.445 33.0258C128.394 33.5158 135.5 40.9284 135.5 50H137.5C137.5 39.8604 129.558 31.5765 119.555 31.0288L119.445 33.0258ZM117.5 4L117.5 31H119.5L119.5 4H117.5ZM114.5 1C116.157 1 117.5 2.34315 117.5 4H119.5C119.5 1.23858 117.261 -1 114.5 -1V1ZM87.5 1L114.5 1V-1L87.5 -1V1ZM119.555 31.0288C119.533 31.0276 119.516 31.0187 119.506 31.0081C119.501 31.0033 119.5 31.0001 119.5 30.9999C119.5 30.9998 119.5 31.0001 119.5 31.0007C119.5 31.0012 119.5 31.0012 119.5 31H117.5C117.5 32.1183 118.399 32.9685 119.445 33.0258L119.555 31.0288ZM119.5 69C119.5 68.9988 119.5 68.9988 119.5 68.9994C119.5 68.9999 119.5 69.0002 119.5 69.0001C119.5 68.9999 119.501 68.9967 119.506 68.9919C119.516 68.9813 119.533 68.9724 119.555 68.9712L119.445 66.9742C118.399 67.0315 117.5 67.8817 117.5 69H119.5ZM49.5 101C50.6183 101 51.4685 100.101 51.5258 99.0547L49.5288 98.9454C49.5276 98.9666 49.5187 98.9836 49.5081 98.994C49.5033 98.9987 49.5001 99.0002 49.4999 99.0002C49.4998 99.0003 49.5001 99.0001 49.5006 99C49.5012 98.9999 49.5012 99 49.5 99V101ZM17.5 31C17.5 31.0012 17.4999 31.0012 17.5 31.0006C17.5001 31.0001 17.5003 30.9998 17.5002 30.9999C17.5002 31.0001 17.4987 31.0033 17.494 31.0081C17.4836 31.0187 17.4666 31.0276 17.4454 31.0288L17.5547 33.0258C18.6008 32.9685 19.5 32.1183 19.5 31L17.5 31ZM17.4454 68.9712C17.4667 68.9724 17.4836 68.9813 17.494 68.9919C17.4987 68.9967 17.5002 68.9999 17.5002 69.0001C17.5003 69.0002 17.5001 68.9999 17.5 68.9993C17.4999 68.9988 17.5 68.9988 17.5 69L19.5 69C19.5 67.8817 18.6008 67.0315 17.5547 66.9742L17.4454 68.9712ZM51.5258 0.945282C51.4685 -0.100789 50.6183 -1 49.5 -1V1C49.5012 1 49.5012 1.0001 49.5007 0.999977C49.5001 0.999868 49.4998 0.999738 49.4999 0.999766C49.5001 0.999846 49.5033 1.00127 49.5081 1.006C49.5187 1.0164 49.5276 1.03335 49.5288 1.05463L51.5258 0.945282ZM85.4742 99.0547C85.5315 100.101 86.3817 101 87.5 101V99C87.4988 99 87.4988 98.9999 87.4993 99C87.4999 99.0001 87.5002 99.0003 87.5001 99.0002C87.4999 99.0002 87.4967 98.9987 87.4919 98.994C87.4813 98.9836 87.4724 98.9667 87.4712 98.9454L85.4742 99.0547ZM87.4712 1.05463C87.4724 1.03335 87.4813 1.0164 87.4919 1.006C87.4967 1.00127 87.4999 0.999846 87.5001 0.999766C87.5002 0.999738 87.4999 0.999868 87.4994 0.999977C87.4988 1.0001 87.4988 1 87.5 1V-1C86.3817 -1 85.5315 -0.100786 85.4742 0.945284L87.4712 1.05463Z" fill="#374151" mask="url(#path-1-inside-1_774_11292)"/>
<path d="M50.0637 71.108C49.4797 71.108 48.9757 70.98 48.5517 70.724C48.1277 70.468 47.7997 70.112 47.5677 69.656C47.3437 69.192 47.2317 68.656 47.2317 68.048C47.2317 67.584 47.2957 67.168 47.4237 66.8C47.5517 66.432 47.7397 66.12 47.9877 65.864C48.2357 65.6 48.5317 65.4 48.8757 65.264C49.2277 65.128 49.6237 65.06 50.0637 65.06C50.3517 65.06 50.6517 65.104 50.9637 65.192C51.2757 65.28 51.5597 65.432 51.8157 65.648C51.8957 65.704 51.9477 65.772 51.9717 65.852C51.9957 65.932 51.9957 66.012 51.9717 66.092C51.9477 66.164 51.9077 66.228 51.8517 66.284C51.7957 66.332 51.7237 66.36 51.6357 66.368C51.5557 66.376 51.4717 66.348 51.3837 66.284C51.1757 66.124 50.9637 66.012 50.7477 65.948C50.5317 65.884 50.3237 65.852 50.1237 65.852C49.8117 65.852 49.5397 65.904 49.3077 66.008C49.0757 66.104 48.8797 66.244 48.7197 66.428C48.5597 66.612 48.4357 66.84 48.3477 67.112C48.2677 67.384 48.2277 67.7 48.2277 68.06C48.2277 68.756 48.3917 69.308 48.7197 69.716C49.0477 70.116 49.5157 70.316 50.1237 70.316C50.3237 70.316 50.5277 70.284 50.7357 70.22C50.9517 70.156 51.1677 70.044 51.3837 69.884C51.4717 69.82 51.5557 69.792 51.6357 69.8C51.7157 69.808 51.7837 69.84 51.8397 69.896C51.8957 69.944 51.9317 70.008 51.9477 70.088C51.9717 70.168 51.9717 70.248 51.9477 70.328C51.9237 70.4 51.8717 70.464 51.7917 70.52C51.5357 70.728 51.2557 70.88 50.9517 70.976C50.6477 71.064 50.3517 71.108 50.0637 71.108ZM53.6384 71.084C53.4784 71.084 53.3544 71.04 53.2664 70.952C53.1864 70.864 53.1464 70.74 53.1464 70.58V65.576C53.1464 65.416 53.1864 65.296 53.2664 65.216C53.3464 65.128 53.4624 65.084 53.6144 65.084C53.7664 65.084 53.8824 65.128 53.9624 65.216C54.0504 65.296 54.0944 65.416 54.0944 65.576V66.548H53.9744C54.1024 66.076 54.3464 65.712 54.7064 65.456C55.0664 65.2 55.5104 65.064 56.0384 65.048C56.1584 65.04 56.2544 65.068 56.3264 65.132C56.3984 65.188 56.4384 65.288 56.4464 65.432C56.4544 65.568 56.4224 65.676 56.3504 65.756C56.2784 65.836 56.1664 65.884 56.0144 65.9L55.8224 65.924C55.2784 65.972 54.8584 66.148 54.5624 66.452C54.2744 66.748 54.1304 67.156 54.1304 67.676V70.58C54.1304 70.74 54.0864 70.864 53.9984 70.952C53.9184 71.04 53.7984 71.084 53.6384 71.084ZM59.8008 71.108C59.2328 71.108 58.7408 70.984 58.3248 70.736C57.9088 70.488 57.5848 70.14 57.3528 69.692C57.1288 69.236 57.0168 68.7 57.0168 68.084C57.0168 67.62 57.0808 67.204 57.2088 66.836C57.3368 66.46 57.5248 66.14 57.7728 65.876C58.0208 65.612 58.3128 65.412 58.6488 65.276C58.9928 65.132 59.3768 65.06 59.8008 65.06C60.3688 65.06 60.8608 65.184 61.2768 65.432C61.6928 65.68 62.0128 66.032 62.2368 66.488C62.4688 66.936 62.5848 67.468 62.5848 68.084C62.5848 68.548 62.5208 68.964 62.3928 69.332C62.2648 69.7 62.0768 70.02 61.8288 70.292C61.5808 70.556 61.2848 70.76 60.9408 70.904C60.6048 71.04 60.2248 71.108 59.8008 71.108ZM59.8008 70.328C60.1608 70.328 60.4768 70.24 60.7488 70.064C61.0208 69.888 61.2288 69.632 61.3728 69.296C61.5248 68.96 61.6008 68.556 61.6008 68.084C61.6008 67.356 61.4368 66.8 61.1088 66.416C60.7888 66.032 60.3528 65.84 59.8008 65.84C59.4328 65.84 59.1128 65.928 58.8408 66.104C58.5768 66.272 58.3688 66.524 58.2168 66.86C58.0728 67.188 58.0008 67.596 58.0008 68.084C58.0008 68.804 58.1648 69.36 58.4928 69.752C58.8208 70.136 59.2568 70.328 59.8008 70.328ZM66.0128 71.108C65.6528 71.108 65.2888 71.064 64.9208 70.976C64.5608 70.888 64.2248 70.736 63.9128 70.52C63.8328 70.464 63.7768 70.4 63.7448 70.328C63.7128 70.248 63.7008 70.172 63.7088 70.1C63.7248 70.02 63.7568 69.952 63.8048 69.896C63.8608 69.84 63.9248 69.808 63.9968 69.8C64.0768 69.784 64.1648 69.8 64.2608 69.848C64.5728 70.04 64.8728 70.176 65.1608 70.256C65.4568 70.328 65.7488 70.364 66.0368 70.364C66.4928 70.364 66.8368 70.28 67.0688 70.112C67.3008 69.944 67.4168 69.716 67.4168 69.428C67.4168 69.204 67.3408 69.028 67.1888 68.9C67.0368 68.764 66.7968 68.66 66.4688 68.588L65.3768 68.348C64.8728 68.244 64.4968 68.064 64.2488 67.808C64.0088 67.552 63.8888 67.22 63.8888 66.812C63.8888 66.452 63.9808 66.144 64.1648 65.888C64.3568 65.624 64.6248 65.42 64.9688 65.276C65.3128 65.132 65.7128 65.06 66.1688 65.06C66.5208 65.06 66.8528 65.108 67.1648 65.204C67.4848 65.292 67.7728 65.436 68.0288 65.636C68.1088 65.692 68.1608 65.76 68.1848 65.84C68.2168 65.912 68.2208 65.988 68.1968 66.068C68.1808 66.14 68.1448 66.204 68.0888 66.26C68.0328 66.308 67.9648 66.336 67.8848 66.344C67.8048 66.352 67.7208 66.328 67.6328 66.272C67.3928 66.112 67.1488 65.996 66.9008 65.924C66.6528 65.844 66.4088 65.804 66.1688 65.804C65.7208 65.804 65.3808 65.892 65.1488 66.068C64.9168 66.244 64.8008 66.476 64.8008 66.764C64.8008 66.988 64.8728 67.172 65.0168 67.316C65.1608 67.46 65.3848 67.564 65.6888 67.628L66.7808 67.856C67.3008 67.968 67.6888 68.148 67.9448 68.396C68.2088 68.636 68.3408 68.964 68.3408 69.38C68.3408 69.908 68.1288 70.328 67.7048 70.64C67.2808 70.952 66.7168 71.108 66.0128 71.108ZM71.7902 71.108C71.4302 71.108 71.0662 71.064 70.6982 70.976C70.3382 70.888 70.0022 70.736 69.6902 70.52C69.6102 70.464 69.5542 70.4 69.5222 70.328C69.4902 70.248 69.4782 70.172 69.4862 70.1C69.5022 70.02 69.5342 69.952 69.5822 69.896C69.6382 69.84 69.7022 69.808 69.7742 69.8C69.8542 69.784 69.9422 69.8 70.0382 69.848C70.3502 70.04 70.6502 70.176 70.9382 70.256C71.2342 70.328 71.5262 70.364 71.8142 70.364C72.2702 70.364 72.6142 70.28 72.8462 70.112C73.0782 69.944 73.1942 69.716 73.1942 69.428C73.1942 69.204 73.1182 69.028 72.9662 68.9C72.8142 68.764 72.5742 68.66 72.2462 68.588L71.1542 68.348C70.6502 68.244 70.2742 68.064 70.0262 67.808C69.7862 67.552 69.6662 67.22 69.6662 66.812C69.6662 66.452 69.7582 66.144 69.9422 65.888C70.1342 65.624 70.4022 65.42 70.7462 65.276C71.0902 65.132 71.4902 65.06 71.9462 65.06C72.2982 65.06 72.6302 65.108 72.9422 65.204C73.2622 65.292 73.5502 65.436 73.8062 65.636C73.8862 65.692 73.9382 65.76 73.9622 65.84C73.9942 65.912 73.9982 65.988 73.9742 66.068C73.9582 66.14 73.9222 66.204 73.8662 66.26C73.8102 66.308 73.7422 66.336 73.6622 66.344C73.5822 66.352 73.4982 66.328 73.4102 66.272C73.1702 66.112 72.9262 65.996 72.6782 65.924C72.4302 65.844 72.1862 65.804 71.9462 65.804C71.4982 65.804 71.1582 65.892 70.9262 66.068C70.6942 66.244 70.5782 66.476 70.5782 66.764C70.5782 66.988 70.6502 67.172 70.7942 67.316C70.9382 67.46 71.1622 67.564 71.4662 67.628L72.5582 67.856C73.0782 67.968 73.4662 68.148 73.7222 68.396C73.9862 68.636 74.1182 68.964 74.1182 69.38C74.1182 69.908 73.9062 70.328 73.4822 70.64C73.0582 70.952 72.4942 71.108 71.7902 71.108ZM77.4983 71.084C77.3623 71.084 77.2423 71.048 77.1383 70.976C77.0343 70.904 76.9503 70.788 76.8863 70.628L75.0983 65.768C75.0503 65.632 75.0343 65.512 75.0503 65.408C75.0743 65.304 75.1263 65.224 75.2063 65.168C75.2863 65.112 75.3863 65.084 75.5063 65.084C75.6263 65.084 75.7223 65.112 75.7943 65.168C75.8743 65.224 75.9383 65.328 75.9863 65.48L77.6663 70.28H77.3783L79.1063 65.48C79.1623 65.336 79.2303 65.236 79.3103 65.18C79.3983 65.116 79.5103 65.084 79.6463 65.084C79.7743 65.084 79.8823 65.116 79.9703 65.18C80.0583 65.244 80.1263 65.344 80.1743 65.48L81.8663 70.28H81.5903L83.2943 65.456C83.3503 65.312 83.4183 65.216 83.4983 65.168C83.5783 65.112 83.6743 65.084 83.7863 65.084C83.9143 65.084 84.0103 65.116 84.0743 65.18C84.1463 65.244 84.1863 65.328 84.1943 65.432C84.2023 65.536 84.1823 65.648 84.1343 65.768L82.3463 70.628C82.2903 70.78 82.2063 70.896 82.0943 70.976C81.9903 71.048 81.8703 71.084 81.7343 71.084C81.5983 71.084 81.4783 71.048 81.3743 70.976C81.2703 70.896 81.1903 70.78 81.1343 70.628L79.3583 65.756H79.8743L78.1103 70.628C78.0543 70.78 77.9743 70.896 77.8703 70.976C77.7663 71.048 77.6423 71.084 77.4983 71.084ZM87.423 71.108C87.063 71.108 86.699 71.064 86.331 70.976C85.971 70.888 85.635 70.736 85.323 70.52C85.243 70.464 85.187 70.4 85.155 70.328C85.123 70.248 85.111 70.172 85.119 70.1C85.135 70.02 85.167 69.952 85.215 69.896C85.271 69.84 85.335 69.808 85.407 69.8C85.487 69.784 85.575 69.8 85.671 69.848C85.983 70.04 86.283 70.176 86.571 70.256C86.867 70.328 87.159 70.364 87.447 70.364C87.903 70.364 88.247 70.28 88.479 70.112C88.711 69.944 88.827 69.716 88.827 69.428C88.827 69.204 88.751 69.028 88.599 68.9C88.447 68.764 88.207 68.66 87.879 68.588L86.787 68.348C86.283 68.244 85.907 68.064 85.659 67.808C85.419 67.552 85.299 67.22 85.299 66.812C85.299 66.452 85.391 66.144 85.575 65.888C85.767 65.624 86.035 65.42 86.379 65.276C86.723 65.132 87.123 65.06 87.579 65.06C87.931 65.06 88.263 65.108 88.575 65.204C88.895 65.292 89.183 65.436 89.439 65.636C89.519 65.692 89.571 65.76 89.595 65.84C89.627 65.912 89.631 65.988 89.607 66.068C89.591 66.14 89.555 66.204 89.499 66.26C89.443 66.308 89.375 66.336 89.295 66.344C89.215 66.352 89.131 66.328 89.043 66.272C88.803 66.112 88.559 65.996 88.311 65.924C88.063 65.844 87.819 65.804 87.579 65.804C87.131 65.804 86.791 65.892 86.559 66.068C86.327 66.244 86.211 66.476 86.211 66.764C86.211 66.988 86.283 67.172 86.427 67.316C86.571 67.46 86.795 67.564 87.099 67.628L88.191 67.856C88.711 67.968 89.099 68.148 89.355 68.396C89.619 68.636 89.751 68.964 89.751 69.38C89.751 69.908 89.539 70.328 89.115 70.64C88.691 70.952 88.127 71.108 87.423 71.108Z" fill="#F9FAFB"/>
<path d="M65.5534 42.2334L64.4597 43.3272C64.2475 43.5394 63.9041 43.5394 63.6941 43.3272L55.5259 35.1591C55.3137 34.9469 55.3137 34.6034 55.5259 34.3934L56.6197 33.2997C56.8319 33.0875 57.1753 33.0875 57.3853 33.2997L65.5534 41.4678C65.7656 41.68 65.7656 42.0213 65.5534 42.2334ZM71.8316 35.9553L70.7378 37.0491C70.5256 37.2613 70.1822 37.2613 69.9722 37.0491L61.8041 28.8809C61.5919 28.6688 61.5919 28.3253 61.8041 28.1153L62.8978 27.0216C63.11 26.8094 63.4534 26.8094 63.6634 27.0216L71.8316 35.1897C72.0437 35.3997 72.0437 35.7431 71.8316 35.9553Z" fill="#C9C9C9"/>
<path d="M60.5279 40.1608L62.3873 38.3015L63.4176 39.3318L61.5582 41.1911L60.5279 40.1608ZM66.808 33.8803L68.6656 32.0225L69.6959 33.0528L67.8381 34.9104L66.808 33.8803Z" fill="#9E9E9E"/>
<path d="M73.8266 34.0106L62.5172 45.32C62.4519 45.3855 62.3744 45.4375 62.289 45.473C62.2036 45.5085 62.112 45.5268 62.0195 45.5268C61.927 45.5268 61.8355 45.5085 61.7501 45.473C61.6647 45.4375 61.5871 45.3855 61.5219 45.32L59.715 43.5131C59.6495 43.4478 59.5974 43.3703 59.562 43.2849C59.5265 43.1995 59.5082 43.1079 59.5082 43.0154C59.5082 42.9229 59.5265 42.8314 59.562 42.746C59.5974 42.6606 59.6495 42.583 59.715 42.5178L71.0244 31.2084C71.0896 31.1428 71.1672 31.0908 71.2526 31.0553C71.338 31.0199 71.4295 31.0016 71.522 31.0016C71.6145 31.0016 71.7061 31.0199 71.7915 31.0553C71.8769 31.0908 71.9544 31.1428 72.0197 31.2084L73.8266 33.0153C73.9579 33.1476 74.0316 33.3265 74.0316 33.5129C74.0316 33.6994 73.9579 33.8782 73.8266 34.0106Z" fill="#616161"/>
<path d="M67.6097 38.9697L62.6966 44.1715C62.6966 44.1715 65.3478 46.6084 66.4766 47.21C67.5178 47.7656 68.6291 48.0587 69.7928 48.2031C70.2347 48.2578 70.8822 48.1812 71.2913 48.3803C71.7791 48.6165 71.6959 48.9403 71.9584 49.3822C72.4659 50.2353 73.3869 50.4343 74.4478 50.0187C75.395 49.6468 78.2869 46.7572 78.6588 45.8078C79.0744 44.7468 78.9453 43.9156 78.0222 43.3184C77.5913 43.0406 77.2588 43.139 77.0203 42.6512C76.8213 42.2443 76.8978 41.5947 76.8431 41.1528C76.6988 39.989 76.4056 38.8778 75.85 37.8365C75.2463 36.71 72.8094 34.0587 72.8094 34.0587L67.6097 38.9697Z" fill="#616161"/>
<path d="M74.6097 42.5681C74.6053 42.6425 74.6053 42.7278 74.66 42.7781C74.7059 42.8196 74.7759 42.8196 74.8372 42.8109C75.2987 42.7518 75.675 42.3734 75.8391 41.9381C76.0031 41.5028 75.99 41.0215 75.9266 40.56C75.7341 39.1578 75.0822 37.8212 74.0934 36.8062C73.9819 36.6925 73.8441 36.5721 73.6844 36.594C73.33 36.64 72.8772 37.7446 72.8378 38.0618C72.7678 38.6393 73.3147 38.9478 73.6319 39.3809C74.3012 40.2931 74.6666 41.435 74.6097 42.5681ZM70.2456 33.0284C70.1209 33.4331 70.7466 34.5225 71.2431 34.9206C71.6172 35.2203 71.9212 35.1459 72.1531 35.0212C72.7394 34.7062 73.3147 34.0084 73.3606 33.9625C73.5662 33.7481 73.4809 33.4221 73.2666 33.1225C72.7547 32.4093 72.2362 31.9193 72.0437 31.7093C71.6762 31.309 71.2103 31.5715 71.0134 31.7618C70.5891 32.1753 70.3681 32.6259 70.2456 33.0284Z" fill="#808080"/>
<path d="M81.3756 51.2372L79.7438 52.8691C79.4047 53.2082 79.0066 53.2366 78.5013 52.9041L73.9097 49.8985C73.8179 49.8162 73.7438 49.7161 73.692 49.6043C73.6401 49.4925 73.6116 49.3712 73.6081 49.248C73.6046 49.1248 73.6263 49.0022 73.6717 48.8876C73.7172 48.773 73.7855 48.6689 73.8725 48.5816L77.0903 45.3638C77.4578 44.9963 78.0594 45.0138 78.4072 45.401L81.4128 49.9925C81.7103 50.546 81.7147 50.8982 81.3756 51.2372Z" fill="#616161"/>
<path d="M79.3741 47.1838L77.8122 48.7457C77.7208 48.8375 77.6695 48.9618 77.6695 49.0913C77.6695 49.2208 77.7208 49.3451 77.8122 49.4369C78.0025 49.6272 78.3131 49.6272 78.5034 49.4369L80.0391 47.9013L79.5075 47.0897C79.4616 47.1138 79.4156 47.1444 79.3741 47.1838ZM78.5691 50.6138C78.4772 50.5224 78.353 50.4711 78.2234 50.4711C78.0939 50.4711 77.9696 50.5224 77.8778 50.6138L76.7403 51.7513L77.5781 52.2982L78.5713 51.305C78.7616 51.1147 78.7616 50.8041 78.5691 50.6138ZM81.0213 49.4019L79.7438 50.6794C79.6524 50.7712 79.6011 50.8955 79.6011 51.025C79.6011 51.1546 79.6524 51.2788 79.7438 51.3707C79.9341 51.561 80.2447 51.561 80.435 51.3707L81.5353 50.2769L81.4063 49.9947L81.0213 49.4019ZM74.3078 50.021C74.3078 50.021 75.3184 49.1438 76.4822 47.9779C77.6459 46.8119 78.5253 45.8035 78.5253 45.8035C78.8863 46.1644 78.2344 47.4004 77.0684 48.5641C75.9025 49.7279 74.6688 50.3797 74.3078 50.021ZM73.2688 34.5685L63.2063 44.631C63.4119 44.8147 63.67 45.04 63.95 45.2829C65.3938 44.9372 67.6666 43.371 69.6922 41.0872C72.1094 38.3594 73.4306 34.75 73.2688 34.5685ZM71.9803 47.6519C71.825 48.481 73.1222 48.6604 74.8722 46.836C75.9025 45.7619 76.4166 44.4472 76.3728 43.9375C76.3356 43.5154 75.9659 43.535 75.6684 43.8325C75.3403 44.1607 74.8744 44.7141 74.5331 45.0313C72.7372 46.7025 72.0853 47.0941 71.9803 47.6519Z" fill="#424242"/>
<path d="M76.7994 46.4269C77.4031 46.5909 78.195 45.5694 78.3263 45.0575C78.4072 44.7425 78.3722 44.2809 78.1009 44.0665C77.6613 43.7209 77.3113 43.9178 77.0684 44.2022C76.7403 44.5894 76.1978 46.265 76.7994 46.4269Z" fill="#808080"/>
</svg>
