<svg width="101" height="100" viewBox="0 0 101 100" fill="none" xmlns="http://www.w3.org/2000/svg">
<mask id="path-1-inside-1_774_11429" fill="white">
<path fill-rule="evenodd" clip-rule="evenodd" d="M69.5 0C68.9477 0 68.5029 0.448498 68.4727 0.999957C67.9538 10.476 60.1056 18 50.5 18C40.8944 18 33.0462 10.476 32.5273 0.999956C32.4971 0.448497 32.0523 0 31.5 0L4.5 0C2.29086 0 0.5 1.79086 0.5 4L0.5 31C0.5 31.5523 0.948497 31.9971 1.49996 32.0273C10.976 32.5462 18.5 40.3944 18.5 50C18.5 59.6056 10.976 67.4538 1.49996 67.9727C0.948498 68.0029 0.5 68.4477 0.5 69L0.5 96C0.5 98.2091 2.29086 100 4.5 100H31.5C32.0523 100 32.4971 99.5515 32.5273 99C33.0462 89.524 40.8944 82 50.5 82C60.1056 82 67.9538 89.524 68.4727 99C68.5029 99.5515 68.9477 100 69.5 100H96.5C98.7091 100 100.5 98.2091 100.5 96V69C100.5 68.4477 100.052 68.0029 99.5 67.9727C90.024 67.4538 82.5 59.6056 82.5 50C82.5 40.3944 90.024 32.5462 99.5 32.0273C100.052 31.9971 100.5 31.5523 100.5 31V4C100.5 1.79086 98.7091 0 96.5 0L69.5 0Z"/>
</mask>
<path fill-rule="evenodd" clip-rule="evenodd" d="M69.5 0C68.9477 0 68.5029 0.448498 68.4727 0.999957C67.9538 10.476 60.1056 18 50.5 18C40.8944 18 33.0462 10.476 32.5273 0.999956C32.4971 0.448497 32.0523 0 31.5 0L4.5 0C2.29086 0 0.5 1.79086 0.5 4L0.5 31C0.5 31.5523 0.948497 31.9971 1.49996 32.0273C10.976 32.5462 18.5 40.3944 18.5 50C18.5 59.6056 10.976 67.4538 1.49996 67.9727C0.948498 68.0029 0.5 68.4477 0.5 69L0.5 96C0.5 98.2091 2.29086 100 4.5 100H31.5C32.0523 100 32.4971 99.5515 32.5273 99C33.0462 89.524 40.8944 82 50.5 82C60.1056 82 67.9538 89.524 68.4727 99C68.5029 99.5515 68.9477 100 69.5 100H96.5C98.7091 100 100.5 98.2091 100.5 96V69C100.5 68.4477 100.052 68.0029 99.5 67.9727C90.024 67.4538 82.5 59.6056 82.5 50C82.5 40.3944 90.024 32.5462 99.5 32.0273C100.052 31.9971 100.5 31.5523 100.5 31V4C100.5 1.79086 98.7091 0 96.5 0L69.5 0Z" fill="#374151" fill-opacity="0.4"/>
<path d="M0.5 4H1.5H0.5ZM0.5 96H1.5H0.5ZM99.5 32.0273L99.4454 31.0288L99.5 32.0273ZM99.5 67.9727L99.4454 68.9712L99.5 67.9727ZM32.5273 99L33.5258 99.0547L32.5273 99ZM1.49996 67.9727L1.44528 66.9742L1.49996 67.9727ZM32.5273 0.999956L31.5288 1.05463L32.5273 0.999956ZM68.4727 99L67.4742 99.0547L68.4727 99ZM68.4727 0.999957L67.4742 0.945284L68.4727 0.999957ZM50.5 19C60.6396 19 68.9235 11.058 69.4712 1.05463L67.4742 0.945284C66.9842 9.89397 59.5716 17 50.5 17L50.5 19ZM31.5288 1.05463C32.0765 11.058 40.3604 19 50.5 19L50.5 17C41.4284 17 34.0158 9.89397 33.5258 0.945282L31.5288 1.05463ZM4.5 1L31.5 1V-1L4.5 -1V1ZM1.5 4C1.5 2.34315 2.84315 1 4.5 1V-1C1.73858 -1 -0.5 1.23858 -0.5 4H1.5ZM1.5 31L1.5 4L-0.5 4L-0.5 31L1.5 31ZM1.44528 33.0258C10.394 33.5158 17.5 40.9284 17.5 50L19.5 50C19.5 39.8604 11.558 31.5765 1.55463 31.0288L1.44528 33.0258ZM17.5 50C17.5 59.0716 10.394 66.4842 1.44528 66.9742L1.55463 68.9712C11.558 68.4235 19.5 60.1396 19.5 50L17.5 50ZM1.5 96L1.5 69H-0.5L-0.5 96H1.5ZM4.5 99C2.84315 99 1.5 97.6569 1.5 96H-0.5C-0.5 98.7614 1.73858 101 4.5 101L4.5 99ZM31.5 99H4.5L4.5 101H31.5V99ZM50.5 81C40.3604 81 32.0765 88.942 31.5288 98.9454L33.5258 99.0547C34.0158 90.106 41.4284 83 50.5 83V81ZM69.4712 98.9454C68.9235 88.942 60.6396 81 50.5 81V83C59.5716 83 66.9842 90.106 67.4742 99.0547L69.4712 98.9454ZM96.5 99H69.5V101H96.5V99ZM99.5 96C99.5 97.6569 98.1569 99 96.5 99V101C99.2614 101 101.5 98.7614 101.5 96H99.5ZM99.5 69V96H101.5V69H99.5ZM81.5 50C81.5 60.1396 89.442 68.4235 99.4454 68.9712L99.5547 66.9742C90.606 66.4842 83.5 59.0716 83.5 50H81.5ZM99.4454 31.0288C89.442 31.5765 81.5 39.8604 81.5 50H83.5C83.5 40.9284 90.606 33.5158 99.5547 33.0258L99.4454 31.0288ZM99.5 4V31H101.5V4L99.5 4ZM96.5 1C98.1569 1 99.5 2.34315 99.5 4L101.5 4C101.5 1.23858 99.2614 -1 96.5 -1V1ZM69.5 1L96.5 1V-1L69.5 -1V1ZM99.5547 33.0258C100.601 32.9685 101.5 32.1183 101.5 31H99.5C99.5 31.0012 99.4999 31.0012 99.5 31.0007C99.5001 31.0001 99.5003 30.9998 99.5002 30.9999C99.5002 31.0001 99.4987 31.0033 99.494 31.0081C99.4836 31.0187 99.4667 31.0276 99.4454 31.0288L99.5547 33.0258ZM101.5 69C101.5 67.8817 100.601 67.0315 99.5547 66.9742L99.4454 68.9712C99.4666 68.9724 99.4836 68.9813 99.494 68.9919C99.4987 68.9967 99.5002 68.9999 99.5002 69.0001C99.5003 69.0002 99.5001 68.9999 99.5 68.9994C99.4999 68.9988 99.5 68.9988 99.5 69H101.5ZM31.5 101C32.6183 101 33.4685 100.101 33.5258 99.0547L31.5288 98.9454C31.5276 98.9666 31.5187 98.9836 31.5081 98.994C31.5033 98.9987 31.5001 99.0002 31.4999 99.0002C31.4998 99.0003 31.5001 99.0001 31.5006 99C31.5012 98.9999 31.5012 99 31.5 99V101ZM-0.5 31C-0.5 32.1183 0.399211 32.9685 1.44528 33.0258L1.55463 31.0288C1.53335 31.0276 1.5164 31.0187 1.506 31.0081C1.50127 31.0033 1.49985 31.0001 1.49977 30.9999C1.49974 30.9998 1.49987 31.0001 1.49998 31.0006C1.5001 31.0012 1.5 31.0012 1.5 31L-0.5 31ZM1.44528 66.9742C0.399215 67.0315 -0.5 67.8817 -0.5 69H1.5C1.5 68.9988 1.5001 68.9988 1.49998 68.9994C1.49987 68.9999 1.49974 69.0002 1.49977 69.0001C1.49985 68.9999 1.50127 68.9967 1.506 68.9919C1.5164 68.9813 1.53335 68.9724 1.55463 68.9712L1.44528 66.9742ZM33.5258 0.945282C33.4685 -0.100789 32.6183 -1 31.5 -1V1C31.5012 1 31.5012 1.0001 31.5007 0.999977C31.5001 0.999868 31.4998 0.999738 31.4999 0.999766C31.5001 0.999846 31.5033 1.00127 31.5081 1.006C31.5187 1.0164 31.5276 1.03335 31.5288 1.05463L33.5258 0.945282ZM67.4742 99.0547C67.5315 100.101 68.3817 101 69.5 101V99C69.4988 99 69.4988 98.9999 69.4993 99C69.4999 99.0001 69.5002 99.0003 69.5001 99.0002C69.4999 99.0002 69.4967 98.9987 69.4919 98.994C69.4813 98.9836 69.4724 98.9667 69.4712 98.9454L67.4742 99.0547ZM69.4712 1.05463C69.4724 1.03335 69.4813 1.0164 69.4919 1.006C69.4967 1.00127 69.4999 0.999846 69.5001 0.999766C69.5002 0.999738 69.4999 0.999868 69.4994 0.999977C69.4988 1.0001 69.4988 1 69.5 1V-1C68.3817 -1 67.5315 -0.100786 67.4742 0.945284L69.4712 1.05463Z" fill="#374151" mask="url(#path-1-inside-1_774_11429)"/>
<path d="M43.0383 71.108C42.5183 71.108 42.0623 70.984 41.6702 70.736C41.2863 70.488 40.9863 70.14 40.7703 69.692C40.5623 69.236 40.4583 68.7 40.4583 68.084C40.4583 67.46 40.5623 66.924 40.7703 66.476C40.9863 66.02 41.2863 65.672 41.6702 65.432C42.0623 65.184 42.5183 65.06 43.0383 65.06C43.5663 65.06 44.0183 65.192 44.3943 65.456C44.7703 65.72 45.0223 66.076 45.1503 66.524H45.0183V62.948C45.0183 62.788 45.0583 62.668 45.1383 62.588C45.2263 62.5 45.3503 62.456 45.5103 62.456C45.6623 62.456 45.7783 62.5 45.8583 62.588C45.9463 62.668 45.9903 62.788 45.9903 62.948V70.58C45.9903 70.74 45.9503 70.864 45.8703 70.952C45.7903 71.04 45.6703 71.084 45.5103 71.084C45.3583 71.084 45.2383 71.04 45.1503 70.952C45.0703 70.864 45.0303 70.74 45.0303 70.58V69.44L45.1623 69.608C45.0343 70.064 44.7783 70.428 44.3943 70.7C44.0183 70.972 43.5663 71.108 43.0383 71.108ZM43.2423 70.328C43.6023 70.328 43.9183 70.24 44.1903 70.064C44.4623 69.888 44.6703 69.632 44.8143 69.296C44.9663 68.96 45.0423 68.556 45.0423 68.084C45.0423 67.356 44.8783 66.8 44.5503 66.416C44.2303 66.032 43.7943 65.84 43.2423 65.84C42.8743 65.84 42.5543 65.928 42.2823 66.104C42.0183 66.272 41.8103 66.524 41.6583 66.86C41.5143 67.188 41.4423 67.596 41.4423 68.084C41.4423 68.804 41.6063 69.36 41.9343 69.752C42.2623 70.136 42.6983 70.328 43.2423 70.328ZM50.7663 71.108C50.2383 71.108 49.7823 70.972 49.3983 70.7C49.0223 70.428 48.7703 70.064 48.6423 69.608L48.7743 69.476V70.58C48.7743 70.74 48.7303 70.864 48.6423 70.952C48.5623 71.04 48.4463 71.084 48.2943 71.084C48.1343 71.084 48.0143 71.04 47.9343 70.952C47.8543 70.864 47.8143 70.74 47.8143 70.58V62.948C47.8143 62.788 47.8543 62.668 47.9343 62.588C48.0143 62.5 48.1343 62.456 48.2943 62.456C48.4463 62.456 48.5663 62.5 48.6543 62.588C48.7423 62.668 48.7863 62.788 48.7863 62.948V66.524H48.6423C48.7783 66.076 49.0343 65.72 49.4103 65.456C49.7863 65.192 50.2383 65.06 50.7663 65.06C51.2943 65.06 51.7503 65.184 52.1343 65.432C52.5183 65.672 52.8143 66.02 53.0223 66.476C53.2383 66.924 53.3463 67.46 53.3463 68.084C53.3463 68.7 53.2383 69.236 53.0223 69.692C52.8143 70.14 52.5143 70.488 52.1223 70.736C51.7383 70.984 51.2863 71.108 50.7663 71.108ZM50.5623 70.328C50.9303 70.328 51.2463 70.24 51.5103 70.064C51.7823 69.888 51.9903 69.632 52.1343 69.296C52.2863 68.96 52.3623 68.556 52.3623 68.084C52.3623 67.356 52.1983 66.8 51.8703 66.416C51.5503 66.032 51.1143 65.84 50.5623 65.84C50.2023 65.84 49.8863 65.928 49.6143 66.104C49.3423 66.272 49.1303 66.524 48.9783 66.86C48.8343 67.188 48.7623 67.596 48.7623 68.084C48.7623 68.804 48.9263 69.36 49.2543 69.752C49.5823 70.136 50.0183 70.328 50.5623 70.328ZM57.4984 71.108C56.5304 71.108 55.7944 70.736 55.2904 69.992C54.7864 69.248 54.5344 68.172 54.5344 66.764C54.5344 65.82 54.6464 65.028 54.8704 64.388C55.0944 63.74 55.4264 63.252 55.8664 62.924C56.3144 62.596 56.8584 62.432 57.4984 62.432C58.4744 62.432 59.2104 62.8 59.7064 63.536C60.2104 64.264 60.4624 65.336 60.4624 66.752C60.4624 67.696 60.3504 68.492 60.1264 69.14C59.9024 69.788 59.5704 70.28 59.1304 70.616C58.6904 70.944 58.1464 71.108 57.4984 71.108ZM57.4984 70.256C58.1704 70.256 58.6664 69.972 58.9864 69.404C59.3144 68.828 59.4784 67.944 59.4784 66.752C59.4784 65.552 59.3144 64.676 58.9864 64.124C58.6664 63.564 58.1704 63.284 57.4984 63.284C56.8344 63.284 56.3384 63.564 56.0104 64.124C55.6824 64.684 55.5184 65.56 55.5184 66.752C55.5184 67.944 55.6824 68.828 56.0104 69.404C56.3384 69.972 56.8344 70.256 57.4984 70.256Z" fill="#F9FAFB"/>
<path d="M62.3191 48.3825L52.3134 52.9062C51.6966 53.1971 51.0534 53.1687 50.4628 52.8275L37.8322 46.4137C37.4712 46.1818 37.3641 45.8428 37.3859 45.6065C37.4078 45.3703 37.4625 45.1143 38.0969 44.9306L39.0331 44.585L51.7031 51.4909L60.7069 47.8115L62.3191 48.3825Z" fill="#01579B"/>
<path d="M52.1931 52.1822C51.9429 52.2996 51.6684 52.3556 51.3922 52.3457C51.116 52.3359 50.8462 52.2603 50.605 52.1253L38.2741 45.9128C38.0991 45.8166 38.0466 45.5956 38.1516 45.425C38.4228 44.9766 38.9216 43.5591 38.0991 42.3822L52.0247 49.0869L52.1931 52.1822Z" fill="#F5F5F5"/>
<path d="M61.7853 47.8706L52.1931 52.1822C51.8759 52.32 51.2438 52.565 50.5153 52.075C51.0906 52.1165 51.4953 51.8781 51.7031 51.4909C51.9066 51.1147 51.8453 50.4978 51.5981 50.15C51.4472 49.94 51.0425 49.6053 50.8653 49.4172L61.2406 45.3594C62.1594 44.9809 63.0213 45.5475 63.1591 46.2365C63.3122 47.0153 62.3191 47.6519 61.7853 47.8706Z" fill="#94C6D6"/>
<path d="M62.2644 45.0225L52.3616 49.4413C51.7381 49.6884 51.0403 49.6556 50.4431 49.3538L37.7906 42.9269C37.6681 42.8656 37.4866 42.6972 37.4144 42.4675C37.2962 42.0847 37.445 41.6034 37.8934 41.4503L51.6047 48.4394L60.9934 44.4209L62.2644 45.0225Z" fill="#01579B"/>
<path d="M63.0103 45.6635L61.9319 45.2719L59.7094 45.401L52.3637 48.68C51.7403 48.9272 51.0425 48.8944 50.4453 48.5925L37.7906 42.1678C37.4647 42.0016 37.5347 41.5182 37.8934 41.4503L47.0131 37.3707C47.2734 37.3225 47.5403 37.351 47.7831 37.4538L60.7966 43.6575C60.7966 43.6575 62.8637 45.0728 63.0103 45.6635Z" fill="#0091EA"/>
<path d="M59.5847 45.4644C59.5847 45.4644 60.9541 44.9285 62.0303 44.9766C63.1066 45.0247 63.4806 45.7794 63.4806 45.7794C63.2772 44.8541 62.3212 44.3816 62.3212 44.3816L48.1025 37.2219C48.0041 37.1804 47.6409 37.0951 47.0831 37.3247C46.6325 37.5107 45.1603 38.1997 45.1603 38.1997L59.5847 45.4644Z" fill="#616161"/>
<path d="M63.5419 45.9544C63.4391 45.5454 63.1853 45.1079 62.7172 44.8957C62.1003 44.6179 61.2209 44.6901 60.6588 44.9832L59.5847 45.4601V46.2169L60.9431 45.6132C62.2644 45.0248 62.8506 45.9063 62.9009 46.1141C63.1109 46.9607 62.7041 47.4507 61.5031 48.0019L59.5519 48.8813V49.6426L61.7963 48.6429C62.7894 48.2447 63.9225 47.4966 63.5419 45.9544Z" fill="#424242"/>
<path d="M43.7209 45.7553L39.9431 40.5337L40.5359 40.269L44.7863 46.1097L43.7209 45.7553ZM48.5663 48.1615L47.8925 47.6278L59.5847 45.2412V45.624L57.9463 46.2453L48.5663 48.1615Z" fill="#01579B"/>
<path d="M39.7375 36.1019L54.5053 33.6344L60.9563 40.7372C61.2822 41.0806 61.105 41.6494 60.6413 41.7435L45.3944 44.8716L39.7375 36.1019Z" fill="#9CCC65"/>
<path d="M60.6412 41.131L45.4994 44.1978L45.4512 44.9197L60.6412 41.8047C61.07 41.715 61.2494 41.225 61.0153 40.8794C60.9322 41.0019 60.8053 41.0981 60.6412 41.131ZM61.4572 44.4406C61.6169 44.6944 61.4725 45.0291 61.1794 45.0881L47.2406 47.9144C46.4028 48.0872 45.5803 47.5381 45.5059 46.685C45.4425 45.9631 45.9303 45.3091 46.6412 45.1603L60.0462 42.1503L61.4572 44.4406Z" fill="#689F38"/>
<path d="M48.6603 43.5219L43.1084 35.5769L39.9409 36.4147C39.2081 37.1432 39.4816 38.3397 39.4816 38.3397C39.4816 38.3397 44.3313 46.1228 45.0969 47.1182C45.8625 48.1135 46.9803 47.9582 46.9803 47.9582L48.8681 47.5775L48.6713 44.0557L48.6603 43.5219Z" fill="#616161"/>
<path d="M48.6603 43.5743L45.9937 44.1256C45.2653 44.2896 45.1341 44.9743 45.1341 44.9743L38.6962 35.7496C38.6962 35.7496 37.7797 36.8587 38.3878 37.8015L45.0969 47.1181C45.8297 48.1615 46.9803 47.9668 46.9803 47.9668L48.8681 47.5862L48.6734 44.1343L48.6603 43.5743Z" fill="#424242"/>
<path d="M60.6172 44.1563C60.685 44.305 60.5975 44.4778 60.4378 44.5106L47.1094 47.245C46.2716 47.4178 45.6787 46.8622 45.7094 46.1053C45.7487 45.1494 46.2847 44.7447 46.9934 44.5981L60.3875 41.8616C60.3875 41.8616 59.9325 42.3734 60.2803 43.3316C60.3984 43.6619 60.5253 43.955 60.6172 44.1563Z" fill="#B9E4EA"/>
<path d="M46.3897 44.3094L40.6781 36.2288" stroke="#424242" stroke-width="0.51775" stroke-miterlimit="10"/>
<path d="M46.8381 40.8641L39.4925 37.1628L39.195 37.7491L47.6825 42.0738L46.8381 40.8641Z" fill="#424242"/>
<path d="M60.2978 40.0065L59.7597 39.4159L51.4844 43.2134L46.8381 40.9143L47.63 42.0475L50.7078 43.6203L53.0003 43.2681L60.2978 40.0065Z" fill="#689F38"/>
<path d="M62.3169 38.5453L52.3134 43.069C51.6966 43.3599 51.0534 43.3315 50.4628 42.9903L37.8322 36.5765C37.4712 36.3446 37.3641 36.0056 37.3859 35.7693C37.4078 35.5331 37.4625 35.2771 38.0969 35.0934L38.6897 34.8746L51.6659 41.2424L62.2031 36.8828L62.3169 38.5453Z" fill="#C62828"/>
<path d="M52.1909 42.345C51.9407 42.4624 51.6662 42.5185 51.39 42.5086C51.1138 42.4987 50.844 42.4231 50.6028 42.2882L38.2719 36.0757C38.0969 35.9794 38.0444 35.7585 38.1494 35.5879C38.4206 35.1394 38.9194 33.7219 38.0969 32.545L51.7119 39.4707L52.1909 42.345Z" fill="#F5F5F5"/>
<path d="M61.7831 38.0334L52.1909 42.345C51.8737 42.4828 51.2416 42.7278 50.5131 42.2378C51.0884 42.2794 51.4931 42.0409 51.7009 41.6538C51.9044 41.2775 51.8431 40.6606 51.5959 40.3128C51.445 40.1028 51.0403 39.7681 50.8631 39.58L61.2384 35.5222C62.1572 35.1438 63.0191 35.7103 63.1569 36.3994C63.31 37.1781 62.3169 37.8147 61.7831 38.0334Z" fill="#94C6D6"/>
<path d="M62.2644 35.1854L52.3616 39.6041C51.7381 39.8513 51.0403 39.8185 50.4431 39.5166L37.7884 33.0897C37.6572 33.0241 37.4603 32.8557 37.3969 32.6172C37.3028 32.2629 37.4253 31.7969 37.8912 31.6132L49.4872 29.1566L62.2644 35.1854Z" fill="#C62828"/>
<path d="M63.0081 35.8263L61.9297 35.4347L59.7072 35.5638L52.3616 38.8429C51.7381 39.0901 51.0403 39.0572 50.4431 38.7554L37.7884 32.3285C37.4625 32.1622 37.5784 31.7226 37.8912 31.611L47.0131 27.5335C47.2734 27.4854 47.5403 27.5138 47.7831 27.6166L60.7966 33.8204C60.7966 33.8204 62.8616 35.2335 63.0081 35.8263Z" fill="#F44336"/>
<path d="M59.5847 35.625C59.5847 35.625 60.7244 35.2246 61.8006 35.2728C62.8769 35.3209 63.4828 35.94 63.4828 35.94C63.2619 34.9512 62.3234 34.5421 62.3234 34.5421L48.1047 27.3825C48.0063 27.3409 47.6431 27.2556 47.0853 27.4853C46.6347 27.6712 45.1625 28.3603 45.1625 28.3603L59.5847 35.625Z" fill="#616161"/>
<path d="M60.8863 35.1568L46.3372 27.8178L46.8184 27.6012L61.6147 35.0168L60.8863 35.1568Z" fill="#424242"/>
<path d="M63.5397 36.1172C63.4369 35.7081 63.2641 35.3122 62.7762 35.1065C62.1528 34.844 61.5841 34.7894 60.6566 35.1459L59.5825 35.6228V36.3797L60.9409 35.7759C61.63 35.4522 62.645 35.5222 62.8987 36.2769C63.1766 37.1037 62.7019 37.6134 61.5009 38.1647L59.5497 39.044V39.8053L61.7941 38.8056C62.7894 38.4075 63.9225 37.6594 63.5397 36.1172Z" fill="#424242"/>
</svg>
