<svg width="119" height="118" viewBox="0 0 119 118" fill="none" xmlns="http://www.w3.org/2000/svg">
<mask id="path-1-inside-1_576_10474" fill="white">
<path fill-rule="evenodd" clip-rule="evenodd" d="M69.5 18C68.9477 18 68.5029 17.5515 68.4727 17C67.9538 7.52403 60.1056 0 50.5 0C40.8944 0 33.0462 7.52403 32.5273 17C32.4971 17.5515 32.0523 18 31.5 18L4.5 18C2.29086 18 0.5 19.7909 0.5 22L0.500002 49C0.500002 49.5523 0.948499 49.9971 1.49996 50.0273C10.976 50.5462 18.5 58.3944 18.5 68C18.5 77.6056 10.976 85.4538 1.49996 85.9727C0.9485 86.0029 0.500002 86.4477 0.500002 87L0.5 114C0.5 116.209 2.29086 118 4.5 118H31.5C32.0523 118 32.4971 117.552 32.5273 117C33.0462 107.524 40.8944 100 50.5 100C60.1056 100 67.9538 107.524 68.4727 117C68.5029 117.551 68.9477 118 69.5 118H96.5C98.7091 118 100.5 116.209 100.5 114L100.5 87C100.5 86.4477 100.948 86.0029 101.5 85.9727C110.976 85.4538 118.5 77.6056 118.5 68C118.5 58.3944 110.976 50.5462 101.5 50.0273C100.949 49.9971 100.5 49.5523 100.5 49L100.5 22C100.5 19.7909 98.7091 18 96.5 18L69.5 18Z"/>
</mask>
<path fill-rule="evenodd" clip-rule="evenodd" d="M69.5 18C68.9477 18 68.5029 17.5515 68.4727 17C67.9538 7.52403 60.1056 0 50.5 0C40.8944 0 33.0462 7.52403 32.5273 17C32.4971 17.5515 32.0523 18 31.5 18L4.5 18C2.29086 18 0.5 19.7909 0.5 22L0.500002 49C0.500002 49.5523 0.948499 49.9971 1.49996 50.0273C10.976 50.5462 18.5 58.3944 18.5 68C18.5 77.6056 10.976 85.4538 1.49996 85.9727C0.9485 86.0029 0.500002 86.4477 0.500002 87L0.5 114C0.5 116.209 2.29086 118 4.5 118H31.5C32.0523 118 32.4971 117.552 32.5273 117C33.0462 107.524 40.8944 100 50.5 100C60.1056 100 67.9538 107.524 68.4727 117C68.5029 117.551 68.9477 118 69.5 118H96.5C98.7091 118 100.5 116.209 100.5 114L100.5 87C100.5 86.4477 100.948 86.0029 101.5 85.9727C110.976 85.4538 118.5 77.6056 118.5 68C118.5 58.3944 110.976 50.5462 101.5 50.0273C100.949 49.9971 100.5 49.5523 100.5 49L100.5 22C100.5 19.7909 98.7091 18 96.5 18L69.5 18Z" fill="#374151" fill-opacity="0.4"/>
<path d="M4.5 18V17V18ZM0.5 22H-0.5H0.5ZM0.5 114H-0.5H0.5ZM100.5 114H101.5H100.5ZM96.5 18V17V18ZM101.5 50.0273L101.555 49.0288L101.5 50.0273ZM100.5 87H99.5H100.5ZM101.5 85.9727L101.445 84.9742L101.5 85.9727ZM32.5273 117L31.5288 116.945L32.5273 117ZM1.49996 85.9727L1.44529 84.9742L1.49996 85.9727ZM32.5273 17L31.5288 16.9454L32.5273 17ZM68.4727 117L69.4712 116.945L68.4727 117ZM68.4727 17L69.4712 16.9454L68.4727 17ZM69.5 18V17V18ZM50.5 1C59.5716 1 66.9842 8.10602 67.4742 17.0547L69.4712 16.9454C68.9235 6.94204 60.6396 -1 50.5 -1V1ZM33.5258 17.0547C34.0158 8.10603 41.4284 1 50.5 1V-1C40.3604 -1 32.0765 6.94204 31.5288 16.9454L33.5258 17.0547ZM31.5 17L4.5 17V19L31.5 19V17ZM4.5 17C1.73858 17 -0.5 19.2386 -0.5 22H1.5C1.5 20.3431 2.84315 19 4.5 19V17ZM-0.5 22L-0.499998 49H1.5L1.5 22H-0.5ZM1.44528 51.0258C10.394 51.5158 17.5 58.9284 17.5 68H19.5C19.5 57.8604 11.558 49.5765 1.55463 49.0288L1.44528 51.0258ZM17.5 68C17.5 77.0716 10.394 84.4842 1.44529 84.9742L1.55463 86.9712C11.558 86.4235 19.5 78.1395 19.5 68H17.5ZM-0.499998 87L-0.5 114H1.5L1.5 87H-0.499998ZM-0.5 114C-0.5 116.761 1.73858 119 4.5 119L4.5 117C2.84315 117 1.5 115.657 1.5 114H-0.5ZM4.5 119H31.5V117H4.5L4.5 119ZM33.5258 117.055C34.0158 108.106 41.4284 101 50.5 101V99C40.3604 99 32.0765 106.942 31.5288 116.945L33.5258 117.055ZM50.5 101C59.5716 101 66.9842 108.106 67.4742 117.055L69.4712 116.945C68.9235 106.942 60.6396 99 50.5 99V101ZM69.5 119H96.5V117H69.5V119ZM96.5 119C99.2614 119 101.5 116.761 101.5 114H99.5C99.5 115.657 98.1569 117 96.5 117V119ZM101.5 114L101.5 87H99.5L99.5 114H101.5ZM101.555 86.9712C111.558 86.4235 119.5 78.1395 119.5 68H117.5C117.5 77.0716 110.394 84.4842 101.445 84.9742L101.555 86.9712ZM119.5 68C119.5 57.8604 111.558 49.5765 101.555 49.0288L101.445 51.0258C110.394 51.5158 117.5 58.9284 117.5 68H119.5ZM101.5 49L101.5 22H99.5L99.5 49H101.5ZM101.5 22C101.5 19.2386 99.2614 17 96.5 17V19C98.1569 19 99.5 20.3431 99.5 22H101.5ZM96.5 17L69.5 17V19L96.5 19V17ZM101.555 49.0288C101.533 49.0276 101.516 49.0187 101.506 49.0081C101.501 49.0033 101.5 49.0001 101.5 48.9999C101.5 48.9998 101.5 49.0001 101.5 49.0006C101.5 49.0012 101.5 49.0012 101.5 49H99.5C99.5 50.1183 100.399 50.9685 101.445 51.0258L101.555 49.0288ZM101.5 87C101.5 86.9988 101.5 86.9988 101.5 86.9994C101.5 86.9999 101.5 87.0002 101.5 87.0001C101.5 86.9999 101.501 86.9967 101.506 86.9919C101.516 86.9813 101.533 86.9724 101.555 86.9712L101.445 84.9742C100.399 85.0315 99.5 85.8817 99.5 87H101.5ZM31.5 119C32.6183 119 33.4685 118.101 33.5258 117.055L31.5288 116.945C31.5276 116.967 31.5187 116.984 31.5081 116.994C31.5033 116.999 31.5001 117 31.4999 117C31.4998 117 31.5001 117 31.5007 117C31.5012 117 31.5012 117 31.5 117V119ZM-0.499998 49C-0.499998 50.1183 0.399213 50.9685 1.44528 51.0258L1.55463 49.0288C1.53335 49.0276 1.5164 49.0187 1.506 49.0081C1.50127 49.0033 1.49985 49.0001 1.49977 48.9999C1.49974 48.9998 1.49987 49.0001 1.49998 49.0006C1.5001 49.0012 1.5 49.0012 1.5 49H-0.499998ZM1.44529 84.9742C0.399216 85.0315 -0.499998 85.8817 -0.499998 87H1.5C1.5 86.9988 1.5001 86.9988 1.49998 86.9994C1.49987 86.9999 1.49974 87.0002 1.49977 87.0001C1.49985 86.9999 1.50127 86.9967 1.506 86.9919C1.5164 86.9813 1.53335 86.9724 1.55463 86.9712L1.44529 84.9742ZM31.5288 16.9454C31.5276 16.9667 31.5187 16.9836 31.5081 16.994C31.5033 16.9987 31.5001 17.0002 31.4999 17.0002C31.4998 17.0003 31.5001 17.0001 31.5007 17C31.5012 16.9999 31.5012 17 31.5 17V19C32.6183 19 33.4685 18.1008 33.5258 17.0547L31.5288 16.9454ZM67.4742 117.055C67.5315 118.101 68.3817 119 69.5 119V117C69.4988 117 69.4988 117 69.4994 117C69.4999 117 69.5002 117 69.5001 117C69.4999 117 69.4967 116.999 69.4919 116.994C69.4813 116.984 69.4724 116.967 69.4712 116.945L67.4742 117.055ZM67.4742 17.0547C67.5315 18.1008 68.3817 19 69.5 19V17C69.4988 17 69.4988 16.9999 69.4994 17C69.4999 17.0001 69.5002 17.0003 69.5001 17.0002C69.4999 17.0002 69.4967 16.9987 69.4919 16.994C69.4813 16.9836 69.4724 16.9667 69.4712 16.9454L67.4742 17.0547Z" fill="#374151" mask="url(#path-1-inside-1_576_10474)"/>
<path d="M41.5793 89.108C41.0593 89.108 40.6033 88.984 40.2113 88.736C39.8273 88.488 39.5273 88.14 39.3113 87.692C39.1033 87.236 38.9993 86.7 38.9993 86.084C38.9993 85.46 39.1033 84.924 39.3113 84.476C39.5273 84.02 39.8273 83.672 40.2113 83.432C40.6033 83.184 41.0593 83.06 41.5793 83.06C42.1073 83.06 42.5593 83.192 42.9353 83.456C43.3113 83.72 43.5633 84.076 43.6913 84.524H43.5593V80.948C43.5593 80.788 43.5993 80.668 43.6793 80.588C43.7673 80.5 43.8913 80.456 44.0513 80.456C44.2033 80.456 44.3193 80.5 44.3993 80.588C44.4873 80.668 44.5313 80.788 44.5313 80.948V88.58C44.5313 88.74 44.4913 88.864 44.4113 88.952C44.3313 89.04 44.2113 89.084 44.0513 89.084C43.8993 89.084 43.7793 89.04 43.6913 88.952C43.6113 88.864 43.5713 88.74 43.5713 88.58V87.44L43.7033 87.608C43.5753 88.064 43.3193 88.428 42.9353 88.7C42.5593 88.972 42.1073 89.108 41.5793 89.108ZM41.7833 88.328C42.1433 88.328 42.4593 88.24 42.7313 88.064C43.0033 87.888 43.2113 87.632 43.3553 87.296C43.5073 86.96 43.5833 86.556 43.5833 86.084C43.5833 85.356 43.4193 84.8 43.0913 84.416C42.7713 84.032 42.3353 83.84 41.7833 83.84C41.4153 83.84 41.0953 83.928 40.8233 84.104C40.5593 84.272 40.3513 84.524 40.1993 84.86C40.0553 85.188 39.9833 85.596 39.9833 86.084C39.9833 86.804 40.1473 87.36 40.4753 87.752C40.8033 88.136 41.2393 88.328 41.7833 88.328ZM48.9834 89.108C48.3674 89.108 47.8354 88.988 47.3874 88.748C46.9474 88.5 46.6034 88.152 46.3554 87.704C46.1154 87.256 45.9954 86.72 45.9954 86.096C45.9954 85.488 46.1154 84.96 46.3554 84.512C46.5954 84.056 46.9234 83.7 47.3394 83.444C47.7634 83.188 48.2514 83.06 48.8034 83.06C49.1954 83.06 49.5474 83.128 49.8594 83.264C50.1714 83.392 50.4354 83.58 50.6514 83.828C50.8754 84.076 51.0434 84.376 51.1554 84.728C51.2754 85.08 51.3354 85.476 51.3354 85.916C51.3354 86.044 51.2994 86.14 51.2274 86.204C51.1554 86.26 51.0514 86.288 50.9154 86.288H46.7394V85.652H50.6874L50.4954 85.808C50.4954 85.376 50.4314 85.012 50.3034 84.716C50.1754 84.412 49.9874 84.18 49.7394 84.02C49.4994 83.86 49.1954 83.78 48.8274 83.78C48.4194 83.78 48.0714 83.876 47.7834 84.068C47.5034 84.252 47.2914 84.512 47.1474 84.848C47.0034 85.176 46.9314 85.56 46.9314 86V86.072C46.9314 86.808 47.1074 87.368 47.4594 87.752C47.8194 88.136 48.3274 88.328 48.9834 88.328C49.2554 88.328 49.5234 88.292 49.7874 88.22C50.0594 88.148 50.3234 88.028 50.5794 87.86C50.6914 87.788 50.7914 87.756 50.8794 87.764C50.9754 87.764 51.0514 87.792 51.1074 87.848C51.1634 87.896 51.1994 87.96 51.2154 88.04C51.2394 88.112 51.2314 88.192 51.1914 88.28C51.1594 88.368 51.0914 88.444 50.9874 88.508C50.7234 88.7 50.4114 88.848 50.0514 88.952C49.6914 89.056 49.3354 89.108 48.9834 89.108ZM53.5341 89.084C53.3821 89.084 53.2621 89.04 53.1741 88.952C53.0941 88.864 53.0541 88.74 53.0541 88.58V83.924H52.2861C52.1581 83.924 52.0541 83.892 51.9741 83.828C51.9021 83.756 51.8661 83.66 51.8661 83.54C51.8661 83.42 51.9021 83.328 51.9741 83.264C52.0541 83.2 52.1581 83.168 52.2861 83.168H53.3181L53.0541 83.42V82.964C53.0541 82.204 53.2381 81.624 53.6061 81.224C53.9821 80.824 54.5301 80.592 55.2501 80.528L55.5981 80.492C55.7101 80.484 55.7981 80.504 55.8621 80.552C55.9341 80.6 55.9781 80.66 55.9941 80.732C56.0181 80.804 56.0221 80.88 56.0061 80.96C55.9901 81.032 55.9541 81.096 55.8981 81.152C55.8421 81.208 55.7741 81.24 55.6941 81.248L55.4181 81.272C54.9301 81.312 54.5741 81.46 54.3501 81.716C54.1341 81.972 54.0261 82.348 54.0261 82.844V83.348L53.8821 83.168H55.3221C55.4581 83.168 55.5621 83.2 55.6341 83.264C55.7061 83.328 55.7421 83.42 55.7421 83.54C55.7421 83.66 55.7061 83.756 55.6341 83.828C55.5621 83.892 55.4581 83.924 55.3221 83.924H54.0261V88.58C54.0261 88.916 53.8621 89.084 53.5341 89.084ZM58.8022 89.108C58.3302 89.108 57.9382 89.024 57.6262 88.856C57.3222 88.68 57.0902 88.42 56.9302 88.076C56.7782 87.732 56.7022 87.304 56.7022 86.792V83.576C56.7022 83.408 56.7422 83.284 56.8222 83.204C56.9102 83.124 57.0302 83.084 57.1822 83.084C57.3422 83.084 57.4622 83.124 57.5422 83.204C57.6302 83.284 57.6742 83.408 57.6742 83.576V86.78C57.6742 87.292 57.7782 87.676 57.9862 87.932C58.2022 88.18 58.5382 88.304 58.9942 88.304C59.4902 88.304 59.8942 88.136 60.2062 87.8C60.5182 87.464 60.6742 87.024 60.6742 86.48V83.576C60.6742 83.408 60.7142 83.284 60.7942 83.204C60.8822 83.124 61.0062 83.084 61.1662 83.084C61.3182 83.084 61.4342 83.124 61.5142 83.204C61.6022 83.284 61.6462 83.408 61.6462 83.576V88.58C61.6462 88.916 61.4902 89.084 61.1782 89.084C61.0262 89.084 60.9062 89.04 60.8182 88.952C60.7382 88.864 60.6982 88.74 60.6982 88.58V87.488L60.8542 87.656C60.6942 88.128 60.4302 88.488 60.0622 88.736C59.7022 88.984 59.2822 89.108 58.8022 89.108Z" fill="#F9FAFB"/>
<path d="M39.7069 69.3181C40.0066 69.55 40.8706 68.0559 44.1256 67.8569C47.6103 67.6425 51.4669 70.4141 56.7497 70.4141C61.4331 70.4141 63.8591 68.1216 63.6928 67.7562C63.5812 67.5134 61.7328 67.0672 59.6066 65.9625C57.0494 64.6347 54.3566 63.3047 52.2981 60.3144C50.9791 58.4003 50.0384 56.1953 51.3356 54.4672C52.6306 52.7391 55.9206 53.5375 55.9206 53.5375L51.4362 48.6878L42.8984 51.0153L38.5781 61.8456L39.0441 67.3603L39.7069 69.3181Z" fill="url(#paint0_radial_576_10474)"/>
<path d="M49.4631 51.899C49.4631 51.899 50.5066 52.2315 51.9044 52.96C54.2297 54.174 55.6384 56.0837 57.0756 56.2018C58.5675 56.3222 59.3309 55.4625 59.005 53.6687C58.7009 51.9953 56.2313 50.0309 56.2313 50.0309C56.2313 50.0309 58.4866 50.4553 58.4866 49.1625C58.4866 47.8347 57.2703 47.1959 55.3563 46.5375C54.0809 46.1 50.6509 45.1287 46.0528 46.87C44.0753 47.6181 41.6603 49.0006 39.8272 51.6497C37.4297 55.1147 36.9441 59.6209 37.3991 63.0422C37.9503 67.1743 39.6697 69.305 39.7113 69.3225C39.7528 69.34 39.9781 64.464 41.9009 62.3487C43.5394 60.5462 45.215 61.2856 47.2056 61.1872C49.5528 61.0712 50.6006 58.6475 48.8091 56.799C47.2713 55.2109 44.7228 55.3531 44.7228 55.3531C44.7228 55.3531 45.5672 55.0162 47.1706 54.8718C49.0125 54.7034 49.3756 53.6337 49.5069 53.2334C49.7978 52.3497 49.4631 51.899 49.4631 51.899Z" fill="#1B6DA4"/>
<path d="M44.8453 51.9406C44.7228 51.2188 46.8491 50.5669 49.0759 50.9169C52.5409 51.4616 55.2841 54.6225 56.4478 55.0841C58.1628 55.7666 58.7666 54.3644 57.9069 52.8463C57.0209 51.2778 54.6759 49.9434 54.7634 49.425C54.9209 48.5041 57.3228 49.9063 57.4694 48.8825C57.5678 48.2044 55.7741 47.2288 54.07 46.7934C52.6984 46.4434 49.8175 46.0125 45.8362 47.7472C40.6606 50.0069 38.4228 54.5022 38.0531 59.2119C37.7031 63.6788 39.4094 67.0081 39.4094 67.0081C39.4094 67.0081 39.5253 63.6744 41.1966 61.8391C42.4172 60.5003 43.9834 59.9972 45.6831 60.3209C48.5181 60.8634 49.7541 58.8138 48.3912 57.3328C47.4987 56.3638 46.3547 56.0619 45.1712 56.0225C43.1259 55.9569 42.0256 56.6416 41.9666 56.4097C41.8791 56.0575 42.9881 55.2416 44.3947 54.6553C46.2453 53.8853 48.4787 54.4125 48.8287 52.8638C48.9994 52.1091 48.5728 51.6956 47.3522 51.6059C45.81 51.4944 44.8541 51.9931 44.8453 51.9406Z" fill="white"/>
<defs>
<radialGradient id="paint0_radial_576_10474" cx="0" cy="0" r="1" gradientUnits="userSpaceOnUse" gradientTransform="translate(49.5924 43.6926) scale(24.8734)">
<stop offset="0.423" stop-color="#45D6F0"/>
<stop offset="0.518" stop-color="#41CDE9"/>
<stop offset="0.674" stop-color="#37B4D7"/>
<stop offset="0.87" stop-color="#278BBA"/>
<stop offset="1" stop-color="#1B6DA4"/>
</radialGradient>
</defs>
</svg>
