<svg width="118" height="118" viewBox="0 0 118 118" fill="none" xmlns="http://www.w3.org/2000/svg">
<mask id="path-1-inside-1_576_10474" fill="white">
<path fill-rule="evenodd" clip-rule="evenodd" d="M69 18C68.4477 18 68.0029 17.5515 67.9727 17C67.4538 7.52403 59.6056 0 50 0C40.3944 0 32.5462 7.52403 32.0273 17C31.9971 17.5515 31.5523 18 31 18L4 18C1.79086 18 0 19.7909 0 22L1.83923e-06 49C1.87685e-06 49.5523 0.448499 49.9971 0.999957 50.0273C10.476 50.5462 18 58.3944 18 68C18 77.6056 10.476 85.4538 0.999959 85.9727C0.4485 86.0029 1.87685e-06 86.4477 1.83923e-06 87L0 114C0 116.209 1.79086 118 4 118H31C31.5523 118 31.9971 117.552 32.0273 117C32.5462 107.524 40.3944 100 50 100C59.6056 100 67.4538 107.524 67.9727 117C68.0029 117.551 68.4477 118 69 118H96C98.2091 118 100 116.209 100 114L100 87C100 86.4477 100.448 86.0029 101 85.9727C110.476 85.4538 118 77.6056 118 68C118 58.3944 110.476 50.5462 101 50.0273C100.449 49.9971 100 49.5523 100 49L100 22C100 19.7909 98.2091 18 96 18L69 18Z"/>
</mask>
<path fill-rule="evenodd" clip-rule="evenodd" d="M69 18C68.4477 18 68.0029 17.5515 67.9727 17C67.4538 7.52403 59.6056 0 50 0C40.3944 0 32.5462 7.52403 32.0273 17C31.9971 17.5515 31.5523 18 31 18L4 18C1.79086 18 0 19.7909 0 22L1.83923e-06 49C1.87685e-06 49.5523 0.448499 49.9971 0.999957 50.0273C10.476 50.5462 18 58.3944 18 68C18 77.6056 10.476 85.4538 0.999959 85.9727C0.4485 86.0029 1.87685e-06 86.4477 1.83923e-06 87L0 114C0 116.209 1.79086 118 4 118H31C31.5523 118 31.9971 117.552 32.0273 117C32.5462 107.524 40.3944 100 50 100C59.6056 100 67.4538 107.524 67.9727 117C68.0029 117.551 68.4477 118 69 118H96C98.2091 118 100 116.209 100 114L100 87C100 86.4477 100.448 86.0029 101 85.9727C110.476 85.4538 118 77.6056 118 68C118 58.3944 110.476 50.5462 101 50.0273C100.449 49.9971 100 49.5523 100 49L100 22C100 19.7909 98.2091 18 96 18L69 18Z" fill="#374151" fill-opacity="0.4"/>
<path d="M4 18V17V18ZM0 22H-1H0ZM0 114H-1H0ZM100 114H101H100ZM96 18V17V18ZM101 50.0273L101.055 49.0288L101 50.0273ZM100 87H99H100ZM101 85.9727L100.945 84.9742L101 85.9727ZM32.0273 117L31.0288 116.945L32.0273 117ZM0.999959 85.9727L0.945286 84.9742L0.999959 85.9727ZM32.0273 17L31.0288 16.9454L32.0273 17ZM67.9727 117L68.9712 116.945L67.9727 117ZM67.9727 17L68.9712 16.9454L67.9727 17ZM69 18V17V18ZM50 1C59.0716 1 66.4842 8.10602 66.9742 17.0547L68.9712 16.9454C68.4235 6.94204 60.1396 -1 50 -1V1ZM33.0258 17.0547C33.5158 8.10603 40.9284 1 50 1V-1C39.8604 -1 31.5765 6.94204 31.0288 16.9454L33.0258 17.0547ZM31 17L4 17V19L31 19V17ZM4 17C1.23858 17 -1 19.2386 -1 22H1C1 20.3431 2.34315 19 4 19V17ZM-1 22L-0.999998 49H1L1 22H-1ZM0.945284 51.0258C9.89398 51.5158 17 58.9284 17 68H19C19 57.8604 11.058 49.5765 1.05463 49.0288L0.945284 51.0258ZM17 68C17 77.0716 9.89398 84.4842 0.945286 84.9742L1.05463 86.9712C11.058 86.4235 19 78.1395 19 68H17ZM-0.999998 87L-1 114H1L1 87H-0.999998ZM-1 114C-1 116.761 1.23858 119 4 119L4 117C2.34315 117 1 115.657 1 114H-1ZM4 119H31V117H4L4 119ZM33.0258 117.055C33.5158 108.106 40.9284 101 50 101V99C39.8604 99 31.5765 106.942 31.0288 116.945L33.0258 117.055ZM50 101C59.0716 101 66.4842 108.106 66.9742 117.055L68.9712 116.945C68.4235 106.942 60.1396 99 50 99V101ZM69 119H96V117H69V119ZM96 119C98.7614 119 101 116.761 101 114H99C99 115.657 97.6569 117 96 117V119ZM101 114L101 87H99L99 114H101ZM101.055 86.9712C111.058 86.4235 119 78.1395 119 68H117C117 77.0716 109.894 84.4842 100.945 84.9742L101.055 86.9712ZM119 68C119 57.8604 111.058 49.5765 101.055 49.0288L100.945 51.0258C109.894 51.5158 117 58.9284 117 68H119ZM101 49L101 22H99L99 49H101ZM101 22C101 19.2386 98.7614 17 96 17V19C97.6569 19 99 20.3431 99 22H101ZM96 17L69 17V19L96 19V17ZM101.055 49.0288C101.033 49.0276 101.016 49.0187 101.006 49.0081C101.001 49.0033 101 49.0001 101 48.9999C101 48.9998 101 49.0001 101 49.0006C101 49.0012 101 49.0012 101 49H99C99 50.1183 99.8992 50.9685 100.945 51.0258L101.055 49.0288ZM101 87C101 86.9988 101 86.9988 101 86.9994C101 86.9999 101 87.0002 101 87.0001C101 86.9999 101.001 86.9967 101.006 86.9919C101.016 86.9813 101.033 86.9724 101.055 86.9712L100.945 84.9742C99.8992 85.0315 99 85.8817 99 87H101ZM31 119C32.1183 119 32.9685 118.101 33.0258 117.055L31.0288 116.945C31.0276 116.967 31.0187 116.984 31.0081 116.994C31.0033 116.999 31.0001 117 30.9999 117C30.9998 117 31.0001 117 31.0007 117C31.0012 117 31.0012 117 31 117V119ZM-0.999998 49C-0.999998 50.1183 -0.100787 50.9685 0.945284 51.0258L1.05463 49.0288C1.03335 49.0276 1.0164 49.0187 1.006 49.0081C1.00127 49.0033 0.999848 49.0001 0.999768 48.9999C0.99974 48.9998 0.99987 49.0001 0.999978 49.0006C1.0001 49.0012 1 49.0012 1 49H-0.999998ZM0.945286 84.9742C-0.100784 85.0315 -0.999998 85.8817 -0.999998 87H1C1 86.9988 1.0001 86.9988 0.999978 86.9994C0.99987 86.9999 0.99974 87.0002 0.999768 87.0001C0.999848 86.9999 1.00127 86.9967 1.006 86.9919C1.0164 86.9813 1.03335 86.9724 1.05463 86.9712L0.945286 84.9742ZM31.0288 16.9454C31.0276 16.9667 31.0187 16.9836 31.0081 16.994C31.0033 16.9987 31.0001 17.0002 30.9999 17.0002C30.9998 17.0003 31.0001 17.0001 31.0007 17C31.0012 16.9999 31.0012 17 31 17V19C32.1183 19 32.9685 18.1008 33.0258 17.0547L31.0288 16.9454ZM66.9742 117.055C67.0315 118.101 67.8817 119 69 119V117C68.9988 117 68.9988 117 68.9994 117C68.9999 117 69.0002 117 69.0001 117C68.9999 117 68.9967 116.999 68.9919 116.994C68.9813 116.984 68.9724 116.967 68.9712 116.945L66.9742 117.055ZM66.9742 17.0547C67.0315 18.1008 67.8817 19 69 19V17C68.9988 17 68.9988 16.9999 68.9994 17C68.9999 17.0001 69.0002 17.0003 69.0001 17.0002C68.9999 17.0002 68.9967 16.9987 68.9919 16.994C68.9813 16.9836 68.9724 16.9667 68.9712 16.9454L66.9742 17.0547Z" fill="#374151" mask="url(#path-1-inside-1_576_10474)"/>
<path d="M38.1057 90.144C37.4124 90.144 36.8044 89.9787 36.2817 89.648C35.7697 89.3173 35.3697 88.8533 35.0817 88.256C34.8044 87.648 34.6657 86.9333 34.6657 86.112C34.6657 85.28 34.8044 84.5653 35.0817 83.968C35.3697 83.36 35.7697 82.896 36.2817 82.576C36.8044 82.2453 37.4124 82.08 38.1057 82.08C38.8097 82.08 39.4124 82.256 39.9137 82.608C40.415 82.96 40.751 83.4347 40.9217 84.032H40.7457V79.264C40.7457 79.0507 40.799 78.8907 40.9057 78.784C41.023 78.6667 41.1884 78.608 41.4017 78.608C41.6044 78.608 41.759 78.6667 41.8657 78.784C41.983 78.8907 42.0417 79.0507 42.0417 79.264V89.44C42.0417 89.6533 41.9884 89.8187 41.8817 89.936C41.775 90.0533 41.615 90.112 41.4017 90.112C41.199 90.112 41.039 90.0533 40.9217 89.936C40.815 89.8187 40.7617 89.6533 40.7617 89.44V87.92L40.9377 88.144C40.767 88.752 40.4257 89.2373 39.9137 89.6C39.4124 89.9627 38.8097 90.144 38.1057 90.144ZM38.3777 89.104C38.8577 89.104 39.279 88.9867 39.6417 88.752C40.0044 88.5173 40.2817 88.176 40.4737 87.728C40.6764 87.28 40.7777 86.7413 40.7777 86.112C40.7777 85.1413 40.559 84.4 40.1217 83.888C39.695 83.376 39.1137 83.12 38.3777 83.12C37.887 83.12 37.4604 83.2373 37.0977 83.472C36.7457 83.696 36.4684 84.032 36.2657 84.48C36.0737 84.9173 35.9777 85.4613 35.9777 86.112C35.9777 87.072 36.1964 87.8133 36.6337 88.336C37.071 88.848 37.6524 89.104 38.3777 89.104ZM47.9778 90.144C47.1565 90.144 46.4471 89.984 45.8498 89.664C45.2631 89.3333 44.8045 88.8693 44.4738 88.272C44.1538 87.6747 43.9938 86.96 43.9938 86.128C43.9938 85.3173 44.1538 84.6133 44.4738 84.016C44.7938 83.408 45.2311 82.9333 45.7858 82.592C46.3511 82.2507 47.0018 82.08 47.7378 82.08C48.2605 82.08 48.7298 82.1707 49.1458 82.352C49.5618 82.5227 49.9138 82.7733 50.2018 83.104C50.5005 83.4347 50.7245 83.8347 50.8738 84.304C51.0338 84.7733 51.1138 85.3013 51.1138 85.888C51.1138 86.0587 51.0658 86.1867 50.9698 86.272C50.8738 86.3467 50.7351 86.384 50.5538 86.384H44.9858V85.536H50.2498L49.9938 85.744C49.9938 85.168 49.9085 84.6827 49.7378 84.288C49.5671 83.8827 49.3165 83.5733 48.9858 83.36C48.6658 83.1467 48.2605 83.04 47.7698 83.04C47.2258 83.04 46.7618 83.168 46.3778 83.424C46.0045 83.6693 45.7218 84.016 45.5298 84.464C45.3378 84.9013 45.2418 85.4133 45.2418 86V86.096C45.2418 87.0773 45.4765 87.824 45.9458 88.336C46.4258 88.848 47.1031 89.104 47.9778 89.104C48.3405 89.104 48.6978 89.056 49.0498 88.96C49.4125 88.864 49.7645 88.704 50.1058 88.48C50.2551 88.384 50.3885 88.3413 50.5058 88.352C50.6338 88.352 50.7351 88.3893 50.8098 88.464C50.8845 88.528 50.9325 88.6133 50.9538 88.72C50.9858 88.816 50.9751 88.9227 50.9218 89.04C50.8791 89.1573 50.7885 89.2587 50.6498 89.344C50.2978 89.6 49.8818 89.7973 49.4018 89.936C48.9218 90.0747 48.4471 90.144 47.9778 90.144ZM54.0454 90.112C53.8428 90.112 53.6828 90.0533 53.5654 89.936C53.4588 89.8187 53.4054 89.6533 53.4054 89.44V83.232H52.3814C52.2108 83.232 52.0721 83.1893 51.9654 83.104C51.8694 83.008 51.8214 82.88 51.8214 82.72C51.8214 82.56 51.8694 82.4373 51.9654 82.352C52.0721 82.2667 52.2108 82.224 52.3814 82.224H53.7574L53.4054 82.56V81.952C53.4054 80.9387 53.6508 80.1653 54.1414 79.632C54.6428 79.0987 55.3734 78.7893 56.3334 78.704L56.7974 78.656C56.9468 78.6453 57.0641 78.672 57.1494 78.736C57.2454 78.8 57.3041 78.88 57.3254 78.976C57.3574 79.072 57.3628 79.1733 57.3414 79.28C57.3201 79.376 57.2721 79.4613 57.1974 79.536C57.1228 79.6107 57.0321 79.6533 56.9254 79.664L56.5574 79.696C55.9068 79.7493 55.4321 79.9467 55.1334 80.288C54.8454 80.6293 54.7014 81.1307 54.7014 81.792V82.464L54.5094 82.224H56.4294C56.6108 82.224 56.7494 82.2667 56.8454 82.352C56.9414 82.4373 56.9894 82.56 56.9894 82.72C56.9894 82.88 56.9414 83.008 56.8454 83.104C56.7494 83.1893 56.6108 83.232 56.4294 83.232H54.7014V89.44C54.7014 89.888 54.4828 90.112 54.0454 90.112ZM61.0696 90.144C60.4402 90.144 59.9176 90.032 59.5016 89.808C59.0962 89.5733 58.7869 89.2267 58.5736 88.768C58.3709 88.3093 58.2696 87.7387 58.2696 87.056V82.768C58.2696 82.544 58.3229 82.3787 58.4296 82.272C58.5469 82.1653 58.7069 82.112 58.9096 82.112C59.1229 82.112 59.2829 82.1653 59.3896 82.272C59.5069 82.3787 59.5656 82.544 59.5656 82.768V87.04C59.5656 87.7227 59.7042 88.2347 59.9816 88.576C60.2696 88.9067 60.7176 89.072 61.3256 89.072C61.9869 89.072 62.5256 88.848 62.9416 88.4C63.3576 87.952 63.5656 87.3653 63.5656 86.64V82.768C63.5656 82.544 63.6189 82.3787 63.7256 82.272C63.8429 82.1653 64.0082 82.112 64.2216 82.112C64.4242 82.112 64.5789 82.1653 64.6856 82.272C64.8029 82.3787 64.8616 82.544 64.8616 82.768V89.44C64.8616 89.888 64.6536 90.112 64.2376 90.112C64.0349 90.112 63.8749 90.0533 63.7576 89.936C63.6509 89.8187 63.5976 89.6533 63.5976 89.44V87.984L63.8056 88.208C63.5922 88.8373 63.2402 89.3173 62.7496 89.648C62.2696 89.9787 61.7096 90.144 61.0696 90.144Z" fill="#F9FAFB"/>
<path d="M39.2069 69.3181C39.5066 69.55 40.3706 68.0559 43.6256 67.8569C47.1103 67.6425 50.9669 70.4141 56.2497 70.4141C60.9331 70.4141 63.3591 68.1216 63.1928 67.7562C63.0812 67.5134 61.2328 67.0672 59.1066 65.9625C56.5494 64.6347 53.8566 63.3047 51.7981 60.3144C50.4791 58.4003 49.5384 56.1953 50.8356 54.4672C52.1306 52.7391 55.4206 53.5375 55.4206 53.5375L50.9362 48.6878L42.3984 51.0153L38.0781 61.8456L38.5441 67.3603L39.2069 69.3181Z" fill="url(#paint0_radial_576_10474)"/>
<path d="M48.9631 51.899C48.9631 51.899 50.0066 52.2315 51.4044 52.96C53.7297 54.174 55.1384 56.0837 56.5756 56.2018C58.0675 56.3222 58.8309 55.4625 58.505 53.6687C58.2009 51.9953 55.7313 50.0309 55.7313 50.0309C55.7313 50.0309 57.9866 50.4553 57.9866 49.1625C57.9866 47.8347 56.7703 47.1959 54.8563 46.5375C53.5809 46.1 50.1509 45.1287 45.5528 46.87C43.5753 47.6181 41.1603 49.0006 39.3272 51.6497C36.9297 55.1147 36.4441 59.6209 36.8991 63.0422C37.4503 67.1743 39.1697 69.305 39.2113 69.3225C39.2528 69.34 39.4781 64.464 41.4009 62.3487C43.0394 60.5462 44.715 61.2856 46.7056 61.1872C49.0528 61.0712 50.1006 58.6475 48.3091 56.799C46.7713 55.2109 44.2228 55.3531 44.2228 55.3531C44.2228 55.3531 45.0672 55.0162 46.6706 54.8718C48.5125 54.7034 48.8756 53.6337 49.0069 53.2334C49.2978 52.3497 48.9631 51.899 48.9631 51.899Z" fill="#1B6DA4"/>
<path d="M44.3453 51.9406C44.2228 51.2188 46.3491 50.5669 48.5759 50.9169C52.0409 51.4616 54.7841 54.6225 55.9478 55.0841C57.6628 55.7666 58.2666 54.3644 57.4069 52.8463C56.5209 51.2778 54.1759 49.9434 54.2634 49.425C54.4209 48.5041 56.8228 49.9063 56.9694 48.8825C57.0678 48.2044 55.2741 47.2288 53.57 46.7934C52.1984 46.4434 49.3175 46.0125 45.3362 47.7472C40.1606 50.0069 37.9228 54.5022 37.5531 59.2119C37.2031 63.6788 38.9094 67.0081 38.9094 67.0081C38.9094 67.0081 39.0253 63.6744 40.6966 61.8391C41.9172 60.5003 43.4834 59.9972 45.1831 60.3209C48.0181 60.8634 49.2541 58.8138 47.8912 57.3328C46.9987 56.3638 45.8547 56.0619 44.6712 56.0225C42.6259 55.9569 41.5256 56.6416 41.4666 56.4097C41.3791 56.0575 42.4881 55.2416 43.8947 54.6553C45.7453 53.8853 47.9787 54.4125 48.3287 52.8638C48.4994 52.1091 48.0728 51.6956 46.8522 51.6059C45.31 51.4944 44.3541 51.9931 44.3453 51.9406Z" fill="white"/>
<defs>
<radialGradient id="paint0_radial_576_10474" cx="0" cy="0" r="1" gradientUnits="userSpaceOnUse" gradientTransform="translate(49.0924 43.6926) scale(24.8734)">
<stop offset="0.423" stop-color="#45D6F0"/>
<stop offset="0.518" stop-color="#41CDE9"/>
<stop offset="0.674" stop-color="#37B4D7"/>
<stop offset="0.87" stop-color="#278BBA"/>
<stop offset="1" stop-color="#1B6DA4"/>
</radialGradient>
</defs>
</svg>
