<svg width="100" height="136" viewBox="0 0 100 136" fill="none" xmlns="http://www.w3.org/2000/svg">
<mask id="path-1-inside-1_576_10473" fill="white">
<path fill-rule="evenodd" clip-rule="evenodd" d="M69 18C68.4477 18 68.0029 17.5515 67.9727 17C67.4538 7.52403 59.6056 0 50 0C40.3944 0 32.5462 7.52403 32.0273 17C31.9971 17.5515 31.5523 18 31 18L4 18C1.79086 18 0 19.7909 0 22L0 49C0 49.5523 0.448497 49.9971 0.999955 50.0273C10.476 50.5462 18 58.3944 18 68C18 77.6056 10.476 85.4538 0.999957 85.9727C0.448498 86.0029 0 86.4477 0 87L0 114C0 116.209 1.79086 118 4 118L31 118C31.5523 118 31.9971 118.448 32.0273 119C32.5462 128.476 40.3944 136 50 136C59.6056 136 67.4538 128.476 67.9727 119C68.0029 118.449 68.4477 118 69 118L96 118C98.2091 118 100 116.209 100 114V87C100 86.4477 99.5515 86.0029 99 85.9727C89.524 85.4538 82 77.6056 82 68C82 58.3944 89.524 50.5462 99 50.0273C99.5515 49.9971 100 49.5523 100 49V22C100 19.7909 98.2091 18 96 18L69 18Z"/>
</mask>
<path fill-rule="evenodd" clip-rule="evenodd" d="M69 18C68.4477 18 68.0029 17.5515 67.9727 17C67.4538 7.52403 59.6056 0 50 0C40.3944 0 32.5462 7.52403 32.0273 17C31.9971 17.5515 31.5523 18 31 18L4 18C1.79086 18 0 19.7909 0 22L0 49C0 49.5523 0.448497 49.9971 0.999955 50.0273C10.476 50.5462 18 58.3944 18 68C18 77.6056 10.476 85.4538 0.999957 85.9727C0.448498 86.0029 0 86.4477 0 87L0 114C0 116.209 1.79086 118 4 118L31 118C31.5523 118 31.9971 118.448 32.0273 119C32.5462 128.476 40.3944 136 50 136C59.6056 136 67.4538 128.476 67.9727 119C68.0029 118.449 68.4477 118 69 118L96 118C98.2091 118 100 116.209 100 114V87C100 86.4477 99.5515 86.0029 99 85.9727C89.524 85.4538 82 77.6056 82 68C82 58.3944 89.524 50.5462 99 50.0273C99.5515 49.9971 100 49.5523 100 49V22C100 19.7909 98.2091 18 96 18L69 18Z" fill="#374151" fill-opacity="0.4"/>
<path d="M4 18V17V18ZM4 118V117V118ZM99 50.0273L98.9454 49.0288L99 50.0273ZM99 85.9727L99.0547 84.9742L99 85.9727ZM31 118V119V118ZM32.0273 119L31.0288 119.055L32.0273 119ZM0.999957 85.9727L0.945284 84.9742L0.999957 85.9727ZM32.0273 17L31.0288 16.9454L32.0273 17ZM31 18V19V18ZM67.9727 119L68.9712 119.055L67.9727 119ZM67.9727 17L66.9742 17.0547L67.9727 17ZM50 1C59.0716 1 66.4842 8.10602 66.9742 17.0547L68.9712 16.9454C68.4235 6.94204 60.1396 -1 50 -1V1ZM33.0258 17.0547C33.5158 8.10603 40.9284 1 50 1V-1C39.8604 -1 31.5765 6.94204 31.0288 16.9454L33.0258 17.0547ZM31 17L4 17V19L31 19V17ZM4 17C1.23858 17 -1 19.2386 -1 22H1C1 20.3431 2.34315 19 4 19V17ZM-1 22L-1 49H1L1 22H-1ZM0.945282 51.0258C9.89397 51.5158 17 58.9284 17 68H19C19 57.8604 11.058 49.5765 1.05463 49.0288L0.945282 51.0258ZM17 68C17 77.0716 9.89398 84.4842 0.945284 84.9742L1.05463 86.9712C11.058 86.4235 19 78.1395 19 68H17ZM-1 87L-1 114H1L1 87H-1ZM-1 114C-1 116.761 1.23858 119 4 119V117C2.34315 117 1 115.657 1 114H-1ZM4 119L31 119V117L4 117V119ZM31.0288 119.055C31.5765 129.058 39.8604 137 50 137V135C40.9284 135 33.5158 127.894 33.0258 118.945L31.0288 119.055ZM50 137C60.1396 137 68.4235 129.058 68.9712 119.055L66.9742 118.945C66.4842 127.894 59.0716 135 50 135V137ZM69 119L96 119V117L69 117V119ZM96 119C98.7614 119 101 116.761 101 114H99C99 115.657 97.6569 117 96 117V119ZM101 114V87H99V114H101ZM99.0547 84.9742C90.106 84.4842 83 77.0716 83 68H81C81 78.1395 88.942 86.4235 98.9454 86.9712L99.0547 84.9742ZM83 68C83 58.9284 90.106 51.5158 99.0547 51.0258L98.9454 49.0288C88.942 49.5765 81 57.8604 81 68H83ZM101 49V22H99V49H101ZM101 22C101 19.2386 98.7614 17 96 17V19C97.6569 19 99 20.3431 99 22H101ZM96 17L69 17V19L96 19V17ZM99.0547 51.0258C100.101 50.9685 101 50.1183 101 49H99C99 49.0012 98.9999 49.0012 99 49.0006C99.0001 49.0001 99.0003 48.9998 99.0002 48.9999C99.0002 49.0001 98.9987 49.0033 98.994 49.0081C98.9836 49.0187 98.9667 49.0276 98.9454 49.0288L99.0547 51.0258ZM101 87C101 85.8817 100.101 85.0315 99.0547 84.9742L98.9454 86.9712C98.9667 86.9724 98.9836 86.9813 98.994 86.9919C98.9987 86.9967 99.0002 86.9999 99.0002 87.0001C99.0003 87.0002 99.0001 86.9999 99 86.9994C98.9999 86.9988 99 86.9988 99 87H101ZM31 119C31.0012 119 31.0012 119 31.0007 119C31.0001 119 30.9998 119 30.9999 119C31.0001 119 31.0033 119.001 31.0081 119.006C31.0187 119.016 31.0276 119.033 31.0288 119.055L33.0258 118.945C32.9685 117.899 32.1183 117 31 117V119ZM-1 49C-1 50.1183 -0.100789 50.9685 0.945282 51.0258L1.05463 49.0288C1.03335 49.0276 1.0164 49.0187 1.006 49.0081C1.00127 49.0033 0.999846 49.0001 0.999766 48.9999C0.999738 48.9998 0.999868 49.0001 0.999977 49.0006C1.0001 49.0012 1 49.0012 1 49H-1ZM0.945284 84.9742C-0.100786 85.0315 -1 85.8817 -1 87H1C1 86.9988 1.0001 86.9988 0.999977 86.9994C0.999868 86.9999 0.999738 87.0002 0.999766 87.0001C0.999846 86.9999 1.00127 86.9967 1.006 86.9919C1.0164 86.9813 1.03335 86.9724 1.05463 86.9712L0.945284 84.9742ZM31.0288 16.9454C31.0276 16.9667 31.0187 16.9836 31.0081 16.994C31.0033 16.9987 31.0001 17.0002 30.9999 17.0002C30.9998 17.0003 31.0001 17.0001 31.0007 17C31.0012 16.9999 31.0012 17 31 17V19C32.1183 19 32.9685 18.1008 33.0258 17.0547L31.0288 16.9454ZM68.9712 119.055C68.9724 119.033 68.9813 119.016 68.9919 119.006C68.9967 119.001 68.9999 119 69.0001 119C69.0002 119 68.9999 119 68.9994 119C68.9988 119 68.9988 119 69 119V117C67.8817 117 67.0315 117.899 66.9742 118.945L68.9712 119.055ZM66.9742 17.0547C67.0315 18.1008 67.8817 19 69 19V17C68.9988 17 68.9988 16.9999 68.9994 17C68.9999 17.0001 69.0002 17.0003 69.0001 17.0002C68.9999 17.0002 68.9967 16.9987 68.9919 16.994C68.9813 16.9836 68.9724 16.9667 68.9712 16.9454L66.9742 17.0547Z" fill="#374151" mask="url(#path-1-inside-1_576_10473)"/>
<path d="M35.7776 90.144C35.0842 90.144 34.4762 89.9787 33.9536 89.648C33.4416 89.3173 33.0416 88.8533 32.7536 88.256C32.4762 87.648 32.3376 86.9333 32.3376 86.112C32.3376 85.28 32.4762 84.5653 32.7536 83.968C33.0416 83.36 33.4416 82.896 33.9536 82.576C34.4762 82.2453 35.0842 82.08 35.7776 82.08C36.4816 82.08 37.0842 82.256 37.5856 82.608C38.0869 82.96 38.4229 83.4347 38.5936 84.032H38.4176V79.264C38.4176 79.0507 38.4709 78.8907 38.5776 78.784C38.6949 78.6667 38.8602 78.608 39.0736 78.608C39.2762 78.608 39.4309 78.6667 39.5376 78.784C39.6549 78.8907 39.7136 79.0507 39.7136 79.264V89.44C39.7136 89.6533 39.6602 89.8187 39.5536 89.936C39.4469 90.0533 39.2869 90.112 39.0736 90.112C38.8709 90.112 38.7109 90.0533 38.5936 89.936C38.4869 89.8187 38.4336 89.6533 38.4336 89.44V87.92L38.6096 88.144C38.4389 88.752 38.0976 89.2373 37.5856 89.6C37.0842 89.9627 36.4816 90.144 35.7776 90.144ZM36.0496 89.104C36.5296 89.104 36.9509 88.9867 37.3136 88.752C37.6762 88.5173 37.9536 88.176 38.1456 87.728C38.3482 87.28 38.4496 86.7413 38.4496 86.112C38.4496 85.1413 38.2309 84.4 37.7936 83.888C37.3669 83.376 36.7856 83.12 36.0496 83.12C35.5589 83.12 35.1322 83.2373 34.7696 83.472C34.4176 83.696 34.1402 84.032 33.9376 84.48C33.7456 84.9173 33.6496 85.4613 33.6496 86.112C33.6496 87.072 33.8682 87.8133 34.3056 88.336C34.7429 88.848 35.3242 89.104 36.0496 89.104ZM45.6497 90.144C44.8284 90.144 44.119 89.984 43.5217 89.664C42.935 89.3333 42.4764 88.8693 42.1457 88.272C41.8257 87.6747 41.6657 86.96 41.6657 86.128C41.6657 85.3173 41.8257 84.6133 42.1457 84.016C42.4657 83.408 42.903 82.9333 43.4577 82.592C44.023 82.2507 44.6737 82.08 45.4097 82.08C45.9324 82.08 46.4017 82.1707 46.8177 82.352C47.2337 82.5227 47.5857 82.7733 47.8737 83.104C48.1724 83.4347 48.3964 83.8347 48.5457 84.304C48.7057 84.7733 48.7857 85.3013 48.7857 85.888C48.7857 86.0587 48.7377 86.1867 48.6417 86.272C48.5457 86.3467 48.407 86.384 48.2257 86.384H42.6577V85.536H47.9217L47.6657 85.744C47.6657 85.168 47.5804 84.6827 47.4097 84.288C47.239 83.8827 46.9884 83.5733 46.6577 83.36C46.3377 83.1467 45.9324 83.04 45.4417 83.04C44.8977 83.04 44.4337 83.168 44.0497 83.424C43.6764 83.6693 43.3937 84.016 43.2017 84.464C43.0097 84.9013 42.9137 85.4133 42.9137 86V86.096C42.9137 87.0773 43.1484 87.824 43.6177 88.336C44.0977 88.848 44.775 89.104 45.6497 89.104C46.0124 89.104 46.3697 89.056 46.7217 88.96C47.0844 88.864 47.4364 88.704 47.7777 88.48C47.927 88.384 48.0604 88.3413 48.1777 88.352C48.3057 88.352 48.407 88.3893 48.4817 88.464C48.5564 88.528 48.6044 88.6133 48.6257 88.72C48.6577 88.816 48.647 88.9227 48.5937 89.04C48.551 89.1573 48.4604 89.2587 48.3217 89.344C47.9697 89.6 47.5537 89.7973 47.0737 89.936C46.5937 90.0747 46.119 90.144 45.6497 90.144ZM53.2853 90.144C52.8053 90.144 52.32 90.0853 51.8293 89.968C51.3493 89.8507 50.9013 89.648 50.4853 89.36C50.3786 89.2853 50.304 89.2 50.2613 89.104C50.2186 88.9973 50.2026 88.896 50.2133 88.8C50.2346 88.6933 50.2773 88.6027 50.3413 88.528C50.416 88.4533 50.5013 88.4107 50.5973 88.4C50.704 88.3787 50.8213 88.4 50.9493 88.464C51.3653 88.72 51.7653 88.9013 52.1493 89.008C52.544 89.104 52.9333 89.152 53.3173 89.152C53.9253 89.152 54.384 89.04 54.6933 88.816C55.0026 88.592 55.1573 88.288 55.1573 87.904C55.1573 87.6053 55.056 87.3707 54.8533 87.2C54.6506 87.0187 54.3306 86.88 53.8933 86.784L52.4373 86.464C51.7653 86.3253 51.264 86.0853 50.9333 85.744C50.6133 85.4027 50.4533 84.96 50.4533 84.416C50.4533 83.936 50.576 83.5253 50.8213 83.184C51.0773 82.832 51.4346 82.56 51.8933 82.368C52.352 82.176 52.8853 82.08 53.4933 82.08C53.9626 82.08 54.4053 82.144 54.8213 82.272C55.248 82.3893 55.632 82.5813 55.9733 82.848C56.08 82.9227 56.1493 83.0133 56.1813 83.12C56.224 83.216 56.2293 83.3173 56.1973 83.424C56.176 83.52 56.128 83.6053 56.0533 83.68C55.9786 83.744 55.888 83.7813 55.7813 83.792C55.6746 83.8027 55.5626 83.7707 55.4453 83.696C55.1253 83.4827 54.8 83.328 54.4693 83.232C54.1386 83.1253 53.8133 83.072 53.4933 83.072C52.896 83.072 52.4426 83.1893 52.1333 83.424C51.824 83.6587 51.6693 83.968 51.6693 84.352C51.6693 84.6507 51.7653 84.896 51.9573 85.088C52.1493 85.28 52.448 85.4187 52.8533 85.504L54.3093 85.808C55.0026 85.9573 55.52 86.1973 55.8613 86.528C56.2133 86.848 56.3893 87.2853 56.3893 87.84C56.3893 88.544 56.1066 89.104 55.5413 89.52C54.976 89.936 54.224 90.144 53.2853 90.144ZM61.4063 90.144C60.7983 90.144 60.2863 90.0373 59.8703 89.824C59.465 89.6 59.161 89.28 58.9583 88.864C58.7556 88.4373 58.6543 87.92 58.6543 87.312V83.232H57.5823C57.401 83.232 57.2623 83.1893 57.1663 83.104C57.0703 83.008 57.0223 82.88 57.0223 82.72C57.0223 82.56 57.0703 82.4373 57.1663 82.352C57.2623 82.2667 57.401 82.224 57.5823 82.224H58.6543V80.384C58.6543 80.1707 58.713 80.0107 58.8303 79.904C58.9476 79.7867 59.1076 79.728 59.3103 79.728C59.513 79.728 59.6676 79.7867 59.7743 79.904C59.8916 80.0107 59.9503 80.1707 59.9503 80.384V82.224H61.9663C62.1476 82.224 62.2863 82.2667 62.3823 82.352C62.4783 82.4373 62.5263 82.56 62.5263 82.72C62.5263 82.88 62.4783 83.008 62.3823 83.104C62.2863 83.1893 62.1476 83.232 61.9663 83.232H59.9503V87.184C59.9503 87.792 60.0783 88.256 60.3343 88.576C60.5903 88.8853 61.0063 89.04 61.5823 89.04C61.785 89.04 61.9556 89.0187 62.0943 88.976C62.2436 88.9333 62.3663 88.912 62.4623 88.912C62.5583 88.9013 62.6383 88.9333 62.7023 89.008C62.7663 89.0827 62.7983 89.2107 62.7983 89.392C62.7983 89.52 62.7716 89.6373 62.7183 89.744C62.6756 89.8507 62.5956 89.9253 62.4783 89.968C62.3503 90.0107 62.1796 90.048 61.9663 90.08C61.7636 90.1227 61.577 90.144 61.4063 90.144ZM64.5361 90.112C64.3227 90.112 64.1574 90.0533 64.0401 89.936C63.9334 89.8187 63.8801 89.6533 63.8801 89.44V82.768C63.8801 82.5547 63.9334 82.3947 64.0401 82.288C64.1467 82.1707 64.3014 82.112 64.5041 82.112C64.7067 82.112 64.8614 82.1707 64.9681 82.288C65.0854 82.3947 65.1441 82.5547 65.1441 82.768V84.064H64.9841C65.1547 83.4347 65.4801 82.9493 65.9601 82.608C66.4401 82.2667 67.0321 82.0853 67.7361 82.064C67.8961 82.0533 68.0241 82.0907 68.1201 82.176C68.2161 82.2507 68.2694 82.384 68.2801 82.576C68.2907 82.7573 68.2481 82.9013 68.1521 83.008C68.0561 83.1147 67.9067 83.1787 67.7041 83.2L67.4481 83.232C66.7227 83.296 66.1627 83.5307 65.7681 83.936C65.3841 84.3307 65.1921 84.8747 65.1921 85.568V89.44C65.1921 89.6533 65.1334 89.8187 65.0161 89.936C64.9094 90.0533 64.7494 90.112 64.5361 90.112Z" fill="#F9FAFB"/>
<g clip-path="url(#clip0_576_10473)">
<path d="M36.8247 59.691L40.3991 56.1691L46.4847 55.0906L45.8831 58.2756L37.6559 60.8044L37.1244 60.5747L36.8247 59.691Z" fill="#CA2C31"/>
<path d="M41.0181 57.0725L37.1375 60.5988L39.9922 61.99L44.3256 59.7784V58.735L45.2116 56.3463L41.0181 57.0725ZM50.2013 63.2828L48.3266 64.0966L46.5569 67.8481C46.5569 67.8481 48.1144 71.2978 48.1844 71.2978C48.2544 71.2978 49.1403 71.3678 49.1403 71.3678L52.2903 67.8459L53.0866 61.8303L50.2013 63.2828Z" fill="#A02422"/>
<path d="M48.3594 66.0587C48.3594 66.0587 49.4028 65.8466 50.1466 65.4922C50.8903 65.1378 51.8091 64.6084 51.8091 64.6084L51.4722 67.5462L48.18 71.2934C48.18 71.2934 48.0509 71.1337 47.5041 69.9437C47.0688 68.9944 46.9178 68.6553 46.9178 68.6553L48.3594 66.0587Z" fill="#CA2C31"/>
<path d="M42.9081 61.6444C42.9081 61.6444 41.6525 61.5394 40.2765 63.2784C39.0209 64.8666 38.4325 67.4522 38.205 68.1172C37.9775 68.7822 37.4328 68.9178 37.6144 69.2219C37.7959 69.5259 38.5812 69.5084 39.5503 69.3881C40.5194 69.2678 41.3506 68.9638 41.3506 68.9638C41.3506 68.9638 41.309 69.0688 41.169 69.2963C41.1187 69.3772 40.9437 69.4931 40.9569 69.6134C40.9875 69.9 43.4419 69.9066 45.4019 67.8897C47.5194 65.7131 46.4912 63.9281 46.4912 63.9281L42.9081 61.6444Z" fill="#F7D74D"/>
<path d="M43.2866 62.6572C43.2866 62.6572 41.9325 62.7294 40.8125 64.4684C39.6925 66.2075 39.1719 68.2222 39.2791 68.3578C39.3841 68.4934 41.4709 67.7388 41.9719 67.8897C42.3153 67.9947 42.1381 68.3425 42.23 68.4344C42.3066 68.5109 43.2122 68.64 44.6778 67.0519C46.1456 65.4638 45.7978 63.2325 45.7978 63.2325L43.2866 62.6572Z" fill="#FBF0B4"/>
<path d="M43.9516 60.2838C43.9516 60.2838 43.2713 60.8897 43.0284 61.2375C42.7856 61.5853 42.7856 61.6159 42.8009 61.7209C42.8163 61.8259 43.0678 62.9788 44.1156 63.9894C45.4019 65.2297 46.5503 65.3959 46.7166 65.3959C46.8828 65.3959 47.9875 64.1556 47.9875 64.1556L43.9516 60.2838Z" fill="#858585"/>
<path d="M46.9594 63.9587C46.9594 63.9587 48.0619 64.6828 49.9103 64.0616C52.4369 63.2128 54.2897 61.3141 56.5844 58.9166C58.7981 56.6022 60.6553 53.73 60.6553 53.73L59.3538 49.3703L46.9594 63.9587Z" fill="#437687"/>
<path d="M50.8728 61.5722L51.1769 60.6272L51.9381 60.7344C51.9381 60.7344 52.5178 61.0078 52.9444 61.2069C53.3709 61.4059 53.92 61.5569 53.92 61.5569L52.8372 62.4713C52.8372 62.4713 52.2466 62.2481 51.8156 62.06C51.33 61.8478 50.8728 61.5722 50.8728 61.5722Z" fill="#3F545F"/>
<path d="M54.445 47.5306C54.445 47.5306 52.3406 48.7513 49.3241 51.606C46.605 54.1785 44.5903 56.506 44.1025 58.4856C43.6956 60.1438 43.9122 61.15 44.8375 62.2372C45.8153 63.3878 46.9616 63.9588 46.9616 63.9588C46.9616 63.9588 47.8234 63.9719 51.4197 61.2047C55.9063 57.7506 59.5003 51.9669 59.5003 51.9669L54.445 47.5306Z" fill="#8DAFBF"/>
<path d="M58.7894 53.1525C58.7894 53.1525 56.9584 52.3716 55.6525 50.5494C54.3553 48.7403 54.4581 47.5175 54.4581 47.5175C54.4581 47.5175 55.5431 46.6666 57.9822 45.6931C59.6228 45.0391 61.8563 44.7044 62.5913 45.2491C63.3263 45.7938 62.0881 48.526 62.0881 48.526L59.8328 52.8922L58.7894 53.1525Z" fill="#D83F22"/>
<path d="M50.9122 61.5875C50.9122 61.5875 49.3306 60.7803 48.3244 59.6319C46.4212 57.464 46.0275 55.084 46.0275 55.084L46.9834 53.9619C46.9834 53.9619 47.2219 56.4906 49.2628 58.6759C50.5928 60.1 51.9819 60.7519 51.9819 60.7519C51.9819 60.7519 51.7041 60.9859 51.4066 61.2134C51.2162 61.36 50.9122 61.5875 50.9122 61.5875Z" fill="#6896A5"/>
<path d="M60.6553 53.73C60.6553 53.73 61.6047 52.5859 62.5037 50.0069C63.7594 46.4106 62.6656 45.3212 62.6656 45.3212C62.6656 45.3212 62.2959 47.0319 61.0119 49.4097C59.9816 51.315 58.7347 53.1284 58.7347 53.1284C58.7347 53.1284 59.4216 53.4369 59.7934 53.544C60.2616 53.6797 60.6553 53.73 60.6553 53.73Z" fill="#A02422"/>
<path d="M44.7084 59.2381C44.9928 59.5094 45.4237 59.225 45.7059 58.56C45.9903 57.895 45.9859 57.5231 45.7672 57.3656C45.4959 57.1688 45.0409 57.5997 44.8419 57.9825C44.6231 58.4069 44.4941 59.0325 44.7084 59.2381ZM54.5828 48.4034C54.5828 48.4034 52.9181 49.6 51.1419 51.2275C49.5122 52.7216 48.4316 53.8897 48.2828 54.1609C48.1253 54.4519 48.1231 54.8631 48.2456 55.0731C48.3681 55.2831 48.6394 55.3925 48.8866 55.2088C49.1337 55.0228 50.8947 53.0759 52.485 51.6847C53.9397 50.4116 55.0619 49.6044 55.0619 49.6044C55.0619 49.6044 55.5169 48.7994 55.4425 48.6156C55.3681 48.4297 54.5828 48.4034 54.5828 48.4034Z" fill="#B3E1EE"/>
<path d="M54.5828 48.4034C54.5828 48.4034 55.8122 47.4606 57.151 46.7978C58.3956 46.1809 59.6338 45.6669 59.8569 46.1131C60.0691 46.5375 58.6822 47.115 57.4616 47.8937C56.241 48.6725 55.0663 49.6022 55.0663 49.6022C55.0663 49.6022 54.8869 49.2741 54.7709 48.97C54.6974 48.7849 54.6346 48.5957 54.5828 48.4034Z" fill="#ED6A65"/>
<path d="M55.5978 52.5859C54.3794 51.4638 52.6841 51.7656 51.8484 52.7631C50.9909 53.7913 51.0544 55.3619 52.0672 56.3069C52.9881 57.1644 54.7009 57.3591 55.7334 56.1559C56.6522 55.0884 56.5953 53.5025 55.5978 52.5859Z" fill="#E1E1E1"/>
<path d="M52.4785 53.1591C51.7544 53.87 51.7938 55.2788 52.6556 55.9219C53.4081 56.4841 54.4756 56.4556 55.145 55.7709C55.8144 55.0863 55.8144 53.8416 55.1866 53.1984C54.4647 52.4613 53.3075 52.3453 52.4785 53.1591Z" fill="#3F545F"/>
<path d="M46.9375 60.8197C46.9375 60.8197 48.2915 59.4459 48.4403 59.5947C48.589 59.7434 48.5694 60.5769 47.9219 61.5044C47.2722 62.4319 45.8437 64.0834 44.7128 65.1969C43.5972 66.2928 42.0244 67.5463 41.8756 67.5244C41.7597 67.5069 41.2894 67.2728 41.1012 67.0453C40.9175 66.82 41.4665 65.7547 41.6875 65.4025C41.9106 65.0503 46.9375 60.8197 46.9375 60.8197Z" fill="#A02524"/>
<path d="M40.6441 66.2797C40.6266 66.5947 41.1078 67.0541 41.1078 67.0541L48.4403 59.5969C48.4403 59.5969 48.0969 59.2097 47.0862 59.8375C46.0669 60.4719 45.1744 61.2331 43.8575 62.5084C42.0222 64.2891 40.6616 65.9647 40.6441 66.2797Z" fill="#CA2C31"/>
<path d="M40.1694 52.0828C39.9266 52.3256 39.9156 52.715 40.1869 52.9381C40.4275 53.1372 40.8191 53.0081 40.9656 52.8287C41.1122 52.6494 41.0947 52.26 40.9 52.0675C40.7053 51.8728 40.3181 51.9362 40.1694 52.0828Z" fill="white"/>
<path opacity="0.5" d="M44.9731 51.7984C44.7894 52.0019 44.8485 52.3037 45.0191 52.4153C45.1897 52.5269 45.4456 52.5159 45.5703 52.3628C45.6819 52.225 45.695 51.9494 45.5244 51.7787C45.3756 51.6322 45.0913 51.6672 44.9731 51.7984Z" fill="white"/>
<path d="M48.1516 46.6009C48.1516 46.6009 48.4184 45.8397 48.5759 45.8309C48.7356 45.8222 48.9653 46.5922 48.9653 46.5922C48.9653 46.5922 49.755 46.6009 49.8075 46.7169C49.8753 46.8656 49.3022 47.3644 49.3022 47.3644C49.3022 47.3644 49.4881 48.1081 49.4006 48.1978C49.3022 48.2963 48.6219 47.9047 48.6219 47.9047C48.6219 47.9047 47.9219 48.3925 47.7709 48.2591C47.6397 48.1431 47.9131 47.3556 47.9131 47.3556C47.9131 47.3556 47.2569 46.8766 47.2919 46.7431C47.3422 46.555 48.1516 46.6009 48.1516 46.6009ZM57.2209 64.8534C57.4856 65 57.8181 64.9169 57.9406 64.6347C58.0522 64.3831 57.8466 64.0834 57.6606 64.0025C57.4747 63.9216 57.1488 64.0288 57.0306 64.2409C56.9147 64.4509 57.0613 64.7659 57.2209 64.8534ZM60.9791 58.4025C60.8281 58.1684 60.5022 58.0919 60.29 58.28C60.0844 58.4638 60.1347 58.7525 60.2506 58.8991C60.3666 59.0456 60.6772 59.1003 60.8653 58.98C61.0534 58.8597 61.0709 58.5425 60.9791 58.4025Z" fill="white"/>
</g>
<defs>
<clipPath id="clip0_576_10473">
<rect width="28" height="28" fill="white" transform="translate(36 44)"/>
</clipPath>
</defs>
</svg>
