<svg width="101" height="118" viewBox="0 0 101 118" fill="none" xmlns="http://www.w3.org/2000/svg">
<mask id="path-1-inside-1_686_11346" fill="white">
<path fill-rule="evenodd" clip-rule="evenodd" d="M50.5 0C60.1056 0 67.9538 7.52403 68.4727 17C68.5029 17.5515 68.9477 18 69.5 18L96.5 18C98.7091 18 100.5 19.7909 100.5 22L100.5 49C100.5 49.5523 100.051 49.9971 99.5 50.0273C90.024 50.5462 82.5 58.3944 82.5 68C82.5 77.6056 90.024 85.4538 99.5 85.9727C100.052 86.0029 100.5 86.4477 100.5 87V114C100.5 116.209 98.7091 118 96.5 118L69.5 118C68.9477 118 68.5029 117.551 68.4727 117C67.9538 107.524 60.1056 100 50.5 100C40.8944 100 33.0462 107.524 32.5273 117C32.4971 117.552 32.0523 118 31.5 118H4.5C2.29086 118 0.5 116.209 0.5 114L0.5 87C0.5 86.4477 0.948498 86.0029 1.49996 85.9727C10.976 85.4538 18.5 77.6056 18.5 68C18.5 58.3944 10.976 50.5462 1.49996 50.0273C0.948497 49.9971 0.5 49.5523 0.5 49L0.5 22C0.5 19.7909 2.29086 18 4.5 18L31.5 18C32.0523 18 32.4971 17.5515 32.5273 17C33.0462 7.52403 40.8944 0 50.5 0Z"/>
</mask>
<path fill-rule="evenodd" clip-rule="evenodd" d="M50.5 0C60.1056 0 67.9538 7.52403 68.4727 17C68.5029 17.5515 68.9477 18 69.5 18L96.5 18C98.7091 18 100.5 19.7909 100.5 22L100.5 49C100.5 49.5523 100.051 49.9971 99.5 50.0273C90.024 50.5462 82.5 58.3944 82.5 68C82.5 77.6056 90.024 85.4538 99.5 85.9727C100.052 86.0029 100.5 86.4477 100.5 87V114C100.5 116.209 98.7091 118 96.5 118L69.5 118C68.9477 118 68.5029 117.551 68.4727 117C67.9538 107.524 60.1056 100 50.5 100C40.8944 100 33.0462 107.524 32.5273 117C32.4971 117.552 32.0523 118 31.5 118H4.5C2.29086 118 0.5 116.209 0.5 114L0.5 87C0.5 86.4477 0.948498 86.0029 1.49996 85.9727C10.976 85.4538 18.5 77.6056 18.5 68C18.5 58.3944 10.976 50.5462 1.49996 50.0273C0.948497 49.9971 0.5 49.5523 0.5 49L0.5 22C0.5 19.7909 2.29086 18 4.5 18L31.5 18C32.0523 18 32.4971 17.5515 32.5273 17C33.0462 7.52403 40.8944 0 50.5 0Z" fill="#374151" fill-opacity="0.4"/>
<path d="M32.5273 17L33.5258 17.0547L32.5273 17ZM1.49996 85.9727L1.44528 84.9742L1.49996 85.9727ZM32.5273 117L31.5288 116.945L32.5273 117ZM99.5 85.9727L99.5547 84.9742L99.5 85.9727ZM68.4727 117L69.4712 116.945L68.4727 117ZM99.5 50.0273L99.4454 49.0288L99.5 50.0273ZM69.4712 16.9454C68.9235 6.94204 60.6396 -1 50.5 -1V1C59.5716 1 66.9842 8.10603 67.4742 17.0547L69.4712 16.9454ZM96.5 17L69.5 17V19L96.5 19V17ZM101.5 22C101.5 19.2386 99.2614 17 96.5 17V19C98.1569 19 99.5 20.3431 99.5 22L101.5 22ZM101.5 49L101.5 22L99.5 22L99.5 49H101.5ZM83.5 68C83.5 58.9284 90.606 51.5158 99.5547 51.0258L99.4454 49.0288C89.442 49.5765 81.5 57.8604 81.5 68H83.5ZM99.5547 84.9742C90.606 84.4842 83.5 77.0716 83.5 68H81.5C81.5 78.1395 89.442 86.4235 99.4454 86.9712L99.5547 84.9742ZM101.5 114V87H99.5V114H101.5ZM96.5 119C99.2614 119 101.5 116.761 101.5 114H99.5C99.5 115.657 98.1569 117 96.5 117V119ZM69.5 119L96.5 119V117L69.5 117V119ZM50.5 101C59.5716 101 66.9842 108.106 67.4742 117.055L69.4712 116.945C68.9235 106.942 60.6396 99 50.5 99V101ZM33.5258 117.055C34.0158 108.106 41.4284 101 50.5 101V99C40.3604 99 32.0765 106.942 31.5288 116.945L33.5258 117.055ZM4.5 119H31.5V117H4.5V119ZM-0.5 114C-0.5 116.761 1.73858 119 4.5 119V117C2.84315 117 1.5 115.657 1.5 114H-0.5ZM-0.5 87L-0.5 114H1.5L1.5 87H-0.5ZM17.5 68C17.5 77.0716 10.394 84.4842 1.44528 84.9742L1.55463 86.9712C11.558 86.4235 19.5 78.1395 19.5 68H17.5ZM1.44528 51.0258C10.394 51.5158 17.5 58.9284 17.5 68H19.5C19.5 57.8604 11.558 49.5765 1.55463 49.0288L1.44528 51.0258ZM-0.5 22L-0.5 49H1.5L1.5 22H-0.5ZM4.5 17C1.73858 17 -0.5 19.2386 -0.5 22H1.5C1.5 20.3431 2.84315 19 4.5 19L4.5 17ZM31.5 17L4.5 17L4.5 19L31.5 19V17ZM50.5 -1C40.3604 -1 32.0765 6.94204 31.5288 16.9454L33.5258 17.0547C34.0158 8.10602 41.4284 1 50.5 1V-1ZM31.5 19C32.6183 19 33.4685 18.1008 33.5258 17.0547L31.5288 16.9454C31.5276 16.9667 31.5187 16.9836 31.5081 16.994C31.5033 16.9987 31.5001 17.0002 31.4999 17.0002C31.4998 17.0003 31.5001 17.0001 31.5006 17C31.5012 16.9999 31.5012 17 31.5 17V19ZM1.55463 49.0288C1.53335 49.0276 1.5164 49.0187 1.506 49.0081C1.50127 49.0033 1.49985 49.0001 1.49977 48.9999C1.49974 48.9998 1.49987 49.0001 1.49998 49.0006C1.5001 49.0012 1.5 49.0012 1.5 49H-0.5C-0.5 50.1183 0.399211 50.9685 1.44528 51.0258L1.55463 49.0288ZM1.5 87C1.5 86.9988 1.5001 86.9988 1.49998 86.9994C1.49987 86.9999 1.49974 87.0002 1.49977 87.0001C1.49985 86.9999 1.50127 86.9967 1.506 86.9919C1.5164 86.9813 1.53335 86.9724 1.55463 86.9712L1.44528 84.9742C0.399214 85.0315 -0.5 85.8817 -0.5 87H1.5ZM67.4742 17.0547C67.5315 18.1008 68.3817 19 69.5 19V17C69.4988 17 69.4988 16.9999 69.4994 17C69.4999 17.0001 69.5002 17.0003 69.5001 17.0002C69.4999 17.0002 69.4967 16.9987 69.4919 16.994C69.4813 16.9836 69.4724 16.9667 69.4712 16.9454L67.4742 17.0547ZM31.5288 116.945C31.5276 116.967 31.5187 116.984 31.5081 116.994C31.5033 116.999 31.5001 117 31.4999 117C31.4998 117 31.5001 117 31.5007 117C31.5012 117 31.5012 117 31.5 117V119C32.6183 119 33.4685 118.101 33.5258 117.055L31.5288 116.945ZM99.4454 86.9712C99.4667 86.9724 99.4836 86.9813 99.494 86.9919C99.4987 86.9967 99.5002 86.9999 99.5002 87.0001C99.5003 87.0002 99.5001 86.9999 99.5 86.9994C99.4999 86.9988 99.5 86.9988 99.5 87H101.5C101.5 85.8817 100.601 85.0315 99.5547 84.9742L99.4454 86.9712ZM69.5 117C69.4988 117 69.4988 117 69.4994 117C69.4999 117 69.5002 117 69.5001 117C69.4999 117 69.4967 116.999 69.4919 116.994C69.4813 116.984 69.4724 116.967 69.4712 116.945L67.4742 117.055C67.5315 118.101 68.3817 119 69.5 119V117ZM99.5 49C99.5 49.0012 99.4999 49.0012 99.5 49.0006C99.5001 49.0001 99.5003 48.9998 99.5002 48.9999C99.5002 49.0001 99.4987 49.0033 99.494 49.0081C99.4836 49.0187 99.4667 49.0276 99.4454 49.0288L99.5547 51.0258C100.601 50.9685 101.5 50.1183 101.5 49H99.5Z" fill="#374151" mask="url(#path-1-inside-1_686_11346)"/>
<path d="M30.2665 89.084C30.1145 89.084 29.9945 89.04 29.9065 88.952C29.8265 88.864 29.7865 88.74 29.7865 88.58V83.924H29.0185C28.8905 83.924 28.7865 83.892 28.7065 83.828C28.6345 83.756 28.5985 83.66 28.5985 83.54C28.5985 83.42 28.6345 83.328 28.7065 83.264C28.7865 83.2 28.8905 83.168 29.0185 83.168H30.0505L29.7865 83.42V82.964C29.7865 82.204 29.9705 81.624 30.3385 81.224C30.7145 80.824 31.2625 80.592 31.9825 80.528L32.3305 80.492C32.4425 80.484 32.5305 80.504 32.5945 80.552C32.6665 80.6 32.7105 80.66 32.7265 80.732C32.7505 80.804 32.7545 80.88 32.7385 80.96C32.7225 81.032 32.6865 81.096 32.6305 81.152C32.5745 81.208 32.5065 81.24 32.4265 81.248L32.1505 81.272C31.6625 81.312 31.3065 81.46 31.0825 81.716C30.8665 81.972 30.7585 82.348 30.7585 82.844V83.348L30.6145 83.168H32.0545C32.1905 83.168 32.2945 83.2 32.3665 83.264C32.4385 83.328 32.4745 83.42 32.4745 83.54C32.4745 83.66 32.4385 83.756 32.3665 83.828C32.2945 83.892 32.1905 83.924 32.0545 83.924H30.7585V88.58C30.7585 88.916 30.5945 89.084 30.2665 89.084ZM35.7305 89.108C35.1625 89.108 34.6705 88.984 34.2545 88.736C33.8385 88.488 33.5145 88.14 33.2825 87.692C33.0585 87.236 32.9465 86.7 32.9465 86.084C32.9465 85.62 33.0105 85.204 33.1385 84.836C33.2665 84.46 33.4545 84.14 33.7025 83.876C33.9505 83.612 34.2425 83.412 34.5785 83.276C34.9225 83.132 35.3065 83.06 35.7305 83.06C36.2985 83.06 36.7905 83.184 37.2065 83.432C37.6225 83.68 37.9425 84.032 38.1665 84.488C38.3985 84.936 38.5145 85.468 38.5145 86.084C38.5145 86.548 38.4505 86.964 38.3225 87.332C38.1945 87.7 38.0065 88.02 37.7585 88.292C37.5105 88.556 37.2145 88.76 36.8705 88.904C36.5345 89.04 36.1545 89.108 35.7305 89.108ZM35.7305 88.328C36.0905 88.328 36.4065 88.24 36.6785 88.064C36.9505 87.888 37.1585 87.632 37.3025 87.296C37.4545 86.96 37.5305 86.556 37.5305 86.084C37.5305 85.356 37.3665 84.8 37.0385 84.416C36.7185 84.032 36.2825 83.84 35.7305 83.84C35.3625 83.84 35.0425 83.928 34.7705 84.104C34.5065 84.272 34.2985 84.524 34.1465 84.86C34.0025 85.188 33.9305 85.596 33.9305 86.084C33.9305 86.804 34.0945 87.36 34.4225 87.752C34.7505 88.136 35.1865 88.328 35.7305 88.328ZM40.4545 89.084C40.2945 89.084 40.1745 89.04 40.0945 88.952C40.0145 88.864 39.9745 88.74 39.9745 88.58V83.576C39.9745 83.416 40.0145 83.296 40.0945 83.216C40.1745 83.128 40.2905 83.084 40.4425 83.084C40.5945 83.084 40.7105 83.128 40.7905 83.216C40.8785 83.296 40.9225 83.416 40.9225 83.576V84.608L40.7905 84.464C40.9585 84 41.2305 83.652 41.6065 83.42C41.9905 83.18 42.4305 83.06 42.9265 83.06C43.3905 83.06 43.7745 83.144 44.0785 83.312C44.3905 83.48 44.6225 83.736 44.7745 84.08C44.9265 84.416 45.0025 84.844 45.0025 85.364V88.58C45.0025 88.74 44.9585 88.864 44.8705 88.952C44.7905 89.04 44.6745 89.084 44.5225 89.084C44.3625 89.084 44.2385 89.04 44.1505 88.952C44.0705 88.864 44.0305 88.74 44.0305 88.58V85.424C44.0305 84.88 43.9225 84.484 43.7065 84.236C43.4985 83.98 43.1625 83.852 42.6985 83.852C42.1625 83.852 41.7345 84.02 41.4145 84.356C41.1025 84.684 40.9465 85.124 40.9465 85.676V88.58C40.9465 88.916 40.7825 89.084 40.4545 89.084ZM49.1348 89.108C48.6788 89.108 48.2948 89.028 47.9828 88.868C47.6788 88.7 47.4508 88.46 47.2988 88.148C47.1468 87.828 47.0708 87.44 47.0708 86.984V83.924H46.2668C46.1308 83.924 46.0268 83.892 45.9548 83.828C45.8828 83.756 45.8468 83.66 45.8468 83.54C45.8468 83.42 45.8828 83.328 45.9548 83.264C46.0268 83.2 46.1308 83.168 46.2668 83.168H47.0708V81.788C47.0708 81.628 47.1148 81.508 47.2028 81.428C47.2908 81.34 47.4108 81.296 47.5628 81.296C47.7148 81.296 47.8308 81.34 47.9108 81.428C47.9988 81.508 48.0428 81.628 48.0428 81.788V83.168H49.5548C49.6908 83.168 49.7948 83.2 49.8668 83.264C49.9388 83.328 49.9748 83.42 49.9748 83.54C49.9748 83.66 49.9388 83.756 49.8668 83.828C49.7948 83.892 49.6908 83.924 49.5548 83.924H48.0428V86.888C48.0428 87.344 48.1388 87.692 48.3308 87.932C48.5228 88.164 48.8348 88.28 49.2668 88.28C49.4188 88.28 49.5468 88.264 49.6508 88.232C49.7628 88.2 49.8548 88.184 49.9268 88.184C49.9988 88.176 50.0588 88.2 50.1068 88.256C50.1548 88.312 50.1788 88.408 50.1788 88.544C50.1788 88.64 50.1588 88.728 50.1188 88.808C50.0868 88.888 50.0268 88.944 49.9388 88.976C49.8428 89.008 49.7148 89.036 49.5548 89.06C49.4028 89.092 49.2628 89.108 49.1348 89.108ZM52.8261 89.108C52.4261 89.108 52.0661 89.032 51.7461 88.88C51.4341 88.72 51.1861 88.504 51.0021 88.232C50.8181 87.96 50.7261 87.656 50.7261 87.32C50.7261 86.888 50.8341 86.548 51.0501 86.3C51.2741 86.052 51.6381 85.876 52.1421 85.772C52.6541 85.668 53.3501 85.616 54.2301 85.616H54.7701V86.252H54.2421C53.5941 86.252 53.0821 86.284 52.7061 86.348C52.3381 86.404 52.0781 86.504 51.9261 86.648C51.7821 86.792 51.7101 86.996 51.7101 87.26C51.7101 87.588 51.8221 87.856 52.0461 88.064C52.2781 88.272 52.5901 88.376 52.9821 88.376C53.3021 88.376 53.5821 88.3 53.8221 88.148C54.0701 87.996 54.2621 87.788 54.3981 87.524C54.5421 87.26 54.6141 86.956 54.6141 86.612V85.244C54.6141 84.748 54.5141 84.392 54.3141 84.176C54.1141 83.952 53.7861 83.84 53.3301 83.84C53.0501 83.84 52.7701 83.876 52.4901 83.948C52.2101 84.02 51.9141 84.136 51.6021 84.296C51.4901 84.352 51.3941 84.372 51.3141 84.356C51.2341 84.332 51.1701 84.288 51.1221 84.224C51.0741 84.16 51.0461 84.088 51.0381 84.008C51.0301 83.92 51.0461 83.836 51.0861 83.756C51.1341 83.676 51.2061 83.612 51.3021 83.564C51.6541 83.388 52.0021 83.26 52.3461 83.18C52.6901 83.1 53.0181 83.06 53.3301 83.06C53.8341 83.06 54.2501 83.144 54.5781 83.312C54.9061 83.472 55.1501 83.72 55.3101 84.056C55.4701 84.384 55.5501 84.808 55.5501 85.328V88.58C55.5501 88.74 55.5101 88.864 55.4301 88.952C55.3581 89.04 55.2501 89.084 55.1061 89.084C54.9541 89.084 54.8381 89.04 54.7581 88.952C54.6781 88.864 54.6381 88.74 54.6381 88.58V87.644H54.7461C54.6821 87.948 54.5581 88.208 54.3741 88.424C54.1981 88.64 53.9781 88.808 53.7141 88.928C53.4501 89.048 53.1541 89.108 52.8261 89.108ZM57.8334 89.06C57.6734 89.06 57.5534 89.016 57.4734 88.928C57.3934 88.832 57.3534 88.7 57.3534 88.532V83.624C57.3534 83.456 57.3934 83.328 57.4734 83.24C57.5534 83.152 57.6734 83.108 57.8334 83.108C57.9854 83.108 58.1054 83.152 58.1934 83.24C58.2814 83.328 58.3254 83.456 58.3254 83.624V88.532C58.3254 88.7 58.2814 88.832 58.1934 88.928C58.1134 89.016 57.9934 89.06 57.8334 89.06ZM57.8334 81.764C57.6334 81.764 57.4774 81.712 57.3654 81.608C57.2534 81.496 57.1974 81.348 57.1974 81.164C57.1974 80.972 57.2534 80.828 57.3654 80.732C57.4774 80.628 57.6334 80.576 57.8334 80.576C58.0414 80.576 58.1974 80.628 58.3014 80.732C58.4134 80.828 58.4694 80.972 58.4694 81.164C58.4694 81.348 58.4134 81.496 58.3014 81.608C58.1974 81.712 58.0414 81.764 57.8334 81.764ZM60.6225 89.084C60.4625 89.084 60.3425 89.04 60.2625 88.952C60.1825 88.864 60.1425 88.74 60.1425 88.58V83.576C60.1425 83.416 60.1825 83.296 60.2625 83.216C60.3425 83.128 60.4585 83.084 60.6105 83.084C60.7625 83.084 60.8785 83.128 60.9585 83.216C61.0465 83.296 61.0905 83.416 61.0905 83.576V84.608L60.9585 84.464C61.1265 84 61.3985 83.652 61.7745 83.42C62.1585 83.18 62.5985 83.06 63.0945 83.06C63.5585 83.06 63.9425 83.144 64.2465 83.312C64.5585 83.48 64.7905 83.736 64.9425 84.08C65.0945 84.416 65.1705 84.844 65.1705 85.364V88.58C65.1705 88.74 65.1265 88.864 65.0385 88.952C64.9585 89.04 64.8425 89.084 64.6905 89.084C64.5305 89.084 64.4065 89.04 64.3185 88.952C64.2385 88.864 64.1985 88.74 64.1985 88.58V85.424C64.1985 84.88 64.0905 84.484 63.8745 84.236C63.6665 83.98 63.3305 83.852 62.8665 83.852C62.3305 83.852 61.9025 84.02 61.5825 84.356C61.2705 84.684 61.1145 85.124 61.1145 85.676V88.58C61.1145 88.916 60.9505 89.084 60.6225 89.084ZM69.5908 89.108C68.9748 89.108 68.4428 88.988 67.9948 88.748C67.5548 88.5 67.2108 88.152 66.9628 87.704C66.7228 87.256 66.6028 86.72 66.6028 86.096C66.6028 85.488 66.7228 84.96 66.9628 84.512C67.2028 84.056 67.5308 83.7 67.9468 83.444C68.3708 83.188 68.8588 83.06 69.4108 83.06C69.8028 83.06 70.1548 83.128 70.4668 83.264C70.7788 83.392 71.0428 83.58 71.2588 83.828C71.4828 84.076 71.6508 84.376 71.7628 84.728C71.8828 85.08 71.9428 85.476 71.9428 85.916C71.9428 86.044 71.9068 86.14 71.8348 86.204C71.7628 86.26 71.6588 86.288 71.5228 86.288H67.3468V85.652H71.2948L71.1028 85.808C71.1028 85.376 71.0388 85.012 70.9108 84.716C70.7828 84.412 70.5948 84.18 70.3468 84.02C70.1068 83.86 69.8028 83.78 69.4348 83.78C69.0268 83.78 68.6788 83.876 68.3908 84.068C68.1108 84.252 67.8988 84.512 67.7548 84.848C67.6108 85.176 67.5388 85.56 67.5388 86V86.072C67.5388 86.808 67.7148 87.368 68.0668 87.752C68.4268 88.136 68.9348 88.328 69.5908 88.328C69.8628 88.328 70.1308 88.292 70.3948 88.22C70.6668 88.148 70.9308 88.028 71.1868 87.86C71.2988 87.788 71.3988 87.756 71.4868 87.764C71.5828 87.764 71.6588 87.792 71.7148 87.848C71.7708 87.896 71.8068 87.96 71.8228 88.04C71.8468 88.112 71.8388 88.192 71.7988 88.28C71.7668 88.368 71.6988 88.444 71.5948 88.508C71.3308 88.7 71.0188 88.848 70.6588 88.952C70.2988 89.056 69.9428 89.108 69.5908 89.108Z" fill="#F9FAFB"/>
<g clip-path="url(#clip0_686_11346)">
<path d="M38.9391 52.4568L39.2344 52.8134C39.2344 52.8134 40.9012 55.0096 45.1494 56.3921C48.715 57.5515 52.9522 57.3853 56.0694 56.3003C60.3897 54.7953 61.9887 51.9734 61.9887 51.9734L38.9391 52.4568Z" fill="#89847E"/>
<path d="M38.0487 49.5519C38.0487 49.5519 37.7512 50.254 37.9678 51.0984C38.18 51.9253 39.7506 55.1694 50.3315 55.2547C59.9259 55.3334 62.8047 51.7306 62.7762 50.405C62.7565 49.5256 61.4703 47.2331 54.7022 46.8612C47.934 46.4894 43.4322 47.2594 43.4322 47.2594L38.0487 49.5519Z" fill="#CFC6BD"/>
<path d="M50.4934 47.9266C46.3634 47.8763 40.3413 48.8913 39.8075 50.405C39.3678 51.6541 41.2469 52.8835 45.11 53.4172C48.9731 53.951 55.7697 53.4982 57.1019 52.9907C58.4341 52.4832 60.8053 51.4988 60.8053 51.4988L61.3653 50.6719C61.3653 50.6719 61.4178 50.2191 61.0459 49.8735C60.6741 49.5278 59.3397 48.0338 50.4934 47.9266Z" fill="#A2E4FD"/>
<path d="M61.8422 50.2453C62.1069 50.2169 62.1287 50.8206 61.5556 51.3697C60.9825 51.9187 57.6619 54.2966 50.4475 54.3228C43.2331 54.3491 37.9153 52.4547 37.9328 50.0244C37.9525 47.4344 47.0109 46.3778 50.0953 46.7978C53.1797 47.2156 49.5725 47.2944 49.5725 47.2944C49.5725 47.2944 45.5169 47.2878 42.1875 48.2066C40.6475 48.6309 39.3656 49.1209 39.3394 49.9062C39.3131 50.6894 41.5881 53.0956 50.2113 53.2247C58.8344 53.3537 61.6081 50.2716 61.8422 50.2453Z" fill="#E4DCD5"/>
<path d="M42.5966 49.0837C42.4697 49.1559 42.5966 49.3659 42.4413 49.5103C42.2859 49.6569 41.5597 49.9675 41.4941 50.5209C41.3891 51.3959 43.0559 51.584 43.2134 51.49C43.3688 51.3959 42.6206 50.7812 42.765 50.4181C42.9356 49.9915 43.4409 49.7094 43.4409 49.4184C43.4409 49.1253 42.835 48.9503 42.5966 49.0837ZM44.6594 48.7315C44.6594 48.8453 44.9088 48.9394 44.9088 49.1056C44.9088 49.3353 43.8566 49.845 43.9813 50.7615C44.0972 51.6037 44.9197 52.0128 45.3353 52.1878C45.8559 52.4065 47.1203 52.4853 47.0634 52.2184C47.0219 52.0215 46.0834 51.9275 45.5541 51.3325C45.0859 50.8097 45.0794 50.2169 45.5759 49.74C46.2213 49.1144 45.8166 48.6572 45.3878 48.5828C44.9219 48.5062 44.6594 48.6265 44.6594 48.7315Z" fill="white"/>
<path d="M50.5088 48.8497C47.8116 48.889 46.3241 49.5147 46.3459 50.4793C46.37 51.5512 48.3256 52.0915 50.5853 52.1047C53.0178 52.12 54.4397 51.3653 54.49 50.5428C54.5425 49.7203 53.16 48.8103 50.5088 48.8497ZM55.2053 48.8037C55.1703 48.8387 54.9669 49.1122 55.4306 49.635C55.7916 50.0418 55.9053 50.4553 55.7981 51.0372C55.6909 51.619 56.0606 52.12 56.8809 52.12C57.7013 52.12 57.8566 51.8575 57.8566 51.7875C57.8566 51.7153 57.2594 51.4987 57.1194 50.7528C56.9531 49.8734 56.6206 49.2915 56.1197 48.9809C55.6013 48.6593 55.2819 48.725 55.2053 48.8037ZM57.3688 49.4797C57.3666 49.6 58.13 49.9675 58.1781 50.4662C58.2263 50.965 58.0119 51.2865 58.1541 51.3697C58.2963 51.4528 59.495 51.2034 59.4863 50.3109C59.4731 49.2784 57.3797 49.029 57.3688 49.4797Z" fill="#4FC0FA"/>
<path d="M43.1259 42.3922L43.7472 49.3003L44.3684 49.2391L44.1475 42.6525L43.1259 42.3922ZM56.5003 42.8122C56.5003 43.2322 56.4806 48.5982 56.4806 48.5982L57.1413 48.7185L57.5022 42.2303C57.5022 42.2325 56.5003 42.4316 56.5003 42.8122Z" fill="#A2E4FD"/>
<path d="M42.765 42.3112C42.765 42.3112 43.5263 43.8534 45.4272 44.9734C47.3303 46.0956 48.7653 45.8244 48.8113 47.4956C48.8441 48.6966 48.5706 48.9175 48.3103 49.1975C48.0588 49.4666 47.5885 49.6787 47.5885 50.1381C47.5885 50.5997 48.0478 51.1991 50.4978 51.2122C53.0856 51.2275 53.2803 50.5166 53.2541 50.0572C53.2278 49.6066 52.6394 49.2522 52.4403 48.9306C52.2697 48.6572 52.1997 48.1344 52.2128 47.5744C52.2588 45.8484 53.3656 46.1503 55.3169 44.9909C57.7231 43.5625 57.9988 42.2478 57.9988 42.2478L42.765 42.3112Z" fill="#89847E"/>
<path d="M43.1347 40.7407L45.2478 39.6294L49.4128 39.1285L51.8059 38.6779C51.8059 38.6779 53.3022 38.7741 54.3478 38.9447C55.3059 39.1022 56.1787 39.3888 56.1787 39.3888L56.2794 39.8285L57.0406 39.8875C57.0406 39.8875 57.7209 39.8679 58.2415 40.4891C58.795 41.1497 58.6812 41.9504 57.4015 42.7707C56.135 43.5822 50.675 43.8119 50.675 43.8119L44.4275 42.4513L43.1347 40.7407Z" fill="#CFC6BD"/>
<path d="M44.0075 41.631C44.0075 41.631 43.5875 39.7497 50.5547 39.7082C57.5219 39.6666 57.4212 41.6113 57.4212 41.6113L55.7587 43.0135L50.7122 43.6741L44.8453 42.7926L44.0075 41.631Z" fill="#A2E4FD"/>
<path d="M44.4713 41.0075C44.4713 41.0075 44.27 40.7625 44.1147 40.6859C43.9594 40.6093 43.6247 40.4628 43.6247 40.4628C43.6247 40.4628 43.7691 40.174 44.0359 40.0625C44.3028 39.9509 44.515 39.929 44.8147 40.0406C45.1144 40.1522 45.2478 40.5743 45.2478 40.5743L44.4713 41.0075ZM56.2706 40.5853C56.2706 40.5853 56.5375 40.2265 56.7147 40.1172C56.9159 39.9947 57.1938 39.894 57.1938 39.894C57.1938 39.894 56.8591 39.5593 56.3713 39.6053C55.8813 39.649 55.4809 40.2615 55.4809 40.2615L56.2706 40.5853Z" fill="#A2E4FD"/>
<path d="M45.1581 40.0909C45.2806 40.1041 46.346 39.695 47.0613 39.5813C48.5006 39.3538 49.461 39.3713 49.461 39.3713L49.5069 38.7741C49.5069 38.7741 48.3038 38.6822 46.6238 39.0125C45.5322 39.2269 44.8278 39.5528 44.8278 39.5528L45.1581 40.0909ZM57.1566 40.2834C57.0078 40.4256 57.581 40.6838 57.4256 41.1628C57.2441 41.7206 55.8419 42.985 50.4366 43.0156C45.016 43.0463 44.0622 41.6178 43.7975 41.2066C43.5022 40.745 44.0644 40.3316 43.43 40.2813C42.8875 40.2375 42.1569 40.7122 42.216 41.4253C42.2728 42.1122 43.5197 44.3719 50.5219 44.3719C57.2441 44.3719 58.4166 42.0619 58.4756 41.3728C58.5347 40.6772 57.4913 39.9641 57.1566 40.2834Z" fill="#E2DDD7"/>
<path d="M47.7437 40.5657C47.875 40.6729 47.1334 41.0316 47.1225 41.4494C47.1137 41.8672 47.8269 42.2194 47.7241 42.3616C47.5775 42.5651 45.6372 42.2129 45.6766 41.4888C45.7269 40.5854 47.4725 40.3426 47.7437 40.5657Z" fill="#FFFFFD"/>
<path d="M47.8466 41.515C47.8225 41.935 48.5203 42.3616 50.5963 42.3704C52.7531 42.3791 53.2038 41.9372 53.1578 41.4582C53.1163 41.0338 52.0816 40.8566 50.5547 40.8282C49.1875 40.8019 47.8794 40.9507 47.8466 41.515ZM53.5691 40.78C53.4925 40.9004 54.1488 41.1432 54.1378 41.5654C54.1291 41.9875 53.6478 42.32 53.755 42.4185C53.8622 42.5169 55.4919 42.3507 55.4831 41.526C55.4722 40.7013 53.7244 40.5329 53.5691 40.78Z" fill="#4FC0FA"/>
<path d="M49.3472 41.6025L49.3384 39.8853C49.3384 39.8853 48.7303 39.2969 48.4656 38.6385C48.2009 37.98 48.1703 37.4703 48.2688 37.2735C48.3672 37.0766 48.995 36.9781 48.995 36.9781L50.6838 37.4681C50.6838 37.4681 52.6175 36.9781 52.7159 37.0569C52.8144 37.1356 52.8931 37.9144 52.6766 38.5575C52.3922 39.4019 51.8322 39.8635 51.8322 39.8635L51.8409 41.6988C51.8409 41.6988 51.5369 42.005 50.5656 42.0138C49.4369 42.0247 49.3472 41.6025 49.3472 41.6025Z" fill="#89847E"/>
<path d="M50.5066 36.2343C48.7194 36.2431 48.2687 37.2756 48.2687 37.2756C48.2687 37.2756 48.75 37.9537 50.5656 37.9734C52.46 37.9931 52.7291 37.0787 52.7291 37.0787C52.7291 37.0787 52.1734 36.2256 50.5066 36.2343Z" fill="#A9A299"/>
<path d="M52.5016 42.8734C52.5016 42.8734 53.8491 42.9478 54.0612 43.8184C54.2734 44.689 54.2034 48.8978 54.2034 48.8978L55.0741 48.4537C55.0741 48.4537 55.3212 44.3062 55.3912 43.6674C55.4437 43.1862 55.6056 42.1865 55.6056 42.1865L54.4331 42.5409L52.5016 42.8734ZM45.7159 42.5912C45.7159 42.5912 45.5759 42.7574 45.5037 43.1949C45.3966 43.8337 45.5737 45.4153 45.6459 46.3559C45.7159 47.2965 45.8231 48.6112 45.8231 48.6112L46.5166 48.434C46.5166 48.434 46.5691 45.984 46.6412 45.0784C46.7134 44.1728 47.0131 43.4618 47.5469 43.2321C48.0806 43.0024 48.6844 42.8231 48.6844 42.8231L45.9675 42.2893L45.7159 42.5912ZM50.5634 37.0699C51.1847 37.0699 51.2022 36.6259 51.2022 36.3765C51.2022 36.1271 51.4866 33.2681 53.3503 33.2156C55.1091 33.1653 55.4306 37.479 55.4525 38.5465C55.4722 39.4565 55.47 40.7953 55.47 40.7953L56.3122 40.6224C56.3122 40.6224 56.9859 32.3143 53.51 32.0978C51.9153 31.9971 51.1847 33.3228 51.1847 33.3228C51.1847 33.3228 51.1322 31.7784 51.095 31.3343C51.0578 30.8903 50.7034 30.7656 50.4737 30.7831C50.2419 30.8006 49.9597 30.9953 49.9225 31.3343C49.8875 31.6712 49.905 33.3053 49.905 33.3053C49.905 33.3053 49.0016 31.9031 47.7919 31.9206C46.4772 31.9381 45.005 33.4824 44.5959 36.6784C44.1869 39.8743 44.5259 41.3487 44.5259 41.3487L45.3528 40.699C45.3528 40.699 45.3069 37.3543 45.6962 35.8799C46.0856 34.4056 46.7812 33.0778 47.7241 33.0778C48.6669 33.0778 49.2334 34.0884 49.6228 35.099C49.835 35.6503 49.8678 36.2671 49.8722 36.4487C49.8787 36.779 49.9772 37.0699 50.5634 37.0699Z" fill="#A2E4FD"/>
</g>
<defs>
<clipPath id="clip0_686_11346">
<rect width="28" height="28" fill="white" transform="translate(36.5 30)"/>
</clipPath>
</defs>
</svg>
