<svg width="119" height="118" viewBox="0 0 119 118" fill="none" xmlns="http://www.w3.org/2000/svg">
<mask id="path-1-inside-1_576_10472" fill="white">
<path fill-rule="evenodd" clip-rule="evenodd" d="M69.5 18C68.9477 18 68.5029 17.5515 68.4727 17C67.9538 7.52403 60.1056 0 50.5 0C40.8944 0 33.0462 7.52403 32.5273 17C32.4971 17.5515 32.0523 18 31.5 18L4.5 18C2.29086 18 0.5 19.7909 0.5 22L0.500002 49C0.500002 49.5523 0.948499 49.9971 1.49996 50.0273C10.976 50.5462 18.5 58.3944 18.5 68C18.5 77.6056 10.976 85.4538 1.49996 85.9727C0.9485 86.0029 0.500002 86.4477 0.500002 87L0.5 114C0.5 116.209 2.29086 118 4.5 118H31.5C32.0523 118 32.4971 117.552 32.5273 117C33.0462 107.524 40.8944 100 50.5 100C60.1056 100 67.9538 107.524 68.4727 117C68.5029 117.551 68.9477 118 69.5 118H96.5C98.7091 118 100.5 116.209 100.5 114L100.5 87C100.5 86.4477 100.948 86.0029 101.5 85.9727C110.976 85.4538 118.5 77.6056 118.5 68C118.5 58.3944 110.976 50.5462 101.5 50.0273C100.949 49.9971 100.5 49.5523 100.5 49L100.5 22C100.5 19.7909 98.7091 18 96.5 18L69.5 18Z"/>
</mask>
<path fill-rule="evenodd" clip-rule="evenodd" d="M69.5 18C68.9477 18 68.5029 17.5515 68.4727 17C67.9538 7.52403 60.1056 0 50.5 0C40.8944 0 33.0462 7.52403 32.5273 17C32.4971 17.5515 32.0523 18 31.5 18L4.5 18C2.29086 18 0.5 19.7909 0.5 22L0.500002 49C0.500002 49.5523 0.948499 49.9971 1.49996 50.0273C10.976 50.5462 18.5 58.3944 18.5 68C18.5 77.6056 10.976 85.4538 1.49996 85.9727C0.9485 86.0029 0.500002 86.4477 0.500002 87L0.5 114C0.5 116.209 2.29086 118 4.5 118H31.5C32.0523 118 32.4971 117.552 32.5273 117C33.0462 107.524 40.8944 100 50.5 100C60.1056 100 67.9538 107.524 68.4727 117C68.5029 117.551 68.9477 118 69.5 118H96.5C98.7091 118 100.5 116.209 100.5 114L100.5 87C100.5 86.4477 100.948 86.0029 101.5 85.9727C110.976 85.4538 118.5 77.6056 118.5 68C118.5 58.3944 110.976 50.5462 101.5 50.0273C100.949 49.9971 100.5 49.5523 100.5 49L100.5 22C100.5 19.7909 98.7091 18 96.5 18L69.5 18Z" fill="#374151" fill-opacity="0.4"/>
<path d="M4.5 18V17V18ZM0.5 22H-0.5H0.5ZM0.5 114H-0.5H0.5ZM96.5 18V17V18ZM101.5 50.0273L101.555 49.0288L101.5 50.0273ZM100.5 87H99.5H100.5ZM101.5 85.9727L101.445 84.9742L101.5 85.9727ZM32.5273 117L31.5288 116.945L32.5273 117ZM1.49996 85.9727L1.44529 84.9742L1.49996 85.9727ZM32.5273 17L31.5288 16.9454L32.5273 17ZM68.4727 117L69.4712 116.945L68.4727 117ZM68.4727 17L69.4712 16.9454L68.4727 17ZM69.5 18V17V18ZM50.5 1C59.5716 1 66.9842 8.10602 67.4742 17.0547L69.4712 16.9454C68.9235 6.94204 60.6396 -1 50.5 -1V1ZM33.5258 17.0547C34.0158 8.10603 41.4284 1 50.5 1V-1C40.3604 -1 32.0765 6.94204 31.5288 16.9454L33.5258 17.0547ZM31.5 17L4.5 17V19L31.5 19V17ZM4.5 17C1.73858 17 -0.5 19.2386 -0.5 22H1.5C1.5 20.3431 2.84315 19 4.5 19V17ZM-0.5 22L-0.499998 49H1.5L1.5 22H-0.5ZM1.44528 51.0258C10.394 51.5158 17.5 58.9284 17.5 68H19.5C19.5 57.8604 11.558 49.5765 1.55463 49.0288L1.44528 51.0258ZM17.5 68C17.5 77.0716 10.394 84.4842 1.44529 84.9742L1.55463 86.9712C11.558 86.4235 19.5 78.1395 19.5 68H17.5ZM-0.499998 87L-0.5 114H1.5L1.5 87H-0.499998ZM-0.5 114C-0.5 116.761 1.73858 119 4.5 119L4.5 117C2.84315 117 1.5 115.657 1.5 114H-0.5ZM4.5 119H31.5V117H4.5L4.5 119ZM33.5258 117.055C34.0158 108.106 41.4284 101 50.5 101V99C40.3604 99 32.0765 106.942 31.5288 116.945L33.5258 117.055ZM50.5 101C59.5716 101 66.9842 108.106 67.4742 117.055L69.4712 116.945C68.9235 106.942 60.6396 99 50.5 99V101ZM69.5 119H96.5V117H69.5V119ZM96.5 119C99.2614 119 101.5 116.761 101.5 114H99.5C99.5 115.657 98.1569 117 96.5 117V119ZM101.5 114L101.5 87H99.5L99.5 114H101.5ZM101.555 86.9712C111.558 86.4235 119.5 78.1395 119.5 68H117.5C117.5 77.0716 110.394 84.4842 101.445 84.9742L101.555 86.9712ZM119.5 68C119.5 57.8604 111.558 49.5765 101.555 49.0288L101.445 51.0258C110.394 51.5158 117.5 58.9284 117.5 68H119.5ZM101.5 49L101.5 22H99.5L99.5 49H101.5ZM101.5 22C101.5 19.2386 99.2614 17 96.5 17V19C98.1569 19 99.5 20.3431 99.5 22H101.5ZM96.5 17L69.5 17V19L96.5 19V17ZM101.555 49.0288C101.533 49.0276 101.516 49.0187 101.506 49.0081C101.501 49.0033 101.5 49.0001 101.5 48.9999C101.5 48.9998 101.5 49.0001 101.5 49.0006C101.5 49.0012 101.5 49.0012 101.5 49H99.5C99.5 50.1183 100.399 50.9685 101.445 51.0258L101.555 49.0288ZM101.5 87C101.5 86.9988 101.5 86.9988 101.5 86.9994C101.5 86.9999 101.5 87.0002 101.5 87.0001C101.5 86.9999 101.501 86.9967 101.506 86.9919C101.516 86.9813 101.533 86.9724 101.555 86.9712L101.445 84.9742C100.399 85.0315 99.5 85.8817 99.5 87H101.5ZM31.5 119C32.6183 119 33.4685 118.101 33.5258 117.055L31.5288 116.945C31.5276 116.967 31.5187 116.984 31.5081 116.994C31.5033 116.999 31.5001 117 31.4999 117C31.4998 117 31.5001 117 31.5007 117C31.5012 117 31.5012 117 31.5 117V119ZM-0.499998 49C-0.499998 50.1183 0.399213 50.9685 1.44528 51.0258L1.55463 49.0288C1.53335 49.0276 1.5164 49.0187 1.506 49.0081C1.50127 49.0033 1.49985 49.0001 1.49977 48.9999C1.49974 48.9998 1.49987 49.0001 1.49998 49.0006C1.5001 49.0012 1.5 49.0012 1.5 49H-0.499998ZM1.44529 84.9742C0.399216 85.0315 -0.499998 85.8817 -0.499998 87H1.5C1.5 86.9988 1.5001 86.9988 1.49998 86.9994C1.49987 86.9999 1.49974 87.0002 1.49977 87.0001C1.49985 86.9999 1.50127 86.9967 1.506 86.9919C1.5164 86.9813 1.53335 86.9724 1.55463 86.9712L1.44529 84.9742ZM31.5288 16.9454C31.5276 16.9667 31.5187 16.9836 31.5081 16.994C31.5033 16.9987 31.5001 17.0002 31.4999 17.0002C31.4998 17.0003 31.5001 17.0001 31.5007 17C31.5012 16.9999 31.5012 17 31.5 17V19C32.6183 19 33.4685 18.1008 33.5258 17.0547L31.5288 16.9454ZM67.4742 117.055C67.5315 118.101 68.3817 119 69.5 119V117C69.4988 117 69.4988 117 69.4994 117C69.4999 117 69.5002 117 69.5001 117C69.4999 117 69.4967 116.999 69.4919 116.994C69.4813 116.984 69.4724 116.967 69.4712 116.945L67.4742 117.055ZM67.4742 17.0547C67.5315 18.1008 68.3817 19 69.5 19V17C69.4988 17 69.4988 16.9999 69.4994 17C69.4999 17.0001 69.5002 17.0003 69.5001 17.0002C69.4999 17.0002 69.4967 16.9987 69.4919 16.994C69.4813 16.9836 69.4724 16.9667 69.4712 16.9454L67.4742 17.0547Z" fill="#374151" mask="url(#path-1-inside-1_576_10472)"/>
<path d="M40.2752 91.268C39.8512 91.268 39.4352 91.216 39.0272 91.112C38.6272 91.016 38.2632 90.86 37.9352 90.644C37.8392 90.588 37.7752 90.52 37.7432 90.44C37.7192 90.36 37.7152 90.28 37.7312 90.2C37.7472 90.128 37.7832 90.06 37.8392 89.996C37.8952 89.94 37.9592 89.904 38.0312 89.888C38.1112 89.872 38.1912 89.884 38.2712 89.924C38.6232 90.14 38.9592 90.288 39.2792 90.368C39.5992 90.448 39.9152 90.488 40.2272 90.488C40.7952 90.488 41.2232 90.336 41.5112 90.032C41.8072 89.728 41.9552 89.288 41.9552 88.712V87.356H42.0752C41.9552 87.82 41.6992 88.188 41.3072 88.46C40.9232 88.732 40.4712 88.868 39.9512 88.868C39.4152 88.868 38.9512 88.748 38.5592 88.508C38.1672 88.26 37.8632 87.916 37.6472 87.476C37.4392 87.036 37.3352 86.528 37.3352 85.952C37.3352 85.52 37.3952 85.128 37.5152 84.776C37.6352 84.416 37.8072 84.112 38.0312 83.864C38.2632 83.608 38.5392 83.412 38.8592 83.276C39.1872 83.132 39.5512 83.06 39.9512 83.06C40.4792 83.06 40.9352 83.196 41.3192 83.468C41.7032 83.732 41.9512 84.092 42.0632 84.548L41.9432 84.692V83.576C41.9432 83.416 41.9832 83.296 42.0632 83.216C42.1512 83.128 42.2712 83.084 42.4232 83.084C42.5832 83.084 42.7032 83.128 42.7832 83.216C42.8632 83.296 42.9032 83.416 42.9032 83.576V88.58C42.9032 89.468 42.6792 90.136 42.2312 90.584C41.7912 91.04 41.1392 91.268 40.2752 91.268ZM40.1312 88.076C40.5072 88.076 40.8312 87.992 41.1032 87.824C41.3752 87.648 41.5832 87.4 41.7272 87.08C41.8792 86.76 41.9552 86.384 41.9552 85.952C41.9552 85.304 41.7912 84.792 41.4632 84.416C41.1352 84.032 40.6912 83.84 40.1312 83.84C39.7632 83.84 39.4432 83.928 39.1712 84.104C38.8992 84.272 38.6872 84.516 38.5352 84.836C38.3912 85.148 38.3192 85.52 38.3192 85.952C38.3192 86.6 38.4832 87.116 38.8112 87.5C39.1392 87.884 39.5792 88.076 40.1312 88.076ZM45.2065 89.06C45.0465 89.06 44.9265 89.016 44.8465 88.928C44.7665 88.832 44.7265 88.7 44.7265 88.532V83.624C44.7265 83.456 44.7665 83.328 44.8465 83.24C44.9265 83.152 45.0465 83.108 45.2065 83.108C45.3585 83.108 45.4785 83.152 45.5665 83.24C45.6545 83.328 45.6985 83.456 45.6985 83.624V88.532C45.6985 88.7 45.6545 88.832 45.5665 88.928C45.4865 89.016 45.3665 89.06 45.2065 89.06ZM45.2065 81.764C45.0065 81.764 44.8505 81.712 44.7385 81.608C44.6265 81.496 44.5705 81.348 44.5705 81.164C44.5705 80.972 44.6265 80.828 44.7385 80.732C44.8505 80.628 45.0065 80.576 45.2065 80.576C45.4145 80.576 45.5705 80.628 45.6745 80.732C45.7865 80.828 45.8425 80.972 45.8425 81.164C45.8425 81.348 45.7865 81.496 45.6745 81.608C45.5705 81.712 45.4145 81.764 45.2065 81.764ZM50.0955 91.268C49.6715 91.268 49.2555 91.216 48.8475 91.112C48.4475 91.016 48.0835 90.86 47.7555 90.644C47.6595 90.588 47.5955 90.52 47.5635 90.44C47.5395 90.36 47.5355 90.28 47.5515 90.2C47.5675 90.128 47.6035 90.06 47.6595 89.996C47.7155 89.94 47.7795 89.904 47.8515 89.888C47.9315 89.872 48.0115 89.884 48.0915 89.924C48.4435 90.14 48.7795 90.288 49.0995 90.368C49.4195 90.448 49.7355 90.488 50.0475 90.488C50.6155 90.488 51.0435 90.336 51.3315 90.032C51.6275 89.728 51.7755 89.288 51.7755 88.712V87.356H51.8955C51.7755 87.82 51.5195 88.188 51.1275 88.46C50.7435 88.732 50.2915 88.868 49.7715 88.868C49.2355 88.868 48.7715 88.748 48.3795 88.508C47.9875 88.26 47.6835 87.916 47.4675 87.476C47.2595 87.036 47.1555 86.528 47.1555 85.952C47.1555 85.52 47.2155 85.128 47.3355 84.776C47.4555 84.416 47.6275 84.112 47.8515 83.864C48.0835 83.608 48.3595 83.412 48.6795 83.276C49.0075 83.132 49.3715 83.06 49.7715 83.06C50.2995 83.06 50.7555 83.196 51.1395 83.468C51.5235 83.732 51.7715 84.092 51.8835 84.548L51.7635 84.692V83.576C51.7635 83.416 51.8035 83.296 51.8835 83.216C51.9715 83.128 52.0915 83.084 52.2435 83.084C52.4035 83.084 52.5235 83.128 52.6035 83.216C52.6835 83.296 52.7235 83.416 52.7235 83.576V88.58C52.7235 89.468 52.4995 90.136 52.0515 90.584C51.6115 91.04 50.9595 91.268 50.0955 91.268ZM49.9515 88.076C50.3275 88.076 50.6515 87.992 50.9235 87.824C51.1955 87.648 51.4035 87.4 51.5475 87.08C51.6995 86.76 51.7755 86.384 51.7755 85.952C51.7755 85.304 51.6115 84.792 51.2835 84.416C50.9555 84.032 50.5115 83.84 49.9515 83.84C49.5835 83.84 49.2635 83.928 48.9915 84.104C48.7195 84.272 48.5075 84.516 48.3555 84.836C48.2115 85.148 48.1395 85.52 48.1395 85.952C48.1395 86.6 48.3035 87.116 48.6315 87.5C48.9595 87.884 49.3995 88.076 49.9515 88.076ZM57.1748 89.108C56.5588 89.108 56.0268 88.988 55.5788 88.748C55.1388 88.5 54.7948 88.152 54.5468 87.704C54.3068 87.256 54.1868 86.72 54.1868 86.096C54.1868 85.488 54.3068 84.96 54.5468 84.512C54.7868 84.056 55.1148 83.7 55.5308 83.444C55.9548 83.188 56.4428 83.06 56.9948 83.06C57.3868 83.06 57.7388 83.128 58.0508 83.264C58.3628 83.392 58.6268 83.58 58.8428 83.828C59.0668 84.076 59.2348 84.376 59.3468 84.728C59.4668 85.08 59.5268 85.476 59.5268 85.916C59.5268 86.044 59.4908 86.14 59.4188 86.204C59.3468 86.26 59.2428 86.288 59.1068 86.288H54.9308V85.652H58.8788L58.6868 85.808C58.6868 85.376 58.6228 85.012 58.4948 84.716C58.3668 84.412 58.1788 84.18 57.9308 84.02C57.6908 83.86 57.3868 83.78 57.0188 83.78C56.6108 83.78 56.2628 83.876 55.9748 84.068C55.6948 84.252 55.4828 84.512 55.3388 84.848C55.1948 85.176 55.1228 85.56 55.1228 86V86.072C55.1228 86.808 55.2988 87.368 55.6508 87.752C56.0108 88.136 56.5188 88.328 57.1748 88.328C57.4468 88.328 57.7148 88.292 57.9788 88.22C58.2508 88.148 58.5148 88.028 58.7708 87.86C58.8828 87.788 58.9828 87.756 59.0708 87.764C59.1668 87.764 59.2428 87.792 59.2988 87.848C59.3548 87.896 59.3908 87.96 59.4068 88.04C59.4308 88.112 59.4228 88.192 59.3828 88.28C59.3508 88.368 59.2828 88.444 59.1788 88.508C58.9148 88.7 58.6028 88.848 58.2428 88.952C57.8828 89.056 57.5268 89.108 57.1748 89.108ZM63.2735 89.108C62.8175 89.108 62.4335 89.028 62.1215 88.868C61.8175 88.7 61.5895 88.46 61.4375 88.148C61.2855 87.828 61.2095 87.44 61.2095 86.984V83.924H60.4055C60.2695 83.924 60.1655 83.892 60.0935 83.828C60.0215 83.756 59.9855 83.66 59.9855 83.54C59.9855 83.42 60.0215 83.328 60.0935 83.264C60.1655 83.2 60.2695 83.168 60.4055 83.168H61.2095V81.788C61.2095 81.628 61.2535 81.508 61.3415 81.428C61.4295 81.34 61.5495 81.296 61.7015 81.296C61.8535 81.296 61.9695 81.34 62.0495 81.428C62.1375 81.508 62.1815 81.628 62.1815 81.788V83.168H63.6935C63.8295 83.168 63.9335 83.2 64.0055 83.264C64.0775 83.328 64.1135 83.42 64.1135 83.54C64.1135 83.66 64.0775 83.756 64.0055 83.828C63.9335 83.892 63.8295 83.924 63.6935 83.924H62.1815V86.888C62.1815 87.344 62.2775 87.692 62.4695 87.932C62.6615 88.164 62.9735 88.28 63.4055 88.28C63.5575 88.28 63.6855 88.264 63.7895 88.232C63.9015 88.2 63.9935 88.184 64.0655 88.184C64.1375 88.176 64.1975 88.2 64.2455 88.256C64.2935 88.312 64.3175 88.408 64.3175 88.544C64.3175 88.64 64.2975 88.728 64.2575 88.808C64.2255 88.888 64.1655 88.944 64.0775 88.976C63.9815 89.008 63.8535 89.036 63.6935 89.06C63.5415 89.092 63.4015 89.108 63.2735 89.108Z" fill="#F9FAFB"/>
<path d="M63.0978 57.3066L60.0506 56.3244C58.1016 55.6813 56.9597 54.1041 56.4237 52.1222L55.0828 45.5903C55.0478 45.4613 54.9625 45.2885 54.7 45.2885C54.4791 45.2885 54.3522 45.4613 54.3172 45.5903L52.9762 52.1244C52.4381 54.1063 51.2984 55.6835 49.3494 56.3266L46.3022 57.3088C45.8712 57.4488 45.8647 58.0569 46.2934 58.2035L49.3625 59.26C51.305 59.9053 52.4381 61.4803 52.9762 63.4535L54.3194 69.9131C54.3544 70.0422 54.4266 70.2741 54.7022 70.2741C54.9931 70.2741 55.05 70.0422 55.085 69.9131L56.4281 63.4535C56.9662 61.4781 58.0994 59.9031 60.0419 59.26L63.1109 58.2035C63.5353 58.0547 63.5287 57.4466 63.0978 57.3066Z" fill="#FDD835"/>
<path d="M63.3866 57.58C63.3385 57.4597 63.2444 57.3547 63.0978 57.3066L60.0506 56.3244C58.1016 55.6813 56.9597 54.1041 56.4238 52.1222L55.0828 45.5903C55.0631 45.5159 54.9931 45.3803 54.9122 45.3409L55.3453 51.8969C55.6669 54.8894 55.9425 56.2981 58.3313 56.7094C60.3831 57.0638 62.7566 57.4706 63.3866 57.58Z" fill="#FFEE58"/>
<path d="M63.3931 57.9213L58.1081 59.1331C56.2466 59.6056 55.2206 60.6841 55.2206 63.506L54.7022 70.2741C54.8794 70.2566 55.0237 70.1603 55.085 69.9131L56.4281 63.4535C56.9662 61.4781 58.0994 59.9031 60.0419 59.26L63.1109 58.2035C63.2553 58.151 63.3472 58.0438 63.3931 57.9213Z" fill="#F4B400"/>
<path d="M45.6459 62.9897C43.8238 62.3881 43.6575 61.71 43.3513 60.566L42.5878 57.8885C42.5419 57.7156 42.0913 57.7156 42.0431 57.8885L41.5247 60.3625C41.2162 61.5022 40.56 62.4078 39.44 62.7775L37.655 63.5519C37.4078 63.6328 37.4034 63.9828 37.6506 64.066L39.4487 64.7025C40.5644 65.0722 41.2162 65.9778 41.5269 67.1131L42.0453 69.48C42.0934 69.6528 42.5419 69.6528 42.5878 69.48L43.1959 67.1241C43.5044 65.9822 43.9769 65.0744 45.4928 64.7025L47.1816 64.066C47.4288 63.9806 47.4266 63.6306 47.1772 63.5497L45.6459 62.9897Z" fill="#FDD835"/>
<path d="M42.7322 60.5265C42.9181 62.2459 43.0122 62.7228 44.4056 63.0793L47.3084 63.6459C47.2778 63.6043 47.2341 63.5693 47.175 63.5518L45.6437 62.9897C44.0447 62.4428 43.6028 61.7472 43.3031 60.3559C43.0034 58.9647 42.6841 58.0568 42.6841 58.0568C42.5725 57.7572 42.4128 57.7725 42.4128 57.7725L42.7322 60.5265Z" fill="#FFEE58"/>
<path d="M42.7847 66.5291C42.7847 64.9081 43.6706 64.1053 45.0794 64.1053L47.2712 64.0156C47.2712 64.0156 47.1444 64.1841 46.9234 64.2366L45.4928 64.7025C44.2787 65.1903 43.7253 65.4353 43.3491 67.0956C43.3491 67.0956 42.8634 69.0272 42.7716 69.2306C42.6447 69.515 42.4937 69.5741 42.4937 69.5741L42.7847 66.5291Z" fill="#F4B400"/>
<path d="M49.5681 50.1556C49.6906 50.1141 49.6862 49.9391 49.5616 49.9041L47.8728 49.4491C47.6991 49.402 47.5405 49.3107 47.4125 49.1843C47.2845 49.0578 47.1914 48.9003 47.1422 48.7272L46.4772 45.9819C46.4444 45.8484 46.2541 45.8484 46.2212 45.9841L45.5956 48.7184C45.5483 48.8963 45.4545 49.0584 45.3238 49.188C45.1931 49.3176 45.0302 49.4099 44.8519 49.4556L43.1741 49.8909C43.0494 49.9238 43.0406 50.0988 43.1631 50.1425L44.9328 50.755C45.25 50.8644 45.495 51.1225 45.5912 51.4441L46.2234 53.9794C46.2562 54.1106 46.4444 54.1128 46.4772 53.9794L47.1312 51.4353C47.1797 51.2766 47.2653 51.1316 47.3809 51.0125C47.4966 50.8935 47.639 50.8037 47.7962 50.7506L49.5681 50.1556Z" fill="#F4B400" stroke="#F4B400" stroke-width="0.25" stroke-miterlimit="10"/>
</svg>
