<svg width="100" height="100" viewBox="0 0 100 100" fill="none" xmlns="http://www.w3.org/2000/svg">
<mask id="path-1-inside-1_576_10470" fill="white">
<path fill-rule="evenodd" clip-rule="evenodd" d="M69 0C68.4477 0 68.0029 0.448498 67.9727 0.999957C67.4538 10.476 59.6056 18 50 18C40.3944 18 32.5462 10.476 32.0273 0.999955C31.9971 0.448497 31.5523 0 31 0L4 0C1.79086 0 0 1.79086 0 4L0 31C0 31.5523 0.448497 31.9971 0.999955 32.0273C10.476 32.5462 18 40.3944 18 50C18 59.6056 10.476 67.4538 0.999957 67.9727C0.448498 68.0029 0 68.4477 0 69L0 96C0 98.2091 1.79086 100 4 100H31C31.5523 100 31.9971 99.5515 32.0273 99C32.5462 89.524 40.3944 82 50 82C59.6056 82 67.4538 89.524 67.9727 99C68.0029 99.5515 68.4477 100 69 100H96C98.2091 100 100 98.2091 100 96V69C100 68.4477 99.5515 68.0029 99 67.9727C89.524 67.4538 82 59.6056 82 50C82 40.3944 89.524 32.5462 99 32.0273C99.5515 31.9971 100 31.5523 100 31V4C100 1.79086 98.2091 0 96 0L69 0Z"/>
</mask>
<path fill-rule="evenodd" clip-rule="evenodd" d="M69 0C68.4477 0 68.0029 0.448498 67.9727 0.999957C67.4538 10.476 59.6056 18 50 18C40.3944 18 32.5462 10.476 32.0273 0.999955C31.9971 0.448497 31.5523 0 31 0L4 0C1.79086 0 0 1.79086 0 4L0 31C0 31.5523 0.448497 31.9971 0.999955 32.0273C10.476 32.5462 18 40.3944 18 50C18 59.6056 10.476 67.4538 0.999957 67.9727C0.448498 68.0029 0 68.4477 0 69L0 96C0 98.2091 1.79086 100 4 100H31C31.5523 100 31.9971 99.5515 32.0273 99C32.5462 89.524 40.3944 82 50 82C59.6056 82 67.4538 89.524 67.9727 99C68.0029 99.5515 68.4477 100 69 100H96C98.2091 100 100 98.2091 100 96V69C100 68.4477 99.5515 68.0029 99 67.9727C89.524 67.4538 82 59.6056 82 50C82 40.3944 89.524 32.5462 99 32.0273C99.5515 31.9971 100 31.5523 100 31V4C100 1.79086 98.2091 0 96 0L69 0Z" fill="#374151" fill-opacity="0.4"/>
<path d="M96 0V-1V0ZM99 32.0273L98.9454 31.0288L99 32.0273ZM99 67.9727L98.9454 68.9712L99 67.9727ZM32.0273 99L33.0258 99.0547L32.0273 99ZM0.999957 67.9727L0.945284 66.9742L0.999957 67.9727ZM32.0273 0.999955L31.0288 1.05463L32.0273 0.999955ZM67.9727 99L66.9742 99.0547L67.9727 99ZM67.9727 0.999957L66.9742 0.945284L67.9727 0.999957ZM69 0V-1V0ZM50 19C60.1396 19 68.4235 11.058 68.9712 1.05463L66.9742 0.945284C66.4842 9.89398 59.0716 17 50 17L50 19ZM31.0288 1.05463C31.5765 11.058 39.8604 19 50 19L50 17C40.9284 17 33.5158 9.89397 33.0258 0.945282L31.0288 1.05463ZM4 1L31 1V-1L4 -1V1ZM1 4C1 2.34315 2.34315 1 4 1V-1C1.23858 -1 -1 1.23858 -1 4H1ZM1 31L1 4H-1L-1 31H1ZM0.945282 33.0258C9.89397 33.5158 17 40.9284 17 50L19 50C19 39.8604 11.058 31.5765 1.05463 31.0288L0.945282 33.0258ZM17 50C17 59.0716 9.89398 66.4842 0.945284 66.9742L1.05463 68.9712C11.058 68.4235 19 60.1396 19 50L17 50ZM1 96L1 69H-1L-1 96H1ZM4 99C2.34315 99 1 97.6569 1 96H-1C-1 98.7614 1.23858 101 4 101L4 99ZM31 99H4L4 101H31V99ZM50 81C39.8604 81 31.5765 88.942 31.0288 98.9454L33.0258 99.0547C33.5158 90.106 40.9284 83 50 83V81ZM68.9712 98.9454C68.4235 88.942 60.1396 81 50 81V83C59.0716 83 66.4842 90.106 66.9742 99.0547L68.9712 98.9454ZM96 99H69V101H96V99ZM99 96C99 97.6569 97.6569 99 96 99V101C98.7614 101 101 98.7614 101 96H99ZM99 69V96H101V69H99ZM81 50C81 60.1396 88.942 68.4235 98.9454 68.9712L99.0547 66.9742C90.106 66.4842 83 59.0716 83 50H81ZM98.9454 31.0288C88.942 31.5765 81 39.8604 81 50H83C83 40.9284 90.106 33.5158 99.0547 33.0258L98.9454 31.0288ZM99 4V31H101V4L99 4ZM96 1C97.6569 1 99 2.34315 99 4L101 4C101 1.23858 98.7614 -1 96 -1V1ZM69 1L96 1V-1L69 -1V1ZM99.0547 33.0258C100.101 32.9685 101 32.1183 101 31H99C99 31.0012 98.9999 31.0012 99 31.0007C99.0001 31.0001 99.0003 30.9998 99.0002 30.9999C99.0002 31.0001 98.9987 31.0033 98.994 31.0081C98.9836 31.0187 98.9667 31.0276 98.9454 31.0288L99.0547 33.0258ZM101 69C101 67.8817 100.101 67.0315 99.0547 66.9742L98.9454 68.9712C98.9667 68.9724 98.9836 68.9813 98.994 68.9919C98.9987 68.9967 99.0002 68.9999 99.0002 69.0001C99.0003 69.0002 99.0001 68.9999 99 68.9994C98.9999 68.9988 99 68.9988 99 69H101ZM31 101C32.1183 101 32.9685 100.101 33.0258 99.0547L31.0288 98.9454C31.0276 98.9667 31.0187 98.9836 31.0081 98.994C31.0033 98.9987 31.0001 99.0002 30.9999 99.0002C30.9998 99.0003 31.0001 99.0001 31.0006 99C31.0012 98.9999 31.0012 99 31 99V101ZM-1 31C-1 32.1183 -0.100789 32.9685 0.945282 33.0258L1.05463 31.0288C1.03335 31.0276 1.0164 31.0187 1.006 31.0081C1.00127 31.0033 0.999846 31.0001 0.999767 30.9999C0.999738 30.9998 0.999868 31.0001 0.999977 31.0007C1.0001 31.0012 1 31.0012 1 31H-1ZM0.945284 66.9742C-0.100785 67.0315 -1 67.8817 -1 69H1C1 68.9988 1.0001 68.9988 0.999977 68.9994C0.999868 68.9999 0.999738 69.0002 0.999766 69.0001C0.999846 68.9999 1.00127 68.9967 1.006 68.9919C1.0164 68.9813 1.03335 68.9724 1.05463 68.9712L0.945284 66.9742ZM33.0258 0.945282C32.9685 -0.100789 32.1183 -1 31 -1V1C31.0012 1 31.0012 1.0001 31.0007 0.999977C31.0001 0.999868 30.9998 0.999738 30.9999 0.999766C31.0001 0.999846 31.0033 1.00127 31.0081 1.006C31.0187 1.0164 31.0276 1.03335 31.0288 1.05463L33.0258 0.945282ZM66.9742 99.0547C67.0315 100.101 67.8817 101 69 101V99C68.9988 99 68.9988 98.9999 68.9994 99C68.9999 99.0001 69.0002 99.0003 69.0001 99.0002C68.9999 99.0002 68.9967 98.9987 68.9919 98.994C68.9813 98.9836 68.9724 98.9667 68.9712 98.9454L66.9742 99.0547ZM68.9712 1.05463C68.9724 1.03335 68.9813 1.0164 68.9919 1.006C68.9967 1.00127 68.9999 0.999846 69.0001 0.999766C69.0002 0.999738 68.9999 0.999868 68.9994 0.999977C68.9988 1.0001 68.9988 1 69 1V-1C67.8817 -1 67.0315 -0.100786 66.9742 0.945284L68.9712 1.05463Z" fill="#374151" mask="url(#path-1-inside-1_576_10470)"/>
<path d="M18.9654 72.112C18.752 72.112 18.592 72.0533 18.4854 71.936C18.3787 71.8187 18.3254 71.6533 18.3254 71.44V61.264C18.3254 61.0507 18.3787 60.8907 18.4854 60.784C18.592 60.6667 18.752 60.608 18.9654 60.608C19.168 60.608 19.328 60.6667 19.4454 60.784C19.5627 60.8907 19.6214 61.0507 19.6214 61.264V65.952H19.4134C19.6374 65.3333 20 64.8693 20.5014 64.56C21.0134 64.24 21.6 64.08 22.2614 64.08C22.88 64.08 23.392 64.192 23.7974 64.416C24.2134 64.64 24.5227 64.9813 24.7254 65.44C24.928 65.888 25.0294 66.4587 25.0294 67.152V71.44C25.0294 71.6533 24.9707 71.8187 24.8534 71.936C24.7467 72.0533 24.592 72.112 24.3894 72.112C24.176 72.112 24.0107 72.0533 23.8934 71.936C23.7867 71.8187 23.7334 71.6533 23.7334 71.44V67.232C23.7334 66.5067 23.5894 65.9787 23.3014 65.648C23.024 65.3067 22.576 65.136 21.9574 65.136C21.2427 65.136 20.672 65.36 20.2454 65.808C19.8294 66.2453 19.6214 66.832 19.6214 67.568V71.44C19.6214 71.888 19.4027 72.112 18.9654 72.112ZM30.6511 72.144C29.8938 72.144 29.2378 71.9787 28.6831 71.648C28.1285 71.3173 27.6965 70.8533 27.3871 70.256C27.0885 69.648 26.9391 68.9333 26.9391 68.112C26.9391 67.4933 27.0245 66.9387 27.1951 66.448C27.3658 65.9467 27.6165 65.52 27.9471 65.168C28.2778 64.816 28.6671 64.5493 29.1151 64.368C29.5738 64.176 30.0858 64.08 30.6511 64.08C31.4085 64.08 32.0645 64.2453 32.6191 64.576C33.1738 64.9067 33.6005 65.376 33.8991 65.984C34.2085 66.5813 34.3631 67.2907 34.3631 68.112C34.3631 68.7307 34.2778 69.2853 34.1071 69.776C33.9365 70.2667 33.6858 70.6933 33.3551 71.056C33.0245 71.408 32.6298 71.68 32.1711 71.872C31.7231 72.0533 31.2165 72.144 30.6511 72.144ZM30.6511 71.104C31.1311 71.104 31.5525 70.9867 31.9151 70.752C32.2778 70.5173 32.5551 70.176 32.7471 69.728C32.9498 69.28 33.0511 68.7413 33.0511 68.112C33.0511 67.1413 32.8325 66.4 32.3951 65.888C31.9685 65.376 31.3871 65.12 30.6511 65.12C30.1605 65.12 29.7338 65.2373 29.3711 65.472C29.0191 65.696 28.7418 66.032 28.5391 66.48C28.3471 66.9173 28.2511 67.4613 28.2511 68.112C28.2511 69.072 28.4698 69.8133 28.9071 70.336C29.3445 70.848 29.9258 71.104 30.6511 71.104ZM39.5418 72.144C38.7844 72.144 38.1284 71.9787 37.5738 71.648C37.0191 71.3173 36.5871 70.8533 36.2778 70.256C35.9791 69.648 35.8298 68.9333 35.8298 68.112C35.8298 67.4933 35.9151 66.9387 36.0858 66.448C36.2564 65.9467 36.5071 65.52 36.8378 65.168C37.1684 64.816 37.5578 64.5493 38.0058 64.368C38.4644 64.176 38.9764 64.08 39.5418 64.08C40.2991 64.08 40.9551 64.2453 41.5098 64.576C42.0644 64.9067 42.4911 65.376 42.7898 65.984C43.0991 66.5813 43.2538 67.2907 43.2538 68.112C43.2538 68.7307 43.1684 69.2853 42.9978 69.776C42.8271 70.2667 42.5764 70.6933 42.2458 71.056C41.9151 71.408 41.5204 71.68 41.0618 71.872C40.6138 72.0533 40.1071 72.144 39.5418 72.144ZM39.5418 71.104C40.0218 71.104 40.4431 70.9867 40.8058 70.752C41.1684 70.5173 41.4458 70.176 41.6378 69.728C41.8404 69.28 41.9418 68.7413 41.9418 68.112C41.9418 67.1413 41.7231 66.4 41.2858 65.888C40.8591 65.376 40.2778 65.12 39.5418 65.12C39.0511 65.12 38.6244 65.2373 38.2618 65.472C37.9098 65.696 37.6324 66.032 37.4298 66.48C37.2378 66.9173 37.1418 67.4613 37.1418 68.112C37.1418 69.072 37.3604 69.8133 37.7978 70.336C38.2351 70.848 38.8164 71.104 39.5418 71.104ZM45.8404 72.112C45.627 72.112 45.467 72.0533 45.3604 71.936C45.2537 71.8187 45.2004 71.6533 45.2004 71.44V61.264C45.2004 61.0507 45.2537 60.8907 45.3604 60.784C45.467 60.6667 45.627 60.608 45.8404 60.608C46.043 60.608 46.203 60.6667 46.3204 60.784C46.4377 60.8907 46.4964 61.0507 46.4964 61.264V67.68H46.5284L49.8084 64.544C49.9577 64.4053 50.0857 64.2987 50.1924 64.224C50.3097 64.1493 50.4644 64.112 50.6564 64.112C50.827 64.112 50.9604 64.16 51.0564 64.256C51.1524 64.3413 51.195 64.4533 51.1844 64.592C51.1844 64.72 51.1204 64.8587 50.9924 65.008L47.5044 68.32V67.616L51.2964 71.184C51.4457 71.3333 51.5204 71.4773 51.5204 71.616C51.5204 71.7547 51.467 71.872 51.3604 71.968C51.2644 72.064 51.1364 72.112 50.9764 72.112C50.7844 72.112 50.6297 72.0747 50.5124 72C50.395 71.9147 50.251 71.792 50.0804 71.632L46.5284 68.352H46.4964V71.44C46.4964 71.888 46.2777 72.112 45.8404 72.112ZM55.5703 72.144C55.0369 72.144 54.5569 72.0427 54.1303 71.84C53.7143 71.6267 53.3836 71.3387 53.1383 70.976C52.8929 70.6133 52.7703 70.208 52.7703 69.76C52.7703 69.184 52.9143 68.7307 53.2023 68.4C53.5009 68.0693 53.9863 67.8347 54.6583 67.696C55.3409 67.5573 56.2689 67.488 57.4423 67.488H58.1623V68.336H57.4583C56.5943 68.336 55.9116 68.3787 55.4103 68.464C54.9196 68.5387 54.5729 68.672 54.3703 68.864C54.1783 69.056 54.0823 69.328 54.0823 69.68C54.0823 70.1173 54.2316 70.4747 54.5303 70.752C54.8396 71.0293 55.2556 71.168 55.7783 71.168C56.2049 71.168 56.5783 71.0667 56.8983 70.864C57.2289 70.6613 57.4849 70.384 57.6663 70.032C57.8583 69.68 57.9543 69.2747 57.9543 68.816V66.992C57.9543 66.3307 57.8209 65.856 57.5543 65.568C57.2876 65.2693 56.8503 65.12 56.2423 65.12C55.8689 65.12 55.4956 65.168 55.1223 65.264C54.7489 65.36 54.3543 65.5147 53.9383 65.728C53.7889 65.8027 53.6609 65.8293 53.5543 65.808C53.4476 65.776 53.3623 65.7173 53.2983 65.632C53.2343 65.5467 53.1969 65.4507 53.1863 65.344C53.1756 65.2267 53.1969 65.1147 53.2503 65.008C53.3143 64.9013 53.4103 64.816 53.5383 64.752C54.0076 64.5173 54.4716 64.3467 54.9303 64.24C55.3889 64.1333 55.8263 64.08 56.2423 64.08C56.9143 64.08 57.4689 64.192 57.9063 64.416C58.3436 64.6293 58.6689 64.96 58.8823 65.408C59.0956 65.8453 59.2023 66.4107 59.2023 67.104V71.44C59.2023 71.6533 59.1489 71.8187 59.0423 71.936C58.9463 72.0533 58.8023 72.112 58.6103 72.112C58.4076 72.112 58.2529 72.0533 58.1463 71.936C58.0396 71.8187 57.9863 71.6533 57.9863 71.44V70.192H58.1303C58.0449 70.5973 57.8796 70.944 57.6343 71.232C57.3996 71.52 57.1063 71.744 56.7543 71.904C56.4023 72.064 56.0076 72.144 55.5703 72.144ZM65.5426 72.144C64.8386 72.144 64.2306 71.9627 63.7186 71.6C63.2173 71.2373 62.8813 70.752 62.7106 70.144L62.8866 69.968V71.44C62.8866 71.6533 62.828 71.8187 62.7106 71.936C62.604 72.0533 62.4493 72.112 62.2466 72.112C62.0333 72.112 61.8733 72.0533 61.7666 71.936C61.66 71.8187 61.6066 71.6533 61.6066 71.44V61.264C61.6066 61.0507 61.66 60.8907 61.7666 60.784C61.8733 60.6667 62.0333 60.608 62.2466 60.608C62.4493 60.608 62.6093 60.6667 62.7266 60.784C62.844 60.8907 62.9026 61.0507 62.9026 61.264V66.032H62.7106C62.892 65.4347 63.2333 64.96 63.7346 64.608C64.236 64.256 64.8386 64.08 65.5426 64.08C66.2466 64.08 66.8546 64.2453 67.3666 64.576C67.8786 64.896 68.2733 65.36 68.5506 65.968C68.8386 66.5653 68.9826 67.28 68.9826 68.112C68.9826 68.9333 68.8386 69.648 68.5506 70.256C68.2733 70.8533 67.8733 71.3173 67.3506 71.648C66.8386 71.9787 66.236 72.144 65.5426 72.144ZM65.2706 71.104C65.7613 71.104 66.1826 70.9867 66.5346 70.752C66.8973 70.5173 67.1746 70.176 67.3666 69.728C67.5693 69.28 67.6706 68.7413 67.6706 68.112C67.6706 67.1413 67.452 66.4 67.0146 65.888C66.588 65.376 66.0066 65.12 65.2706 65.12C64.7906 65.12 64.3693 65.2373 64.0066 65.472C63.644 65.696 63.3613 66.032 63.1586 66.48C62.9666 66.9173 62.8706 67.4613 62.8706 68.112C62.8706 69.072 63.0893 69.8133 63.5266 70.336C63.964 70.848 64.5453 71.104 65.2706 71.104ZM73.3028 72.144C72.5348 72.144 71.9481 71.9093 71.5428 71.44C71.1374 70.9707 70.9348 70.2987 70.9348 69.424V61.264C70.9348 61.0507 70.9881 60.8907 71.0948 60.784C71.2014 60.6667 71.3614 60.608 71.5748 60.608C71.7774 60.608 71.9374 60.6667 72.0548 60.784C72.1721 60.8907 72.2308 61.0507 72.2308 61.264V69.328C72.2308 69.904 72.3428 70.336 72.5668 70.624C72.8014 70.9013 73.1428 71.04 73.5908 71.04C73.6868 71.04 73.7721 71.0347 73.8468 71.024C73.9214 71.0133 73.9961 71.008 74.0708 71.008C74.1881 70.9973 74.2681 71.024 74.3108 71.088C74.3641 71.152 74.3908 71.28 74.3908 71.472C74.3908 71.664 74.3481 71.808 74.2628 71.904C74.1774 72 74.0388 72.064 73.8468 72.096C73.7614 72.1067 73.6708 72.1173 73.5748 72.128C73.4788 72.1387 73.3881 72.144 73.3028 72.144ZM79.095 72.144C78.2737 72.144 77.5643 71.984 76.967 71.664C76.3803 71.3333 75.9217 70.8693 75.591 70.272C75.271 69.6747 75.111 68.96 75.111 68.128C75.111 67.3173 75.271 66.6133 75.591 66.016C75.911 65.408 76.3483 64.9333 76.903 64.592C77.4683 64.2507 78.119 64.08 78.855 64.08C79.3777 64.08 79.847 64.1707 80.263 64.352C80.679 64.5227 81.031 64.7733 81.319 65.104C81.6177 65.4347 81.8417 65.8347 81.991 66.304C82.151 66.7733 82.231 67.3013 82.231 67.888C82.231 68.0587 82.183 68.1867 82.087 68.272C81.991 68.3467 81.8523 68.384 81.671 68.384H76.103V67.536H81.367L81.111 67.744C81.111 67.168 81.0257 66.6827 80.855 66.288C80.6843 65.8827 80.4337 65.5733 80.103 65.36C79.783 65.1467 79.3777 65.04 78.887 65.04C78.343 65.04 77.879 65.168 77.495 65.424C77.1217 65.6693 76.839 66.016 76.647 66.464C76.455 66.9013 76.359 67.4133 76.359 68V68.096C76.359 69.0773 76.5937 69.824 77.063 70.336C77.543 70.848 78.2203 71.104 79.095 71.104C79.4577 71.104 79.815 71.056 80.167 70.96C80.5297 70.864 80.8817 70.704 81.223 70.48C81.3723 70.384 81.5057 70.3413 81.623 70.352C81.751 70.352 81.8523 70.3893 81.927 70.464C82.0017 70.528 82.0497 70.6133 82.071 70.72C82.103 70.816 82.0923 70.9227 82.039 71.04C81.9963 71.1573 81.9057 71.2587 81.767 71.344C81.415 71.6 80.999 71.7973 80.519 71.936C80.039 72.0747 79.5643 72.144 79.095 72.144Z" fill="#F9FAFB"/>
<path d="M42.0834 40.9166C39.2266 46.0353 42.4356 51.7775 47.4669 52.9106C50.8072 53.6631 54.7228 53.0703 56.7156 50.4453C59.0912 47.3194 58.6669 44.3947 58.3103 43.0822C57.8466 41.3672 57.8684 40.3959 58.3934 39.7988C58.9819 39.1294 59.0716 38.7619 58.9316 38.3506C58.7544 37.8344 58.3169 37.6922 57.7744 37.7359C56.8075 37.8125 55.5519 38.3441 55.3703 40.4594C55.2544 41.82 56.1009 45.3966 51.75 45.8428C48.2763 46.1972 46.7188 42.0978 47.8016 40.0416C48.5606 38.6022 49.0878 37.9984 52.0234 34.7522C53.8566 32.7244 54.0797 31.5541 54.0797 30.8672C54.0797 28.4566 51.9906 26.5338 49.5231 26.8116C47.6484 27.0216 46.1391 28.5397 45.9378 30.4166C45.8022 31.6678 46.2353 32.8184 47.0075 33.6475C47.3531 34.0172 47.3772 34.5838 47.0469 34.9666C46.7406 35.3231 46.3775 35.7738 45.8788 36.29C44.295 37.9306 43.3981 38.5606 42.0834 40.9166ZM51.4109 30.8694C51.4109 31.8581 50.735 32.6588 49.9016 32.6588C49.0681 32.6588 48.3922 31.8581 48.3922 30.8694C48.3922 29.8806 49.0681 29.08 49.9016 29.08C50.735 29.08 51.4109 29.8806 51.4109 30.8694Z" fill="#FFCA28"/>
<path d="M42.0834 40.9166C39.2266 46.0353 42.4356 51.7775 47.4669 52.9106C50.8072 53.6631 54.7228 53.0703 56.7156 50.4453C59.0912 47.3194 58.6669 44.3947 58.3103 43.0822C57.8466 41.3672 57.8684 40.3959 58.3934 39.7988C58.9819 39.1294 59.0716 38.7619 58.9316 38.3506C58.7544 37.8344 58.3169 37.6922 57.7744 37.7359C56.8075 37.8125 55.5519 38.3441 55.3703 40.4594C55.2544 41.82 56.1009 45.3966 51.75 45.8428C48.2763 46.1972 46.7188 42.0978 47.8016 40.0416C48.5606 38.6022 49.0878 37.9984 52.0234 34.7522C53.8566 32.7244 54.0797 31.5541 54.0797 30.8672C54.0797 28.4566 51.9906 26.5338 49.5231 26.8116C47.6484 27.0216 46.1391 28.5397 45.9378 30.4166C45.8022 31.6678 46.2353 32.8184 47.0075 33.6475C47.3531 34.0172 47.3772 34.5838 47.0469 34.9666C46.7406 35.3231 46.3775 35.7738 45.8788 36.29C44.295 37.9306 43.3981 38.5606 42.0834 40.9166ZM51.1922 30.8694C51.1922 31.8581 50.5162 32.6588 49.6828 32.6588C48.8494 32.6588 48.1734 31.8581 48.1734 30.8694C48.1734 29.8806 48.8494 29.08 49.6828 29.08C50.5162 29.08 51.1922 29.8806 51.1922 30.8694Z" fill="#FFCA28"/>
<path d="M50.28 47.8597C47.9612 47.4528 46.3819 45.3725 46.1041 44.7206C45.8525 44.13 45.1875 44.3291 45.6359 46.1622C45.9291 47.3631 46.7209 48.4066 47.7709 49.0584C49.3678 50.0494 51.4437 50.1697 53.0516 49.2816C54.9591 48.225 55.7291 46.5953 55.6481 45.8013C55.635 45.6744 55.4184 45.1931 54.9 46.1863C54.7294 46.5078 52.5987 48.2666 50.28 47.8597Z" fill="#FFF59D"/>
<path d="M53.0537 47.7219C55.5584 46.4794 55.7531 44.4341 55.3637 41.8047C55.3506 43.4059 55.0159 45.5081 51.7478 45.8428C48.2762 46.1994 46.7516 42.1153 47.8016 40.0438C48.7181 38.2303 50.9275 35.9684 50.9275 35.9684C50.9275 35.9684 48.2741 37.8016 47.0534 40C45.8919 42.0891 45.4872 44.8716 47.2459 46.6194C47.9634 47.3303 48.8603 47.8728 49.8469 48.1113C50.9406 48.3716 52.0519 48.2206 53.0537 47.7219Z" fill="#E2A610"/>
<path d="M57.8028 38.3047C58.1856 38.5825 57.735 38.9653 57.4331 39.0834C56.6128 39.4006 56.265 40.2209 56.1644 39.9081C56.0725 39.6194 56.1819 39.16 56.7244 38.6C56.9803 38.3353 57.5294 38.1056 57.8028 38.3047ZM49.4203 27.8069C49.72 28.3734 49.055 28.4544 48.6722 28.6359C47.2941 29.29 47.4516 30.8475 47.1344 30.7753C46.8172 30.7031 46.7209 30.1847 46.7341 29.9331C46.7756 29.0625 47.2656 28.3844 47.6156 28.1175C48.4578 27.4722 49.1928 27.3803 49.4203 27.8069Z" fill="#FFF59D"/>
<path d="M49.1512 30.8694C49.1512 30.084 49.5778 29.419 50.1728 29.1784C50.0197 29.1172 49.8556 29.08 49.685 29.08C48.8516 29.08 48.1756 29.8806 48.1756 30.8694C48.1756 31.8581 48.8516 32.6587 49.685 32.6587C49.8556 32.6587 50.0197 32.6237 50.1728 32.5603C49.5778 32.3197 49.1512 31.6547 49.1512 30.8694Z" fill="#E2A610"/>
</svg>
