<svg width="101" height="136" viewBox="0 0 101 136" fill="none" xmlns="http://www.w3.org/2000/svg">
<mask id="path-1-inside-1_673_8595" fill="white">
<path fill-rule="evenodd" clip-rule="evenodd" d="M69.5 18C68.9477 18 68.5029 17.5515 68.4727 17C67.9538 7.52403 60.1056 0 50.5 0C40.8944 0 33.0462 7.52403 32.5273 17C32.4971 17.5515 32.0523 18 31.5 18L4.5 18C2.29086 18 0.5 19.7909 0.5 22L0.5 49C0.5 49.5523 0.948497 49.9971 1.49996 50.0273C10.976 50.5462 18.5 58.3944 18.5 68C18.5 77.6056 10.976 85.4538 1.49996 85.9727C0.948498 86.0029 0.5 86.4477 0.5 87L0.5 114C0.5 116.209 2.29086 118 4.5 118L31.5 118C32.0523 118 32.4971 118.448 32.5273 119C33.0462 128.476 40.8944 136 50.5 136C60.1056 136 67.9538 128.476 68.4727 119C68.5029 118.448 68.9477 118 69.5 118L96.5 118C98.7091 118 100.5 116.209 100.5 114V87C100.5 86.4477 100.052 86.0029 99.5 85.9727C90.024 85.4538 82.5 77.6056 82.5 68C82.5 58.3944 90.024 50.5462 99.5 50.0273C100.052 49.9971 100.5 49.5523 100.5 49V22C100.5 19.7909 98.7091 18 96.5 18L69.5 18Z"/>
</mask>
<path fill-rule="evenodd" clip-rule="evenodd" d="M69.5 18C68.9477 18 68.5029 17.5515 68.4727 17C67.9538 7.52403 60.1056 0 50.5 0C40.8944 0 33.0462 7.52403 32.5273 17C32.4971 17.5515 32.0523 18 31.5 18L4.5 18C2.29086 18 0.5 19.7909 0.5 22L0.5 49C0.5 49.5523 0.948497 49.9971 1.49996 50.0273C10.976 50.5462 18.5 58.3944 18.5 68C18.5 77.6056 10.976 85.4538 1.49996 85.9727C0.948498 86.0029 0.5 86.4477 0.5 87L0.5 114C0.5 116.209 2.29086 118 4.5 118L31.5 118C32.0523 118 32.4971 118.448 32.5273 119C33.0462 128.476 40.8944 136 50.5 136C60.1056 136 67.9538 128.476 68.4727 119C68.5029 118.448 68.9477 118 69.5 118L96.5 118C98.7091 118 100.5 116.209 100.5 114V87C100.5 86.4477 100.052 86.0029 99.5 85.9727C90.024 85.4538 82.5 77.6056 82.5 68C82.5 58.3944 90.024 50.5462 99.5 50.0273C100.052 49.9971 100.5 49.5523 100.5 49V22C100.5 19.7909 98.7091 18 96.5 18L69.5 18Z" fill="#374151" fill-opacity="0.4"/>
<path d="M0.5 114H-0.5H0.5ZM99.5 50.0273L99.4454 49.0288L99.5 50.0273ZM99.5 85.9727L99.5547 84.9742L99.5 85.9727ZM32.5273 119L31.5288 119.055L32.5273 119ZM1.49996 85.9727L1.44528 84.9742L1.49996 85.9727ZM32.5273 17L31.5288 16.9454L32.5273 17ZM68.4727 119L69.4712 119.055L68.4727 119ZM68.4727 17L67.4742 17.0547L68.4727 17ZM50.5 1C59.5716 1 66.9842 8.10603 67.4742 17.0547L69.4712 16.9454C68.9235 6.94204 60.6396 -1 50.5 -1V1ZM33.5258 17.0547C34.0158 8.10603 41.4284 1 50.5 1V-1C40.3604 -1 32.0765 6.94204 31.5288 16.9454L33.5258 17.0547ZM31.5 17L4.5 17V19L31.5 19V17ZM4.5 17C1.73858 17 -0.5 19.2386 -0.5 22H1.5C1.5 20.3431 2.84315 19 4.5 19V17ZM-0.5 22L-0.5 49H1.5L1.5 22H-0.5ZM1.44528 51.0258C10.394 51.5158 17.5 58.9284 17.5 68H19.5C19.5 57.8604 11.558 49.5765 1.55463 49.0288L1.44528 51.0258ZM17.5 68C17.5 77.0716 10.394 84.4842 1.44528 84.9742L1.55463 86.9712C11.558 86.4235 19.5 78.1396 19.5 68H17.5ZM-0.5 87L-0.5 114H1.5L1.5 87H-0.5ZM-0.5 114C-0.5 116.761 1.73858 119 4.5 119V117C2.84315 117 1.5 115.657 1.5 114H-0.5ZM4.5 119L31.5 119V117L4.5 117V119ZM31.5288 119.055C32.0765 129.058 40.3604 137 50.5 137V135C41.4284 135 34.0158 127.894 33.5258 118.945L31.5288 119.055ZM50.5 137C60.6396 137 68.9235 129.058 69.4712 119.055L67.4742 118.945C66.9842 127.894 59.5716 135 50.5 135V137ZM69.5 119L96.5 119V117L69.5 117V119ZM96.5 119C99.2614 119 101.5 116.761 101.5 114H99.5C99.5 115.657 98.1569 117 96.5 117V119ZM101.5 114V87H99.5V114H101.5ZM99.5547 84.9742C90.606 84.4842 83.5 77.0716 83.5 68H81.5C81.5 78.1396 89.442 86.4235 99.4454 86.9712L99.5547 84.9742ZM83.5 68C83.5 58.9284 90.606 51.5158 99.5547 51.0258L99.4454 49.0288C89.442 49.5765 81.5 57.8604 81.5 68H83.5ZM101.5 49V22H99.5V49H101.5ZM101.5 22C101.5 19.2386 99.2614 17 96.5 17V19C98.1569 19 99.5 20.3431 99.5 22H101.5ZM96.5 17L69.5 17V19L96.5 19V17ZM99.5547 51.0258C100.601 50.9685 101.5 50.1183 101.5 49H99.5C99.5 49.0012 99.4999 49.0012 99.5 49.0006C99.5001 49.0001 99.5003 48.9998 99.5002 48.9999C99.5002 49.0001 99.4987 49.0033 99.494 49.0081C99.4836 49.0187 99.4666 49.0276 99.4454 49.0288L99.5547 51.0258ZM101.5 87C101.5 85.8817 100.601 85.0315 99.5547 84.9742L99.4454 86.9712C99.4667 86.9724 99.4836 86.9813 99.494 86.9919C99.4987 86.9967 99.5002 86.9999 99.5002 87.0001C99.5003 87.0002 99.5001 86.9999 99.5 86.9993C99.4999 86.9988 99.5 86.9988 99.5 87H101.5ZM31.5 119C31.5012 119 31.5012 119 31.5007 119C31.5001 119 31.4998 119 31.4999 119C31.5001 119 31.5033 119.001 31.5081 119.006C31.5187 119.016 31.5276 119.033 31.5288 119.055L33.5258 118.945C33.4685 117.899 32.6183 117 31.5 117V119ZM-0.5 49C-0.5 50.1183 0.399211 50.9685 1.44528 51.0258L1.55463 49.0288C1.53335 49.0276 1.5164 49.0187 1.506 49.0081C1.50127 49.0033 1.49985 49.0001 1.49977 48.9999C1.49974 48.9998 1.49987 49.0001 1.49998 49.0007C1.5001 49.0012 1.5 49.0012 1.5 49H-0.5ZM1.44528 84.9742C0.399214 85.0315 -0.5 85.8817 -0.5 87H1.5C1.5 86.9988 1.5001 86.9988 1.49998 86.9994C1.49987 86.9999 1.49974 87.0002 1.49977 87.0001C1.49985 86.9999 1.50127 86.9967 1.506 86.9919C1.5164 86.9813 1.53335 86.9724 1.55463 86.9712L1.44528 84.9742ZM31.5288 16.9454C31.5276 16.9667 31.5187 16.9836 31.5081 16.994C31.5033 16.9987 31.5001 17.0002 31.4999 17.0002C31.4998 17.0003 31.5001 17.0001 31.5006 17C31.5012 16.9999 31.5012 17 31.5 17V19C32.6183 19 33.4685 18.1008 33.5258 17.0547L31.5288 16.9454ZM69.4712 119.055C69.4724 119.033 69.4813 119.016 69.4919 119.006C69.4967 119.001 69.4999 119 69.5001 119C69.5002 119 69.4999 119 69.4994 119C69.4988 119 69.4988 119 69.5 119V117C68.3817 117 67.5315 117.899 67.4742 118.945L69.4712 119.055ZM67.4742 17.0547C67.5315 18.1008 68.3817 19 69.5 19V17C69.4988 17 69.4988 16.9999 69.4994 17C69.4999 17.0001 69.5002 17.0003 69.5001 17.0002C69.4999 17.0002 69.4967 16.9987 69.4919 16.994C69.4813 16.9836 69.4724 16.9666 69.4712 16.9454L67.4742 17.0547Z" fill="#374151" mask="url(#path-1-inside-1_673_8595)"/>
<path d="M34.7533 89.084C34.5933 89.084 34.4733 89.04 34.3933 88.952C34.3133 88.864 34.2733 88.74 34.2733 88.58V80.948C34.2733 80.788 34.3133 80.668 34.3933 80.588C34.4733 80.5 34.5933 80.456 34.7533 80.456C34.9053 80.456 35.0253 80.5 35.1133 80.588C35.2013 80.668 35.2453 80.788 35.2453 80.948V84.464H35.0893C35.2573 84 35.5293 83.652 35.9053 83.42C36.2893 83.18 36.7293 83.06 37.2253 83.06C37.6893 83.06 38.0733 83.144 38.3773 83.312C38.6893 83.48 38.9213 83.736 39.0733 84.08C39.2253 84.416 39.3013 84.844 39.3013 85.364V88.58C39.3013 88.74 39.2573 88.864 39.1693 88.952C39.0893 89.04 38.9733 89.084 38.8213 89.084C38.6613 89.084 38.5373 89.04 38.4493 88.952C38.3693 88.864 38.3293 88.74 38.3293 88.58V85.424C38.3293 84.88 38.2213 84.484 38.0053 84.236C37.7973 83.98 37.4613 83.852 36.9973 83.852C36.4613 83.852 36.0333 84.02 35.7133 84.356C35.4013 84.684 35.2453 85.124 35.2453 85.676V88.58C35.2453 88.916 35.0813 89.084 34.7533 89.084ZM43.4336 89.108C42.9776 89.108 42.5936 89.028 42.2816 88.868C41.9776 88.7 41.7496 88.46 41.5976 88.148C41.4456 87.828 41.3696 87.44 41.3696 86.984V83.924H40.5656C40.4296 83.924 40.3256 83.892 40.2536 83.828C40.1816 83.756 40.1456 83.66 40.1456 83.54C40.1456 83.42 40.1816 83.328 40.2536 83.264C40.3256 83.2 40.4296 83.168 40.5656 83.168H41.3696V81.788C41.3696 81.628 41.4136 81.508 41.5016 81.428C41.5896 81.34 41.7096 81.296 41.8616 81.296C42.0136 81.296 42.1296 81.34 42.2096 81.428C42.2976 81.508 42.3416 81.628 42.3416 81.788V83.168H43.8536C43.9896 83.168 44.0936 83.2 44.1656 83.264C44.2376 83.328 44.2736 83.42 44.2736 83.54C44.2736 83.66 44.2376 83.756 44.1656 83.828C44.0936 83.892 43.9896 83.924 43.8536 83.924H42.3416V86.888C42.3416 87.344 42.4376 87.692 42.6296 87.932C42.8216 88.164 43.1336 88.28 43.5656 88.28C43.7176 88.28 43.8456 88.264 43.9496 88.232C44.0616 88.2 44.1536 88.184 44.2256 88.184C44.2976 88.176 44.3576 88.2 44.4056 88.256C44.4536 88.312 44.4776 88.408 44.4776 88.544C44.4776 88.64 44.4576 88.728 44.4176 88.808C44.3856 88.888 44.3256 88.944 44.2376 88.976C44.1416 89.008 44.0136 89.036 43.8536 89.06C43.7016 89.092 43.5616 89.108 43.4336 89.108ZM47.4766 89.108C47.0206 89.108 46.6366 89.028 46.3246 88.868C46.0206 88.7 45.7926 88.46 45.6406 88.148C45.4886 87.828 45.4126 87.44 45.4126 86.984V83.924H44.6086C44.4726 83.924 44.3686 83.892 44.2966 83.828C44.2246 83.756 44.1886 83.66 44.1886 83.54C44.1886 83.42 44.2246 83.328 44.2966 83.264C44.3686 83.2 44.4726 83.168 44.6086 83.168H45.4126V81.788C45.4126 81.628 45.4566 81.508 45.5446 81.428C45.6326 81.34 45.7526 81.296 45.9046 81.296C46.0566 81.296 46.1726 81.34 46.2526 81.428C46.3406 81.508 46.3846 81.628 46.3846 81.788V83.168H47.8966C48.0326 83.168 48.1366 83.2 48.2086 83.264C48.2806 83.328 48.3166 83.42 48.3166 83.54C48.3166 83.66 48.2806 83.756 48.2086 83.828C48.1366 83.892 48.0326 83.924 47.8966 83.924H46.3846V86.888C46.3846 87.344 46.4806 87.692 46.6726 87.932C46.8646 88.164 47.1766 88.28 47.6086 88.28C47.7606 88.28 47.8886 88.264 47.9926 88.232C48.1046 88.2 48.1966 88.184 48.2686 88.184C48.3406 88.176 48.4006 88.2 48.4486 88.256C48.4966 88.312 48.5206 88.408 48.5206 88.544C48.5206 88.64 48.5006 88.728 48.4606 88.808C48.4286 88.888 48.3686 88.944 48.2806 88.976C48.1846 89.008 48.0566 89.036 47.8966 89.06C47.7446 89.092 47.6046 89.108 47.4766 89.108ZM49.8119 91.244C49.6519 91.244 49.5319 91.2 49.4519 91.112C49.3719 91.032 49.3319 90.912 49.3319 90.752V83.576C49.3319 83.416 49.3719 83.296 49.4519 83.216C49.5319 83.128 49.6479 83.084 49.7999 83.084C49.9599 83.084 50.0799 83.128 50.1599 83.216C50.2479 83.296 50.2919 83.416 50.2919 83.576V84.716L50.1599 84.548C50.2879 84.092 50.5399 83.732 50.9159 83.468C51.2999 83.196 51.7559 83.06 52.2839 83.06C52.8039 83.06 53.2559 83.184 53.6399 83.432C54.0319 83.672 54.3319 84.02 54.5399 84.476C54.7559 84.924 54.8639 85.46 54.8639 86.084C54.8639 86.7 54.7559 87.236 54.5399 87.692C54.3319 88.14 54.0359 88.488 53.6519 88.736C53.2679 88.984 52.8119 89.108 52.2839 89.108C51.7559 89.108 51.3039 88.976 50.9279 88.712C50.5519 88.44 50.2959 88.08 50.1599 87.632H50.3039V90.752C50.3039 90.912 50.2599 91.032 50.1719 91.112C50.0839 91.2 49.9639 91.244 49.8119 91.244ZM52.0799 88.328C52.4479 88.328 52.7639 88.24 53.0279 88.064C53.2999 87.888 53.5079 87.632 53.6519 87.296C53.8039 86.96 53.8799 86.556 53.8799 86.084C53.8799 85.356 53.7159 84.8 53.3879 84.416C53.0679 84.032 52.6319 83.84 52.0799 83.84C51.7199 83.84 51.4039 83.928 51.1319 84.104C50.8599 84.272 50.6479 84.524 50.4959 84.86C50.3519 85.188 50.2799 85.596 50.2799 86.084C50.2799 86.804 50.4439 87.36 50.7719 87.752C51.0999 88.136 51.5359 88.328 52.0799 88.328ZM56.2231 89.072C56.1191 89.072 56.0271 89.04 55.9471 88.976C55.8671 88.912 55.8231 88.828 55.8151 88.724C55.8151 88.612 55.8671 88.496 55.9711 88.376L58.0711 85.736V86.24L56.1031 83.78C55.9991 83.652 55.9471 83.536 55.9471 83.432C55.9551 83.328 55.9991 83.244 56.0791 83.18C56.1591 83.116 56.2511 83.084 56.3551 83.084C56.4751 83.084 56.5751 83.108 56.6551 83.156C56.7431 83.196 56.8231 83.264 56.8951 83.36L58.6111 85.532H58.2751L60.0031 83.36C60.0751 83.264 60.1511 83.196 60.2311 83.156C60.3111 83.108 60.4111 83.084 60.5311 83.084C60.6431 83.084 60.7351 83.116 60.8071 83.18C60.8871 83.244 60.9271 83.332 60.9271 83.444C60.9351 83.548 60.8871 83.664 60.7831 83.792L58.8271 86.216V85.772L60.9271 88.376C61.0231 88.496 61.0671 88.612 61.0591 88.724C61.0591 88.828 61.0191 88.912 60.9391 88.976C60.8591 89.04 60.7631 89.072 60.6511 89.072C60.5391 89.072 60.4391 89.048 60.3511 89C60.2711 88.96 60.1911 88.892 60.1111 88.796L58.2631 86.468H58.6111L56.7631 88.796C56.6911 88.884 56.6111 88.952 56.5231 89C56.4431 89.048 56.3431 89.072 56.2231 89.072ZM63.6826 91.244C63.5626 91.244 63.4666 91.212 63.3946 91.148C63.3226 91.084 63.2786 90.996 63.2626 90.884C63.2546 90.78 63.2746 90.672 63.3226 90.56L64.1506 88.7V89.12L61.8466 83.768C61.7986 83.648 61.7826 83.536 61.7986 83.432C61.8146 83.328 61.8626 83.244 61.9426 83.18C62.0226 83.116 62.1346 83.084 62.2786 83.084C62.4066 83.084 62.5066 83.112 62.5786 83.168C62.6506 83.224 62.7146 83.324 62.7706 83.468L64.7386 88.292H64.4146L66.4066 83.468C66.4706 83.324 66.5386 83.224 66.6106 83.168C66.6826 83.112 66.7866 83.084 66.9226 83.084C67.0506 83.084 67.1466 83.116 67.2106 83.18C67.2826 83.244 67.3226 83.328 67.3306 83.432C67.3466 83.528 67.3306 83.636 67.2826 83.756L64.2106 90.86C64.1466 91.004 64.0746 91.104 63.9946 91.16C63.9226 91.216 63.8186 91.244 63.6826 91.244Z" fill="#F9FAFB"/>
<path d="M61.875 44.875H39.125C38.1581 44.875 37.375 45.6581 37.375 46.625V69.375C37.375 70.3419 38.1581 71.125 39.125 71.125H61.875C62.8419 71.125 63.625 70.3419 63.625 69.375V46.625C63.625 45.6581 62.8419 44.875 61.875 44.875Z" fill="#F77E00"/>
<path d="M60.4969 44.875H39.0156C38.5815 44.8781 38.166 45.052 37.859 45.359C37.552 45.666 37.3782 46.0815 37.375 46.5156V67.9313C37.3728 68.8369 38.1056 69.5697 39.0113 69.5719H60.475C61.3806 69.5741 62.1134 68.8412 62.1156 67.9356V46.5156C62.1353 45.6297 61.4309 44.8947 60.545 44.875H60.4969Z" fill="#FF9800"/>
<path d="M60.6938 51.1969L57.1938 47.6969C57.0644 47.5921 56.9081 47.5259 56.7429 47.5058C56.5776 47.4858 56.41 47.5127 56.2594 47.5835C56.1087 47.6542 55.981 47.766 55.8909 47.906C55.8008 48.046 55.752 48.2085 55.75 48.375V49.8187C55.7544 50.0309 55.6078 50.2147 55.4 50.2562C52.8379 50.7382 50.5676 52.2072 49.0781 54.3469C48.5616 55.1079 48.087 55.8966 47.6563 56.7094C46.0594 59.5531 44.2656 62.7687 40.7656 63.2062C40.5529 63.2327 40.3573 63.3365 40.2161 63.4979C40.075 63.6592 39.998 63.8669 40 64.0812V65.8531C40.0023 66.0879 40.0974 66.3123 40.2647 66.4771C40.432 66.6419 40.6577 66.7337 40.8925 66.7325C40.9166 66.7325 40.9384 66.7303 40.9625 66.7281C46.3438 66.2031 48.9688 61.5656 50.7188 58.4375C51.0928 57.7397 51.5019 57.0594 51.9438 56.4031C52.7205 55.2444 53.8589 54.3753 55.1813 53.9312C55.2466 53.9107 55.316 53.9058 55.3836 53.9169C55.4512 53.928 55.5153 53.9549 55.5706 53.9953C55.626 54.0358 55.6711 54.0887 55.7022 54.1497C55.7334 54.2108 55.7497 54.2783 55.75 54.3469V55.3969C55.7513 55.5132 55.7756 55.6282 55.8214 55.7352C55.8672 55.8422 55.9336 55.9391 56.017 56.0204C56.1003 56.1017 56.1988 56.1657 56.3069 56.2089C56.415 56.252 56.5305 56.2734 56.6469 56.2719C56.8459 56.2697 57.0406 56.1997 57.1938 56.075L60.6938 52.575C60.7918 52.4889 60.8703 52.3829 60.9241 52.2641C60.9779 52.1453 61.0057 52.0164 61.0057 51.8859C61.0057 51.7555 60.9779 51.6266 60.9241 51.5077C60.8703 51.3889 60.7918 51.2829 60.6938 51.1969Z" fill="#FAFAFA"/>
<path d="M57.1937 59.9469C57.0644 59.8421 56.9081 59.7759 56.7428 59.7559C56.5776 59.7358 56.41 59.7627 56.2593 59.8335C56.1087 59.9043 55.981 60.0161 55.8909 60.156C55.8008 60.296 55.752 60.4586 55.75 60.625V61.675C55.75 61.9157 55.5531 62.1125 55.3103 62.1103C55.2665 62.1103 55.2228 62.1038 55.1812 62.0907C53.8637 61.6265 52.7241 60.7623 51.9219 59.6188C51.8344 59.4875 51.7469 59.3563 51.6375 59.2032C51.6178 59.1716 51.5903 59.1457 51.5578 59.1277C51.5253 59.1097 51.4887 59.1002 51.4515 59.1002C51.4144 59.1002 51.3778 59.1097 51.3453 59.1277C51.3128 59.1457 51.2853 59.1716 51.2656 59.2032C50.7844 60.0782 50.2156 61.0407 49.5594 62.0032C49.5156 62.0841 49.5156 62.1847 49.5594 62.2657C51.036 64.0617 53.0945 65.2844 55.3781 65.7219C55.5881 65.7657 55.7412 65.945 55.75 66.1594V67.625C55.7513 67.7414 55.7756 67.8564 55.8214 67.9634C55.8672 68.0704 55.9336 68.1673 56.0169 68.2486C56.1002 68.3298 56.1988 68.3939 56.3069 68.437C56.4149 68.4802 56.5305 68.5016 56.6469 68.5C56.8459 68.4978 57.0406 68.4278 57.1937 68.3032L60.6937 64.8032C60.7915 64.7193 60.87 64.6153 60.9238 64.4982C60.9776 64.3812 61.0055 64.2539 61.0055 64.125C61.0055 63.9962 60.9776 63.8689 60.9238 63.7518C60.87 63.6348 60.7915 63.5308 60.6937 63.4469L57.1937 59.9469Z" fill="#FAFAFA"/>
<path opacity="0.65" d="M45.1844 46.8219C45.1844 46.3188 44.8344 46.1656 42.8219 46.2313C41.1375 46.2969 40.3063 46.4938 39.8031 47.1063C39.3 47.7188 39.1688 48.9656 39.1469 50.4531C39.1469 51.5031 39.1469 52.4875 39.6938 52.4875C40.4375 52.4875 40.4375 50.7594 41.05 49.7969C42.2313 47.8938 45.1844 47.4781 45.1844 46.8219V46.8219Z" fill="#FFBD52"/>
<path d="M40.7875 52.7937C43.2812 53.1 44.9219 54.8281 46.2125 56.8406C46.2322 56.8721 46.2597 56.8981 46.2922 56.9161C46.3247 56.9341 46.3613 56.9435 46.3984 56.9435C46.4356 56.9435 46.4722 56.9341 46.5047 56.9161C46.5372 56.8981 46.5646 56.8721 46.5844 56.8406C47 56.1187 48.0063 54.4344 48.2906 53.975C48.3388 53.8984 48.33 53.8 48.2687 53.7344C46.6062 51.5687 44.3312 49.6219 40.9406 49.3156C40.8294 49.3037 40.717 49.3139 40.6097 49.3455C40.5025 49.3771 40.4025 49.4296 40.3155 49.4999C40.2286 49.5702 40.1563 49.6569 40.1029 49.7552C40.0495 49.8535 40.0161 49.9613 40.0044 50.0725C40.0022 50.1031 40 50.1359 40 50.1687V51.9406C40 52.3869 40.3434 52.7587 40.7875 52.7937Z" fill="#FAFAFA"/>
<path opacity="0.3" d="M45.1844 46.8219C45.1844 46.3188 44.8344 46.1656 42.8219 46.2313C41.1375 46.2969 40.3063 46.4938 39.8031 47.1063C39.3 47.7188 39.1688 48.9656 39.1469 50.4531C39.1469 51.5031 39.1469 52.4875 39.6938 52.4875C40.4375 52.4875 40.4375 50.7594 41.05 49.7969C42.2313 47.8938 45.1844 47.4781 45.1844 46.8219V46.8219Z" fill="#FFBD52"/>
</svg>
