<svg width="119" height="136" viewBox="0 0 119 136" fill="none" xmlns="http://www.w3.org/2000/svg">
<mask id="path-1-inside-1_673_8645" fill="white">
<path fill-rule="evenodd" clip-rule="evenodd" d="M87.5 18C86.9477 18 86.5029 17.5515 86.4727 17C85.9538 7.52403 78.1056 0 68.5 0C58.8944 0 51.0462 7.52403 50.5273 17C50.4971 17.5515 50.0523 18 49.5 18L22.5 18C20.2909 18 18.5 19.7909 18.5 22L18.5 49C18.5 49.5523 18.0515 49.9971 17.5 50.0273C8.02403 50.5462 0.5 58.3944 0.5 68C0.5 77.6056 8.02403 85.4538 17.5 85.9727C18.0515 86.0029 18.5 86.4477 18.5 87L18.5 114C18.5 116.209 20.2909 118 22.5 118L49.5 118C50.0523 118 50.4971 118.448 50.5273 119C51.0462 128.476 58.8944 136 68.5 136C78.1056 136 85.9538 128.476 86.4727 119C86.5029 118.448 86.9477 118 87.5 118L114.5 118C116.709 118 118.5 116.209 118.5 114L118.5 87C118.5 86.4477 118.052 86.0029 117.5 85.9727C108.024 85.4538 100.5 77.6056 100.5 68C100.5 58.3944 108.024 50.5462 117.5 50.0273C118.052 49.9971 118.5 49.5523 118.5 49L118.5 22C118.5 19.7909 116.709 18 114.5 18L87.5 18Z"/>
</mask>
<path fill-rule="evenodd" clip-rule="evenodd" d="M87.5 18C86.9477 18 86.5029 17.5515 86.4727 17C85.9538 7.52403 78.1056 0 68.5 0C58.8944 0 51.0462 7.52403 50.5273 17C50.4971 17.5515 50.0523 18 49.5 18L22.5 18C20.2909 18 18.5 19.7909 18.5 22L18.5 49C18.5 49.5523 18.0515 49.9971 17.5 50.0273C8.02403 50.5462 0.5 58.3944 0.5 68C0.5 77.6056 8.02403 85.4538 17.5 85.9727C18.0515 86.0029 18.5 86.4477 18.5 87L18.5 114C18.5 116.209 20.2909 118 22.5 118L49.5 118C50.0523 118 50.4971 118.448 50.5273 119C51.0462 128.476 58.8944 136 68.5 136C78.1056 136 85.9538 128.476 86.4727 119C86.5029 118.448 86.9477 118 87.5 118L114.5 118C116.709 118 118.5 116.209 118.5 114L118.5 87C118.5 86.4477 118.052 86.0029 117.5 85.9727C108.024 85.4538 100.5 77.6056 100.5 68C100.5 58.3944 108.024 50.5462 117.5 50.0273C118.052 49.9971 118.5 49.5523 118.5 49L118.5 22C118.5 19.7909 116.709 18 114.5 18L87.5 18Z" fill="#374151" fill-opacity="0.4"/>
<path d="M18.5 22L17.5 22L17.5 22L18.5 22ZM18.5 114L17.5 114V114H18.5ZM118.5 114H117.5H118.5ZM117.5 50.0273L117.445 49.0288L117.5 50.0273ZM118.5 87H119.5H118.5ZM117.5 85.9727L117.555 84.9742L117.5 85.9727ZM50.5273 119L49.5288 119.055L50.5273 119ZM18.5 49L17.5 49L18.5 49ZM17.5 50.0273L17.5547 51.0258L17.5 50.0273ZM17.5 85.9727L17.4454 86.9712L17.5 85.9727ZM18.5 87L17.5 87L18.5 87ZM50.5273 17L49.5288 16.9454L50.5273 17ZM86.4727 119L87.4712 119.055L86.4727 119ZM86.4727 17L85.4742 17.0547L86.4727 17ZM68.5 1C77.5716 1 84.9842 8.10603 85.4742 17.0547L87.4712 16.9454C86.9235 6.94204 78.6396 -1 68.5 -1V1ZM51.5258 17.0547C52.0158 8.10603 59.4284 1 68.5 1V-1C58.3604 -1 50.0765 6.94204 49.5288 16.9454L51.5258 17.0547ZM49.5 17L22.5 17V19L49.5 19V17ZM22.5 17C19.7386 17 17.5 19.2386 17.5 22H19.5C19.5 20.3431 20.8431 19 22.5 19V17ZM17.5 22L17.5 49L19.5 49L19.5 22L17.5 22ZM17.4454 49.0288C7.44204 49.5765 -0.5 57.8604 -0.5 68H1.5C1.5 58.9284 8.60603 51.5158 17.5547 51.0258L17.4454 49.0288ZM-0.5 68C-0.5 78.1396 7.44204 86.4235 17.4454 86.9712L17.5547 84.9742C8.60603 84.4842 1.5 77.0716 1.5 68H-0.5ZM17.5 87L17.5 114L19.5 114L19.5 87L17.5 87ZM17.5 114C17.5 116.761 19.7386 119 22.5 119V117C20.8431 117 19.5 115.657 19.5 114H17.5ZM22.5 119L49.5 119V117L22.5 117V119ZM49.5288 119.055C50.0765 129.058 58.3604 137 68.5 137V135C59.4284 135 52.0158 127.894 51.5258 118.945L49.5288 119.055ZM68.5 137C78.6396 137 86.9235 129.058 87.4712 119.055L85.4742 118.945C84.9842 127.894 77.5716 135 68.5 135V137ZM87.5 119L114.5 119V117L87.5 117V119ZM114.5 119C117.261 119 119.5 116.761 119.5 114H117.5C117.5 115.657 116.157 117 114.5 117V119ZM119.5 114L119.5 87H117.5L117.5 114H119.5ZM117.555 84.9742C108.606 84.4842 101.5 77.0716 101.5 68H99.5C99.5 78.1396 107.442 86.4235 117.445 86.9712L117.555 84.9742ZM101.5 68C101.5 58.9284 108.606 51.5158 117.555 51.0258L117.445 49.0288C107.442 49.5765 99.5 57.8604 99.5 68H101.5ZM119.5 49L119.5 22H117.5L117.5 49H119.5ZM119.5 22C119.5 19.2386 117.261 17 114.5 17V19C116.157 19 117.5 20.3431 117.5 22H119.5ZM114.5 17L87.5 17V19L114.5 19V17ZM117.555 51.0258C118.601 50.9685 119.5 50.1183 119.5 49H117.5C117.5 49.0012 117.5 49.0012 117.5 49.0006C117.5 49.0001 117.5 48.9998 117.5 48.9999C117.5 49.0001 117.499 49.0033 117.494 49.0081C117.484 49.0187 117.467 49.0276 117.445 49.0288L117.555 51.0258ZM119.5 87C119.5 85.8817 118.601 85.0315 117.555 84.9742L117.445 86.9712C117.467 86.9724 117.484 86.9813 117.494 86.9919C117.499 86.9967 117.5 86.9999 117.5 87.0001C117.5 87.0002 117.5 86.9999 117.5 86.9993C117.5 86.9988 117.5 86.9988 117.5 87H119.5ZM49.5 119C49.5012 119 49.5012 119 49.5007 119C49.5001 119 49.4998 119 49.4999 119C49.5001 119 49.5033 119.001 49.5081 119.006C49.5187 119.016 49.5276 119.033 49.5288 119.055L51.5258 118.945C51.4685 117.899 50.6183 117 49.5 117V119ZM17.5 49C17.5 49.0012 17.4999 49.0012 17.5 49.0007C17.5001 49.0001 17.5003 48.9998 17.5002 48.9999C17.5002 49.0001 17.4987 49.0033 17.494 49.0081C17.4836 49.0187 17.4667 49.0276 17.4454 49.0288L17.5547 51.0258C18.6008 50.9685 19.5 50.1183 19.5 49L17.5 49ZM17.4454 86.9712C17.4666 86.9724 17.4836 86.9813 17.494 86.9919C17.4987 86.9967 17.5002 86.9999 17.5002 87.0001C17.5003 87.0002 17.5001 86.9999 17.5 86.9994C17.4999 86.9988 17.5 86.9988 17.5 87L19.5 87C19.5 85.8817 18.6008 85.0315 17.5547 84.9742L17.4454 86.9712ZM49.5288 16.9454C49.5276 16.9667 49.5187 16.9836 49.5081 16.994C49.5033 16.9987 49.5001 17.0002 49.4999 17.0002C49.4998 17.0003 49.5001 17.0001 49.5006 17C49.5012 16.9999 49.5012 17 49.5 17V19C50.6183 19 51.4685 18.1008 51.5258 17.0547L49.5288 16.9454ZM87.4712 119.055C87.4724 119.033 87.4813 119.016 87.4919 119.006C87.4967 119.001 87.4999 119 87.5001 119C87.5002 119 87.4999 119 87.4994 119C87.4988 119 87.4988 119 87.5 119V117C86.3817 117 85.5315 117.899 85.4742 118.945L87.4712 119.055ZM85.4742 17.0547C85.5315 18.1008 86.3817 19 87.5 19V17C87.4988 17 87.4988 16.9999 87.4994 17C87.4999 17.0001 87.5002 17.0003 87.5001 17.0002C87.4999 17.0002 87.4967 16.9987 87.4919 16.994C87.4813 16.9836 87.4724 16.9666 87.4712 16.9454L85.4742 17.0547Z" fill="#374151" mask="url(#path-1-inside-1_673_8645)"/>
<path d="M37.2494 89.06C37.0894 89.06 36.9694 89.016 36.8894 88.928C36.8094 88.832 36.7694 88.7 36.7694 88.532V83.624C36.7694 83.456 36.8094 83.328 36.8894 83.24C36.9694 83.152 37.0894 83.108 37.2494 83.108C37.4014 83.108 37.5214 83.152 37.6094 83.24C37.6974 83.328 37.7414 83.456 37.7414 83.624V88.532C37.7414 88.7 37.6974 88.832 37.6094 88.928C37.5294 89.016 37.4094 89.06 37.2494 89.06ZM37.2494 81.764C37.0494 81.764 36.8934 81.712 36.7814 81.608C36.6694 81.496 36.6134 81.348 36.6134 81.164C36.6134 80.972 36.6694 80.828 36.7814 80.732C36.8934 80.628 37.0494 80.576 37.2494 80.576C37.4574 80.576 37.6134 80.628 37.7174 80.732C37.8294 80.828 37.8854 80.972 37.8854 81.164C37.8854 81.348 37.8294 81.496 37.7174 81.608C37.6134 81.712 37.4574 81.764 37.2494 81.764ZM40.0625 89.084C39.9025 89.084 39.7825 89.04 39.7025 88.952C39.6225 88.864 39.5825 88.74 39.5825 88.58V83.576C39.5825 83.416 39.6225 83.296 39.7025 83.216C39.7825 83.128 39.8985 83.084 40.0505 83.084C40.2025 83.084 40.3185 83.128 40.3985 83.216C40.4865 83.296 40.5305 83.416 40.5305 83.576V84.632L40.3985 84.464C40.5505 84.016 40.7945 83.672 41.1305 83.432C41.4745 83.184 41.8825 83.06 42.3545 83.06C42.8505 83.06 43.2505 83.18 43.5545 83.42C43.8665 83.652 44.0745 84.016 44.1785 84.512H43.9985C44.1425 84.064 44.3985 83.712 44.7665 83.456C45.1425 83.192 45.5785 83.06 46.0745 83.06C46.5145 83.06 46.8745 83.144 47.1545 83.312C47.4425 83.48 47.6585 83.736 47.8025 84.08C47.9465 84.416 48.0185 84.844 48.0185 85.364V88.58C48.0185 88.74 47.9745 88.864 47.8865 88.952C47.8065 89.04 47.6865 89.084 47.5265 89.084C47.3745 89.084 47.2545 89.04 47.1665 88.952C47.0865 88.864 47.0465 88.74 47.0465 88.58V85.412C47.0465 84.876 46.9545 84.484 46.7705 84.236C46.5865 83.98 46.2745 83.852 45.8345 83.852C45.3545 83.852 44.9745 84.02 44.6945 84.356C44.4225 84.684 44.2865 85.132 44.2865 85.7V88.58C44.2865 88.74 44.2425 88.864 44.1545 88.952C44.0745 89.04 43.9545 89.084 43.7945 89.084C43.6425 89.084 43.5225 89.04 43.4345 88.952C43.3545 88.864 43.3145 88.74 43.3145 88.58V85.412C43.3145 84.876 43.2185 84.484 43.0265 84.236C42.8425 83.98 42.5345 83.852 42.1025 83.852C41.6225 83.852 41.2425 84.02 40.9625 84.356C40.6905 84.684 40.5545 85.132 40.5545 85.7V88.58C40.5545 88.916 40.3905 89.084 40.0625 89.084ZM51.6718 89.108C51.2718 89.108 50.9118 89.032 50.5918 88.88C50.2798 88.72 50.0318 88.504 49.8478 88.232C49.6638 87.96 49.5718 87.656 49.5718 87.32C49.5718 86.888 49.6798 86.548 49.8958 86.3C50.1198 86.052 50.4838 85.876 50.9878 85.772C51.4998 85.668 52.1958 85.616 53.0758 85.616H53.6158V86.252H53.0878C52.4398 86.252 51.9278 86.284 51.5518 86.348C51.1838 86.404 50.9238 86.504 50.7718 86.648C50.6278 86.792 50.5558 86.996 50.5558 87.26C50.5558 87.588 50.6678 87.856 50.8918 88.064C51.1238 88.272 51.4358 88.376 51.8278 88.376C52.1478 88.376 52.4278 88.3 52.6678 88.148C52.9158 87.996 53.1078 87.788 53.2438 87.524C53.3878 87.26 53.4598 86.956 53.4598 86.612V85.244C53.4598 84.748 53.3598 84.392 53.1598 84.176C52.9598 83.952 52.6318 83.84 52.1758 83.84C51.8958 83.84 51.6158 83.876 51.3358 83.948C51.0558 84.02 50.7598 84.136 50.4478 84.296C50.3358 84.352 50.2398 84.372 50.1598 84.356C50.0798 84.332 50.0158 84.288 49.9678 84.224C49.9198 84.16 49.8918 84.088 49.8838 84.008C49.8758 83.92 49.8918 83.836 49.9318 83.756C49.9798 83.676 50.0518 83.612 50.1478 83.564C50.4998 83.388 50.8478 83.26 51.1918 83.18C51.5358 83.1 51.8638 83.06 52.1758 83.06C52.6798 83.06 53.0958 83.144 53.4238 83.312C53.7518 83.472 53.9958 83.72 54.1558 84.056C54.3158 84.384 54.3958 84.808 54.3958 85.328V88.58C54.3958 88.74 54.3558 88.864 54.2758 88.952C54.2038 89.04 54.0958 89.084 53.9518 89.084C53.7998 89.084 53.6838 89.04 53.6038 88.952C53.5238 88.864 53.4838 88.74 53.4838 88.58V87.644H53.5918C53.5278 87.948 53.4038 88.208 53.2198 88.424C53.0438 88.64 52.8238 88.808 52.5598 88.928C52.2958 89.048 51.9998 89.108 51.6718 89.108ZM58.7791 91.268C58.3551 91.268 57.9391 91.216 57.5311 91.112C57.1311 91.016 56.7671 90.86 56.4391 90.644C56.3431 90.588 56.2791 90.52 56.2471 90.44C56.2231 90.36 56.2191 90.28 56.2351 90.2C56.2511 90.128 56.2871 90.06 56.3431 89.996C56.3991 89.94 56.4631 89.904 56.5351 89.888C56.6151 89.872 56.6951 89.884 56.7751 89.924C57.1271 90.14 57.4631 90.288 57.7831 90.368C58.1031 90.448 58.4191 90.488 58.7311 90.488C59.2991 90.488 59.7271 90.336 60.0151 90.032C60.3111 89.728 60.4591 89.288 60.4591 88.712V87.356H60.5791C60.4591 87.82 60.2031 88.188 59.8111 88.46C59.4271 88.732 58.9751 88.868 58.4551 88.868C57.9191 88.868 57.4551 88.748 57.0631 88.508C56.6711 88.26 56.3671 87.916 56.1511 87.476C55.9431 87.036 55.8391 86.528 55.8391 85.952C55.8391 85.52 55.8991 85.128 56.0191 84.776C56.1391 84.416 56.3111 84.112 56.5351 83.864C56.7671 83.608 57.0431 83.412 57.3631 83.276C57.6911 83.132 58.0551 83.06 58.4551 83.06C58.9831 83.06 59.4391 83.196 59.8231 83.468C60.2071 83.732 60.4551 84.092 60.5671 84.548L60.4471 84.692V83.576C60.4471 83.416 60.4871 83.296 60.5671 83.216C60.6551 83.128 60.7751 83.084 60.9271 83.084C61.0871 83.084 61.2071 83.128 61.2871 83.216C61.3671 83.296 61.4071 83.416 61.4071 83.576V88.58C61.4071 89.468 61.1831 90.136 60.7351 90.584C60.2951 91.04 59.6431 91.268 58.7791 91.268ZM58.6351 88.076C59.0111 88.076 59.3351 87.992 59.6071 87.824C59.8791 87.648 60.0871 87.4 60.2311 87.08C60.3831 86.76 60.4591 86.384 60.4591 85.952C60.4591 85.304 60.2951 84.792 59.9671 84.416C59.6391 84.032 59.1951 83.84 58.6351 83.84C58.2671 83.84 57.9471 83.928 57.6751 84.104C57.4031 84.272 57.1911 84.516 57.0391 84.836C56.8951 85.148 56.8231 85.52 56.8231 85.952C56.8231 86.6 56.9871 87.116 57.3151 87.5C57.6431 87.884 58.0831 88.076 58.6351 88.076ZM65.8584 89.108C65.2424 89.108 64.7104 88.988 64.2624 88.748C63.8224 88.5 63.4784 88.152 63.2304 87.704C62.9904 87.256 62.8704 86.72 62.8704 86.096C62.8704 85.488 62.9904 84.96 63.2304 84.512C63.4704 84.056 63.7984 83.7 64.2144 83.444C64.6384 83.188 65.1264 83.06 65.6784 83.06C66.0704 83.06 66.4224 83.128 66.7344 83.264C67.0464 83.392 67.3104 83.58 67.5264 83.828C67.7504 84.076 67.9184 84.376 68.0304 84.728C68.1504 85.08 68.2104 85.476 68.2104 85.916C68.2104 86.044 68.1744 86.14 68.1024 86.204C68.0304 86.26 67.9264 86.288 67.7904 86.288H63.6144V85.652H67.5624L67.3704 85.808C67.3704 85.376 67.3064 85.012 67.1784 84.716C67.0504 84.412 66.8624 84.18 66.6144 84.02C66.3744 83.86 66.0704 83.78 65.7024 83.78C65.2944 83.78 64.9464 83.876 64.6584 84.068C64.3784 84.252 64.1664 84.512 64.0224 84.848C63.8784 85.176 63.8064 85.56 63.8064 86V86.072C63.8064 86.808 63.9824 87.368 64.3344 87.752C64.6944 88.136 65.2024 88.328 65.8584 88.328C66.1304 88.328 66.3984 88.292 66.6624 88.22C66.9344 88.148 67.1984 88.028 67.4544 87.86C67.5664 87.788 67.6664 87.756 67.7544 87.764C67.8504 87.764 67.9264 87.792 67.9824 87.848C68.0384 87.896 68.0744 87.96 68.0904 88.04C68.1144 88.112 68.1064 88.192 68.0664 88.28C68.0344 88.368 67.9664 88.444 67.8624 88.508C67.5984 88.7 67.2864 88.848 66.9264 88.952C66.5664 89.056 66.2104 89.108 65.8584 89.108ZM70.034 86.204C69.914 86.204 69.814 86.168 69.734 86.096C69.654 86.016 69.614 85.92 69.614 85.808C69.614 85.688 69.654 85.592 69.734 85.52C69.814 85.44 69.914 85.4 70.034 85.4H72.734C72.846 85.4 72.942 85.44 73.022 85.52C73.102 85.592 73.142 85.688 73.142 85.808C73.142 85.92 73.102 86.016 73.022 86.096C72.942 86.168 72.846 86.204 72.734 86.204H70.034ZM75.3359 89.084C75.1759 89.084 75.0559 89.04 74.9759 88.952C74.8959 88.864 74.8559 88.74 74.8559 88.58V83.576C74.8559 83.416 74.8959 83.296 74.9759 83.216C75.0559 83.128 75.1719 83.084 75.3239 83.084C75.4759 83.084 75.5919 83.128 75.6719 83.216C75.7599 83.296 75.8039 83.416 75.8039 83.576V84.632L75.6719 84.464C75.8239 84.016 76.0679 83.672 76.4039 83.432C76.7479 83.184 77.1559 83.06 77.6279 83.06C78.1239 83.06 78.5239 83.18 78.8279 83.42C79.1399 83.652 79.3479 84.016 79.4519 84.512H79.2719C79.4159 84.064 79.6719 83.712 80.0399 83.456C80.4159 83.192 80.8519 83.06 81.3479 83.06C81.7879 83.06 82.1479 83.144 82.4279 83.312C82.7159 83.48 82.9319 83.736 83.0759 84.08C83.2199 84.416 83.2919 84.844 83.2919 85.364V88.58C83.2919 88.74 83.2479 88.864 83.1599 88.952C83.0799 89.04 82.9599 89.084 82.7999 89.084C82.6479 89.084 82.5279 89.04 82.4399 88.952C82.3599 88.864 82.3199 88.74 82.3199 88.58V85.412C82.3199 84.876 82.2279 84.484 82.0439 84.236C81.8599 83.98 81.5479 83.852 81.1079 83.852C80.6279 83.852 80.2479 84.02 79.9679 84.356C79.6959 84.684 79.5599 85.132 79.5599 85.7V88.58C79.5599 88.74 79.5159 88.864 79.4279 88.952C79.3479 89.04 79.2279 89.084 79.0679 89.084C78.9159 89.084 78.7959 89.04 78.7079 88.952C78.6279 88.864 78.5879 88.74 78.5879 88.58V85.412C78.5879 84.876 78.4919 84.484 78.2999 84.236C78.1159 83.98 77.8079 83.852 77.3759 83.852C76.8959 83.852 76.5159 84.02 76.2359 84.356C75.9639 84.684 75.8279 85.132 75.8279 85.7V88.58C75.8279 88.916 75.6639 89.084 75.3359 89.084ZM87.7373 89.108C87.1213 89.108 86.5893 88.988 86.1413 88.748C85.7013 88.5 85.3573 88.152 85.1093 87.704C84.8693 87.256 84.7493 86.72 84.7493 86.096C84.7493 85.488 84.8693 84.96 85.1093 84.512C85.3493 84.056 85.6773 83.7 86.0933 83.444C86.5173 83.188 87.0053 83.06 87.5573 83.06C87.9493 83.06 88.3013 83.128 88.6133 83.264C88.9253 83.392 89.1893 83.58 89.4053 83.828C89.6293 84.076 89.7973 84.376 89.9093 84.728C90.0293 85.08 90.0893 85.476 90.0893 85.916C90.0893 86.044 90.0533 86.14 89.9813 86.204C89.9093 86.26 89.8053 86.288 89.6693 86.288H85.4933V85.652H89.4413L89.2493 85.808C89.2493 85.376 89.1853 85.012 89.0573 84.716C88.9293 84.412 88.7413 84.18 88.4933 84.02C88.2533 83.86 87.9493 83.78 87.5813 83.78C87.1733 83.78 86.8253 83.876 86.5373 84.068C86.2573 84.252 86.0453 84.512 85.9013 84.848C85.7573 85.176 85.6853 85.56 85.6853 86V86.072C85.6853 86.808 85.8613 87.368 86.2133 87.752C86.5733 88.136 87.0813 88.328 87.7373 88.328C88.0093 88.328 88.2773 88.292 88.5413 88.22C88.8133 88.148 89.0773 88.028 89.3333 87.86C89.4453 87.788 89.5453 87.756 89.6333 87.764C89.7293 87.764 89.8053 87.792 89.8613 87.848C89.9173 87.896 89.9533 87.96 89.9693 88.04C89.9933 88.112 89.9853 88.192 89.9453 88.28C89.9133 88.368 89.8453 88.444 89.7413 88.508C89.4773 88.7 89.1653 88.848 88.8053 88.952C88.4453 89.056 88.0893 89.108 87.7373 89.108ZM93.836 89.108C93.38 89.108 92.996 89.028 92.684 88.868C92.38 88.7 92.152 88.46 92 88.148C91.848 87.828 91.772 87.44 91.772 86.984V83.924H90.968C90.832 83.924 90.728 83.892 90.656 83.828C90.584 83.756 90.548 83.66 90.548 83.54C90.548 83.42 90.584 83.328 90.656 83.264C90.728 83.2 90.832 83.168 90.968 83.168H91.772V81.788C91.772 81.628 91.816 81.508 91.904 81.428C91.992 81.34 92.112 81.296 92.264 81.296C92.416 81.296 92.532 81.34 92.612 81.428C92.7 81.508 92.744 81.628 92.744 81.788V83.168H94.256C94.392 83.168 94.496 83.2 94.568 83.264C94.64 83.328 94.676 83.42 94.676 83.54C94.676 83.66 94.64 83.756 94.568 83.828C94.496 83.892 94.392 83.924 94.256 83.924H92.744V86.888C92.744 87.344 92.84 87.692 93.032 87.932C93.224 88.164 93.536 88.28 93.968 88.28C94.12 88.28 94.248 88.264 94.352 88.232C94.464 88.2 94.556 88.184 94.628 88.184C94.7 88.176 94.76 88.2 94.808 88.256C94.856 88.312 94.88 88.408 94.88 88.544C94.88 88.64 94.86 88.728 94.82 88.808C94.788 88.888 94.728 88.944 94.64 88.976C94.544 89.008 94.416 89.036 94.256 89.06C94.104 89.092 93.964 89.108 93.836 89.108ZM97.5273 89.108C97.1273 89.108 96.7673 89.032 96.4473 88.88C96.1353 88.72 95.8873 88.504 95.7033 88.232C95.5193 87.96 95.4273 87.656 95.4273 87.32C95.4273 86.888 95.5353 86.548 95.7513 86.3C95.9753 86.052 96.3393 85.876 96.8433 85.772C97.3553 85.668 98.0513 85.616 98.9313 85.616H99.4713V86.252H98.9433C98.2953 86.252 97.7833 86.284 97.4073 86.348C97.0393 86.404 96.7793 86.504 96.6273 86.648C96.4833 86.792 96.4113 86.996 96.4113 87.26C96.4113 87.588 96.5233 87.856 96.7473 88.064C96.9793 88.272 97.2913 88.376 97.6833 88.376C98.0033 88.376 98.2833 88.3 98.5233 88.148C98.7713 87.996 98.9633 87.788 99.0993 87.524C99.2433 87.26 99.3153 86.956 99.3153 86.612V85.244C99.3153 84.748 99.2153 84.392 99.0153 84.176C98.8153 83.952 98.4873 83.84 98.0313 83.84C97.7513 83.84 97.4713 83.876 97.1913 83.948C96.9113 84.02 96.6153 84.136 96.3033 84.296C96.1913 84.352 96.0953 84.372 96.0153 84.356C95.9353 84.332 95.8713 84.288 95.8233 84.224C95.7753 84.16 95.7473 84.088 95.7393 84.008C95.7313 83.92 95.7473 83.836 95.7873 83.756C95.8353 83.676 95.9073 83.612 96.0033 83.564C96.3553 83.388 96.7033 83.26 97.0473 83.18C97.3913 83.1 97.7193 83.06 98.0313 83.06C98.5353 83.06 98.9513 83.144 99.2793 83.312C99.6073 83.472 99.8513 83.72 100.011 84.056C100.171 84.384 100.251 84.808 100.251 85.328V88.58C100.251 88.74 100.211 88.864 100.131 88.952C100.059 89.04 99.9513 89.084 99.8073 89.084C99.6553 89.084 99.5393 89.04 99.4593 88.952C99.3793 88.864 99.3393 88.74 99.3393 88.58V87.644H99.4473C99.3833 87.948 99.2593 88.208 99.0753 88.424C98.8993 88.64 98.6793 88.808 98.4153 88.928C98.1513 89.048 97.8553 89.108 97.5273 89.108Z" fill="#F9FAFB"/>
<path d="M61.3097 68.1828C61.3097 67.2422 62.6244 63.9194 62.6244 63.9194C63.8909 63.5278 73.0369 63.8603 74.4303 63.8603C74.4303 63.8603 75.6903 66.5575 75.6903 68.1828C75.6903 69.8081 71.8228 71.125 68.5131 71.125C65.2034 71.125 61.3097 69.8081 61.3097 68.1828Z" fill="#8B5738"/>
<path d="M68.5131 67.0234C71.7811 67.0234 74.4303 65.8727 74.4303 64.4531C74.4303 63.0336 71.7811 61.8828 68.5131 61.8828C65.2451 61.8828 62.5959 63.0336 62.5959 64.4531C62.5959 65.8727 65.2451 67.0234 68.5131 67.0234Z" fill="#FFB17A"/>
<path d="M62.9591 67.2203C63.6197 67.5965 64.6653 67.5681 65.4769 67.7147C66.5094 67.9028 67.0934 68.6903 69.0841 68.6553C69.795 68.6422 71.4531 68.5612 71.3613 68.5634C71.3044 68.4475 70.9806 68.3359 70.3506 68.2375C69.7731 68.1456 69.3575 68.1544 68.6881 68.1544C68.1763 68.1544 67.4741 68.0012 66.7653 67.6119C66.4416 67.4347 65.9384 67.2378 65.4463 67.1372C64.6894 66.9819 64.1622 67.1459 63.1056 66.645C62.6003 66.4065 62.1913 65.9122 62.095 65.3369L61.8456 66.0544C62.1738 66.6559 62.4734 66.9447 62.9591 67.2203ZM73.8463 66.6319C72.1531 67.7081 70.7225 67.5878 70.7225 67.5878C70.6022 67.6665 71.5888 67.8787 72.3216 67.7562C73.7609 67.5156 74.6359 66.7937 75.2047 65.8269C75.1259 65.5819 74.9531 65.1181 74.9531 65.1181C74.7891 65.514 74.5988 66.1528 73.8463 66.6319Z" fill="#CC8552"/>
<path d="M70.7991 69.6856C69.8628 69.8563 68.9659 69.5653 68.045 69.3488C66.7828 69.0534 64.4116 69.095 64.4116 69.095C64.2694 69.165 65.5294 69.6222 66.1419 69.6747C66.6997 69.7228 67.2903 69.6747 67.8197 69.8913C68.5656 70.1953 69.2875 70.3484 70.0094 70.3484C71.3809 70.3484 73.1725 69.5216 73.5991 68.4475C73.5991 68.4475 72.8159 68.9069 72.2078 69.2153C71.7659 69.4406 71.2891 69.5981 70.7991 69.6856Z" fill="#A86D44"/>
<path d="M62.3356 68.3862C62.5216 68.6837 62.7119 68.9594 62.9612 69.2065C63.3834 69.6265 63.9172 69.8694 64.2606 69.8081C64.2606 69.8081 63.0444 68.8259 63.1734 68.57C63.2391 68.4387 65.7634 68.6465 65.7634 68.6465C65.7634 68.6465 64.9978 68.244 64.2519 68.0997C63.7684 68.0056 62.8847 68.1937 62.0797 67.6272C61.6356 67.3144 61.5678 66.9381 61.5678 66.9381C61.5678 66.9381 61.4081 67.4828 61.3753 67.6906C61.8412 68.1784 62.2744 68.2878 62.3356 68.3862ZM75.1281 67.3056C74.6862 67.7015 73.9884 68.5022 73.9884 68.9156C73.9884 68.9156 74.7716 68.1565 75.2987 67.8087C75.43 67.7234 75.5241 67.614 75.6269 67.4981C75.6269 67.4981 75.5744 67.1065 75.4912 66.8287C75.4584 67.0147 75.325 67.1306 75.1281 67.3056Z" fill="#A86D44"/>
<path d="M68.5 66.2075C74.3908 66.2075 79.1663 61.4321 79.1663 55.5412C79.1663 49.6504 74.3908 44.875 68.5 44.875C62.6092 44.875 57.8338 49.6504 57.8338 55.5412C57.8338 61.4321 62.6092 66.2075 68.5 66.2075Z" fill="url(#paint0_radial_673_8645)"/>
<path d="M68.5 66.2075C74.3908 66.2075 79.1663 61.4321 79.1663 55.5412C79.1663 49.6504 74.3908 44.875 68.5 44.875C62.6092 44.875 57.8338 49.6504 57.8338 55.5412C57.8338 61.4321 62.6092 66.2075 68.5 66.2075Z" fill="url(#paint1_radial_673_8645)"/>
<path opacity="0.7" d="M64.5428 48.8934C65.5359 48.9787 67.5703 49.7225 66.0894 51.63C65.1159 52.8834 63.8997 54.0494 63.4687 55.0578C62.2241 57.9737 65.3434 59.1637 66.3125 59.4678C67.1525 59.7325 68.7712 60.3231 69.2262 61.0778C70.9828 63.9872 65.6409 64.7812 65.6409 64.7812C65.6409 64.7812 69.5719 66.2141 72.8094 64.0244C74.0344 63.1953 75.1128 61.2659 74.0584 59.5291C73.5466 58.6869 72.1356 57.9278 71.79 57.6566C70.3112 56.4884 69.3991 55.2809 70.1341 53.9269C70.4316 53.38 71.0528 53.0956 71.6544 52.9294C73.3387 52.4634 75.4409 52.5466 75.99 50.4662C76.4647 48.6725 72.9997 44.665 67.625 45.3169C65.3937 45.5859 63.3856 46.52 61.7428 48.0556C58.7109 50.8928 58.9734 53.24 58.9734 53.24C58.9734 53.24 60.9487 48.5806 64.5428 48.8934Z" fill="url(#paint2_linear_673_8645)"/>
<path opacity="0.39" d="M76.3247 49.2981C75.5634 48.1913 74.5113 47.3119 73.4022 46.5528C71.6325 45.3431 69.3444 45.2447 69.3444 45.2447C72.1531 46.5878 71.8381 48.3684 70.9216 49.6416C69.8059 51.1925 67.5681 52.2403 66.9841 54.1281C66.6428 55.2306 66.8528 56.39 67.9269 57.0944C69.0009 57.7988 72.8663 59.6691 72.9997 61.8828C73.1003 63.5497 71.7747 64.5997 71.7747 64.5997C73.3256 64.265 76.5894 61.9813 75.6225 59.6319C75.1544 58.4944 73.0259 57.7397 74.0978 56.4425C74.4959 55.9591 77.2763 55.7009 77.5366 52.8878C77.6569 51.5731 76.9481 50.2038 76.3247 49.2981Z" fill="url(#paint3_linear_673_8645)"/>
<path opacity="0.85" d="M59.9053 57.4881C59.9053 57.4881 58.3084 53.2531 61.5875 49.3309C64.2891 46.0978 66.7281 47.4059 66.3519 48.784C65.9734 50.1622 64.7987 50.5865 63.0291 51.9712C60.6906 53.8 59.9053 57.4881 59.9053 57.4881Z" fill="url(#paint4_linear_673_8645)"/>
<path d="M74.835 51.6059C74.4084 51.3938 74.0672 51.1269 73.9184 50.6741L73.2862 48.5806L72.6541 50.6741C72.5053 51.1247 72.1619 51.3938 71.7375 51.6059L70.6809 52.0631L71.7681 52.5138C72.1947 52.7259 72.5053 53.0169 72.6563 53.4675L73.2884 55.5434L73.9206 53.4675C74.0694 53.0169 74.3822 52.7259 74.8087 52.5138L75.8959 52.0631L74.835 51.6059Z" fill="url(#paint5_linear_673_8645)"/>
<path d="M72.7241 59.1747C72.2975 58.9625 71.9563 58.6956 71.8075 58.2428L71.1753 56.1494L70.5431 58.2428C70.3944 58.6934 70.0509 58.9625 69.6266 59.1747L68.57 59.6319L69.6572 60.0825C70.0838 60.2947 70.3944 60.5856 70.5453 61.0362L71.1775 63.1122L71.8097 61.0362C71.9584 60.5856 72.2713 60.2947 72.6978 60.0825L73.785 59.6319L72.7241 59.1747Z" fill="url(#paint6_linear_673_8645)"/>
<path d="M77.7619 55.806C77.4403 55.6463 77.1822 55.4428 77.0684 55.1038L76.5916 53.5222L76.1147 55.1038C76.0009 55.445 75.7428 55.6463 75.4213 55.806L74.625 56.1516L75.4453 56.4928C75.7669 56.6525 76.0031 56.8713 76.1147 57.2125L76.5916 58.7788L77.0684 57.2125C77.1822 56.8713 77.4163 56.6525 77.7378 56.4928L78.5581 56.1516L77.7619 55.806Z" fill="white"/>
<defs>
<radialGradient id="paint0_radial_673_8645" cx="0" cy="0" r="1" gradientUnits="userSpaceOnUse" gradientTransform="translate(71.9619 48.8473) rotate(-3.714) scale(16.6653 16.6652)">
<stop offset="0.104" stop-color="#CE93D8"/>
<stop offset="1" stop-color="#AB47BC"/>
</radialGradient>
<radialGradient id="paint1_radial_673_8645" cx="0" cy="0" r="1" gradientUnits="userSpaceOnUse" gradientTransform="translate(66.1701 54.092) scale(15.1788 15.1788)">
<stop offset="0.28" stop-color="#81D4FA" stop-opacity="0"/>
<stop offset="0.964" stop-color="#81D4FA" stop-opacity="0.9"/>
</radialGradient>
<linearGradient id="paint2_linear_673_8645" x1="70.8384" y1="46.3299" x2="62.3623" y2="68.2828" gradientUnits="userSpaceOnUse">
<stop stop-color="#673AB7"/>
<stop offset="0.937" stop-color="#673AB7" stop-opacity="0"/>
</linearGradient>
<linearGradient id="paint3_linear_673_8645" x1="72.1921" y1="49.4543" x2="72.1921" y2="67.6418" gradientUnits="userSpaceOnUse">
<stop offset="0.235" stop-color="#1D44B3"/>
<stop offset="0.884" stop-color="#2044B3" stop-opacity="0.074"/>
<stop offset="0.936" stop-color="#2144B3" stop-opacity="0"/>
</linearGradient>
<linearGradient id="paint4_linear_673_8645" x1="61.6984" y1="47.6055" x2="63.6078" y2="54.7229" gradientUnits="userSpaceOnUse">
<stop offset="0.227" stop-color="white"/>
<stop offset="1" stop-color="white" stop-opacity="0"/>
</linearGradient>
<linearGradient id="paint5_linear_673_8645" x1="73.2843" y1="50.335" x2="73.2843" y2="55.4597" gradientUnits="userSpaceOnUse">
<stop offset="0.261" stop-color="white"/>
<stop offset="1" stop-color="white" stop-opacity="0"/>
</linearGradient>
<linearGradient id="paint6_linear_673_8645" x1="71.1734" y1="56.7227" x2="71.1734" y2="62.6443" gradientUnits="userSpaceOnUse">
<stop stop-color="white"/>
<stop offset="1" stop-color="white" stop-opacity="0"/>
</linearGradient>
</defs>
</svg>
