<svg width="118" height="100" viewBox="0 0 118 100" fill="none" xmlns="http://www.w3.org/2000/svg">
<mask id="path-1-inside-1_576_10469" fill="white">
<path fill-rule="evenodd" clip-rule="evenodd" d="M50 18C59.6056 18 67.4538 10.476 67.9727 0.999955C68.0029 0.448497 68.4477 0 69 0L96 0C98.2091 0 100 1.79086 100 4V31C100 31.5523 100.448 31.9971 101 32.0273C110.476 32.5462 118 40.3944 118 50C118 59.6056 110.476 67.4538 101 67.9727C100.449 68.0029 100 68.4477 100 69V96C100 98.2091 98.2091 100 96 100H69C68.4477 100 68.0029 99.5515 67.9727 99C67.4538 89.524 59.6056 82 50 82C40.3944 82 32.5462 89.524 32.0273 99C31.9971 99.5515 31.5523 100 31 100H4C1.79086 100 0 98.2091 0 96L0 69C0 68.4477 0.448498 68.0029 0.999957 67.9727C10.476 67.4538 18 59.6056 18 50C18 40.3944 10.476 32.5462 0.999955 32.0273C0.448497 31.9971 0 31.5523 0 31L0 4C0 1.79086 1.79086 0 4 0L31 0C31.5523 0 31.9971 0.448498 32.0273 0.999957C32.5462 10.476 40.3944 18 50 18Z"/>
</mask>
<path fill-rule="evenodd" clip-rule="evenodd" d="M50 18C59.6056 18 67.4538 10.476 67.9727 0.999955C68.0029 0.448497 68.4477 0 69 0L96 0C98.2091 0 100 1.79086 100 4V31C100 31.5523 100.448 31.9971 101 32.0273C110.476 32.5462 118 40.3944 118 50C118 59.6056 110.476 67.4538 101 67.9727C100.449 68.0029 100 68.4477 100 69V96C100 98.2091 98.2091 100 96 100H69C68.4477 100 68.0029 99.5515 67.9727 99C67.4538 89.524 59.6056 82 50 82C40.3944 82 32.5462 89.524 32.0273 99C31.9971 99.5515 31.5523 100 31 100H4C1.79086 100 0 98.2091 0 96L0 69C0 68.4477 0.448498 68.0029 0.999957 67.9727C10.476 67.4538 18 59.6056 18 50C18 40.3944 10.476 32.5462 0.999955 32.0273C0.448497 31.9971 0 31.5523 0 31L0 4C0 1.79086 1.79086 0 4 0L31 0C31.5523 0 31.9971 0.448498 32.0273 0.999957C32.5462 10.476 40.3944 18 50 18Z" fill="#374151" fill-opacity="0.4"/>
<path d="M96 0V-1V0ZM0 96H1H0ZM0 4H1H0ZM32.0273 0.999957L33.0258 0.945284L32.0273 0.999957ZM0.999957 67.9727L0.945284 66.9742L0.999957 67.9727ZM32.0273 99L31.0288 98.9454L32.0273 99ZM101 67.9727L101.055 68.9712L101 67.9727ZM67.9727 99L68.9712 98.9454L67.9727 99ZM100 31H99H100ZM101 32.0273L101.055 31.0288L101 32.0273ZM66.9742 0.945282C66.4842 9.89397 59.0716 17 50 17L50 19C60.1396 19 68.4235 11.058 68.9712 1.05463L66.9742 0.945282ZM96 -1L69 -1V1L96 1V-1ZM101 4C101 1.23858 98.7614 -1 96 -1V1C97.6569 1 99 2.34315 99 4L101 4ZM101 31V4L99 4V31H101ZM100.945 33.0258C109.894 33.5158 117 40.9284 117 50H119C119 39.8604 111.058 31.5765 101.055 31.0288L100.945 33.0258ZM117 50C117 59.0716 109.894 66.4842 100.945 66.9742L101.055 68.9712C111.058 68.4235 119 60.1396 119 50H117ZM101 96V69H99V96H101ZM96 101C98.7614 101 101 98.7614 101 96H99C99 97.6569 97.6569 99 96 99V101ZM69 101H96V99H69V101ZM50 83C59.0716 83 66.4842 90.106 66.9742 99.0547L68.9712 98.9454C68.4235 88.942 60.1396 81 50 81V83ZM33.0258 99.0547C33.5158 90.106 40.9284 83 50 83V81C39.8604 81 31.5765 88.942 31.0288 98.9454L33.0258 99.0547ZM4 101H31L31 99H4V101ZM-1 96C-1 98.7614 1.23858 101 4 101V99C2.34315 99 1 97.6569 1 96H-1ZM-1 69L-1 96H1L1 69H-1ZM17 50C17 59.0716 9.89398 66.4842 0.945284 66.9742L1.05463 68.9712C11.058 68.4235 19 60.1396 19 50L17 50ZM0.945282 33.0258C9.89397 33.5158 17 40.9284 17 50L19 50C19 39.8604 11.058 31.5765 1.05463 31.0288L0.945282 33.0258ZM-1 4L-1 31H1L1 4H-1ZM4 -1C1.23858 -1 -1 1.23858 -1 4H1C1 2.34315 2.34315 1 4 1V-1ZM31 -1L4 -1V1L31 1V-1ZM50 17C40.9284 17 33.5158 9.89398 33.0258 0.945284L31.0288 1.05463C31.5765 11.058 39.8604 19 50 19L50 17ZM31 1C31.0012 1 31.0012 1.0001 31.0006 0.999977C31.0001 0.999868 30.9998 0.999738 30.9999 0.999766C31.0001 0.999846 31.0033 1.00127 31.0081 1.006C31.0187 1.0164 31.0276 1.03335 31.0288 1.05463L33.0258 0.945284C32.9685 -0.100786 32.1183 -1 31 -1V1ZM1.05463 31.0288C1.03335 31.0276 1.0164 31.0187 1.006 31.0081C1.00127 31.0033 0.999846 31.0001 0.999766 30.9999C0.999738 30.9998 0.999868 31.0001 0.999977 31.0007C1.0001 31.0012 1 31.0012 1 31H-1C-1 32.1183 -0.100789 32.9685 0.945282 33.0258L1.05463 31.0288ZM1 69C1 68.9988 1.0001 68.9988 0.999977 68.9994C0.999868 68.9999 0.999738 69.0002 0.999766 69.0001C0.999846 68.9999 1.00127 68.9967 1.006 68.9919C1.0164 68.9813 1.03335 68.9724 1.05463 68.9712L0.945284 66.9742C-0.100786 67.0315 -1 67.8817 -1 69H1ZM68.9712 1.05463C68.9724 1.03335 68.9813 1.0164 68.9919 1.006C68.9967 1.00127 68.9999 0.999846 69.0001 0.999766C69.0002 0.999738 68.9999 0.999868 68.9994 0.999977C68.9988 1.0001 68.9988 1 69 1V-1C67.8817 -1 67.0315 -0.100789 66.9742 0.945282L68.9712 1.05463ZM31.0288 98.9454C31.0276 98.9667 31.0187 98.9836 31.0081 98.994C31.0033 98.9987 31.0001 99.0002 30.9999 99.0002C30.9998 99.0003 31.0001 99.0001 31.0007 99C31.0012 98.9999 31.0012 99 31 99L31 101C32.1183 101 32.9685 100.101 33.0258 99.0547L31.0288 98.9454ZM100.945 66.9742C99.8992 67.0315 99 67.8817 99 69H101C101 68.9988 101 68.9988 101 68.9994C101 68.9999 101 69.0002 101 69.0001C101 68.9999 101.001 68.9967 101.006 68.9919C101.016 68.9813 101.033 68.9724 101.055 68.9712L100.945 66.9742ZM69 99C68.9988 99 68.9988 98.9999 68.9994 99C68.9999 99.0001 69.0002 99.0003 69.0001 99.0002C68.9999 99.0002 68.9967 98.9987 68.9919 98.994C68.9813 98.9836 68.9724 98.9667 68.9712 98.9454L66.9742 99.0547C67.0315 100.101 67.8817 101 69 101V99ZM99 31C99 32.1183 99.8992 32.9685 100.945 33.0258L101.055 31.0288C101.033 31.0276 101.016 31.0187 101.006 31.0081C101.001 31.0033 101 31.0001 101 30.9999C101 30.9998 101 31.0001 101 31.0007C101 31.0012 101 31.0012 101 31H99Z" fill="#374151" mask="url(#path-1-inside-1_576_10469)"/>
<path d="M41.2154 72.08C41.002 72.08 40.842 72.0213 40.7354 71.904C40.6287 71.776 40.5754 71.6 40.5754 71.376V64.832C40.5754 64.608 40.6287 64.4373 40.7354 64.32C40.842 64.2027 41.002 64.144 41.2154 64.144C41.418 64.144 41.578 64.2027 41.6954 64.32C41.8127 64.4373 41.8714 64.608 41.8714 64.832V71.376C41.8714 71.6 41.8127 71.776 41.6954 71.904C41.5887 72.0213 41.4287 72.08 41.2154 72.08ZM41.2154 62.352C40.9487 62.352 40.7407 62.2827 40.5914 62.144C40.442 61.9947 40.3674 61.7973 40.3674 61.552C40.3674 61.296 40.442 61.104 40.5914 60.976C40.7407 60.8373 40.9487 60.768 41.2154 60.768C41.4927 60.768 41.7007 60.8373 41.8394 60.976C41.9887 61.104 42.0634 61.296 42.0634 61.552C42.0634 61.7973 41.9887 61.9947 41.8394 62.144C41.7007 62.2827 41.4927 62.352 41.2154 62.352ZM44.9341 74.992C44.7208 74.992 44.5608 74.9333 44.4541 74.816C44.3475 74.7093 44.2941 74.5493 44.2941 74.336V64.768C44.2941 64.5547 44.3475 64.3947 44.4541 64.288C44.5608 64.1707 44.7155 64.112 44.9181 64.112C45.1315 64.112 45.2915 64.1707 45.3981 64.288C45.5155 64.3947 45.5741 64.5547 45.5741 64.768V66.288L45.3981 66.064C45.5688 65.456 45.9048 64.976 46.4061 64.624C46.9181 64.2613 47.5261 64.08 48.2301 64.08C48.9235 64.08 49.5261 64.2453 50.0381 64.576C50.5608 64.896 50.9608 65.36 51.2381 65.968C51.5261 66.5653 51.6701 67.28 51.6701 68.112C51.6701 68.9333 51.5261 69.648 51.2381 70.256C50.9608 70.8533 50.5661 71.3173 50.0541 71.648C49.5421 71.9787 48.9341 72.144 48.2301 72.144C47.5261 72.144 46.9235 71.968 46.4221 71.616C45.9208 71.2533 45.5795 70.7733 45.3981 70.176H45.5901V74.336C45.5901 74.5493 45.5315 74.7093 45.4141 74.816C45.2968 74.9333 45.1368 74.992 44.9341 74.992ZM47.9581 71.104C48.4488 71.104 48.8701 70.9867 49.2221 70.752C49.5848 70.5173 49.8621 70.176 50.0541 69.728C50.2568 69.28 50.3581 68.7413 50.3581 68.112C50.3581 67.1413 50.1395 66.4 49.7021 65.888C49.2755 65.376 48.6941 65.12 47.9581 65.12C47.4781 65.12 47.0568 65.2373 46.6941 65.472C46.3315 65.696 46.0488 66.032 45.8461 66.48C45.6541 66.9173 45.5581 67.4613 45.5581 68.112C45.5581 69.072 45.7768 69.8133 46.2141 70.336C46.6515 70.848 47.2328 71.104 47.9581 71.104ZM53.4824 72.096C53.3437 72.096 53.221 72.0533 53.1144 71.968C53.0077 71.8827 52.949 71.7707 52.9384 71.632C52.9384 71.4827 53.0077 71.328 53.1464 71.168L55.9464 67.648V68.32L53.3224 65.04C53.1837 64.8693 53.1144 64.7147 53.1144 64.576C53.125 64.4373 53.1837 64.3253 53.2904 64.24C53.397 64.1547 53.5197 64.112 53.6584 64.112C53.8184 64.112 53.9517 64.144 54.0584 64.208C54.1757 64.2613 54.2824 64.352 54.3784 64.48L56.6664 67.376H56.2184L58.5224 64.48C58.6184 64.352 58.7197 64.2613 58.8264 64.208C58.933 64.144 59.0664 64.112 59.2264 64.112C59.3757 64.112 59.4984 64.1547 59.5944 64.24C59.701 64.3253 59.7544 64.4427 59.7544 64.592C59.765 64.7307 59.701 64.8853 59.5624 65.056L56.9544 68.288V67.696L59.7544 71.168C59.8824 71.328 59.941 71.4827 59.9304 71.632C59.9304 71.7707 59.877 71.8827 59.7704 71.968C59.6637 72.0533 59.5357 72.096 59.3864 72.096C59.237 72.096 59.1037 72.064 58.9864 72C58.8797 71.9467 58.773 71.856 58.6664 71.728L56.2024 68.624H56.6664L54.2024 71.728C54.1064 71.8453 53.9997 71.936 53.8824 72C53.7757 72.064 53.6424 72.096 53.4824 72.096Z" fill="#F9FAFB"/>
<path d="M41.5212 34.5903H38.8416C38.485 34.5903 38.1962 34.3016 38.1962 33.945V32.3656C38.1962 32.0091 38.485 31.7203 38.8416 31.7203H41.5212C41.8778 31.7203 42.1666 32.0091 42.1666 32.3656V33.945C42.1659 34.1159 42.0977 34.2797 41.9768 34.4005C41.8559 34.5214 41.6922 34.5896 41.5212 34.5903Z" fill="#90A4AE"/>
<path d="M39.5612 34.8637H38.6862V32.5887C38.6862 32.3481 38.8831 32.1512 39.1237 32.1512C39.3644 32.1512 39.5612 32.3481 39.5612 32.5887V34.8637Z" fill="#94D1E0"/>
<path d="M45.2663 33.8313H44.0609C43.8203 33.8313 43.6256 33.6366 43.6256 33.396V32.1906C43.6256 31.95 43.7416 31.845 44.0609 31.7553C44.3803 31.6656 44.9622 31.6547 45.2663 31.7553C45.5156 31.8384 45.7016 31.95 45.7016 32.1906V33.396C45.7016 33.6366 45.5047 33.8313 45.2663 33.8313Z" fill="#546E7A"/>
<path d="M36.875 38.8844H63.125V52.04H36.875V38.8844Z" fill="#212121"/>
<path d="M36.875 51.7425V52.3397C36.875 52.7728 37.2272 53.125 37.6603 53.125H62.3419C62.775 53.125 63.1272 52.7728 63.1272 52.3397V51.7425H36.875Z" fill="#B0BEC5"/>
<path d="M45.4806 34.8703H43.8422C43.3084 34.8703 42.8753 34.4372 42.8753 33.9034V33.7612C42.8753 33.2275 43.3084 32.7944 43.8422 32.7944H45.4806C46.0144 32.7944 46.4475 33.2275 46.4475 33.7612V33.9034C46.4478 34.0305 46.423 34.1564 46.3745 34.2738C46.3261 34.3913 46.2549 34.498 46.165 34.5878C46.0752 34.6777 45.9684 34.7489 45.851 34.7974C45.7335 34.8458 45.6077 34.8706 45.4806 34.8703Z" fill="#90A4AE"/>
<path d="M62.6284 33.4725H37.7609C37.2709 33.4725 36.875 33.8684 36.875 34.3584V39.1097H63.125V33.9691C63.125 33.6934 62.9019 33.4725 62.6284 33.4725Z" fill="#B0BEC5"/>
<path d="M60.6072 38.0838H56.6369C56.5255 38.0838 56.4187 38.0395 56.3399 37.9607C56.2611 37.882 56.2169 37.7751 56.2169 37.6638V34.8966C56.2169 34.6647 56.405 34.4766 56.6369 34.4766H60.6072C60.8391 34.4766 61.0272 34.6647 61.0272 34.8966V37.6659C61.0272 37.8956 60.8412 38.0838 60.6072 38.0838Z" fill="#78909C"/>
<path d="M56.2169 37.5588V34.9425C56.2169 34.6844 56.4247 34.4766 56.6828 34.4766H60.5744C60.7931 34.4766 60.8828 34.5969 60.8828 34.5969L56.3678 37.97C56.3678 37.97 56.2169 37.8781 56.2169 37.5588Z" fill="#757575"/>
<path d="M57.0963 35.135H60.1478V37.4253H57.0963V35.135Z" fill="#212121"/>
<path d="M38.3144 51.3465H37.2469C37.0412 51.3465 36.875 51.1803 36.875 50.9747V40.9362C36.875 40.7306 37.0412 40.5644 37.2469 40.5644H38.3144C38.52 40.5644 38.6862 40.7306 38.6862 40.9362V50.9747C38.6862 51.1803 38.5178 51.3465 38.3144 51.3465ZM62.7487 51.3465H61.6812C61.4756 51.3465 61.3094 51.1803 61.3094 50.9747V40.9362C61.3094 40.7306 61.4756 40.5644 61.6812 40.5644H62.7487C62.9544 40.5644 63.1206 40.7306 63.1206 40.9362V50.9747C63.1206 51.1803 62.9544 51.3465 62.7487 51.3465Z" fill="#616161"/>
<path d="M37.7587 52.8275C37.5181 52.8275 37.3212 52.6306 37.3212 52.39V51.8562H38.1962V52.39C38.1962 52.506 38.1501 52.6173 38.0681 52.6994C37.9861 52.7814 37.8748 52.8275 37.7587 52.8275ZM62.6569 38.8012H61.7819V34.3387C61.7819 34.0981 61.9787 33.9012 62.2194 33.9012C62.46 33.9012 62.6569 34.0981 62.6569 34.3387V38.8012ZM38.4412 38.8012H37.5662V34.3387C37.5662 34.0981 37.7631 33.9012 38.0037 33.9012C38.2444 33.9012 38.4412 34.0981 38.4412 34.3387V38.8012ZM62.2194 52.8275C61.9787 52.8275 61.7819 52.6306 61.7819 52.39V51.8562H62.6569V52.39C62.6569 52.506 62.6108 52.6173 62.5287 52.6994C62.4467 52.7814 62.3354 52.8275 62.2194 52.8275Z" fill="#B9E4EA"/>
<path d="M51.8353 52.4906C55.7968 52.4906 59.0081 49.2792 59.0081 45.3178C59.0081 41.3564 55.7968 38.145 51.8353 38.145C47.8739 38.145 44.6625 41.3564 44.6625 45.3178C44.6625 49.2792 47.8739 52.4906 51.8353 52.4906Z" fill="#616161"/>
<path d="M51.8353 51.5456C55.2748 51.5456 58.0631 48.7573 58.0631 45.3178C58.0631 41.8783 55.2748 39.09 51.8353 39.09C48.3958 39.09 45.6075 41.8783 45.6075 45.3178C45.6075 48.7573 48.3958 51.5456 51.8353 51.5456Z" fill="#E0E0E0"/>
<path d="M51.8353 49.765C54.2914 49.765 56.2825 47.7739 56.2825 45.3178C56.2825 42.8617 54.2914 40.8706 51.8353 40.8706C49.3792 40.8706 47.3881 42.8617 47.3881 45.3178C47.3881 47.7739 49.3792 49.765 51.8353 49.765Z" fill="#2F7889"/>
<path d="M51.8353 51.0403C54.9958 51.0403 57.5578 48.4783 57.5578 45.3178C57.5578 42.1574 54.9958 39.5953 51.8353 39.5953C48.6749 39.5953 46.1128 42.1574 46.1128 45.3178C46.1128 48.4783 48.6749 51.0403 51.8353 51.0403Z" fill="black"/>
<path d="M51.8353 49.6797C54.2443 49.6797 56.1972 47.7268 56.1972 45.3178C56.1972 42.9088 54.2443 40.9559 51.8353 40.9559C49.4263 40.9559 47.4734 42.9088 47.4734 45.3178C47.4734 47.7268 49.4263 49.6797 51.8353 49.6797Z" fill="#2F7889"/>
<path d="M50.8028 41.6581C49.4225 41.9709 48.5978 43.3141 48.5978 44.305C48.5978 45.1078 49.1294 44.9066 49.3 44.6156C49.7397 43.8697 50.2712 43.2484 51.1878 42.9881C51.5553 42.8831 51.9841 42.6534 51.9403 42.2247C51.8791 41.6144 51.2731 41.5509 50.8028 41.6581Z" fill="#94D1E0"/>
<path opacity="0.25" d="M51.8353 47.2647C52.9105 47.2647 53.7822 46.393 53.7822 45.3178C53.7822 44.2426 52.9105 43.3709 51.8353 43.3709C50.7601 43.3709 49.8884 44.2426 49.8884 45.3178C49.8884 46.393 50.7601 47.2647 51.8353 47.2647Z" fill="black"/>
<path d="M45.1634 36.2222C45.065 36.2047 45.0431 36.0735 45.1284 36.0253L47.97 34.5903C48.4972 34.2906 48.5431 34.1441 48.3703 33.6781L46.6925 28.8175C46.6575 28.7147 46.78 28.6316 46.8631 28.7016L50.5622 31.8341C51.2556 32.3941 51.4853 32.16 51.6756 31.8297L53.7253 28.205C53.7371 28.1852 53.755 28.1698 53.7763 28.161C53.7976 28.1522 53.8212 28.1505 53.8436 28.1561C53.8659 28.1618 53.8858 28.1745 53.9004 28.1923C53.9149 28.2102 53.9234 28.2323 53.9244 28.2553L53.9397 31.8975C53.9244 32.5997 54.2241 32.4706 55.2019 32.2191L58.3716 31.3331C58.4766 31.3025 58.5531 31.4294 58.4787 31.5081L54.9919 35.135C54.7666 35.4238 54.7906 35.5156 54.8869 35.916L55.5934 37.97C55.6197 38.0466 55.5541 38.1253 55.4731 38.11L53.1172 37.4253C52.765 37.3641 52.5922 37.3641 52.3691 37.7272L50.7044 40.4375C50.6497 40.5031 50.5031 40.5753 50.4572 40.4419L49.5734 37.2985C49.4619 36.9331 49.3087 36.9266 48.9325 36.8566L45.1634 36.2222Z" fill="#FF8F00"/>
<path d="M47.3903 35.8088L50.1794 34.8703L48.0641 30.6572L51.4219 33.9013L52.9663 31.1253L52.7847 34.1944L55.9631 33.0022L53.5175 35.3559L54.4844 37.0163L52.2969 36.3513L50.8509 38.8975L50.4025 36.1303L47.3903 35.8088Z" fill="#FFEE58"/>
</svg>
