<svg width="136" height="100" viewBox="0 0 136 100" fill="none" xmlns="http://www.w3.org/2000/svg">
<mask id="path-1-inside-1_576_10468" fill="white">
<path fill-rule="evenodd" clip-rule="evenodd" d="M87 0C86.4477 0 86.0029 0.448498 85.9727 0.999957C85.4538 10.476 77.6056 18 68 18C58.3944 18 50.5462 10.476 50.0273 0.999955C49.9971 0.448497 49.5523 0 49 0L22 0C19.7909 0 18 1.79086 18 4L18 31C18 31.5523 17.5515 31.9971 17 32.0273C7.52403 32.5462 0 40.3944 0 50C0 59.6056 7.52403 67.4538 17 67.9727C17.5515 68.0029 18 68.4477 18 69L18 96C18 98.2091 19.7909 100 22 100L49 100C49.5523 100 49.9971 99.5515 50.0273 99C50.5462 89.524 58.3944 82 68 82C77.6056 82 85.4538 89.524 85.9727 99C86.0029 99.5515 86.4477 100 87 100H114C116.209 100 118 98.2091 118 96L118 69C118 68.4477 118.449 68.0029 119 67.9727C128.476 67.4538 136 59.6056 136 50C136 40.3944 128.476 32.5462 119 32.0273C118.448 31.9971 118 31.5523 118 31L118 4C118 1.79086 116.209 0 114 0L87 0Z"/>
</mask>
<path fill-rule="evenodd" clip-rule="evenodd" d="M87 0C86.4477 0 86.0029 0.448498 85.9727 0.999957C85.4538 10.476 77.6056 18 68 18C58.3944 18 50.5462 10.476 50.0273 0.999955C49.9971 0.448497 49.5523 0 49 0L22 0C19.7909 0 18 1.79086 18 4L18 31C18 31.5523 17.5515 31.9971 17 32.0273C7.52403 32.5462 0 40.3944 0 50C0 59.6056 7.52403 67.4538 17 67.9727C17.5515 68.0029 18 68.4477 18 69L18 96C18 98.2091 19.7909 100 22 100L49 100C49.5523 100 49.9971 99.5515 50.0273 99C50.5462 89.524 58.3944 82 68 82C77.6056 82 85.4538 89.524 85.9727 99C86.0029 99.5515 86.4477 100 87 100H114C116.209 100 118 98.2091 118 96L118 69C118 68.4477 118.449 68.0029 119 67.9727C128.476 67.4538 136 59.6056 136 50C136 40.3944 128.476 32.5462 119 32.0273C118.448 31.9971 118 31.5523 118 31L118 4C118 1.79086 116.209 0 114 0L87 0Z" fill="#374151" fill-opacity="0.4"/>
<path d="M18 4L17 4L18 4ZM18 96H17H18ZM114 100V101V100ZM114 0V1V0ZM119 32.0273L119.055 31.0288L119 32.0273ZM119 67.9727L119.055 68.9712L119 67.9727ZM50.0273 99L49.0288 98.9454L50.0273 99ZM18 31H17H18ZM17 32.0273L16.9454 31.0288L17 32.0273ZM17 67.9727L16.9454 68.9712L17 67.9727ZM18 69H17H18ZM50.0273 0.999955L49.0288 1.05463L50.0273 0.999955ZM85.9727 99L84.9742 99.0547L85.9727 99ZM87 100V99V100ZM85.9727 0.999957L84.9742 0.945284L85.9727 0.999957ZM68 19C78.1395 19 86.4235 11.058 86.9712 1.05463L84.9742 0.945284C84.4842 9.89398 77.0716 17 68 17V19ZM49.0288 1.05463C49.5765 11.058 57.8604 19 68 19V17C58.9284 17 51.5158 9.89397 51.0258 0.945282L49.0288 1.05463ZM22 1L49 1V-1L22 -1V1ZM19 4C19 2.34315 20.3431 1 22 1V-1C19.2386 -1 17 1.23858 17 4L19 4ZM19 31L19 4L17 4L17 31H19ZM1 50C1 40.9284 8.10602 33.5158 17.0547 33.0258L16.9454 31.0288C6.94204 31.5765 -1 39.8604 -1 50H1ZM17.0547 66.9742C8.10603 66.4842 1 59.0716 1 50H-1C-1 60.1396 6.94204 68.4235 16.9454 68.9712L17.0547 66.9742ZM19 96L19 69H17L17 96H19ZM22 99C20.3431 99 19 97.6569 19 96H17C17 98.7614 19.2386 101 22 101L22 99ZM49 99L22 99L22 101L49 101V99ZM68 81C57.8604 81 49.5765 88.942 49.0288 98.9454L51.0258 99.0547C51.5158 90.106 58.9284 83 68 83V81ZM86.9712 98.9454C86.4235 88.942 78.1395 81 68 81V83C77.0716 83 84.4842 90.106 84.9742 99.0547L86.9712 98.9454ZM114 99H87V101H114V99ZM117 96C117 97.6569 115.657 99 114 99V101C116.761 101 119 98.7614 119 96H117ZM117 69L117 96H119L119 69H117ZM135 50C135 59.0716 127.894 66.4842 118.945 66.9742L119.055 68.9712C129.058 68.4235 137 60.1396 137 50H135ZM118.945 33.0258C127.894 33.5158 135 40.9284 135 50H137C137 39.8604 129.058 31.5765 119.055 31.0288L118.945 33.0258ZM117 4L117 31H119L119 4H117ZM114 1C115.657 1 117 2.34315 117 4H119C119 1.23858 116.761 -1 114 -1V1ZM87 1L114 1V-1L87 -1V1ZM119.055 31.0288C119.033 31.0276 119.016 31.0187 119.006 31.0081C119.001 31.0033 119 31.0001 119 30.9999C119 30.9998 119 31.0001 119 31.0007C119 31.0012 119 31.0012 119 31H117C117 32.1183 117.899 32.9685 118.945 33.0258L119.055 31.0288ZM119 69C119 68.9988 119 68.9988 119 68.9994C119 68.9999 119 69.0002 119 69.0001C119 68.9999 119.001 68.9967 119.006 68.9919C119.016 68.9813 119.033 68.9724 119.055 68.9712L118.945 66.9742C117.899 67.0315 117 67.8817 117 69H119ZM49 101C50.1183 101 50.9685 100.101 51.0258 99.0547L49.0288 98.9454C49.0276 98.9667 49.0187 98.9836 49.0081 98.994C49.0033 98.9987 49.0001 99.0002 48.9999 99.0002C48.9998 99.0003 49.0001 99.0001 49.0006 99C49.0012 98.9999 49.0012 99 49 99V101ZM17 31C17 31.0012 16.9999 31.0012 17 31.0006C17.0001 31.0001 17.0003 30.9998 17.0002 30.9999C17.0002 31.0001 16.9987 31.0033 16.994 31.0081C16.9836 31.0187 16.9667 31.0276 16.9454 31.0288L17.0547 33.0258C18.1008 32.9685 19 32.1183 19 31H17ZM16.9454 68.9712C16.9667 68.9724 16.9836 68.9813 16.994 68.9919C16.9987 68.9967 17.0002 68.9999 17.0002 69.0001C17.0003 69.0002 17.0001 68.9999 17 68.9994C16.9999 68.9988 17 68.9988 17 69H19C19 67.8817 18.1008 67.0315 17.0547 66.9742L16.9454 68.9712ZM51.0258 0.945282C50.9685 -0.100789 50.1183 -1 49 -1V1C49.0012 1 49.0012 1.0001 49.0006 0.999977C49.0001 0.999868 48.9998 0.999738 48.9999 0.999766C49.0001 0.999846 49.0033 1.00127 49.0081 1.006C49.0187 1.0164 49.0276 1.03335 49.0288 1.05463L51.0258 0.945282ZM84.9742 99.0547C85.0315 100.101 85.8817 101 87 101V99C86.9988 99 86.9988 98.9999 86.9994 99C86.9999 99.0001 87.0002 99.0003 87.0001 99.0002C86.9999 99.0002 86.9967 98.9987 86.9919 98.994C86.9813 98.9836 86.9724 98.9667 86.9712 98.9454L84.9742 99.0547ZM86.9712 1.05463C86.9724 1.03335 86.9813 1.0164 86.9919 1.006C86.9967 1.00127 86.9999 0.999846 87.0001 0.999766C87.0002 0.999738 86.9999 0.999868 86.9994 0.999977C86.9988 1.0001 86.9988 1 87 1V-1C85.8817 -1 85.0315 -0.100786 84.9742 0.945284L86.9712 1.05463Z" fill="#374151" mask="url(#path-1-inside-1_576_10468)"/>
<path d="M59.2749 75.056C59.1149 75.0667 58.9869 75.04 58.8909 74.976C58.7842 74.912 58.7149 74.8267 58.6829 74.72C58.6402 74.624 58.6295 74.5227 58.6509 74.416C58.6615 74.32 58.7042 74.2347 58.7789 74.16C58.8535 74.0853 58.9549 74.048 59.0829 74.048C59.6695 74.016 60.1015 73.856 60.3789 73.568C60.6669 73.2907 60.8109 72.848 60.8109 72.24V64.768C60.8109 64.5547 60.8642 64.3947 60.9709 64.288C61.0882 64.1707 61.2535 64.112 61.4669 64.112C61.6695 64.112 61.8242 64.1707 61.9309 64.288C62.0482 64.3947 62.1069 64.5547 62.1069 64.768V72.144C62.1069 72.7947 61.9949 73.328 61.7709 73.744C61.5575 74.1707 61.2429 74.4853 60.8269 74.688C60.4109 74.9013 59.8935 75.024 59.2749 75.056ZM61.4509 62.352C61.1842 62.352 60.9762 62.2827 60.8269 62.144C60.6775 61.9947 60.6029 61.7973 60.6029 61.552C60.6029 61.296 60.6775 61.104 60.8269 60.976C60.9762 60.8373 61.1842 60.768 61.4509 60.768C61.7282 60.768 61.9415 60.8373 62.0909 60.976C62.2402 61.104 62.3149 61.296 62.3149 61.552C62.3149 61.7973 62.2402 61.9947 62.0909 62.144C61.9415 62.2827 61.7282 62.352 61.4509 62.352ZM65.1841 72.08C64.9708 72.08 64.8108 72.0213 64.7041 71.904C64.5975 71.776 64.5441 71.6 64.5441 71.376V64.832C64.5441 64.608 64.5975 64.4373 64.7041 64.32C64.8108 64.2027 64.9708 64.144 65.1841 64.144C65.3868 64.144 65.5468 64.2027 65.6641 64.32C65.7815 64.4373 65.8401 64.608 65.8401 64.832V71.376C65.8401 71.6 65.7815 71.776 65.6641 71.904C65.5575 72.0213 65.3975 72.08 65.1841 72.08ZM65.1841 62.352C64.9175 62.352 64.7095 62.2827 64.5601 62.144C64.4108 61.9947 64.3361 61.7973 64.3361 61.552C64.3361 61.296 64.4108 61.104 64.5601 60.976C64.7095 60.8373 64.9175 60.768 65.1841 60.768C65.4615 60.768 65.6695 60.8373 65.8081 60.976C65.9575 61.104 66.0321 61.296 66.0321 61.552C66.0321 61.7973 65.9575 61.9947 65.8081 62.144C65.6695 62.2827 65.4615 62.352 65.1841 62.352ZM71.3829 72.144C70.7749 72.144 70.2629 72.0373 69.8469 71.824C69.4415 71.6 69.1375 71.28 68.9349 70.864C68.7322 70.4373 68.6309 69.92 68.6309 69.312V65.232H67.5589C67.3775 65.232 67.2389 65.1893 67.1429 65.104C67.0469 65.008 66.9989 64.88 66.9989 64.72C66.9989 64.56 67.0469 64.4373 67.1429 64.352C67.2389 64.2667 67.3775 64.224 67.5589 64.224H68.6309V62.384C68.6309 62.1707 68.6895 62.0107 68.8069 61.904C68.9242 61.7867 69.0842 61.728 69.2869 61.728C69.4895 61.728 69.6442 61.7867 69.7509 61.904C69.8682 62.0107 69.9269 62.1707 69.9269 62.384V64.224H71.9429C72.1242 64.224 72.2629 64.2667 72.3589 64.352C72.4549 64.4373 72.5029 64.56 72.5029 64.72C72.5029 64.88 72.4549 65.008 72.3589 65.104C72.2629 65.1893 72.1242 65.232 71.9429 65.232H69.9269V69.184C69.9269 69.792 70.0549 70.256 70.3109 70.576C70.5669 70.8853 70.9829 71.04 71.5589 71.04C71.7615 71.04 71.9322 71.0187 72.0709 70.976C72.2202 70.9333 72.3429 70.912 72.4389 70.912C72.5349 70.9013 72.6149 70.9333 72.6789 71.008C72.7429 71.0827 72.7749 71.2107 72.7749 71.392C72.7749 71.52 72.7482 71.6373 72.6949 71.744C72.6522 71.8507 72.5722 71.9253 72.4549 71.968C72.3269 72.0107 72.1562 72.048 71.9429 72.08C71.7402 72.1227 71.5535 72.144 71.3829 72.144ZM74.5904 72.08C74.377 72.08 74.217 72.0213 74.1104 71.904C74.0037 71.776 73.9504 71.6 73.9504 71.376V64.832C73.9504 64.608 74.0037 64.4373 74.1104 64.32C74.217 64.2027 74.377 64.144 74.5904 64.144C74.793 64.144 74.953 64.2027 75.0704 64.32C75.1877 64.4373 75.2464 64.608 75.2464 64.832V71.376C75.2464 71.6 75.1877 71.776 75.0704 71.904C74.9637 72.0213 74.8037 72.08 74.5904 72.08ZM74.5904 62.352C74.3237 62.352 74.1157 62.2827 73.9664 62.144C73.817 61.9947 73.7424 61.7973 73.7424 61.552C73.7424 61.296 73.817 61.104 73.9664 60.976C74.1157 60.8373 74.3237 60.768 74.5904 60.768C74.8677 60.768 75.0757 60.8373 75.2144 60.976C75.3637 61.104 75.4384 61.296 75.4384 61.552C75.4384 61.7973 75.3637 61.9947 75.2144 62.144C75.0757 62.2827 74.8677 62.352 74.5904 62.352Z" fill="#F9FAFB"/>
<path d="M60.4444 39.0944L59.8712 37.8497L58.4691 32.3984L58.1125 31.5497L58.6266 30.2853C58.6266 30.2853 59.355 30.3881 59.9106 31.0159C60.5866 31.7816 61.6891 34.0719 61.6891 34.0719L61.4572 32.265L62.715 29.0034C62.715 29.0034 63.2662 28.9444 63.4128 29.0953C63.6731 29.3622 64.1172 31.2347 64.2747 31.8275C64.4322 32.4203 64.6509 33.2297 64.9266 33.5841C65.2022 33.9384 65.5391 34.0194 65.5391 34.0194L66.5256 30.2088L66.7619 26.7525C66.7619 26.7525 67.1075 26.7503 67.5909 26.8509C67.9562 26.9275 68.2012 27.0522 68.3194 27.1988C68.4375 27.3453 68.4419 29.675 68.4419 29.675C68.4419 29.675 70.5266 27.8988 70.5944 27.9184C70.7387 27.9578 71.1872 28.0563 71.4234 28.3144C71.6597 28.5703 71.4628 29.5197 71.2856 30.1519C71.1084 30.7841 70.4959 32.8381 70.4959 32.8381L71.0494 32.6281L71.1719 32.7463L72.2022 31.1647C72.2022 31.1647 72.5741 31.1625 72.8759 31.3113C73.2041 31.4731 73.4009 31.8713 73.4009 31.8713L76.0478 28.0409C76.0478 28.0409 76.2491 28.2203 76.4262 28.3975C76.6034 28.5747 76.7281 28.6994 76.7369 28.8788C76.7456 29.0559 76.1069 30.235 75.8116 30.8278C75.5162 31.4206 75.0219 32.6063 75.0219 32.6063L77.1744 30.9634C77.1744 30.9634 77.8875 31.0641 77.9094 31.3003C77.9291 31.5366 77.5506 31.9741 77.1744 32.6259C76.7981 33.2778 76.1681 34.5422 75.9494 34.9753C75.7306 35.4084 76.0281 35.4303 76.0281 35.4303L78.6072 33.8006C78.6072 33.8006 79.1628 33.9144 79.2153 34.1725C79.2744 34.4678 78.6356 35.0563 78.22 35.5288C77.8044 36.0034 76.9162 37.1475 76.4634 38.0378C76.0106 38.9281 75.7066 39.4838 75.7066 39.4838L71.78 43.3797L61.3325 42.7475L60.4444 39.0944Z" fill="url(#paint0_radial_576_10468)"/>
<path d="M73.5059 34.7938C73.2434 34.855 72.4144 36.29 71.64 38.4731C71.1741 39.7856 70.8656 41.2206 70.8831 41.9075C70.9006 42.5944 71.9375 42.3844 71.9375 42.3844L72.3772 40.9581C72.3772 40.9581 72.8694 39.2847 73.4512 38.0356C74.1316 36.57 75.0131 35.6381 74.9475 35.4128C74.86 35.111 73.8756 34.7063 73.5059 34.7938ZM76.1112 31.0619C75.7437 31.2763 74.9147 32.6631 74.6675 33.1925C74.4203 33.7219 74.4116 34.7172 74.6828 34.8463C75.0175 35.0038 75.3894 33.8794 75.9537 32.9453C76.5181 32.0113 77.1853 30.9547 77.1853 30.9547C77.1853 30.9547 76.5334 30.8147 76.1112 31.0619ZM77.5025 33.8094C76.9403 34.0478 75.8925 35.1656 75.5294 35.7278C74.86 36.7669 74.3678 37.9284 74.1906 38.4031C74.0156 38.8778 73.8734 39.5297 74.4203 39.23C74.9672 38.9303 75.6694 37.5216 76.5684 36.255C77.6097 34.785 78.6116 33.7897 78.6116 33.7897C78.6116 33.7897 77.9597 33.6147 77.5025 33.8094ZM75.1422 27.54C74.9256 27.5138 74.3328 29.0888 73.9981 29.8456C73.6634 30.6025 73.2172 31.6044 73.2172 31.6044C73.2172 31.6044 72.9591 33.5972 73.3287 33.6322C73.6984 33.6672 74.4225 31.2369 74.9628 30.1235C75.49 29.0385 76.0456 28.0344 76.0456 28.0344C76.0456 28.0344 75.5644 27.5925 75.1422 27.54ZM71.2484 31.4863C71.0537 31.6919 71.1631 32.7506 71.1631 32.7506C71.1631 32.7506 71.92 33.315 72.0622 33.1903C72.2044 33.0656 72.2109 31.1538 72.2109 31.1538C72.2109 31.1538 71.5656 31.1516 71.2484 31.4863ZM69.6844 32.9278C69.4109 33.1575 69.5969 34.2338 69.5269 35.1985C69.4219 36.6422 68.9997 39.5997 68.875 40.4638C68.7503 41.3278 68.6278 42.2772 68.6278 42.2772L69.9841 42.065C69.9841 42.065 70.5112 38.0335 70.7234 36.4825C70.9356 34.9316 71.2506 32.7331 71.0406 32.6085C70.8284 32.4881 70.0191 32.6456 69.6844 32.9278ZM69.5203 27.785C69.1747 27.8506 68.4441 29.675 68.4441 29.675C68.4441 29.675 68.4003 30.9919 68.4003 31.6263C68.4003 32.2606 68.2778 33.0175 68.4878 33.0175C68.6978 33.0175 69.1047 31.8035 69.5269 30.7469C69.9491 29.6903 70.5966 27.9185 70.5966 27.9185C70.5966 27.9185 70.0103 27.6931 69.5203 27.785ZM65.5456 27.1178C65.3072 27.3694 65.6856 28.0169 65.7206 29.7931C65.7556 31.5716 65.5369 34.0172 65.5369 34.0172C65.5369 34.0172 65.725 34.0041 65.8431 34.3694C65.9437 34.6778 66.1078 36.5525 66.3178 36.4825C66.53 36.4125 66.7925 35.1613 67.0047 33.0481C67.2169 30.935 67.1272 29.2988 67.0572 28.6294C66.9872 27.96 66.7597 26.7481 66.7597 26.7481C66.7597 26.7481 65.8978 26.7481 65.5456 27.1178ZM62.715 29.0035C62.715 29.0035 61.6978 29.0756 61.4178 29.6225C61.1356 30.1694 61.2253 30.4341 61.2778 30.9613C61.3303 31.4885 61.4966 32.5406 61.4966 32.5406C61.4966 32.5406 62.4306 33.7022 62.9403 33.42C63.45 33.14 62.715 29.0035 62.715 29.0035ZM58.6266 30.2853C58.6266 30.2853 58.0622 30.1803 57.7275 30.2503C57.3928 30.3203 57.4103 30.6375 57.57 30.8497C57.7275 31.0619 58.4559 32.3788 58.4559 32.3788C58.4559 32.3788 58.6725 32.3831 58.9547 32.4881C59.2369 32.5931 59.7203 32.8556 59.7006 32.4335C59.6656 31.6963 58.6266 30.2853 58.6266 30.2853ZM60.2169 38.6C60.2169 38.6 59.1537 36.4497 58.3619 35.2684C57.57 34.0872 56.7409 33.1728 56.7409 32.9803C56.7409 32.7856 57.2878 32.5931 57.6028 32.5056C57.9178 32.4181 58.4669 32.3985 58.4669 32.3985C58.4669 32.3985 59.7684 34.5991 60.2978 35.7978C60.8272 36.9966 61.3194 38.3922 61.1969 38.5628C61.0853 38.716 60.2956 38.6131 60.2169 38.6ZM60.9322 34.7588C60.8491 35.0672 61.2494 36.4672 61.4966 37.4713C61.7437 38.4753 62.0434 39.5319 62.0434 39.5319L62.8878 41.2578L63.8219 40.9231C63.8219 40.9231 63.3297 39.9716 63.0475 38.9872C62.7653 37.9984 62.4 34.9316 62.0237 34.5313C61.7612 34.2491 60.9869 34.5663 60.9322 34.7588ZM63.8569 34.4066C63.6359 34.551 63.9794 36.8894 64.1566 37.8584C64.3337 38.8275 64.7034 39.8491 64.8959 40.3238C65.0906 40.7985 65.6528 41.9972 65.6528 41.9972C65.6528 41.9972 66.2347 42.6841 66.2522 42.6141C66.2697 42.5441 66.5169 41.68 66.5169 41.68C66.5169 41.68 65.7403 39.3897 65.6156 38.4031C65.4931 37.4166 65.2984 34.4241 65.1059 34.3191C64.9134 34.2141 64.2091 34.1791 63.8569 34.4066ZM67.7834 34.4591C67.5187 34.7041 67.2562 37.946 67.1491 39.1425C67.0419 40.3391 66.9544 42.1 66.9544 42.1L68.1334 42.0125C68.1334 42.0125 68.5731 37.6638 68.6431 37.0994C68.7131 36.535 69.0303 35.2509 68.8728 34.7391C68.7153 34.2316 68.0109 34.2491 67.7834 34.4591Z" fill="#FBDE93"/>
<path d="M59.8669 39.0003C59.7925 39.1687 62.0916 51.7491 62.1288 51.9372C62.1659 52.1253 62.0916 52.2959 62.4481 52.4644C62.8069 52.6328 63.3669 52.7225 63.7256 52.7619C64.0844 52.7991 66.5541 52.8034 66.5738 52.5037C66.5934 52.2019 73.9763 41.4481 73.9763 41.4481C73.9763 41.4481 75.3369 39.1666 75.2428 38.9784C75.1488 38.7903 74.7813 38.8778 74.3809 39.1512C73.9806 39.4269 73.6109 40.1072 72.4866 40.8619C71.2681 41.68 69.6538 41.8528 68.0306 41.8331C66.5344 41.8134 64.7559 41.5422 63.4828 40.5994C62.3628 39.7681 62.0325 39.1687 61.035 38.9041C60.1556 38.67 59.8669 39.0003 59.8669 39.0003Z" fill="#FD703F"/>
<path d="M61.6059 39.8228L63.6928 52.7662C63.6928 52.7662 66.18 53.125 68.1181 53.1622C70.0584 53.1994 72.3706 52.7947 72.3706 52.7947L74.0506 47.1159L75.4769 39.6237C75.4769 39.6237 75.1247 39.2716 74.7287 39.5625C74.4247 39.7856 73.4862 41.2381 71.8281 41.8791C69.9578 42.6009 66.5869 42.6534 64.4825 41.7653C62.5531 40.9537 61.9647 39.8972 61.6059 39.8228Z" fill="#FF2A23"/>
<path d="M73.5803 52.3966C73.1559 52.6503 72.1672 52.8209 72.1672 52.8209C72.1672 52.8209 73.1472 48.0566 73.6919 45.5694C74.2365 43.0822 75.0219 38.8756 75.0219 38.8756C75.0219 38.8756 75.3369 38.8253 75.6606 38.8647C76.0281 38.9106 76.2469 39.0178 76.3212 39.1338C76.4415 39.3219 75.7175 42.835 75.0087 46.265C74.3612 49.415 73.8056 52.2631 73.5803 52.3966Z" fill="#DC0D25"/>
<defs>
<radialGradient id="paint0_radial_576_10468" cx="0" cy="0" r="1" gradientUnits="userSpaceOnUse" gradientTransform="translate(68.1284 24.278) scale(18.1843 18.1843)">
<stop offset="0.447" stop-color="#FCC216"/>
<stop offset="0.59" stop-color="#FABB16"/>
<stop offset="0.794" stop-color="#F3A814"/>
<stop offset="0.921" stop-color="#ED9913"/>
</radialGradient>
</defs>
</svg>
