<svg width="119" height="118" viewBox="0 0 119 118" fill="none" xmlns="http://www.w3.org/2000/svg">
<mask id="path-1-inside-1_686_11545" fill="white">
<path fill-rule="evenodd" clip-rule="evenodd" d="M68.5 0C78.1056 0 85.9538 7.52403 86.4727 17C86.5029 17.5515 86.9477 18 87.5 18L114.5 18C116.709 18 118.5 19.7909 118.5 22L118.5 49C118.5 49.5523 118.051 49.9971 117.5 50.0273C108.024 50.5462 100.5 58.3944 100.5 68C100.5 77.6056 108.024 85.4538 117.5 85.9727C118.052 86.0029 118.5 86.4477 118.5 87L118.5 114C118.5 116.209 116.709 118 114.5 118L87.5 118C86.9477 118 86.5029 117.551 86.4727 117C85.9538 107.524 78.1056 100 68.5 100C58.8944 100 51.0462 107.524 50.5273 117C50.4971 117.552 50.0523 118 49.5 118L22.5 118C20.2909 118 18.5 116.209 18.5 114L18.5 87C18.5 86.4477 18.0515 86.0029 17.5 85.9727C8.02403 85.4538 0.5 77.6056 0.5 68C0.5 58.3944 8.02403 50.5462 17.5 50.0273C18.0515 49.9971 18.5 49.5523 18.5 49L18.5 22C18.5 19.7909 20.2909 18 22.5 18L49.5 18C50.0523 18 50.4971 17.5515 50.5273 17C51.0462 7.52403 58.8944 0 68.5 0Z"/>
</mask>
<path fill-rule="evenodd" clip-rule="evenodd" d="M68.5 0C78.1056 0 85.9538 7.52403 86.4727 17C86.5029 17.5515 86.9477 18 87.5 18L114.5 18C116.709 18 118.5 19.7909 118.5 22L118.5 49C118.5 49.5523 118.051 49.9971 117.5 50.0273C108.024 50.5462 100.5 58.3944 100.5 68C100.5 77.6056 108.024 85.4538 117.5 85.9727C118.052 86.0029 118.5 86.4477 118.5 87L118.5 114C118.5 116.209 116.709 118 114.5 118L87.5 118C86.9477 118 86.5029 117.551 86.4727 117C85.9538 107.524 78.1056 100 68.5 100C58.8944 100 51.0462 107.524 50.5273 117C50.4971 117.552 50.0523 118 49.5 118L22.5 118C20.2909 118 18.5 116.209 18.5 114L18.5 87C18.5 86.4477 18.0515 86.0029 17.5 85.9727C8.02403 85.4538 0.5 77.6056 0.5 68C0.5 58.3944 8.02403 50.5462 17.5 50.0273C18.0515 49.9971 18.5 49.5523 18.5 49L18.5 22C18.5 19.7909 20.2909 18 22.5 18L49.5 18C50.0523 18 50.4971 17.5515 50.5273 17C51.0462 7.52403 58.8944 0 68.5 0Z" fill="#374151" fill-opacity="0.4"/>
<path d="M114.5 18V17V18ZM118.5 114H119.5H118.5ZM18.5 114H17.5H18.5ZM18.5 22H17.5H18.5ZM22.5 18V17V18ZM49.5 18L49.5 19L49.5 18ZM50.5273 17L49.5288 16.9454L50.5273 17ZM17.5 50.0273L17.4454 49.0288L17.5 50.0273ZM18.5 49L17.5 49L18.5 49ZM18.5 87H17.5H18.5ZM17.5 85.9727L17.4454 86.9712L17.5 85.9727ZM86.4727 17L87.4712 16.9454L86.4727 17ZM87.5 18V17V18ZM50.5273 117L49.5288 116.945L50.5273 117ZM117.5 85.9727L117.555 84.9742L117.5 85.9727ZM118.5 87H117.5H118.5ZM86.4727 117L87.4712 116.945L86.4727 117ZM117.5 50.0273L117.445 49.0288L117.5 50.0273ZM87.4712 16.9454C86.9235 6.94204 78.6395 -1 68.5 -1V1C77.5716 1 84.9842 8.10603 85.4742 17.0547L87.4712 16.9454ZM114.5 17L87.5 17V19L114.5 19V17ZM119.5 22C119.5 19.2386 117.261 17 114.5 17V19C116.157 19 117.5 20.3431 117.5 22H119.5ZM119.5 49L119.5 22H117.5L117.5 49H119.5ZM101.5 68C101.5 58.9284 108.606 51.5158 117.555 51.0258L117.445 49.0288C107.442 49.5765 99.5 57.8604 99.5 68H101.5ZM117.555 84.9742C108.606 84.4842 101.5 77.0716 101.5 68H99.5C99.5 78.1395 107.442 86.4235 117.445 86.9712L117.555 84.9742ZM119.5 114L119.5 87H117.5L117.5 114H119.5ZM114.5 119C117.261 119 119.5 116.761 119.5 114H117.5C117.5 115.657 116.157 117 114.5 117V119ZM87.5 119L114.5 119V117L87.5 117V119ZM68.5 101C77.5716 101 84.9842 108.106 85.4742 117.055L87.4712 116.945C86.9235 106.942 78.6395 99 68.5 99V101ZM51.5258 117.055C52.0158 108.106 59.4284 101 68.5 101V99C58.3604 99 50.0765 106.942 49.5288 116.945L51.5258 117.055ZM22.5 119L49.5 119V117L22.5 117L22.5 119ZM17.5 114C17.5 116.761 19.7386 119 22.5 119L22.5 117C20.8431 117 19.5 115.657 19.5 114H17.5ZM17.5 87L17.5 114H19.5L19.5 87H17.5ZM17.5547 84.9742C8.60603 84.4842 1.5 77.0716 1.5 68H-0.5C-0.5 78.1395 7.44204 86.4235 17.4454 86.9712L17.5547 84.9742ZM1.5 68C1.5 58.9284 8.60602 51.5158 17.5547 51.0258L17.4454 49.0288C7.44204 49.5765 -0.5 57.8604 -0.5 68H1.5ZM17.5 22L17.5 49L19.5 49L19.5 22H17.5ZM22.5 17C19.7386 17 17.5 19.2386 17.5 22H19.5C19.5 20.3431 20.8431 19 22.5 19V17ZM49.5 17L22.5 17V19L49.5 19L49.5 17ZM68.5 -1C58.3604 -1 50.0765 6.94204 49.5288 16.9454L51.5258 17.0547C52.0158 8.10602 59.4284 1 68.5 1V-1ZM49.5 19C50.6183 19 51.4685 18.1008 51.5258 17.0547L49.5288 16.9454C49.5276 16.9667 49.5187 16.9836 49.5081 16.994C49.5033 16.9987 49.5001 17.0002 49.4999 17.0002C49.4998 17.0003 49.5001 17.0001 49.5006 17C49.5012 16.9999 49.5012 17 49.5 17L49.5 19ZM17.5547 51.0258C18.6008 50.9685 19.5 50.1183 19.5 49L17.5 49C17.5 49.0012 17.4999 49.0012 17.5 49.0006C17.5001 49.0001 17.5003 48.9998 17.5002 48.9999C17.5002 49.0001 17.4987 49.0033 17.494 49.0081C17.4836 49.0187 17.4667 49.0276 17.4454 49.0288L17.5547 51.0258ZM19.5 87C19.5 85.8817 18.6008 85.0315 17.5547 84.9742L17.4454 86.9712C17.4667 86.9724 17.4836 86.9813 17.494 86.9919C17.4987 86.9967 17.5002 86.9999 17.5002 87.0001C17.5003 87.0002 17.5001 86.9999 17.5 86.9994C17.4999 86.9988 17.5 86.9988 17.5 87H19.5ZM85.4742 17.0547C85.5315 18.1008 86.3817 19 87.5 19V17C87.4988 17 87.4988 16.9999 87.4994 17C87.4999 17.0001 87.5002 17.0003 87.5001 17.0002C87.4999 17.0002 87.4967 16.9987 87.4919 16.994C87.4813 16.9836 87.4724 16.9667 87.4712 16.9454L85.4742 17.0547ZM49.5288 116.945C49.5276 116.967 49.5187 116.984 49.5081 116.994C49.5033 116.999 49.5001 117 49.4999 117C49.4998 117 49.5001 117 49.5006 117C49.5012 117 49.5012 117 49.5 117V119C50.6183 119 51.4685 118.101 51.5258 117.055L49.5288 116.945ZM117.445 86.9712C117.467 86.9724 117.484 86.9813 117.494 86.9919C117.499 86.9967 117.5 86.9999 117.5 87.0001C117.5 87.0002 117.5 86.9999 117.5 86.9994C117.5 86.9988 117.5 86.9988 117.5 87H119.5C119.5 85.8817 118.601 85.0315 117.555 84.9742L117.445 86.9712ZM87.5 117C87.4988 117 87.4988 117 87.4994 117C87.4999 117 87.5002 117 87.5001 117C87.4999 117 87.4967 116.999 87.4919 116.994C87.4813 116.984 87.4724 116.967 87.4712 116.945L85.4742 117.055C85.5315 118.101 86.3817 119 87.5 119V117ZM117.5 49C117.5 49.0012 117.5 49.0012 117.5 49.0006C117.5 49.0001 117.5 48.9998 117.5 48.9999C117.5 49.0001 117.499 49.0033 117.494 49.0081C117.484 49.0187 117.467 49.0276 117.445 49.0288L117.555 51.0258C118.601 50.9685 119.5 50.1183 119.5 49H117.5Z" fill="#374151" mask="url(#path-1-inside-1_686_11545)"/>
<path d="M32.7793 89.084C32.6193 89.084 32.4993 89.04 32.4193 88.952C32.3393 88.864 32.2993 88.74 32.2993 88.58V83.576C32.2993 83.416 32.3393 83.296 32.4193 83.216C32.4993 83.128 32.6153 83.084 32.7673 83.084C32.9193 83.084 33.0353 83.128 33.1153 83.216C33.2033 83.296 33.2473 83.416 33.2473 83.576V84.632L33.1153 84.464C33.2673 84.016 33.5113 83.672 33.8473 83.432C34.1913 83.184 34.5993 83.06 35.0713 83.06C35.5673 83.06 35.9673 83.18 36.2713 83.42C36.5833 83.652 36.7913 84.016 36.8953 84.512H36.7153C36.8593 84.064 37.1153 83.712 37.4833 83.456C37.8593 83.192 38.2953 83.06 38.7913 83.06C39.2313 83.06 39.5913 83.144 39.8713 83.312C40.1593 83.48 40.3753 83.736 40.5193 84.08C40.6633 84.416 40.7353 84.844 40.7353 85.364V88.58C40.7353 88.74 40.6913 88.864 40.6033 88.952C40.5233 89.04 40.4033 89.084 40.2433 89.084C40.0913 89.084 39.9713 89.04 39.8833 88.952C39.8033 88.864 39.7633 88.74 39.7633 88.58V85.412C39.7633 84.876 39.6713 84.484 39.4873 84.236C39.3033 83.98 38.9913 83.852 38.5513 83.852C38.0713 83.852 37.6913 84.02 37.4113 84.356C37.1393 84.684 37.0033 85.132 37.0033 85.7V88.58C37.0033 88.74 36.9593 88.864 36.8713 88.952C36.7913 89.04 36.6713 89.084 36.5113 89.084C36.3593 89.084 36.2393 89.04 36.1513 88.952C36.0713 88.864 36.0313 88.74 36.0313 88.58V85.412C36.0313 84.876 35.9353 84.484 35.7433 84.236C35.5593 83.98 35.2513 83.852 34.8193 83.852C34.3393 83.852 33.9593 84.02 33.6793 84.356C33.4073 84.684 33.2713 85.132 33.2713 85.7V88.58C33.2713 88.916 33.1073 89.084 32.7793 89.084ZM44.3886 89.108C43.9886 89.108 43.6286 89.032 43.3086 88.88C42.9966 88.72 42.7486 88.504 42.5646 88.232C42.3806 87.96 42.2886 87.656 42.2886 87.32C42.2886 86.888 42.3966 86.548 42.6126 86.3C42.8366 86.052 43.2006 85.876 43.7046 85.772C44.2166 85.668 44.9126 85.616 45.7926 85.616H46.3326V86.252H45.8046C45.1566 86.252 44.6446 86.284 44.2686 86.348C43.9006 86.404 43.6406 86.504 43.4886 86.648C43.3446 86.792 43.2726 86.996 43.2726 87.26C43.2726 87.588 43.3846 87.856 43.6086 88.064C43.8406 88.272 44.1526 88.376 44.5446 88.376C44.8646 88.376 45.1446 88.3 45.3846 88.148C45.6326 87.996 45.8246 87.788 45.9606 87.524C46.1046 87.26 46.1766 86.956 46.1766 86.612V85.244C46.1766 84.748 46.0766 84.392 45.8766 84.176C45.6766 83.952 45.3486 83.84 44.8926 83.84C44.6126 83.84 44.3326 83.876 44.0526 83.948C43.7726 84.02 43.4766 84.136 43.1646 84.296C43.0526 84.352 42.9566 84.372 42.8766 84.356C42.7966 84.332 42.7326 84.288 42.6846 84.224C42.6366 84.16 42.6086 84.088 42.6006 84.008C42.5926 83.92 42.6086 83.836 42.6486 83.756C42.6966 83.676 42.7686 83.612 42.8646 83.564C43.2166 83.388 43.5646 83.26 43.9086 83.18C44.2526 83.1 44.5806 83.06 44.8926 83.06C45.3966 83.06 45.8126 83.144 46.1406 83.312C46.4686 83.472 46.7126 83.72 46.8726 84.056C47.0326 84.384 47.1126 84.808 47.1126 85.328V88.58C47.1126 88.74 47.0726 88.864 46.9926 88.952C46.9206 89.04 46.8126 89.084 46.6686 89.084C46.5166 89.084 46.4006 89.04 46.3206 88.952C46.2406 88.864 46.2006 88.74 46.2006 88.58V87.644H46.3086C46.2446 87.948 46.1206 88.208 45.9366 88.424C45.7606 88.64 45.5406 88.808 45.2766 88.928C45.0126 89.048 44.7166 89.108 44.3886 89.108ZM51.4959 91.268C51.0719 91.268 50.6559 91.216 50.2479 91.112C49.8479 91.016 49.4839 90.86 49.1559 90.644C49.0599 90.588 48.9959 90.52 48.9639 90.44C48.9399 90.36 48.9359 90.28 48.9519 90.2C48.9679 90.128 49.0039 90.06 49.0599 89.996C49.1159 89.94 49.1799 89.904 49.2519 89.888C49.3319 89.872 49.4119 89.884 49.4919 89.924C49.8439 90.14 50.1799 90.288 50.4999 90.368C50.8199 90.448 51.1359 90.488 51.4479 90.488C52.0159 90.488 52.4439 90.336 52.7319 90.032C53.0279 89.728 53.1759 89.288 53.1759 88.712V87.356H53.2959C53.1759 87.82 52.9199 88.188 52.5279 88.46C52.1439 88.732 51.6919 88.868 51.1719 88.868C50.6359 88.868 50.1719 88.748 49.7799 88.508C49.3879 88.26 49.0839 87.916 48.8679 87.476C48.6599 87.036 48.5559 86.528 48.5559 85.952C48.5559 85.52 48.6159 85.128 48.7359 84.776C48.8559 84.416 49.0279 84.112 49.2519 83.864C49.4839 83.608 49.7599 83.412 50.0799 83.276C50.4079 83.132 50.7719 83.06 51.1719 83.06C51.6999 83.06 52.1559 83.196 52.5399 83.468C52.9239 83.732 53.1719 84.092 53.2839 84.548L53.1639 84.692V83.576C53.1639 83.416 53.2039 83.296 53.2839 83.216C53.3719 83.128 53.4919 83.084 53.6439 83.084C53.8039 83.084 53.9239 83.128 54.0039 83.216C54.0839 83.296 54.1239 83.416 54.1239 83.576V88.58C54.1239 89.468 53.8999 90.136 53.4519 90.584C53.0119 91.04 52.3599 91.268 51.4959 91.268ZM51.3519 88.076C51.7279 88.076 52.0519 87.992 52.3239 87.824C52.5959 87.648 52.8039 87.4 52.9479 87.08C53.0999 86.76 53.1759 86.384 53.1759 85.952C53.1759 85.304 53.0119 84.792 52.6839 84.416C52.3559 84.032 51.9119 83.84 51.3519 83.84C50.9839 83.84 50.6639 83.928 50.3919 84.104C50.1199 84.272 49.9079 84.516 49.7559 84.836C49.6119 85.148 49.5399 85.52 49.5399 85.952C49.5399 86.6 49.7039 87.116 50.0319 87.5C50.3599 87.884 50.7999 88.076 51.3519 88.076ZM56.4272 89.06C56.2672 89.06 56.1472 89.016 56.0672 88.928C55.9872 88.832 55.9472 88.7 55.9472 88.532V83.624C55.9472 83.456 55.9872 83.328 56.0672 83.24C56.1472 83.152 56.2672 83.108 56.4272 83.108C56.5792 83.108 56.6992 83.152 56.7872 83.24C56.8752 83.328 56.9192 83.456 56.9192 83.624V88.532C56.9192 88.7 56.8752 88.832 56.7872 88.928C56.7072 89.016 56.5872 89.06 56.4272 89.06ZM56.4272 81.764C56.2272 81.764 56.0712 81.712 55.9592 81.608C55.8472 81.496 55.7912 81.348 55.7912 81.164C55.7912 80.972 55.8472 80.828 55.9592 80.732C56.0712 80.628 56.2272 80.576 56.4272 80.576C56.6352 80.576 56.7912 80.628 56.8952 80.732C57.0072 80.828 57.0632 80.972 57.0632 81.164C57.0632 81.348 57.0072 81.496 56.8952 81.608C56.7912 81.712 56.6352 81.764 56.4272 81.764ZM61.2082 89.108C60.6242 89.108 60.1202 88.98 59.6962 88.724C59.2722 88.468 58.9442 88.112 58.7122 87.656C58.4882 87.192 58.3762 86.656 58.3762 86.048C58.3762 85.584 58.4402 85.168 58.5682 84.8C58.6962 84.432 58.8842 84.12 59.1322 83.864C59.3802 83.6 59.6762 83.4 60.0202 83.264C60.3722 83.128 60.7682 83.06 61.2082 83.06C61.4962 83.06 61.7962 83.104 62.1082 83.192C62.4202 83.28 62.7042 83.432 62.9602 83.648C63.0402 83.704 63.0922 83.772 63.1162 83.852C63.1402 83.932 63.1402 84.012 63.1162 84.092C63.0922 84.164 63.0522 84.228 62.9962 84.284C62.9402 84.332 62.8682 84.36 62.7802 84.368C62.7002 84.376 62.6162 84.348 62.5282 84.284C62.3202 84.124 62.1082 84.012 61.8922 83.948C61.6762 83.884 61.4682 83.852 61.2682 83.852C60.9562 83.852 60.6842 83.904 60.4522 84.008C60.2202 84.104 60.0242 84.244 59.8642 84.428C59.7042 84.612 59.5802 84.84 59.4922 85.112C59.4122 85.384 59.3722 85.7 59.3722 86.06C59.3722 86.756 59.5362 87.308 59.8642 87.716C60.1922 88.116 60.6602 88.316 61.2682 88.316C61.4682 88.316 61.6722 88.284 61.8802 88.22C62.0962 88.156 62.3122 88.044 62.5282 87.884C62.6162 87.82 62.7002 87.792 62.7802 87.8C62.8602 87.808 62.9282 87.84 62.9842 87.896C63.0402 87.944 63.0762 88.008 63.0922 88.088C63.1162 88.168 63.1162 88.248 63.0922 88.328C63.0682 88.4 63.0162 88.464 62.9362 88.52C62.6802 88.728 62.4002 88.88 62.0962 88.976C61.7922 89.064 61.4962 89.108 61.2082 89.108ZM64.4617 86.204C64.3417 86.204 64.2417 86.168 64.1617 86.096C64.0817 86.016 64.0417 85.92 64.0417 85.808C64.0417 85.688 64.0817 85.592 64.1617 85.52C64.2417 85.44 64.3417 85.4 64.4617 85.4H67.1617C67.2737 85.4 67.3697 85.44 67.4497 85.52C67.5297 85.592 67.5697 85.688 67.5697 85.808C67.5697 85.92 67.5297 86.016 67.4497 86.096C67.3697 86.168 67.2737 86.204 67.1617 86.204H64.4617ZM69.7517 89.084C69.5917 89.084 69.4677 89.04 69.3797 88.952C69.2997 88.864 69.2597 88.74 69.2597 88.58V83.576C69.2597 83.416 69.2997 83.296 69.3797 83.216C69.4597 83.128 69.5757 83.084 69.7277 83.084C69.8797 83.084 69.9957 83.128 70.0757 83.216C70.1637 83.296 70.2077 83.416 70.2077 83.576V84.548H70.0877C70.2157 84.076 70.4597 83.712 70.8197 83.456C71.1797 83.2 71.6237 83.064 72.1517 83.048C72.2717 83.04 72.3677 83.068 72.4397 83.132C72.5117 83.188 72.5517 83.288 72.5597 83.432C72.5677 83.568 72.5357 83.676 72.4637 83.756C72.3917 83.836 72.2797 83.884 72.1277 83.9L71.9357 83.924C71.3917 83.972 70.9717 84.148 70.6757 84.452C70.3877 84.748 70.2437 85.156 70.2437 85.676V88.58C70.2437 88.74 70.1997 88.864 70.1117 88.952C70.0317 89.04 69.9117 89.084 69.7517 89.084ZM76.1181 89.108C75.5021 89.108 74.9701 88.988 74.5221 88.748C74.0821 88.5 73.7381 88.152 73.4901 87.704C73.2501 87.256 73.1301 86.72 73.1301 86.096C73.1301 85.488 73.2501 84.96 73.4901 84.512C73.7301 84.056 74.0581 83.7 74.4741 83.444C74.8981 83.188 75.3861 83.06 75.9381 83.06C76.3301 83.06 76.6821 83.128 76.9941 83.264C77.3061 83.392 77.5701 83.58 77.7861 83.828C78.0101 84.076 78.1781 84.376 78.2901 84.728C78.4101 85.08 78.4701 85.476 78.4701 85.916C78.4701 86.044 78.4341 86.14 78.3621 86.204C78.2901 86.26 78.1861 86.288 78.0501 86.288H73.8741V85.652H77.8221L77.6301 85.808C77.6301 85.376 77.5661 85.012 77.4381 84.716C77.3101 84.412 77.1221 84.18 76.8741 84.02C76.6341 83.86 76.3301 83.78 75.9621 83.78C75.5541 83.78 75.2061 83.876 74.9181 84.068C74.6381 84.252 74.4261 84.512 74.2821 84.848C74.1381 85.176 74.0661 85.56 74.0661 86V86.072C74.0661 86.808 74.2421 87.368 74.5941 87.752C74.9541 88.136 75.4621 88.328 76.1181 88.328C76.3901 88.328 76.6581 88.292 76.9221 88.22C77.1941 88.148 77.4581 88.028 77.7141 87.86C77.8261 87.788 77.9261 87.756 78.0141 87.764C78.1101 87.764 78.1861 87.792 78.2421 87.848C78.2981 87.896 78.3341 87.96 78.3501 88.04C78.3741 88.112 78.3661 88.192 78.3261 88.28C78.2941 88.368 78.2261 88.444 78.1221 88.508C77.8581 88.7 77.5461 88.848 77.1861 88.952C76.8261 89.056 76.4701 89.108 76.1181 89.108ZM82.4568 91.268C82.0328 91.268 81.6168 91.216 81.2088 91.112C80.8088 91.016 80.4448 90.86 80.1168 90.644C80.0208 90.588 79.9568 90.52 79.9248 90.44C79.9008 90.36 79.8968 90.28 79.9128 90.2C79.9288 90.128 79.9648 90.06 80.0208 89.996C80.0768 89.94 80.1408 89.904 80.2128 89.888C80.2928 89.872 80.3728 89.884 80.4528 89.924C80.8048 90.14 81.1408 90.288 81.4608 90.368C81.7808 90.448 82.0968 90.488 82.4088 90.488C82.9768 90.488 83.4048 90.336 83.6928 90.032C83.9888 89.728 84.1368 89.288 84.1368 88.712V87.356H84.2568C84.1368 87.82 83.8808 88.188 83.4888 88.46C83.1048 88.732 82.6528 88.868 82.1328 88.868C81.5968 88.868 81.1328 88.748 80.7408 88.508C80.3488 88.26 80.0448 87.916 79.8288 87.476C79.6208 87.036 79.5168 86.528 79.5168 85.952C79.5168 85.52 79.5768 85.128 79.6968 84.776C79.8168 84.416 79.9888 84.112 80.2128 83.864C80.4448 83.608 80.7208 83.412 81.0408 83.276C81.3688 83.132 81.7328 83.06 82.1328 83.06C82.6608 83.06 83.1168 83.196 83.5008 83.468C83.8848 83.732 84.1328 84.092 84.2448 84.548L84.1248 84.692V83.576C84.1248 83.416 84.1648 83.296 84.2448 83.216C84.3328 83.128 84.4528 83.084 84.6048 83.084C84.7648 83.084 84.8848 83.128 84.9648 83.216C85.0448 83.296 85.0848 83.416 85.0848 83.576V88.58C85.0848 89.468 84.8608 90.136 84.4128 90.584C83.9728 91.04 83.3208 91.268 82.4568 91.268ZM82.3128 88.076C82.6888 88.076 83.0128 87.992 83.2848 87.824C83.5568 87.648 83.7648 87.4 83.9088 87.08C84.0608 86.76 84.1368 86.384 84.1368 85.952C84.1368 85.304 83.9728 84.792 83.6448 84.416C83.3168 84.032 82.8728 83.84 82.3128 83.84C81.9448 83.84 81.6248 83.928 81.3528 84.104C81.0808 84.272 80.8688 84.516 80.7168 84.836C80.5728 85.148 80.5008 85.52 80.5008 85.952C80.5008 86.6 80.6648 87.116 80.9928 87.5C81.3208 87.884 81.7608 88.076 82.3128 88.076ZM89.5361 89.108C88.9201 89.108 88.3881 88.988 87.9401 88.748C87.5001 88.5 87.1561 88.152 86.9081 87.704C86.6681 87.256 86.5481 86.72 86.5481 86.096C86.5481 85.488 86.6681 84.96 86.9081 84.512C87.1481 84.056 87.4761 83.7 87.8921 83.444C88.3161 83.188 88.8041 83.06 89.3561 83.06C89.7481 83.06 90.1001 83.128 90.4121 83.264C90.7241 83.392 90.9881 83.58 91.2041 83.828C91.4281 84.076 91.5961 84.376 91.7081 84.728C91.8281 85.08 91.8881 85.476 91.8881 85.916C91.8881 86.044 91.8521 86.14 91.7801 86.204C91.7081 86.26 91.6041 86.288 91.4681 86.288H87.2921V85.652H91.2401L91.0481 85.808C91.0481 85.376 90.9841 85.012 90.8561 84.716C90.7281 84.412 90.5401 84.18 90.2921 84.02C90.0521 83.86 89.7481 83.78 89.3801 83.78C88.9721 83.78 88.6241 83.876 88.3361 84.068C88.0561 84.252 87.8441 84.512 87.7001 84.848C87.5561 85.176 87.4841 85.56 87.4841 86V86.072C87.4841 86.808 87.6601 87.368 88.0121 87.752C88.3721 88.136 88.8801 88.328 89.5361 88.328C89.8081 88.328 90.0761 88.292 90.3401 88.22C90.6121 88.148 90.8761 88.028 91.1321 87.86C91.2441 87.788 91.3441 87.756 91.4321 87.764C91.5281 87.764 91.6041 87.792 91.6601 87.848C91.7161 87.896 91.7521 87.96 91.7681 88.04C91.7921 88.112 91.7841 88.192 91.7441 88.28C91.7121 88.368 91.6441 88.444 91.5401 88.508C91.2761 88.7 90.9641 88.848 90.6041 88.952C90.2441 89.056 89.8881 89.108 89.5361 89.108ZM93.2719 89.072C93.1679 89.072 93.0759 89.04 92.9959 88.976C92.9159 88.912 92.8719 88.828 92.8639 88.724C92.8639 88.612 92.9159 88.496 93.0199 88.376L95.1199 85.736V86.24L93.1519 83.78C93.0479 83.652 92.9959 83.536 92.9959 83.432C93.0039 83.328 93.0479 83.244 93.1279 83.18C93.2079 83.116 93.2999 83.084 93.4039 83.084C93.5239 83.084 93.6239 83.108 93.7039 83.156C93.7919 83.196 93.8719 83.264 93.9439 83.36L95.6599 85.532H95.3239L97.0519 83.36C97.1239 83.264 97.1999 83.196 97.2799 83.156C97.3599 83.108 97.4599 83.084 97.5799 83.084C97.6919 83.084 97.7839 83.116 97.8559 83.18C97.9359 83.244 97.9759 83.332 97.9759 83.444C97.9839 83.548 97.9359 83.664 97.8319 83.792L95.8759 86.216V85.772L97.9759 88.376C98.0719 88.496 98.1159 88.612 98.1079 88.724C98.1079 88.828 98.0679 88.912 97.9879 88.976C97.9079 89.04 97.8119 89.072 97.6999 89.072C97.5879 89.072 97.4879 89.048 97.3999 89C97.3199 88.96 97.2399 88.892 97.1599 88.796L95.3119 86.468H95.6599L93.8119 88.796C93.7399 88.884 93.6599 88.952 93.5719 89C93.4919 89.048 93.3919 89.072 93.2719 89.072ZM100.033 91.244C99.8726 91.244 99.7526 91.2 99.6726 91.112C99.5926 91.032 99.5526 90.912 99.5526 90.752V83.576C99.5526 83.416 99.5926 83.296 99.6726 83.216C99.7526 83.128 99.8686 83.084 100.021 83.084C100.181 83.084 100.301 83.128 100.381 83.216C100.469 83.296 100.513 83.416 100.513 83.576V84.716L100.381 84.548C100.509 84.092 100.761 83.732 101.137 83.468C101.521 83.196 101.977 83.06 102.505 83.06C103.025 83.06 103.477 83.184 103.861 83.432C104.253 83.672 104.553 84.02 104.761 84.476C104.977 84.924 105.085 85.46 105.085 86.084C105.085 86.7 104.977 87.236 104.761 87.692C104.553 88.14 104.257 88.488 103.873 88.736C103.489 88.984 103.033 89.108 102.505 89.108C101.977 89.108 101.525 88.976 101.149 88.712C100.773 88.44 100.517 88.08 100.381 87.632H100.525V90.752C100.525 90.912 100.481 91.032 100.393 91.112C100.305 91.2 100.185 91.244 100.033 91.244ZM102.301 88.328C102.669 88.328 102.985 88.24 103.249 88.064C103.521 87.888 103.729 87.632 103.873 87.296C104.025 86.96 104.101 86.556 104.101 86.084C104.101 85.356 103.937 84.8 103.609 84.416C103.289 84.032 102.853 83.84 102.301 83.84C101.941 83.84 101.625 83.928 101.353 84.104C101.081 84.272 100.869 84.524 100.717 84.86C100.573 85.188 100.501 85.596 100.501 86.084C100.501 86.804 100.665 87.36 100.993 87.752C101.321 88.136 101.757 88.328 102.301 88.328Z" fill="#F9FAFB"/>
<path d="M65.6759 49.4272C65.6759 49.4272 63.2741 48.8782 61.3228 49.6985C59.4941 50.4685 59.2337 51.9363 59.3978 52.7785C59.5619 53.6207 60.0912 54.3578 61.1522 54.4257C61.8762 54.4716 62.1212 54.056 62.0206 53.881C61.9681 53.7913 61.2003 53.3057 61.5525 52.6997C61.8478 52.1944 62.8431 52.6603 63.1275 53.1C63.3944 53.5113 63.7444 54.1063 63.7444 54.1063C63.7444 54.1063 66.7631 52.8135 66.6997 52.7303C66.6362 52.6472 65.6759 49.4272 65.6759 49.4272Z" fill="#E74B8C"/>
<path d="M65.5316 51.1116L64.5866 50.2694L63.0378 52.1485L63.9194 53.5222L66.1681 52.5378L65.5316 51.1116Z" fill="#FCD817"/>
<path d="M60.8109 51.9319C60.6928 52.2797 60.7978 52.8375 60.3603 52.8856C59.9097 52.9359 59.5837 52.3912 59.8572 51.5206C60.0934 50.7703 61.0253 50.324 61.3862 50.9365C61.6509 51.3872 61.0253 51.2953 60.8109 51.9319Z" fill="#EF7FAD"/>
<path d="M62.9962 48.5959C62.935 48.6988 61.8675 50.2694 61.8675 50.2694L62.8934 51.9013L64.125 51.2756L64.3809 50.0331L62.9962 48.5959Z" fill="#BBD047"/>
<path d="M61.8259 47.395L60.8919 48.5741L61.8063 50.1666L62.6572 49.7444L63.0488 48.6266L61.8259 47.395Z" fill="#62A5A8"/>
<path d="M60.5528 46.111L59.9075 46.7891L60.8613 48.5041L61.4059 48.1038L61.7844 47.3425L60.5528 46.111Z" fill="#38B2E8"/>
<path d="M59.3212 45.26C59.1003 45.481 59.9053 46.7803 59.9053 46.7803C59.9053 46.7803 60.5003 46.1022 60.5003 46.0628C60.5025 46.0191 59.5772 45.0019 59.3212 45.26Z" fill="#A37BCB"/>
<path d="M64.3831 49.95C64.6806 49.8669 64.8863 50.4225 64.6194 50.9869C64.3809 51.49 64.0353 51.8794 63.5716 52.1375C63.3419 52.2644 62.9963 52.4044 62.8628 52.1572C62.7184 51.8925 62.8825 51.7569 63.1713 51.5513C63.4359 51.3609 63.705 51.0788 63.8581 50.8119C64.0113 50.545 64.16 50.0113 64.3831 49.95ZM62.9656 48.4625C63.2063 48.3925 63.3856 48.8738 63.1691 49.3572C62.9766 49.7881 62.7381 50.1316 62.3663 50.3525C62.1825 50.4619 61.9025 50.5822 61.7953 50.37C61.6794 50.1425 61.7888 49.9828 62.0206 49.8056C62.235 49.6438 62.4209 49.3463 62.5434 49.1188C62.6681 48.8913 62.7863 48.515 62.9656 48.4625ZM61.7384 47.15C61.9375 47.2047 62.0775 47.5569 61.8981 47.9178C61.7384 48.2394 61.5831 48.41 61.2725 48.5741C61.1172 48.655 60.9378 48.7578 60.8394 48.6353C60.7147 48.4822 60.6688 48.2634 60.8634 48.1322C61.0428 48.0119 61.2441 47.8653 61.3775 47.6094C61.4672 47.4322 61.5547 47.0997 61.7384 47.15ZM60.4216 45.9338C60.5572 45.9009 60.7234 46.1853 60.6031 46.4128C60.4959 46.6163 60.3581 46.7453 60.1481 46.8503C60.0453 46.9028 59.9294 46.9334 59.8681 46.835C59.8025 46.7278 59.7413 46.6534 59.8725 46.5703C59.9928 46.4938 60.1613 46.3209 60.2313 46.2116C60.3013 46.1044 60.3209 45.96 60.4216 45.9338Z" fill="#A364B2"/>
<path d="M65.4988 70.2282C65.2778 70.0816 66.3738 66.271 66.8047 65.256C67.2356 64.2388 67.4916 63.3879 67.4916 63.3879C67.4916 63.3879 65.4288 63.705 64.0944 63.716C63.0772 63.7247 61.6006 63.5935 61.6006 63.5935L58.6431 59.7129C58.6431 59.7129 59.4744 58.2035 59.9666 57.5888C60.4588 56.9719 61.9375 54.9704 62.6769 54.2638C63.4163 53.555 64.4313 52.8157 64.8644 52.6319C65.2953 52.4482 65.5731 52.3235 65.5731 52.3235C65.5731 52.3235 65.3566 51 65.4506 50.1688C65.5425 49.3375 66.7216 47.0166 66.9075 47.0166C67.1547 47.0166 68.2222 48.5982 68.4366 49.6744C68.6531 50.7507 70.9938 53.7694 70.9938 53.7694L77.8297 66.7041C77.8297 66.7041 77.9522 70.1538 77.9216 70.2763C77.8909 70.3988 74.1022 70.9238 71.7922 70.9238C69.4822 70.9238 65.6847 70.3529 65.4988 70.2282Z" fill="#DFDFDF"/>
<path d="M70.1559 59.1768C69.9284 59.1659 69.2788 60.4675 68.6269 61.4256C68.0778 62.2306 67.4347 62.6178 66.7478 62.9765C66.0391 63.3462 64.9869 63.5868 65.3456 63.659C65.7044 63.7312 67.8459 63.4928 68.5634 63.1909C68.9681 63.0225 69.5325 62.189 69.8213 61.6356C70.11 61.0821 70.6284 59.1965 70.1559 59.1768Z" fill="#B0B0B0"/>
<path d="M66.2666 56.6744C66.3125 57.3525 66.0653 57.9366 65.3587 57.9825C64.86 58.0153 64.4859 57.51 64.4225 56.8931C64.3722 56.4119 64.5734 55.7906 65.2319 55.6988C65.8509 55.6113 66.2228 56.0553 66.2666 56.6744Z" fill="#303030"/>
<path d="M68.4059 49.6831C68.4059 49.6831 70.2631 50.5188 70.9784 50.3613C71.5319 50.2388 71.7244 49.8385 71.7484 49.4381C71.7791 48.9 71.3022 48.9613 71.2256 48.7447C71.1491 48.5281 71.7178 48.1431 72.3806 48.2678C73.0434 48.3903 73.8331 49.0028 73.8178 49.9872C73.8025 50.9716 73.1966 51.501 73.1966 51.501C73.1966 51.501 74.7934 51.4244 75.8609 52.5181C77.0619 53.7497 76.7994 55.7666 76.7994 55.7666C76.7994 55.7666 77.4316 55.8585 77.6613 55.5347C77.8909 55.211 77.8297 54.8413 77.6766 54.6269C77.5234 54.4103 77.9697 54.2725 78.2606 54.395C78.5538 54.5175 79.9056 55.4866 79.1706 57.0506C78.7156 58.0219 77.5672 58.1685 77.5672 58.1685C77.5672 58.1685 79.4922 59.0194 80.1966 61.1653C80.9709 63.5278 80.1244 65.0985 79.2472 66.6056C78.37 68.115 78.4488 68.2047 78.4006 68.6991C78.3394 69.316 78.1534 70.086 77.9238 70.0685C77.6919 70.0531 77.4163 69.4056 77.2763 68.6991C77.1384 67.9903 76.2744 67.2969 75.5831 66.6669C74.8919 66.0369 73.155 64.3722 72.6563 62.8497C72.0241 60.9247 72.3478 58.245 72.3478 58.245C72.3478 58.245 70.4381 57.3678 69.375 55.6113C68.2244 53.7103 68.3272 52.3169 68.3272 52.3169C68.3272 52.3169 68.6203 51.4856 68.6356 50.9147C68.6509 50.3438 68.4059 49.6831 68.4059 49.6831Z" fill="#E74B8C"/>
<path d="M71.4094 51.0088C71.5428 51.5819 72.595 51.2866 72.7962 50.3153C72.9975 49.3441 72.4419 48.9131 72.1181 49.0991C71.7944 49.2828 72.1947 49.7772 71.9803 50.1928C71.7659 50.6084 71.3 50.545 71.4094 51.0088ZM76.7469 56.6C76.5631 57.16 77.5234 57.3547 78.2759 56.7509C79.0481 56.1297 78.8294 55.2109 78.3831 55.2569C77.8166 55.3159 78.0572 55.9569 77.6569 56.1997C77.2566 56.4447 76.8956 56.1516 76.7469 56.6ZM70.1931 51.7306C69.4537 51.6388 69.3509 53.0803 69.8081 54.0713C70.5322 55.6419 71.7331 55.3488 72.5644 56.3659C73.2075 57.1534 73.0566 58.1684 73.7194 58.1531C74.3822 58.1378 74.5506 57.0287 73.5356 55.6747C72.5184 54.3206 71.2409 54.3206 70.8559 53.5047C70.4687 52.6866 71.055 51.84 70.1931 51.7306ZM73.9491 58.7066C73.1025 59.19 73.7062 60.2859 74.1656 60.3844C74.8131 60.5222 75.1041 60.0912 75.1828 59.6603C75.2616 59.2294 74.8109 58.2144 73.9491 58.7066ZM74.5966 61.3097C73.9272 61.4191 74.0016 62.0906 74.1197 62.7731C74.3209 63.9434 74.9356 65.0678 75.6597 65.6672C76.3597 66.2469 76.7534 66.0675 76.9525 65.8356C77.1887 65.5644 76.9678 65.0809 76.69 64.7572C76.4122 64.4334 76.0534 64.0178 75.8128 63.6634C75.5197 63.2325 75.4847 62.6725 75.4278 62.3553C75.3206 61.7406 75.2572 61.2003 74.5966 61.3097Z" fill="#F081AF"/>
<path d="M56.9806 64.405C57.6587 65.6847 59.2447 65.3588 59.2447 65.3588C59.2447 65.3588 60.7387 64.6807 60.7387 64.6347C60.7387 64.5888 61.7231 63.3419 61.7231 63.3419C61.7231 63.3419 61.4606 62.2175 60.4456 60.986C59.6428 60.0147 58.7984 59.5378 58.7984 59.5378L56.95 61.2003C56.95 61.2003 56.0269 62.6025 56.9806 64.405Z" fill="white"/>
<path d="M58.1969 61.0319C58.0897 61.4322 58.4441 61.5853 58.5666 61.7253C58.6891 61.8631 58.3981 62.4494 58.8137 62.6025C59.2294 62.7556 59.7062 62.0644 59.5531 61.4628C59.3869 60.8197 58.3587 60.4325 58.1969 61.0319Z" fill="#90909B"/>
<path d="M58.9822 59.4875C58.875 59.2818 58.6388 59.3846 58.4069 59.6012C58.175 59.8178 56.8669 60.7715 56.4972 61.6443C56.2259 62.2853 56.0313 63.5212 56.7356 64.5275C57.4663 65.5731 58.1225 65.6737 59.1222 65.5906C60.5856 65.4681 61.395 64.2671 61.5503 64.0659C61.7056 63.8646 62.0425 63.4293 61.8588 63.215C61.675 62.9984 61.5022 63.3112 61.2638 63.635C60.9553 64.0506 60.7103 64.3021 60.4019 64.58C60.2225 64.7418 59.7084 65.0218 59.4941 65.0678C59.2775 65.1137 59.9206 64.744 60.1722 64.3131C60.3428 64.0221 60.695 63.3287 60.695 63.3287L60.0934 63.145C60.0934 63.145 59.8003 63.7815 59.5706 64.0593C59.3388 64.3371 58.6169 64.9628 58.4003 65.0087C58.1838 65.0546 57.3678 64.6915 57.0047 64.0396C56.6547 63.414 56.6 62.515 56.9544 61.8062C57.3088 61.0975 58.2013 60.3734 58.4791 60.159C58.7525 59.9381 59.12 59.75 58.9822 59.4875Z" fill="#AFAFAF"/>
<path d="M60.7388 62.7316C60.5725 62.5872 60.2969 62.69 60.1547 62.8847C60.0103 63.0794 59.96 63.3047 60.2466 63.46C60.5331 63.6132 60.7191 63.4491 60.8525 63.2653C60.9838 63.0794 60.8919 62.865 60.7388 62.7316Z" fill="#90909B"/>
</svg>
