<svg width="101" height="137" viewBox="0 0 101 137" fill="none" xmlns="http://www.w3.org/2000/svg">
<mask id="path-1-inside-1_775_11602" fill="white">
<path fill-rule="evenodd" clip-rule="evenodd" d="M69.5 18.5C68.9477 18.5 68.5029 18.0515 68.4727 17.5C67.9538 8.02403 60.1056 0.5 50.5 0.5C40.8944 0.5 33.0462 8.02403 32.5273 17.5C32.4971 18.0515 32.0523 18.5 31.5 18.5L4.5 18.5C2.29086 18.5 0.5 20.2909 0.5 22.5L0.5 49.5C0.5 50.0523 0.948497 50.4971 1.49996 50.5273C10.976 51.0462 18.5 58.8944 18.5 68.5C18.5 78.1056 10.976 85.9538 1.49996 86.4727C0.948498 86.5029 0.5 86.9477 0.5 87.5L0.5 114.5C0.5 116.709 2.29086 118.5 4.5 118.5L31.5 118.5C32.0523 118.5 32.4971 118.948 32.5273 119.5C33.0462 128.976 40.8944 136.5 50.5 136.5C60.1056 136.5 67.9538 128.976 68.4727 119.5C68.5029 118.948 68.9477 118.5 69.5 118.5L96.5 118.5C98.7091 118.5 100.5 116.709 100.5 114.5V87.5C100.5 86.9477 100.052 86.5029 99.5 86.4727C90.024 85.9538 82.5 78.1056 82.5 68.5C82.5 58.8944 90.024 51.0462 99.5 50.5273C100.052 50.4971 100.5 50.0523 100.5 49.5V22.5C100.5 20.2909 98.7091 18.5 96.5 18.5L69.5 18.5Z"/>
</mask>
<path fill-rule="evenodd" clip-rule="evenodd" d="M69.5 18.5C68.9477 18.5 68.5029 18.0515 68.4727 17.5C67.9538 8.02403 60.1056 0.5 50.5 0.5C40.8944 0.5 33.0462 8.02403 32.5273 17.5C32.4971 18.0515 32.0523 18.5 31.5 18.5L4.5 18.5C2.29086 18.5 0.5 20.2909 0.5 22.5L0.5 49.5C0.5 50.0523 0.948497 50.4971 1.49996 50.5273C10.976 51.0462 18.5 58.8944 18.5 68.5C18.5 78.1056 10.976 85.9538 1.49996 86.4727C0.948498 86.5029 0.5 86.9477 0.5 87.5L0.5 114.5C0.5 116.709 2.29086 118.5 4.5 118.5L31.5 118.5C32.0523 118.5 32.4971 118.948 32.5273 119.5C33.0462 128.976 40.8944 136.5 50.5 136.5C60.1056 136.5 67.9538 128.976 68.4727 119.5C68.5029 118.948 68.9477 118.5 69.5 118.5L96.5 118.5C98.7091 118.5 100.5 116.709 100.5 114.5V87.5C100.5 86.9477 100.052 86.5029 99.5 86.4727C90.024 85.9538 82.5 78.1056 82.5 68.5C82.5 58.8944 90.024 51.0462 99.5 50.5273C100.052 50.4971 100.5 50.0523 100.5 49.5V22.5C100.5 20.2909 98.7091 18.5 96.5 18.5L69.5 18.5Z" fill="#374151" fill-opacity="0.4"/>
<path d="M99.5 50.5273L99.4454 49.5288L99.5 50.5273ZM99.5 86.4727L99.5547 85.4742L99.5 86.4727ZM32.5273 119.5L31.5288 119.555L32.5273 119.5ZM1.49996 86.4727L1.44528 85.4742L1.49996 86.4727ZM32.5273 17.5L31.5288 17.4454L32.5273 17.5ZM68.4727 119.5L69.4712 119.555L68.4727 119.5ZM68.4727 17.5L67.4742 17.5547L68.4727 17.5ZM50.5 1.5C59.5716 1.5 66.9842 8.60603 67.4742 17.5547L69.4712 17.4454C68.9235 7.44204 60.6396 -0.5 50.5 -0.5V1.5ZM33.5258 17.5547C34.0158 8.60603 41.4284 1.5 50.5 1.5V-0.5C40.3604 -0.5 32.0765 7.44204 31.5288 17.4454L33.5258 17.5547ZM31.5 17.5L4.5 17.5V19.5L31.5 19.5V17.5ZM4.5 17.5C1.73858 17.5 -0.5 19.7386 -0.5 22.5H1.5C1.5 20.8431 2.84315 19.5 4.5 19.5V17.5ZM-0.5 22.5L-0.5 49.5H1.5L1.5 22.5H-0.5ZM1.44528 51.5258C10.394 52.0158 17.5 59.4284 17.5 68.5H19.5C19.5 58.3604 11.558 50.0765 1.55463 49.5288L1.44528 51.5258ZM17.5 68.5C17.5 77.5716 10.394 84.9842 1.44528 85.4742L1.55463 87.4712C11.558 86.9235 19.5 78.6396 19.5 68.5H17.5ZM-0.5 87.5L-0.5 114.5H1.5L1.5 87.5H-0.5ZM-0.5 114.5C-0.5 117.261 1.73858 119.5 4.5 119.5V117.5C2.84315 117.5 1.5 116.157 1.5 114.5H-0.5ZM4.5 119.5L31.5 119.5V117.5L4.5 117.5V119.5ZM31.5288 119.555C32.0765 129.558 40.3604 137.5 50.5 137.5V135.5C41.4284 135.5 34.0158 128.394 33.5258 119.445L31.5288 119.555ZM50.5 137.5C60.6396 137.5 68.9235 129.558 69.4712 119.555L67.4742 119.445C66.9842 128.394 59.5716 135.5 50.5 135.5V137.5ZM69.5 119.5L96.5 119.5V117.5L69.5 117.5V119.5ZM96.5 119.5C99.2614 119.5 101.5 117.261 101.5 114.5H99.5C99.5 116.157 98.1569 117.5 96.5 117.5V119.5ZM101.5 114.5V87.5H99.5V114.5H101.5ZM99.5547 85.4742C90.606 84.9842 83.5 77.5716 83.5 68.5H81.5C81.5 78.6396 89.442 86.9235 99.4454 87.4712L99.5547 85.4742ZM83.5 68.5C83.5 59.4284 90.606 52.0158 99.5547 51.5258L99.4454 49.5288C89.442 50.0765 81.5 58.3604 81.5 68.5H83.5ZM101.5 49.5V22.5H99.5V49.5H101.5ZM101.5 22.5C101.5 19.7386 99.2614 17.5 96.5 17.5V19.5C98.1569 19.5 99.5 20.8431 99.5 22.5H101.5ZM96.5 17.5L69.5 17.5V19.5L96.5 19.5V17.5ZM99.5547 51.5258C100.601 51.4685 101.5 50.6183 101.5 49.5H99.5C99.5 49.5012 99.4999 49.5012 99.5 49.5006C99.5001 49.5001 99.5003 49.4998 99.5002 49.4999C99.5002 49.5001 99.4987 49.5033 99.494 49.5081C99.4836 49.5187 99.4666 49.5276 99.4454 49.5288L99.5547 51.5258ZM101.5 87.5C101.5 86.3817 100.601 85.5315 99.5547 85.4742L99.4454 87.4712C99.4667 87.4724 99.4836 87.4813 99.494 87.4919C99.4987 87.4967 99.5002 87.4999 99.5002 87.5001C99.5003 87.5002 99.5001 87.4999 99.5 87.4993C99.4999 87.4988 99.5 87.4988 99.5 87.5H101.5ZM31.5 119.5C31.5012 119.5 31.5012 119.5 31.5007 119.5C31.5001 119.5 31.4998 119.5 31.4999 119.5C31.5001 119.5 31.5033 119.501 31.5081 119.506C31.5187 119.516 31.5276 119.533 31.5288 119.555L33.5258 119.445C33.4685 118.399 32.6183 117.5 31.5 117.5V119.5ZM-0.5 49.5C-0.5 50.6183 0.399211 51.4685 1.44528 51.5258L1.55463 49.5288C1.53335 49.5276 1.5164 49.5187 1.506 49.5081C1.50127 49.5033 1.49985 49.5001 1.49977 49.4999C1.49974 49.4998 1.49987 49.5001 1.49998 49.5007C1.5001 49.5012 1.5 49.5012 1.5 49.5H-0.5ZM1.44528 85.4742C0.399214 85.5315 -0.5 86.3817 -0.5 87.5H1.5C1.5 87.4988 1.5001 87.4988 1.49998 87.4994C1.49987 87.4999 1.49974 87.5002 1.49977 87.5001C1.49985 87.4999 1.50127 87.4967 1.506 87.4919C1.5164 87.4813 1.53335 87.4724 1.55463 87.4712L1.44528 85.4742ZM31.5288 17.4454C31.5276 17.4667 31.5187 17.4836 31.5081 17.494C31.5033 17.4987 31.5001 17.5002 31.4999 17.5002C31.4998 17.5003 31.5001 17.5001 31.5006 17.5C31.5012 17.4999 31.5012 17.5 31.5 17.5V19.5C32.6183 19.5 33.4685 18.6008 33.5258 17.5547L31.5288 17.4454ZM69.4712 119.555C69.4724 119.533 69.4813 119.516 69.4919 119.506C69.4967 119.501 69.4999 119.5 69.5001 119.5C69.5002 119.5 69.4999 119.5 69.4994 119.5C69.4988 119.5 69.4988 119.5 69.5 119.5V117.5C68.3817 117.5 67.5315 118.399 67.4742 119.445L69.4712 119.555ZM67.4742 17.5547C67.5315 18.6008 68.3817 19.5 69.5 19.5V17.5C69.4988 17.5 69.4988 17.4999 69.4994 17.5C69.4999 17.5001 69.5002 17.5003 69.5001 17.5002C69.4999 17.5002 69.4967 17.4987 69.4919 17.494C69.4813 17.4836 69.4724 17.4666 69.4712 17.4454L67.4742 17.5547Z" fill="#374151" mask="url(#path-1-inside-1_775_11602)"/>
<path d="M33.3594 89.584C33.1994 89.584 33.0794 89.54 32.9994 89.452C32.9194 89.364 32.8794 89.24 32.8794 89.08V84.076C32.8794 83.916 32.9194 83.796 32.9994 83.716C33.0794 83.628 33.1954 83.584 33.3474 83.584C33.4994 83.584 33.6154 83.628 33.6954 83.716C33.7834 83.796 33.8274 83.916 33.8274 84.076V85.132L33.6954 84.964C33.8474 84.516 34.0914 84.172 34.4274 83.932C34.7714 83.684 35.1794 83.56 35.6514 83.56C36.1474 83.56 36.5474 83.68 36.8514 83.92C37.1634 84.152 37.3714 84.516 37.4754 85.012H37.2954C37.4394 84.564 37.6954 84.212 38.0634 83.956C38.4394 83.692 38.8754 83.56 39.3714 83.56C39.8114 83.56 40.1714 83.644 40.4514 83.812C40.7394 83.98 40.9554 84.236 41.0994 84.58C41.2434 84.916 41.3154 85.344 41.3154 85.864V89.08C41.3154 89.24 41.2714 89.364 41.1834 89.452C41.1034 89.54 40.9834 89.584 40.8234 89.584C40.6714 89.584 40.5514 89.54 40.4634 89.452C40.3834 89.364 40.3434 89.24 40.3434 89.08V85.912C40.3434 85.376 40.2514 84.984 40.0674 84.736C39.8834 84.48 39.5714 84.352 39.1314 84.352C38.6514 84.352 38.2714 84.52 37.9914 84.856C37.7194 85.184 37.5834 85.632 37.5834 86.2V89.08C37.5834 89.24 37.5394 89.364 37.4514 89.452C37.3714 89.54 37.2514 89.584 37.0914 89.584C36.9394 89.584 36.8194 89.54 36.7314 89.452C36.6514 89.364 36.6114 89.24 36.6114 89.08V85.912C36.6114 85.376 36.5154 84.984 36.3234 84.736C36.1394 84.48 35.8314 84.352 35.3994 84.352C34.9194 84.352 34.5394 84.52 34.2594 84.856C33.9874 85.184 33.8514 85.632 33.8514 86.2V89.08C33.8514 89.416 33.6874 89.584 33.3594 89.584ZM45.3527 89.608C44.8327 89.608 44.3767 89.484 43.9847 89.236C43.6007 88.988 43.3007 88.64 43.0847 88.192C42.8767 87.736 42.7727 87.2 42.7727 86.584C42.7727 85.96 42.8767 85.424 43.0847 84.976C43.3007 84.52 43.6007 84.172 43.9847 83.932C44.3767 83.684 44.8327 83.56 45.3527 83.56C45.8807 83.56 46.3327 83.692 46.7087 83.956C47.0847 84.22 47.3367 84.576 47.4647 85.024H47.3327V81.448C47.3327 81.288 47.3727 81.168 47.4527 81.088C47.5407 81 47.6647 80.956 47.8247 80.956C47.9767 80.956 48.0927 81 48.1727 81.088C48.2607 81.168 48.3047 81.288 48.3047 81.448V89.08C48.3047 89.24 48.2647 89.364 48.1847 89.452C48.1047 89.54 47.9847 89.584 47.8247 89.584C47.6727 89.584 47.5527 89.54 47.4647 89.452C47.3847 89.364 47.3447 89.24 47.3447 89.08V87.94L47.4767 88.108C47.3487 88.564 47.0927 88.928 46.7087 89.2C46.3327 89.472 45.8807 89.608 45.3527 89.608ZM45.5567 88.828C45.9167 88.828 46.2327 88.74 46.5047 88.564C46.7767 88.388 46.9847 88.132 47.1287 87.796C47.2807 87.46 47.3567 87.056 47.3567 86.584C47.3567 85.856 47.1927 85.3 46.8647 84.916C46.5447 84.532 46.1087 84.34 45.5567 84.34C45.1887 84.34 44.8687 84.428 44.5967 84.604C44.3327 84.772 44.1247 85.024 43.9727 85.36C43.8287 85.688 43.7567 86.096 43.7567 86.584C43.7567 87.304 43.9207 87.86 44.2487 88.252C44.5767 88.636 45.0127 88.828 45.5567 88.828ZM53.0808 89.608C52.5528 89.608 52.0968 89.472 51.7128 89.2C51.3368 88.928 51.0848 88.564 50.9568 88.108L51.0888 87.976V89.08C51.0888 89.24 51.0448 89.364 50.9568 89.452C50.8768 89.54 50.7608 89.584 50.6088 89.584C50.4488 89.584 50.3288 89.54 50.2488 89.452C50.1688 89.364 50.1288 89.24 50.1288 89.08V81.448C50.1288 81.288 50.1688 81.168 50.2488 81.088C50.3288 81 50.4488 80.956 50.6088 80.956C50.7608 80.956 50.8808 81 50.9688 81.088C51.0568 81.168 51.1008 81.288 51.1008 81.448V85.024H50.9568C51.0928 84.576 51.3488 84.22 51.7248 83.956C52.1008 83.692 52.5528 83.56 53.0808 83.56C53.6088 83.56 54.0648 83.684 54.4488 83.932C54.8328 84.172 55.1288 84.52 55.3368 84.976C55.5528 85.424 55.6608 85.96 55.6608 86.584C55.6608 87.2 55.5528 87.736 55.3368 88.192C55.1288 88.64 54.8288 88.988 54.4368 89.236C54.0528 89.484 53.6008 89.608 53.0808 89.608ZM52.8768 88.828C53.2448 88.828 53.5608 88.74 53.8248 88.564C54.0968 88.388 54.3048 88.132 54.4488 87.796C54.6008 87.46 54.6768 87.056 54.6768 86.584C54.6768 85.856 54.5128 85.3 54.1848 84.916C53.8648 84.532 53.4288 84.34 52.8768 84.34C52.5168 84.34 52.2008 84.428 51.9288 84.604C51.6568 84.772 51.4448 85.024 51.2928 85.36C51.1488 85.688 51.0768 86.096 51.0768 86.584C51.0768 87.304 51.2408 87.86 51.5688 88.252C51.8968 88.636 52.3328 88.828 52.8768 88.828ZM59.5489 89.608C58.9809 89.608 58.4889 89.484 58.0729 89.236C57.6569 88.988 57.3329 88.64 57.1009 88.192C56.8769 87.736 56.7649 87.2 56.7649 86.584C56.7649 86.12 56.8289 85.704 56.9569 85.336C57.0849 84.96 57.2729 84.64 57.5209 84.376C57.7689 84.112 58.0609 83.912 58.3969 83.776C58.7409 83.632 59.1249 83.56 59.5489 83.56C60.1169 83.56 60.6089 83.684 61.0249 83.932C61.4409 84.18 61.7609 84.532 61.9849 84.988C62.2169 85.436 62.3329 85.968 62.3329 86.584C62.3329 87.048 62.2689 87.464 62.1409 87.832C62.0129 88.2 61.8249 88.52 61.5769 88.792C61.3289 89.056 61.0329 89.26 60.6889 89.404C60.3529 89.54 59.9729 89.608 59.5489 89.608ZM59.5489 88.828C59.9089 88.828 60.2249 88.74 60.4969 88.564C60.7689 88.388 60.9769 88.132 61.1209 87.796C61.2729 87.46 61.3489 87.056 61.3489 86.584C61.3489 85.856 61.1849 85.3 60.8569 84.916C60.5369 84.532 60.1009 84.34 59.5489 84.34C59.1809 84.34 58.8609 84.428 58.5889 84.604C58.3249 84.772 58.1169 85.024 57.9649 85.36C57.8209 85.688 57.7489 86.096 57.7489 86.584C57.7489 87.304 57.9129 87.86 58.2409 88.252C58.5689 88.636 59.0049 88.828 59.5489 88.828ZM63.688 89.572C63.584 89.572 63.492 89.54 63.412 89.476C63.332 89.412 63.288 89.328 63.28 89.224C63.28 89.112 63.332 88.996 63.436 88.876L65.536 86.236V86.74L63.568 84.28C63.464 84.152 63.412 84.036 63.412 83.932C63.42 83.828 63.464 83.744 63.544 83.68C63.624 83.616 63.716 83.584 63.82 83.584C63.94 83.584 64.04 83.608 64.12 83.656C64.208 83.696 64.288 83.764 64.36 83.86L66.076 86.032H65.74L67.468 83.86C67.54 83.764 67.616 83.696 67.696 83.656C67.776 83.608 67.876 83.584 67.996 83.584C68.108 83.584 68.2 83.616 68.272 83.68C68.352 83.744 68.392 83.832 68.392 83.944C68.4 84.048 68.352 84.164 68.248 84.292L66.292 86.716V86.272L68.392 88.876C68.488 88.996 68.532 89.112 68.524 89.224C68.524 89.328 68.484 89.412 68.404 89.476C68.324 89.54 68.228 89.572 68.116 89.572C68.004 89.572 67.904 89.548 67.816 89.5C67.736 89.46 67.656 89.392 67.576 89.296L65.728 86.968H66.076L64.228 89.296C64.156 89.384 64.076 89.452 63.988 89.5C63.908 89.548 63.808 89.572 63.688 89.572Z" fill="#F9FAFB"/>
<path d="M61.875 45.375H39.125C38.1625 45.375 37.375 46.1625 37.375 47.125V69.875C37.375 70.8375 38.1625 71.625 39.125 71.625H61.875C62.8375 71.625 63.625 70.8375 63.625 69.875V47.125C63.625 46.1625 62.8375 45.375 61.875 45.375Z" fill="#427687"/>
<path d="M60.4969 45.375H39.0156C38.1188 45.375 37.375 46.1188 37.375 47.0156V68.4313C37.375 69.35 38.1188 70.0719 39.0156 70.0719H60.475C61.3937 70.0719 62.1156 69.3281 62.1156 68.4313V47.0156C62.1594 46.1188 61.3937 45.375 60.4969 45.375Z" fill="#8CAFBF"/>
<path d="M56.4062 62.1312L51.1562 67.3812C50.8062 67.775 50.1937 67.775 49.8437 67.3812L44.5937 62.1312C44.0906 61.5625 44.5062 60.6875 45.25 60.6875H48.3125C48.5531 60.6875 48.75 60.4906 48.75 60.25V50.1875C48.75 49.7062 49.1437 49.3125 49.625 49.3125H51.375C51.8562 49.3125 52.25 49.7062 52.25 50.1875V60.25C52.25 60.4906 52.4469 60.6875 52.6875 60.6875H55.75C56.4937 60.6875 56.9094 61.5844 56.4062 62.1312Z" fill="#FAFAFA"/>
<path opacity="0.5" d="M45.1844 47.3219C45.1844 46.8188 44.8344 46.6656 42.8219 46.7313C41.1375 46.7969 40.3063 46.9938 39.8031 47.6063C39.3 48.2188 39.1688 49.4656 39.1469 50.9531C39.1469 52.0031 39.1469 52.9875 39.6938 52.9875C40.4375 52.9875 40.4375 51.2594 41.05 50.2969C42.2313 48.3938 45.1844 47.9781 45.1844 47.3219Z" fill="#B4E1ED"/>
</svg>
