<svg width="119" height="118" viewBox="0 0 119 118" fill="none" xmlns="http://www.w3.org/2000/svg">
<mask id="path-1-inside-1_576_10465" fill="white">
<path fill-rule="evenodd" clip-rule="evenodd" d="M68.5 18C78.1056 18 85.9538 10.476 86.4727 0.999955C86.5029 0.448497 86.9477 0 87.5 0L114.5 0C116.709 0 118.5 1.79086 118.5 4V30C118.5 30.5523 118.051 30.9971 117.5 31.0273C108.024 31.5462 100.5 39.3944 100.5 49C100.5 58.6056 108.024 66.4538 117.5 66.9727C118.052 67.0029 118.5 67.4477 118.5 68L118.5 96C118.5 98.2091 116.709 100 114.5 100H87.5C86.9477 100 86.5029 100.449 86.4727 101C85.9538 110.476 78.1056 118 68.5 118C58.8944 118 51.0462 110.476 50.5273 101C50.4971 100.448 50.0523 100 49.5 100L22.5 100C20.2909 100 18.5 98.2091 18.5 96L18.5 69C18.5 68.4477 18.0515 68.0029 17.5 67.9727C8.02403 67.4538 0.5 59.6056 0.5 50C0.5 40.3944 8.02403 32.5462 17.5 32.0273C18.0515 31.9971 18.5 31.5523 18.5 31L18.5 4C18.5 1.79086 20.2909 0 22.5 0L49.5 0C50.0523 0 50.4971 0.448498 50.5273 0.999957C51.0462 10.476 58.8944 18 68.5 18Z"/>
</mask>
<path fill-rule="evenodd" clip-rule="evenodd" d="M68.5 18C78.1056 18 85.9538 10.476 86.4727 0.999955C86.5029 0.448497 86.9477 0 87.5 0L114.5 0C116.709 0 118.5 1.79086 118.5 4V30C118.5 30.5523 118.051 30.9971 117.5 31.0273C108.024 31.5462 100.5 39.3944 100.5 49C100.5 58.6056 108.024 66.4538 117.5 66.9727C118.052 67.0029 118.5 67.4477 118.5 68L118.5 96C118.5 98.2091 116.709 100 114.5 100H87.5C86.9477 100 86.5029 100.449 86.4727 101C85.9538 110.476 78.1056 118 68.5 118C58.8944 118 51.0462 110.476 50.5273 101C50.4971 100.448 50.0523 100 49.5 100L22.5 100C20.2909 100 18.5 98.2091 18.5 96L18.5 69C18.5 68.4477 18.0515 68.0029 17.5 67.9727C8.02403 67.4538 0.5 59.6056 0.5 50C0.5 40.3944 8.02403 32.5462 17.5 32.0273C18.0515 31.9971 18.5 31.5523 18.5 31L18.5 4C18.5 1.79086 20.2909 0 22.5 0L49.5 0C50.0523 0 50.4971 0.448498 50.5273 0.999957C51.0462 10.476 58.8944 18 68.5 18Z" fill="#374151" fill-opacity="0.4"/>
<path d="M114.5 0V1V0ZM114.5 100V101V100ZM18.5 96H17.5H18.5ZM18.5 4L17.5 4L18.5 4ZM50.5273 0.999957L51.5258 0.945284L50.5273 0.999957ZM17.5 32.0273L17.4454 31.0288L17.5 32.0273ZM18.5 31H17.5H18.5ZM18.5 69H17.5H18.5ZM17.5 67.9727L17.4454 68.9712L17.5 67.9727ZM50.5273 101L49.5288 101.055L50.5273 101ZM117.5 66.9727L117.555 65.9742L117.5 66.9727ZM86.4727 101L87.4712 101.055L86.4727 101ZM117.5 31.0273L117.555 32.0258L117.5 31.0273ZM85.4742 0.945282C84.9842 9.89397 77.5716 17 68.5 17V19C78.6395 19 86.9235 11.058 87.4712 1.05463L85.4742 0.945282ZM114.5 -1L87.5 -1V1L114.5 1V-1ZM119.5 4C119.5 1.23858 117.261 -1 114.5 -1V1C116.157 1 117.5 2.34315 117.5 4H119.5ZM119.5 30V4H117.5V30H119.5ZM101.5 49C101.5 39.9284 108.606 32.5158 117.555 32.0258L117.445 30.0288C107.442 30.5765 99.5 38.8604 99.5 49H101.5ZM117.555 65.9742C108.606 65.4842 101.5 58.0716 101.5 49H99.5C99.5 59.1396 107.442 67.4235 117.445 67.9712L117.555 65.9742ZM119.5 96L119.5 68H117.5L117.5 96H119.5ZM114.5 101C117.261 101 119.5 98.7614 119.5 96H117.5C117.5 97.6569 116.157 99 114.5 99V101ZM87.5 101H114.5V99H87.5V101ZM68.5 119C78.6395 119 86.9235 111.058 87.4712 101.055L85.4742 100.945C84.9842 109.894 77.5716 117 68.5 117V119ZM49.5288 101.055C50.0765 111.058 58.3604 119 68.5 119V117C59.4284 117 52.0158 109.894 51.5258 100.945L49.5288 101.055ZM22.5 101L49.5 101V99L22.5 99L22.5 101ZM17.5 96C17.5 98.7614 19.7386 101 22.5 101L22.5 99C20.8431 99 19.5 97.6569 19.5 96H17.5ZM17.5 69L17.5 96H19.5L19.5 69H17.5ZM17.5547 66.9742C8.60603 66.4842 1.5 59.0716 1.5 50H-0.5C-0.5 60.1396 7.44204 68.4235 17.4454 68.9712L17.5547 66.9742ZM1.5 50C1.5 40.9284 8.60602 33.5158 17.5547 33.0258L17.4454 31.0288C7.44204 31.5765 -0.5 39.8604 -0.5 50H1.5ZM17.5 4L17.5 31H19.5L19.5 4L17.5 4ZM22.5 -1C19.7386 -1 17.5 1.23858 17.5 4L19.5 4C19.5 2.34315 20.8431 1 22.5 1V-1ZM49.5 -1L22.5 -1V1L49.5 1V-1ZM68.5 17C59.4284 17 52.0158 9.89398 51.5258 0.945284L49.5288 1.05463C50.0765 11.058 58.3604 19 68.5 19V17ZM49.5 1C49.5012 1 49.5012 1.0001 49.5006 0.999977C49.5001 0.999868 49.4998 0.999738 49.4999 0.999766C49.5001 0.999846 49.5033 1.00127 49.5081 1.006C49.5187 1.0164 49.5276 1.03335 49.5288 1.05463L51.5258 0.945284C51.4685 -0.100786 50.6183 -1 49.5 -1V1ZM17.5547 33.0258C18.6008 32.9685 19.5 32.1183 19.5 31H17.5C17.5 31.0012 17.4999 31.0012 17.5 31.0007C17.5001 31.0001 17.5003 30.9998 17.5002 30.9999C17.5002 31.0001 17.4987 31.0033 17.494 31.0081C17.4836 31.0187 17.4667 31.0276 17.4454 31.0288L17.5547 33.0258ZM19.5 69C19.5 67.8817 18.6008 67.0315 17.5547 66.9742L17.4454 68.9712C17.4667 68.9724 17.4836 68.9813 17.494 68.9919C17.4987 68.9967 17.5002 68.9999 17.5002 69.0001C17.5003 69.0002 17.5001 68.9999 17.5 68.9994C17.4999 68.9988 17.5 68.9988 17.5 69H19.5ZM87.4712 1.05463C87.4724 1.03335 87.4813 1.0164 87.4919 1.006C87.4967 1.00127 87.4999 0.999846 87.5001 0.999766C87.5002 0.999738 87.4999 0.999868 87.4994 0.999977C87.4988 1.0001 87.4988 1 87.5 1V-1C86.3817 -1 85.5315 -0.100789 85.4742 0.945282L87.4712 1.05463ZM51.5258 100.945C51.4685 99.8992 50.6183 99 49.5 99V101C49.5012 101 49.5012 101 49.5006 101C49.5001 101 49.4998 101 49.4999 101C49.5001 101 49.5033 101.001 49.5081 101.006C49.5187 101.016 49.5276 101.033 49.5288 101.055L51.5258 100.945ZM117.445 67.9712C117.467 67.9724 117.484 67.9813 117.494 67.9919C117.499 67.9967 117.5 67.9999 117.5 68.0001C117.5 68.0002 117.5 67.9999 117.5 67.9994C117.5 67.9988 117.5 67.9988 117.5 68H119.5C119.5 66.8817 118.601 66.0315 117.555 65.9742L117.445 67.9712ZM87.5 99C86.3817 99 85.5315 99.8992 85.4742 100.945L87.4712 101.055C87.4724 101.033 87.4813 101.016 87.4919 101.006C87.4967 101.001 87.4999 101 87.5001 101C87.5002 101 87.4999 101 87.4994 101C87.4988 101 87.4988 101 87.5 101V99ZM117.5 30C117.5 30.0012 117.5 30.0012 117.5 30.0006C117.5 30.0001 117.5 29.9998 117.5 29.9999C117.5 30.0001 117.499 30.0033 117.494 30.0081C117.484 30.0187 117.467 30.0276 117.445 30.0288L117.555 32.0258C118.601 31.9685 119.5 31.1183 119.5 30H117.5Z" fill="#374151" mask="url(#path-1-inside-1_576_10465)"/>
<path d="M52.0039 71.084C51.8439 71.084 51.7239 71.04 51.6439 70.952C51.5639 70.864 51.5239 70.74 51.5239 70.58V65.576C51.5239 65.416 51.5639 65.296 51.6439 65.216C51.7239 65.128 51.8399 65.084 51.9919 65.084C52.1439 65.084 52.2599 65.128 52.3399 65.216C52.4279 65.296 52.4719 65.416 52.4719 65.576V66.632L52.3399 66.464C52.4919 66.016 52.7359 65.672 53.0719 65.432C53.4159 65.184 53.8239 65.06 54.2959 65.06C54.7919 65.06 55.1919 65.18 55.4959 65.42C55.8079 65.652 56.0159 66.016 56.1199 66.512H55.9399C56.0839 66.064 56.3399 65.712 56.7079 65.456C57.0839 65.192 57.5199 65.06 58.0159 65.06C58.4559 65.06 58.8159 65.144 59.0959 65.312C59.3839 65.48 59.5999 65.736 59.7439 66.08C59.8879 66.416 59.9599 66.844 59.9599 67.364V70.58C59.9599 70.74 59.9159 70.864 59.8279 70.952C59.7479 71.04 59.6279 71.084 59.4679 71.084C59.3159 71.084 59.1959 71.04 59.1079 70.952C59.0279 70.864 58.9879 70.74 58.9879 70.58V67.412C58.9879 66.876 58.8959 66.484 58.7119 66.236C58.5279 65.98 58.2159 65.852 57.7759 65.852C57.2959 65.852 56.9159 66.02 56.6359 66.356C56.3639 66.684 56.2279 67.132 56.2279 67.7V70.58C56.2279 70.74 56.1839 70.864 56.0959 70.952C56.0159 71.04 55.8959 71.084 55.7359 71.084C55.5839 71.084 55.4639 71.04 55.3759 70.952C55.2959 70.864 55.2559 70.74 55.2559 70.58V67.412C55.2559 66.876 55.1599 66.484 54.9679 66.236C54.7839 65.98 54.4759 65.852 54.0439 65.852C53.5639 65.852 53.1839 66.02 52.9039 66.356C52.6319 66.684 52.4959 67.132 52.4959 67.7V70.58C52.4959 70.916 52.3319 71.084 52.0039 71.084ZM62.2572 71.084C62.0972 71.084 61.9772 71.04 61.8972 70.952C61.8172 70.864 61.7772 70.74 61.7772 70.58V62.948C61.7772 62.788 61.8172 62.668 61.8972 62.588C61.9772 62.5 62.0972 62.456 62.2572 62.456C62.4092 62.456 62.5292 62.5 62.6172 62.588C62.7052 62.668 62.7492 62.788 62.7492 62.948V67.76H62.7732L65.2332 65.408C65.3452 65.304 65.4412 65.224 65.5212 65.168C65.6092 65.112 65.7252 65.084 65.8692 65.084C65.9972 65.084 66.0972 65.12 66.1692 65.192C66.2412 65.256 66.2732 65.34 66.2652 65.444C66.2652 65.54 66.2172 65.644 66.1212 65.756L63.5052 68.24V67.712L66.3492 70.388C66.4612 70.5 66.5172 70.608 66.5172 70.712C66.5172 70.816 66.4772 70.904 66.3972 70.976C66.3252 71.048 66.2292 71.084 66.1092 71.084C65.9652 71.084 65.8492 71.056 65.7612 71C65.6732 70.936 65.5652 70.844 65.4372 70.724L62.7732 68.264H62.7492V70.58C62.7492 70.916 62.5852 71.084 62.2572 71.084ZM69.8449 71.108C69.3249 71.108 68.8689 70.984 68.4769 70.736C68.0929 70.488 67.7929 70.14 67.5769 69.692C67.3689 69.236 67.2649 68.7 67.2649 68.084C67.2649 67.46 67.3689 66.924 67.5769 66.476C67.7929 66.02 68.0929 65.672 68.4769 65.432C68.8689 65.184 69.3249 65.06 69.8449 65.06C70.3729 65.06 70.8249 65.192 71.2009 65.456C71.5769 65.72 71.8289 66.076 71.9569 66.524H71.8249V62.948C71.8249 62.788 71.8649 62.668 71.9449 62.588C72.0329 62.5 72.1569 62.456 72.3169 62.456C72.4689 62.456 72.5849 62.5 72.6649 62.588C72.7529 62.668 72.7969 62.788 72.7969 62.948V70.58C72.7969 70.74 72.7569 70.864 72.6769 70.952C72.5969 71.04 72.4769 71.084 72.3169 71.084C72.1649 71.084 72.0449 71.04 71.9569 70.952C71.8769 70.864 71.8369 70.74 71.8369 70.58V69.44L71.9689 69.608C71.8409 70.064 71.5849 70.428 71.2009 70.7C70.8249 70.972 70.3729 71.108 69.8449 71.108ZM70.0489 70.328C70.4089 70.328 70.7249 70.24 70.9969 70.064C71.2689 69.888 71.4769 69.632 71.6209 69.296C71.7729 68.96 71.8489 68.556 71.8489 68.084C71.8489 67.356 71.6849 66.8 71.3569 66.416C71.0369 66.032 70.6009 65.84 70.0489 65.84C69.6809 65.84 69.3609 65.928 69.0889 66.104C68.8249 66.272 68.6169 66.524 68.4649 66.86C68.3209 67.188 68.2489 67.596 68.2489 68.084C68.2489 68.804 68.4129 69.36 68.7409 69.752C69.0689 70.136 69.5049 70.328 70.0489 70.328ZM75.101 71.06C74.941 71.06 74.821 71.016 74.741 70.928C74.661 70.832 74.621 70.7 74.621 70.532V65.624C74.621 65.456 74.661 65.328 74.741 65.24C74.821 65.152 74.941 65.108 75.101 65.108C75.253 65.108 75.373 65.152 75.461 65.24C75.549 65.328 75.593 65.456 75.593 65.624V70.532C75.593 70.7 75.549 70.832 75.461 70.928C75.381 71.016 75.261 71.06 75.101 71.06ZM75.101 63.764C74.901 63.764 74.745 63.712 74.633 63.608C74.521 63.496 74.465 63.348 74.465 63.164C74.465 62.972 74.521 62.828 74.633 62.732C74.745 62.628 74.901 62.576 75.101 62.576C75.309 62.576 75.465 62.628 75.569 62.732C75.681 62.828 75.737 62.972 75.737 63.164C75.737 63.348 75.681 63.496 75.569 63.608C75.465 63.712 75.309 63.764 75.101 63.764ZM79.378 71.108C79.018 71.108 78.654 71.064 78.286 70.976C77.926 70.888 77.59 70.736 77.278 70.52C77.198 70.464 77.142 70.4 77.11 70.328C77.078 70.248 77.066 70.172 77.074 70.1C77.09 70.02 77.122 69.952 77.17 69.896C77.226 69.84 77.29 69.808 77.362 69.8C77.442 69.784 77.53 69.8 77.626 69.848C77.938 70.04 78.238 70.176 78.526 70.256C78.822 70.328 79.114 70.364 79.402 70.364C79.858 70.364 80.202 70.28 80.434 70.112C80.666 69.944 80.782 69.716 80.782 69.428C80.782 69.204 80.706 69.028 80.554 68.9C80.402 68.764 80.162 68.66 79.834 68.588L78.742 68.348C78.238 68.244 77.862 68.064 77.614 67.808C77.374 67.552 77.254 67.22 77.254 66.812C77.254 66.452 77.346 66.144 77.53 65.888C77.722 65.624 77.99 65.42 78.334 65.276C78.678 65.132 79.078 65.06 79.534 65.06C79.886 65.06 80.218 65.108 80.53 65.204C80.85 65.292 81.138 65.436 81.394 65.636C81.474 65.692 81.526 65.76 81.55 65.84C81.582 65.912 81.586 65.988 81.562 66.068C81.546 66.14 81.51 66.204 81.454 66.26C81.398 66.308 81.33 66.336 81.25 66.344C81.17 66.352 81.086 66.328 80.998 66.272C80.758 66.112 80.514 65.996 80.266 65.924C80.018 65.844 79.774 65.804 79.534 65.804C79.086 65.804 78.746 65.892 78.514 66.068C78.282 66.244 78.166 66.476 78.166 66.764C78.166 66.988 78.238 67.172 78.382 67.316C78.526 67.46 78.75 67.564 79.054 67.628L80.146 67.856C80.666 67.968 81.054 68.148 81.31 68.396C81.574 68.636 81.706 68.964 81.706 69.38C81.706 69.908 81.494 70.328 81.07 70.64C80.646 70.952 80.082 71.108 79.378 71.108ZM85.4688 71.108C85.0128 71.108 84.6288 71.028 84.3168 70.868C84.0128 70.7 83.7848 70.46 83.6328 70.148C83.4808 69.828 83.4048 69.44 83.4048 68.984V65.924H82.6008C82.4648 65.924 82.3608 65.892 82.2888 65.828C82.2168 65.756 82.1808 65.66 82.1808 65.54C82.1808 65.42 82.2168 65.328 82.2888 65.264C82.3608 65.2 82.4648 65.168 82.6008 65.168H83.4048V63.788C83.4048 63.628 83.4488 63.508 83.5368 63.428C83.6248 63.34 83.7448 63.296 83.8968 63.296C84.0488 63.296 84.1648 63.34 84.2448 63.428C84.3328 63.508 84.3768 63.628 84.3768 63.788V65.168H85.8888C86.0248 65.168 86.1288 65.2 86.2008 65.264C86.2728 65.328 86.3088 65.42 86.3088 65.54C86.3088 65.66 86.2728 65.756 86.2008 65.828C86.1288 65.892 86.0248 65.924 85.8888 65.924H84.3768V68.888C84.3768 69.344 84.4728 69.692 84.6648 69.932C84.8568 70.164 85.1688 70.28 85.6008 70.28C85.7528 70.28 85.8808 70.264 85.9848 70.232C86.0968 70.2 86.1888 70.184 86.2608 70.184C86.3328 70.176 86.3928 70.2 86.4408 70.256C86.4888 70.312 86.5128 70.408 86.5128 70.544C86.5128 70.64 86.4928 70.728 86.4528 70.808C86.4208 70.888 86.3608 70.944 86.2728 70.976C86.1768 71.008 86.0488 71.036 85.8888 71.06C85.7368 71.092 85.5968 71.108 85.4688 71.108Z" fill="#F9FAFB"/>
<path d="M64.6041 32.1097V31.7291C64.6041 30.97 64.1491 30.8125 63.6503 30.9022L59.4722 31.6569C58.9713 31.7466 58.6038 32.1972 58.6038 32.7222V33.6934C58.6038 34.0478 58.3566 34.3519 58.0175 34.4131L57.9431 34.4262C57.65 34.4787 57.4334 34.7412 57.4334 35.0497L57.6697 51.2437C57.6697 51.2437 57.6522 51.5019 57.895 51.5194C58.1466 51.5369 58.3369 51.3444 58.5884 51.2853L78.1972 46.6128C78.4903 46.5603 78.7069 46.2978 78.7069 45.9894V31.5453C78.7069 31.1537 78.3656 30.8562 77.9916 30.9219L65.6738 33.0416C65.1159 33.14 64.6041 32.93 64.6041 32.1097Z" fill="#F3AB47"/>
<path d="M79.1225 46.0484L79.5644 33C79.5644 32.6084 79.2231 32.3109 78.8491 32.3766L66.54 34.4809C66.2617 34.5284 66.0076 34.6686 65.819 34.8787C65.6304 35.0887 65.5183 35.3564 65.5009 35.6381L65.4506 36.4628C65.4312 36.7838 65.3036 37.0887 65.0887 37.3278C64.8738 37.5669 64.5842 37.7262 64.2672 37.7797L59.3125 38.6131C59.0747 38.6534 58.8588 38.7765 58.7031 38.9607C58.5473 39.1449 58.4618 39.3782 58.4616 39.6194L57.895 51.515C57.895 51.515 57.9672 51.5456 58.7787 51.34L78.2912 46.7222C78.5866 46.6741 78.9234 46.3984 79.1225 46.0484Z" fill="#FFE36C"/>
<path d="M59.2316 38.8472L64.2103 37.9962C65.4572 37.7184 65.6563 37.2459 65.6541 36.2528L65.6563 35.9969C65.6956 35.2487 66.0588 34.8069 66.7959 34.68L78.9738 32.5691" stroke="#FFF9C4" stroke-width="0.5" stroke-miterlimit="10" stroke-linecap="round"/>
</svg>
