<svg width="119" height="118" viewBox="0 0 119 118" fill="none" xmlns="http://www.w3.org/2000/svg">
<mask id="path-1-inside-1_576_10464" fill="white">
<path fill-rule="evenodd" clip-rule="evenodd" d="M68.5 0C78.1056 0 85.9538 7.52403 86.4727 17C86.5029 17.5515 86.9477 18 87.5 18L114.5 18C116.709 18 118.5 19.7909 118.5 22L118.5 49C118.5 49.5523 118.051 49.9971 117.5 50.0273C108.024 50.5462 100.5 58.3944 100.5 68C100.5 77.6056 108.024 85.4538 117.5 85.9727C118.052 86.0029 118.5 86.4477 118.5 87L118.5 114C118.5 116.209 116.709 118 114.5 118L87.5 118C86.9477 118 86.5029 117.551 86.4727 117C85.9538 107.524 78.1056 100 68.5 100C58.8944 100 51.0462 107.524 50.5273 117C50.4971 117.552 50.0523 118 49.5 118L22.5 118C20.2909 118 18.5 116.209 18.5 114L18.5 87C18.5 86.4477 18.0515 86.0029 17.5 85.9727C8.02403 85.4538 0.5 77.6056 0.5 68C0.5 58.3944 8.02403 50.5462 17.5 50.0273C18.0515 49.9971 18.5 49.5523 18.5 49L18.5 22C18.5 19.7909 20.2909 18 22.5 18L49.5 18C50.0523 18 50.4971 17.5515 50.5273 17C51.0462 7.52403 58.8944 0 68.5 0Z"/>
</mask>
<path fill-rule="evenodd" clip-rule="evenodd" d="M68.5 0C78.1056 0 85.9538 7.52403 86.4727 17C86.5029 17.5515 86.9477 18 87.5 18L114.5 18C116.709 18 118.5 19.7909 118.5 22L118.5 49C118.5 49.5523 118.051 49.9971 117.5 50.0273C108.024 50.5462 100.5 58.3944 100.5 68C100.5 77.6056 108.024 85.4538 117.5 85.9727C118.052 86.0029 118.5 86.4477 118.5 87L118.5 114C118.5 116.209 116.709 118 114.5 118L87.5 118C86.9477 118 86.5029 117.551 86.4727 117C85.9538 107.524 78.1056 100 68.5 100C58.8944 100 51.0462 107.524 50.5273 117C50.4971 117.552 50.0523 118 49.5 118L22.5 118C20.2909 118 18.5 116.209 18.5 114L18.5 87C18.5 86.4477 18.0515 86.0029 17.5 85.9727C8.02403 85.4538 0.5 77.6056 0.5 68C0.5 58.3944 8.02403 50.5462 17.5 50.0273C18.0515 49.9971 18.5 49.5523 18.5 49L18.5 22C18.5 19.7909 20.2909 18 22.5 18L49.5 18C50.0523 18 50.4971 17.5515 50.5273 17C51.0462 7.52403 58.8944 0 68.5 0Z" fill="#374151" fill-opacity="0.4"/>
<path d="M114.5 18V17V18ZM18.5 114H17.5H18.5ZM18.5 22H17.5H18.5ZM22.5 18V17V18ZM49.5 18L49.5 19L49.5 18ZM50.5273 17L49.5288 16.9454L50.5273 17ZM17.5 50.0273L17.4454 49.0288L17.5 50.0273ZM18.5 49L17.5 49L18.5 49ZM18.5 87H17.5H18.5ZM17.5 85.9727L17.4454 86.9712L17.5 85.9727ZM86.4727 17L87.4712 16.9454L86.4727 17ZM87.5 18V17V18ZM50.5273 117L49.5288 116.945L50.5273 117ZM117.5 85.9727L117.555 84.9742L117.5 85.9727ZM86.4727 117L87.4712 116.945L86.4727 117ZM117.5 50.0273L117.445 49.0288L117.5 50.0273ZM87.4712 16.9454C86.9235 6.94204 78.6395 -1 68.5 -1V1C77.5716 1 84.9842 8.10603 85.4742 17.0547L87.4712 16.9454ZM114.5 17L87.5 17V19L114.5 19V17ZM119.5 22C119.5 19.2386 117.261 17 114.5 17V19C116.157 19 117.5 20.3431 117.5 22H119.5ZM119.5 49L119.5 22H117.5L117.5 49H119.5ZM101.5 68C101.5 58.9284 108.606 51.5158 117.555 51.0258L117.445 49.0288C107.442 49.5765 99.5 57.8604 99.5 68H101.5ZM117.555 84.9742C108.606 84.4842 101.5 77.0716 101.5 68H99.5C99.5 78.1395 107.442 86.4235 117.445 86.9712L117.555 84.9742ZM119.5 114L119.5 87H117.5L117.5 114H119.5ZM114.5 119C117.261 119 119.5 116.761 119.5 114H117.5C117.5 115.657 116.157 117 114.5 117V119ZM87.5 119L114.5 119V117L87.5 117V119ZM68.5 101C77.5716 101 84.9842 108.106 85.4742 117.055L87.4712 116.945C86.9235 106.942 78.6395 99 68.5 99V101ZM51.5258 117.055C52.0158 108.106 59.4284 101 68.5 101V99C58.3604 99 50.0765 106.942 49.5288 116.945L51.5258 117.055ZM22.5 119L49.5 119V117L22.5 117L22.5 119ZM17.5 114C17.5 116.761 19.7386 119 22.5 119L22.5 117C20.8431 117 19.5 115.657 19.5 114H17.5ZM17.5 87L17.5 114H19.5L19.5 87H17.5ZM17.5547 84.9742C8.60603 84.4842 1.5 77.0716 1.5 68H-0.5C-0.5 78.1395 7.44204 86.4235 17.4454 86.9712L17.5547 84.9742ZM1.5 68C1.5 58.9284 8.60602 51.5158 17.5547 51.0258L17.4454 49.0288C7.44204 49.5765 -0.5 57.8604 -0.5 68H1.5ZM17.5 22L17.5 49L19.5 49L19.5 22H17.5ZM22.5 17C19.7386 17 17.5 19.2386 17.5 22H19.5C19.5 20.3431 20.8431 19 22.5 19V17ZM49.5 17L22.5 17V19L49.5 19L49.5 17ZM68.5 -1C58.3604 -1 50.0765 6.94204 49.5288 16.9454L51.5258 17.0547C52.0158 8.10602 59.4284 1 68.5 1V-1ZM49.5 19C50.6183 19 51.4685 18.1008 51.5258 17.0547L49.5288 16.9454C49.5276 16.9667 49.5187 16.9836 49.5081 16.994C49.5033 16.9987 49.5001 17.0002 49.4999 17.0002C49.4998 17.0003 49.5001 17.0001 49.5006 17C49.5012 16.9999 49.5012 17 49.5 17L49.5 19ZM17.5547 51.0258C18.6008 50.9685 19.5 50.1183 19.5 49L17.5 49C17.5 49.0012 17.4999 49.0012 17.5 49.0006C17.5001 49.0001 17.5003 48.9998 17.5002 48.9999C17.5002 49.0001 17.4987 49.0033 17.494 49.0081C17.4836 49.0187 17.4667 49.0276 17.4454 49.0288L17.5547 51.0258ZM19.5 87C19.5 85.8817 18.6008 85.0315 17.5547 84.9742L17.4454 86.9712C17.4667 86.9724 17.4836 86.9813 17.494 86.9919C17.4987 86.9967 17.5002 86.9999 17.5002 87.0001C17.5003 87.0002 17.5001 86.9999 17.5 86.9994C17.4999 86.9988 17.5 86.9988 17.5 87H19.5ZM85.4742 17.0547C85.5315 18.1008 86.3817 19 87.5 19V17C87.4988 17 87.4988 16.9999 87.4994 17C87.4999 17.0001 87.5002 17.0003 87.5001 17.0002C87.4999 17.0002 87.4967 16.9987 87.4919 16.994C87.4813 16.9836 87.4724 16.9667 87.4712 16.9454L85.4742 17.0547ZM49.5288 116.945C49.5276 116.967 49.5187 116.984 49.5081 116.994C49.5033 116.999 49.5001 117 49.4999 117C49.4998 117 49.5001 117 49.5006 117C49.5012 117 49.5012 117 49.5 117V119C50.6183 119 51.4685 118.101 51.5258 117.055L49.5288 116.945ZM117.445 86.9712C117.467 86.9724 117.484 86.9813 117.494 86.9919C117.499 86.9967 117.5 86.9999 117.5 87.0001C117.5 87.0002 117.5 86.9999 117.5 86.9994C117.5 86.9988 117.5 86.9988 117.5 87H119.5C119.5 85.8817 118.601 85.0315 117.555 84.9742L117.445 86.9712ZM87.5 117C87.4988 117 87.4988 117 87.4994 117C87.4999 117 87.5002 117 87.5001 117C87.4999 117 87.4967 116.999 87.4919 116.994C87.4813 116.984 87.4724 116.967 87.4712 116.945L85.4742 117.055C85.5315 118.101 86.3817 119 87.5 119V117ZM117.5 49C117.5 49.0012 117.5 49.0012 117.5 49.0006C117.5 49.0001 117.5 48.9998 117.5 48.9999C117.5 49.0001 117.499 49.0033 117.494 49.0081C117.484 49.0187 117.467 49.0276 117.445 49.0288L117.555 51.0258C118.601 50.9685 119.5 50.1183 119.5 49H117.5Z" fill="#374151" mask="url(#path-1-inside-1_576_10464)"/>
<path d="M58.209 89.084C58.049 89.084 57.929 89.04 57.849 88.952C57.769 88.864 57.729 88.74 57.729 88.58V83.576C57.729 83.416 57.769 83.296 57.849 83.216C57.929 83.128 58.045 83.084 58.197 83.084C58.349 83.084 58.465 83.128 58.545 83.216C58.633 83.296 58.677 83.416 58.677 83.576V84.632L58.545 84.464C58.697 84.016 58.941 83.672 59.277 83.432C59.621 83.184 60.029 83.06 60.501 83.06C60.997 83.06 61.397 83.18 61.701 83.42C62.013 83.652 62.221 84.016 62.325 84.512H62.145C62.289 84.064 62.545 83.712 62.913 83.456C63.289 83.192 63.725 83.06 64.221 83.06C64.661 83.06 65.021 83.144 65.301 83.312C65.589 83.48 65.805 83.736 65.949 84.08C66.093 84.416 66.165 84.844 66.165 85.364V88.58C66.165 88.74 66.121 88.864 66.033 88.952C65.953 89.04 65.833 89.084 65.673 89.084C65.521 89.084 65.401 89.04 65.313 88.952C65.233 88.864 65.193 88.74 65.193 88.58V85.412C65.193 84.876 65.101 84.484 64.917 84.236C64.733 83.98 64.421 83.852 63.981 83.852C63.501 83.852 63.121 84.02 62.841 84.356C62.569 84.684 62.433 85.132 62.433 85.7V88.58C62.433 88.74 62.389 88.864 62.301 88.952C62.221 89.04 62.101 89.084 61.941 89.084C61.789 89.084 61.669 89.04 61.581 88.952C61.501 88.864 61.461 88.74 61.461 88.58V85.412C61.461 84.876 61.365 84.484 61.173 84.236C60.989 83.98 60.681 83.852 60.249 83.852C59.769 83.852 59.389 84.02 59.109 84.356C58.837 84.684 58.701 85.132 58.701 85.7V88.58C58.701 88.916 58.537 89.084 58.209 89.084ZM69.7583 89.108C69.1823 89.108 68.7423 88.932 68.4383 88.58C68.1343 88.228 67.9823 87.724 67.9823 87.068V80.948C67.9823 80.788 68.0223 80.668 68.1023 80.588C68.1823 80.5 68.3023 80.456 68.4623 80.456C68.6143 80.456 68.7343 80.5 68.8223 80.588C68.9103 80.668 68.9543 80.788 68.9543 80.948V86.996C68.9543 87.428 69.0383 87.752 69.2063 87.968C69.3823 88.176 69.6383 88.28 69.9743 88.28C70.0463 88.28 70.1103 88.276 70.1663 88.268C70.2223 88.26 70.2783 88.256 70.3343 88.256C70.4223 88.248 70.4823 88.268 70.5143 88.316C70.5543 88.364 70.5743 88.46 70.5743 88.604C70.5743 88.748 70.5423 88.856 70.4783 88.928C70.4143 89 70.3103 89.048 70.1663 89.072C70.1023 89.08 70.0343 89.088 69.9623 89.096C69.8903 89.104 69.8223 89.108 69.7583 89.108ZM73.3091 89.108C72.7331 89.108 72.2931 88.932 71.9891 88.58C71.6851 88.228 71.5331 87.724 71.5331 87.068V80.948C71.5331 80.788 71.5731 80.668 71.6531 80.588C71.7331 80.5 71.8531 80.456 72.0131 80.456C72.1651 80.456 72.2851 80.5 72.3731 80.588C72.4611 80.668 72.5051 80.788 72.5051 80.948V86.996C72.5051 87.428 72.5891 87.752 72.7571 87.968C72.9331 88.176 73.1891 88.28 73.5251 88.28C73.5971 88.28 73.6611 88.276 73.7171 88.268C73.7731 88.26 73.8291 88.256 73.8851 88.256C73.9731 88.248 74.0331 88.268 74.0651 88.316C74.1051 88.364 74.1251 88.46 74.1251 88.604C74.1251 88.748 74.0931 88.856 74.0291 88.928C73.9651 89 73.8611 89.048 73.7171 89.072C73.6531 89.08 73.5851 89.088 73.5131 89.096C73.4411 89.104 73.3731 89.108 73.3091 89.108ZM76.251 91.244C76.131 91.244 76.035 91.212 75.963 91.148C75.891 91.084 75.847 90.996 75.831 90.884C75.823 90.78 75.843 90.672 75.891 90.56L76.719 88.7V89.12L74.415 83.768C74.367 83.648 74.351 83.536 74.367 83.432C74.383 83.328 74.431 83.244 74.511 83.18C74.591 83.116 74.703 83.084 74.847 83.084C74.975 83.084 75.075 83.112 75.147 83.168C75.219 83.224 75.283 83.324 75.339 83.468L77.307 88.292H76.983L78.975 83.468C79.039 83.324 79.107 83.224 79.179 83.168C79.251 83.112 79.355 83.084 79.491 83.084C79.619 83.084 79.715 83.116 79.779 83.18C79.851 83.244 79.891 83.328 79.899 83.432C79.915 83.528 79.899 83.636 79.851 83.756L76.779 90.86C76.715 91.004 76.643 91.104 76.563 91.16C76.491 91.216 76.387 91.244 76.251 91.244Z" fill="#F9FAFB"/>
<path d="M77.5147 62.5544C76.935 61.6531 74.0803 58.5709 73.4678 57.7747C72.8553 56.9784 71.2803 52.4372 69.7644 51.9844C68.2484 51.5294 66.7522 51.6475 65.1684 52.1156C63.5847 52.5838 62.1038 52.54 60.345 52.0413C58.5863 51.5425 56.7094 50.3656 56.7094 50.3656C55.8934 50.9891 55.4734 52.7303 55.3859 55.1934C55.2984 57.6566 55.7622 58.9953 55.9241 59.4022C56.0859 59.8091 57.3022 60.4106 58.6716 61.4694C58.7897 61.5591 68.5109 68.2003 68.7166 68.2944C70.2019 68.9703 71.1469 67.6031 71.1469 67.6031C71.1469 67.6031 71.9344 68.0538 72.6956 67.6031C73.6253 67.0519 73.5159 66.3672 73.5159 66.3672C73.5159 66.3672 74.4172 66.5138 74.9619 66.1572C76.0009 65.4769 75.6663 64.6916 75.6663 64.6916C75.6663 64.6916 76.5938 64.9891 77.1406 64.4991C77.6875 64.0091 78.0922 63.4556 77.5147 62.5544Z" fill="#FFCA28"/>
<path d="M67.275 66.3081C67.2619 66.2731 67.2487 66.2381 67.229 66.2031C66.8047 65.3828 65.9975 65.4156 65.9625 65.3872C65.9165 65.3522 65.9253 64.7397 65.875 64.5012C65.6081 63.2522 64.1644 63.285 64.1272 63.2587C64.0769 63.2259 64.3415 62.3728 63.5059 61.6531C63.3069 61.4803 63.005 61.4978 62.7425 61.5284C62.0053 61.6181 61.6684 61.9637 61.6159 61.9528C61.4912 61.9287 61.6312 61.0144 60.7256 60.9837C60.0672 60.9619 59.6362 61.2834 59.2731 61.7822C58.9012 62.2941 58.6694 62.8125 59.0915 63.4184C59.6231 64.1819 60.205 63.9762 60.205 63.9762C60.205 63.9762 60.03 64.9103 60.5659 65.4091C61.1019 65.9078 62.1825 65.8772 62.1825 65.8772C62.1825 65.8772 62.0928 66.9797 62.8715 67.5047C63.6503 68.0297 64.5844 67.5528 64.5844 67.5528C64.5844 67.5528 64.9475 68.4934 66.0084 68.3556C66.9381 68.2375 67.6272 67.2334 67.275 66.3081Z" fill="#FFCA28"/>
<path d="M77.6612 62.8387C77.6219 62.7775 77.5891 62.7272 77.5847 62.6528C77.5803 62.5697 75.3622 59.6275 74.4281 58.4441C74.6162 58.9844 74.8875 59.4984 75.2331 59.9556C75.7909 60.695 76.5741 61.3884 76.5894 62.3137C76.5959 62.7687 76.3947 63.2237 76.0512 63.5234C75.7078 63.8231 75.2309 63.9631 74.7803 63.8931C74.6359 63.8712 74.4281 63.8712 74.4106 64.0156C74.4041 64.0572 74.4216 64.0987 74.4347 64.1403C74.5791 64.5866 74.4019 65.1072 74.0366 65.4003C73.6712 65.6956 73.1506 65.7634 72.7066 65.6103C72.5906 65.5709 72.4375 65.525 72.3653 65.6234C72.3084 65.7 72.3456 65.805 72.3719 65.8947C72.5097 66.3847 72.1837 66.9272 71.7156 67.1284C71.2497 67.3297 70.6919 67.2334 70.2544 66.9753C70.1581 66.9184 70.005 66.8681 69.9569 66.9709C69.9416 67.0016 69.9459 67.0387 69.9481 67.0716C69.9656 67.4106 69.8059 67.7562 69.5347 67.9619C69.2634 68.1675 68.8894 68.2288 68.5656 68.1194L68.4847 68.1697C68.5809 68.2266 68.6619 68.2681 68.7144 68.2922C70.1997 68.9681 71.1447 67.6009 71.1447 67.6009C71.1447 67.6009 71.9322 68.0516 72.6934 67.6009C73.6231 67.0497 73.5137 66.365 73.5137 66.365C73.5137 66.365 74.415 66.5116 74.9597 66.155C75.9987 65.4747 75.6641 64.6894 75.6641 64.6894C75.6641 64.6894 76.5916 64.9869 77.1384 64.4969C77.2741 64.3766 77.4031 64.2497 77.5147 64.1075C77.7334 63.8275 77.845 63.495 77.7706 63.1406C77.7487 63.0356 77.7181 62.9284 77.6612 62.8387Z" fill="#FFB300"/>
<path d="M70.6044 67.1569C71.265 67.5681 71.5319 67.7475 71.5319 67.7475C71.2934 67.7759 70.7728 67.8744 69.5281 66.9119C69.1847 66.6472 67.8153 65.5884 68.4497 65.3281C68.9178 65.1356 69.6747 66.5794 70.6044 67.1569ZM73.4963 66.4525C73.085 66.4175 71.4706 65.4791 70.2194 64.1884C70.0881 64.0528 69.9656 63.9369 69.8628 63.8384C69.7381 63.7181 69.7338 63.5191 69.8541 63.3922C69.8828 63.3622 69.9171 63.3382 69.955 63.3216C69.993 63.3049 70.0339 63.2959 70.0754 63.2951C70.1168 63.2943 70.1581 63.3017 70.1967 63.3169C70.2353 63.332 70.2705 63.3546 70.3003 63.3834C70.4053 63.4841 70.5278 63.6044 70.6634 63.74C70.9478 64.0222 71.6741 64.8381 73.1069 65.8225C73.4284 66.0434 73.8331 66.2666 74.205 66.3869C74.2466 66.4 73.9053 66.4875 73.4963 66.4525ZM75.1697 64.5319C74.2991 64.1491 73.4503 63.3616 71.9891 61.4869C71.8819 61.3491 71.8994 61.1522 72.035 61.0428C72.1706 60.9334 72.3697 60.9531 72.4791 61.0887C72.9472 61.6619 73.4284 62.2262 73.9447 62.7578C74.1481 62.9678 75.0953 63.7816 75.2156 63.8669C76.3509 64.6544 76.8169 64.7069 76.8169 64.7069C76.6834 64.7616 76.1672 64.9694 75.1697 64.5319ZM56.3834 59.9053C56.285 59.8331 56.3747 59.68 56.4841 59.7303C57.125 60.0191 58.0263 60.4412 58.7088 60.7891C59.3366 61.1084 59.7216 61.2987 59.7216 61.2987L59.0894 61.9134L56.3834 59.9053Z" fill="#D69513"/>
<path d="M81.4741 54.2266C81.1503 52.0719 80.7238 50.6062 80.4066 50.2519C80.0434 49.8494 79.42 50.65 78.1009 51.1181C76.7819 51.5862 74.4063 51.7634 74.4063 51.7634C74.4063 51.7634 70.2522 51.7547 68.7975 52.1616C67.6491 52.4831 66.2272 53.3931 65.0328 54.115C64.0791 54.6925 63.2194 55.0709 63.1472 55.4887C63.0794 55.8869 63.5213 56.7772 64.6194 56.8669C66.4022 57.0134 68.2878 55.8869 68.2878 55.8869C68.8981 55.5412 69.1256 55.4997 70.3441 55.4997C71.5625 55.4997 72.8181 56.4294 72.9078 56.5781C73.8178 58.0766 74.6359 58.8378 75.4716 59.8528C76.0819 60.5944 77.5169 62.5566 77.5169 62.5566C77.5169 62.5566 79.1291 60.6512 79.5403 60.2116C79.9516 59.7719 81.4763 58.6584 81.4763 58.6584C81.4763 58.6584 81.8131 56.4819 81.4741 54.2266Z" fill="#FFCA28"/>
<path d="M77.5803 60.8263C77.4469 60.0256 77.0597 59.2403 77.2434 58.455C77.2719 58.3391 77.2981 58.2231 77.3113 58.105C77.3725 57.4794 76.7819 57.7528 76.6944 57.7616C76.4691 57.7856 73.8791 57.6894 74.1678 57.9825L77.5147 62.5106C77.5147 62.5106 77.6459 62.4691 77.6766 62.1453C77.7094 61.8172 77.5913 60.8941 77.5803 60.8263Z" fill="#FFB300"/>
<path d="M75.4716 58.0328L72.7831 57.1009C73.1375 57.4509 73.4328 57.8294 73.7697 58.1772C74.7934 59.3694 76.34 61.395 77.4906 62.55C77.5387 62.5981 77.6153 62.5369 77.5803 62.48C76.9416 61.4716 75.3009 58.8663 75.2156 58.6103C75.0537 58.1138 75.4716 58.0328 75.4716 58.0328Z" fill="#D69513"/>
<path d="M70.5628 55.9525C71.5581 56.1297 71.8556 56.3681 72.6716 56.9916C74.6753 58.5184 76.5019 57.9387 76.7359 57.8666C78.0222 57.4881 75.6838 57.4881 75.3163 57.3459C72.3609 56.6547 72.1728 54.4934 68.5919 55.4712C67.3822 55.9131 65.4091 57.5034 63.8625 56.4031C63.6416 56.2456 63.2872 55.9284 63.3266 55.5762C63.4009 54.8937 65.2078 54.4847 65.9888 53.7825C67.0541 52.9578 68.3884 52.3234 69.6944 51.9866C69.0534 51.9144 68.325 52.0522 67.7934 52.225C66.3694 52.6909 65.3828 53.765 63.8669 54.3644C62.6134 54.8587 62.7206 55.2787 62.7228 55.5697C62.725 55.8606 62.9547 56.6219 63.6481 56.9959C66.2644 58.4025 68.1303 55.5172 70.5628 55.9525ZM67.4216 67.3734C67.3428 67.5703 67.0103 67.9094 66.8375 67.9662C66.8375 67.9662 67.3603 66.8244 67.0781 66.3103C66.9053 65.8772 66.3891 65.7175 65.9625 65.8138C65.2756 66.0347 64.8469 67.0847 64.7331 67.7322C64.7025 67.9006 64.5188 67.5966 64.545 67.2575C64.6347 66.1112 65.5141 65.6672 65.6103 64.6588C65.6716 64.0353 65.0744 63.5847 64.4619 63.7138C63.6634 63.8034 63.2938 64.5691 62.9109 65.1903C62.7425 65.4878 62.4013 66.0566 62.3663 66.3956C62.3356 66.6909 62.2634 66.7522 62.1934 66.3847C61.8894 64.825 63.8494 63.4797 63.7291 62.6331C63.6022 61.7362 62.9438 61.5744 62.375 61.8347C61.5263 62.2262 60.695 63.6066 60.3734 64.2584C60.2816 64.3897 60.2094 64.7462 60.2094 64.7462C59.9031 63.9937 60.5616 62.9941 60.8897 62.5194C61.0319 62.2788 61.3403 61.99 61.2113 61.6969C61.0122 61.2419 60.6731 61.2528 60.3975 61.3075C59.6866 61.4497 58.8859 62.4669 58.8859 62.4669C58.8597 62.2087 59.1813 61.6969 59.4306 61.4037C60.0519 60.6556 61.3906 60.52 61.8588 61.6597C63.1319 60.7891 64.4838 61.3097 64.4334 62.9394C64.4838 63.0881 65.0416 62.9109 65.7175 63.4294C66.3956 63.9478 66.1856 65.1247 66.1856 65.1247C66.1856 65.1247 66.8638 65.1969 67.2378 65.6672C67.5834 66.1025 67.6381 66.9162 67.4216 67.3734ZM77.1909 61.8566C77.1909 61.8566 78.7922 60.2531 79.3675 59.8834C79.9428 59.5137 80.7828 59.0084 80.8113 59.1506C80.8397 59.2928 79.4725 60.2553 78.9584 60.8591C78.4466 61.465 77.5847 62.4778 77.5847 62.4778L77.1909 61.8566Z" fill="#D69513"/>
</svg>
