<svg width="119" height="118" viewBox="0 0 119 118" fill="none" xmlns="http://www.w3.org/2000/svg">
<mask id="path-1-inside-1_673_8860" fill="white">
<path fill-rule="evenodd" clip-rule="evenodd" d="M69.5 0C68.9477 0 68.5029 0.448498 68.4727 0.999957C67.9538 10.476 60.1056 18 50.5 18C40.8944 18 33.0462 10.476 32.5273 0.999956C32.4971 0.448497 32.0523 0 31.5 0L4.5 0C2.29086 0 0.5 1.79086 0.5 4L0.5 31C0.5 31.5523 0.948498 31.9971 1.49996 32.0273C10.976 32.5462 18.5 40.3944 18.5 50C18.5 59.6056 10.976 67.4538 1.49996 67.9727C0.948497 68.0029 0.5 68.4477 0.5 69L0.5 96C0.5 98.2091 2.29086 100 4.5 100H31.5C32.0523 100 32.4971 100.448 32.5273 101C33.0462 110.476 40.8944 118 50.5 118C60.1056 118 67.9538 110.476 68.4727 101C68.5029 100.448 68.9477 100 69.5 100L96.5 100C98.7091 100 100.5 98.2091 100.5 96L100.5 69C100.5 68.4477 100.948 68.0029 101.5 67.9727C110.976 67.4538 118.5 59.6056 118.5 50C118.5 40.3944 110.976 32.5462 101.5 32.0273C100.948 31.9971 100.5 31.5523 100.5 31L100.5 4C100.5 1.79086 98.7091 0 96.5 0L69.5 0Z"/>
</mask>
<path fill-rule="evenodd" clip-rule="evenodd" d="M69.5 0C68.9477 0 68.5029 0.448498 68.4727 0.999957C67.9538 10.476 60.1056 18 50.5 18C40.8944 18 33.0462 10.476 32.5273 0.999956C32.4971 0.448497 32.0523 0 31.5 0L4.5 0C2.29086 0 0.5 1.79086 0.5 4L0.5 31C0.5 31.5523 0.948498 31.9971 1.49996 32.0273C10.976 32.5462 18.5 40.3944 18.5 50C18.5 59.6056 10.976 67.4538 1.49996 67.9727C0.948497 68.0029 0.5 68.4477 0.5 69L0.5 96C0.5 98.2091 2.29086 100 4.5 100H31.5C32.0523 100 32.4971 100.448 32.5273 101C33.0462 110.476 40.8944 118 50.5 118C60.1056 118 67.9538 110.476 68.4727 101C68.5029 100.448 68.9477 100 69.5 100L96.5 100C98.7091 100 100.5 98.2091 100.5 96L100.5 69C100.5 68.4477 100.948 68.0029 101.5 67.9727C110.976 67.4538 118.5 59.6056 118.5 50C118.5 40.3944 110.976 32.5462 101.5 32.0273C100.948 31.9971 100.5 31.5523 100.5 31L100.5 4C100.5 1.79086 98.7091 0 96.5 0L69.5 0Z" fill="#374151" fill-opacity="0.4"/>
<path d="M0.5 96H1.5H0.5ZM96.5 100V101V100ZM100.5 96H99.5H100.5ZM96.5 0V1V0ZM101.5 32.0273L101.555 31.0288L101.5 32.0273ZM100.5 31H99.5H100.5ZM101.5 67.9727L101.555 68.9712L101.5 67.9727ZM32.5273 101L33.5258 100.945L32.5273 101ZM1.49996 32.0273L1.44528 33.0258L1.49996 32.0273ZM32.5273 0.999956L31.5288 1.05463L32.5273 0.999956ZM68.4727 101L67.4742 100.945L68.4727 101ZM69.5 100V99V100ZM68.4727 0.999957L67.4742 0.945284L68.4727 0.999957ZM69.5 0V1V0ZM50.5 19C60.6396 19 68.9235 11.058 69.4712 1.05463L67.4742 0.945284C66.9842 9.89397 59.5716 17 50.5 17L50.5 19ZM31.5288 1.05463C32.0765 11.058 40.3604 19 50.5 19L50.5 17C41.4284 17 34.0158 9.89397 33.5258 0.945282L31.5288 1.05463ZM4.5 1L31.5 1V-1L4.5 -1V1ZM1.5 4C1.5 2.34315 2.84315 1 4.5 1V-1C1.73858 -1 -0.5 1.23858 -0.5 4H1.5ZM1.5 31L1.5 4H-0.5L-0.5 31H1.5ZM19.5 50C19.5 39.8604 11.558 31.5765 1.55463 31.0288L1.44528 33.0258C10.394 33.5158 17.5 40.9284 17.5 50L19.5 50ZM1.55463 68.9712C11.558 68.4235 19.5 60.1396 19.5 50L17.5 50C17.5 59.0716 10.394 66.4842 1.44528 66.9742L1.55463 68.9712ZM1.5 96L1.5 69H-0.5L-0.5 96H1.5ZM4.5 99C2.84315 99 1.5 97.6569 1.5 96H-0.5C-0.5 98.7614 1.73858 101 4.5 101V99ZM31.5 99H4.5V101H31.5L31.5 99ZM50.5 117C41.4284 117 34.0158 109.894 33.5258 100.945L31.5288 101.055C32.0765 111.058 40.3605 119 50.5 119V117ZM67.4742 100.945C66.9842 109.894 59.5716 117 50.5 117V119C60.6396 119 68.9235 111.058 69.4712 101.055L67.4742 100.945ZM96.5 99L69.5 99V101L96.5 101V99ZM99.5 96C99.5 97.6569 98.1569 99 96.5 99V101C99.2614 101 101.5 98.7614 101.5 96H99.5ZM99.5 69L99.5 96H101.5L101.5 69H99.5ZM117.5 50C117.5 59.0716 110.394 66.4842 101.445 66.9742L101.555 68.9712C111.558 68.4235 119.5 60.1396 119.5 50H117.5ZM101.445 33.0258C110.394 33.5158 117.5 40.9284 117.5 50H119.5C119.5 39.8604 111.558 31.5765 101.555 31.0288L101.445 33.0258ZM99.5 4L99.5 31H101.5L101.5 4L99.5 4ZM96.5 1C98.1569 1 99.5 2.34315 99.5 4H101.5C101.5 1.23858 99.2614 -1 96.5 -1V1ZM69.5 1L96.5 1V-1L69.5 -1V1ZM101.555 31.0288C101.533 31.0276 101.516 31.0187 101.506 31.0081C101.501 31.0033 101.5 31.0001 101.5 30.9999C101.5 30.9998 101.5 31.0001 101.5 31.0007C101.5 31.0012 101.5 31.0012 101.5 31H99.5C99.5 32.1183 100.399 32.9685 101.445 33.0258L101.555 31.0288ZM101.5 69C101.5 68.9988 101.5 68.9988 101.5 68.9994C101.5 68.9999 101.5 69.0002 101.5 69.0001C101.5 68.9999 101.501 68.9967 101.506 68.9919C101.516 68.9813 101.533 68.9724 101.555 68.9712L101.445 66.9742C100.399 67.0315 99.5 67.8817 99.5 69H101.5ZM31.5 101C31.5012 101 31.5012 101 31.5007 101C31.5001 101 31.4998 101 31.4999 101C31.5001 101 31.5033 101.001 31.5081 101.006C31.5187 101.016 31.5276 101.033 31.5288 101.055L33.5258 100.945C33.4685 99.8992 32.6183 99 31.5 99L31.5 101ZM-0.5 31C-0.5 32.1183 0.399214 32.9685 1.44528 33.0258L1.55463 31.0288C1.53335 31.0276 1.5164 31.0187 1.506 31.0081C1.50127 31.0033 1.49985 31.0001 1.49977 30.9999C1.49974 30.9998 1.49987 31.0001 1.49998 31.0006C1.5001 31.0012 1.5 31.0012 1.5 31H-0.5ZM1.44528 66.9742C0.399211 67.0315 -0.5 67.8817 -0.5 69H1.5C1.5 68.9988 1.5001 68.9988 1.49998 68.9993C1.49987 68.9999 1.49974 69.0002 1.49977 69.0001C1.49985 68.9999 1.50127 68.9967 1.506 68.9919C1.5164 68.9813 1.53335 68.9724 1.55463 68.9712L1.44528 66.9742ZM33.5258 0.945282C33.4685 -0.100789 32.6183 -1 31.5 -1V1C31.5012 1 31.5012 1.0001 31.5007 0.999977C31.5001 0.999868 31.4998 0.999738 31.4999 0.999766C31.5001 0.999846 31.5033 1.00127 31.5081 1.006C31.5187 1.0164 31.5276 1.03335 31.5288 1.05463L33.5258 0.945282ZM69.4712 101.055C69.4724 101.033 69.4813 101.016 69.4919 101.006C69.4967 101.001 69.4999 101 69.5001 101C69.5002 101 69.4999 101 69.4993 101C69.4988 101 69.4988 101 69.5 101V99C68.3817 99 67.5315 99.8992 67.4742 100.945L69.4712 101.055ZM69.4712 1.05463C69.4724 1.03335 69.4813 1.0164 69.4919 1.006C69.4967 1.00127 69.4999 0.999846 69.5001 0.999766C69.5002 0.999738 69.4999 0.999868 69.4994 0.999977C69.4988 1.0001 69.4988 1 69.5 1V-1C68.3817 -1 67.5315 -0.100786 67.4742 0.945284L69.4712 1.05463Z" fill="#374151" mask="url(#path-1-inside-1_673_8860)"/>
<path d="M30.4414 71.084C30.2814 71.084 30.1614 71.04 30.0814 70.952C30.0014 70.864 29.9614 70.74 29.9614 70.58V65.576C29.9614 65.416 30.0014 65.296 30.0814 65.216C30.1614 65.128 30.2774 65.084 30.4294 65.084C30.5814 65.084 30.6974 65.128 30.7774 65.216C30.8654 65.296 30.9094 65.416 30.9094 65.576V66.632L30.7774 66.464C30.9294 66.016 31.1734 65.672 31.5094 65.432C31.8534 65.184 32.2614 65.06 32.7334 65.06C33.2294 65.06 33.6294 65.18 33.9334 65.42C34.2454 65.652 34.4534 66.016 34.5574 66.512H34.3774C34.5214 66.064 34.7774 65.712 35.1454 65.456C35.5214 65.192 35.9574 65.06 36.4534 65.06C36.8934 65.06 37.2534 65.144 37.5334 65.312C37.8214 65.48 38.0374 65.736 38.1814 66.08C38.3254 66.416 38.3974 66.844 38.3974 67.364V70.58C38.3974 70.74 38.3534 70.864 38.2654 70.952C38.1854 71.04 38.0654 71.084 37.9054 71.084C37.7534 71.084 37.6334 71.04 37.5454 70.952C37.4654 70.864 37.4254 70.74 37.4254 70.58V67.412C37.4254 66.876 37.3334 66.484 37.1494 66.236C36.9654 65.98 36.6534 65.852 36.2134 65.852C35.7334 65.852 35.3534 66.02 35.0734 66.356C34.8014 66.684 34.6654 67.132 34.6654 67.7V70.58C34.6654 70.74 34.6214 70.864 34.5334 70.952C34.4534 71.04 34.3334 71.084 34.1734 71.084C34.0214 71.084 33.9014 71.04 33.8134 70.952C33.7334 70.864 33.6934 70.74 33.6934 70.58V67.412C33.6934 66.876 33.5974 66.484 33.4054 66.236C33.2214 65.98 32.9134 65.852 32.4814 65.852C32.0014 65.852 31.6214 66.02 31.3414 66.356C31.0694 66.684 30.9334 67.132 30.9334 67.7V70.58C30.9334 70.916 30.7694 71.084 30.4414 71.084ZM42.6387 71.108C42.0707 71.108 41.5787 70.984 41.1627 70.736C40.7467 70.488 40.4227 70.14 40.1907 69.692C39.9667 69.236 39.8547 68.7 39.8547 68.084C39.8547 67.62 39.9187 67.204 40.0467 66.836C40.1747 66.46 40.3627 66.14 40.6107 65.876C40.8587 65.612 41.1507 65.412 41.4867 65.276C41.8307 65.132 42.2147 65.06 42.6387 65.06C43.2067 65.06 43.6987 65.184 44.1147 65.432C44.5307 65.68 44.8507 66.032 45.0747 66.488C45.3067 66.936 45.4227 67.468 45.4227 68.084C45.4227 68.548 45.3587 68.964 45.2307 69.332C45.1027 69.7 44.9147 70.02 44.6667 70.292C44.4187 70.556 44.1227 70.76 43.7787 70.904C43.4427 71.04 43.0627 71.108 42.6387 71.108ZM42.6387 70.328C42.9987 70.328 43.3147 70.24 43.5867 70.064C43.8587 69.888 44.0667 69.632 44.2107 69.296C44.3627 68.96 44.4387 68.556 44.4387 68.084C44.4387 67.356 44.2747 66.8 43.9467 66.416C43.6267 66.032 43.1907 65.84 42.6387 65.84C42.2707 65.84 41.9507 65.928 41.6787 66.104C41.4147 66.272 41.2067 66.524 41.0547 66.86C40.9107 67.188 40.8387 67.596 40.8387 68.084C40.8387 68.804 41.0027 69.36 41.3307 69.752C41.6587 70.136 42.0947 70.328 42.6387 70.328ZM47.3627 71.084C47.2027 71.084 47.0827 71.04 47.0027 70.952C46.9227 70.864 46.8827 70.74 46.8827 70.58V65.576C46.8827 65.416 46.9227 65.296 47.0027 65.216C47.0827 65.128 47.1987 65.084 47.3507 65.084C47.5027 65.084 47.6187 65.128 47.6987 65.216C47.7867 65.296 47.8307 65.416 47.8307 65.576V66.608L47.6987 66.464C47.8667 66 48.1387 65.652 48.5147 65.42C48.8987 65.18 49.3387 65.06 49.8347 65.06C50.2987 65.06 50.6827 65.144 50.9867 65.312C51.2987 65.48 51.5307 65.736 51.6827 66.08C51.8347 66.416 51.9107 66.844 51.9107 67.364V70.58C51.9107 70.74 51.8667 70.864 51.7787 70.952C51.6987 71.04 51.5827 71.084 51.4307 71.084C51.2707 71.084 51.1467 71.04 51.0587 70.952C50.9787 70.864 50.9387 70.74 50.9387 70.58V67.424C50.9387 66.88 50.8307 66.484 50.6147 66.236C50.4067 65.98 50.0707 65.852 49.6067 65.852C49.0707 65.852 48.6427 66.02 48.3227 66.356C48.0107 66.684 47.8547 67.124 47.8547 67.676V70.58C47.8547 70.916 47.6907 71.084 47.3627 71.084ZM56.283 73.268C55.859 73.268 55.443 73.216 55.035 73.112C54.635 73.016 54.271 72.86 53.943 72.644C53.847 72.588 53.783 72.52 53.751 72.44C53.727 72.36 53.723 72.28 53.739 72.2C53.755 72.128 53.791 72.06 53.847 71.996C53.903 71.94 53.967 71.904 54.039 71.888C54.119 71.872 54.199 71.884 54.279 71.924C54.631 72.14 54.967 72.288 55.287 72.368C55.607 72.448 55.923 72.488 56.235 72.488C56.803 72.488 57.231 72.336 57.519 72.032C57.815 71.728 57.963 71.288 57.963 70.712V69.356H58.083C57.963 69.82 57.707 70.188 57.315 70.46C56.931 70.732 56.479 70.868 55.959 70.868C55.423 70.868 54.959 70.748 54.567 70.508C54.175 70.26 53.871 69.916 53.655 69.476C53.447 69.036 53.343 68.528 53.343 67.952C53.343 67.52 53.403 67.128 53.523 66.776C53.643 66.416 53.815 66.112 54.039 65.864C54.271 65.608 54.547 65.412 54.867 65.276C55.195 65.132 55.559 65.06 55.959 65.06C56.487 65.06 56.943 65.196 57.327 65.468C57.711 65.732 57.959 66.092 58.071 66.548L57.951 66.692V65.576C57.951 65.416 57.991 65.296 58.071 65.216C58.159 65.128 58.279 65.084 58.431 65.084C58.591 65.084 58.711 65.128 58.791 65.216C58.871 65.296 58.911 65.416 58.911 65.576V70.58C58.911 71.468 58.687 72.136 58.239 72.584C57.799 73.04 57.147 73.268 56.283 73.268ZM56.139 70.076C56.515 70.076 56.839 69.992 57.111 69.824C57.383 69.648 57.591 69.4 57.735 69.08C57.887 68.76 57.963 68.384 57.963 67.952C57.963 67.304 57.799 66.792 57.471 66.416C57.143 66.032 56.699 65.84 56.139 65.84C55.771 65.84 55.451 65.928 55.179 66.104C54.907 66.272 54.695 66.516 54.543 66.836C54.399 67.148 54.327 67.52 54.327 67.952C54.327 68.6 54.491 69.116 54.819 69.5C55.147 69.884 55.587 70.076 56.139 70.076ZM63.1583 71.108C62.5903 71.108 62.0983 70.984 61.6823 70.736C61.2663 70.488 60.9423 70.14 60.7103 69.692C60.4863 69.236 60.3743 68.7 60.3743 68.084C60.3743 67.62 60.4383 67.204 60.5663 66.836C60.6943 66.46 60.8823 66.14 61.1303 65.876C61.3783 65.612 61.6703 65.412 62.0063 65.276C62.3503 65.132 62.7343 65.06 63.1583 65.06C63.7263 65.06 64.2183 65.184 64.6343 65.432C65.0503 65.68 65.3703 66.032 65.5943 66.488C65.8263 66.936 65.9423 67.468 65.9423 68.084C65.9423 68.548 65.8783 68.964 65.7503 69.332C65.6223 69.7 65.4343 70.02 65.1863 70.292C64.9383 70.556 64.6423 70.76 64.2983 70.904C63.9623 71.04 63.5823 71.108 63.1583 71.108ZM63.1583 70.328C63.5183 70.328 63.8343 70.24 64.1063 70.064C64.3783 69.888 64.5863 69.632 64.7303 69.296C64.8823 68.96 64.9583 68.556 64.9583 68.084C64.9583 67.356 64.7943 66.8 64.4663 66.416C64.1463 66.032 63.7103 65.84 63.1583 65.84C62.7903 65.84 62.4703 65.928 62.1983 66.104C61.9343 66.272 61.7263 66.524 61.5743 66.86C61.4303 67.188 61.3583 67.596 61.3583 68.084C61.3583 68.804 61.5223 69.36 61.8503 69.752C62.1783 70.136 62.6143 70.328 63.1583 70.328ZM67.4399 71C67.3359 71 67.2519 70.976 67.1879 70.928C67.1239 70.88 67.0799 70.816 67.0559 70.736C67.0319 70.656 67.0319 70.568 67.0559 70.472C67.0799 70.376 67.1319 70.284 67.2119 70.196L70.5959 65.672V65.924H67.3919C67.2639 65.924 67.1639 65.892 67.0919 65.828C67.0279 65.756 66.9959 65.66 66.9959 65.54C66.9959 65.42 67.0279 65.328 67.0919 65.264C67.1639 65.2 67.2639 65.168 67.3919 65.168H71.0759C71.1959 65.168 71.2919 65.192 71.3639 65.24C71.4439 65.288 71.4959 65.352 71.5199 65.432C71.5439 65.504 71.5439 65.588 71.5199 65.684C71.5039 65.772 71.4599 65.86 71.3879 65.948L67.9439 70.52V70.244H71.3159C71.5799 70.244 71.7119 70.368 71.7119 70.616C71.7119 70.736 71.6759 70.832 71.6039 70.904C71.5399 70.968 71.4439 71 71.3159 71H67.4399Z" fill="#F9FAFB"/>
<path d="M37.3816 45.5628C37.1191 46.8775 38.6197 51.9328 46.4488 52.9434C50.4716 53.4619 54.4222 52.0334 57.5503 49.6381C60.6784 47.2428 62.5969 44.1563 63.2553 41.3366C64.2681 36.9944 63.1044 30.4384 54.4922 30.0513C45.6853 29.6553 42.7256 38.8625 40.8794 41.5684C38.6569 44.83 37.62 44.375 37.3816 45.5628Z" fill="url(#paint0_radial_673_8860)"/>
<path d="M45.6634 33.9472C45.6634 33.9472 48.6319 35.4566 53.2344 35.1372C56.9597 34.8791 58.4253 33.0503 58.4253 33.0503C58.4253 33.0503 60.0638 33.5009 61.1509 33.2122C61.5863 33.0963 61.6803 32.86 61.1488 32.3088C60.3459 31.4731 57.5897 29.9266 53.5253 30.1869C48.4394 30.5172 45.6634 33.9472 45.6634 33.9472Z" fill="#DC0D27"/>
<path d="M42.1963 42.7606C42.7125 43.6203 44.2416 42.5113 45.3178 41.4328C46.8709 39.8753 47.5775 38.4491 47.9909 37.725C48.4044 37.0009 48.9644 35.4413 47.8356 35.1897C46.6609 34.9294 46.3131 36.3819 45.7094 37.4516C45.1056 38.5213 44.2656 39.7944 43.5919 40.6234C42.8766 41.505 41.89 42.2509 42.1963 42.7606Z" fill="#FFEBC9"/>
<path d="M58.8912 31.4644C58.7425 32.1141 59.3397 32.5691 59.7531 32.895C60.1666 33.2209 61.0984 33.3434 61.4091 33.1181C61.7197 32.895 61.3741 32.2387 61.5994 31.8428C61.8225 31.4469 62.2206 30.9634 61.7372 30.6353C61.3325 30.3597 60.7878 30.2569 60.2891 30.3597C59.7903 30.4625 59.7881 30.8431 59.5825 30.9459C59.3725 31.0509 58.9416 31.2412 58.8912 31.4644Z" fill="#6D4C41"/>
<path d="M58.4056 31.6613C57.8544 31.9019 56.2312 33.1816 52.4425 33.4725C48.2644 33.7941 43.3578 33.2975 42.5397 33.1816C41.7216 33.0656 40.3259 33.0109 40.3456 32.6609C40.3741 32.1359 40.9166 32.3044 42.0103 31.9894C43.325 31.6088 44.6681 31.0838 45.6919 30.4713C47.2625 29.5284 50.4606 27.1703 53.6084 27.1113C57.0559 27.0478 58.165 28.1328 59.0116 29.0384C59.8581 29.9441 59.8712 30.8934 59.6372 31.2741C59.4053 31.6547 59.0772 31.3703 58.4056 31.6613Z" fill="#518E30"/>
<path d="M47.5381 31.4512C47.6191 31.5519 49.1459 31.6087 49.9969 31.5803C51.9394 31.5169 53.4772 31.0006 55.3913 30.7862C57.3053 30.5719 58.9744 30.7862 59.0378 30.7119C59.1538 30.5762 57.9791 28.9794 54.1356 29.4103C52.7203 29.57 50.9003 30.2897 49.6447 30.7906C48.8441 31.1166 47.4616 31.355 47.5381 31.4512Z" fill="#366918"/>
<defs>
<radialGradient id="paint0_radial_673_8860" cx="0" cy="0" r="1" gradientUnits="userSpaceOnUse" gradientTransform="translate(52.999 12.5222) scale(40.2419 40.2419)">
<stop offset="0.532" stop-color="#F33A1F"/>
<stop offset="0.615" stop-color="#F86922"/>
<stop offset="0.696" stop-color="#FD9124"/>
<stop offset="0.739" stop-color="#FFA025"/>
<stop offset="0.793" stop-color="#FCA025"/>
<stop offset="0.839" stop-color="#F1A124"/>
<stop offset="0.883" stop-color="#DFA222"/>
<stop offset="0.925" stop-color="#C7A41F"/>
<stop offset="0.962" stop-color="#AAA61C"/>
</radialGradient>
</defs>
</svg>
