<svg width="119" height="118" viewBox="0 0 119 118" fill="none" xmlns="http://www.w3.org/2000/svg">
<mask id="path-1-inside-1_576_10463" fill="white">
<path fill-rule="evenodd" clip-rule="evenodd" d="M69.5 18C68.9477 18 68.5029 17.5515 68.4727 17C67.9538 7.52403 60.1056 0 50.5 0C40.8944 0 33.0462 7.52403 32.5273 17C32.4971 17.5515 32.0523 18 31.5 18L4.5 18C2.29086 18 0.5 19.7909 0.5 22L0.500002 49C0.500002 49.5523 0.948499 49.9971 1.49996 50.0273C10.976 50.5462 18.5 58.3944 18.5 68C18.5 77.6056 10.976 85.4538 1.49996 85.9727C0.9485 86.0029 0.500002 86.4477 0.500002 87L0.5 114C0.5 116.209 2.29086 118 4.5 118H31.5C32.0523 118 32.4971 117.552 32.5273 117C33.0462 107.524 40.8944 100 50.5 100C60.1056 100 67.9538 107.524 68.4727 117C68.5029 117.551 68.9477 118 69.5 118H96.5C98.7091 118 100.5 116.209 100.5 114L100.5 87C100.5 86.4477 100.948 86.0029 101.5 85.9727C110.976 85.4538 118.5 77.6056 118.5 68C118.5 58.3944 110.976 50.5462 101.5 50.0273C100.949 49.9971 100.5 49.5523 100.5 49L100.5 22C100.5 19.7909 98.7091 18 96.5 18L69.5 18Z"/>
</mask>
<path fill-rule="evenodd" clip-rule="evenodd" d="M69.5 18C68.9477 18 68.5029 17.5515 68.4727 17C67.9538 7.52403 60.1056 0 50.5 0C40.8944 0 33.0462 7.52403 32.5273 17C32.4971 17.5515 32.0523 18 31.5 18L4.5 18C2.29086 18 0.5 19.7909 0.5 22L0.500002 49C0.500002 49.5523 0.948499 49.9971 1.49996 50.0273C10.976 50.5462 18.5 58.3944 18.5 68C18.5 77.6056 10.976 85.4538 1.49996 85.9727C0.9485 86.0029 0.500002 86.4477 0.500002 87L0.5 114C0.5 116.209 2.29086 118 4.5 118H31.5C32.0523 118 32.4971 117.552 32.5273 117C33.0462 107.524 40.8944 100 50.5 100C60.1056 100 67.9538 107.524 68.4727 117C68.5029 117.551 68.9477 118 69.5 118H96.5C98.7091 118 100.5 116.209 100.5 114L100.5 87C100.5 86.4477 100.948 86.0029 101.5 85.9727C110.976 85.4538 118.5 77.6056 118.5 68C118.5 58.3944 110.976 50.5462 101.5 50.0273C100.949 49.9971 100.5 49.5523 100.5 49L100.5 22C100.5 19.7909 98.7091 18 96.5 18L69.5 18Z" fill="#374151" fill-opacity="0.4"/>
<path d="M4.5 18V17V18ZM0.5 22H-0.5H0.5ZM0.5 114H-0.5H0.5ZM100.5 114H101.5H100.5ZM96.5 18V17V18ZM101.5 50.0273L101.555 49.0288L101.5 50.0273ZM100.5 87H99.5H100.5ZM101.5 85.9727L101.445 84.9742L101.5 85.9727ZM32.5273 117L31.5288 116.945L32.5273 117ZM1.49996 85.9727L1.44529 84.9742L1.49996 85.9727ZM32.5273 17L31.5288 16.9454L32.5273 17ZM68.4727 117L69.4712 116.945L68.4727 117ZM68.4727 17L69.4712 16.9454L68.4727 17ZM69.5 18V19V18ZM50.5 1C59.5716 1 66.9842 8.10602 67.4742 17.0547L69.4712 16.9454C68.9235 6.94204 60.6396 -1 50.5 -1V1ZM33.5258 17.0547C34.0158 8.10603 41.4284 1 50.5 1V-1C40.3604 -1 32.0765 6.94204 31.5288 16.9454L33.5258 17.0547ZM31.5 17L4.5 17V19L31.5 19V17ZM4.5 17C1.73858 17 -0.5 19.2386 -0.5 22H1.5C1.5 20.3431 2.84315 19 4.5 19V17ZM-0.5 22L-0.499998 49H1.5L1.5 22H-0.5ZM1.44528 51.0258C10.394 51.5158 17.5 58.9284 17.5 68H19.5C19.5 57.8604 11.558 49.5765 1.55463 49.0288L1.44528 51.0258ZM17.5 68C17.5 77.0716 10.394 84.4842 1.44529 84.9742L1.55463 86.9712C11.558 86.4235 19.5 78.1395 19.5 68H17.5ZM-0.499998 87L-0.5 114H1.5L1.5 87H-0.499998ZM-0.5 114C-0.5 116.761 1.73858 119 4.5 119L4.5 117C2.84315 117 1.5 115.657 1.5 114H-0.5ZM4.5 119H31.5V117H4.5L4.5 119ZM33.5258 117.055C34.0158 108.106 41.4284 101 50.5 101V99C40.3604 99 32.0765 106.942 31.5288 116.945L33.5258 117.055ZM50.5 101C59.5716 101 66.9842 108.106 67.4742 117.055L69.4712 116.945C68.9235 106.942 60.6396 99 50.5 99V101ZM69.5 119H96.5V117H69.5V119ZM96.5 119C99.2614 119 101.5 116.761 101.5 114H99.5C99.5 115.657 98.1569 117 96.5 117V119ZM101.5 114L101.5 87H99.5L99.5 114H101.5ZM101.555 86.9712C111.558 86.4235 119.5 78.1395 119.5 68H117.5C117.5 77.0716 110.394 84.4842 101.445 84.9742L101.555 86.9712ZM119.5 68C119.5 57.8604 111.558 49.5765 101.555 49.0288L101.445 51.0258C110.394 51.5158 117.5 58.9284 117.5 68H119.5ZM101.5 49L101.5 22H99.5L99.5 49H101.5ZM101.5 22C101.5 19.2386 99.2614 17 96.5 17V19C98.1569 19 99.5 20.3431 99.5 22H101.5ZM96.5 17L69.5 17V19L96.5 19V17ZM101.555 49.0288C101.533 49.0276 101.516 49.0187 101.506 49.0081C101.501 49.0033 101.5 49.0001 101.5 48.9999C101.5 48.9998 101.5 49.0001 101.5 49.0006C101.5 49.0012 101.5 49.0012 101.5 49H99.5C99.5 50.1183 100.399 50.9685 101.445 51.0258L101.555 49.0288ZM101.5 87C101.5 86.9988 101.5 86.9988 101.5 86.9994C101.5 86.9999 101.5 87.0002 101.5 87.0001C101.5 86.9999 101.501 86.9967 101.506 86.9919C101.516 86.9813 101.533 86.9724 101.555 86.9712L101.445 84.9742C100.399 85.0315 99.5 85.8817 99.5 87H101.5ZM31.5 119C32.6183 119 33.4685 118.101 33.5258 117.055L31.5288 116.945C31.5276 116.967 31.5187 116.984 31.5081 116.994C31.5033 116.999 31.5001 117 31.4999 117C31.4998 117 31.5001 117 31.5007 117C31.5012 117 31.5012 117 31.5 117V119ZM-0.499998 49C-0.499998 50.1183 0.399213 50.9685 1.44528 51.0258L1.55463 49.0288C1.53335 49.0276 1.5164 49.0187 1.506 49.0081C1.50127 49.0033 1.49985 49.0001 1.49977 48.9999C1.49974 48.9998 1.49987 49.0001 1.49998 49.0006C1.5001 49.0012 1.5 49.0012 1.5 49H-0.499998ZM1.44529 84.9742C0.399216 85.0315 -0.499998 85.8817 -0.499998 87H1.5C1.5 86.9988 1.5001 86.9988 1.49998 86.9994C1.49987 86.9999 1.49974 87.0002 1.49977 87.0001C1.49985 86.9999 1.50127 86.9967 1.506 86.9919C1.5164 86.9813 1.53335 86.9724 1.55463 86.9712L1.44529 84.9742ZM31.5288 16.9454C31.5276 16.9667 31.5187 16.9836 31.5081 16.994C31.5033 16.9987 31.5001 17.0002 31.4999 17.0002C31.4998 17.0003 31.5001 17.0001 31.5007 17C31.5012 16.9999 31.5012 17 31.5 17V19C32.6183 19 33.4685 18.1008 33.5258 17.0547L31.5288 16.9454ZM67.4742 117.055C67.5315 118.101 68.3817 119 69.5 119V117C69.4988 117 69.4988 117 69.4994 117C69.4999 117 69.5002 117 69.5001 117C69.4999 117 69.4967 116.999 69.4919 116.994C69.4813 116.984 69.4724 116.967 69.4712 116.945L67.4742 117.055ZM67.4742 17.0547C67.5315 18.1008 68.3817 19 69.5 19V17C69.4988 17 69.4988 16.9999 69.4994 17C69.4999 17.0001 69.5002 17.0003 69.5001 17.0002C69.4999 17.0002 69.4967 16.9987 69.4919 16.994C69.4813 16.9836 69.4724 16.9667 69.4712 16.9454L67.4742 17.0547Z" fill="#374151" mask="url(#path-1-inside-1_576_10463)"/>
<path d="M39.5404 89.084C39.3804 89.084 39.2604 89.04 39.1804 88.952C39.1004 88.864 39.0604 88.74 39.0604 88.58V83.576C39.0604 83.416 39.1004 83.296 39.1804 83.216C39.2604 83.128 39.3764 83.084 39.5284 83.084C39.6804 83.084 39.7964 83.128 39.8764 83.216C39.9644 83.296 40.0084 83.416 40.0084 83.576V84.608L39.8764 84.464C40.0444 84 40.3164 83.652 40.6924 83.42C41.0764 83.18 41.5164 83.06 42.0124 83.06C42.4764 83.06 42.8604 83.144 43.1644 83.312C43.4764 83.48 43.7084 83.736 43.8604 84.08C44.0124 84.416 44.0884 84.844 44.0884 85.364V88.58C44.0884 88.74 44.0444 88.864 43.9564 88.952C43.8764 89.04 43.7604 89.084 43.6084 89.084C43.4484 89.084 43.3244 89.04 43.2364 88.952C43.1564 88.864 43.1164 88.74 43.1164 88.58V85.424C43.1164 84.88 43.0084 84.484 42.7924 84.236C42.5844 83.98 42.2484 83.852 41.7844 83.852C41.2484 83.852 40.8204 84.02 40.5004 84.356C40.1884 84.684 40.0324 85.124 40.0324 85.676V88.58C40.0324 88.916 39.8684 89.084 39.5404 89.084ZM46.3608 89.06C46.2008 89.06 46.0808 89.016 46.0008 88.928C45.9208 88.832 45.8808 88.7 45.8808 88.532V83.624C45.8808 83.456 45.9208 83.328 46.0008 83.24C46.0808 83.152 46.2008 83.108 46.3608 83.108C46.5128 83.108 46.6328 83.152 46.7208 83.24C46.8088 83.328 46.8528 83.456 46.8528 83.624V88.532C46.8528 88.7 46.8088 88.832 46.7208 88.928C46.6408 89.016 46.5208 89.06 46.3608 89.06ZM46.3608 81.764C46.1608 81.764 46.0048 81.712 45.8928 81.608C45.7808 81.496 45.7248 81.348 45.7248 81.164C45.7248 80.972 45.7808 80.828 45.8928 80.732C46.0048 80.628 46.1608 80.576 46.3608 80.576C46.5688 80.576 46.7248 80.628 46.8288 80.732C46.9408 80.828 46.9968 80.972 46.9968 81.164C46.9968 81.348 46.9408 81.496 46.8288 81.608C46.7248 81.712 46.5688 81.764 46.3608 81.764ZM51.0098 89.108C50.5538 89.108 50.1698 89.028 49.8578 88.868C49.5538 88.7 49.3258 88.46 49.1738 88.148C49.0218 87.828 48.9458 87.44 48.9458 86.984V83.924H48.1418C48.0058 83.924 47.9018 83.892 47.8298 83.828C47.7578 83.756 47.7218 83.66 47.7218 83.54C47.7218 83.42 47.7578 83.328 47.8298 83.264C47.9018 83.2 48.0058 83.168 48.1418 83.168H48.9458V81.788C48.9458 81.628 48.9898 81.508 49.0778 81.428C49.1658 81.34 49.2858 81.296 49.4378 81.296C49.5898 81.296 49.7058 81.34 49.7858 81.428C49.8738 81.508 49.9178 81.628 49.9178 81.788V83.168H51.4298C51.5658 83.168 51.6698 83.2 51.7418 83.264C51.8138 83.328 51.8498 83.42 51.8498 83.54C51.8498 83.66 51.8138 83.756 51.7418 83.828C51.6698 83.892 51.5658 83.924 51.4298 83.924H49.9178V86.888C49.9178 87.344 50.0138 87.692 50.2058 87.932C50.3978 88.164 50.7098 88.28 51.1418 88.28C51.2938 88.28 51.4218 88.264 51.5258 88.232C51.6378 88.2 51.7298 88.184 51.8018 88.184C51.8738 88.176 51.9338 88.2 51.9818 88.256C52.0298 88.312 52.0538 88.408 52.0538 88.544C52.0538 88.64 52.0338 88.728 51.9938 88.808C51.9618 88.888 51.9018 88.944 51.8138 88.976C51.7178 89.008 51.5898 89.036 51.4298 89.06C51.2778 89.092 51.1378 89.108 51.0098 89.108ZM53.3571 89.084C53.1971 89.084 53.0731 89.04 52.9851 88.952C52.9051 88.864 52.8651 88.74 52.8651 88.58V83.576C52.8651 83.416 52.9051 83.296 52.9851 83.216C53.0651 83.128 53.1811 83.084 53.3331 83.084C53.4851 83.084 53.6011 83.128 53.6811 83.216C53.7691 83.296 53.8131 83.416 53.8131 83.576V84.548H53.6931C53.8211 84.076 54.0651 83.712 54.4251 83.456C54.7851 83.2 55.2291 83.064 55.7571 83.048C55.8771 83.04 55.9731 83.068 56.0451 83.132C56.1171 83.188 56.1571 83.288 56.1651 83.432C56.1731 83.568 56.1411 83.676 56.0691 83.756C55.9971 83.836 55.8851 83.884 55.7331 83.9L55.5411 83.924C54.9971 83.972 54.5771 84.148 54.2811 84.452C53.9931 84.748 53.8491 85.156 53.8491 85.676V88.58C53.8491 88.74 53.8051 88.864 53.7171 88.952C53.6371 89.04 53.5171 89.084 53.3571 89.084ZM59.5196 89.108C58.9516 89.108 58.4596 88.984 58.0436 88.736C57.6276 88.488 57.3036 88.14 57.0716 87.692C56.8476 87.236 56.7356 86.7 56.7356 86.084C56.7356 85.62 56.7996 85.204 56.9276 84.836C57.0556 84.46 57.2436 84.14 57.4916 83.876C57.7396 83.612 58.0316 83.412 58.3676 83.276C58.7116 83.132 59.0956 83.06 59.5196 83.06C60.0876 83.06 60.5796 83.184 60.9956 83.432C61.4116 83.68 61.7316 84.032 61.9556 84.488C62.1876 84.936 62.3036 85.468 62.3036 86.084C62.3036 86.548 62.2396 86.964 62.1116 87.332C61.9836 87.7 61.7956 88.02 61.5476 88.292C61.2996 88.556 61.0036 88.76 60.6596 88.904C60.3236 89.04 59.9436 89.108 59.5196 89.108ZM59.5196 88.328C59.8796 88.328 60.1956 88.24 60.4676 88.064C60.7396 87.888 60.9476 87.632 61.0916 87.296C61.2436 86.96 61.3196 86.556 61.3196 86.084C61.3196 85.356 61.1556 84.8 60.8276 84.416C60.5076 84.032 60.0716 83.84 59.5196 83.84C59.1516 83.84 58.8316 83.928 58.5596 84.104C58.2956 84.272 58.0876 84.524 57.9356 84.86C57.7916 85.188 57.7196 85.596 57.7196 86.084C57.7196 86.804 57.8836 87.36 58.2116 87.752C58.5396 88.136 58.9756 88.328 59.5196 88.328Z" fill="#F9FAFB"/>
<g clip-path="url(#clip0_576_10463)">
<path fill-rule="evenodd" clip-rule="evenodd" d="M61.1518 48.9141C56.1336 43.0318 47.2971 42.3312 41.4147 47.3494C35.5324 52.3675 34.8318 61.2041 39.85 67.0864C44.8681 72.9687 53.7047 73.6693 59.587 68.6512C65.4694 63.633 66.17 54.7964 61.1518 48.9141ZM54.1769 56.2622C54.7165 56.2622 55.061 56.8469 54.7903 57.3136L54.7124 57.4478L49.4289 66.1406C49.3307 66.3021 49.1553 66.4007 48.9663 66.4007H48.462C48.1164 66.4007 47.8637 66.0744 47.9503 65.7398L49.384 60.1969C49.4986 59.7537 49.164 59.3216 48.7063 59.3216H46.5042C46.0464 59.3216 45.7119 58.8896 45.8264 58.4464L47.9898 50.078C48.0685 49.7964 48.3235 49.5981 48.6159 49.6015C48.6513 49.6019 48.6834 49.6024 48.7101 49.6033L50.9278 49.6033C51.3521 49.6031 51.679 49.9773 51.6218 50.3976L51.6081 50.4977L50.7624 55.4443C50.6893 55.8719 51.0186 56.2622 51.4524 56.2622H54.1769Z" fill="url(#paint0_radial_576_10463)"/>
<path fill-rule="evenodd" clip-rule="evenodd" d="M61.1518 48.9141C56.1336 43.0318 47.2971 42.3312 41.4147 47.3494C35.5324 52.3675 34.8318 61.2041 39.85 67.0864C44.8681 72.9687 53.7047 73.6693 59.587 68.6512C65.4694 63.633 66.17 54.7964 61.1518 48.9141ZM54.1769 56.2622C54.7165 56.2622 55.061 56.8469 54.7903 57.3136L54.7124 57.4478L49.4289 66.1406C49.3307 66.3021 49.1553 66.4007 48.9663 66.4007H48.462C48.1164 66.4007 47.8637 66.0744 47.9503 65.7398L49.384 60.1969C49.4986 59.7537 49.164 59.3216 48.7063 59.3216H46.5042C46.0464 59.3216 45.7119 58.8896 45.8264 58.4464L47.9898 50.078C48.0685 49.7964 48.3235 49.5981 48.6159 49.6015C48.6513 49.6019 48.6834 49.6024 48.7101 49.6033L50.9278 49.6033C51.3521 49.6031 51.679 49.9773 51.6218 50.3976L51.6081 50.4977L50.7624 55.4443C50.6893 55.8719 51.0186 56.2622 51.4524 56.2622H54.1769Z" fill="url(#paint1_radial_576_10463)"/>
<mask id="mask0_576_10463" style="mask-type:alpha" maskUnits="userSpaceOnUse" x="36" y="44" width="29" height="29">
<path d="M50.5 72.001C58.232 72.001 64.5 65.733 64.5 58.001C64.5 50.269 58.232 44.001 50.5 44.001C42.768 44.001 36.5 50.269 36.5 58.001C36.5 65.733 42.768 72.001 50.5 72.001Z" fill="url(#paint2_radial_576_10463)"/>
</mask>
<g mask="url(#mask0_576_10463)">
<g filter="url(#filter0_f_576_10463)">
<path d="M37.278 53.3987C36.5492 55.4925 36.3281 57.7295 36.6329 59.9255C36.9378 62.1215 37.7598 64.2138 39.0313 66.03C40.3028 67.8461 41.9875 69.3344 43.9467 70.3722C45.9058 71.41 48.0835 71.9677 50.3003 71.9993C52.5171 72.0309 54.7097 71.5356 56.6977 70.5541C58.6857 69.5727 60.4121 68.1331 61.735 66.3539C63.0578 64.5747 63.9392 62.5068 64.3065 60.3204C64.6738 58.134 64.5167 55.8915 63.8479 53.7777L59.7772 55.0656C60.242 56.5348 60.3512 58.0933 60.096 59.6129C59.8407 61.1326 59.2281 62.5698 58.3086 63.8064C57.3893 65.043 56.1893 66.0436 54.8076 66.7257C53.4259 67.4079 51.902 67.7521 50.3612 67.7301C48.8204 67.7082 47.3069 67.3206 45.9452 66.5993C44.5835 65.878 43.4126 64.8436 42.5289 63.5813C41.6451 62.3189 41.0738 60.8648 40.862 59.3385C40.6501 57.8122 40.8038 56.2574 41.3103 54.8021L37.278 53.3987Z" fill="white"/>
</g>
</g>
</g>
<defs>
<filter id="filter0_f_576_10463" x="26.5" y="43.3987" width="48" height="38.602" filterUnits="userSpaceOnUse" color-interpolation-filters="sRGB">
<feFlood flood-opacity="0" result="BackgroundImageFix"/>
<feBlend mode="normal" in="SourceGraphic" in2="BackgroundImageFix" result="shape"/>
<feGaussianBlur stdDeviation="5" result="effect1_foregroundBlur_576_10463"/>
</filter>
<radialGradient id="paint0_radial_576_10463" cx="0" cy="0" r="1" gradientUnits="userSpaceOnUse" gradientTransform="translate(39.3007 58.0003) scale(27.3005 278.397)">
<stop stop-color="#31B2F3"/>
<stop offset="0.473958" stop-color="#F27CEC"/>
<stop offset="1" stop-color="#FD6641"/>
</radialGradient>
<radialGradient id="paint1_radial_576_10463" cx="0" cy="0" r="1" gradientUnits="userSpaceOnUse" gradientTransform="translate(39.3007 58.0003) scale(27.3005 278.397)">
<stop stop-color="#31B2F3"/>
<stop offset="0.473958" stop-color="#F27CEC"/>
<stop offset="1" stop-color="#FD6641"/>
</radialGradient>
<radialGradient id="paint2_radial_576_10463" cx="0" cy="0" r="1" gradientUnits="userSpaceOnUse" gradientTransform="translate(39.3 58.0011) scale(27.3 278.392)">
<stop stop-color="#F27CEC"/>
<stop offset="0.484375" stop-color="#31B2F3"/>
<stop offset="1" stop-color="#7D7573"/>
</radialGradient>
<clipPath id="clip0_576_10463">
<rect width="28" height="28" fill="white" transform="translate(36.5 44)"/>
</clipPath>
</defs>
</svg>
