<svg width="137" height="100" viewBox="0 0 137 100" fill="none" xmlns="http://www.w3.org/2000/svg">
<mask id="path-1-inside-1_673_8959" fill="white">
<path fill-rule="evenodd" clip-rule="evenodd" d="M87.5 0C86.9477 0 86.5029 0.448498 86.4727 0.999957C85.9538 10.476 78.1056 18 68.5 18C58.8944 18 51.0462 10.476 50.5273 0.999956C50.4971 0.448497 50.0523 0 49.5 0L22.5 0C20.2909 0 18.5 1.79086 18.5 4L18.5 31C18.5 31.5523 18.0515 31.9971 17.5 32.0273C8.02403 32.5462 0.5 40.3944 0.5 50C0.5 59.6056 8.02403 67.4538 17.5 67.9727C18.0515 68.0029 18.5 68.4477 18.5 69L18.5 96C18.5 98.2091 20.2909 100 22.5 100L49.5 100C50.0523 100 50.4971 99.5515 50.5273 99C51.0462 89.524 58.8944 82 68.5 82C78.1056 82 85.9538 89.524 86.4727 99C86.5029 99.5515 86.9477 100 87.5 100L114.5 100C116.709 100 118.5 98.2091 118.5 96L118.5 69C118.5 68.4477 118.948 68.0029 119.5 67.9727C128.976 67.4538 136.5 59.6056 136.5 50C136.5 40.3944 128.976 32.5462 119.5 32.0273C118.948 31.9971 118.5 31.5523 118.5 31L118.5 4C118.5 1.79086 116.709 0 114.5 0L87.5 0Z"/>
</mask>
<path fill-rule="evenodd" clip-rule="evenodd" d="M87.5 0C86.9477 0 86.5029 0.448498 86.4727 0.999957C85.9538 10.476 78.1056 18 68.5 18C58.8944 18 51.0462 10.476 50.5273 0.999956C50.4971 0.448497 50.0523 0 49.5 0L22.5 0C20.2909 0 18.5 1.79086 18.5 4L18.5 31C18.5 31.5523 18.0515 31.9971 17.5 32.0273C8.02403 32.5462 0.5 40.3944 0.5 50C0.5 59.6056 8.02403 67.4538 17.5 67.9727C18.0515 68.0029 18.5 68.4477 18.5 69L18.5 96C18.5 98.2091 20.2909 100 22.5 100L49.5 100C50.0523 100 50.4971 99.5515 50.5273 99C51.0462 89.524 58.8944 82 68.5 82C78.1056 82 85.9538 89.524 86.4727 99C86.5029 99.5515 86.9477 100 87.5 100L114.5 100C116.709 100 118.5 98.2091 118.5 96L118.5 69C118.5 68.4477 118.948 68.0029 119.5 67.9727C128.976 67.4538 136.5 59.6056 136.5 50C136.5 40.3944 128.976 32.5462 119.5 32.0273C118.948 31.9971 118.5 31.5523 118.5 31L118.5 4C118.5 1.79086 116.709 0 114.5 0L87.5 0Z" fill="#374151" fill-opacity="0.4"/>
<path d="M18.5 4L17.5 4L17.5 4L18.5 4ZM18.5 96L17.5 96V96H18.5ZM114.5 100V101V100ZM119.5 32.0273L119.555 31.0288L119.5 32.0273ZM119.5 67.9727L119.555 68.9712L119.5 67.9727ZM50.5273 99L49.5288 98.9454L50.5273 99ZM18.5 31L17.5 31L18.5 31ZM17.5 32.0273L17.4454 31.0288L17.5 32.0273ZM17.5 67.9727L17.4454 68.9712L17.5 67.9727ZM18.5 69L17.5 69L18.5 69ZM50.5273 0.999956L49.5288 1.05463L50.5273 0.999956ZM86.4727 99L85.4742 99.0547L86.4727 99ZM87.5 100V99V100ZM86.4727 0.999957L85.4742 0.945284L86.4727 0.999957ZM68.5 19C78.6396 19 86.9235 11.058 87.4712 1.05463L85.4742 0.945284C84.9842 9.89397 77.5716 17 68.5 17V19ZM49.5288 1.05463C50.0765 11.058 58.3604 19 68.5 19V17C59.4284 17 52.0158 9.89397 51.5258 0.945282L49.5288 1.05463ZM22.5 1L49.5 1V-1L22.5 -1V1ZM19.5 4C19.5 2.34315 20.8431 1 22.5 1V-1C19.7386 -1 17.5 1.23858 17.5 4L19.5 4ZM19.5 31L19.5 4L17.5 4L17.5 31L19.5 31ZM1.5 50C1.5 40.9284 8.60603 33.5158 17.5547 33.0258L17.4454 31.0288C7.44204 31.5765 -0.5 39.8604 -0.5 50H1.5ZM17.5547 66.9742C8.60603 66.4842 1.5 59.0716 1.5 50H-0.5C-0.5 60.1396 7.44204 68.4235 17.4454 68.9712L17.5547 66.9742ZM19.5 96L19.5 69L17.5 69L17.5 96L19.5 96ZM22.5 99C20.8431 99 19.5 97.6569 19.5 96H17.5C17.5 98.7614 19.7386 101 22.5 101L22.5 99ZM49.5 99L22.5 99L22.5 101L49.5 101V99ZM68.5 81C58.3604 81 50.0765 88.942 49.5288 98.9454L51.5258 99.0547C52.0158 90.106 59.4284 83 68.5 83V81ZM87.4712 98.9454C86.9235 88.942 78.6396 81 68.5 81V83C77.5716 83 84.9842 90.106 85.4742 99.0547L87.4712 98.9454ZM114.5 99L87.5 99V101L114.5 101V99ZM117.5 96C117.5 97.6569 116.157 99 114.5 99V101C117.261 101 119.5 98.7614 119.5 96H117.5ZM117.5 69L117.5 96H119.5L119.5 69H117.5ZM135.5 50C135.5 59.0716 128.394 66.4842 119.445 66.9742L119.555 68.9712C129.558 68.4235 137.5 60.1396 137.5 50H135.5ZM119.445 33.0258C128.394 33.5158 135.5 40.9284 135.5 50H137.5C137.5 39.8604 129.558 31.5765 119.555 31.0288L119.445 33.0258ZM117.5 4L117.5 31H119.5L119.5 4H117.5ZM114.5 1C116.157 1 117.5 2.34315 117.5 4H119.5C119.5 1.23858 117.261 -1 114.5 -1V1ZM87.5 1L114.5 1V-1L87.5 -1V1ZM119.555 31.0288C119.533 31.0276 119.516 31.0187 119.506 31.0081C119.501 31.0033 119.5 31.0001 119.5 30.9999C119.5 30.9998 119.5 31.0001 119.5 31.0007C119.5 31.0012 119.5 31.0012 119.5 31H117.5C117.5 32.1183 118.399 32.9685 119.445 33.0258L119.555 31.0288ZM119.5 69C119.5 68.9988 119.5 68.9988 119.5 68.9994C119.5 68.9999 119.5 69.0002 119.5 69.0001C119.5 68.9999 119.501 68.9967 119.506 68.9919C119.516 68.9813 119.533 68.9724 119.555 68.9712L119.445 66.9742C118.399 67.0315 117.5 67.8817 117.5 69H119.5ZM49.5 101C50.6183 101 51.4685 100.101 51.5258 99.0547L49.5288 98.9454C49.5276 98.9666 49.5187 98.9836 49.5081 98.994C49.5033 98.9987 49.5001 99.0002 49.4999 99.0002C49.4998 99.0003 49.5001 99.0001 49.5006 99C49.5012 98.9999 49.5012 99 49.5 99V101ZM17.5 31C17.5 31.0012 17.4999 31.0012 17.5 31.0006C17.5001 31.0001 17.5003 30.9998 17.5002 30.9999C17.5002 31.0001 17.4987 31.0033 17.494 31.0081C17.4836 31.0187 17.4666 31.0276 17.4454 31.0288L17.5547 33.0258C18.6008 32.9685 19.5 32.1183 19.5 31L17.5 31ZM17.4454 68.9712C17.4667 68.9724 17.4836 68.9813 17.494 68.9919C17.4987 68.9967 17.5002 68.9999 17.5002 69.0001C17.5003 69.0002 17.5001 68.9999 17.5 68.9993C17.4999 68.9988 17.5 68.9988 17.5 69L19.5 69C19.5 67.8817 18.6008 67.0315 17.5547 66.9742L17.4454 68.9712ZM51.5258 0.945282C51.4685 -0.100789 50.6183 -1 49.5 -1V1C49.5012 1 49.5012 1.0001 49.5007 0.999977C49.5001 0.999868 49.4998 0.999738 49.4999 0.999766C49.5001 0.999846 49.5033 1.00127 49.5081 1.006C49.5187 1.0164 49.5276 1.03335 49.5288 1.05463L51.5258 0.945282ZM85.4742 99.0547C85.5315 100.101 86.3817 101 87.5 101V99C87.4988 99 87.4988 98.9999 87.4993 99C87.4999 99.0001 87.5002 99.0003 87.5001 99.0002C87.4999 99.0002 87.4967 98.9987 87.4919 98.994C87.4813 98.9836 87.4724 98.9667 87.4712 98.9454L85.4742 99.0547ZM87.4712 1.05463C87.4724 1.03335 87.4813 1.0164 87.4919 1.006C87.4967 1.00127 87.4999 0.999846 87.5001 0.999766C87.5002 0.999738 87.4999 0.999868 87.4994 0.999977C87.4988 1.0001 87.4988 1 87.5 1V-1C86.3817 -1 85.5315 -0.100786 85.4742 0.945284L87.4712 1.05463Z" fill="#374151" mask="url(#path-1-inside-1_673_8959)"/>
<path d="M21.5815 71.084C21.4215 71.084 21.3015 71.04 21.2215 70.952C21.1415 70.864 21.1015 70.74 21.1015 70.58V65.576C21.1015 65.416 21.1415 65.296 21.2215 65.216C21.3015 65.128 21.4175 65.084 21.5695 65.084C21.7215 65.084 21.8375 65.128 21.9175 65.216C22.0055 65.296 22.0495 65.416 22.0495 65.576V66.608L21.9175 66.464C22.0855 66 22.3575 65.652 22.7335 65.42C23.1175 65.18 23.5575 65.06 24.0535 65.06C24.5175 65.06 24.9015 65.144 25.2055 65.312C25.5175 65.48 25.7495 65.736 25.9015 66.08C26.0535 66.416 26.1295 66.844 26.1295 67.364V70.58C26.1295 70.74 26.0855 70.864 25.9975 70.952C25.9175 71.04 25.8015 71.084 25.6495 71.084C25.4895 71.084 25.3655 71.04 25.2775 70.952C25.1975 70.864 25.1575 70.74 25.1575 70.58V67.424C25.1575 66.88 25.0495 66.484 24.8335 66.236C24.6255 65.98 24.2895 65.852 23.8255 65.852C23.2895 65.852 22.8615 66.02 22.5415 66.356C22.2295 66.684 22.0735 67.124 22.0735 67.676V70.58C22.0735 70.916 21.9095 71.084 21.5815 71.084ZM30.3458 71.108C29.7778 71.108 29.2858 70.984 28.8698 70.736C28.4538 70.488 28.1298 70.14 27.8978 69.692C27.6738 69.236 27.5618 68.7 27.5618 68.084C27.5618 67.62 27.6258 67.204 27.7538 66.836C27.8818 66.46 28.0698 66.14 28.3178 65.876C28.5658 65.612 28.8578 65.412 29.1938 65.276C29.5378 65.132 29.9218 65.06 30.3458 65.06C30.9138 65.06 31.4058 65.184 31.8218 65.432C32.2378 65.68 32.5578 66.032 32.7818 66.488C33.0138 66.936 33.1298 67.468 33.1298 68.084C33.1298 68.548 33.0658 68.964 32.9378 69.332C32.8098 69.7 32.6218 70.02 32.3738 70.292C32.1258 70.556 31.8298 70.76 31.4858 70.904C31.1498 71.04 30.7698 71.108 30.3458 71.108ZM30.3458 70.328C30.7058 70.328 31.0218 70.24 31.2938 70.064C31.5658 69.888 31.7738 69.632 31.9178 69.296C32.0698 68.96 32.1458 68.556 32.1458 68.084C32.1458 67.356 31.9818 66.8 31.6538 66.416C31.3338 66.032 30.8978 65.84 30.3458 65.84C29.9778 65.84 29.6578 65.928 29.3858 66.104C29.1218 66.272 28.9138 66.524 28.7618 66.86C28.6178 67.188 28.5458 67.596 28.5458 68.084C28.5458 68.804 28.7098 69.36 29.0378 69.752C29.3658 70.136 29.8018 70.328 30.3458 70.328ZM36.8097 71.108C36.2897 71.108 35.8337 70.984 35.4417 70.736C35.0577 70.488 34.7577 70.14 34.5417 69.692C34.3337 69.236 34.2297 68.7 34.2297 68.084C34.2297 67.46 34.3337 66.924 34.5417 66.476C34.7577 66.02 35.0577 65.672 35.4417 65.432C35.8337 65.184 36.2897 65.06 36.8097 65.06C37.3377 65.06 37.7897 65.192 38.1657 65.456C38.5417 65.72 38.7937 66.076 38.9217 66.524H38.7897V62.948C38.7897 62.788 38.8297 62.668 38.9097 62.588C38.9977 62.5 39.1217 62.456 39.2817 62.456C39.4337 62.456 39.5497 62.5 39.6297 62.588C39.7177 62.668 39.7617 62.788 39.7617 62.948V70.58C39.7617 70.74 39.7217 70.864 39.6417 70.952C39.5617 71.04 39.4417 71.084 39.2817 71.084C39.1297 71.084 39.0097 71.04 38.9217 70.952C38.8417 70.864 38.8017 70.74 38.8017 70.58V69.44L38.9337 69.608C38.8057 70.064 38.5497 70.428 38.1657 70.7C37.7897 70.972 37.3377 71.108 36.8097 71.108ZM37.0137 70.328C37.3737 70.328 37.6897 70.24 37.9617 70.064C38.2337 69.888 38.4417 69.632 38.5857 69.296C38.7377 68.96 38.8137 68.556 38.8137 68.084C38.8137 67.356 38.6497 66.8 38.3217 66.416C38.0017 66.032 37.5657 65.84 37.0137 65.84C36.6457 65.84 36.3257 65.928 36.0537 66.104C35.7897 66.272 35.5817 66.524 35.4297 66.86C35.2857 67.188 35.2137 67.596 35.2137 68.084C35.2137 68.804 35.3777 69.36 35.7057 69.752C36.0337 70.136 36.4697 70.328 37.0137 70.328ZM44.2138 71.108C43.5978 71.108 43.0658 70.988 42.6178 70.748C42.1778 70.5 41.8338 70.152 41.5858 69.704C41.3458 69.256 41.2258 68.72 41.2258 68.096C41.2258 67.488 41.3458 66.96 41.5858 66.512C41.8258 66.056 42.1538 65.7 42.5698 65.444C42.9938 65.188 43.4818 65.06 44.0338 65.06C44.4258 65.06 44.7778 65.128 45.0898 65.264C45.4018 65.392 45.6658 65.58 45.8818 65.828C46.1058 66.076 46.2738 66.376 46.3858 66.728C46.5058 67.08 46.5658 67.476 46.5658 67.916C46.5658 68.044 46.5298 68.14 46.4578 68.204C46.3858 68.26 46.2818 68.288 46.1458 68.288H41.9698V67.652H45.9178L45.7258 67.808C45.7258 67.376 45.6618 67.012 45.5338 66.716C45.4058 66.412 45.2178 66.18 44.9698 66.02C44.7298 65.86 44.4258 65.78 44.0578 65.78C43.6498 65.78 43.3018 65.876 43.0138 66.068C42.7338 66.252 42.5218 66.512 42.3778 66.848C42.2338 67.176 42.1618 67.56 42.1618 68V68.072C42.1618 68.808 42.3378 69.368 42.6898 69.752C43.0498 70.136 43.5578 70.328 44.2138 70.328C44.4858 70.328 44.7538 70.292 45.0178 70.22C45.2898 70.148 45.5538 70.028 45.8098 69.86C45.9218 69.788 46.0218 69.756 46.1098 69.764C46.2058 69.764 46.2818 69.792 46.3378 69.848C46.3938 69.896 46.4298 69.96 46.4458 70.04C46.4698 70.112 46.4618 70.192 46.4218 70.28C46.3898 70.368 46.3218 70.444 46.2178 70.508C45.9538 70.7 45.6418 70.848 45.2818 70.952C44.9218 71.056 44.5658 71.108 44.2138 71.108ZM48.3895 68.204C48.2695 68.204 48.1695 68.168 48.0895 68.096C48.0095 68.016 47.9695 67.92 47.9695 67.808C47.9695 67.688 48.0095 67.592 48.0895 67.52C48.1695 67.44 48.2695 67.4 48.3895 67.4H51.0895C51.2015 67.4 51.2975 67.44 51.3775 67.52C51.4575 67.592 51.4975 67.688 51.4975 67.808C51.4975 67.92 51.4575 68.016 51.3775 68.096C51.2975 68.168 51.2015 68.204 51.0895 68.204H48.3895ZM53.9794 71.084C53.8274 71.084 53.7074 71.04 53.6194 70.952C53.5394 70.864 53.4994 70.74 53.4994 70.58V65.924H52.7314C52.6034 65.924 52.4994 65.892 52.4194 65.828C52.3474 65.756 52.3114 65.66 52.3114 65.54C52.3114 65.42 52.3474 65.328 52.4194 65.264C52.4994 65.2 52.6034 65.168 52.7314 65.168H53.7634L53.4994 65.42V64.964C53.4994 64.204 53.6834 63.624 54.0514 63.224C54.4274 62.824 54.9754 62.592 55.6954 62.528L56.0434 62.492C56.1554 62.484 56.2434 62.504 56.3074 62.552C56.3794 62.6 56.4234 62.66 56.4394 62.732C56.4634 62.804 56.4674 62.88 56.4514 62.96C56.4354 63.032 56.3994 63.096 56.3434 63.152C56.2874 63.208 56.2194 63.24 56.1394 63.248L55.8634 63.272C55.3754 63.312 55.0194 63.46 54.7954 63.716C54.5794 63.972 54.4714 64.348 54.4714 64.844V65.348L54.3274 65.168H55.7674C55.9034 65.168 56.0074 65.2 56.0794 65.264C56.1514 65.328 56.1874 65.42 56.1874 65.54C56.1874 65.66 56.1514 65.756 56.0794 65.828C56.0074 65.892 55.9034 65.924 55.7674 65.924H54.4714V70.58C54.4714 70.916 54.3074 71.084 53.9794 71.084ZM59.6474 71.108C59.0314 71.108 58.4994 70.988 58.0514 70.748C57.6114 70.5 57.2674 70.152 57.0194 69.704C56.7794 69.256 56.6594 68.72 56.6594 68.096C56.6594 67.488 56.7794 66.96 57.0194 66.512C57.2594 66.056 57.5874 65.7 58.0034 65.444C58.4274 65.188 58.9154 65.06 59.4674 65.06C59.8594 65.06 60.2114 65.128 60.5234 65.264C60.8354 65.392 61.0994 65.58 61.3154 65.828C61.5394 66.076 61.7074 66.376 61.8194 66.728C61.9394 67.08 61.9994 67.476 61.9994 67.916C61.9994 68.044 61.9634 68.14 61.8914 68.204C61.8194 68.26 61.7154 68.288 61.5794 68.288H57.4034V67.652H61.3514L61.1594 67.808C61.1594 67.376 61.0954 67.012 60.9674 66.716C60.8394 66.412 60.6514 66.18 60.4034 66.02C60.1634 65.86 59.8594 65.78 59.4914 65.78C59.0834 65.78 58.7354 65.876 58.4474 66.068C58.1674 66.252 57.9554 66.512 57.8114 66.848C57.6674 67.176 57.5954 67.56 57.5954 68V68.072C57.5954 68.808 57.7714 69.368 58.1234 69.752C58.4834 70.136 58.9914 70.328 59.6474 70.328C59.9194 70.328 60.1874 70.292 60.4514 70.22C60.7234 70.148 60.9874 70.028 61.2434 69.86C61.3554 69.788 61.4554 69.756 61.5434 69.764C61.6394 69.764 61.7154 69.792 61.7714 69.848C61.8274 69.896 61.8634 69.96 61.8794 70.04C61.9034 70.112 61.8954 70.192 61.8554 70.28C61.8234 70.368 61.7554 70.444 61.6514 70.508C61.3874 70.7 61.0754 70.848 60.7154 70.952C60.3554 71.056 59.9994 71.108 59.6474 71.108ZM65.7461 71.108C65.2901 71.108 64.9061 71.028 64.5941 70.868C64.2901 70.7 64.0621 70.46 63.9101 70.148C63.7581 69.828 63.6821 69.44 63.6821 68.984V65.924H62.8781C62.7421 65.924 62.6381 65.892 62.5661 65.828C62.4941 65.756 62.4581 65.66 62.4581 65.54C62.4581 65.42 62.4941 65.328 62.5661 65.264C62.6381 65.2 62.7421 65.168 62.8781 65.168H63.6821V63.788C63.6821 63.628 63.7261 63.508 63.8141 63.428C63.9021 63.34 64.0221 63.296 64.1741 63.296C64.3261 63.296 64.4421 63.34 64.5221 63.428C64.6101 63.508 64.6541 63.628 64.6541 63.788V65.168H66.1661C66.3021 65.168 66.4061 65.2 66.4781 65.264C66.5501 65.328 66.5861 65.42 66.5861 65.54C66.5861 65.66 66.5501 65.756 66.4781 65.828C66.4061 65.892 66.3021 65.924 66.1661 65.924H64.6541V68.888C64.6541 69.344 64.7501 69.692 64.9421 69.932C65.1341 70.164 65.4461 70.28 65.8781 70.28C66.0301 70.28 66.1581 70.264 66.2621 70.232C66.3741 70.2 66.4661 70.184 66.5381 70.184C66.6101 70.176 66.6701 70.2 66.7181 70.256C66.7661 70.312 66.7901 70.408 66.7901 70.544C66.7901 70.64 66.7701 70.728 66.7301 70.808C66.6981 70.888 66.6381 70.944 66.5501 70.976C66.4541 71.008 66.3261 71.036 66.1661 71.06C66.0141 71.092 65.8741 71.108 65.7461 71.108ZM70.0149 71.108C69.4309 71.108 68.9269 70.98 68.5029 70.724C68.0789 70.468 67.7509 70.112 67.5189 69.656C67.2949 69.192 67.1829 68.656 67.1829 68.048C67.1829 67.584 67.2469 67.168 67.3749 66.8C67.5029 66.432 67.6909 66.12 67.9389 65.864C68.1869 65.6 68.4829 65.4 68.8269 65.264C69.1789 65.128 69.5749 65.06 70.0149 65.06C70.3029 65.06 70.6029 65.104 70.9149 65.192C71.2269 65.28 71.5109 65.432 71.7669 65.648C71.8469 65.704 71.8989 65.772 71.9229 65.852C71.9469 65.932 71.9469 66.012 71.9229 66.092C71.8989 66.164 71.8589 66.228 71.8029 66.284C71.7469 66.332 71.6749 66.36 71.5869 66.368C71.5069 66.376 71.4229 66.348 71.3349 66.284C71.1269 66.124 70.9149 66.012 70.6989 65.948C70.4829 65.884 70.2749 65.852 70.0749 65.852C69.7629 65.852 69.4909 65.904 69.2589 66.008C69.0269 66.104 68.8309 66.244 68.6709 66.428C68.5109 66.612 68.3869 66.84 68.2989 67.112C68.2189 67.384 68.1789 67.7 68.1789 68.06C68.1789 68.756 68.3429 69.308 68.6709 69.716C68.9989 70.116 69.4669 70.316 70.0749 70.316C70.2749 70.316 70.4789 70.284 70.6869 70.22C70.9029 70.156 71.1189 70.044 71.3349 69.884C71.4229 69.82 71.5069 69.792 71.5869 69.8C71.6669 69.808 71.7349 69.84 71.7909 69.896C71.8469 69.944 71.8829 70.008 71.8989 70.088C71.9229 70.168 71.9229 70.248 71.8989 70.328C71.8749 70.4 71.8229 70.464 71.7429 70.52C71.4869 70.728 71.2069 70.88 70.9029 70.976C70.5989 71.064 70.3029 71.108 70.0149 71.108ZM73.5775 71.084C73.4175 71.084 73.2975 71.04 73.2175 70.952C73.1375 70.864 73.0975 70.74 73.0975 70.58V62.948C73.0975 62.788 73.1375 62.668 73.2175 62.588C73.2975 62.5 73.4175 62.456 73.5775 62.456C73.7295 62.456 73.8495 62.5 73.9375 62.588C74.0255 62.668 74.0695 62.788 74.0695 62.948V66.464H73.9135C74.0815 66 74.3535 65.652 74.7295 65.42C75.1135 65.18 75.5535 65.06 76.0495 65.06C76.5135 65.06 76.8975 65.144 77.2015 65.312C77.5135 65.48 77.7455 65.736 77.8975 66.08C78.0495 66.416 78.1255 66.844 78.1255 67.364V70.58C78.1255 70.74 78.0815 70.864 77.9935 70.952C77.9135 71.04 77.7975 71.084 77.6455 71.084C77.4855 71.084 77.3615 71.04 77.2735 70.952C77.1935 70.864 77.1535 70.74 77.1535 70.58V67.424C77.1535 66.88 77.0455 66.484 76.8295 66.236C76.6215 65.98 76.2855 65.852 75.8215 65.852C75.2855 65.852 74.8575 66.02 74.5375 66.356C74.2255 66.684 74.0695 67.124 74.0695 67.676V70.58C74.0695 70.916 73.9055 71.084 73.5775 71.084ZM80.2059 68.204C80.0859 68.204 79.9859 68.168 79.9059 68.096C79.8259 68.016 79.7859 67.92 79.7859 67.808C79.7859 67.688 79.8259 67.592 79.9059 67.52C79.9859 67.44 80.0859 67.4 80.2059 67.4H82.9059C83.0179 67.4 83.1139 67.44 83.1939 67.52C83.2739 67.592 83.3139 67.688 83.3139 67.808C83.3139 67.92 83.2739 68.016 83.1939 68.096C83.1139 68.168 83.0179 68.204 82.9059 68.204H80.2059ZM85.4838 71.084C85.3238 71.084 85.2038 71.04 85.1238 70.952C85.0438 70.864 85.0038 70.74 85.0038 70.58V65.576C85.0038 65.416 85.0438 65.296 85.1238 65.216C85.2038 65.128 85.3198 65.084 85.4718 65.084C85.6238 65.084 85.7398 65.128 85.8198 65.216C85.9078 65.296 85.9518 65.416 85.9518 65.576V66.608L85.8198 66.464C85.9878 66 86.2598 65.652 86.6358 65.42C87.0198 65.18 87.4598 65.06 87.9558 65.06C88.4198 65.06 88.8038 65.144 89.1078 65.312C89.4198 65.48 89.6518 65.736 89.8038 66.08C89.9558 66.416 90.0318 66.844 90.0318 67.364V70.58C90.0318 70.74 89.9878 70.864 89.8998 70.952C89.8198 71.04 89.7038 71.084 89.5518 71.084C89.3918 71.084 89.2678 71.04 89.1798 70.952C89.0998 70.864 89.0598 70.74 89.0598 70.58V67.424C89.0598 66.88 88.9518 66.484 88.7358 66.236C88.5278 65.98 88.1918 65.852 87.7278 65.852C87.1918 65.852 86.7638 66.02 86.4438 66.356C86.1318 66.684 85.9758 67.124 85.9758 67.676V70.58C85.9758 70.916 85.8118 71.084 85.4838 71.084ZM93.6601 71.108C93.2601 71.108 92.9001 71.032 92.5801 70.88C92.2681 70.72 92.0201 70.504 91.8361 70.232C91.6521 69.96 91.5601 69.656 91.5601 69.32C91.5601 68.888 91.6681 68.548 91.8841 68.3C92.1081 68.052 92.4721 67.876 92.9761 67.772C93.4881 67.668 94.1841 67.616 95.0641 67.616H95.6041V68.252H95.0761C94.4281 68.252 93.9161 68.284 93.5401 68.348C93.1721 68.404 92.9121 68.504 92.7601 68.648C92.6161 68.792 92.5441 68.996 92.5441 69.26C92.5441 69.588 92.6561 69.856 92.8801 70.064C93.1121 70.272 93.4241 70.376 93.8161 70.376C94.1361 70.376 94.4161 70.3 94.6561 70.148C94.9041 69.996 95.0961 69.788 95.2321 69.524C95.3761 69.26 95.4481 68.956 95.4481 68.612V67.244C95.4481 66.748 95.3481 66.392 95.1481 66.176C94.9481 65.952 94.6201 65.84 94.1641 65.84C93.8841 65.84 93.6041 65.876 93.3241 65.948C93.0441 66.02 92.7481 66.136 92.4361 66.296C92.3241 66.352 92.2281 66.372 92.1481 66.356C92.0681 66.332 92.0041 66.288 91.9561 66.224C91.9081 66.16 91.8801 66.088 91.8721 66.008C91.8641 65.92 91.8801 65.836 91.9201 65.756C91.9681 65.676 92.0401 65.612 92.1361 65.564C92.4881 65.388 92.8361 65.26 93.1801 65.18C93.5241 65.1 93.8521 65.06 94.1641 65.06C94.6681 65.06 95.0841 65.144 95.4121 65.312C95.7401 65.472 95.9841 65.72 96.1441 66.056C96.3041 66.384 96.3841 66.808 96.3841 67.328V70.58C96.3841 70.74 96.3441 70.864 96.2641 70.952C96.1921 71.04 96.0841 71.084 95.9401 71.084C95.7881 71.084 95.6721 71.04 95.5921 70.952C95.5121 70.864 95.4721 70.74 95.4721 70.58V69.644H95.5801C95.5161 69.948 95.3921 70.208 95.2081 70.424C95.0321 70.64 94.8121 70.808 94.5481 70.928C94.2841 71.048 93.9881 71.108 93.6601 71.108ZM100.527 71.108C100.071 71.108 99.6874 71.028 99.3754 70.868C99.0714 70.7 98.8434 70.46 98.6914 70.148C98.5394 69.828 98.4634 69.44 98.4634 68.984V65.924H97.6594C97.5234 65.924 97.4194 65.892 97.3474 65.828C97.2754 65.756 97.2394 65.66 97.2394 65.54C97.2394 65.42 97.2754 65.328 97.3474 65.264C97.4194 65.2 97.5234 65.168 97.6594 65.168H98.4634V63.788C98.4634 63.628 98.5074 63.508 98.5954 63.428C98.6834 63.34 98.8034 63.296 98.9554 63.296C99.1074 63.296 99.2234 63.34 99.3034 63.428C99.3914 63.508 99.4354 63.628 99.4354 63.788V65.168H100.947C101.083 65.168 101.187 65.2 101.259 65.264C101.331 65.328 101.367 65.42 101.367 65.54C101.367 65.66 101.331 65.756 101.259 65.828C101.187 65.892 101.083 65.924 100.947 65.924H99.4354V68.888C99.4354 69.344 99.5314 69.692 99.7234 69.932C99.9154 70.164 100.227 70.28 100.659 70.28C100.811 70.28 100.939 70.264 101.043 70.232C101.155 70.2 101.247 70.184 101.319 70.184C101.391 70.176 101.451 70.2 101.499 70.256C101.547 70.312 101.571 70.408 101.571 70.544C101.571 70.64 101.551 70.728 101.511 70.808C101.479 70.888 101.419 70.944 101.331 70.976C101.235 71.008 101.107 71.036 100.947 71.06C100.795 71.092 100.655 71.108 100.527 71.108ZM102.933 71.06C102.773 71.06 102.653 71.016 102.573 70.928C102.493 70.832 102.453 70.7 102.453 70.532V65.624C102.453 65.456 102.493 65.328 102.573 65.24C102.653 65.152 102.773 65.108 102.933 65.108C103.085 65.108 103.205 65.152 103.293 65.24C103.381 65.328 103.425 65.456 103.425 65.624V70.532C103.425 70.7 103.381 70.832 103.293 70.928C103.213 71.016 103.093 71.06 102.933 71.06ZM102.933 63.764C102.733 63.764 102.577 63.712 102.465 63.608C102.353 63.496 102.297 63.348 102.297 63.164C102.297 62.972 102.353 62.828 102.465 62.732C102.577 62.628 102.733 62.576 102.933 62.576C103.141 62.576 103.297 62.628 103.401 62.732C103.513 62.828 103.569 62.972 103.569 63.164C103.569 63.348 103.513 63.496 103.401 63.608C103.297 63.712 103.141 63.764 102.933 63.764ZM107.414 71.084C107.278 71.084 107.158 71.048 107.054 70.976C106.95 70.896 106.862 70.776 106.79 70.616L104.714 65.768C104.658 65.648 104.638 65.536 104.654 65.432C104.67 65.328 104.718 65.244 104.798 65.18C104.878 65.116 104.99 65.084 105.134 65.084C105.262 65.084 105.362 65.112 105.434 65.168C105.506 65.224 105.57 65.324 105.626 65.468L107.594 70.28H107.27L109.274 65.468C109.33 65.324 109.394 65.224 109.466 65.168C109.538 65.112 109.642 65.084 109.778 65.084C109.906 65.084 110.002 65.116 110.066 65.18C110.138 65.244 110.178 65.328 110.186 65.432C110.202 65.528 110.186 65.636 110.138 65.756L108.038 70.616C107.982 70.776 107.898 70.896 107.786 70.976C107.682 71.048 107.558 71.084 107.414 71.084ZM113.964 71.108C113.348 71.108 112.816 70.988 112.368 70.748C111.928 70.5 111.584 70.152 111.336 69.704C111.096 69.256 110.976 68.72 110.976 68.096C110.976 67.488 111.096 66.96 111.336 66.512C111.576 66.056 111.904 65.7 112.32 65.444C112.744 65.188 113.232 65.06 113.784 65.06C114.176 65.06 114.528 65.128 114.84 65.264C115.152 65.392 115.416 65.58 115.632 65.828C115.856 66.076 116.024 66.376 116.136 66.728C116.256 67.08 116.316 67.476 116.316 67.916C116.316 68.044 116.28 68.14 116.208 68.204C116.136 68.26 116.032 68.288 115.896 68.288H111.72V67.652H115.668L115.476 67.808C115.476 67.376 115.412 67.012 115.284 66.716C115.156 66.412 114.968 66.18 114.72 66.02C114.48 65.86 114.176 65.78 113.808 65.78C113.4 65.78 113.052 65.876 112.764 66.068C112.484 66.252 112.272 66.512 112.128 66.848C111.984 67.176 111.912 67.56 111.912 68V68.072C111.912 68.808 112.088 69.368 112.44 69.752C112.8 70.136 113.308 70.328 113.964 70.328C114.236 70.328 114.504 70.292 114.768 70.22C115.04 70.148 115.304 70.028 115.56 69.86C115.672 69.788 115.772 69.756 115.86 69.764C115.956 69.764 116.032 69.792 116.088 69.848C116.144 69.896 116.18 69.96 116.196 70.04C116.22 70.112 116.212 70.192 116.172 70.28C116.14 70.368 116.072 70.444 115.968 70.508C115.704 70.7 115.392 70.848 115.032 70.952C114.672 71.056 114.316 71.108 113.964 71.108Z" fill="#F9FAFB"/>
<path d="M68.4847 53.125C75.7334 53.125 81.6097 47.2487 81.6097 40C81.6097 32.7513 75.7334 26.875 68.4847 26.875C61.2359 26.875 55.3597 32.7513 55.3597 40C55.3597 47.2487 61.2359 53.125 68.4847 53.125Z" fill="#F2A600"/>
<path d="M67.6316 52.075C74.4091 52.075 79.9034 46.5807 79.9034 39.8031C79.9034 33.0256 74.4091 27.5312 67.6316 27.5312C60.854 27.5312 55.3597 33.0256 55.3597 39.8031C55.3597 46.5807 60.854 52.075 67.6316 52.075Z" fill="#FFCC32"/>
<path d="M59.7347 32.4969C60.7191 30.9438 62.8191 29.6531 65.0066 29.2594C65.5534 29.1719 66.1003 29.1281 66.5597 29.3031C66.9097 29.4344 67.1941 29.7625 66.9972 30.1344C66.8441 30.4406 66.4284 30.5719 66.1003 30.6813C64.0483 31.3584 62.2788 32.697 61.0691 34.4875C60.6316 35.1438 59.9753 36.9594 59.1659 36.5C58.3128 35.9969 58.4878 34.4219 59.7347 32.4969Z" fill="#FFF170"/>
</svg>
