<svg width="100" height="118" viewBox="0 0 100 118" fill="none" xmlns="http://www.w3.org/2000/svg">
<mask id="path-1-inside-1_576_10462" fill="white">
<path fill-rule="evenodd" clip-rule="evenodd" d="M50 0C59.6056 0 67.4538 7.52403 67.9727 17C68.0029 17.5515 68.4477 18 69 18L96 18C98.2091 18 100 19.7909 100 22L100 49C100 49.5523 99.5515 49.9971 99 50.0273C89.524 50.5462 82 58.3944 82 68C82 77.6056 89.524 85.4538 99 85.9727C99.5515 86.0029 100 86.4477 100 87V114C100 116.209 98.2091 118 96 118L69 118C68.4477 118 68.0029 117.551 67.9727 117C67.4538 107.524 59.6056 100 50 100C40.3944 100 32.5462 107.524 32.0273 117C31.9971 117.552 31.5523 118 31 118H4C1.79086 118 0 116.209 0 114L0 87C0 86.4477 0.448498 86.0029 0.999957 85.9727C10.476 85.4538 18 77.6056 18 68C18 58.3944 10.476 50.5462 0.999955 50.0273C0.448497 49.9971 0 49.5523 0 49L0 22C0 19.7909 1.79086 18 4 18L31 18C31.5523 18 31.9971 17.5515 32.0273 17C32.5462 7.52403 40.3944 0 50 0Z"/>
</mask>
<path fill-rule="evenodd" clip-rule="evenodd" d="M50 0C59.6056 0 67.4538 7.52403 67.9727 17C68.0029 17.5515 68.4477 18 69 18L96 18C98.2091 18 100 19.7909 100 22L100 49C100 49.5523 99.5515 49.9971 99 50.0273C89.524 50.5462 82 58.3944 82 68C82 77.6056 89.524 85.4538 99 85.9727C99.5515 86.0029 100 86.4477 100 87V114C100 116.209 98.2091 118 96 118L69 118C68.4477 118 68.0029 117.551 67.9727 117C67.4538 107.524 59.6056 100 50 100C40.3944 100 32.5462 107.524 32.0273 117C31.9971 117.552 31.5523 118 31 118H4C1.79086 118 0 116.209 0 114L0 87C0 86.4477 0.448498 86.0029 0.999957 85.9727C10.476 85.4538 18 77.6056 18 68C18 58.3944 10.476 50.5462 0.999955 50.0273C0.448497 49.9971 0 49.5523 0 49L0 22C0 19.7909 1.79086 18 4 18L31 18C31.5523 18 31.9971 17.5515 32.0273 17C32.5462 7.52403 40.3944 0 50 0Z" fill="#374151" fill-opacity="0.4"/>
<path d="M32.0273 17L33.0258 17.0547L32.0273 17ZM0.999957 85.9727L0.945284 84.9742L0.999957 85.9727ZM32.0273 117L31.0288 116.945L32.0273 117ZM99 85.9727L99.0547 84.9742L99 85.9727ZM67.9727 117L68.9712 116.945L67.9727 117ZM99 50.0273L98.9454 49.0288L99 50.0273ZM68.9712 16.9454C68.4235 6.94204 60.1396 -1 50 -1V1C59.0716 1 66.4842 8.10603 66.9742 17.0547L68.9712 16.9454ZM96 17L69 17V19L96 19V17ZM101 22C101 19.2386 98.7614 17 96 17V19C97.6569 19 99 20.3431 99 22L101 22ZM101 49L101 22L99 22L99 49H101ZM83 68C83 58.9284 90.106 51.5158 99.0547 51.0258L98.9454 49.0288C88.942 49.5765 81 57.8604 81 68H83ZM99.0547 84.9742C90.106 84.4842 83 77.0716 83 68H81C81 78.1395 88.942 86.4235 98.9454 86.9712L99.0547 84.9742ZM101 114V87H99V114H101ZM96 119C98.7614 119 101 116.761 101 114H99C99 115.657 97.6569 117 96 117V119ZM69 119L96 119V117L69 117V119ZM50 101C59.0716 101 66.4842 108.106 66.9742 117.055L68.9712 116.945C68.4235 106.942 60.1396 99 50 99V101ZM33.0258 117.055C33.5158 108.106 40.9284 101 50 101V99C39.8604 99 31.5765 106.942 31.0288 116.945L33.0258 117.055ZM4 119H31V117H4V119ZM-1 114C-1 116.761 1.23858 119 4 119V117C2.34315 117 1 115.657 1 114H-1ZM-1 87L-1 114H1L1 87H-1ZM17 68C17 77.0716 9.89398 84.4842 0.945284 84.9742L1.05463 86.9712C11.058 86.4235 19 78.1395 19 68H17ZM0.945282 51.0258C9.89397 51.5158 17 58.9284 17 68H19C19 57.8604 11.058 49.5765 1.05463 49.0288L0.945282 51.0258ZM-1 22L-1 49H1L1 22H-1ZM4 17C1.23858 17 -1 19.2386 -1 22H1C1 20.3431 2.34315 19 4 19L4 17ZM31 17L4 17L4 19L31 19V17ZM50 -1C39.8604 -1 31.5765 6.94204 31.0288 16.9454L33.0258 17.0547C33.5158 8.10602 40.9284 1 50 1V-1ZM31 19C32.1183 19 32.9685 18.1008 33.0258 17.0547L31.0288 16.9454C31.0276 16.9667 31.0187 16.9836 31.0081 16.994C31.0033 16.9987 31.0001 17.0002 30.9999 17.0002C30.9998 17.0003 31.0001 17.0001 31.0006 17C31.0012 16.9999 31.0012 17 31 17V19ZM1.05463 49.0288C1.03335 49.0276 1.0164 49.0187 1.006 49.0081C1.00127 49.0033 0.999846 49.0001 0.999766 48.9999C0.999738 48.9998 0.999868 49.0001 0.999977 49.0006C1.0001 49.0012 1 49.0012 1 49H-1C-1 50.1183 -0.100789 50.9685 0.945282 51.0258L1.05463 49.0288ZM1 87C1 86.9988 1.0001 86.9988 0.999977 86.9994C0.999868 86.9999 0.999738 87.0002 0.999766 87.0001C0.999846 86.9999 1.00127 86.9967 1.006 86.9919C1.0164 86.9813 1.03335 86.9724 1.05463 86.9712L0.945284 84.9742C-0.100786 85.0315 -1 85.8817 -1 87H1ZM66.9742 17.0547C67.0315 18.1008 67.8817 19 69 19V17C68.9988 17 68.9988 16.9999 68.9994 17C68.9999 17.0001 69.0002 17.0003 69.0001 17.0002C68.9999 17.0002 68.9967 16.9987 68.9919 16.994C68.9813 16.9836 68.9724 16.9667 68.9712 16.9454L66.9742 17.0547ZM31.0288 116.945C31.0276 116.967 31.0187 116.984 31.0081 116.994C31.0033 116.999 31.0001 117 30.9999 117C30.9998 117 31.0001 117 31.0007 117C31.0012 117 31.0012 117 31 117V119C32.1183 119 32.9685 118.101 33.0258 117.055L31.0288 116.945ZM98.9454 86.9712C98.9667 86.9724 98.9836 86.9813 98.994 86.9919C98.9987 86.9967 99.0002 86.9999 99.0002 87.0001C99.0003 87.0002 99.0001 86.9999 99 86.9994C98.9999 86.9988 99 86.9988 99 87H101C101 85.8817 100.101 85.0315 99.0547 84.9742L98.9454 86.9712ZM69 117C68.9988 117 68.9988 117 68.9994 117C68.9999 117 69.0002 117 69.0001 117C68.9999 117 68.9967 116.999 68.9919 116.994C68.9813 116.984 68.9724 116.967 68.9712 116.945L66.9742 117.055C67.0315 118.101 67.8817 119 69 119V117ZM99 49C99 49.0012 98.9999 49.0012 99 49.0006C99.0001 49.0001 99.0003 48.9998 99.0002 48.9999C99.0002 49.0001 98.9987 49.0033 98.994 49.0081C98.9836 49.0187 98.9667 49.0276 98.9454 49.0288L99.0547 51.0258C100.101 50.9685 101 50.1183 101 49H99Z" fill="#374151" mask="url(#path-1-inside-1_576_10462)"/>
<path d="M32.2214 90.144C31.4641 90.144 30.8081 89.9787 30.2534 89.648C29.6988 89.3173 29.2668 88.8533 28.9574 88.256C28.6588 87.648 28.5094 86.9333 28.5094 86.112C28.5094 85.4933 28.5948 84.9387 28.7654 84.448C28.9361 83.9467 29.1868 83.52 29.5174 83.168C29.8481 82.816 30.2374 82.5493 30.6854 82.368C31.1441 82.176 31.6561 82.08 32.2214 82.08C32.9788 82.08 33.6348 82.2453 34.1894 82.576C34.7441 82.9067 35.1708 83.376 35.4694 83.984C35.7788 84.5813 35.9334 85.2907 35.9334 86.112C35.9334 86.7307 35.8481 87.2853 35.6774 87.776C35.5068 88.2667 35.2561 88.6933 34.9254 89.056C34.5948 89.408 34.2001 89.68 33.7414 89.872C33.2934 90.0533 32.7868 90.144 32.2214 90.144ZM32.2214 89.104C32.7014 89.104 33.1228 88.9867 33.4854 88.752C33.8481 88.5173 34.1254 88.176 34.3174 87.728C34.5201 87.28 34.6214 86.7413 34.6214 86.112C34.6214 85.1413 34.4028 84.4 33.9654 83.888C33.5388 83.376 32.9574 83.12 32.2214 83.12C31.7308 83.12 31.3041 83.2373 30.9414 83.472C30.5894 83.696 30.3121 84.032 30.1094 84.48C29.9174 84.9173 29.8214 85.4613 29.8214 86.112C29.8214 87.072 30.0401 87.8133 30.4774 88.336C30.9148 88.848 31.4961 89.104 32.2214 89.104ZM38.8579 90.112C38.6553 90.112 38.4953 90.0533 38.3779 89.936C38.2713 89.8187 38.2179 89.6533 38.2179 89.44V83.232H37.1939C37.0233 83.232 36.8846 83.1893 36.7779 83.104C36.6819 83.008 36.6339 82.88 36.6339 82.72C36.6339 82.56 36.6819 82.4373 36.7779 82.352C36.8846 82.2667 37.0233 82.224 37.1939 82.224H38.5699L38.2179 82.56V81.952C38.2179 80.9387 38.4633 80.1653 38.9539 79.632C39.4553 79.0987 40.1859 78.7893 41.1459 78.704L41.6099 78.656C41.7593 78.6453 41.8766 78.672 41.9619 78.736C42.0579 78.8 42.1166 78.88 42.1379 78.976C42.1699 79.072 42.1753 79.1733 42.1539 79.28C42.1326 79.376 42.0846 79.4613 42.0099 79.536C41.9353 79.6107 41.8446 79.6533 41.7379 79.664L41.3699 79.696C40.7193 79.7493 40.2446 79.9467 39.9459 80.288C39.6579 80.6293 39.5139 81.1307 39.5139 81.792V82.464L39.3219 82.224H41.2419C41.4233 82.224 41.5619 82.2667 41.6579 82.352C41.7539 82.4373 41.8019 82.56 41.8019 82.72C41.8019 82.88 41.7539 83.008 41.6579 83.104C41.5619 83.1893 41.4233 83.232 41.2419 83.232H39.5139V89.44C39.5139 89.888 39.2953 90.112 38.8579 90.112ZM46.4153 90.144C45.594 90.144 44.8846 89.984 44.2873 89.664C43.7006 89.3333 43.242 88.8693 42.9113 88.272C42.5913 87.6747 42.4313 86.96 42.4313 86.128C42.4313 85.3173 42.5913 84.6133 42.9113 84.016C43.2313 83.408 43.6686 82.9333 44.2233 82.592C44.7886 82.2507 45.4393 82.08 46.1753 82.08C46.698 82.08 47.1673 82.1707 47.5833 82.352C47.9993 82.5227 48.3513 82.7733 48.6393 83.104C48.938 83.4347 49.162 83.8347 49.3113 84.304C49.4713 84.7733 49.5513 85.3013 49.5513 85.888C49.5513 86.0587 49.5033 86.1867 49.4073 86.272C49.3113 86.3467 49.1726 86.384 48.9913 86.384H43.4233V85.536H48.6873L48.4313 85.744C48.4313 85.168 48.346 84.6827 48.1753 84.288C48.0046 83.8827 47.754 83.5733 47.4233 83.36C47.1033 83.1467 46.698 83.04 46.2073 83.04C45.6633 83.04 45.1993 83.168 44.8153 83.424C44.442 83.6693 44.1593 84.016 43.9673 84.464C43.7753 84.9013 43.6793 85.4133 43.6793 86V86.096C43.6793 87.0773 43.914 87.824 44.3833 88.336C44.8633 88.848 45.5406 89.104 46.4153 89.104C46.778 89.104 47.1353 89.056 47.4873 88.96C47.85 88.864 48.202 88.704 48.5433 88.48C48.6926 88.384 48.826 88.3413 48.9433 88.352C49.0713 88.352 49.1726 88.3893 49.2473 88.464C49.322 88.528 49.37 88.6133 49.3913 88.72C49.4233 88.816 49.4126 88.9227 49.3593 89.04C49.3166 89.1573 49.226 89.2587 49.0873 89.344C48.7353 89.6 48.3193 89.7973 47.8393 89.936C47.3593 90.0747 46.8846 90.144 46.4153 90.144ZM54.5469 90.144C53.9389 90.144 53.4269 90.0373 53.0109 89.824C52.6056 89.6 52.3016 89.28 52.0989 88.864C51.8963 88.4373 51.7949 87.92 51.7949 87.312V83.232H50.7229C50.5416 83.232 50.4029 83.1893 50.3069 83.104C50.2109 83.008 50.1629 82.88 50.1629 82.72C50.1629 82.56 50.2109 82.4373 50.3069 82.352C50.4029 82.2667 50.5416 82.224 50.7229 82.224H51.7949V80.384C51.7949 80.1707 51.8536 80.0107 51.9709 79.904C52.0883 79.7867 52.2483 79.728 52.4509 79.728C52.6536 79.728 52.8083 79.7867 52.9149 79.904C53.0323 80.0107 53.0909 80.1707 53.0909 80.384V82.224H55.1069C55.2883 82.224 55.4269 82.2667 55.5229 82.352C55.6189 82.4373 55.6669 82.56 55.6669 82.72C55.6669 82.88 55.6189 83.008 55.5229 83.104C55.4269 83.1893 55.2883 83.232 55.1069 83.232H53.0909V87.184C53.0909 87.792 53.2189 88.256 53.4749 88.576C53.7309 88.8853 54.1469 89.04 54.7229 89.04C54.9256 89.04 55.0963 89.0187 55.2349 88.976C55.3843 88.9333 55.5069 88.912 55.6029 88.912C55.6989 88.9013 55.7789 88.9333 55.8429 89.008C55.9069 89.0827 55.9389 89.2107 55.9389 89.392C55.9389 89.52 55.9123 89.6373 55.8589 89.744C55.8163 89.8507 55.7363 89.9253 55.6189 89.968C55.4909 90.0107 55.3203 90.048 55.1069 90.08C54.9043 90.1227 54.7176 90.144 54.5469 90.144ZM60.2386 90.144C59.4599 90.144 58.7879 89.9733 58.2226 89.632C57.6572 89.2907 57.2199 88.816 56.9106 88.208C56.6119 87.5893 56.4626 86.8747 56.4626 86.064C56.4626 85.4453 56.5479 84.8907 56.7186 84.4C56.8892 83.9093 57.1399 83.4933 57.4706 83.152C57.8012 82.8 58.1959 82.5333 58.6546 82.352C59.1239 82.1707 59.6519 82.08 60.2386 82.08C60.6226 82.08 61.0226 82.1387 61.4386 82.256C61.8546 82.3733 62.2332 82.576 62.5746 82.864C62.6812 82.9387 62.7506 83.0293 62.7826 83.136C62.8146 83.2427 62.8146 83.3493 62.7826 83.456C62.7506 83.552 62.6972 83.6373 62.6226 83.712C62.5479 83.776 62.4519 83.8133 62.3346 83.824C62.2279 83.8347 62.1159 83.7973 61.9986 83.712C61.7212 83.4987 61.4386 83.3493 61.1506 83.264C60.8626 83.1787 60.5852 83.136 60.3186 83.136C59.9026 83.136 59.5399 83.2053 59.2306 83.344C58.9212 83.472 58.6599 83.6587 58.4466 83.904C58.2332 84.1493 58.0679 84.4533 57.9506 84.816C57.8439 85.1787 57.7906 85.6 57.7906 86.08C57.7906 87.008 58.0092 87.744 58.4466 88.288C58.8839 88.8213 59.5079 89.088 60.3186 89.088C60.5852 89.088 60.8572 89.0453 61.1346 88.96C61.4226 88.8747 61.7106 88.7253 61.9986 88.512C62.1159 88.4267 62.2279 88.3893 62.3346 88.4C62.4412 88.4107 62.5319 88.4533 62.6066 88.528C62.6812 88.592 62.7292 88.6773 62.7506 88.784C62.7826 88.8907 62.7826 88.9973 62.7506 89.104C62.7186 89.2 62.6492 89.2853 62.5426 89.36C62.2012 89.6373 61.8279 89.84 61.4226 89.968C61.0172 90.0853 60.6226 90.144 60.2386 90.144ZM64.9888 90.112C64.7755 90.112 64.6155 90.0533 64.5088 89.936C64.4021 89.8187 64.3488 89.6533 64.3488 89.44V79.264C64.3488 79.0507 64.4021 78.8907 64.5088 78.784C64.6155 78.6667 64.7755 78.608 64.9888 78.608C65.1915 78.608 65.3515 78.6667 65.4688 78.784C65.5861 78.8907 65.6448 79.0507 65.6448 79.264V83.952H65.4368C65.6608 83.3333 66.0235 82.8693 66.5248 82.56C67.0368 82.24 67.6235 82.08 68.2848 82.08C68.9035 82.08 69.4155 82.192 69.8208 82.416C70.2368 82.64 70.5461 82.9813 70.7488 83.44C70.9515 83.888 71.0528 84.4587 71.0528 85.152V89.44C71.0528 89.6533 70.9941 89.8187 70.8768 89.936C70.7701 90.0533 70.6155 90.112 70.4128 90.112C70.1995 90.112 70.0341 90.0533 69.9168 89.936C69.8101 89.8187 69.7568 89.6533 69.7568 89.44V85.232C69.7568 84.5067 69.6128 83.9787 69.3248 83.648C69.0475 83.3067 68.5995 83.136 67.9808 83.136C67.2661 83.136 66.6955 83.36 66.2688 83.808C65.8528 84.2453 65.6448 84.832 65.6448 85.568V89.44C65.6448 89.888 65.4261 90.112 64.9888 90.112Z" fill="#F9FAFB"/>
<path d="M49.9125 55.9875C43.8094 55.9875 37.225 52.1594 37.225 43.7594C37.225 35.3594 43.8094 31.5312 49.9125 31.5312C53.3031 31.5312 56.4313 32.6469 58.75 34.6812C61.2656 36.9125 62.6 40.0625 62.6 43.7594C62.6 47.4563 61.2656 50.5844 58.75 52.8156C56.4313 54.85 53.2813 55.9875 49.9125 55.9875Z" fill="url(#paint0_radial_576_10462)"/>
<path d="M60.3885 36.4903C61.5544 38.3716 62.1625 40.6116 62.1625 43.1031C62.1625 46.8 60.8281 49.9281 58.3125 52.1594C55.9938 54.1937 52.8438 55.3312 49.475 55.3312C45.5244 55.3312 41.3813 53.7234 38.9356 50.3131C41.2894 54.1762 45.7169 55.9875 49.9125 55.9875C53.2813 55.9875 56.4313 54.85 58.75 52.8156C61.2656 50.5844 62.6 47.4562 62.6 43.7594C62.6 40.9725 61.841 38.4962 60.3885 36.4903Z" fill="#EB8F00"/>
<path d="M49.9125 55.9875C43.8094 55.9875 37.225 52.1594 37.225 43.7594C37.225 35.3594 43.8094 31.5312 49.9125 31.5312C53.3031 31.5312 56.4313 32.6469 58.75 34.6812C61.2656 36.9125 62.6 40.0625 62.6 43.7594C62.6 47.4563 61.2656 50.5844 58.75 52.8156C56.4313 54.85 53.2813 55.9875 49.9125 55.9875Z" fill="url(#paint1_linear_576_10462)"/>
<path d="M49.9125 55.9875C43.8094 55.9875 37.225 52.1594 37.225 43.7594C37.225 35.3594 43.8094 31.5312 49.9125 31.5312C53.3031 31.5312 56.4313 32.6469 58.75 34.6812C61.2656 36.9125 62.6 40.0625 62.6 43.7594C62.6 47.4563 61.2656 50.5844 58.75 52.8156C56.4313 54.85 53.2813 55.9875 49.9125 55.9875Z" fill="url(#paint2_linear_576_10462)"/>
<path d="M60.3885 36.4903C61.5544 38.3716 62.1625 40.6116 62.1625 43.1031C62.1625 46.8 60.8281 49.9281 58.3125 52.1594C55.9938 54.1937 52.8438 55.3312 49.475 55.3312C45.5244 55.3312 41.3813 53.7234 38.9356 50.3131C41.2894 54.1762 45.7169 55.9875 49.9125 55.9875C53.2813 55.9875 56.4313 54.85 58.75 52.8156C61.2656 50.5844 62.6 47.4562 62.6 43.7594C62.6 40.9725 61.841 38.4962 60.3885 36.4903Z" fill="#EB8F00"/>
<path d="M50 54.0034C48.6831 53.9947 47.6178 52.9294 47.6091 51.6125V48.8563C47.6091 47.535 48.6788 46.4653 50 46.4653C51.3213 46.4653 52.3909 47.535 52.3909 48.8563V51.6147C52.3822 52.9316 51.3169 53.9947 50 54.0034Z" fill="#422B0D"/>
<path d="M45.4697 39.1481C45.9159 39.1481 46.3534 39.2772 46.7297 39.5178C47.9634 40.2988 48.4797 42.1428 47.4844 44.0481C46.7975 45.3606 45.765 45.9666 44.7872 45.9666C44.3405 45.9661 43.9033 45.8378 43.5272 45.5969C42.2934 44.8159 41.7772 42.9719 42.7725 41.0666C43.4594 39.7541 44.4897 39.1481 45.4697 39.1481Z" fill="white"/>
<path opacity="0.66" d="M62.0181 45.9687C61.7184 45.75 61.7556 45.5072 60.9244 45.8419C60.5809 45.9819 60.1872 46.7694 60.1872 46.7694C60.1872 46.7694 59.5944 45.5837 58.4219 47.1609C56.2912 50.0222 55.3594 49.8909 54.1059 51.2034C53.2987 52.0434 52.6009 52.8441 52.87 54.4344C53.0209 55.3225 53.4431 55.5653 53.4431 55.5653C53.4431 55.5653 53.7012 55.5653 56.2344 54.2528C58.7675 52.9403 60.9791 51.0831 62.1953 48.1081" fill="url(#paint3_linear_576_10462)"/>
<path d="M55.1931 51.77C56.1447 51.0481 57.0634 50.3853 57.4965 49.8144C57.9297 49.2434 58.3956 48.0469 58.6756 47.2637C58.9556 46.4806 59.7694 46.0978 60.2069 46.7672C60.3206 46.9466 60.2309 47.6422 60.2069 47.9091C60.4453 47.5131 60.6137 47.0778 60.7056 46.625C60.9244 45.5575 62.04 45.2119 62.2369 46.6469C62.2369 46.6469 63.0659 46.6797 62.6984 49.2522C62.5147 50.2541 62.1844 51.2253 61.714 52.1287C60.535 54.3512 59.6119 55.3816 58.4175 56.1997C56.5494 57.4772 54.7797 57.1731 54.2262 56.4469C53.2812 55.1978 53.535 53.0278 55.1931 51.77Z" fill="url(#paint4_radial_576_10462)"/>
<path d="M60.1981 46.7672C60.1981 47.1938 59.7869 48.6791 59.6316 49.0597C59.0956 50.4706 58.1178 51.1269 58.3912 51.35C58.6647 51.5731 59.1875 51.0984 59.9422 49.3069C60.1741 48.6966 60.3097 48.0556 60.3403 47.4038C60.3381 47.1828 60.29 46.9663 60.1981 46.7672ZM61.6375 45.6866C61.9153 45.8069 62.3287 46.5988 61.7097 48.8169C61.3269 50.4925 60.0537 51.7963 60.36 51.9428C60.7209 52.1856 61.5456 50.8184 62.1297 48.9241C62.2828 48.3509 62.3791 47.7647 62.4119 47.1741C62.4206 46.8766 62.32 45.7675 61.6375 45.6866Z" fill="#ED6C30"/>
<path opacity="0.66" d="M37.8659 45.9687C38.1656 45.75 38.1284 45.5072 38.9597 45.8419C39.3031 45.9819 39.6969 46.7694 39.6969 46.7694C39.6969 46.7694 40.2897 45.5837 41.4622 47.1609C43.5928 50.0222 44.5247 49.8909 45.7781 51.2034C46.5831 52.0434 47.2809 52.8441 47.0119 54.4344C46.8631 55.3225 46.4409 55.5653 46.4409 55.5653C46.4409 55.5653 46.0209 55.5653 44.0063 54.5372C43.8334 54.4497 43.8488 54.36 43.6497 54.255C41.1166 52.9425 38.905 51.0853 37.6888 48.1103" fill="url(#paint5_linear_576_10462)"/>
<path d="M44.6909 51.77C43.7394 51.0481 42.8206 50.3853 42.3875 49.8144C41.9544 49.2434 41.4884 48.0469 41.2063 47.2637C40.9241 46.4806 40.1125 46.0978 39.686 46.7672C39.5722 46.9466 39.6619 47.6422 39.686 47.9091C39.4453 47.5131 39.2725 47.0778 39.1784 46.625C38.9597 45.5575 37.8441 45.2119 37.6472 46.6469C37.6472 46.6469 36.8181 46.6797 37.1856 49.2522C37.3694 50.2541 37.6997 51.2253 38.17 52.1287C39.3469 54.3512 40.2722 55.3816 41.4666 56.1997C43.3325 57.4772 45.1022 57.1731 45.6578 56.4469C46.5963 55.1978 46.3491 53.0278 44.6909 51.77Z" fill="url(#paint6_radial_576_10462)"/>
<path d="M39.6859 46.7672C39.6859 47.1938 40.0972 48.6791 40.2525 49.0597C40.7884 50.4706 41.7641 51.1269 41.4928 51.35C41.2216 51.5731 40.6944 51.0984 39.9397 49.3069C39.7079 48.6974 39.5743 48.0551 39.5437 47.4038C39.5437 47.1828 39.5919 46.9663 39.6859 46.7672ZM38.2444 45.6866C37.9687 45.8069 37.5553 46.5988 38.1744 48.8125C38.5572 50.4881 39.8303 51.7919 39.5241 51.9384C39.1631 52.1813 38.3384 50.8141 37.7544 48.9197C37.6012 48.3466 37.505 47.7603 37.4722 47.1697C37.4634 46.8766 37.5641 45.7675 38.2444 45.6866Z" fill="#ED6C30"/>
<path d="M47.5128 44.0634C47.3513 44.6341 47.0506 45.1557 46.6378 45.5816C46.1918 46.0425 45.6041 46.3406 44.9687 46.4281C44.2884 46.5134 43.5994 46.3362 43.0437 45.9359C42.4969 45.5378 42.0856 44.9778 41.8691 44.3369C41.8187 44.1816 41.7772 44.0219 41.7466 43.86C41.7181 43.7003 41.6984 43.5384 41.6875 43.3766L41.6722 43.125L41.6831 42.8844C41.6897 42.7247 41.7072 42.5672 41.7378 42.4097C41.8581 41.8059 42.0966 41.2306 42.4378 40.7187C42.7684 40.1965 43.2183 39.7602 43.7503 39.4456C44.2687 39.1328 44.8834 39.0191 45.4806 39.1241V39.1875C44.9272 39.1984 44.3891 39.3866 43.9494 39.7234C43.5119 40.0581 43.1509 40.4847 42.8906 40.9703C42.6179 41.4469 42.4326 41.9684 42.3437 42.5103C42.2606 43.0528 42.3066 43.6062 42.4794 44.1269C42.6456 44.6475 42.9672 45.1069 43.4025 45.4394C43.8378 45.7784 44.3825 45.9469 44.9337 45.9119C45.4806 45.8725 46.0034 45.6625 46.4256 45.3125C46.8522 44.9603 47.2022 44.5272 47.4559 44.035L47.5128 44.0634Z" fill="#EB8F00"/>
<path d="M54.5522 39.1481C55.5322 39.1481 56.5625 39.7606 57.2494 41.0666C58.2491 42.9631 57.7285 44.8159 56.4947 45.5969C56.1185 45.8397 55.681 45.9688 55.2347 45.9688C54.2569 45.9688 53.2244 45.3563 52.5375 44.0503C51.5313 42.1516 52.0585 40.2988 53.2922 39.5178C53.6683 39.2769 54.1055 39.1486 54.5522 39.1481Z" fill="white"/>
<path d="M54.5522 39.1153C55.1494 39.0103 55.7641 39.1241 56.2825 39.4369C56.8145 39.7515 57.2644 40.1878 57.595 40.71C57.9384 41.2284 58.1769 41.8081 58.295 42.4184C58.3234 42.5759 58.3431 42.7334 58.3497 42.8931V43.3766C58.3366 43.7025 58.2753 44.0263 58.1703 44.3369C57.9538 44.9778 57.5447 45.5356 56.9956 45.9338C56.4403 46.3358 55.753 46.5117 55.0728 46.4259C54.4319 46.3406 53.8391 46.0431 53.3906 45.5794C52.9767 45.1553 52.6758 44.634 52.5156 44.0634L52.5725 44.0328C52.8241 44.5228 53.1719 44.9581 53.5963 45.3125C54.0206 45.6647 54.5434 45.8747 55.0925 45.9141C55.6437 45.9491 56.1884 45.7806 56.6238 45.4416C57.0569 45.1069 57.3784 44.6497 57.5447 44.1291C57.7175 43.6084 57.7634 43.055 57.6803 42.5125C57.595 41.97 57.4134 41.445 57.1422 40.9659C56.882 40.4797 56.521 40.0546 56.0834 39.7191C55.6437 39.3822 55.1056 39.1941 54.5522 39.1831V39.1153Z" fill="#EB8F00"/>
<defs>
<radialGradient id="paint0_radial_576_10462" cx="0" cy="0" r="1" gradientUnits="userSpaceOnUse" gradientTransform="translate(49.9125 43.7594) scale(12.46)">
<stop offset="0.5" stop-color="#FDE030"/>
<stop offset="0.92" stop-color="#F7C02B"/>
<stop offset="1" stop-color="#F4A223"/>
</radialGradient>
<linearGradient id="paint1_linear_576_10462" x1="49.9125" y1="55.9875" x2="49.9125" y2="31.5312" gradientUnits="userSpaceOnUse">
<stop offset="0.39" stop-color="#40C0E7" stop-opacity="0"/>
<stop offset="1" stop-color="#5F7AFF"/>
</linearGradient>
<linearGradient id="paint2_linear_576_10462" x1="49.9125" y1="55.9875" x2="49.9125" y2="31.5312" gradientUnits="userSpaceOnUse">
<stop offset="0.16" stop-color="#F4A223"/>
<stop offset="0.33" stop-color="#F7C02B"/>
<stop offset="0.81" stop-color="#FDE030" stop-opacity="0"/>
</linearGradient>
<linearGradient id="paint3_linear_576_10462" x1="57.5033" y1="57.9606" x2="57.5033" y2="47.0887" gradientUnits="userSpaceOnUse">
<stop stop-color="#ED6C30"/>
<stop offset="1" stop-color="#ED6C30" stop-opacity="0.2"/>
</linearGradient>
<radialGradient id="paint4_radial_576_10462" cx="0" cy="0" r="1" gradientUnits="userSpaceOnUse" gradientTransform="translate(56.0158 50.6241) rotate(141.52) scale(9.77773 9.01151)">
<stop offset="0.27" stop-color="#FFF176"/>
<stop offset="1" stop-color="#FFC400"/>
</radialGradient>
<linearGradient id="paint5_linear_576_10462" x1="42.3796" y1="57.9606" x2="42.3796" y2="47.0887" gradientUnits="userSpaceOnUse">
<stop stop-color="#ED6C30"/>
<stop offset="1" stop-color="#ED6C30" stop-opacity="0.2"/>
</linearGradient>
<radialGradient id="paint6_radial_576_10462" cx="0" cy="0" r="1" gradientUnits="userSpaceOnUse" gradientTransform="translate(43.8574 50.6077) rotate(38.4802) scale(9.77773 9.01151)">
<stop offset="0.27" stop-color="#FFF176"/>
<stop offset="1" stop-color="#FFC400"/>
</radialGradient>
</defs>
</svg>
