<svg width="101" height="118" viewBox="0 0 101 118" fill="none" xmlns="http://www.w3.org/2000/svg">
<mask id="path-1-inside-1_576_10462" fill="white">
<path fill-rule="evenodd" clip-rule="evenodd" d="M50.5 0C60.1056 0 67.9538 7.52403 68.4727 17C68.5029 17.5515 68.9477 18 69.5 18L96.5 18C98.7091 18 100.5 19.7909 100.5 22L100.5 49C100.5 49.5523 100.051 49.9971 99.5 50.0273C90.024 50.5462 82.5 58.3944 82.5 68C82.5 77.6056 90.024 85.4538 99.5 85.9727C100.052 86.0029 100.5 86.4477 100.5 87V114C100.5 116.209 98.7091 118 96.5 118L69.5 118C68.9477 118 68.5029 117.551 68.4727 117C67.9538 107.524 60.1056 100 50.5 100C40.8944 100 33.0462 107.524 32.5273 117C32.4971 117.552 32.0523 118 31.5 118H4.5C2.29086 118 0.5 116.209 0.5 114L0.5 87C0.5 86.4477 0.948498 86.0029 1.49996 85.9727C10.976 85.4538 18.5 77.6056 18.5 68C18.5 58.3944 10.976 50.5462 1.49996 50.0273C0.948497 49.9971 0.5 49.5523 0.5 49L0.5 22C0.5 19.7909 2.29086 18 4.5 18L31.5 18C32.0523 18 32.4971 17.5515 32.5273 17C33.0462 7.52403 40.8944 0 50.5 0Z"/>
</mask>
<path fill-rule="evenodd" clip-rule="evenodd" d="M50.5 0C60.1056 0 67.9538 7.52403 68.4727 17C68.5029 17.5515 68.9477 18 69.5 18L96.5 18C98.7091 18 100.5 19.7909 100.5 22L100.5 49C100.5 49.5523 100.051 49.9971 99.5 50.0273C90.024 50.5462 82.5 58.3944 82.5 68C82.5 77.6056 90.024 85.4538 99.5 85.9727C100.052 86.0029 100.5 86.4477 100.5 87V114C100.5 116.209 98.7091 118 96.5 118L69.5 118C68.9477 118 68.5029 117.551 68.4727 117C67.9538 107.524 60.1056 100 50.5 100C40.8944 100 33.0462 107.524 32.5273 117C32.4971 117.552 32.0523 118 31.5 118H4.5C2.29086 118 0.5 116.209 0.5 114L0.5 87C0.5 86.4477 0.948498 86.0029 1.49996 85.9727C10.976 85.4538 18.5 77.6056 18.5 68C18.5 58.3944 10.976 50.5462 1.49996 50.0273C0.948497 49.9971 0.5 49.5523 0.5 49L0.5 22C0.5 19.7909 2.29086 18 4.5 18L31.5 18C32.0523 18 32.4971 17.5515 32.5273 17C33.0462 7.52403 40.8944 0 50.5 0Z" fill="#374151" fill-opacity="0.4"/>
<path d="M32.5273 17L33.5258 17.0547L32.5273 17ZM1.49996 85.9727L1.44528 84.9742L1.49996 85.9727ZM32.5273 117L31.5288 116.945L32.5273 117ZM99.5 85.9727L99.5547 84.9742L99.5 85.9727ZM68.4727 117L69.4712 116.945L68.4727 117ZM99.5 50.0273L99.4454 49.0288L99.5 50.0273ZM69.4712 16.9454C68.9235 6.94204 60.6396 -1 50.5 -1V1C59.5716 1 66.9842 8.10603 67.4742 17.0547L69.4712 16.9454ZM96.5 17L69.5 17V19L96.5 19V17ZM101.5 22C101.5 19.2386 99.2614 17 96.5 17V19C98.1569 19 99.5 20.3431 99.5 22L101.5 22ZM101.5 49L101.5 22L99.5 22L99.5 49H101.5ZM83.5 68C83.5 58.9284 90.606 51.5158 99.5547 51.0258L99.4454 49.0288C89.442 49.5765 81.5 57.8604 81.5 68H83.5ZM99.5547 84.9742C90.606 84.4842 83.5 77.0716 83.5 68H81.5C81.5 78.1395 89.442 86.4235 99.4454 86.9712L99.5547 84.9742ZM101.5 114V87H99.5V114H101.5ZM96.5 119C99.2614 119 101.5 116.761 101.5 114H99.5C99.5 115.657 98.1569 117 96.5 117V119ZM69.5 119L96.5 119V117L69.5 117V119ZM50.5 101C59.5716 101 66.9842 108.106 67.4742 117.055L69.4712 116.945C68.9235 106.942 60.6396 99 50.5 99V101ZM33.5258 117.055C34.0158 108.106 41.4284 101 50.5 101V99C40.3604 99 32.0765 106.942 31.5288 116.945L33.5258 117.055ZM4.5 119H31.5V117H4.5V119ZM-0.5 114C-0.5 116.761 1.73858 119 4.5 119V117C2.84315 117 1.5 115.657 1.5 114H-0.5ZM-0.5 87L-0.5 114H1.5L1.5 87H-0.5ZM17.5 68C17.5 77.0716 10.394 84.4842 1.44528 84.9742L1.55463 86.9712C11.558 86.4235 19.5 78.1395 19.5 68H17.5ZM1.44528 51.0258C10.394 51.5158 17.5 58.9284 17.5 68H19.5C19.5 57.8604 11.558 49.5765 1.55463 49.0288L1.44528 51.0258ZM-0.5 22L-0.5 49H1.5L1.5 22H-0.5ZM4.5 17C1.73858 17 -0.5 19.2386 -0.5 22H1.5C1.5 20.3431 2.84315 19 4.5 19L4.5 17ZM31.5 17L4.5 17L4.5 19L31.5 19V17ZM50.5 -1C40.3604 -1 32.0765 6.94204 31.5288 16.9454L33.5258 17.0547C34.0158 8.10602 41.4284 1 50.5 1V-1ZM31.5 19C32.6183 19 33.4685 18.1008 33.5258 17.0547L31.5288 16.9454C31.5276 16.9667 31.5187 16.9836 31.5081 16.994C31.5033 16.9987 31.5001 17.0002 31.4999 17.0002C31.4998 17.0003 31.5001 17.0001 31.5006 17C31.5012 16.9999 31.5012 17 31.5 17V19ZM1.55463 49.0288C1.53335 49.0276 1.5164 49.0187 1.506 49.0081C1.50127 49.0033 1.49985 49.0001 1.49977 48.9999C1.49974 48.9998 1.49987 49.0001 1.49998 49.0006C1.5001 49.0012 1.5 49.0012 1.5 49H-0.5C-0.5 50.1183 0.399211 50.9685 1.44528 51.0258L1.55463 49.0288ZM1.5 87C1.5 86.9988 1.5001 86.9988 1.49998 86.9994C1.49987 86.9999 1.49974 87.0002 1.49977 87.0001C1.49985 86.9999 1.50127 86.9967 1.506 86.9919C1.5164 86.9813 1.53335 86.9724 1.55463 86.9712L1.44528 84.9742C0.399214 85.0315 -0.5 85.8817 -0.5 87H1.5ZM67.4742 17.0547C67.5315 18.1008 68.3817 19 69.5 19V17C69.4988 17 69.4988 16.9999 69.4994 17C69.4999 17.0001 69.5002 17.0003 69.5001 17.0002C69.4999 17.0002 69.4967 16.9987 69.4919 16.994C69.4813 16.9836 69.4724 16.9667 69.4712 16.9454L67.4742 17.0547ZM31.5288 116.945C31.5276 116.967 31.5187 116.984 31.5081 116.994C31.5033 116.999 31.5001 117 31.4999 117C31.4998 117 31.5001 117 31.5007 117C31.5012 117 31.5012 117 31.5 117V119C32.6183 119 33.4685 118.101 33.5258 117.055L31.5288 116.945ZM99.4454 86.9712C99.4667 86.9724 99.4836 86.9813 99.494 86.9919C99.4987 86.9967 99.5002 86.9999 99.5002 87.0001C99.5003 87.0002 99.5001 86.9999 99.5 86.9994C99.4999 86.9988 99.5 86.9988 99.5 87H101.5C101.5 85.8817 100.601 85.0315 99.5547 84.9742L99.4454 86.9712ZM69.5 117C69.4988 117 69.4988 117 69.4994 117C69.4999 117 69.5002 117 69.5001 117C69.4999 117 69.4967 116.999 69.4919 116.994C69.4813 116.984 69.4724 116.967 69.4712 116.945L67.4742 117.055C67.5315 118.101 68.3817 119 69.5 119V117ZM99.5 49C99.5 49.0012 99.4999 49.0012 99.5 49.0006C99.5001 49.0001 99.5003 48.9998 99.5002 48.9999C99.5002 49.0001 99.4987 49.0033 99.494 49.0081C99.4836 49.0187 99.4667 49.0276 99.4454 49.0288L99.5547 51.0258C100.601 50.9685 101.5 50.1183 101.5 49H99.5Z" fill="#374151" mask="url(#path-1-inside-1_576_10462)"/>
<path d="M37.1661 89.108C36.5981 89.108 36.1061 88.984 35.6901 88.736C35.2741 88.488 34.9501 88.14 34.7181 87.692C34.4941 87.236 34.3821 86.7 34.3821 86.084C34.3821 85.62 34.4461 85.204 34.5741 84.836C34.7021 84.46 34.8901 84.14 35.1381 83.876C35.3861 83.612 35.6781 83.412 36.0141 83.276C36.3581 83.132 36.7421 83.06 37.1661 83.06C37.7341 83.06 38.2261 83.184 38.6421 83.432C39.0581 83.68 39.3781 84.032 39.6021 84.488C39.8341 84.936 39.9501 85.468 39.9501 86.084C39.9501 86.548 39.8861 86.964 39.7581 87.332C39.6301 87.7 39.4421 88.02 39.1941 88.292C38.9461 88.556 38.6501 88.76 38.3061 88.904C37.9701 89.04 37.5901 89.108 37.1661 89.108ZM37.1661 88.328C37.5261 88.328 37.8421 88.24 38.1141 88.064C38.3861 87.888 38.5941 87.632 38.7381 87.296C38.8901 86.96 38.9661 86.556 38.9661 86.084C38.9661 85.356 38.8021 84.8 38.4741 84.416C38.1541 84.032 37.7181 83.84 37.1661 83.84C36.7981 83.84 36.4781 83.928 36.2061 84.104C35.9421 84.272 35.7341 84.524 35.5821 84.86C35.4381 85.188 35.3661 85.596 35.3661 86.084C35.3661 86.804 35.5301 87.36 35.8581 87.752C36.1861 88.136 36.6221 88.328 37.1661 88.328ZM42.1435 89.084C41.9915 89.084 41.8715 89.04 41.7835 88.952C41.7035 88.864 41.6635 88.74 41.6635 88.58V83.924H40.8955C40.7675 83.924 40.6635 83.892 40.5835 83.828C40.5115 83.756 40.4755 83.66 40.4755 83.54C40.4755 83.42 40.5115 83.328 40.5835 83.264C40.6635 83.2 40.7675 83.168 40.8955 83.168H41.9275L41.6635 83.42V82.964C41.6635 82.204 41.8475 81.624 42.2155 81.224C42.5915 80.824 43.1395 80.592 43.8595 80.528L44.2075 80.492C44.3195 80.484 44.4075 80.504 44.4715 80.552C44.5435 80.6 44.5875 80.66 44.6035 80.732C44.6275 80.804 44.6315 80.88 44.6155 80.96C44.5995 81.032 44.5635 81.096 44.5075 81.152C44.4515 81.208 44.3835 81.24 44.3035 81.248L44.0275 81.272C43.5395 81.312 43.1835 81.46 42.9595 81.716C42.7435 81.972 42.6355 82.348 42.6355 82.844V83.348L42.4915 83.168H43.9315C44.0675 83.168 44.1715 83.2 44.2435 83.264C44.3155 83.328 44.3515 83.42 44.3515 83.54C44.3515 83.66 44.3155 83.756 44.2435 83.828C44.1715 83.892 44.0675 83.924 43.9315 83.924H42.6355V88.58C42.6355 88.916 42.4715 89.084 42.1435 89.084ZM47.8115 89.108C47.1955 89.108 46.6635 88.988 46.2155 88.748C45.7755 88.5 45.4315 88.152 45.1835 87.704C44.9435 87.256 44.8235 86.72 44.8235 86.096C44.8235 85.488 44.9435 84.96 45.1835 84.512C45.4235 84.056 45.7515 83.7 46.1675 83.444C46.5915 83.188 47.0795 83.06 47.6315 83.06C48.0235 83.06 48.3755 83.128 48.6875 83.264C48.9995 83.392 49.2635 83.58 49.4795 83.828C49.7035 84.076 49.8715 84.376 49.9835 84.728C50.1035 85.08 50.1635 85.476 50.1635 85.916C50.1635 86.044 50.1275 86.14 50.0555 86.204C49.9835 86.26 49.8795 86.288 49.7435 86.288H45.5675V85.652H49.5155L49.3235 85.808C49.3235 85.376 49.2595 85.012 49.1315 84.716C49.0035 84.412 48.8155 84.18 48.5675 84.02C48.3275 83.86 48.0235 83.78 47.6555 83.78C47.2475 83.78 46.8995 83.876 46.6115 84.068C46.3315 84.252 46.1195 84.512 45.9755 84.848C45.8315 85.176 45.7595 85.56 45.7595 86V86.072C45.7595 86.808 45.9355 87.368 46.2875 87.752C46.6475 88.136 47.1555 88.328 47.8115 88.328C48.0835 88.328 48.3515 88.292 48.6155 88.22C48.8875 88.148 49.1515 88.028 49.4075 87.86C49.5195 87.788 49.6195 87.756 49.7075 87.764C49.8035 87.764 49.8795 87.792 49.9355 87.848C49.9915 87.896 50.0275 87.96 50.0435 88.04C50.0675 88.112 50.0595 88.192 50.0195 88.28C49.9875 88.368 49.9195 88.444 49.8155 88.508C49.5515 88.7 49.2395 88.848 48.8795 88.952C48.5195 89.056 48.1635 89.108 47.8115 89.108ZM53.9102 89.108C53.4542 89.108 53.0702 89.028 52.7582 88.868C52.4542 88.7 52.2262 88.46 52.0742 88.148C51.9222 87.828 51.8462 87.44 51.8462 86.984V83.924H51.0422C50.9062 83.924 50.8022 83.892 50.7302 83.828C50.6582 83.756 50.6222 83.66 50.6222 83.54C50.6222 83.42 50.6582 83.328 50.7302 83.264C50.8022 83.2 50.9062 83.168 51.0422 83.168H51.8462V81.788C51.8462 81.628 51.8902 81.508 51.9782 81.428C52.0662 81.34 52.1862 81.296 52.3382 81.296C52.4902 81.296 52.6062 81.34 52.6862 81.428C52.7742 81.508 52.8182 81.628 52.8182 81.788V83.168H54.3302C54.4662 83.168 54.5702 83.2 54.6422 83.264C54.7142 83.328 54.7502 83.42 54.7502 83.54C54.7502 83.66 54.7142 83.756 54.6422 83.828C54.5702 83.892 54.4662 83.924 54.3302 83.924H52.8182V86.888C52.8182 87.344 52.9142 87.692 53.1062 87.932C53.2982 88.164 53.6102 88.28 54.0422 88.28C54.1942 88.28 54.3222 88.264 54.4262 88.232C54.5382 88.2 54.6302 88.184 54.7022 88.184C54.7742 88.176 54.8342 88.2 54.8822 88.256C54.9302 88.312 54.9542 88.408 54.9542 88.544C54.9542 88.64 54.9342 88.728 54.8942 88.808C54.8622 88.888 54.8022 88.944 54.7142 88.976C54.6182 89.008 54.4902 89.036 54.3302 89.06C54.1782 89.092 54.0382 89.108 53.9102 89.108ZM58.1789 89.108C57.5949 89.108 57.0909 88.98 56.6669 88.724C56.2429 88.468 55.9149 88.112 55.6829 87.656C55.4589 87.192 55.3469 86.656 55.3469 86.048C55.3469 85.584 55.4109 85.168 55.5389 84.8C55.6669 84.432 55.8549 84.12 56.1029 83.864C56.3509 83.6 56.6469 83.4 56.9909 83.264C57.3429 83.128 57.7389 83.06 58.1789 83.06C58.4669 83.06 58.7669 83.104 59.0789 83.192C59.3909 83.28 59.6749 83.432 59.9309 83.648C60.0109 83.704 60.0629 83.772 60.0869 83.852C60.1109 83.932 60.1109 84.012 60.0869 84.092C60.0629 84.164 60.0229 84.228 59.9669 84.284C59.9109 84.332 59.8389 84.36 59.7509 84.368C59.6709 84.376 59.5869 84.348 59.4989 84.284C59.2909 84.124 59.0789 84.012 58.8629 83.948C58.6469 83.884 58.4389 83.852 58.2389 83.852C57.9269 83.852 57.6549 83.904 57.4229 84.008C57.1909 84.104 56.9949 84.244 56.8349 84.428C56.6749 84.612 56.5509 84.84 56.4629 85.112C56.3829 85.384 56.3429 85.7 56.3429 86.06C56.3429 86.756 56.5069 87.308 56.8349 87.716C57.1629 88.116 57.6309 88.316 58.2389 88.316C58.4389 88.316 58.6429 88.284 58.8509 88.22C59.0669 88.156 59.2829 88.044 59.4989 87.884C59.5869 87.82 59.6709 87.792 59.7509 87.8C59.8309 87.808 59.8989 87.84 59.9549 87.896C60.0109 87.944 60.0469 88.008 60.0629 88.088C60.0869 88.168 60.0869 88.248 60.0629 88.328C60.0389 88.4 59.9869 88.464 59.9069 88.52C59.6509 88.728 59.3709 88.88 59.0669 88.976C58.7629 89.064 58.4669 89.108 58.1789 89.108ZM61.7416 89.084C61.5816 89.084 61.4616 89.04 61.3816 88.952C61.3016 88.864 61.2616 88.74 61.2616 88.58V80.948C61.2616 80.788 61.3016 80.668 61.3816 80.588C61.4616 80.5 61.5816 80.456 61.7416 80.456C61.8936 80.456 62.0136 80.5 62.1016 80.588C62.1896 80.668 62.2336 80.788 62.2336 80.948V84.464H62.0776C62.2456 84 62.5176 83.652 62.8936 83.42C63.2776 83.18 63.7176 83.06 64.2136 83.06C64.6776 83.06 65.0616 83.144 65.3656 83.312C65.6776 83.48 65.9096 83.736 66.0616 84.08C66.2136 84.416 66.2896 84.844 66.2896 85.364V88.58C66.2896 88.74 66.2456 88.864 66.1576 88.952C66.0776 89.04 65.9616 89.084 65.8096 89.084C65.6496 89.084 65.5256 89.04 65.4376 88.952C65.3576 88.864 65.3176 88.74 65.3176 88.58V85.424C65.3176 84.88 65.2096 84.484 64.9936 84.236C64.7856 83.98 64.4496 83.852 63.9856 83.852C63.4496 83.852 63.0216 84.02 62.7016 84.356C62.3896 84.684 62.2336 85.124 62.2336 85.676V88.58C62.2336 88.916 62.0696 89.084 61.7416 89.084Z" fill="#F9FAFB"/>
<path d="M50.4125 55.9875C44.3094 55.9875 37.725 52.1594 37.725 43.7594C37.725 35.3594 44.3094 31.5312 50.4125 31.5312C53.8031 31.5312 56.9313 32.6469 59.25 34.6812C61.7656 36.9125 63.1 40.0625 63.1 43.7594C63.1 47.4563 61.7656 50.5844 59.25 52.8156C56.9313 54.85 53.7813 55.9875 50.4125 55.9875Z" fill="url(#paint0_radial_576_10462)"/>
<path d="M60.8885 36.4903C62.0544 38.3716 62.6625 40.6116 62.6625 43.1031C62.6625 46.8 61.3281 49.9281 58.8125 52.1594C56.4938 54.1937 53.3438 55.3312 49.975 55.3312C46.0244 55.3312 41.8813 53.7234 39.4356 50.3131C41.7894 54.1762 46.2169 55.9875 50.4125 55.9875C53.7813 55.9875 56.9313 54.85 59.25 52.8156C61.7656 50.5844 63.1 47.4562 63.1 43.7594C63.1 40.9725 62.341 38.4962 60.8885 36.4903V36.4903Z" fill="#EB8F00"/>
<path d="M50.4125 55.9875C44.3094 55.9875 37.725 52.1594 37.725 43.7594C37.725 35.3594 44.3094 31.5312 50.4125 31.5312C53.8031 31.5312 56.9313 32.6469 59.25 34.6812C61.7656 36.9125 63.1 40.0625 63.1 43.7594C63.1 47.4563 61.7656 50.5844 59.25 52.8156C56.9313 54.85 53.7813 55.9875 50.4125 55.9875Z" fill="url(#paint1_linear_576_10462)"/>
<path d="M50.4125 55.9875C44.3094 55.9875 37.725 52.1594 37.725 43.7594C37.725 35.3594 44.3094 31.5312 50.4125 31.5312C53.8031 31.5312 56.9313 32.6469 59.25 34.6812C61.7656 36.9125 63.1 40.0625 63.1 43.7594C63.1 47.4563 61.7656 50.5844 59.25 52.8156C56.9313 54.85 53.7813 55.9875 50.4125 55.9875Z" fill="url(#paint2_linear_576_10462)"/>
<path d="M60.8885 36.4903C62.0544 38.3716 62.6625 40.6116 62.6625 43.1031C62.6625 46.8 61.3281 49.9281 58.8125 52.1594C56.4938 54.1937 53.3438 55.3312 49.975 55.3312C46.0244 55.3312 41.8813 53.7234 39.4356 50.3131C41.7894 54.1762 46.2169 55.9875 50.4125 55.9875C53.7813 55.9875 56.9313 54.85 59.25 52.8156C61.7656 50.5844 63.1 47.4562 63.1 43.7594C63.1 40.9725 62.341 38.4962 60.8885 36.4903V36.4903Z" fill="#EB8F00"/>
<path d="M50.5 54.0034C49.1831 53.9947 48.1178 52.9294 48.1091 51.6125V48.8562C48.1091 47.535 49.1788 46.4653 50.5 46.4653C51.8213 46.4653 52.8909 47.535 52.8909 48.8562V51.6147C52.8822 52.9316 51.8169 53.9947 50.5 54.0034Z" fill="#422B0D"/>
<path d="M45.9697 39.1481C46.4159 39.1481 46.8534 39.2772 47.2297 39.5178C48.4634 40.2987 48.9797 42.1428 47.9844 44.0481C47.2975 45.3606 46.265 45.9666 45.2872 45.9666C44.8405 45.9661 44.4033 45.8378 44.0272 45.5969C42.7934 44.8159 42.2772 42.9719 43.2725 41.0666C43.9594 39.7541 44.9897 39.1481 45.9697 39.1481Z" fill="white"/>
<path opacity="0.66" d="M62.5181 45.9687C62.2184 45.75 62.2556 45.5072 61.4244 45.8419C61.0809 45.9819 60.6872 46.7694 60.6872 46.7694C60.6872 46.7694 60.0944 45.5837 58.9219 47.1609C56.7912 50.0222 55.8594 49.8909 54.6059 51.2034C53.7987 52.0434 53.1009 52.8441 53.37 54.4344C53.5209 55.3225 53.9431 55.5653 53.9431 55.5653C53.9431 55.5653 54.2012 55.5653 56.7344 54.2528C59.2675 52.9403 61.4791 51.0831 62.6953 48.1081" fill="url(#paint3_linear_576_10462)"/>
<path d="M55.6931 51.77C56.6447 51.0481 57.5634 50.3853 57.9965 49.8144C58.4297 49.2434 58.8956 48.0469 59.1756 47.2637C59.4556 46.4806 60.2694 46.0978 60.7069 46.7672C60.8206 46.9466 60.7309 47.6422 60.7069 47.9091C60.9453 47.5131 61.1137 47.0778 61.2056 46.625C61.4244 45.5575 62.54 45.2119 62.7369 46.6469C62.7369 46.6469 63.5659 46.6797 63.1984 49.2522C63.0147 50.2541 62.6844 51.2253 62.214 52.1287C61.035 54.3512 60.1119 55.3816 58.9175 56.1997C57.0494 57.4772 55.2797 57.1731 54.7262 56.4469C53.7812 55.1978 54.035 53.0278 55.6931 51.77Z" fill="url(#paint4_radial_576_10462)"/>
<path d="M60.6981 46.7672C60.6981 47.1937 60.2869 48.6791 60.1316 49.0597C59.5956 50.4706 58.6178 51.1269 58.8912 51.35C59.1647 51.5731 59.6875 51.0984 60.4422 49.3069C60.6741 48.6966 60.8097 48.0556 60.8403 47.4037C60.8381 47.1828 60.79 46.9662 60.6981 46.7672ZM62.1375 45.6866C62.4153 45.8069 62.8287 46.5987 62.2097 48.8169C61.8269 50.4925 60.5537 51.7962 60.86 51.9428C61.2209 52.1856 62.0456 50.8184 62.6297 48.9241C62.7828 48.3509 62.8791 47.7647 62.9119 47.1741C62.9206 46.8766 62.82 45.7675 62.1375 45.6866Z" fill="#ED6C30"/>
<path opacity="0.66" d="M38.3659 45.9687C38.6656 45.75 38.6284 45.5072 39.4597 45.8419C39.8031 45.9819 40.1969 46.7694 40.1969 46.7694C40.1969 46.7694 40.7897 45.5837 41.9622 47.1609C44.0928 50.0222 45.0247 49.8909 46.2781 51.2034C47.0831 52.0434 47.7809 52.8441 47.5119 54.4344C47.3631 55.3225 46.9409 55.5653 46.9409 55.5653C46.9409 55.5653 46.5209 55.5653 44.5063 54.5372C44.3334 54.4497 44.3488 54.36 44.1497 54.255C41.6166 52.9425 39.405 51.0853 38.1888 48.1103" fill="url(#paint5_linear_576_10462)"/>
<path d="M45.191 51.77C44.2394 51.0481 43.3206 50.3853 42.8875 49.8144C42.4544 49.2434 41.9884 48.0469 41.7063 47.2637C41.4241 46.4806 40.6125 46.0978 40.186 46.7672C40.0722 46.9466 40.1619 47.6422 40.186 47.9091C39.9453 47.5131 39.7725 47.0778 39.6784 46.625C39.4597 45.5575 38.3441 45.2119 38.1472 46.6469C38.1472 46.6469 37.3181 46.6797 37.6856 49.2522C37.8694 50.2541 38.1997 51.2253 38.67 52.1287C39.8469 54.3512 40.7722 55.3816 41.9666 56.1997C43.8325 57.4772 45.6022 57.1731 46.1578 56.4469C47.0963 55.1978 46.8491 53.0278 45.191 51.77Z" fill="url(#paint6_radial_576_10462)"/>
<path d="M40.1859 46.7672C40.1859 47.1937 40.5972 48.6791 40.7525 49.0597C41.2884 50.4706 42.2641 51.1269 41.9928 51.35C41.7216 51.5731 41.1944 51.0984 40.4397 49.3069C40.2079 48.6974 40.0743 48.0551 40.0437 47.4037C40.0437 47.1828 40.0919 46.9662 40.1859 46.7672ZM38.7444 45.6866C38.4687 45.8069 38.0553 46.5987 38.6744 48.8125C39.0572 50.4881 40.3303 51.7919 40.0241 51.9384C39.6631 52.1812 38.8384 50.8141 38.2544 48.9197C38.1012 48.3466 38.005 47.7603 37.9722 47.1697C37.9634 46.8766 38.0641 45.7675 38.7444 45.6866Z" fill="#ED6C30"/>
<path d="M48.0128 44.0634C47.8513 44.6341 47.5506 45.1557 47.1378 45.5816C46.6918 46.0425 46.1041 46.3406 45.4687 46.4281C44.7884 46.5134 44.0994 46.3362 43.5437 45.9359C42.9969 45.5378 42.5856 44.9778 42.3691 44.3369C42.3187 44.1816 42.2772 44.0219 42.2466 43.86C42.2181 43.7003 42.1984 43.5384 42.1875 43.3766L42.1722 43.125L42.1831 42.8844C42.1897 42.7247 42.2072 42.5672 42.2378 42.4097C42.3581 41.8059 42.5966 41.2306 42.9378 40.7187C43.2684 40.1965 43.7183 39.7602 44.2503 39.4456C44.7687 39.1328 45.3834 39.0191 45.9806 39.1241V39.1875C45.4272 39.1984 44.8891 39.3866 44.4494 39.7234C44.0119 40.0581 43.6509 40.4847 43.3906 40.9703C43.1179 41.4469 42.9326 41.9684 42.8437 42.5103C42.7606 43.0528 42.8066 43.6062 42.9794 44.1269C43.1456 44.6475 43.4672 45.1069 43.9025 45.4394C44.3378 45.7784 44.8825 45.9469 45.4337 45.9119C45.9806 45.8725 46.5034 45.6625 46.9256 45.3125C47.3522 44.9603 47.7022 44.5272 47.9559 44.035L48.0128 44.0634Z" fill="#EB8F00"/>
<path d="M55.0522 39.1481C56.0322 39.1481 57.0625 39.7606 57.7494 41.0666C58.7491 42.9631 58.2285 44.8159 56.9947 45.5969C56.6185 45.8397 56.181 45.9688 55.7347 45.9688C54.7569 45.9688 53.7244 45.3563 53.0375 44.0503C52.0313 42.1516 52.5585 40.2987 53.7922 39.5178C54.1683 39.2769 54.6055 39.1486 55.0522 39.1481Z" fill="white"/>
<path d="M55.0522 39.1153C55.6494 39.0103 56.2641 39.1241 56.7825 39.4369C57.3145 39.7515 57.7644 40.1878 58.095 40.71C58.4384 41.2284 58.6769 41.8081 58.795 42.4184C58.8234 42.5759 58.8431 42.7334 58.8497 42.8931V43.3766C58.8366 43.7025 58.7753 44.0263 58.6703 44.3369C58.4538 44.9778 58.0447 45.5356 57.4956 45.9337C56.9403 46.3358 56.253 46.5117 55.5728 46.4259C54.9319 46.3406 54.3391 46.0431 53.8906 45.5794C53.4767 45.1553 53.1758 44.634 53.0156 44.0634L53.0725 44.0328C53.3241 44.5228 53.6719 44.9581 54.0963 45.3125C54.5206 45.6647 55.0434 45.8747 55.5925 45.9141C56.1437 45.9491 56.6884 45.7806 57.1238 45.4416C57.5569 45.1069 57.8784 44.6497 58.0447 44.1291C58.2175 43.6084 58.2634 43.055 58.1803 42.5125C58.095 41.97 57.9134 41.445 57.6422 40.9659C57.382 40.4797 57.021 40.0546 56.5834 39.7191C56.1437 39.3822 55.6056 39.1941 55.0522 39.1831V39.1153Z" fill="#EB8F00"/>
<defs>
<radialGradient id="paint0_radial_576_10462" cx="0" cy="0" r="1" gradientUnits="userSpaceOnUse" gradientTransform="translate(50.4125 43.7594) scale(12.46)">
<stop offset="0.5" stop-color="#FDE030"/>
<stop offset="0.92" stop-color="#F7C02B"/>
<stop offset="1" stop-color="#F4A223"/>
</radialGradient>
<linearGradient id="paint1_linear_576_10462" x1="50.4125" y1="55.9875" x2="50.4125" y2="31.5312" gradientUnits="userSpaceOnUse">
<stop offset="0.39" stop-color="#40C0E7" stop-opacity="0"/>
<stop offset="1" stop-color="#5F7AFF"/>
</linearGradient>
<linearGradient id="paint2_linear_576_10462" x1="50.4125" y1="55.9875" x2="50.4125" y2="31.5312" gradientUnits="userSpaceOnUse">
<stop offset="0.16" stop-color="#F4A223"/>
<stop offset="0.33" stop-color="#F7C02B"/>
<stop offset="0.81" stop-color="#FDE030" stop-opacity="0"/>
</linearGradient>
<linearGradient id="paint3_linear_576_10462" x1="58.0033" y1="57.9606" x2="58.0033" y2="47.0887" gradientUnits="userSpaceOnUse">
<stop stop-color="#ED6C30"/>
<stop offset="1" stop-color="#ED6C30" stop-opacity="0.2"/>
</linearGradient>
<radialGradient id="paint4_radial_576_10462" cx="0" cy="0" r="1" gradientUnits="userSpaceOnUse" gradientTransform="translate(56.5158 50.6241) rotate(141.52) scale(9.77773 9.01151)">
<stop offset="0.27" stop-color="#FFF176"/>
<stop offset="1" stop-color="#FFC400"/>
</radialGradient>
<linearGradient id="paint5_linear_576_10462" x1="42.8796" y1="57.9606" x2="42.8796" y2="47.0887" gradientUnits="userSpaceOnUse">
<stop stop-color="#ED6C30"/>
<stop offset="1" stop-color="#ED6C30" stop-opacity="0.2"/>
</linearGradient>
<radialGradient id="paint6_radial_576_10462" cx="0" cy="0" r="1" gradientUnits="userSpaceOnUse" gradientTransform="translate(44.3574 50.6077) rotate(38.4802) scale(9.77773 9.01151)">
<stop offset="0.27" stop-color="#FFF176"/>
<stop offset="1" stop-color="#FFC400"/>
</radialGradient>
</defs>
</svg>
