<svg width="137" height="100" viewBox="0 0 137 100" fill="none" xmlns="http://www.w3.org/2000/svg">
<mask id="path-1-inside-1_576_10461" fill="white">
<path fill-rule="evenodd" clip-rule="evenodd" d="M87.5 0C86.9477 0 86.5029 0.448498 86.4727 0.999957C85.9538 10.476 78.1056 18 68.5 18C58.8944 18 51.0462 10.476 50.5273 0.999955C50.4971 0.448497 50.0523 0 49.5 0L22.5 0C20.2909 0 18.5 1.79086 18.5 4L18.5 31C18.5 31.5523 18.0515 31.9971 17.5 32.0273C8.02403 32.5462 0.5 40.3944 0.5 50C0.5 59.6056 8.02403 67.4538 17.5 67.9727C18.0515 68.0029 18.5 68.4477 18.5 69L18.5 96C18.5 98.2091 20.2909 100 22.5 100L49.5 100C50.0523 100 50.4971 99.5515 50.5273 99C51.0462 89.524 58.8944 82 68.5 82C78.1056 82 85.9538 89.524 86.4727 99C86.5029 99.5515 86.9477 100 87.5 100H114.5C116.709 100 118.5 98.2091 118.5 96L118.5 69C118.5 68.4477 118.949 68.0029 119.5 67.9727C128.976 67.4538 136.5 59.6056 136.5 50C136.5 40.3944 128.976 32.5462 119.5 32.0273C118.948 31.9971 118.5 31.5523 118.5 31L118.5 4C118.5 1.79086 116.709 0 114.5 0L87.5 0Z"/>
</mask>
<path fill-rule="evenodd" clip-rule="evenodd" d="M87.5 0C86.9477 0 86.5029 0.448498 86.4727 0.999957C85.9538 10.476 78.1056 18 68.5 18C58.8944 18 51.0462 10.476 50.5273 0.999955C50.4971 0.448497 50.0523 0 49.5 0L22.5 0C20.2909 0 18.5 1.79086 18.5 4L18.5 31C18.5 31.5523 18.0515 31.9971 17.5 32.0273C8.02403 32.5462 0.5 40.3944 0.5 50C0.5 59.6056 8.02403 67.4538 17.5 67.9727C18.0515 68.0029 18.5 68.4477 18.5 69L18.5 96C18.5 98.2091 20.2909 100 22.5 100L49.5 100C50.0523 100 50.4971 99.5515 50.5273 99C51.0462 89.524 58.8944 82 68.5 82C78.1056 82 85.9538 89.524 86.4727 99C86.5029 99.5515 86.9477 100 87.5 100H114.5C116.709 100 118.5 98.2091 118.5 96L118.5 69C118.5 68.4477 118.949 68.0029 119.5 67.9727C128.976 67.4538 136.5 59.6056 136.5 50C136.5 40.3944 128.976 32.5462 119.5 32.0273C118.948 31.9971 118.5 31.5523 118.5 31L118.5 4C118.5 1.79086 116.709 0 114.5 0L87.5 0Z" fill="#374151" fill-opacity="0.4"/>
<path d="M18.5 4L17.5 4L18.5 4ZM18.5 96H17.5H18.5ZM114.5 100V101V100ZM119.5 32.0273L119.555 31.0288L119.5 32.0273ZM119.5 67.9727L119.555 68.9712L119.5 67.9727ZM50.5273 99L51.5258 99.0547L50.5273 99ZM18.5 31H17.5H18.5ZM17.5 32.0273L17.4454 31.0288L17.5 32.0273ZM17.5 67.9727L17.4454 68.9712L17.5 67.9727ZM18.5 69H17.5H18.5ZM86.4727 99L85.4742 99.0547L86.4727 99ZM86.4727 0.999957L85.4742 0.945284L86.4727 0.999957ZM68.5 19C78.6395 19 86.9235 11.058 87.4712 1.05463L85.4742 0.945284C84.9842 9.89398 77.5716 17 68.5 17V19ZM49.5288 1.05463C50.0765 11.058 58.3604 19 68.5 19V17C59.4284 17 52.0158 9.89397 51.5258 0.945282L49.5288 1.05463ZM22.5 1L49.5 1V-1L22.5 -1V1ZM19.5 4C19.5 2.34315 20.8431 1 22.5 1V-1C19.7386 -1 17.5 1.23858 17.5 4L19.5 4ZM19.5 31L19.5 4L17.5 4L17.5 31H19.5ZM1.5 50C1.5 40.9284 8.60602 33.5158 17.5547 33.0258L17.4454 31.0288C7.44204 31.5765 -0.5 39.8604 -0.5 50H1.5ZM17.5547 66.9742C8.60603 66.4842 1.5 59.0716 1.5 50H-0.5C-0.5 60.1396 7.44204 68.4235 17.4454 68.9712L17.5547 66.9742ZM19.5 96L19.5 69H17.5L17.5 96H19.5ZM22.5 99C20.8431 99 19.5 97.6569 19.5 96H17.5C17.5 98.7614 19.7386 101 22.5 101L22.5 99ZM49.5 99L22.5 99L22.5 101L49.5 101V99ZM68.5 81C58.3604 81 50.0765 88.942 49.5288 98.9454L51.5258 99.0547C52.0158 90.106 59.4284 83 68.5 83V81ZM87.4712 98.9454C86.9235 88.942 78.6395 81 68.5 81V83C77.5716 83 84.9842 90.106 85.4742 99.0547L87.4712 98.9454ZM114.5 99H87.5V101H114.5V99ZM117.5 96C117.5 97.6569 116.157 99 114.5 99V101C117.261 101 119.5 98.7614 119.5 96H117.5ZM117.5 69L117.5 96H119.5L119.5 69H117.5ZM135.5 50C135.5 59.0716 128.394 66.4842 119.445 66.9742L119.555 68.9712C129.558 68.4235 137.5 60.1396 137.5 50H135.5ZM119.445 33.0258C128.394 33.5158 135.5 40.9284 135.5 50H137.5C137.5 39.8604 129.558 31.5765 119.555 31.0288L119.445 33.0258ZM117.5 4L117.5 31H119.5L119.5 4H117.5ZM114.5 1C116.157 1 117.5 2.34315 117.5 4H119.5C119.5 1.23858 117.261 -1 114.5 -1V1ZM87.5 1L114.5 1V-1L87.5 -1V1ZM119.555 31.0288C119.533 31.0276 119.516 31.0187 119.506 31.0081C119.501 31.0033 119.5 31.0001 119.5 30.9999C119.5 30.9998 119.5 31.0001 119.5 31.0007C119.5 31.0012 119.5 31.0012 119.5 31H117.5C117.5 32.1183 118.399 32.9685 119.445 33.0258L119.555 31.0288ZM119.5 69C119.5 68.9988 119.5 68.9988 119.5 68.9994C119.5 68.9999 119.5 69.0002 119.5 69.0001C119.5 68.9999 119.501 68.9967 119.506 68.9919C119.516 68.9813 119.533 68.9724 119.555 68.9712L119.445 66.9742C118.399 67.0315 117.5 67.8817 117.5 69H119.5ZM49.5 101C50.6183 101 51.4685 100.101 51.5258 99.0547L49.5288 98.9454C49.5276 98.9667 49.5187 98.9836 49.5081 98.994C49.5033 98.9987 49.5001 99.0002 49.4999 99.0002C49.4998 99.0003 49.5001 99.0001 49.5006 99C49.5012 98.9999 49.5012 99 49.5 99V101ZM17.5 31C17.5 31.0012 17.4999 31.0012 17.5 31.0006C17.5001 31.0001 17.5003 30.9998 17.5002 30.9999C17.5002 31.0001 17.4987 31.0033 17.494 31.0081C17.4836 31.0187 17.4667 31.0276 17.4454 31.0288L17.5547 33.0258C18.6008 32.9685 19.5 32.1183 19.5 31H17.5ZM17.4454 68.9712C17.4667 68.9724 17.4836 68.9813 17.494 68.9919C17.4987 68.9967 17.5002 68.9999 17.5002 69.0001C17.5003 69.0002 17.5001 68.9999 17.5 68.9994C17.4999 68.9988 17.5 68.9988 17.5 69H19.5C19.5 67.8817 18.6008 67.0315 17.5547 66.9742L17.4454 68.9712ZM51.5258 0.945282C51.4685 -0.100789 50.6183 -1 49.5 -1V1C49.5012 1 49.5012 1.0001 49.5006 0.999977C49.5001 0.999868 49.4998 0.999738 49.4999 0.999766C49.5001 0.999846 49.5033 1.00127 49.5081 1.006C49.5187 1.0164 49.5276 1.03335 49.5288 1.05463L51.5258 0.945282ZM85.4742 99.0547C85.5315 100.101 86.3817 101 87.5 101V99C87.4988 99 87.4988 98.9999 87.4994 99C87.4999 99.0001 87.5002 99.0003 87.5001 99.0002C87.4999 99.0002 87.4967 98.9987 87.4919 98.994C87.4813 98.9836 87.4724 98.9667 87.4712 98.9454L85.4742 99.0547ZM87.4712 1.05463C87.4724 1.03335 87.4813 1.0164 87.4919 1.006C87.4967 1.00127 87.4999 0.999846 87.5001 0.999766C87.5002 0.999738 87.4999 0.999868 87.4994 0.999977C87.4988 1.0001 87.4988 1 87.5 1V-1C86.3817 -1 85.5315 -0.100786 85.4742 0.945284L87.4712 1.05463Z" fill="#374151" mask="url(#path-1-inside-1_576_10461)"/>
<path d="M55.6114 71.108C55.0434 71.108 54.5514 70.984 54.1354 70.736C53.7194 70.488 53.3954 70.14 53.1634 69.692C52.9394 69.236 52.8274 68.7 52.8274 68.084C52.8274 67.62 52.8914 67.204 53.0194 66.836C53.1474 66.46 53.3354 66.14 53.5834 65.876C53.8314 65.612 54.1234 65.412 54.4594 65.276C54.8034 65.132 55.1874 65.06 55.6114 65.06C56.1794 65.06 56.6714 65.184 57.0874 65.432C57.5034 65.68 57.8234 66.032 58.0474 66.488C58.2794 66.936 58.3954 67.468 58.3954 68.084C58.3954 68.548 58.3314 68.964 58.2034 69.332C58.0754 69.7 57.8874 70.02 57.6394 70.292C57.3914 70.556 57.0954 70.76 56.7514 70.904C56.4154 71.04 56.0354 71.108 55.6114 71.108ZM55.6114 70.328C55.9714 70.328 56.2874 70.24 56.5594 70.064C56.8314 69.888 57.0394 69.632 57.1834 69.296C57.3354 68.96 57.4114 68.556 57.4114 68.084C57.4114 67.356 57.2474 66.8 56.9194 66.416C56.5994 66.032 56.1634 65.84 55.6114 65.84C55.2434 65.84 54.9234 65.928 54.6514 66.104C54.3874 66.272 54.1794 66.524 54.0274 66.86C53.8834 67.188 53.8114 67.596 53.8114 68.084C53.8114 68.804 53.9754 69.36 54.3034 69.752C54.6314 70.136 55.0674 70.328 55.6114 70.328ZM60.3354 71.084C60.1754 71.084 60.0554 71.04 59.9754 70.952C59.8954 70.864 59.8554 70.74 59.8554 70.58V62.948C59.8554 62.788 59.8954 62.668 59.9754 62.588C60.0554 62.5 60.1754 62.456 60.3354 62.456C60.4874 62.456 60.6074 62.5 60.6954 62.588C60.7834 62.668 60.8274 62.788 60.8274 62.948V66.464H60.6714C60.8394 66 61.1114 65.652 61.4874 65.42C61.8714 65.18 62.3114 65.06 62.8074 65.06C63.2714 65.06 63.6554 65.144 63.9594 65.312C64.2714 65.48 64.5034 65.736 64.6554 66.08C64.8074 66.416 64.8834 66.844 64.8834 67.364V70.58C64.8834 70.74 64.8394 70.864 64.7514 70.952C64.6714 71.04 64.5554 71.084 64.4034 71.084C64.2434 71.084 64.1194 71.04 64.0314 70.952C63.9514 70.864 63.9114 70.74 63.9114 70.58V67.424C63.9114 66.88 63.8034 66.484 63.5874 66.236C63.3794 65.98 63.0434 65.852 62.5794 65.852C62.0434 65.852 61.6154 66.02 61.2954 66.356C60.9834 66.684 60.8274 67.124 60.8274 67.676V70.58C60.8274 70.916 60.6634 71.084 60.3354 71.084ZM68.5117 71.108C68.1117 71.108 67.7517 71.032 67.4317 70.88C67.1197 70.72 66.8717 70.504 66.6877 70.232C66.5037 69.96 66.4117 69.656 66.4117 69.32C66.4117 68.888 66.5197 68.548 66.7357 68.3C66.9597 68.052 67.3237 67.876 67.8277 67.772C68.3397 67.668 69.0357 67.616 69.9157 67.616H70.4557V68.252H69.9277C69.2797 68.252 68.7677 68.284 68.3917 68.348C68.0237 68.404 67.7637 68.504 67.6117 68.648C67.4677 68.792 67.3957 68.996 67.3957 69.26C67.3957 69.588 67.5077 69.856 67.7317 70.064C67.9637 70.272 68.2757 70.376 68.6677 70.376C68.9877 70.376 69.2677 70.3 69.5077 70.148C69.7557 69.996 69.9477 69.788 70.0837 69.524C70.2277 69.26 70.2997 68.956 70.2997 68.612V67.244C70.2997 66.748 70.1997 66.392 69.9997 66.176C69.7997 65.952 69.4717 65.84 69.0157 65.84C68.7357 65.84 68.4557 65.876 68.1757 65.948C67.8957 66.02 67.5997 66.136 67.2877 66.296C67.1757 66.352 67.0797 66.372 66.9997 66.356C66.9197 66.332 66.8557 66.288 66.8077 66.224C66.7597 66.16 66.7317 66.088 66.7237 66.008C66.7157 65.92 66.7317 65.836 66.7717 65.756C66.8197 65.676 66.8917 65.612 66.9877 65.564C67.3397 65.388 67.6877 65.26 68.0317 65.18C68.3757 65.1 68.7037 65.06 69.0157 65.06C69.5197 65.06 69.9357 65.144 70.2637 65.312C70.5917 65.472 70.8357 65.72 70.9957 66.056C71.1557 66.384 71.2357 66.808 71.2357 67.328V70.58C71.2357 70.74 71.1957 70.864 71.1157 70.952C71.0437 71.04 70.9357 71.084 70.7917 71.084C70.6397 71.084 70.5237 71.04 70.4437 70.952C70.3637 70.864 70.3237 70.74 70.3237 70.58V69.644H70.4317C70.3677 69.948 70.2437 70.208 70.0597 70.424C69.8837 70.64 69.6637 70.808 69.3997 70.928C69.1357 71.048 68.8397 71.108 68.5117 71.108ZM75.007 71.108C74.647 71.108 74.283 71.064 73.915 70.976C73.555 70.888 73.219 70.736 72.907 70.52C72.827 70.464 72.771 70.4 72.739 70.328C72.707 70.248 72.695 70.172 72.703 70.1C72.719 70.02 72.751 69.952 72.799 69.896C72.855 69.84 72.919 69.808 72.991 69.8C73.071 69.784 73.159 69.8 73.255 69.848C73.567 70.04 73.867 70.176 74.155 70.256C74.451 70.328 74.743 70.364 75.031 70.364C75.487 70.364 75.831 70.28 76.063 70.112C76.295 69.944 76.411 69.716 76.411 69.428C76.411 69.204 76.335 69.028 76.183 68.9C76.031 68.764 75.791 68.66 75.463 68.588L74.371 68.348C73.867 68.244 73.491 68.064 73.243 67.808C73.003 67.552 72.883 67.22 72.883 66.812C72.883 66.452 72.975 66.144 73.159 65.888C73.351 65.624 73.619 65.42 73.963 65.276C74.307 65.132 74.707 65.06 75.163 65.06C75.515 65.06 75.847 65.108 76.159 65.204C76.479 65.292 76.767 65.436 77.023 65.636C77.103 65.692 77.155 65.76 77.179 65.84C77.211 65.912 77.215 65.988 77.191 66.068C77.175 66.14 77.139 66.204 77.083 66.26C77.027 66.308 76.959 66.336 76.879 66.344C76.799 66.352 76.715 66.328 76.627 66.272C76.387 66.112 76.143 65.996 75.895 65.924C75.647 65.844 75.403 65.804 75.163 65.804C74.715 65.804 74.375 65.892 74.143 66.068C73.911 66.244 73.795 66.476 73.795 66.764C73.795 66.988 73.867 67.172 74.011 67.316C74.155 67.46 74.379 67.564 74.683 67.628L75.775 67.856C76.295 67.968 76.683 68.148 76.939 68.396C77.203 68.636 77.335 68.964 77.335 69.38C77.335 69.908 77.123 70.328 76.699 70.64C76.275 70.952 75.711 71.108 75.007 71.108ZM79.2963 71.084C79.1363 71.084 79.0163 71.04 78.9363 70.952C78.8563 70.864 78.8163 70.74 78.8163 70.58V62.948C78.8163 62.788 78.8563 62.668 78.9363 62.588C79.0163 62.5 79.1363 62.456 79.2963 62.456C79.4483 62.456 79.5683 62.5 79.6563 62.588C79.7443 62.668 79.7883 62.788 79.7883 62.948V66.464H79.6323C79.8003 66 80.0723 65.652 80.4483 65.42C80.8323 65.18 81.2723 65.06 81.7683 65.06C82.2323 65.06 82.6163 65.144 82.9203 65.312C83.2323 65.48 83.4643 65.736 83.6163 66.08C83.7683 66.416 83.8443 66.844 83.8443 67.364V70.58C83.8443 70.74 83.8003 70.864 83.7123 70.952C83.6323 71.04 83.5163 71.084 83.3643 71.084C83.2043 71.084 83.0803 71.04 82.9923 70.952C82.9123 70.864 82.8723 70.74 82.8723 70.58V67.424C82.8723 66.88 82.7643 66.484 82.5483 66.236C82.3403 65.98 82.0043 65.852 81.5403 65.852C81.0043 65.852 80.5763 66.02 80.2563 66.356C79.9443 66.684 79.7883 67.124 79.7883 67.676V70.58C79.7883 70.916 79.6243 71.084 79.2963 71.084Z" fill="#F9FAFB"/>
<path d="M56.4534 45.8494C56.3375 45.5759 56.2259 45.3025 56.1166 45.0291C55.2919 42.9487 56.3266 41.0719 57.2497 39.2344L58.5884 36.5744C58.8575 36.0384 59.2709 35.5878 59.7784 35.2728L63.6284 32.8841L67.4325 28.9509C67.6686 28.7059 67.97 28.5336 68.3009 28.4544L70.8909 27.8288C72.1444 27.5291 72.6825 27.5772 73.0872 28.1525C74.4894 30.1431 75.4278 31.7816 76.6769 33.7656C77.3572 34.8463 78.9278 37.3291 79.0263 37.4931C79.3281 38.0006 79.2056 38.425 79.1947 39.0069C79.1684 40.3478 79.4047 41.6953 79.8947 42.9444C80.0413 43.3162 80.2097 43.6837 80.2863 44.0753C80.3563 44.4275 80.2622 46.6653 80.19 47.4222C80.1309 48.0369 78.6784 50.3316 78.1578 50.6094C77.5847 50.9156 73.3366 52.4775 72.3981 52.7444C71.4597 53.0113 67.3909 52.0816 65.2778 51.7578C63.9719 51.5587 62.6638 51.3575 61.3578 51.1584C60.2247 50.9856 59.0981 51.1169 58.4638 49.9728C57.7178 48.6341 57.0484 47.2581 56.4534 45.8494Z" fill="url(#paint0_linear_576_10461)"/>
<path d="M61.3556 51.1562C62.6616 51.3553 63.9697 51.5566 65.2756 51.7556C65.9559 51.8606 66.8397 52.0269 67.7562 52.1975C67.1394 51.4669 66.2184 50.6006 65.6016 49.87C65.4681 49.7125 65.3325 49.5484 65.2844 49.3472C65.2341 49.1328 65.2909 48.9119 65.35 48.6997C65.5381 48.0041 65.5862 47.2494 65.7744 46.5537C64.6084 46.825 61.9222 47.3412 61.7012 47.2778C61.4562 47.2078 61.2572 47.0306 61.0669 46.8578C59.6822 45.5934 58.5994 44.3181 57.5406 42.7759C57.4159 42.5944 57.2891 42.4063 57.2431 42.1897C57.1994 41.9863 57.2322 41.7763 57.265 41.5728C57.3437 41.0653 57.5187 39.6588 57.6587 38.4184L57.2475 39.2344C56.3266 41.0719 55.2919 42.9487 56.1187 45.0291C56.2281 45.3047 56.3397 45.5781 56.4556 45.8494C57.049 47.2578 57.7187 48.6328 58.4616 49.9684C59.0937 51.1147 60.2225 50.9834 61.3556 51.1562Z" fill="url(#paint1_linear_576_10461)"/>
<path d="M73.1047 28.1766C72.8356 27.8594 72.3106 27.9206 71.7594 28.4237L69.7775 30.4056C69.655 30.5281 69.5894 30.6966 69.6003 30.8694L69.8125 34.9162C69.8191 35.0519 69.8694 35.1787 69.9569 35.2816C70.6612 36.1041 73.1506 40.0569 73.8725 40.0569C74.5922 40.0569 75.85 37.2525 76.4909 37.2678C76.6003 37.27 77.1712 37.305 77.7291 37.4756C78.2497 37.6331 78.4531 36.9178 78.3459 36.4103C77.8078 35.5572 77.0837 34.4131 76.6769 33.7656C75.4322 31.7903 74.4959 30.1562 73.1047 28.1766Z" fill="url(#paint2_linear_576_10461)"/>
<path d="M63.8822 36.1434C64.6106 36.0341 67.0409 35.6206 67.4981 35.4412C68.3906 35.0891 69.1781 33.5884 69.6988 32.7812C69.6988 32.7812 69.8781 35.4128 69.6988 36.4409C69.5741 37.1562 69.1037 40.8969 68.6312 41.7937L65.7744 46.5537L61.5766 42.3559C61.22 41.9994 60.9925 41.8112 60.8634 41.3059C60.5681 40.1509 60.0322 38.4469 60.03 37.4428C60.0278 36.4388 62.7337 36.3141 63.8822 36.1434Z" fill="url(#paint3_linear_576_10461)"/>
<path d="M69.1913 30.5369C68.9113 30.2022 68.8325 29.7275 68.9288 29.3031C69.0097 28.9488 69.7447 28.2641 69.9831 28.0475L68.3009 28.4544C67.9704 28.5345 67.6692 28.7067 67.4325 28.9509L63.6284 32.8841C63.6284 32.8841 67.3122 31.3484 69.1913 30.5369Z" fill="url(#paint4_linear_576_10461)"/>
<path d="M79.8925 42.9444C79.5252 42.0067 79.2996 41.0195 79.2231 40.0153C77.9675 40.875 77.2653 41.9906 75.2441 42.2641C74.7081 42.3362 73.8791 42.4369 73.3562 42.5747C72.7087 42.7453 72.1094 43.2244 71.1381 43.3141C70.4469 43.3797 68.7034 43.3294 68.9659 43.7188C69.2284 44.1081 70.7925 44.8934 71.1819 45.2106C71.7353 45.6547 72.2166 46.1775 72.6781 46.7156C72.9187 46.9978 73.2797 47.6825 73.6997 47.8684C73.8069 47.9166 73.9206 47.9297 74.0344 47.8947C74.2334 47.8356 74.3931 47.6913 74.5484 47.5534C76.0543 46.2193 77.7471 45.1124 79.5731 44.2678C79.7678 44.1781 79.9778 44.0775 80.0741 43.885C80.1156 43.7997 80.1331 43.6837 80.1353 43.5591C80.0587 43.3534 79.9734 43.15 79.8925 42.9444Z" fill="url(#paint5_linear_576_10461)"/>
<path d="M80.284 44.0753C80.2556 43.9331 80.214 43.7931 80.1659 43.6553C80.1287 43.7844 80.0478 43.9266 79.8728 44.06C79.3697 44.445 77.4294 45.0378 75.2944 46.9081C73.9009 48.1287 73.8987 48.2928 73.599 49.6381C73.109 51.8409 72.3303 52.6416 72.1815 52.7772C72.2625 52.7684 72.3347 52.7575 72.3937 52.74C73.3344 52.4753 77.5803 50.9113 78.1534 50.605C78.674 50.3272 80.1265 48.0325 80.1856 47.4178C80.26 46.6653 80.354 44.4275 80.284 44.0753Z" fill="url(#paint6_linear_576_10461)"/>
<defs>
<linearGradient id="paint0_linear_576_10461" x1="73.666" y1="30.6025" x2="63.5886" y2="56.2059" gradientUnits="userSpaceOnUse">
<stop stop-color="#9E958E"/>
<stop offset="0.46" stop-color="#8E8884"/>
<stop offset="1" stop-color="#757575"/>
</linearGradient>
<linearGradient id="paint1_linear_576_10461" x1="56.4379" y1="52.28" x2="64.8187" y2="42.961" gradientUnits="userSpaceOnUse">
<stop stop-color="#37474F"/>
<stop offset="0.612" stop-color="#42565F" stop-opacity="0.192"/>
<stop offset="0.757" stop-color="#455A64" stop-opacity="0"/>
</linearGradient>
<linearGradient id="paint2_linear_576_10461" x1="76.2772" y1="40.5911" x2="70.8577" y2="28.5692" gradientUnits="userSpaceOnUse">
<stop stop-color="#9E958E"/>
<stop offset="0.442" stop-color="#AEA298"/>
<stop offset="1" stop-color="#C9B8A9"/>
</linearGradient>
<linearGradient id="paint3_linear_576_10461" x1="62.7036" y1="48.8692" x2="64.8911" y2="37.002" gradientUnits="userSpaceOnUse">
<stop stop-color="#4C5C64"/>
<stop offset="1" stop-color="#455A64" stop-opacity="0"/>
</linearGradient>
<linearGradient id="paint4_linear_576_10461" x1="63.6289" y1="30.466" x2="69.9836" y2="30.466" gradientUnits="userSpaceOnUse">
<stop stop-color="#4C5C64"/>
<stop offset="1" stop-color="#455A64" stop-opacity="0"/>
</linearGradient>
<linearGradient id="paint5_linear_576_10461" x1="73.5883" y1="42.7578" x2="81.1035" y2="45.8553" gradientUnits="userSpaceOnUse">
<stop stop-color="#9E958E"/>
<stop offset="0.25" stop-color="#AEA298"/>
<stop offset="0.566" stop-color="#C9B8A9"/>
</linearGradient>
<linearGradient id="paint6_linear_576_10461" x1="77.3913" y1="52.9843" x2="75.8513" y2="46.9097" gradientUnits="userSpaceOnUse">
<stop stop-color="#37474F"/>
<stop offset="0.808" stop-color="#42565F" stop-opacity="0.192"/>
<stop offset="1" stop-color="#455A64" stop-opacity="0"/>
</linearGradient>
</defs>
</svg>
