<svg width="136" height="100" viewBox="0 0 136 100" fill="none" xmlns="http://www.w3.org/2000/svg">
<mask id="path-1-inside-1_576_10461" fill="white">
<path fill-rule="evenodd" clip-rule="evenodd" d="M87 0C86.4477 0 86.0029 0.448498 85.9727 0.999957C85.4538 10.476 77.6056 18 68 18C58.3944 18 50.5462 10.476 50.0273 0.999955C49.9971 0.448497 49.5523 0 49 0L22 0C19.7909 0 18 1.79086 18 4L18 31C18 31.5523 17.5515 31.9971 17 32.0273C7.52403 32.5462 0 40.3944 0 50C0 59.6056 7.52403 67.4538 17 67.9727C17.5515 68.0029 18 68.4477 18 69L18 96C18 98.2091 19.7909 100 22 100L49 100C49.5523 100 49.9971 99.5515 50.0273 99C50.5462 89.524 58.3944 82 68 82C77.6056 82 85.4538 89.524 85.9727 99C86.0029 99.5515 86.4477 100 87 100H114C116.209 100 118 98.2091 118 96L118 69C118 68.4477 118.449 68.0029 119 67.9727C128.476 67.4538 136 59.6056 136 50C136 40.3944 128.476 32.5462 119 32.0273C118.448 31.9971 118 31.5523 118 31L118 4C118 1.79086 116.209 0 114 0L87 0Z"/>
</mask>
<path fill-rule="evenodd" clip-rule="evenodd" d="M87 0C86.4477 0 86.0029 0.448498 85.9727 0.999957C85.4538 10.476 77.6056 18 68 18C58.3944 18 50.5462 10.476 50.0273 0.999955C49.9971 0.448497 49.5523 0 49 0L22 0C19.7909 0 18 1.79086 18 4L18 31C18 31.5523 17.5515 31.9971 17 32.0273C7.52403 32.5462 0 40.3944 0 50C0 59.6056 7.52403 67.4538 17 67.9727C17.5515 68.0029 18 68.4477 18 69L18 96C18 98.2091 19.7909 100 22 100L49 100C49.5523 100 49.9971 99.5515 50.0273 99C50.5462 89.524 58.3944 82 68 82C77.6056 82 85.4538 89.524 85.9727 99C86.0029 99.5515 86.4477 100 87 100H114C116.209 100 118 98.2091 118 96L118 69C118 68.4477 118.449 68.0029 119 67.9727C128.476 67.4538 136 59.6056 136 50C136 40.3944 128.476 32.5462 119 32.0273C118.448 31.9971 118 31.5523 118 31L118 4C118 1.79086 116.209 0 114 0L87 0Z" fill="#374151" fill-opacity="0.4"/>
<path d="M18 4L17 4L18 4ZM18 96H17H18ZM114 100V101V100ZM119 32.0273L119.055 31.0288L119 32.0273ZM119 67.9727L119.055 68.9712L119 67.9727ZM50.0273 99L51.0258 99.0547L50.0273 99ZM18 31H17H18ZM17 32.0273L16.9454 31.0288L17 32.0273ZM17 67.9727L16.9454 68.9712L17 67.9727ZM18 69H17H18ZM85.9727 99L84.9742 99.0547L85.9727 99ZM85.9727 0.999957L84.9742 0.945284L85.9727 0.999957ZM68 19C78.1395 19 86.4235 11.058 86.9712 1.05463L84.9742 0.945284C84.4842 9.89398 77.0716 17 68 17V19ZM49.0288 1.05463C49.5765 11.058 57.8604 19 68 19V17C58.9284 17 51.5158 9.89397 51.0258 0.945282L49.0288 1.05463ZM22 1L49 1V-1L22 -1V1ZM19 4C19 2.34315 20.3431 1 22 1V-1C19.2386 -1 17 1.23858 17 4L19 4ZM19 31L19 4L17 4L17 31H19ZM1 50C1 40.9284 8.10602 33.5158 17.0547 33.0258L16.9454 31.0288C6.94204 31.5765 -1 39.8604 -1 50H1ZM17.0547 66.9742C8.10603 66.4842 1 59.0716 1 50H-1C-1 60.1396 6.94204 68.4235 16.9454 68.9712L17.0547 66.9742ZM19 96L19 69H17L17 96H19ZM22 99C20.3431 99 19 97.6569 19 96H17C17 98.7614 19.2386 101 22 101L22 99ZM49 99L22 99L22 101L49 101V99ZM68 81C57.8604 81 49.5765 88.942 49.0288 98.9454L51.0258 99.0547C51.5158 90.106 58.9284 83 68 83V81ZM86.9712 98.9454C86.4235 88.942 78.1395 81 68 81V83C77.0716 83 84.4842 90.106 84.9742 99.0547L86.9712 98.9454ZM114 99H87V101H114V99ZM117 96C117 97.6569 115.657 99 114 99V101C116.761 101 119 98.7614 119 96H117ZM117 69L117 96H119L119 69H117ZM135 50C135 59.0716 127.894 66.4842 118.945 66.9742L119.055 68.9712C129.058 68.4235 137 60.1396 137 50H135ZM118.945 33.0258C127.894 33.5158 135 40.9284 135 50H137C137 39.8604 129.058 31.5765 119.055 31.0288L118.945 33.0258ZM117 4L117 31H119L119 4H117ZM114 1C115.657 1 117 2.34315 117 4H119C119 1.23858 116.761 -1 114 -1V1ZM87 1L114 1V-1L87 -1V1ZM119.055 31.0288C119.033 31.0276 119.016 31.0187 119.006 31.0081C119.001 31.0033 119 31.0001 119 30.9999C119 30.9998 119 31.0001 119 31.0007C119 31.0012 119 31.0012 119 31H117C117 32.1183 117.899 32.9685 118.945 33.0258L119.055 31.0288ZM119 69C119 68.9988 119 68.9988 119 68.9994C119 68.9999 119 69.0002 119 69.0001C119 68.9999 119.001 68.9967 119.006 68.9919C119.016 68.9813 119.033 68.9724 119.055 68.9712L118.945 66.9742C117.899 67.0315 117 67.8817 117 69H119ZM49 101C50.1183 101 50.9685 100.101 51.0258 99.0547L49.0288 98.9454C49.0276 98.9667 49.0187 98.9836 49.0081 98.994C49.0033 98.9987 49.0001 99.0002 48.9999 99.0002C48.9998 99.0003 49.0001 99.0001 49.0006 99C49.0012 98.9999 49.0012 99 49 99V101ZM17 31C17 31.0012 16.9999 31.0012 17 31.0006C17.0001 31.0001 17.0003 30.9998 17.0002 30.9999C17.0002 31.0001 16.9987 31.0033 16.994 31.0081C16.9836 31.0187 16.9667 31.0276 16.9454 31.0288L17.0547 33.0258C18.1008 32.9685 19 32.1183 19 31H17ZM16.9454 68.9712C16.9667 68.9724 16.9836 68.9813 16.994 68.9919C16.9987 68.9967 17.0002 68.9999 17.0002 69.0001C17.0003 69.0002 17.0001 68.9999 17 68.9994C16.9999 68.9988 17 68.9988 17 69H19C19 67.8817 18.1008 67.0315 17.0547 66.9742L16.9454 68.9712ZM51.0258 0.945282C50.9685 -0.100789 50.1183 -1 49 -1V1C49.0012 1 49.0012 1.0001 49.0006 0.999977C49.0001 0.999868 48.9998 0.999738 48.9999 0.999766C49.0001 0.999846 49.0033 1.00127 49.0081 1.006C49.0187 1.0164 49.0276 1.03335 49.0288 1.05463L51.0258 0.945282ZM84.9742 99.0547C85.0315 100.101 85.8817 101 87 101V99C86.9988 99 86.9988 98.9999 86.9994 99C86.9999 99.0001 87.0002 99.0003 87.0001 99.0002C86.9999 99.0002 86.9967 98.9987 86.9919 98.994C86.9813 98.9836 86.9724 98.9667 86.9712 98.9454L84.9742 99.0547ZM86.9712 1.05463C86.9724 1.03335 86.9813 1.0164 86.9919 1.006C86.9967 1.00127 86.9999 0.999846 87.0001 0.999766C87.0002 0.999738 86.9999 0.999868 86.9994 0.999977C86.9988 1.0001 86.9988 1 87 1V-1C85.8817 -1 85.0315 -0.100786 84.9742 0.945284L86.9712 1.05463Z" fill="#374151" mask="url(#path-1-inside-1_576_10461)"/>
<path d="M50.8152 72.144C50.0579 72.144 49.4019 71.9787 48.8472 71.648C48.2925 71.3173 47.8605 70.8533 47.5512 70.256C47.2525 69.648 47.1032 68.9333 47.1032 68.112C47.1032 67.4933 47.1885 66.9387 47.3592 66.448C47.5299 65.9467 47.7805 65.52 48.1112 65.168C48.4419 64.816 48.8312 64.5493 49.2792 64.368C49.7379 64.176 50.2499 64.08 50.8152 64.08C51.5725 64.08 52.2285 64.2453 52.7832 64.576C53.3379 64.9067 53.7645 65.376 54.0632 65.984C54.3725 66.5813 54.5272 67.2907 54.5272 68.112C54.5272 68.7307 54.4419 69.2853 54.2712 69.776C54.1005 70.2667 53.8499 70.6933 53.5192 71.056C53.1885 71.408 52.7939 71.68 52.3352 71.872C51.8872 72.0533 51.3805 72.144 50.8152 72.144ZM50.8152 71.104C51.2952 71.104 51.7165 70.9867 52.0792 70.752C52.4419 70.5173 52.7192 70.176 52.9112 69.728C53.1139 69.28 53.2152 68.7413 53.2152 68.112C53.2152 67.1413 52.9965 66.4 52.5592 65.888C52.1325 65.376 51.5512 65.12 50.8152 65.12C50.3245 65.12 49.8979 65.2373 49.5352 65.472C49.1832 65.696 48.9059 66.032 48.7032 66.48C48.5112 66.9173 48.4152 67.4613 48.4152 68.112C48.4152 69.072 48.6339 69.8133 49.0712 70.336C49.5085 70.848 50.0899 71.104 50.8152 71.104ZM57.1138 72.112C56.9005 72.112 56.7405 72.0533 56.6338 71.936C56.5271 71.8187 56.4738 71.6533 56.4738 71.44V61.264C56.4738 61.0507 56.5271 60.8907 56.6338 60.784C56.7405 60.6667 56.9005 60.608 57.1138 60.608C57.3165 60.608 57.4765 60.6667 57.5938 60.784C57.7111 60.8907 57.7698 61.0507 57.7698 61.264V65.952H57.5618C57.7858 65.3333 58.1485 64.8693 58.6498 64.56C59.1618 64.24 59.7485 64.08 60.4098 64.08C61.0285 64.08 61.5405 64.192 61.9458 64.416C62.3618 64.64 62.6711 64.9813 62.8738 65.44C63.0765 65.888 63.1778 66.4587 63.1778 67.152V71.44C63.1778 71.6533 63.1191 71.8187 63.0018 71.936C62.8951 72.0533 62.7405 72.112 62.5378 72.112C62.3245 72.112 62.1591 72.0533 62.0418 71.936C61.9351 71.8187 61.8818 71.6533 61.8818 71.44V67.232C61.8818 66.5067 61.7378 65.9787 61.4498 65.648C61.1725 65.3067 60.7245 65.136 60.1058 65.136C59.3911 65.136 58.8205 65.36 58.3938 65.808C57.9778 66.2453 57.7698 66.832 57.7698 67.568V71.44C57.7698 71.888 57.5511 72.112 57.1138 72.112ZM68.0156 72.144C67.4822 72.144 67.0022 72.0427 66.5756 71.84C66.1596 71.6267 65.8289 71.3387 65.5836 70.976C65.3382 70.6133 65.2156 70.208 65.2156 69.76C65.2156 69.184 65.3596 68.7307 65.6476 68.4C65.9462 68.0693 66.4316 67.8347 67.1036 67.696C67.7862 67.5573 68.7142 67.488 69.8876 67.488H70.6076V68.336H69.9036C69.0396 68.336 68.3569 68.3787 67.8556 68.464C67.3649 68.5387 67.0182 68.672 66.8156 68.864C66.6236 69.056 66.5276 69.328 66.5276 69.68C66.5276 70.1173 66.6769 70.4747 66.9756 70.752C67.2849 71.0293 67.7009 71.168 68.2236 71.168C68.6502 71.168 69.0236 71.0667 69.3436 70.864C69.6742 70.6613 69.9302 70.384 70.1116 70.032C70.3036 69.68 70.3996 69.2747 70.3996 68.816V66.992C70.3996 66.3307 70.2662 65.856 69.9996 65.568C69.7329 65.2693 69.2956 65.12 68.6876 65.12C68.3142 65.12 67.9409 65.168 67.5676 65.264C67.1942 65.36 66.7996 65.5147 66.3836 65.728C66.2342 65.8027 66.1062 65.8293 65.9996 65.808C65.8929 65.776 65.8076 65.7173 65.7436 65.632C65.6796 65.5467 65.6422 65.4507 65.6316 65.344C65.6209 65.2267 65.6422 65.1147 65.6956 65.008C65.7596 64.9013 65.8556 64.816 65.9836 64.752C66.4529 64.5173 66.9169 64.3467 67.3756 64.24C67.8342 64.1333 68.2716 64.08 68.6876 64.08C69.3596 64.08 69.9142 64.192 70.3516 64.416C70.7889 64.6293 71.1142 64.96 71.3276 65.408C71.5409 65.8453 71.6476 66.4107 71.6476 67.104V71.44C71.6476 71.6533 71.5942 71.8187 71.4876 71.936C71.3916 72.0533 71.2476 72.112 71.0556 72.112C70.8529 72.112 70.6982 72.0533 70.5916 71.936C70.4849 71.8187 70.4316 71.6533 70.4316 71.44V70.192H70.5756C70.4902 70.5973 70.3249 70.944 70.0796 71.232C69.8449 71.52 69.5516 71.744 69.1996 71.904C68.8476 72.064 68.4529 72.144 68.0156 72.144ZM76.6759 72.144C76.1959 72.144 75.7106 72.0853 75.2199 71.968C74.7399 71.8507 74.2919 71.648 73.8759 71.36C73.7693 71.2853 73.6946 71.2 73.6519 71.104C73.6093 70.9973 73.5933 70.896 73.6039 70.8C73.6253 70.6933 73.6679 70.6027 73.7319 70.528C73.8066 70.4533 73.8919 70.4107 73.9879 70.4C74.0946 70.3787 74.2119 70.4 74.3399 70.464C74.7559 70.72 75.1559 70.9013 75.5399 71.008C75.9346 71.104 76.3239 71.152 76.7079 71.152C77.3159 71.152 77.7746 71.04 78.0839 70.816C78.3933 70.592 78.5479 70.288 78.5479 69.904C78.5479 69.6053 78.4466 69.3707 78.2439 69.2C78.0413 69.0187 77.7213 68.88 77.2839 68.784L75.8279 68.464C75.1559 68.3253 74.6546 68.0853 74.3239 67.744C74.0039 67.4027 73.8439 66.96 73.8439 66.416C73.8439 65.936 73.9666 65.5253 74.2119 65.184C74.4679 64.832 74.8253 64.56 75.2839 64.368C75.7426 64.176 76.2759 64.08 76.8839 64.08C77.3533 64.08 77.7959 64.144 78.2119 64.272C78.6386 64.3893 79.0226 64.5813 79.3639 64.848C79.4706 64.9227 79.5399 65.0133 79.5719 65.12C79.6146 65.216 79.6199 65.3173 79.5879 65.424C79.5666 65.52 79.5186 65.6053 79.4439 65.68C79.3693 65.744 79.2786 65.7813 79.1719 65.792C79.0653 65.8027 78.9533 65.7707 78.8359 65.696C78.5159 65.4827 78.1906 65.328 77.8599 65.232C77.5293 65.1253 77.2039 65.072 76.8839 65.072C76.2866 65.072 75.8333 65.1893 75.5239 65.424C75.2146 65.6587 75.0599 65.968 75.0599 66.352C75.0599 66.6507 75.1559 66.896 75.3479 67.088C75.5399 67.28 75.8386 67.4187 76.2439 67.504L77.6999 67.808C78.3933 67.9573 78.9106 68.1973 79.2519 68.528C79.6039 68.848 79.7799 69.2853 79.7799 69.84C79.7799 70.544 79.4973 71.104 78.9319 71.52C78.3666 71.936 77.6146 72.144 76.6759 72.144ZM82.3951 72.112C82.1817 72.112 82.0217 72.0533 81.9151 71.936C81.8084 71.8187 81.7551 71.6533 81.7551 71.44V61.264C81.7551 61.0507 81.8084 60.8907 81.9151 60.784C82.0217 60.6667 82.1817 60.608 82.3951 60.608C82.5977 60.608 82.7577 60.6667 82.8751 60.784C82.9924 60.8907 83.0511 61.0507 83.0511 61.264V65.952H82.8431C83.0671 65.3333 83.4297 64.8693 83.9311 64.56C84.4431 64.24 85.0297 64.08 85.6911 64.08C86.3097 64.08 86.8217 64.192 87.2271 64.416C87.6431 64.64 87.9524 64.9813 88.1551 65.44C88.3577 65.888 88.4591 66.4587 88.4591 67.152V71.44C88.4591 71.6533 88.4004 71.8187 88.2831 71.936C88.1764 72.0533 88.0217 72.112 87.8191 72.112C87.6057 72.112 87.4404 72.0533 87.3231 71.936C87.2164 71.8187 87.1631 71.6533 87.1631 71.44V67.232C87.1631 66.5067 87.0191 65.9787 86.7311 65.648C86.4537 65.3067 86.0057 65.136 85.3871 65.136C84.6724 65.136 84.1017 65.36 83.6751 65.808C83.2591 66.2453 83.0511 66.832 83.0511 67.568V71.44C83.0511 71.888 82.8324 72.112 82.3951 72.112Z" fill="#F9FAFB"/>
<path d="M55.9534 45.8494C55.8375 45.5759 55.7259 45.3025 55.6166 45.0291C54.7919 42.9487 55.8266 41.0719 56.7497 39.2344L58.0884 36.5744C58.3575 36.0384 58.7709 35.5878 59.2784 35.2728L63.1284 32.8841L66.9325 28.9509C67.1686 28.7059 67.47 28.5336 67.8009 28.4544L70.3909 27.8288C71.6444 27.5291 72.1825 27.5772 72.5872 28.1525C73.9894 30.1431 74.9278 31.7816 76.1769 33.7656C76.8572 34.8463 78.4278 37.3291 78.5263 37.4931C78.8281 38.0006 78.7056 38.425 78.6947 39.0069C78.6684 40.3478 78.9047 41.6953 79.3947 42.9444C79.5413 43.3162 79.7097 43.6838 79.7863 44.0753C79.8563 44.4275 79.7622 46.6653 79.69 47.4222C79.6309 48.0369 78.1784 50.3316 77.6578 50.6094C77.0847 50.9156 72.8366 52.4775 71.8981 52.7444C70.9597 53.0112 66.8909 52.0816 64.7778 51.7578C63.4719 51.5588 62.1638 51.3575 60.8578 51.1584C59.7247 50.9856 58.5981 51.1169 57.9638 49.9728C57.2178 48.6341 56.5484 47.2581 55.9534 45.8494Z" fill="url(#paint0_linear_576_10461)"/>
<path d="M60.8556 51.1563C62.1616 51.3553 63.4697 51.5566 64.7756 51.7556C65.4559 51.8606 66.3397 52.0269 67.2562 52.1975C66.6394 51.4669 65.7184 50.6006 65.1016 49.87C64.9681 49.7125 64.8325 49.5484 64.7844 49.3472C64.7341 49.1328 64.7909 48.9119 64.85 48.6997C65.0381 48.0041 65.0862 47.2494 65.2744 46.5538C64.1084 46.825 61.4222 47.3413 61.2012 47.2778C60.9562 47.2078 60.7572 47.0306 60.5669 46.8578C59.1822 45.5934 58.0994 44.3181 57.0406 42.7759C56.9159 42.5944 56.7891 42.4063 56.7431 42.1897C56.6994 41.9863 56.7322 41.7763 56.765 41.5728C56.8437 41.0653 57.0187 39.6588 57.1587 38.4184L56.7475 39.2344C55.8266 41.0719 54.7919 42.9488 55.6187 45.0291C55.7281 45.3047 55.8397 45.5781 55.9556 45.8494C56.549 47.2578 57.2187 48.6328 57.9616 49.9684C58.5937 51.1147 59.7225 50.9834 60.8556 51.1563Z" fill="url(#paint1_linear_576_10461)"/>
<path d="M72.6047 28.1766C72.3356 27.8594 71.8106 27.9206 71.2594 28.4237L69.2775 30.4056C69.155 30.5281 69.0894 30.6966 69.1003 30.8694L69.3125 34.9162C69.3191 35.0519 69.3694 35.1788 69.4569 35.2816C70.1612 36.1041 72.6506 40.0569 73.3725 40.0569C74.0922 40.0569 75.35 37.2525 75.9909 37.2678C76.1003 37.27 76.6712 37.305 77.2291 37.4756C77.7497 37.6331 77.9531 36.9178 77.8459 36.4103C77.3078 35.5572 76.5837 34.4131 76.1769 33.7656C74.9322 31.7903 73.9959 30.1562 72.6047 28.1766Z" fill="url(#paint2_linear_576_10461)"/>
<path d="M63.3822 36.1434C64.1106 36.0341 66.5409 35.6206 66.9981 35.4412C67.8906 35.0891 68.6781 33.5884 69.1988 32.7812C69.1988 32.7812 69.3781 35.4128 69.1988 36.4409C69.0741 37.1562 68.6037 40.8969 68.1312 41.7937L65.2744 46.5537L61.0766 42.3559C60.72 41.9994 60.4925 41.8112 60.3634 41.3059C60.0681 40.1509 59.5322 38.4469 59.53 37.4428C59.5278 36.4388 62.2337 36.3141 63.3822 36.1434Z" fill="url(#paint3_linear_576_10461)"/>
<path d="M68.6913 30.5369C68.4113 30.2022 68.3325 29.7275 68.4288 29.3031C68.5097 28.9488 69.2447 28.2641 69.4831 28.0475L67.8009 28.4544C67.4704 28.5345 67.1692 28.7067 66.9325 28.9509L63.1284 32.8841C63.1284 32.8841 66.8122 31.3484 68.6913 30.5369Z" fill="url(#paint4_linear_576_10461)"/>
<path d="M79.3925 42.9444C79.0252 42.0067 78.7996 41.0195 78.7231 40.0153C77.4675 40.875 76.7653 41.9906 74.7441 42.2641C74.2081 42.3363 73.3791 42.4369 72.8562 42.5747C72.2087 42.7453 71.6094 43.2244 70.6381 43.3141C69.9469 43.3797 68.2034 43.3294 68.4659 43.7188C68.7284 44.1081 70.2925 44.8934 70.6819 45.2106C71.2353 45.6547 71.7166 46.1775 72.1781 46.7156C72.4187 46.9978 72.7797 47.6825 73.1997 47.8684C73.3069 47.9166 73.4206 47.9297 73.5344 47.8947C73.7334 47.8356 73.8931 47.6913 74.0484 47.5534C75.5543 46.2193 77.2471 45.1124 79.0731 44.2678C79.2678 44.1781 79.4778 44.0775 79.5741 43.885C79.6156 43.7997 79.6331 43.6838 79.6353 43.5591C79.5587 43.3534 79.4734 43.15 79.3925 42.9444Z" fill="url(#paint5_linear_576_10461)"/>
<path d="M79.784 44.0753C79.7556 43.9331 79.714 43.7931 79.6659 43.6553C79.6287 43.7844 79.5478 43.9266 79.3728 44.06C78.8697 44.445 76.9294 45.0378 74.7944 46.9081C73.4009 48.1287 73.3987 48.2928 73.099 49.6381C72.609 51.8409 71.8303 52.6416 71.6815 52.7772C71.7625 52.7684 71.8347 52.7575 71.8937 52.74C72.8344 52.4753 77.0803 50.9112 77.6534 50.605C78.174 50.3272 79.6265 48.0325 79.6856 47.4178C79.76 46.6653 79.854 44.4275 79.784 44.0753Z" fill="url(#paint6_linear_576_10461)"/>
<defs>
<linearGradient id="paint0_linear_576_10461" x1="73.166" y1="30.6025" x2="63.0886" y2="56.2059" gradientUnits="userSpaceOnUse">
<stop stop-color="#9E958E"/>
<stop offset="0.46" stop-color="#8E8884"/>
<stop offset="1" stop-color="#757575"/>
</linearGradient>
<linearGradient id="paint1_linear_576_10461" x1="55.9379" y1="52.28" x2="64.3187" y2="42.961" gradientUnits="userSpaceOnUse">
<stop stop-color="#37474F"/>
<stop offset="0.612" stop-color="#42565F" stop-opacity="0.192"/>
<stop offset="0.757" stop-color="#455A64" stop-opacity="0"/>
</linearGradient>
<linearGradient id="paint2_linear_576_10461" x1="75.7772" y1="40.5911" x2="70.3577" y2="28.5692" gradientUnits="userSpaceOnUse">
<stop stop-color="#9E958E"/>
<stop offset="0.442" stop-color="#AEA298"/>
<stop offset="1" stop-color="#C9B8A9"/>
</linearGradient>
<linearGradient id="paint3_linear_576_10461" x1="62.2036" y1="48.8692" x2="64.3911" y2="37.002" gradientUnits="userSpaceOnUse">
<stop stop-color="#4C5C64"/>
<stop offset="1" stop-color="#455A64" stop-opacity="0"/>
</linearGradient>
<linearGradient id="paint4_linear_576_10461" x1="63.1289" y1="30.466" x2="69.4836" y2="30.466" gradientUnits="userSpaceOnUse">
<stop stop-color="#4C5C64"/>
<stop offset="1" stop-color="#455A64" stop-opacity="0"/>
</linearGradient>
<linearGradient id="paint5_linear_576_10461" x1="73.0883" y1="42.7578" x2="80.6035" y2="45.8553" gradientUnits="userSpaceOnUse">
<stop stop-color="#9E958E"/>
<stop offset="0.25" stop-color="#AEA298"/>
<stop offset="0.566" stop-color="#C9B8A9"/>
</linearGradient>
<linearGradient id="paint6_linear_576_10461" x1="76.8913" y1="52.9843" x2="75.3513" y2="46.9096" gradientUnits="userSpaceOnUse">
<stop stop-color="#37474F"/>
<stop offset="0.808" stop-color="#42565F" stop-opacity="0.192"/>
<stop offset="1" stop-color="#455A64" stop-opacity="0"/>
</linearGradient>
</defs>
</svg>
