<svg width="118" height="100" viewBox="0 0 118 100" fill="none" xmlns="http://www.w3.org/2000/svg">
<mask id="path-1-inside-1_576_10460" fill="white">
<path fill-rule="evenodd" clip-rule="evenodd" d="M68 18C77.6056 18 85.4538 10.476 85.9727 0.999955C86.0029 0.448497 86.4477 0 87 0L114 0C116.209 0 118 1.79086 118 4L118 31C118 31.5523 117.551 31.9971 117 32.0273C107.524 32.5462 100 40.3944 100 50C100 59.6056 107.524 67.4538 117 67.9727C117.552 68.0029 118 68.4477 118 69L118 96C118 98.2091 116.209 100 114 100H87C86.4477 100 86.0029 99.5515 85.9727 99C85.4538 89.524 77.6056 82 68 82C58.3944 82 50.5462 89.524 50.0273 99C49.9971 99.5515 49.5523 100 49 100L22 100C19.7909 100 18 98.2091 18 96L18 69C18 68.4477 17.5515 68.0029 17 67.9727C7.52403 67.4538 0 59.6056 0 50C0 40.3944 7.52403 32.5462 17 32.0273C17.5515 31.9971 18 31.5523 18 31L18 4C18 1.79086 19.7909 0 22 0L49 0C49.5523 0 49.9971 0.448498 50.0273 0.999957C50.5462 10.476 58.3944 18 68 18Z"/>
</mask>
<path fill-rule="evenodd" clip-rule="evenodd" d="M68 18C77.6056 18 85.4538 10.476 85.9727 0.999955C86.0029 0.448497 86.4477 0 87 0L114 0C116.209 0 118 1.79086 118 4L118 31C118 31.5523 117.551 31.9971 117 32.0273C107.524 32.5462 100 40.3944 100 50C100 59.6056 107.524 67.4538 117 67.9727C117.552 68.0029 118 68.4477 118 69L118 96C118 98.2091 116.209 100 114 100H87C86.4477 100 86.0029 99.5515 85.9727 99C85.4538 89.524 77.6056 82 68 82C58.3944 82 50.5462 89.524 50.0273 99C49.9971 99.5515 49.5523 100 49 100L22 100C19.7909 100 18 98.2091 18 96L18 69C18 68.4477 17.5515 68.0029 17 67.9727C7.52403 67.4538 0 59.6056 0 50C0 40.3944 7.52403 32.5462 17 32.0273C17.5515 31.9971 18 31.5523 18 31L18 4C18 1.79086 19.7909 0 22 0L49 0C49.5523 0 49.9971 0.448498 50.0273 0.999957C50.5462 10.476 58.3944 18 68 18Z" fill="#374151" fill-opacity="0.4"/>
<path d="M118 4H117H118ZM18 96H17H18ZM18 4L17 4L18 4ZM50.0273 0.999957L51.0258 0.945284L50.0273 0.999957ZM17 32.0273L16.9454 31.0288L17 32.0273ZM18 31H17H18ZM18 69H17H18ZM17 67.9727L16.9454 68.9712L17 67.9727ZM50.0273 99L49.0288 98.9454L50.0273 99ZM117 67.9727L117.055 66.9742L117 67.9727ZM85.9727 99L86.9712 98.9454L85.9727 99ZM117 32.0273L117.055 33.0258L117 32.0273ZM84.9742 0.945282C84.4842 9.89397 77.0716 17 68 17V19C78.1395 19 86.4235 11.058 86.9712 1.05463L84.9742 0.945282ZM114 -1L87 -1V1L114 1V-1ZM119 4C119 1.23858 116.761 -1 114 -1V1C115.657 1 117 2.34315 117 4H119ZM119 31L119 4H117L117 31H119ZM101 50C101 40.9284 108.106 33.5158 117.055 33.0258L116.945 31.0288C106.942 31.5765 99 39.8604 99 50H101ZM117.055 66.9742C108.106 66.4842 101 59.0716 101 50H99C99 60.1396 106.942 68.4235 116.945 68.9712L117.055 66.9742ZM119 96L119 69H117L117 96H119ZM114 101C116.761 101 119 98.7614 119 96H117C117 97.6569 115.657 99 114 99V101ZM87 101H114V99H87V101ZM68 83C77.0716 83 84.4842 90.106 84.9742 99.0547L86.9712 98.9454C86.4235 88.942 78.1395 81 68 81V83ZM51.0258 99.0547C51.5158 90.106 58.9284 83 68 83V81C57.8604 81 49.5765 88.942 49.0288 98.9454L51.0258 99.0547ZM22 101L49 101V99L22 99L22 101ZM17 96C17 98.7614 19.2386 101 22 101L22 99C20.3431 99 19 97.6569 19 96H17ZM17 69L17 96H19L19 69H17ZM17.0547 66.9742C8.10603 66.4842 1 59.0716 1 50H-1C-1 60.1396 6.94204 68.4235 16.9454 68.9712L17.0547 66.9742ZM1 50C1 40.9284 8.10602 33.5158 17.0547 33.0258L16.9454 31.0288C6.94204 31.5765 -1 39.8604 -1 50H1ZM17 4L17 31H19L19 4L17 4ZM22 -1C19.2386 -1 17 1.23858 17 4L19 4C19 2.34315 20.3431 1 22 1V-1ZM49 -1L22 -1V1L49 1V-1ZM68 17C58.9284 17 51.5158 9.89398 51.0258 0.945284L49.0288 1.05463C49.5765 11.058 57.8604 19 68 19V17ZM49 1C49.0012 1 49.0012 1.0001 49.0006 0.999977C49.0001 0.999868 48.9998 0.999738 48.9999 0.999766C49.0001 0.999846 49.0033 1.00127 49.0081 1.006C49.0187 1.0164 49.0276 1.03335 49.0288 1.05463L51.0258 0.945284C50.9685 -0.100786 50.1183 -1 49 -1V1ZM17.0547 33.0258C18.1008 32.9685 19 32.1183 19 31H17C17 31.0012 16.9999 31.0012 17 31.0007C17.0001 31.0001 17.0003 30.9998 17.0002 30.9999C17.0002 31.0001 16.9987 31.0033 16.994 31.0081C16.9836 31.0187 16.9667 31.0276 16.9454 31.0288L17.0547 33.0258ZM19 69C19 67.8817 18.1008 67.0315 17.0547 66.9742L16.9454 68.9712C16.9667 68.9724 16.9836 68.9813 16.994 68.9919C16.9987 68.9967 17.0002 68.9999 17.0002 69.0001C17.0003 69.0002 17.0001 68.9999 17 68.9994C16.9999 68.9988 17 68.9988 17 69H19ZM86.9712 1.05463C86.9724 1.03335 86.9813 1.0164 86.9919 1.006C86.9967 1.00127 86.9999 0.999846 87.0001 0.999766C87.0002 0.999738 86.9999 0.999868 86.9994 0.999977C86.9988 1.0001 86.9988 1 87 1V-1C85.8817 -1 85.0315 -0.100789 84.9742 0.945282L86.9712 1.05463ZM49.0288 98.9454C49.0276 98.9667 49.0187 98.9836 49.0081 98.994C49.0033 98.9987 49.0001 99.0002 48.9999 99.0002C48.9998 99.0003 49.0001 99.0001 49.0006 99C49.0012 98.9999 49.0012 99 49 99V101C50.1183 101 50.9685 100.101 51.0258 99.0547L49.0288 98.9454ZM116.945 68.9712C116.967 68.9724 116.984 68.9813 116.994 68.9919C116.999 68.9967 117 68.9999 117 69.0001C117 69.0002 117 68.9999 117 68.9994C117 68.9988 117 68.9988 117 69H119C119 67.8817 118.101 67.0315 117.055 66.9742L116.945 68.9712ZM87 99C86.9988 99 86.9988 98.9999 86.9994 99C86.9999 99.0001 87.0002 99.0003 87.0001 99.0002C86.9999 99.0002 86.9967 98.9987 86.9919 98.994C86.9813 98.9836 86.9724 98.9667 86.9712 98.9454L84.9742 99.0547C85.0315 100.101 85.8817 101 87 101V99ZM117 31C117 31.0012 117 31.0012 117 31.0006C117 31.0001 117 30.9998 117 30.9999C117 31.0001 116.999 31.0033 116.994 31.0081C116.984 31.0187 116.967 31.0276 116.945 31.0288L117.055 33.0258C118.101 32.9685 119 32.1183 119 31H117Z" fill="#374151" mask="url(#path-1-inside-1_576_10460)"/>
<path d="M49.3013 74.992C49.088 74.992 48.928 74.9333 48.8213 74.816C48.7146 74.7093 48.6613 74.5493 48.6613 74.336V64.768C48.6613 64.5547 48.7146 64.3947 48.8213 64.288C48.928 64.1707 49.0826 64.112 49.2853 64.112C49.4986 64.112 49.6586 64.1707 49.7653 64.288C49.8826 64.3947 49.9413 64.5547 49.9413 64.768V66.288L49.7653 66.064C49.936 65.456 50.272 64.976 50.7733 64.624C51.2853 64.2613 51.8933 64.08 52.5973 64.08C53.2906 64.08 53.8933 64.2453 54.4053 64.576C54.928 64.896 55.328 65.36 55.6053 65.968C55.8933 66.5653 56.0373 67.28 56.0373 68.112C56.0373 68.9333 55.8933 69.648 55.6053 70.256C55.328 70.8533 54.9333 71.3173 54.4213 71.648C53.9093 71.9787 53.3013 72.144 52.5973 72.144C51.8933 72.144 51.2906 71.968 50.7893 71.616C50.288 71.2533 49.9466 70.7733 49.7653 70.176H49.9573V74.336C49.9573 74.5493 49.8986 74.7093 49.7813 74.816C49.664 74.9333 49.504 74.992 49.3013 74.992ZM52.3253 71.104C52.816 71.104 53.2373 70.9867 53.5893 70.752C53.952 70.5173 54.2293 70.176 54.4213 69.728C54.624 69.28 54.7253 68.7413 54.7253 68.112C54.7253 67.1413 54.5066 66.4 54.0693 65.888C53.6426 65.376 53.0613 65.12 52.3253 65.12C51.8453 65.12 51.424 65.2373 51.0613 65.472C50.6986 65.696 50.416 66.032 50.2133 66.48C50.0213 66.9173 49.9253 67.4613 49.9253 68.112C49.9253 69.072 50.144 69.8133 50.5813 70.336C51.0186 70.848 51.6 71.104 52.3253 71.104ZM60.4374 72.144C59.9041 72.144 59.4241 72.0427 58.9974 71.84C58.5814 71.6267 58.2508 71.3387 58.0054 70.976C57.7601 70.6133 57.6374 70.208 57.6374 69.76C57.6374 69.184 57.7814 68.7307 58.0694 68.4C58.3681 68.0693 58.8534 67.8347 59.5254 67.696C60.2081 67.5573 61.1361 67.488 62.3094 67.488H63.0294V68.336H62.3254C61.4614 68.336 60.7788 68.3787 60.2774 68.464C59.7868 68.5387 59.4401 68.672 59.2374 68.864C59.0454 69.056 58.9494 69.328 58.9494 69.68C58.9494 70.1173 59.0988 70.4747 59.3974 70.752C59.7068 71.0293 60.1228 71.168 60.6454 71.168C61.0721 71.168 61.4454 71.0667 61.7654 70.864C62.0961 70.6613 62.3521 70.384 62.5334 70.032C62.7254 69.68 62.8214 69.2747 62.8214 68.816V66.992C62.8214 66.3307 62.6881 65.856 62.4214 65.568C62.1548 65.2693 61.7174 65.12 61.1094 65.12C60.7361 65.12 60.3628 65.168 59.9894 65.264C59.6161 65.36 59.2214 65.5147 58.8054 65.728C58.6561 65.8027 58.5281 65.8293 58.4214 65.808C58.3148 65.776 58.2294 65.7173 58.1654 65.632C58.1014 65.5467 58.0641 65.4507 58.0534 65.344C58.0428 65.2267 58.0641 65.1147 58.1174 65.008C58.1814 64.9013 58.2774 64.816 58.4054 64.752C58.8748 64.5173 59.3388 64.3467 59.7974 64.24C60.2561 64.1333 60.6934 64.08 61.1094 64.08C61.7814 64.08 62.3361 64.192 62.7734 64.416C63.2108 64.6293 63.5361 64.96 63.7494 65.408C63.9628 65.8453 64.0694 66.4107 64.0694 67.104V71.44C64.0694 71.6533 64.0161 71.8187 63.9094 71.936C63.8134 72.0533 63.6694 72.112 63.4774 72.112C63.2748 72.112 63.1201 72.0533 63.0134 71.936C62.9068 71.8187 62.8534 71.6533 62.8534 71.44V70.192H62.9974C62.9121 70.5973 62.7468 70.944 62.5014 71.232C62.2668 71.52 61.9734 71.744 61.6214 71.904C61.2694 72.064 60.8748 72.144 60.4374 72.144ZM69.5938 72.144C68.9858 72.144 68.4738 72.0373 68.0578 71.824C67.6525 71.6 67.3485 71.28 67.1458 70.864C66.9431 70.4373 66.8418 69.92 66.8418 69.312V65.232H65.7698C65.5885 65.232 65.4498 65.1893 65.3538 65.104C65.2578 65.008 65.2098 64.88 65.2098 64.72C65.2098 64.56 65.2578 64.4373 65.3538 64.352C65.4498 64.2667 65.5885 64.224 65.7698 64.224H66.8418V62.384C66.8418 62.1707 66.9005 62.0107 67.0178 61.904C67.1351 61.7867 67.2951 61.728 67.4978 61.728C67.7005 61.728 67.8551 61.7867 67.9618 61.904C68.0791 62.0107 68.1378 62.1707 68.1378 62.384V64.224H70.1538C70.3351 64.224 70.4738 64.2667 70.5698 64.352C70.6658 64.4373 70.7138 64.56 70.7138 64.72C70.7138 64.88 70.6658 65.008 70.5698 65.104C70.4738 65.1893 70.3351 65.232 70.1538 65.232H68.1378V69.184C68.1378 69.792 68.2658 70.256 68.5218 70.576C68.7778 70.8853 69.1938 71.04 69.7698 71.04C69.9725 71.04 70.1431 71.0187 70.2818 70.976C70.4311 70.9333 70.5538 70.912 70.6498 70.912C70.7458 70.9013 70.8258 70.9333 70.8898 71.008C70.9538 71.0827 70.9858 71.2107 70.9858 71.392C70.9858 71.52 70.9591 71.6373 70.9058 71.744C70.8631 71.8507 70.7831 71.9253 70.6658 71.968C70.5378 72.0107 70.3671 72.048 70.1538 72.08C69.9511 72.1227 69.7645 72.144 69.5938 72.144ZM72.8013 72.112C72.588 72.112 72.428 72.0533 72.3213 71.936C72.2146 71.8187 72.1613 71.6533 72.1613 71.44V61.264C72.1613 61.0507 72.2146 60.8907 72.3213 60.784C72.428 60.6667 72.588 60.608 72.8013 60.608C73.004 60.608 73.164 60.6667 73.2813 60.784C73.3986 60.8907 73.4573 61.0507 73.4573 61.264V65.952H73.2493C73.4733 65.3333 73.836 64.8693 74.3373 64.56C74.8493 64.24 75.436 64.08 76.0973 64.08C76.716 64.08 77.228 64.192 77.6333 64.416C78.0493 64.64 78.3586 64.9813 78.5613 65.44C78.764 65.888 78.8653 66.4587 78.8653 67.152V71.44C78.8653 71.6533 78.8066 71.8187 78.6893 71.936C78.5826 72.0533 78.428 72.112 78.2253 72.112C78.012 72.112 77.8466 72.0533 77.7293 71.936C77.6226 71.8187 77.5693 71.6533 77.5693 71.44V67.232C77.5693 66.5067 77.4253 65.9787 77.1373 65.648C76.86 65.3067 76.412 65.136 75.7933 65.136C75.0786 65.136 74.508 65.36 74.0813 65.808C73.6653 66.2453 73.4573 66.832 73.4573 67.568V71.44C73.4573 71.888 73.2386 72.112 72.8013 72.112ZM84.7591 72.144C83.9377 72.144 83.2284 71.984 82.6311 71.664C82.0444 71.3333 81.5857 70.8693 81.2551 70.272C80.9351 69.6747 80.7751 68.96 80.7751 68.128C80.7751 67.3173 80.9351 66.6133 81.2551 66.016C81.5751 65.408 82.0124 64.9333 82.5671 64.592C83.1324 64.2507 83.7831 64.08 84.5191 64.08C85.0417 64.08 85.5111 64.1707 85.9271 64.352C86.3431 64.5227 86.6951 64.7733 86.9831 65.104C87.2817 65.4347 87.5057 65.8347 87.6551 66.304C87.8151 66.7733 87.8951 67.3013 87.8951 67.888C87.8951 68.0587 87.8471 68.1867 87.7511 68.272C87.6551 68.3467 87.5164 68.384 87.3351 68.384H81.7671V67.536H87.0311L86.7751 67.744C86.7751 67.168 86.6897 66.6827 86.5191 66.288C86.3484 65.8827 86.0977 65.5733 85.7671 65.36C85.4471 65.1467 85.0417 65.04 84.5511 65.04C84.0071 65.04 83.5431 65.168 83.1591 65.424C82.7857 65.6693 82.5031 66.016 82.3111 66.464C82.1191 66.9013 82.0231 67.4133 82.0231 68V68.096C82.0231 69.0773 82.2577 69.824 82.7271 70.336C83.2071 70.848 83.8844 71.104 84.7591 71.104C85.1217 71.104 85.4791 71.056 85.8311 70.96C86.1937 70.864 86.5457 70.704 86.8871 70.48C87.0364 70.384 87.1697 70.3413 87.2871 70.352C87.4151 70.352 87.5164 70.3893 87.5911 70.464C87.6657 70.528 87.7137 70.6133 87.7351 70.72C87.7671 70.816 87.7564 70.9227 87.7031 71.04C87.6604 71.1573 87.5697 71.2587 87.4311 71.344C87.0791 71.6 86.6631 71.7973 86.1831 71.936C85.7031 72.0747 85.2284 72.144 84.7591 72.144Z" fill="#F9FAFB"/>
<path d="M61.0372 40.9341L64.6028 40.3478C64.6028 40.3478 63.2509 38.8669 61.4441 38.4753C59.6372 38.0838 58.8562 38.1494 58.8562 38.1494C58.8562 38.1494 57.5219 37.3028 56.6097 37.025C55.6975 36.7472 54.8487 36.8566 54.8487 36.8566L54.84 40.6628L61.0372 40.9341ZM74.685 41.3081L71.4912 40.2625C71.4912 40.2625 73.5322 38.7925 74.6456 38.495C75.8203 38.1822 77.1153 38.3047 77.1153 38.3047C77.1153 38.3047 78.0844 37.4538 79.2044 37.0163C80.3244 36.5788 81.1666 36.5634 81.1666 36.5634L81.1644 40.4003C81.1644 40.4003 80.0553 41.6931 80.0334 41.6625C80.0159 41.6297 74.685 41.3081 74.685 41.3081Z" fill="#A1D1DA"/>
<path d="M75.6912 40.2187C75.6912 40.2187 76.26 39.3459 76.9184 39.2934C77.7869 39.2256 78.0888 39.4466 78.0888 39.4466C78.0888 39.4466 78.5044 39.1425 78.8894 39.1534C79.4428 39.1687 79.7666 39.7069 79.7666 39.7069C79.7666 39.7069 80.0291 38.9434 80.3353 38.9522C80.8581 38.9675 80.9347 40.2778 80.9347 40.2778L79.1562 40.9581L75.6912 40.2187ZM55.0391 40.4069C55.0391 40.4069 55.5072 39.0025 55.8309 39.0178C56.1547 39.0331 56.3997 39.65 56.3997 39.65C56.3997 39.65 56.7103 38.0509 57.1872 38.0509C57.6334 38.0509 57.9222 40.2822 57.9222 40.2822L58.5697 40.56L59.3222 40.3741C59.3222 40.3741 59.6766 39.4203 59.9237 39.4356C60.1556 39.4509 60.3088 39.9278 60.3088 39.9278C60.3088 39.9278 60.4772 39.02 60.8316 39.02C61.2319 39.02 61.4791 40.3281 61.4791 40.3281L58.0163 41.5094L55.0391 40.4069Z" fill="#518E2C"/>
<path d="M81.1688 40.1488L81.1709 51.5216C81.1709 52.4294 80.4338 53.1666 79.5259 53.1666H56.4894C55.5816 53.1666 54.8444 52.4294 54.8444 51.5216L54.8378 40.3041L81.1688 40.1488Z" fill="#7DB240"/>
<path d="M64.6072 40.2494C64.6072 40.2494 65.9919 40.2188 68.2888 40.2166C70.5178 40.2144 71.7166 40.2056 71.7166 40.2056L79.1059 53.1688H56.7016L64.6072 40.2494Z" fill="#5E6367"/>
<path d="M58.0272 53.1687L65.0381 40.2406L65.2678 40.2341H65.5369L58.8606 53.1709L58.4669 53.1775L58.0272 53.1687ZM71.3884 40.2056L71.0997 40.2012L70.7759 40.2078L77.2181 53.1687H77.9094L71.3884 40.2056ZM63.9816 52.2653L64.9309 52.2872L65.5741 49.3187L64.6903 49.3078L63.9816 52.2653ZM70.4216 49.3844L71.2791 49.3691L71.9244 52.2762H70.8328L70.4216 49.3844ZM70.2116 48.1594L71.0625 48.1375L70.5266 45.7684H69.8156L70.2116 48.1594ZM66.3069 45.7159H65.5741L65.0075 48.1725H65.7928L66.3069 45.7159ZM66.2303 43.01L66.8625 43.0209L66.5256 44.6791L65.7928 44.69L66.2303 43.01ZM66.6569 41.3278C66.635 41.3825 66.4053 42.31 66.4053 42.31H67.0266L67.1906 41.3278H66.6569ZM66.7969 40.8378H67.3219L67.4269 40.2187C67.4269 40.2187 67.2344 40.2166 67.1666 40.2166C67.0988 40.2166 66.9434 40.2209 66.9434 40.2209L66.7969 40.8378ZM69.0566 40.8356H69.6363L69.5094 40.2122L69.2425 40.2078L68.9844 40.2144L69.0566 40.8356ZM69.1966 41.3847L69.7063 41.3737L69.9097 42.3209L69.3103 42.3319L69.1966 41.3847ZM69.4416 43.0231L70.0322 43.0034L70.3669 44.7316L69.6341 44.7425L69.4416 43.0231Z" fill="white"/>
<path d="M57.8216 30.4209V43.5503H59.0706V30.1825L57.8216 30.4209ZM76.8572 44.0863L76.9447 30.3378L78.1981 30.4253L78.1325 44.0863H76.8572Z" fill="#9A9A9A"/>
<path d="M78.7472 30.6725H57.0581C56.8175 30.6725 56.6206 30.4756 56.6206 30.235C56.6206 29.9944 56.8175 29.7975 57.0581 29.7975H78.745C78.9856 29.7975 79.1825 29.9944 79.1825 30.235C79.1825 30.4756 78.9878 30.6725 78.7472 30.6725ZM57.0844 34.9513C56.9683 34.9513 56.8571 34.9052 56.775 34.8231C56.693 34.7411 56.6469 34.6298 56.6469 34.5138C56.6469 34.3977 56.693 34.2864 56.775 34.2044C56.8571 34.1223 56.9683 34.0763 57.0844 34.0763L78.8237 34.05C78.9398 34.05 79.0511 34.0961 79.1331 34.1781C79.2152 34.2602 79.2612 34.3715 79.2612 34.4875C79.2612 34.6035 79.2152 34.7148 79.1331 34.7969C79.0511 34.8789 78.9398 34.925 78.8237 34.925L57.0844 34.9513Z" fill="#C8C8C8"/>
<path d="M73.1579 33.9325L77.1269 29.9633L77.6683 30.5047L73.6993 34.4739L73.1579 33.9325ZM58.4376 30.6279L58.979 30.0865L62.9405 34.048L62.3991 34.5892L58.4376 30.6279Z" fill="#C8C8C8"/>
<path d="M73.8603 36.6334H62.0697C61.8585 36.6334 61.656 36.5495 61.5067 36.4002C61.3573 36.2509 61.2734 36.0484 61.2734 35.8372V28.59C61.2734 28.3788 61.3573 28.1763 61.5067 28.027C61.656 27.8776 61.8585 27.7937 62.0697 27.7937H73.8603C74.0715 27.7937 74.274 27.8776 74.4233 28.027C74.5727 28.1763 74.6566 28.3788 74.6566 28.59V35.8372C74.6566 36.0484 74.5727 36.2509 74.4233 36.4002C74.274 36.5495 74.0715 36.6334 73.8603 36.6334Z" fill="#DFE1E0"/>
<path d="M61.9603 35.9444L62.0237 28.3778L73.9478 28.4194V35.9247L61.9603 35.9444Z" fill="#1B9372"/>
<path d="M69.2709 31.5759L69.3059 29.6947H72.5588V31.5934C72.5588 31.5934 69.2884 31.5584 69.2709 31.5759ZM63.8678 30.5894C63.8678 31.3637 64.4825 31.8559 65.1694 31.8559C65.8541 31.8559 66.4184 31.3637 66.4184 30.5719C66.4184 29.78 65.6988 29.2878 65.1694 29.2878C64.4825 29.2878 63.8678 29.7625 63.8678 30.5894Z" fill="#85D59E"/>
<path d="M64.6356 32.3831H65.7425V33.525C65.7425 33.525 67.0441 33.0503 67.1491 33.1728C67.2541 33.2953 65.4428 35.1941 65.2328 35.1941C65.0228 35.1941 63.0869 33.3303 63.1591 33.1903C63.2291 33.0503 64.6356 33.455 64.6356 33.455V32.3831ZM70.4391 32.4531H71.5459V33.595C71.5459 33.595 72.8475 33.1203 72.9525 33.2428C73.0575 33.3653 71.2462 35.2641 71.0362 35.2641C70.8262 35.2641 68.8903 33.4003 68.9625 33.2603C69.0325 33.1203 70.4391 33.525 70.4391 33.525V32.4531Z" fill="#FEFFFE"/>
</svg>
