<svg width="137" height="118" viewBox="0 0 137 118" fill="none" xmlns="http://www.w3.org/2000/svg">
<mask id="path-1-inside-1_673_9099" fill="white">
<path fill-rule="evenodd" clip-rule="evenodd" d="M87.5 0C86.9477 0 86.5029 0.448498 86.4727 0.999957C85.9538 10.476 78.1056 18 68.5 18C58.8944 18 51.0462 10.476 50.5273 0.999956C50.4971 0.448497 50.0523 0 49.5 0L22.5 0C20.2909 0 18.5 1.79086 18.5 4L18.5 31C18.5 31.5523 18.0515 31.9971 17.5 32.0273C8.02403 32.5462 0.5 40.3944 0.5 50C0.5 59.6056 8.02403 67.4538 17.5 67.9727C18.0515 68.0029 18.5 68.4477 18.5 69L18.5 96C18.5 98.2091 20.2909 100 22.5 100L49.5 100C50.0523 100 50.4971 100.448 50.5273 101C51.0462 110.476 58.8944 118 68.5 118C78.1056 118 85.9538 110.476 86.4727 101C86.5029 100.448 86.9477 100 87.5 100L114.5 100C116.709 100 118.5 98.2091 118.5 96V69C118.5 68.4477 118.948 68.0029 119.5 67.9727C128.976 67.4538 136.5 59.6056 136.5 50C136.5 40.3944 128.976 32.5462 119.5 32.0273C118.948 31.9971 118.5 31.5523 118.5 31V4C118.5 1.79086 116.709 0 114.5 0L87.5 0Z"/>
</mask>
<path fill-rule="evenodd" clip-rule="evenodd" d="M87.5 0C86.9477 0 86.5029 0.448498 86.4727 0.999957C85.9538 10.476 78.1056 18 68.5 18C58.8944 18 51.0462 10.476 50.5273 0.999956C50.4971 0.448497 50.0523 0 49.5 0L22.5 0C20.2909 0 18.5 1.79086 18.5 4L18.5 31C18.5 31.5523 18.0515 31.9971 17.5 32.0273C8.02403 32.5462 0.5 40.3944 0.5 50C0.5 59.6056 8.02403 67.4538 17.5 67.9727C18.0515 68.0029 18.5 68.4477 18.5 69L18.5 96C18.5 98.2091 20.2909 100 22.5 100L49.5 100C50.0523 100 50.4971 100.448 50.5273 101C51.0462 110.476 58.8944 118 68.5 118C78.1056 118 85.9538 110.476 86.4727 101C86.5029 100.448 86.9477 100 87.5 100L114.5 100C116.709 100 118.5 98.2091 118.5 96V69C118.5 68.4477 118.948 68.0029 119.5 67.9727C128.976 67.4538 136.5 59.6056 136.5 50C136.5 40.3944 128.976 32.5462 119.5 32.0273C118.948 31.9971 118.5 31.5523 118.5 31V4C118.5 1.79086 116.709 0 114.5 0L87.5 0Z" fill="#374151" fill-opacity="0.4"/>
<path d="M18.5 4L17.5 4L17.5 4L18.5 4ZM18.5 96L17.5 96V96H18.5ZM119.5 32.0273L119.555 31.0288L119.5 32.0273ZM119.5 67.9727L119.555 68.9712L119.5 67.9727ZM50.5273 101L49.5288 101.055L50.5273 101ZM18.5 31L19.5 31L18.5 31ZM17.5 32.0273L17.4454 31.0288L17.5 32.0273ZM17.5 67.9727L17.4454 68.9712L17.5 67.9727ZM18.5 69L17.5 69L18.5 69ZM50.5273 0.999956L49.5288 1.05463L50.5273 0.999956ZM86.4727 101L85.4742 100.945L86.4727 101ZM86.4727 0.999957L85.4742 0.945284L86.4727 0.999957ZM68.5 19C78.6396 19 86.9235 11.058 87.4712 1.05463L85.4742 0.945284C84.9842 9.89397 77.5716 17 68.5 17V19ZM49.5288 1.05463C50.0765 11.058 58.3604 19 68.5 19V17C59.4284 17 52.0158 9.89397 51.5258 0.945282L49.5288 1.05463ZM22.5 1L49.5 1V-1L22.5 -1V1ZM19.5 4C19.5 2.34315 20.8431 1 22.5 1V-1C19.7386 -1 17.5 1.23858 17.5 4H19.5ZM19.5 31L19.5 4L17.5 4L17.5 31L19.5 31ZM1.5 50C1.5 40.9284 8.60603 33.5158 17.5547 33.0258L17.4454 31.0288C7.44204 31.5765 -0.5 39.8604 -0.5 50H1.5ZM17.5547 66.9742C8.60603 66.4842 1.5 59.0716 1.5 50H-0.5C-0.5 60.1396 7.44204 68.4235 17.4454 68.9712L17.5547 66.9742ZM19.5 96L19.5 69L17.5 69L17.5 96L19.5 96ZM22.5 99C20.8431 99 19.5 97.6569 19.5 96H17.5C17.5 98.7614 19.7386 101 22.5 101L22.5 99ZM49.5 99L22.5 99L22.5 101L49.5 101V99ZM68.5 117C59.4284 117 52.0158 109.894 51.5258 100.945L49.5288 101.055C50.0765 111.058 58.3604 119 68.5 119V117ZM85.4742 100.945C84.9842 109.894 77.5716 117 68.5 117V119C78.6396 119 86.9235 111.058 87.4712 101.055L85.4742 100.945ZM114.5 99L87.5 99V101L114.5 101V99ZM117.5 96C117.5 97.6569 116.157 99 114.5 99V101C117.261 101 119.5 98.7614 119.5 96H117.5ZM117.5 69V96H119.5V69H117.5ZM135.5 50C135.5 59.0716 128.394 66.4842 119.445 66.9742L119.555 68.9712C129.558 68.4235 137.5 60.1396 137.5 50H135.5ZM119.445 33.0258C128.394 33.5158 135.5 40.9284 135.5 50H137.5C137.5 39.8604 129.558 31.5765 119.555 31.0288L119.445 33.0258ZM117.5 4V31H119.5V4H117.5ZM114.5 1C116.157 1 117.5 2.34315 117.5 4H119.5C119.5 1.23858 117.261 -1 114.5 -1V1ZM87.5 1L114.5 1V-1L87.5 -1V1ZM119.555 31.0288C119.533 31.0276 119.516 31.0187 119.506 31.0081C119.501 31.0033 119.5 31.0001 119.5 30.9999C119.5 30.9998 119.5 31.0001 119.5 31.0007C119.5 31.0012 119.5 31.0012 119.5 31H117.5C117.5 32.1183 118.399 32.9685 119.445 33.0258L119.555 31.0288ZM119.5 69C119.5 68.9988 119.5 68.9988 119.5 68.9994C119.5 68.9999 119.5 69.0002 119.5 69.0001C119.5 68.9999 119.501 68.9967 119.506 68.9919C119.516 68.9813 119.533 68.9724 119.555 68.9712L119.445 66.9742C118.399 67.0315 117.5 67.8817 117.5 69H119.5ZM49.5 101C49.5012 101 49.5012 101 49.5006 101C49.5001 101 49.4998 101 49.4999 101C49.5001 101 49.5033 101.001 49.5081 101.006C49.5187 101.016 49.5276 101.033 49.5288 101.055L51.5258 100.945C51.4685 99.8992 50.6183 99 49.5 99V101ZM17.5 31C17.5 31.0012 17.4999 31.0012 17.5 31.0006C17.5001 31.0001 17.5003 30.9998 17.5002 30.9999C17.5002 31.0001 17.4987 31.0033 17.494 31.0081C17.4836 31.0187 17.4666 31.0276 17.4454 31.0288L17.5547 33.0258C18.6008 32.9685 19.5 32.1183 19.5 31L17.5 31ZM17.4454 68.9712C17.4667 68.9724 17.4836 68.9813 17.494 68.9919C17.4987 68.9967 17.5002 68.9999 17.5002 69.0001C17.5003 69.0002 17.5001 68.9999 17.5 68.9993C17.4999 68.9988 17.5 68.9988 17.5 69L19.5 69C19.5 67.8817 18.6008 67.0315 17.5547 66.9742L17.4454 68.9712ZM51.5258 0.945282C51.4685 -0.100789 50.6183 -1 49.5 -1V1C49.5012 1 49.5012 1.0001 49.5007 0.999977C49.5001 0.999868 49.4998 0.999738 49.4999 0.999766C49.5001 0.999846 49.5033 1.00127 49.5081 1.006C49.5187 1.0164 49.5276 1.03335 49.5288 1.05463L51.5258 0.945282ZM87.4712 101.055C87.4724 101.033 87.4813 101.016 87.4919 101.006C87.4967 101.001 87.4999 101 87.5001 101C87.5002 101 87.4999 101 87.4993 101C87.4988 101 87.4988 101 87.5 101V99C86.3817 99 85.5315 99.8992 85.4742 100.945L87.4712 101.055ZM87.4712 1.05463C87.4724 1.03335 87.4813 1.0164 87.4919 1.006C87.4967 1.00127 87.4999 0.999846 87.5001 0.999766C87.5002 0.999738 87.4999 0.999868 87.4994 0.999977C87.4988 1.0001 87.4988 1 87.5 1V-1C86.3817 -1 85.5315 -0.100786 85.4742 0.945284L87.4712 1.05463Z" fill="#374151" mask="url(#path-1-inside-1_673_9099)"/>
<path d="M22.1264 73.244C21.9664 73.244 21.8464 73.2 21.7664 73.112C21.6864 73.032 21.6464 72.912 21.6464 72.752V65.576C21.6464 65.416 21.6864 65.296 21.7664 65.216C21.8464 65.128 21.9624 65.084 22.1144 65.084C22.2744 65.084 22.3944 65.128 22.4744 65.216C22.5624 65.296 22.6064 65.416 22.6064 65.576V66.716L22.4744 66.548C22.6024 66.092 22.8544 65.732 23.2304 65.468C23.6144 65.196 24.0704 65.06 24.5984 65.06C25.1184 65.06 25.5704 65.184 25.9544 65.432C26.3464 65.672 26.6464 66.02 26.8544 66.476C27.0704 66.924 27.1784 67.46 27.1784 68.084C27.1784 68.7 27.0704 69.236 26.8544 69.692C26.6464 70.14 26.3504 70.488 25.9664 70.736C25.5824 70.984 25.1264 71.108 24.5984 71.108C24.0704 71.108 23.6184 70.976 23.2424 70.712C22.8664 70.44 22.6104 70.08 22.4744 69.632H22.6184V72.752C22.6184 72.912 22.5744 73.032 22.4864 73.112C22.3984 73.2 22.2784 73.244 22.1264 73.244ZM24.3944 70.328C24.7624 70.328 25.0784 70.24 25.3424 70.064C25.6144 69.888 25.8224 69.632 25.9664 69.296C26.1184 68.96 26.1944 68.556 26.1944 68.084C26.1944 67.356 26.0304 66.8 25.7024 66.416C25.3824 66.032 24.9464 65.84 24.3944 65.84C24.0344 65.84 23.7184 65.928 23.4464 66.104C23.1744 66.272 22.9624 66.524 22.8104 66.86C22.6664 67.188 22.5944 67.596 22.5944 68.084C22.5944 68.804 22.7584 69.36 23.0864 69.752C23.4144 70.136 23.8504 70.328 24.3944 70.328ZM31.2705 71.108C30.6545 71.108 30.1225 70.988 29.6745 70.748C29.2345 70.5 28.8905 70.152 28.6425 69.704C28.4025 69.256 28.2825 68.72 28.2825 68.096C28.2825 67.488 28.4025 66.96 28.6425 66.512C28.8825 66.056 29.2105 65.7 29.6265 65.444C30.0505 65.188 30.5385 65.06 31.0905 65.06C31.4825 65.06 31.8345 65.128 32.1465 65.264C32.4585 65.392 32.7225 65.58 32.9385 65.828C33.1625 66.076 33.3305 66.376 33.4425 66.728C33.5625 67.08 33.6225 67.476 33.6225 67.916C33.6225 68.044 33.5865 68.14 33.5145 68.204C33.4425 68.26 33.3385 68.288 33.2025 68.288H29.0265V67.652H32.9745L32.7825 67.808C32.7825 67.376 32.7185 67.012 32.5905 66.716C32.4625 66.412 32.2745 66.18 32.0265 66.02C31.7865 65.86 31.4825 65.78 31.1145 65.78C30.7065 65.78 30.3585 65.876 30.0705 66.068C29.7905 66.252 29.5785 66.512 29.4345 66.848C29.2905 67.176 29.2185 67.56 29.2185 68V68.072C29.2185 68.808 29.3945 69.368 29.7465 69.752C30.1065 70.136 30.6145 70.328 31.2705 70.328C31.5425 70.328 31.8105 70.292 32.0745 70.22C32.3465 70.148 32.6105 70.028 32.8665 69.86C32.9785 69.788 33.0785 69.756 33.1665 69.764C33.2625 69.764 33.3385 69.792 33.3945 69.848C33.4505 69.896 33.4865 69.96 33.5025 70.04C33.5265 70.112 33.5185 70.192 33.4785 70.28C33.4465 70.368 33.3785 70.444 33.2745 70.508C33.0105 70.7 32.6985 70.848 32.3385 70.952C31.9785 71.056 31.6225 71.108 31.2705 71.108ZM35.5212 71.084C35.3612 71.084 35.2372 71.04 35.1492 70.952C35.0692 70.864 35.0292 70.74 35.0292 70.58V65.576C35.0292 65.416 35.0692 65.296 35.1492 65.216C35.2292 65.128 35.3452 65.084 35.4972 65.084C35.6492 65.084 35.7652 65.128 35.8452 65.216C35.9332 65.296 35.9772 65.416 35.9772 65.576V66.548H35.8572C35.9852 66.076 36.2292 65.712 36.5892 65.456C36.9492 65.2 37.3932 65.064 37.9212 65.048C38.0412 65.04 38.1372 65.068 38.2092 65.132C38.2812 65.188 38.3212 65.288 38.3292 65.432C38.3372 65.568 38.3052 65.676 38.2332 65.756C38.1612 65.836 38.0492 65.884 37.8972 65.9L37.7052 65.924C37.1612 65.972 36.7412 66.148 36.4452 66.452C36.1572 66.748 36.0132 67.156 36.0132 67.676V70.58C36.0132 70.74 35.9692 70.864 35.8812 70.952C35.8012 71.04 35.6812 71.084 35.5212 71.084ZM40.4384 71.084C40.2864 71.084 40.1664 71.04 40.0784 70.952C39.9984 70.864 39.9584 70.74 39.9584 70.58V65.924H39.1904C39.0624 65.924 38.9584 65.892 38.8784 65.828C38.8064 65.756 38.7704 65.66 38.7704 65.54C38.7704 65.42 38.8064 65.328 38.8784 65.264C38.9584 65.2 39.0624 65.168 39.1904 65.168H40.2224L39.9584 65.42V64.964C39.9584 64.204 40.1424 63.624 40.5104 63.224C40.8864 62.824 41.4344 62.592 42.1544 62.528L42.5024 62.492C42.6144 62.484 42.7024 62.504 42.7664 62.552C42.8384 62.6 42.8824 62.66 42.8984 62.732C42.9224 62.804 42.9264 62.88 42.9104 62.96C42.8944 63.032 42.8584 63.096 42.8024 63.152C42.7464 63.208 42.6784 63.24 42.5984 63.248L42.3224 63.272C41.8344 63.312 41.4784 63.46 41.2544 63.716C41.0384 63.972 40.9304 64.348 40.9304 64.844V65.348L40.7864 65.168H42.2264C42.3624 65.168 42.4664 65.2 42.5384 65.264C42.6104 65.328 42.6464 65.42 42.6464 65.54C42.6464 65.66 42.6104 65.756 42.5384 65.828C42.4664 65.892 42.3624 65.924 42.2264 65.924H40.9304V70.58C40.9304 70.916 40.7664 71.084 40.4384 71.084ZM46.1064 71.108C45.4904 71.108 44.9584 70.988 44.5104 70.748C44.0704 70.5 43.7264 70.152 43.4784 69.704C43.2384 69.256 43.1184 68.72 43.1184 68.096C43.1184 67.488 43.2384 66.96 43.4784 66.512C43.7184 66.056 44.0464 65.7 44.4624 65.444C44.8864 65.188 45.3744 65.06 45.9264 65.06C46.3184 65.06 46.6704 65.128 46.9824 65.264C47.2944 65.392 47.5584 65.58 47.7744 65.828C47.9984 66.076 48.1664 66.376 48.2784 66.728C48.3984 67.08 48.4584 67.476 48.4584 67.916C48.4584 68.044 48.4224 68.14 48.3504 68.204C48.2784 68.26 48.1744 68.288 48.0384 68.288H43.8624V67.652H47.8104L47.6184 67.808C47.6184 67.376 47.5544 67.012 47.4264 66.716C47.2984 66.412 47.1104 66.18 46.8624 66.02C46.6224 65.86 46.3184 65.78 45.9504 65.78C45.5424 65.78 45.1944 65.876 44.9064 66.068C44.6264 66.252 44.4144 66.512 44.2704 66.848C44.1264 67.176 44.0544 67.56 44.0544 68V68.072C44.0544 68.808 44.2304 69.368 44.5824 69.752C44.9424 70.136 45.4504 70.328 46.1064 70.328C46.3784 70.328 46.6464 70.292 46.9104 70.22C47.1824 70.148 47.4464 70.028 47.7024 69.86C47.8144 69.788 47.9144 69.756 48.0024 69.764C48.0984 69.764 48.1744 69.792 48.2304 69.848C48.2864 69.896 48.3224 69.96 48.3384 70.04C48.3624 70.112 48.3544 70.192 48.3144 70.28C48.2824 70.368 48.2144 70.444 48.1104 70.508C47.8464 70.7 47.5344 70.848 47.1744 70.952C46.8144 71.056 46.4584 71.108 46.1064 71.108ZM52.3371 71.108C51.7531 71.108 51.2491 70.98 50.8251 70.724C50.4011 70.468 50.0731 70.112 49.8411 69.656C49.6171 69.192 49.5051 68.656 49.5051 68.048C49.5051 67.584 49.5691 67.168 49.6971 66.8C49.8251 66.432 50.0131 66.12 50.2611 65.864C50.5091 65.6 50.8051 65.4 51.1491 65.264C51.5011 65.128 51.8971 65.06 52.3371 65.06C52.6251 65.06 52.9251 65.104 53.2371 65.192C53.5491 65.28 53.8331 65.432 54.0891 65.648C54.1691 65.704 54.2211 65.772 54.2451 65.852C54.2691 65.932 54.2691 66.012 54.2451 66.092C54.2211 66.164 54.1811 66.228 54.1251 66.284C54.0691 66.332 53.9971 66.36 53.9091 66.368C53.8291 66.376 53.7451 66.348 53.6571 66.284C53.4491 66.124 53.2371 66.012 53.0211 65.948C52.8051 65.884 52.5971 65.852 52.3971 65.852C52.0851 65.852 51.8131 65.904 51.5811 66.008C51.3491 66.104 51.1531 66.244 50.9931 66.428C50.8331 66.612 50.7091 66.84 50.6211 67.112C50.5411 67.384 50.5011 67.7 50.5011 68.06C50.5011 68.756 50.6651 69.308 50.9931 69.716C51.3211 70.116 51.7891 70.316 52.3971 70.316C52.5971 70.316 52.8011 70.284 53.0091 70.22C53.2251 70.156 53.4411 70.044 53.6571 69.884C53.7451 69.82 53.8291 69.792 53.9091 69.8C53.9891 69.808 54.0571 69.84 54.1131 69.896C54.1691 69.944 54.2051 70.008 54.2211 70.088C54.2451 70.168 54.2451 70.248 54.2211 70.328C54.1971 70.4 54.1451 70.464 54.0651 70.52C53.8091 70.728 53.5291 70.88 53.2251 70.976C52.9211 71.064 52.6251 71.108 52.3371 71.108ZM57.7598 71.108C57.3038 71.108 56.9198 71.028 56.6078 70.868C56.3038 70.7 56.0758 70.46 55.9238 70.148C55.7718 69.828 55.6958 69.44 55.6958 68.984V65.924H54.8918C54.7558 65.924 54.6518 65.892 54.5798 65.828C54.5078 65.756 54.4718 65.66 54.4718 65.54C54.4718 65.42 54.5078 65.328 54.5798 65.264C54.6518 65.2 54.7558 65.168 54.8918 65.168H55.6958V63.788C55.6958 63.628 55.7398 63.508 55.8278 63.428C55.9158 63.34 56.0358 63.296 56.1878 63.296C56.3398 63.296 56.4558 63.34 56.5358 63.428C56.6238 63.508 56.6678 63.628 56.6678 63.788V65.168H58.1798C58.3158 65.168 58.4198 65.2 58.4918 65.264C58.5638 65.328 58.5998 65.42 58.5998 65.54C58.5998 65.66 58.5638 65.756 58.4918 65.828C58.4198 65.892 58.3158 65.924 58.1798 65.924H56.6678V68.888C56.6678 69.344 56.7638 69.692 56.9558 69.932C57.1478 70.164 57.4598 70.28 57.8918 70.28C58.0438 70.28 58.1718 70.264 58.2758 70.232C58.3878 70.2 58.4798 70.184 58.5518 70.184C58.6238 70.176 58.6838 70.2 58.7318 70.256C58.7798 70.312 58.8038 70.408 58.8038 70.544C58.8038 70.64 58.7838 70.728 58.7438 70.808C58.7118 70.888 58.6518 70.944 58.5638 70.976C58.4678 71.008 58.3398 71.036 58.1798 71.06C58.0278 71.092 57.8878 71.108 57.7598 71.108ZM59.7859 68.204C59.6659 68.204 59.5659 68.168 59.4859 68.096C59.4059 68.016 59.3659 67.92 59.3659 67.808C59.3659 67.688 59.4059 67.592 59.4859 67.52C59.5659 67.44 59.6659 67.4 59.7859 67.4H62.4859C62.5979 67.4 62.6939 67.44 62.7739 67.52C62.8539 67.592 62.8939 67.688 62.8939 67.808C62.8939 67.92 62.8539 68.016 62.7739 68.096C62.6939 68.168 62.5979 68.204 62.4859 68.204H59.7859ZM66.9797 71.108C66.4597 71.108 66.0037 70.984 65.6117 70.736C65.2277 70.488 64.9277 70.14 64.7117 69.692C64.5037 69.236 64.3997 68.7 64.3997 68.084C64.3997 67.46 64.5037 66.924 64.7117 66.476C64.9277 66.02 65.2277 65.672 65.6117 65.432C66.0037 65.184 66.4597 65.06 66.9797 65.06C67.5077 65.06 67.9597 65.192 68.3357 65.456C68.7117 65.72 68.9637 66.076 69.0917 66.524H68.9597V62.948C68.9597 62.788 68.9997 62.668 69.0797 62.588C69.1677 62.5 69.2917 62.456 69.4517 62.456C69.6037 62.456 69.7197 62.5 69.7997 62.588C69.8877 62.668 69.9317 62.788 69.9317 62.948V70.58C69.9317 70.74 69.8917 70.864 69.8117 70.952C69.7317 71.04 69.6117 71.084 69.4517 71.084C69.2997 71.084 69.1797 71.04 69.0917 70.952C69.0117 70.864 68.9717 70.74 68.9717 70.58V69.44L69.1037 69.608C68.9757 70.064 68.7197 70.428 68.3357 70.7C67.9597 70.972 67.5077 71.108 66.9797 71.108ZM67.1837 70.328C67.5437 70.328 67.8597 70.24 68.1317 70.064C68.4037 69.888 68.6117 69.632 68.7557 69.296C68.9077 68.96 68.9837 68.556 68.9837 68.084C68.9837 67.356 68.8197 66.8 68.4917 66.416C68.1717 66.032 67.7357 65.84 67.1837 65.84C66.8157 65.84 66.4957 65.928 66.2237 66.104C65.9597 66.272 65.7517 66.524 65.5997 66.86C65.4557 67.188 65.3837 67.596 65.3837 68.084C65.3837 68.804 65.5477 69.36 65.8757 69.752C66.2037 70.136 66.6397 70.328 67.1837 70.328ZM74.3838 71.108C73.7678 71.108 73.2358 70.988 72.7878 70.748C72.3478 70.5 72.0038 70.152 71.7558 69.704C71.5158 69.256 71.3958 68.72 71.3958 68.096C71.3958 67.488 71.5158 66.96 71.7558 66.512C71.9958 66.056 72.3238 65.7 72.7398 65.444C73.1638 65.188 73.6518 65.06 74.2038 65.06C74.5958 65.06 74.9478 65.128 75.2598 65.264C75.5718 65.392 75.8358 65.58 76.0518 65.828C76.2758 66.076 76.4438 66.376 76.5558 66.728C76.6758 67.08 76.7358 67.476 76.7358 67.916C76.7358 68.044 76.6998 68.14 76.6278 68.204C76.5558 68.26 76.4518 68.288 76.3158 68.288H72.1398V67.652H76.0878L75.8958 67.808C75.8958 67.376 75.8318 67.012 75.7038 66.716C75.5758 66.412 75.3878 66.18 75.1398 66.02C74.8998 65.86 74.5958 65.78 74.2278 65.78C73.8198 65.78 73.4718 65.876 73.1838 66.068C72.9038 66.252 72.6918 66.512 72.5478 66.848C72.4038 67.176 72.3318 67.56 72.3318 68V68.072C72.3318 68.808 72.5078 69.368 72.8598 69.752C73.2198 70.136 73.7278 70.328 74.3838 70.328C74.6558 70.328 74.9238 70.292 75.1878 70.22C75.4598 70.148 75.7238 70.028 75.9798 69.86C76.0918 69.788 76.1918 69.756 76.2798 69.764C76.3758 69.764 76.4518 69.792 76.5078 69.848C76.5638 69.896 76.5998 69.96 76.6158 70.04C76.6398 70.112 76.6318 70.192 76.5918 70.28C76.5598 70.368 76.4918 70.444 76.3878 70.508C76.1238 70.7 75.8118 70.848 75.4518 70.952C75.0918 71.056 74.7358 71.108 74.3838 71.108ZM81.0945 71.108C80.5665 71.108 80.1105 70.972 79.7265 70.7C79.3505 70.428 79.0985 70.064 78.9705 69.608L79.1025 69.476V70.58C79.1025 70.74 79.0585 70.864 78.9705 70.952C78.8905 71.04 78.7745 71.084 78.6225 71.084C78.4625 71.084 78.3425 71.04 78.2625 70.952C78.1825 70.864 78.1425 70.74 78.1425 70.58V62.948C78.1425 62.788 78.1825 62.668 78.2625 62.588C78.3425 62.5 78.4625 62.456 78.6225 62.456C78.7745 62.456 78.8945 62.5 78.9825 62.588C79.0705 62.668 79.1145 62.788 79.1145 62.948V66.524H78.9705C79.1065 66.076 79.3625 65.72 79.7385 65.456C80.1145 65.192 80.5665 65.06 81.0945 65.06C81.6225 65.06 82.0785 65.184 82.4625 65.432C82.8465 65.672 83.1425 66.02 83.3505 66.476C83.5665 66.924 83.6745 67.46 83.6745 68.084C83.6745 68.7 83.5665 69.236 83.3505 69.692C83.1425 70.14 82.8425 70.488 82.4505 70.736C82.0665 70.984 81.6145 71.108 81.0945 71.108ZM80.8905 70.328C81.2585 70.328 81.5745 70.24 81.8385 70.064C82.1105 69.888 82.3185 69.632 82.4625 69.296C82.6145 68.96 82.6905 68.556 82.6905 68.084C82.6905 67.356 82.5265 66.8 82.1985 66.416C81.8785 66.032 81.4425 65.84 80.8905 65.84C80.5305 65.84 80.2145 65.928 79.9425 66.104C79.6705 66.272 79.4585 66.524 79.3065 66.86C79.1625 67.188 79.0905 67.596 79.0905 68.084C79.0905 68.804 79.2545 69.36 79.5825 69.752C79.9105 70.136 80.3465 70.328 80.8905 70.328ZM87.5626 71.108C86.9946 71.108 86.5026 70.984 86.0866 70.736C85.6706 70.488 85.3466 70.14 85.1146 69.692C84.8906 69.236 84.7786 68.7 84.7786 68.084C84.7786 67.62 84.8426 67.204 84.9706 66.836C85.0986 66.46 85.2866 66.14 85.5346 65.876C85.7826 65.612 86.0746 65.412 86.4106 65.276C86.7546 65.132 87.1386 65.06 87.5626 65.06C88.1306 65.06 88.6226 65.184 89.0386 65.432C89.4546 65.68 89.7746 66.032 89.9986 66.488C90.2306 66.936 90.3466 67.468 90.3466 68.084C90.3466 68.548 90.2826 68.964 90.1546 69.332C90.0266 69.7 89.8386 70.02 89.5906 70.292C89.3426 70.556 89.0466 70.76 88.7026 70.904C88.3666 71.04 87.9866 71.108 87.5626 71.108ZM87.5626 70.328C87.9226 70.328 88.2386 70.24 88.5106 70.064C88.7826 69.888 88.9906 69.632 89.1346 69.296C89.2866 68.96 89.3626 68.556 89.3626 68.084C89.3626 67.356 89.1986 66.8 88.8706 66.416C88.5506 66.032 88.1146 65.84 87.5626 65.84C87.1946 65.84 86.8746 65.928 86.6026 66.104C86.3386 66.272 86.1306 66.524 85.9786 66.86C85.8346 67.188 85.7626 67.596 85.7626 68.084C85.7626 68.804 85.9266 69.36 86.2546 69.752C86.5826 70.136 87.0186 70.328 87.5626 70.328ZM93.8705 71.108C93.3985 71.108 93.0065 71.024 92.6945 70.856C92.3905 70.68 92.1585 70.42 91.9985 70.076C91.8465 69.732 91.7705 69.304 91.7705 68.792V65.576C91.7705 65.408 91.8105 65.284 91.8905 65.204C91.9785 65.124 92.0985 65.084 92.2505 65.084C92.4105 65.084 92.5305 65.124 92.6105 65.204C92.6985 65.284 92.7425 65.408 92.7425 65.576V68.78C92.7425 69.292 92.8465 69.676 93.0545 69.932C93.2705 70.18 93.6065 70.304 94.0625 70.304C94.5585 70.304 94.9625 70.136 95.2745 69.8C95.5865 69.464 95.7425 69.024 95.7425 68.48V65.576C95.7425 65.408 95.7825 65.284 95.8625 65.204C95.9505 65.124 96.0745 65.084 96.2345 65.084C96.3865 65.084 96.5025 65.124 96.5825 65.204C96.6705 65.284 96.7145 65.408 96.7145 65.576V70.58C96.7145 70.916 96.5585 71.084 96.2465 71.084C96.0945 71.084 95.9745 71.04 95.8865 70.952C95.8065 70.864 95.7665 70.74 95.7665 70.58V69.488L95.9225 69.656C95.7625 70.128 95.4985 70.488 95.1305 70.736C94.7705 70.984 94.3505 71.108 93.8705 71.108ZM99.0131 71.084C98.8531 71.084 98.7331 71.04 98.6531 70.952C98.5731 70.864 98.5331 70.74 98.5331 70.58V65.576C98.5331 65.416 98.5731 65.296 98.6531 65.216C98.7331 65.128 98.8491 65.084 99.0011 65.084C99.1531 65.084 99.2691 65.128 99.3491 65.216C99.4371 65.296 99.4811 65.416 99.4811 65.576V66.608L99.3491 66.464C99.5171 66 99.7891 65.652 100.165 65.42C100.549 65.18 100.989 65.06 101.485 65.06C101.949 65.06 102.333 65.144 102.637 65.312C102.949 65.48 103.181 65.736 103.333 66.08C103.485 66.416 103.561 66.844 103.561 67.364V70.58C103.561 70.74 103.517 70.864 103.429 70.952C103.349 71.04 103.233 71.084 103.081 71.084C102.921 71.084 102.797 71.04 102.709 70.952C102.629 70.864 102.589 70.74 102.589 70.58V67.424C102.589 66.88 102.481 66.484 102.265 66.236C102.057 65.98 101.721 65.852 101.257 65.852C100.721 65.852 100.293 66.02 99.9731 66.356C99.6611 66.684 99.5051 67.124 99.5051 67.676V70.58C99.5051 70.916 99.3411 71.084 99.0131 71.084ZM107.825 71.108C107.241 71.108 106.737 70.98 106.313 70.724C105.889 70.468 105.561 70.112 105.329 69.656C105.105 69.192 104.993 68.656 104.993 68.048C104.993 67.584 105.057 67.168 105.185 66.8C105.313 66.432 105.501 66.12 105.749 65.864C105.997 65.6 106.293 65.4 106.637 65.264C106.989 65.128 107.385 65.06 107.825 65.06C108.113 65.06 108.413 65.104 108.725 65.192C109.037 65.28 109.321 65.432 109.577 65.648C109.657 65.704 109.709 65.772 109.733 65.852C109.757 65.932 109.757 66.012 109.733 66.092C109.709 66.164 109.669 66.228 109.613 66.284C109.557 66.332 109.485 66.36 109.397 66.368C109.317 66.376 109.233 66.348 109.145 66.284C108.937 66.124 108.725 66.012 108.509 65.948C108.293 65.884 108.085 65.852 107.885 65.852C107.573 65.852 107.301 65.904 107.069 66.008C106.837 66.104 106.641 66.244 106.481 66.428C106.321 66.612 106.197 66.84 106.109 67.112C106.029 67.384 105.989 67.7 105.989 68.06C105.989 68.756 106.153 69.308 106.481 69.716C106.809 70.116 107.277 70.316 107.885 70.316C108.085 70.316 108.289 70.284 108.497 70.22C108.713 70.156 108.929 70.044 109.145 69.884C109.233 69.82 109.317 69.792 109.397 69.8C109.477 69.808 109.545 69.84 109.601 69.896C109.657 69.944 109.693 70.008 109.709 70.088C109.733 70.168 109.733 70.248 109.709 70.328C109.685 70.4 109.633 70.464 109.553 70.52C109.297 70.728 109.017 70.88 108.713 70.976C108.409 71.064 108.113 71.108 107.825 71.108ZM113.419 71.108C112.803 71.108 112.271 70.988 111.823 70.748C111.383 70.5 111.039 70.152 110.791 69.704C110.551 69.256 110.431 68.72 110.431 68.096C110.431 67.488 110.551 66.96 110.791 66.512C111.031 66.056 111.359 65.7 111.775 65.444C112.199 65.188 112.687 65.06 113.239 65.06C113.631 65.06 113.983 65.128 114.295 65.264C114.607 65.392 114.871 65.58 115.087 65.828C115.311 66.076 115.479 66.376 115.591 66.728C115.711 67.08 115.771 67.476 115.771 67.916C115.771 68.044 115.735 68.14 115.663 68.204C115.591 68.26 115.487 68.288 115.351 68.288H111.175V67.652H115.123L114.931 67.808C114.931 67.376 114.867 67.012 114.739 66.716C114.611 66.412 114.423 66.18 114.175 66.02C113.935 65.86 113.631 65.78 113.263 65.78C112.855 65.78 112.507 65.876 112.219 66.068C111.939 66.252 111.727 66.512 111.583 66.848C111.439 67.176 111.367 67.56 111.367 68V68.072C111.367 68.808 111.543 69.368 111.895 69.752C112.255 70.136 112.763 70.328 113.419 70.328C113.691 70.328 113.959 70.292 114.223 70.22C114.495 70.148 114.759 70.028 115.015 69.86C115.127 69.788 115.227 69.756 115.315 69.764C115.411 69.764 115.487 69.792 115.543 69.848C115.599 69.896 115.635 69.96 115.651 70.04C115.675 70.112 115.667 70.192 115.627 70.28C115.595 70.368 115.527 70.444 115.423 70.508C115.159 70.7 114.847 70.848 114.487 70.952C114.127 71.056 113.771 71.108 113.419 71.108Z" fill="#F9FAFB"/>
<path d="M62.7272 39.5341L62.6463 39.2409C62.6309 39.1884 62.5806 39.1534 62.5259 39.1622C61.7363 39.2694 59.8791 39.5362 59.7128 39.6872C59.6188 39.7725 59.5859 39.8841 59.6188 39.9934C59.6559 40.1159 59.7741 40.2144 59.9053 40.2319C59.9841 40.245 60.0869 40.2494 60.1744 40.2537C60.1656 40.2975 60.1678 40.3391 60.1788 40.3806C60.2028 40.4637 60.2663 40.5228 60.3494 40.5403C60.3866 40.5491 60.4259 40.5512 60.4697 40.5512C61.1194 40.5512 62.5106 39.755 62.6747 39.6587C62.7206 39.6325 62.7403 39.5822 62.7272 39.5341Z" fill="#91674D"/>
<path d="M65.1772 35.3647L63.81 37.9481C63.8078 37.9481 63.8078 37.9503 63.8056 37.9503L61.4563 39.1994C61.0538 39.3919 61.4541 40.4309 61.8631 40.4309C61.8981 40.4309 61.9331 40.4222 61.9681 40.4069L64.6522 39.3306L64.65 39.3262C64.8163 39.2519 64.9497 39.1294 65.035 38.9784L65.0416 38.9828L66.5991 36.1194L65.1772 35.3647Z" fill="url(#paint0_linear_673_9099)"/>
<path d="M62.5303 39.2366C62.2547 38.9128 62.0469 38.9303 61.7603 38.9937C61.6947 39.0091 61.6269 39.0266 61.5525 39.0462C61.3425 39.1009 61.08 39.1687 60.6578 39.2191C60.0956 39.2847 59.4109 39.2584 59.4044 39.2584C59.3934 39.2562 59.3825 39.2584 59.3715 39.2606C59.249 39.2912 59.1572 39.3766 59.1244 39.4859C59.0937 39.5887 59.12 39.6959 59.1944 39.7747C59.4044 39.9978 60.17 40.0394 60.6337 40.0109C60.765 40.0022 60.9947 39.9934 61.1784 39.9869C61.2047 39.9803 61.2244 40.0066 61.2287 40.0175C61.2331 40.0284 61.2397 40.0503 61.2222 40.0722C61.1369 40.1706 61.0275 40.2603 60.8984 40.3347C60.7344 40.4287 60.6556 40.5316 60.6622 40.6475C60.6665 40.7634 60.7584 40.8619 60.9225 40.9362C60.9706 40.9581 61.0253 40.9669 61.0865 40.9669C61.4694 40.9669 62.0556 40.5906 62.2547 40.3959C62.5019 40.1509 62.8037 39.5559 62.5303 39.2366Z" fill="url(#paint1_linear_673_9099)"/>
<path d="M66.6472 34.5094L66.4131 34.3912C66.2557 34.3093 66.0809 34.2665 65.9034 34.2666C65.49 34.2666 65.0919 34.4941 64.8928 34.8878L63.8188 37.0075L66.0697 38.1494L67.1438 36.0297C67.4259 35.4719 67.2028 34.7916 66.6472 34.5094Z" fill="#ED6D23"/>
<path d="M73.2928 44.0709L70.0881 39.3328L67.7213 41.0609L71.5275 45.8997H71.5297C71.7375 46.1841 72.0438 46.3525 72.3675 46.3962L72.3653 46.4094L78.23 47.1444L78.5866 45.2303L73.2928 44.0709Z" fill="#91674D"/>
<path d="M76.9284 44.865L76.5434 46.93L78.2278 47.14L78.5844 45.2259L76.9284 44.865Z" fill="#BDBDBD"/>
<path d="M67.7081 28.6644C67.1153 27.8047 65.84 27.1747 64.8184 27.3956C63.6744 27.6406 63.0947 28.5025 62.9831 29.5634C62.9416 29.9484 62.9722 30.3269 63.0509 30.5937C63.0597 30.6266 63.1363 30.8562 63.1428 30.9306C63.1997 31.2128 62.6638 31.5212 62.6156 31.8384C62.5784 32.0769 63.0772 32.2016 63.1188 32.2431C63.3222 32.4444 63.0663 33.4681 64.4203 33.5009C64.9409 33.5141 64.8381 33.4878 64.9934 33.5381C65.2363 33.6169 65.5425 34.3256 65.5425 34.3256C65.5425 34.3256 65.4288 35.2903 66.3081 34.9709C67.31 34.6056 67.5353 33.6978 67.5353 33.6978C67.5353 33.6978 66.8878 32.8972 67.4456 31.8231C67.8897 30.9634 68.0888 29.2178 67.7081 28.6644Z" fill="#BA8D68"/>
<path d="M63.285 32.7988C63.4731 32.8009 63.6547 32.7463 63.8078 32.6216C63.9741 32.4859 63.8494 32.3481 63.6547 32.4422C63.5387 32.4991 63.3703 32.5319 63.215 32.5122L63.285 32.7988Z" fill="#5D4037"/>
<path d="M64.0178 31.4282C64.1539 31.4172 64.2505 31.2384 64.2336 31.0289C64.2167 30.8194 64.0927 30.6584 63.9566 30.6694C63.8205 30.6804 63.7239 30.8591 63.7408 31.0686C63.7577 31.2782 63.8817 31.4391 64.0178 31.4282Z" fill="#49362E"/>
<path d="M63.7684 30.4953C63.5278 30.5653 63.4709 30.4056 63.5519 30.2766C63.6109 30.1825 63.7575 30.1037 64.0397 30.1606C64.3044 30.2153 64.4137 30.3684 64.4859 30.4603C64.5559 30.5544 64.5472 30.6462 64.4859 30.655C64.4028 30.6681 64.0681 30.41 63.7684 30.4953Z" fill="#613E31"/>
<path d="M68.4737 28.6687C68.15 27.96 67.5528 27.7697 67.3581 27.7259C67.2553 27.4678 66.7544 26.4966 65.1247 26.8487C64.7287 26.9341 64.4466 27.1397 64.195 27.3191C64.0878 27.3978 63.9872 27.47 63.8909 27.5225C63.8122 27.5641 63.6744 27.6056 63.5562 27.5728C63.2872 27.4984 63.3506 27.0937 63.3506 27.0937C63.3506 27.0937 62.3903 27.3322 62.8541 28.2509C62.5369 28.4106 62.4012 28.765 62.3597 29.0909C62.3028 29.5394 62.5391 29.9484 62.9744 30.1191C62.9744 30.1191 62.8541 29.4103 63.8844 29.4016C64.2037 29.3994 64.5406 29.4322 64.8294 29.2987C64.9409 29.2484 65.0416 29.1719 65.1487 29.1106C65.175 29.1084 65.1881 29.1084 65.1881 29.1084C65.5884 29.2987 65.1203 30.2416 65.5797 30.7578C65.6716 30.8606 65.7394 30.8169 65.7394 30.8169L65.9012 30.5544C66.0237 30.3728 66.1375 30.2153 66.3016 30.2437C66.7916 30.3269 66.7456 31.1953 66.1812 31.4141C66.1244 31.4359 66.3059 32.3941 67.4959 32.335C68.1106 32.3044 68.3031 31.7837 68.3031 31.7837C68.3031 31.7837 68.0428 31.8625 67.975 31.6416C67.94 31.5278 68.0384 31.3659 68.2222 31.1844C68.7516 30.6616 68.5241 30.1059 68.4344 29.9331C68.5197 29.7647 68.7275 29.2244 68.4737 28.6687Z" fill="#543930"/>
<path d="M68.4431 29.9331C68.4519 29.9134 68.2922 30.3794 67.5025 30.3444C67.1787 30.3597 66.7675 31.1625 67.2662 31.6547C67.7081 32.09 68.3119 31.7837 68.3119 31.7837C68.3119 31.7837 68.2287 31.8122 68.1019 31.775C68.0187 31.7509 67.9859 31.6459 67.9837 31.6416C67.9487 31.5278 68.0472 31.3659 68.2309 31.1844C68.7603 30.6616 68.5328 30.1037 68.4431 29.9331Z" fill="url(#paint2_radial_673_9099)"/>
<path d="M68.4738 28.6687C68.3031 28.2947 68.01 27.9884 67.6338 27.82C67.5791 27.7959 67.4456 27.7391 67.3559 27.7259C67.4084 27.8922 67.4106 28.0737 67.3494 28.2641C67.3472 28.2706 67.2772 28.5528 67.0519 28.7847C67.2378 29.0166 67.3384 29.3031 67.4347 29.5831C67.5178 29.8281 67.6009 30.0994 67.5025 30.34C67.6534 30.3225 67.8941 30.3531 68.1522 30.2219C68.3994 30.095 68.5175 29.7975 68.5678 29.5328C68.6225 29.2441 68.5963 28.94 68.4738 28.6687Z" fill="url(#paint3_radial_673_9099)"/>
<path d="M67.3472 28.2662C67.5134 27.7697 67.2225 27.3322 66.8025 27.0522C66.3103 26.7241 65.6825 26.7284 65.1247 26.8487C64.7287 26.9341 64.4466 27.1397 64.195 27.3191C64.0878 27.3978 63.9872 27.47 63.8909 27.5225C63.8122 27.5641 63.6744 27.6056 63.5562 27.5728C63.2872 27.4984 63.3506 27.0937 63.3506 27.0937C63.3506 27.0937 62.3903 27.3322 62.8541 28.2509C62.5369 28.4106 62.4012 28.765 62.3597 29.0909C62.3028 29.5394 62.5391 29.9484 62.9744 30.1191C62.9744 30.1191 62.8541 29.4103 63.8844 29.4016C64.2037 29.3994 64.5406 29.4322 64.8294 29.2987C65.0853 29.1806 65.1684 29.0341 65.4616 29.0362C65.7787 29.0384 66.2053 29.1391 66.5291 29.0712C67.1853 28.9378 67.345 28.275 67.3472 28.2662Z" fill="url(#paint4_radial_673_9099)"/>
<path d="M67.2641 31.6525C67.0409 31.4381 66.9666 31.0684 66.6253 30.8869C66.575 31.1056 66.4285 31.3178 66.1878 31.4119C66.131 31.4337 66.3125 32.3919 67.5025 32.3328C68.1172 32.3022 68.3097 31.7816 68.3097 31.7816C68.3097 31.7816 67.7125 32.0834 67.2641 31.6525Z" fill="url(#paint5_radial_673_9099)"/>
<path d="M67.7431 39.4553L64.9759 44.0731C64.5512 44.7817 64.3706 45.6101 64.4619 46.4312L65.0612 51.8519L66.7259 51.8562L66.9141 45.8341L70.2172 41.0281L67.7431 39.4553Z" fill="url(#paint6_linear_673_9099)"/>
<path d="M64.8272 49.6731L64.9956 51.5172L66.7237 51.5216L66.8091 49.6775L64.8272 49.6731Z" fill="#E0E0E0"/>
<path d="M70.2959 39.1425C70.1339 38.921 69.9218 38.741 69.677 38.6171C69.4322 38.4931 69.1616 38.4288 68.8872 38.4294C68.5306 38.4294 68.1719 38.5387 67.8612 38.7641C67.0847 39.3306 66.914 40.4222 67.4806 41.1987L69.4428 43.7494L72.1269 41.7894L70.2959 39.1425Z" fill="#646464"/>
<path d="M69.935 38.7444C69.6548 38.5675 69.3302 38.4734 68.9988 38.4731C68.4234 38.4731 67.8591 38.7597 67.5266 39.2803L65.8706 42.0388L68.675 43.8216L70.4709 41.1506C70.9872 40.3391 70.7466 39.2606 69.935 38.7444Z" fill="#7C7C7C"/>
<path d="M70.7225 39.4247C70.2959 37.7031 69.5478 35.9816 68.7778 34.26C68.5197 33.6103 67.8547 33.2231 67.1941 33.2231C67.0059 33.2231 66.82 33.2538 66.6428 33.3194C65.5556 33.7219 64.9956 34.7216 65.3369 35.9225C65.84 37.6988 66.0894 38.7531 66.2753 40.5009C66.2994 40.7263 66.4963 40.8881 66.7194 40.8881C66.7588 40.8881 66.7981 40.8838 66.8397 40.8728C67.975 40.5709 69.2547 40.2538 70.4097 39.9475C70.6372 39.8863 70.7794 39.6544 70.7225 39.4247Z" fill="url(#paint7_radial_673_9099)"/>
<path d="M75.6313 39.1031C75.5613 38.9281 75.4563 38.7553 75.3228 38.5344C75.22 38.3659 74.45 37.4888 74.1306 37.3356C73.9381 37.0119 72.8772 35.6928 72.4025 35.1066C72.2909 34.9688 72.1422 34.8659 71.9716 34.8091L68.8478 33.8247C68.834 33.8203 68.8195 33.8187 68.8051 33.8199C68.7907 33.8212 68.7767 33.8253 68.7638 33.832C68.751 33.8387 68.7397 33.8479 68.7304 33.859C68.7212 33.8702 68.7142 33.883 68.71 33.8969L68.2331 35.4456C68.2249 35.4732 68.2279 35.5029 68.2414 35.5282C68.2549 35.5536 68.2779 35.5727 68.3053 35.5813L71.16 36.4628C71.6216 36.9069 72.7306 37.9766 72.8838 38.1253C72.9603 38.3813 72.9428 38.705 72.9297 38.9916C72.9144 39.3022 72.9013 39.5472 73.0019 39.6828C73.0981 39.8119 73.2075 39.8184 73.2644 39.8119C73.4153 39.7922 73.5247 39.65 73.5728 39.5319C73.6363 39.3788 73.6341 39.2213 73.6319 39.1053V39.0397C73.7675 39.1316 73.8178 39.4881 73.8572 39.7769C73.9097 40.1488 73.9534 40.4703 74.1788 40.5097C74.1897 40.5119 74.2006 40.5119 74.2116 40.5119C74.2575 40.5119 74.2991 40.4944 74.3341 40.4616C74.4456 40.3566 74.4544 40.0809 74.4456 39.8819C74.4609 39.9497 74.4653 40.0175 74.4697 40.0853C74.4828 40.2538 74.5003 40.4813 74.7388 40.49C74.8109 40.4922 74.8591 40.4659 74.8984 40.4156C74.9663 40.3325 74.9794 40.1903 74.9706 40.0459C75.0275 40.1597 75.0953 40.2253 75.2025 40.1903C75.2419 40.1772 75.2988 40.1444 75.3359 40.0613C75.3709 39.9847 75.3841 39.8797 75.3797 39.7703C75.3928 39.7834 75.4059 39.7944 75.4234 39.8009C75.4497 39.8119 75.4891 39.8141 75.5153 39.8053C75.5591 39.79 75.6181 39.755 75.6575 39.6675C75.7253 39.5297 75.7122 39.3131 75.6313 39.1031Z" fill="url(#paint8_linear_673_9099)"/>
<path d="M68.1347 33.2625C68.0319 33.2319 67.9247 33.2166 67.8219 33.2166C67.3297 33.2166 66.8791 33.5381 66.7347 34.0347L66.6559 34.3038C66.4831 34.9031 66.8287 35.5309 67.4281 35.7038L69.7337 36.3688L70.4381 33.9253L68.1347 33.2625Z" fill="#ED6D23"/>
<path d="M66.7413 51.3356H65.0066L63.8078 51.7884C63.4709 51.9197 63.25 52.2391 63.2456 52.5956L63.2434 52.8734C63.2434 52.9938 63.3419 53.0922 63.4644 53.0922L66.9119 53.0878C67.0519 53.0878 67.1656 52.9763 67.1656 52.8363V52.2238C67.1678 51.8103 66.7413 51.3356 66.7413 51.3356Z" fill="#4568AD"/>
<path d="M79.9385 45.1253L79.3369 45.0137C79.291 45.005 79.2472 45.0028 79.2013 45.0028C78.8163 45.0028 78.3788 45.2697 78.3788 45.2697L78.0594 46.9759L78.2847 48.2359C78.3503 48.5903 78.6238 48.8681 78.976 48.9359L79.2472 48.9884C79.2603 48.9906 79.2756 48.9928 79.2888 48.9928C79.3916 48.9928 79.4856 48.9184 79.5053 48.8112L80.1375 45.4206C80.1638 45.2828 80.0741 45.1516 79.9385 45.1253Z" fill="#325599"/>
<path d="M62.2328 43.71C62.2328 45.0969 61.0734 46.2234 59.645 46.2234C58.2166 46.2234 57.0594 45.0969 57.0594 43.71C57.0594 42.3231 58.2188 41.1966 59.645 41.1966C61.0756 41.1966 62.2328 42.3209 62.2328 43.71Z" fill="url(#paint9_radial_673_9099)"/>
<path d="M59.7128 46.2212C59.6909 46.2234 59.6669 46.2234 59.645 46.2234C59.3913 46.2234 59.1441 46.1862 58.9144 46.1206H58.9122C58.5994 45.6875 58.0175 44.6987 58.0525 43.3775C58.0547 43.2769 58.0613 43.1719 58.0722 43.0669C58.0831 42.9312 58.105 42.7956 58.1313 42.6556C58.1466 42.5725 58.1663 42.4894 58.1881 42.4041L58.1947 42.3844C58.2188 42.2837 58.2516 42.1919 58.2888 42.1087H58.2909C58.3216 42.0322 58.3544 41.9644 58.3916 41.9009H58.3938C58.5688 41.5925 58.7984 41.4 58.9713 41.2862C59.1747 41.2316 59.3891 41.2009 59.6078 41.1987C59.3869 41.2797 58.9953 41.47 58.7241 41.8944C58.6781 41.9622 58.6366 42.0387 58.6038 42.1197H58.6016C58.5688 42.1919 58.5403 42.2728 58.5141 42.3581C58.4866 42.4468 58.4661 42.5375 58.4528 42.6294C58.4309 42.7672 58.4156 42.8984 58.4091 43.0297C58.4025 43.1347 58.4025 43.2397 58.4091 43.3425C58.4616 44.7206 59.3125 45.7903 59.7128 46.2212Z" fill="url(#paint10_radial_673_9099)"/>
<path d="M60.9444 41.5378C60.1919 41.5269 59.5706 42.0672 58.6059 42.1175H58.6037C58.5556 42.1197 58.5097 42.1219 58.4594 42.1219C58.3959 42.1219 58.3434 42.1175 58.2931 42.1066H58.2909C58.0525 42.0628 57.9737 41.9184 57.9497 41.8134C58.0153 41.7566 58.0853 41.7041 58.1553 41.6559C58.1487 41.7522 58.1881 41.8616 58.3937 41.8988H58.3959C58.4419 41.9053 58.4944 41.9075 58.5578 41.9075C58.6103 41.9075 58.6672 41.9009 58.7262 41.8922C59.2797 41.8134 60.0278 41.4328 60.2553 41.3606C60.3209 41.3409 60.3909 41.3278 60.4544 41.3234C60.6272 41.3781 60.7912 41.4481 60.9444 41.5378Z" fill="url(#paint11_radial_673_9099)"/>
<path d="M61.6772 45.2653C61.5613 45.4097 61.4278 45.5409 61.2791 45.6613C61.0778 45.3003 60.6884 44.7206 59.96 44.0447C59.5488 43.6619 58.9931 43.3513 58.4113 43.3403C58.3456 43.3359 58.2778 43.3381 58.2122 43.3447C58.1553 43.3491 58.1028 43.36 58.0525 43.3775C57.4728 43.5503 57.3416 44.3203 57.3175 44.8016C57.2059 44.5784 57.125 44.3378 57.0856 44.0841C57.2256 43.7122 57.5144 43.1981 58.0722 43.0669C58.1181 43.0559 58.1641 43.0472 58.2144 43.0428C58.28 43.0363 58.3478 43.0319 58.4113 43.0297C59.1725 43.0144 59.7325 43.3884 60.2684 43.78C60.9969 44.305 61.4584 44.9328 61.6772 45.2653Z" fill="url(#paint12_radial_673_9099)"/>
<path d="M62.2328 43.6772V43.71C62.2328 43.9069 62.2109 44.095 62.165 44.2787C61.4781 43.6422 60.0803 42.5725 58.455 42.6272C58.3475 42.631 58.2401 42.6397 58.1334 42.6534C57.6412 42.7212 57.3306 42.9094 57.1425 43.08C57.1819 42.9291 57.2365 42.7847 57.3022 42.6469C57.51 42.5375 57.8031 42.4281 58.1969 42.3822C58.2384 42.3756 58.28 42.3734 58.3215 42.3691L58.5162 42.3559C60.3231 42.2728 61.6925 43.2287 62.2328 43.6772Z" fill="url(#paint13_radial_673_9099)"/>
<defs>
<linearGradient id="paint0_linear_673_9099" x1="61.6267" y1="39.879" x2="64.8926" y2="37.3761" gradientUnits="userSpaceOnUse">
<stop stop-color="#BA8D68"/>
<stop offset="1" stop-color="#A47B62"/>
</linearGradient>
<linearGradient id="paint1_linear_673_9099" x1="62.8536" y1="39.8784" x2="59.8014" y2="40.0717" gradientUnits="userSpaceOnUse">
<stop stop-color="#BA8D68"/>
<stop offset="1" stop-color="#A47B62"/>
</linearGradient>
<radialGradient id="paint2_radial_673_9099" cx="0" cy="0" r="1" gradientUnits="userSpaceOnUse" gradientTransform="translate(67.0129 31.1416) rotate(17.4511) scale(1.55798 2.24357)">
<stop offset="0.45" stop-color="#6D4C41" stop-opacity="0"/>
<stop offset="1" stop-color="#6D4C41"/>
</radialGradient>
<radialGradient id="paint3_radial_673_9099" cx="0" cy="0" r="1" gradientUnits="userSpaceOnUse" gradientTransform="translate(67.1185 29.564) rotate(-10.5334) scale(1.57908 1.99269)">
<stop offset="0.45" stop-color="#6D4C41" stop-opacity="0"/>
<stop offset="1" stop-color="#6D4C41"/>
</radialGradient>
<radialGradient id="paint4_radial_673_9099" cx="0" cy="0" r="1" gradientUnits="userSpaceOnUse" gradientTransform="translate(65.3335 29.1064) rotate(-11.6302) scale(3.25029 2.44299)">
<stop offset="0.45" stop-color="#6D4C41" stop-opacity="0"/>
<stop offset="1" stop-color="#6D4C41"/>
</radialGradient>
<radialGradient id="paint5_radial_673_9099" cx="0" cy="0" r="1" gradientUnits="userSpaceOnUse" gradientTransform="translate(67.3798 31.3146) rotate(11.4493) scale(1.74978 1.12492)">
<stop offset="0.45" stop-color="#6D4C41" stop-opacity="0"/>
<stop offset="1" stop-color="#6D4C41"/>
</radialGradient>
<linearGradient id="paint6_linear_673_9099" x1="67.4461" y1="42.6692" x2="66.2453" y2="49.7099" gradientUnits="userSpaceOnUse">
<stop stop-color="#A47B62"/>
<stop offset="1" stop-color="#BA8D68"/>
</linearGradient>
<radialGradient id="paint7_radial_673_9099" cx="0" cy="0" r="1" gradientUnits="userSpaceOnUse" gradientTransform="translate(67.0904 36.1268) scale(3.33506 3.33506)">
<stop offset="0.367" stop-color="#F78C1F"/>
<stop offset="0.68" stop-color="#F37F21"/>
<stop offset="1" stop-color="#ED6D23"/>
</radialGradient>
<linearGradient id="paint8_linear_673_9099" x1="68.229" y1="37.165" x2="75.7017" y2="37.165" gradientUnits="userSpaceOnUse">
<stop offset="0.007" stop-color="#A47B62"/>
<stop offset="1" stop-color="#BA8D68"/>
</linearGradient>
<radialGradient id="paint9_radial_673_9099" cx="0" cy="0" r="1" gradientUnits="userSpaceOnUse" gradientTransform="translate(58.7258 42.84) scale(2.79212)">
<stop offset="0.017" stop-color="#FB8C00"/>
<stop offset="0.442" stop-color="#F47900"/>
<stop offset="0.838" stop-color="#D95A1E"/>
</radialGradient>
<radialGradient id="paint10_radial_673_9099" cx="0" cy="0" r="1" gradientUnits="userSpaceOnUse" gradientTransform="translate(58.226 41.8983) scale(4.71384 4.71384)">
<stop offset="0.017" stop-color="#FFA726"/>
<stop offset="0.494" stop-color="#FC950D"/>
<stop offset="0.838" stop-color="#FB8C00"/>
</radialGradient>
<radialGradient id="paint11_radial_673_9099" cx="0" cy="0" r="1" gradientUnits="userSpaceOnUse" gradientTransform="translate(58.226 41.8983) scale(4.71384 4.71383)">
<stop offset="0.017" stop-color="#FFA726"/>
<stop offset="0.494" stop-color="#FC950D"/>
<stop offset="0.838" stop-color="#FB8C00"/>
</radialGradient>
<radialGradient id="paint12_radial_673_9099" cx="0" cy="0" r="1" gradientUnits="userSpaceOnUse" gradientTransform="translate(58.226 41.8983) scale(4.71384 4.71384)">
<stop offset="0.017" stop-color="#FFA726"/>
<stop offset="0.494" stop-color="#FC950D"/>
<stop offset="0.838" stop-color="#FB8C00"/>
</radialGradient>
<radialGradient id="paint13_radial_673_9099" cx="0" cy="0" r="1" gradientUnits="userSpaceOnUse" gradientTransform="translate(58.226 41.8983) scale(4.71384 4.71384)">
<stop offset="0.017" stop-color="#FFA726"/>
<stop offset="0.494" stop-color="#FC950D"/>
<stop offset="0.838" stop-color="#FB8C00"/>
</radialGradient>
</defs>
</svg>
