<svg width="118" height="100" viewBox="0 0 118 100" fill="none" xmlns="http://www.w3.org/2000/svg">
<mask id="path-1-inside-1_576_10459" fill="white">
<path fill-rule="evenodd" clip-rule="evenodd" d="M50 18C59.6056 18 67.4538 10.476 67.9727 0.999955C68.0029 0.448497 68.4477 0 69 0L96 0C98.2091 0 100 1.79086 100 4V31C100 31.5523 100.448 31.9971 101 32.0273C110.476 32.5462 118 40.3944 118 50C118 59.6056 110.476 67.4538 101 67.9727C100.449 68.0029 100 68.4477 100 69V96C100 98.2091 98.2091 100 96 100H69C68.4477 100 68.0029 99.5515 67.9727 99C67.4538 89.524 59.6056 82 50 82C40.3944 82 32.5462 89.524 32.0273 99C31.9971 99.5515 31.5523 100 31 100H4C1.79086 100 0 98.2091 0 96L0 69C0 68.4477 0.448498 68.0029 0.999957 67.9727C10.476 67.4538 18 59.6056 18 50C18 40.3944 10.476 32.5462 0.999955 32.0273C0.448497 31.9971 0 31.5523 0 31L0 4C0 1.79086 1.79086 0 4 0L31 0C31.5523 0 31.9971 0.448498 32.0273 0.999957C32.5462 10.476 40.3944 18 50 18Z"/>
</mask>
<path fill-rule="evenodd" clip-rule="evenodd" d="M50 18C59.6056 18 67.4538 10.476 67.9727 0.999955C68.0029 0.448497 68.4477 0 69 0L96 0C98.2091 0 100 1.79086 100 4V31C100 31.5523 100.448 31.9971 101 32.0273C110.476 32.5462 118 40.3944 118 50C118 59.6056 110.476 67.4538 101 67.9727C100.449 68.0029 100 68.4477 100 69V96C100 98.2091 98.2091 100 96 100H69C68.4477 100 68.0029 99.5515 67.9727 99C67.4538 89.524 59.6056 82 50 82C40.3944 82 32.5462 89.524 32.0273 99C31.9971 99.5515 31.5523 100 31 100H4C1.79086 100 0 98.2091 0 96L0 69C0 68.4477 0.448498 68.0029 0.999957 67.9727C10.476 67.4538 18 59.6056 18 50C18 40.3944 10.476 32.5462 0.999955 32.0273C0.448497 31.9971 0 31.5523 0 31L0 4C0 1.79086 1.79086 0 4 0L31 0C31.5523 0 31.9971 0.448498 32.0273 0.999957C32.5462 10.476 40.3944 18 50 18Z" fill="#374151" fill-opacity="0.4"/>
<path d="M100 96H99H100ZM32.0273 0.999957L33.0258 0.945284L32.0273 0.999957ZM0.999957 67.9727L0.945284 66.9742L0.999957 67.9727ZM32.0273 99L31.0288 98.9454L32.0273 99ZM101 67.9727L101.055 68.9712L101 67.9727ZM100 69H101H100ZM67.9727 99L68.9712 98.9454L67.9727 99ZM101 32.0273L101.055 31.0288L101 32.0273ZM66.9742 0.945282C66.4842 9.89397 59.0716 17 50 17L50 19C60.1396 19 68.4235 11.058 68.9712 1.05463L66.9742 0.945282ZM96 -1L69 -1V1L96 1V-1ZM101 4C101 1.23858 98.7614 -1 96 -1V1C97.6569 1 99 2.34315 99 4L101 4ZM101 31V4L99 4V31H101ZM100.945 33.0258C109.894 33.5158 117 40.9284 117 50H119C119 39.8604 111.058 31.5765 101.055 31.0288L100.945 33.0258ZM117 50C117 59.0716 109.894 66.4842 100.945 66.9742L101.055 68.9712C111.058 68.4235 119 60.1396 119 50H117ZM101 96V69H99V96H101ZM96 101C98.7614 101 101 98.7614 101 96H99C99 97.6569 97.6569 99 96 99V101ZM69 101H96V99H69V101ZM50 83C59.0716 83 66.4842 90.106 66.9742 99.0547L68.9712 98.9454C68.4235 88.942 60.1396 81 50 81V83ZM33.0258 99.0547C33.5158 90.106 40.9284 83 50 83V81C39.8604 81 31.5765 88.942 31.0288 98.9454L33.0258 99.0547ZM4 101H31L31 99H4V101ZM-1 96C-1 98.7614 1.23858 101 4 101V99C2.34315 99 1 97.6569 1 96H-1ZM-1 69L-1 96H1L1 69H-1ZM17 50C17 59.0716 9.89398 66.4842 0.945284 66.9742L1.05463 68.9712C11.058 68.4235 19 60.1396 19 50L17 50ZM0.945282 33.0258C9.89397 33.5158 17 40.9284 17 50L19 50C19 39.8604 11.058 31.5765 1.05463 31.0288L0.945282 33.0258ZM-1 4L-1 31H1L1 4H-1ZM4 -1C1.23858 -1 -1 1.23858 -1 4H1C1 2.34315 2.34315 1 4 1V-1ZM31 -1L4 -1V1L31 1V-1ZM50 17C40.9284 17 33.5158 9.89398 33.0258 0.945284L31.0288 1.05463C31.5765 11.058 39.8604 19 50 19L50 17ZM31 1C31.0012 1 31.0012 1.0001 31.0006 0.999977C31.0001 0.999868 30.9998 0.999738 30.9999 0.999766C31.0001 0.999846 31.0033 1.00127 31.0081 1.006C31.0187 1.0164 31.0276 1.03335 31.0288 1.05463L33.0258 0.945284C32.9685 -0.100786 32.1183 -1 31 -1V1ZM1.05463 31.0288C1.03335 31.0276 1.0164 31.0187 1.006 31.0081C1.00127 31.0033 0.999846 31.0001 0.999766 30.9999C0.999738 30.9998 0.999868 31.0001 0.999977 31.0007C1.0001 31.0012 1 31.0012 1 31H-1C-1 32.1183 -0.100789 32.9685 0.945282 33.0258L1.05463 31.0288ZM1 69C1 68.9988 1.0001 68.9988 0.999977 68.9994C0.999868 68.9999 0.999738 69.0002 0.999766 69.0001C0.999846 68.9999 1.00127 68.9967 1.006 68.9919C1.0164 68.9813 1.03335 68.9724 1.05463 68.9712L0.945284 66.9742C-0.100786 67.0315 -1 67.8817 -1 69H1ZM68.9712 1.05463C68.9724 1.03335 68.9813 1.0164 68.9919 1.006C68.9967 1.00127 68.9999 0.999846 69.0001 0.999766C69.0002 0.999738 68.9999 0.999868 68.9994 0.999977C68.9988 1.0001 68.9988 1 69 1V-1C67.8817 -1 67.0315 -0.100789 66.9742 0.945282L68.9712 1.05463ZM31.0288 98.9454C31.0276 98.9667 31.0187 98.9836 31.0081 98.994C31.0033 98.9987 31.0001 99.0002 30.9999 99.0002C30.9998 99.0003 31.0001 99.0001 31.0007 99C31.0012 98.9999 31.0012 99 31 99L31 101C32.1183 101 32.9685 100.101 33.0258 99.0547L31.0288 98.9454ZM100.945 66.9742C99.8992 67.0315 99 67.8817 99 69H101C101 68.9988 101 68.9988 101 68.9994C101 68.9999 101 69.0002 101 69.0001C101 68.9999 101.001 68.9967 101.006 68.9919C101.016 68.9813 101.033 68.9724 101.055 68.9712L100.945 66.9742ZM69 99C68.9988 99 68.9988 98.9999 68.9994 99C68.9999 99.0001 69.0002 99.0003 69.0001 99.0002C68.9999 99.0002 68.9967 98.9987 68.9919 98.994C68.9813 98.9836 68.9724 98.9667 68.9712 98.9454L66.9742 99.0547C67.0315 100.101 67.8817 101 69 101V99ZM99 31C99 32.1183 99.8992 32.9685 100.945 33.0258L101.055 31.0288C101.033 31.0276 101.016 31.0187 101.006 31.0081C101.001 31.0033 101 31.0001 101 30.9999C101 30.9998 101 31.0001 101 31.0007C101 31.0012 101 31.0012 101 31H99Z" fill="#374151" mask="url(#path-1-inside-1_576_10459)"/>
<path d="M15.4888 74.992C15.2755 74.992 15.1155 74.9333 15.0088 74.816C14.9021 74.7093 14.8488 74.5493 14.8488 74.336V64.768C14.8488 64.5547 14.9021 64.3947 15.0088 64.288C15.1155 64.1707 15.2701 64.112 15.4728 64.112C15.6861 64.112 15.8461 64.1707 15.9528 64.288C16.0701 64.3947 16.1288 64.5547 16.1288 64.768V66.288L15.9528 66.064C16.1235 65.456 16.4595 64.976 16.9608 64.624C17.4728 64.2613 18.0808 64.08 18.7848 64.08C19.4781 64.08 20.0808 64.2453 20.5928 64.576C21.1155 64.896 21.5155 65.36 21.7928 65.968C22.0808 66.5653 22.2248 67.28 22.2248 68.112C22.2248 68.9333 22.0808 69.648 21.7928 70.256C21.5155 70.8533 21.1208 71.3173 20.6088 71.648C20.0968 71.9787 19.4888 72.144 18.7848 72.144C18.0808 72.144 17.4781 71.968 16.9768 71.616C16.4755 71.2533 16.1341 70.7733 15.9528 70.176H16.1448V74.336C16.1448 74.5493 16.0861 74.7093 15.9688 74.816C15.8515 74.9333 15.6915 74.992 15.4888 74.992ZM18.5128 71.104C19.0035 71.104 19.4248 70.9867 19.7768 70.752C20.1395 70.5173 20.4168 70.176 20.6088 69.728C20.8115 69.28 20.9128 68.7413 20.9128 68.112C20.9128 67.1413 20.6941 66.4 20.2568 65.888C19.8301 65.376 19.2488 65.12 18.5128 65.12C18.0328 65.12 17.6115 65.2373 17.2488 65.472C16.8861 65.696 16.6035 66.032 16.4008 66.48C16.2088 66.9173 16.1128 67.4613 16.1128 68.112C16.1128 69.072 16.3315 69.8133 16.7688 70.336C17.2061 70.848 17.7875 71.104 18.5128 71.104ZM24.8169 72.112C24.6036 72.112 24.4436 72.0533 24.3369 71.936C24.2303 71.8187 24.1769 71.6533 24.1769 71.44V61.264C24.1769 61.0507 24.2303 60.8907 24.3369 60.784C24.4436 60.6667 24.6036 60.608 24.8169 60.608C25.0196 60.608 25.1796 60.6667 25.2969 60.784C25.4143 60.8907 25.4729 61.0507 25.4729 61.264V67.68H25.5049L28.7849 64.544C28.9343 64.4053 29.0623 64.2987 29.1689 64.224C29.2863 64.1493 29.4409 64.112 29.6329 64.112C29.8036 64.112 29.9369 64.16 30.0329 64.256C30.1289 64.3413 30.1716 64.4533 30.1609 64.592C30.1609 64.72 30.0969 64.8587 29.9689 65.008L26.4809 68.32V67.616L30.2729 71.184C30.4223 71.3333 30.4969 71.4773 30.4969 71.616C30.4969 71.7547 30.4436 71.872 30.3369 71.968C30.2409 72.064 30.1129 72.112 29.9529 72.112C29.7609 72.112 29.6063 72.0747 29.4889 72C29.3716 71.9147 29.2276 71.792 29.0569 71.632L25.5049 68.352H25.4729V71.44C25.4729 71.888 25.2543 72.112 24.8169 72.112ZM35.4138 75.024C34.8485 75.024 34.2938 74.9547 33.7498 74.816C33.2165 74.688 32.7311 74.48 32.2938 74.192C32.1658 74.1173 32.0805 74.0267 32.0378 73.92C32.0058 73.8133 32.0005 73.7067 32.0218 73.6C32.0431 73.504 32.0911 73.4133 32.1658 73.328C32.2405 73.2533 32.3258 73.2053 32.4218 73.184C32.5285 73.1627 32.6351 73.1787 32.7418 73.232C33.2111 73.52 33.6591 73.7173 34.0858 73.824C34.5125 73.9307 34.9338 73.984 35.3498 73.984C36.1071 73.984 36.6778 73.7813 37.0618 73.376C37.4565 72.9707 37.6538 72.384 37.6538 71.616V69.808H37.8138C37.6538 70.4267 37.3125 70.9173 36.7898 71.28C36.2778 71.6427 35.6751 71.824 34.9818 71.824C34.2671 71.824 33.6485 71.664 33.1258 71.344C32.6031 71.0133 32.1978 70.5547 31.9098 69.968C31.6325 69.3813 31.4938 68.704 31.4938 67.936C31.4938 67.36 31.5738 66.8373 31.7338 66.368C31.8938 65.888 32.1231 65.4827 32.4218 65.152C32.7311 64.8107 33.0991 64.5493 33.5258 64.368C33.9631 64.176 34.4485 64.08 34.9818 64.08C35.6858 64.08 36.2938 64.2613 36.8058 64.624C37.3178 64.976 37.6485 65.456 37.7978 66.064L37.6378 66.256V64.768C37.6378 64.5547 37.6911 64.3947 37.7978 64.288C37.9151 64.1707 38.0751 64.112 38.2778 64.112C38.4911 64.112 38.6511 64.1707 38.7578 64.288C38.8645 64.3947 38.9178 64.5547 38.9178 64.768V71.44C38.9178 72.624 38.6191 73.5147 38.0218 74.112C37.4351 74.72 36.5658 75.024 35.4138 75.024ZM35.2218 70.768C35.7231 70.768 36.1551 70.656 36.5178 70.432C36.8805 70.1973 37.1578 69.8667 37.3498 69.44C37.5525 69.0133 37.6538 68.512 37.6538 67.936C37.6538 67.072 37.4351 66.3893 36.9978 65.888C36.5605 65.376 35.9685 65.12 35.2218 65.12C34.7311 65.12 34.3045 65.2373 33.9418 65.472C33.5791 65.696 33.2965 66.0213 33.0938 66.448C32.9018 66.864 32.8058 67.36 32.8058 67.936C32.8058 68.8 33.0245 69.488 33.4618 70C33.8991 70.512 34.4858 70.768 35.2218 70.768ZM41.7328 68.272C41.5728 68.272 41.4395 68.224 41.3328 68.128C41.2261 68.0213 41.1728 67.8933 41.1728 67.744C41.1728 67.584 41.2261 67.456 41.3328 67.36C41.4395 67.2533 41.5728 67.2 41.7328 67.2H45.3328C45.4821 67.2 45.6101 67.2533 45.7168 67.36C45.8235 67.456 45.8768 67.584 45.8768 67.744C45.8768 67.8933 45.8235 68.0213 45.7168 68.128C45.6101 68.224 45.4821 68.272 45.3328 68.272H41.7328ZM51.2501 72.144C50.6421 72.144 50.1301 72.0373 49.7141 71.824C49.3087 71.6 49.0047 71.28 48.8021 70.864C48.5994 70.4373 48.4981 69.92 48.4981 69.312V65.232H47.4261C47.2447 65.232 47.1061 65.1893 47.0101 65.104C46.9141 65.008 46.8661 64.88 46.8661 64.72C46.8661 64.56 46.9141 64.4373 47.0101 64.352C47.1061 64.2667 47.2447 64.224 47.4261 64.224H48.4981V62.384C48.4981 62.1707 48.5567 62.0107 48.6741 61.904C48.7914 61.7867 48.9514 61.728 49.1541 61.728C49.3567 61.728 49.5114 61.7867 49.6181 61.904C49.7354 62.0107 49.7941 62.1707 49.7941 62.384V64.224H51.8101C51.9914 64.224 52.1301 64.2667 52.2261 64.352C52.3221 64.4373 52.3701 64.56 52.3701 64.72C52.3701 64.88 52.3221 65.008 52.2261 65.104C52.1301 65.1893 51.9914 65.232 51.8101 65.232H49.7941V69.184C49.7941 69.792 49.9221 70.256 50.1781 70.576C50.4341 70.8853 50.8501 71.04 51.4261 71.04C51.6287 71.04 51.7994 71.0187 51.9381 70.976C52.0874 70.9333 52.2101 70.912 52.3061 70.912C52.4021 70.9013 52.4821 70.9333 52.5461 71.008C52.6101 71.0827 52.6421 71.2107 52.6421 71.392C52.6421 71.52 52.6154 71.6373 52.5621 71.744C52.5194 71.8507 52.4394 71.9253 52.3221 71.968C52.1941 72.0107 52.0234 72.048 51.8101 72.08C51.6074 72.1227 51.4207 72.144 51.2501 72.144ZM55.5456 74.992C55.3856 74.992 55.2576 74.9493 55.1616 74.864C55.0656 74.7787 55.0069 74.6613 54.9856 74.512C54.9749 74.3733 55.0016 74.2293 55.0656 74.08L56.1696 71.6V72.16L53.0976 65.024C53.0336 64.864 53.0122 64.7147 53.0336 64.576C53.0549 64.4373 53.1189 64.3253 53.2256 64.24C53.3322 64.1547 53.4816 64.112 53.6736 64.112C53.8442 64.112 53.9776 64.1493 54.0736 64.224C54.1696 64.2987 54.2549 64.432 54.3296 64.624L56.9536 71.056H56.5216L59.1776 64.624C59.2629 64.432 59.3536 64.2987 59.4496 64.224C59.5456 64.1493 59.6842 64.112 59.8656 64.112C60.0362 64.112 60.1642 64.1547 60.2496 64.24C60.3456 64.3253 60.3989 64.4373 60.4096 64.576C60.4309 64.704 60.4096 64.848 60.3456 65.008L56.2496 74.48C56.1642 74.672 56.0682 74.8053 55.9616 74.88C55.8656 74.9547 55.7269 74.992 55.5456 74.992ZM62.6763 74.992C62.463 74.992 62.303 74.9333 62.1963 74.816C62.0896 74.7093 62.0363 74.5493 62.0363 74.336V64.768C62.0363 64.5547 62.0896 64.3947 62.1963 64.288C62.303 64.1707 62.4576 64.112 62.6603 64.112C62.8736 64.112 63.0336 64.1707 63.1403 64.288C63.2576 64.3947 63.3163 64.5547 63.3163 64.768V66.288L63.1403 66.064C63.311 65.456 63.647 64.976 64.1483 64.624C64.6603 64.2613 65.2683 64.08 65.9723 64.08C66.6656 64.08 67.2683 64.2453 67.7803 64.576C68.303 64.896 68.703 65.36 68.9803 65.968C69.2683 66.5653 69.4123 67.28 69.4123 68.112C69.4123 68.9333 69.2683 69.648 68.9803 70.256C68.703 70.8533 68.3083 71.3173 67.7963 71.648C67.2843 71.9787 66.6763 72.144 65.9723 72.144C65.2683 72.144 64.6656 71.968 64.1643 71.616C63.663 71.2533 63.3216 70.7733 63.1403 70.176H63.3323V74.336C63.3323 74.5493 63.2736 74.7093 63.1563 74.816C63.039 74.9333 62.879 74.992 62.6763 74.992ZM65.7003 71.104C66.191 71.104 66.6123 70.9867 66.9643 70.752C67.327 70.5173 67.6043 70.176 67.7963 69.728C67.999 69.28 68.1003 68.7413 68.1003 68.112C68.1003 67.1413 67.8816 66.4 67.4443 65.888C67.0176 65.376 66.4363 65.12 65.7003 65.12C65.2203 65.12 64.799 65.2373 64.4363 65.472C64.0736 65.696 63.791 66.032 63.5883 66.48C63.3963 66.9173 63.3003 67.4613 63.3003 68.112C63.3003 69.072 63.519 69.8133 63.9563 70.336C64.3936 70.848 64.975 71.104 65.7003 71.104ZM74.8684 72.144C74.0471 72.144 73.3378 71.984 72.7404 71.664C72.1538 71.3333 71.6951 70.8693 71.3644 70.272C71.0444 69.6747 70.8844 68.96 70.8844 68.128C70.8844 67.3173 71.0444 66.6133 71.3644 66.016C71.6844 65.408 72.1218 64.9333 72.6764 64.592C73.2418 64.2507 73.8924 64.08 74.6284 64.08C75.1511 64.08 75.6204 64.1707 76.0364 64.352C76.4524 64.5227 76.8044 64.7733 77.0924 65.104C77.3911 65.4347 77.6151 65.8347 77.7644 66.304C77.9244 66.7733 78.0044 67.3013 78.0044 67.888C78.0044 68.0587 77.9564 68.1867 77.8604 68.272C77.7644 68.3467 77.6258 68.384 77.4444 68.384H71.8764V67.536H77.1404L76.8844 67.744C76.8844 67.168 76.7991 66.6827 76.6284 66.288C76.4578 65.8827 76.2071 65.5733 75.8764 65.36C75.5564 65.1467 75.1511 65.04 74.6604 65.04C74.1164 65.04 73.6524 65.168 73.2684 65.424C72.8951 65.6693 72.6124 66.016 72.4204 66.464C72.2284 66.9013 72.1324 67.4133 72.1324 68V68.096C72.1324 69.0773 72.3671 69.824 72.8364 70.336C73.3164 70.848 73.9938 71.104 74.8684 71.104C75.2311 71.104 75.5884 71.056 75.9404 70.96C76.3031 70.864 76.6551 70.704 76.9964 70.48C77.1458 70.384 77.2791 70.3413 77.3964 70.352C77.5244 70.352 77.6258 70.3893 77.7004 70.464C77.7751 70.528 77.8231 70.6133 77.8444 70.72C77.8764 70.816 77.8658 70.9227 77.8124 71.04C77.7698 71.1573 77.6791 71.2587 77.5404 71.344C77.1884 71.6 76.7724 71.7973 76.2924 71.936C75.8124 72.0747 75.3378 72.144 74.8684 72.144ZM82.5041 72.144C82.0241 72.144 81.5387 72.0853 81.0481 71.968C80.5681 71.8507 80.1201 71.648 79.7041 71.36C79.5974 71.2853 79.5227 71.2 79.4801 71.104C79.4374 70.9973 79.4214 70.896 79.4321 70.8C79.4534 70.6933 79.4961 70.6027 79.5601 70.528C79.6347 70.4533 79.7201 70.4107 79.8161 70.4C79.9227 70.3787 80.0401 70.4 80.1681 70.464C80.5841 70.72 80.9841 70.9013 81.3681 71.008C81.7627 71.104 82.1521 71.152 82.5361 71.152C83.1441 71.152 83.6027 71.04 83.9121 70.816C84.2214 70.592 84.3761 70.288 84.3761 69.904C84.3761 69.6053 84.2747 69.3707 84.0721 69.2C83.8694 69.0187 83.5494 68.88 83.1121 68.784L81.6561 68.464C80.9841 68.3253 80.4827 68.0853 80.1521 67.744C79.8321 67.4027 79.6721 66.96 79.6721 66.416C79.6721 65.936 79.7947 65.5253 80.0401 65.184C80.2961 64.832 80.6534 64.56 81.1121 64.368C81.5707 64.176 82.1041 64.08 82.7121 64.08C83.1814 64.08 83.6241 64.144 84.0401 64.272C84.4667 64.3893 84.8507 64.5813 85.1921 64.848C85.2987 64.9227 85.3681 65.0133 85.4001 65.12C85.4427 65.216 85.4481 65.3173 85.4161 65.424C85.3947 65.52 85.3467 65.6053 85.2721 65.68C85.1974 65.744 85.1067 65.7813 85.0001 65.792C84.8934 65.8027 84.7814 65.7707 84.6641 65.696C84.3441 65.4827 84.0187 65.328 83.6881 65.232C83.3574 65.1253 83.0321 65.072 82.7121 65.072C82.1147 65.072 81.6614 65.1893 81.3521 65.424C81.0427 65.6587 80.8881 65.968 80.8881 66.352C80.8881 66.6507 80.9841 66.896 81.1761 67.088C81.3681 67.28 81.6667 67.4187 82.0721 67.504L83.5281 67.808C84.2214 67.9573 84.7387 68.1973 85.0801 68.528C85.4321 68.848 85.6081 69.2853 85.6081 69.84C85.6081 70.544 85.3254 71.104 84.7601 71.52C84.1947 71.936 83.4427 72.144 82.5041 72.144Z" fill="#F9FAFB"/>
<path d="M48.3353 36.6619L41.7356 33.3937C41.7356 33.3937 41.7203 33.0809 42.0156 32.9234C42.3131 32.7659 46.99 30.8497 47.3662 30.8497C47.7425 30.8497 49.9453 31.2741 51.5487 31.6306C53.1522 31.9872 57.3894 32.8972 57.4091 33.175C57.4287 33.4528 53.0734 37.9066 53.0734 37.9066L48.3353 36.6619Z" fill="#C3FECE"/>
<path d="M54.3553 34.6231C54.3553 34.6231 51.5881 33.8094 48.8953 33.1772C47.6419 32.8819 43.9581 32.1097 43.9581 32.1097C43.9581 32.1097 44.3497 31.9391 44.645 31.8144C44.9447 31.6897 45.1831 31.6241 45.1831 31.6241C45.1831 31.6241 47.585 32.1031 49.37 32.4837C51.785 32.9978 55.1647 34.0062 55.2434 34.1659C55.3244 34.3234 54.3553 34.6231 54.3553 34.6231Z" fill="white"/>
<path d="M48.9959 33.8575C48.4075 34.2666 48.985 34.5138 50.07 34.7675C51.2578 35.0453 52.1634 35.4544 52.9269 35.0103C53.6159 34.6122 51.9294 34.1791 51.155 34.0128C50.5644 33.8859 49.4509 33.5425 48.9959 33.8575Z" fill="#ACB1B2"/>
<path d="M51.1528 34.68C51.1484 34.68 51.1725 29.8872 51.1725 29.71C51.1725 29.5328 50.9734 29.3731 51.1922 28.9969C51.4109 28.6206 51.9841 28.66 51.9841 28.66C51.9841 28.66 54.3619 27.9688 55.3113 27.7303C56.2606 27.4919 58.3606 26.9384 58.3606 26.9384L58.5006 28.1394C58.5006 28.1394 56.3 28.7606 55.2106 29.0384C54.1213 29.3163 52.6359 29.7713 52.6359 29.7713L52.4172 29.9703L52.4806 34.6538C52.4806 34.6538 52.2772 34.8813 51.8222 34.8813C51.3803 34.8791 51.1528 34.68 51.1528 34.68Z" fill="#FFD816"/>
<path d="M57.9691 27.5531C57.9866 27.9272 58.1856 28.1591 58.4219 28.1591C58.6581 28.1591 58.82 27.8572 58.785 27.4634C58.7478 27.0719 58.4941 26.8925 58.2775 26.9647C58.0609 27.0369 57.9559 27.2797 57.9691 27.5531ZM52.4216 30.0797C52.38 30.0797 52.3384 30.0688 52.3012 30.0425L51.1659 29.2856C51.1178 29.2531 51.0844 29.203 51.073 29.1462C51.0615 29.0893 51.0729 29.0301 51.1047 28.9816C51.1206 28.9575 51.1411 28.9369 51.165 28.9207C51.1889 28.9046 51.2157 28.8934 51.244 28.8877C51.2722 28.882 51.3013 28.882 51.3296 28.8876C51.3579 28.8932 51.3848 28.9043 51.4087 28.9203L52.5441 29.6772C52.6447 29.745 52.6709 29.8806 52.6053 29.9813C52.5616 30.0447 52.4916 30.0797 52.4216 30.0797Z" fill="#FEB804"/>
<path d="M52.5966 29.8959C52.5309 29.8959 52.4653 29.8653 52.4216 29.8084C52.1306 29.4213 51.7981 28.9816 51.7391 28.9138C51.6647 28.8416 51.6494 28.7234 51.7084 28.6338C51.7243 28.6097 51.7448 28.589 51.7687 28.5729C51.7926 28.5568 51.8195 28.5456 51.8477 28.5399C51.876 28.5342 51.9051 28.5342 51.9334 28.5398C51.9616 28.5454 51.9885 28.5565 52.0125 28.5725C52.0519 28.5988 52.0737 28.6141 52.7716 29.5438C52.8438 29.64 52.7781 29.7778 52.6819 29.85C52.6425 29.8806 52.6425 29.8959 52.5966 29.8959Z" fill="#FEB804"/>
<path d="M52.3297 30.2634C52.3187 30.2634 52.3078 30.2634 52.2947 30.2612L51.2009 30.0884C51.1726 30.084 51.1455 30.074 51.1211 30.0591C51.0966 30.0441 51.0754 30.0245 51.0585 30.0014C51.0416 29.9782 51.0295 29.9519 51.0228 29.9241C51.0161 29.8963 51.0149 29.8674 51.0194 29.8391C51.0238 29.8108 51.0338 29.7836 51.0488 29.7592C51.0637 29.7347 51.0833 29.7135 51.1065 29.6966C51.1296 29.6798 51.1559 29.6676 51.1837 29.6609C51.2116 29.6542 51.2405 29.653 51.2688 29.6575L52.3625 29.8303C52.4806 29.85 52.5834 29.8719 52.5637 29.9922C52.5484 30.0972 52.4369 30.2634 52.3297 30.2634Z" fill="#FEB804"/>
<path d="M41.7269 33.3697C42.0747 33.3697 44.8659 34.1025 46.3053 34.3672C47.7447 34.6319 52.0913 35.66 52.2378 35.6884C52.3844 35.7169 52.3559 37.5981 52.3559 37.5981C52.3559 37.5981 54.4122 48.2294 54.3531 48.7303C54.2941 49.2291 52.9444 53.0769 52.9444 53.0769C52.9444 53.0769 52.1503 53.195 50.1247 52.6066C48.0991 52.0181 42.7528 50.5503 42.4291 50.1391C42.1053 49.7278 42.3109 44.2941 42.1359 40.9472C41.9566 37.5981 41.7269 33.3697 41.7269 33.3697Z" fill="#79DD8A"/>
<path d="M57.9341 50.3731C58.0456 50.0034 57.4244 46.0397 57.3369 42.3975C57.2494 38.7575 57.5622 33.2188 57.4113 33.175C57.2603 33.1334 52.2378 35.6884 52.2378 35.6884C52.2378 35.6884 52.2159 39.3022 52.2772 42.7103C52.3559 47.1203 52.7081 52.9587 52.9422 53.0769C53.1763 53.195 55.2084 52.0575 55.8209 51.725C56.9059 51.1366 57.8466 50.6684 57.9341 50.3731Z" fill="#02AB46"/>
<path d="M54.34 37.3619L54.3509 34.6187L55.25 34.1769L55.2763 37.1847L54.8606 37.9131L54.34 37.3619Z" fill="#DBDFE1"/>
<path d="M46.3797 38.3244C44.4372 38.1166 43.0919 39.8491 43.1969 42.1066C43.3216 44.7731 45.0781 46.7375 46.9791 47.1291C48.88 47.5206 50.7219 46.6959 50.7612 43.78C50.805 40.7416 48.1341 38.5103 46.3797 38.3244Z" fill="#FEFEFD"/>
<path d="M47.6747 40.7591C47.6747 40.7591 47.2809 39.4356 46.0975 39.7878C44.9141 40.14 44.2731 42.7147 46.2813 43.8741C48.2106 44.9875 49.9869 42.9444 49.3656 41.6209C48.8013 40.4134 47.6747 40.7591 47.6747 40.7591Z" fill="#EF5B44"/>
<path d="M47.2241 39.1403C47.0906 39.1884 46.9856 39.7331 47.1256 40.2537C47.2306 40.6431 47.5653 41.1769 47.76 41.1419C47.9153 41.1134 48.0334 40.5009 47.8869 39.9869C47.7162 39.3941 47.3794 39.0834 47.2241 39.1403Z" fill="#B8CF17"/>
<path d="M47.1956 42.2116C46.64 42.0431 46.0144 43.9528 47.1387 45.1428C48.3791 46.4531 49.8272 45.2981 49.7878 45.0444C49.7309 44.6922 48.7597 44.4384 48.2806 43.8478C47.8016 43.2528 47.5194 42.31 47.1956 42.2116Z" fill="#FD8F01"/>
<path d="M45.4194 41.8878C45.4194 41.8878 45.5309 41.0522 44.7566 41.0981C44.0084 41.1441 44.1922 42.0278 44.1922 42.0278C44.1922 42.0278 43.5688 42.1022 43.6738 42.7934C43.7525 43.3163 44.3038 43.3097 44.3038 43.3097C44.3038 43.3097 43.6978 43.5481 43.9734 44.2394C44.2184 44.8541 44.7828 44.6069 44.7828 44.6069C44.7828 44.6069 44.575 45.2063 45.065 45.5234C45.4784 45.7903 45.8394 45.565 45.8394 45.565C45.8394 45.565 45.8175 46.0769 46.3884 46.1709C47.0797 46.2847 47.3794 45.4425 46.8872 45.0531C46.5131 44.7578 46.1741 44.9875 46.1741 44.9875C46.1741 44.9875 46.2441 44.8234 46.1784 44.6353C46.1347 44.5128 46.0647 44.4669 46.0647 44.4669C46.0647 44.4669 46.6706 44.41 46.5722 43.7209C46.4738 43.0297 45.8678 43.115 45.8678 43.115C45.8678 43.115 46.22 42.8328 46.08 42.3253C45.9422 41.8156 45.4194 41.8878 45.4194 41.8878Z" fill="#A281D0"/>
<path d="M54.9634 38.1253C54.4603 38.1253 52.3144 35.9925 52.2947 35.9706C52.276 35.9488 52.2618 35.9235 52.2529 35.8962C52.2439 35.8689 52.2405 35.8401 52.2427 35.8114C52.245 35.7828 52.2528 35.7548 52.2659 35.7292C52.2789 35.7036 52.2969 35.6808 52.3187 35.6622C52.4106 35.5834 52.5462 35.5944 52.6272 35.6841C52.765 35.8372 54.4056 37.3597 54.8781 37.6528C55.1844 37.1956 56.1797 35.1941 57.035 33.3872C57.0875 33.2778 57.2187 33.2319 57.3259 33.2822C57.4353 33.3347 57.4812 33.4637 57.4309 33.5731C55.3222 38.0291 55.1144 38.0881 55.0028 38.1187C54.9897 38.1253 54.9766 38.1253 54.9634 38.1253Z" fill="#2D802D"/>
</svg>
