<svg width="100" height="118" viewBox="0 0 100 118" fill="none" xmlns="http://www.w3.org/2000/svg">
<mask id="path-1-inside-1_576_10458" fill="white">
<path fill-rule="evenodd" clip-rule="evenodd" d="M69 0C68.4477 0 68.0029 0.448498 67.9727 0.999957C67.4538 10.476 59.6056 18 50 18C40.3944 18 32.5462 10.476 32.0273 0.999955C31.9971 0.448497 31.5523 0 31 0L4 0C1.79086 0 0 1.79086 0 4L0 31C0 31.5523 0.448498 31.9971 0.999957 32.0273C10.476 32.5462 18 40.3944 18 50C18 59.6056 10.476 67.4538 0.999955 67.9727C0.448497 68.0029 0 68.4477 0 69L0 96C0 98.2091 1.79086 100 4 100H31C31.5523 100 31.9971 100.449 32.0273 101C32.5462 110.476 40.3944 118 50 118C59.6056 118 67.4538 110.476 67.9727 101C68.0029 100.448 68.4477 100 69 100H96C98.2091 100 100 98.2091 100 96V69C100 68.4477 99.5515 68.0029 99 67.9727C89.524 67.4538 82 59.6056 82 50C82 40.3944 89.524 32.5462 99 32.0273C99.5515 31.9971 100 31.5523 100 31V4C100 1.79086 98.2091 0 96 0L69 0Z"/>
</mask>
<path fill-rule="evenodd" clip-rule="evenodd" d="M69 0C68.4477 0 68.0029 0.448498 67.9727 0.999957C67.4538 10.476 59.6056 18 50 18C40.3944 18 32.5462 10.476 32.0273 0.999955C31.9971 0.448497 31.5523 0 31 0L4 0C1.79086 0 0 1.79086 0 4L0 31C0 31.5523 0.448498 31.9971 0.999957 32.0273C10.476 32.5462 18 40.3944 18 50C18 59.6056 10.476 67.4538 0.999955 67.9727C0.448497 68.0029 0 68.4477 0 69L0 96C0 98.2091 1.79086 100 4 100H31C31.5523 100 31.9971 100.449 32.0273 101C32.5462 110.476 40.3944 118 50 118C59.6056 118 67.4538 110.476 67.9727 101C68.0029 100.448 68.4477 100 69 100H96C98.2091 100 100 98.2091 100 96V69C100 68.4477 99.5515 68.0029 99 67.9727C89.524 67.4538 82 59.6056 82 50C82 40.3944 89.524 32.5462 99 32.0273C99.5515 31.9971 100 31.5523 100 31V4C100 1.79086 98.2091 0 96 0L69 0Z" fill="#374151" fill-opacity="0.4"/>
<path d="M96 0V-1V0ZM99 32.0273L98.9454 31.0288L99 32.0273ZM99 67.9727L98.9454 68.9712L99 67.9727ZM32.0273 101L33.0258 100.945L32.0273 101ZM0.999957 32.0273L0.945284 33.0258L0.999957 32.0273ZM32.0273 0.999955L31.0288 1.05463L32.0273 0.999955ZM67.9727 101L66.9742 100.945L67.9727 101ZM67.9727 0.999957L66.9742 0.945284L67.9727 0.999957ZM50 19C60.1396 19 68.4235 11.058 68.9712 1.05463L66.9742 0.945284C66.4842 9.89398 59.0716 17 50 17L50 19ZM31.0288 1.05463C31.5765 11.058 39.8604 19 50 19L50 17C40.9284 17 33.5158 9.89397 33.0258 0.945282L31.0288 1.05463ZM4 1L31 1V-1L4 -1V1ZM1 4C1 2.34315 2.34315 1 4 1V-1C1.23858 -1 -1 1.23858 -1 4H1ZM1 31L1 4H-1L-1 31H1ZM19 50C19 39.8604 11.058 31.5765 1.05463 31.0288L0.945284 33.0258C9.89398 33.5158 17 40.9284 17 50L19 50ZM1.05463 68.9712C11.058 68.4235 19 60.1396 19 50L17 50C17 59.0716 9.89397 66.4842 0.945282 66.9742L1.05463 68.9712ZM1 96L1 69H-1L-1 96H1ZM4 99C2.34315 99 1 97.6569 1 96H-1C-1 98.7614 1.23858 101 4 101V99ZM31 99H4V101H31L31 99ZM50 117C40.9284 117 33.5158 109.894 33.0258 100.945L31.0288 101.055C31.5765 111.058 39.8604 119 50 119V117ZM66.9742 100.945C66.4842 109.894 59.0716 117 50 117V119C60.1396 119 68.4235 111.058 68.9712 101.055L66.9742 100.945ZM96 99H69V101H96V99ZM99 96C99 97.6569 97.6569 99 96 99V101C98.7614 101 101 98.7614 101 96H99ZM99 69V96H101V69H99ZM81 50C81 60.1396 88.942 68.4235 98.9454 68.9712L99.0547 66.9742C90.106 66.4842 83 59.0716 83 50H81ZM98.9454 31.0288C88.942 31.5765 81 39.8604 81 50H83C83 40.9284 90.106 33.5158 99.0547 33.0258L98.9454 31.0288ZM99 4V31H101V4L99 4ZM96 1C97.6569 1 99 2.34315 99 4L101 4C101 1.23858 98.7614 -1 96 -1V1ZM69 1L96 1V-1L69 -1V1ZM99.0547 33.0258C100.101 32.9685 101 32.1183 101 31H99C99 31.0012 98.9999 31.0012 99 31.0007C99.0001 31.0001 99.0003 30.9998 99.0002 30.9999C99.0002 31.0001 98.9987 31.0033 98.994 31.0081C98.9836 31.0187 98.9667 31.0276 98.9454 31.0288L99.0547 33.0258ZM101 69C101 67.8817 100.101 67.0315 99.0547 66.9742L98.9454 68.9712C98.9667 68.9724 98.9836 68.9813 98.994 68.9919C98.9987 68.9967 99.0002 68.9999 99.0002 69.0001C99.0003 69.0002 99.0001 68.9999 99 68.9994C98.9999 68.9988 99 68.9988 99 69H101ZM31 101C31.0012 101 31.0012 101 31.0006 101C31.0001 101 30.9998 101 30.9999 101C31.0001 101 31.0033 101.001 31.0081 101.006C31.0187 101.016 31.0276 101.033 31.0288 101.055L33.0258 100.945C32.9685 99.8992 32.1183 99 31 99L31 101ZM-1 31C-1 32.1183 -0.100786 32.9685 0.945284 33.0258L1.05463 31.0288C1.03335 31.0276 1.0164 31.0187 1.006 31.0081C1.00127 31.0033 0.999846 31.0001 0.999766 30.9999C0.999738 30.9998 0.999868 31.0001 0.999977 31.0006C1.0001 31.0012 1 31.0012 1 31H-1ZM0.945282 66.9742C-0.100789 67.0315 -1 67.8817 -1 69H1C1 68.9988 1.0001 68.9988 0.999977 68.9994C0.999868 68.9999 0.999738 69.0002 0.999766 69.0001C0.999846 68.9999 1.00127 68.9967 1.006 68.9919C1.0164 68.9813 1.03335 68.9724 1.05463 68.9712L0.945282 66.9742ZM33.0258 0.945282C32.9685 -0.100789 32.1183 -1 31 -1V1C31.0012 1 31.0012 1.0001 31.0007 0.999977C31.0001 0.999868 30.9998 0.999738 30.9999 0.999766C31.0001 0.999846 31.0033 1.00127 31.0081 1.006C31.0187 1.0164 31.0276 1.03335 31.0288 1.05463L33.0258 0.945282ZM68.9712 101.055C68.9724 101.033 68.9813 101.016 68.9919 101.006C68.9967 101.001 68.9999 101 69.0001 101C69.0002 101 68.9999 101 68.9994 101C68.9988 101 68.9988 101 69 101V99C67.8817 99 67.0315 99.8992 66.9742 100.945L68.9712 101.055ZM68.9712 1.05463C68.9724 1.03335 68.9813 1.0164 68.9919 1.006C68.9967 1.00127 68.9999 0.999846 69.0001 0.999766C69.0002 0.999738 68.9999 0.999868 68.9994 0.999977C68.9988 1.0001 68.9988 1 69 1V-1C67.8817 -1 67.0315 -0.100786 66.9742 0.945284L68.9712 1.05463Z" fill="#374151" mask="url(#path-1-inside-1_576_10458)"/>
<path d="M29.2783 72.112C29.0649 72.112 28.8996 72.0533 28.7823 71.936C28.6756 71.8187 28.6223 71.6533 28.6223 71.44V64.768C28.6223 64.5547 28.6756 64.3947 28.7823 64.288C28.8889 64.1707 29.0436 64.112 29.2463 64.112C29.4489 64.112 29.6036 64.1707 29.7103 64.288C29.8276 64.3947 29.8863 64.5547 29.8863 64.768V66.064H29.7263C29.8969 65.4347 30.2223 64.9493 30.7023 64.608C31.1823 64.2667 31.7743 64.0853 32.4783 64.064C32.6383 64.0533 32.7663 64.0907 32.8623 64.176C32.9583 64.2507 33.0116 64.384 33.0223 64.576C33.0329 64.7573 32.9903 64.9013 32.8943 65.008C32.7983 65.1147 32.6489 65.1787 32.4463 65.2L32.1903 65.232C31.4649 65.296 30.9049 65.5307 30.5103 65.936C30.1263 66.3307 29.9343 66.8747 29.9343 67.568V71.44C29.9343 71.6533 29.8756 71.8187 29.7582 71.936C29.6516 72.0533 29.4916 72.112 29.2783 72.112ZM36.7265 72.144C36.1932 72.144 35.7132 72.0427 35.2865 71.84C34.8705 71.6267 34.5398 71.3387 34.2945 70.976C34.0492 70.6133 33.9265 70.208 33.9265 69.76C33.9265 69.184 34.0705 68.7307 34.3585 68.4C34.6572 68.0693 35.1425 67.8347 35.8145 67.696C36.4972 67.5573 37.4252 67.488 38.5985 67.488H39.3185V68.336H38.6145C37.7505 68.336 37.0678 68.3787 36.5665 68.464C36.0758 68.5387 35.7292 68.672 35.5265 68.864C35.3345 69.056 35.2385 69.328 35.2385 69.68C35.2385 70.1173 35.3878 70.4747 35.6865 70.752C35.9958 71.0293 36.4118 71.168 36.9345 71.168C37.3612 71.168 37.7345 71.0667 38.0545 70.864C38.3852 70.6613 38.6412 70.384 38.8225 70.032C39.0145 69.68 39.1105 69.2747 39.1105 68.816V66.992C39.1105 66.3307 38.9772 65.856 38.7105 65.568C38.4438 65.2693 38.0065 65.12 37.3985 65.12C37.0252 65.12 36.6518 65.168 36.2785 65.264C35.9052 65.36 35.5105 65.5147 35.0945 65.728C34.9452 65.8027 34.8172 65.8293 34.7105 65.808C34.6038 65.776 34.5185 65.7173 34.4545 65.632C34.3905 65.5467 34.3532 65.4507 34.3425 65.344C34.3318 65.2267 34.3532 65.1147 34.4065 65.008C34.4705 64.9013 34.5665 64.816 34.6945 64.752C35.1638 64.5173 35.6278 64.3467 36.0865 64.24C36.5452 64.1333 36.9825 64.08 37.3985 64.08C38.0705 64.08 38.6252 64.192 39.0625 64.416C39.4998 64.6293 39.8252 64.96 40.0385 65.408C40.2518 65.8453 40.3585 66.4107 40.3585 67.104V71.44C40.3585 71.6533 40.3052 71.8187 40.1985 71.936C40.1025 72.0533 39.9585 72.112 39.7665 72.112C39.5638 72.112 39.4092 72.0533 39.3025 71.936C39.1958 71.8187 39.1425 71.6533 39.1425 71.44V70.192H39.2865C39.2012 70.5973 39.0358 70.944 38.7905 71.232C38.5558 71.52 38.2625 71.744 37.9105 71.904C37.5585 72.064 37.1638 72.144 36.7265 72.144ZM45.7229 72.144C45.0295 72.144 44.4215 71.9787 43.8989 71.648C43.3869 71.3173 42.9869 70.8533 42.6989 70.256C42.4215 69.648 42.2829 68.9333 42.2829 68.112C42.2829 67.28 42.4215 66.5653 42.6989 65.968C42.9869 65.36 43.3869 64.896 43.8989 64.576C44.4215 64.2453 45.0295 64.08 45.7229 64.08C46.4269 64.08 47.0295 64.256 47.5309 64.608C48.0322 64.96 48.3682 65.4347 48.5389 66.032H48.3629V61.264C48.3629 61.0507 48.4162 60.8907 48.5229 60.784C48.6402 60.6667 48.8055 60.608 49.0189 60.608C49.2215 60.608 49.3762 60.6667 49.4829 60.784C49.6002 60.8907 49.6589 61.0507 49.6589 61.264V71.44C49.6589 71.6533 49.6055 71.8187 49.4989 71.936C49.3922 72.0533 49.2322 72.112 49.0189 72.112C48.8162 72.112 48.6562 72.0533 48.5389 71.936C48.4322 71.8187 48.3789 71.6533 48.3789 71.44V69.92L48.5549 70.144C48.3842 70.752 48.0429 71.2373 47.5309 71.6C47.0295 71.9627 46.4269 72.144 45.7229 72.144ZM45.9949 71.104C46.4749 71.104 46.8962 70.9867 47.2589 70.752C47.6215 70.5173 47.8989 70.176 48.0909 69.728C48.2935 69.28 48.3949 68.7413 48.3949 68.112C48.3949 67.1413 48.1762 66.4 47.7389 65.888C47.3122 65.376 46.7309 65.12 45.9949 65.12C45.5042 65.12 45.0775 65.2373 44.7149 65.472C44.3629 65.696 44.0855 66.032 43.8829 66.48C43.6909 66.9173 43.5949 67.4613 43.5949 68.112C43.5949 69.072 43.8135 69.8133 44.2509 70.336C44.6882 70.848 45.2695 71.104 45.9949 71.104ZM52.731 72.08C52.5177 72.08 52.3577 72.0213 52.251 71.904C52.1443 71.776 52.091 71.6 52.091 71.376V64.832C52.091 64.608 52.1443 64.4373 52.251 64.32C52.3577 64.2027 52.5177 64.144 52.731 64.144C52.9337 64.144 53.0937 64.2027 53.211 64.32C53.3283 64.4373 53.387 64.608 53.387 64.832V71.376C53.387 71.6 53.3283 71.776 53.211 71.904C53.1043 72.0213 52.9443 72.08 52.731 72.08ZM52.731 62.352C52.4643 62.352 52.2563 62.2827 52.107 62.144C51.9577 61.9947 51.883 61.7973 51.883 61.552C51.883 61.296 51.9577 61.104 52.107 60.976C52.2563 60.8373 52.4643 60.768 52.731 60.768C53.0083 60.768 53.2163 60.8373 53.355 60.976C53.5043 61.104 53.579 61.296 53.579 61.552C53.579 61.7973 53.5043 61.9947 53.355 62.144C53.2163 62.2827 53.0083 62.352 52.731 62.352ZM55.8418 72.096C55.7031 72.096 55.5804 72.0533 55.4738 71.968C55.3671 71.8827 55.3084 71.7707 55.2978 71.632C55.2978 71.4827 55.3671 71.328 55.5058 71.168L58.3058 67.648V68.32L55.6818 65.04C55.5431 64.8693 55.4738 64.7147 55.4738 64.576C55.4844 64.4373 55.5431 64.3253 55.6497 64.24C55.7564 64.1547 55.8791 64.112 56.0178 64.112C56.1778 64.112 56.3111 64.144 56.4178 64.208C56.5351 64.2613 56.6418 64.352 56.7378 64.48L59.0258 67.376H58.5778L60.8818 64.48C60.9778 64.352 61.0791 64.2613 61.1858 64.208C61.2924 64.144 61.4258 64.112 61.5858 64.112C61.7351 64.112 61.8578 64.1547 61.9538 64.24C62.0604 64.3253 62.1138 64.4427 62.1138 64.592C62.1244 64.7307 62.0604 64.8853 61.9218 65.056L59.3138 68.288V67.696L62.1138 71.168C62.2418 71.328 62.3004 71.4827 62.2898 71.632C62.2898 71.7707 62.2364 71.8827 62.1298 71.968C62.0231 72.0533 61.8951 72.096 61.7458 72.096C61.5964 72.096 61.4631 72.064 61.3458 72C61.2391 71.9467 61.1324 71.856 61.0258 71.728L58.5618 68.624H59.0258L56.5618 71.728C56.4658 71.8453 56.3591 71.936 56.2418 72C56.1351 72.064 56.0018 72.096 55.8418 72.096ZM67.672 72.144C67.0533 72.144 66.4293 72.0533 65.8 71.872C65.1813 71.6907 64.6427 71.424 64.184 71.072C64.0453 70.976 63.9547 70.8693 63.912 70.752C63.8693 70.624 63.8587 70.5067 63.88 70.4C63.912 70.2827 63.9707 70.1867 64.056 70.112C64.1413 70.0267 64.2427 69.9787 64.36 69.968C64.488 69.9573 64.6267 70 64.776 70.096C65.2453 70.4053 65.7147 70.6293 66.184 70.768C66.6533 70.9067 67.1387 70.976 67.64 70.976C68.184 70.976 68.6427 70.896 69.016 70.736C69.3893 70.576 69.672 70.3413 69.864 70.032C70.056 69.712 70.152 69.3227 70.152 68.864C70.152 68.2027 69.9333 67.7013 69.496 67.36C69.0587 67.0187 68.424 66.848 67.592 66.848H66.456C66.2533 66.848 66.0987 66.8 65.992 66.704C65.8853 66.5973 65.832 66.4533 65.832 66.272C65.832 66.1013 65.8853 65.968 65.992 65.872C66.0987 65.7653 66.2533 65.712 66.456 65.712H67.48C67.9707 65.712 68.3867 65.6267 68.728 65.456C69.08 65.2853 69.352 65.0453 69.544 64.736C69.736 64.416 69.832 64.032 69.832 63.584C69.832 62.9867 69.64 62.5333 69.256 62.224C68.872 61.904 68.3173 61.744 67.592 61.744C67.112 61.744 66.6587 61.8133 66.232 61.952C65.8053 62.0907 65.384 62.3253 64.968 62.656C64.84 62.752 64.712 62.8 64.584 62.8C64.4667 62.7893 64.3653 62.752 64.28 62.688C64.2053 62.6133 64.1467 62.5173 64.104 62.4C64.072 62.2827 64.0773 62.1653 64.12 62.048C64.1627 61.92 64.2533 61.8027 64.392 61.696C64.8187 61.3333 65.32 61.056 65.896 60.864C66.472 60.672 67.064 60.576 67.672 60.576C68.3973 60.576 69.016 60.6933 69.528 60.928C70.0507 61.152 70.4507 61.4827 70.728 61.92C71.0053 62.3467 71.144 62.864 71.144 63.472C71.144 63.9307 71.0533 64.352 70.872 64.736C70.7013 65.1093 70.456 65.4293 70.136 65.696C69.8267 65.9627 69.448 66.1547 69 66.272V66.096C69.7787 66.224 70.3813 66.544 70.808 67.056C71.2453 67.5573 71.464 68.192 71.464 68.96C71.464 69.6107 71.3093 70.176 71 70.656C70.7013 71.1253 70.2693 71.4933 69.704 71.76C69.1387 72.016 68.4613 72.144 67.672 72.144Z" fill="#F9FAFB"/>
<path d="M48.3353 48.575C48.3353 48.575 48.2741 49.6687 48.1034 50.3294C47.935 50.9922 47.3641 51.4384 47.55 52.2084C47.6725 52.7159 48.3353 53.0856 49.6587 53.0856C50.9822 53.0856 51.8812 52.7312 51.9075 52.0531C51.9381 51.2678 51.4612 50.99 51.3847 50.1281C51.3081 49.2662 51.3387 48.4656 51.3387 48.4656L48.3353 48.575Z" fill="#855B51"/>
<path d="M40.6266 45.1406C40.6266 45.1406 39.6203 45.3463 39.2506 45.4688C38.8809 45.5913 38.5528 45.6744 38.4697 46.0222C38.3866 46.37 38.3056 47.2538 39.64 47.8488C40.9744 48.4438 43.1094 48.2381 43.1094 48.2381C43.1094 48.2381 42.8841 49.1219 43.6234 49.5309C44.3628 49.9422 45.8 49.8394 46.7844 49.5113C47.7687 49.1831 48.0772 48.9775 48.0772 48.9775C48.0772 48.9775 48.5694 49.8394 50.2537 49.8197C51.9381 49.8 52.4084 49.1831 52.4084 49.1831C52.4084 49.1831 54.1541 50.1894 55.6306 49.8809C57.1072 49.5725 56.6566 48.1769 56.6566 48.1769C56.6566 48.1769 58.505 48.5466 60.045 47.91C61.585 47.2734 61.7075 46.4728 61.6659 46.2256C61.6244 45.9784 61.3072 45.5169 60.7931 45.5584C60.2791 45.6 59.1 45.1778 58.6275 44.8913C58.155 44.6047 57.1072 44.0906 56.9234 44.0075C56.7397 43.9244 56.3787 43.6575 56.44 43.4322C56.5012 43.2069 56.5931 43.1456 57.0044 43.185C57.4156 43.2266 58.5641 43.2266 59.0978 42.8153C59.6316 42.4041 59.9597 41.8309 59.8984 41.5006C59.8372 41.1725 59.2422 40.9056 59.2422 40.9056C59.2422 40.9056 56.1622 39.4881 55.9172 39.3853C55.67 39.2825 55.0772 38.9741 55.0969 38.7072C55.1166 38.4206 57.0262 38.6241 57.2122 37.4538C57.3981 36.2834 56.8622 36.2834 56.4312 36.0363C56.0003 35.7891 54.7469 35.4194 54.7469 35.4194C54.7469 35.4194 53.7209 34.7631 53.535 34.6384C53.3512 34.5159 53.0428 34.3103 53.0625 34.1463C53.0822 33.9822 54.1256 34.3059 55.0334 34.0238C55.6897 33.8181 55.7728 33.3763 55.6394 32.9869C55.5737 32.7966 54.3969 32.2584 54.3969 32.2584L48.0991 31.4469C48.0991 31.4469 43.9319 32.8425 43.7875 32.9038C43.6431 32.965 43.5622 33.2319 43.7875 33.5206C44.0128 33.8072 44.3825 34.2381 45.1831 34.2184C45.9837 34.1988 46.4978 33.8488 46.64 34.0741C46.7844 34.2994 46.43 34.6516 46.1894 34.7916L44.855 35.5725C44.855 35.5725 42.5341 36.5569 42.4116 37.1541C42.2891 37.7513 42.5341 38.0444 42.9037 38.3047C43.2122 38.5213 43.7962 38.6022 44.1769 38.5913C44.4437 38.5847 44.6122 38.5103 44.68 38.7553C44.7719 39.0944 44.1966 39.3919 43.6628 39.5756C43.1291 39.7594 42.0812 40.2319 42.0812 40.2319C42.0812 40.2319 40.3575 40.6431 40.2547 40.8269C40.1519 41.0106 39.9681 41.9141 40.6856 42.5506C41.4031 43.1872 42.7178 43.3513 42.7178 43.3513C42.7178 43.3513 42.5537 43.8653 42.2256 44.1519C41.7526 44.5698 41.2118 44.9042 40.6266 45.1406Z" fill="#027F1C"/>
<path d="M49.6588 26.9516C50.1728 26.9516 50.2122 27.8353 51.2184 29.0669C52.3078 30.4012 53.5438 31.5584 54.0469 31.9609C54.5959 32.4028 55.3659 32.7156 55.4009 32.8075C55.4359 32.8994 54.6047 33.2122 53.4344 33.2756C52.2641 33.3369 51.155 32.9059 51.155 32.9059C51.155 32.9059 51.9972 34.7741 51.5444 35.205C51.1791 35.5528 49.9016 35.5134 48.9784 34.1572C48.0553 32.8009 48.0334 32.37 48.0334 32.37C48.0334 32.37 46.5766 33.2537 45.2816 33.2734C43.9866 33.2931 43.7831 33.0109 43.7831 32.9037C43.7831 32.7966 45.24 32.1447 45.8153 31.7137C46.3906 31.2828 47.6638 29.8719 48.4688 28.7169C49.0856 27.8353 49.2497 26.9516 49.6588 26.9516Z" fill="#02AB47"/>
<path d="M48.4687 34.5488C48.4687 34.5488 47.935 35.1022 47.0928 35.1656C46.2506 35.2291 45.8 35.0213 45.8 35.0213C45.8 35.0213 44.7631 35.4413 43.8291 35.9859C43.0984 36.4125 42.4269 36.9616 42.4422 37.0534C42.4575 37.1453 42.6587 37.4844 44.0128 37.4844C45.3669 37.4844 45.4916 37.1388 46.1675 37.1563C47.0294 37.1759 47.5216 38.6919 49.0003 38.7159C50.2319 38.7356 50.0481 37.8322 50.7241 37.7513C51.4022 37.6681 51.7106 38.2084 52.6644 38.2347C55.2916 38.3069 57.3653 37.1256 57.0678 36.4169C56.9694 36.1806 56.2912 35.8503 55.3025 35.5025C54.3684 35.1744 54.0184 34.9797 54.0184 34.9797C54.0184 34.9797 53.8653 35.3078 53.3928 35.4522C52.9509 35.5856 52.1809 35.2881 52.1809 35.2881C52.1809 35.2881 52.1809 35.9247 51.4634 36.0472C50.4987 36.2113 49.6369 35.7803 49.2453 35.4303C48.8537 35.0803 48.4687 34.5488 48.4687 34.5488ZM52.5331 43.2113C51.8616 43.4759 51.1572 45.1625 49.72 44.7928C48.2828 44.4231 48.0991 42.0409 48.0991 42.0409C48.0991 42.0409 44.7806 44.9284 43.7875 44.0119C42.9759 43.2616 44.4656 42.0913 44.4656 42.0913C44.4656 42.0913 42.9256 42.5747 41.5912 41.9994C40.2569 41.4241 40.2306 40.9669 40.2569 40.8291C40.2831 40.6913 41.2347 40.3588 42.0222 40.0897C42.6697 39.8688 43.4244 39.6588 43.4244 39.6588C43.4244 39.6588 44.1987 39.9672 44.015 40.3566C43.8312 40.7459 43.0919 41.0128 43.3784 41.3016C43.665 41.5881 44.4459 41.0544 44.7128 40.8706C44.9797 40.6869 45.7387 40.2975 46.2331 40.2756C47.3203 40.2253 47.7534 41.0566 48.7794 40.8706C49.8053 40.6847 50.56 39.8644 51.6494 39.72C52.7366 39.5756 53.4147 40.0897 54.4822 39.9672C55.5497 39.8447 55.9237 39.3919 55.9237 39.3919C55.9237 39.3919 57.0109 39.8031 57.9362 40.1925C58.8594 40.5819 59.6403 41.1375 59.6403 41.1375C59.6403 41.1375 58.9841 41.7938 57.8137 41.9381C56.6434 42.0825 56.0266 41.4875 55.8012 41.3628C55.5759 41.2381 54.8781 40.6453 54.6922 40.8706C54.5084 41.0959 55.4512 41.6297 55.8625 41.9381C56.2737 42.2466 57.0853 42.9072 55.8822 43.5591C55.2762 43.8872 54.5062 43.7953 54.095 43.7034C52.9641 43.4519 52.9881 43.0341 52.5331 43.2113Z" fill="#02AB47"/>
<path d="M52.5966 44.3619C52.5966 44.3619 51.3847 45.8406 50.5031 46.2913C49.6216 46.7419 48.7991 46.7528 48.7991 46.7528C48.7991 46.7528 48.3375 47.2253 48.4294 47.9034C48.495 48.3891 49.0659 48.8572 50.3172 48.7763C51.5684 48.6953 51.8769 48.4066 51.9184 48.0369C51.96 47.6672 51.7019 47.3194 51.6209 47.1531C51.5378 46.9891 51.2009 46.5997 51.4263 46.4553C51.6516 46.3109 51.8769 46.5384 52.1656 46.9694C52.4522 47.4003 53.7866 49.6994 55.5322 48.96C57.2581 48.2294 55.1428 46.5778 55.5738 46.3109C56.0047 46.0441 57.0941 46.9891 58.7763 46.8863C60.605 46.7747 61.0141 45.8559 61.0141 45.5825C61.0141 45.4797 60.2638 45.4797 59.6381 45.3353C59.1634 45.2259 58.4788 44.8016 58.4788 44.8016C58.4788 44.8016 56.9694 45.4272 55.5541 45.2434C54.1388 45.0597 52.5966 44.3619 52.5966 44.3619ZM47.1147 43.8063C47.1147 43.8063 47.1978 45.2019 47.4647 45.6941C47.7316 46.1863 48.3266 46.6784 48.3266 46.6784C48.3266 46.6784 48.1931 47.3259 47.5259 47.8291C46.6531 48.4875 45.0825 48.9578 44.1594 48.7128C43.2363 48.4656 43.4419 47.8291 43.5228 47.5841C43.6059 47.3369 44.5072 46.3306 44.7347 46.0025C44.96 45.6744 45.2488 45.2434 44.9819 45.1822C44.715 45.1209 44.2841 45.7772 43.9756 46.1469C43.6672 46.5166 42.825 47.3172 41.2456 47.0919C39.6663 46.8666 38.45 45.9719 38.5944 45.7881C38.7388 45.6044 39.8478 45.2238 40.4625 45.0378C41.0794 44.8541 42.2278 44.1541 42.2278 44.1541C42.2278 44.1541 42.125 44.7491 42.6588 44.9547C43.3281 45.2128 44.26 45.1384 45.45 44.6681C46.3513 44.3116 47.1147 43.8063 47.1147 43.8063Z" fill="#02AB47"/>
<path d="M41.2675 45.4337C40.8891 45.7597 40.3444 45.8953 40.5741 46.2344C40.8059 46.5734 41.2522 46.1884 41.6219 45.8953C41.9916 45.6022 42.4072 45.3112 42.1906 45.0487C41.9763 44.7862 41.6066 45.1406 41.2675 45.4337ZM45.5025 46.79C45.905 47.1072 46.1806 46.2212 46.3184 45.8822C46.4563 45.5431 46.7734 45.0487 46.5022 44.8803C46.1325 44.6484 45.9794 45.1122 45.7628 45.6503C45.5463 46.1884 45.2094 46.5581 45.5025 46.79ZM46.7494 40.7525C46.5284 40.5862 46.3644 40.7372 46.0559 41.1834C45.7475 41.6297 45.5638 41.9534 45.8088 42.1219C46.0559 42.2903 46.4716 41.6909 46.6247 41.4591C46.7778 41.2272 46.9353 40.8925 46.7494 40.7525ZM49.8184 41.1441C49.4225 41.2359 49.6303 41.6297 49.7113 42.0059C49.8031 42.4369 49.9431 43.115 50.0044 43.2987C50.0809 43.5306 50.1728 43.8675 50.4659 43.7909C50.7591 43.7144 50.6541 43.29 50.6191 43.0975C50.5425 42.6512 50.3719 41.9578 50.3259 41.7434C50.28 41.5291 50.2188 41.05 49.8184 41.1441ZM53.0166 45.4031C52.7716 45.635 53.0778 45.9566 53.4322 46.3569C53.7866 46.7572 54.0163 47.1881 54.3094 47.0044C54.6025 46.8206 54.2788 46.4203 53.9856 46.0966C53.6947 45.7728 53.3097 45.1253 53.0166 45.4031ZM52.59 40.7328C52.3275 40.9647 52.6666 41.2862 52.8678 41.5947C53.0691 41.9031 53.4847 42.3647 53.6072 42.4872C53.7297 42.6097 53.92 42.8612 54.13 42.7344C54.3969 42.5725 54.1453 42.2422 54.0381 42.1175C53.9309 41.9928 53.5766 41.5006 53.3753 41.2862C53.1741 41.0719 52.9181 40.4419 52.59 40.7328ZM52.6469 35.9794C52.4325 36.2812 52.8788 36.5962 53.3097 36.8412C53.7406 37.0884 54.1934 37.3575 54.3575 37.0884C54.5413 36.78 54.095 36.535 53.7253 36.3184C53.3556 36.1019 52.8788 35.6556 52.6469 35.9794ZM49.0441 36.4409C48.5825 36.4103 48.6438 36.8106 48.6591 37.2416C48.6744 37.6725 48.7509 37.9197 49.0441 37.9197C49.3372 37.9197 49.3372 37.4734 49.3372 37.2416C49.3372 37.0119 49.3372 36.4606 49.0441 36.4409ZM46.6313 36.4869C46.8369 36.8194 47.3094 36.3491 47.5084 36.1784C47.7097 36.01 48.0006 35.7628 47.8016 35.5156C47.6003 35.2684 47.1847 35.6228 46.9856 35.8087C46.7866 35.9947 46.4322 36.1653 46.6313 36.4869ZM49.5756 31.8844C49.7003 32.7506 49.8731 33.1159 50.2034 33.0066C50.4988 32.9103 50.2953 32.3744 50.2253 31.8778C50.1575 31.3791 50.1466 30.9459 49.7813 31.0006C49.3722 31.0619 49.5013 31.3637 49.5756 31.8844ZM51.3234 31.5781C51.5991 32.0003 51.8813 32.2366 52.17 32.0528C52.3909 31.9128 52.0847 31.5081 51.8988 31.2631C51.7719 31.0969 51.4088 30.4034 51.0697 30.7009C50.84 30.9022 51.0369 31.1384 51.3234 31.5781ZM48.3813 30.5916C48.5409 30.7403 48.3813 31.0378 48.1494 31.285C47.9175 31.5322 47.5959 31.9784 47.3488 31.7466C47.1016 31.5147 47.5325 31.1297 47.6878 30.9459C47.8431 30.76 48.1363 30.3597 48.3813 30.5916Z" fill="#028B2B"/>
</svg>
