<svg width="100" height="118" viewBox="0 0 100 118" fill="none" xmlns="http://www.w3.org/2000/svg">
<mask id="path-1-inside-1_576_10457" fill="white">
<path fill-rule="evenodd" clip-rule="evenodd" d="M50 0C59.6056 0 67.4538 7.52403 67.9727 17C68.0029 17.5515 68.4477 18 69 18L96 18C98.2091 18 100 19.7909 100 22L100 49C100 49.5523 99.5515 49.9971 99 50.0273C89.524 50.5462 82 58.3944 82 68C82 77.6056 89.524 85.4538 99 85.9727C99.5515 86.0029 100 86.4477 100 87V114C100 116.209 98.2091 118 96 118L69 118C68.4477 118 68.0029 117.551 67.9727 117C67.4538 107.524 59.6056 100 50 100C40.3944 100 32.5462 107.524 32.0273 117C31.9971 117.552 31.5523 118 31 118H4C1.79086 118 0 116.209 0 114L0 87C0 86.4477 0.448498 86.0029 0.999957 85.9727C10.476 85.4538 18 77.6056 18 68C18 58.3944 10.476 50.5462 0.999955 50.0273C0.448497 49.9971 0 49.5523 0 49L0 22C0 19.7909 1.79086 18 4 18L31 18C31.5523 18 31.9971 17.5515 32.0273 17C32.5462 7.52403 40.3944 0 50 0Z"/>
</mask>
<path fill-rule="evenodd" clip-rule="evenodd" d="M50 0C59.6056 0 67.4538 7.52403 67.9727 17C68.0029 17.5515 68.4477 18 69 18L96 18C98.2091 18 100 19.7909 100 22L100 49C100 49.5523 99.5515 49.9971 99 50.0273C89.524 50.5462 82 58.3944 82 68C82 77.6056 89.524 85.4538 99 85.9727C99.5515 86.0029 100 86.4477 100 87V114C100 116.209 98.2091 118 96 118L69 118C68.4477 118 68.0029 117.551 67.9727 117C67.4538 107.524 59.6056 100 50 100C40.3944 100 32.5462 107.524 32.0273 117C31.9971 117.552 31.5523 118 31 118H4C1.79086 118 0 116.209 0 114L0 87C0 86.4477 0.448498 86.0029 0.999957 85.9727C10.476 85.4538 18 77.6056 18 68C18 58.3944 10.476 50.5462 0.999955 50.0273C0.448497 49.9971 0 49.5523 0 49L0 22C0 19.7909 1.79086 18 4 18L31 18C31.5523 18 31.9971 17.5515 32.0273 17C32.5462 7.52403 40.3944 0 50 0Z" fill="#374151" fill-opacity="0.4"/>
<path d="M0 22H1H0ZM32.0273 17L33.0258 17.0547L32.0273 17ZM0.999957 85.9727L0.945284 84.9742L0.999957 85.9727ZM32.0273 117L31.0288 116.945L32.0273 117ZM99 85.9727L99.0547 84.9742L99 85.9727ZM67.9727 117L68.9712 116.945L67.9727 117ZM99 50.0273L98.9454 49.0288L99 50.0273ZM68.9712 16.9454C68.4235 6.94204 60.1396 -1 50 -1V1C59.0716 1 66.4842 8.10603 66.9742 17.0547L68.9712 16.9454ZM96 17L69 17V19L96 19V17ZM101 22C101 19.2386 98.7614 17 96 17V19C97.6569 19 99 20.3431 99 22L101 22ZM101 49L101 22L99 22L99 49H101ZM83 68C83 58.9284 90.106 51.5158 99.0547 51.0258L98.9454 49.0288C88.942 49.5765 81 57.8604 81 68H83ZM99.0547 84.9742C90.106 84.4842 83 77.0716 83 68H81C81 78.1395 88.942 86.4235 98.9454 86.9712L99.0547 84.9742ZM101 114V87H99V114H101ZM96 119C98.7614 119 101 116.761 101 114H99C99 115.657 97.6569 117 96 117V119ZM69 119L96 119V117L69 117V119ZM50 101C59.0716 101 66.4842 108.106 66.9742 117.055L68.9712 116.945C68.4235 106.942 60.1396 99 50 99V101ZM33.0258 117.055C33.5158 108.106 40.9284 101 50 101V99C39.8604 99 31.5765 106.942 31.0288 116.945L33.0258 117.055ZM4 119H31V117H4V119ZM-1 114C-1 116.761 1.23858 119 4 119V117C2.34315 117 1 115.657 1 114H-1ZM-1 87L-1 114H1L1 87H-1ZM17 68C17 77.0716 9.89398 84.4842 0.945284 84.9742L1.05463 86.9712C11.058 86.4235 19 78.1395 19 68H17ZM0.945282 51.0258C9.89397 51.5158 17 58.9284 17 68H19C19 57.8604 11.058 49.5765 1.05463 49.0288L0.945282 51.0258ZM-1 22L-1 49H1L1 22H-1ZM4 17C1.23858 17 -1 19.2386 -1 22H1C1 20.3431 2.34315 19 4 19L4 17ZM31 17L4 17L4 19L31 19V17ZM50 -1C39.8604 -1 31.5765 6.94204 31.0288 16.9454L33.0258 17.0547C33.5158 8.10602 40.9284 1 50 1V-1ZM31 19C32.1183 19 32.9685 18.1008 33.0258 17.0547L31.0288 16.9454C31.0276 16.9667 31.0187 16.9836 31.0081 16.994C31.0033 16.9987 31.0001 17.0002 30.9999 17.0002C30.9998 17.0003 31.0001 17.0001 31.0006 17C31.0012 16.9999 31.0012 17 31 17V19ZM1.05463 49.0288C1.03335 49.0276 1.0164 49.0187 1.006 49.0081C1.00127 49.0033 0.999846 49.0001 0.999766 48.9999C0.999738 48.9998 0.999868 49.0001 0.999977 49.0006C1.0001 49.0012 1 49.0012 1 49H-1C-1 50.1183 -0.100789 50.9685 0.945282 51.0258L1.05463 49.0288ZM1 87C1 86.9988 1.0001 86.9988 0.999977 86.9994C0.999868 86.9999 0.999738 87.0002 0.999766 87.0001C0.999846 86.9999 1.00127 86.9967 1.006 86.9919C1.0164 86.9813 1.03335 86.9724 1.05463 86.9712L0.945284 84.9742C-0.100786 85.0315 -1 85.8817 -1 87H1ZM66.9742 17.0547C67.0315 18.1008 67.8817 19 69 19V17C68.9988 17 68.9988 16.9999 68.9994 17C68.9999 17.0001 69.0002 17.0003 69.0001 17.0002C68.9999 17.0002 68.9967 16.9987 68.9919 16.994C68.9813 16.9836 68.9724 16.9667 68.9712 16.9454L66.9742 17.0547ZM31.0288 116.945C31.0276 116.967 31.0187 116.984 31.0081 116.994C31.0033 116.999 31.0001 117 30.9999 117C30.9998 117 31.0001 117 31.0007 117C31.0012 117 31.0012 117 31 117V119C32.1183 119 32.9685 118.101 33.0258 117.055L31.0288 116.945ZM98.9454 86.9712C98.9667 86.9724 98.9836 86.9813 98.994 86.9919C98.9987 86.9967 99.0002 86.9999 99.0002 87.0001C99.0003 87.0002 99.0001 86.9999 99 86.9994C98.9999 86.9988 99 86.9988 99 87H101C101 85.8817 100.101 85.0315 99.0547 84.9742L98.9454 86.9712ZM69 117C68.9988 117 68.9988 117 68.9994 117C68.9999 117 69.0002 117 69.0001 117C68.9999 117 68.9967 116.999 68.9919 116.994C68.9813 116.984 68.9724 116.967 68.9712 116.945L66.9742 117.055C67.0315 118.101 67.8817 119 69 119V117ZM99 49C99 49.0012 98.9999 49.0012 99 49.0006C99.0001 49.0001 99.0003 48.9998 99.0002 48.9999C99.0002 49.0001 98.9987 49.0033 98.994 49.0081C98.9836 49.0187 98.9667 49.0276 98.9454 49.0288L99.0547 51.0258C100.101 50.9685 101 50.1183 101 49H99Z" fill="#374151" mask="url(#path-1-inside-1_576_10457)"/>
<path d="M40.5517 90.112C40.3384 90.112 40.173 90.0533 40.0557 89.936C39.949 89.8187 39.8957 89.6533 39.8957 89.44V82.768C39.8957 82.5547 39.949 82.3947 40.0557 82.288C40.1624 82.1707 40.317 82.112 40.5197 82.112C40.7224 82.112 40.877 82.1707 40.9837 82.288C41.101 82.3947 41.1597 82.5547 41.1597 82.768V84.064H40.9997C41.1704 83.4347 41.4957 82.9493 41.9757 82.608C42.4557 82.2667 43.0477 82.0853 43.7517 82.064C43.9117 82.0533 44.0397 82.0907 44.1357 82.176C44.2317 82.2507 44.285 82.384 44.2957 82.576C44.3064 82.7573 44.2637 82.9013 44.1677 83.008C44.0717 83.1147 43.9224 83.1787 43.7197 83.2L43.4637 83.232C42.7384 83.296 42.1784 83.5307 41.7837 83.936C41.3997 84.3307 41.2077 84.8747 41.2077 85.568V89.44C41.2077 89.6533 41.149 89.8187 41.0317 89.936C40.925 90.0533 40.765 90.112 40.5517 90.112ZM48.8323 90.144C48.0536 90.144 47.3816 89.9733 46.8163 89.632C46.251 89.2907 45.8136 88.816 45.5043 88.208C45.2056 87.5893 45.0563 86.8747 45.0563 86.064C45.0563 85.4453 45.1416 84.8907 45.3123 84.4C45.483 83.9093 45.7336 83.4933 46.0643 83.152C46.395 82.8 46.7896 82.5333 47.2483 82.352C47.7176 82.1707 48.2456 82.08 48.8323 82.08C49.2163 82.08 49.6163 82.1387 50.0323 82.256C50.4483 82.3733 50.827 82.576 51.1683 82.864C51.275 82.9387 51.3443 83.0293 51.3763 83.136C51.4083 83.2427 51.4083 83.3493 51.3763 83.456C51.3443 83.552 51.291 83.6373 51.2163 83.712C51.1416 83.776 51.0456 83.8133 50.9283 83.824C50.8216 83.8347 50.7096 83.7973 50.5923 83.712C50.315 83.4987 50.0323 83.3493 49.7443 83.264C49.4563 83.1787 49.179 83.136 48.9123 83.136C48.4963 83.136 48.1336 83.2053 47.8243 83.344C47.515 83.472 47.2536 83.6587 47.0403 83.904C46.827 84.1493 46.6616 84.4533 46.5443 84.816C46.4376 85.1787 46.3843 85.6 46.3843 86.08C46.3843 87.008 46.603 87.744 47.0403 88.288C47.4776 88.8213 48.1016 89.088 48.9123 89.088C49.179 89.088 49.451 89.0453 49.7283 88.96C50.0163 88.8747 50.3043 88.7253 50.5923 88.512C50.7096 88.4267 50.8216 88.3893 50.9283 88.4C51.035 88.4107 51.1256 88.4533 51.2003 88.528C51.275 88.592 51.323 88.6773 51.3443 88.784C51.3763 88.8907 51.3763 88.9973 51.3443 89.104C51.3123 89.2 51.243 89.2853 51.1363 89.36C50.795 89.6373 50.4216 89.84 50.0163 89.968C49.611 90.0853 49.2163 90.144 48.8323 90.144ZM55.7426 90.144C55.2626 90.144 54.7612 90.048 54.2386 89.856C53.7159 89.664 53.2572 89.3867 52.8626 89.024C52.7452 88.9387 52.6706 88.8373 52.6386 88.72C52.6172 88.6027 52.6226 88.4907 52.6546 88.384C52.6866 88.2667 52.7399 88.1707 52.8146 88.096C52.8999 88.0107 53.0012 87.968 53.1186 87.968C53.2359 87.9573 53.3586 88 53.4866 88.096C53.8492 88.4053 54.2226 88.6293 54.6066 88.768C54.9906 88.9067 55.3799 88.976 55.7746 88.976C56.4679 88.976 57.0546 88.8053 57.5346 88.464C58.0252 88.1227 58.3932 87.6053 58.6386 86.912C58.8946 86.2187 59.0226 85.36 59.0226 84.336V82.848H59.1666C59.1026 83.4453 58.9212 83.968 58.6226 84.416C58.3346 84.864 57.9612 85.2053 57.5026 85.44C57.0439 85.6747 56.5266 85.792 55.9506 85.792C55.2892 85.792 54.7026 85.6427 54.1906 85.344C53.6786 85.0453 53.2786 84.624 52.9906 84.08C52.7026 83.536 52.5586 82.9227 52.5586 82.24C52.5586 81.5253 52.7079 80.896 53.0066 80.352C53.3159 79.7973 53.7372 79.3653 54.2706 79.056C54.8146 78.736 55.4386 78.576 56.1426 78.576C57.0279 78.576 57.7799 78.7947 58.3986 79.232C59.0279 79.6587 59.5026 80.2827 59.8226 81.104C60.1426 81.9253 60.3026 82.9173 60.3026 84.08C60.3026 85.0613 60.2012 85.9253 59.9986 86.672C59.7959 87.4187 59.4972 88.0533 59.1026 88.576C58.7079 89.088 58.2279 89.4773 57.6626 89.744C57.0972 90.0107 56.4572 90.144 55.7426 90.144ZM56.2226 84.688C56.7026 84.688 57.1239 84.5813 57.4866 84.368C57.8492 84.1547 58.1319 83.8613 58.3346 83.488C58.5372 83.104 58.6386 82.6667 58.6386 82.176C58.6386 81.6853 58.5372 81.2533 58.3346 80.88C58.1319 80.5067 57.8492 80.2133 57.4866 80C57.1239 79.7867 56.7026 79.68 56.2226 79.68C55.7532 79.68 55.3372 79.7867 54.9746 80C54.6226 80.2133 54.3399 80.5067 54.1266 80.88C53.9239 81.2533 53.8226 81.6853 53.8226 82.176C53.8226 82.6667 53.9239 83.104 54.1266 83.488C54.3399 83.8613 54.6226 84.1547 54.9746 84.368C55.3372 84.5813 55.7532 84.688 56.2226 84.688Z" fill="#F9FAFB"/>
<path d="M40.2109 33.8259H60.4541V34.3816H40.2109V33.8259ZM40.2109 38.19H60.4541V38.7456H40.2109V38.19ZM40.2109 42.4797H60.4541V43.0353H40.2109V42.4797ZM40.2109 46.7081H60.4541V47.2637H40.2109V46.7081ZM40.2109 50.9366H60.4541V51.4922H40.2109V50.9366Z" fill="#AD7146"/>
<path d="M40.2109 55.1234H39.3206C39.0756 55.1234 38.8766 54.9222 38.8766 54.6794V31.3191C38.8766 31.0741 39.0778 30.875 39.3206 30.875H40.2109C40.4559 30.875 40.655 31.0763 40.655 31.3191V54.6772C40.6572 54.9222 40.4559 55.1234 40.2109 55.1234ZM60.6772 55.1234H59.7869C59.5419 55.1234 59.3428 54.9222 59.3428 54.6794V31.3191C59.3428 31.0741 59.5441 30.875 59.7869 30.875H60.6772C60.9222 30.875 61.1213 31.0763 61.1213 31.3191V54.6772C61.1234 54.9222 60.9222 55.1234 60.6772 55.1234Z" fill="#D99B61"/>
<path d="M38.8766 53.6447V54.6772C38.8766 54.9222 39.0778 55.1212 39.3206 55.1212H40.2109C40.4559 55.1212 40.655 54.92 40.655 54.6772V53.6447H38.8766ZM59.3428 53.6447V54.6772C59.3428 54.9222 59.5441 55.1212 59.7869 55.1212H60.6772C60.9222 55.1212 61.1213 54.92 61.1213 54.6772V53.6447H59.3428Z" fill="#BF7C4E"/>
<path d="M62.0138 57.125H37.9862C37.7412 57.125 37.5422 56.9238 37.5422 56.6809V54.9003C37.5422 54.6553 37.7434 54.4563 37.9862 54.4563H62.0116C62.2566 54.4563 62.4556 54.6575 62.4556 54.9003V56.6809C62.4556 56.7983 62.4091 56.911 62.3263 56.9942C62.2435 57.0774 62.1311 57.1244 62.0138 57.125Z" fill="#D99B61"/>
<path d="M40.2109 33.8259H60.4541V34.3816H40.2109V33.8259ZM40.2109 38.19H60.4541V38.7456H40.2109V38.19ZM40.2109 42.4797H60.4541V43.0353H40.2109V42.4797ZM40.2109 46.7081H60.4541V47.2637H40.2109V46.7081ZM40.2109 50.9366H60.4541V51.4922H40.2109V50.9366Z" fill="#AD7146"/>
<path d="M40.2109 55.1234H39.3206C39.0756 55.1234 38.8766 54.9222 38.8766 54.6794V31.3191C38.8766 31.0741 39.0778 30.875 39.3206 30.875H40.2109C40.4559 30.875 40.655 31.0763 40.655 31.3191V54.6772C40.6572 54.9222 40.4559 55.1234 40.2109 55.1234ZM60.6772 55.1234H59.7869C59.5419 55.1234 59.3428 54.9222 59.3428 54.6794V31.3191C59.3428 31.0741 59.5441 30.875 59.7869 30.875H60.6772C60.9222 30.875 61.1213 31.0763 61.1213 31.3191V54.6772C61.1234 54.9222 60.9222 55.1234 60.6772 55.1234Z" fill="#D99B61"/>
<path d="M38.8766 53.6447V54.6772C38.8766 54.9222 39.0778 55.1212 39.3206 55.1212H40.2109C40.4559 55.1212 40.655 54.92 40.655 54.6772V53.6447H38.8766ZM59.3428 53.6447V54.6772C59.3428 54.9222 59.5441 55.1212 59.7869 55.1212H60.6772C60.9222 55.1212 61.1213 54.92 61.1213 54.6772V53.6447H59.3428Z" fill="#BF7C4E"/>
<path d="M62.0138 57.125H37.9862C37.7412 57.125 37.5422 56.9238 37.5422 56.6809V54.9003C37.5422 54.6553 37.7434 54.4563 37.9862 54.4563H62.0116C62.2566 54.4563 62.4556 54.6575 62.4556 54.9003V56.6809C62.4556 56.7983 62.4091 56.911 62.3263 56.9942C62.2435 57.0774 62.1311 57.1244 62.0138 57.125Z" fill="#D99B61"/>
<path d="M41.4359 49.7684C41.0072 49.7684 40.6572 50.1206 40.6572 50.5472V51.8816C40.6572 52.3081 41.0072 52.6603 41.4359 52.6603C41.8647 52.6603 42.2147 52.3081 42.2147 51.8816V50.5472C42.2147 50.1184 41.8625 49.7684 41.4359 49.7684ZM43.2144 49.7684C42.7856 49.7684 42.4356 50.1206 42.4356 50.5472V51.8816C42.4356 52.3081 42.7856 52.6603 43.2144 52.6603C43.6431 52.6603 43.9931 52.3081 43.9931 51.8816V50.5472C43.9931 50.1184 43.6431 49.7684 43.2144 49.7684ZM44.995 49.7684C44.5663 49.7684 44.2163 50.1206 44.2163 50.5472V51.8816C44.2163 52.3081 44.5663 52.6603 44.995 52.6603C45.4238 52.6603 45.7738 52.3081 45.7738 51.8816V50.5472C45.7738 50.1184 45.4216 49.7684 44.995 49.7684ZM47.2197 49.7684C46.7909 49.7684 46.4409 50.1206 46.4409 50.5472V51.8816C46.4409 52.3081 46.7909 52.6603 47.2197 52.6603C47.6484 52.6603 47.9984 52.3081 47.9984 51.8816V50.5472C47.9984 50.1184 47.6463 49.7684 47.2197 49.7684ZM48.9981 49.7684C48.5694 49.7684 48.2194 50.1206 48.2194 50.5472V51.8816C48.2194 52.3081 48.5694 52.6603 48.9981 52.6603C49.4269 52.6603 49.7769 52.3081 49.7769 51.8816V50.5472C49.7769 50.1184 49.4269 49.7684 48.9981 49.7684ZM50.7788 49.7684C50.35 49.7684 50 50.1206 50 50.5472V51.8816C50 52.3081 50.35 52.6603 50.7788 52.6603C51.2075 52.6603 51.5575 52.3081 51.5575 51.8816V50.5472C51.5575 50.1184 51.2053 49.7684 50.7788 49.7684ZM53.3359 49.7684C52.9072 49.7684 52.5572 50.1206 52.5572 50.5472V51.8816C52.5572 52.3081 52.9072 52.6603 53.3359 52.6603C53.7647 52.6603 54.1147 52.3081 54.1147 51.8816V50.5472C54.1147 50.1184 53.7647 49.7684 53.3359 49.7684ZM55.005 49.7684C54.5763 49.7684 54.2263 50.1206 54.2263 50.5472V51.8816C54.2263 52.3081 54.5763 52.6603 55.005 52.6603C55.4338 52.6603 55.7838 52.3081 55.7838 51.8816V50.5472C55.7838 50.1184 55.4316 49.7684 55.005 49.7684ZM56.6741 49.7684C56.2453 49.7684 55.8953 50.1206 55.8953 50.5472V51.8816C55.8953 52.3081 56.2453 52.6603 56.6741 52.6603C57.1028 52.6603 57.4528 52.3081 57.4528 51.8816V50.5472C57.4528 50.1184 57.1006 49.7684 56.6741 49.7684ZM58.3431 49.7684C57.9144 49.7684 57.5644 50.1206 57.5644 50.5472V51.8816C57.5644 52.3081 57.9144 52.6603 58.3431 52.6603C58.7719 52.6603 59.1219 52.3081 59.1219 51.8816V50.5472C59.1197 50.1184 58.7697 49.7684 58.3431 49.7684Z" fill="#1976D2"/>
<path d="M41.4359 45.5575C41.0072 45.5575 40.6572 45.9097 40.6572 46.3363V47.6706C40.6572 48.0972 41.0072 48.4494 41.4359 48.4494C41.8647 48.4494 42.2147 48.0972 42.2147 47.6706V46.3363C42.2147 45.9075 41.8625 45.5575 41.4359 45.5575ZM43.2144 45.5575C42.7856 45.5575 42.4356 45.9097 42.4356 46.3363V47.6706C42.4356 48.0972 42.7856 48.4494 43.2144 48.4494C43.6431 48.4494 43.9931 48.0972 43.9931 47.6706V46.3363C43.9931 45.9075 43.6431 45.5575 43.2144 45.5575ZM44.995 45.5575C44.5663 45.5575 44.2163 45.9097 44.2163 46.3363V47.6706C44.2163 48.0972 44.5663 48.4494 44.995 48.4494C45.4238 48.4494 45.7738 48.0972 45.7738 47.6706V46.3363C45.7738 45.9075 45.4216 45.5575 44.995 45.5575ZM46.7734 45.5575C46.3447 45.5575 45.9947 45.9097 45.9947 46.3363V47.6706C45.9947 48.0972 46.3447 48.4494 46.7734 48.4494C47.2022 48.4494 47.5522 48.0972 47.5522 47.6706V46.3363C47.5522 45.9075 47.2022 45.5575 46.7734 45.5575ZM49.6653 45.5575C49.2366 45.5575 48.8866 45.9097 48.8866 46.3363V47.6706C48.8866 48.0972 49.2366 48.4494 49.6653 48.4494C50.0941 48.4494 50.4441 48.0972 50.4441 47.6706V46.3363C50.4441 45.9075 50.0941 45.5575 49.6653 45.5575ZM51.4022 45.5575C50.9734 45.5575 50.6234 45.9097 50.6234 46.3363V47.6706C50.6234 48.0972 50.9734 48.4494 51.4022 48.4494C51.8309 48.4494 52.1809 48.0972 52.1809 47.6706V46.3363C52.1809 45.9075 51.8288 45.5575 51.4022 45.5575ZM53.1369 45.5575C52.7081 45.5575 52.3581 45.9097 52.3581 46.3363V47.6706C52.3581 48.0972 52.7081 48.4494 53.1369 48.4494C53.5656 48.4494 53.9156 48.0972 53.9156 47.6706V46.3363C53.9156 45.9075 53.5634 45.5575 53.1369 45.5575ZM54.8716 45.5575C54.4428 45.5575 54.0928 45.9097 54.0928 46.3363V47.6706C54.0928 48.0972 54.4428 48.4494 54.8716 48.4494C55.3003 48.4494 55.6503 48.0972 55.6503 47.6706V46.3363C55.6503 45.9075 55.2981 45.5575 54.8716 45.5575ZM56.6063 45.5575C56.1775 45.5575 55.8275 45.9097 55.8275 46.3363V47.6706C55.8275 48.0972 56.1775 48.4494 56.6063 48.4494C57.035 48.4494 57.385 48.0972 57.385 47.6706V46.3363C57.385 45.9075 57.035 45.5575 56.6063 45.5575ZM58.3431 45.5575C57.9144 45.5575 57.5644 45.9097 57.5644 46.3363V47.6706C57.5644 48.0972 57.9144 48.4494 58.3431 48.4494C58.7719 48.4494 59.1219 48.0972 59.1219 47.6706V46.3363C59.1197 45.9075 58.7697 45.5575 58.3431 45.5575Z" fill="#689F38"/>
<path d="M41.4359 41.3138C41.0072 41.3138 40.6572 41.6659 40.6572 42.0925V43.4269C40.6572 43.8534 41.0072 44.2056 41.4359 44.2056C41.8647 44.2056 42.2147 43.8534 42.2147 43.4269V42.0925C42.2147 41.6616 41.8625 41.3138 41.4359 41.3138ZM43.2144 41.3138C42.7856 41.3138 42.4356 41.6659 42.4356 42.0925V43.4269C42.4356 43.8534 42.7856 44.2056 43.2144 44.2056C43.6431 44.2056 43.9931 43.8534 43.9931 43.4269V42.0925C43.9931 41.6616 43.6431 41.3138 43.2144 41.3138ZM44.995 41.3138C44.5663 41.3138 44.2163 41.6659 44.2163 42.0925V43.4269C44.2163 43.8534 44.5663 44.2056 44.995 44.2056C45.4238 44.2056 45.7738 43.8534 45.7738 43.4269V42.0925C45.7738 41.6616 45.4216 41.3138 44.995 41.3138ZM46.7734 41.3138C46.3447 41.3138 45.9947 41.6659 45.9947 42.0925V43.4269C45.9947 43.8534 46.3447 44.2056 46.7734 44.2056C47.2022 44.2056 47.5522 43.8534 47.5522 43.4269V42.0925C47.5522 41.6616 47.2022 41.3138 46.7734 41.3138ZM48.5541 41.3138C48.1253 41.3138 47.7753 41.6659 47.7753 42.0925V43.4269C47.7753 43.8534 48.1253 44.2056 48.5541 44.2056C48.9828 44.2056 49.3328 43.8534 49.3328 43.4269V42.0925C49.3328 41.6616 48.9806 41.3138 48.5541 41.3138ZM50.3347 41.3138C49.9059 41.3138 49.5559 41.6659 49.5559 42.0925V43.4269C49.5559 43.8534 49.9059 44.2056 50.3347 44.2056C50.7634 44.2056 51.1134 43.8534 51.1134 43.4269V42.0925C51.1134 41.6616 50.7613 41.3138 50.3347 41.3138ZM52.1131 41.3138C51.6844 41.3138 51.3344 41.6659 51.3344 42.0925V43.4269C51.3344 43.8534 51.6844 44.2056 52.1131 44.2056C52.5419 44.2056 52.8919 43.8534 52.8919 43.4269V42.0925C52.8919 41.6616 52.5397 41.3138 52.1131 41.3138ZM53.8938 41.3138C53.465 41.3138 53.115 41.6659 53.115 42.0925V43.4269C53.115 43.8534 53.465 44.2056 53.8938 44.2056C54.3225 44.2056 54.6725 43.8534 54.6725 43.4269V42.0925C54.6725 41.6616 54.3203 41.3138 53.8938 41.3138ZM55.6722 41.3138C55.2434 41.3138 54.8934 41.6659 54.8934 42.0925V43.4269C54.8934 43.8534 55.2434 44.2056 55.6722 44.2056C56.1009 44.2056 56.4509 43.8534 56.4509 43.4269V42.0925C56.4509 41.6616 56.1009 41.3138 55.6722 41.3138ZM58.3431 41.3138C57.9144 41.3138 57.5644 41.6659 57.5644 42.0925V43.4269C57.5644 43.8534 57.9144 44.2056 58.3431 44.2056C58.7719 44.2056 59.1219 43.8534 59.1219 43.4269V42.0925C59.1197 41.6616 58.7697 41.3138 58.3431 41.3138Z" fill="#FFCA28"/>
<path d="M41.4359 37.0219C41.0072 37.0219 40.6572 37.3741 40.6572 37.8006V39.135C40.6572 39.5616 41.0072 39.9137 41.4359 39.9137C41.8647 39.9137 42.2147 39.5616 42.2147 39.135V37.8006C42.2147 37.3697 41.8625 37.0219 41.4359 37.0219ZM43.1969 37.0219C42.7681 37.0219 42.4181 37.3741 42.4181 37.8006V39.135C42.4181 39.5616 42.7681 39.9137 43.1969 39.9137C43.6256 39.9137 43.9756 39.5616 43.9756 39.135V37.8006C43.9756 37.3697 43.6234 37.0219 43.1969 37.0219ZM45.4216 37.0219C44.9928 37.0219 44.6428 37.3741 44.6428 37.8006V39.135C44.6428 39.5616 44.9928 39.9137 45.4216 39.9137C45.8503 39.9137 46.2003 39.5616 46.2003 39.135V37.8006C46.2003 37.3697 45.8481 37.0219 45.4216 37.0219ZM48.3309 37.0219C47.9022 37.0219 47.5522 37.3741 47.5522 37.8006V39.135C47.5522 39.5616 47.9022 39.9137 48.3309 39.9137C48.7597 39.9137 49.1097 39.5616 49.1097 39.135V37.8006C49.1097 37.3697 48.7597 37.0219 48.3309 37.0219ZM50.0372 37.0219C49.6084 37.0219 49.2584 37.3741 49.2584 37.8006V39.135C49.2584 39.5616 49.6084 39.9137 50.0372 39.9137C50.4659 39.9137 50.8159 39.5616 50.8159 39.135V37.8006C50.8159 37.3697 50.4637 37.0219 50.0372 37.0219ZM51.7434 37.0219C51.3147 37.0219 50.9647 37.3741 50.9647 37.8006V39.135C50.9647 39.5616 51.3147 39.9137 51.7434 39.9137C52.1722 39.9137 52.5222 39.5616 52.5222 39.135V37.8006C52.5222 37.3697 52.17 37.0219 51.7434 37.0219ZM53.4475 37.0219C53.0188 37.0219 52.6687 37.3741 52.6687 37.8006V39.135C52.6687 39.5616 53.0188 39.9137 53.4475 39.9137C53.8763 39.9137 54.2262 39.5616 54.2262 39.135V37.8006C54.2262 37.3697 53.8763 37.0219 53.4475 37.0219ZM55.1537 37.0219C54.725 37.0219 54.375 37.3741 54.375 37.8006V39.135C54.375 39.5616 54.725 39.9137 55.1537 39.9137C55.5825 39.9137 55.9325 39.5616 55.9325 39.135V37.8006C55.9325 37.3697 55.5803 37.0219 55.1537 37.0219ZM56.86 37.0219C56.4312 37.0219 56.0813 37.3741 56.0813 37.8006V39.135C56.0813 39.5616 56.4312 39.9137 56.86 39.9137C57.2887 39.9137 57.6388 39.5616 57.6388 39.135V37.8006C57.6388 37.3697 57.2866 37.0219 56.86 37.0219ZM58.5641 37.0219C58.1353 37.0219 57.7853 37.3741 57.7853 37.8006V39.135C57.7853 39.5616 58.1353 39.9137 58.5641 39.9137C58.9928 39.9137 59.3428 39.5616 59.3428 39.135V37.8006C59.3428 37.3697 58.9928 37.0219 58.5641 37.0219Z" fill="#F57C00"/>
<path d="M41.4359 32.66C41.0072 32.66 40.6572 33.0122 40.6572 33.4388V34.7731C40.6572 35.1997 41.0072 35.5519 41.4359 35.5519C41.8647 35.5519 42.2147 35.1997 42.2147 34.7731V33.4388C42.2147 33.0078 41.8625 32.66 41.4359 32.66ZM43.105 32.66C42.6763 32.66 42.3263 33.0122 42.3263 33.4388V34.7731C42.3263 35.1997 42.6763 35.5519 43.105 35.5519C43.5338 35.5519 43.8838 35.1997 43.8838 34.7731V33.4388C43.8816 33.0078 43.5316 32.66 43.105 32.66ZM44.7719 32.66C44.3431 32.66 43.9931 33.0122 43.9931 33.4388V34.7731C43.9931 35.1997 44.3431 35.5519 44.7719 35.5519C45.2006 35.5519 45.5506 35.1997 45.5506 34.7731V33.4388C45.5506 33.0078 45.1984 32.66 44.7719 32.66ZM46.4409 32.66C46.0122 32.66 45.6622 33.0122 45.6622 33.4388V34.7731C45.6622 35.1997 46.0122 35.5519 46.4409 35.5519C46.8697 35.5519 47.2197 35.1997 47.2197 34.7731V33.4388C47.2197 33.0078 46.8675 32.66 46.4409 32.66ZM48.11 32.66C47.6813 32.66 47.3313 33.0122 47.3313 33.4388V34.7731C47.3313 35.1997 47.6813 35.5519 48.11 35.5519C48.5388 35.5519 48.8888 35.1997 48.8888 34.7731V33.4388C48.8888 33.0078 48.5366 32.66 48.11 32.66ZM50.3347 32.66C49.9059 32.66 49.5559 33.0122 49.5559 33.4388V34.7731C49.5559 35.1997 49.9059 35.5519 50.3347 35.5519C50.7634 35.5519 51.1134 35.1997 51.1134 34.7731V33.4388C51.1134 33.0078 50.7612 32.66 50.3347 32.66ZM52.1131 32.66C51.6844 32.66 51.3344 33.0122 51.3344 33.4388V34.7731C51.3344 35.1997 51.6844 35.5519 52.1131 35.5519C52.5419 35.5519 52.8919 35.1997 52.8919 34.7731V33.4388C52.8919 33.0078 52.5397 32.66 52.1131 32.66ZM55.005 32.66C54.5762 32.66 54.2262 33.0122 54.2262 33.4388V34.7731C54.2262 35.1997 54.5762 35.5519 55.005 35.5519C55.4337 35.5519 55.7838 35.1997 55.7838 34.7731V33.4388C55.7838 33.0078 55.4316 32.66 55.005 32.66ZM56.7856 32.66C56.3569 32.66 56.0069 33.0122 56.0069 33.4388V34.7731C56.0069 35.1997 56.3569 35.5519 56.7856 35.5519C57.2144 35.5519 57.5644 35.1997 57.5644 34.7731V33.4388C57.5644 33.0078 57.2122 32.66 56.7856 32.66ZM58.5641 32.66C58.1353 32.66 57.7853 33.0122 57.7853 33.4388V34.7731C57.7853 35.1997 58.1353 35.5519 58.5641 35.5519C58.9928 35.5519 59.3428 35.1997 59.3428 34.7731V33.4388C59.3428 33.0078 58.9928 32.66 58.5641 32.66Z" fill="#D82521"/>
<path d="M40.9175 50.4969C40.9087 50.65 40.8366 51.3325 41.425 51.3325C42.0134 51.3325 41.9041 50.6719 41.8997 50.5078C41.8953 50.3809 41.8866 50.2519 41.8187 50.1403C41.7509 50.0288 41.5212 49.8691 41.2478 49.9631C40.9722 50.0572 40.9241 50.3875 40.9175 50.4969ZM42.7047 50.5975C42.6959 50.7506 42.7375 51.3259 43.2209 51.2713C43.8028 51.2056 43.7634 50.6741 43.7591 50.5078C43.7547 50.3809 43.7284 50.2103 43.6147 50.0769C43.5272 49.9763 43.2778 49.8406 43.0044 49.9784C42.7462 50.1097 42.7112 50.4881 42.7047 50.5975ZM44.4569 50.5713C44.4481 50.7244 44.4897 51.1903 44.9731 51.245C45.5134 51.3063 45.5419 50.7441 45.5112 50.4816C45.4959 50.3569 45.3691 49.8844 44.9141 49.9391C44.4569 49.9938 44.4634 50.4619 44.4569 50.5713ZM50.2866 50.4969C50.2778 50.65 50.2056 51.3325 50.7941 51.3325C51.3825 51.3325 51.2731 50.6719 51.2687 50.5078C51.2644 50.3809 51.2556 50.2519 51.1878 50.1403C51.12 50.0288 50.8903 49.8691 50.6169 49.9631C50.3391 50.0572 50.2931 50.3875 50.2866 50.4969ZM54.5128 50.4969C54.5041 50.65 54.4319 51.3325 55.0203 51.3325C55.6087 51.3325 55.4994 50.6719 55.495 50.5078C55.4906 50.3809 55.4819 50.2519 55.4141 50.1403C55.3462 50.0288 55.1166 49.8691 54.8431 49.9631C54.5653 50.0572 54.5194 50.3875 54.5128 50.4969ZM48.4884 50.5975C48.4797 50.7506 48.5212 51.2166 49.0047 51.2713C49.5559 51.3325 49.5472 50.6741 49.5428 50.5078C49.5384 50.3809 49.5122 50.2103 49.3984 50.0769C49.3109 49.9763 49.0616 49.8406 48.7881 49.9784C48.53 50.1097 48.495 50.4881 48.4884 50.5975ZM52.8109 50.5975C52.8022 50.7506 52.8437 51.2166 53.3272 51.2713C53.8784 51.3325 53.8697 50.6741 53.8653 50.5078C53.8609 50.3809 53.8347 50.2103 53.7209 50.0769C53.6334 49.9763 53.3841 49.8406 53.1106 49.9784C52.8525 50.1097 52.8175 50.4881 52.8109 50.5975Z" fill="#2196F3"/>
<path d="M46.2484 46.3516C46.2397 46.4916 46.2813 46.9225 46.7647 46.9706C47.3159 47.0275 47.3072 46.4216 47.3028 46.2684C47.2984 46.1525 47.2722 45.995 47.1584 45.8725C47.0709 45.7784 46.8216 45.6559 46.5481 45.7828C46.29 45.9031 46.255 46.2531 46.2484 46.3516Z" fill="#8BC34A"/>
<path d="M46.6881 50.5713C46.6794 50.7244 46.7209 51.1903 47.2044 51.245C47.7447 51.3063 47.7731 50.7441 47.7425 50.4816C47.7272 50.3569 47.6003 49.8844 47.1453 49.9391C46.6903 49.9938 46.6947 50.4619 46.6881 50.5713Z" fill="#2196F3"/>
<path d="M44.5006 46.2597C44.4569 46.4741 44.4831 47.0384 45.0081 47.045C45.5922 47.0516 45.5047 46.4237 45.4828 46.2706C45.4172 45.8047 45.1044 45.6712 44.8288 45.7609C44.5531 45.8462 44.5203 46.1591 44.5006 46.2597Z" fill="#8BC34A"/>
<path d="M44.5028 42.0181C44.4591 42.2325 44.4853 42.7969 45.0103 42.8034C45.5944 42.81 45.5069 42.1822 45.485 42.0291C45.4194 41.5631 45.1066 41.4297 44.8309 41.5194C44.5553 41.6047 44.5225 41.9175 44.5028 42.0181ZM46.2812 42.0181C46.2375 42.2325 46.2637 42.7969 46.7887 42.8034C47.3728 42.81 47.2787 42.1822 47.2634 42.0291C47.2284 41.6528 47.06 41.4975 46.7734 41.4931C46.3447 41.4866 46.3031 41.9175 46.2812 42.0181Z" fill="#FFEB3B"/>
<path d="M42.7025 46.4041C42.6937 46.5572 42.7309 47.0734 43.2187 47.0756C43.7612 47.08 43.7612 46.4806 43.7569 46.3144C43.7525 46.1897 43.7262 46.0191 43.6125 45.8856C43.525 45.785 43.2756 45.6494 43.0022 45.7894C42.7441 45.9184 42.7091 46.2969 42.7025 46.4041ZM40.9022 46.3712C40.8934 46.5244 40.935 46.9903 41.4184 47.045C41.9587 47.1062 41.9872 46.5441 41.9566 46.2816C41.9412 46.1569 41.8144 45.6844 41.3594 45.7391C40.9022 45.7937 40.9087 46.2619 40.9022 46.3712Z" fill="#8BC34A"/>
<path d="M45.9137 33.4869C45.905 33.6269 45.9466 34.0578 46.43 34.1059C46.9812 34.1628 46.9725 33.5569 46.9681 33.4037C46.9637 33.2878 46.9375 33.1303 46.8237 33.0078C46.7362 32.9137 46.4869 32.7912 46.2134 32.9181C45.9553 33.0384 45.9203 33.3862 45.9137 33.4869ZM49.8075 33.4869C49.7987 33.6269 49.8403 34.0578 50.3237 34.1059C50.875 34.1628 50.8663 33.5569 50.8619 33.4037C50.8575 33.2878 50.8312 33.1303 50.7175 33.0078C50.63 32.9137 50.3806 32.7912 50.1072 32.9181C49.8491 33.0384 49.8141 33.3862 49.8075 33.4869ZM52.7322 33.4869C52.7409 33.6269 52.6994 34.0578 52.1962 34.1059C51.6231 34.1628 51.6319 33.5569 51.6363 33.4037C51.6406 33.2878 51.6691 33.1303 51.7872 33.0078C51.8769 32.9137 52.1372 32.7912 52.4216 32.9181C52.6884 33.0384 52.7256 33.3862 52.7322 33.4869ZM44.2359 33.3906C44.1922 33.605 44.2184 34.1694 44.7434 34.1759C45.3275 34.1825 45.24 33.5547 45.2181 33.4016C45.1525 32.9356 44.8397 32.8022 44.5641 32.8919C44.2884 32.9794 44.2556 33.2922 44.2359 33.3906ZM42.5669 33.5372C42.5581 33.6903 42.5953 34.2066 43.0831 34.2087C43.6256 34.2131 43.6256 33.6137 43.6212 33.4475C43.6169 33.3228 43.5906 33.1522 43.4769 33.0187C43.3894 32.9181 43.14 32.7825 42.8666 32.9225C42.6084 33.0516 42.5734 33.43 42.5669 33.5372ZM56.3109 33.3403C56.2409 33.5481 56.1972 34.1125 56.7178 34.1737C57.2975 34.2416 57.2866 33.6094 57.2844 33.4541C57.2756 32.9837 56.9803 32.8197 56.6981 32.8787C56.4159 32.9356 56.3437 33.2419 56.3109 33.3403ZM54.4494 33.5372C54.4406 33.6903 54.4778 34.2066 54.9656 34.2087C55.5081 34.2131 55.5081 33.6137 55.5038 33.4475C55.4994 33.3228 55.4731 33.1522 55.3594 33.0187C55.2719 32.9181 55.0225 32.7825 54.7491 32.9225C54.4931 33.0516 54.4559 33.43 54.4494 33.5372ZM58.0894 33.5722C58.0916 33.7253 58.1681 34.2372 58.6537 34.2109C59.1941 34.1803 59.1503 33.5809 59.1328 33.4191C59.1197 33.2944 59.0803 33.1259 58.9556 33.0012C58.8616 32.905 58.6034 32.7869 58.3388 32.9422C58.0959 33.0844 58.0894 33.4628 58.0894 33.5722ZM47.6528 33.5984C47.6637 33.7516 47.7709 34.2591 48.2544 34.2066C48.7925 34.1497 48.7137 33.5525 48.6875 33.3906C48.6678 33.2659 48.6175 33.0997 48.4862 32.9816C48.3878 32.8919 48.1209 32.7869 47.8672 32.9553C47.6287 33.1106 47.6441 33.4891 47.6528 33.5984ZM40.9022 33.5022C40.8934 33.6553 40.935 34.1212 41.4184 34.1759C41.9587 34.2372 41.9872 33.675 41.9566 33.4125C41.9412 33.2878 41.8144 32.8153 41.3594 32.87C40.9022 32.9247 40.9087 33.3928 40.9022 33.5022Z" fill="#F44336"/>
<path d="M42.6522 42.1319C42.6434 42.285 42.6806 42.8012 43.1684 42.8034C43.7109 42.8078 43.7109 42.2084 43.7066 42.0422C43.7022 41.9175 43.6759 41.7469 43.5622 41.6134C43.4747 41.5128 43.2253 41.3772 42.9519 41.5172C42.6959 41.6462 42.6587 42.0225 42.6522 42.1319ZM53.4081 42.0181C53.3644 42.2325 53.3906 42.7969 53.9156 42.8034C54.4997 42.81 54.4122 42.1822 54.3903 42.0291C54.3247 41.5631 54.0119 41.4297 53.7362 41.5194C53.4606 41.6047 53.4278 41.9175 53.4081 42.0181ZM51.5575 42.1319C51.5487 42.285 51.5859 42.8012 52.0737 42.8034C52.6162 42.8078 52.6162 42.2084 52.6119 42.0422C52.6075 41.9175 52.5812 41.7469 52.4675 41.6134C52.38 41.5128 52.1306 41.3772 51.8572 41.5172C51.6012 41.6462 51.5641 42.0225 51.5575 42.1319ZM55.1472 42.1319C55.1384 42.285 55.1756 42.8012 55.6634 42.8034C56.2059 42.8078 56.2059 42.2084 56.2016 42.0422C56.1972 41.9175 56.1709 41.7469 56.0572 41.6134C55.9697 41.5128 55.7203 41.3772 55.4469 41.5172C55.1887 41.6462 55.1537 42.0225 55.1472 42.1319ZM48.0291 42.1734C48.0356 42.3266 48.1209 42.7991 48.6066 42.8012C49.1097 42.8034 49.09 42.1625 49.0703 42.0006C49.055 41.8759 49.0112 41.7075 48.8844 41.585C48.7881 41.4909 48.5278 41.3772 48.2675 41.5391C48.0247 41.6878 48.0269 42.0662 48.0291 42.1734ZM40.9153 42.1253C40.9066 42.2784 40.9481 42.7444 41.4316 42.7991C41.9719 42.8603 42.0003 42.2981 41.9697 42.0356C41.9544 41.9109 41.8275 41.4384 41.3725 41.4931C40.9175 41.5478 40.9219 42.0159 40.9153 42.1253ZM49.8031 42.1253C49.7944 42.2784 49.8316 42.7969 50.3194 42.7991C50.875 42.8012 50.8881 42.2981 50.8575 42.0356C50.8422 41.9109 50.7153 41.4384 50.2603 41.4931C49.8031 41.5478 49.8097 42.0159 49.8031 42.1253ZM57.8116 42.1253C57.8028 42.2784 57.84 42.7969 58.3278 42.7991C58.8834 42.8012 58.8966 42.2981 58.8659 42.0356C58.8506 41.9109 58.7237 41.4384 58.2687 41.4931C57.8094 41.5478 57.8181 42.0159 57.8116 42.1253Z" fill="#FFEB3B"/>
<path d="M49.545 37.6672C49.5013 37.8816 49.5275 38.4459 50.0525 38.4525C50.6366 38.4591 50.5491 37.8313 50.5272 37.6781C50.4616 37.2122 50.1488 37.0788 49.8731 37.1684C49.5975 37.2538 49.5647 37.5666 49.545 37.6672ZM52.9225 37.8138C52.9138 37.9669 52.9509 38.4831 53.4388 38.4853C53.9813 38.4897 53.9813 37.8903 53.9769 37.7241C53.9725 37.5994 53.9463 37.4288 53.8325 37.2953C53.745 37.1947 53.4956 37.0591 53.2222 37.1991C52.9641 37.3281 52.9291 37.7044 52.9225 37.8138ZM56.3263 37.8138C56.3175 37.9669 56.3547 38.4831 56.8425 38.4853C57.385 38.4897 57.385 37.8903 57.3806 37.7241C57.3763 37.5994 57.35 37.4288 57.2363 37.2953C57.1488 37.1947 56.8994 37.0591 56.6259 37.1991C56.3678 37.3281 56.3328 37.7044 56.3263 37.8138ZM54.6178 37.8138C54.6091 37.9669 54.6463 38.4831 55.1341 38.4853C55.6766 38.4897 55.6766 37.8903 55.6722 37.7241C55.6678 37.5994 55.6416 37.4288 55.5278 37.2953C55.4403 37.1947 55.1909 37.0591 54.9175 37.1991C54.6616 37.3281 54.6244 37.7044 54.6178 37.8138ZM47.8016 37.7766C47.7928 37.9297 47.83 38.4481 48.3178 38.4503C48.8734 38.4525 48.8866 37.9494 48.8559 37.6869C48.8406 37.5622 48.7138 37.0897 48.2588 37.1444C47.8038 37.1991 47.8081 37.6672 47.8016 37.7766ZM44.89 37.7941C44.8813 37.9472 44.9184 38.4656 45.4063 38.4678C45.9619 38.47 45.975 37.9669 45.9444 37.7044C45.9291 37.5797 45.8022 37.1072 45.3472 37.1619C44.89 37.2166 44.8966 37.6847 44.89 37.7941ZM51.2119 37.7766C51.2031 37.9297 51.2403 38.4481 51.7281 38.4503C52.2838 38.4525 52.2969 37.9494 52.2663 37.6869C52.2509 37.5622 52.1241 37.0897 51.6691 37.1444C51.2141 37.1991 51.2184 37.6672 51.2119 37.7766ZM58.0347 37.7766C58.0259 37.9297 58.0631 38.4481 58.5509 38.4503C59.1066 38.4525 59.1197 37.9494 59.0891 37.6869C59.0738 37.5622 58.9469 37.0897 58.4919 37.1444C58.0369 37.1991 58.0391 37.6672 58.0347 37.7766ZM40.9066 37.8138C40.8978 37.9669 40.935 38.4831 41.4228 38.4853C41.9653 38.4897 41.9653 37.8903 41.9609 37.7241C41.9566 37.5994 41.9303 37.4288 41.8166 37.2953C41.7291 37.1947 41.4797 37.0591 41.2063 37.1991C40.9481 37.3281 40.9131 37.7044 40.9066 37.8138ZM42.6763 37.7022C42.6413 37.8531 42.5953 38.3716 43.0766 38.4394C43.6256 38.5181 43.7219 38.0238 43.7328 37.7591C43.7372 37.6322 43.6913 37.1488 43.2297 37.14C42.7681 37.1313 42.7003 37.595 42.6763 37.7022Z" fill="#FF9800"/>
<path d="M50.875 46.3516C50.8662 46.4916 50.9078 46.9225 51.3912 46.9706C51.9425 47.0275 51.9337 46.4216 51.9294 46.2684C51.925 46.1525 51.8987 45.995 51.785 45.8725C51.6975 45.7784 51.4481 45.6559 51.1747 45.7828C50.9166 45.9031 50.8816 46.2531 50.875 46.3516ZM54.3444 46.3516C54.3356 46.4916 54.3772 46.9225 54.8606 46.9706C55.4119 47.0275 55.4031 46.4216 55.3987 46.2684C55.3944 46.1525 55.3681 45.995 55.2544 45.8725C55.1669 45.7784 54.9175 45.6559 54.6441 45.7828C54.3881 45.9031 54.3509 46.2531 54.3444 46.3516ZM52.6447 46.2247C52.6009 46.4391 52.6272 47.0034 53.1522 47.01C53.7362 47.0166 53.6487 46.3888 53.6269 46.2356C53.5612 45.7697 53.2484 45.6363 52.9728 45.7259C52.6972 45.8156 52.6644 46.1241 52.6447 46.2247ZM56.0812 46.4041C56.0725 46.5572 56.1097 47.0734 56.5975 47.0756C57.14 47.08 57.14 46.4806 57.1356 46.3144C57.1312 46.1897 57.105 46.0191 56.9912 45.8856C56.9037 45.785 56.6544 45.6494 56.3809 45.7894C56.1228 45.9184 56.0878 46.2969 56.0812 46.4041ZM49.16 46.3713C49.1512 46.5244 49.1928 46.9903 49.6762 47.045C50.2166 47.1063 50.245 46.5441 50.2144 46.2816C50.1991 46.1569 50.0722 45.6844 49.6172 45.7391C49.1578 45.7938 49.1666 46.2619 49.16 46.3713ZM57.8116 46.3713C57.8028 46.5244 57.8444 46.9903 58.3278 47.045C58.8681 47.1063 58.8966 46.5441 58.8659 46.2816C58.8506 46.1569 58.7237 45.6844 58.2687 45.7391C57.8116 45.7938 57.8181 46.2619 57.8116 46.3713Z" fill="#8BC34A"/>
<path d="M56.1425 50.5713C56.1338 50.7244 56.1425 51.3872 56.6741 51.3325C57.2144 51.2778 57.2275 50.7441 57.1969 50.4816C57.1816 50.3569 57.0547 49.8844 56.5997 49.9391C56.1447 49.9938 56.1491 50.4619 56.1425 50.5713ZM57.8116 50.5756C57.8028 50.7287 57.8444 51.1947 58.3278 51.2494C58.8681 51.3106 58.8966 50.7484 58.8659 50.4859C58.8506 50.3613 58.7238 49.8887 58.2688 49.9434C57.8116 50.0003 57.8181 50.4684 57.8116 50.5756Z" fill="#2196F3"/>
</svg>
