<svg width="118" height="136" viewBox="0 0 118 136" fill="none" xmlns="http://www.w3.org/2000/svg">
<mask id="path-1-inside-1_576_10456" fill="white">
<path fill-rule="evenodd" clip-rule="evenodd" d="M69 18C68.4477 18 68.0029 17.5515 67.9727 17C67.4538 7.52403 59.6056 0 50 0C40.3944 0 32.5462 7.52403 32.0273 17C31.9971 17.5515 31.5523 18 31 18L4 18C1.79086 18 0 19.7909 0 22L0 49C0 49.5523 0.448497 49.9971 0.999955 50.0273C10.476 50.5462 18 58.3944 18 68C18 77.6056 10.476 85.4538 0.999957 85.9727C0.448498 86.0029 0 86.4477 0 87L0 114C0 116.209 1.79086 118 4 118L31 118C31.5523 118 31.9971 118.448 32.0273 119C32.5462 128.476 40.3944 136 50 136C59.6056 136 67.4538 128.476 67.9727 119C68.0029 118.449 68.4477 118 69 118L96 118C98.2091 118 100 116.209 100 114V87C100 86.4477 100.448 86.0029 101 85.9727C110.476 85.4538 118 77.6056 118 68C118 58.3944 110.476 50.5462 101 50.0273C100.449 49.9971 100 49.5523 100 49V22C100 19.7909 98.2091 18 96 18L69 18Z"/>
</mask>
<path fill-rule="evenodd" clip-rule="evenodd" d="M69 18C68.4477 18 68.0029 17.5515 67.9727 17C67.4538 7.52403 59.6056 0 50 0C40.3944 0 32.5462 7.52403 32.0273 17C31.9971 17.5515 31.5523 18 31 18L4 18C1.79086 18 0 19.7909 0 22L0 49C0 49.5523 0.448497 49.9971 0.999955 50.0273C10.476 50.5462 18 58.3944 18 68C18 77.6056 10.476 85.4538 0.999957 85.9727C0.448498 86.0029 0 86.4477 0 87L0 114C0 116.209 1.79086 118 4 118L31 118C31.5523 118 31.9971 118.448 32.0273 119C32.5462 128.476 40.3944 136 50 136C59.6056 136 67.4538 128.476 67.9727 119C68.0029 118.449 68.4477 118 69 118L96 118C98.2091 118 100 116.209 100 114V87C100 86.4477 100.448 86.0029 101 85.9727C110.476 85.4538 118 77.6056 118 68C118 58.3944 110.476 50.5462 101 50.0273C100.449 49.9971 100 49.5523 100 49V22C100 19.7909 98.2091 18 96 18L69 18Z" fill="#374151" fill-opacity="0.4"/>
<path d="M96 118V117V118ZM101 50.0273L101.055 49.0288L101 50.0273ZM101 85.9727L100.945 84.9742L101 85.9727ZM32.0273 119L31.0288 119.055L32.0273 119ZM0.999957 85.9727L0.945284 84.9742L0.999957 85.9727ZM32.0273 17L31.0288 16.9454L32.0273 17ZM67.9727 119L68.9712 119.055L67.9727 119ZM69 118V119V118ZM67.9727 17L66.9742 17.0547L67.9727 17ZM50 1C59.0716 1 66.4842 8.10602 66.9742 17.0547L68.9712 16.9454C68.4235 6.94204 60.1396 -1 50 -1V1ZM33.0258 17.0547C33.5158 8.10603 40.9284 1 50 1V-1C39.8604 -1 31.5765 6.94204 31.0288 16.9454L33.0258 17.0547ZM31 17L4 17V19L31 19V17ZM4 17C1.23858 17 -1 19.2386 -1 22H1C1 20.3431 2.34315 19 4 19V17ZM-1 22L-1 49H1L1 22H-1ZM0.945282 51.0258C9.89397 51.5158 17 58.9284 17 68H19C19 57.8604 11.058 49.5765 1.05463 49.0288L0.945282 51.0258ZM17 68C17 77.0716 9.89398 84.4842 0.945284 84.9742L1.05463 86.9712C11.058 86.4235 19 78.1395 19 68H17ZM-1 87L-1 114H1L1 87H-1ZM-1 114C-1 116.761 1.23858 119 4 119V117C2.34315 117 1 115.657 1 114H-1ZM4 119L31 119V117L4 117V119ZM31.0288 119.055C31.5765 129.058 39.8604 137 50 137V135C40.9284 135 33.5158 127.894 33.0258 118.945L31.0288 119.055ZM50 137C60.1396 137 68.4235 129.058 68.9712 119.055L66.9742 118.945C66.4842 127.894 59.0716 135 50 135V137ZM69 119L96 119V117L69 117V119ZM96 119C98.7614 119 101 116.761 101 114H99C99 115.657 97.6569 117 96 117V119ZM101 114V87H99V114H101ZM101.055 86.9712C111.058 86.4235 119 78.1395 119 68H117C117 77.0716 109.894 84.4842 100.945 84.9742L101.055 86.9712ZM119 68C119 57.8604 111.058 49.5765 101.055 49.0288L100.945 51.0258C109.894 51.5158 117 58.9284 117 68H119ZM101 49V22H99V49H101ZM101 22C101 19.2386 98.7614 17 96 17V19C97.6569 19 99 20.3431 99 22H101ZM96 17L69 17V19L96 19V17ZM101.055 49.0288C101.033 49.0276 101.016 49.0187 101.006 49.0081C101.001 49.0033 101 49.0001 101 48.9999C101 48.9998 101 49.0001 101 49.0006C101 49.0012 101 49.0012 101 49H99C99 50.1183 99.8992 50.9685 100.945 51.0258L101.055 49.0288ZM101 87C101 86.9988 101 86.9988 101 86.9994C101 86.9999 101 87.0002 101 87.0001C101 86.9999 101.001 86.9967 101.006 86.9919C101.016 86.9813 101.033 86.9724 101.055 86.9712L100.945 84.9742C99.8992 85.0315 99 85.8817 99 87H101ZM31 119C31.0012 119 31.0012 119 31.0007 119C31.0001 119 30.9998 119 30.9999 119C31.0001 119 31.0033 119.001 31.0081 119.006C31.0187 119.016 31.0276 119.033 31.0288 119.055L33.0258 118.945C32.9685 117.899 32.1183 117 31 117V119ZM-1 49C-1 50.1183 -0.100789 50.9685 0.945282 51.0258L1.05463 49.0288C1.03335 49.0276 1.0164 49.0187 1.006 49.0081C1.00127 49.0033 0.999846 49.0001 0.999766 48.9999C0.999738 48.9998 0.999868 49.0001 0.999977 49.0006C1.0001 49.0012 1 49.0012 1 49H-1ZM0.945284 84.9742C-0.100786 85.0315 -1 85.8817 -1 87H1C1 86.9988 1.0001 86.9988 0.999977 86.9994C0.999868 86.9999 0.999738 87.0002 0.999766 87.0001C0.999846 86.9999 1.00127 86.9967 1.006 86.9919C1.0164 86.9813 1.03335 86.9724 1.05463 86.9712L0.945284 84.9742ZM31.0288 16.9454C31.0276 16.9667 31.0187 16.9836 31.0081 16.994C31.0033 16.9987 31.0001 17.0002 30.9999 17.0002C30.9998 17.0003 31.0001 17.0001 31.0007 17C31.0012 16.9999 31.0012 17 31 17V19C32.1183 19 32.9685 18.1008 33.0258 17.0547L31.0288 16.9454ZM68.9712 119.055C68.9724 119.033 68.9813 119.016 68.9919 119.006C68.9967 119.001 68.9999 119 69.0001 119C69.0002 119 68.9999 119 68.9994 119C68.9988 119 68.9988 119 69 119V117C67.8817 117 67.0315 117.899 66.9742 118.945L68.9712 119.055ZM66.9742 17.0547C67.0315 18.1008 67.8817 19 69 19V17C68.9988 17 68.9988 16.9999 68.9994 17C68.9999 17.0001 69.0002 17.0003 69.0001 17.0002C68.9999 17.0002 68.9967 16.9987 68.9919 16.994C68.9813 16.9836 68.9724 16.9667 68.9712 16.9454L66.9742 17.0547Z" fill="#374151" mask="url(#path-1-inside-1_576_10456)"/>
<path d="M35.215 90.144C34.735 90.144 34.2497 90.0853 33.759 89.968C33.279 89.8507 32.831 89.648 32.415 89.36C32.3083 89.2853 32.2337 89.2 32.191 89.104C32.1483 88.9973 32.1323 88.896 32.143 88.8C32.1643 88.6933 32.207 88.6027 32.271 88.528C32.3457 88.4533 32.431 88.4107 32.527 88.4C32.6337 88.3787 32.751 88.4 32.879 88.464C33.295 88.72 33.695 88.9013 34.079 89.008C34.4737 89.104 34.863 89.152 35.247 89.152C35.855 89.152 36.3137 89.04 36.623 88.816C36.9323 88.592 37.087 88.288 37.087 87.904C37.087 87.6053 36.9857 87.3707 36.783 87.2C36.5803 87.0187 36.2603 86.88 35.823 86.784L34.367 86.464C33.695 86.3253 33.1937 86.0853 32.863 85.744C32.543 85.4027 32.383 84.96 32.383 84.416C32.383 83.936 32.5057 83.5253 32.751 83.184C33.007 82.832 33.3643 82.56 33.823 82.368C34.2817 82.176 34.815 82.08 35.423 82.08C35.8923 82.08 36.335 82.144 36.751 82.272C37.1777 82.3893 37.5617 82.5813 37.903 82.848C38.0097 82.9227 38.079 83.0133 38.111 83.12C38.1537 83.216 38.159 83.3173 38.127 83.424C38.1057 83.52 38.0577 83.6053 37.983 83.68C37.9083 83.744 37.8177 83.7813 37.711 83.792C37.6043 83.8027 37.4923 83.7707 37.375 83.696C37.055 83.4827 36.7297 83.328 36.399 83.232C36.0683 83.1253 35.743 83.072 35.423 83.072C34.8257 83.072 34.3723 83.1893 34.063 83.424C33.7537 83.6587 33.599 83.968 33.599 84.352C33.599 84.6507 33.695 84.896 33.887 85.088C34.079 85.28 34.3777 85.4187 34.783 85.504L36.239 85.808C36.9323 85.9573 37.4497 86.1973 37.791 86.528C38.143 86.848 38.319 87.2853 38.319 87.84C38.319 88.544 38.0363 89.104 37.471 89.52C36.9057 89.936 36.1537 90.144 35.215 90.144ZM43.5901 90.144C42.8115 90.144 42.1395 89.9733 41.5741 89.632C41.0088 89.2907 40.5715 88.816 40.2621 88.208C39.9635 87.5893 39.8141 86.8747 39.8141 86.064C39.8141 85.4453 39.8995 84.8907 40.0701 84.4C40.2408 83.9093 40.4915 83.4933 40.8221 83.152C41.1528 82.8 41.5475 82.5333 42.0061 82.352C42.4755 82.1707 43.0035 82.08 43.5901 82.08C43.9741 82.08 44.3741 82.1387 44.7901 82.256C45.2061 82.3733 45.5848 82.576 45.9261 82.864C46.0328 82.9387 46.1021 83.0293 46.1341 83.136C46.1661 83.2427 46.1661 83.3493 46.1341 83.456C46.1021 83.552 46.0488 83.6373 45.9741 83.712C45.8995 83.776 45.8035 83.8133 45.6861 83.824C45.5795 83.8347 45.4675 83.7973 45.3501 83.712C45.0728 83.4987 44.7901 83.3493 44.5021 83.264C44.2141 83.1787 43.9368 83.136 43.6701 83.136C43.2541 83.136 42.8915 83.2053 42.5821 83.344C42.2728 83.472 42.0115 83.6587 41.7981 83.904C41.5848 84.1493 41.4195 84.4533 41.3021 84.816C41.1955 85.1787 41.1421 85.6 41.1421 86.08C41.1421 87.008 41.3608 87.744 41.7981 88.288C42.2355 88.8213 42.8595 89.088 43.6701 89.088C43.9368 89.088 44.2088 89.0453 44.4861 88.96C44.7741 88.8747 45.0621 88.7253 45.3501 88.512C45.4675 88.4267 45.5795 88.3893 45.6861 88.4C45.7928 88.4107 45.8835 88.4533 45.9581 88.528C46.0328 88.592 46.0808 88.6773 46.1021 88.784C46.1341 88.8907 46.1341 88.9973 46.1021 89.104C46.0701 89.2 46.0008 89.2853 45.8941 89.36C45.5528 89.6373 45.1795 89.84 44.7741 89.968C44.3688 90.0853 43.9741 90.144 43.5901 90.144ZM50.4524 90.144C49.823 90.144 49.3004 90.032 48.8844 89.808C48.479 89.5733 48.1697 89.2267 47.9564 88.768C47.7537 88.3093 47.6524 87.7387 47.6524 87.056V82.768C47.6524 82.544 47.7057 82.3787 47.8124 82.272C47.9297 82.1653 48.0897 82.112 48.2924 82.112C48.5057 82.112 48.6657 82.1653 48.7724 82.272C48.8897 82.3787 48.9484 82.544 48.9484 82.768V87.04C48.9484 87.7227 49.087 88.2347 49.3644 88.576C49.6524 88.9067 50.1004 89.072 50.7084 89.072C51.3697 89.072 51.9084 88.848 52.3244 88.4C52.7404 87.952 52.9484 87.3653 52.9484 86.64V82.768C52.9484 82.544 53.0017 82.3787 53.1084 82.272C53.2257 82.1653 53.391 82.112 53.6044 82.112C53.807 82.112 53.9617 82.1653 54.0684 82.272C54.1857 82.3787 54.2444 82.544 54.2444 82.768V89.44C54.2444 89.888 54.0364 90.112 53.6204 90.112C53.4177 90.112 53.2577 90.0533 53.1404 89.936C53.0337 89.8187 52.9804 89.6533 52.9804 89.44V87.984L53.1884 88.208C52.975 88.8373 52.623 89.3173 52.1324 89.648C51.6524 89.9787 51.0924 90.144 50.4524 90.144ZM59.0371 90.144C58.2691 90.144 57.6825 89.9093 57.2771 89.44C56.8718 88.9707 56.6691 88.2987 56.6691 87.424V79.264C56.6691 79.0507 56.7225 78.8907 56.8291 78.784C56.9358 78.6667 57.0958 78.608 57.3091 78.608C57.5118 78.608 57.6718 78.6667 57.7891 78.784C57.9065 78.8907 57.9651 79.0507 57.9651 79.264V87.328C57.9651 87.904 58.0771 88.336 58.3011 88.624C58.5358 88.9013 58.8771 89.04 59.3251 89.04C59.4211 89.04 59.5065 89.0347 59.5811 89.024C59.6558 89.0133 59.7305 89.008 59.8051 89.008C59.9225 88.9973 60.0025 89.024 60.0451 89.088C60.0985 89.152 60.1251 89.28 60.1251 89.472C60.1251 89.664 60.0825 89.808 59.9971 89.904C59.9118 90 59.7731 90.064 59.5811 90.096C59.4958 90.1067 59.4051 90.1173 59.3091 90.128C59.2131 90.1387 59.1225 90.144 59.0371 90.144ZM64.8294 90.144C64.008 90.144 63.2987 89.984 62.7014 89.664C62.1147 89.3333 61.656 88.8693 61.3254 88.272C61.0054 87.6747 60.8454 86.96 60.8454 86.128C60.8454 85.3173 61.0054 84.6133 61.3254 84.016C61.6454 83.408 62.0827 82.9333 62.6374 82.592C63.2027 82.2507 63.8534 82.08 64.5894 82.08C65.112 82.08 65.5814 82.1707 65.9974 82.352C66.4134 82.5227 66.7654 82.7733 67.0534 83.104C67.352 83.4347 67.576 83.8347 67.7254 84.304C67.8854 84.7733 67.9654 85.3013 67.9654 85.888C67.9654 86.0587 67.9174 86.1867 67.8214 86.272C67.7254 86.3467 67.5867 86.384 67.4054 86.384H61.8374V85.536H67.1014L66.8454 85.744C66.8454 85.168 66.76 84.6827 66.5894 84.288C66.4187 83.8827 66.168 83.5733 65.8374 83.36C65.5174 83.1467 65.112 83.04 64.6214 83.04C64.0774 83.04 63.6134 83.168 63.2294 83.424C62.856 83.6693 62.5734 84.016 62.3814 84.464C62.1894 84.9013 62.0934 85.4133 62.0934 86V86.096C62.0934 87.0773 62.328 87.824 62.7974 88.336C63.2774 88.848 63.9547 89.104 64.8294 89.104C65.192 89.104 65.5494 89.056 65.9014 88.96C66.264 88.864 66.616 88.704 66.9574 88.48C67.1067 88.384 67.24 88.3413 67.3574 88.352C67.4854 88.352 67.5867 88.3893 67.6614 88.464C67.736 88.528 67.784 88.6133 67.8054 88.72C67.8374 88.816 67.8267 88.9227 67.7734 89.04C67.7307 89.1573 67.64 89.2587 67.5014 89.344C67.1494 89.6 66.7334 89.7973 66.2534 89.936C65.7734 90.0747 65.2987 90.144 64.8294 90.144Z" fill="#F9FAFB"/>
<path d="M42.3284 68.4431C42.3284 68.4431 41.6919 67.4106 42.3284 66.5597L57.361 66.1769C57.361 66.1769 58.5488 66.8572 57.7153 68.4431C57.2166 69.3881 54.2722 70.0575 50.0219 70.0575C45.7716 70.0575 42.7288 69.1628 42.3284 68.4431Z" fill="#E6A467"/>
<path d="M42.3065 66.5575C42.3065 66.2053 44.5181 64.3766 44.5181 64.3766C45.9094 63.6919 54.1978 63.8625 55.4819 64.3766C55.4819 64.3766 57.6934 66.1397 57.6934 66.5575C57.6934 67.2597 54.224 68.1456 49.9759 68.1456C45.7278 68.1456 42.3065 67.2619 42.3065 66.5575Z" fill="#F7CF92"/>
<path d="M44.5181 50.3941V64.0069C44.5181 64.2584 44.6647 64.4881 44.8966 64.5909C45.4981 64.86 46.9353 65.2844 50 65.2844C53.0647 65.2844 54.5019 64.86 55.1034 64.5909C55.216 64.5403 55.3116 64.4583 55.3788 64.3547C55.4459 64.2511 55.4817 64.1303 55.4819 64.0069V50.3941H44.5181Z" fill="url(#paint0_linear_576_10456)"/>
<path d="M44.5181 50.7856V50.3284L55.4819 50.7856C55.4819 51.5425 53.0275 52.1572 50 52.1572C46.9725 52.1572 44.5181 51.5425 44.5181 50.7856Z" fill="#0D47A1"/>
<path opacity="0.32" d="M44.4766 64.4116C44.0828 65.4528 44.3409 66.5291 44.9119 67.485C45.4828 68.4409 46.3294 69.1956 47.1781 69.9197C46.6203 69.9503 46.0756 69.7294 45.5988 69.4384C44.2075 68.5831 43.3281 67.1591 43.1794 65.5337" fill="url(#paint1_radial_576_10456)"/>
<path d="M52.1459 71.3437C50.4616 71.3437 48.9216 71.1228 47.5806 70.6809C45.2991 69.9306 43.7197 68.5787 43.1356 66.8747C42.1994 64.1447 44.2491 59.0937 45.3516 56.3812C45.6338 55.6878 45.8547 55.1409 45.9444 54.8412C45.9563 54.8009 45.9761 54.7633 46.0025 54.7305C46.029 54.6978 46.0616 54.6706 46.0986 54.6505C46.1356 54.6304 46.1761 54.6178 46.218 54.6133C46.2598 54.6089 46.3021 54.6128 46.3425 54.6247C46.3829 54.6366 46.4205 54.6564 46.4532 54.6828C46.4859 54.7093 46.5131 54.7419 46.5332 54.7789C46.5534 54.8159 46.566 54.8564 46.5704 54.8983C46.5748 54.9401 46.571 54.9824 46.5591 55.0228C46.4606 55.3531 46.2331 55.9131 45.9466 56.6219C44.8769 59.2578 42.8863 64.1622 43.7459 66.6669C44.6975 69.4406 49.0594 71.86 56.5844 70.3441C56.7572 70.3112 56.9781 70.3112 57.0525 70.4709C57.1356 70.6481 56.9759 70.8144 56.8009 70.8494C55.1625 71.1797 53.6006 71.3437 52.1459 71.3437Z" fill="#0091EA"/>
<path d="M44.5181 50.3941C44.5181 50.3941 43.245 49.7378 42.3131 48.7753L57.4965 48.9766C56.9103 49.845 55.4797 50.7506 55.4797 50.7506C55.4797 50.7506 54.4844 51.2428 49.9037 51.2428C45.3231 51.2428 44.5181 50.3941 44.5181 50.3941Z" fill="#C87D5E"/>
<path d="M42.3131 48.7753C41.6962 48.2656 42.0287 46.5834 42.4247 46.3669C43.6825 45.6778 55.3047 45.4634 57.4637 46.2684C58.2162 46.5506 58.1309 48.1628 57.7 48.7753C57.1422 49.565 54.2569 50.0484 50.0066 50.0484C45.7562 50.0484 43.2581 49.5563 42.3131 48.7753Z" fill="#E6A467"/>
<path d="M50 48.165C54.249 48.165 57.6934 47.4775 57.6934 46.6294C57.6934 45.7813 54.249 45.0938 50 45.0938C45.751 45.0938 42.3065 45.7813 42.3065 46.6294C42.3065 47.4775 45.751 48.165 50 48.165Z" fill="#F7CF92"/>
<path d="M50 46.8984C50.9834 46.8984 51.7806 46.6565 51.7806 46.3581C51.7806 46.0597 50.9834 45.8178 50 45.8178C49.0166 45.8178 48.2194 46.0597 48.2194 46.3581C48.2194 46.6565 49.0166 46.8984 50 46.8984Z" fill="#784D30"/>
<path d="M44.5925 52.2687V51.5228C45.5834 52.1572 46.7975 52.5881 49.3131 52.5991L49.2431 53.2947C46.9178 53.3822 45.4128 53.0147 44.5925 52.2687Z" fill="url(#paint2_linear_576_10456)"/>
<path d="M44.5925 54.1369L44.5816 53.3691C45.5309 53.9969 46.7756 54.4366 49.3153 54.4497L49.2584 55.1453C46.885 55.2591 45.3866 54.8216 44.5925 54.1369Z" fill="url(#paint3_linear_576_10456)"/>
<path d="M44.5903 56.005L44.5663 55.2153C45.4741 55.8388 46.7494 56.285 49.3131 56.2981L49.2694 56.9938C46.85 57.1359 45.3603 56.6306 44.5903 56.005Z" fill="url(#paint4_linear_576_10456)"/>
<path d="M44.5903 57.8753L44.5553 57.0638C45.4215 57.6806 46.7297 58.1356 49.3131 58.1488L49.2803 58.8444C46.815 59.0128 45.334 58.4375 44.5903 57.8753Z" fill="url(#paint5_linear_576_10456)"/>
<path d="M44.5903 59.7434L44.5444 58.9122C45.3691 59.5225 46.7078 59.9862 49.3153 60.0016L49.2956 60.6972C46.7822 60.8897 45.3078 60.2444 44.5903 59.7434Z" fill="url(#paint6_linear_576_10456)"/>
<path d="M44.5881 61.6116L44.5312 60.7584C45.3144 61.3644 46.6859 61.8347 49.3153 61.85L49.3088 62.5456C46.7472 62.7644 45.2794 62.0513 44.5881 61.6116Z" fill="url(#paint7_linear_576_10456)"/>
<path d="M44.5881 63.4797L44.5181 62.6047C45.2597 63.2041 46.6619 63.6831 49.3131 63.6984L49.3175 64.3941C46.7144 64.6413 45.2531 63.8581 44.5881 63.4797Z" fill="url(#paint8_linear_576_10456)"/>
<path d="M55.4819 52.19V51.5163C54.4909 52.1506 53.2506 52.5881 50.7328 52.5991L50.8028 53.2947C53.2506 53.3384 54.6222 53.0453 55.4819 52.19Z" fill="url(#paint9_linear_576_10456)"/>
<path d="M55.4775 54.0712L55.4819 53.3647C54.5063 53.9794 53.2725 54.4344 50.7328 54.4475L50.8028 55.1431C53.2134 55.2219 54.6463 54.8587 55.4775 54.0712Z" fill="url(#paint10_linear_576_10456)"/>
<path d="M55.4753 55.9525L55.4819 55.2153C54.5216 55.8103 53.2944 56.285 50.7328 56.2981L50.8006 56.9938C53.1763 57.1075 54.6703 56.6722 55.4753 55.9525Z" fill="url(#paint11_linear_576_10456)"/>
<path d="M55.4709 57.8338L55.4819 57.0638C54.5369 57.6391 53.3184 58.1334 50.7328 58.1466L50.8006 58.8422C53.1391 58.9909 54.6944 58.4856 55.4709 57.8338Z" fill="url(#paint12_linear_576_10456)"/>
<path d="M55.4666 59.7172L55.4819 58.9166C54.5522 59.4722 53.3403 59.9841 50.7328 59.9994L50.8006 60.695C53.1019 60.8766 54.7184 60.2991 55.4666 59.7172Z" fill="url(#paint13_linear_576_10456)"/>
<path d="M55.4622 61.5984L55.4819 60.765C54.5653 61.3009 53.3622 61.8325 50.7328 61.8478L50.8006 62.5434C53.0647 62.76 54.7447 62.1125 55.4622 61.5984Z" fill="url(#paint14_linear_576_10456)"/>
<path d="M55.46 63.4797L55.4819 62.6156C54.5806 63.1319 53.3841 63.6831 50.7328 63.6984L50.8006 64.3941C53.0275 64.6456 54.7688 63.9259 55.46 63.4797Z" fill="url(#paint15_linear_576_10456)"/>
<defs>
<linearGradient id="paint0_linear_576_10456" x1="52.947" y1="57.839" x2="55.514" y2="57.839" gradientUnits="userSpaceOnUse">
<stop offset="0.038" stop-color="#0091EA"/>
<stop offset="1" stop-color="#01579B"/>
</linearGradient>
<radialGradient id="paint1_radial_576_10456" cx="0" cy="0" r="1" gradientUnits="userSpaceOnUse" gradientTransform="translate(45.6428 66.892) rotate(-28.4281) scale(1.93107 4.08469)">
<stop offset="0.59" stop-color="#784D30" stop-opacity="0"/>
<stop offset="0.834" stop-color="#784D30"/>
</radialGradient>
<linearGradient id="paint2_linear_576_10456" x1="44.5927" y1="52.4149" x2="49.314" y2="52.4149" gradientUnits="userSpaceOnUse">
<stop offset="0.019" stop-color="#40C4FF" stop-opacity="0"/>
<stop offset="0.49" stop-color="#40C4FF"/>
<stop offset="0.994" stop-color="#40C4FF" stop-opacity="0"/>
</linearGradient>
<linearGradient id="paint3_linear_576_10456" x1="44.5803" y1="54.2664" x2="49.314" y2="54.2664" gradientUnits="userSpaceOnUse">
<stop offset="0.019" stop-color="#40C4FF" stop-opacity="0"/>
<stop offset="0.49" stop-color="#40C4FF"/>
<stop offset="0.994" stop-color="#40C4FF" stop-opacity="0"/>
</linearGradient>
<linearGradient id="paint4_linear_576_10456" x1="44.5678" y1="56.1177" x2="49.314" y2="56.1177" gradientUnits="userSpaceOnUse">
<stop offset="0.019" stop-color="#40C4FF" stop-opacity="0"/>
<stop offset="0.49" stop-color="#40C4FF"/>
<stop offset="0.994" stop-color="#40C4FF" stop-opacity="0"/>
</linearGradient>
<linearGradient id="paint5_linear_576_10456" x1="44.5553" y1="57.9692" x2="49.314" y2="57.9692" gradientUnits="userSpaceOnUse">
<stop offset="0.019" stop-color="#40C4FF" stop-opacity="0"/>
<stop offset="0.49" stop-color="#40C4FF"/>
<stop offset="0.994" stop-color="#40C4FF" stop-opacity="0"/>
</linearGradient>
<linearGradient id="paint6_linear_576_10456" x1="44.5428" y1="59.8207" x2="49.314" y2="59.8207" gradientUnits="userSpaceOnUse">
<stop offset="0.019" stop-color="#40C4FF" stop-opacity="0"/>
<stop offset="0.49" stop-color="#40C4FF"/>
<stop offset="0.994" stop-color="#40C4FF" stop-opacity="0"/>
</linearGradient>
<linearGradient id="paint7_linear_576_10456" x1="44.5306" y1="61.6722" x2="49.314" y2="61.6722" gradientUnits="userSpaceOnUse">
<stop offset="0.019" stop-color="#40C4FF" stop-opacity="0"/>
<stop offset="0.49" stop-color="#40C4FF"/>
<stop offset="0.994" stop-color="#40C4FF" stop-opacity="0"/>
</linearGradient>
<linearGradient id="paint8_linear_576_10456" x1="44.5181" y1="63.5237" x2="49.3193" y2="63.5237" gradientUnits="userSpaceOnUse">
<stop offset="0.019" stop-color="#40C4FF" stop-opacity="0"/>
<stop offset="0.49" stop-color="#40C4FF"/>
<stop offset="0.994" stop-color="#40C4FF" stop-opacity="0"/>
</linearGradient>
<linearGradient id="paint9_linear_576_10456" x1="50.9174" y1="52.4074" x2="55.5125" y2="52.4074" gradientUnits="userSpaceOnUse">
<stop stop-color="#01579B" stop-opacity="0"/>
<stop offset="1" stop-color="#01579B"/>
</linearGradient>
<linearGradient id="paint10_linear_576_10456" x1="50.959" y1="54.2605" x2="55.4919" y2="54.2605" gradientUnits="userSpaceOnUse">
<stop stop-color="#01579B" stop-opacity="0"/>
<stop offset="1" stop-color="#01579B"/>
</linearGradient>
<linearGradient id="paint11_linear_576_10456" x1="51.0003" y1="56.1142" x2="55.4712" y2="56.1142" gradientUnits="userSpaceOnUse">
<stop stop-color="#01579B" stop-opacity="0"/>
<stop offset="1" stop-color="#01579B"/>
</linearGradient>
<linearGradient id="paint12_linear_576_10456" x1="51.0417" y1="57.9681" x2="55.4506" y2="57.9681" gradientUnits="userSpaceOnUse">
<stop stop-color="#01579B" stop-opacity="0"/>
<stop offset="1" stop-color="#01579B"/>
</linearGradient>
<linearGradient id="paint13_linear_576_10456" x1="51.083" y1="59.8224" x2="55.43" y2="59.8224" gradientUnits="userSpaceOnUse">
<stop stop-color="#01579B" stop-opacity="0"/>
<stop offset="1" stop-color="#01579B"/>
</linearGradient>
<linearGradient id="paint14_linear_576_10456" x1="51.1246" y1="61.6767" x2="55.4093" y2="61.6767" gradientUnits="userSpaceOnUse">
<stop stop-color="#01579B" stop-opacity="0"/>
<stop offset="1" stop-color="#01579B"/>
</linearGradient>
<linearGradient id="paint15_linear_576_10456" x1="51.1659" y1="63.5311" x2="55.3887" y2="63.5311" gradientUnits="userSpaceOnUse">
<stop stop-color="#01579B" stop-opacity="0"/>
<stop offset="1" stop-color="#01579B"/>
</linearGradient>
</defs>
</svg>
