<svg width="101" height="118" viewBox="0 0 101 118" fill="none" xmlns="http://www.w3.org/2000/svg">
<mask id="path-1-inside-1_673_9390" fill="white">
<path fill-rule="evenodd" clip-rule="evenodd" d="M50.5 0C60.1056 0 67.9538 7.52403 68.4727 17C68.5029 17.5515 68.9477 18 69.5 18L96.5 18C98.7091 18 100.5 19.7909 100.5 22L100.5 49C100.5 49.5523 100.052 49.9971 99.5 50.0273C90.024 50.5462 82.5 58.3944 82.5 68C82.5 77.6056 90.024 85.4538 99.5 85.9727C100.052 86.0029 100.5 86.4477 100.5 87V114C100.5 116.209 98.7091 118 96.5 118L69.5 118C68.9477 118 68.5029 117.552 68.4727 117C67.9538 107.524 60.1056 100 50.5 100C40.8944 100 33.0462 107.524 32.5273 117C32.4971 117.552 32.0523 118 31.5 118H4.5C2.29086 118 0.5 116.209 0.5 114L0.5 87C0.5 86.4477 0.948498 86.0029 1.49996 85.9727C10.976 85.4538 18.5 77.6056 18.5 68C18.5 58.3944 10.976 50.5462 1.49996 50.0273C0.948497 49.9971 0.5 49.5523 0.5 49L0.5 22C0.5 19.7909 2.29086 18 4.5 18L31.5 18C32.0523 18 32.4971 17.5515 32.5273 17C33.0462 7.52403 40.8944 0 50.5 0Z"/>
</mask>
<path fill-rule="evenodd" clip-rule="evenodd" d="M50.5 0C60.1056 0 67.9538 7.52403 68.4727 17C68.5029 17.5515 68.9477 18 69.5 18L96.5 18C98.7091 18 100.5 19.7909 100.5 22L100.5 49C100.5 49.5523 100.052 49.9971 99.5 50.0273C90.024 50.5462 82.5 58.3944 82.5 68C82.5 77.6056 90.024 85.4538 99.5 85.9727C100.052 86.0029 100.5 86.4477 100.5 87V114C100.5 116.209 98.7091 118 96.5 118L69.5 118C68.9477 118 68.5029 117.552 68.4727 117C67.9538 107.524 60.1056 100 50.5 100C40.8944 100 33.0462 107.524 32.5273 117C32.4971 117.552 32.0523 118 31.5 118H4.5C2.29086 118 0.5 116.209 0.5 114L0.5 87C0.5 86.4477 0.948498 86.0029 1.49996 85.9727C10.976 85.4538 18.5 77.6056 18.5 68C18.5 58.3944 10.976 50.5462 1.49996 50.0273C0.948497 49.9971 0.5 49.5523 0.5 49L0.5 22C0.5 19.7909 2.29086 18 4.5 18L31.5 18C32.0523 18 32.4971 17.5515 32.5273 17C33.0462 7.52403 40.8944 0 50.5 0Z" fill="#374151" fill-opacity="0.4"/>
<path d="M32.5273 17L33.5258 17.0547L32.5273 17ZM1.49996 85.9727L1.44528 84.9742L1.49996 85.9727ZM32.5273 117L31.5288 116.945L32.5273 117ZM99.5 85.9727L99.5547 84.9742L99.5 85.9727ZM68.4727 117L69.4712 116.945L68.4727 117ZM99.5 50.0273L99.4454 49.0288L99.5 50.0273ZM69.4712 16.9454C68.9235 6.94204 60.6396 -1 50.5 -1V1C59.5716 1 66.9842 8.10603 67.4742 17.0547L69.4712 16.9454ZM96.5 17L69.5 17V19L96.5 19V17ZM101.5 22C101.5 19.2386 99.2614 17 96.5 17V19C98.1569 19 99.5 20.3431 99.5 22L101.5 22ZM101.5 49L101.5 22L99.5 22L99.5 49H101.5ZM83.5 68C83.5 58.9284 90.606 51.5158 99.5547 51.0258L99.4454 49.0288C89.442 49.5765 81.5 57.8604 81.5 68H83.5ZM99.5547 84.9742C90.606 84.4842 83.5 77.0716 83.5 68H81.5C81.5 78.1396 89.442 86.4235 99.4454 86.9712L99.5547 84.9742ZM101.5 114V87H99.5V114H101.5ZM96.5 119C99.2614 119 101.5 116.761 101.5 114H99.5C99.5 115.657 98.1569 117 96.5 117V119ZM69.5 119L96.5 119V117L69.5 117V119ZM50.5 101C59.5716 101 66.9842 108.106 67.4742 117.055L69.4712 116.945C68.9235 106.942 60.6396 99 50.5 99V101ZM33.5258 117.055C34.0158 108.106 41.4284 101 50.5 101V99C40.3604 99 32.0765 106.942 31.5288 116.945L33.5258 117.055ZM4.5 119H31.5V117H4.5V119ZM-0.5 114C-0.5 116.761 1.73858 119 4.5 119V117C2.84315 117 1.5 115.657 1.5 114H-0.5ZM-0.5 87L-0.5 114H1.5L1.5 87H-0.5ZM17.5 68C17.5 77.0716 10.394 84.4842 1.44528 84.9742L1.55463 86.9712C11.558 86.4235 19.5 78.1396 19.5 68H17.5ZM1.44528 51.0258C10.394 51.5158 17.5 58.9284 17.5 68H19.5C19.5 57.8604 11.558 49.5765 1.55463 49.0288L1.44528 51.0258ZM-0.5 22L-0.5 49H1.5L1.5 22H-0.5ZM4.5 17C1.73858 17 -0.5 19.2386 -0.5 22H1.5C1.5 20.3431 2.84315 19 4.5 19L4.5 17ZM31.5 17L4.5 17L4.5 19L31.5 19V17ZM50.5 -1C40.3604 -1 32.0765 6.94204 31.5288 16.9454L33.5258 17.0547C34.0158 8.10603 41.4284 1 50.5 1V-1ZM31.5 19C32.6183 19 33.4685 18.1008 33.5258 17.0547L31.5288 16.9454C31.5276 16.9666 31.5187 16.9836 31.5081 16.994C31.5033 16.9987 31.5001 17.0002 31.4999 17.0002C31.4998 17.0003 31.5001 17.0001 31.5006 17C31.5012 16.9999 31.5012 17 31.5 17V19ZM1.55463 49.0288C1.53335 49.0276 1.5164 49.0187 1.506 49.0081C1.50127 49.0033 1.49985 49.0001 1.49977 48.9999C1.49974 48.9998 1.49987 49.0001 1.49998 49.0007C1.5001 49.0012 1.5 49.0012 1.5 49H-0.5C-0.5 50.1183 0.399211 50.9685 1.44528 51.0258L1.55463 49.0288ZM1.5 87C1.5 86.9988 1.5001 86.9988 1.49998 86.9994C1.49987 86.9999 1.49974 87.0002 1.49977 87.0001C1.49985 86.9999 1.50127 86.9967 1.506 86.9919C1.5164 86.9813 1.53335 86.9724 1.55463 86.9712L1.44528 84.9742C0.399214 85.0315 -0.5 85.8817 -0.5 87H1.5ZM67.4742 17.0547C67.5315 18.1008 68.3817 19 69.5 19V17C69.4988 17 69.4988 16.9999 69.4993 17C69.4999 17.0001 69.5002 17.0003 69.5001 17.0002C69.4999 17.0002 69.4967 16.9987 69.4919 16.994C69.4813 16.9836 69.4724 16.9667 69.4712 16.9454L67.4742 17.0547ZM31.5288 116.945C31.5276 116.967 31.5187 116.984 31.5081 116.994C31.5033 116.999 31.5001 117 31.4999 117C31.4998 117 31.5001 117 31.5007 117C31.5012 117 31.5012 117 31.5 117V119C32.6183 119 33.4685 118.101 33.5258 117.055L31.5288 116.945ZM99.4454 86.9712C99.4667 86.9724 99.4836 86.9813 99.494 86.9919C99.4987 86.9967 99.5002 86.9999 99.5002 87.0001C99.5003 87.0002 99.5001 86.9999 99.5 86.9993C99.4999 86.9988 99.5 86.9988 99.5 87H101.5C101.5 85.8817 100.601 85.0315 99.5547 84.9742L99.4454 86.9712ZM69.5 117C69.4988 117 69.4988 117 69.4994 117C69.4999 117 69.5002 117 69.5001 117C69.4999 117 69.4967 116.999 69.4919 116.994C69.4813 116.984 69.4724 116.967 69.4712 116.945L67.4742 117.055C67.5315 118.101 68.3817 119 69.5 119V117ZM99.5 49C99.5 49.0012 99.4999 49.0012 99.5 49.0006C99.5001 49.0001 99.5003 48.9998 99.5002 48.9999C99.5002 49.0001 99.4987 49.0033 99.494 49.0081C99.4836 49.0187 99.4666 49.0276 99.4454 49.0288L99.5547 51.0258C100.601 50.9685 101.5 50.1183 101.5 49H99.5Z" fill="#374151" mask="url(#path-1-inside-1_673_9390)"/>
<path d="M17.8458 89.108C17.3898 89.108 17.0058 89.028 16.6938 88.868C16.3898 88.7 16.1618 88.46 16.0098 88.148C15.8578 87.828 15.7818 87.44 15.7818 86.984V83.924H14.9778C14.8418 83.924 14.7378 83.892 14.6658 83.828C14.5938 83.756 14.5577 83.66 14.5577 83.54C14.5577 83.42 14.5938 83.328 14.6658 83.264C14.7378 83.2 14.8418 83.168 14.9778 83.168H15.7818V81.788C15.7818 81.628 15.8258 81.508 15.9138 81.428C16.0018 81.34 16.1218 81.296 16.2738 81.296C16.4258 81.296 16.5418 81.34 16.6218 81.428C16.7098 81.508 16.7538 81.628 16.7538 81.788V83.168H18.2658C18.4018 83.168 18.5058 83.2 18.5778 83.264C18.6498 83.328 18.6858 83.42 18.6858 83.54C18.6858 83.66 18.6498 83.756 18.5778 83.828C18.5058 83.892 18.4018 83.924 18.2658 83.924H16.7538V86.888C16.7538 87.344 16.8498 87.692 17.0418 87.932C17.2338 88.164 17.5458 88.28 17.9778 88.28C18.1298 88.28 18.2578 88.264 18.3618 88.232C18.4738 88.2 18.5658 88.184 18.6378 88.184C18.7098 88.176 18.7698 88.2 18.8178 88.256C18.8658 88.312 18.8898 88.408 18.8898 88.544C18.8898 88.64 18.8698 88.728 18.8298 88.808C18.7978 88.888 18.7378 88.944 18.6498 88.976C18.5538 89.008 18.4258 89.036 18.2658 89.06C18.1138 89.092 17.9738 89.108 17.8458 89.108ZM20.2514 89.084C20.0914 89.084 19.9714 89.04 19.8914 88.952C19.8114 88.864 19.7714 88.74 19.7714 88.58V80.948C19.7714 80.788 19.8114 80.668 19.8914 80.588C19.9714 80.5 20.0914 80.456 20.2514 80.456C20.4034 80.456 20.5234 80.5 20.6114 80.588C20.6994 80.668 20.7434 80.788 20.7434 80.948V84.464H20.5874C20.7554 84 21.0274 83.652 21.4034 83.42C21.7874 83.18 22.2274 83.06 22.7234 83.06C23.1874 83.06 23.5714 83.144 23.8754 83.312C24.1874 83.48 24.4194 83.736 24.5714 84.08C24.7234 84.416 24.7994 84.844 24.7994 85.364V88.58C24.7994 88.74 24.7554 88.864 24.6674 88.952C24.5874 89.04 24.4714 89.084 24.3194 89.084C24.1594 89.084 24.0354 89.04 23.9474 88.952C23.8674 88.864 23.8274 88.74 23.8274 88.58V85.424C23.8274 84.88 23.7194 84.484 23.5034 84.236C23.2954 83.98 22.9594 83.852 22.4954 83.852C21.9594 83.852 21.5314 84.02 21.2114 84.356C20.8994 84.684 20.7434 85.124 20.7434 85.676V88.58C20.7434 88.916 20.5794 89.084 20.2514 89.084ZM29.2197 89.108C28.6037 89.108 28.0717 88.988 27.6237 88.748C27.1837 88.5 26.8397 88.152 26.5917 87.704C26.3517 87.256 26.2317 86.72 26.2317 86.096C26.2317 85.488 26.3517 84.96 26.5917 84.512C26.8317 84.056 27.1597 83.7 27.5757 83.444C27.9997 83.188 28.4877 83.06 29.0397 83.06C29.4317 83.06 29.7837 83.128 30.0957 83.264C30.4077 83.392 30.6717 83.58 30.8877 83.828C31.1117 84.076 31.2797 84.376 31.3917 84.728C31.5117 85.08 31.5717 85.476 31.5717 85.916C31.5717 86.044 31.5357 86.14 31.4637 86.204C31.3917 86.26 31.2877 86.288 31.1517 86.288H26.9757V85.652H30.9237L30.7317 85.808C30.7317 85.376 30.6677 85.012 30.5397 84.716C30.4117 84.412 30.2237 84.18 29.9757 84.02C29.7357 83.86 29.4317 83.78 29.0637 83.78C28.6557 83.78 28.3077 83.876 28.0197 84.068C27.7397 84.252 27.5277 84.512 27.3837 84.848C27.2397 85.176 27.1677 85.56 27.1677 86V86.072C27.1677 86.808 27.3437 87.368 27.6957 87.752C28.0557 88.136 28.5637 88.328 29.2197 88.328C29.4917 88.328 29.7597 88.292 30.0237 88.22C30.2957 88.148 30.5597 88.028 30.8157 87.86C30.9277 87.788 31.0277 87.756 31.1157 87.764C31.2117 87.764 31.2877 87.792 31.3437 87.848C31.3997 87.896 31.4357 87.96 31.4517 88.04C31.4757 88.112 31.4677 88.192 31.4277 88.28C31.3957 88.368 31.3277 88.444 31.2237 88.508C30.9597 88.7 30.6477 88.848 30.2877 88.952C29.9277 89.056 29.5717 89.108 29.2197 89.108ZM33.4824 89.084C33.3224 89.084 33.2024 89.04 33.1224 88.952C33.0424 88.864 33.0024 88.74 33.0024 88.58V83.576C33.0024 83.416 33.0424 83.296 33.1224 83.216C33.2024 83.128 33.3184 83.084 33.4704 83.084C33.6224 83.084 33.7384 83.128 33.8184 83.216C33.9064 83.296 33.9504 83.416 33.9504 83.576V84.632L33.8184 84.464C33.9704 84.016 34.2144 83.672 34.5504 83.432C34.8944 83.184 35.3024 83.06 35.7744 83.06C36.2704 83.06 36.6704 83.18 36.9744 83.42C37.2864 83.652 37.4944 84.016 37.5984 84.512H37.4184C37.5624 84.064 37.8184 83.712 38.1864 83.456C38.5624 83.192 38.9984 83.06 39.4944 83.06C39.9344 83.06 40.2944 83.144 40.5744 83.312C40.8624 83.48 41.0784 83.736 41.2224 84.08C41.3664 84.416 41.4384 84.844 41.4384 85.364V88.58C41.4384 88.74 41.3944 88.864 41.3064 88.952C41.2264 89.04 41.1064 89.084 40.9464 89.084C40.7944 89.084 40.6744 89.04 40.5864 88.952C40.5064 88.864 40.4664 88.74 40.4664 88.58V85.412C40.4664 84.876 40.3744 84.484 40.1904 84.236C40.0064 83.98 39.6944 83.852 39.2544 83.852C38.7744 83.852 38.3944 84.02 38.1144 84.356C37.8424 84.684 37.7064 85.132 37.7064 85.7V88.58C37.7064 88.74 37.6624 88.864 37.5744 88.952C37.4944 89.04 37.3744 89.084 37.2144 89.084C37.0624 89.084 36.9424 89.04 36.8544 88.952C36.7744 88.864 36.7344 88.74 36.7344 88.58V85.412C36.7344 84.876 36.6384 84.484 36.4464 84.236C36.2624 83.98 35.9544 83.852 35.5224 83.852C35.0424 83.852 34.6624 84.02 34.3824 84.356C34.1104 84.684 33.9744 85.132 33.9744 85.7V88.58C33.9744 88.916 33.8104 89.084 33.4824 89.084ZM45.8838 89.108C45.2678 89.108 44.7358 88.988 44.2878 88.748C43.8478 88.5 43.5038 88.152 43.2558 87.704C43.0158 87.256 42.8958 86.72 42.8958 86.096C42.8958 85.488 43.0158 84.96 43.2558 84.512C43.4958 84.056 43.8238 83.7 44.2398 83.444C44.6638 83.188 45.1518 83.06 45.7038 83.06C46.0958 83.06 46.4478 83.128 46.7598 83.264C47.0718 83.392 47.3358 83.58 47.5518 83.828C47.7758 84.076 47.9438 84.376 48.0558 84.728C48.1758 85.08 48.2358 85.476 48.2358 85.916C48.2358 86.044 48.1998 86.14 48.1278 86.204C48.0558 86.26 47.9518 86.288 47.8158 86.288H43.6398V85.652H47.5878L47.3958 85.808C47.3958 85.376 47.3318 85.012 47.2038 84.716C47.0758 84.412 46.8878 84.18 46.6398 84.02C46.3998 83.86 46.0958 83.78 45.7278 83.78C45.3198 83.78 44.9718 83.876 44.6838 84.068C44.4038 84.252 44.1918 84.512 44.0478 84.848C43.9038 85.176 43.8318 85.56 43.8318 86V86.072C43.8318 86.808 44.0078 87.368 44.3598 87.752C44.7198 88.136 45.2278 88.328 45.8838 88.328C46.1558 88.328 46.4238 88.292 46.6878 88.22C46.9598 88.148 47.2238 88.028 47.4798 87.86C47.5918 87.788 47.6918 87.756 47.7798 87.764C47.8758 87.764 47.9518 87.792 48.0078 87.848C48.0638 87.896 48.0998 87.96 48.1158 88.04C48.1398 88.112 48.1318 88.192 48.0918 88.28C48.0598 88.368 47.9918 88.444 47.8878 88.508C47.6238 88.7 47.3118 88.848 46.9518 88.952C46.5918 89.056 46.2358 89.108 45.8838 89.108ZM50.0594 86.204C49.9394 86.204 49.8394 86.168 49.7594 86.096C49.6794 86.016 49.6394 85.92 49.6394 85.808C49.6394 85.688 49.6794 85.592 49.7594 85.52C49.8394 85.44 49.9394 85.4 50.0594 85.4H52.7594C52.8714 85.4 52.9674 85.44 53.0474 85.52C53.1274 85.592 53.1674 85.688 53.1674 85.808C53.1674 85.92 53.1274 86.016 53.0474 86.096C52.9674 86.168 52.8714 86.204 52.7594 86.204H50.0594ZM57.5051 89.108C56.9211 89.108 56.4171 88.98 55.9931 88.724C55.5691 88.468 55.2411 88.112 55.0091 87.656C54.7851 87.192 54.6731 86.656 54.6731 86.048C54.6731 85.584 54.7371 85.168 54.8651 84.8C54.9931 84.432 55.1811 84.12 55.4291 83.864C55.6771 83.6 55.9731 83.4 56.3171 83.264C56.6691 83.128 57.0651 83.06 57.5051 83.06C57.7931 83.06 58.0931 83.104 58.4051 83.192C58.7171 83.28 59.0011 83.432 59.2571 83.648C59.3371 83.704 59.3891 83.772 59.4131 83.852C59.4371 83.932 59.4371 84.012 59.4131 84.092C59.3891 84.164 59.3491 84.228 59.2931 84.284C59.2371 84.332 59.1651 84.36 59.0771 84.368C58.9971 84.376 58.9131 84.348 58.8251 84.284C58.6171 84.124 58.4051 84.012 58.1891 83.948C57.9731 83.884 57.7651 83.852 57.5651 83.852C57.2531 83.852 56.9811 83.904 56.7491 84.008C56.5171 84.104 56.3211 84.244 56.1611 84.428C56.0011 84.612 55.8771 84.84 55.7891 85.112C55.7091 85.384 55.6691 85.7 55.6691 86.06C55.6691 86.756 55.8331 87.308 56.1611 87.716C56.4891 88.116 56.9571 88.316 57.5651 88.316C57.7651 88.316 57.9691 88.284 58.1771 88.22C58.3931 88.156 58.6091 88.044 58.8251 87.884C58.9131 87.82 58.9971 87.792 59.0771 87.8C59.1571 87.808 59.2251 87.84 59.2811 87.896C59.3371 87.944 59.3731 88.008 59.3891 88.088C59.4131 88.168 59.4131 88.248 59.3891 88.328C59.3651 88.4 59.3131 88.464 59.2331 88.52C58.9771 88.728 58.6971 88.88 58.3931 88.976C58.0891 89.064 57.7931 89.108 57.5051 89.108ZM62.8946 89.108C62.3266 89.108 61.8346 88.984 61.4186 88.736C61.0026 88.488 60.6786 88.14 60.4466 87.692C60.2226 87.236 60.1106 86.7 60.1106 86.084C60.1106 85.62 60.1746 85.204 60.3026 84.836C60.4306 84.46 60.6186 84.14 60.8666 83.876C61.1146 83.612 61.4066 83.412 61.7426 83.276C62.0866 83.132 62.4706 83.06 62.8946 83.06C63.4626 83.06 63.9546 83.184 64.3706 83.432C64.7866 83.68 65.1066 84.032 65.3306 84.488C65.5626 84.936 65.6786 85.468 65.6786 86.084C65.6786 86.548 65.6146 86.964 65.4866 87.332C65.3586 87.7 65.1706 88.02 64.9226 88.292C64.6746 88.556 64.3786 88.76 64.0346 88.904C63.6986 89.04 63.3186 89.108 62.8946 89.108ZM62.8946 88.328C63.2546 88.328 63.5706 88.24 63.8426 88.064C64.1146 87.888 64.3226 87.632 64.4666 87.296C64.6186 86.96 64.6946 86.556 64.6946 86.084C64.6946 85.356 64.5306 84.8 64.2026 84.416C63.8826 84.032 63.4466 83.84 62.8946 83.84C62.5266 83.84 62.2066 83.928 61.9346 84.104C61.6706 84.272 61.4626 84.524 61.3106 84.86C61.1666 85.188 61.0946 85.596 61.0946 86.084C61.0946 86.804 61.2586 87.36 61.5866 87.752C61.9146 88.136 62.3506 88.328 62.8946 88.328ZM68.9146 89.108C68.3386 89.108 67.8986 88.932 67.5946 88.58C67.2906 88.228 67.1386 87.724 67.1386 87.068V80.948C67.1386 80.788 67.1786 80.668 67.2586 80.588C67.3386 80.5 67.4586 80.456 67.6186 80.456C67.7706 80.456 67.8906 80.5 67.9786 80.588C68.0666 80.668 68.1106 80.788 68.1106 80.948V86.996C68.1106 87.428 68.1946 87.752 68.3626 87.968C68.5386 88.176 68.7946 88.28 69.1306 88.28C69.2026 88.28 69.2666 88.276 69.3226 88.268C69.3786 88.26 69.4346 88.256 69.4906 88.256C69.5786 88.248 69.6386 88.268 69.6706 88.316C69.7106 88.364 69.7306 88.46 69.7306 88.604C69.7306 88.748 69.6986 88.856 69.6346 88.928C69.5706 89 69.4666 89.048 69.3226 89.072C69.2586 89.08 69.1906 89.088 69.1186 89.096C69.0466 89.104 68.9786 89.108 68.9146 89.108ZM73.0548 89.108C72.4868 89.108 71.9948 88.984 71.5788 88.736C71.1628 88.488 70.8388 88.14 70.6068 87.692C70.3828 87.236 70.2708 86.7 70.2708 86.084C70.2708 85.62 70.3348 85.204 70.4628 84.836C70.5908 84.46 70.7788 84.14 71.0268 83.876C71.2748 83.612 71.5668 83.412 71.9028 83.276C72.2468 83.132 72.6308 83.06 73.0548 83.06C73.6228 83.06 74.1148 83.184 74.5308 83.432C74.9468 83.68 75.2668 84.032 75.4908 84.488C75.7228 84.936 75.8388 85.468 75.8388 86.084C75.8388 86.548 75.7748 86.964 75.6468 87.332C75.5188 87.7 75.3308 88.02 75.0828 88.292C74.8348 88.556 74.5388 88.76 74.1948 88.904C73.8588 89.04 73.4788 89.108 73.0548 89.108ZM73.0548 88.328C73.4148 88.328 73.7308 88.24 74.0028 88.064C74.2748 87.888 74.4828 87.632 74.6268 87.296C74.7788 86.96 74.8548 86.556 74.8548 86.084C74.8548 85.356 74.6908 84.8 74.3628 84.416C74.0428 84.032 73.6068 83.84 73.0548 83.84C72.6868 83.84 72.3668 83.928 72.0948 84.104C71.8308 84.272 71.6228 84.524 71.4708 84.86C71.3268 85.188 71.2548 85.596 71.2548 86.084C71.2548 86.804 71.4188 87.36 71.7468 87.752C72.0748 88.136 72.5108 88.328 73.0548 88.328ZM77.7907 89.084C77.6307 89.084 77.5067 89.04 77.4187 88.952C77.3387 88.864 77.2987 88.74 77.2987 88.58V83.576C77.2987 83.416 77.3387 83.296 77.4187 83.216C77.4987 83.128 77.6147 83.084 77.7667 83.084C77.9187 83.084 78.0347 83.128 78.1147 83.216C78.2027 83.296 78.2467 83.416 78.2467 83.576V84.548H78.1267C78.2547 84.076 78.4987 83.712 78.8587 83.456C79.2187 83.2 79.6627 83.064 80.1907 83.048C80.3107 83.04 80.4067 83.068 80.4787 83.132C80.5507 83.188 80.5907 83.288 80.5987 83.432C80.6067 83.568 80.5747 83.676 80.5027 83.756C80.4307 83.836 80.3187 83.884 80.1667 83.9L79.9747 83.924C79.4307 83.972 79.0107 84.148 78.7147 84.452C78.4267 84.748 78.2827 85.156 78.2827 85.676V88.58C78.2827 88.74 78.2387 88.864 78.1507 88.952C78.0707 89.04 77.9507 89.084 77.7907 89.084ZM83.5089 89.108C83.1489 89.108 82.7849 89.064 82.4169 88.976C82.0569 88.888 81.7209 88.736 81.4089 88.52C81.3289 88.464 81.2729 88.4 81.2409 88.328C81.2089 88.248 81.1969 88.172 81.2049 88.1C81.2209 88.02 81.2529 87.952 81.3009 87.896C81.3569 87.84 81.4209 87.808 81.4929 87.8C81.5729 87.784 81.6609 87.8 81.7569 87.848C82.0689 88.04 82.3689 88.176 82.6569 88.256C82.9529 88.328 83.2449 88.364 83.5329 88.364C83.9889 88.364 84.3329 88.28 84.5649 88.112C84.7969 87.944 84.9129 87.716 84.9129 87.428C84.9129 87.204 84.8369 87.028 84.6849 86.9C84.5329 86.764 84.2929 86.66 83.9649 86.588L82.8729 86.348C82.3689 86.244 81.9929 86.064 81.7449 85.808C81.5049 85.552 81.3849 85.22 81.3849 84.812C81.3849 84.452 81.4769 84.144 81.6609 83.888C81.8529 83.624 82.1209 83.42 82.4649 83.276C82.8089 83.132 83.2089 83.06 83.6649 83.06C84.0169 83.06 84.3489 83.108 84.6609 83.204C84.9809 83.292 85.2689 83.436 85.5249 83.636C85.6049 83.692 85.6569 83.76 85.6809 83.84C85.7129 83.912 85.7169 83.988 85.6929 84.068C85.6769 84.14 85.6409 84.204 85.5849 84.26C85.5289 84.308 85.4609 84.336 85.3809 84.344C85.3009 84.352 85.2169 84.328 85.1289 84.272C84.8889 84.112 84.6449 83.996 84.3969 83.924C84.1489 83.844 83.9049 83.804 83.6649 83.804C83.2169 83.804 82.8769 83.892 82.6449 84.068C82.4129 84.244 82.2969 84.476 82.2969 84.764C82.2969 84.988 82.3689 85.172 82.5129 85.316C82.6569 85.46 82.8809 85.564 83.1849 85.628L84.2769 85.856C84.7969 85.968 85.1849 86.148 85.4409 86.396C85.7049 86.636 85.8369 86.964 85.8369 87.38C85.8369 87.908 85.6249 88.328 85.2009 88.64C84.7769 88.952 84.2129 89.108 83.5089 89.108Z" fill="#F9FAFB"/>
<path d="M53.4247 34.2262C46.7441 30.7022 40.6628 33.2134 38.4709 36.6456C37.7534 37.7678 37.2459 39.8087 37.2656 41.4275C37.305 44.7591 39.1491 48.4712 43.1281 52.2162C48.0238 56.8231 53.02 56.4206 54.6081 56.0334C56.6075 55.5456 57.9484 55.13 57.7428 53.2662C57.7166 53.0212 57.5066 52.5772 57.1894 52.3825C56.1722 51.7656 54.0481 51.4441 53.0484 49.9587C51.5959 47.7953 53.4028 47.6859 55.1331 48.6112C56.9859 49.6022 58.0447 50.2212 59.9041 50.0506C61.2669 49.9259 63.2488 49.1034 63.5178 46.8044C63.7584 44.7241 60.7222 38.0762 53.4247 34.2262ZM56.1525 45.5312C55.6406 46.31 54.3763 46.0431 53.5472 45.3081C52.7181 44.5731 52.6109 43.3481 53.1491 42.8669C53.6959 42.3791 54.7241 42.4906 55.5531 43.2256C56.38 43.9628 56.5528 44.9187 56.1525 45.5312Z" fill="#AC5810"/>
<path d="M53.7178 33.4322C47.0372 29.9081 40.9406 32.6337 38.7488 36.0659C36.5547 39.5003 37.5084 45.8594 43.4191 51.4222C48.3147 56.029 53.3109 55.6265 54.8991 55.2394C56.8984 54.7515 58.3094 53.8 57.43 52.5859C56.8241 51.7481 54.6519 51.1159 53.3416 49.1647C51.8891 47.0012 53.6959 46.8919 55.4263 47.8172C57.2791 48.8081 58.3378 49.4272 60.1972 49.2565C61.56 49.1319 63.6206 48.0775 63.5594 45.9469C63.4959 43.8534 61.0153 37.2844 53.7178 33.4322ZM56.7934 45.47C56.17 46.1437 54.8422 45.96 53.8272 45.0631C52.8144 44.164 52.4972 42.8909 53.1206 42.2194C53.7441 41.5456 55.0719 41.7294 56.0869 42.6262C57.1019 43.5231 57.4169 44.7984 56.7934 45.47Z" fill="#F2A259"/>
<path d="M46.9169 48.5194C47.1684 47.8763 48.9578 47.1719 50.6028 48.3422C51.0644 48.6703 51.6419 49.5059 51.5828 50.5559C51.3903 53.9859 45.7619 51.4791 46.9169 48.5194Z" fill="#EEEEEE"/>
<path d="M41.6909 42.7028C42.2662 41.7841 43.664 41.6791 44.8869 42.4731C45.9762 43.1797 46.8862 44.9188 45.5431 46.0563C44.8234 46.6666 43.5787 46.2881 42.8109 45.6997C41.879 44.9888 41.0719 43.6916 41.6909 42.7028Z" fill="#2686C6"/>
<path d="M49.1153 34.6856C49.2925 33.9572 50.5285 33.8325 51.4034 34.1584C52.915 34.7228 53.5997 36.2191 53.0419 37.0525C52.226 38.2709 50.4475 37.8531 49.7738 37.1553C48.6297 35.9741 48.9666 35.2959 49.1153 34.6856Z" fill="#FFEE58"/>
<path d="M57.8741 38.2512C59.086 38.8025 59.2435 39.6753 59.0116 40.3119C58.8672 40.7056 58.5719 41.2459 57.9681 41.294C56.9466 41.3772 56.8044 40.5328 56.076 40.3009C55.4635 40.1062 55.2141 39.2684 55.4547 38.7062C55.6778 38.1878 56.3297 37.5469 57.8741 38.2512Z" fill="#7CB342"/>
<path d="M51.1497 51.21C50.8478 51.4834 49.8 51.8203 48.47 50.9891C48.0194 50.7069 47.5884 50.2978 47.3456 49.6853C47.1553 49.2041 47.1969 48.7403 47.2822 48.5347C47.5272 47.9419 47.9013 47.8325 47.9013 47.8325C47.525 47.8063 46.8141 48.305 46.6959 48.9591C46.6588 49.1647 46.3941 50.4509 48.0981 51.6169C49.5659 52.6231 51.7359 52.5291 51.5938 50.5034C51.5281 50.7528 51.3422 51.0372 51.1497 51.21Z" fill="#B0B0B0"/>
<path d="M46.1819 44.3763C46.1403 45.1572 45.2259 45.5684 44.7162 45.5706C43.2747 45.5728 41.9797 44.6672 41.89 43.055C41.8747 42.7663 42.0169 42.3484 42.0169 42.3484C41.8266 42.4294 41.5575 42.8406 41.5006 43.0725C41.1637 44.4638 42.5659 46.0847 44.0425 46.4128C44.7906 46.5791 45.7334 46.3231 46.0769 45.6538C46.3219 45.1769 46.2737 44.7678 46.1819 44.3763Z" fill="#01579B"/>
<path d="M51.2262 37.1575C50.2462 37.0459 49.7037 36.405 49.5616 36.2584C49.1722 35.8516 48.9316 35.4556 49.0716 34.8694C49.1153 34.6812 49.2225 34.4406 49.3537 34.305C49.1941 34.3575 48.9359 34.7009 48.855 34.8869C48.7719 35.0728 48.47 35.7706 49.1175 36.6303C49.5178 37.1641 50.2156 37.7656 51.2481 37.91C51.9809 38.0128 52.5059 37.7503 52.9434 37.3237C53.2409 37.0328 53.3722 36.3766 53.195 36.0375C53.2234 36.2847 52.7706 37.3347 51.2262 37.1575Z" fill="#DF7F14"/>
<path d="M59.2872 39.8109C59.1975 39.4806 58.9416 39.1372 58.9153 39.1197C59.0269 39.3341 59.2478 39.9772 58.7841 40.6028C58.55 40.9178 57.8456 41.305 57.0144 40.6313C56.7694 40.4322 56.5725 40.2353 56.1306 40.0734C55.0085 39.66 55.4985 38.5181 55.8878 38.1638C55.5816 38.3234 55.3038 38.61 55.1878 39.0475C55.026 39.6578 55.4263 40.2966 56.0344 40.6028C56.7256 40.9506 56.9488 41.6222 57.896 41.6222C57.9441 41.6222 57.9944 41.62 58.0491 41.6156C58.6878 41.5609 58.9569 41.3138 59.1516 41.0119C59.39 40.6356 59.3966 40.2091 59.2872 39.8109Z" fill="#558B2F"/>
<path d="M42.1481 35.6416C42.6469 35.1494 43.5153 34.6287 44.7862 35.2916C45.5519 35.6897 46.4422 36.1578 46.0397 37.7766C45.7903 38.7806 44.3291 39.3122 43.1084 38.1944C42.625 37.7525 40.7875 36.9847 42.1481 35.6416Z" fill="#F44336"/>
<path d="M46.3306 37.56C46.3459 37.1772 46.1491 36.7113 46.0813 36.5538C46.0922 36.7834 46.2913 37.3631 45.3791 38.1309C45.0619 38.3978 44.4866 38.6013 43.8588 38.3541C43.5372 38.2272 43.0756 37.6956 42.7453 37.5622C41.5181 37.0678 42.0475 35.7531 42.2203 35.5738C41.9425 35.7684 41.7063 36.0791 41.6188 36.5319C41.505 37.1247 41.61 37.6847 42.4238 38.3256C44.7338 40.1478 45.4425 39.0497 45.6941 38.7697C46.0113 38.4284 46.3131 37.9822 46.3306 37.56Z" fill="#C62828"/>
<path d="M50.8806 34.235C50.5591 34.0841 49.6403 34.1278 49.4631 34.8935C49.3559 35.3528 49.6928 35.8188 50.01 35.7641C50.3709 35.7028 50.1784 35.1406 50.395 34.981C50.7253 34.7403 51.3313 34.4472 50.8806 34.235ZM44.1038 35.3506C43.7866 35.1406 42.7738 35.1385 42.4697 35.915C42.2859 36.381 42.5725 36.9213 42.9159 36.9125C43.3075 36.9038 43.1194 36.4422 43.4453 36.1491C43.8566 35.7794 44.5478 35.6438 44.1038 35.3506ZM43.9528 42.3594C43.6531 42.1691 42.765 42.0947 42.3975 42.7903C42.1284 43.3022 42.4981 43.8666 42.8197 43.8513C43.185 43.8338 43.0625 43.2519 43.2966 43.1206C43.6531 42.9216 44.3728 42.6263 43.9528 42.3594ZM49.0563 48.1847C48.7347 48.0338 47.8159 48.0775 47.6388 48.8431C47.5316 49.3025 47.8684 49.7685 48.1856 49.7138C48.5466 49.6525 48.3541 49.0903 48.5706 48.9306C48.8988 48.69 49.5047 48.3969 49.0563 48.1847ZM57.2988 38.3235C57.01 38.1178 56.0978 37.9975 55.7872 38.7194C55.6013 39.1525 55.8484 39.671 56.17 39.6731C56.5353 39.6753 56.4456 39.0891 56.6884 38.971C57.0538 38.7938 57.7034 38.6122 57.2988 38.3235Z" fill="white"/>
</svg>
