<svg width="118" height="118" viewBox="0 0 118 118" fill="none" xmlns="http://www.w3.org/2000/svg">
<mask id="path-1-inside-1_576_10455" fill="white">
<path fill-rule="evenodd" clip-rule="evenodd" d="M69 0C68.4477 0 68.0029 0.448498 67.9727 0.999957C67.4538 10.476 59.6056 18 50 18C40.3944 18 32.5462 10.476 32.0273 0.999955C31.9971 0.448497 31.5523 0 31 0L4 0C1.79086 0 0 1.79086 0 4L0 31C0 31.5523 0.448498 31.9971 0.999957 32.0273C10.476 32.5462 18 40.3944 18 50C18 59.6056 10.476 67.4538 0.999955 67.9727C0.448497 68.0029 0 68.4477 0 69L0 96C0 98.2091 1.79086 100 4 100H31C31.5523 100 31.9971 100.449 32.0273 101C32.5462 110.476 40.3944 118 50 118C59.6056 118 67.4538 110.476 67.9727 101C68.0029 100.448 68.4477 100 69 100H96C98.2091 100 100 98.2091 100 96V69C100 68.4477 100.449 68.0029 101 67.9727C110.476 67.4538 118 59.6056 118 50C118 40.3944 110.476 32.5462 101 32.0273C100.448 31.9971 100 31.5523 100 31V4C100 1.79086 98.2091 0 96 0L69 0Z"/>
</mask>
<path fill-rule="evenodd" clip-rule="evenodd" d="M69 0C68.4477 0 68.0029 0.448498 67.9727 0.999957C67.4538 10.476 59.6056 18 50 18C40.3944 18 32.5462 10.476 32.0273 0.999955C31.9971 0.448497 31.5523 0 31 0L4 0C1.79086 0 0 1.79086 0 4L0 31C0 31.5523 0.448498 31.9971 0.999957 32.0273C10.476 32.5462 18 40.3944 18 50C18 59.6056 10.476 67.4538 0.999955 67.9727C0.448497 68.0029 0 68.4477 0 69L0 96C0 98.2091 1.79086 100 4 100H31C31.5523 100 31.9971 100.449 32.0273 101C32.5462 110.476 40.3944 118 50 118C59.6056 118 67.4538 110.476 67.9727 101C68.0029 100.448 68.4477 100 69 100H96C98.2091 100 100 98.2091 100 96V69C100 68.4477 100.449 68.0029 101 67.9727C110.476 67.4538 118 59.6056 118 50C118 40.3944 110.476 32.5462 101 32.0273C100.448 31.9971 100 31.5523 100 31V4C100 1.79086 98.2091 0 96 0L69 0Z" fill="#374151" fill-opacity="0.4"/>
<path d="M0 96H1H0ZM96 100V101V100ZM101 32.0273L101.055 31.0288L101 32.0273ZM101 67.9727L101.055 68.9712L101 67.9727ZM32.0273 101L33.0258 100.945L32.0273 101ZM0.999957 32.0273L0.945284 33.0258L0.999957 32.0273ZM32.0273 0.999955L31.0288 1.05463L32.0273 0.999955ZM67.9727 101L66.9742 100.945L67.9727 101ZM69 100V99V100ZM67.9727 0.999957L66.9742 0.945284L67.9727 0.999957ZM50 19C60.1396 19 68.4235 11.058 68.9712 1.05463L66.9742 0.945284C66.4842 9.89398 59.0716 17 50 17L50 19ZM31.0288 1.05463C31.5765 11.058 39.8604 19 50 19L50 17C40.9284 17 33.5158 9.89397 33.0258 0.945282L31.0288 1.05463ZM4 1L31 1V-1L4 -1V1ZM1 4C1 2.34315 2.34315 1 4 1V-1C1.23858 -1 -1 1.23858 -1 4H1ZM1 31L1 4H-1L-1 31H1ZM19 50C19 39.8604 11.058 31.5765 1.05463 31.0288L0.945284 33.0258C9.89398 33.5158 17 40.9284 17 50L19 50ZM1.05463 68.9712C11.058 68.4235 19 60.1396 19 50L17 50C17 59.0716 9.89397 66.4842 0.945282 66.9742L1.05463 68.9712ZM1 96L1 69H-1L-1 96H1ZM4 99C2.34315 99 1 97.6569 1 96H-1C-1 98.7614 1.23858 101 4 101V99ZM31 99H4V101H31L31 99ZM50 117C40.9284 117 33.5158 109.894 33.0258 100.945L31.0288 101.055C31.5765 111.058 39.8605 119 50 119V117ZM66.9742 100.945C66.4842 109.894 59.0716 117 50 117V119C60.1396 119 68.4235 111.058 68.9712 101.055L66.9742 100.945ZM96 99H69V101H96V99ZM99 96C99 97.6569 97.6569 99 96 99V101C98.7614 101 101 98.7614 101 96H99ZM99 69V96H101V69H99ZM117 50C117 59.0716 109.894 66.4842 100.945 66.9742L101.055 68.9712C111.058 68.4235 119 60.1396 119 50H117ZM100.945 33.0258C109.894 33.5158 117 40.9284 117 50H119C119 39.8604 111.058 31.5765 101.055 31.0288L100.945 33.0258ZM99 4V31H101V4L99 4ZM96 1C97.6569 1 99 2.34315 99 4L101 4C101 1.23858 98.7614 -1 96 -1V1ZM69 1L96 1V-1L69 -1V1ZM101.055 31.0288C101.033 31.0276 101.016 31.0187 101.006 31.0081C101.001 31.0033 101 31.0001 101 30.9999C101 30.9998 101 31.0001 101 31.0007C101 31.0012 101 31.0012 101 31H99C99 32.1183 99.8992 32.9685 100.945 33.0258L101.055 31.0288ZM101 69C101 68.9988 101 68.9988 101 68.9994C101 68.9999 101 69.0002 101 69.0001C101 68.9999 101.001 68.9967 101.006 68.9919C101.016 68.9813 101.033 68.9724 101.055 68.9712L100.945 66.9742C99.8992 67.0315 99 67.8817 99 69H101ZM31 101C31.0012 101 31.0012 101 31.0007 101C31.0001 101 30.9998 101 30.9999 101C31.0001 101 31.0033 101.001 31.0081 101.006C31.0187 101.016 31.0276 101.033 31.0288 101.055L33.0258 100.945C32.9685 99.8992 32.1183 99 31 99L31 101ZM-1 31C-1 32.1183 -0.100786 32.9685 0.945284 33.0258L1.05463 31.0288C1.03335 31.0276 1.0164 31.0187 1.006 31.0081C1.00127 31.0033 0.999846 31.0001 0.999766 30.9999C0.999738 30.9998 0.999868 31.0001 0.999977 31.0006C1.0001 31.0012 1 31.0012 1 31H-1ZM0.945282 66.9742C-0.100789 67.0315 -1 67.8817 -1 69H1C1 68.9988 1.0001 68.9988 0.999977 68.9994C0.999868 68.9999 0.999738 69.0002 0.999766 69.0001C0.999846 68.9999 1.00127 68.9967 1.006 68.9919C1.0164 68.9813 1.03335 68.9724 1.05463 68.9712L0.945282 66.9742ZM33.0258 0.945282C32.9685 -0.100789 32.1183 -1 31 -1V1C31.0012 1 31.0012 1.0001 31.0007 0.999977C31.0001 0.999868 30.9998 0.999738 30.9999 0.999766C31.0001 0.999846 31.0033 1.00127 31.0081 1.006C31.0187 1.0164 31.0276 1.03335 31.0288 1.05463L33.0258 0.945282ZM68.9712 101.055C68.9724 101.033 68.9813 101.016 68.9919 101.006C68.9967 101.001 68.9999 101 69.0001 101C69.0002 101 68.9999 101 68.9994 101C68.9988 101 68.9988 101 69 101V99C67.8817 99 67.0315 99.8992 66.9742 100.945L68.9712 101.055ZM68.9712 1.05463C68.9724 1.03335 68.9813 1.0164 68.9919 1.006C68.9967 1.00127 68.9999 0.999846 69.0001 0.999766C69.0002 0.999738 68.9999 0.999868 68.9994 0.999977C68.9988 1.0001 68.9988 1 69 1V-1C67.8817 -1 67.0315 -0.100786 66.9742 0.945284L68.9712 1.05463Z" fill="#374151" mask="url(#path-1-inside-1_576_10455)"/>
<path d="M42.4836 72.144C41.8543 72.144 41.3316 72.032 40.9156 71.808C40.5103 71.5733 40.201 71.2267 39.9876 70.768C39.785 70.3093 39.6836 69.7387 39.6836 69.056V64.768C39.6836 64.544 39.737 64.3787 39.8436 64.272C39.961 64.1653 40.121 64.112 40.3236 64.112C40.537 64.112 40.697 64.1653 40.8036 64.272C40.921 64.3787 40.9796 64.544 40.9796 64.768V69.04C40.9796 69.7227 41.1183 70.2347 41.3956 70.576C41.6836 70.9067 42.1316 71.072 42.7396 71.072C43.401 71.072 43.9396 70.848 44.3556 70.4C44.7716 69.952 44.9796 69.3653 44.9796 68.64V64.768C44.9796 64.544 45.033 64.3787 45.1396 64.272C45.257 64.1653 45.4223 64.112 45.6356 64.112C45.8383 64.112 45.993 64.1653 46.0996 64.272C46.217 64.3787 46.2756 64.544 46.2756 64.768V71.44C46.2756 71.888 46.0676 72.112 45.6516 72.112C45.449 72.112 45.289 72.0533 45.1716 71.936C45.065 71.8187 45.0116 71.6533 45.0116 71.44V69.984L45.2196 70.208C45.0063 70.8373 44.6543 71.3173 44.1636 71.648C43.6836 71.9787 43.1236 72.144 42.4836 72.144ZM49.7564 72.112C49.5537 72.112 49.3937 72.0533 49.2764 71.936C49.1697 71.8187 49.1164 71.6533 49.1164 71.44V65.232H48.0924C47.9217 65.232 47.783 65.1893 47.6764 65.104C47.5804 65.008 47.5324 64.88 47.5324 64.72C47.5324 64.56 47.5804 64.4373 47.6764 64.352C47.783 64.2667 47.9217 64.224 48.0924 64.224H49.4684L49.1164 64.56V63.952C49.1164 62.9387 49.3617 62.1653 49.8524 61.632C50.3537 61.0987 51.0844 60.7893 52.0444 60.704L52.5084 60.656C52.6577 60.6453 52.775 60.672 52.8604 60.736C52.9564 60.8 53.015 60.88 53.0364 60.976C53.0684 61.072 53.0737 61.1733 53.0524 61.28C53.031 61.376 52.983 61.4613 52.9084 61.536C52.8337 61.6107 52.743 61.6533 52.6364 61.664L52.2684 61.696C51.6177 61.7493 51.143 61.9467 50.8444 62.288C50.5564 62.6293 50.4124 63.1307 50.4124 63.792V64.464L50.2204 64.224H52.1404C52.3217 64.224 52.4604 64.2667 52.5564 64.352C52.6524 64.4373 52.7004 64.56 52.7004 64.72C52.7004 64.88 52.6524 65.008 52.5564 65.104C52.4604 65.1893 52.3217 65.232 52.1404 65.232H50.4124V71.44C50.4124 71.888 50.1937 72.112 49.7564 72.112ZM57.0418 72.144C56.2844 72.144 55.6284 71.9787 55.0738 71.648C54.5191 71.3173 54.0871 70.8533 53.7778 70.256C53.4791 69.648 53.3298 68.9333 53.3298 68.112C53.3298 67.4933 53.4151 66.9387 53.5858 66.448C53.7564 65.9467 54.0071 65.52 54.3378 65.168C54.6684 64.816 55.0578 64.5493 55.5058 64.368C55.9644 64.176 56.4764 64.08 57.0418 64.08C57.7991 64.08 58.4551 64.2453 59.0098 64.576C59.5644 64.9067 59.9911 65.376 60.2898 65.984C60.5991 66.5813 60.7538 67.2907 60.7538 68.112C60.7538 68.7307 60.6684 69.2853 60.4978 69.776C60.3271 70.2667 60.0764 70.6933 59.7458 71.056C59.4151 71.408 59.0204 71.68 58.5618 71.872C58.1138 72.0533 57.6071 72.144 57.0418 72.144ZM57.0418 71.104C57.5218 71.104 57.9431 70.9867 58.3058 70.752C58.6684 70.5173 58.9458 70.176 59.1378 69.728C59.3404 69.28 59.4418 68.7413 59.4418 68.112C59.4418 67.1413 59.2231 66.4 58.7858 65.888C58.3591 65.376 57.7778 65.12 57.0418 65.12C56.5511 65.12 56.1244 65.2373 55.7618 65.472C55.4098 65.696 55.1324 66.032 54.9298 66.48C54.7378 66.9173 54.6418 67.4613 54.6418 68.112C54.6418 69.072 54.8604 69.8133 55.2978 70.336C55.7351 70.848 56.3164 71.104 57.0418 71.104Z" fill="#F9FAFB"/>
<g clip-path="url(#clip0_576_10455)">
<path d="M41.2303 48.7544C39.8084 47.3041 39.8084 44.9897 41.2303 43.5394L45.3297 39.44C45.7759 38.9938 46.3622 38.6591 46.9747 38.4928C47.5872 38.3266 48.2303 38.3266 48.8144 38.4644C49.4269 38.6306 50.0131 38.9391 50.4878 39.3853L50.5425 39.44C51.9928 40.8903 51.9928 43.2047 50.5425 44.655L46.4431 48.7544C44.995 50.2047 42.6522 50.2047 41.2303 48.7544ZM52.8306 37.1541C50.1269 34.4503 45.6928 34.4503 42.9869 37.1541L38.9159 41.2534C36.2122 43.9572 36.2122 48.3912 38.9159 51.0972C41.6197 53.8031 46.0537 53.8009 48.7597 51.0972L52.8591 46.9978C55.5344 44.2919 55.5344 39.86 52.8306 37.1541Z" fill="#84B0C1"/>
<path d="M50.6256 36.605C51.3606 36.2353 52.0628 36.4934 52.0628 36.4934C50.5447 35.3713 48.8888 35.0519 47.4625 35.1416C47.4538 35.1525 47.4472 35.1634 47.4385 35.1766C46.8128 36.1369 46.6728 37.4056 47.0622 38.4731C47.6485 38.3288 48.2566 38.3331 48.8122 38.4666C49.0397 38.5278 49.2125 38.5869 49.5538 38.7466C49.556 38.7444 49.4356 37.2044 50.6256 36.605ZM46.2288 38.7881C46.2572 38.5759 46.2703 38.3616 46.2835 38.1472C46.3447 37.2241 46.5022 36.3053 46.7516 35.415C46.7691 35.3516 46.7866 35.2838 46.8041 35.2159C46.1281 35.3231 45.4653 35.5288 44.8419 35.835C43.8706 37.0884 44.19 38.7116 45.3297 39.4422C45.59 39.1819 45.8963 38.9609 46.2288 38.7881Z" fill="#2F7889"/>
<path d="M58.7697 31.2456C60.1916 32.6959 60.1916 35.0103 58.7697 36.4606L54.6703 40.56C54.2241 41.0062 53.6378 41.3409 53.0253 41.5072C52.4128 41.6734 51.7697 41.6734 51.1856 41.5356C50.5731 41.3694 49.9869 41.0609 49.5122 40.6147L49.4575 40.56C48.0072 39.1097 48.0072 36.7953 49.4575 35.345L53.5569 31.2456C55.005 29.7953 57.3478 29.7953 58.7697 31.2456ZM47.1694 42.8459C49.8731 45.5497 54.3072 45.5497 57.0131 42.8459L61.0841 38.7466C63.7878 36.0428 63.7878 31.6087 61.0841 28.9028C58.3803 26.1969 53.9463 26.1991 51.2403 28.9028L47.1431 33.0022C44.4656 35.7081 44.4656 40.14 47.1694 42.8459Z" fill="#84B0C1"/>
<path d="M47.0359 34.6231C47.0447 34.6166 47.0534 34.6078 47.0622 34.6012C47.1781 34.5006 47.3072 34.4044 47.4581 34.3781C47.6091 34.3519 47.7863 34.4197 47.8388 34.5641C47.8781 34.6712 47.8431 34.7894 47.8059 34.8966C47.2306 36.6356 46.7691 38.8428 47.3291 40.6431C47.3838 40.8181 47.4363 41.0434 47.2897 41.1528C47.2044 41.2184 47.0775 41.2075 46.9834 41.1572C45.9553 40.6016 45.7759 39.0966 45.7278 38.0641C45.6709 36.7603 46.0319 35.5047 47.0359 34.6231Z" fill="#A8E3F0"/>
<path d="M51.6013 41.6056C51.4613 41.5881 51.3125 41.5597 51.3125 41.5597C51.3125 41.5597 51.2906 42.4938 50.5447 43.2681C49.7178 44.1256 48.8931 44.1038 48.8931 44.1038C49.3284 44.3553 50.1969 44.6156 50.5119 44.69L50.5447 44.6572C51.3825 43.8172 51.7325 42.6884 51.6013 41.6056ZM55.8538 39.3766L54.6878 40.5425C54.9788 41.8419 54.9 43.2069 54.4494 44.4669C55.0159 44.2656 55.5606 43.9878 56.0681 43.6356C56.9059 42.2006 56.7222 40.5053 55.8538 39.3766Z" fill="#2F7889"/>
<path d="M53.4759 41.3147C53.3381 40.9669 53.0691 40.6147 52.7322 40.6475C52.5222 40.6672 52.1962 40.8641 52.2181 41.4656C52.2334 41.9316 52.4106 42.3866 52.1569 42.9969C51.785 43.8894 51.8703 44.13 51.96 44.2722C52.0584 44.4275 52.24 44.4975 52.4084 44.4953C52.8525 44.4931 53.22 44.0862 53.4212 43.64C53.7472 42.9269 53.7669 42.0453 53.4759 41.3147ZM46.7734 49.6644C46.9134 49.5484 47.2766 49.1612 47.445 49.4062C47.3837 50.08 46.8653 50.6291 46.2966 50.9966C45.5966 51.4494 44.7675 51.7162 43.9341 51.6922C43.2428 51.6725 42.0966 51.3925 41.6941 50.7516C41.3659 50.2309 42.0594 50.1412 42.4444 50.2856C43.8159 50.8084 45.3669 50.8194 46.7734 49.6644Z" fill="#A8E3F0"/>
</g>
<defs>
<clipPath id="clip0_576_10455">
<rect width="28" height="28" fill="white" transform="translate(36 26)"/>
</clipPath>
</defs>
</svg>
