<svg width="119" height="136" viewBox="0 0 119 136" fill="none" xmlns="http://www.w3.org/2000/svg">
<mask id="path-1-inside-1_576_10454" fill="white">
<path fill-rule="evenodd" clip-rule="evenodd" d="M69.5 18C68.9477 18 68.5029 17.5515 68.4727 17C67.9538 7.52403 60.1056 0 50.5 0C40.8944 0 33.0462 7.52403 32.5273 17C32.4971 17.5515 32.0523 18 31.5 18L4.5 18C2.29086 18 0.5 19.7909 0.5 22L0.5 49C0.5 49.5523 0.948497 49.9971 1.49996 50.0273C10.976 50.5462 18.5 58.3944 18.5 68C18.5 77.6056 10.976 85.4538 1.49996 85.9727C0.948498 86.0029 0.5 86.4477 0.5 87L0.5 114C0.5 116.209 2.29086 118 4.5 118L31.5 118C32.0523 118 32.4971 118.448 32.5273 119C33.0462 128.476 40.8944 136 50.5 136C60.1056 136 67.9538 128.476 68.4727 119C68.5029 118.449 68.9477 118 69.5 118L96.5 118C98.7091 118 100.5 116.209 100.5 114V87C100.5 86.4477 100.948 86.0029 101.5 85.9727C110.976 85.4538 118.5 77.6056 118.5 68C118.5 58.3944 110.976 50.5462 101.5 50.0273C100.949 49.9971 100.5 49.5523 100.5 49V22C100.5 19.7909 98.7091 18 96.5 18L69.5 18Z"/>
</mask>
<path fill-rule="evenodd" clip-rule="evenodd" d="M69.5 18C68.9477 18 68.5029 17.5515 68.4727 17C67.9538 7.52403 60.1056 0 50.5 0C40.8944 0 33.0462 7.52403 32.5273 17C32.4971 17.5515 32.0523 18 31.5 18L4.5 18C2.29086 18 0.5 19.7909 0.5 22L0.5 49C0.5 49.5523 0.948497 49.9971 1.49996 50.0273C10.976 50.5462 18.5 58.3944 18.5 68C18.5 77.6056 10.976 85.4538 1.49996 85.9727C0.948498 86.0029 0.5 86.4477 0.5 87L0.5 114C0.5 116.209 2.29086 118 4.5 118L31.5 118C32.0523 118 32.4971 118.448 32.5273 119C33.0462 128.476 40.8944 136 50.5 136C60.1056 136 67.9538 128.476 68.4727 119C68.5029 118.449 68.9477 118 69.5 118L96.5 118C98.7091 118 100.5 116.209 100.5 114V87C100.5 86.4477 100.948 86.0029 101.5 85.9727C110.976 85.4538 118.5 77.6056 118.5 68C118.5 58.3944 110.976 50.5462 101.5 50.0273C100.949 49.9971 100.5 49.5523 100.5 49V22C100.5 19.7909 98.7091 18 96.5 18L69.5 18Z" fill="#374151" fill-opacity="0.4"/>
<path d="M100.5 22H101.5H100.5ZM101.5 50.0273L101.555 49.0288L101.5 50.0273ZM100.5 49H99.5H100.5ZM101.5 85.9727L101.445 84.9742L101.5 85.9727ZM32.5273 119L31.5288 119.055L32.5273 119ZM1.49996 85.9727L1.44528 84.9742L1.49996 85.9727ZM32.5273 17L31.5288 16.9454L32.5273 17ZM68.4727 119L69.4712 119.055L68.4727 119ZM68.4727 17L67.4742 17.0547L68.4727 17ZM50.5 1C59.5716 1 66.9842 8.10602 67.4742 17.0547L69.4712 16.9454C68.9235 6.94204 60.6396 -1 50.5 -1V1ZM33.5258 17.0547C34.0158 8.10603 41.4284 1 50.5 1V-1C40.3604 -1 32.0765 6.94204 31.5288 16.9454L33.5258 17.0547ZM31.5 17L4.5 17V19L31.5 19V17ZM4.5 17C1.73858 17 -0.5 19.2386 -0.5 22H1.5C1.5 20.3431 2.84315 19 4.5 19V17ZM-0.5 22L-0.5 49H1.5L1.5 22H-0.5ZM1.44528 51.0258C10.394 51.5158 17.5 58.9284 17.5 68H19.5C19.5 57.8604 11.558 49.5765 1.55463 49.0288L1.44528 51.0258ZM17.5 68C17.5 77.0716 10.394 84.4842 1.44528 84.9742L1.55463 86.9712C11.558 86.4235 19.5 78.1395 19.5 68H17.5ZM-0.5 87L-0.5 114H1.5L1.5 87H-0.5ZM-0.5 114C-0.5 116.761 1.73858 119 4.5 119V117C2.84315 117 1.5 115.657 1.5 114H-0.5ZM4.5 119L31.5 119V117L4.5 117V119ZM31.5288 119.055C32.0765 129.058 40.3604 137 50.5 137V135C41.4284 135 34.0158 127.894 33.5258 118.945L31.5288 119.055ZM50.5 137C60.6396 137 68.9235 129.058 69.4712 119.055L67.4742 118.945C66.9842 127.894 59.5716 135 50.5 135V137ZM69.5 119L96.5 119V117L69.5 117V119ZM96.5 119C99.2614 119 101.5 116.761 101.5 114H99.5C99.5 115.657 98.1569 117 96.5 117V119ZM101.5 114V87H99.5V114H101.5ZM101.555 86.9712C111.558 86.4235 119.5 78.1395 119.5 68H117.5C117.5 77.0716 110.394 84.4842 101.445 84.9742L101.555 86.9712ZM119.5 68C119.5 57.8604 111.558 49.5765 101.555 49.0288L101.445 51.0258C110.394 51.5158 117.5 58.9284 117.5 68H119.5ZM101.5 49V22H99.5V49H101.5ZM101.5 22C101.5 19.2386 99.2614 17 96.5 17V19C98.1569 19 99.5 20.3431 99.5 22H101.5ZM96.5 17L69.5 17V19L96.5 19V17ZM101.555 49.0288C101.533 49.0276 101.516 49.0187 101.506 49.0081C101.501 49.0033 101.5 49.0001 101.5 48.9999C101.5 48.9998 101.5 49.0001 101.5 49.0006C101.5 49.0012 101.5 49.0012 101.5 49H99.5C99.5 50.1183 100.399 50.9685 101.445 51.0258L101.555 49.0288ZM101.5 87C101.5 86.9988 101.5 86.9988 101.5 86.9994C101.5 86.9999 101.5 87.0002 101.5 87.0001C101.5 86.9999 101.501 86.9967 101.506 86.9919C101.516 86.9813 101.533 86.9724 101.555 86.9712L101.445 84.9742C100.399 85.0315 99.5 85.8817 99.5 87H101.5ZM31.5 119C31.5012 119 31.5012 119 31.5007 119C31.5001 119 31.4998 119 31.4999 119C31.5001 119 31.5033 119.001 31.5081 119.006C31.5187 119.016 31.5276 119.033 31.5288 119.055L33.5258 118.945C33.4685 117.899 32.6183 117 31.5 117V119ZM-0.5 49C-0.5 50.1183 0.399211 50.9685 1.44528 51.0258L1.55463 49.0288C1.53335 49.0276 1.5164 49.0187 1.506 49.0081C1.50127 49.0033 1.49985 49.0001 1.49977 48.9999C1.49974 48.9998 1.49987 49.0001 1.49998 49.0006C1.5001 49.0012 1.5 49.0012 1.5 49H-0.5ZM1.44528 84.9742C0.399214 85.0315 -0.5 85.8817 -0.5 87H1.5C1.5 86.9988 1.5001 86.9988 1.49998 86.9994C1.49987 86.9999 1.49974 87.0002 1.49977 87.0001C1.49985 86.9999 1.50127 86.9967 1.506 86.9919C1.5164 86.9813 1.53335 86.9724 1.55463 86.9712L1.44528 84.9742ZM31.5288 16.9454C31.5276 16.9667 31.5187 16.9836 31.5081 16.994C31.5033 16.9987 31.5001 17.0002 31.4999 17.0002C31.4998 17.0003 31.5001 17.0001 31.5007 17C31.5012 16.9999 31.5012 17 31.5 17V19C32.6183 19 33.4685 18.1008 33.5258 17.0547L31.5288 16.9454ZM69.4712 119.055C69.4724 119.033 69.4813 119.016 69.4919 119.006C69.4967 119.001 69.4999 119 69.5001 119C69.5002 119 69.4999 119 69.4994 119C69.4988 119 69.4988 119 69.5 119V117C68.3817 117 67.5315 117.899 67.4742 118.945L69.4712 119.055ZM67.4742 17.0547C67.5315 18.1008 68.3817 19 69.5 19V17C69.4988 17 69.4988 16.9999 69.4994 17C69.4999 17.0001 69.5002 17.0003 69.5001 17.0002C69.4999 17.0002 69.4967 16.9987 69.4919 16.994C69.4813 16.9836 69.4724 16.9667 69.4712 16.9454L67.4742 17.0547Z" fill="#374151" mask="url(#path-1-inside-1_576_10454)"/>
<path d="M33.2026 89.108C32.7306 89.108 32.3386 89.024 32.0266 88.856C31.7226 88.68 31.4906 88.42 31.3306 88.076C31.1786 87.732 31.1026 87.304 31.1026 86.792V83.576C31.1026 83.408 31.1426 83.284 31.2226 83.204C31.3106 83.124 31.4306 83.084 31.5826 83.084C31.7426 83.084 31.8626 83.124 31.9426 83.204C32.0306 83.284 32.0746 83.408 32.0746 83.576V86.78C32.0746 87.292 32.1786 87.676 32.3866 87.932C32.6026 88.18 32.9386 88.304 33.3946 88.304C33.8906 88.304 34.2946 88.136 34.6066 87.8C34.9186 87.464 35.0746 87.024 35.0746 86.48V83.576C35.0746 83.408 35.1146 83.284 35.1946 83.204C35.2826 83.124 35.4066 83.084 35.5666 83.084C35.7186 83.084 35.8346 83.124 35.9146 83.204C36.0026 83.284 36.0466 83.408 36.0466 83.576V88.58C36.0466 88.916 35.8906 89.084 35.5786 89.084C35.4266 89.084 35.3066 89.04 35.2186 88.952C35.1386 88.864 35.0986 88.74 35.0986 88.58V87.488L35.2546 87.656C35.0946 88.128 34.8306 88.488 34.4626 88.736C34.1026 88.984 33.6826 89.108 33.2026 89.108ZM38.3451 89.084C38.1851 89.084 38.0651 89.04 37.9851 88.952C37.9051 88.864 37.8651 88.74 37.8651 88.58V83.576C37.8651 83.416 37.9051 83.296 37.9851 83.216C38.0651 83.128 38.1811 83.084 38.3331 83.084C38.4851 83.084 38.6011 83.128 38.6811 83.216C38.7691 83.296 38.8131 83.416 38.8131 83.576V84.608L38.6811 84.464C38.8491 84 39.1211 83.652 39.4971 83.42C39.8811 83.18 40.3211 83.06 40.8171 83.06C41.2811 83.06 41.6651 83.144 41.9691 83.312C42.2811 83.48 42.5131 83.736 42.6651 84.08C42.8171 84.416 42.8931 84.844 42.8931 85.364V88.58C42.8931 88.74 42.8491 88.864 42.7611 88.952C42.6811 89.04 42.5651 89.084 42.4131 89.084C42.2531 89.084 42.1291 89.04 42.0411 88.952C41.9611 88.864 41.9211 88.74 41.9211 88.58V85.424C41.9211 84.88 41.8131 84.484 41.5971 84.236C41.3891 83.98 41.0531 83.852 40.5891 83.852C40.0531 83.852 39.6251 84.02 39.3051 84.356C38.9931 84.684 38.8371 85.124 38.8371 85.676V88.58C38.8371 88.916 38.6731 89.084 38.3451 89.084ZM47.6374 89.108C47.1094 89.108 46.6534 88.972 46.2694 88.7C45.8934 88.428 45.6414 88.064 45.5134 87.608L45.6454 87.476V88.58C45.6454 88.74 45.6014 88.864 45.5134 88.952C45.4334 89.04 45.3174 89.084 45.1654 89.084C45.0054 89.084 44.8854 89.04 44.8054 88.952C44.7254 88.864 44.6854 88.74 44.6854 88.58V80.948C44.6854 80.788 44.7254 80.668 44.8054 80.588C44.8854 80.5 45.0054 80.456 45.1654 80.456C45.3174 80.456 45.4374 80.5 45.5254 80.588C45.6134 80.668 45.6574 80.788 45.6574 80.948V84.524H45.5134C45.6494 84.076 45.9054 83.72 46.2814 83.456C46.6574 83.192 47.1094 83.06 47.6374 83.06C48.1654 83.06 48.6214 83.184 49.0054 83.432C49.3894 83.672 49.6854 84.02 49.8934 84.476C50.1094 84.924 50.2174 85.46 50.2174 86.084C50.2174 86.7 50.1094 87.236 49.8934 87.692C49.6854 88.14 49.3854 88.488 48.9934 88.736C48.6094 88.984 48.1574 89.108 47.6374 89.108ZM47.4334 88.328C47.8014 88.328 48.1174 88.24 48.3814 88.064C48.6534 87.888 48.8614 87.632 49.0054 87.296C49.1574 86.96 49.2334 86.556 49.2334 86.084C49.2334 85.356 49.0694 84.8 48.7414 84.416C48.4214 84.032 47.9854 83.84 47.4334 83.84C47.0734 83.84 46.7574 83.928 46.4854 84.104C46.2134 84.272 46.0014 84.524 45.8494 84.86C45.7054 85.188 45.6334 85.596 45.6334 86.084C45.6334 86.804 45.7974 87.36 46.1254 87.752C46.4534 88.136 46.8894 88.328 47.4334 88.328ZM53.7455 89.108C53.2735 89.108 52.8815 89.024 52.5695 88.856C52.2655 88.68 52.0335 88.42 51.8735 88.076C51.7215 87.732 51.6455 87.304 51.6455 86.792V83.576C51.6455 83.408 51.6855 83.284 51.7655 83.204C51.8535 83.124 51.9735 83.084 52.1255 83.084C52.2855 83.084 52.4055 83.124 52.4855 83.204C52.5735 83.284 52.6175 83.408 52.6175 83.576V86.78C52.6175 87.292 52.7215 87.676 52.9295 87.932C53.1455 88.18 53.4815 88.304 53.9375 88.304C54.4335 88.304 54.8375 88.136 55.1495 87.8C55.4615 87.464 55.6175 87.024 55.6175 86.48V83.576C55.6175 83.408 55.6575 83.284 55.7375 83.204C55.8255 83.124 55.9495 83.084 56.1095 83.084C56.2615 83.084 56.3775 83.124 56.4575 83.204C56.5455 83.284 56.5895 83.408 56.5895 83.576V88.58C56.5895 88.916 56.4335 89.084 56.1215 89.084C55.9695 89.084 55.8495 89.04 55.7615 88.952C55.6815 88.864 55.6415 88.74 55.6415 88.58V87.488L55.7975 87.656C55.6375 88.128 55.3735 88.488 55.0055 88.736C54.6455 88.984 54.2255 89.108 53.7455 89.108ZM58.8881 89.06C58.7281 89.06 58.6081 89.016 58.5281 88.928C58.4481 88.832 58.4081 88.7 58.4081 88.532V83.624C58.4081 83.456 58.4481 83.328 58.5281 83.24C58.6081 83.152 58.7281 83.108 58.8881 83.108C59.0401 83.108 59.1601 83.152 59.2481 83.24C59.3361 83.328 59.3801 83.456 59.3801 83.624V88.532C59.3801 88.7 59.3361 88.832 59.2481 88.928C59.1681 89.016 59.0481 89.06 58.8881 89.06ZM58.8881 81.764C58.6881 81.764 58.5321 81.712 58.4201 81.608C58.3081 81.496 58.2521 81.348 58.2521 81.164C58.2521 80.972 58.3081 80.828 58.4201 80.732C58.5321 80.628 58.6881 80.576 58.8881 80.576C59.0961 80.576 59.2521 80.628 59.3561 80.732C59.4681 80.828 59.5241 80.972 59.5241 81.164C59.5241 81.348 59.4681 81.496 59.3561 81.608C59.2521 81.712 59.0961 81.764 58.8881 81.764ZM62.9732 89.108C62.3972 89.108 61.9572 88.932 61.6532 88.58C61.3492 88.228 61.1972 87.724 61.1972 87.068V80.948C61.1972 80.788 61.2372 80.668 61.3172 80.588C61.3972 80.5 61.5172 80.456 61.6772 80.456C61.8292 80.456 61.9492 80.5 62.0372 80.588C62.1252 80.668 62.1692 80.788 62.1692 80.948V86.996C62.1692 87.428 62.2532 87.752 62.4212 87.968C62.5972 88.176 62.8532 88.28 63.1892 88.28C63.2612 88.28 63.3252 88.276 63.3812 88.268C63.4372 88.26 63.4932 88.256 63.5492 88.256C63.6372 88.248 63.6972 88.268 63.7292 88.316C63.7692 88.364 63.7892 88.46 63.7892 88.604C63.7892 88.748 63.7572 88.856 63.6932 88.928C63.6292 89 63.5252 89.048 63.3812 89.072C63.3172 89.08 63.2492 89.088 63.1772 89.096C63.1052 89.104 63.0372 89.108 62.9732 89.108ZM66.9093 89.108C66.3893 89.108 65.9333 88.984 65.5413 88.736C65.1573 88.488 64.8573 88.14 64.6413 87.692C64.4333 87.236 64.3293 86.7 64.3293 86.084C64.3293 85.46 64.4333 84.924 64.6413 84.476C64.8573 84.02 65.1573 83.672 65.5413 83.432C65.9333 83.184 66.3893 83.06 66.9093 83.06C67.4373 83.06 67.8893 83.192 68.2653 83.456C68.6413 83.72 68.8933 84.076 69.0213 84.524H68.8893V80.948C68.8893 80.788 68.9293 80.668 69.0093 80.588C69.0973 80.5 69.2213 80.456 69.3813 80.456C69.5333 80.456 69.6493 80.5 69.7293 80.588C69.8173 80.668 69.8613 80.788 69.8613 80.948V88.58C69.8613 88.74 69.8213 88.864 69.7413 88.952C69.6613 89.04 69.5413 89.084 69.3813 89.084C69.2293 89.084 69.1093 89.04 69.0213 88.952C68.9413 88.864 68.9013 88.74 68.9013 88.58V87.44L69.0333 87.608C68.9053 88.064 68.6493 88.428 68.2653 88.7C67.8893 88.972 67.4373 89.108 66.9093 89.108ZM67.1133 88.328C67.4733 88.328 67.7893 88.24 68.0613 88.064C68.3333 87.888 68.5413 87.632 68.6853 87.296C68.8373 86.96 68.9133 86.556 68.9133 86.084C68.9133 85.356 68.7493 84.8 68.4213 84.416C68.1013 84.032 67.6653 83.84 67.1133 83.84C66.7453 83.84 66.4253 83.928 66.1533 84.104C65.8893 84.272 65.6813 84.524 65.5293 84.86C65.3853 85.188 65.3133 85.596 65.3133 86.084C65.3133 86.804 65.4773 87.36 65.8053 87.752C66.1333 88.136 66.5693 88.328 67.1133 88.328Z" fill="#F9FAFB"/>
<g clip-path="url(#clip0_576_10454)">
<path d="M50.1806 45.0588L38.7706 50.941C38.5213 51.0875 38.4491 51.3063 38.4513 51.6235L38.4731 52.0194L50.5197 58.1969L62.5378 52.1178C62.5378 52.1178 62.5509 52.0566 62.5509 51.8422C62.5509 51.8422 62.54 51.56 62.4766 51.4288C62.4066 51.28 62.2578 51.1466 62.1616 51.0656C61.9056 50.8535 61.6497 50.6653 61.2144 50.4203C54.9734 46.8919 50.8697 45.0741 50.8697 45.0741C50.605 44.9756 50.3863 44.9406 50.1806 45.0588Z" fill="#DEA66C"/>
<path d="M38.6306 65.035C39.2956 65.4747 40.5097 66.0522 41.7369 66.7172C44.5894 68.2616 48.1944 70.1384 49.9881 70.8756C50.2309 70.9762 50.3753 71.0244 50.5438 71.0331C50.6684 71.0397 50.8741 70.9566 50.8741 70.9566C50.8741 70.9566 50.5394 58.8837 50.5197 58.1947C50.5 57.5209 50.2178 57.2978 49.9684 57.1359C49.5791 56.8866 48.7347 56.4972 48.7347 56.4972C48.7347 56.4972 45.7772 55.0272 42.8241 53.4784C41.4197 52.7412 40.2341 51.9866 38.9588 51.3653C38.7247 51.2537 38.4491 51.3937 38.4491 51.6562V64.7375C38.4491 64.8622 38.5256 64.9672 38.6306 65.035Z" fill="#B38251"/>
<path d="M62.2206 65.1116L50.8981 70.95C50.7166 71.0441 50.5 70.9128 50.5 70.7072L50.5197 58.1991C50.5197 58.0788 50.4825 57.8141 50.4453 57.7091C50.3425 57.4028 50.5656 57.2803 50.6662 57.23L61.8969 51.4463C62.1944 51.2931 62.5509 51.5097 62.5509 51.8444V64.5734C62.5509 64.7988 62.4241 65.0066 62.2206 65.1116Z" fill="#966239"/>
<path opacity="0.5" d="M57.1631 54.4103C57.1631 54.4103 50.9572 57.5843 50.8565 57.8534C50.7559 58.1203 55.7259 55.7315 56.3078 55.4318C56.9662 55.0928 62.1375 52.3278 62.1375 52.0237C62.1397 51.7743 57.1631 54.4103 57.1631 54.4103Z" fill="#212121"/>
<g opacity="0.5">
<path d="M39.3022 64.3109C40.1094 64.7178 40.91 65.1378 41.9075 65.6475V65.2581C40.9144 64.7506 40.1116 64.3328 39.3022 63.9215V64.3109ZM41.0019 64.4881C41.2294 64.604 41.3431 64.6631 41.5575 64.7725C41.5597 64.0943 41.5597 63.7553 41.5619 63.0772C41.3475 62.9678 41.2359 62.9109 41.0106 62.795C41.0062 63.4731 41.0041 63.81 41.0019 64.4881ZM39.5887 63.7618C39.7769 63.8581 39.8819 63.9128 40.0962 64.0222L40.1072 62.3334C39.8906 62.2219 39.7856 62.1694 39.5953 62.0687C39.5931 62.7469 39.5909 63.0859 39.5887 63.7618Z" fill="#212121"/>
<path d="M40.6453 62.8103C41.1637 63.075 41.4394 63.2172 41.8966 63.4491C41.6691 63.0356 41.5444 62.8256 41.295 62.4012C41.0391 62.5675 40.9056 62.6484 40.6453 62.8103ZM39.3022 62.1212C39.6894 62.3225 39.9497 62.4559 40.4616 62.7184C40.2078 62.2919 40.0809 62.0797 39.8469 61.6619C39.6084 61.8347 39.4969 61.9244 39.3022 62.1212Z" fill="#212121"/>
</g>
<g opacity="0.5">
<path d="M43.4584 66.1813C43.64 66.2753 43.7341 66.3256 43.9156 66.4197C43.9025 65.6147 43.8959 65.2122 43.8806 64.4072C43.7056 64.3153 43.6181 64.2694 43.4431 64.1797C43.4497 64.9803 43.4519 65.3806 43.4584 66.1813Z" fill="#212121"/>
<path d="M42.7912 66.0391C43.4562 66.3891 43.9725 66.6516 44.6112 66.9928C44.6069 66.7631 44.4297 66.4853 44.1891 66.3563C43.8128 66.1572 43.5984 66.0478 43.2178 65.8488C42.9728 65.7241 42.7912 65.8138 42.7912 66.0391ZM44.0578 63.7663L44.3378 64.3591C44.2503 64.545 44.2044 64.6391 44.1125 64.8228C44.1912 64.8163 44.2306 64.8141 44.3094 64.8075C44.4144 64.6675 44.4669 64.5975 44.5675 64.4575C44.4756 64.2409 44.4275 64.1316 44.3312 63.915C44.5981 64.0616 44.7294 64.1359 44.9722 64.2781C44.9722 65.0613 44.4603 65.4069 43.6903 65.0044C42.9203 64.6041 42.4106 63.7094 42.4106 62.9241C42.9837 63.2106 43.3687 63.3988 44.0578 63.7663Z" fill="#212121"/>
</g>
<path d="M58.5369 53.0759C58.4275 52.995 46.6828 46.8591 46.6828 46.8591L43.0385 48.7425L55.0806 54.9528L55.0872 54.9594L58.6113 53.1547C58.6113 53.1547 58.6047 53.1372 58.585 53.1153C58.5697 53.1022 58.5435 53.0825 58.5369 53.0759Z" fill="#FFE0B2"/>
<path d="M58.5937 53.1284C56.5987 54.1106 55.0806 54.9528 55.0806 54.9528C55.1309 55.0031 55.1331 55.0687 55.1331 55.1015C55.1266 55.3553 55.1222 55.5565 55.1156 55.8081C55.085 57.1097 55.0675 58.4134 55.0237 59.715C55.1703 59.6275 55.3475 59.82 55.4809 59.715C55.6866 59.5531 56.1241 58.84 56.1897 58.8181C56.2772 58.7897 56.3712 58.8115 56.4609 58.8072C56.8547 58.7853 57.7362 57.9825 57.9244 57.9453C58.1059 57.9103 58.7053 58.0262 58.7053 58.0262C58.7053 58.0262 58.6637 54.0559 58.6484 53.3887C58.6441 53.1525 58.5937 53.1284 58.5937 53.1284Z" fill="#BF9F85"/>
</g>
<defs>
<clipPath id="clip0_576_10454">
<rect width="28" height="28" fill="white" transform="translate(36.5 44)"/>
</clipPath>
</defs>
</svg>
