<svg width="118" height="136" viewBox="0 0 118 136" fill="none" xmlns="http://www.w3.org/2000/svg">
<mask id="path-1-inside-1_576_10454" fill="white">
<path fill-rule="evenodd" clip-rule="evenodd" d="M69 18C68.4477 18 68.0029 17.5515 67.9727 17C67.4538 7.52403 59.6056 0 50 0C40.3944 0 32.5462 7.52403 32.0273 17C31.9971 17.5515 31.5523 18 31 18L4 18C1.79086 18 0 19.7909 0 22L0 49C0 49.5523 0.448497 49.9971 0.999955 50.0273C10.476 50.5462 18 58.3944 18 68C18 77.6056 10.476 85.4538 0.999957 85.9727C0.448498 86.0029 0 86.4477 0 87L0 114C0 116.209 1.79086 118 4 118L31 118C31.5523 118 31.9971 118.448 32.0273 119C32.5462 128.476 40.3944 136 50 136C59.6056 136 67.4538 128.476 67.9727 119C68.0029 118.449 68.4477 118 69 118L96 118C98.2091 118 100 116.209 100 114V87C100 86.4477 100.448 86.0029 101 85.9727C110.476 85.4538 118 77.6056 118 68C118 58.3944 110.476 50.5462 101 50.0273C100.449 49.9971 100 49.5523 100 49V22C100 19.7909 98.2091 18 96 18L69 18Z"/>
</mask>
<path fill-rule="evenodd" clip-rule="evenodd" d="M69 18C68.4477 18 68.0029 17.5515 67.9727 17C67.4538 7.52403 59.6056 0 50 0C40.3944 0 32.5462 7.52403 32.0273 17C31.9971 17.5515 31.5523 18 31 18L4 18C1.79086 18 0 19.7909 0 22L0 49C0 49.5523 0.448497 49.9971 0.999955 50.0273C10.476 50.5462 18 58.3944 18 68C18 77.6056 10.476 85.4538 0.999957 85.9727C0.448498 86.0029 0 86.4477 0 87L0 114C0 116.209 1.79086 118 4 118L31 118C31.5523 118 31.9971 118.448 32.0273 119C32.5462 128.476 40.3944 136 50 136C59.6056 136 67.4538 128.476 67.9727 119C68.0029 118.449 68.4477 118 69 118L96 118C98.2091 118 100 116.209 100 114V87C100 86.4477 100.448 86.0029 101 85.9727C110.476 85.4538 118 77.6056 118 68C118 58.3944 110.476 50.5462 101 50.0273C100.449 49.9971 100 49.5523 100 49V22C100 19.7909 98.2091 18 96 18L69 18Z" fill="#374151" fill-opacity="0.4"/>
<path d="M100 22H101H100ZM101 50.0273L101.055 49.0288L101 50.0273ZM100 49H99H100ZM101 85.9727L100.945 84.9742L101 85.9727ZM32.0273 119L31.0288 119.055L32.0273 119ZM0.999957 85.9727L0.945284 84.9742L0.999957 85.9727ZM32.0273 17L31.0288 16.9454L32.0273 17ZM67.9727 119L68.9712 119.055L67.9727 119ZM67.9727 17L66.9742 17.0547L67.9727 17ZM50 1C59.0716 1 66.4842 8.10602 66.9742 17.0547L68.9712 16.9454C68.4235 6.94204 60.1396 -1 50 -1V1ZM33.0258 17.0547C33.5158 8.10603 40.9284 1 50 1V-1C39.8604 -1 31.5765 6.94204 31.0288 16.9454L33.0258 17.0547ZM31 17L4 17V19L31 19V17ZM4 17C1.23858 17 -1 19.2386 -1 22H1C1 20.3431 2.34315 19 4 19V17ZM-1 22L-1 49H1L1 22H-1ZM0.945282 51.0258C9.89397 51.5158 17 58.9284 17 68H19C19 57.8604 11.058 49.5765 1.05463 49.0288L0.945282 51.0258ZM17 68C17 77.0716 9.89398 84.4842 0.945284 84.9742L1.05463 86.9712C11.058 86.4235 19 78.1395 19 68H17ZM-1 87L-1 114H1L1 87H-1ZM-1 114C-1 116.761 1.23858 119 4 119V117C2.34315 117 1 115.657 1 114H-1ZM4 119L31 119V117L4 117V119ZM31.0288 119.055C31.5765 129.058 39.8604 137 50 137V135C40.9284 135 33.5158 127.894 33.0258 118.945L31.0288 119.055ZM50 137C60.1396 137 68.4235 129.058 68.9712 119.055L66.9742 118.945C66.4842 127.894 59.0716 135 50 135V137ZM69 119L96 119V117L69 117V119ZM96 119C98.7614 119 101 116.761 101 114H99C99 115.657 97.6569 117 96 117V119ZM101 114V87H99V114H101ZM101.055 86.9712C111.058 86.4235 119 78.1395 119 68H117C117 77.0716 109.894 84.4842 100.945 84.9742L101.055 86.9712ZM119 68C119 57.8604 111.058 49.5765 101.055 49.0288L100.945 51.0258C109.894 51.5158 117 58.9284 117 68H119ZM101 49V22H99V49H101ZM101 22C101 19.2386 98.7614 17 96 17V19C97.6569 19 99 20.3431 99 22H101ZM96 17L69 17V19L96 19V17ZM101.055 49.0288C101.033 49.0276 101.016 49.0187 101.006 49.0081C101.001 49.0033 101 49.0001 101 48.9999C101 48.9998 101 49.0001 101 49.0006C101 49.0012 101 49.0012 101 49H99C99 50.1183 99.8992 50.9685 100.945 51.0258L101.055 49.0288ZM101 87C101 86.9988 101 86.9988 101 86.9994C101 86.9999 101 87.0002 101 87.0001C101 86.9999 101.001 86.9967 101.006 86.9919C101.016 86.9813 101.033 86.9724 101.055 86.9712L100.945 84.9742C99.8992 85.0315 99 85.8817 99 87H101ZM31 119C31.0012 119 31.0012 119 31.0007 119C31.0001 119 30.9998 119 30.9999 119C31.0001 119 31.0033 119.001 31.0081 119.006C31.0187 119.016 31.0276 119.033 31.0288 119.055L33.0258 118.945C32.9685 117.899 32.1183 117 31 117V119ZM-1 49C-1 50.1183 -0.100789 50.9685 0.945282 51.0258L1.05463 49.0288C1.03335 49.0276 1.0164 49.0187 1.006 49.0081C1.00127 49.0033 0.999846 49.0001 0.999766 48.9999C0.999738 48.9998 0.999868 49.0001 0.999977 49.0006C1.0001 49.0012 1 49.0012 1 49H-1ZM0.945284 84.9742C-0.100786 85.0315 -1 85.8817 -1 87H1C1 86.9988 1.0001 86.9988 0.999977 86.9994C0.999868 86.9999 0.999738 87.0002 0.999766 87.0001C0.999846 86.9999 1.00127 86.9967 1.006 86.9919C1.0164 86.9813 1.03335 86.9724 1.05463 86.9712L0.945284 84.9742ZM31.0288 16.9454C31.0276 16.9667 31.0187 16.9836 31.0081 16.994C31.0033 16.9987 31.0001 17.0002 30.9999 17.0002C30.9998 17.0003 31.0001 17.0001 31.0007 17C31.0012 16.9999 31.0012 17 31 17V19C32.1183 19 32.9685 18.1008 33.0258 17.0547L31.0288 16.9454ZM68.9712 119.055C68.9724 119.033 68.9813 119.016 68.9919 119.006C68.9967 119.001 68.9999 119 69.0001 119C69.0002 119 68.9999 119 68.9994 119C68.9988 119 68.9988 119 69 119V117C67.8817 117 67.0315 117.899 66.9742 118.945L68.9712 119.055ZM66.9742 17.0547C67.0315 18.1008 67.8817 19 69 19V17C68.9988 17 68.9988 16.9999 68.9994 17C68.9999 17.0001 69.0002 17.0003 69.0001 17.0002C68.9999 17.0002 68.9967 16.9987 68.9919 16.994C68.9813 16.9836 68.9724 16.9667 68.9712 16.9454L66.9742 17.0547Z" fill="#374151" mask="url(#path-1-inside-1_576_10454)"/>
<path d="M26.9368 90.144C26.3074 90.144 25.7848 90.032 25.3688 89.808C24.9634 89.5733 24.6541 89.2267 24.4408 88.768C24.2381 88.3093 24.1368 87.7387 24.1368 87.056V82.768C24.1368 82.544 24.1901 82.3787 24.2968 82.272C24.4141 82.1653 24.5741 82.112 24.7768 82.112C24.9901 82.112 25.1501 82.1653 25.2568 82.272C25.3741 82.3787 25.4328 82.544 25.4328 82.768V87.04C25.4328 87.7227 25.5714 88.2347 25.8488 88.576C26.1368 88.9067 26.5848 89.072 27.1927 89.072C27.8541 89.072 28.3928 88.848 28.8088 88.4C29.2248 87.952 29.4328 87.3653 29.4328 86.64V82.768C29.4328 82.544 29.4861 82.3787 29.5928 82.272C29.7101 82.1653 29.8754 82.112 30.0888 82.112C30.2914 82.112 30.4461 82.1653 30.5528 82.272C30.6701 82.3787 30.7288 82.544 30.7288 82.768V89.44C30.7288 89.888 30.5208 90.112 30.1048 90.112C29.9021 90.112 29.7421 90.0533 29.6248 89.936C29.5181 89.8187 29.4648 89.6533 29.4648 89.44V87.984L29.6728 88.208C29.4594 88.8373 29.1074 89.3173 28.6168 89.648C28.1368 89.9787 27.5768 90.144 26.9368 90.144ZM33.7935 90.112C33.5802 90.112 33.4202 90.0533 33.3135 89.936C33.2068 89.8187 33.1535 89.6533 33.1535 89.44V82.768C33.1535 82.5547 33.2068 82.3947 33.3135 82.288C33.4202 82.1707 33.5748 82.112 33.7775 82.112C33.9802 82.112 34.1348 82.1707 34.2415 82.288C34.3588 82.3947 34.4175 82.5547 34.4175 82.768V84.144L34.2415 83.952C34.4655 83.3333 34.8282 82.8693 35.3295 82.56C35.8415 82.24 36.4282 82.08 37.0895 82.08C37.7082 82.08 38.2202 82.192 38.6255 82.416C39.0415 82.64 39.3508 82.9813 39.5535 83.44C39.7562 83.888 39.8575 84.4587 39.8575 85.152V89.44C39.8575 89.6533 39.7988 89.8187 39.6815 89.936C39.5748 90.0533 39.4202 90.112 39.2175 90.112C39.0042 90.112 38.8388 90.0533 38.7215 89.936C38.6148 89.8187 38.5615 89.6533 38.5615 89.44V85.232C38.5615 84.5067 38.4175 83.9787 38.1295 83.648C37.8522 83.3067 37.4042 83.136 36.7855 83.136C36.0708 83.136 35.5002 83.36 35.0735 83.808C34.6575 84.2453 34.4495 84.832 34.4495 85.568V89.44C34.4495 89.888 34.2308 90.112 33.7935 90.112ZM46.1833 90.144C45.4793 90.144 44.8713 89.9627 44.3593 89.6C43.8579 89.2373 43.5219 88.752 43.3513 88.144L43.5273 87.968V89.44C43.5273 89.6533 43.4686 89.8187 43.3513 89.936C43.2446 90.0533 43.0899 90.112 42.8873 90.112C42.6739 90.112 42.5139 90.0533 42.4073 89.936C42.3006 89.8187 42.2473 89.6533 42.2473 89.44V79.264C42.2473 79.0507 42.3006 78.8907 42.4073 78.784C42.5139 78.6667 42.6739 78.608 42.8873 78.608C43.0899 78.608 43.2499 78.6667 43.3673 78.784C43.4846 78.8907 43.5433 79.0507 43.5433 79.264V84.032H43.3513C43.5326 83.4347 43.8739 82.96 44.3753 82.608C44.8766 82.256 45.4793 82.08 46.1833 82.08C46.8873 82.08 47.4953 82.2453 48.0073 82.576C48.5193 82.896 48.9139 83.36 49.1913 83.968C49.4793 84.5653 49.6233 85.28 49.6233 86.112C49.6233 86.9333 49.4793 87.648 49.1913 88.256C48.9139 88.8533 48.5139 89.3173 47.9913 89.648C47.4793 89.9787 46.8766 90.144 46.1833 90.144ZM45.9113 89.104C46.4019 89.104 46.8233 88.9867 47.1753 88.752C47.5379 88.5173 47.8153 88.176 48.0073 87.728C48.2099 87.28 48.3113 86.7413 48.3113 86.112C48.3113 85.1413 48.0926 84.4 47.6553 83.888C47.2286 83.376 46.6473 83.12 45.9113 83.12C45.4313 83.12 45.0099 83.2373 44.6473 83.472C44.2846 83.696 44.0019 84.032 43.7993 84.48C43.6073 84.9173 43.5113 85.4613 43.5113 86.112C43.5113 87.072 43.7299 87.8133 44.1673 88.336C44.6046 88.848 45.1859 89.104 45.9113 89.104ZM54.3274 90.144C53.698 90.144 53.1754 90.032 52.7594 89.808C52.354 89.5733 52.0447 89.2267 51.8314 88.768C51.6287 88.3093 51.5274 87.7387 51.5274 87.056V82.768C51.5274 82.544 51.5807 82.3787 51.6874 82.272C51.8047 82.1653 51.9647 82.112 52.1674 82.112C52.3807 82.112 52.5407 82.1653 52.6474 82.272C52.7647 82.3787 52.8234 82.544 52.8234 82.768V87.04C52.8234 87.7227 52.962 88.2347 53.2394 88.576C53.5274 88.9067 53.9754 89.072 54.5834 89.072C55.2447 89.072 55.7834 88.848 56.1994 88.4C56.6154 87.952 56.8234 87.3653 56.8234 86.64V82.768C56.8234 82.544 56.8767 82.3787 56.9834 82.272C57.1007 82.1653 57.266 82.112 57.4794 82.112C57.682 82.112 57.8367 82.1653 57.9434 82.272C58.0607 82.3787 58.1194 82.544 58.1194 82.768V89.44C58.1194 89.888 57.9114 90.112 57.4954 90.112C57.2927 90.112 57.1327 90.0533 57.0154 89.936C56.9087 89.8187 56.8554 89.6533 56.8554 89.44V87.984L57.0634 88.208C56.85 88.8373 56.498 89.3173 56.0074 89.648C55.5274 89.9787 54.9674 90.144 54.3274 90.144ZM61.1841 90.08C60.9708 90.08 60.8108 90.0213 60.7041 89.904C60.5975 89.776 60.5441 89.6 60.5441 89.376V82.832C60.5441 82.608 60.5975 82.4373 60.7041 82.32C60.8108 82.2027 60.9708 82.144 61.1841 82.144C61.3868 82.144 61.5468 82.2027 61.6641 82.32C61.7815 82.4373 61.8401 82.608 61.8401 82.832V89.376C61.8401 89.6 61.7815 89.776 61.6641 89.904C61.5575 90.0213 61.3975 90.08 61.1841 90.08ZM61.1841 80.352C60.9175 80.352 60.7095 80.2827 60.5601 80.144C60.4108 79.9947 60.3361 79.7973 60.3361 79.552C60.3361 79.296 60.4108 79.104 60.5601 78.976C60.7095 78.8373 60.9175 78.768 61.1841 78.768C61.4615 78.768 61.6695 78.8373 61.8081 78.976C61.9575 79.104 62.0321 79.296 62.0321 79.552C62.0321 79.7973 61.9575 79.9947 61.8081 80.144C61.6695 80.2827 61.4615 80.352 61.1841 80.352ZM66.6309 90.144C65.8629 90.144 65.2762 89.9093 64.8709 89.44C64.4655 88.9707 64.2629 88.2987 64.2629 87.424V79.264C64.2629 79.0507 64.3162 78.8907 64.4229 78.784C64.5295 78.6667 64.6895 78.608 64.9029 78.608C65.1055 78.608 65.2655 78.6667 65.3829 78.784C65.5002 78.8907 65.5589 79.0507 65.5589 79.264V87.328C65.5589 87.904 65.6709 88.336 65.8949 88.624C66.1295 88.9013 66.4709 89.04 66.9189 89.04C67.0149 89.04 67.1002 89.0347 67.1749 89.024C67.2495 89.0133 67.3242 89.008 67.3989 89.008C67.5162 88.9973 67.5962 89.024 67.6389 89.088C67.6922 89.152 67.7189 89.28 67.7189 89.472C67.7189 89.664 67.6762 89.808 67.5909 89.904C67.5055 90 67.3669 90.064 67.1749 90.096C67.0895 90.1067 66.9989 90.1173 66.9029 90.128C66.8069 90.1387 66.7162 90.144 66.6309 90.144ZM71.8791 90.144C71.1858 90.144 70.5778 89.9787 70.0551 89.648C69.5431 89.3173 69.1431 88.8533 68.8551 88.256C68.5778 87.648 68.4391 86.9333 68.4391 86.112C68.4391 85.28 68.5778 84.5653 68.8551 83.968C69.1431 83.36 69.5431 82.896 70.0551 82.576C70.5778 82.2453 71.1858 82.08 71.8791 82.08C72.5831 82.08 73.1858 82.256 73.6871 82.608C74.1885 82.96 74.5245 83.4347 74.6951 84.032H74.5191V79.264C74.5191 79.0507 74.5725 78.8907 74.6791 78.784C74.7965 78.6667 74.9618 78.608 75.1751 78.608C75.3778 78.608 75.5325 78.6667 75.6391 78.784C75.7565 78.8907 75.8151 79.0507 75.8151 79.264V89.44C75.8151 89.6533 75.7618 89.8187 75.6551 89.936C75.5485 90.0533 75.3885 90.112 75.1751 90.112C74.9725 90.112 74.8125 90.0533 74.6951 89.936C74.5885 89.8187 74.5351 89.6533 74.5351 89.44V87.92L74.7111 88.144C74.5405 88.752 74.1991 89.2373 73.6871 89.6C73.1858 89.9627 72.5831 90.144 71.8791 90.144ZM72.1511 89.104C72.6311 89.104 73.0525 88.9867 73.4151 88.752C73.7778 88.5173 74.0551 88.176 74.2471 87.728C74.4498 87.28 74.5511 86.7413 74.5511 86.112C74.5511 85.1413 74.3325 84.4 73.8951 83.888C73.4685 83.376 72.8871 83.12 72.1511 83.12C71.6605 83.12 71.2338 83.2373 70.8711 83.472C70.5191 83.696 70.2418 84.032 70.0391 84.48C69.8471 84.9173 69.7511 85.4613 69.7511 86.112C69.7511 87.072 69.9698 87.8133 70.4071 88.336C70.8445 88.848 71.4258 89.104 72.1511 89.104Z" fill="#F9FAFB"/>
<g clip-path="url(#clip0_576_10454)">
<path d="M49.6806 45.0587L38.2706 50.9409C38.0213 51.0875 37.9491 51.3062 37.9513 51.6234L37.9731 52.0194L50.0197 58.1969L62.0378 52.1178C62.0378 52.1178 62.0509 52.0566 62.0509 51.8422C62.0509 51.8422 62.04 51.56 61.9766 51.4287C61.9066 51.28 61.7578 51.1466 61.6616 51.0656C61.4056 50.8534 61.1497 50.6653 60.7144 50.4203C54.4734 46.8919 50.3697 45.0741 50.3697 45.0741C50.105 44.9756 49.8863 44.9406 49.6806 45.0587Z" fill="#DEA66C"/>
<path d="M38.1306 65.035C38.7956 65.4747 40.0097 66.0522 41.2369 66.7172C44.0894 68.2616 47.6944 70.1384 49.4881 70.8756C49.7309 70.9762 49.8753 71.0244 50.0438 71.0331C50.1684 71.0397 50.3741 70.9566 50.3741 70.9566C50.3741 70.9566 50.0394 58.8837 50.0197 58.1947C50 57.5209 49.7178 57.2978 49.4684 57.1359C49.0791 56.8866 48.2347 56.4972 48.2347 56.4972C48.2347 56.4972 45.2772 55.0272 42.3241 53.4784C40.9197 52.7412 39.7341 51.9866 38.4588 51.3653C38.2247 51.2537 37.9491 51.3937 37.9491 51.6562V64.7375C37.9491 64.8622 38.0256 64.9672 38.1306 65.035Z" fill="#B38251"/>
<path d="M61.7206 65.1116L50.3981 70.95C50.2166 71.0441 50 70.9128 50 70.7072L50.0197 58.1991C50.0197 58.0788 49.9825 57.8141 49.9453 57.7091C49.8425 57.4028 50.0656 57.2803 50.1662 57.23L61.3969 51.4463C61.6944 51.2931 62.0509 51.5097 62.0509 51.8444V64.5734C62.0509 64.7987 61.9241 65.0066 61.7206 65.1116Z" fill="#966239"/>
<path opacity="0.5" d="M56.6631 54.4103C56.6631 54.4103 50.4572 57.5844 50.3566 57.8534C50.2559 58.1203 55.2259 55.7316 55.8078 55.4319C56.4663 55.0928 61.6375 52.3278 61.6375 52.0238C61.6397 51.7744 56.6631 54.4103 56.6631 54.4103Z" fill="#212121"/>
<g opacity="0.5">
<path d="M38.8022 64.3109C39.6094 64.7178 40.41 65.1378 41.4075 65.6475V65.2581C40.4144 64.7506 39.6116 64.3328 38.8022 63.9216V64.3109ZM40.5019 64.4881C40.7294 64.6041 40.8431 64.6631 41.0575 64.7725C41.0597 64.0944 41.0597 63.7553 41.0619 63.0772C40.8475 62.9678 40.7359 62.9109 40.5106 62.795C40.5062 63.4731 40.5041 63.81 40.5019 64.4881ZM39.0887 63.7619C39.2769 63.8581 39.3819 63.9128 39.5962 64.0222L39.6072 62.3334C39.3906 62.2219 39.2856 62.1694 39.0953 62.0687C39.0931 62.7469 39.0909 63.0859 39.0887 63.7619Z" fill="#212121"/>
<path d="M40.1453 62.8103C40.6637 63.075 40.9394 63.2172 41.3966 63.4491C41.1691 63.0356 41.0444 62.8256 40.795 62.4012C40.5391 62.5675 40.4056 62.6484 40.1453 62.8103ZM38.8022 62.1212C39.1894 62.3225 39.4497 62.4559 39.9616 62.7184C39.7078 62.2919 39.5809 62.0797 39.3469 61.6619C39.1084 61.8347 38.9969 61.9244 38.8022 62.1212Z" fill="#212121"/>
</g>
<g opacity="0.5">
<path d="M42.9584 66.1813C43.14 66.2753 43.2341 66.3256 43.4156 66.4197C43.4025 65.6147 43.3959 65.2122 43.3806 64.4072C43.2056 64.3153 43.1181 64.2694 42.9431 64.1797C42.9497 64.9803 42.9519 65.3806 42.9584 66.1813Z" fill="#212121"/>
<path d="M42.2913 66.0391C42.9563 66.3891 43.4725 66.6516 44.1113 66.9928C44.1069 66.7631 43.9297 66.4853 43.6891 66.3563C43.3128 66.1572 43.0984 66.0478 42.7178 65.8488C42.4728 65.7241 42.2913 65.8138 42.2913 66.0391ZM43.5578 63.7663L43.8378 64.3591C43.7503 64.545 43.7044 64.6391 43.6125 64.8228C43.6913 64.8163 43.7306 64.8141 43.8094 64.8075C43.9144 64.6675 43.9669 64.5975 44.0675 64.4575C43.9756 64.2409 43.9275 64.1316 43.8313 63.915C44.0981 64.0616 44.2294 64.1359 44.4722 64.2781C44.4722 65.0613 43.9603 65.4069 43.1903 65.0044C42.4203 64.6041 41.9106 63.7094 41.9106 62.9241C42.4838 63.2106 42.8688 63.3988 43.5578 63.7663Z" fill="#212121"/>
</g>
<path d="M58.0369 53.0759C57.9275 52.995 46.1828 46.8591 46.1828 46.8591L42.5384 48.7425L54.5806 54.9528L54.5872 54.9594L58.1112 53.1547C58.1112 53.1547 58.1047 53.1372 58.085 53.1153C58.0697 53.1022 58.0434 53.0825 58.0369 53.0759Z" fill="#FFE0B2"/>
<path d="M58.0937 53.1284C56.0987 54.1106 54.5806 54.9528 54.5806 54.9528C54.6309 55.0031 54.6331 55.0687 54.6331 55.1016C54.6266 55.3553 54.6222 55.5566 54.6156 55.8081C54.585 57.1097 54.5675 58.4134 54.5237 59.715C54.6703 59.6275 54.8475 59.82 54.9809 59.715C55.1866 59.5531 55.6241 58.84 55.6897 58.8181C55.7772 58.7897 55.8712 58.8116 55.9609 58.8072C56.3547 58.7853 57.2362 57.9825 57.4244 57.9453C57.6059 57.9103 58.2053 58.0262 58.2053 58.0262C58.2053 58.0262 58.1637 54.0559 58.1484 53.3887C58.1441 53.1525 58.0937 53.1284 58.0937 53.1284Z" fill="#BF9F85"/>
</g>
<defs>
<clipPath id="clip0_576_10454">
<rect width="28" height="28" fill="white" transform="translate(36 44)"/>
</clipPath>
</defs>
</svg>
