<svg width="100" height="118" viewBox="0 0 100 118" fill="none" xmlns="http://www.w3.org/2000/svg">
<mask id="path-1-inside-1_576_10453" fill="white">
<path fill-rule="evenodd" clip-rule="evenodd" d="M50 0C59.6056 0 67.4538 7.52403 67.9727 17C68.0029 17.5515 68.4477 18 69 18L96 18C98.2091 18 100 19.7909 100 22L100 49C100 49.5523 99.5515 49.9971 99 50.0273C89.524 50.5462 82 58.3944 82 68C82 77.6056 89.524 85.4538 99 85.9727C99.5515 86.0029 100 86.4477 100 87V114C100 116.209 98.2091 118 96 118L69 118C68.4477 118 68.0029 117.551 67.9727 117C67.4538 107.524 59.6056 100 50 100C40.3944 100 32.5462 107.524 32.0273 117C31.9971 117.552 31.5523 118 31 118H4C1.79086 118 0 116.209 0 114L0 87C0 86.4477 0.448498 86.0029 0.999957 85.9727C10.476 85.4538 18 77.6056 18 68C18 58.3944 10.476 50.5462 0.999955 50.0273C0.448497 49.9971 0 49.5523 0 49L0 22C0 19.7909 1.79086 18 4 18L31 18C31.5523 18 31.9971 17.5515 32.0273 17C32.5462 7.52403 40.3944 0 50 0Z"/>
</mask>
<path fill-rule="evenodd" clip-rule="evenodd" d="M50 0C59.6056 0 67.4538 7.52403 67.9727 17C68.0029 17.5515 68.4477 18 69 18L96 18C98.2091 18 100 19.7909 100 22L100 49C100 49.5523 99.5515 49.9971 99 50.0273C89.524 50.5462 82 58.3944 82 68C82 77.6056 89.524 85.4538 99 85.9727C99.5515 86.0029 100 86.4477 100 87V114C100 116.209 98.2091 118 96 118L69 118C68.4477 118 68.0029 117.551 67.9727 117C67.4538 107.524 59.6056 100 50 100C40.3944 100 32.5462 107.524 32.0273 117C31.9971 117.552 31.5523 118 31 118H4C1.79086 118 0 116.209 0 114L0 87C0 86.4477 0.448498 86.0029 0.999957 85.9727C10.476 85.4538 18 77.6056 18 68C18 58.3944 10.476 50.5462 0.999955 50.0273C0.448497 49.9971 0 49.5523 0 49L0 22C0 19.7909 1.79086 18 4 18L31 18C31.5523 18 31.9971 17.5515 32.0273 17C32.5462 7.52403 40.3944 0 50 0Z" fill="#374151" fill-opacity="0.4"/>
<path d="M100 22H99H100ZM100 114H99H100ZM0 22H-1H0ZM32.0273 17L33.0258 17.0547L32.0273 17ZM0.999957 85.9727L0.945284 84.9742L0.999957 85.9727ZM32.0273 117L31.0288 116.945L32.0273 117ZM99 85.9727L99.0547 84.9742L99 85.9727ZM67.9727 117L68.9712 116.945L67.9727 117ZM99 50.0273L98.9454 49.0288L99 50.0273ZM68.9712 16.9454C68.4235 6.94204 60.1396 -1 50 -1V1C59.0716 1 66.4842 8.10603 66.9742 17.0547L68.9712 16.9454ZM96 17L69 17V19L96 19V17ZM101 22C101 19.2386 98.7614 17 96 17V19C97.6569 19 99 20.3431 99 22L101 22ZM101 49L101 22L99 22L99 49H101ZM83 68C83 58.9284 90.106 51.5158 99.0547 51.0258L98.9454 49.0288C88.942 49.5765 81 57.8604 81 68H83ZM99.0547 84.9742C90.106 84.4842 83 77.0716 83 68H81C81 78.1395 88.942 86.4235 98.9454 86.9712L99.0547 84.9742ZM101 114V87H99V114H101ZM96 119C98.7614 119 101 116.761 101 114H99C99 115.657 97.6569 117 96 117V119ZM69 119L96 119V117L69 117V119ZM50 101C59.0716 101 66.4842 108.106 66.9742 117.055L68.9712 116.945C68.4235 106.942 60.1396 99 50 99V101ZM33.0258 117.055C33.5158 108.106 40.9284 101 50 101V99C39.8604 99 31.5765 106.942 31.0288 116.945L33.0258 117.055ZM4 119H31V117H4V119ZM-1 114C-1 116.761 1.23858 119 4 119V117C2.34315 117 1 115.657 1 114H-1ZM-1 87L-1 114H1L1 87H-1ZM17 68C17 77.0716 9.89398 84.4842 0.945284 84.9742L1.05463 86.9712C11.058 86.4235 19 78.1395 19 68H17ZM0.945282 51.0258C9.89397 51.5158 17 58.9284 17 68H19C19 57.8604 11.058 49.5765 1.05463 49.0288L0.945282 51.0258ZM-1 22L-1 49H1L1 22H-1ZM4 17C1.23858 17 -1 19.2386 -1 22H1C1 20.3431 2.34315 19 4 19L4 17ZM31 17L4 17L4 19L31 19V17ZM50 -1C39.8604 -1 31.5765 6.94204 31.0288 16.9454L33.0258 17.0547C33.5158 8.10602 40.9284 1 50 1V-1ZM31 19C32.1183 19 32.9685 18.1008 33.0258 17.0547L31.0288 16.9454C31.0276 16.9667 31.0187 16.9836 31.0081 16.994C31.0033 16.9987 31.0001 17.0002 30.9999 17.0002C30.9998 17.0003 31.0001 17.0001 31.0006 17C31.0012 16.9999 31.0012 17 31 17V19ZM1.05463 49.0288C1.03335 49.0276 1.0164 49.0187 1.006 49.0081C1.00127 49.0033 0.999846 49.0001 0.999766 48.9999C0.999738 48.9998 0.999868 49.0001 0.999977 49.0006C1.0001 49.0012 1 49.0012 1 49H-1C-1 50.1183 -0.100789 50.9685 0.945282 51.0258L1.05463 49.0288ZM1 87C1 86.9988 1.0001 86.9988 0.999977 86.9994C0.999868 86.9999 0.999738 87.0002 0.999766 87.0001C0.999846 86.9999 1.00127 86.9967 1.006 86.9919C1.0164 86.9813 1.03335 86.9724 1.05463 86.9712L0.945284 84.9742C-0.100786 85.0315 -1 85.8817 -1 87H1ZM66.9742 17.0547C67.0315 18.1008 67.8817 19 69 19V17C68.9988 17 68.9988 16.9999 68.9994 17C68.9999 17.0001 69.0002 17.0003 69.0001 17.0002C68.9999 17.0002 68.9967 16.9987 68.9919 16.994C68.9813 16.9836 68.9724 16.9667 68.9712 16.9454L66.9742 17.0547ZM31.0288 116.945C31.0276 116.967 31.0187 116.984 31.0081 116.994C31.0033 116.999 31.0001 117 30.9999 117C30.9998 117 31.0001 117 31.0007 117C31.0012 117 31.0012 117 31 117V119C32.1183 119 32.9685 118.101 33.0258 117.055L31.0288 116.945ZM98.9454 86.9712C98.9667 86.9724 98.9836 86.9813 98.994 86.9919C98.9987 86.9967 99.0002 86.9999 99.0002 87.0001C99.0003 87.0002 99.0001 86.9999 99 86.9994C98.9999 86.9988 99 86.9988 99 87H101C101 85.8817 100.101 85.0315 99.0547 84.9742L98.9454 86.9712ZM69 117C68.9988 117 68.9988 117 68.9994 117C68.9999 117 69.0002 117 69.0001 117C68.9999 117 68.9967 116.999 68.9919 116.994C68.9813 116.984 68.9724 116.967 68.9712 116.945L66.9742 117.055C67.0315 118.101 67.8817 119 69 119V117ZM99 49C99 49.0012 98.9999 49.0012 99 49.0006C99.0001 49.0001 99.0003 48.9998 99.0002 48.9999C99.0002 49.0001 98.9987 49.0033 98.994 49.0081C98.9836 49.0187 98.9667 49.0276 98.9454 49.0288L99.0547 51.0258C100.101 50.9685 101 50.1183 101 49H99Z" fill="#374151" mask="url(#path-1-inside-1_576_10453)"/>
<path d="M34.1555 90.144C33.5262 90.144 33.0035 90.032 32.5875 89.808C32.1822 89.5733 31.8728 89.2267 31.6595 88.768C31.4568 88.3093 31.3555 87.7387 31.3555 87.056V82.768C31.3555 82.544 31.4088 82.3787 31.5155 82.272C31.6328 82.1653 31.7928 82.112 31.9955 82.112C32.2088 82.112 32.3688 82.1653 32.4755 82.272C32.5928 82.3787 32.6515 82.544 32.6515 82.768V87.04C32.6515 87.7227 32.7902 88.2347 33.0675 88.576C33.3555 88.9067 33.8035 89.072 34.4115 89.072C35.0728 89.072 35.6115 88.848 36.0275 88.4C36.4435 87.952 36.6515 87.3653 36.6515 86.64V82.768C36.6515 82.544 36.7048 82.3787 36.8115 82.272C36.9288 82.1653 37.0942 82.112 37.3075 82.112C37.5102 82.112 37.6648 82.1653 37.7715 82.272C37.8888 82.3787 37.9475 82.544 37.9475 82.768V89.44C37.9475 89.888 37.7395 90.112 37.3235 90.112C37.1208 90.112 36.9608 90.0533 36.8435 89.936C36.7368 89.8187 36.6835 89.6533 36.6835 89.44V87.984L36.8915 88.208C36.6782 88.8373 36.3262 89.3173 35.8355 89.648C35.3555 89.9787 34.7955 90.144 34.1555 90.144ZM41.0123 90.112C40.7989 90.112 40.6389 90.0533 40.5323 89.936C40.4256 89.8187 40.3723 89.6533 40.3723 89.44V82.768C40.3723 82.5547 40.4256 82.3947 40.5323 82.288C40.6389 82.1707 40.7936 82.112 40.9963 82.112C41.1989 82.112 41.3536 82.1707 41.4603 82.288C41.5776 82.3947 41.6363 82.5547 41.6363 82.768V84.144L41.4603 83.952C41.6843 83.3333 42.0469 82.8693 42.5483 82.56C43.0603 82.24 43.6469 82.08 44.3083 82.08C44.9269 82.08 45.4389 82.192 45.8443 82.416C46.2603 82.64 46.5696 82.9813 46.7723 83.44C46.9749 83.888 47.0763 84.4587 47.0763 85.152V89.44C47.0763 89.6533 47.0176 89.8187 46.9003 89.936C46.7936 90.0533 46.6389 90.112 46.4363 90.112C46.2229 90.112 46.0576 90.0533 45.9403 89.936C45.8336 89.8187 45.7803 89.6533 45.7803 89.44V85.232C45.7803 84.5067 45.6363 83.9787 45.3483 83.648C45.0709 83.3067 44.6229 83.136 44.0043 83.136C43.2896 83.136 42.7189 83.36 42.2923 83.808C41.8763 84.2453 41.6683 84.832 41.6683 85.568V89.44C41.6683 89.888 41.4496 90.112 41.0123 90.112ZM52.762 90.144C51.9833 90.144 51.3113 89.9733 50.746 89.632C50.1807 89.2907 49.7433 88.816 49.434 88.208C49.1353 87.5893 48.986 86.8747 48.986 86.064C48.986 85.4453 49.0713 84.8907 49.242 84.4C49.4127 83.9093 49.6633 83.4933 49.994 83.152C50.3247 82.8 50.7193 82.5333 51.178 82.352C51.6473 82.1707 52.1753 82.08 52.762 82.08C53.146 82.08 53.546 82.1387 53.962 82.256C54.378 82.3733 54.7567 82.576 55.098 82.864C55.2047 82.9387 55.274 83.0293 55.306 83.136C55.338 83.2427 55.338 83.3493 55.306 83.456C55.274 83.552 55.2207 83.6373 55.146 83.712C55.0713 83.776 54.9753 83.8133 54.858 83.824C54.7513 83.8347 54.6393 83.7973 54.522 83.712C54.2447 83.4987 53.962 83.3493 53.674 83.264C53.386 83.1787 53.1087 83.136 52.842 83.136C52.426 83.136 52.0633 83.2053 51.754 83.344C51.4447 83.472 51.1833 83.6587 50.97 83.904C50.7567 84.1493 50.5913 84.4533 50.474 84.816C50.3673 85.1787 50.314 85.6 50.314 86.08C50.314 87.008 50.5327 87.744 50.97 88.288C51.4073 88.8213 52.0313 89.088 52.842 89.088C53.1087 89.088 53.3807 89.0453 53.658 88.96C53.946 88.8747 54.234 88.7253 54.522 88.512C54.6393 88.4267 54.7513 88.3893 54.858 88.4C54.9647 88.4107 55.0553 88.4533 55.13 88.528C55.2047 88.592 55.2527 88.6773 55.274 88.784C55.306 88.8907 55.306 88.9973 55.274 89.104C55.242 89.2 55.1727 89.2853 55.066 89.36C54.7247 89.6373 54.3513 89.84 53.946 89.968C53.5407 90.0853 53.146 90.144 52.762 90.144ZM59.9923 90.144C59.3843 90.144 58.8723 90.0373 58.4563 89.824C58.0509 89.6 57.7469 89.28 57.5443 88.864C57.3416 88.4373 57.2403 87.92 57.2403 87.312V83.232H56.1683C55.9869 83.232 55.8483 83.1893 55.7523 83.104C55.6562 83.008 55.6082 82.88 55.6082 82.72C55.6082 82.56 55.6562 82.4373 55.7523 82.352C55.8483 82.2667 55.9869 82.224 56.1683 82.224H57.2403V80.384C57.2403 80.1707 57.2989 80.0107 57.4163 79.904C57.5336 79.7867 57.6936 79.728 57.8963 79.728C58.0989 79.728 58.2536 79.7867 58.3603 79.904C58.4776 80.0107 58.5363 80.1707 58.5363 80.384V82.224H60.5523C60.7336 82.224 60.8723 82.2667 60.9683 82.352C61.0643 82.4373 61.1123 82.56 61.1123 82.72C61.1123 82.88 61.0643 83.008 60.9683 83.104C60.8723 83.1893 60.7336 83.232 60.5523 83.232H58.5363V87.184C58.5363 87.792 58.6643 88.256 58.9203 88.576C59.1763 88.8853 59.5923 89.04 60.1683 89.04C60.3709 89.04 60.5416 89.0187 60.6803 88.976C60.8296 88.9333 60.9523 88.912 61.0483 88.912C61.1443 88.9013 61.2243 88.9333 61.2883 89.008C61.3523 89.0827 61.3843 89.2107 61.3843 89.392C61.3843 89.52 61.3576 89.6373 61.3043 89.744C61.2616 89.8507 61.1816 89.9253 61.0643 89.968C60.9363 90.0107 60.7656 90.048 60.5523 90.08C60.3496 90.1227 60.1629 90.144 59.9923 90.144ZM62.6543 90.096C62.5156 90.096 62.3929 90.0533 62.2863 89.968C62.1796 89.8827 62.1209 89.7707 62.1103 89.632C62.1103 89.4827 62.1796 89.328 62.3183 89.168L65.1183 85.648V86.32L62.4943 83.04C62.3556 82.8693 62.2863 82.7147 62.2863 82.576C62.2969 82.4373 62.3556 82.3253 62.4622 82.24C62.5689 82.1547 62.6916 82.112 62.8303 82.112C62.9903 82.112 63.1236 82.144 63.2303 82.208C63.3476 82.2613 63.4543 82.352 63.5503 82.48L65.8383 85.376H65.3903L67.6943 82.48C67.7903 82.352 67.8916 82.2613 67.9983 82.208C68.1049 82.144 68.2383 82.112 68.3983 82.112C68.5476 82.112 68.6703 82.1547 68.7663 82.24C68.8729 82.3253 68.9263 82.4427 68.9263 82.592C68.9369 82.7307 68.8729 82.8853 68.7343 83.056L66.1263 86.288V85.696L68.9263 89.168C69.0543 89.328 69.1129 89.4827 69.1023 89.632C69.1023 89.7707 69.0489 89.8827 68.9423 89.968C68.8356 90.0533 68.7076 90.096 68.5583 90.096C68.4089 90.096 68.2756 90.064 68.1583 90C68.0516 89.9467 67.9449 89.856 67.8383 89.728L65.3743 86.624H65.8383L63.3743 89.728C63.2783 89.8453 63.1716 89.936 63.0543 90C62.9476 90.064 62.8143 90.096 62.6543 90.096Z" fill="#F9FAFB"/>
<path d="M54.06 47.0013L44.155 46.9138C44.155 46.9138 44.0631 47.3841 44.2534 47.8588C44.4284 48.2963 45.135 48.9263 45.135 48.9263L45.9641 50.7528L46.6466 55.0119L46.7778 56.2434C46.7778 56.2434 47.2634 57.1513 50.0087 57.1513C52.7541 57.1513 53.2331 56.2106 53.2331 56.2106L53.3272 55.4187L54.0906 51.0197L55.6175 48.3838C55.6175 48.3838 55.9522 48.1497 56.1469 47.6509C56.2825 47.3031 56.2103 46.8131 56.2103 46.87C56.2103 46.9269 54.06 47.0013 54.06 47.0013Z" fill="#E27F13"/>
<path d="M50.1837 51.6169C52.4084 51.63 53.4825 51.49 54.1366 51.0306C54.6288 50.685 54.8694 50.2934 55.2041 49.7356C55.6678 48.9634 55.6481 48.3706 55.6481 48.3706C55.6481 48.3706 53.7931 49.3266 50.1247 49.2784C46.5241 49.2325 44.5925 48.375 44.5925 48.375C44.5925 48.375 44.7675 49.2238 45.0584 49.775C45.3953 50.4094 46.01 50.8119 46.01 50.8119C46.01 50.8119 47.1759 51.5994 50.1837 51.6169ZM46.3928 51.8028C46.6137 51.8838 46.8434 51.9603 46.8434 51.9603L47.1716 55.8694C47.1716 55.8694 46.5831 55.6703 46.5153 55.4603C46.4759 55.34 46.2922 54.0428 46.1609 52.9884C46.0909 52.4241 46.0275 52.0434 46.01 51.8422C45.9903 51.6234 46.185 51.7263 46.3928 51.8028ZM48.7575 52.3541C48.0137 52.26 47.4209 52.1353 47.4209 52.1353C47.4319 52.2163 47.7009 55.9941 47.7009 55.9941C47.7009 55.9941 47.9897 56.1778 48.8012 56.2784L48.7575 52.3541ZM50.7022 52.4175C50.1487 52.4481 49.5319 52.4088 49.3262 52.4022L49.3087 56.3244C49.5231 56.3375 49.7594 56.3441 50.0241 56.3419C50.2516 56.3397 50.4659 56.3266 50.6737 56.3091L50.7022 52.4175ZM53.2484 52.1638C53.1434 53.0563 52.9225 54.99 52.835 55.7884C53.2484 55.6375 53.4125 55.5588 53.4672 55.3509C53.5219 55.1431 53.9528 52.1725 53.9637 52.0106C53.9725 51.9078 53.9244 51.8903 53.6575 52.0019C53.4891 52.0763 53.4081 52.1069 53.2484 52.1638ZM52.7256 52.2447C52.345 52.3081 51.8441 52.3716 51.2534 52.4197L51.1812 56.2456C51.6581 56.1669 52.065 56.0509 52.3975 55.9284C52.4872 55.0053 52.6666 52.9731 52.7256 52.2447Z" fill="#F5B03E"/>
<path d="M48.6066 33.4256C48.8559 33.4037 48.5759 32.3559 49.2038 32.3428C50.0634 32.3231 49.8184 33.6444 49.4269 34.0425C48.39 35.0991 46.7691 34.8956 46.3841 36.6194C46.1325 37.7416 47.27 38.1441 47.27 38.1441C47.27 38.1441 45.3931 38.0369 44.5181 39.8678C43.8028 41.3663 44.6669 42.4075 44.6669 42.4075C44.6669 42.4075 43.6759 42.5956 43.2669 44.0131C42.7441 45.8244 44.2556 47.0188 44.2556 47.0188L50.7547 47.5416L57.1225 44.6103L57.0853 43.1731C57.0853 43.1731 56.7922 42.7509 56.5034 42.4972C56.1819 42.215 55.8341 41.9831 55.8341 41.9831L56.2431 40.0734C56.2431 40.0734 56.3088 38.9075 54.7141 37.7022C53.9988 37.1597 53.2222 37.0087 53.2222 37.0087C53.2222 37.0087 52.7672 34.2853 52.6753 34.0994C52.5813 33.9134 51.5553 32.2684 51.3672 32.1569C51.1813 32.0453 49.895 30.9166 49.895 30.9166C49.895 30.9166 48.9763 30.6059 48.3594 31.3912C47.7425 32.1766 47.9525 33.4825 48.6066 33.4256Z" fill="#FFEBCA"/>
<path d="M51.3147 36.1534C50.0066 37.9078 47.2656 38.1419 47.2656 38.1419C47.2656 38.1419 48.1406 38.75 50.7525 38.5444C53.4825 38.33 54.1147 37.1072 54.0775 35.7619C54.0403 34.4166 53.1084 32.9925 51.7325 31.8637C50.4441 30.8094 49.4706 30.8641 49.4706 30.8641C49.4706 30.8641 50.5031 31.1769 51.2863 32.2422C52.1131 33.3644 52.0584 35.1537 51.3147 36.1534ZM44.6669 42.4053C44.6669 42.4053 46.4781 43.4203 50.7547 43.3809C54.7688 43.3437 55.8909 42.0356 55.8909 42.0356C55.8909 42.0356 56.3481 41.4122 56.3109 40.3666C56.2738 39.2772 55.6634 38.6472 55.6634 38.6472C55.6634 38.6472 54.5281 40.1128 52.9969 40.9725C51.4656 41.8322 48.5125 42.2259 47.1519 42.3178C45.7694 42.4075 44.6669 42.4053 44.6669 42.4053ZM57.0853 43.1731C57.0853 43.1731 57.6847 43.8447 57.4769 44.9275C57.2341 46.1984 56.2256 47.0559 56.2256 47.0559C56.2256 47.0559 55.1603 48.1234 49.8972 48.1628C45.1897 48.1978 44.1747 46.9487 44.1747 46.9487C44.1747 46.9487 49.0791 47.1566 52.3166 46.0628C55.0422 45.1441 55.6109 44.7722 56.4334 43.9519C56.7156 43.6719 57.0853 43.1731 57.0853 43.1731Z" fill="#EAC084"/>
<path d="M44.3869 46.0431C44.7872 45.9972 44.5619 44.8706 45.0519 44.2341C45.5441 43.5975 45.7716 43.4159 45.6644 43.1666C45.5594 42.9172 44.5291 42.8866 44.0828 43.9913C43.7131 44.9122 44.0719 46.0781 44.3869 46.0431ZM47.865 38.9731C47.8869 39.3734 47.1606 39.2838 46.3513 40.2812C45.695 41.0906 45.7847 41.9372 45.3822 41.9766C44.9819 42.0138 44.82 40.5962 45.3603 39.7912C46.1238 38.6494 47.8344 38.4525 47.865 38.9731ZM49.5472 34.9263C49.7003 35.0225 49.5013 35.4556 48.8144 35.9784C47.9963 36.5997 47.6944 37.0897 47.3925 37.0066C47.1716 36.9453 46.9616 36.4772 47.4078 35.9631C47.7491 35.5694 48.4184 35.3878 48.74 35.2369C49.2059 35.0159 49.4028 34.8344 49.5472 34.9263Z" fill="white"/>
</svg>
