<svg width="118" height="118" viewBox="0 0 118 118" fill="none" xmlns="http://www.w3.org/2000/svg">
<mask id="path-1-inside-1_576_10452" fill="white">
<path fill-rule="evenodd" clip-rule="evenodd" d="M68 18C77.6056 18 85.4538 10.476 85.9727 0.999955C86.0029 0.448497 86.4477 0 87 0L114 0C116.209 0 118 1.79086 118 4V30C118 30.5523 117.551 30.9971 117 31.0273C107.524 31.5462 100 39.3944 100 49C100 58.6056 107.524 66.4538 117 66.9727C117.552 67.0029 118 67.4477 118 68L118 96C118 98.2091 116.209 100 114 100H87C86.4477 100 86.0029 100.449 85.9727 101C85.4538 110.476 77.6056 118 68 118C58.3944 118 50.5462 110.476 50.0273 101C49.9971 100.448 49.5523 100 49 100L22 100C19.7909 100 18 98.2091 18 96L18 69C18 68.4477 17.5515 68.0029 17 67.9727C7.52403 67.4538 0 59.6056 0 50C0 40.3944 7.52403 32.5462 17 32.0273C17.5515 31.9971 18 31.5523 18 31L18 4C18 1.79086 19.7909 0 22 0L49 0C49.5523 0 49.9971 0.448498 50.0273 0.999957C50.5462 10.476 58.3944 18 68 18Z"/>
</mask>
<path fill-rule="evenodd" clip-rule="evenodd" d="M68 18C77.6056 18 85.4538 10.476 85.9727 0.999955C86.0029 0.448497 86.4477 0 87 0L114 0C116.209 0 118 1.79086 118 4V30C118 30.5523 117.551 30.9971 117 31.0273C107.524 31.5462 100 39.3944 100 49C100 58.6056 107.524 66.4538 117 66.9727C117.552 67.0029 118 67.4477 118 68L118 96C118 98.2091 116.209 100 114 100H87C86.4477 100 86.0029 100.449 85.9727 101C85.4538 110.476 77.6056 118 68 118C58.3944 118 50.5462 110.476 50.0273 101C49.9971 100.448 49.5523 100 49 100L22 100C19.7909 100 18 98.2091 18 96L18 69C18 68.4477 17.5515 68.0029 17 67.9727C7.52403 67.4538 0 59.6056 0 50C0 40.3944 7.52403 32.5462 17 32.0273C17.5515 31.9971 18 31.5523 18 31L18 4C18 1.79086 19.7909 0 22 0L49 0C49.5523 0 49.9971 0.448498 50.0273 0.999957C50.5462 10.476 58.3944 18 68 18Z" fill="#374151" fill-opacity="0.4"/>
<path d="M18 96H17H18ZM18 4L17 4L18 4ZM50.0273 0.999957L51.0258 0.945284L50.0273 0.999957ZM17 32.0273L16.9454 31.0288L17 32.0273ZM18 31H17H18ZM18 69H17H18ZM17 67.9727L16.9454 68.9712L17 67.9727ZM50.0273 101L49.0288 101.055L50.0273 101ZM117 66.9727L117.055 65.9742L117 66.9727ZM85.9727 101L86.9712 101.055L85.9727 101ZM117 31.0273L117.055 32.0258L117 31.0273ZM84.9742 0.945282C84.4842 9.89397 77.0716 17 68 17V19C78.1395 19 86.4235 11.058 86.9712 1.05463L84.9742 0.945282ZM114 -1L87 -1V1L114 1V-1ZM119 4C119 1.23858 116.761 -1 114 -1V1C115.657 1 117 2.34315 117 4H119ZM119 30V4H117V30H119ZM101 49C101 39.9284 108.106 32.5158 117.055 32.0258L116.945 30.0288C106.942 30.5765 99 38.8604 99 49H101ZM117.055 65.9742C108.106 65.4842 101 58.0716 101 49H99C99 59.1396 106.942 67.4235 116.945 67.9712L117.055 65.9742ZM119 96L119 68H117L117 96H119ZM114 101C116.761 101 119 98.7614 119 96H117C117 97.6569 115.657 99 114 99V101ZM87 101H114V99H87V101ZM68 119C78.1395 119 86.4235 111.058 86.9712 101.055L84.9742 100.945C84.4842 109.894 77.0716 117 68 117V119ZM49.0288 101.055C49.5765 111.058 57.8604 119 68 119V117C58.9284 117 51.5158 109.894 51.0258 100.945L49.0288 101.055ZM22 101L49 101V99L22 99L22 101ZM17 96C17 98.7614 19.2386 101 22 101L22 99C20.3431 99 19 97.6569 19 96H17ZM17 69L17 96H19L19 69H17ZM17.0547 66.9742C8.10603 66.4842 1 59.0716 1 50H-1C-1 60.1396 6.94204 68.4235 16.9454 68.9712L17.0547 66.9742ZM1 50C1 40.9284 8.10602 33.5158 17.0547 33.0258L16.9454 31.0288C6.94204 31.5765 -1 39.8604 -1 50H1ZM17 4L17 31H19L19 4L17 4ZM22 -1C19.2386 -1 17 1.23858 17 4L19 4C19 2.34315 20.3431 1 22 1V-1ZM49 -1L22 -1V1L49 1V-1ZM68 17C58.9284 17 51.5158 9.89398 51.0258 0.945284L49.0288 1.05463C49.5765 11.058 57.8604 19 68 19V17ZM49 1C49.0012 1 49.0012 1.0001 49.0006 0.999977C49.0001 0.999868 48.9998 0.999738 48.9999 0.999766C49.0001 0.999846 49.0033 1.00127 49.0081 1.006C49.0187 1.0164 49.0276 1.03335 49.0288 1.05463L51.0258 0.945284C50.9685 -0.100786 50.1183 -1 49 -1V1ZM17.0547 33.0258C18.1008 32.9685 19 32.1183 19 31H17C17 31.0012 16.9999 31.0012 17 31.0007C17.0001 31.0001 17.0003 30.9998 17.0002 30.9999C17.0002 31.0001 16.9987 31.0033 16.994 31.0081C16.9836 31.0187 16.9667 31.0276 16.9454 31.0288L17.0547 33.0258ZM19 69C19 67.8817 18.1008 67.0315 17.0547 66.9742L16.9454 68.9712C16.9667 68.9724 16.9836 68.9813 16.994 68.9919C16.9987 68.9967 17.0002 68.9999 17.0002 69.0001C17.0003 69.0002 17.0001 68.9999 17 68.9994C16.9999 68.9988 17 68.9988 17 69H19ZM86.9712 1.05463C86.9724 1.03335 86.9813 1.0164 86.9919 1.006C86.9967 1.00127 86.9999 0.999846 87.0001 0.999766C87.0002 0.999738 86.9999 0.999868 86.9994 0.999977C86.9988 1.0001 86.9988 1 87 1V-1C85.8817 -1 85.0315 -0.100789 84.9742 0.945282L86.9712 1.05463ZM51.0258 100.945C50.9685 99.8992 50.1183 99 49 99V101C49.0012 101 49.0012 101 49.0006 101C49.0001 101 48.9998 101 48.9999 101C49.0001 101 49.0033 101.001 49.0081 101.006C49.0187 101.016 49.0276 101.033 49.0288 101.055L51.0258 100.945ZM116.945 67.9712C116.967 67.9724 116.984 67.9813 116.994 67.9919C116.999 67.9967 117 67.9999 117 68.0001C117 68.0002 117 67.9999 117 67.9994C117 67.9988 117 67.9988 117 68H119C119 66.8817 118.101 66.0315 117.055 65.9742L116.945 67.9712ZM87 99C85.8817 99 85.0315 99.8992 84.9742 100.945L86.9712 101.055C86.9724 101.033 86.9813 101.016 86.9919 101.006C86.9967 101.001 86.9999 101 87.0001 101C87.0002 101 86.9999 101 86.9994 101C86.9988 101 86.9988 101 87 101V99ZM117 30C117 30.0012 117 30.0012 117 30.0006C117 30.0001 117 29.9998 117 29.9999C117 30.0001 116.999 30.0033 116.994 30.0081C116.984 30.0187 116.967 30.0276 116.945 30.0288L117.055 32.0258C118.101 31.9685 119 31.1183 119 30H117Z" fill="#374151" mask="url(#path-1-inside-1_576_10452)"/>
<path d="M50.0539 72.144C49.4246 72.144 48.9019 72.032 48.4859 71.808C48.0806 71.5733 47.7713 71.2267 47.5579 70.768C47.3553 70.3093 47.2539 69.7387 47.2539 69.056V64.768C47.2539 64.544 47.3073 64.3787 47.4139 64.272C47.5313 64.1653 47.6913 64.112 47.8939 64.112C48.1073 64.112 48.2673 64.1653 48.3739 64.272C48.4913 64.3787 48.5499 64.544 48.5499 64.768V69.04C48.5499 69.7227 48.6886 70.2347 48.9659 70.576C49.2539 70.9067 49.7019 71.072 50.3099 71.072C50.9713 71.072 51.5099 70.848 51.9259 70.4C52.3419 69.952 52.5499 69.3653 52.5499 68.64V64.768C52.5499 64.544 52.6033 64.3787 52.7099 64.272C52.8273 64.1653 52.9926 64.112 53.2059 64.112C53.4086 64.112 53.5633 64.1653 53.6699 64.272C53.7873 64.3787 53.8459 64.544 53.8459 64.768V71.44C53.8459 71.888 53.6379 72.112 53.2219 72.112C53.0193 72.112 52.8593 72.0533 52.7419 71.936C52.6353 71.8187 52.5819 71.6533 52.5819 71.44V69.984L52.7899 70.208C52.5766 70.8373 52.2246 71.3173 51.7339 71.648C51.2539 71.9787 50.6939 72.144 50.0539 72.144ZM56.9107 72.112C56.6974 72.112 56.5374 72.0533 56.4307 71.936C56.324 71.8187 56.2707 71.6533 56.2707 71.44V64.768C56.2707 64.5547 56.324 64.3947 56.4307 64.288C56.5374 64.1707 56.692 64.112 56.8947 64.112C57.0974 64.112 57.252 64.1707 57.3587 64.288C57.476 64.3947 57.5347 64.5547 57.5347 64.768V66.144L57.3587 65.952C57.5827 65.3333 57.9454 64.8693 58.4467 64.56C58.9587 64.24 59.5454 64.08 60.2067 64.08C60.8254 64.08 61.3374 64.192 61.7427 64.416C62.1587 64.64 62.468 64.9813 62.6707 65.44C62.8734 65.888 62.9747 66.4587 62.9747 67.152V71.44C62.9747 71.6533 62.916 71.8187 62.7987 71.936C62.692 72.0533 62.5374 72.112 62.3347 72.112C62.1214 72.112 61.956 72.0533 61.8387 71.936C61.732 71.8187 61.6787 71.6533 61.6787 71.44V67.232C61.6787 66.5067 61.5347 65.9787 61.2467 65.648C60.9694 65.3067 60.5214 65.136 59.9027 65.136C59.188 65.136 58.6174 65.36 58.1907 65.808C57.7747 66.2453 57.5667 66.832 57.5667 67.568V71.44C57.5667 71.888 57.348 72.112 56.9107 72.112ZM68.8684 72.144C68.0471 72.144 67.3378 71.984 66.7404 71.664C66.1538 71.3333 65.6951 70.8693 65.3644 70.272C65.0444 69.6747 64.8844 68.96 64.8844 68.128C64.8844 67.3173 65.0444 66.6133 65.3644 66.016C65.6844 65.408 66.1218 64.9333 66.6764 64.592C67.2418 64.2507 67.8924 64.08 68.6284 64.08C69.1511 64.08 69.6204 64.1707 70.0364 64.352C70.4524 64.5227 70.8044 64.7733 71.0924 65.104C71.3911 65.4347 71.6151 65.8347 71.7644 66.304C71.9244 66.7733 72.0044 67.3013 72.0044 67.888C72.0044 68.0587 71.9564 68.1867 71.8604 68.272C71.7644 68.3467 71.6258 68.384 71.4444 68.384H65.8764V67.536H71.1404L70.8844 67.744C70.8844 67.168 70.7991 66.6827 70.6284 66.288C70.4578 65.8827 70.2071 65.5733 69.8764 65.36C69.5564 65.1467 69.1511 65.04 68.6604 65.04C68.1164 65.04 67.6524 65.168 67.2684 65.424C66.8951 65.6693 66.6124 66.016 66.4204 66.464C66.2284 66.9013 66.1324 67.4133 66.1324 68V68.096C66.1324 69.0773 66.3671 69.824 66.8364 70.336C67.3164 70.848 67.9938 71.104 68.8684 71.104C69.2311 71.104 69.5884 71.056 69.9404 70.96C70.3031 70.864 70.6551 70.704 70.9964 70.48C71.1458 70.384 71.2791 70.3413 71.3964 70.352C71.5244 70.352 71.6258 70.3893 71.7004 70.464C71.7751 70.528 71.8231 70.6133 71.8444 70.72C71.8764 70.816 71.8658 70.9227 71.8124 71.04C71.7698 71.1573 71.6791 71.2587 71.5404 71.344C71.1884 71.6 70.7724 71.7973 70.2924 71.936C69.8124 72.0747 69.3378 72.144 68.8684 72.144ZM74.5201 72.112C74.3067 72.112 74.1467 72.0533 74.0401 71.936C73.9334 71.8187 73.8801 71.6533 73.8801 71.44V64.768C73.8801 64.5547 73.9334 64.3947 74.0401 64.288C74.1467 64.1707 74.3014 64.112 74.5041 64.112C74.7067 64.112 74.8614 64.1707 74.9681 64.288C75.0854 64.3947 75.1441 64.5547 75.1441 64.768V66.144L74.9681 65.952C75.1921 65.3333 75.5547 64.8693 76.0561 64.56C76.5681 64.24 77.1547 64.08 77.8161 64.08C78.4347 64.08 78.9467 64.192 79.3521 64.416C79.7681 64.64 80.0774 64.9813 80.2801 65.44C80.4827 65.888 80.5841 66.4587 80.5841 67.152V71.44C80.5841 71.6533 80.5254 71.8187 80.4081 71.936C80.3014 72.0533 80.1467 72.112 79.9441 72.112C79.7307 72.112 79.5654 72.0533 79.4481 71.936C79.3414 71.8187 79.2881 71.6533 79.2881 71.44V67.232C79.2881 66.5067 79.1441 65.9787 78.8561 65.648C78.5787 65.3067 78.1307 65.136 77.5121 65.136C76.7974 65.136 76.2267 65.36 75.8001 65.808C75.3841 66.2453 75.1761 66.832 75.1761 67.568V71.44C75.1761 71.888 74.9574 72.112 74.5201 72.112ZM85.7917 72.112C85.6104 72.112 85.4504 72.064 85.3117 71.968C85.173 71.8613 85.0557 71.7013 84.9597 71.488L82.1917 65.024C82.117 64.864 82.0904 64.7147 82.1117 64.576C82.133 64.4373 82.197 64.3253 82.3037 64.24C82.4104 64.1547 82.5597 64.112 82.7517 64.112C82.9224 64.112 83.0557 64.1493 83.1517 64.224C83.2477 64.2987 83.333 64.432 83.4077 64.624L86.0317 71.04H85.5997L88.2717 64.624C88.3464 64.432 88.4317 64.2987 88.5277 64.224C88.6237 64.1493 88.7624 64.112 88.9437 64.112C89.1144 64.112 89.2424 64.1547 89.3277 64.24C89.4237 64.3253 89.477 64.4373 89.4877 64.576C89.509 64.704 89.4877 64.848 89.4237 65.008L86.6237 71.488C86.549 71.7013 86.437 71.8613 86.2877 71.968C86.149 72.064 85.9837 72.112 85.7917 72.112Z" fill="#F9FAFB"/>
<path d="M57.2966 37.5347C57.2966 37.5347 58.3663 37.2591 58.7688 37.2678C59.2763 37.2787 59.8559 37.4209 60.1644 37.6069C60.4728 37.7906 61.6213 37.5194 61.6213 37.5194C61.6213 37.5194 62.2841 37.5653 62.0522 37.0731C61.9384 36.8303 60.72 36.4628 59.9894 36.3491C59.0356 36.2003 57.7253 36.5175 57.7253 36.5175C57.7253 36.5175 57.6334 35.3887 57.3709 34.7937C57.2222 34.4525 56.7081 33.315 56.2619 32.8534C55.9709 32.5516 55.5553 32.2256 55.1988 32.4225C54.7525 32.6697 55.2447 33.5316 55.6297 34.1616C56.0147 34.7916 56.5878 35.4631 56.7847 36.01C56.9269 36.395 57.2966 37.5347 57.2966 37.5347Z" fill="#6B7E37"/>
<path d="M58.7666 34.9556C58.7666 34.9556 59.2434 33.8006 59.32 33.2472C59.3966 32.6938 59.4272 31.6919 59.2281 31.1538C59.0969 30.8016 58.8431 30.5522 58.5347 30.6922C58.3509 30.7753 57.9441 31.2391 58.0731 32.1403C58.1956 33.0022 58.2897 33.6803 58.2897 34.3431C58.2897 34.7894 58.2131 35.3756 58.2131 35.3756L58.7666 34.9556ZM58.3597 35.8263C58.3597 35.8263 58.9919 35.7038 59.7291 35.7191C60.4663 35.7344 61.9472 36.0581 62.8244 36.0275C63.7016 35.9969 63.8416 35.5813 63.5944 35.2575C63.3472 34.9338 62.6866 34.4109 61.4069 34.5334C60.4378 34.6275 58.9131 35.1416 58.9131 35.1416L58.3597 35.8263Z" fill="#6B7E37"/>
<path d="M59.4994 42.17C59.4994 42.17 59.4841 42.4019 59.3309 42.5244C59.1669 42.6556 58.9612 42.6928 58.9612 42.6928C58.9612 42.6928 57.7144 41.5838 57.2834 40.2909C56.8547 39.0025 57.0144 37.8256 57.0362 37.5806C57.0822 37.0884 57.36 36.4563 57.6203 36.0406C57.9812 35.4697 58.6375 34.7784 58.9591 34.47C59.2828 34.1616 59.775 33.6081 60.1447 33.2078C60.4466 32.8819 61.3106 31.9675 61.6234 31.7291C62.2075 31.2828 63.0716 30.7119 63.4412 31.2216C63.8109 31.7291 63.0409 32.5756 62.4241 32.9913C61.8072 33.4069 60.9606 33.9297 60.5603 34.1156C60.3394 34.2184 59.5759 34.7172 59.1909 35.1328C58.8059 35.5484 58.1584 36.2419 57.9287 36.9025C57.6969 37.5653 57.6356 38.1997 57.7122 39.1053C57.7887 40.0131 58.3291 40.9669 58.4975 41.2141C58.8103 41.6778 59.4994 42.17 59.4994 42.17Z" fill="#6B7E37"/>
<path d="M65.2109 39.9825C65.2109 39.9825 64.6881 38.3659 65.3947 36.2091C66.1253 33.9844 67.2584 32.6369 68.105 31.9281C69.5422 30.725 70.5222 30.5259 70.9072 30.865C71.2681 31.1822 71.2616 31.6503 71.1391 32.1884C71.0669 32.5056 70.6009 33.1903 70.6009 33.1903C70.6009 33.1903 70.8897 33.1837 71.1391 33.5141C71.5241 34.0216 71.3228 35.2225 71.3228 35.2225L69.5684 39.4575L67.1666 40.9516L65.2109 39.9825Z" fill="#B0B0B0"/>
<path d="M66.8384 40.3172C66.8384 40.3172 65.4581 39.7003 64.9506 38.9216C63.9663 37.4122 62.54 37.0841 61.6453 37.095C59.4491 37.1169 58.6266 38.5934 58.6266 38.5934L58.7294 40.2975C58.7294 40.2975 59.6744 41.5291 59.7138 41.715C59.7531 41.9009 59.4163 43.1828 60.2672 45.5738C60.9519 47.4944 63.3472 49.4959 66.2828 49.8656C69.2184 50.2353 70.2859 49.9269 70.2859 49.9269C70.2859 49.9269 71.5897 52.2784 71.815 52.2566C72.0403 52.2369 72.4931 51.7337 72.9131 51.5478C73.5694 51.2591 74.8644 50.6706 75.665 49.6687C77.0191 47.9756 76.7784 46.9103 77.0913 46.2606C77.3581 45.7072 77.6141 45.3156 77.5747 45.11C77.5353 44.9044 76.4044 44.7709 75.7263 44.7403C75.2319 44.7184 74.6478 44.6791 74.1863 44.6178C73.7903 44.5653 73.3025 44.3006 73.3025 44.3006L74.6566 43.1719L74.9038 41.3234L76.2797 40.07L76.3825 38.7969L78.2703 37.5041L79.3991 35.9225V34.6078L80.2609 33.1903C80.2609 33.1903 80.7334 32.2497 80.5891 32.125C80.4447 32.0003 80.1691 31.8406 79.6659 32.1622C79.4822 32.2803 79.97 31.5497 80.2347 31.1406C80.5738 30.6178 80.6547 30.0534 80.4513 29.8478C80.2456 29.6422 80.0203 29.6313 78.9266 29.9244C77.5025 30.305 75.6016 30.9306 72.9306 33.3128C70.2597 35.695 66.8384 40.3172 66.8384 40.3172Z" fill="#E0E0E0"/>
<path d="M80.4447 32.0331C80.4447 32.0331 80.3156 33.0503 79.7162 33.7022C79.0512 34.4241 77.8984 35.2575 77.4062 35.52C76.9141 35.7825 75.6366 36.3666 75.4353 36.4431C75.2341 36.5197 74.9278 36.6903 75.0197 36.9047C75.1116 37.1213 75.3281 37.1519 75.6366 37.0119C75.945 36.8741 77.345 36.1434 77.6687 35.9641C78.0384 35.7584 78.9528 35.205 79.0228 35.4719C79.1059 35.7803 78.4912 36.5853 77.7562 37.3203C76.8944 38.1822 75.6956 38.8297 75.3106 38.9981C74.9256 39.1666 74.3416 39.3984 74.1556 39.475C73.9719 39.5516 73.5541 39.7222 73.6481 39.9978C73.74 40.2756 74.2956 40.0809 74.4881 40.0219C74.9344 39.8841 76.0194 39.2606 76.0653 39.4138C76.1112 39.5669 76.0041 39.9519 75.6191 40.3981C75.2341 40.8444 74.0484 41.4613 73.6328 41.6909C73.2172 41.9206 73.0487 41.9841 72.9241 42.03C72.8016 42.0759 72.4778 42.1831 72.5391 42.4763C72.6003 42.7694 72.9306 42.66 73.1012 42.5988C73.2172 42.5572 74.3875 41.9666 74.51 41.9206C74.6325 41.8747 74.6784 42.3363 74.51 42.6972C74.3569 43.0275 73.8625 43.4913 73.3703 43.8916C72.9831 44.2066 72.4778 44.4931 72.3531 44.5544C72.2306 44.6156 71.8456 44.8169 71.9222 45.0159C71.9987 45.2172 72.2919 45.2325 72.6769 45.0466C73.0619 44.8628 75.0306 43.4803 75.2319 42.3975C75.3391 41.82 75.2625 41.505 75.2625 41.505C75.2625 41.505 76.3256 40.5359 76.5247 40.0263C76.7259 39.5188 76.6931 39.0572 76.6931 39.0572C76.6931 39.0572 78.0209 38.0006 78.7078 37.2088C79.3269 36.4956 79.7162 35.6338 79.7884 35.2334C79.8519 34.8834 79.8037 34.5466 79.8037 34.5466C79.8037 34.5466 80.5278 33.4988 80.7116 32.8841C80.9172 32.2213 80.4447 32.0331 80.4447 32.0331ZM80.2237 29.7122C80.2237 29.7122 80.285 30.1584 80.0706 30.6659C79.7272 31.4731 78.9441 32.0813 78.3162 32.4684C77.6381 32.8841 76.7916 33.2538 76.6537 33.3303C76.5159 33.4069 76.2775 33.5841 76.3759 33.8225C76.4831 34.085 76.7916 33.9756 76.9775 33.8838C77.1612 33.7919 79.2262 32.6216 79.6266 32.2213C79.8978 31.95 80.5803 31.3288 80.7356 30.6813C81.0134 29.5 80.2237 29.7122 80.2237 29.7122Z" fill="#B0B0B0"/>
<path d="M61.6759 39.5975C61.6759 39.9497 61.4462 40.2537 61.1006 40.2537C60.755 40.2537 60.4706 39.9453 60.4225 39.5975C60.3722 39.2278 60.6412 38.9456 60.9869 38.9303C61.4397 38.9106 61.6759 39.2475 61.6759 39.5975Z" fill="#2D2D2D"/>
<path d="M58.7709 38.3966C58.7709 38.3966 56.03 39.3809 56.0497 39.5866C56.0628 39.7091 57.2397 40.1619 57.2397 40.1619L57.1938 39.9606L57.9288 40.0897L58.0622 40.3762L58.9459 40.5709C58.9459 40.5709 59.0181 39.8206 58.9569 39.2475C58.9 38.7291 58.7709 38.3966 58.7709 38.3966Z" fill="#FFC300"/>
</svg>
