<svg width="118" height="100" viewBox="0 0 118 100" fill="none" xmlns="http://www.w3.org/2000/svg">
<mask id="path-1-inside-1_576_10450" fill="white">
<path fill-rule="evenodd" clip-rule="evenodd" d="M68 18C77.6056 18 85.4538 10.476 85.9727 0.999955C86.0029 0.448497 86.4477 0 87 0L114 0C116.209 0 118 1.79086 118 4L118 31C118 31.5523 117.551 31.9971 117 32.0273C107.524 32.5462 100 40.3944 100 50C100 59.6056 107.524 67.4538 117 67.9727C117.552 68.0029 118 68.4477 118 69L118 96C118 98.2091 116.209 100 114 100H87C86.4477 100 86.0029 99.5515 85.9727 99C85.4538 89.524 77.6056 82 68 82C58.3944 82 50.5462 89.524 50.0273 99C49.9971 99.5515 49.5523 100 49 100L22 100C19.7909 100 18 98.2091 18 96L18 69C18 68.4477 17.5515 68.0029 17 67.9727C7.52403 67.4538 0 59.6056 0 50C0 40.3944 7.52403 32.5462 17 32.0273C17.5515 31.9971 18 31.5523 18 31L18 4C18 1.79086 19.7909 0 22 0L49 0C49.5523 0 49.9971 0.448498 50.0273 0.999957C50.5462 10.476 58.3944 18 68 18Z"/>
</mask>
<path fill-rule="evenodd" clip-rule="evenodd" d="M68 18C77.6056 18 85.4538 10.476 85.9727 0.999955C86.0029 0.448497 86.4477 0 87 0L114 0C116.209 0 118 1.79086 118 4L118 31C118 31.5523 117.551 31.9971 117 32.0273C107.524 32.5462 100 40.3944 100 50C100 59.6056 107.524 67.4538 117 67.9727C117.552 68.0029 118 68.4477 118 69L118 96C118 98.2091 116.209 100 114 100H87C86.4477 100 86.0029 99.5515 85.9727 99C85.4538 89.524 77.6056 82 68 82C58.3944 82 50.5462 89.524 50.0273 99C49.9971 99.5515 49.5523 100 49 100L22 100C19.7909 100 18 98.2091 18 96L18 69C18 68.4477 17.5515 68.0029 17 67.9727C7.52403 67.4538 0 59.6056 0 50C0 40.3944 7.52403 32.5462 17 32.0273C17.5515 31.9971 18 31.5523 18 31L18 4C18 1.79086 19.7909 0 22 0L49 0C49.5523 0 49.9971 0.448498 50.0273 0.999957C50.5462 10.476 58.3944 18 68 18Z" fill="#374151" fill-opacity="0.4"/>
<path d="M114 0V1V0ZM118 4H119H118ZM118 96H119H118ZM114 100V101V100ZM18 96H17H18ZM18 4L17 4L18 4ZM50.0273 0.999957L51.0258 0.945284L50.0273 0.999957ZM17 32.0273L16.9454 31.0288L17 32.0273ZM18 31H17H18ZM18 69H17H18ZM17 67.9727L16.9454 68.9712L17 67.9727ZM87 0V1V0ZM50.0273 99L49.0288 98.9454L50.0273 99ZM117 67.9727L117.055 66.9742L117 67.9727ZM118 69H117H118ZM87 100V99V100ZM85.9727 99L86.9712 98.9454L85.9727 99ZM118 31H117H118ZM117 32.0273L117.055 33.0258L117 32.0273ZM84.9742 0.945282C84.4842 9.89397 77.0716 17 68 17V19C78.1395 19 86.4235 11.058 86.9712 1.05463L84.9742 0.945282ZM114 -1L87 -1V1L114 1V-1ZM119 4C119 1.23858 116.761 -1 114 -1V1C115.657 1 117 2.34315 117 4H119ZM119 31L119 4H117L117 31H119ZM101 50C101 40.9284 108.106 33.5158 117.055 33.0258L116.945 31.0288C106.942 31.5765 99 39.8604 99 50H101ZM117.055 66.9742C108.106 66.4842 101 59.0716 101 50H99C99 60.1396 106.942 68.4235 116.945 68.9712L117.055 66.9742ZM119 96L119 69H117L117 96H119ZM114 101C116.761 101 119 98.7614 119 96H117C117 97.6569 115.657 99 114 99V101ZM87 101H114V99H87V101ZM68 83C77.0716 83 84.4842 90.106 84.9742 99.0547L86.9712 98.9454C86.4235 88.942 78.1395 81 68 81V83ZM51.0258 99.0547C51.5158 90.106 58.9284 83 68 83V81C57.8604 81 49.5765 88.942 49.0288 98.9454L51.0258 99.0547ZM22 101L49 101V99L22 99L22 101ZM17 96C17 98.7614 19.2386 101 22 101L22 99C20.3431 99 19 97.6569 19 96H17ZM17 69L17 96H19L19 69H17ZM17.0547 66.9742C8.10603 66.4842 1 59.0716 1 50H-1C-1 60.1396 6.94204 68.4235 16.9454 68.9712L17.0547 66.9742ZM1 50C1 40.9284 8.10602 33.5158 17.0547 33.0258L16.9454 31.0288C6.94204 31.5765 -1 39.8604 -1 50H1ZM17 4L17 31H19L19 4L17 4ZM22 -1C19.2386 -1 17 1.23858 17 4L19 4C19 2.34315 20.3431 1 22 1V-1ZM49 -1L22 -1V1L49 1V-1ZM68 17C58.9284 17 51.5158 9.89398 51.0258 0.945284L49.0288 1.05463C49.5765 11.058 57.8604 19 68 19V17ZM49 1C49.0012 1 49.0012 1.0001 49.0006 0.999977C49.0001 0.999868 48.9998 0.999738 48.9999 0.999766C49.0001 0.999846 49.0033 1.00127 49.0081 1.006C49.0187 1.0164 49.0276 1.03335 49.0288 1.05463L51.0258 0.945284C50.9685 -0.100786 50.1183 -1 49 -1V1ZM17.0547 33.0258C18.1008 32.9685 19 32.1183 19 31H17C17 31.0012 16.9999 31.0012 17 31.0007C17.0001 31.0001 17.0003 30.9998 17.0002 30.9999C17.0002 31.0001 16.9987 31.0033 16.994 31.0081C16.9836 31.0187 16.9667 31.0276 16.9454 31.0288L17.0547 33.0258ZM19 69C19 67.8817 18.1008 67.0315 17.0547 66.9742L16.9454 68.9712C16.9667 68.9724 16.9836 68.9813 16.994 68.9919C16.9987 68.9967 17.0002 68.9999 17.0002 69.0001C17.0003 69.0002 17.0001 68.9999 17 68.9994C16.9999 68.9988 17 68.9988 17 69H19ZM86.9712 1.05463C86.9724 1.03335 86.9813 1.0164 86.9919 1.006C86.9967 1.00127 86.9999 0.999846 87.0001 0.999766C87.0002 0.999738 86.9999 0.999868 86.9994 0.999977C86.9988 1.0001 86.9988 1 87 1V-1C85.8817 -1 85.0315 -0.100789 84.9742 0.945282L86.9712 1.05463ZM49.0288 98.9454C49.0276 98.9667 49.0187 98.9836 49.0081 98.994C49.0033 98.9987 49.0001 99.0002 48.9999 99.0002C48.9998 99.0003 49.0001 99.0001 49.0006 99C49.0012 98.9999 49.0012 99 49 99V101C50.1183 101 50.9685 100.101 51.0258 99.0547L49.0288 98.9454ZM116.945 68.9712C116.967 68.9724 116.984 68.9813 116.994 68.9919C116.999 68.9967 117 68.9999 117 69.0001C117 69.0002 117 68.9999 117 68.9994C117 68.9988 117 68.9988 117 69H119C119 67.8817 118.101 67.0315 117.055 66.9742L116.945 68.9712ZM87 99C86.9988 99 86.9988 98.9999 86.9994 99C86.9999 99.0001 87.0002 99.0003 87.0001 99.0002C86.9999 99.0002 86.9967 98.9987 86.9919 98.994C86.9813 98.9836 86.9724 98.9667 86.9712 98.9454L84.9742 99.0547C85.0315 100.101 85.8817 101 87 101V99ZM117 31C117 31.0012 117 31.0012 117 31.0006C117 31.0001 117 30.9998 117 30.9999C117 31.0001 116.999 31.0033 116.994 31.0081C116.984 31.0187 116.967 31.0276 116.945 31.0288L117.055 33.0258C118.101 32.9685 119 32.1183 119 31H117Z" fill="#374151" mask="url(#path-1-inside-1_576_10450)"/>
<path d="M39.2414 72.144C38.6121 72.144 38.0894 72.032 37.6734 71.808C37.2681 71.5733 36.9588 71.2267 36.7454 70.768C36.5428 70.3093 36.4414 69.7387 36.4414 69.056V64.768C36.4414 64.544 36.4948 64.3787 36.6014 64.272C36.7188 64.1653 36.8788 64.112 37.0814 64.112C37.2948 64.112 37.4548 64.1653 37.5614 64.272C37.6788 64.3787 37.7374 64.544 37.7374 64.768V69.04C37.7374 69.7227 37.8761 70.2347 38.1534 70.576C38.4414 70.9067 38.8894 71.072 39.4974 71.072C40.1588 71.072 40.6974 70.848 41.1134 70.4C41.5294 69.952 41.7374 69.3653 41.7374 68.64V64.768C41.7374 64.544 41.7908 64.3787 41.8974 64.272C42.0148 64.1653 42.1801 64.112 42.3934 64.112C42.5961 64.112 42.7508 64.1653 42.8574 64.272C42.9748 64.3787 43.0334 64.544 43.0334 64.768V71.44C43.0334 71.888 42.8254 72.112 42.4094 72.112C42.2068 72.112 42.0468 72.0533 41.9294 71.936C41.8228 71.8187 41.7694 71.6533 41.7694 71.44V69.984L41.9774 70.208C41.7641 70.8373 41.4121 71.3173 40.9214 71.648C40.4414 71.9787 39.8814 72.144 39.2414 72.144ZM46.0982 72.112C45.8849 72.112 45.7249 72.0533 45.6182 71.936C45.5115 71.8187 45.4582 71.6533 45.4582 71.44V64.768C45.4582 64.5547 45.5115 64.3947 45.6182 64.288C45.7249 64.1707 45.8795 64.112 46.0822 64.112C46.2849 64.112 46.4395 64.1707 46.5462 64.288C46.6635 64.3947 46.7222 64.5547 46.7222 64.768V66.144L46.5462 65.952C46.7702 65.3333 47.1329 64.8693 47.6342 64.56C48.1462 64.24 48.7329 64.08 49.3942 64.08C50.0129 64.08 50.5249 64.192 50.9302 64.416C51.3462 64.64 51.6555 64.9813 51.8582 65.44C52.0609 65.888 52.1622 66.4587 52.1622 67.152V71.44C52.1622 71.6533 52.1035 71.8187 51.9862 71.936C51.8795 72.0533 51.7249 72.112 51.5222 72.112C51.3089 72.112 51.1435 72.0533 51.0262 71.936C50.9195 71.8187 50.8662 71.6533 50.8662 71.44V67.232C50.8662 66.5067 50.7222 65.9787 50.4342 65.648C50.1569 65.3067 49.7089 65.136 49.0902 65.136C48.3755 65.136 47.8049 65.36 47.3782 65.808C46.9622 66.2453 46.7542 66.832 46.7542 67.568V71.44C46.7542 71.888 46.5355 72.112 46.0982 72.112ZM55.1919 72.08C54.9786 72.08 54.8186 72.0213 54.7119 71.904C54.6053 71.776 54.5519 71.6 54.5519 71.376V64.832C54.5519 64.608 54.6053 64.4373 54.7119 64.32C54.8186 64.2027 54.9786 64.144 55.1919 64.144C55.3946 64.144 55.5546 64.2027 55.6719 64.32C55.7893 64.4373 55.8479 64.608 55.8479 64.832V71.376C55.8479 71.6 55.7893 71.776 55.6719 71.904C55.5653 72.0213 55.4053 72.08 55.1919 72.08ZM55.1919 62.352C54.9253 62.352 54.7173 62.2827 54.5679 62.144C54.4186 61.9947 54.3439 61.7973 54.3439 61.552C54.3439 61.296 54.4186 61.104 54.5679 60.976C54.7173 60.8373 54.9253 60.768 55.1919 60.768C55.4693 60.768 55.6773 60.8373 55.8159 60.976C55.9653 61.104 56.0399 61.296 56.0399 61.552C56.0399 61.7973 55.9653 61.9947 55.8159 62.144C55.6773 62.2827 55.4693 62.352 55.1919 62.352ZM58.9427 72.112C58.7294 72.112 58.5694 72.0533 58.4627 71.936C58.356 71.8187 58.3027 71.6533 58.3027 71.44V64.768C58.3027 64.5547 58.356 64.3947 58.4627 64.288C58.5694 64.1707 58.724 64.112 58.9267 64.112C59.1294 64.112 59.284 64.1707 59.3907 64.288C59.508 64.3947 59.5667 64.5547 59.5667 64.768V66.176L59.3907 65.952C59.5934 65.3547 59.9187 64.896 60.3667 64.576C60.8254 64.2453 61.3694 64.08 61.9987 64.08C62.66 64.08 63.1934 64.24 63.5987 64.56C64.0147 64.8693 64.292 65.3547 64.4307 66.016H64.1907C64.3827 65.4187 64.724 64.9493 65.2147 64.608C65.716 64.256 66.2974 64.08 66.9587 64.08C67.5454 64.08 68.0254 64.192 68.3987 64.416C68.7827 64.64 69.0707 64.9813 69.2627 65.44C69.4547 65.888 69.5507 66.4587 69.5507 67.152V71.44C69.5507 71.6533 69.492 71.8187 69.3747 71.936C69.268 72.0533 69.108 72.112 68.8947 72.112C68.692 72.112 68.532 72.0533 68.4147 71.936C68.308 71.8187 68.2547 71.6533 68.2547 71.44V67.216C68.2547 66.5013 68.132 65.9787 67.8867 65.648C67.6414 65.3067 67.2254 65.136 66.6387 65.136C65.9987 65.136 65.492 65.36 65.1187 65.808C64.756 66.2453 64.5747 66.8427 64.5747 67.6V71.44C64.5747 71.6533 64.516 71.8187 64.3987 71.936C64.292 72.0533 64.132 72.112 63.9187 72.112C63.716 72.112 63.556 72.0533 63.4387 71.936C63.332 71.8187 63.2787 71.6533 63.2787 71.44V67.216C63.2787 66.5013 63.1507 65.9787 62.8947 65.648C62.6494 65.3067 62.2387 65.136 61.6627 65.136C61.0227 65.136 60.516 65.36 60.1427 65.808C59.78 66.2453 59.5987 66.8427 59.5987 67.6V71.44C59.5987 71.888 59.38 72.112 58.9427 72.112ZM72.6138 74.992C72.4005 74.992 72.2405 74.9333 72.1338 74.816C72.0271 74.7093 71.9738 74.5493 71.9738 74.336V64.768C71.9738 64.5547 72.0271 64.3947 72.1338 64.288C72.2405 64.1707 72.3951 64.112 72.5978 64.112C72.8111 64.112 72.9711 64.1707 73.0778 64.288C73.1951 64.3947 73.2538 64.5547 73.2538 64.768V66.288L73.0778 66.064C73.2485 65.456 73.5845 64.976 74.0858 64.624C74.5978 64.2613 75.2058 64.08 75.9098 64.08C76.6031 64.08 77.2058 64.2453 77.7178 64.576C78.2405 64.896 78.6405 65.36 78.9178 65.968C79.2058 66.5653 79.3498 67.28 79.3498 68.112C79.3498 68.9333 79.2058 69.648 78.9178 70.256C78.6405 70.8533 78.2458 71.3173 77.7338 71.648C77.2218 71.9787 76.6138 72.144 75.9098 72.144C75.2058 72.144 74.6031 71.968 74.1018 71.616C73.6005 71.2533 73.2591 70.7733 73.0778 70.176H73.2698V74.336C73.2698 74.5493 73.2111 74.7093 73.0938 74.816C72.9765 74.9333 72.8165 74.992 72.6138 74.992ZM75.6378 71.104C76.1285 71.104 76.5498 70.9867 76.9018 70.752C77.2645 70.5173 77.5418 70.176 77.7338 69.728C77.9365 69.28 78.0378 68.7413 78.0378 68.112C78.0378 67.1413 77.8191 66.4 77.3818 65.888C76.9551 65.376 76.3738 65.12 75.6378 65.12C75.1578 65.12 74.7365 65.2373 74.3738 65.472C74.0111 65.696 73.7285 66.032 73.5258 66.48C73.3338 66.9173 73.2378 67.4613 73.2378 68.112C73.2378 69.072 73.4565 69.8133 73.8938 70.336C74.3311 70.848 74.9125 71.104 75.6378 71.104ZM84.5339 72.144C83.7766 72.144 83.1206 71.9787 82.5659 71.648C82.0113 71.3173 81.5793 70.8533 81.2699 70.256C80.9713 69.648 80.8219 68.9333 80.8219 68.112C80.8219 67.4933 80.9073 66.9387 81.0779 66.448C81.2486 65.9467 81.4993 65.52 81.8299 65.168C82.1606 64.816 82.5499 64.5493 82.9979 64.368C83.4566 64.176 83.9686 64.08 84.5339 64.08C85.2913 64.08 85.9473 64.2453 86.5019 64.576C87.0566 64.9067 87.4833 65.376 87.7819 65.984C88.0913 66.5813 88.2459 67.2907 88.2459 68.112C88.2459 68.7307 88.1606 69.2853 87.9899 69.776C87.8193 70.2667 87.5686 70.6933 87.2379 71.056C86.9073 71.408 86.5126 71.68 86.0539 71.872C85.6059 72.0533 85.0993 72.144 84.5339 72.144ZM84.5339 71.104C85.0139 71.104 85.4353 70.9867 85.7979 70.752C86.1606 70.5173 86.4379 70.176 86.6299 69.728C86.8326 69.28 86.9339 68.7413 86.9339 68.112C86.9339 67.1413 86.7153 66.4 86.2779 65.888C85.8513 65.376 85.2699 65.12 84.5339 65.12C84.0433 65.12 83.6166 65.2373 83.2539 65.472C82.9019 65.696 82.6246 66.032 82.4219 66.48C82.2299 66.9173 82.1339 67.4613 82.1339 68.112C82.1339 69.072 82.3526 69.8133 82.7899 70.336C83.2273 70.848 83.8086 71.104 84.5339 71.104ZM90.8486 72.112C90.6352 72.112 90.4699 72.0533 90.3526 71.936C90.2459 71.8187 90.1926 71.6533 90.1926 71.44V64.768C90.1926 64.5547 90.2459 64.3947 90.3526 64.288C90.4592 64.1707 90.6139 64.112 90.8166 64.112C91.0192 64.112 91.1739 64.1707 91.2806 64.288C91.3979 64.3947 91.4566 64.5547 91.4566 64.768V66.064H91.2966C91.4672 65.4347 91.7926 64.9493 92.2726 64.608C92.7526 64.2667 93.3446 64.0853 94.0486 64.064C94.2086 64.0533 94.3366 64.0907 94.4326 64.176C94.5286 64.2507 94.5819 64.384 94.5926 64.576C94.6032 64.7573 94.5606 64.9013 94.4646 65.008C94.3686 65.1147 94.2192 65.1787 94.0166 65.2L93.7606 65.232C93.0352 65.296 92.4752 65.5307 92.0806 65.936C91.6966 66.3307 91.5046 66.8747 91.5046 67.568V71.44C91.5046 71.6533 91.4459 71.8187 91.3286 71.936C91.2219 72.0533 91.0619 72.112 90.8486 72.112ZM99.4688 72.144C98.8608 72.144 98.3488 72.0373 97.9328 71.824C97.5275 71.6 97.2235 71.28 97.0208 70.864C96.8181 70.4373 96.7168 69.92 96.7168 69.312V65.232H95.6448C95.4635 65.232 95.3248 65.1893 95.2288 65.104C95.1328 65.008 95.0848 64.88 95.0848 64.72C95.0848 64.56 95.1328 64.4373 95.2288 64.352C95.3248 64.2667 95.4635 64.224 95.6448 64.224H96.7168V62.384C96.7168 62.1707 96.7755 62.0107 96.8928 61.904C97.0101 61.7867 97.1701 61.728 97.3728 61.728C97.5755 61.728 97.7301 61.7867 97.8368 61.904C97.9541 62.0107 98.0128 62.1707 98.0128 62.384V64.224H100.029C100.21 64.224 100.349 64.2667 100.445 64.352C100.541 64.4373 100.589 64.56 100.589 64.72C100.589 64.88 100.541 65.008 100.445 65.104C100.349 65.1893 100.21 65.232 100.029 65.232H98.0128V69.184C98.0128 69.792 98.1408 70.256 98.3968 70.576C98.6528 70.8853 99.0688 71.04 99.6448 71.04C99.8475 71.04 100.018 71.0187 100.157 70.976C100.306 70.9333 100.429 70.912 100.525 70.912C100.621 70.9013 100.701 70.9333 100.765 71.008C100.829 71.0827 100.861 71.2107 100.861 71.392C100.861 71.52 100.834 71.6373 100.781 71.744C100.738 71.8507 100.658 71.9253 100.541 71.968C100.413 72.0107 100.242 72.048 100.029 72.08C99.8261 72.1227 99.6395 72.144 99.4688 72.144Z" fill="#F9FAFB"/>
<path d="M78.2047 30.1869C78.1413 30.1584 78.2988 29.9003 75.8925 29.8347C75.6825 29.8281 74.9891 30.1978 74.1972 30.2088C73.3769 30.2197 72.8628 29.8784 72.5872 29.6138C72.4647 29.4956 72.27 29.5263 72.1825 29.6706C72.0272 29.9309 71.7319 30.2678 71.1894 30.4625C70.5616 30.6878 69.995 30.4428 69.6756 30.2438C69.5422 30.1606 69.3628 30.2197 69.3038 30.3663C69.1638 30.7141 68.8466 31.2522 68.1619 31.5103C67.5384 31.7466 67.0375 31.5497 66.7291 31.3484C66.6937 31.3254 66.6532 31.3115 66.6112 31.3078C66.5692 31.3042 66.5269 31.3111 66.4882 31.3277C66.4494 31.3444 66.4154 31.3704 66.3891 31.4034C66.3628 31.4364 66.3451 31.4754 66.3375 31.5169C66.2522 31.9741 66.0466 32.65 65.5478 32.9191C64.9528 33.2384 64.3819 33.0328 64.0209 32.8184C63.8547 32.7178 63.6403 32.8228 63.625 33.0175C63.59 33.5403 63.4456 34.3541 62.9294 34.8113C62.3716 35.3056 61.5294 35.1722 61.0634 35.0453C60.8994 35.0016 60.7419 35.1241 60.7397 35.2947C60.7353 35.7081 60.6675 36.3797 60.3175 36.7538C59.8472 37.2547 59.0816 37.3838 59.0816 37.3838L70.0366 48.0938C70.2925 47.8203 71.7691 45.8144 75.7416 45.1144C76.12 45.0466 77.8241 44.8256 77.9881 44.7163C78.2113 44.5653 77.9925 43.0997 78.0034 42.7409L78.0888 39.6347C78.1434 37.6091 78.2003 35.5834 78.255 33.5578C78.2747 32.8534 78.2944 32.1469 78.3119 31.4425C78.3184 31.1888 78.3578 30.9153 78.3338 30.6616C78.3075 30.3422 78.3469 30.2503 78.2047 30.1869Z" fill="#FCE8B2"/>
<path d="M60.8381 35.0934C60.7812 35.1394 60.7419 35.2116 60.7397 35.2947C60.7353 35.7081 60.6675 36.3797 60.3175 36.7537C60.3044 36.7669 60.2912 36.7778 60.2803 36.7909L70.8831 47.2297L60.8381 35.0934ZM63.7803 32.8031C63.6972 32.8381 63.6337 32.9147 63.625 33.0175C63.59 33.5403 63.4456 34.3541 62.9294 34.8112L62.8966 34.8375C65.5041 38.2237 71.7712 46.4509 71.7712 46.4509L63.7803 32.8031ZM66.3375 31.5169C66.2522 31.9741 66.0466 32.65 65.5478 32.9191C65.5303 32.9278 65.515 32.9322 65.4975 32.9409C67.1403 36.0712 70.9094 43.1609 72.5062 46.16L72.6375 46.0944L66.4709 31.3375C66.4053 31.3725 66.3528 31.4359 66.3375 31.5169ZM69.3037 30.3662C69.1681 30.7075 68.8575 31.2281 68.2034 31.4928C69.3825 34.7631 72.2744 42.4937 73.4841 45.7247C73.5322 45.7072 73.5825 45.6897 73.6306 45.67L69.5356 30.2087C69.4372 30.2109 69.3431 30.2678 69.3037 30.3662ZM72.1825 29.6706C72.0272 29.9309 71.7319 30.2678 71.1894 30.4625C71.1566 30.4734 71.1237 30.48 71.0909 30.4887L74.2212 45.4731C74.3175 45.4447 74.4159 45.4141 74.5166 45.3878L72.3356 29.5525C72.2722 29.57 72.2175 29.6094 72.1825 29.6706ZM75.7722 29.8544C75.4812 29.9287 74.8753 30.2 74.1972 30.2087C74.1141 30.2109 74.0353 30.2044 73.9566 30.2C74.2081 33.9472 74.7309 41.7391 75.0306 45.2566C75.0853 45.2434 75.1422 45.2325 75.1991 45.2194C75.2253 44.3575 75.2362 43.2419 75.2362 43.2419L75.7722 29.8544Z" fill="#FFBD66"/>
<path d="M71.1522 47.35C71.0516 47.35 70.9531 47.3084 70.8831 47.2275L60.6762 35.3778C60.5494 35.2291 60.5647 35.0059 60.7134 34.8791C60.8622 34.7522 61.0853 34.7675 61.2122 34.9163L71.4212 46.7659C71.4654 46.8173 71.4939 46.8803 71.5034 46.9474C71.5128 47.0145 71.5027 47.0829 71.4744 47.1444C71.446 47.206 71.4006 47.258 71.3435 47.2945C71.2863 47.3309 71.2199 47.3502 71.1522 47.35ZM72.0097 46.7856C71.8894 46.7856 71.7734 46.7244 71.7078 46.615L63.4128 32.9606C63.3643 32.8805 63.3496 32.7844 63.3717 32.6934C63.3938 32.6024 63.4511 32.5239 63.5309 32.475C63.6111 32.4265 63.7071 32.4117 63.7981 32.4339C63.8891 32.456 63.9676 32.5133 64.0166 32.5931L72.3116 46.2475C72.3441 46.3012 72.3618 46.3625 72.3629 46.4252C72.3639 46.488 72.3483 46.5499 72.3176 46.6046C72.2869 46.6594 72.2422 46.705 72.1881 46.7368C72.134 46.7686 72.0724 46.7854 72.0097 46.7856ZM72.5456 46.1513L66.1997 31.5453C66.1231 31.3659 66.2041 31.1581 66.3834 31.0794C66.5628 31.0028 66.7706 31.0838 66.8494 31.2631L73.1953 45.8691C73.1953 45.8691 73.2872 46.1622 72.9962 46.3022C72.6966 46.4487 72.5456 46.1513 72.5456 46.1513ZM73.7991 46.0288C73.6437 46.0288 73.5016 45.9259 73.4578 45.7706L69.1703 30.4319C69.1178 30.2438 69.2272 30.0491 69.4153 29.9966C69.6034 29.9441 69.7981 30.0534 69.8506 30.2416L74.1381 45.5803C74.1529 45.6327 74.1553 45.6878 74.1452 45.7413C74.1351 45.7948 74.1128 45.8453 74.0799 45.8887C74.0471 45.9321 74.0046 45.9674 73.9559 45.9917C73.9072 46.016 73.8535 46.0287 73.7991 46.0288ZM74.615 45.7838C74.4422 45.7838 74.2891 45.6547 74.265 45.4775L72.0775 29.6903C72.0512 29.4956 72.1869 29.3184 72.3794 29.2922C72.5719 29.2638 72.7512 29.4016 72.7775 29.5941L74.965 45.3813C74.9912 45.5738 74.8556 45.7531 74.6631 45.7794C74.6478 45.7816 74.6325 45.7838 74.615 45.7838Z" fill="#6D4C41"/>
<path d="M75.105 45.1122C75.0984 45.4031 75.3216 45.6459 75.6125 45.6613L78.9769 45.7903C79.2176 45.7967 79.4573 45.7556 79.6821 45.6694C79.907 45.5831 80.1126 45.4534 80.2874 45.2876C80.4621 45.1219 80.6024 44.9233 80.7003 44.7033C80.7983 44.4832 80.8519 44.2461 80.8581 44.0053L81.1775 31.7684C81.1839 31.5277 81.1428 31.288 81.0565 31.0632C80.9703 30.8383 80.8406 30.6327 80.6748 30.4579C80.509 30.2832 80.3105 30.1429 80.0904 30.045C79.8704 29.947 79.6332 29.8934 79.3925 29.8872L76.0872 29.7625C76.0118 29.7585 75.9365 29.7697 75.8655 29.7953C75.7945 29.8209 75.7294 29.8605 75.6739 29.9116C75.6185 29.9628 75.5739 30.0245 75.5426 30.0932C75.5114 30.1619 75.4943 30.2361 75.4922 30.3116L75.105 45.1122ZM68.6366 49.9663L66.5037 52.1691C66.4159 52.2599 66.311 52.3326 66.195 52.3829C66.0791 52.4332 65.9543 52.4601 65.828 52.4621C65.7016 52.4642 65.5761 52.4413 65.4585 52.3947C65.341 52.3482 65.2338 52.2789 65.1431 52.1909L55.1156 42.4806C55.0247 42.3928 54.9521 42.2879 54.9018 42.1719C54.8515 42.056 54.8246 41.9312 54.8225 41.8048C54.8205 41.6785 54.8434 41.5529 54.89 41.4354C54.9365 41.3179 55.0057 41.2107 55.0937 41.12L57.2266 38.9172C57.3144 38.8263 57.4193 38.7537 57.5353 38.7034C57.6512 38.6531 57.776 38.6261 57.9023 38.6241C58.0287 38.6221 58.1542 38.645 58.2718 38.6915C58.3893 38.7381 58.4965 38.8073 58.5872 38.8953L68.6125 48.6056C68.9953 48.9753 69.0062 49.5834 68.6366 49.9663Z" fill="#CF381A"/>
<path d="M56.1503 41.2797C56.0702 41.3622 56.0072 41.4597 55.9648 41.5667C55.9224 41.6736 55.9016 41.7878 55.9034 41.9028C55.9052 42.0178 55.9297 42.1313 55.9755 42.2369C56.0212 42.3424 56.0873 42.4379 56.17 42.5178C56.2661 42.6104 56.3821 42.6796 56.5092 42.7202C56.6362 42.7608 56.7709 42.7716 56.9028 42.7519C56.8744 43.0122 56.9575 43.2813 57.1609 43.4759C57.257 43.5685 57.373 43.6377 57.5001 43.6783C57.6272 43.7189 57.7618 43.7297 57.8938 43.71C57.8653 43.9703 57.9484 44.2394 58.1519 44.4341C58.2479 44.5266 58.364 44.5958 58.491 44.6364C58.6181 44.677 58.7528 44.6879 58.8847 44.6681C58.8563 44.9284 58.9394 45.1975 59.1428 45.3922C59.2389 45.4847 59.3549 45.554 59.482 45.5945C59.609 45.6351 59.7437 45.646 59.8756 45.6263C59.8472 45.8866 59.9303 46.1556 60.1338 46.3503C60.3372 46.545 60.6063 46.6216 60.8666 46.5844C60.8381 46.8447 60.9213 47.1138 61.1247 47.3084C61.2208 47.401 61.3368 47.4702 61.4638 47.5108C61.5909 47.5514 61.7256 47.5622 61.8575 47.5425C61.8291 47.8028 61.9122 48.0719 62.1156 48.2666C62.3191 48.4613 62.5881 48.5378 62.8484 48.5006C62.82 48.7609 62.9031 49.03 63.1066 49.2247C63.31 49.4194 63.5791 49.4959 63.8394 49.4587C63.8109 49.7191 63.8941 49.9881 64.0975 50.1828C64.3009 50.3775 64.57 50.4541 64.8303 50.4169C64.8019 50.6772 64.885 50.9462 65.0884 51.1409C65.171 51.221 65.2685 51.2841 65.3754 51.3264C65.4824 51.3688 65.5966 51.3897 65.7116 51.3879C65.8266 51.386 65.9401 51.3615 66.0456 51.3158C66.1512 51.27 66.2466 51.2039 66.3266 51.1212L68.4703 48.9075L58.3072 39.0638L56.1503 41.2797Z" fill="#822322"/>
<path d="M56.3275 41.0959C56.2474 41.1785 56.1844 41.276 56.142 41.3829C56.0996 41.4898 56.0788 41.6041 56.0806 41.7191C56.0824 41.8341 56.1069 41.9476 56.1527 42.0531C56.1984 42.1586 56.2645 42.2541 56.3472 42.3341C56.4432 42.4266 56.5593 42.4958 56.6863 42.5364C56.8134 42.577 56.9481 42.5878 57.08 42.5681C57.0516 42.8284 57.1347 43.0975 57.3381 43.2922C57.4342 43.3847 57.5502 43.454 57.6773 43.4945C57.8043 43.5351 57.939 43.546 58.0709 43.5262C58.0425 43.7866 58.1256 44.0556 58.3291 44.2503C58.4251 44.3429 58.5412 44.4121 58.6682 44.4527C58.7953 44.4933 58.93 44.5041 59.0619 44.4844C59.0334 44.7447 59.1166 45.0137 59.32 45.2084C59.4161 45.301 59.5321 45.3702 59.6592 45.4108C59.7862 45.4514 59.9209 45.4622 60.0528 45.4425C60.0244 45.7028 60.1075 45.9719 60.3109 46.1666C60.407 46.2591 60.523 46.3283 60.6501 46.3689C60.7772 46.4095 60.9118 46.4204 61.0438 46.4006C61.0153 46.6609 61.0984 46.93 61.3019 47.1247C61.5053 47.3194 61.7744 47.3959 62.0347 47.3587C62.0063 47.6191 62.0894 47.8881 62.2928 48.0828C62.3889 48.1754 62.5049 48.2446 62.632 48.2852C62.759 48.3258 62.8937 48.3366 63.0256 48.3169C62.9972 48.5772 63.0803 48.8462 63.2838 49.0409C63.4872 49.2356 63.7563 49.3122 64.0166 49.275C63.9881 49.5353 64.0713 49.8044 64.2747 49.9991C64.3707 50.0916 64.4868 50.1608 64.6138 50.2014C64.7409 50.242 64.8756 50.2528 65.0075 50.2331C64.9791 50.4934 65.0622 50.7625 65.2656 50.9572C65.3482 51.0373 65.4457 51.1003 65.5526 51.1427C65.6595 51.1851 65.7738 51.2059 65.8888 51.2041C66.0038 51.2023 66.1173 51.1778 66.2228 51.132C66.3283 51.0863 66.4238 51.0202 66.5038 50.9375L68.6475 48.7237L58.4844 38.88L56.3275 41.0959Z" fill="#FFF3E0"/>
<path d="M56.9269 40.4616L67.0878 50.3031L68.6322 48.7237L58.4691 38.88L56.9269 40.4616Z" fill="#FFCC80"/>
<path d="M59.2631 40.6103L57.7078 42.2159C57.64 42.2859 57.5263 42.2881 57.4563 42.2203L57.2091 41.9797C57.1754 41.9468 57.156 41.9019 57.1552 41.8548C57.1544 41.8077 57.1722 41.7622 57.2047 41.7281L58.76 40.1225C58.8278 40.0525 58.9416 40.0503 59.0116 40.1181L59.2588 40.3587C59.3288 40.4266 59.3309 40.5403 59.2631 40.6103ZM59.9391 41.2666L58.3838 42.8722C58.3159 42.9422 58.2022 42.9444 58.1322 42.8766L57.885 42.6359C57.8513 42.603 57.832 42.5582 57.8311 42.5111C57.8303 42.464 57.8481 42.4184 57.8806 42.3844L59.4359 40.7787C59.5038 40.7087 59.6175 40.7066 59.6875 40.7744L59.9347 41.015C60.0047 41.0828 60.0069 41.1944 59.9391 41.2666ZM61.2909 42.5769L59.7356 44.1825C59.6678 44.2525 59.5541 44.2547 59.4841 44.1869L59.2369 43.9462C59.2032 43.9133 59.1838 43.8685 59.183 43.8214C59.1822 43.7743 59.2 43.7288 59.2325 43.6947L60.7878 42.0891C60.8556 42.0191 60.9694 42.0169 61.0394 42.0847L61.2866 42.3253C61.3037 42.3413 61.3175 42.3606 61.327 42.3821C61.3366 42.4035 61.3417 42.4267 61.3421 42.4502C61.3425 42.4736 61.3382 42.497 61.3294 42.5187C61.3206 42.5405 61.3075 42.5603 61.2909 42.5769ZM61.9691 43.2309L60.4138 44.8366C60.3459 44.9066 60.2322 44.9087 60.1622 44.8409L59.915 44.6003C59.8813 44.5674 59.862 44.5225 59.8611 44.4754C59.8603 44.4283 59.8781 44.3828 59.9106 44.3487L61.466 42.7431C61.5338 42.6731 61.6475 42.6709 61.7175 42.7387L61.9647 42.9794C62.0347 43.0494 62.0369 43.1609 61.9691 43.2309ZM62.645 43.8872L61.0897 45.4928C61.0219 45.5628 60.9081 45.565 60.8381 45.4972L60.5909 45.2566C60.5573 45.2236 60.5379 45.1788 60.5371 45.1317C60.5363 45.0846 60.554 45.0391 60.5866 45.005L62.1419 43.3994C62.2097 43.3294 62.3234 43.3272 62.3934 43.395L62.6406 43.6356C62.7106 43.7034 62.7128 43.8172 62.645 43.8872ZM63.9969 45.1975L62.4438 46.8031C62.3759 46.8731 62.2622 46.8753 62.1922 46.8075L61.945 46.5669C61.9113 46.534 61.892 46.4891 61.8911 46.442C61.8903 46.3949 61.9081 46.3494 61.9406 46.3153L63.4959 44.7097C63.5638 44.6397 63.6775 44.6375 63.7475 44.7053L63.9947 44.9459C64.0647 45.0138 64.0669 45.1275 63.9969 45.1975ZM64.675 45.8516L63.1197 47.4572C63.0519 47.5272 62.9381 47.5294 62.8681 47.4616L62.6209 47.2209C62.5873 47.188 62.5679 47.1431 62.5671 47.0961C62.5663 47.049 62.584 47.0034 62.6166 46.9694L64.1719 45.3637C64.2397 45.2937 64.3534 45.2916 64.4234 45.3594L64.6706 45.6C64.7406 45.67 64.7428 45.7816 64.675 45.8516ZM66.0269 47.1641L64.4716 48.7697C64.4038 48.8397 64.29 48.8419 64.22 48.7741L63.9728 48.5334C63.9391 48.5005 63.9198 48.4556 63.919 48.4086C63.9181 48.3615 63.9359 48.3159 63.9684 48.2819L65.5238 46.6762C65.5916 46.6062 65.7053 46.6041 65.7753 46.6719L66.0225 46.9125C66.0397 46.9285 66.0534 46.9478 66.063 46.9693C66.0725 46.9907 66.0776 47.0139 66.078 47.0374C66.0784 47.0608 66.0741 47.0841 66.0653 47.1059C66.0566 47.1277 66.0435 47.1475 66.0269 47.1641ZM66.705 47.8181L65.1497 49.4237C65.0819 49.4938 64.9681 49.4959 64.8981 49.4281L64.6509 49.1875C64.6173 49.1546 64.5979 49.1097 64.5971 49.0626C64.5963 49.0155 64.614 48.97 64.6466 48.9359L66.2019 47.3303C66.2697 47.2603 66.3834 47.2581 66.4534 47.3259L66.7006 47.5666C66.7706 47.6344 66.7728 47.7481 66.705 47.8181ZM67.3809 48.4744L65.8256 50.08C65.7578 50.15 65.6441 50.1522 65.5741 50.0844L65.3269 49.8438C65.2932 49.8108 65.2738 49.766 65.273 49.7189C65.2722 49.6718 65.29 49.6263 65.3225 49.5922L66.8778 47.9866C66.9456 47.9166 67.0594 47.9144 67.1294 47.9822L67.3766 48.2228C67.4466 48.2906 67.4488 48.4022 67.3809 48.4744Z" fill="#6D4238"/>
<path d="M70.2903 48.2578L68.4856 50.1216C68.3646 50.2465 68.199 50.3183 68.0251 50.3212C67.8511 50.3241 67.6832 50.2578 67.5581 50.1369L57.0931 39.9978C56.9682 39.8768 56.8964 39.7111 56.8935 39.5372C56.8907 39.3633 56.9569 39.1954 57.0778 39.0703L58.8825 37.2066C59.0035 37.0816 59.1692 37.0098 59.3431 37.0069C59.517 37.0041 59.6849 37.0704 59.81 37.1913L70.2772 47.3281C70.3392 47.3883 70.3887 47.46 70.4229 47.5393C70.4571 47.6186 70.4753 47.7039 70.4765 47.7902C70.4778 47.8766 70.4619 47.9623 70.43 48.0426C70.398 48.1228 70.3506 48.1959 70.2903 48.2578Z" fill="#CF381A"/>
<path d="M69.3081 47.8881L68.1006 49.135C67.9796 49.26 67.814 49.3317 67.6401 49.3346C67.4661 49.3375 67.2982 49.2712 67.1731 49.1503L57.6531 39.93C57.5282 39.809 57.4564 39.6433 57.4535 39.4694C57.4506 39.2955 57.5169 39.1276 57.6378 39.0025L58.8453 37.7556C58.9663 37.6307 59.132 37.5589 59.3059 37.556C59.4798 37.5531 59.6478 37.6194 59.7728 37.7403L69.2906 46.9606C69.3534 47.02 69.4036 47.0912 69.4385 47.1702C69.4734 47.2492 69.4922 47.3344 69.4938 47.4207C69.4955 47.507 69.4799 47.5928 69.448 47.6731C69.4161 47.7533 69.3686 47.8264 69.3081 47.8881ZM78.3381 44.9984L76.8506 44.9656C76.4937 44.9575 76.1545 44.808 75.9076 44.55C75.6607 44.2921 75.5263 43.9467 75.5338 43.5897L75.805 31.3178C75.8225 30.5741 76.4372 29.9856 77.1809 30.0009L78.6684 30.0338C79.4122 30.0513 80.0006 30.6659 79.9853 31.4097L79.7141 43.6816C79.7059 44.0385 79.5565 44.3777 79.2985 44.6246C79.0405 44.8715 78.6951 45.0059 78.3381 44.9984Z" fill="#FF5722"/>
<path d="M76.7894 36.2353C77.0527 36.2353 77.2663 36.0218 77.2663 35.7584C77.2663 35.4951 77.0527 35.2816 76.7894 35.2816C76.526 35.2816 76.3125 35.4951 76.3125 35.7584C76.3125 36.0218 76.526 36.2353 76.7894 36.2353Z" fill="#6D4238"/>
<path d="M76.7391 38.2741C77.0024 38.2741 77.2159 38.0606 77.2159 37.7972C77.2159 37.5338 77.0024 37.3203 76.7391 37.3203C76.4757 37.3203 76.2622 37.5338 76.2622 37.7972C76.2622 38.0606 76.4757 38.2741 76.7391 38.2741Z" fill="#6D4238"/>
<path d="M76.6888 40.3128C76.9521 40.3128 77.1656 40.0993 77.1656 39.8359C77.1656 39.5726 76.9521 39.3591 76.6888 39.3591C76.4254 39.3591 76.2119 39.5726 76.2119 39.8359C76.2119 40.0993 76.4254 40.3128 76.6888 40.3128Z" fill="#6D4238"/>
<path d="M76.6384 42.3494C76.9018 42.3494 77.1153 42.1359 77.1153 41.8725C77.1153 41.6091 76.9018 41.3956 76.6384 41.3956C76.3751 41.3956 76.1616 41.6091 76.1616 41.8725C76.1616 42.1359 76.3751 42.3494 76.6384 42.3494Z" fill="#6D4238"/>
<path d="M79.0206 34.1725C79.284 34.1725 79.4975 33.959 79.4975 33.6956C79.4975 33.4323 79.284 33.2188 79.0206 33.2188C78.7573 33.2188 78.5438 33.4323 78.5438 33.6956C78.5438 33.959 78.7573 34.1725 79.0206 34.1725Z" fill="#6D4238"/>
<path d="M78.9703 36.2113C79.2337 36.2113 79.4472 35.9977 79.4472 35.7344C79.4472 35.471 79.2337 35.2575 78.9703 35.2575C78.7069 35.2575 78.4934 35.471 78.4934 35.7344C78.4934 35.9977 78.7069 36.2113 78.9703 36.2113Z" fill="#6D4238"/>
<path d="M78.92 38.2478C79.1834 38.2478 79.3969 38.0343 79.3969 37.7709C79.3969 37.5076 79.1834 37.2941 78.92 37.2941C78.6566 37.2941 78.4431 37.5076 78.4431 37.7709C78.4431 38.0343 78.6566 38.2478 78.92 38.2478Z" fill="#6D4238"/>
<path d="M78.8675 40.2866C79.1309 40.2866 79.3444 40.0731 79.3444 39.8097C79.3444 39.5463 79.1309 39.3328 78.8675 39.3328C78.6041 39.3328 78.3906 39.5463 78.3906 39.8097C78.3906 40.0731 78.6041 40.2866 78.8675 40.2866Z" fill="#6D4238"/>
<path d="M77.905 35.205C78.1684 35.205 78.3819 34.9915 78.3819 34.7281C78.3819 34.4648 78.1684 34.2513 77.905 34.2513C77.6416 34.2513 77.4281 34.4648 77.4281 34.7281C77.4281 34.9915 77.6416 35.205 77.905 35.205Z" fill="#6D4238"/>
<path d="M77.8547 37.2416C78.1181 37.2416 78.3316 37.0281 78.3316 36.7647C78.3316 36.5013 78.1181 36.2878 77.8547 36.2878C77.5913 36.2878 77.3778 36.5013 77.3778 36.7647C77.3778 37.0281 77.5913 37.2416 77.8547 37.2416Z" fill="#6D4238"/>
<path d="M77.8044 39.2803C78.0678 39.2803 78.2813 39.0668 78.2813 38.8034C78.2813 38.5401 78.0678 38.3266 77.8044 38.3266C77.541 38.3266 77.3275 38.5401 77.3275 38.8034C77.3275 39.0668 77.541 39.2803 77.8044 39.2803Z" fill="#6D4238"/>
<path d="M77.7541 41.3191C78.0174 41.3191 78.2309 41.1056 78.2309 40.8422C78.2309 40.5788 78.0174 40.3653 77.7541 40.3653C77.4907 40.3653 77.2772 40.5788 77.2772 40.8422C77.2772 41.1056 77.4907 41.3191 77.7541 41.3191Z" fill="#6D4238"/>
</svg>
