<svg width="101" height="100" viewBox="0 0 101 100" fill="none" xmlns="http://www.w3.org/2000/svg">
<mask id="path-1-inside-1_576_10449" fill="white">
<path fill-rule="evenodd" clip-rule="evenodd" d="M69.5 0C68.9477 0 68.5029 0.448498 68.4727 0.999957C67.9538 10.476 60.1056 18 50.5 18C40.8944 18 33.0462 10.476 32.5273 0.999955C32.4971 0.448497 32.0523 0 31.5 0L4.5 0C2.29086 0 0.5 1.79086 0.5 4L0.5 31C0.5 31.5523 0.948497 31.9971 1.49996 32.0273C10.976 32.5462 18.5 40.3944 18.5 50C18.5 59.6056 10.976 67.4538 1.49996 67.9727C0.948498 68.0029 0.5 68.4477 0.5 69L0.5 96C0.5 98.2091 2.29086 100 4.5 100H31.5C32.0523 100 32.4971 99.5515 32.5273 99C33.0462 89.524 40.8944 82 50.5 82C60.1056 82 67.9538 89.524 68.4727 99C68.5029 99.5515 68.9477 100 69.5 100H96.5C98.7091 100 100.5 98.2091 100.5 96V69C100.5 68.4477 100.051 68.0029 99.5 67.9727C90.024 67.4538 82.5 59.6056 82.5 50C82.5 40.3944 90.024 32.5462 99.5 32.0273C100.052 31.9971 100.5 31.5523 100.5 31V4C100.5 1.79086 98.7091 0 96.5 0L69.5 0Z"/>
</mask>
<path fill-rule="evenodd" clip-rule="evenodd" d="M69.5 0C68.9477 0 68.5029 0.448498 68.4727 0.999957C67.9538 10.476 60.1056 18 50.5 18C40.8944 18 33.0462 10.476 32.5273 0.999955C32.4971 0.448497 32.0523 0 31.5 0L4.5 0C2.29086 0 0.5 1.79086 0.5 4L0.5 31C0.5 31.5523 0.948497 31.9971 1.49996 32.0273C10.976 32.5462 18.5 40.3944 18.5 50C18.5 59.6056 10.976 67.4538 1.49996 67.9727C0.948498 68.0029 0.5 68.4477 0.5 69L0.5 96C0.5 98.2091 2.29086 100 4.5 100H31.5C32.0523 100 32.4971 99.5515 32.5273 99C33.0462 89.524 40.8944 82 50.5 82C60.1056 82 67.9538 89.524 68.4727 99C68.5029 99.5515 68.9477 100 69.5 100H96.5C98.7091 100 100.5 98.2091 100.5 96V69C100.5 68.4477 100.051 68.0029 99.5 67.9727C90.024 67.4538 82.5 59.6056 82.5 50C82.5 40.3944 90.024 32.5462 99.5 32.0273C100.052 31.9971 100.5 31.5523 100.5 31V4C100.5 1.79086 98.7091 0 96.5 0L69.5 0Z" fill="#374151" fill-opacity="0.4"/>
<path d="M99.5 32.0273L99.4454 31.0288L99.5 32.0273ZM99.5 67.9727L99.4454 68.9712L99.5 67.9727ZM32.5273 99L33.5258 99.0547L32.5273 99ZM1.49996 67.9727L1.44528 66.9742L1.49996 67.9727ZM32.5273 0.999955L31.5288 1.05463L32.5273 0.999955ZM68.4727 99L67.4742 99.0547L68.4727 99ZM68.4727 0.999957L67.4742 0.945284L68.4727 0.999957ZM50.5 19C60.6396 19 68.9235 11.058 69.4712 1.05463L67.4742 0.945284C66.9842 9.89398 59.5716 17 50.5 17L50.5 19ZM31.5288 1.05463C32.0765 11.058 40.3604 19 50.5 19L50.5 17C41.4284 17 34.0158 9.89397 33.5258 0.945282L31.5288 1.05463ZM4.5 1L31.5 1V-1L4.5 -1V1ZM1.5 4C1.5 2.34315 2.84315 1 4.5 1V-1C1.73858 -1 -0.5 1.23858 -0.5 4H1.5ZM1.5 31L1.5 4H-0.5L-0.5 31H1.5ZM1.44528 33.0258C10.394 33.5158 17.5 40.9284 17.5 50L19.5 50C19.5 39.8604 11.558 31.5765 1.55463 31.0288L1.44528 33.0258ZM17.5 50C17.5 59.0716 10.394 66.4842 1.44528 66.9742L1.55463 68.9712C11.558 68.4235 19.5 60.1396 19.5 50L17.5 50ZM1.5 96L1.5 69H-0.5L-0.5 96H1.5ZM4.5 99C2.84315 99 1.5 97.6569 1.5 96H-0.5C-0.5 98.7614 1.73858 101 4.5 101L4.5 99ZM31.5 99H4.5L4.5 101H31.5V99ZM50.5 81C40.3604 81 32.0765 88.942 31.5288 98.9454L33.5258 99.0547C34.0158 90.106 41.4284 83 50.5 83V81ZM69.4712 98.9454C68.9235 88.942 60.6396 81 50.5 81V83C59.5716 83 66.9842 90.106 67.4742 99.0547L69.4712 98.9454ZM96.5 99H69.5V101H96.5V99ZM99.5 96C99.5 97.6569 98.1569 99 96.5 99V101C99.2614 101 101.5 98.7614 101.5 96H99.5ZM99.5 69V96H101.5V69H99.5ZM81.5 50C81.5 60.1396 89.442 68.4235 99.4454 68.9712L99.5547 66.9742C90.606 66.4842 83.5 59.0716 83.5 50H81.5ZM99.4454 31.0288C89.442 31.5765 81.5 39.8604 81.5 50H83.5C83.5 40.9284 90.606 33.5158 99.5547 33.0258L99.4454 31.0288ZM99.5 4V31H101.5V4L99.5 4ZM96.5 1C98.1569 1 99.5 2.34315 99.5 4L101.5 4C101.5 1.23858 99.2614 -1 96.5 -1V1ZM69.5 1L96.5 1V-1L69.5 -1V1ZM99.5547 33.0258C100.601 32.9685 101.5 32.1183 101.5 31H99.5C99.5 31.0012 99.4999 31.0012 99.5 31.0007C99.5001 31.0001 99.5003 30.9998 99.5002 30.9999C99.5002 31.0001 99.4987 31.0033 99.494 31.0081C99.4836 31.0187 99.4667 31.0276 99.4454 31.0288L99.5547 33.0258ZM101.5 69C101.5 67.8817 100.601 67.0315 99.5547 66.9742L99.4454 68.9712C99.4667 68.9724 99.4836 68.9813 99.494 68.9919C99.4987 68.9967 99.5002 68.9999 99.5002 69.0001C99.5003 69.0002 99.5001 68.9999 99.5 68.9994C99.4999 68.9988 99.5 68.9988 99.5 69H101.5ZM31.5 101C32.6183 101 33.4685 100.101 33.5258 99.0547L31.5288 98.9454C31.5276 98.9667 31.5187 98.9836 31.5081 98.994C31.5033 98.9987 31.5001 99.0002 31.4999 99.0002C31.4998 99.0003 31.5001 99.0001 31.5006 99C31.5012 98.9999 31.5012 99 31.5 99V101ZM-0.5 31C-0.5 32.1183 0.399211 32.9685 1.44528 33.0258L1.55463 31.0288C1.53335 31.0276 1.5164 31.0187 1.506 31.0081C1.50127 31.0033 1.49985 31.0001 1.49977 30.9999C1.49974 30.9998 1.49987 31.0001 1.49998 31.0007C1.5001 31.0012 1.5 31.0012 1.5 31H-0.5ZM1.44528 66.9742C0.399215 67.0315 -0.5 67.8817 -0.5 69H1.5C1.5 68.9988 1.5001 68.9988 1.49998 68.9994C1.49987 68.9999 1.49974 69.0002 1.49977 69.0001C1.49985 68.9999 1.50127 68.9967 1.506 68.9919C1.5164 68.9813 1.53335 68.9724 1.55463 68.9712L1.44528 66.9742ZM33.5258 0.945282C33.4685 -0.100789 32.6183 -1 31.5 -1V1C31.5012 1 31.5012 1.0001 31.5007 0.999977C31.5001 0.999868 31.4998 0.999738 31.4999 0.999766C31.5001 0.999846 31.5033 1.00127 31.5081 1.006C31.5187 1.0164 31.5276 1.03335 31.5288 1.05463L33.5258 0.945282ZM67.4742 99.0547C67.5315 100.101 68.3817 101 69.5 101V99C69.4988 99 69.4988 98.9999 69.4994 99C69.4999 99.0001 69.5002 99.0003 69.5001 99.0002C69.4999 99.0002 69.4967 98.9987 69.4919 98.994C69.4813 98.9836 69.4724 98.9667 69.4712 98.9454L67.4742 99.0547ZM69.4712 1.05463C69.4724 1.03335 69.4813 1.0164 69.4919 1.006C69.4967 1.00127 69.4999 0.999846 69.5001 0.999766C69.5002 0.999738 69.4999 0.999868 69.4994 0.999977C69.4988 1.0001 69.4988 1 69.5 1V-1C68.3817 -1 67.5315 -0.100786 67.4742 0.945284L69.4712 1.05463Z" fill="#374151" mask="url(#path-1-inside-1_576_10449)"/>
<path d="M29.7455 71.108C29.2735 71.108 28.8815 71.024 28.5695 70.856C28.2655 70.68 28.0335 70.42 27.8735 70.076C27.7215 69.732 27.6455 69.304 27.6455 68.792V65.576C27.6455 65.408 27.6855 65.284 27.7655 65.204C27.8535 65.124 27.9735 65.084 28.1255 65.084C28.2855 65.084 28.4055 65.124 28.4855 65.204C28.5735 65.284 28.6175 65.408 28.6175 65.576V68.78C28.6175 69.292 28.7215 69.676 28.9295 69.932C29.1455 70.18 29.4815 70.304 29.9375 70.304C30.4335 70.304 30.8375 70.136 31.1495 69.8C31.4615 69.464 31.6175 69.024 31.6175 68.48V65.576C31.6175 65.408 31.6575 65.284 31.7375 65.204C31.8255 65.124 31.9495 65.084 32.1095 65.084C32.2615 65.084 32.3775 65.124 32.4575 65.204C32.5455 65.284 32.5895 65.408 32.5895 65.576V70.58C32.5895 70.916 32.4335 71.084 32.1215 71.084C31.9695 71.084 31.8495 71.04 31.7615 70.952C31.6815 70.864 31.6415 70.74 31.6415 70.58V69.488L31.7975 69.656C31.6375 70.128 31.3735 70.488 31.0055 70.736C30.6455 70.984 30.2255 71.108 29.7455 71.108ZM34.8881 71.084C34.7281 71.084 34.6081 71.04 34.5281 70.952C34.4481 70.864 34.4081 70.74 34.4081 70.58V65.576C34.4081 65.416 34.4481 65.296 34.5281 65.216C34.6081 65.128 34.7241 65.084 34.8761 65.084C35.0281 65.084 35.1441 65.128 35.2241 65.216C35.3121 65.296 35.3561 65.416 35.3561 65.576V66.608L35.2241 66.464C35.3921 66 35.6641 65.652 36.0401 65.42C36.4241 65.18 36.8641 65.06 37.3601 65.06C37.8241 65.06 38.2081 65.144 38.5121 65.312C38.8241 65.48 39.0561 65.736 39.2081 66.08C39.3601 66.416 39.4361 66.844 39.4361 67.364V70.58C39.4361 70.74 39.3921 70.864 39.3041 70.952C39.2241 71.04 39.1081 71.084 38.9561 71.084C38.7961 71.084 38.6721 71.04 38.5841 70.952C38.5041 70.864 38.4641 70.74 38.4641 70.58V67.424C38.4641 66.88 38.3561 66.484 38.1401 66.236C37.9321 65.98 37.5961 65.852 37.1321 65.852C36.5961 65.852 36.1681 66.02 35.8481 66.356C35.5361 66.684 35.3801 67.124 35.3801 67.676V70.58C35.3801 70.916 35.2161 71.084 34.8881 71.084ZM41.7084 73.244C41.5484 73.244 41.4284 73.2 41.3484 73.112C41.2684 73.032 41.2284 72.912 41.2284 72.752V65.576C41.2284 65.416 41.2684 65.296 41.3484 65.216C41.4284 65.128 41.5444 65.084 41.6964 65.084C41.8564 65.084 41.9764 65.128 42.0564 65.216C42.1444 65.296 42.1884 65.416 42.1884 65.576V66.716L42.0564 66.548C42.1844 66.092 42.4364 65.732 42.8124 65.468C43.1964 65.196 43.6524 65.06 44.1804 65.06C44.7004 65.06 45.1524 65.184 45.5364 65.432C45.9284 65.672 46.2284 66.02 46.4364 66.476C46.6524 66.924 46.7604 67.46 46.7604 68.084C46.7604 68.7 46.6524 69.236 46.4364 69.692C46.2284 70.14 45.9324 70.488 45.5484 70.736C45.1644 70.984 44.7084 71.108 44.1804 71.108C43.6524 71.108 43.2004 70.976 42.8244 70.712C42.4484 70.44 42.1924 70.08 42.0564 69.632H42.2004V72.752C42.2004 72.912 42.1564 73.032 42.0684 73.112C41.9804 73.2 41.8604 73.244 41.7084 73.244ZM43.9764 70.328C44.3444 70.328 44.6604 70.24 44.9244 70.064C45.1964 69.888 45.4044 69.632 45.5484 69.296C45.7004 68.96 45.7764 68.556 45.7764 68.084C45.7764 67.356 45.6124 66.8 45.2844 66.416C44.9644 66.032 44.5284 65.84 43.9764 65.84C43.6164 65.84 43.3004 65.928 43.0284 66.104C42.7564 66.272 42.5444 66.524 42.3924 66.86C42.2484 67.188 42.1764 67.596 42.1764 68.084C42.1764 68.804 42.3404 69.36 42.6684 69.752C42.9964 70.136 43.4324 70.328 43.9764 70.328ZM50.0005 71.108C49.4245 71.108 48.9845 70.932 48.6805 70.58C48.3765 70.228 48.2245 69.724 48.2245 69.068V62.948C48.2245 62.788 48.2645 62.668 48.3445 62.588C48.4245 62.5 48.5445 62.456 48.7045 62.456C48.8565 62.456 48.9765 62.5 49.0645 62.588C49.1525 62.668 49.1965 62.788 49.1965 62.948V68.996C49.1965 69.428 49.2805 69.752 49.4485 69.968C49.6245 70.176 49.8805 70.28 50.2165 70.28C50.2885 70.28 50.3525 70.276 50.4085 70.268C50.4645 70.26 50.5205 70.256 50.5765 70.256C50.6645 70.248 50.7245 70.268 50.7565 70.316C50.7965 70.364 50.8165 70.46 50.8165 70.604C50.8165 70.748 50.7845 70.856 50.7205 70.928C50.6565 71 50.5525 71.048 50.4085 71.072C50.3445 71.08 50.2765 71.088 50.2045 71.096C50.1325 71.104 50.0645 71.108 50.0005 71.108ZM53.8393 71.108C53.3673 71.108 52.9753 71.024 52.6633 70.856C52.3593 70.68 52.1273 70.42 51.9673 70.076C51.8153 69.732 51.7393 69.304 51.7393 68.792V65.576C51.7393 65.408 51.7793 65.284 51.8593 65.204C51.9473 65.124 52.0673 65.084 52.2193 65.084C52.3793 65.084 52.4993 65.124 52.5793 65.204C52.6673 65.284 52.7113 65.408 52.7113 65.576V68.78C52.7113 69.292 52.8153 69.676 53.0233 69.932C53.2393 70.18 53.5753 70.304 54.0313 70.304C54.5273 70.304 54.9313 70.136 55.2433 69.8C55.5553 69.464 55.7113 69.024 55.7113 68.48V65.576C55.7113 65.408 55.7513 65.284 55.8313 65.204C55.9193 65.124 56.0433 65.084 56.2033 65.084C56.3553 65.084 56.4713 65.124 56.5513 65.204C56.6393 65.284 56.6833 65.408 56.6833 65.576V70.58C56.6833 70.916 56.5273 71.084 56.2153 71.084C56.0633 71.084 55.9433 71.04 55.8553 70.952C55.7753 70.864 55.7353 70.74 55.7353 70.58V69.488L55.8913 69.656C55.7313 70.128 55.4673 70.488 55.0993 70.736C54.7393 70.984 54.3193 71.108 53.8393 71.108ZM61.0818 73.268C60.6578 73.268 60.2418 73.216 59.8338 73.112C59.4338 73.016 59.0698 72.86 58.7418 72.644C58.6458 72.588 58.5818 72.52 58.5498 72.44C58.5258 72.36 58.5218 72.28 58.5378 72.2C58.5538 72.128 58.5898 72.06 58.6458 71.996C58.7018 71.94 58.7658 71.904 58.8378 71.888C58.9178 71.872 58.9978 71.884 59.0778 71.924C59.4298 72.14 59.7658 72.288 60.0858 72.368C60.4058 72.448 60.7218 72.488 61.0338 72.488C61.6018 72.488 62.0298 72.336 62.3178 72.032C62.6138 71.728 62.7618 71.288 62.7618 70.712V69.356H62.8818C62.7618 69.82 62.5058 70.188 62.1138 70.46C61.7298 70.732 61.2778 70.868 60.7578 70.868C60.2218 70.868 59.7578 70.748 59.3658 70.508C58.9738 70.26 58.6698 69.916 58.4538 69.476C58.2458 69.036 58.1418 68.528 58.1418 67.952C58.1418 67.52 58.2018 67.128 58.3218 66.776C58.4418 66.416 58.6138 66.112 58.8378 65.864C59.0698 65.608 59.3458 65.412 59.6658 65.276C59.9938 65.132 60.3578 65.06 60.7578 65.06C61.2858 65.06 61.7418 65.196 62.1258 65.468C62.5098 65.732 62.7578 66.092 62.8698 66.548L62.7498 66.692V65.576C62.7498 65.416 62.7898 65.296 62.8698 65.216C62.9578 65.128 63.0778 65.084 63.2298 65.084C63.3898 65.084 63.5098 65.128 63.5898 65.216C63.6698 65.296 63.7098 65.416 63.7098 65.576V70.58C63.7098 71.468 63.4858 72.136 63.0378 72.584C62.5978 73.04 61.9458 73.268 61.0818 73.268ZM60.9378 70.076C61.3138 70.076 61.6378 69.992 61.9098 69.824C62.1818 69.648 62.3898 69.4 62.5338 69.08C62.6858 68.76 62.7618 68.384 62.7618 67.952C62.7618 67.304 62.5978 66.792 62.2698 66.416C61.9418 66.032 61.4978 65.84 60.9378 65.84C60.5698 65.84 60.2498 65.928 59.9778 66.104C59.7058 66.272 59.4938 66.516 59.3418 66.836C59.1978 67.148 59.1258 67.52 59.1258 67.952C59.1258 68.6 59.2898 69.116 59.6178 69.5C59.9458 69.884 60.3858 70.076 60.9378 70.076ZM66.0131 71.06C65.8531 71.06 65.7331 71.016 65.6531 70.928C65.5731 70.832 65.5331 70.7 65.5331 70.532V65.624C65.5331 65.456 65.5731 65.328 65.6531 65.24C65.7331 65.152 65.8531 65.108 66.0131 65.108C66.1651 65.108 66.2851 65.152 66.3731 65.24C66.4611 65.328 66.5051 65.456 66.5051 65.624V70.532C66.5051 70.7 66.4611 70.832 66.3731 70.928C66.2931 71.016 66.1731 71.06 66.0131 71.06ZM66.0131 63.764C65.8131 63.764 65.6571 63.712 65.5451 63.608C65.4331 63.496 65.3771 63.348 65.3771 63.164C65.3771 62.972 65.4331 62.828 65.5451 62.732C65.6571 62.628 65.8131 62.576 66.0131 62.576C66.2211 62.576 66.3771 62.628 66.4811 62.732C66.5931 62.828 66.6491 62.972 66.6491 63.164C66.6491 63.348 66.5931 63.496 66.4811 63.608C66.3771 63.712 66.2211 63.764 66.0131 63.764ZM68.8022 71.084C68.6422 71.084 68.5222 71.04 68.4422 70.952C68.3622 70.864 68.3222 70.74 68.3222 70.58V65.576C68.3222 65.416 68.3622 65.296 68.4422 65.216C68.5222 65.128 68.6382 65.084 68.7902 65.084C68.9422 65.084 69.0582 65.128 69.1382 65.216C69.2262 65.296 69.2702 65.416 69.2702 65.576V66.608L69.1382 66.464C69.3062 66 69.5782 65.652 69.9542 65.42C70.3382 65.18 70.7782 65.06 71.2742 65.06C71.7382 65.06 72.1222 65.144 72.4262 65.312C72.7382 65.48 72.9702 65.736 73.1222 66.08C73.2742 66.416 73.3502 66.844 73.3502 67.364V70.58C73.3502 70.74 73.3062 70.864 73.2182 70.952C73.1382 71.04 73.0222 71.084 72.8702 71.084C72.7102 71.084 72.5862 71.04 72.4982 70.952C72.4182 70.864 72.3782 70.74 72.3782 70.58V67.424C72.3782 66.88 72.2702 66.484 72.0542 66.236C71.8462 65.98 71.5102 65.852 71.0462 65.852C70.5102 65.852 70.0822 66.02 69.7622 66.356C69.4502 66.684 69.2942 67.124 69.2942 67.676V70.58C69.2942 70.916 69.1302 71.084 68.8022 71.084Z" fill="#F9FAFB"/>
<path d="M43.6619 39.0813C43.57 38.9894 37.9766 37.7578 37.9766 37.7578C37.9766 37.7578 37.6506 38.2806 37.7447 38.5891C37.7972 38.7619 39.0178 40.1816 40.2734 41.4875C41.2644 42.52 42.3909 43.57 42.555 44.1694C42.8066 45.0925 42.8328 46.5735 42.8328 46.5735L39.1863 48.8003C39.1863 48.8003 39.6325 51.071 42.5244 50.9813C45.2259 50.8981 45.3659 48.0369 46.2234 48.0216C46.3678 48.0194 46.5669 47.9691 46.9234 48.3519C47.8072 49.3013 49.4609 51.1344 50.0144 51.69C50.7538 52.4294 51.2788 53.1688 51.5566 53.1381C51.8344 53.1075 54.1772 51.0119 54.8553 50.3644C55.5334 49.7169 56.1503 48.9469 56.1503 48.2994C56.1503 47.6519 55.1944 47.1597 55.1944 47.1597L49.9225 47.7766L43.6619 39.0813ZM59.1669 30.7294C59.2588 30.7294 61.6016 29.5591 61.6016 29.5591C61.6016 29.5591 62.8047 31.9938 61.2625 33.3806C59.7203 34.7675 59.3813 33.9822 58.6419 34.7981C58.0775 35.4216 58.3641 36.71 58.3641 36.71L62.9469 41.1156C62.9469 41.1156 63.2028 41.5816 63.0191 41.9206C62.8878 42.1613 61.3456 43.8872 60.1513 45.1275C59.6131 45.6853 58.8628 45.8735 58.4559 45.775C57.4388 45.5278 57.2856 44.7272 57.0997 43.3097C56.9138 41.8922 55.6931 41.9141 55.2491 41.9841C54.3128 42.1328 53.7025 42.6797 53.7025 42.6797C53.7025 42.6797 48.19 36.0363 48.2513 35.8503C48.3125 35.6644 48.5291 34.2775 47.8816 33.6935C47.2341 33.1072 45.9413 32.8097 45.4469 32.4706C44.9547 32.1316 44.8891 31.4863 44.9788 30.8606C45.0684 30.235 49.0541 30.2416 49.0541 30.2416C49.0541 30.2416 55.9272 34.0325 55.96 33.8794C55.9906 33.7175 59.1669 30.7294 59.1669 30.7294Z" fill="#B0B0AF"/>
<path d="M55.7762 31.4666C55.9425 30.8585 55.7522 29.3644 56.9137 28.3756C58.0753 27.3869 59.8822 27.5094 60.9694 28.5485C62.0566 29.5875 62.2316 31.541 60.9453 32.8272C59.6591 34.1135 59.0662 33.396 58.3487 34.0894C57.6312 34.7828 57.7559 35.3516 58.2 35.7716C58.6462 36.1916 63.0737 40.8181 62.9491 41.1135C62.8244 41.4088 59.8078 44.8235 59.3134 45.0706C58.8191 45.3178 57.9528 45.2938 57.78 44.4778C57.6072 43.6619 57.9047 42.03 56.6666 41.6078C55.4306 41.1878 54.8859 41.5335 53.6741 42.8197C52.4622 44.106 51.9175 45.5147 52.9062 46.2322C53.895 46.9497 55.1331 46.6522 55.6275 47.4944C56.1219 48.3366 55.3803 49.1022 54.07 50.3141C52.7597 51.526 51.7447 52.5147 51.5719 52.3922C51.3991 52.2675 47.6387 48.2863 47.2691 47.8663C46.8972 47.4463 46.1797 47.0744 45.4884 47.7175C44.795 48.3606 44.6725 50.4628 41.7544 50.4628C38.8362 50.4628 38.4862 47.2975 39.5253 45.9872C40.5644 44.6769 42.8634 44.5522 42.9137 43.6619C42.9356 43.2528 41.6734 42.1503 40.5403 40.9669C39.2081 39.5735 37.97 38.0969 37.9175 37.9241C37.8191 37.6025 40.6869 34.7828 41.2316 34.3869C41.7762 33.991 42.3931 34.2381 42.6906 34.5597C42.9881 34.8813 43.0625 35.87 43.3097 36.4388C43.5569 37.0075 44.7184 39.4816 47.5141 36.6619C50.2834 33.8663 47.6628 32.6544 46.7725 32.4072C45.8822 32.16 45.2412 32.0791 44.9919 31.1713C44.795 30.4538 45.8822 29.6138 47.0197 28.5244C48.1572 27.435 48.8244 26.8663 49.1219 26.8663C49.4194 26.8663 53.4006 31.145 53.9212 31.6394C54.4419 32.1338 54.7612 32.2585 55.1331 32.1578C55.5028 32.0616 55.7019 31.74 55.7762 31.4666Z" fill="url(#paint0_radial_576_10449)"/>
<defs>
<radialGradient id="paint0_radial_576_10449" cx="0" cy="0" r="1" gradientUnits="userSpaceOnUse" gradientTransform="translate(50.1001 19.8094) scale(26.0805 26.0805)">
<stop offset="0.508" stop-color="#B7D118"/>
<stop offset="0.572" stop-color="#B2D019"/>
<stop offset="0.643" stop-color="#A5CD1D"/>
<stop offset="0.717" stop-color="#8FC922"/>
<stop offset="0.793" stop-color="#70C22A"/>
<stop offset="0.871" stop-color="#48BA34"/>
<stop offset="0.949" stop-color="#18B040"/>
<stop offset="0.981" stop-color="#02AB46"/>
</radialGradient>
</defs>
</svg>
