<svg width="100" height="100" viewBox="0 0 100 100" fill="none" xmlns="http://www.w3.org/2000/svg">
<mask id="path-1-inside-1_576_10449" fill="white">
<path fill-rule="evenodd" clip-rule="evenodd" d="M69 0C68.4477 0 68.0029 0.448498 67.9727 0.999957C67.4538 10.476 59.6056 18 50 18C40.3944 18 32.5462 10.476 32.0273 0.999955C31.9971 0.448497 31.5523 0 31 0L4 0C1.79086 0 0 1.79086 0 4L0 31C0 31.5523 0.448497 31.9971 0.999955 32.0273C10.476 32.5462 18 40.3944 18 50C18 59.6056 10.476 67.4538 0.999957 67.9727C0.448498 68.0029 0 68.4477 0 69L0 96C0 98.2091 1.79086 100 4 100H31C31.5523 100 31.9971 99.5515 32.0273 99C32.5462 89.524 40.3944 82 50 82C59.6056 82 67.4538 89.524 67.9727 99C68.0029 99.5515 68.4477 100 69 100H96C98.2091 100 100 98.2091 100 96V69C100 68.4477 99.5515 68.0029 99 67.9727C89.524 67.4538 82 59.6056 82 50C82 40.3944 89.524 32.5462 99 32.0273C99.5515 31.9971 100 31.5523 100 31V4C100 1.79086 98.2091 0 96 0L69 0Z"/>
</mask>
<path fill-rule="evenodd" clip-rule="evenodd" d="M69 0C68.4477 0 68.0029 0.448498 67.9727 0.999957C67.4538 10.476 59.6056 18 50 18C40.3944 18 32.5462 10.476 32.0273 0.999955C31.9971 0.448497 31.5523 0 31 0L4 0C1.79086 0 0 1.79086 0 4L0 31C0 31.5523 0.448497 31.9971 0.999955 32.0273C10.476 32.5462 18 40.3944 18 50C18 59.6056 10.476 67.4538 0.999957 67.9727C0.448498 68.0029 0 68.4477 0 69L0 96C0 98.2091 1.79086 100 4 100H31C31.5523 100 31.9971 99.5515 32.0273 99C32.5462 89.524 40.3944 82 50 82C59.6056 82 67.4538 89.524 67.9727 99C68.0029 99.5515 68.4477 100 69 100H96C98.2091 100 100 98.2091 100 96V69C100 68.4477 99.5515 68.0029 99 67.9727C89.524 67.4538 82 59.6056 82 50C82 40.3944 89.524 32.5462 99 32.0273C99.5515 31.9971 100 31.5523 100 31V4C100 1.79086 98.2091 0 96 0L69 0Z" fill="#374151" fill-opacity="0.4"/>
<path d="M99 32.0273L98.9454 31.0288L99 32.0273ZM99 67.9727L98.9454 68.9712L99 67.9727ZM32.0273 99L33.0258 99.0547L32.0273 99ZM0.999957 67.9727L0.945284 66.9742L0.999957 67.9727ZM32.0273 0.999955L31.0288 1.05463L32.0273 0.999955ZM67.9727 99L66.9742 99.0547L67.9727 99ZM67.9727 0.999957L66.9742 0.945284L67.9727 0.999957ZM50 19C60.1396 19 68.4235 11.058 68.9712 1.05463L66.9742 0.945284C66.4842 9.89398 59.0716 17 50 17L50 19ZM31.0288 1.05463C31.5765 11.058 39.8604 19 50 19L50 17C40.9284 17 33.5158 9.89397 33.0258 0.945282L31.0288 1.05463ZM4 1L31 1V-1L4 -1V1ZM1 4C1 2.34315 2.34315 1 4 1V-1C1.23858 -1 -1 1.23858 -1 4H1ZM1 31L1 4H-1L-1 31H1ZM0.945282 33.0258C9.89397 33.5158 17 40.9284 17 50L19 50C19 39.8604 11.058 31.5765 1.05463 31.0288L0.945282 33.0258ZM17 50C17 59.0716 9.89398 66.4842 0.945284 66.9742L1.05463 68.9712C11.058 68.4235 19 60.1396 19 50L17 50ZM1 96L1 69H-1L-1 96H1ZM4 99C2.34315 99 1 97.6569 1 96H-1C-1 98.7614 1.23858 101 4 101L4 99ZM31 99H4L4 101H31V99ZM50 81C39.8604 81 31.5765 88.942 31.0288 98.9454L33.0258 99.0547C33.5158 90.106 40.9284 83 50 83V81ZM68.9712 98.9454C68.4235 88.942 60.1396 81 50 81V83C59.0716 83 66.4842 90.106 66.9742 99.0547L68.9712 98.9454ZM96 99H69V101H96V99ZM99 96C99 97.6569 97.6569 99 96 99V101C98.7614 101 101 98.7614 101 96H99ZM99 69V96H101V69H99ZM81 50C81 60.1396 88.942 68.4235 98.9454 68.9712L99.0547 66.9742C90.106 66.4842 83 59.0716 83 50H81ZM98.9454 31.0288C88.942 31.5765 81 39.8604 81 50H83C83 40.9284 90.106 33.5158 99.0547 33.0258L98.9454 31.0288ZM99 4V31H101V4L99 4ZM96 1C97.6569 1 99 2.34315 99 4L101 4C101 1.23858 98.7614 -1 96 -1V1ZM69 1L96 1V-1L69 -1V1ZM99.0547 33.0258C100.101 32.9685 101 32.1183 101 31H99C99 31.0012 98.9999 31.0012 99 31.0007C99.0001 31.0001 99.0003 30.9998 99.0002 30.9999C99.0002 31.0001 98.9987 31.0033 98.994 31.0081C98.9836 31.0187 98.9667 31.0276 98.9454 31.0288L99.0547 33.0258ZM101 69C101 67.8817 100.101 67.0315 99.0547 66.9742L98.9454 68.9712C98.9667 68.9724 98.9836 68.9813 98.994 68.9919C98.9987 68.9967 99.0002 68.9999 99.0002 69.0001C99.0003 69.0002 99.0001 68.9999 99 68.9994C98.9999 68.9988 99 68.9988 99 69H101ZM31 101C32.1183 101 32.9685 100.101 33.0258 99.0547L31.0288 98.9454C31.0276 98.9667 31.0187 98.9836 31.0081 98.994C31.0033 98.9987 31.0001 99.0002 30.9999 99.0002C30.9998 99.0003 31.0001 99.0001 31.0006 99C31.0012 98.9999 31.0012 99 31 99V101ZM-1 31C-1 32.1183 -0.100789 32.9685 0.945282 33.0258L1.05463 31.0288C1.03335 31.0276 1.0164 31.0187 1.006 31.0081C1.00127 31.0033 0.999846 31.0001 0.999767 30.9999C0.999738 30.9998 0.999868 31.0001 0.999977 31.0007C1.0001 31.0012 1 31.0012 1 31H-1ZM0.945284 66.9742C-0.100785 67.0315 -1 67.8817 -1 69H1C1 68.9988 1.0001 68.9988 0.999977 68.9994C0.999868 68.9999 0.999738 69.0002 0.999766 69.0001C0.999846 68.9999 1.00127 68.9967 1.006 68.9919C1.0164 68.9813 1.03335 68.9724 1.05463 68.9712L0.945284 66.9742ZM33.0258 0.945282C32.9685 -0.100789 32.1183 -1 31 -1V1C31.0012 1 31.0012 1.0001 31.0007 0.999977C31.0001 0.999868 30.9998 0.999738 30.9999 0.999766C31.0001 0.999846 31.0033 1.00127 31.0081 1.006C31.0187 1.0164 31.0276 1.03335 31.0288 1.05463L33.0258 0.945282ZM66.9742 99.0547C67.0315 100.101 67.8817 101 69 101V99C68.9988 99 68.9988 98.9999 68.9994 99C68.9999 99.0001 69.0002 99.0003 69.0001 99.0002C68.9999 99.0002 68.9967 98.9987 68.9919 98.994C68.9813 98.9836 68.9724 98.9667 68.9712 98.9454L66.9742 99.0547ZM68.9712 1.05463C68.9724 1.03335 68.9813 1.0164 68.9919 1.006C68.9967 1.00127 68.9999 0.999846 69.0001 0.999766C69.0002 0.999738 68.9999 0.999868 68.9994 0.999977C68.9988 1.0001 68.9988 1 69 1V-1C67.8817 -1 67.0315 -0.100786 66.9742 0.945284L68.9712 1.05463Z" fill="#374151" mask="url(#path-1-inside-1_576_10449)"/>
<path d="M22.3274 72.144C21.698 72.144 21.1754 72.032 20.7594 71.808C20.354 71.5733 20.0447 71.2267 19.8314 70.768C19.6287 70.3093 19.5274 69.7387 19.5274 69.056V64.768C19.5274 64.544 19.5807 64.3787 19.6874 64.272C19.8047 64.1653 19.9647 64.112 20.1674 64.112C20.3807 64.112 20.5407 64.1653 20.6474 64.272C20.7647 64.3787 20.8234 64.544 20.8234 64.768V69.04C20.8234 69.7227 20.962 70.2347 21.2394 70.576C21.5274 70.9067 21.9754 71.072 22.5834 71.072C23.2447 71.072 23.7834 70.848 24.1994 70.4C24.6154 69.952 24.8234 69.3653 24.8234 68.64V64.768C24.8234 64.544 24.8767 64.3787 24.9834 64.272C25.1007 64.1653 25.266 64.112 25.4794 64.112C25.682 64.112 25.8367 64.1653 25.9434 64.272C26.0607 64.3787 26.1194 64.544 26.1194 64.768V71.44C26.1194 71.888 25.9114 72.112 25.4954 72.112C25.2927 72.112 25.1327 72.0533 25.0154 71.936C24.9087 71.8187 24.8554 71.6533 24.8554 71.44V69.984L25.0634 70.208C24.85 70.8373 24.498 71.3173 24.0074 71.648C23.5274 71.9787 22.9674 72.144 22.3274 72.144ZM29.1841 72.112C28.9708 72.112 28.8108 72.0533 28.7041 71.936C28.5975 71.8187 28.5441 71.6533 28.5441 71.44V64.768C28.5441 64.5547 28.5975 64.3947 28.7041 64.288C28.8108 64.1707 28.9655 64.112 29.1681 64.112C29.3708 64.112 29.5255 64.1707 29.6321 64.288C29.7495 64.3947 29.8081 64.5547 29.8081 64.768V66.144L29.6321 65.952C29.8561 65.3333 30.2188 64.8693 30.7201 64.56C31.2321 64.24 31.8188 64.08 32.4801 64.08C33.0988 64.08 33.6108 64.192 34.0161 64.416C34.4321 64.64 34.7415 64.9813 34.9441 65.44C35.1468 65.888 35.2481 66.4587 35.2481 67.152V71.44C35.2481 71.6533 35.1895 71.8187 35.0721 71.936C34.9655 72.0533 34.8108 72.112 34.6081 72.112C34.3948 72.112 34.2295 72.0533 34.1121 71.936C34.0055 71.8187 33.9521 71.6533 33.9521 71.44V67.232C33.9521 66.5067 33.8081 65.9787 33.5201 65.648C33.2428 65.3067 32.7948 65.136 32.1761 65.136C31.4615 65.136 30.8908 65.36 30.4641 65.808C30.0481 66.2453 29.8401 66.832 29.8401 67.568V71.44C29.8401 71.888 29.6215 72.112 29.1841 72.112ZM38.2779 74.992C38.0645 74.992 37.9045 74.9333 37.7979 74.816C37.6912 74.7093 37.6379 74.5493 37.6379 74.336V64.768C37.6379 64.5547 37.6912 64.3947 37.7979 64.288C37.9045 64.1707 38.0592 64.112 38.2619 64.112C38.4752 64.112 38.6352 64.1707 38.7419 64.288C38.8592 64.3947 38.9179 64.5547 38.9179 64.768V66.288L38.7419 66.064C38.9125 65.456 39.2485 64.976 39.7499 64.624C40.2619 64.2613 40.8699 64.08 41.5739 64.08C42.2672 64.08 42.8699 64.2453 43.3819 64.576C43.9045 64.896 44.3045 65.36 44.5819 65.968C44.8699 66.5653 45.0139 67.28 45.0139 68.112C45.0139 68.9333 44.8699 69.648 44.5819 70.256C44.3045 70.8533 43.9099 71.3173 43.3979 71.648C42.8859 71.9787 42.2779 72.144 41.5739 72.144C40.8699 72.144 40.2672 71.968 39.7659 71.616C39.2645 71.2533 38.9232 70.7733 38.7419 70.176H38.9339V74.336C38.9339 74.5493 38.8752 74.7093 38.7579 74.816C38.6405 74.9333 38.4805 74.992 38.2779 74.992ZM41.3019 71.104C41.7925 71.104 42.2139 70.9867 42.5659 70.752C42.9285 70.5173 43.2059 70.176 43.3979 69.728C43.6005 69.28 43.7019 68.7413 43.7019 68.112C43.7019 67.1413 43.4832 66.4 43.0459 65.888C42.6192 65.376 42.0379 65.12 41.3019 65.12C40.8219 65.12 40.4005 65.2373 40.0379 65.472C39.6752 65.696 39.3925 66.032 39.1899 66.48C38.9979 66.9173 38.9019 67.4613 38.9019 68.112C38.9019 69.072 39.1205 69.8133 39.5579 70.336C39.9952 70.848 40.5765 71.104 41.3019 71.104ZM49.334 72.144C48.566 72.144 47.9793 71.9093 47.574 71.44C47.1687 70.9707 46.966 70.2987 46.966 69.424V61.264C46.966 61.0507 47.0193 60.8907 47.126 60.784C47.2327 60.6667 47.3927 60.608 47.606 60.608C47.8087 60.608 47.9687 60.6667 48.086 60.784C48.2033 60.8907 48.262 61.0507 48.262 61.264V69.328C48.262 69.904 48.374 70.336 48.598 70.624C48.8327 70.9013 49.174 71.04 49.622 71.04C49.718 71.04 49.8033 71.0347 49.878 71.024C49.9527 71.0133 50.0273 71.008 50.102 71.008C50.2193 70.9973 50.2993 71.024 50.342 71.088C50.3953 71.152 50.422 71.28 50.422 71.472C50.422 71.664 50.3793 71.808 50.294 71.904C50.2087 72 50.07 72.064 49.878 72.096C49.7927 72.1067 49.702 72.1173 49.606 72.128C49.51 72.1387 49.4193 72.144 49.334 72.144ZM54.4524 72.144C53.823 72.144 53.3004 72.032 52.8844 71.808C52.479 71.5733 52.1697 71.2267 51.9564 70.768C51.7537 70.3093 51.6524 69.7387 51.6524 69.056V64.768C51.6524 64.544 51.7057 64.3787 51.8124 64.272C51.9297 64.1653 52.0897 64.112 52.2924 64.112C52.5057 64.112 52.6657 64.1653 52.7724 64.272C52.8897 64.3787 52.9484 64.544 52.9484 64.768V69.04C52.9484 69.7227 53.087 70.2347 53.3644 70.576C53.6524 70.9067 54.1004 71.072 54.7084 71.072C55.3697 71.072 55.9084 70.848 56.3244 70.4C56.7404 69.952 56.9484 69.3653 56.9484 68.64V64.768C56.9484 64.544 57.0017 64.3787 57.1084 64.272C57.2257 64.1653 57.391 64.112 57.6044 64.112C57.807 64.112 57.9617 64.1653 58.0684 64.272C58.1857 64.3787 58.2444 64.544 58.2444 64.768V71.44C58.2444 71.888 58.0364 72.112 57.6204 72.112C57.4177 72.112 57.2577 72.0533 57.1404 71.936C57.0337 71.8187 56.9804 71.6533 56.9804 71.44V69.984L57.1884 70.208C56.975 70.8373 56.623 71.3173 56.1324 71.648C55.6524 71.9787 55.0924 72.144 54.4524 72.144ZM64.1091 75.024C63.5438 75.024 62.9891 74.9547 62.4451 74.816C61.9118 74.688 61.4265 74.48 60.9891 74.192C60.8611 74.1173 60.7758 74.0267 60.7331 73.92C60.7011 73.8133 60.6958 73.7067 60.7171 73.6C60.7385 73.504 60.7865 73.4133 60.8611 73.328C60.9358 73.2533 61.0211 73.2053 61.1171 73.184C61.2238 73.1627 61.3305 73.1787 61.4371 73.232C61.9065 73.52 62.3545 73.7173 62.7811 73.824C63.2078 73.9307 63.6291 73.984 64.0451 73.984C64.8025 73.984 65.3731 73.7813 65.7571 73.376C66.1518 72.9707 66.3491 72.384 66.3491 71.616V69.808H66.5091C66.3491 70.4267 66.0078 70.9173 65.4851 71.28C64.9731 71.6427 64.3705 71.824 63.6771 71.824C62.9625 71.824 62.3438 71.664 61.8211 71.344C61.2985 71.0133 60.8931 70.5547 60.6051 69.968C60.3278 69.3813 60.1891 68.704 60.1891 67.936C60.1891 67.36 60.2691 66.8373 60.4291 66.368C60.5891 65.888 60.8185 65.4827 61.1171 65.152C61.4265 64.8107 61.7945 64.5493 62.2211 64.368C62.6585 64.176 63.1438 64.08 63.6771 64.08C64.3811 64.08 64.9891 64.2613 65.5011 64.624C66.0131 64.976 66.3438 65.456 66.4931 66.064L66.3331 66.256V64.768C66.3331 64.5547 66.3865 64.3947 66.4931 64.288C66.6105 64.1707 66.7705 64.112 66.9731 64.112C67.1865 64.112 67.3465 64.1707 67.4531 64.288C67.5598 64.3947 67.6131 64.5547 67.6131 64.768V71.44C67.6131 72.624 67.3145 73.5147 66.7171 74.112C66.1305 74.72 65.2611 75.024 64.1091 75.024ZM63.9171 70.768C64.4185 70.768 64.8505 70.656 65.2131 70.432C65.5758 70.1973 65.8531 69.8667 66.0451 69.44C66.2478 69.0133 66.3491 68.512 66.3491 67.936C66.3491 67.072 66.1305 66.3893 65.6931 65.888C65.2558 65.376 64.6638 65.12 63.9171 65.12C63.4265 65.12 62.9998 65.2373 62.6371 65.472C62.2745 65.696 61.9918 66.0213 61.7891 66.448C61.5971 66.864 61.5011 67.36 61.5011 67.936C61.5011 68.8 61.7198 69.488 62.1571 70C62.5945 70.512 63.1811 70.768 63.9171 70.768ZM70.6841 72.08C70.4708 72.08 70.3108 72.0213 70.2041 71.904C70.0975 71.776 70.0441 71.6 70.0441 71.376V64.832C70.0441 64.608 70.0975 64.4373 70.2041 64.32C70.3108 64.2027 70.4708 64.144 70.6841 64.144C70.8868 64.144 71.0468 64.2027 71.1641 64.32C71.2815 64.4373 71.3401 64.608 71.3401 64.832V71.376C71.3401 71.6 71.2815 71.776 71.1641 71.904C71.0575 72.0213 70.8975 72.08 70.6841 72.08ZM70.6841 62.352C70.4175 62.352 70.2095 62.2827 70.0601 62.144C69.9108 61.9947 69.8361 61.7973 69.8361 61.552C69.8361 61.296 69.9108 61.104 70.0601 60.976C70.2095 60.8373 70.4175 60.768 70.6841 60.768C70.9615 60.768 71.1695 60.8373 71.3081 60.976C71.4575 61.104 71.5321 61.296 71.5321 61.552C71.5321 61.7973 71.4575 61.9947 71.3081 62.144C71.1695 62.2827 70.9615 62.352 70.6841 62.352ZM74.4029 72.112C74.1895 72.112 74.0295 72.0533 73.9229 71.936C73.8162 71.8187 73.7629 71.6533 73.7629 71.44V64.768C73.7629 64.5547 73.8162 64.3947 73.9229 64.288C74.0295 64.1707 74.1842 64.112 74.3869 64.112C74.5895 64.112 74.7442 64.1707 74.8509 64.288C74.9682 64.3947 75.0269 64.5547 75.0269 64.768V66.144L74.8509 65.952C75.0749 65.3333 75.4375 64.8693 75.9389 64.56C76.4509 64.24 77.0375 64.08 77.6989 64.08C78.3175 64.08 78.8295 64.192 79.2349 64.416C79.6509 64.64 79.9602 64.9813 80.1629 65.44C80.3655 65.888 80.4669 66.4587 80.4669 67.152V71.44C80.4669 71.6533 80.4082 71.8187 80.2909 71.936C80.1842 72.0533 80.0295 72.112 79.8269 72.112C79.6135 72.112 79.4482 72.0533 79.3309 71.936C79.2242 71.8187 79.1709 71.6533 79.1709 71.44V67.232C79.1709 66.5067 79.0269 65.9787 78.7389 65.648C78.4615 65.3067 78.0135 65.136 77.3949 65.136C76.6802 65.136 76.1095 65.36 75.6829 65.808C75.2669 66.2453 75.0589 66.832 75.0589 67.568V71.44C75.0589 71.888 74.8402 72.112 74.4029 72.112Z" fill="#F9FAFB"/>
<path d="M43.1619 39.0812C43.07 38.9894 37.4765 37.7578 37.4765 37.7578C37.4765 37.7578 37.1506 38.2806 37.2447 38.5891C37.2972 38.7619 38.5178 40.1816 39.7734 41.4875C40.7644 42.52 41.8909 43.57 42.055 44.1694C42.3065 45.0925 42.3328 46.5734 42.3328 46.5734L38.6862 48.8003C38.6862 48.8003 39.1325 51.0709 42.0244 50.9812C44.7259 50.8981 44.8659 48.0369 45.7234 48.0216C45.8678 48.0194 46.0669 47.9691 46.4234 48.3519C47.3072 49.3012 48.9609 51.1344 49.5144 51.69C50.2537 52.4294 50.7787 53.1687 51.0566 53.1381C51.3344 53.1075 53.6772 51.0119 54.3553 50.3644C55.0334 49.7169 55.6503 48.9469 55.6503 48.2994C55.6503 47.6519 54.6944 47.1597 54.6944 47.1597L49.4225 47.7766L43.1619 39.0812ZM58.6669 30.7294C58.7587 30.7294 61.1015 29.5591 61.1015 29.5591C61.1015 29.5591 62.3047 31.9937 60.7625 33.3806C59.2203 34.7675 58.8812 33.9822 58.1419 34.7981C57.5775 35.4216 57.864 36.71 57.864 36.71L62.4469 41.1156C62.4469 41.1156 62.7028 41.5816 62.5191 41.9206C62.3878 42.1612 60.8456 43.8872 59.6512 45.1275C59.1131 45.6853 58.3628 45.8734 57.9559 45.775C56.9387 45.5278 56.7856 44.7272 56.5997 43.3097C56.4137 41.8922 55.1931 41.9141 54.7491 41.9841C53.8128 42.1328 53.2025 42.6797 53.2025 42.6797C53.2025 42.6797 47.69 36.0362 47.7512 35.8503C47.8125 35.6644 48.029 34.2775 47.3815 33.6934C46.734 33.1072 45.4412 32.8097 44.9469 32.4706C44.4547 32.1316 44.389 31.4862 44.4787 30.8606C44.5684 30.235 48.554 30.2416 48.554 30.2416C48.554 30.2416 55.4272 34.0325 55.46 33.8794C55.4906 33.7175 58.6669 30.7294 58.6669 30.7294Z" fill="#B0B0AF"/>
<path d="M55.2763 31.4666C55.4425 30.8584 55.2522 29.3644 56.4138 28.3756C57.5753 27.3869 59.3822 27.5094 60.4694 28.5484C61.5566 29.5875 61.7316 31.5409 60.4453 32.8272C59.1591 34.1134 58.5663 33.3959 57.8488 34.0894C57.1313 34.7828 57.256 35.3516 57.7 35.7716C58.1463 36.1916 62.5738 40.8181 62.4491 41.1134C62.3244 41.4087 59.3078 44.8234 58.8135 45.0706C58.3191 45.3178 57.4528 45.2937 57.28 44.4778C57.1072 43.6619 57.4047 42.03 56.1666 41.6078C54.9306 41.1878 54.386 41.5334 53.1741 42.8197C51.9622 44.1059 51.4175 45.5147 52.4063 46.2322C53.395 46.9497 54.6331 46.6522 55.1275 47.4944C55.6219 48.3366 54.8803 49.1022 53.57 50.3141C52.2597 51.5259 51.2447 52.5147 51.0719 52.3922C50.8991 52.2675 47.1388 48.2862 46.7691 47.8662C46.3972 47.4462 45.6797 47.0744 44.9885 47.7175C44.295 48.3606 44.1725 50.4628 41.2544 50.4628C38.3363 50.4628 37.9863 47.2975 39.0253 45.9872C40.0644 44.6769 42.3635 44.5522 42.4138 43.6619C42.4356 43.2528 41.1735 42.1503 40.0403 40.9669C38.7081 39.5734 37.47 38.0969 37.4175 37.9241C37.3191 37.6025 40.1869 34.7828 40.7316 34.3869C41.2763 33.9909 41.8931 34.2381 42.1906 34.5597C42.4881 34.8812 42.5625 35.87 42.8097 36.4387C43.0569 37.0075 44.2185 39.4816 47.0141 36.6619C49.7835 33.8662 47.1628 32.6544 46.2725 32.4072C45.3822 32.16 44.7413 32.0791 44.4919 31.1712C44.295 30.4537 45.3822 29.6137 46.5197 28.5244C47.6572 27.435 48.3244 26.8662 48.6219 26.8662C48.9194 26.8662 52.9006 31.145 53.4213 31.6394C53.9419 32.1337 54.2613 32.2584 54.6331 32.1578C55.0028 32.0616 55.2019 31.74 55.2763 31.4666Z" fill="url(#paint0_radial_576_10449)"/>
<defs>
<radialGradient id="paint0_radial_576_10449" cx="0" cy="0" r="1" gradientUnits="userSpaceOnUse" gradientTransform="translate(49.6001 19.8094) scale(26.0805 26.0805)">
<stop offset="0.508" stop-color="#B7D118"/>
<stop offset="0.572" stop-color="#B2D019"/>
<stop offset="0.643" stop-color="#A5CD1D"/>
<stop offset="0.717" stop-color="#8FC922"/>
<stop offset="0.793" stop-color="#70C22A"/>
<stop offset="0.871" stop-color="#48BA34"/>
<stop offset="0.949" stop-color="#18B040"/>
<stop offset="0.981" stop-color="#02AB46"/>
</radialGradient>
</defs>
</svg>
