<svg width="101" height="118" viewBox="0 0 101 118" fill="none" xmlns="http://www.w3.org/2000/svg">
<mask id="path-1-inside-1_576_10448" fill="white">
<path fill-rule="evenodd" clip-rule="evenodd" d="M69.5 0C68.9477 0 68.5029 0.448498 68.4727 0.999957C67.9538 10.476 60.1056 18 50.5 18C40.8944 18 33.0462 10.476 32.5273 0.999955C32.4971 0.448497 32.0523 0 31.5 0L4.5 0C2.29086 0 0.5 1.79086 0.5 4L0.5 31C0.5 31.5523 0.948498 31.9971 1.49996 32.0273C10.976 32.5462 18.5 40.3944 18.5 50C18.5 59.6056 10.976 67.4538 1.49996 67.9727C0.948497 68.0029 0.5 68.4477 0.5 69L0.5 96C0.5 98.2091 2.29086 100 4.5 100H31.5C32.0523 100 32.4971 100.449 32.5273 101C33.0462 110.476 40.8944 118 50.5 118C60.1056 118 67.9538 110.476 68.4727 101C68.5029 100.448 68.9477 100 69.5 100H96.5C98.7091 100 100.5 98.2091 100.5 96V69C100.5 68.4477 100.051 68.0029 99.5 67.9727C90.024 67.4538 82.5 59.6056 82.5 50C82.5 40.3944 90.024 32.5462 99.5 32.0273C100.052 31.9971 100.5 31.5523 100.5 31V4C100.5 1.79086 98.7091 0 96.5 0L69.5 0Z"/>
</mask>
<path fill-rule="evenodd" clip-rule="evenodd" d="M69.5 0C68.9477 0 68.5029 0.448498 68.4727 0.999957C67.9538 10.476 60.1056 18 50.5 18C40.8944 18 33.0462 10.476 32.5273 0.999955C32.4971 0.448497 32.0523 0 31.5 0L4.5 0C2.29086 0 0.5 1.79086 0.5 4L0.5 31C0.5 31.5523 0.948498 31.9971 1.49996 32.0273C10.976 32.5462 18.5 40.3944 18.5 50C18.5 59.6056 10.976 67.4538 1.49996 67.9727C0.948497 68.0029 0.5 68.4477 0.5 69L0.5 96C0.5 98.2091 2.29086 100 4.5 100H31.5C32.0523 100 32.4971 100.449 32.5273 101C33.0462 110.476 40.8944 118 50.5 118C60.1056 118 67.9538 110.476 68.4727 101C68.5029 100.448 68.9477 100 69.5 100H96.5C98.7091 100 100.5 98.2091 100.5 96V69C100.5 68.4477 100.051 68.0029 99.5 67.9727C90.024 67.4538 82.5 59.6056 82.5 50C82.5 40.3944 90.024 32.5462 99.5 32.0273C100.052 31.9971 100.5 31.5523 100.5 31V4C100.5 1.79086 98.7091 0 96.5 0L69.5 0Z" fill="#374151" fill-opacity="0.4"/>
<path d="M100.5 96H99.5H100.5ZM99.5 32.0273L99.4454 31.0288L99.5 32.0273ZM100.5 31H99.5H100.5ZM99.5 67.9727L99.4454 68.9712L99.5 67.9727ZM32.5273 101L33.5258 100.945L32.5273 101ZM1.49996 32.0273L1.44528 33.0258L1.49996 32.0273ZM32.5273 0.999955L31.5288 1.05463L32.5273 0.999955ZM68.4727 101L67.4742 100.945L68.4727 101ZM68.4727 0.999957L67.4742 0.945284L68.4727 0.999957ZM50.5 19C60.6396 19 68.9235 11.058 69.4712 1.05463L67.4742 0.945284C66.9842 9.89398 59.5716 17 50.5 17L50.5 19ZM31.5288 1.05463C32.0765 11.058 40.3604 19 50.5 19L50.5 17C41.4284 17 34.0158 9.89397 33.5258 0.945282L31.5288 1.05463ZM4.5 1L31.5 1V-1L4.5 -1V1ZM1.5 4C1.5 2.34315 2.84315 1 4.5 1V-1C1.73858 -1 -0.5 1.23858 -0.5 4H1.5ZM1.5 31L1.5 4H-0.5L-0.5 31H1.5ZM19.5 50C19.5 39.8604 11.558 31.5765 1.55463 31.0288L1.44528 33.0258C10.394 33.5158 17.5 40.9284 17.5 50L19.5 50ZM1.55463 68.9712C11.558 68.4235 19.5 60.1396 19.5 50L17.5 50C17.5 59.0716 10.394 66.4842 1.44528 66.9742L1.55463 68.9712ZM1.5 96L1.5 69H-0.5L-0.5 96H1.5ZM4.5 99C2.84315 99 1.5 97.6569 1.5 96H-0.5C-0.5 98.7614 1.73858 101 4.5 101V99ZM31.5 99H4.5V101H31.5L31.5 99ZM50.5 117C41.4284 117 34.0158 109.894 33.5258 100.945L31.5288 101.055C32.0765 111.058 40.3604 119 50.5 119V117ZM67.4742 100.945C66.9842 109.894 59.5716 117 50.5 117V119C60.6396 119 68.9235 111.058 69.4712 101.055L67.4742 100.945ZM96.5 99H69.5V101H96.5V99ZM99.5 96C99.5 97.6569 98.1569 99 96.5 99V101C99.2614 101 101.5 98.7614 101.5 96H99.5ZM99.5 69V96H101.5V69H99.5ZM81.5 50C81.5 60.1396 89.442 68.4235 99.4454 68.9712L99.5547 66.9742C90.606 66.4842 83.5 59.0716 83.5 50H81.5ZM99.4454 31.0288C89.442 31.5765 81.5 39.8604 81.5 50H83.5C83.5 40.9284 90.606 33.5158 99.5547 33.0258L99.4454 31.0288ZM99.5 4V31H101.5V4L99.5 4ZM96.5 1C98.1569 1 99.5 2.34315 99.5 4L101.5 4C101.5 1.23858 99.2614 -1 96.5 -1V1ZM69.5 1L96.5 1V-1L69.5 -1V1ZM99.5547 33.0258C100.601 32.9685 101.5 32.1183 101.5 31H99.5C99.5 31.0012 99.4999 31.0012 99.5 31.0007C99.5001 31.0001 99.5003 30.9998 99.5002 30.9999C99.5002 31.0001 99.4987 31.0033 99.494 31.0081C99.4836 31.0187 99.4667 31.0276 99.4454 31.0288L99.5547 33.0258ZM101.5 69C101.5 67.8817 100.601 67.0315 99.5547 66.9742L99.4454 68.9712C99.4667 68.9724 99.4836 68.9813 99.494 68.9919C99.4987 68.9967 99.5002 68.9999 99.5002 69.0001C99.5003 69.0002 99.5001 68.9999 99.5 68.9994C99.4999 68.9988 99.5 68.9988 99.5 69H101.5ZM31.5 101C31.5012 101 31.5012 101 31.5006 101C31.5001 101 31.4998 101 31.4999 101C31.5001 101 31.5033 101.001 31.5081 101.006C31.5187 101.016 31.5276 101.033 31.5288 101.055L33.5258 100.945C33.4685 99.8992 32.6183 99 31.5 99L31.5 101ZM-0.5 31C-0.5 32.1183 0.399214 32.9685 1.44528 33.0258L1.55463 31.0288C1.53335 31.0276 1.5164 31.0187 1.506 31.0081C1.50127 31.0033 1.49985 31.0001 1.49977 30.9999C1.49974 30.9998 1.49987 31.0001 1.49998 31.0006C1.5001 31.0012 1.5 31.0012 1.5 31H-0.5ZM1.44528 66.9742C0.399211 67.0315 -0.5 67.8817 -0.5 69H1.5C1.5 68.9988 1.5001 68.9988 1.49998 68.9994C1.49987 68.9999 1.49974 69.0002 1.49977 69.0001C1.49985 68.9999 1.50127 68.9967 1.506 68.9919C1.5164 68.9813 1.53335 68.9724 1.55463 68.9712L1.44528 66.9742ZM33.5258 0.945282C33.4685 -0.100789 32.6183 -1 31.5 -1V1C31.5012 1 31.5012 1.0001 31.5007 0.999977C31.5001 0.999868 31.4998 0.999738 31.4999 0.999766C31.5001 0.999846 31.5033 1.00127 31.5081 1.006C31.5187 1.0164 31.5276 1.03335 31.5288 1.05463L33.5258 0.945282ZM69.4712 101.055C69.4724 101.033 69.4813 101.016 69.4919 101.006C69.4967 101.001 69.4999 101 69.5001 101C69.5002 101 69.4999 101 69.4994 101C69.4988 101 69.4988 101 69.5 101V99C68.3817 99 67.5315 99.8992 67.4742 100.945L69.4712 101.055ZM69.4712 1.05463C69.4724 1.03335 69.4813 1.0164 69.4919 1.006C69.4967 1.00127 69.4999 0.999846 69.5001 0.999766C69.5002 0.999738 69.4999 0.999868 69.4994 0.999977C69.4988 1.0001 69.4988 1 69.5 1V-1C68.3817 -1 67.5315 -0.100786 67.4742 0.945284L69.4712 1.05463Z" fill="#374151" mask="url(#path-1-inside-1_576_10448)"/>
<path d="M26.4291 71.108C25.9571 71.108 25.5651 71.024 25.2531 70.856C24.9491 70.68 24.7171 70.42 24.5571 70.076C24.4051 69.732 24.3291 69.304 24.3291 68.792V65.576C24.3291 65.408 24.3691 65.284 24.4491 65.204C24.5371 65.124 24.6571 65.084 24.8091 65.084C24.9691 65.084 25.0891 65.124 25.1691 65.204C25.2571 65.284 25.3011 65.408 25.3011 65.576V68.78C25.3011 69.292 25.4051 69.676 25.6131 69.932C25.8291 70.18 26.1651 70.304 26.6211 70.304C27.1171 70.304 27.5211 70.136 27.8331 69.8C28.1451 69.464 28.3011 69.024 28.3011 68.48V65.576C28.3011 65.408 28.3411 65.284 28.4211 65.204C28.5091 65.124 28.6331 65.084 28.7931 65.084C28.9451 65.084 29.0611 65.124 29.1411 65.204C29.2291 65.284 29.2731 65.408 29.2731 65.576V70.58C29.2731 70.916 29.1171 71.084 28.8051 71.084C28.6531 71.084 28.5331 71.04 28.4451 70.952C28.3651 70.864 28.3251 70.74 28.3251 70.58V69.488L28.4811 69.656C28.3211 70.128 28.0571 70.488 27.6891 70.736C27.3291 70.984 26.9091 71.108 26.4291 71.108ZM31.5717 71.084C31.4117 71.084 31.2917 71.04 31.2117 70.952C31.1317 70.864 31.0917 70.74 31.0917 70.58V65.576C31.0917 65.416 31.1317 65.296 31.2117 65.216C31.2917 65.128 31.4077 65.084 31.5597 65.084C31.7117 65.084 31.8277 65.128 31.9077 65.216C31.9957 65.296 32.0397 65.416 32.0397 65.576V66.608L31.9077 66.464C32.0757 66 32.3477 65.652 32.7237 65.42C33.1077 65.18 33.5477 65.06 34.0437 65.06C34.5077 65.06 34.8917 65.144 35.1957 65.312C35.5077 65.48 35.7397 65.736 35.8917 66.08C36.0437 66.416 36.1197 66.844 36.1197 67.364V70.58C36.1197 70.74 36.0757 70.864 35.9877 70.952C35.9077 71.04 35.7917 71.084 35.6397 71.084C35.4797 71.084 35.3557 71.04 35.2677 70.952C35.1877 70.864 35.1477 70.74 35.1477 70.58V67.424C35.1477 66.88 35.0397 66.484 34.8237 66.236C34.6157 65.98 34.2797 65.852 33.8157 65.852C33.2797 65.852 32.8517 66.02 32.5317 66.356C32.2197 66.684 32.0637 67.124 32.0637 67.676V70.58C32.0637 70.916 31.8997 71.084 31.5717 71.084ZM39.88 71.108C39.52 71.108 39.156 71.064 38.788 70.976C38.428 70.888 38.092 70.736 37.78 70.52C37.7 70.464 37.644 70.4 37.612 70.328C37.58 70.248 37.568 70.172 37.576 70.1C37.592 70.02 37.624 69.952 37.672 69.896C37.728 69.84 37.792 69.808 37.864 69.8C37.944 69.784 38.032 69.8 38.128 69.848C38.44 70.04 38.74 70.176 39.028 70.256C39.324 70.328 39.616 70.364 39.904 70.364C40.36 70.364 40.704 70.28 40.936 70.112C41.168 69.944 41.284 69.716 41.284 69.428C41.284 69.204 41.208 69.028 41.056 68.9C40.904 68.764 40.664 68.66 40.336 68.588L39.244 68.348C38.74 68.244 38.364 68.064 38.116 67.808C37.876 67.552 37.756 67.22 37.756 66.812C37.756 66.452 37.848 66.144 38.032 65.888C38.224 65.624 38.492 65.42 38.836 65.276C39.18 65.132 39.58 65.06 40.036 65.06C40.388 65.06 40.72 65.108 41.032 65.204C41.352 65.292 41.64 65.436 41.896 65.636C41.976 65.692 42.028 65.76 42.052 65.84C42.084 65.912 42.088 65.988 42.064 66.068C42.048 66.14 42.012 66.204 41.956 66.26C41.9 66.308 41.832 66.336 41.752 66.344C41.672 66.352 41.588 66.328 41.5 66.272C41.26 66.112 41.016 65.996 40.768 65.924C40.52 65.844 40.276 65.804 40.036 65.804C39.588 65.804 39.248 65.892 39.016 66.068C38.784 66.244 38.668 66.476 38.668 66.764C38.668 66.988 38.74 67.172 38.884 67.316C39.028 67.46 39.252 67.564 39.556 67.628L40.648 67.856C41.168 67.968 41.556 68.148 41.812 68.396C42.076 68.636 42.208 68.964 42.208 69.38C42.208 69.908 41.996 70.328 41.572 70.64C41.148 70.952 40.584 71.108 39.88 71.108ZM45.9708 71.108C45.5148 71.108 45.1308 71.028 44.8188 70.868C44.5148 70.7 44.2868 70.46 44.1348 70.148C43.9828 69.828 43.9068 69.44 43.9068 68.984V65.924H43.1028C42.9668 65.924 42.8628 65.892 42.7908 65.828C42.7188 65.756 42.6827 65.66 42.6827 65.54C42.6827 65.42 42.7188 65.328 42.7908 65.264C42.8628 65.2 42.9668 65.168 43.1028 65.168H43.9068V63.788C43.9068 63.628 43.9508 63.508 44.0388 63.428C44.1268 63.34 44.2468 63.296 44.3988 63.296C44.5508 63.296 44.6668 63.34 44.7468 63.428C44.8348 63.508 44.8788 63.628 44.8788 63.788V65.168H46.3908C46.5268 65.168 46.6308 65.2 46.7028 65.264C46.7748 65.328 46.8108 65.42 46.8108 65.54C46.8108 65.66 46.7748 65.756 46.7028 65.828C46.6308 65.892 46.5268 65.924 46.3908 65.924H44.8788V68.888C44.8788 69.344 44.9748 69.692 45.1668 69.932C45.3588 70.164 45.6708 70.28 46.1028 70.28C46.2548 70.28 46.3828 70.264 46.4868 70.232C46.5988 70.2 46.6908 70.184 46.7628 70.184C46.8348 70.176 46.8948 70.2 46.9428 70.256C46.9908 70.312 47.0148 70.408 47.0148 70.544C47.0148 70.64 46.9948 70.728 46.9548 70.808C46.9228 70.888 46.8628 70.944 46.7748 70.976C46.6788 71.008 46.5508 71.036 46.3908 71.06C46.2388 71.092 46.0988 71.108 45.9708 71.108ZM50.1915 71.108C49.6235 71.108 49.1315 70.984 48.7155 70.736C48.2995 70.488 47.9755 70.14 47.7435 69.692C47.5195 69.236 47.4075 68.7 47.4075 68.084C47.4075 67.62 47.4715 67.204 47.5995 66.836C47.7275 66.46 47.9155 66.14 48.1635 65.876C48.4115 65.612 48.7035 65.412 49.0395 65.276C49.3835 65.132 49.7675 65.06 50.1915 65.06C50.7595 65.06 51.2515 65.184 51.6675 65.432C52.0835 65.68 52.4035 66.032 52.6275 66.488C52.8595 66.936 52.9755 67.468 52.9755 68.084C52.9755 68.548 52.9115 68.964 52.7835 69.332C52.6555 69.7 52.4675 70.02 52.2195 70.292C51.9715 70.556 51.6755 70.76 51.3315 70.904C50.9955 71.04 50.6155 71.108 50.1915 71.108ZM50.1915 70.328C50.5515 70.328 50.8675 70.24 51.1395 70.064C51.4115 69.888 51.6195 69.632 51.7635 69.296C51.9155 68.96 51.9915 68.556 51.9915 68.084C51.9915 67.356 51.8275 66.8 51.4995 66.416C51.1795 66.032 50.7435 65.84 50.1915 65.84C49.8235 65.84 49.5035 65.928 49.2315 66.104C48.9675 66.272 48.7595 66.524 48.6075 66.86C48.4635 67.188 48.3915 67.596 48.3915 68.084C48.3915 68.804 48.5555 69.36 48.8835 69.752C49.2115 70.136 49.6475 70.328 50.1915 70.328ZM54.9274 71.084C54.7674 71.084 54.6434 71.04 54.5554 70.952C54.4754 70.864 54.4354 70.74 54.4354 70.58V65.576C54.4354 65.416 54.4754 65.296 54.5554 65.216C54.6354 65.128 54.7514 65.084 54.9034 65.084C55.0554 65.084 55.1714 65.128 55.2514 65.216C55.3394 65.296 55.3834 65.416 55.3834 65.576V66.548H55.2634C55.3914 66.076 55.6354 65.712 55.9954 65.456C56.3554 65.2 56.7994 65.064 57.3274 65.048C57.4474 65.04 57.5434 65.068 57.6154 65.132C57.6874 65.188 57.7274 65.288 57.7354 65.432C57.7434 65.568 57.7114 65.676 57.6394 65.756C57.5674 65.836 57.4554 65.884 57.3034 65.9L57.1114 65.924C56.5674 65.972 56.1474 66.148 55.8514 66.452C55.5634 66.748 55.4194 67.156 55.4194 67.676V70.58C55.4194 70.74 55.3754 70.864 55.2874 70.952C55.2074 71.04 55.0874 71.084 54.9274 71.084ZM60.5136 71.108C60.1136 71.108 59.7536 71.032 59.4336 70.88C59.1216 70.72 58.8736 70.504 58.6896 70.232C58.5056 69.96 58.4136 69.656 58.4136 69.32C58.4136 68.888 58.5216 68.548 58.7376 68.3C58.9616 68.052 59.3256 67.876 59.8296 67.772C60.3416 67.668 61.0376 67.616 61.9176 67.616H62.4576V68.252H61.9296C61.2816 68.252 60.7696 68.284 60.3936 68.348C60.0256 68.404 59.7656 68.504 59.6136 68.648C59.4696 68.792 59.3976 68.996 59.3976 69.26C59.3976 69.588 59.5096 69.856 59.7336 70.064C59.9656 70.272 60.2776 70.376 60.6696 70.376C60.9896 70.376 61.2696 70.3 61.5096 70.148C61.7576 69.996 61.9496 69.788 62.0856 69.524C62.2296 69.26 62.3016 68.956 62.3016 68.612V67.244C62.3016 66.748 62.2016 66.392 62.0016 66.176C61.8016 65.952 61.4736 65.84 61.0176 65.84C60.7376 65.84 60.4576 65.876 60.1776 65.948C59.8976 66.02 59.6016 66.136 59.2896 66.296C59.1776 66.352 59.0816 66.372 59.0016 66.356C58.9216 66.332 58.8576 66.288 58.8096 66.224C58.7616 66.16 58.7336 66.088 58.7256 66.008C58.7176 65.92 58.7336 65.836 58.7736 65.756C58.8216 65.676 58.8936 65.612 58.9896 65.564C59.3416 65.388 59.6896 65.26 60.0336 65.18C60.3776 65.1 60.7056 65.06 61.0176 65.06C61.5216 65.06 61.9376 65.144 62.2656 65.312C62.5936 65.472 62.8376 65.72 62.9976 66.056C63.1576 66.384 63.2376 66.808 63.2376 67.328V70.58C63.2376 70.74 63.1976 70.864 63.1176 70.952C63.0456 71.04 62.9376 71.084 62.7936 71.084C62.6416 71.084 62.5256 71.04 62.4456 70.952C62.3656 70.864 62.3256 70.74 62.3256 70.58V69.644H62.4336C62.3696 69.948 62.2456 70.208 62.0616 70.424C61.8856 70.64 61.6656 70.808 61.4016 70.928C61.1376 71.048 60.8416 71.108 60.5136 71.108ZM67.6209 73.268C67.1969 73.268 66.7809 73.216 66.3729 73.112C65.9729 73.016 65.6089 72.86 65.2809 72.644C65.1849 72.588 65.1209 72.52 65.0889 72.44C65.0649 72.36 65.0609 72.28 65.0769 72.2C65.0929 72.128 65.1289 72.06 65.1849 71.996C65.2409 71.94 65.3049 71.904 65.3769 71.888C65.4569 71.872 65.5369 71.884 65.6169 71.924C65.9689 72.14 66.3049 72.288 66.6249 72.368C66.9449 72.448 67.2609 72.488 67.5729 72.488C68.1409 72.488 68.5689 72.336 68.8569 72.032C69.1529 71.728 69.3009 71.288 69.3009 70.712V69.356H69.4209C69.3009 69.82 69.0449 70.188 68.6529 70.46C68.2689 70.732 67.8169 70.868 67.2969 70.868C66.7609 70.868 66.2969 70.748 65.9049 70.508C65.5129 70.26 65.2089 69.916 64.9929 69.476C64.7849 69.036 64.6809 68.528 64.6809 67.952C64.6809 67.52 64.7409 67.128 64.8609 66.776C64.9809 66.416 65.1529 66.112 65.3769 65.864C65.6089 65.608 65.8849 65.412 66.2049 65.276C66.5329 65.132 66.8969 65.06 67.2969 65.06C67.8249 65.06 68.2809 65.196 68.6649 65.468C69.0489 65.732 69.2969 66.092 69.4089 66.548L69.2889 66.692V65.576C69.2889 65.416 69.3289 65.296 69.4089 65.216C69.4969 65.128 69.6169 65.084 69.7689 65.084C69.9289 65.084 70.0489 65.128 70.1289 65.216C70.2089 65.296 70.2489 65.416 70.2489 65.576V70.58C70.2489 71.468 70.0249 72.136 69.5769 72.584C69.1369 73.04 68.4849 73.268 67.6209 73.268ZM67.4769 70.076C67.8529 70.076 68.1769 69.992 68.4489 69.824C68.7209 69.648 68.9289 69.4 69.0729 69.08C69.2249 68.76 69.3009 68.384 69.3009 67.952C69.3009 67.304 69.1369 66.792 68.8089 66.416C68.4809 66.032 68.0369 65.84 67.4769 65.84C67.1089 65.84 66.7889 65.928 66.5169 66.104C66.2449 66.272 66.0329 66.516 65.8809 66.836C65.7369 67.148 65.6649 67.52 65.6649 67.952C65.6649 68.6 65.8289 69.116 66.1569 69.5C66.4849 69.884 66.9249 70.076 67.4769 70.076ZM74.7002 71.108C74.0842 71.108 73.5522 70.988 73.1042 70.748C72.6642 70.5 72.3202 70.152 72.0722 69.704C71.8322 69.256 71.7122 68.72 71.7122 68.096C71.7122 67.488 71.8322 66.96 72.0722 66.512C72.3122 66.056 72.6402 65.7 73.0562 65.444C73.4802 65.188 73.9682 65.06 74.5202 65.06C74.9122 65.06 75.2642 65.128 75.5762 65.264C75.8882 65.392 76.1522 65.58 76.3682 65.828C76.5922 66.076 76.7602 66.376 76.8722 66.728C76.9922 67.08 77.0522 67.476 77.0522 67.916C77.0522 68.044 77.0162 68.14 76.9442 68.204C76.8722 68.26 76.7682 68.288 76.6322 68.288H72.4562V67.652H76.4042L76.2122 67.808C76.2122 67.376 76.1482 67.012 76.0202 66.716C75.8922 66.412 75.7042 66.18 75.4562 66.02C75.2162 65.86 74.9122 65.78 74.5442 65.78C74.1362 65.78 73.7882 65.876 73.5002 66.068C73.2202 66.252 73.0082 66.512 72.8642 66.848C72.7202 67.176 72.6482 67.56 72.6482 68V68.072C72.6482 68.808 72.8242 69.368 73.1762 69.752C73.5362 70.136 74.0442 70.328 74.7002 70.328C74.9722 70.328 75.2402 70.292 75.5042 70.22C75.7762 70.148 76.0402 70.028 76.2962 69.86C76.4082 69.788 76.5082 69.756 76.5962 69.764C76.6922 69.764 76.7682 69.792 76.8242 69.848C76.8802 69.896 76.9162 69.96 76.9322 70.04C76.9562 70.112 76.9482 70.192 76.9082 70.28C76.8762 70.368 76.8082 70.444 76.7042 70.508C76.4402 70.7 76.1282 70.848 75.7682 70.952C75.4082 71.056 75.0522 71.108 74.7002 71.108Z" fill="#F9FAFB"/>
<path d="M63.6622 32.114V51.2525C63.6622 52.3068 62.8069 53.1621 61.7525 53.1621H39.2475C38.1931 53.1621 37.3378 52.3068 37.3378 51.2525V28.7475C37.3378 27.6931 38.1931 26.8378 39.2475 26.8378H58.8562C59.635 26.8378 60.3744 27.1856 60.8709 27.7871L63.0672 30.4537C63.4522 30.9218 63.6622 31.5081 63.6622 32.114Z" fill="#616161"/>
<path d="M59.2369 53.1622H41.75V41.5859C41.75 41.19 42.0716 40.8684 42.4675 40.8684H58.5216C58.9175 40.8684 59.2391 41.19 59.2391 41.5859V53.1622H59.2369Z" fill="white"/>
<path d="M41.75 50.4825H59.2369V53.1622H41.75V50.4825Z" fill="#039BE5"/>
<path d="M40.1641 26.8378V37.2831C40.1641 37.6725 40.5075 37.9765 40.9625 37.9765H57.7297C58.1847 37.9765 58.5369 37.6746 58.5369 37.2831V26.8378H40.1641Z" fill="#424242"/>
<path d="M44.1562 26.8378V36.6859C44.1562 37.0534 44.4144 37.3378 44.7556 37.3378H57.325C57.6663 37.3378 57.9309 37.0534 57.9309 36.6859V26.8378H44.1562ZM55.3059 36.1762C55.3059 36.3337 55.1769 36.4628 55.0194 36.4628H51.2175C51.06 36.4628 50.9309 36.3337 50.9309 36.1762V27.9993C50.9309 27.8418 51.06 27.7128 51.2175 27.7128H55.0194C55.1769 27.7128 55.3059 27.8418 55.3059 27.9993V36.1762Z" fill="#E0E0E0"/>
</svg>
