<svg width="119" height="136" viewBox="0 0 119 136" fill="none" xmlns="http://www.w3.org/2000/svg">
<mask id="path-1-inside-1_576_10447" fill="white">
<path fill-rule="evenodd" clip-rule="evenodd" d="M87.5 18C86.9477 18 86.5029 17.5515 86.4727 17C85.9538 7.52403 78.1056 0 68.5 0C58.8944 0 51.0462 7.52403 50.5273 17C50.4971 17.5515 50.0523 18 49.5 18L22.5 18C20.2909 18 18.5 19.7909 18.5 22L18.5 49C18.5 49.5523 18.0515 49.9971 17.5 50.0273C8.02403 50.5462 0.5 58.3944 0.5 68C0.5 77.6056 8.02403 85.4538 17.5 85.9727C18.0515 86.0029 18.5 86.4477 18.5 87L18.5 114C18.5 116.209 20.2909 118 22.5 118L49.5 118C50.0523 118 50.4971 118.448 50.5273 119C51.0462 128.476 58.8944 136 68.5 136C78.1056 136 85.9538 128.476 86.4727 119C86.5029 118.449 86.9477 118 87.5 118L114.5 118C116.709 118 118.5 116.209 118.5 114V87C118.5 86.4477 118.052 86.0029 117.5 85.9727C108.024 85.4538 100.5 77.6056 100.5 68C100.5 58.3944 108.024 50.5462 117.5 50.0273C118.051 49.9971 118.5 49.5523 118.5 49L118.5 22C118.5 19.7909 116.709 18 114.5 18L87.5 18Z"/>
</mask>
<path fill-rule="evenodd" clip-rule="evenodd" d="M87.5 18C86.9477 18 86.5029 17.5515 86.4727 17C85.9538 7.52403 78.1056 0 68.5 0C58.8944 0 51.0462 7.52403 50.5273 17C50.4971 17.5515 50.0523 18 49.5 18L22.5 18C20.2909 18 18.5 19.7909 18.5 22L18.5 49C18.5 49.5523 18.0515 49.9971 17.5 50.0273C8.02403 50.5462 0.5 58.3944 0.5 68C0.5 77.6056 8.02403 85.4538 17.5 85.9727C18.0515 86.0029 18.5 86.4477 18.5 87L18.5 114C18.5 116.209 20.2909 118 22.5 118L49.5 118C50.0523 118 50.4971 118.448 50.5273 119C51.0462 128.476 58.8944 136 68.5 136C78.1056 136 85.9538 128.476 86.4727 119C86.5029 118.449 86.9477 118 87.5 118L114.5 118C116.709 118 118.5 116.209 118.5 114V87C118.5 86.4477 118.052 86.0029 117.5 85.9727C108.024 85.4538 100.5 77.6056 100.5 68C100.5 58.3944 108.024 50.5462 117.5 50.0273C118.051 49.9971 118.5 49.5523 118.5 49L118.5 22C118.5 19.7909 116.709 18 114.5 18L87.5 18Z" fill="#374151" fill-opacity="0.4"/>
<path d="M18.5 22H17.5H18.5ZM18.5 114H17.5H18.5ZM117.5 50.0273L117.445 49.0288L117.5 50.0273ZM117.5 85.9727L117.555 84.9742L117.5 85.9727ZM50.5273 119L49.5288 119.055L50.5273 119ZM18.5 49H19.5H18.5ZM17.5 50.0273L17.5547 51.0258L17.5 50.0273ZM17.5 85.9727L17.4454 86.9712L17.5 85.9727ZM18.5 87H17.5H18.5ZM50.5273 17L49.5288 16.9454L50.5273 17ZM86.4727 119L87.4712 119.055L86.4727 119ZM86.4727 17L85.4742 17.0547L86.4727 17ZM68.5 1C77.5716 1 84.9842 8.10602 85.4742 17.0547L87.4712 16.9454C86.9235 6.94204 78.6395 -1 68.5 -1V1ZM51.5258 17.0547C52.0158 8.10603 59.4284 1 68.5 1V-1C58.3604 -1 50.0765 6.94204 49.5288 16.9454L51.5258 17.0547ZM49.5 17L22.5 17V19L49.5 19V17ZM22.5 17C19.7386 17 17.5 19.2386 17.5 22H19.5C19.5 20.3431 20.8431 19 22.5 19V17ZM17.5 22L17.5 49H19.5L19.5 22H17.5ZM17.4454 49.0288C7.44204 49.5765 -0.5 57.8604 -0.5 68H1.5C1.5 58.9284 8.60603 51.5158 17.5547 51.0258L17.4454 49.0288ZM-0.5 68C-0.5 78.1395 7.44204 86.4235 17.4454 86.9712L17.5547 84.9742C8.60602 84.4842 1.5 77.0716 1.5 68H-0.5ZM17.5 87L17.5 114H19.5L19.5 87H17.5ZM17.5 114C17.5 116.761 19.7386 119 22.5 119V117C20.8431 117 19.5 115.657 19.5 114H17.5ZM22.5 119L49.5 119V117L22.5 117V119ZM49.5288 119.055C50.0765 129.058 58.3604 137 68.5 137V135C59.4284 135 52.0158 127.894 51.5258 118.945L49.5288 119.055ZM68.5 137C78.6395 137 86.9235 129.058 87.4712 119.055L85.4742 118.945C84.9842 127.894 77.5716 135 68.5 135V137ZM87.5 119L114.5 119V117L87.5 117V119ZM114.5 119C117.261 119 119.5 116.761 119.5 114H117.5C117.5 115.657 116.157 117 114.5 117V119ZM119.5 114V87H117.5V114H119.5ZM117.555 84.9742C108.606 84.4842 101.5 77.0716 101.5 68H99.5C99.5 78.1395 107.442 86.4235 117.445 86.9712L117.555 84.9742ZM101.5 68C101.5 58.9284 108.606 51.5158 117.555 51.0258L117.445 49.0288C107.442 49.5765 99.5 57.8604 99.5 68H101.5ZM119.5 49L119.5 22H117.5L117.5 49H119.5ZM119.5 22C119.5 19.2386 117.261 17 114.5 17V19C116.157 19 117.5 20.3431 117.5 22H119.5ZM114.5 17L87.5 17V19L114.5 19V17ZM117.555 51.0258C118.601 50.9685 119.5 50.1183 119.5 49H117.5C117.5 49.0012 117.5 49.0012 117.5 49.0006C117.5 49.0001 117.5 48.9998 117.5 48.9999C117.5 49.0001 117.499 49.0033 117.494 49.0081C117.484 49.0187 117.467 49.0276 117.445 49.0288L117.555 51.0258ZM119.5 87C119.5 85.8817 118.601 85.0315 117.555 84.9742L117.445 86.9712C117.467 86.9724 117.484 86.9813 117.494 86.9919C117.499 86.9967 117.5 86.9999 117.5 87.0001C117.5 87.0002 117.5 86.9999 117.5 86.9994C117.5 86.9988 117.5 86.9988 117.5 87H119.5ZM49.5 119C49.5012 119 49.5012 119 49.5006 119C49.5001 119 49.4998 119 49.4999 119C49.5001 119 49.5033 119.001 49.5081 119.006C49.5187 119.016 49.5276 119.033 49.5288 119.055L51.5258 118.945C51.4685 117.899 50.6183 117 49.5 117V119ZM17.5 49C17.5 49.0012 17.4999 49.0012 17.5 49.0006C17.5001 49.0001 17.5003 48.9998 17.5002 48.9999C17.5002 49.0001 17.4987 49.0033 17.494 49.0081C17.4836 49.0187 17.4667 49.0276 17.4454 49.0288L17.5547 51.0258C18.6008 50.9685 19.5 50.1183 19.5 49H17.5ZM17.4454 86.9712C17.4667 86.9724 17.4836 86.9813 17.494 86.9919C17.4987 86.9967 17.5002 86.9999 17.5002 87.0001C17.5003 87.0002 17.5001 86.9999 17.5 86.9994C17.4999 86.9988 17.5 86.9988 17.5 87H19.5C19.5 85.8817 18.6008 85.0315 17.5547 84.9742L17.4454 86.9712ZM49.5288 16.9454C49.5276 16.9667 49.5187 16.9836 49.5081 16.994C49.5033 16.9987 49.5001 17.0002 49.4999 17.0002C49.4998 17.0003 49.5001 17.0001 49.5006 17C49.5012 16.9999 49.5012 17 49.5 17V19C50.6183 19 51.4685 18.1008 51.5258 17.0547L49.5288 16.9454ZM87.4712 119.055C87.4724 119.033 87.4813 119.016 87.4919 119.006C87.4967 119.001 87.4999 119 87.5001 119C87.5002 119 87.4999 119 87.4994 119C87.4988 119 87.4988 119 87.5 119V117C86.3817 117 85.5315 117.899 85.4742 118.945L87.4712 119.055ZM85.4742 17.0547C85.5315 18.1008 86.3817 19 87.5 19V17C87.4988 17 87.4988 16.9999 87.4994 17C87.4999 17.0001 87.5002 17.0003 87.5001 17.0002C87.4999 17.0002 87.4967 16.9987 87.4919 16.994C87.4813 16.9836 87.4724 16.9667 87.4712 16.9454L85.4742 17.0547Z" fill="#374151" mask="url(#path-1-inside-1_576_10447)"/>
<path d="M49.2983 89.108C48.8263 89.108 48.4343 89.024 48.1223 88.856C47.8183 88.68 47.5863 88.42 47.4263 88.076C47.2743 87.732 47.1983 87.304 47.1983 86.792V83.576C47.1983 83.408 47.2383 83.284 47.3183 83.204C47.4063 83.124 47.5263 83.084 47.6783 83.084C47.8383 83.084 47.9583 83.124 48.0383 83.204C48.1263 83.284 48.1703 83.408 48.1703 83.576V86.78C48.1703 87.292 48.2743 87.676 48.4823 87.932C48.6983 88.18 49.0343 88.304 49.4903 88.304C49.9863 88.304 50.3903 88.136 50.7023 87.8C51.0143 87.464 51.1703 87.024 51.1703 86.48V83.576C51.1703 83.408 51.2103 83.284 51.2903 83.204C51.3783 83.124 51.5023 83.084 51.6623 83.084C51.8143 83.084 51.9303 83.124 52.0103 83.204C52.0983 83.284 52.1423 83.408 52.1423 83.576V88.58C52.1423 88.916 51.9863 89.084 51.6743 89.084C51.5223 89.084 51.4023 89.04 51.3143 88.952C51.2343 88.864 51.1943 88.74 51.1943 88.58V87.488L51.3503 87.656C51.1903 88.128 50.9263 88.488 50.5583 88.736C50.1983 88.984 49.7783 89.108 49.2983 89.108ZM54.4408 89.084C54.2808 89.084 54.1608 89.04 54.0808 88.952C54.0008 88.864 53.9608 88.74 53.9608 88.58V83.576C53.9608 83.416 54.0008 83.296 54.0808 83.216C54.1608 83.128 54.2768 83.084 54.4288 83.084C54.5808 83.084 54.6968 83.128 54.7768 83.216C54.8648 83.296 54.9088 83.416 54.9088 83.576V84.608L54.7768 84.464C54.9448 84 55.2168 83.652 55.5928 83.42C55.9768 83.18 56.4168 83.06 56.9128 83.06C57.3768 83.06 57.7608 83.144 58.0648 83.312C58.3768 83.48 58.6088 83.736 58.7608 84.08C58.9128 84.416 58.9888 84.844 58.9888 85.364V88.58C58.9888 88.74 58.9448 88.864 58.8568 88.952C58.7768 89.04 58.6608 89.084 58.5088 89.084C58.3488 89.084 58.2248 89.04 58.1368 88.952C58.0568 88.864 58.0168 88.74 58.0168 88.58V85.424C58.0168 84.88 57.9088 84.484 57.6928 84.236C57.4848 83.98 57.1488 83.852 56.6848 83.852C56.1488 83.852 55.7208 84.02 55.4008 84.356C55.0888 84.684 54.9328 85.124 54.9328 85.676V88.58C54.9328 88.916 54.7688 89.084 54.4408 89.084ZM63.1211 89.108C62.6651 89.108 62.2811 89.028 61.9691 88.868C61.6651 88.7 61.4371 88.46 61.2851 88.148C61.1331 87.828 61.0571 87.44 61.0571 86.984V83.924H60.2531C60.1171 83.924 60.0131 83.892 59.9411 83.828C59.8691 83.756 59.8331 83.66 59.8331 83.54C59.8331 83.42 59.8691 83.328 59.9411 83.264C60.0131 83.2 60.1171 83.168 60.2531 83.168H61.0571V81.788C61.0571 81.628 61.1011 81.508 61.1891 81.428C61.2771 81.34 61.3971 81.296 61.5491 81.296C61.7011 81.296 61.8171 81.34 61.8971 81.428C61.9851 81.508 62.0291 81.628 62.0291 81.788V83.168H63.5411C63.6771 83.168 63.7811 83.2 63.8531 83.264C63.9251 83.328 63.9611 83.42 63.9611 83.54C63.9611 83.66 63.9251 83.756 63.8531 83.828C63.7811 83.892 63.6771 83.924 63.5411 83.924H62.0291V86.888C62.0291 87.344 62.1251 87.692 62.3171 87.932C62.5091 88.164 62.8211 88.28 63.2531 88.28C63.4051 88.28 63.5331 88.264 63.6371 88.232C63.7491 88.2 63.8411 88.184 63.9131 88.184C63.9851 88.176 64.0451 88.2 64.0931 88.256C64.1411 88.312 64.1651 88.408 64.1651 88.544C64.1651 88.64 64.1451 88.728 64.1051 88.808C64.0731 88.888 64.0131 88.944 63.9251 88.976C63.8291 89.008 63.7011 89.036 63.5411 89.06C63.3891 89.092 63.2491 89.108 63.1211 89.108ZM66.3428 91.244C66.2228 91.244 66.1268 91.212 66.0548 91.148C65.9828 91.084 65.9388 90.996 65.9228 90.884C65.9148 90.78 65.9348 90.672 65.9828 90.56L66.8108 88.7V89.12L64.5068 83.768C64.4588 83.648 64.4428 83.536 64.4588 83.432C64.4748 83.328 64.5228 83.244 64.6028 83.18C64.6828 83.116 64.7948 83.084 64.9388 83.084C65.0668 83.084 65.1668 83.112 65.2388 83.168C65.3108 83.224 65.3748 83.324 65.4308 83.468L67.3988 88.292H67.0748L69.0668 83.468C69.1308 83.324 69.1988 83.224 69.2708 83.168C69.3428 83.112 69.4468 83.084 69.5828 83.084C69.7108 83.084 69.8068 83.116 69.8708 83.18C69.9428 83.244 69.9828 83.328 69.9908 83.432C70.0068 83.528 69.9908 83.636 69.9428 83.756L66.8708 90.86C66.8068 91.004 66.7348 91.104 66.6548 91.16C66.5828 91.216 66.4788 91.244 66.3428 91.244ZM71.6908 91.244C71.5308 91.244 71.4108 91.2 71.3308 91.112C71.2508 91.032 71.2108 90.912 71.2108 90.752V83.576C71.2108 83.416 71.2508 83.296 71.3308 83.216C71.4108 83.128 71.5268 83.084 71.6788 83.084C71.8388 83.084 71.9588 83.128 72.0388 83.216C72.1268 83.296 72.1708 83.416 72.1708 83.576V84.716L72.0388 84.548C72.1668 84.092 72.4188 83.732 72.7948 83.468C73.1788 83.196 73.6348 83.06 74.1628 83.06C74.6828 83.06 75.1348 83.184 75.5188 83.432C75.9108 83.672 76.2108 84.02 76.4188 84.476C76.6348 84.924 76.7428 85.46 76.7428 86.084C76.7428 86.7 76.6348 87.236 76.4188 87.692C76.2108 88.14 75.9148 88.488 75.5308 88.736C75.1468 88.984 74.6908 89.108 74.1628 89.108C73.6348 89.108 73.1828 88.976 72.8068 88.712C72.4308 88.44 72.1748 88.08 72.0388 87.632H72.1828V90.752C72.1828 90.912 72.1388 91.032 72.0508 91.112C71.9628 91.2 71.8428 91.244 71.6908 91.244ZM73.9588 88.328C74.3268 88.328 74.6428 88.24 74.9068 88.064C75.1788 87.888 75.3868 87.632 75.5308 87.296C75.6828 86.96 75.7588 86.556 75.7588 86.084C75.7588 85.356 75.5948 84.8 75.2668 84.416C74.9468 84.032 74.5108 83.84 73.9588 83.84C73.5988 83.84 73.2828 83.928 73.0108 84.104C72.7388 84.272 72.5268 84.524 72.3748 84.86C72.2308 85.188 72.1588 85.596 72.1588 86.084C72.1588 86.804 72.3228 87.36 72.6508 87.752C72.9788 88.136 73.4148 88.328 73.9588 88.328ZM80.8349 89.108C80.2189 89.108 79.6869 88.988 79.2389 88.748C78.7989 88.5 78.4549 88.152 78.2069 87.704C77.9669 87.256 77.8469 86.72 77.8469 86.096C77.8469 85.488 77.9669 84.96 78.2069 84.512C78.4469 84.056 78.7749 83.7 79.1909 83.444C79.6149 83.188 80.1029 83.06 80.6549 83.06C81.0469 83.06 81.3989 83.128 81.7109 83.264C82.0229 83.392 82.2869 83.58 82.5029 83.828C82.7269 84.076 82.8949 84.376 83.0069 84.728C83.1269 85.08 83.1869 85.476 83.1869 85.916C83.1869 86.044 83.1509 86.14 83.0789 86.204C83.0069 86.26 82.9029 86.288 82.7669 86.288H78.5909V85.652H82.5389L82.3469 85.808C82.3469 85.376 82.2829 85.012 82.1549 84.716C82.0269 84.412 81.8389 84.18 81.5909 84.02C81.3509 83.86 81.0469 83.78 80.6789 83.78C80.2709 83.78 79.9229 83.876 79.6349 84.068C79.3549 84.252 79.1429 84.512 78.9989 84.848C78.8549 85.176 78.7829 85.56 78.7829 86V86.072C78.7829 86.808 78.9589 87.368 79.3109 87.752C79.6709 88.136 80.1789 88.328 80.8349 88.328C81.1069 88.328 81.3749 88.292 81.6389 88.22C81.9109 88.148 82.1749 88.028 82.4309 87.86C82.5429 87.788 82.6429 87.756 82.7309 87.764C82.8269 87.764 82.9029 87.792 82.9589 87.848C83.0149 87.896 83.0509 87.96 83.0669 88.04C83.0909 88.112 83.0829 88.192 83.0429 88.28C83.0109 88.368 82.9429 88.444 82.8389 88.508C82.5749 88.7 82.2629 88.848 81.9029 88.952C81.5429 89.056 81.1869 89.108 80.8349 89.108ZM86.8136 89.108C86.2936 89.108 85.8376 88.984 85.4456 88.736C85.0616 88.488 84.7616 88.14 84.5456 87.692C84.3376 87.236 84.2336 86.7 84.2336 86.084C84.2336 85.46 84.3376 84.924 84.5456 84.476C84.7616 84.02 85.0616 83.672 85.4456 83.432C85.8376 83.184 86.2936 83.06 86.8136 83.06C87.3416 83.06 87.7936 83.192 88.1696 83.456C88.5456 83.72 88.7976 84.076 88.9256 84.524H88.7936V80.948C88.7936 80.788 88.8336 80.668 88.9136 80.588C89.0016 80.5 89.1256 80.456 89.2856 80.456C89.4376 80.456 89.5536 80.5 89.6336 80.588C89.7216 80.668 89.7656 80.788 89.7656 80.948V88.58C89.7656 88.74 89.7256 88.864 89.6456 88.952C89.5656 89.04 89.4456 89.084 89.2856 89.084C89.1336 89.084 89.0136 89.04 88.9256 88.952C88.8456 88.864 88.8056 88.74 88.8056 88.58V87.44L88.9376 87.608C88.8096 88.064 88.5536 88.428 88.1696 88.7C87.7936 88.972 87.3416 89.108 86.8136 89.108ZM87.0176 88.328C87.3776 88.328 87.6936 88.24 87.9656 88.064C88.2376 87.888 88.4456 87.632 88.5896 87.296C88.7416 86.96 88.8176 86.556 88.8176 86.084C88.8176 85.356 88.6536 84.8 88.3256 84.416C88.0056 84.032 87.5696 83.84 87.0176 83.84C86.6496 83.84 86.3296 83.928 86.0576 84.104C85.7936 84.272 85.5856 84.524 85.4336 84.86C85.2896 85.188 85.2176 85.596 85.2176 86.084C85.2176 86.804 85.3816 87.36 85.7096 87.752C86.0376 88.136 86.4736 88.328 87.0176 88.328Z" fill="#F9FAFB"/>
<path d="M62.6572 68.7756L60.8153 69.7556V65.3456L63.1166 67.7956L62.6572 68.7756Z" fill="#633D35"/>
<path d="M76.3728 48.364C76.3728 49.0246 76.4844 53.065 76.4844 53.065C76.4844 53.065 76.5413 53.4981 76.8672 53.6075C77.0816 53.6796 77.5497 53.5265 78.1206 53.0803C78.1972 53.0212 78.3 53.0125 78.3831 53.0606C78.6019 53.1918 79.0722 53.4478 79.3675 54.2243C79.6934 55.0818 79.6322 55.8037 79.5819 56.11C79.5644 56.2128 79.5163 56.3068 79.4572 56.3812C78.9256 57.0375 76.2656 60.4456 76.2656 62.6112C76.2656 62.6112 76.3094 65.7721 76.3094 67.6315C76.3094 69.3268 73.4459 70.7421 69.6397 71.0703L67.5156 70.4862L65.0656 70.9259C64.2869 70.8056 63.5606 70.6393 62.9088 70.4337L61.2747 65.8356L60.8153 69.7556C60.8153 69.7556 59.5881 68.4978 59.5881 67.6315C59.5881 65.7568 59.1288 48.375 59.1288 48.375L76.3728 48.364Z" fill="#AD7156"/>
<path d="M64.7812 51.7831C64.7091 52.9993 64.5822 54.2046 64.4466 55.4078L64.2431 57.2081C64.1797 57.8075 64.0966 58.4003 64.1141 58.9756C64.1141 59.5662 64.1425 60.17 64.1731 60.7715L64.2541 62.5828C64.3066 63.7925 64.3525 65.0021 64.3437 66.2206C64.0812 65.0306 63.8953 63.8296 63.7444 62.6243C63.5956 61.4168 63.4797 60.2137 63.4578 58.9778C63.4534 58.3412 63.5453 57.7287 63.6284 57.1271C63.7247 56.5256 63.8209 55.9262 63.9412 55.3312C64.1753 54.139 64.4422 52.9556 64.7812 51.7831ZM61.9375 57.9081C61.9966 58.0612 62.0031 58.2275 62.0206 58.3871C62.0316 58.549 62.0425 58.7109 62.0469 58.8728C62.0556 59.1965 62.06 59.5203 62.0556 59.844C62.0512 60.4915 62.0272 61.1368 61.9922 61.7821C61.9594 62.4275 61.9156 63.0706 61.8631 63.7137C61.8172 64.3568 61.7494 65 61.6859 65.6431L61.6794 65.5643L61.99 66.704L62.2853 67.8481C62.4756 68.6137 62.6572 69.3793 62.8125 70.1559C62.5237 69.4209 62.2612 68.675 62.0075 67.929L61.6356 66.8068L61.2812 65.6846L61.2703 65.6496L61.2747 65.6081C61.3294 64.9671 61.3753 64.324 61.4366 63.6809C61.4912 63.04 61.5525 62.3968 61.6159 61.7559L61.8106 59.8331L61.9047 58.8706C61.92 58.7109 61.9331 58.549 61.9441 58.3893C61.9484 58.2296 61.9703 58.0678 61.9375 57.9081ZM67.2969 65.0175V70.4862L69.0469 70.9237C69.0469 70.9237 67.9531 67.6425 67.2969 65.0175Z" fill="#CE8963"/>
<path d="M73.8594 61.2988C75.1019 58.466 79.4769 55.4079 79.4769 55.4079L79.6059 55.3138C79.63 55.6988 79.6103 55.9788 79.5753 56.1319C79.56 56.1997 79.5097 56.3113 79.4747 56.3529C79.0547 56.8691 76.2656 60.3822 76.2656 62.6091C76.2656 62.6091 76.3094 65.7701 76.3094 67.6294C76.3094 68.4629 75.3906 69.6091 73.4219 70.2654L74.2969 63.9216L72.3281 65.8904C72.3281 65.8926 72.9866 63.2916 73.8594 61.2988ZM76.4844 52.9229C76.5412 53.8088 77.1581 53.6076 77.1581 53.6076C76.4494 53.9401 75.4212 54.126 74.8262 53.7301C74.17 53.2926 73.8594 51.0197 73.8594 51.0197L74.2969 49.7072L76.3619 48.4976L76.4844 52.9229Z" fill="#965B44"/>
<path d="M67.2925 44.9341C62.9066 45.0347 59.4219 46.566 59.4219 48.4406C59.4219 50.381 63.1516 51.9516 67.7519 51.9516C72.3522 51.9516 76.0819 50.3788 76.0819 48.4406C76.0819 46.5747 72.63 45.0478 68.2703 44.9363" fill="#FFCC80"/>
<path d="M67.2925 44.9341C65.7241 45.0588 64.16 45.306 62.7009 45.8441C61.9747 46.1088 61.2659 46.4369 60.6731 46.8941C60.3822 47.1238 60.1131 47.3819 59.9359 47.6794C59.7522 47.9725 59.6778 48.3007 59.7303 48.6157C59.7828 48.9285 59.96 49.226 60.2028 49.4797C60.4456 49.7335 60.7388 49.9588 61.0581 50.1469C61.6991 50.5253 62.4188 50.7944 63.1538 50.9978C64.6303 51.4047 66.1791 51.5753 67.7234 51.5732C69.2656 51.5775 70.8166 51.4135 72.2953 51.011C73.0303 50.8097 73.7544 50.545 74.3975 50.1732C74.7191 49.9872 75.0188 49.7707 75.2638 49.5169C75.5109 49.2675 75.7013 48.9744 75.7625 48.6616C75.8347 48.3488 75.7603 48.0207 75.5941 47.7232C75.4234 47.4257 75.1631 47.161 74.8744 46.9291C74.2903 46.4632 73.5816 46.1328 72.8575 45.8638C71.4028 45.3191 69.8388 45.0675 68.2703 44.9363C68.6641 44.9297 69.0578 44.9319 69.4538 44.945C69.8475 44.9647 70.2434 44.9975 70.635 45.0435C71.4203 45.1397 72.2056 45.2819 72.9734 45.5094C73.7369 45.7457 74.4938 46.0497 75.1719 46.5288C75.5109 46.7694 75.8259 47.0625 76.0622 47.4388C76.2963 47.8128 76.4297 48.2985 76.3444 48.7644C76.27 49.2325 76.0163 49.6328 75.7275 49.95C75.4344 50.2716 75.0931 50.5232 74.7388 50.7419C74.03 51.175 73.2644 51.4703 72.49 51.7022C70.9325 52.1485 69.3247 52.3235 67.7213 52.33C66.12 52.3169 64.51 52.1397 62.9547 51.6847C62.1803 51.4507 61.4169 51.1488 60.7103 50.7113C60.3581 50.4903 60.0213 50.23 59.7303 49.9041C59.4459 49.5803 59.2053 49.1669 59.1441 48.6988C59.1156 48.4669 59.1309 48.2285 59.19 48.0032C59.2469 47.7778 59.3519 47.5744 59.4722 47.3885C59.715 47.0166 60.0388 46.7344 60.3778 46.496C61.0625 46.0278 61.8172 45.726 62.5828 45.4941C63.3506 45.271 64.1359 45.131 64.9234 45.0369C65.3172 44.9932 65.7109 44.9603 66.1069 44.9428C66.5028 44.9253 66.8988 44.9253 67.2925 44.9341Z" fill="#CE8963"/>
<path d="M59.2928 47.861C59.2928 49.3988 62.4275 50.6456 66.2972 50.6456C70.1669 50.6456 73.3016 49.3988 73.3016 47.861C73.3016 46.3231 71.9344 44.5491 66.2972 45.0741C62.445 45.435 59.2928 46.321 59.2928 47.861Z" fill="url(#paint0_radial_576_10447)"/>
<path opacity="0.66" d="M61.2987 48.0732C61.2966 48.3772 61.4759 48.6507 61.6903 48.8628C61.9112 49.0728 62.1738 49.2369 62.4472 49.3747C62.9963 49.646 63.5891 49.821 64.1862 49.9566C65.385 50.2082 66.6144 50.2978 67.835 50.2825C69.0556 50.2672 70.2806 50.1447 71.4597 49.856C72.0459 49.7072 72.6256 49.5169 73.155 49.2435C73.4175 49.1078 73.6647 48.9416 73.8681 48.7491C74.065 48.5522 74.2116 48.316 74.205 48.0753C74.2028 47.8369 74.0541 47.6072 73.8528 47.4169C73.6472 47.2288 73.4 47.0713 73.1353 46.9422C72.6059 46.6819 72.0263 46.5069 71.44 46.3713C70.8516 46.2357 70.2522 46.146 69.6506 46.0847C69.0491 46.0191 68.4409 45.9885 67.835 45.9841C66.6209 45.9753 65.4003 46.0366 64.2038 46.2663C63.6088 46.3888 63.0159 46.5463 62.4647 46.8044C62.1912 46.9357 61.9287 47.0932 61.7034 47.2966C61.4869 47.5 61.3031 47.7669 61.2987 48.0732ZM61.2506 48.0732C61.2462 47.7494 61.4322 47.4628 61.6509 47.2441C61.8762 47.0253 62.1344 46.846 62.41 46.6994C62.9569 46.3997 63.5453 46.1875 64.1447 46.0191C65.3434 45.6866 66.5903 45.5225 67.835 45.5094C68.4584 45.5072 69.0819 45.5335 69.7031 45.5947C70.3244 45.6603 70.9413 45.7653 71.5516 45.9141C72.1597 46.0694 72.7613 46.2663 73.3322 46.5638C73.6166 46.7125 73.89 46.8919 74.135 47.126C74.2531 47.2463 74.3647 47.3819 74.45 47.5394C74.5353 47.6969 74.59 47.8828 74.5878 48.0732C74.5856 48.2635 74.5288 48.4472 74.4413 48.6025C74.3538 48.7578 74.2422 48.8913 74.1219 49.0072C73.8769 49.2347 73.6013 49.4075 73.3147 49.5475C72.7438 49.8297 72.1422 50.0135 71.5341 50.1535C70.3178 50.4269 69.0753 50.5275 67.8372 50.5188C66.6013 50.4969 65.3609 50.3635 64.1644 50.0528C63.5672 49.8975 62.9766 49.7007 62.4275 49.4163C62.1519 49.2763 61.8916 49.1035 61.6641 48.8913C61.4431 48.6769 61.2528 48.3969 61.2506 48.0732Z" fill="#7F441C"/>
<path opacity="0.82" d="M62.7709 47.8282C62.7709 48.6397 64.8841 49.2982 67.4894 49.2982C70.0947 49.2982 72.2078 48.6397 72.2078 47.8282C72.2078 47.0166 70.0947 46.3582 67.4894 46.3582C64.8841 46.3582 62.7709 47.0166 62.7709 47.8282ZM63.5759 47.8282C63.5759 47.22 65.2428 46.7257 67.3012 46.7257C69.3597 46.7257 71.0266 47.22 71.0266 47.8282C71.0266 48.4363 69.3597 48.9307 67.3012 48.9307C65.2428 48.9307 63.5759 48.4363 63.5759 47.8282Z" fill="#B5772C"/>
<path opacity="0.74" d="M67.9334 48.1956C68.9591 48.1956 69.7906 47.9762 69.7906 47.7056C69.7906 47.435 68.9591 47.2156 67.9334 47.2156C66.9077 47.2156 66.0762 47.435 66.0762 47.7056C66.0762 47.9762 66.9077 48.1956 67.9334 48.1956Z" fill="url(#paint1_linear_576_10447)"/>
<defs>
<radialGradient id="paint0_radial_576_10447" cx="0" cy="0" r="1" gradientUnits="userSpaceOnUse" gradientTransform="translate(67.649 47.1544) rotate(180) scale(5.58711 4.46096)">
<stop offset="0.056" stop-color="#FFA726"/>
<stop offset="0.135" stop-color="#FFA726"/>
<stop offset="1" stop-color="#FFA726" stop-opacity="0.1"/>
</radialGradient>
<linearGradient id="paint1_linear_576_10447" x1="69.7906" y1="47.7054" x2="66.0743" y2="47.7054" gradientUnits="userSpaceOnUse">
<stop stop-color="#8A5140"/>
<stop offset="1" stop-color="#8A5140"/>
</linearGradient>
</defs>
</svg>
