<svg width="118" height="136" viewBox="0 0 118 136" fill="none" xmlns="http://www.w3.org/2000/svg">
<mask id="path-1-inside-1_576_10447" fill="white">
<path fill-rule="evenodd" clip-rule="evenodd" d="M87 18C86.4477 18 86.0029 17.5515 85.9727 17C85.4538 7.52403 77.6056 0 68 0C58.3944 0 50.5462 7.52403 50.0273 17C49.9971 17.5515 49.5523 18 49 18L22 18C19.7909 18 18 19.7909 18 22L18 49C18 49.5523 17.5515 49.9971 17 50.0273C7.52403 50.5462 0 58.3944 0 68C0 77.6056 7.52403 85.4538 17 85.9727C17.5515 86.0029 18 86.4477 18 87L18 114C18 116.209 19.7909 118 22 118L49 118C49.5523 118 49.9971 118.448 50.0273 119C50.5462 128.476 58.3944 136 68 136C77.6056 136 85.4538 128.476 85.9727 119C86.0029 118.449 86.4477 118 87 118L114 118C116.209 118 118 116.209 118 114V87C118 86.4477 117.552 86.0029 117 85.9727C107.524 85.4538 100 77.6056 100 68C100 58.3944 107.524 50.5462 117 50.0273C117.551 49.9971 118 49.5523 118 49L118 22C118 19.7909 116.209 18 114 18L87 18Z"/>
</mask>
<path fill-rule="evenodd" clip-rule="evenodd" d="M87 18C86.4477 18 86.0029 17.5515 85.9727 17C85.4538 7.52403 77.6056 0 68 0C58.3944 0 50.5462 7.52403 50.0273 17C49.9971 17.5515 49.5523 18 49 18L22 18C19.7909 18 18 19.7909 18 22L18 49C18 49.5523 17.5515 49.9971 17 50.0273C7.52403 50.5462 0 58.3944 0 68C0 77.6056 7.52403 85.4538 17 85.9727C17.5515 86.0029 18 86.4477 18 87L18 114C18 116.209 19.7909 118 22 118L49 118C49.5523 118 49.9971 118.448 50.0273 119C50.5462 128.476 58.3944 136 68 136C77.6056 136 85.4538 128.476 85.9727 119C86.0029 118.449 86.4477 118 87 118L114 118C116.209 118 118 116.209 118 114V87C118 86.4477 117.552 86.0029 117 85.9727C107.524 85.4538 100 77.6056 100 68C100 58.3944 107.524 50.5462 117 50.0273C117.551 49.9971 118 49.5523 118 49L118 22C118 19.7909 116.209 18 114 18L87 18Z" fill="#374151" fill-opacity="0.4"/>
<path d="M18 22H17H18ZM18 114H17H18ZM117 50.0273L116.945 49.0288L117 50.0273ZM117 85.9727L117.055 84.9742L117 85.9727ZM50.0273 119L49.0288 119.055L50.0273 119ZM18 49H19H18ZM17 50.0273L17.0547 51.0258L17 50.0273ZM17 85.9727L16.9454 86.9712L17 85.9727ZM18 87H17H18ZM50.0273 17L49.0288 16.9454L50.0273 17ZM85.9727 119L86.9712 119.055L85.9727 119ZM85.9727 17L84.9742 17.0547L85.9727 17ZM68 1C77.0716 1 84.4842 8.10602 84.9742 17.0547L86.9712 16.9454C86.4235 6.94204 78.1395 -1 68 -1V1ZM51.0258 17.0547C51.5158 8.10603 58.9284 1 68 1V-1C57.8604 -1 49.5765 6.94204 49.0288 16.9454L51.0258 17.0547ZM49 17L22 17V19L49 19V17ZM22 17C19.2386 17 17 19.2386 17 22H19C19 20.3431 20.3431 19 22 19V17ZM17 22L17 49H19L19 22H17ZM16.9454 49.0288C6.94204 49.5765 -1 57.8604 -1 68H1C1 58.9284 8.10603 51.5158 17.0547 51.0258L16.9454 49.0288ZM-1 68C-1 78.1395 6.94204 86.4235 16.9454 86.9712L17.0547 84.9742C8.10602 84.4842 1 77.0716 1 68H-1ZM17 87L17 114H19L19 87H17ZM17 114C17 116.761 19.2386 119 22 119V117C20.3431 117 19 115.657 19 114H17ZM22 119L49 119V117L22 117V119ZM49.0288 119.055C49.5765 129.058 57.8604 137 68 137V135C58.9284 135 51.5158 127.894 51.0258 118.945L49.0288 119.055ZM68 137C78.1395 137 86.4235 129.058 86.9712 119.055L84.9742 118.945C84.4842 127.894 77.0716 135 68 135V137ZM87 119L114 119V117L87 117V119ZM114 119C116.761 119 119 116.761 119 114H117C117 115.657 115.657 117 114 117V119ZM119 114V87H117V114H119ZM117.055 84.9742C108.106 84.4842 101 77.0716 101 68H99C99 78.1395 106.942 86.4235 116.945 86.9712L117.055 84.9742ZM101 68C101 58.9284 108.106 51.5158 117.055 51.0258L116.945 49.0288C106.942 49.5765 99 57.8604 99 68H101ZM119 49L119 22H117L117 49H119ZM119 22C119 19.2386 116.761 17 114 17V19C115.657 19 117 20.3431 117 22H119ZM114 17L87 17V19L114 19V17ZM117.055 51.0258C118.101 50.9685 119 50.1183 119 49H117C117 49.0012 117 49.0012 117 49.0006C117 49.0001 117 48.9998 117 48.9999C117 49.0001 116.999 49.0033 116.994 49.0081C116.984 49.0187 116.967 49.0276 116.945 49.0288L117.055 51.0258ZM119 87C119 85.8817 118.101 85.0315 117.055 84.9742L116.945 86.9712C116.967 86.9724 116.984 86.9813 116.994 86.9919C116.999 86.9967 117 86.9999 117 87.0001C117 87.0002 117 86.9999 117 86.9994C117 86.9988 117 86.9988 117 87H119ZM49 119C49.0012 119 49.0012 119 49.0006 119C49.0001 119 48.9998 119 48.9999 119C49.0001 119 49.0033 119.001 49.0081 119.006C49.0187 119.016 49.0276 119.033 49.0288 119.055L51.0258 118.945C50.9685 117.899 50.1183 117 49 117V119ZM17 49C17 49.0012 16.9999 49.0012 17 49.0006C17.0001 49.0001 17.0003 48.9998 17.0002 48.9999C17.0002 49.0001 16.9987 49.0033 16.994 49.0081C16.9836 49.0187 16.9667 49.0276 16.9454 49.0288L17.0547 51.0258C18.1008 50.9685 19 50.1183 19 49H17ZM16.9454 86.9712C16.9667 86.9724 16.9836 86.9813 16.994 86.9919C16.9987 86.9967 17.0002 86.9999 17.0002 87.0001C17.0003 87.0002 17.0001 86.9999 17 86.9994C16.9999 86.9988 17 86.9988 17 87H19C19 85.8817 18.1008 85.0315 17.0547 84.9742L16.9454 86.9712ZM49.0288 16.9454C49.0276 16.9667 49.0187 16.9836 49.0081 16.994C49.0033 16.9987 49.0001 17.0002 48.9999 17.0002C48.9998 17.0003 49.0001 17.0001 49.0006 17C49.0012 16.9999 49.0012 17 49 17V19C50.1183 19 50.9685 18.1008 51.0258 17.0547L49.0288 16.9454ZM86.9712 119.055C86.9724 119.033 86.9813 119.016 86.9919 119.006C86.9967 119.001 86.9999 119 87.0001 119C87.0002 119 86.9999 119 86.9994 119C86.9988 119 86.9988 119 87 119V117C85.8817 117 85.0315 117.899 84.9742 118.945L86.9712 119.055ZM84.9742 17.0547C85.0315 18.1008 85.8817 19 87 19V17C86.9988 17 86.9988 16.9999 86.9994 17C86.9999 17.0001 87.0002 17.0003 87.0001 17.0002C86.9999 17.0002 86.9967 16.9987 86.9919 16.994C86.9813 16.9836 86.9724 16.9667 86.9712 16.9454L84.9742 17.0547Z" fill="#374151" mask="url(#path-1-inside-1_576_10447)"/>
<path d="M42.3977 90.144C41.7684 90.144 41.2457 90.032 40.8297 89.808C40.4244 89.5733 40.115 89.2267 39.9017 88.768C39.699 88.3093 39.5977 87.7387 39.5977 87.056V82.768C39.5977 82.544 39.651 82.3787 39.7577 82.272C39.875 82.1653 40.035 82.112 40.2377 82.112C40.451 82.112 40.611 82.1653 40.7177 82.272C40.835 82.3787 40.8937 82.544 40.8937 82.768V87.04C40.8937 87.7227 41.0324 88.2347 41.3097 88.576C41.5977 88.9067 42.0457 89.072 42.6537 89.072C43.315 89.072 43.8537 88.848 44.2697 88.4C44.6857 87.952 44.8937 87.3653 44.8937 86.64V82.768C44.8937 82.544 44.947 82.3787 45.0537 82.272C45.171 82.1653 45.3364 82.112 45.5497 82.112C45.7524 82.112 45.907 82.1653 46.0137 82.272C46.131 82.3787 46.1897 82.544 46.1897 82.768V89.44C46.1897 89.888 45.9817 90.112 45.5657 90.112C45.363 90.112 45.203 90.0533 45.0857 89.936C44.979 89.8187 44.9257 89.6533 44.9257 89.44V87.984L45.1337 88.208C44.9204 88.8373 44.5684 89.3173 44.0777 89.648C43.5977 89.9787 43.0377 90.144 42.3977 90.144ZM49.2544 90.112C49.0411 90.112 48.8811 90.0533 48.7744 89.936C48.6678 89.8187 48.6144 89.6533 48.6144 89.44V82.768C48.6144 82.5547 48.6678 82.3947 48.7744 82.288C48.8811 82.1707 49.0358 82.112 49.2384 82.112C49.4411 82.112 49.5958 82.1707 49.7024 82.288C49.8198 82.3947 49.8784 82.5547 49.8784 82.768V84.144L49.7024 83.952C49.9264 83.3333 50.2891 82.8693 50.7904 82.56C51.3024 82.24 51.8891 82.08 52.5504 82.08C53.1691 82.08 53.6811 82.192 54.0864 82.416C54.5024 82.64 54.8118 82.9813 55.0144 83.44C55.2171 83.888 55.3184 84.4587 55.3184 85.152V89.44C55.3184 89.6533 55.2598 89.8187 55.1424 89.936C55.0358 90.0533 54.8811 90.112 54.6784 90.112C54.4651 90.112 54.2998 90.0533 54.1824 89.936C54.0758 89.8187 54.0224 89.6533 54.0224 89.44V85.232C54.0224 84.5067 53.8784 83.9787 53.5904 83.648C53.3131 83.3067 52.8651 83.136 52.2464 83.136C51.5318 83.136 50.9611 83.36 50.5344 83.808C50.1184 84.2453 49.9104 84.832 49.9104 85.568V89.44C49.9104 89.888 49.6918 90.112 49.2544 90.112ZM60.8282 90.144C60.2202 90.144 59.7082 90.0373 59.2922 89.824C58.8869 89.6 58.5829 89.28 58.3802 88.864C58.1775 88.4373 58.0762 87.92 58.0762 87.312V83.232H57.0042C56.8229 83.232 56.6842 83.1893 56.5882 83.104C56.4922 83.008 56.4442 82.88 56.4442 82.72C56.4442 82.56 56.4922 82.4373 56.5882 82.352C56.6842 82.2667 56.8229 82.224 57.0042 82.224H58.0762V80.384C58.0762 80.1707 58.1349 80.0107 58.2522 79.904C58.3695 79.7867 58.5295 79.728 58.7322 79.728C58.9349 79.728 59.0895 79.7867 59.1962 79.904C59.3135 80.0107 59.3722 80.1707 59.3722 80.384V82.224H61.3882C61.5695 82.224 61.7082 82.2667 61.8042 82.352C61.9002 82.4373 61.9482 82.56 61.9482 82.72C61.9482 82.88 61.9002 83.008 61.8042 83.104C61.7082 83.1893 61.5695 83.232 61.3882 83.232H59.3722V87.184C59.3722 87.792 59.5002 88.256 59.7562 88.576C60.0122 88.8853 60.4282 89.04 61.0042 89.04C61.2069 89.04 61.3775 89.0187 61.5162 88.976C61.6655 88.9333 61.7882 88.912 61.8842 88.912C61.9802 88.9013 62.0602 88.9333 62.1242 89.008C62.1882 89.0827 62.2202 89.2107 62.2202 89.392C62.2202 89.52 62.1935 89.6373 62.1402 89.744C62.0975 89.8507 62.0175 89.9253 61.9002 89.968C61.7722 90.0107 61.6015 90.048 61.3882 90.08C61.1855 90.1227 60.9989 90.144 60.8282 90.144ZM65.1237 92.992C64.9637 92.992 64.8357 92.9493 64.7397 92.864C64.6437 92.7787 64.585 92.6613 64.5637 92.512C64.553 92.3733 64.5797 92.2293 64.6437 92.08L65.7477 89.6V90.16L62.6757 83.024C62.6117 82.864 62.5904 82.7147 62.6117 82.576C62.633 82.4373 62.697 82.3253 62.8037 82.24C62.9104 82.1547 63.0597 82.112 63.2517 82.112C63.4224 82.112 63.5557 82.1493 63.6517 82.224C63.7477 82.2987 63.833 82.432 63.9077 82.624L66.5317 89.056H66.0997L68.7557 82.624C68.841 82.432 68.9317 82.2987 69.0277 82.224C69.1237 82.1493 69.2624 82.112 69.4437 82.112C69.6144 82.112 69.7424 82.1547 69.8277 82.24C69.9237 82.3253 69.977 82.4373 69.9877 82.576C70.009 82.704 69.9877 82.848 69.9237 83.008L65.8277 92.48C65.7424 92.672 65.6464 92.8053 65.5397 92.88C65.4437 92.9547 65.305 92.992 65.1237 92.992ZM72.2544 92.992C72.0411 92.992 71.8811 92.9333 71.7744 92.816C71.6678 92.7093 71.6144 92.5493 71.6144 92.336V82.768C71.6144 82.5547 71.6678 82.3947 71.7744 82.288C71.8811 82.1707 72.0358 82.112 72.2384 82.112C72.4518 82.112 72.6118 82.1707 72.7184 82.288C72.8358 82.3947 72.8944 82.5547 72.8944 82.768V84.288L72.7184 84.064C72.8891 83.456 73.2251 82.976 73.7264 82.624C74.2384 82.2613 74.8464 82.08 75.5504 82.08C76.2438 82.08 76.8464 82.2453 77.3584 82.576C77.8811 82.896 78.2811 83.36 78.5584 83.968C78.8464 84.5653 78.9904 85.28 78.9904 86.112C78.9904 86.9333 78.8464 87.648 78.5584 88.256C78.2811 88.8533 77.8864 89.3173 77.3744 89.648C76.8624 89.9787 76.2544 90.144 75.5504 90.144C74.8464 90.144 74.2438 89.968 73.7424 89.616C73.2411 89.2533 72.8998 88.7733 72.7184 88.176H72.9104V92.336C72.9104 92.5493 72.8518 92.7093 72.7344 92.816C72.6171 92.9333 72.4571 92.992 72.2544 92.992ZM75.2784 89.104C75.7691 89.104 76.1904 88.9867 76.5424 88.752C76.9051 88.5173 77.1824 88.176 77.3744 87.728C77.5771 87.28 77.6784 86.7413 77.6784 86.112C77.6784 85.1413 77.4598 84.4 77.0224 83.888C76.5958 83.376 76.0144 83.12 75.2784 83.12C74.7984 83.12 74.3771 83.2373 74.0144 83.472C73.6518 83.696 73.3691 84.032 73.1664 84.48C72.9744 84.9173 72.8784 85.4613 72.8784 86.112C72.8784 87.072 73.0971 87.8133 73.5344 88.336C73.9718 88.848 74.5531 89.104 75.2784 89.104ZM84.4466 90.144C83.6252 90.144 82.9159 89.984 82.3186 89.664C81.7319 89.3333 81.2732 88.8693 80.9426 88.272C80.6226 87.6747 80.4626 86.96 80.4626 86.128C80.4626 85.3173 80.6226 84.6133 80.9426 84.016C81.2626 83.408 81.6999 82.9333 82.2546 82.592C82.8199 82.2507 83.4706 82.08 84.2066 82.08C84.7292 82.08 85.1986 82.1707 85.6146 82.352C86.0306 82.5227 86.3826 82.7733 86.6706 83.104C86.9692 83.4347 87.1932 83.8347 87.3426 84.304C87.5026 84.7733 87.5826 85.3013 87.5826 85.888C87.5826 86.0587 87.5346 86.1867 87.4386 86.272C87.3426 86.3467 87.2039 86.384 87.0226 86.384H81.4546V85.536H86.7186L86.4626 85.744C86.4626 85.168 86.3772 84.6827 86.2066 84.288C86.0359 83.8827 85.7852 83.5733 85.4546 83.36C85.1346 83.1467 84.7292 83.04 84.2386 83.04C83.6946 83.04 83.2306 83.168 82.8466 83.424C82.4732 83.6693 82.1906 84.016 81.9986 84.464C81.8066 84.9013 81.7106 85.4133 81.7106 86V86.096C81.7106 87.0773 81.9452 87.824 82.4146 88.336C82.8946 88.848 83.5719 89.104 84.4466 89.104C84.8092 89.104 85.1666 89.056 85.5186 88.96C85.8812 88.864 86.2332 88.704 86.5746 88.48C86.7239 88.384 86.8572 88.3413 86.9746 88.352C87.1026 88.352 87.2039 88.3893 87.2786 88.464C87.3532 88.528 87.4012 88.6133 87.4226 88.72C87.4546 88.816 87.4439 88.9227 87.3906 89.04C87.3479 89.1573 87.2572 89.2587 87.1186 89.344C86.7666 89.6 86.3506 89.7973 85.8706 89.936C85.3906 90.0747 84.9159 90.144 84.4466 90.144ZM92.4182 90.144C91.7249 90.144 91.1169 89.9787 90.5942 89.648C90.0822 89.3173 89.6822 88.8533 89.3942 88.256C89.1169 87.648 88.9782 86.9333 88.9782 86.112C88.9782 85.28 89.1169 84.5653 89.3942 83.968C89.6822 83.36 90.0822 82.896 90.5942 82.576C91.1169 82.2453 91.7249 82.08 92.4182 82.08C93.1222 82.08 93.7249 82.256 94.2262 82.608C94.7275 82.96 95.0635 83.4347 95.2342 84.032H95.0582V79.264C95.0582 79.0507 95.1115 78.8907 95.2182 78.784C95.3355 78.6667 95.5009 78.608 95.7142 78.608C95.9169 78.608 96.0715 78.6667 96.1782 78.784C96.2955 78.8907 96.3542 79.0507 96.3542 79.264V89.44C96.3542 89.6533 96.3009 89.8187 96.1942 89.936C96.0875 90.0533 95.9275 90.112 95.7142 90.112C95.5115 90.112 95.3515 90.0533 95.2342 89.936C95.1275 89.8187 95.0742 89.6533 95.0742 89.44V87.92L95.2502 88.144C95.0795 88.752 94.7382 89.2373 94.2262 89.6C93.7249 89.9627 93.1222 90.144 92.4182 90.144ZM92.6902 89.104C93.1702 89.104 93.5915 88.9867 93.9542 88.752C94.3169 88.5173 94.5942 88.176 94.7862 87.728C94.9889 87.28 95.0902 86.7413 95.0902 86.112C95.0902 85.1413 94.8715 84.4 94.4342 83.888C94.0075 83.376 93.4262 83.12 92.6902 83.12C92.1995 83.12 91.7729 83.2373 91.4102 83.472C91.0582 83.696 90.7809 84.032 90.5782 84.48C90.3862 84.9173 90.2902 85.4613 90.2902 86.112C90.2902 87.072 90.5089 87.8133 90.9462 88.336C91.3835 88.848 91.9649 89.104 92.6902 89.104Z" fill="#F9FAFB"/>
<path d="M62.1572 68.7756L60.3153 69.7556V65.3456L62.6166 67.7956L62.1572 68.7756Z" fill="#633D35"/>
<path d="M75.8728 48.3641C75.8728 49.0247 75.9844 53.065 75.9844 53.065C75.9844 53.065 76.0413 53.4981 76.3672 53.6075C76.5816 53.6797 77.0497 53.5266 77.6206 53.0803C77.6972 53.0212 77.8 53.0125 77.8831 53.0606C78.1019 53.1919 78.5722 53.4478 78.8675 54.2244C79.1934 55.0819 79.1322 55.8037 79.0819 56.11C79.0644 56.2128 79.0163 56.3069 78.9572 56.3812C78.4256 57.0375 75.7656 60.4456 75.7656 62.6112C75.7656 62.6112 75.8094 65.7722 75.8094 67.6316C75.8094 69.3269 72.9459 70.7422 69.1397 71.0703L67.0156 70.4862L64.5656 70.9259C63.7869 70.8056 63.0606 70.6394 62.4088 70.4337L60.7747 65.8356L60.3153 69.7556C60.3153 69.7556 59.0881 68.4978 59.0881 67.6316C59.0881 65.7569 58.6288 48.375 58.6288 48.375L75.8728 48.3641Z" fill="#AD7156"/>
<path d="M64.2812 51.7831C64.2091 52.9994 64.0822 54.2047 63.9466 55.4078L63.7431 57.2081C63.6797 57.8075 63.5966 58.4003 63.6141 58.9756C63.6141 59.5663 63.6425 60.17 63.6731 60.7716L63.7541 62.5828C63.8066 63.7925 63.8525 65.0022 63.8437 66.2206C63.5812 65.0306 63.3953 63.8297 63.2444 62.6244C63.0956 61.4169 62.9797 60.2138 62.9578 58.9778C62.9534 58.3413 63.0453 57.7288 63.1284 57.1272C63.2247 56.5256 63.3209 55.9263 63.4412 55.3313C63.6753 54.1391 63.9422 52.9556 64.2812 51.7831ZM61.4375 57.9081C61.4966 58.0613 61.5031 58.2275 61.5206 58.3872C61.5316 58.5491 61.5425 58.7109 61.5469 58.8728C61.5556 59.1966 61.56 59.5203 61.5556 59.8441C61.5512 60.4916 61.5272 61.1369 61.4922 61.7822C61.4594 62.4275 61.4156 63.0706 61.3631 63.7138C61.3172 64.3569 61.2494 65 61.1859 65.6431L61.1794 65.5644L61.49 66.7041L61.7853 67.8481C61.9756 68.6138 62.1572 69.3794 62.3125 70.1559C62.0237 69.4209 61.7612 68.675 61.5075 67.9291L61.1356 66.8069L60.7812 65.6847L60.7703 65.6497L60.7747 65.6081C60.8294 64.9672 60.8753 64.3241 60.9366 63.6809C60.9912 63.04 61.0525 62.3969 61.1159 61.7559L61.3106 59.8331L61.4047 58.8706C61.42 58.7109 61.4331 58.5491 61.4441 58.3894C61.4484 58.2297 61.4703 58.0678 61.4375 57.9081ZM66.7969 65.0175V70.4863L68.5469 70.9238C68.5469 70.9238 67.4531 67.6425 66.7969 65.0175Z" fill="#CE8963"/>
<path d="M73.3594 61.2987C74.6019 58.4659 78.9769 55.4078 78.9769 55.4078L79.1059 55.3137C79.13 55.6987 79.1103 55.9787 79.0753 56.1319C79.06 56.1997 79.0097 56.3112 78.9747 56.3528C78.5547 56.8691 75.7656 60.3822 75.7656 62.6091C75.7656 62.6091 75.8094 65.77 75.8094 67.6294C75.8094 68.4628 74.8906 69.6091 72.9219 70.2653L73.7969 63.9216L71.8281 65.8903C71.8281 65.8925 72.4866 63.2916 73.3594 61.2987ZM75.9844 52.9228C76.0412 53.8087 76.6581 53.6075 76.6581 53.6075C75.9494 53.94 74.9212 54.1259 74.3262 53.73C73.67 53.2925 73.3594 51.0197 73.3594 51.0197L73.7969 49.7072L75.8619 48.4975L75.9844 52.9228Z" fill="#965B44"/>
<path d="M66.7925 44.9341C62.4066 45.0347 58.9219 46.5659 58.9219 48.4406C58.9219 50.3809 62.6516 51.9516 67.2519 51.9516C71.8522 51.9516 75.5819 50.3788 75.5819 48.4406C75.5819 46.5747 72.13 45.0478 67.7703 44.9363" fill="#FFCC80"/>
<path d="M66.7925 44.9341C65.2241 45.0587 63.66 45.3059 62.2009 45.8441C61.4747 46.1087 60.7659 46.4369 60.1731 46.8941C59.8822 47.1237 59.6131 47.3819 59.4359 47.6794C59.2522 47.9725 59.1778 48.3006 59.2303 48.6156C59.2828 48.9284 59.46 49.2259 59.7028 49.4797C59.9456 49.7334 60.2388 49.9587 60.5581 50.1469C61.1991 50.5253 61.9188 50.7944 62.6538 50.9978C64.1303 51.4047 65.6791 51.5753 67.2234 51.5731C68.7656 51.5775 70.3166 51.4134 71.7953 51.0109C72.5303 50.8097 73.2544 50.545 73.8975 50.1731C74.2191 49.9872 74.5188 49.7706 74.7638 49.5169C75.0109 49.2675 75.2013 48.9744 75.2625 48.6616C75.3347 48.3487 75.2603 48.0206 75.0941 47.7231C74.9234 47.4256 74.6631 47.1609 74.3744 46.9291C73.7903 46.4631 73.0816 46.1328 72.3575 45.8637C70.9028 45.3191 69.3388 45.0675 67.7703 44.9362C68.1641 44.9297 68.5578 44.9319 68.9538 44.945C69.3475 44.9647 69.7434 44.9975 70.135 45.0434C70.9203 45.1397 71.7056 45.2819 72.4734 45.5094C73.2369 45.7456 73.9938 46.0497 74.6719 46.5287C75.0109 46.7694 75.3259 47.0625 75.5622 47.4387C75.7963 47.8128 75.9297 48.2984 75.8444 48.7644C75.77 49.2325 75.5163 49.6328 75.2275 49.95C74.9344 50.2716 74.5931 50.5231 74.2388 50.7419C73.53 51.175 72.7644 51.4703 71.99 51.7022C70.4325 52.1484 68.8247 52.3234 67.2213 52.33C65.62 52.3169 64.01 52.1397 62.4547 51.6847C61.6803 51.4506 60.9169 51.1487 60.2103 50.7112C59.8581 50.4903 59.5213 50.23 59.2303 49.9041C58.9459 49.5803 58.7053 49.1669 58.6441 48.6987C58.6156 48.4669 58.6309 48.2284 58.69 48.0031C58.7469 47.7778 58.8519 47.5744 58.9722 47.3884C59.215 47.0166 59.5388 46.7344 59.8778 46.4959C60.5625 46.0278 61.3172 45.7259 62.0828 45.4941C62.8506 45.2709 63.6359 45.1309 64.4234 45.0369C64.8172 44.9931 65.2109 44.9603 65.6069 44.9428C66.0028 44.9253 66.3988 44.9253 66.7925 44.9341Z" fill="#CE8963"/>
<path d="M58.7928 47.8609C58.7928 49.3987 61.9275 50.6456 65.7972 50.6456C69.6669 50.6456 72.8016 49.3987 72.8016 47.8609C72.8016 46.3231 71.4344 44.5491 65.7972 45.0741C61.945 45.435 58.7928 46.3209 58.7928 47.8609Z" fill="url(#paint0_radial_576_10447)"/>
<path opacity="0.66" d="M60.7987 48.0731C60.7966 48.3772 60.9759 48.6506 61.1903 48.8628C61.4112 49.0728 61.6738 49.2369 61.9472 49.3747C62.4963 49.6459 63.0891 49.8209 63.6862 49.9566C64.885 50.2081 66.1144 50.2978 67.335 50.2825C68.5556 50.2672 69.7806 50.1447 70.9597 49.8559C71.5459 49.7072 72.1256 49.5169 72.655 49.2434C72.9175 49.1078 73.1647 48.9416 73.3681 48.7491C73.565 48.5522 73.7116 48.3159 73.705 48.0753C73.7028 47.8369 73.5541 47.6072 73.3528 47.4169C73.1472 47.2287 72.9 47.0712 72.6353 46.9422C72.1059 46.6819 71.5263 46.5069 70.94 46.3712C70.3516 46.2356 69.7522 46.1459 69.1506 46.0847C68.5491 46.0191 67.9409 45.9884 67.335 45.9841C66.1209 45.9753 64.9003 46.0366 63.7038 46.2662C63.1088 46.3887 62.5159 46.5462 61.9647 46.8044C61.6912 46.9356 61.4287 47.0931 61.2034 47.2966C60.9869 47.5 60.8031 47.7669 60.7987 48.0731ZM60.7506 48.0731C60.7462 47.7494 60.9322 47.4628 61.1509 47.2441C61.3762 47.0253 61.6344 46.8459 61.91 46.6994C62.4569 46.3997 63.0453 46.1875 63.6447 46.0191C64.8434 45.6866 66.0903 45.5225 67.335 45.5094C67.9584 45.5072 68.5819 45.5334 69.2031 45.5947C69.8244 45.6603 70.4412 45.7653 71.0516 45.9141C71.6597 46.0694 72.2613 46.2662 72.8322 46.5637C73.1166 46.7125 73.39 46.8919 73.635 47.1259C73.7531 47.2462 73.8647 47.3819 73.95 47.5394C74.0353 47.6969 74.09 47.8828 74.0878 48.0731C74.0856 48.2634 74.0288 48.4472 73.9413 48.6025C73.8538 48.7578 73.7422 48.8912 73.6219 49.0072C73.3769 49.2347 73.1013 49.4075 72.8147 49.5475C72.2438 49.8297 71.6422 50.0134 71.0341 50.1534C69.8178 50.4269 68.5753 50.5275 67.3372 50.5187C66.1013 50.4969 64.8609 50.3634 63.6644 50.0528C63.0672 49.8975 62.4766 49.7006 61.9275 49.4162C61.6519 49.2762 61.3916 49.1034 61.1641 48.8912C60.9431 48.6769 60.7528 48.3969 60.7506 48.0731Z" fill="#7F441C"/>
<path opacity="0.82" d="M62.2709 47.8281C62.2709 48.6397 64.3841 49.2981 66.9894 49.2981C69.5947 49.2981 71.7078 48.6397 71.7078 47.8281C71.7078 47.0166 69.5947 46.3581 66.9894 46.3581C64.3841 46.3581 62.2709 47.0166 62.2709 47.8281ZM63.0759 47.8281C63.0759 47.22 64.7428 46.7256 66.8012 46.7256C68.8597 46.7256 70.5266 47.22 70.5266 47.8281C70.5266 48.4362 68.8597 48.9306 66.8012 48.9306C64.7428 48.9306 63.0759 48.4362 63.0759 47.8281Z" fill="#B5772C"/>
<path opacity="0.74" d="M67.4334 48.1956C68.4591 48.1956 69.2906 47.9762 69.2906 47.7056C69.2906 47.435 68.4591 47.2156 67.4334 47.2156C66.4077 47.2156 65.5762 47.435 65.5762 47.7056C65.5762 47.9762 66.4077 48.1956 67.4334 48.1956Z" fill="url(#paint1_linear_576_10447)"/>
<defs>
<radialGradient id="paint0_radial_576_10447" cx="0" cy="0" r="1" gradientUnits="userSpaceOnUse" gradientTransform="translate(67.149 47.1543) rotate(180) scale(5.58711 4.46096)">
<stop offset="0.056" stop-color="#FFA726"/>
<stop offset="0.135" stop-color="#FFA726"/>
<stop offset="1" stop-color="#FFA726" stop-opacity="0.1"/>
</radialGradient>
<linearGradient id="paint1_linear_576_10447" x1="69.2906" y1="47.7054" x2="65.5743" y2="47.7054" gradientUnits="userSpaceOnUse">
<stop stop-color="#8A5140"/>
<stop offset="1" stop-color="#8A5140"/>
</linearGradient>
</defs>
</svg>
