<svg width="137" height="118" viewBox="0 0 137 118" fill="none" xmlns="http://www.w3.org/2000/svg">
<mask id="path-1-inside-1_673_9855" fill="white">
<path fill-rule="evenodd" clip-rule="evenodd" d="M87.5 0C86.9477 0 86.5029 0.448498 86.4727 0.999957C85.9538 10.476 78.1056 18 68.5 18C58.8944 18 51.0462 10.476 50.5273 0.999956C50.4971 0.448497 50.0523 0 49.5 0L22.5 0C20.2909 0 18.5 1.79086 18.5 4L18.5 31C18.5 31.5523 18.0515 31.9971 17.5 32.0273C8.02403 32.5462 0.5 40.3944 0.5 50C0.5 59.6056 8.02403 67.4538 17.5 67.9727C18.0515 68.0029 18.5 68.4477 18.5 69L18.5 96C18.5 98.2091 20.2909 100 22.5 100L49.5 100C50.0523 100 50.4971 100.448 50.5273 101C51.0462 110.476 58.8944 118 68.5 118C78.1056 118 85.9538 110.476 86.4727 101C86.5029 100.448 86.9477 100 87.5 100L114.5 100C116.709 100 118.5 98.2091 118.5 96V69C118.5 68.4477 118.948 68.0029 119.5 67.9727C128.976 67.4538 136.5 59.6056 136.5 50C136.5 40.3944 128.976 32.5462 119.5 32.0273C118.948 31.9971 118.5 31.5523 118.5 31V4C118.5 1.79086 116.709 0 114.5 0L87.5 0Z"/>
</mask>
<path fill-rule="evenodd" clip-rule="evenodd" d="M87.5 0C86.9477 0 86.5029 0.448498 86.4727 0.999957C85.9538 10.476 78.1056 18 68.5 18C58.8944 18 51.0462 10.476 50.5273 0.999956C50.4971 0.448497 50.0523 0 49.5 0L22.5 0C20.2909 0 18.5 1.79086 18.5 4L18.5 31C18.5 31.5523 18.0515 31.9971 17.5 32.0273C8.02403 32.5462 0.5 40.3944 0.5 50C0.5 59.6056 8.02403 67.4538 17.5 67.9727C18.0515 68.0029 18.5 68.4477 18.5 69L18.5 96C18.5 98.2091 20.2909 100 22.5 100L49.5 100C50.0523 100 50.4971 100.448 50.5273 101C51.0462 110.476 58.8944 118 68.5 118C78.1056 118 85.9538 110.476 86.4727 101C86.5029 100.448 86.9477 100 87.5 100L114.5 100C116.709 100 118.5 98.2091 118.5 96V69C118.5 68.4477 118.948 68.0029 119.5 67.9727C128.976 67.4538 136.5 59.6056 136.5 50C136.5 40.3944 128.976 32.5462 119.5 32.0273C118.948 31.9971 118.5 31.5523 118.5 31V4C118.5 1.79086 116.709 0 114.5 0L87.5 0Z" fill="#374151" fill-opacity="0.4"/>
<path d="M18.5 4L17.5 4L17.5 4L18.5 4ZM18.5 96L17.5 96V96H18.5ZM119.5 32.0273L119.555 31.0288L119.5 32.0273ZM119.5 67.9727L119.555 68.9712L119.5 67.9727ZM50.5273 101L49.5288 101.055L50.5273 101ZM18.5 31L19.5 31L18.5 31ZM17.5 32.0273L17.4454 31.0288L17.5 32.0273ZM17.5 67.9727L17.4454 68.9712L17.5 67.9727ZM18.5 69L17.5 69L18.5 69ZM50.5273 0.999956L49.5288 1.05463L50.5273 0.999956ZM86.4727 101L85.4742 100.945L86.4727 101ZM86.4727 0.999957L85.4742 0.945284L86.4727 0.999957ZM68.5 19C78.6396 19 86.9235 11.058 87.4712 1.05463L85.4742 0.945284C84.9842 9.89397 77.5716 17 68.5 17V19ZM49.5288 1.05463C50.0765 11.058 58.3604 19 68.5 19V17C59.4284 17 52.0158 9.89397 51.5258 0.945282L49.5288 1.05463ZM22.5 1L49.5 1V-1L22.5 -1V1ZM19.5 4C19.5 2.34315 20.8431 1 22.5 1V-1C19.7386 -1 17.5 1.23858 17.5 4H19.5ZM19.5 31L19.5 4L17.5 4L17.5 31L19.5 31ZM1.5 50C1.5 40.9284 8.60603 33.5158 17.5547 33.0258L17.4454 31.0288C7.44204 31.5765 -0.5 39.8604 -0.5 50H1.5ZM17.5547 66.9742C8.60603 66.4842 1.5 59.0716 1.5 50H-0.5C-0.5 60.1396 7.44204 68.4235 17.4454 68.9712L17.5547 66.9742ZM19.5 96L19.5 69L17.5 69L17.5 96L19.5 96ZM22.5 99C20.8431 99 19.5 97.6569 19.5 96H17.5C17.5 98.7614 19.7386 101 22.5 101L22.5 99ZM49.5 99L22.5 99L22.5 101L49.5 101V99ZM68.5 117C59.4284 117 52.0158 109.894 51.5258 100.945L49.5288 101.055C50.0765 111.058 58.3604 119 68.5 119V117ZM85.4742 100.945C84.9842 109.894 77.5716 117 68.5 117V119C78.6396 119 86.9235 111.058 87.4712 101.055L85.4742 100.945ZM114.5 99L87.5 99V101L114.5 101V99ZM117.5 96C117.5 97.6569 116.157 99 114.5 99V101C117.261 101 119.5 98.7614 119.5 96H117.5ZM117.5 69V96H119.5V69H117.5ZM135.5 50C135.5 59.0716 128.394 66.4842 119.445 66.9742L119.555 68.9712C129.558 68.4235 137.5 60.1396 137.5 50H135.5ZM119.445 33.0258C128.394 33.5158 135.5 40.9284 135.5 50H137.5C137.5 39.8604 129.558 31.5765 119.555 31.0288L119.445 33.0258ZM117.5 4V31H119.5V4H117.5ZM114.5 1C116.157 1 117.5 2.34315 117.5 4H119.5C119.5 1.23858 117.261 -1 114.5 -1V1ZM87.5 1L114.5 1V-1L87.5 -1V1ZM119.555 31.0288C119.533 31.0276 119.516 31.0187 119.506 31.0081C119.501 31.0033 119.5 31.0001 119.5 30.9999C119.5 30.9998 119.5 31.0001 119.5 31.0007C119.5 31.0012 119.5 31.0012 119.5 31H117.5C117.5 32.1183 118.399 32.9685 119.445 33.0258L119.555 31.0288ZM119.5 69C119.5 68.9988 119.5 68.9988 119.5 68.9994C119.5 68.9999 119.5 69.0002 119.5 69.0001C119.5 68.9999 119.501 68.9967 119.506 68.9919C119.516 68.9813 119.533 68.9724 119.555 68.9712L119.445 66.9742C118.399 67.0315 117.5 67.8817 117.5 69H119.5ZM49.5 101C49.5012 101 49.5012 101 49.5006 101C49.5001 101 49.4998 101 49.4999 101C49.5001 101 49.5033 101.001 49.5081 101.006C49.5187 101.016 49.5276 101.033 49.5288 101.055L51.5258 100.945C51.4685 99.8992 50.6183 99 49.5 99V101ZM17.5 31C17.5 31.0012 17.4999 31.0012 17.5 31.0006C17.5001 31.0001 17.5003 30.9998 17.5002 30.9999C17.5002 31.0001 17.4987 31.0033 17.494 31.0081C17.4836 31.0187 17.4666 31.0276 17.4454 31.0288L17.5547 33.0258C18.6008 32.9685 19.5 32.1183 19.5 31L17.5 31ZM17.4454 68.9712C17.4667 68.9724 17.4836 68.9813 17.494 68.9919C17.4987 68.9967 17.5002 68.9999 17.5002 69.0001C17.5003 69.0002 17.5001 68.9999 17.5 68.9993C17.4999 68.9988 17.5 68.9988 17.5 69L19.5 69C19.5 67.8817 18.6008 67.0315 17.5547 66.9742L17.4454 68.9712ZM51.5258 0.945282C51.4685 -0.100789 50.6183 -1 49.5 -1V1C49.5012 1 49.5012 1.0001 49.5007 0.999977C49.5001 0.999868 49.4998 0.999738 49.4999 0.999766C49.5001 0.999846 49.5033 1.00127 49.5081 1.006C49.5187 1.0164 49.5276 1.03335 49.5288 1.05463L51.5258 0.945282ZM87.4712 101.055C87.4724 101.033 87.4813 101.016 87.4919 101.006C87.4967 101.001 87.4999 101 87.5001 101C87.5002 101 87.4999 101 87.4993 101C87.4988 101 87.4988 101 87.5 101V99C86.3817 99 85.5315 99.8992 85.4742 100.945L87.4712 101.055ZM87.4712 1.05463C87.4724 1.03335 87.4813 1.0164 87.4919 1.006C87.4967 1.00127 87.4999 0.999846 87.5001 0.999766C87.5002 0.999738 87.4999 0.999868 87.4994 0.999977C87.4988 1.0001 87.4988 1 87.5 1V-1C86.3817 -1 85.5315 -0.100786 85.4742 0.945284L87.4712 1.05463Z" fill="#374151" mask="url(#path-1-inside-1_673_9855)"/>
<path d="M62.4643 71.108C61.9923 71.108 61.6003 71.024 61.2883 70.856C60.9843 70.68 60.7523 70.42 60.5923 70.076C60.4403 69.732 60.3643 69.304 60.3643 68.792V65.576C60.3643 65.408 60.4043 65.284 60.4843 65.204C60.5723 65.124 60.6923 65.084 60.8443 65.084C61.0043 65.084 61.1243 65.124 61.2043 65.204C61.2923 65.284 61.3363 65.408 61.3363 65.576V68.78C61.3363 69.292 61.4403 69.676 61.6483 69.932C61.8643 70.18 62.2003 70.304 62.6563 70.304C63.1523 70.304 63.5563 70.136 63.8683 69.8C64.1803 69.464 64.3363 69.024 64.3363 68.48V65.576C64.3363 65.408 64.3763 65.284 64.4563 65.204C64.5443 65.124 64.6683 65.084 64.8283 65.084C64.9803 65.084 65.0963 65.124 65.1763 65.204C65.2643 65.284 65.3083 65.408 65.3083 65.576V70.58C65.3083 70.916 65.1523 71.084 64.8403 71.084C64.6883 71.084 64.5683 71.04 64.4803 70.952C64.4003 70.864 64.3603 70.74 64.3603 70.58V69.488L64.5163 69.656C64.3563 70.128 64.0923 70.488 63.7243 70.736C63.3643 70.984 62.9443 71.108 62.4643 71.108ZM71.8188 73.244C71.6588 73.244 71.5348 73.2 71.4468 73.112C71.3668 73.032 71.3268 72.912 71.3268 72.752V69.632H71.4588C71.3308 70.08 71.0788 70.44 70.7028 70.712C70.3268 70.976 69.8748 71.108 69.3468 71.108C68.8268 71.108 68.3708 70.984 67.9788 70.736C67.5948 70.488 67.2948 70.14 67.0788 69.692C66.8708 69.236 66.7668 68.7 66.7668 68.084C66.7668 67.46 66.8708 66.924 67.0788 66.476C67.2948 66.02 67.5948 65.672 67.9788 65.432C68.3708 65.184 68.8268 65.06 69.3468 65.06C69.8748 65.06 70.3268 65.196 70.7028 65.468C71.0868 65.732 71.3428 66.092 71.4708 66.548L71.3388 66.716V65.576C71.3388 65.416 71.3788 65.296 71.4588 65.216C71.5468 65.128 71.6668 65.084 71.8188 65.084C71.9788 65.084 72.0988 65.128 72.1788 65.216C72.2588 65.296 72.2988 65.416 72.2988 65.576V72.752C72.2988 72.912 72.2548 73.032 72.1668 73.112C72.0868 73.2 71.9708 73.244 71.8188 73.244ZM69.5508 70.328C69.9108 70.328 70.2268 70.24 70.4988 70.064C70.7708 69.888 70.9788 69.632 71.1228 69.296C71.2748 68.96 71.3508 68.556 71.3508 68.084C71.3508 67.356 71.1868 66.8 70.8588 66.416C70.5388 66.032 70.1028 65.84 69.5508 65.84C69.1828 65.84 68.8628 65.928 68.5908 66.104C68.3268 66.272 68.1188 66.524 67.9668 66.86C67.8228 67.188 67.7508 67.596 67.7508 68.084C67.7508 68.804 67.9148 69.36 68.2428 69.752C68.5708 70.136 69.0068 70.328 69.5508 70.328ZM74.6149 71.084C74.4549 71.084 74.3309 71.04 74.2429 70.952C74.1629 70.864 74.1229 70.74 74.1229 70.58V65.576C74.1229 65.416 74.1629 65.296 74.2429 65.216C74.3229 65.128 74.4389 65.084 74.5909 65.084C74.7429 65.084 74.8589 65.128 74.9389 65.216C75.0269 65.296 75.0709 65.416 75.0709 65.576V66.548H74.9509C75.0789 66.076 75.3229 65.712 75.6829 65.456C76.0429 65.2 76.4869 65.064 77.0149 65.048C77.1349 65.04 77.2309 65.068 77.3029 65.132C77.3749 65.188 77.4149 65.288 77.4229 65.432C77.4309 65.568 77.3989 65.676 77.3269 65.756C77.2549 65.836 77.1429 65.884 76.9909 65.9L76.7989 65.924C76.2549 65.972 75.8349 66.148 75.5389 66.452C75.2509 66.748 75.1069 67.156 75.1069 67.676V70.58C75.1069 70.74 75.0629 70.864 74.9749 70.952C74.8949 71.04 74.7749 71.084 74.6149 71.084Z" fill="#F9FAFB"/>
<path d="M71.1469 53.1622H67.5091V26.875H70.1253C70.2763 26.875 70.4228 26.9384 70.5256 27.05L71.0616 27.6297C71.1163 27.6887 71.1469 27.7653 71.1469 27.8462V53.1622Z" fill="#A3673E"/>
<path d="M70.3659 53.1622H66.7281V27.1725C66.7281 27.0084 66.8616 26.875 67.0256 26.875H70.0684C70.2325 26.875 70.3659 27.0084 70.3659 27.1725V53.1622Z" fill="#BF855E"/>
<path d="M71.1469 44.1562L66.7281 44.1606V47.4419L71.1469 47.4375V44.1562Z" fill="url(#paint0_linear_673_9855)"/>
<path d="M66.7281 30.8169L71.1469 30.8125V27.5312L66.7281 27.5356V30.8169Z" fill="url(#paint1_linear_673_9855)"/>
<path d="M78.2431 45.6066H59.3672C59.2906 45.6066 59.2163 45.5869 59.1506 45.5497L58.2822 45.0619C58.1684 44.9984 58.0963 44.8759 58.0963 44.7447V29.0603C58.0963 28.9422 58.1925 28.8438 58.3128 28.8438H77.8034C77.9084 28.8438 78.0134 28.8787 78.0966 28.9422L78.51 29.2594C78.6194 29.3425 78.6828 29.4737 78.6828 29.6094V45.1625C78.685 45.4097 78.4859 45.6066 78.2431 45.6066Z" fill="url(#paint2_linear_673_9855)"/>
<path d="M77.7466 44.9591H58.3172C58.1947 44.9591 58.0963 44.8606 58.0963 44.7381V29.0647C58.0963 28.9422 58.1947 28.8438 58.3172 28.8438H77.7466C77.8691 28.8438 77.9675 28.9422 77.9675 29.0647V44.7381C77.9675 44.8606 77.8691 44.9591 77.7466 44.9591Z" fill="#F5F5F5"/>
<path d="M63.3025 34.3672H72.7175M63.4075 39.2891H72.8225" stroke="#616161" stroke-width="2.25" stroke-miterlimit="10" stroke-linecap="round"/>
<path d="M77.7553 31.81H58.3084C58.2522 31.81 58.1982 31.7876 58.1584 31.7479C58.1186 31.7081 58.0963 31.6541 58.0963 31.5978V29.0559C58.0963 28.9378 58.1925 28.8438 58.3084 28.8438H77.7531C77.8713 28.8438 77.9653 28.94 77.9653 29.0559V31.5978C77.9675 31.7159 77.8713 31.81 77.7553 31.81Z" fill="url(#paint3_linear_673_9855)"/>
<path d="M61.0647 29.0603V44.7425C61.0647 44.8628 60.9684 44.9591 60.8481 44.9591H58.3128C58.1925 44.9591 58.0963 44.8628 58.0963 44.7425V29.0603C58.0963 28.94 58.1925 28.8438 58.3128 28.8438H60.8481C60.9663 28.8438 61.0647 28.94 61.0647 29.0603Z" fill="url(#paint4_linear_673_9855)"/>
<defs>
<linearGradient id="paint0_linear_673_9855" x1="68.9375" y1="43.8557" x2="68.9375" y2="47.1415" gradientUnits="userSpaceOnUse">
<stop offset="0.167" stop-color="#424242"/>
<stop offset="0.944" stop-color="#424242" stop-opacity="0"/>
</linearGradient>
<linearGradient id="paint1_linear_673_9855" x1="68.9375" y1="31.0341" x2="68.9375" y2="28.0875" gradientUnits="userSpaceOnUse">
<stop offset="0.232" stop-color="#424242"/>
<stop offset="0.943" stop-color="#424242" stop-opacity="0"/>
</linearGradient>
<linearGradient id="paint2_linear_673_9855" x1="68.3906" y1="45.7608" x2="68.3906" y2="32.1924" gradientUnits="userSpaceOnUse">
<stop offset="0.373" stop-color="#9E9E9E"/>
<stop offset="1" stop-color="#BDBDBD"/>
</linearGradient>
<linearGradient id="paint3_linear_673_9855" x1="68.0321" y1="31.0785" x2="68.0321" y2="24.6829" gradientUnits="userSpaceOnUse">
<stop offset="0.202" stop-color="#F5F5F5"/>
<stop offset="1" stop-color="#BDBDBD"/>
</linearGradient>
<linearGradient id="paint4_linear_673_9855" x1="62.0941" y1="36.9012" x2="55.6985" y2="36.9012" gradientUnits="userSpaceOnUse">
<stop offset="0.507" stop-color="#BDBDBD" stop-opacity="0"/>
<stop offset="1" stop-color="#BDBDBD"/>
</linearGradient>
</defs>
</svg>
